<svg width="58" height="57" viewBox="0 0 58 57" fill="none" xmlns="http://www.w3.org/2000/svg">
<g filter="url(#filter0_d_337_341)">
<path d="M31 49.6074C43.7025 49.6074 54 39.31 54 26.6074C54 13.9049 43.7025 3.60742 31 3.60742C18.2975 3.60742 8 13.9049 8 26.6074C8 39.31 18.2975 49.6074 31 49.6074Z" fill="white"/>
<path d="M31 49.1479C43.4485 49.1479 53.54 39.0564 53.54 26.6079C53.54 14.1594 43.4485 4.06787 31 4.06787C18.5515 4.06787 8.45996 14.1594 8.45996 26.6079C8.45996 39.0564 18.5515 49.1479 31 49.1479Z" stroke="#00A58A"/>
<path d="M37.4495 32.0476L32.4937 27.0918L37.4463 22.1393C37.698 21.8744 37.8362 21.5216 37.8315 21.1563C37.8268 20.7909 37.6796 20.4418 37.4212 20.1834C37.1629 19.9251 36.8138 19.7778 36.4484 19.7732C36.0831 19.7685 35.7303 19.9067 35.4654 20.1584L30.5129 25.1109L25.5597 20.1577C25.2948 19.9061 24.942 19.7678 24.5766 19.7725C24.2113 19.7772 23.8622 19.9244 23.6038 20.1828C23.3455 20.4412 23.1982 20.7902 23.1936 21.1556C23.1889 21.521 23.3271 21.8737 23.5788 22.1386L28.5313 27.0912L23.5749 32.0476C23.3232 32.3125 23.185 32.6653 23.1897 33.0306C23.1943 33.396 23.3416 33.7451 23.5999 34.0034C23.8583 34.2618 24.2074 34.409 24.5727 34.4137C24.9381 34.4184 25.2908 34.2802 25.5558 34.0285L30.5116 29.0727L35.468 34.0292C35.7329 34.2808 36.0857 34.4191 36.451 34.4144C36.8164 34.4097 37.1655 34.2625 37.4238 34.0041C37.6822 33.7457 37.8294 33.3966 37.8341 33.0313C37.8388 32.6659 37.7006 32.3132 37.4489 32.0483L37.4495 32.0476Z" fill="#72787F"/>
</g>
<defs>
<filter id="filter0_d_337_341" x="0.959961" y="0.567871" width="56.0801" height="56.0801" filterUnits="userSpaceOnUse" color-interpolation-filters="sRGB">
<feFlood flood-opacity="0" result="BackgroundImageFix"/>
<feColorMatrix in="SourceAlpha" type="matrix" values="0 0 0 0 0 0 0 0 0 0 0 0 0 0 0 0 0 0 127 0" result="hardAlpha"/>
<feOffset dx="-2" dy="2"/>
<feGaussianBlur stdDeviation="2.5"/>
<feComposite in2="hardAlpha" operator="out"/>
<feColorMatrix type="matrix" values="0 0 0 0 0 0 0 0 0 0 0 0 0 0 0 0 0 0 0.1 0"/>
<feBlend mode="normal" in2="BackgroundImageFix" result="effect1_dropShadow_337_341"/>
<feBlend mode="normal" in="SourceGraphic" in2="effect1_dropShadow_337_341" result="shape"/>
</filter>
</defs>
</svg>
