<svg width="30" height="31" viewBox="0 0 30 31" fill="none" xmlns="http://www.w3.org/2000/svg">
<path d="M15 1.5H3C1.89543 1.5 1 2.39543 1 3.5V15.5C1 16.6046 1.89543 17.5 3 17.5H15C16.1046 17.5 17 16.6046 17 15.5V3.5C17 2.39543 16.1046 1.5 15 1.5Z" fill="#454545"/>
<path d="M27 13.5H15C13.8954 13.5 13 14.3954 13 15.5V27.5C13 28.6046 13.8954 29.5 15 29.5H27C28.1046 29.5 29 28.6046 29 27.5V15.5C29 14.3954 28.1046 13.5 27 13.5Z" fill="#00A58A"/>
<path d="M9.47095 11.3867L11.4241 12.9346L10.428 13.7842L8.50903 12.2363L9.47095 11.3867ZM11.4924 8.78906V9.10645C11.4924 9.64681 11.4176 10.1318 11.2678 10.5615C11.1181 10.9912 10.9065 11.3574 10.6331 11.6602C10.3596 11.9629 10.0357 12.1956 9.66138 12.3584C9.29028 12.5179 8.8785 12.5977 8.42603 12.5977C7.97355 12.5977 7.56014 12.5179 7.18579 12.3584C6.81144 12.1956 6.48592 11.9629 6.20923 11.6602C5.93579 11.3574 5.7242 10.9912 5.57446 10.5615C5.42472 10.1318 5.34985 9.64681 5.34985 9.10645V8.78906C5.34985 8.2487 5.42472 7.76367 5.57446 7.33398C5.7242 6.90104 5.93416 6.5332 6.20435 6.23047C6.47778 5.92773 6.80168 5.69661 7.17603 5.53711C7.55037 5.37435 7.96379 5.29297 8.41626 5.29297C8.86873 5.29297 9.28215 5.37435 9.65649 5.53711C10.0308 5.69661 10.3547 5.92773 10.6282 6.23047C10.9016 6.5332 11.1132 6.90104 11.2629 7.33398C11.4159 7.76367 11.4924 8.2487 11.4924 8.78906ZM9.87622 9.10645V8.7793C9.87622 8.41797 9.84367 8.09896 9.77856 7.82227C9.71672 7.54232 9.62231 7.30794 9.49536 7.11914C9.37166 6.93034 9.21867 6.78874 9.03638 6.69434C8.85409 6.59668 8.64738 6.54785 8.41626 6.54785C8.17863 6.54785 7.96867 6.59668 7.78638 6.69434C7.60734 6.78874 7.45597 6.93034 7.33228 7.11914C7.21183 7.30794 7.11906 7.54232 7.05396 7.82227C6.99211 8.09896 6.96118 8.41797 6.96118 8.7793V9.10645C6.96118 9.46452 6.99211 9.78353 7.05396 10.0635C7.11906 10.3402 7.21346 10.5745 7.33716 10.7666C7.46086 10.9587 7.61385 11.1035 7.79614 11.2012C7.97843 11.2988 8.1884 11.3477 8.42603 11.3477C8.65715 11.3477 8.86222 11.2988 9.04126 11.2012C9.22355 11.1035 9.37655 10.9587 9.50024 10.7666C9.62394 10.5745 9.71672 10.3402 9.77856 10.0635C9.84367 9.78353 9.87622 9.46452 9.87622 9.10645Z" fill="white"/>
<path d="M21.38 19.7432L19.5441 25.5H17.8448L20.4767 18.3906H21.5509L21.38 19.7432ZM22.9034 25.5L21.0626 19.7432L20.8722 18.3906H21.9611L24.6027 25.5H22.9034ZM22.8253 22.8535V24.084H19.1193V22.8535H22.8253Z" fill="white"/>
</svg>
