<svg width="30" height="31" viewBox="0 0 30 31" fill="none" xmlns="http://www.w3.org/2000/svg">
<path d="M7.157 6.65701H2V1.5H7.157V6.65701ZM3.276 5.38101H5.87601V2.78101H3.276V5.38101Z" fill="#454545"/>
<path d="M8.81198 3.44092H7.84198V4.71692H8.81198V3.44092Z" fill="#454545"/>
<path d="M10.841 3.44092H9.87097V4.71692H10.841V3.44092Z" fill="#454545"/>
<path d="M12.869 3.44092H11.899V4.71692H12.869V3.44092Z" fill="#454545"/>
<path d="M14.898 3.44092H13.928V4.71692H14.898V3.44092Z" fill="#454545"/>
<path d="M16.926 3.44092H15.956V4.71692H16.926V3.44092Z" fill="#454545"/>
<path d="M18.955 3.44092H17.985V4.71692H18.955V3.44092Z" fill="#454545"/>
<path d="M20.983 3.44092H20.013V4.71692H20.983V3.44092Z" fill="#454545"/>
<path d="M25.673 6.65701H20.516V1.5H25.673V6.65701ZM21.792 5.38101H24.392V2.78101H21.792V5.38101Z" fill="#454545"/>
<path d="M23.732 6.10303H22.456V7.07303H23.732V6.10303Z" fill="#454545"/>
<path d="M23.732 8.1311H22.456V9.1011H23.732V8.1311Z" fill="#454545"/>
<path d="M23.732 10.1599H22.456V11.1299H23.732V10.1599Z" fill="#454545"/>
<path d="M23.732 12.188H22.456V13.158H23.732V12.188Z" fill="#454545"/>
<path d="M23.732 14.217H22.456V15.187H23.732V14.217Z" fill="#454545"/>
<path d="M23.732 16.2461H22.456V17.2161H23.732V16.2461Z" fill="#454545"/>
<path d="M23.732 18.2739H22.456V19.2439H23.732V18.2739Z" fill="#454545"/>
<path d="M19.8321 21.957H18.8621V23.233H19.8321V21.957Z" fill="#454545"/>
<path d="M17.804 21.957H16.834V23.233H17.804V21.957Z" fill="#454545"/>
<path d="M15.7751 21.957H14.8051V23.233H15.7751V21.957Z" fill="#454545"/>
<path d="M13.747 21.957H12.777V23.233H13.747V21.957Z" fill="#454545"/>
<path d="M11.718 21.957H10.748V23.233H11.718V21.957Z" fill="#454545"/>
<path d="M9.69003 21.957H8.72003V23.233H9.69003V21.957Z" fill="#454545"/>
<path d="M7.66104 21.957H6.69104V23.233H7.66104V21.957Z" fill="#454545"/>
<path d="M7.157 25.1729H2V20.0159H7.157V25.1729ZM3.276 23.8969H5.87599V21.2969H3.276V23.8969Z" fill="#454545"/>
<path d="M5.21698 19.5999H3.94098V20.5699H5.21698V19.5999Z" fill="#454545"/>
<path d="M5.21698 17.572H3.94098V18.542H5.21698V17.572Z" fill="#454545"/>
<path d="M5.21698 15.543H3.94098V16.513H5.21698V15.543Z" fill="#454545"/>
<path d="M5.21698 13.5149H3.94098V14.4849H5.21698V13.5149Z" fill="#454545"/>
<path d="M5.21698 11.4858H3.94098V12.4558H5.21698V11.4858Z" fill="#454545"/>
<path d="M5.21698 9.45801H3.94098V10.428H5.21698V9.45801Z" fill="#454545"/>
<path d="M5.21698 7.42896H3.94098V8.39896H5.21698V7.42896Z" fill="#454545"/>
<path d="M30 23.5H20V25.5H30V23.5Z" fill="#00A58A"/>
<path d="M26 29.5V19.5H24V29.5H26Z" fill="#00A58A"/>
</svg>
