<svg width="30" height="31" viewBox="0 0 30 31" fill="none" xmlns="http://www.w3.org/2000/svg">
<path d="M8.86499 21.19H3.565C2.88638 21.1894 2.23569 20.9197 1.75574 20.4399C1.27579 19.9602 1.0058 19.3096 1.005 18.631V11.79C1.0058 11.1113 1.27579 10.4608 1.75574 9.981C2.23569 9.50123 2.88638 9.23149 3.565 9.23096H8.86499V21.19ZM3.565 10.999C3.461 10.9988 3.35798 11.0192 3.26184 11.0589C3.1657 11.0985 3.07831 11.1568 3.00467 11.2302C2.93103 11.3037 2.8726 11.3909 2.83267 11.4869C2.79275 11.583 2.77213 11.6859 2.772 11.79V18.632C2.77253 18.8419 2.85632 19.0431 3.00497 19.1914C3.15363 19.3397 3.35503 19.423 3.565 19.423H7.10199V11L3.565 10.999Z" fill="#454545"/>
<path d="M18.727 28.2329C18.1414 28.2157 17.569 28.055 17.06 27.7649L16.973 27.7119L7.09802 20.8879V9.76992L17.686 2.43993C18.0757 2.28147 18.4914 2.1967 18.912 2.18993C19.1912 2.18253 19.4689 2.23233 19.7281 2.33627C19.9873 2.4402 20.2225 2.59606 20.4192 2.79426C20.6159 2.99247 20.7699 3.22883 20.8719 3.48879C20.9738 3.74876 21.0215 4.02684 21.012 4.30592V26.6059L20.949 26.7639C20.7651 27.2009 20.456 27.5735 20.0605 27.835C19.6651 28.0964 19.2011 28.2349 18.727 28.2329ZM17.934 26.2269C18.1766 26.3661 18.4479 26.4479 18.727 26.4659C18.8273 26.4676 18.9266 26.4451 19.0164 26.4004C19.1062 26.3556 19.1839 26.29 19.243 26.2089V4.36892C19.212 3.95792 19.094 3.95792 18.912 3.95792C18.7541 3.96285 18.5977 3.99116 18.448 4.04192L8.86603 10.6949V19.9579L17.934 26.2269Z" fill="#454545"/>
<path d="M23.415 19.3769L22.115 18.1769C24.865 15.2069 22.089 12.4249 21.97 12.3079L23.206 11.0449C23.779 11.5709 24.2402 12.207 24.5621 12.9151C24.8839 13.6232 25.0599 14.3889 25.0794 15.1666C25.0989 15.9442 24.9616 16.7177 24.6756 17.4411C24.3897 18.1645 23.9609 18.8228 23.415 19.3769Z" fill="#00A58A"/>
<path d="M26.51 23.278L25.088 22.23C31.088 14.095 24.788 8.73004 24.518 8.50504L25.646 7.14404C25.725 7.20704 33.485 13.816 26.51 23.278Z" fill="#00A58A"/>
</svg>
