<svg width="30" height="31" viewBox="0 0 30 31" fill="none" xmlns="http://www.w3.org/2000/svg">
<path d="M23.13 2.37794C22.1186 2.37622 21.1292 2.67389 20.2866 3.23344C19.4441 3.793 18.7859 4.58941 18.3952 5.52234C18.0044 6.45527 17.8985 7.48298 18.0908 8.47599C18.283 9.46901 18.7649 10.3829 19.4756 11.1025C20.1864 11.8222 21.0942 12.3154 22.0848 12.52C23.0753 12.7246 24.1043 12.6315 25.042 12.2523C25.9797 11.8732 26.7842 11.225 27.3542 10.3895C27.9242 9.5539 28.2342 8.56834 28.245 7.55694C28.252 6.88026 28.125 6.20889 27.8712 5.58157C27.6174 4.95424 27.2419 4.38338 26.7664 3.9019C26.2909 3.42043 25.7247 3.03787 25.1006 2.77631C24.4765 2.51475 23.8067 2.37935 23.13 2.37794ZM26.355 8.31894H23.855V10.8189H22.376V8.31894H19.876V7.65894C19.8639 7.61774 19.8585 7.57485 19.86 7.53194C19.8613 7.49808 19.8667 7.46451 19.876 7.43194V6.84394H22.376V4.34394H23.854V6.84394H26.354L26.355 8.31894Z" fill="#00A58A"/>
<path d="M18.4321 14.408V14.425L18.0501 14.018C16.1081 12.103 13.9681 12.644 12.2501 14.018C12.2274 14.0393 12.206 14.062 12.1861 14.086L12.1251 14.151C11.9662 14.3017 11.8559 14.4964 11.8084 14.7102C11.7608 14.924 11.7781 15.1471 11.8581 15.351C12.2171 16.021 12.8171 15.903 13.6141 15.406C13.6141 15.406 15.7901 14.235 16.8381 15.351L23.2491 22.176V22.186C23.2491 22.186 23.2861 22.225 23.3741 22.31V22.29C23.8194 22.7802 24.066 23.4187 24.066 24.081C24.066 24.7432 23.8194 25.3817 23.3741 25.872C23.3551 25.891 23.3301 25.92 23.3301 25.92C23.3049 25.9502 23.2775 25.9786 23.2481 26.005C23.0283 26.2279 22.7664 26.4049 22.4775 26.5257C22.1887 26.6466 21.8787 26.7088 21.5656 26.7088C21.2525 26.7088 20.9426 26.6466 20.6538 26.5257C20.3649 26.4049 20.103 26.2279 19.8831 26.005L14.2361 19.993L12.4881 20.775L18.3151 26.975C18.3951 27.06 18.4561 27.125 18.5081 27.183L18.6511 27.343L18.6601 27.323C20.5061 29.048 22.4001 29.054 24.4601 27.323C24.4842 27.3048 24.5051 27.2828 24.5221 27.258C24.5446 27.2384 24.5651 27.2167 24.5831 27.193C25.0215 26.8002 25.3721 26.3194 25.6122 25.782C25.8522 25.2446 25.9763 24.6626 25.9763 24.074C25.9763 23.4854 25.8522 22.9034 25.6122 22.366C25.3721 21.8286 25.0215 21.3478 24.5831 20.955L18.4321 14.408Z" fill="#454545"/>
<path d="M8.94308 17.3629V17.3459L9.3251 17.7529C11.2671 19.6679 13.4071 19.1279 15.1251 17.7529C15.1479 17.7316 15.1692 17.7089 15.1891 17.6849L15.2501 17.6199C15.409 17.4691 15.5193 17.2744 15.5669 17.0606C15.6144 16.8469 15.5971 16.6237 15.5171 16.4199C15.1581 15.7499 14.5581 15.8679 13.7611 16.3649C13.7611 16.3649 11.5851 17.5369 10.5371 16.4209L4.1261 9.59586V9.58585C4.1261 9.58585 4.0901 9.54685 4.0011 9.46185V9.48086C3.55566 8.99071 3.30884 8.35217 3.30884 7.68986C3.30884 7.02755 3.55566 6.389 4.0011 5.89886L4.0441 5.85086C4.06946 5.82068 4.09686 5.79228 4.1261 5.76586C4.346 5.54306 4.60796 5.36615 4.89679 5.2454C5.18561 5.12466 5.49555 5.06248 5.80859 5.06248C6.12164 5.06248 6.43157 5.12466 6.7204 5.2454C7.00922 5.36615 7.27118 5.54306 7.49109 5.76586L13.1381 11.7779L14.8861 10.9959L9.05908 4.79586C8.98008 4.71086 8.91809 4.64586 8.86609 4.58786L8.72308 4.42786L8.71408 4.44786C6.86808 2.72286 4.97409 2.71686 2.91409 4.44786C2.89031 4.46601 2.86969 4.48797 2.85309 4.51286C2.83025 4.53203 2.80977 4.55384 2.79208 4.57785C2.35373 4.97065 2.00311 5.45144 1.76306 5.98886C1.52301 6.52628 1.39893 7.10826 1.39893 7.69685C1.39893 8.28545 1.52301 8.86743 1.76306 9.40485C2.00311 9.94227 2.35373 10.4231 2.79208 10.8159L8.94308 17.3629Z" fill="#454545"/>
</svg>
