<svg width="71" height="70" viewBox="0 0 71 70" fill="none" xmlns="http://www.w3.org/2000/svg">
<path d="M39.6657 60.2591H7.0422C5.94884 59.6869 5.04986 58.8032 4.45902 57.7197C3.86818 56.6363 3.61203 55.4019 3.72304 54.1729H39.6657V60.2591Z" fill="#FFC960"/>
<path d="M44.2372 15.7184C44.1868 15.7184 44.1365 15.7129 44.0872 15.7023C43.9893 15.6829 43.8962 15.6443 43.8133 15.5889C43.7303 15.5335 43.6591 15.4623 43.6037 15.3793C43.5483 15.2964 43.5098 15.2033 43.4904 15.1054C43.4709 15.0076 43.471 14.9069 43.4905 14.8091C44.3105 10.7003 45.7735 9.0354 48.5407 9.0354C49.259 9.04057 49.9679 9.20039 50.6189 9.50403C51.27 9.80767 51.848 10.248 52.3136 10.795C52.7904 11.3723 53.1338 12.0478 53.319 12.7732C53.5043 13.4986 53.527 14.2561 53.3855 14.9913C53.3559 15.1689 53.2642 15.3304 53.1269 15.4468C52.9895 15.5633 52.8153 15.6272 52.6352 15.6273H48.5389C48.3371 15.6273 48.1435 15.5471 48.0008 15.4044C47.8581 15.2617 47.7779 15.068 47.7779 14.8662C47.7779 14.6644 47.8581 14.4708 48.0008 14.3281C48.1435 14.1854 48.3371 14.1053 48.5389 14.1053H51.9456C51.9796 13.2591 51.6961 12.4308 51.1506 11.7829C50.8284 11.4039 50.4284 11.0986 49.9777 10.8878C49.5271 10.677 49.0364 10.5655 48.5389 10.561C46.8204 10.561 45.745 11.2863 44.9804 15.111C44.9451 15.2822 44.852 15.436 44.7166 15.5466C44.5813 15.6572 44.412 15.7179 44.2372 15.7184Z" fill="#303D53" stroke="#303C52" stroke-width="0.5"/>
<path d="M39.4103 60.7662H7.83004C7.09246 60.7313 6.3697 60.5467 5.70573 60.2237C5.04176 59.9006 4.45045 59.4457 3.96781 58.8869C3.38297 58.1951 2.95741 57.3831 2.72125 56.5085C2.48509 55.634 2.44409 54.7181 2.6012 53.826C2.62425 53.6422 2.71353 53.4731 2.85231 53.3505C2.99109 53.2278 3.16984 53.16 3.35506 53.1597H39.4103C39.6121 53.1597 39.8057 53.2398 39.9484 53.3825C40.0911 53.5253 40.1713 53.7189 40.1713 53.9207C40.1713 54.1226 40.0911 54.3161 39.9484 54.4588C39.8057 54.6015 39.6121 54.6817 39.4103 54.6817H4.05713C3.97473 55.8443 4.35119 56.9929 5.10577 57.8812C5.79657 58.6789 6.77577 59.1697 7.82827 59.2459H39.4085C39.5084 59.2459 39.6074 59.2657 39.6997 59.304C39.792 59.3422 39.8759 59.3983 39.9466 59.4689C40.0173 59.5396 40.0733 59.6234 40.1116 59.7158C40.1498 59.8081 40.1695 59.9071 40.1695 60.007C40.1695 60.1069 40.1498 60.2059 40.1116 60.2982C40.0733 60.3906 40.0173 60.4744 39.9466 60.5451C39.8759 60.6158 39.792 60.6718 39.6997 60.7101C39.6074 60.7483 39.5084 60.768 39.4085 60.768L39.4103 60.7662Z" fill="#303D53" stroke="#303C52" stroke-width="0.5"/>
<path d="M10.5346 52.2023C10.4078 52.2022 10.2829 52.1704 10.1716 52.1096C10.0602 52.0489 9.96586 51.9613 9.89711 51.8547C9.82835 51.7481 9.7874 51.626 9.77799 51.4995C9.76858 51.373 9.79102 51.2461 9.84325 51.1305C11.2545 48.0275 10.2434 36.2551 9.6414 29.222C9.43417 26.8032 9.25374 24.713 9.20551 23.4428C9.19856 23.2599 9.25752 23.0805 9.37165 22.9374L11.2224 20.615L9.42701 17.5459C9.34532 17.4063 9.31028 17.2441 9.32697 17.0832C10.029 10.268 13.0445 8.9551 15.4383 9.03191H48.5406C48.6405 9.03191 48.7395 9.05156 48.8318 9.08981C48.9241 9.12805 49.008 9.18411 49.0787 9.25478C49.1493 9.32544 49.2054 9.4093 49.2436 9.50163C49.2819 9.59396 49.3016 9.69292 49.3016 9.79286C49.3016 9.8928 49.2819 9.99176 49.2436 10.0841C49.2054 10.1764 49.1493 10.2604 49.0787 10.3311C49.008 10.4017 48.9241 10.4578 48.8318 10.496C48.7395 10.5343 48.6405 10.5539 48.5406 10.5539H15.4097C14.4486 10.5164 11.6136 10.4145 10.8669 16.9939L12.7998 20.297C12.8776 20.4297 12.9134 20.5829 12.9022 20.7364C12.891 20.8898 12.8335 21.0363 12.7372 21.1563L10.7383 23.6573C10.799 24.9078 10.9651 26.8567 11.1581 29.0826C12.0263 39.2009 12.6854 48.5545 11.2295 51.7522C11.1695 51.8863 11.0719 52.0002 10.9486 52.0801C10.8253 52.16 10.6815 52.2024 10.5346 52.2023Z" fill="#303D53" stroke="#303C52" stroke-width="0.5"/>
<path d="M31.2964 26.2796H18.1109C17.909 26.2796 17.7155 26.1994 17.5727 26.0567C17.43 25.914 17.3499 25.7205 17.3499 25.5186C17.3499 25.3168 17.43 25.1232 17.5727 24.9804C17.7155 24.8377 17.909 24.7576 18.1109 24.7576H31.2964C31.4982 24.7576 31.6918 24.8377 31.8345 24.9804C31.9772 25.1232 32.0574 25.3168 32.0574 25.5186C32.0574 25.7205 31.9772 25.914 31.8345 26.0567C31.6918 26.1994 31.4982 26.2796 31.2964 26.2796Z" fill="#303D53" stroke="#303C52" stroke-width="0.5"/>
<path d="M29.2688 31.3512H18.1109C17.909 31.3512 17.7155 31.2711 17.5727 31.1284C17.43 30.9856 17.3499 30.7921 17.3499 30.5903C17.3499 30.3884 17.43 30.1948 17.5727 30.0521C17.7155 29.9094 17.909 29.8292 18.1109 29.8292H29.2688C29.4706 29.8292 29.6642 29.9094 29.8069 30.0521C29.9496 30.1948 30.0298 30.3884 30.0298 30.5903C30.0298 30.7921 29.9496 30.9856 29.8069 31.1284C29.6642 31.2711 29.4706 31.3512 29.2688 31.3512Z" fill="#303D53" stroke="#303C52" stroke-width="0.5"/>
<path d="M36.8754 20.7006H18.1181C17.9162 20.7006 17.7227 20.6204 17.5799 20.4777C17.4372 20.335 17.3571 20.1415 17.3571 19.9396C17.3571 19.7378 17.4372 19.5442 17.5799 19.4015C17.7227 19.2587 17.9162 19.1786 18.1181 19.1786H36.8754C37.0772 19.1786 37.2708 19.2587 37.4135 19.4015C37.5563 19.5442 37.6364 19.7378 37.6364 19.9396C37.6364 20.1415 37.5563 20.335 37.4135 20.4777C37.2708 20.6204 37.0772 20.7006 36.8754 20.7006Z" fill="#303D53" stroke="#303C52" stroke-width="0.5"/>
<path d="M34.8478 46.5661H18.1109C17.909 46.5661 17.7155 46.4859 17.5727 46.3432C17.43 46.2005 17.3499 46.007 17.3499 45.8051C17.3499 45.6033 17.43 45.4097 17.5727 45.2669C17.7155 45.1242 17.909 45.0441 18.1109 45.0441H34.8478C35.0496 45.0441 35.2432 45.1242 35.3859 45.2669C35.5286 45.4097 35.6088 45.6033 35.6088 45.8051C35.6088 46.007 35.5286 46.2005 35.3859 46.3432C35.2432 46.4859 35.0496 46.5661 34.8478 46.5661Z" fill="#303D53" stroke="#303C52" stroke-width="0.5"/>
<path d="M30.789 41.4947H18.1055C18.0056 41.4947 17.9066 41.475 17.8143 41.4368C17.722 41.3985 17.638 41.3425 17.5674 41.2718C17.4967 41.2011 17.4407 41.1173 17.4024 41.0249C17.3642 40.9326 17.3445 40.8337 17.3445 40.7337C17.3445 40.6338 17.3642 40.5348 17.4024 40.4425C17.4407 40.3502 17.4967 40.2662 17.5674 40.1955C17.638 40.1249 17.722 40.0688 17.8143 40.0306C17.9066 39.9923 18.0056 39.9727 18.1055 39.9727H30.789C30.889 39.9727 30.9879 39.9923 31.0803 40.0306C31.1726 40.0688 31.2565 40.1249 31.3272 40.1955C31.3978 40.2662 31.4539 40.3502 31.4921 40.4425C31.5304 40.5348 31.5501 40.6338 31.5501 40.7337C31.5501 40.8337 31.5304 40.9326 31.4921 41.0249C31.4539 41.1173 31.3978 41.2011 31.3272 41.2718C31.2565 41.3425 31.1726 41.3985 31.0803 41.4368C30.9879 41.475 30.889 41.4947 30.789 41.4947Z" fill="#303D53" stroke="#303C52" stroke-width="0.5"/>
<path d="M54.4216 30.3846C54.4216 29.8712 54.0054 29.455 53.4919 29.455C52.9785 29.455 52.5623 29.8712 52.5623 30.3846V41.5407C52.5623 42.0541 52.9785 42.4703 53.4919 42.4703C54.0054 42.4703 54.4216 42.0541 54.4216 41.5407V30.3846Z" fill="#00A58A"/>
<path d="M59.0703 36.8922C59.5838 36.8922 60 36.476 60 35.9625C60 35.4491 59.5838 35.0328 59.0703 35.0328H47.9143C47.4008 35.0328 46.9846 35.4491 46.9846 35.9625C46.9846 36.476 47.4008 36.8922 47.9143 36.8922H59.0703Z" fill="#00A58A"/>
<rect x="39.4923" y="21.9626" width="28" height="28" rx="14" stroke="#303D53" stroke-width="2"/>
<path d="M54 50.757C54 50.3231 53.5523 49.9713 53 49.9713C52.4477 49.9713 52 50.3231 52 50.757V60.1856C52 60.6195 52.4477 60.9713 53 60.9713C53.5523 60.9713 54 60.6195 54 60.1856V50.757Z" fill="#303D53"/>
</svg>
