<svg width="71" height="70" viewBox="0 0 71 70" fill="none" xmlns="http://www.w3.org/2000/svg">
<path d="M58.1474 56.1384H7.21997C6.89726 56.1356 6.58859 56.0063 6.3604 55.7781C6.1322 55.5499 6.00275 55.2412 6 54.9185V19.7609C6.00275 19.4382 6.1322 19.1295 6.3604 18.9013C6.58859 18.6731 6.89726 18.5436 7.21997 18.5409H14.9159C15.2397 18.5409 15.5503 18.6695 15.7792 18.8985C16.0082 19.1275 16.1368 19.438 16.1368 19.7618C16.1368 20.0856 16.0082 20.3961 15.7792 20.625C15.5503 20.854 15.2397 20.9827 14.9159 20.9827H8.43994V53.6985H56.9258V48.0891C56.9258 47.7653 57.0543 47.4548 57.2833 47.2258C57.5122 46.9969 57.8228 46.8682 58.1466 46.8682C58.4703 46.8682 58.7809 46.9969 59.0098 47.2258C59.2388 47.4548 59.3674 47.7653 59.3674 48.0891V54.9202C59.367 55.2435 59.2382 55.5534 59.0095 55.7818C58.7808 56.0102 58.4707 56.1384 58.1474 56.1384Z" fill="#303D53"/>
<path d="M58.1474 27.8806C57.8247 27.8779 57.516 27.7484 57.2878 27.5202C57.0596 27.292 56.9301 26.9833 56.9274 26.6606V20.972H37.088C36.7642 20.972 36.4536 20.8435 36.2247 20.6146C35.9957 20.3856 35.8672 20.0751 35.8672 19.7513C35.8672 19.4275 35.9957 19.117 36.2247 18.888C36.4536 18.659 36.7642 18.5304 37.088 18.5304H58.1456C58.4691 18.5304 58.7794 18.6589 59.0082 18.8877C59.237 19.1165 59.3656 19.4269 59.3656 19.7504V26.6501C59.367 26.811 59.3365 26.9706 59.2759 27.1197C59.2153 27.2688 59.1259 27.4045 59.0126 27.5189C58.8994 27.6333 58.7647 27.7241 58.6162 27.7862C58.4677 27.8483 58.3084 27.8804 58.1474 27.8806Z" fill="#303D53"/>
<path d="M32.6825 63.453C32.3595 63.4502 32.0505 63.3205 31.8223 63.0919C31.594 62.8634 31.4648 62.5542 31.4625 62.2312V54.9167C31.4625 54.5929 31.5912 54.2824 31.8201 54.0534C32.0491 53.8245 32.3596 53.6958 32.6834 53.6958C33.0072 53.6958 33.3177 53.8245 33.5467 54.0534C33.7756 54.2824 33.9043 54.5929 33.9043 54.9167V62.2312C33.9045 62.3917 33.873 62.5507 33.8117 62.699C33.7504 62.8474 33.6604 62.9821 33.5469 63.0956C33.4334 63.2091 33.2987 63.2991 33.1503 63.3604C33.002 63.4217 32.8431 63.4532 32.6825 63.453Z" fill="#303D53"/>
<path d="M42.8557 63.4529H22.5047C22.1809 63.4529 21.8704 63.3242 21.6414 63.0953C21.4125 62.8663 21.2838 62.5559 21.2838 62.2321C21.2838 61.9083 21.4125 61.5978 21.6414 61.3688C21.8704 61.1399 22.1809 61.0112 22.5047 61.0112H42.8503C43.1741 61.0112 43.4847 61.1399 43.7136 61.3688C43.9426 61.5978 44.0712 61.9083 44.0712 62.2321C44.0712 62.5559 43.9426 62.8663 43.7136 63.0953C43.4847 63.3242 43.1741 63.4529 42.8503 63.4529H42.8557Z" fill="#303D53"/>
<path d="M14.9164 36.3815C14.5928 36.3815 14.2825 36.253 14.0537 36.0243C13.825 35.7955 13.6964 35.4852 13.6964 35.1616V26.0628C13.6964 25.739 13.825 25.4285 14.054 25.1995C14.2829 24.9706 14.5934 24.842 14.9172 24.842C15.241 24.842 15.5516 24.9706 15.7805 25.1995C16.0095 25.4285 16.1381 25.739 16.1381 26.0628V35.1511C16.1381 35.476 16.0096 35.7875 15.7808 36.018C15.5519 36.2486 15.2412 36.3792 14.9164 36.3815Z" fill="#00A58A"/>
<path d="M36.4135 29.721H21.5717C21.2479 29.721 20.9374 29.5924 20.7084 29.3635C20.4795 29.1345 20.351 28.824 20.351 28.5002C20.351 28.1764 20.4795 27.8659 20.7084 27.6369C20.9374 27.408 21.2479 27.2793 21.5717 27.2793H35.2005V8.99733H16.1452V26.0488C16.1452 26.3726 16.0165 26.6831 15.7876 26.912C15.5586 27.141 15.2481 27.2696 14.9243 27.2696C14.6005 27.2696 14.29 27.141 14.061 26.912C13.8321 26.6831 13.7035 26.3726 13.7035 26.0488V7.7669C13.7035 7.44334 13.832 7.13295 14.0608 6.90416C14.2896 6.67537 14.5999 6.54688 14.9235 6.54688H36.4135C36.7362 6.54963 37.0449 6.67908 37.2731 6.90727C37.5013 7.13546 37.6307 7.44419 37.6335 7.7669V28.4887C37.6351 28.6499 37.6047 28.81 37.5441 28.9594C37.4835 29.1088 37.394 29.2448 37.2805 29.3594C37.1671 29.474 37.032 29.5649 36.8832 29.627C36.7344 29.689 36.5747 29.721 36.4135 29.721Z" fill="#00A58A"/>
<path d="M14.918 36.3761C14.6765 36.3763 14.4404 36.3049 14.2397 36.1708C14.0389 36.0368 13.8823 35.8461 13.7899 35.6231C13.6975 35.4001 13.6734 35.1547 13.7205 34.9179C13.7677 34.6811 13.884 34.4636 14.0548 34.293L20.7084 27.6377C20.8199 27.5163 20.9548 27.4188 21.105 27.351C21.2551 27.2831 21.4175 27.2463 21.5822 27.2428C21.747 27.2393 21.9107 27.2693 22.0636 27.3307C22.2165 27.3921 22.3554 27.4839 22.4719 27.6004C22.5884 27.717 22.6802 27.8558 22.7416 28.0087C22.8031 28.1616 22.833 28.3254 22.8295 28.4901C22.826 28.6549 22.7892 28.8172 22.7213 28.9673C22.6535 29.1175 22.556 29.2524 22.4346 29.3639L15.7793 36.0192C15.6662 36.1324 15.5319 36.2223 15.3841 36.2835C15.2363 36.3447 15.0779 36.3762 14.918 36.3761Z" fill="#00A58A"/>
<path d="M45.5139 49.3073H36.4152C36.0914 49.3073 35.7809 49.1787 35.5519 48.9498C35.323 48.7208 35.1943 48.4103 35.1943 48.0865C35.1943 47.7627 35.323 47.4522 35.5519 47.2232C35.7809 46.9943 36.0914 46.8656 36.4152 46.8656H45.5139C45.8377 46.8656 46.1483 46.9943 46.3772 47.2232C46.6062 47.4522 46.7348 47.7627 46.7348 48.0865C46.7348 48.4103 46.6062 48.7208 46.3772 48.9498C46.1483 49.1787 45.8377 49.3073 45.5139 49.3073Z" fill="#303D53"/>
<path d="M63.7889 49.3075H45.5069C45.1831 49.3075 44.8727 49.1789 44.6437 48.9499C44.4148 48.721 44.2861 48.4104 44.2861 48.0867C44.2861 47.7629 44.4148 47.4523 44.6437 47.2234C44.8727 46.9944 45.1831 46.8658 45.5069 46.8658H62.5583V27.8174H44.2765V41.4374C44.2765 41.7612 44.1478 42.0717 43.9189 42.3007C43.6899 42.5296 43.3794 42.6583 43.0556 42.6583C42.7318 42.6583 42.4213 42.5296 42.1923 42.3007C41.9634 42.0717 41.8347 41.7612 41.8347 41.4374V26.5869C41.8345 26.4264 41.866 26.2674 41.9273 26.1191C41.9886 25.9707 42.0786 25.836 42.1921 25.7225C42.3056 25.609 42.4403 25.519 42.5887 25.4577C42.737 25.3964 42.896 25.365 43.0565 25.3652H63.7784C63.9389 25.365 64.0978 25.3964 64.2462 25.4577C64.3945 25.519 64.5292 25.609 64.6427 25.7225C64.7562 25.836 64.8462 25.9707 64.9075 26.1191C64.9688 26.2674 65.0003 26.4264 65.0001 26.5869V48.0823C65.0015 48.4052 64.8748 48.7155 64.6478 48.9452C64.4207 49.1749 64.1118 49.3052 63.7889 49.3075Z" fill="#303D53"/>
<path d="M36.413 49.3108C36.1716 49.311 35.9355 49.2395 35.7347 49.1054C35.5339 48.9714 35.3775 48.7808 35.2851 48.5578C35.1926 48.3348 35.1685 48.0892 35.2156 47.8525C35.2628 47.6157 35.3792 47.3983 35.55 47.2277L42.2052 40.5723C42.3185 40.459 42.4531 40.3691 42.6012 40.3078C42.7493 40.2464 42.9081 40.2148 43.0684 40.2148C43.2287 40.2148 43.3874 40.2464 43.5355 40.3078C43.6836 40.3691 43.8182 40.459 43.9315 40.5723C44.0449 40.6857 44.1348 40.8203 44.1961 40.9684C44.2575 41.1165 44.289 41.2751 44.289 41.4354C44.289 41.5957 44.2575 41.7545 44.1961 41.9026C44.1348 42.0506 44.0449 42.1852 43.9315 42.2986L37.2779 48.9521C37.1646 49.066 37.0298 49.1564 36.8813 49.218C36.7329 49.2795 36.5737 49.3111 36.413 49.3108Z" fill="#303D53"/>
<path d="M28.2807 22.222L27.7762 20.8965H23.4905L22.9861 22.2501C22.8635 22.6267 22.694 22.9864 22.4816 23.3206C22.3982 23.4183 22.2925 23.4945 22.1735 23.5428C22.0545 23.5912 21.9256 23.6102 21.7977 23.5983C21.6651 23.5988 21.5337 23.573 21.4112 23.5223C21.2887 23.4716 21.1774 23.3971 21.084 23.303C20.9881 23.2195 20.911 23.1167 20.8577 23.0012C20.8044 22.8858 20.7761 22.7605 20.7747 22.6333C20.7761 22.4817 20.8003 22.3311 20.8467 22.1868C20.8947 22.0332 20.9738 21.8194 21.084 21.5452L23.7841 14.6894L24.0619 13.9863C24.1539 13.7452 24.2718 13.5146 24.4135 13.2989C24.537 13.1154 24.702 12.9637 24.8951 12.856C25.1266 12.7447 25.3801 12.6869 25.6369 12.6869C25.8938 12.6869 26.1473 12.7447 26.3788 12.856C26.5712 12.9623 26.7367 13.1114 26.8622 13.2919C26.9855 13.4714 27.0891 13.6635 27.1715 13.865C27.2559 14.0689 27.3626 14.3414 27.4915 14.6824L30.2495 21.4959C30.4225 21.851 30.5326 22.2335 30.5748 22.6262C30.5721 22.7533 30.5435 22.8785 30.4909 22.9943C30.4384 23.11 30.3629 23.2138 30.269 23.2995C30.1733 23.3982 30.0584 23.4763 29.9314 23.5289C29.8044 23.5815 29.668 23.6076 29.5306 23.6054C29.3814 23.6095 29.2334 23.5787 29.0982 23.5157C28.9802 23.4573 28.8769 23.3733 28.7958 23.2697C28.6889 23.1228 28.6003 22.9634 28.5321 22.795C28.4284 22.5735 28.3475 22.3854 28.2807 22.222ZM24.046 19.2898H27.1996L25.6 14.9338L24.046 19.2898Z" fill="#00A58A"/>
<path d="M29.5132 23.9042C29.3163 23.9085 29.1213 23.8663 28.9437 23.7811C28.7865 23.7033 28.6484 23.5917 28.5394 23.4542C28.416 23.2864 28.3137 23.1039 28.2353 22.911C28.1403 22.6965 28.0595 22.5049 27.9927 22.3396L27.5638 21.2111H23.6965L23.2658 22.3678C23.1338 22.7718 22.95 23.1571 22.719 23.514C22.6079 23.6503 22.4655 23.7578 22.3039 23.8273C22.1423 23.8967 21.9663 23.9262 21.7908 23.913C21.6196 23.9136 21.45 23.8803 21.2916 23.8151C21.1332 23.75 20.9893 23.6542 20.868 23.5333C20.7418 23.4214 20.6406 23.2843 20.5709 23.1307C20.5013 22.9772 20.4648 22.8106 20.4637 22.642C20.4654 22.4594 20.4943 22.2781 20.5498 22.1041C20.6002 21.9448 20.6822 21.7233 20.7959 21.4397L23.7738 13.8807C23.8717 13.6187 23.9978 13.3683 24.15 13.1336C24.3002 12.9109 24.5008 12.7267 24.7354 12.5958C25.0129 12.4591 25.3182 12.3881 25.6275 12.3881C25.9369 12.3881 26.242 12.4591 26.5195 12.5958C26.7514 12.7252 26.951 12.9055 27.1032 13.1231C27.2384 13.3202 27.3521 13.5311 27.4425 13.7524C27.528 13.9586 27.6359 14.2335 27.766 14.5768L30.5223 21.3852C30.7135 21.7761 30.8326 22.1983 30.8739 22.6315C30.8719 22.7988 30.8358 22.964 30.7678 23.117C30.6998 23.2699 30.6013 23.4074 30.4783 23.5209C30.3521 23.6473 30.2014 23.7465 30.0354 23.8124C29.8694 23.8784 29.6917 23.9096 29.5132 23.9042ZM28.557 22.1111C28.6238 22.2717 28.7028 22.4569 28.7942 22.6667C28.8513 22.8116 28.9257 22.9491 29.0158 23.0762C29.0695 23.1446 29.1381 23.1998 29.2162 23.2379C29.3088 23.28 29.4099 23.2999 29.5115 23.2959C29.6096 23.2987 29.7072 23.2809 29.7981 23.2437C29.8889 23.2065 29.9709 23.1506 30.0388 23.0797C30.1044 23.0225 30.1577 22.9523 30.1952 22.8737C30.2327 22.7951 30.2536 22.7097 30.2569 22.6227C30.2168 22.2696 30.115 21.9262 29.9562 21.6083L27.1963 14.7913C27.0663 14.4397 26.959 14.1778 26.8764 13.9757C26.8014 13.7942 26.7078 13.6209 26.5969 13.4588C26.4984 13.3139 26.3679 13.1936 26.2155 13.1072C26.0298 13.0223 25.8281 12.9784 25.624 12.9784C25.4198 12.9784 25.2181 13.0223 25.0325 13.1072C24.8795 13.1922 24.7492 13.3128 24.6528 13.4588C24.5256 13.6567 24.4201 13.8678 24.3381 14.0882L21.3585 21.6559C21.2518 21.9219 21.1751 22.1287 21.1282 22.2763C21.0916 22.39 21.072 22.5085 21.0702 22.6279C21.072 22.7138 21.0923 22.7982 21.1296 22.8756C21.1669 22.9529 21.2203 23.0213 21.2864 23.0762C21.3519 23.1431 21.4302 23.1962 21.5165 23.2324C21.6028 23.2686 21.6955 23.2872 21.7891 23.2871C22.1126 23.2871 22.2005 23.1711 22.2286 23.1307C22.4246 22.8208 22.58 22.487 22.6909 22.1375L23.1954 20.7839C23.2173 20.7256 23.2564 20.6753 23.3076 20.6398C23.3588 20.6043 23.4197 20.5853 23.482 20.5853H27.7748C27.8369 20.5852 27.8975 20.6039 27.9487 20.6391C27.9999 20.6742 28.0391 20.7242 28.0612 20.7822L28.557 22.1111ZM27.1929 19.5974H24.0374C23.9885 19.5973 23.9403 19.5856 23.8969 19.5631C23.8534 19.5406 23.816 19.508 23.7878 19.4681C23.7595 19.4281 23.7413 19.382 23.7346 19.3335C23.7278 19.2851 23.7328 19.2357 23.7491 19.1895L25.312 14.8318C25.3332 14.7727 25.3721 14.7217 25.4233 14.6855C25.4746 14.6494 25.5357 14.6299 25.5984 14.6296C25.661 14.6297 25.722 14.649 25.7732 14.6849C25.8244 14.7207 25.8635 14.7714 25.885 14.83L27.4777 19.1878C27.4943 19.2339 27.4996 19.2832 27.4931 19.3318C27.4867 19.3804 27.4686 19.4267 27.4405 19.4669C27.4125 19.507 27.3751 19.5398 27.3317 19.5625C27.2883 19.5852 27.2401 19.5972 27.1911 19.5974H27.1929ZM24.4717 18.9874H26.7569L25.6037 15.8232L24.4717 18.9874Z" fill="#00A58A"/>
<path d="M53.571 42.8001H50.2311C50.0462 42.8182 49.8595 42.7989 49.6822 42.7433C49.5049 42.6877 49.3407 42.597 49.1992 42.4766C48.9682 42.1847 48.8576 41.8156 48.8899 41.4448V33.2372C48.8545 32.8628 48.9682 32.4895 49.2063 32.1983C49.4927 31.9616 49.8611 31.8478 50.2311 31.8819H53.7697C54.2234 31.8768 54.6767 31.9091 55.1251 31.9786C55.4885 32.0359 55.8375 32.1624 56.1534 32.3512C56.4131 32.5064 56.6449 32.7043 56.839 32.9366C57.035 33.1686 57.1885 33.4335 57.2925 33.7189C57.3976 34.009 57.4505 34.3156 57.4489 34.6242C57.4581 35.1446 57.3054 35.6549 57.0119 36.0848C56.7184 36.5146 56.2987 36.8427 55.8107 37.0237C56.4259 37.1439 56.9791 37.4771 57.3729 37.9648C57.7668 38.4526 57.9761 39.0635 57.964 39.6903C57.9718 40.2745 57.8086 40.8483 57.4946 41.341C57.192 41.8221 56.7508 42.2003 56.229 42.4256C55.8615 42.5735 55.4762 42.6722 55.0829 42.7192C54.5813 42.7788 54.0762 42.8059 53.571 42.8001ZM51.1101 33.5413V36.3645H53.1368C53.5678 36.3804 53.9987 36.3276 54.4131 36.208C54.7112 36.106 54.9582 35.8923 55.1022 35.612C55.228 35.3993 55.2925 35.156 55.2886 34.9089C55.3151 34.6875 55.2727 34.4632 55.1673 34.2667C55.062 34.0701 54.8987 33.9108 54.6996 33.8103C54.1262 33.5982 53.5154 33.5055 52.9049 33.5377L51.1101 33.5413ZM53.4111 37.9519H51.1101V41.1406H53.4867C54.9821 41.1406 55.7292 40.6015 55.728 39.5234C55.7463 39.2899 55.702 39.0557 55.5997 38.845C55.4975 38.6342 55.3408 38.4546 55.1461 38.3245C54.6135 38.0418 54.0128 37.9128 53.4111 37.9519Z" fill="#303D53"/>
<path d="M53.5715 43.1041H50.2316C50.0052 43.1232 49.7772 43.0959 49.5617 43.024C49.3462 42.952 49.1477 42.837 48.9782 42.6858C48.6925 42.3373 48.5515 41.8923 48.5844 41.4429V33.2336C48.566 33.008 48.5924 32.7809 48.6621 32.5655C48.7318 32.3501 48.8433 32.1507 48.9904 31.9785C49.1598 31.8322 49.3566 31.7209 49.5694 31.6512C49.7821 31.5815 50.0066 31.5547 50.2297 31.5724H53.7683C54.2391 31.5677 54.7095 31.6018 55.1746 31.6744C55.5759 31.7388 55.9613 31.879 56.3102 32.0874C56.5979 32.2595 56.8547 32.4788 57.0696 32.7361C57.2897 32.9967 57.4617 33.2943 57.5777 33.6151C57.6951 33.9385 57.7546 34.2801 57.7535 34.6242C57.7684 35.0885 57.6629 35.5487 57.4473 35.9603C57.2317 36.3718 56.9132 36.7206 56.523 36.9727C57.0582 37.1912 57.5132 37.5693 57.8258 38.0556C58.1385 38.5419 58.2937 39.1126 58.2703 39.6903C58.2775 40.3323 58.0979 40.9625 57.7535 41.5044C57.4158 42.0362 56.9257 42.454 56.3471 42.7033C55.9527 42.8628 55.539 42.9698 55.1167 43.0215C54.6039 43.0818 54.0878 43.1094 53.5715 43.1041ZM50.2316 32.1842C49.9427 32.1544 49.6534 32.236 49.4229 32.4126C49.2457 32.6482 49.1646 32.9423 49.1961 33.2354V41.4446C49.1673 41.7366 49.2475 42.0291 49.4212 42.2656C49.6511 42.4447 49.942 42.5267 50.2316 42.4942H53.5715C54.0632 42.4982 54.5547 42.4706 55.0429 42.4115C55.4101 42.368 55.77 42.2764 56.1133 42.139C56.5782 41.9384 56.9713 41.6012 57.2402 41.1722C57.5211 40.7282 57.6669 40.2121 57.6603 39.6867C57.6715 39.1258 57.4834 38.5791 57.1293 38.1439C56.7752 37.7087 56.2781 37.4132 55.7266 37.3101C55.6683 37.2911 55.617 37.2551 55.5794 37.2066C55.5419 37.1581 55.5198 37.0995 55.516 37.0382C55.5122 36.977 55.5269 36.916 55.5582 36.8632C55.5895 36.8105 55.6359 36.7684 55.6915 36.7423C56.1261 36.5856 56.5008 36.2967 56.7628 35.9162C57.0248 35.5356 57.1609 35.0826 57.1522 34.6206C57.1536 34.348 57.1072 34.0773 57.0151 33.8208C56.9229 33.5693 56.7873 33.3361 56.6144 33.1316C56.443 32.9226 56.2373 32.7443 56.0061 32.6043C55.7226 32.4352 55.4093 32.3218 55.0832 32.2703C54.6517 32.2034 54.2155 32.1723 53.7789 32.1771L50.2316 32.1842ZM53.4801 41.4429H51.1034C51.0223 41.4429 50.9445 41.4107 50.8871 41.3533C50.8298 41.296 50.7975 41.2181 50.7975 41.137V37.9535C50.7975 37.8724 50.8298 37.7946 50.8871 37.7372C50.9445 37.6799 51.0223 37.6477 51.1034 37.6477H53.4045C54.0649 37.6061 54.7235 37.7517 55.3048 38.0678C55.5432 38.2247 55.7357 38.4422 55.8624 38.6979C55.989 38.9537 56.0453 39.2386 56.0255 39.5233C56.029 40.3988 55.5878 41.4429 53.4819 41.4429H53.4801ZM51.4075 40.833H53.4801C55.2151 40.833 55.4138 40.084 55.4138 39.5215C55.4312 39.3395 55.3996 39.1562 55.3224 38.9905C55.2451 38.8249 55.1249 38.683 54.9743 38.5794C54.4897 38.3303 53.9462 38.2184 53.4027 38.2559H51.4058L51.4075 40.833ZM53.1285 36.6685H51.1034C51.0632 36.6687 51.0233 36.661 50.986 36.6458C50.9488 36.6305 50.915 36.6079 50.8866 36.5795C50.8581 36.551 50.8357 36.5172 50.8204 36.48C50.8051 36.4428 50.7973 36.4028 50.7975 36.3626V33.5395C50.7975 33.4584 50.8298 33.3806 50.8871 33.3232C50.9445 33.2659 51.0223 33.2336 51.1034 33.2336H52.8982C53.5532 33.1992 54.2081 33.3015 54.8213 33.5342C55.0748 33.6569 55.2843 33.8547 55.4214 34.1007C55.5585 34.3466 55.6167 34.6288 55.5878 34.9089C55.5905 35.2099 55.5108 35.506 55.3575 35.765C55.1774 36.1075 54.8729 36.368 54.5066 36.4928C54.0603 36.6253 53.5956 36.6846 53.1303 36.6685H53.1285ZM51.4075 36.0585H53.1285C53.5259 36.0739 53.9233 36.027 54.3063 35.9197C54.5348 35.8436 54.7242 35.6806 54.8337 35.4661C54.934 35.2983 54.9857 35.1061 54.9831 34.9106C54.9831 34.3446 54.7475 34.1706 54.5718 34.0897C54.0376 33.8975 53.4703 33.8143 52.9035 33.8453H51.4129L51.4075 36.0585Z" fill="#303D53"/>
<path d="M28.3606 50.045H22.048C21.7242 50.045 21.4137 49.9163 21.1848 49.6874C20.9558 49.4584 20.8271 49.148 20.8271 48.8242C20.8271 48.5004 20.9558 48.1899 21.1848 47.9609C21.4137 47.732 21.7242 47.6033 22.048 47.6033H27.1458V44.1139C27.1458 43.7902 27.2745 43.4796 27.5034 43.2507C27.7324 43.0217 28.0429 42.8931 28.3667 42.8931C28.6905 42.8931 29.001 43.0217 29.23 43.2507C29.4589 43.4796 29.5876 43.7902 29.5876 44.1139V48.825C29.5876 48.9858 29.5558 49.145 29.494 49.2935C29.4323 49.442 29.3417 49.5768 29.2277 49.6901C29.1137 49.8035 28.9784 49.8933 28.8296 49.9542C28.6807 50.0151 28.5214 50.0459 28.3606 50.045Z" fill="#303D53"/>
<path d="M22.0476 50.0457H18.9396C18.7793 50.0457 18.6205 50.0141 18.4724 49.9527C18.3243 49.8913 18.1897 49.8013 18.0764 49.6878C17.9631 49.5743 17.8733 49.4396 17.8121 49.2913C17.7509 49.1431 17.7195 48.9843 17.7197 48.824V39.4088C17.7197 39.0852 17.8482 38.7749 18.077 38.5461C18.3058 38.3173 18.6161 38.1888 18.9396 38.1888H23.9321C24.2559 38.1888 24.5664 38.3175 24.7953 38.5464C25.0243 38.7754 25.1529 39.0859 25.1529 39.4097C25.1529 39.7335 25.0243 40.044 24.7953 40.273C24.5664 40.5019 24.2559 40.6305 23.9321 40.6305H20.1614V47.6093H22.0494C22.3732 47.6093 22.6837 47.738 22.9127 47.9669C23.1416 48.1959 23.2702 48.5063 23.2702 48.8301C23.2702 49.1539 23.1416 49.4644 22.9127 49.6934C22.6837 49.9223 22.3732 50.051 22.0494 50.051L22.0476 50.0457Z" fill="#303D53"/>
<path d="M23.8581 45.6634H23.8159C23.64 45.6569 23.4675 45.6127 23.3101 45.5339C23.1527 45.455 23.0141 45.3434 22.9036 45.2064L19.8519 41.3883C19.744 41.264 19.6623 41.1191 19.6118 40.9625C19.5612 40.8058 19.543 40.6405 19.5579 40.4765C19.5729 40.3126 19.6208 40.1534 19.6988 40.0084C19.7768 39.8635 19.8833 39.7358 20.0119 39.633C20.1405 39.5302 20.2886 39.4546 20.4471 39.4105C20.6057 39.3664 20.7716 39.3547 20.9348 39.3763C21.098 39.3978 21.2551 39.4522 21.3968 39.536C21.5385 39.6199 21.6618 39.7315 21.7592 39.8642L23.9196 42.5678L31.4873 34.3198C31.7062 34.0813 32.0108 33.9396 32.3342 33.9258C32.6576 33.912 32.9733 34.0271 33.2117 34.246C33.4502 34.4649 33.592 34.7695 33.6058 35.0929C33.6197 35.4163 33.5044 35.732 33.2855 35.9705L24.7546 45.2679C24.6402 45.3917 24.5017 45.4907 24.3474 45.5588C24.1932 45.6268 24.0266 45.6624 23.8581 45.6634Z" fill="#00A58A"/>
</svg>
