<svg width="26" height="25" viewBox="0 0 26 25" fill="none" xmlns="http://www.w3.org/2000/svg">
<g clip-path="url(#clip0_12_663)">
<path d="M24.785 3.4179C24.6084 3.2413 24.3688 3.14209 24.119 3.14209C23.8692 3.14209 23.6297 3.2413 23.453 3.4179L12.15 14.6899L8.07101 10.2599C7.98756 10.1676 7.88666 10.0928 7.77413 10.0397C7.66161 9.98664 7.53968 9.95638 7.4154 9.95069C7.29112 9.945 7.16694 9.96398 7.05003 10.0065C6.93312 10.0491 6.8258 10.1144 6.73427 10.1987C6.64274 10.2829 6.56881 10.3845 6.51675 10.4975C6.46468 10.6105 6.43552 10.7327 6.43094 10.857C6.42636 10.9813 6.44645 11.1054 6.49006 11.2219C6.53366 11.3384 6.59992 11.4451 6.685 11.5359L11.427 16.6859C11.5132 16.7786 11.6173 16.853 11.7329 16.9045C11.8486 16.9561 11.9734 16.9837 12.1 16.9859H12.12C12.3693 16.9857 12.6084 16.8869 12.785 16.7109L24.785 4.7449C24.9601 4.56846 25.0583 4.32997 25.0583 4.0814C25.0583 3.83284 24.9601 3.59434 24.785 3.4179Z" fill="#00A58A"/>
<path d="M24.558 11.558C24.3082 11.558 24.0686 11.6572 23.8919 11.8339C23.7153 12.0106 23.616 12.2502 23.616 12.5C23.616 14.5996 22.9934 16.6521 21.8269 18.3979C20.6604 20.1437 19.0024 21.5044 17.0626 22.3079C15.1228 23.1114 12.9882 23.3216 10.9289 22.912C8.86962 22.5024 6.97803 21.4913 5.49336 20.0066C4.00869 18.522 2.99761 16.6304 2.58799 14.5711C2.17837 12.5118 2.3886 10.3773 3.1921 8.43743C3.9956 6.49761 5.35628 4.83962 7.10207 3.67312C8.84786 2.50662 10.9004 1.884 13 1.884C13.1237 1.884 13.2462 1.85963 13.3605 1.81229C13.4748 1.76495 13.5786 1.69557 13.6661 1.60809C13.7536 1.52062 13.823 1.41678 13.8703 1.30249C13.9176 1.1882 13.942 1.06571 13.942 0.942C13.942 0.818295 13.9176 0.695801 13.8703 0.581512C13.823 0.467224 13.7536 0.363378 13.6661 0.275905C13.5786 0.188433 13.4748 0.119045 13.3605 0.0717055C13.2462 0.0243655 13.1237 -1.84335e-09 13 0C10.5277 0 8.11099 0.733112 6.05538 2.10663C3.99976 3.48015 2.39761 5.43238 1.45151 7.71646C0.505416 10.0005 0.257874 12.5139 0.74019 14.9386C1.2225 17.3634 2.41301 19.5907 4.16117 21.3388C5.90933 23.087 8.13661 24.2775 10.5614 24.7598C12.9861 25.2421 15.4995 24.9946 17.7835 24.0485C20.0676 23.1024 22.0199 21.5002 23.3934 19.4446C24.7669 17.389 25.5 14.9723 25.5 12.5C25.5 12.2502 25.4008 12.0106 25.2241 11.8339C25.0474 11.6572 24.8078 11.558 24.558 11.558Z" fill="#454545"/>
</g>
<defs>
<clipPath id="clip0_12_663">
<rect width="25" height="25" fill="white" transform="translate(0.5)"/>
</clipPath>
</defs>
</svg>
