<svg width="151" height="150" viewBox="0 0 151 150" fill="none" xmlns="http://www.w3.org/2000/svg">
<rect x="0.75" width="150" height="150" rx="75" fill="#FC5D5B"/>
<path fill-rule="evenodd" clip-rule="evenodd" d="M103.25 51.3497C103.246 50.0579 102.747 48.8168 101.856 47.8819C101.427 47.4263 100.91 47.0629 100.336 46.8139C99.7619 46.5649 99.1432 46.4355 98.5176 46.4336C97.8919 46.4317 97.2725 46.5574 96.697 46.803C96.1216 47.0485 95.6023 47.4088 95.1707 47.8618L75.7488 68.0359L56.3299 47.8637C55.8984 47.4107 55.379 47.0504 54.8036 46.8049C54.2282 46.5593 53.6087 46.4336 52.9831 46.4355C52.3574 46.4374 51.7388 46.5668 51.1648 46.8158C50.5909 47.0648 50.0737 47.4282 49.6449 47.8838C48.7534 48.8187 48.2544 50.0598 48.2507 51.3516C48.2469 52.6434 48.7387 53.8874 49.6248 54.8274L69.0449 74.9995L49.6242 95.1723C48.7381 96.1123 48.2463 97.3563 48.25 98.648C48.2538 99.9398 48.7528 101.181 49.6443 102.116C50.0731 102.571 50.5902 102.935 51.1642 103.184C51.7381 103.433 52.3568 103.562 52.9824 103.564C53.6081 103.566 54.2275 103.44 54.803 103.195C55.3784 102.949 55.8977 102.589 56.3293 102.136L75.7494 81.9637L95.1714 102.138C95.6029 102.591 96.1222 102.951 96.6977 103.197C97.2731 103.442 97.8925 103.568 98.5182 103.566C99.1438 103.564 99.7625 103.435 100.336 103.186C100.91 102.937 101.428 102.573 101.856 102.118C102.747 101.182 103.246 99.9412 103.249 98.6494C103.252 97.3576 102.76 96.1138 101.874 95.1742L82.4531 75.0003L101.876 54.8255C102.762 53.8855 103.254 52.6415 103.25 51.3497Z" fill="white"/>
</svg>
