<svg width="25" height="25" viewBox="0 0 25 25" fill="none" xmlns="http://www.w3.org/2000/svg">
<rect x="0.5" y="0.5" width="24" height="24" rx="12" fill="white"/>
<path fill-rule="evenodd" clip-rule="evenodd" d="M14.9707 7.03508C15.5661 7.63051 15.9274 8.42035 15.9883 9.2602H15.99C16.0528 10.086 15.8189 10.9071 15.3307 11.5759C14.8424 12.2448 14.1316 12.7177 13.326 12.9096V14.8246C13.326 14.9331 13.3046 15.0406 13.263 15.1409C13.2215 15.2412 13.1606 15.3324 13.0838 15.4091C13.0071 15.4859 12.9159 15.5468 12.8156 15.5884C12.7153 15.6299 12.6078 15.6513 12.4992 15.6513C12.3907 15.6513 12.2832 15.6299 12.1829 15.5884C12.0826 15.5468 11.9914 15.4859 11.9147 15.4091C11.8379 15.3324 11.777 15.2412 11.7354 15.1409C11.6939 15.0406 11.6725 14.9331 11.6725 14.8246V12.8421C11.6713 12.4841 11.7929 12.1365 12.0171 11.8574C12.2412 11.5783 12.5544 11.3845 12.9042 11.3085C13.2434 11.2322 13.5542 11.0616 13.8008 10.8164C14.0473 10.5712 14.2196 10.2614 14.2978 9.92256C14.376 9.58374 14.3568 9.22973 14.2426 8.9013C14.1284 8.57287 13.9237 8.2834 13.6522 8.06621C13.3806 7.84902 13.0532 7.71294 12.7078 7.67365C12.3623 7.63437 12.0127 7.69349 11.6993 7.84417C11.386 7.99487 11.1215 8.23101 10.9365 8.52541C10.7515 8.81981 10.6533 9.1605 10.6534 9.50822C10.6534 9.61679 10.6321 9.7243 10.5905 9.8246C10.549 9.92489 10.4881 10.016 10.4113 10.0928C10.3346 10.1696 10.2434 10.2305 10.1431 10.272C10.0428 10.3136 9.9353 10.3349 9.82672 10.3349C9.71817 10.3349 9.61066 10.3136 9.51036 10.272C9.41006 10.2305 9.31891 10.1696 9.24215 10.0928C9.16538 10.016 9.10449 9.92489 9.06293 9.8246C9.02139 9.7243 9 9.61679 9 9.50822C9.00078 9.02853 9.09985 8.55411 9.29107 8.11419C9.4823 7.67427 9.76165 7.2782 10.1119 6.95043C10.4621 6.62064 10.8771 6.36737 11.3305 6.20674C11.784 6.0461 12.2659 5.98163 12.7456 6.01742C13.5854 6.07842 14.3753 6.43965 14.9707 7.03508ZM12.5799 17.3434C12.7703 17.3619 12.9484 17.4458 13.0838 17.5809C13.239 17.7356 13.3264 17.9455 13.3268 18.1647C13.3272 18.356 13.2612 18.5414 13.1401 18.6896C13.0191 18.8377 12.8504 18.9391 12.6628 18.9769C12.4753 19.0145 12.2805 18.986 12.1116 18.8961C11.9428 18.8062 11.8103 18.6605 11.7368 18.4839C11.6633 18.3073 11.6533 18.1107 11.7086 17.9276C11.7638 17.7444 11.8808 17.5861 12.0397 17.4795C12.1986 17.3731 12.3895 17.325 12.5799 17.3434Z" fill="#0F3653"/>
<rect x="0.5" y="0.5" width="24" height="24" rx="12" stroke="#0F3653"/>
</svg>
