<svg width="22" height="23" viewBox="0 0 22 23" fill="none" xmlns="http://www.w3.org/2000/svg">
<path d="M19.3505 9.17969H3.05726C2.57944 9.19979 2.12339 9.3849 1.76677 9.70355C1.41015 10.0222 1.17502 10.4547 1.10147 10.9273C1.10147 10.9273 1.10147 17.008 1.10147 18.2862C1.08855 18.5558 1.12902 18.8253 1.22035 19.0793C1.31168 19.3333 1.45209 19.5668 1.63375 19.7665C1.8154 19.9661 2.03473 20.1279 2.27899 20.2427C2.52326 20.3575 2.78765 20.4232 3.05726 20.4357C4.0612 20.4357 15.9985 20.4547 16.8946 20.4547C17.7908 20.4547 19.3505 20.0676 19.3505 18.2665V9.17969Z" stroke="#00A58A" stroke-width="1.5" stroke-linecap="round" stroke-linejoin="round"/>
</svg>
