<svg width="130" height="170" viewBox="0 0 130 170" fill="none" xmlns="http://www.w3.org/2000/svg">
<rect width="130" height="170" rx="10" fill="white"/>
<path d="M49.628 90.5H50.6V84.02H49.628V90.5ZM50.12 82.628C50.516 82.628 50.804 82.376 50.804 81.944C50.804 81.548 50.516 81.284 50.12 81.284C49.724 81.284 49.448 81.548 49.448 81.944C49.448 82.376 49.724 82.628 50.12 82.628ZM52.4907 90.5H53.4627V85.76C54.0867 85.064 54.6507 84.716 55.1667 84.716C56.0307 84.716 56.4387 85.268 56.4387 86.516V90.5H57.3987V85.76C58.0347 85.064 58.5867 84.716 59.1027 84.716C59.9667 84.716 60.3747 85.268 60.3747 86.516V90.5H61.3467V86.384C61.3467 84.728 60.7107 83.864 59.3907 83.864C58.6107 83.864 57.9267 84.368 57.2307 85.124C56.9787 84.344 56.4507 83.864 55.4427 83.864C54.6747 83.864 53.9907 84.356 53.4147 84.98H53.3907L53.2947 84.02H52.4907V90.5ZM64.6457 90.668C65.4617 90.668 66.1937 90.236 66.8177 89.72H66.8657L66.9497 90.5H67.7537V86.48C67.7537 84.932 67.1297 83.864 65.5457 83.864C64.5017 83.864 63.6017 84.332 63.0377 84.704L63.4217 85.388C63.9257 85.052 64.6217 84.68 65.4017 84.68C66.5177 84.68 66.7817 85.532 66.7697 86.408C63.9857 86.72 62.7497 87.416 62.7497 88.832C62.7497 90.02 63.5777 90.668 64.6457 90.668ZM64.8977 89.864C64.2377 89.864 63.7097 89.564 63.7097 88.772C63.7097 87.896 64.4777 87.332 66.7697 87.08V88.964C66.1097 89.552 65.5577 89.864 64.8977 89.864ZM71.6731 93.524C73.6411 93.524 74.8891 92.48 74.8891 91.292C74.8891 90.236 74.1571 89.768 72.6691 89.768H71.3731C70.4731 89.768 70.2091 89.456 70.2091 89.024C70.2091 88.652 70.4131 88.424 70.6531 88.22C70.9411 88.364 71.3131 88.448 71.6371 88.448C72.9571 88.448 73.9891 87.56 73.9891 86.192C73.9891 85.604 73.7491 85.1 73.4251 84.788H74.7811V84.02H72.5491C72.3211 83.936 72.0091 83.864 71.6371 83.864C70.3411 83.864 69.2491 84.764 69.2491 86.168C69.2491 86.948 69.6691 87.572 70.0891 87.92V87.968C69.7531 88.196 69.3691 88.628 69.3691 89.168C69.3691 89.684 69.6211 90.02 69.9571 90.224V90.284C69.3571 90.668 68.9971 91.22 68.9971 91.772C68.9971 92.876 70.0771 93.524 71.6731 93.524ZM71.6371 87.776C70.8571 87.776 70.1971 87.14 70.1971 86.168C70.1971 85.172 70.8451 84.584 71.6371 84.584C72.4411 84.584 73.0891 85.184 73.0891 86.168C73.0891 87.14 72.4291 87.776 71.6371 87.776ZM71.7931 92.828C70.5811 92.828 69.8611 92.36 69.8611 91.64C69.8611 91.244 70.0651 90.824 70.5571 90.476C70.8691 90.56 71.1811 90.584 71.3971 90.584H72.5851C73.4611 90.584 73.9411 90.8 73.9411 91.436C73.9411 92.144 73.1011 92.828 71.7931 92.828ZM78.2133 90.668C79.1013 90.668 79.7733 90.368 80.3253 90.008L79.9653 89.348C79.4853 89.672 78.9693 89.876 78.3213 89.876C77.0373 89.876 76.1613 88.916 76.1013 87.488H80.5413C80.5653 87.32 80.5893 87.104 80.5893 86.9C80.5893 85.028 79.6533 83.864 78.0213 83.864C76.5453 83.864 75.1293 85.16 75.1293 87.272C75.1293 89.408 76.4973 90.668 78.2133 90.668ZM76.0893 86.768C76.2333 85.424 77.0853 84.656 78.0333 84.656C79.0893 84.656 79.7133 85.388 79.7133 86.768H76.0893Z" fill="#707070"/>
</svg>
