<svg xmlns="http://www.w3.org/2000/svg" width="215" height="174" viewBox="0 0 215 174">
  <g id="그라프" transform="translate(-677 -1015)">
    <g id="line">
      <rect id="line-2" data-name="line" width="1" height="154" transform="translate(884 1015)" fill="#c9cdd2"/>
      <rect id="line-3" data-name="line" width="1" height="154" transform="translate(817 1015)" fill="#c9cdd2"/>
      <rect id="line-4" data-name="line" width="1" height="154" transform="translate(749 1015)" fill="#c9cdd2"/>
      <rect id="line-5" data-name="line" width="1" height="154" transform="translate(681 1015)" fill="#c9cdd2"/>
    </g>
    <path id="bar" d="M0,0H152a5,5,0,0,1,5,5V5a5,5,0,0,1-5,5H0a0,0,0,0,1,0,0V0A0,0,0,0,1,0,0Z" transform="translate(682 1144)" fill="#ff5c5c"/>
    <path id="bar-2" data-name="bar" d="M0,0H103a5,5,0,0,1,5,5V5a5,5,0,0,1-5,5H0a0,0,0,0,1,0,0V0A0,0,0,0,1,0,0Z" transform="translate(682 1105)" fill="#5ab448"/>
    <path id="bar-3" data-name="bar" d="M0,0H96a5,5,0,0,1,5,5V5a5,5,0,0,1-5,5H0a0,0,0,0,1,0,0V0A0,0,0,0,1,0,0Z" transform="translate(682 1066)" fill="#157fce"/>
    <path id="bar-4" data-name="bar" d="M0,0H164a5,5,0,0,1,5,5V5a5,5,0,0,1-5,5H0a0,0,0,0,1,0,0V0A0,0,0,0,1,0,0Z" transform="translate(682 1027)" fill="#ffb643"/>
    <text id="_13" data-name="13" transform="translate(864 1038)" fill="#303d53" font-size="14" font-family="NotoSansCJKkr-Regular, Noto Sans CJK KR"><tspan x="-7.77" y="0">13</tspan></text>
    <text id="_7" data-name="7" transform="translate(788 1077)" fill="#303d53" font-size="14" font-family="NotoSansCJKkr-Regular, Noto Sans CJK KR"><tspan x="0" y="0">7</tspan></text>
    <text id="_8" data-name="8" transform="translate(795 1116)" fill="#303d53" font-size="14" font-family="NotoSansCJKkr-Regular, Noto Sans CJK KR"><tspan x="0" y="0">8</tspan></text>
    <text id="_12" data-name="12" transform="translate(852 1155)" fill="#303d53" font-size="14" font-family="NotoSansCJKkr-Regular, Noto Sans CJK KR"><tspan x="-7.77" y="0">12</tspan></text>
    <text id="_0" data-name="0" transform="translate(685 1185)" fill="#d5d5d5" font-size="14" font-family="NotoSansCJKkr-Regular, Noto Sans CJK KR"><tspan x="-7.77" y="0">0</tspan></text>
    <text id="_5" data-name="5" transform="translate(753 1185)" fill="#d5d5d5" font-size="14" font-family="NotoSansCJKkr-Regular, Noto Sans CJK KR"><tspan x="-7.77" y="0">5</tspan></text>
    <text id="_10" data-name="10" transform="translate(817 1185)" fill="#d5d5d5" font-size="14" font-family="NotoSansCJKkr-Regular, Noto Sans CJK KR"><tspan x="-7.77" y="0">10</tspan></text>
    <text id="_15" data-name="15" transform="translate(884 1185)" fill="#d5d5d5" font-size="14" font-family="NotoSansCJKkr-Regular, Noto Sans CJK KR"><tspan x="-7.77" y="0">15</tspan></text>
  </g>
</svg>
