<svg xmlns="http://www.w3.org/2000/svg" width="383" height="158" viewBox="0 0 383 158">
  <g id="graph" transform="translate(-280 -1314)">
    <text id="_0MB_50MB" data-name="0MB / 50MB" transform="translate(280 1354)" fill="#157fce" font-size="38" font-family="Roboto-Medium, Roboto" font-weight="500" letter-spacing="-0.02em"><tspan x="0" y="0">67</tspan><tspan y="0" fill="#454c53" font-size="24">%</tspan></text>
    <text id="_0MB_50MB-2" data-name="0MB / 50MB" transform="translate(603 1462)" fill="#ff5c5c" font-size="38" font-family="Roboto-Medium, Roboto" font-weight="500" letter-spacing="-0.02em"><tspan x="0" y="0">33</tspan><tspan y="0" fill="#454c53" font-size="24">%</tspan></text>
    <path id="패스_2468" data-name="패스 2468" d="M416.794,1362l-20.706-20.706H351.666" fill="none" stroke="#157fce" stroke-width="1"/>
    <path id="패스_2469" data-name="패스 2469" d="M351.666,1341.294,372.372,1362h44.422" transform="translate(175.334 87)" fill="none" stroke="#ff5c5c" stroke-width="1"/>
    <g id="타원_463" data-name="타원 463" transform="translate(394 1322)" fill="#fff" stroke="#ff5c5c" stroke-width="20">
      <circle cx="75" cy="75" r="75" stroke="none"/>
      <circle cx="75" cy="75" r="65" fill="none"/>
    </g>
    <g id="빼기_4" data-name="빼기 4" transform="translate(522.034 1472) rotate(180)" fill="none">
      <path d="M53.032,0A74.768,74.768,0,0,0,0,21.967l14.158,14.16A54.99,54.99,0,1,1,53.032,130v20A75.021,75.021,0,0,0,82.227,5.894,74.563,74.563,0,0,0,53.032,0Z" stroke="none"/>
      <path d="M 53.03224182128906 1.52587890625e-05 C 63.15428161621094 1.52587890625e-05 72.97654724121094 1.982894897460938 82.22654724121094 5.8935546875 C 91.15624237060547 9.671401977539062 99.17774200439453 15.07958984375 106.0663986206055 21.96824645996094 C 112.9540863037109 28.85643768310547 118.3623199462891 36.87743377685547 122.140625 45.80763244628906 C 126.0517425537109 55.05224609375 128.0341644287109 64.87355041503906 128.0341644287109 74.99901580810547 C 128.0341644287109 85.12305450439453 126.0517425537109 94.94532012939453 122.140625 104.193359375 C 118.3623199462891 113.1235504150391 112.9540863037109 121.1445159912109 106.0663986206055 128.0326995849609 C 99.17674255371094 134.9214019775391 91.15624237060547 140.32958984375 82.22654724121094 144.10693359375 C 72.97947692871094 148.01708984375 63.15724182128906 150.0004730224609 53.03224182128906 150.0004730224609 L 53.03224182128906 130.0014801025391 C 83.3583984375 130.0014801025391 108.0312423706055 105.3276290893555 108.0312423706055 74.99901580810547 C 108.0312423706055 44.67236328125 83.3583984375 19.99951171875 53.03224182128906 19.99951171875 C 38.36424255371094 19.99951171875 24.55955505371094 25.72705078125 14.158203125 36.12647247314453 L 1.52587890625e-05 21.96678161621094 C 6.889625549316406 15.078125 14.91016387939453 9.670394897460938 23.8408203125 5.8935546875 C 33.08789825439453 1.982894897460938 42.90916442871094 1.52587890625e-05 53.03224182128906 1.52587890625e-05 Z" stroke="none" fill="#157fce"/>
    </g>
  </g>
</svg>
