<svg xmlns="http://www.w3.org/2000/svg" width="550" height="257" viewBox="0 0 550 257">
  <g id="그룹_767" data-name="그룹 767" transform="translate(-93 -851)">
    <g id="line" transform="translate(-600 413)">
      <rect id="line-2" data-name="line" width="1" height="182" transform="translate(1242 438)" fill="#e8ebed"/>
      <rect id="line-3" data-name="line" width="1" height="182" transform="translate(1180 438)" fill="#e8ebed"/>
      <rect id="line-4" data-name="line" width="1" height="182" transform="translate(1119 438)" fill="#e8ebed"/>
      <rect id="line-5" data-name="line" width="1" height="182" transform="translate(1057 438)" fill="#e8ebed"/>
      <rect id="line-6" data-name="line" width="1" height="182" transform="translate(995 438)" fill="#e8ebed"/>
      <rect id="line-7" data-name="line" width="1" height="182" transform="translate(933 438)" fill="#e8ebed"/>
      <rect id="line-8" data-name="line" width="1" height="182" transform="translate(872 438)" fill="#e8ebed"/>
      <rect id="line-9" data-name="line" width="1" height="182" transform="translate(810 438)" fill="#e8ebed"/>
      <rect id="line-10" data-name="line" width="1" height="182" transform="translate(748 438)" fill="#e8ebed"/>
    </g>
    <g id="fail" transform="translate(-600 376)">
      <text id="Fail-2" data-name="Fail" transform="translate(694 573)" fill="#1b1d1f" font-size="16" font-family="NotoSansCJKkr-Medium, Noto Sans CJK KR" font-weight="500"><tspan x="0" y="0">중</tspan></text>
      <text id="_15" data-name="15" transform="translate(934 572)" fill="#1b1d1f" font-size="14" font-family="Roboto-Regular, Roboto"><tspan x="0" y="0">6</tspan></text>
      <path id="사각형_892" data-name="사각형 892" d="M0,0H172.5A7.5,7.5,0,0,1,180,7.5v0a7.5,7.5,0,0,1-7.5,7.5H0a0,0,0,0,1,0,0V0A0,0,0,0,1,0,0Z" transform="translate(749 560)" fill="#157fce"/>
    </g>
    <g id="fail-3" data-name="fail" transform="translate(-600 425)">
      <text id="Fail-4" data-name="Fail" transform="translate(694 573)" fill="#1b1d1f" font-size="16" font-family="NotoSansCJKkr-Medium, Noto Sans CJK KR" font-weight="500"><tspan x="0" y="0">하</tspan></text>
      <text id="_15-2" data-name="15" transform="translate(844 572)" fill="#1b1d1f" font-size="14" font-family="Roboto-Regular, Roboto"><tspan x="0" y="0">3</tspan></text>
      <path id="사각형_892-2" data-name="사각형 892" d="M0,0H82.5A7.5,7.5,0,0,1,90,7.5v0A7.5,7.5,0,0,1,82.5,15H0a0,0,0,0,1,0,0V0A0,0,0,0,1,0,0Z" transform="translate(749 560)" fill="#5ab448"/>
    </g>
    <g id="pass" transform="translate(-590 397)">
      <text id="_15-3" data-name="15" transform="translate(1176 502)" fill="#1b1d1f" font-size="14" font-family="Roboto-Regular, Roboto"><tspan x="0" y="0">15</tspan></text>
      <text id="Pass-2" data-name="Pass" transform="translate(683 503)" fill="#1b1d1f" font-size="16" font-family="NotoSansCJKkr-Regular, Noto Sans CJK KR"><tspan x="0" y="0">상</tspan></text>
      <path id="사각형_891" data-name="사각형 891" d="M0,0H424.5A7.5,7.5,0,0,1,432,7.5v0a7.5,7.5,0,0,1-7.5,7.5H0a0,0,0,0,1,0,0V0A0,0,0,0,1,0,0Z" transform="translate(739 490)" fill="#ffb643"/>
    </g>
    <text id="_2단원_문장_받아쓰기" data-name="2단원 문장 받아쓰기" transform="translate(293 1103)" fill="#1b1d1f" font-size="18" font-family="NotoSansCJKkr-Bold, Noto Sans CJK KR" font-weight="700"><tspan x="0" y="0">2단원 문장 받아쓰기</tspan></text>
    <text id="_온라인_워크시트_" data-name="[ 온라인 워크시트 ]" transform="translate(306 1072)" fill="#1b1d1f" font-size="16" font-family="NotoSansCJKkr-Regular, Noto Sans CJK KR"><tspan x="0" y="0">[ 온라인 워크시트 ]</tspan></text>
  </g>
</svg>
