<svg xmlns="http://www.w3.org/2000/svg" xmlns:xlink="http://www.w3.org/1999/xlink" width="375" height="579" viewBox="0 0 375 579">
  <defs>
    <filter id="bg" x="0" y="0" width="375" height="579" filterUnits="userSpaceOnUse">
      <feOffset dy="3" input="SourceAlpha"/>
      <feGaussianBlur stdDeviation="10" result="blur"/>
      <feFlood flood-color="#454c53" flood-opacity="0.302"/>
      <feComposite operator="in" in2="blur"/>
      <feComposite in="SourceGraphic"/>
    </filter>
    <clipPath id="clip-path">
      <rect id="사각형_562" data-name="사각형 562" width="10" height="10" fill="#1b1d1f"/>
    </clipPath>
    <clipPath id="clip-path-2">
      <rect id="사각형_126" data-name="사각형 126" width="10" height="10" fill="#fff" stroke="#fff" stroke-width="1"/>
    </clipPath>
    <clipPath id="clip-path-7">
      <rect id="사각형_719" data-name="사각형 719" width="25" height="25" transform="translate(975 2905)" fill="#1b1d1f" stroke="#707070" stroke-width="0.5"/>
    </clipPath>
  </defs>
  <g id="그룹_700" data-name="그룹 700" transform="translate(-9606 -17129)">
    <g transform="matrix(1, 0, 0, 1, 9606, 17129)" filter="url(#bg)">
      <path id="bg-2" data-name="bg" d="M30,0H315a0,0,0,0,1,0,0V519a0,0,0,0,1,0,0H30A30,30,0,0,1,0,489V30A30,30,0,0,1,30,0Z" transform="translate(30 27)" fill="#fff"/>
    </g>
    <g id="그룹_701" data-name="그룹 701" transform="translate(-1 6)">
      <rect id="bg-3" data-name="bg" width="275" height="128" rx="20" transform="translate(9657 17225)" fill="#f7f8f9"/>
      <text id="_2021.04.21_PM_06:00_마감" data-name="2021.04.21 PM 06:00 마감" transform="translate(9677 17328)" fill="#26282b" font-size="15" font-family="Roboto-Regular, Roboto"><tspan x="0" y="0">2021.04.21 PM 06:00 </tspan><tspan y="0" font-family="NotoSansKR-Regular, Noto Sans KR">마감</tspan></text>
      <g id="그룹_522" data-name="그룹 522" transform="translate(8987 15261)">
        <text id="독후감_작성" data-name="독후감 작성" transform="translate(791 2040)" fill="#1b1d1f" font-size="18" font-family="NotoSansCJKkr-Medium, Noto Sans CJK KR" font-weight="500"><tspan x="0" y="0">독후감 작성</tspan></text>
        <g id="arrow_right" transform="translate(776 2029)" clip-path="url(#clip-path)">
          <g id="arrow-point-to-right" transform="translate(2.15 0)">
            <path id="패스_869" data-name="패스 869" d="M7.43,5.5l-4.3,4.3a.7.7,0,0,1-.99-.99L5.945,5,2.14,1.2a.7.7,0,1,1,.99-.99l4.3,4.3a.7.7,0,0,1,0,.99Z" transform="translate(-1.935 0)" fill="#1b1d1f"/>
          </g>
        </g>
        <text id="국어_1차시" data-name="국어 1차시" transform="translate(690 2040)" fill="#1b1d1f" font-size="18" font-family="NotoSansCJKkr-Medium, Noto Sans CJK KR" font-weight="500"><tspan x="0" y="0">국어 1차시</tspan></text>
      </g>
      <path id="bg-4" data-name="bg" d="M20,0H255a20,20,0,0,1,20,20V40a0,0,0,0,1,0,0H0a0,0,0,0,1,0,0V20A20,20,0,0,1,20,0Z" transform="translate(9657 17225)" fill="#ff79ac"/>
      <text id="과제_제출_마감" data-name="과제 제출 마감" transform="translate(9682 17252)" fill="#fff" font-size="18" font-family="MalgunGothic, Malgun Gothic"><tspan x="0" y="0">과제</tspan><tspan y="0" font-family="SegoeUI, Segoe UI"> </tspan><tspan y="0">제출</tspan><tspan y="0" font-family="SegoeUI, Segoe UI"> </tspan><tspan y="0">마감</tspan></text>
      <g id="ico_right" transform="translate(9896 17240)">
        <g id="arrow_right-2" data-name="arrow_right" transform="translate(6)">
          <g id="arrow_right-3" data-name="arrow_right" clip-path="url(#clip-path-2)">
            <g id="arrow-point-to-right-2" data-name="arrow-point-to-right" transform="translate(2.498 0.612)">
              <path id="패스_99" data-name="패스 99" d="M6.758,4.823,2.984,8.6a.615.615,0,1,1-.869-.869L5.454,4.388,2.115,1.049A.615.615,0,0,1,2.984.18L6.758,3.954a.615.615,0,0,1,0,.869Z" transform="translate(-1.935 0)" fill="#fff" stroke="#fff" stroke-width="1"/>
            </g>
          </g>
        </g>
        <rect id="사각형_920" data-name="사각형 920" width="12" height="2" rx="1" transform="translate(0 4.001)" fill="#fff"/>
      </g>
    </g>
    <g id="그룹_702" data-name="그룹 702" transform="translate(-1 149)">
      <rect id="bg-5" data-name="bg" width="275" height="128" rx="20" transform="translate(9657 17225)" fill="#f7f8f9"/>
      <text id="_2021.04.21_PM_06:00_마감-2" data-name="2021.04.21 PM 06:00 마감" transform="translate(9677 17328)" fill="#26282b" font-size="15" font-family="Roboto-Regular, Roboto"><tspan x="0" y="0">2021.04.21 PM 06:00 </tspan><tspan y="0" font-family="NotoSansKR-Regular, Noto Sans KR">마감</tspan></text>
      <g id="그룹_522-2" data-name="그룹 522" transform="translate(8987 15261)">
        <text id="받아쓰기_퀴즈" data-name="받아쓰기 퀴즈" transform="translate(791 2040)" fill="#1b1d1f" font-size="18" font-family="NotoSansCJKkr-Medium, Noto Sans CJK KR" font-weight="500"><tspan x="0" y="0">받아쓰기 퀴즈</tspan></text>
        <g id="arrow_right-4" data-name="arrow_right" transform="translate(776 2029)" clip-path="url(#clip-path)">
          <g id="arrow-point-to-right-3" data-name="arrow-point-to-right" transform="translate(2.15 0)">
            <path id="패스_869-2" data-name="패스 869" d="M7.43,5.5l-4.3,4.3a.7.7,0,0,1-.99-.99L5.945,5,2.14,1.2a.7.7,0,1,1,.99-.99l4.3,4.3a.7.7,0,0,1,0,.99Z" transform="translate(-1.935 0)" fill="#1b1d1f"/>
          </g>
        </g>
        <text id="국어_1차시-2" data-name="국어 1차시" transform="translate(690 2040)" fill="#1b1d1f" font-size="18" font-family="NotoSansCJKkr-Medium, Noto Sans CJK KR" font-weight="500"><tspan x="0" y="0">국어 1차시</tspan></text>
      </g>
      <path id="bg-6" data-name="bg" d="M20,0H255a20,20,0,0,1,20,20V40a0,0,0,0,1,0,0H0a0,0,0,0,1,0,0V20A20,20,0,0,1,20,0Z" transform="translate(9657 17225)" fill="#6f57cf"/>
      <text id="퀴즈_제출_마감" data-name="퀴즈 제출 마감" transform="translate(9677 17252)" fill="#fff" font-size="18" font-family="MalgunGothic, Malgun Gothic"><tspan x="0" y="0">퀴즈</tspan><tspan y="0" font-family="SegoeUI, Segoe UI"> </tspan><tspan y="0">제출</tspan><tspan y="0" font-family="SegoeUI, Segoe UI"> </tspan><tspan y="0">마감</tspan></text>
      <g id="ico_right-2" data-name="ico_right" transform="translate(9896 17240)">
        <g id="arrow_right-5" data-name="arrow_right" transform="translate(6)">
          <g id="arrow_right-6" data-name="arrow_right" clip-path="url(#clip-path-2)">
            <g id="arrow-point-to-right-4" data-name="arrow-point-to-right" transform="translate(2.498 0.612)">
              <path id="패스_99-2" data-name="패스 99" d="M6.758,4.823,2.984,8.6a.615.615,0,1,1-.869-.869L5.454,4.388,2.115,1.049A.615.615,0,0,1,2.984.18L6.758,3.954a.615.615,0,0,1,0,.869Z" transform="translate(-1.935 0)" fill="#fff" stroke="#fff" stroke-width="1"/>
            </g>
          </g>
        </g>
        <rect id="사각형_920-2" data-name="사각형 920" width="12" height="2" rx="1" transform="translate(0 4.001)" fill="#fff"/>
      </g>
    </g>
    <g id="그룹_703" data-name="그룹 703" transform="translate(-1 292)">
      <rect id="bg-7" data-name="bg" width="275" height="128" rx="20" transform="translate(9657 17225)" fill="#f7f8f9"/>
      <text id="_2021.04.21_PM_06:00_마감-3" data-name="2021.04.21 PM 06:00 마감" transform="translate(9677 17328)" fill="#26282b" font-size="15" font-family="Roboto-Regular, Roboto"><tspan x="0" y="0">2021.04.21 PM 06:00 </tspan><tspan y="0" font-family="NotoSansKR-Regular, Noto Sans KR">마감</tspan></text>
      <g id="그룹_522-3" data-name="그룹 522" transform="translate(8987 15261)">
        <text id="받아쓰기_퀴즈-2" data-name="받아쓰기 퀴즈" transform="translate(791 2040)" fill="#1b1d1f" font-size="18" font-family="NotoSansCJKkr-Medium, Noto Sans CJK KR" font-weight="500"><tspan x="0" y="0">받아쓰기 퀴즈</tspan></text>
        <g id="arrow_right-7" data-name="arrow_right" transform="translate(776 2029)" clip-path="url(#clip-path)">
          <g id="arrow-point-to-right-5" data-name="arrow-point-to-right" transform="translate(2.15 0)">
            <path id="패스_869-3" data-name="패스 869" d="M7.43,5.5l-4.3,4.3a.7.7,0,0,1-.99-.99L5.945,5,2.14,1.2a.7.7,0,1,1,.99-.99l4.3,4.3a.7.7,0,0,1,0,.99Z" transform="translate(-1.935 0)" fill="#1b1d1f"/>
          </g>
        </g>
        <text id="국어_1차시-3" data-name="국어 1차시" transform="translate(690 2040)" fill="#1b1d1f" font-size="18" font-family="NotoSansCJKkr-Medium, Noto Sans CJK KR" font-weight="500"><tspan x="0" y="0">국어 1차시</tspan></text>
      </g>
      <path id="bg-8" data-name="bg" d="M20,0H255a20,20,0,0,1,20,20V40a0,0,0,0,1,0,0H0a0,0,0,0,1,0,0V20A20,20,0,0,1,20,0Z" transform="translate(9657 17225)" fill="#ffc251"/>
      <text id="퀴즈_미제출_마감" data-name="퀴즈 미제출 마감" transform="translate(9677 17252)" fill="#fff" font-size="18" font-family="MalgunGothic, Malgun Gothic"><tspan x="0" y="0">퀴즈</tspan><tspan y="0" font-family="SegoeUI, Segoe UI"> </tspan><tspan y="0">미제출</tspan><tspan y="0" font-family="SegoeUI, Segoe UI"> </tspan><tspan y="0">마감</tspan></text>
      <g id="ico_right-3" data-name="ico_right" transform="translate(9896 17240)">
        <g id="arrow_right-8" data-name="arrow_right" transform="translate(6)">
          <g id="arrow_right-9" data-name="arrow_right" clip-path="url(#clip-path-2)">
            <g id="arrow-point-to-right-6" data-name="arrow-point-to-right" transform="translate(2.498 0.612)">
              <path id="패스_99-3" data-name="패스 99" d="M6.758,4.823,2.984,8.6a.615.615,0,1,1-.869-.869L5.454,4.388,2.115,1.049A.615.615,0,0,1,2.984.18L6.758,3.954a.615.615,0,0,1,0,.869Z" transform="translate(-1.935 0)" fill="#fff" stroke="#fff" stroke-width="1"/>
            </g>
          </g>
        </g>
        <rect id="사각형_920-3" data-name="사각형 920" width="12" height="2" rx="1" transform="translate(0 4.001)" fill="#fff"/>
      </g>
    </g>
    <g id="그룹_704" data-name="그룹 704" transform="translate(-19 1)">
      <text id="알람" transform="translate(9771 17207)" fill="#222" font-size="24" font-family="MalgunGothic, Malgun Gothic" letter-spacing="-0.02em"><tspan x="0" y="0">알람</tspan></text>
      <g id="ico_arlam" transform="translate(8854 14280)" clip-path="url(#clip-path-7)">
        <g id="bell_2_" data-name="bell (2)" transform="translate(976.794 2905.821)">
          <path id="패스_1403" data-name="패스 1403" d="M36.13,11.47a.73.73,0,0,1-.73-.73,10.4,10.4,0,0,0-3.064-7.4A.73.73,0,0,1,33.37,2.309,11.849,11.849,0,0,1,36.86,10.74a.73.73,0,0,1-.73.73Zm0,0" transform="translate(-15.449 -1.008)" fill="#1b1d1f" stroke="#1b1d1f" stroke-width="0.5"/>
          <path id="패스_1404" data-name="패스 1404" d="M.73,11.471a.73.73,0,0,1-.73-.73,11.842,11.842,0,0,1,3.492-8.43A.73.73,0,0,1,4.525,3.343a10.389,10.389,0,0,0-3.065,7.4.73.73,0,0,1-.73.73Zm0,0" transform="translate(0 -1.008)" fill="#1b1d1f" stroke="#1b1d1f" stroke-width="0.5"/>
          <path id="패스_1405" data-name="패스 1405" d="M17.244,40.942a3.653,3.653,0,0,1-3.65-3.65.73.73,0,0,1,1.46,0,2.19,2.19,0,1,0,4.38,0,.73.73,0,0,1,1.46,0A3.653,3.653,0,0,1,17.244,40.942Zm0,0" transform="translate(-6.538 -17.584)" fill="#1b1d1f" stroke="#1b1d1f" stroke-width="0.5"/>
          <path id="패스_1406" data-name="패스 1406" d="M19.637,23.143H3.578a1.7,1.7,0,0,1-1.108-3,6.523,6.523,0,0,0,2.324-4.995V12.438a6.813,6.813,0,0,1,13.625,0v2.714a6.521,6.521,0,0,0,2.314,4.988,1.7,1.7,0,0,1-1.1,3ZM11.607,7.085a5.359,5.359,0,0,0-5.353,5.353v2.714a7.976,7.976,0,0,1-2.832,6.1.243.243,0,0,0-.088.187.246.246,0,0,0,.243.243H19.637a.246.246,0,0,0,.243-.243.24.24,0,0,0-.086-.185,7.979,7.979,0,0,1-2.834-6.1V12.438a5.358,5.358,0,0,0-5.353-5.353Zm0,0" transform="translate(-0.902 -2.705)" fill="#1b1d1f" stroke="#1b1d1f" stroke-width="0.5"/>
          <path id="패스_1407" data-name="패스 1407" d="M19.949,4.38a.73.73,0,0,1-.73-.73V.73a.73.73,0,1,1,1.46,0V3.65A.73.73,0,0,1,19.949,4.38Zm0,0" transform="translate(-9.243 0)" fill="#1b1d1f" stroke="#1b1d1f" stroke-width="0.5"/>
        </g>
      </g>
    </g>
    <rect id="사각형_921" data-name="사각형 921" width="8" height="424" rx="4" transform="translate(9941 17226)" fill="#e8ebed"/>
    <rect id="사각형_922" data-name="사각형 922" width="8" height="80" rx="4" transform="translate(9941 17226)" fill="#454c53"/>
  </g>
</svg>
