<svg xmlns="http://www.w3.org/2000/svg" xmlns:xlink="http://www.w3.org/1999/xlink" width="44.001" height="30.961" viewBox="0 0 44.001 30.961">
  <defs>
    <filter id="합치기_2" x="0" y="0" width="44.001" height="30.961" filterUnits="userSpaceOnUse">
      <feOffset input="SourceAlpha"/>
      <feGaussianBlur stdDeviation="1.5" result="blur"/>
      <feFlood flood-color="#454545" flood-opacity="0.302"/>
      <feComposite operator="in" in2="blur"/>
      <feComposite in="SourceGraphic"/>
    </filter>
  </defs>
  <g id="그룹_1211" data-name="그룹 1211" transform="translate(-25.5 -949.499)">
    <g transform="matrix(1, 0, 0, 1, 25.5, 949.5)" filter="url(#합치기_2)">
      <path id="합치기_2-2" data-name="합치기 2" d="M3348.628,11030.449l-1.939-3.45H3326a3,3,0,0,1-3-3v-12a3,3,0,0,1,3-3h29a3,3,0,0,1,3,3v12a3,3,0,0,1-3,3h-2.687l-1.941,3.45a1,1,0,0,1-1.744,0Z" transform="translate(-3318.5 -11004.5)" fill="#fff"/>
    </g>
    <text id="종료" transform="translate(47 967)" fill="#72787f" font-size="10" font-family="NotoSansKR-Medium, Noto Sans KR" font-weight="500"><tspan x="-9.2" y="0">종료</tspan></text>
  </g>
</svg>
