<svg xmlns="http://www.w3.org/2000/svg" xmlns:xlink="http://www.w3.org/1999/xlink" width="19" height="19" viewBox="0 0 19 19">
  <defs>
    <clipPath id="clip-path">
      <rect id="사각형_376" data-name="사각형 376" width="19" height="19" transform="translate(1183 549)" fill="#fc5d5b"/>
    </clipPath>
  </defs>
  <g id="icon_체크" transform="translate(-1183 -549)" clip-path="url(#clip-path)">
    <g id="Layer_2" data-name="Layer 2" transform="translate(1183 553.301)">
      <g id="Layer_2-2" data-name="Layer 2">
        <path id="패스_296" data-name="패스 296" d="M17.893.032a12.954,12.954,0,0,0-2.2.915c-.7.323-1.388.664-2.065,1.029A40.776,40.776,0,0,0,9.711,4.358a36.666,36.666,0,0,0-3.588,2.8,21.935,21.935,0,0,0-1.6,1.57c-.127.139-.332.332-.518.546-.129-.174-.27-.341-.377-.5A15.111,15.111,0,0,1,2.7,7.257,10.241,10.241,0,0,1,2.05,5.736a3.991,3.991,0,0,0-.68-1.686.832.832,0,0,0-1.32.315A2.8,2.8,0,0,0,.492,6.2a12.789,12.789,0,0,0,.946,1.723A10.858,10.858,0,0,0,2.6,9.407a3.856,3.856,0,0,0,1,.862.184.184,0,0,0,.132.118.723.723,0,0,0,.239,0c.028,0,.056.008.085.01a.3.3,0,0,0,.261-.136,6.486,6.486,0,0,0,1-.808q.813-.664,1.633-1.328a43.153,43.153,0,0,1,3.618-2.6,41.047,41.047,0,0,1,3.849-2.189q1-.5,2.023-.944c.7-.3,1.482-.528,2.146-.885A.816.816,0,0,0,17.893.032Z" fill="#fc5d5b"/>
      </g>
    </g>
  </g>
</svg>
