<svg xmlns="http://www.w3.org/2000/svg" xmlns:xlink="http://www.w3.org/1999/xlink" width="19" height="19" viewBox="0 0 19 19">
  <defs>
    <clipPath id="clip-path">
      <rect id="사각형_275" data-name="사각형 275" width="19" height="19" transform="translate(1377 686)" fill="#fff"/>
    </clipPath>
  </defs>
  <g id="icon_주의집중" transform="translate(-1377 -686)" clip-path="url(#clip-path)">
    <g id="Layer_2" data-name="Layer 2" transform="translate(1377 686)">
      <g id="Layer_18" data-name="Layer 18">
        <path id="패스_243" data-name="패스 243" d="M8.1.148A6.677,6.677,0,0,0,4.543,11.11a4.337,4.337,0,0,1,1.1,2.843v1.113a1.672,1.672,0,0,0,1.154,1.588,2.776,2.776,0,0,0,5.485,0,1.672,1.672,0,0,0,1.154-1.588V13.953a4.393,4.393,0,0,1,1.13-2.878A6.681,6.681,0,0,0,8.1.148ZM9.537,17.886a1.7,1.7,0,0,1-1.575-1.154h3.149A1.7,1.7,0,0,1,9.537,17.886Zm2.783-2.82a.557.557,0,0,1-.557.557H7.31a.557.557,0,0,1-.557-.557v-.557H12.32Zm1.406-4.725A5.587,5.587,0,0,0,12.35,13.4H6.723a5.5,5.5,0,0,0-1.348-3.025,5.566,5.566,0,1,1,8.351-.031Z" fill="#222"/>
        <path id="패스_244" data-name="패스 244" d="M10.149,11.6a.881.881,0,0,1-.575.206A.853.853,0,0,1,9,11.6a.659.659,0,0,1-.25-.533A.691.691,0,0,1,9,10.527a.883.883,0,0,1,.576-.2.911.911,0,0,1,.576.2.679.679,0,0,1,.26.544A.649.649,0,0,1,10.149,11.6ZM9.017,3.678a.689.689,0,0,1,.567-.227.683.683,0,0,1,.565.228,1.32,1.32,0,0,1,.152.891l-.228,3.957a1.9,1.9,0,0,1-.141.62.386.386,0,0,1-.359.217.377.377,0,0,1-.348-.217,1.579,1.579,0,0,1-.141-.62L8.844,4.57A1.235,1.235,0,0,1,9.017,3.678Z" fill="#222"/>
        <path id="패스_245" data-name="패스 245" d="M1.67,5.974H.557a.557.557,0,0,0,0,1.113H1.67a.557.557,0,0,0,0-1.113Z" fill="#222"/>
        <path id="패스_246" data-name="패스 246" d="M1.9,3.191,1.113,2.4a.557.557,0,1,0-.787.787l.787.787A.557.557,0,0,0,1.9,3.191Z" fill="#222"/>
        <path id="패스_247" data-name="패스 247" d="M1.9,9.083a.557.557,0,0,0-.787,0l-.787.787a.557.557,0,1,0,.787.787L1.9,9.871a.557.557,0,0,0,0-.787Z" fill="#222"/>
        <path id="패스_248" data-name="패스 248" d="M18.443,5.974H17.33a.557.557,0,0,0,0,1.113h1.113a.557.557,0,0,0,0-1.113Z" fill="#222"/>
        <path id="패스_249" data-name="패스 249" d="M18.673,2.4a.557.557,0,0,0-.787,0l-.787.787a.557.557,0,1,0,.787.787l.787-.787a.557.557,0,0,0,0-.787Z" fill="#222"/>
        <path id="패스_250" data-name="패스 250" d="M18.673,9.871l-.787-.787a.557.557,0,1,0-.787.787l.787.787a.557.557,0,1,0,.787-.787Z" fill="#222"/>
      </g>
    </g>
  </g>
</svg>
