<svg xmlns="http://www.w3.org/2000/svg" xmlns:xlink="http://www.w3.org/1999/xlink" width="25" height="25" viewBox="0 0 25 25">
  <defs>
    <clipPath id="clip-path">
      <rect id="사각형_508" data-name="사각형 508" width="25" height="25" transform="translate(1011 158)" fill="#303d53"/>
    </clipPath>
  </defs>
  <g id="마스크_그룹_137" data-name="마스크 그룹 137" transform="translate(-1011 -158)" clip-path="url(#clip-path)">
    <g id="web-browser_1_" data-name="web-browser (1)" transform="translate(1011 158)">
      <g id="그룹_108" data-name="그룹 108">
        <path id="패스_377" data-name="패스 377" d="M22.135,23.958H2.865A2.867,2.867,0,0,1,0,21.094V3.906A2.867,2.867,0,0,1,2.865,1.042H22.135A2.867,2.867,0,0,1,25,3.906V21.094A2.867,2.867,0,0,1,22.135,23.958ZM2.865,2.6a1.3,1.3,0,0,0-1.3,1.3V21.094a1.3,1.3,0,0,0,1.3,1.3H22.135a1.3,1.3,0,0,0,1.3-1.3V3.906a1.3,1.3,0,0,0-1.3-1.3Z"/>
      </g>
      <g id="그룹_109" data-name="그룹 109">
        <path id="패스_378" data-name="패스 378" d="M24.219,6.25H.781a.781.781,0,0,1,0-1.562H24.219a.781.781,0,0,1,0,1.563Z"/>
      </g>
      <path id="패스_379" data-name="패스 379" d="M13.185,7.792h-3v3" transform="translate(-5.185 1.208)" fill="none" stroke="#000" stroke-linecap="round" stroke-linejoin="round" stroke-width="1.5"/>
      <path id="패스_382" data-name="패스 382" d="M13.185,10.792h-3v-3" transform="translate(-5.185 8.208)" fill="none" stroke="#000" stroke-linecap="round" stroke-linejoin="round" stroke-width="1.5"/>
      <path id="패스_380" data-name="패스 380" d="M10.185,7.792h3v3" transform="translate(6.815 1.208)" fill="none" stroke="#000" stroke-linecap="round" stroke-linejoin="round" stroke-width="1.5"/>
      <path id="패스_381" data-name="패스 381" d="M10.185,10.792h3v-3" transform="translate(6.815 8.208)" fill="none" stroke="#000" stroke-linecap="round" stroke-linejoin="round" stroke-width="1.5"/>
    </g>
  </g>
</svg>
