<svg xmlns="http://www.w3.org/2000/svg" xmlns:xlink="http://www.w3.org/1999/xlink" width="19" height="19" viewBox="0 0 19 19">
  <defs>
    <clipPath id="clip-path">
      <rect id="사각형_375" data-name="사각형 375" width="19" height="19" transform="translate(1183 860)" fill="#fff"/>
    </clipPath>
  </defs>
  <g id="icon_웩" transform="translate(-1183 -860)" clip-path="url(#clip-path)">
    <g id="confused" transform="translate(1183 860)">
      <circle id="타원_45" data-name="타원 45" cx="9.5" cy="9.5" r="9.5" fill="#ffd54f"/>
      <g id="그룹_39" data-name="그룹 39">
        <path id="패스_301" data-name="패스 301" d="M5.344,8.708A.593.593,0,0,1,5,7.629l1.284-.9L5,5.83a.593.593,0,0,1,.681-.972L7.663,6.243a.593.593,0,0,1,0,.972L5.684,8.6a.59.59,0,0,1-.34.108Z" fill="#6d4c41"/>
        <path id="패스_302" data-name="패스 302" d="M13.656,8.708a.59.59,0,0,1-.34-.108L11.337,7.215a.593.593,0,0,1,0-.972l1.979-1.385A.593.593,0,1,1,14,5.83l-1.284.9,1.285.9a.594.594,0,0,1-.341,1.08Z" fill="#6d4c41"/>
        <path id="패스_303" data-name="패스 303" d="M14.052,14.25a.584.584,0,0,1-.284-.073l-1.9-1.039-2.1,1.049a.6.6,0,0,1-.531,0l-2.1-1.049-1.9,1.039a.594.594,0,0,1-.569-1.043l2.177-1.187a.6.6,0,0,1,.55-.01L9.5,12.993l2.11-1.055a.6.6,0,0,1,.55.01l2.177,1.188a.594.594,0,0,1-.285,1.115Z" fill="#6d4c41"/>
      </g>
    </g>
  </g>
</svg>
