<svg xmlns="http://www.w3.org/2000/svg" xmlns:xlink="http://www.w3.org/1999/xlink" width="25" height="25" viewBox="0 0 25 25">
  <defs>
    <clipPath id="clip-path">
      <rect id="사각형_229" data-name="사각형 229" width="25" height="25" transform="translate(1525 493)" fill="#ff0"/>
    </clipPath>
  </defs>
  <g id="icon_포인트" transform="translate(-1525 -493)" clip-path="url(#clip-path)">
    <g id="Layer_2" data-name="Layer 2" transform="translate(1526.913 493)">
      <g id="포인터" transform="translate(0)">
        <path id="패스_179" data-name="패스 179" d="M18.651,7.715a2.5,2.5,0,0,0-1,.206,2.529,2.529,0,0,0-2.344-1.6,2.493,2.493,0,0,0-1.1.255A2.526,2.526,0,0,0,11.969,5.2a2.5,2.5,0,0,0-.816.137v-2.8a2.526,2.526,0,1,0-5.052,0V12.614L4.283,10.534l-.039-.042a2.533,2.533,0,0,0-1.789-.746H2.442a2.5,2.5,0,0,0-1.78.732c-.835.835-.879,2.075-.126,3.4.977,1.716,2.039,3.335,2.976,4.763.684,1.044,1.332,2.029,1.807,2.844.41.708,1.5,3,1.51,3.024A.853.853,0,0,0,7.6,25h10.8a.855.855,0,0,0,.813-.592c.2-.626,1.968-6.179,1.968-8.323V10.259A2.536,2.536,0,0,0,18.651,7.715Zm-.817,2.543a.817.817,0,1,1,1.633,0v5.828a39.005,39.005,0,0,1-1.7,7.207H8.135c-.354-.736-1.018-2.1-1.342-2.661-.5-.856-1.155-1.861-1.856-2.925-.921-1.407-1.967-3-2.918-4.67-.248-.437-.475-1.025-.149-1.35a.814.814,0,0,1,.577-.234.834.834,0,0,1,.573.229l3.293,3.767a.854.854,0,0,0,1.5-.562V2.542a.817.817,0,0,1,1.634,0v7.973a.855.855,0,0,0,1.709,0V7.746a.817.817,0,1,1,1.633,0v3.883a.855.855,0,0,0,1.709,0V8.861a.817.817,0,1,1,1.633,0v3.885a.855.855,0,1,0,1.709,0V10.259Z" transform="translate(-0.002)" fill="#ff0"/>
      </g>
    </g>
  </g>
</svg>
