<svg xmlns="http://www.w3.org/2000/svg" xmlns:xlink="http://www.w3.org/1999/xlink" width="25" height="25" viewBox="0 0 25 25">
  <defs>
    <clipPath id="clip-path">
      <rect id="사각형_229" data-name="사각형 229" width="25" height="25" transform="translate(1528 623)" fill="#ff0"/>
    </clipPath>
  </defs>
  <g id="icon_메모" transform="translate(-1528 -623)" clip-path="url(#clip-path)">
    <g id="Layer_2" data-name="Layer 2" transform="translate(1528.001 623)">
      <g id="Layer_8" data-name="Layer 8">
        <path id="패스_182" data-name="패스 182" d="M24.141,6.576a2.986,2.986,0,0,0-4.192,0l-.809.809V3.674a2.193,2.193,0,0,0-2.184-2.2h-.795V.732a.732.732,0,0,0-1.465,0v.743H13.232V.732a.732.732,0,0,0-1.465,0v.743H10.3V.732a.732.732,0,1,0-1.465,0v.743H7.373V.732a.732.732,0,1,0-1.465,0v.743H4.443V.732a.732.732,0,1,0-1.465,0v.743H2.246A2.221,2.221,0,0,0,0,3.666V22.806A2.232,2.232,0,0,0,2.246,25H16.957a2.17,2.17,0,0,0,2.184-2.182V15.689c1.693-1.678,3.337-3.308,5-4.971a2.93,2.93,0,0,0,0-4.142ZM17.676,22.818a.711.711,0,0,1-.718.721H2.246a.778.778,0,0,1-.781-.732V3.667a.783.783,0,0,1,.781-.737h.732v.732a.732.732,0,0,0,1.465,0V2.93H5.908v.732a.732.732,0,0,0,1.465,0V2.93H8.838v.732a.732.732,0,0,0,1.465,0V2.93h1.465v.732a.732.732,0,0,0,1.465,0V2.93H14.7v.732a.732.732,0,0,0,1.465,0V2.93h.8a.726.726,0,0,1,.718.743V8.848l-4.395,4.389H3.711a.732.732,0,1,0,0,1.46h8.105c-.872.871-1.4,1.4-1.465,1.469H3.711a.732.732,0,0,0,0,1.465h5.98L9.2,19.1H3.711a.732.732,0,0,0,0,1.465h5l-.229.686a.732.732,0,0,0,.928.928l4.661-1.554a.737.737,0,0,0,.286-.177q1.68-1.68,3.316-3.3v5.675ZM12.76,19.513l-2.422.807.808-2.421Zm1.265-.807-2.072-2.072c2.3-2.3,4.51-4.5,6.819-6.812L20.881,11.9c-.968.962-5.586,5.54-6.856,6.807Zm9.082-9.023-1.187,1.183L19.808,8.789l1.177-1.176a1.522,1.522,0,0,1,2.12,0,1.465,1.465,0,0,1,0,2.07Z" fill="#ff0"/>
        <path id="패스_183" data-name="패스 183" d="M9.375,7.182H4A.732.732,0,0,0,4,8.646H9.375a.732.732,0,1,0,0-1.465Z" fill="#ff0"/>
        <path id="패스_184" data-name="패스 184" d="M12.411,10.111H4a.732.732,0,0,0,0,1.465h8.407a.732.732,0,1,0,0-1.465Z" fill="#ff0"/>
      </g>
    </g>
  </g>
</svg>
