<svg xmlns="http://www.w3.org/2000/svg" xmlns:xlink="http://www.w3.org/1999/xlink" width="40" height="40" viewBox="0 0 40 40">
  <defs>
    <clipPath id="clip-path">
      <rect id="사각형_490" data-name="사각형 490" width="25" height="25" transform="translate(139 1027)" fill="#fff"/>
    </clipPath>
  </defs>
  <g id="그룹_1027" data-name="그룹 1027" transform="translate(-457 -465)">
    <circle id="타원_360" data-name="타원 360" cx="20" cy="20" r="20" transform="translate(457 465)" fill="#303d53"/>
    <g id="icon_사운드" transform="translate(326 -554)" clip-path="url(#clip-path)">
      <g id="volume" transform="translate(139 1027.833)">
        <g id="그룹_75" data-name="그룹 75">
          <path id="패스_340" data-name="패스 340" d="M14.528,1.082a.831.831,0,0,0-.882.1L5.54,7.667H1.667A1.669,1.669,0,0,0,0,9.334V16a1.669,1.669,0,0,0,1.667,1.667H5.54l8.105,6.485A.834.834,0,0,0,15,23.5V1.834A.836.836,0,0,0,14.528,1.082ZM5,16H1.667V9.334H5Zm8.333,5.765L6.667,16.432V8.9l6.667-5.333Z" transform="translate(0 -0.999)" fill="#fff"/>
        </g>
        <path id="패스_341" data-name="패스 341" d="M22.78,7.88a.833.833,0,0,0-1.172,1.185,6.655,6.655,0,0,1,0,9.417.833.833,0,1,0,1.172,1.183,8.319,8.319,0,0,0,0-11.785Z" transform="translate(-3.56 -2.106)" fill="#fff"/>
        <path id="패스_341-2" data-name="패스 341" d="M22.266,7.793a.531.531,0,0,0-.747.756,4.245,4.245,0,0,1,0,6.006.531.531,0,1,0,.747.755,5.306,5.306,0,0,0,0-7.517Z" transform="translate(-5.86 0.116)" fill="#fff" stroke="#fff" stroke-width="0.7"/>
        <path id="패스_342" data-name="패스 342" d="M25.6,5.062a.833.833,0,1,0-1.173,1.183,9.951,9.951,0,0,1,0,14.117A.833.833,0,1,0,25.6,21.546a11.617,11.617,0,0,0,0-16.483Z" transform="translate(-4.03 -1.637)" fill="#fff"/>
      </g>
    </g>
  </g>
</svg>
