<svg xmlns="http://www.w3.org/2000/svg" xmlns:xlink="http://www.w3.org/1999/xlink" width="25" height="25" viewBox="0 0 25 25">
  <defs>
    <clipPath id="clip-path">
      <rect id="사각형_1269" data-name="사각형 1269" width="25" height="25" transform="translate(1558 196)" fill="#fff" stroke="#707070" stroke-width="1"/>
    </clipPath>
  </defs>
  <g id="ico_가리기" transform="translate(-1558 -196)" opacity="0.8" clip-path="url(#clip-path)">
    <g id="drag" transform="translate(1558 196)">
      <path id="패스_1522" data-name="패스 1522" d="M7.06,17.1a.844.844,0,1,0,.844.844A.844.844,0,0,0,7.06,17.1Z" fill="#fff"/>
      <path id="패스_1523" data-name="패스 1523" d="M3.952,17.1a.844.844,0,1,0,.844.844A.844.844,0,0,0,3.952,17.1Z" fill="#fff"/>
      <path id="패스_1524" data-name="패스 1524" d="M10.169,17.1a.844.844,0,1,0,.844.844A.843.843,0,0,0,10.169,17.1Z" fill="#fff"/>
      <path id="패스_1525" data-name="패스 1525" d="M13.277,17.1a.844.844,0,1,0,.844.844A.844.844,0,0,0,13.277,17.1Z" fill="#fff"/>
      <path id="패스_1526" data-name="패스 1526" d="M.844,17.1a.844.844,0,1,0,.6.247A.85.85,0,0,0,.844,17.1Z" fill="#fff"/>
      <path id="패스_1527" data-name="패스 1527" d="M.844,10.878a.844.844,0,1,0,.844.844A.844.844,0,0,0,.844,10.878Z" fill="#fff"/>
      <path id="패스_1528" data-name="패스 1528" d="M.844,7.767a.844.844,0,1,0,.844.844A.844.844,0,0,0,.844,7.767Z" fill="#fff"/>
      <path id="패스_1529" data-name="패스 1529" d="M.844,4.657a.844.844,0,1,0,.844.844A.844.844,0,0,0,.844,4.657Z" fill="#fff"/>
      <path id="패스_1530" data-name="패스 1530" d="M.844,13.989a.844.844,0,1,0,.844.844A.844.844,0,0,0,.844,13.989Z" fill="#fff"/>
      <path id="패스_1531" data-name="패스 1531" d="M.844,1.547a.844.844,0,1,0,.6,1.441.844.844,0,0,0-.6-1.441Z" fill="#fff"/>
      <path id="패스_1532" data-name="패스 1532" d="M13.277,3.235a.844.844,0,1,0-.844-.844A.844.844,0,0,0,13.277,3.235Z" fill="#fff"/>
      <path id="패스_1533" data-name="패스 1533" d="M16.385,3.235a.844.844,0,1,0-.844-.844A.844.844,0,0,0,16.385,3.235Z" fill="#fff"/>
      <path id="패스_1534" data-name="패스 1534" d="M7.06,1.547a.844.844,0,1,0,.844.844A.844.844,0,0,0,7.06,1.547Z" fill="#fff"/>
      <path id="패스_1535" data-name="패스 1535" d="M3.952,1.547a.844.844,0,1,0,.844.844A.844.844,0,0,0,3.952,1.547Z" fill="#fff"/>
      <path id="패스_1536" data-name="패스 1536" d="M10.169,1.547a.844.844,0,1,0,.844.844A.843.843,0,0,0,10.169,1.547Z" fill="#fff"/>
      <path id="패스_1537" data-name="패스 1537" d="M19.494,3.235a.844.844,0,1,0-.6-.247A.85.85,0,0,0,19.494,3.235Z" fill="#fff"/>
      <path id="패스_1538" data-name="패스 1538" d="M19.494,9.455a.844.844,0,1,0-.844-.844A.844.844,0,0,0,19.494,9.455Z" fill="#fff"/>
      <path id="패스_1539" data-name="패스 1539" d="M19.494,6.345A.844.844,0,1,0,18.65,5.5.844.844,0,0,0,19.494,6.345Z" fill="#fff"/>
      <path id="패스_1540" data-name="패스 1540" d="M19.494,12.566a.844.844,0,1,0-.844-.844A.844.844,0,0,0,19.494,12.566Z" fill="#fff"/>
      <path id="패스_1541" data-name="패스 1541" d="M24.446,15.437l-9.894-3.62a.844.844,0,0,0-1.085,1.077l3.582,10a.844.844,0,0,0,.779.559h.016a.844.844,0,0,0,.783-.529l1.344-3.345L22.8,22.434A.844.844,0,1,0,24,21.247l-2.843-2.873,3.324-1.364a.844.844,0,0,0-.03-1.574Zm-5.1,1.854a.844.844,0,0,0-.463.466l-.994,2.476-2.225-6.211,6.158,2.253Z" fill="#fff"/>
    </g>
  </g>
</svg>
