<svg xmlns="http://www.w3.org/2000/svg" width="19" height="16" viewBox="0 0 19 16">
  <g id="icon_세모" fill="none">
    <path d="M8.64,1.448a1,1,0,0,1,1.72,0L18.1,14.489A1,1,0,0,1,17.243,16H1.757A1,1,0,0,1,.9,14.489Z" stroke="none"/>
    <path d="M 9.499992370605469 2.938070297241211 L 2.635101318359375 14.50000190734863 L 16.36489868164062 14.50000190734863 L 9.499992370605469 2.938070297241211 M 9.499995231628418 0.9587135314941406 C 9.833049774169922 0.9587135314941406 10.16610527038574 1.121866226196289 10.35984992980957 1.448171615600586 L 18.10312080383301 14.48946189880371 C 18.49891090393066 15.15605163574219 18.01849937438965 16.00000190734863 17.24325942993164 16.00000190734863 L 1.756740570068359 16.00000190734863 C 0.9815006256103516 16.00000190734863 0.5010890960693359 15.15605163574219 0.8968791961669922 14.48946189880371 L 8.640139579772949 1.448171615600586 C 8.833885192871094 1.121866226196289 9.166939735412598 0.9587135314941406 9.499995231628418 0.9587135314941406 Z" stroke="none" fill="#222"/>
  </g>
</svg>
