<svg xmlns="http://www.w3.org/2000/svg" xmlns:xlink="http://www.w3.org/1999/xlink" width="30" height="30" viewBox="0 0 30 30">
  <defs>
    <clipPath id="clip-path">
      <rect id="사각형_383" data-name="사각형 383" width="30" height="30" transform="translate(1098 137)" fill="#aeaeae"/>
    </clipPath>
  </defs>
  <g id="마스크_그룹_135" data-name="마스크 그룹 135" transform="translate(-1098 -137)" clip-path="url(#clip-path)">
    <g id="Layer_2" data-name="Layer 2" transform="translate(1098 141.019)">
      <g id="Layer_27" data-name="Layer 27">
        <rect id="사각형_501" data-name="사각형 501" width="28.8" height="12" rx="6" transform="translate(0.6 0.6)" fill="#fff" stroke="#454545" stroke-linecap="round" stroke-linejoin="round" stroke-width="1.2"/>
        <path id="패스_363" data-name="패스 363" d="M6.24,6.6a4.087,4.087,0,0,1,.229-1.4,3.233,3.233,0,0,1,.644-1.09,2.875,2.875,0,0,1,.981-.7,3.06,3.06,0,0,1,1.233-.247,3.025,3.025,0,0,1,1.228.247,2.888,2.888,0,0,1,.977.7,3.232,3.232,0,0,1,.643,1.09,4.087,4.087,0,0,1,.23,1.4,4.118,4.118,0,0,1-.23,1.409,3.18,3.18,0,0,1-.643,1.084,2.9,2.9,0,0,1-.977.7,3.025,3.025,0,0,1-1.228.247,3.06,3.06,0,0,1-1.233-.247,2.888,2.888,0,0,1-.981-.7,3.18,3.18,0,0,1-.644-1.084A4.118,4.118,0,0,1,6.24,6.6Zm4.923,0a3.453,3.453,0,0,0-.113-.891,2.3,2.3,0,0,0-.342-.747,1.7,1.7,0,0,0-.568-.513,1.63,1.63,0,0,0-.8-.189,1.7,1.7,0,0,0-.816.189,1.676,1.676,0,0,0-.581.513,2.3,2.3,0,0,0-.342.747,3.453,3.453,0,0,0-.115.891,3.49,3.49,0,0,0,.112.9,2.252,2.252,0,0,0,.342.743,1.655,1.655,0,0,0,1.4.7,1.63,1.63,0,0,0,.8-.189,1.718,1.718,0,0,0,.571-.508,2.252,2.252,0,0,0,.342-.743A3.489,3.489,0,0,0,11.163,6.6Z" fill="#454545"/>
        <path id="패스_364" data-name="패스 364" d="M17.82,9.916l2.259-3.41L17.946,3.284H19.4L20.784,5.5,22.17,3.284h1.446L21.474,6.506l2.286,3.41H22.284L20.784,7.5l-1.5,2.412Z" fill="#454545"/>
        <path id="패스_365" data-name="패스 365" d="M22.031,16.157,15.18,9.308a.391.391,0,0,0-.628.289V18.96a.379.379,0,0,0,.379.379.36.36,0,0,0,.248-.092l1.9-1.654,1.549,3.617a.254.254,0,0,0,.138.136.267.267,0,0,0,.094.017.251.251,0,0,0,.1-.021l1.628-.7a.253.253,0,0,0,.133-.332l-1.5-3.5H21.76a.379.379,0,0,0,.379-.379.42.42,0,0,0-.108-.269Z" fill="#00a58a" stroke="#00a58a" stroke-linecap="round" stroke-linejoin="round" stroke-width="1.2"/>
      </g>
    </g>
  </g>
</svg>
