<svg xmlns="http://www.w3.org/2000/svg" xmlns:xlink="http://www.w3.org/1999/xlink" width="25" height="25" viewBox="0 0 25 25">
  <defs>
    <clipPath id="clip-path">
      <rect id="사각형_384" data-name="사각형 384" width="25" height="25" transform="translate(1175 142)" fill="#aeaeae"/>
    </clipPath>
  </defs>
  <g id="마스크_그룹_134" data-name="마스크 그룹 134" transform="translate(-1175 -142)" clip-path="url(#clip-path)">
    <g id="checked_3_" data-name="checked (3)" transform="translate(1175 142)">
      <g id="그룹_93" data-name="그룹 93">
        <g id="그룹_92" data-name="그룹 92">
          <path id="패스_361" data-name="패스 361" d="M24.285,3.418a.942.942,0,0,0-1.332,0L11.65,14.69,7.571,10.26a.942.942,0,1,0-1.386,1.276l4.742,5.15a.941.941,0,0,0,.673.3h.02a.943.943,0,0,0,.665-.275l12-11.966A.942.942,0,0,0,24.285,3.418Z" fill="#00a58a"/>
        </g>
      </g>
      <g id="그룹_95" data-name="그룹 95">
        <g id="그룹_94" data-name="그룹 94">
          <path id="패스_362" data-name="패스 362" d="M24.058,11.558a.942.942,0,0,0-.942.942A10.616,10.616,0,1,1,12.5,1.884.942.942,0,1,0,12.5,0,12.5,12.5,0,1,0,25,12.5.942.942,0,0,0,24.058,11.558Z" fill="#454545"/>
        </g>
      </g>
    </g>
  </g>
</svg>
