<svg width="10" height="10" viewBox="0 0 10 10" fill="none" xmlns="http://www.w3.org/2000/svg">
<g clip-path="url(#clip0_992_3965)">
<path d="M4.99997 7.855C4.9072 7.85566 4.81523 7.83788 4.72939 7.80269C4.64355 7.7675 4.56557 7.71559 4.49997 7.65L0.19997 3.35C0.0680249 3.21739 -0.00583772 3.0378 -0.00536888 2.85073C-0.00490003 2.66366 0.0698619 2.48444 0.20247 2.3525C0.335078 2.22055 0.51467 2.14669 0.701738 2.14716C0.888805 2.14763 1.06803 2.22239 1.19997 2.355L4.99997 6.155L8.79997 2.355C8.86497 2.28999 8.94215 2.23843 9.02708 2.20325C9.11201 2.16807 9.20304 2.14996 9.29497 2.14996C9.3869 2.14996 9.47793 2.16807 9.56286 2.20325C9.64779 2.23843 9.72497 2.28999 9.78997 2.355C9.85497 2.42 9.90654 2.49717 9.94172 2.5821C9.9769 2.66704 9.99501 2.75807 9.99501 2.85C9.99501 2.94193 9.9769 3.03296 9.94172 3.11789C9.90654 3.20282 9.85497 3.27999 9.78997 3.345L5.49997 7.645C5.43479 7.7115 5.35699 7.76433 5.27113 7.80038C5.18528 7.83644 5.09309 7.85501 4.99997 7.855Z" fill="#FC5D5B"/>
</g>
<defs>
<clipPath id="clip0_992_3965">
<rect width="10" height="10" fill="white"/>
</clipPath>
</defs>
</svg>
