<svg xmlns="http://www.w3.org/2000/svg" xmlns:xlink="http://www.w3.org/1999/xlink" width="490" height="759" viewBox="0 0 490 759">
  <defs>
    <filter id="패스_1014" x="0" y="0" width="490" height="759" filterUnits="userSpaceOnUse">
      <feOffset dy="5" input="SourceAlpha"/>
      <feGaussianBlur stdDeviation="10" result="blur"/>
      <feFlood flood-color="#454c53" flood-opacity="0.502"/>
      <feComposite operator="in" in2="blur"/>
      <feComposite in="SourceGraphic"/>
    </filter>
    <clipPath id="clip-path">
      <rect id="사각형_875" data-name="사각형 875" width="120" height="160" transform="translate(1270.998 560)" fill="#fff"/>
    </clipPath>
  </defs>
  <g id="그룹_842" data-name="그룹 842" transform="translate(-930 -165)">
    <g transform="matrix(1, 0, 0, 1, 930, 165)" filter="url(#패스_1014)">
      <path id="패스_1014-2" data-name="패스 1014" d="M-366.264-120H-29V539H-419a40,40,0,0,0-40,40V-27.264A92.736,92.736,0,0,1-366.264-120Z" transform="translate(489 145)" fill="#f2f3f7"/>
    </g>
    <g id="마스크_그룹_153" data-name="마스크 그룹 153" transform="translate(0 7)" opacity="0.15" clip-path="url(#clip-path)">
      <g id="open-book_4_" data-name="open-book (4)" transform="translate(1270.998 560)">
        <path id="패스_1043" data-name="패스 1043" d="M3.077,12.433h9.231V3.2A3.077,3.077,0,0,1,15.385.125H80A15.329,15.329,0,0,1,92.308,6.373,15.329,15.329,0,0,1,104.615.125h64.615A3.077,3.077,0,0,1,172.308,3.2v9.231h9.231a3.077,3.077,0,0,1,3.077,3.077V138.587a3.077,3.077,0,0,1-3.077,3.077h-120v15.385a3.077,3.077,0,0,1-5.252,2.175l-7.055-7.055-7.055,7.055a3.077,3.077,0,0,1-2.175.9,3.019,3.019,0,0,1-1.178-.234,3.078,3.078,0,0,1-1.9-2.843V141.663H3.077A3.077,3.077,0,0,1,0,138.587V15.51a3.077,3.077,0,0,1,3.077-3.077ZM80,6.279H18.462V110.894H80a15.232,15.232,0,0,1,9.231,3.157V15.51A9.231,9.231,0,0,0,80,6.279Zm86.154,0H104.615a9.231,9.231,0,0,0-9.231,9.231v98.541a15.232,15.232,0,0,1,9.231-3.157h61.538Zm12.308,12.308h-6.154V135.51h6.154Zm-12.308,98.462H104.615a9.232,9.232,0,0,0-8.664,6.154h57.895v6.154H95.384v6.154h70.769ZM89.231,135.51v-6.154H61.538v6.154ZM43.077,149.62l3.978-3.978a3.079,3.079,0,0,1,4.351,0l3.978,3.978V129.356H43.077Zm-6.154-20.264H30.769V123.2H88.664A9.232,9.232,0,0,0,80,117.048H18.461V135.51H36.923ZM6.154,135.51h6.154V18.587H6.154Zm0,0" transform="translate(0 -0.125)" fill="#157fce"/>
        <path id="패스_1044" data-name="패스 1044" d="M63.077,18.125H20v6.154H63.077Zm0,0" transform="translate(90.769 9.567)" fill="#157fce"/>
        <path id="패스_1045" data-name="패스 1045" d="M63.077,30.125H20v6.154H63.077Zm0,0" transform="translate(90.769 16.029)" fill="#157fce"/>
        <path id="패스_1046" data-name="패스 1046" d="M63.077,42.125H20v6.154H63.077Zm0,0" transform="translate(90.769 22.49)" fill="#157fce"/>
        <path id="패스_1047" data-name="패스 1047" d="M63.077,54.125H20v6.154H63.077Zm0,0" transform="translate(90.769 28.952)" fill="#157fce"/>
        <path id="패스_1048" data-name="패스 1048" d="M115.077,18.125H72v6.154h43.077Zm0,0" transform="translate(-41.231 9.567)" fill="#157fce"/>
        <path id="패스_1049" data-name="패스 1049" d="M115.077,30.125H72v6.154h43.077Zm0,0" transform="translate(-41.231 16.029)" fill="#157fce"/>
        <path id="패스_1050" data-name="패스 1050" d="M115.077,42.125H72v6.154h43.077Zm0,0" transform="translate(-41.231 22.49)" fill="#157fce"/>
        <path id="패스_1051" data-name="패스 1051" d="M115.077,54.125H72v6.154h43.077Zm0,0" transform="translate(-41.231 28.952)" fill="#157fce"/>
      </g>
    </g>
  </g>
</svg>
