<svg xmlns="http://www.w3.org/2000/svg" width="205" height="162" viewBox="0 0 205 162">
  <g id="그룹_973" data-name="그룹 973" transform="translate(-81 -320)">
    <path id="img_" d="M4,0H201a4,4,0,0,1,4,4V162a0,0,0,0,1,0,0H0a0,0,0,0,1,0,0V4A4,4,0,0,1,4,0Z" transform="translate(81 320)" fill="#f6faff"/>
    <g id="그룹_958" data-name="그룹 958" transform="translate(-522.318 210.974)">
      <path id="패스_1381" data-name="패스 1381" d="M816.265,208.154a52.939,52.939,0,1,1-52.939-52.939,52.939,52.939,0,0,1,52.939,52.939" transform="translate(-43.837 -13.19)" fill="#fff"/>
      <path id="패스_1382" data-name="패스 1382" d="M763.054,260.923a.539.539,0,0,1,0-1.078q.427,0,.853-.013h.013a.539.539,0,0,1,.012,1.078q-.435.01-.87.013Zm-3.446-.085h-.031q-.436-.025-.87-.056a.539.539,0,1,1,.079-1.075q.425.031.852.055a.539.539,0,0,1-.03,1.077Zm7.749-.121a.539.539,0,0,1-.047-1.076q.425-.038.849-.082a.539.539,0,0,1,.112,1.072q-.433.045-.867.083A.44.44,0,0,1,767.356,260.718Zm-12.037-.3a.552.552,0,0,1-.075-.005q-.432-.06-.862-.126a.539.539,0,1,1,.165-1.065q.421.065.845.124a.539.539,0,0,1-.073,1.073Zm16.31-.256a.539.539,0,0,1-.09-1.07q.422-.072.84-.15a.539.539,0,1,1,.2,1.059q-.428.08-.858.154A.543.543,0,0,1,771.629,260.165Zm-20.552-.509a.517.517,0,0,1-.117-.013q-.426-.094-.849-.2a.539.539,0,1,1,.252-1.048q.415.1.831.193a.539.539,0,0,1-.117,1.065Zm24.767-.389a.539.539,0,0,1-.134-1.061q.414-.107.825-.219a.539.539,0,0,1,.286,1.04q-.42.115-.842.223A.536.536,0,0,1,775.844,259.267Zm-28.931-.72a.531.531,0,0,1-.16-.025q-.418-.13-.833-.266a.539.539,0,0,1,.337-1.024q.406.134.816.261a.539.539,0,0,1-.16,1.054Zm33.058-.521a.539.539,0,0,1-.177-1.049q.4-.14.8-.286a.539.539,0,1,1,.369,1.012q-.408.149-.82.292A.54.54,0,0,1,779.972,258.026Zm-37.126-.93a.534.534,0,0,1-.2-.039q-.405-.164-.808-.334a.539.539,0,1,1,.42-.993q.394.167.791.327a.539.539,0,0,1-.2,1.039Zm41.133-.644a.539.539,0,0,1-.218-1.033q.389-.171.775-.349a.539.539,0,1,1,.451.979q-.394.181-.791.357A.54.54,0,0,1,783.979,256.453Zm-45.066-1.134a.535.535,0,0,1-.242-.058q-.391-.2-.777-.4a.539.539,0,0,1,.5-.955q.378.2.761.39a.539.539,0,0,1-.243,1.021Zm48.929-.76a.539.539,0,0,1-.257-1.013q.374-.2.745-.412a.539.539,0,0,1,.529.94q-.378.213-.76.42A.542.542,0,0,1,787.841,254.558Zm-52.7-1.333a.536.536,0,0,1-.28-.079q-.373-.227-.741-.46a.539.539,0,1,1,.575-.912q.362.228.727.451a.539.539,0,0,1-.281,1Zm56.4-.871a.539.539,0,0,1-.295-.991q.357-.232.71-.47a.539.539,0,0,1,.6.893q-.36.244-.724.481A.538.538,0,0,1,791.539,252.354Zm-59.988-1.522a.537.537,0,0,1-.316-.1q-.352-.257-.7-.518a.539.539,0,0,1,.648-.862q.342.257.687.508a.539.539,0,0,1-.317.975Zm63.5-.976a.539.539,0,0,1-.331-.965q.337-.262.67-.528a.539.539,0,1,1,.674.842q-.339.272-.683.538A.534.534,0,0,1,795.047,249.856Zm-66.878-1.7a.535.535,0,0,1-.351-.13q-.33-.284-.657-.573a.539.539,0,0,1,.716-.806q.32.283.643.562a.539.539,0,0,1-.352.948Zm70.173-1.076a.539.539,0,0,1-.363-.937q.315-.288.625-.58a.539.539,0,0,1,.739.784q-.317.3-.638.592A.536.536,0,0,1,798.342,247.082Zm-73.325-1.863a.537.537,0,0,1-.383-.16q-.307-.31-.607-.624a.539.539,0,1,1,.778-.746q.295.308.6.611a.539.539,0,0,1-.383.918Zm76.388-1.17a.538.538,0,0,1-.395-.906q.29-.313.577-.63a.539.539,0,1,1,.8.722q-.292.323-.588.642A.537.537,0,0,1,801.4,244.049Zm-79.292-2.013a.539.539,0,0,1-.413-.192c-.186-.222-.372-.446-.555-.671a.539.539,0,0,1,.836-.68q.269.33.543.657a.539.539,0,0,1-.412.886Zm82.1-1.258a.539.539,0,0,1-.423-.873q.264-.335.524-.675a.539.539,0,1,1,.856.655q-.264.346-.535.688A.537.537,0,0,1,804.211,240.778Zm-84.735-2.148a.537.537,0,0,1-.439-.226q-.252-.354-.5-.713a.539.539,0,0,1,.889-.61q.241.351.488.7a.539.539,0,0,1-.439.851Zm87.268-1.341a.539.539,0,0,1-.448-.838q.237-.356.468-.715a.539.539,0,1,1,.906.583q-.235.367-.477.73A.538.538,0,0,1,806.744,237.289Zm-89.619-2.267a.538.538,0,0,1-.464-.263q-.222-.373-.438-.75a.539.539,0,0,1,.935-.537q.212.37.429.736a.539.539,0,0,1-.463.814Zm91.862-1.418a.539.539,0,0,1-.472-.8q.206-.374.408-.752a.539.539,0,0,1,.952.507q-.2.385-.416.766A.539.539,0,0,1,808.987,233.6Zm-93.911-2.367a.54.54,0,0,1-.485-.3q-.19-.389-.375-.782a.539.539,0,1,1,.975-.459q.181.385.368.767a.54.54,0,0,1-.484.776Zm95.846-1.49a.539.539,0,0,1-.491-.761q.176-.39.346-.783a.539.539,0,0,1,.99.428q-.173.4-.353.8A.539.539,0,0,1,810.922,229.748ZM713.343,227.3a.539.539,0,0,1-.5-.342q-.159-.406-.311-.814a.539.539,0,0,1,1.01-.377q.149.4.305.8a.54.54,0,0,1-.5.736Zm99.193-1.557a.539.539,0,0,1-.508-.72q.144-.4.28-.809a.539.539,0,1,1,1.022.344q-.14.415-.286.827A.539.539,0,0,1,812.536,225.744Zm-100.6-2.517a.539.539,0,0,1-.516-.385q-.126-.417-.244-.837a.539.539,0,1,1,1.037-.292q.116.411.239.819a.541.541,0,0,1-.516.694Zm101.879-1.6a.531.531,0,0,1-.139-.019.539.539,0,0,1-.383-.659q.109-.412.213-.827a.539.539,0,0,1,1.046.26q-.1.423-.217.843A.539.539,0,0,1,813.815,221.625Zm-102.948-2.573a.539.539,0,0,1-.526-.427q-.091-.426-.175-.855a.539.539,0,0,1,1.059-.2c.054.279.111.558.17.835a.539.539,0,0,1-.415.639A.562.562,0,0,1,710.867,219.052Zm103.883-1.634a.527.527,0,0,1-.1-.009.539.539,0,0,1-.435-.626q.076-.418.145-.841a.539.539,0,1,1,1.063.174q-.07.43-.147.859A.539.539,0,0,1,814.751,217.418ZM710.144,214.8a.539.539,0,0,1-.534-.47q-.055-.431-.1-.865a.539.539,0,0,1,1.071-.12q.048.425.1.847a.539.539,0,0,1-.536.608Zm105.2-1.654-.053,0a.54.54,0,0,1-.484-.589q.041-.424.076-.85a.539.539,0,1,1,1.075.087c-.024.29-.049.579-.077.868A.538.538,0,0,1,815.34,213.149Zm-105.571-2.638a.54.54,0,0,1-.538-.514q-.02-.434-.034-.87a.539.539,0,0,1,.522-.555h.017a.538.538,0,0,1,.538.522q.014.427.034.853a.539.539,0,0,1-.513.564Zm105.813-1.664h-.009a.539.539,0,0,1-.53-.548q.007-.426.007-.854,0-.369,0-.738a.54.54,0,0,1,.532-.546h.007a.54.54,0,0,1,.539.532q0,.376,0,.752,0,.437-.006.871A.539.539,0,0,1,815.581,208.847ZM709.74,206.2h-.019a.539.539,0,0,1-.52-.557q.015-.436.035-.87a.539.539,0,1,1,1.077.052q-.02.426-.035.854A.539.539,0,0,1,709.74,206.2ZM815.425,203.8a.54.54,0,0,1-.537-.5q-.034-.426-.074-.851a.539.539,0,1,1,1.073-.1q.041.433.075.867a.539.539,0,0,1-.495.58ZM710.056,201.9a.617.617,0,0,1-.062,0,.54.54,0,0,1-.474-.6q.05-.433.106-.864a.545.545,0,0,1,.6-.465.539.539,0,0,1,.465.6q-.055.423-.1.848A.54.54,0,0,1,710.056,201.9Zm104.858-2.387a.539.539,0,0,1-.532-.453c-.045-.282-.092-.562-.142-.842a.539.539,0,1,1,1.061-.188q.076.427.146.858a.539.539,0,0,1-.533.625ZM710.72,197.647a.52.52,0,0,1-.106-.011.539.539,0,0,1-.424-.633q.085-.428.176-.852a.539.539,0,1,1,1.054.226q-.089.417-.173.836A.539.539,0,0,1,710.72,197.647Zm103.337-2.352a.538.538,0,0,1-.523-.411q-.1-.414-.211-.826a.539.539,0,1,1,1.042-.275q.111.421.215.845a.538.538,0,0,1-.4.652A.527.527,0,0,1,814.057,195.295Zm-102.329-1.837a.529.529,0,0,1-.147-.021.539.539,0,0,1-.371-.666q.12-.42.246-.836a.539.539,0,0,1,1.031.313q-.124.408-.24.818A.54.54,0,0,1,711.728,193.457Zm101.129-2.3a.539.539,0,0,1-.51-.367q-.137-.406-.279-.808a.539.539,0,0,1,1.017-.359q.144.41.283.823a.539.539,0,0,1-.339.683A.533.533,0,0,1,812.857,191.156Zm-99.777-1.8a.539.539,0,0,1-.5-.729q.154-.409.315-.816a.539.539,0,1,1,1,.4q-.157.4-.308.8A.539.539,0,0,1,713.08,189.359Zm98.244-2.225a.54.54,0,0,1-.5-.327q-.167-.391-.341-.778a.539.539,0,1,1,.984-.441q.177.4.348.795a.539.539,0,0,1-.495.751Zm-96.561-1.75a.539.539,0,0,1-.486-.77q.187-.395.379-.786a.539.539,0,1,1,.967.476q-.189.384-.372.771A.539.539,0,0,1,714.762,185.384Zm94.705-2.131a.539.539,0,0,1-.476-.287q-.2-.376-.4-.749a.539.539,0,1,1,.944-.52q.209.38.413.764a.54.54,0,0,1-.476.792Zm-92.7-1.691a.539.539,0,0,1-.466-.808q.219-.378.442-.752a.539.539,0,1,1,.925.554q-.219.367-.433.737A.539.539,0,0,1,716.765,181.562Zm90.536-2.028a.539.539,0,0,1-.455-.249q-.23-.359-.464-.714a.539.539,0,1,1,.9-.6q.24.362.474.729a.539.539,0,0,1-.454.829Zm-88.229-1.617a.539.539,0,0,1-.443-.846q.248-.359.5-.713a.539.539,0,0,1,.877.627q-.248.347-.492.7A.537.537,0,0,1,719.072,177.917ZM804.838,176a.539.539,0,0,1-.43-.213q-.258-.34-.521-.674a.539.539,0,1,1,.848-.666q.268.341.532.689a.539.539,0,0,1-.429.865Zm-83.173-1.529a.539.539,0,0,1-.417-.88q.276-.337.558-.67a.539.539,0,0,1,.823.7q-.276.326-.547.656A.537.537,0,0,1,721.665,174.472Zm80.43-1.793a.538.538,0,0,1-.4-.179q-.286-.318-.575-.631a.539.539,0,0,1,.792-.732q.295.319.586.643a.539.539,0,0,1-.4.9Zm-77.566-1.429a.539.539,0,0,1-.388-.913q.3-.313.61-.621a.539.539,0,1,1,.764.76q-.3.3-.6.61A.537.537,0,0,1,724.529,171.25Zm74.564-1.662a.535.535,0,0,1-.371-.148q-.309-.294-.624-.583a.539.539,0,1,1,.729-.793q.321.294.637.595a.539.539,0,0,1-.371.93Zm-71.45-1.317a.539.539,0,0,1-.357-.943q.326-.288.658-.57a.539.539,0,1,1,.7.82q-.325.277-.644.558A.538.538,0,0,1,727.643,168.271Zm68.206-1.522a.538.538,0,0,1-.338-.119q-.332-.268-.669-.53a.539.539,0,1,1,.663-.85q.343.268.683.542a.539.539,0,0,1-.339.958Zm-64.862-1.194a.539.539,0,0,1-.323-.971q.348-.261.7-.515a.539.539,0,1,1,.632.873q-.345.25-.687.505A.538.538,0,0,1,730.987,165.554Zm61.4-1.373a.538.538,0,0,1-.3-.093q-.353-.24-.711-.475a.539.539,0,0,1,.592-.9q.364.239.725.484a.539.539,0,0,1-.3.985Zm-57.846-1.062a.539.539,0,0,1-.287-1q.367-.231.739-.456a.539.539,0,0,1,.559.921q-.364.221-.725.448A.538.538,0,0,1,734.538,163.118Zm54.185-1.216a.533.533,0,0,1-.266-.07q-.372-.211-.747-.416a.539.539,0,0,1,.515-.946q.384.209.764.425a.539.539,0,0,1-.266,1.008Zm-50.449-.923a.539.539,0,0,1-.249-1.018q.386-.2.774-.394a.539.539,0,1,1,.481.965q-.382.19-.758.386A.54.54,0,0,1,738.274,160.98Zm46.612-1.05a.539.539,0,0,1-.226-.05q-.388-.18-.779-.354a.539.539,0,0,1,.438-.985q.4.178.8.361a.539.539,0,0,1-.228,1.028Zm-42.716-.776a.539.539,0,0,1-.209-1.036q.4-.168.8-.329a.539.539,0,0,1,.4,1q-.4.158-.786.322A.539.539,0,0,1,742.169,159.153Zm38.729-.877a.536.536,0,0,1-.185-.033q-.4-.148-.807-.289a.539.539,0,1,1,.355-1.018q.412.144.823.295a.539.539,0,0,1-.186,1.045Zm-34.7-.626a.539.539,0,0,1-.167-1.052q.413-.135.83-.263a.539.539,0,0,1,.318,1.03q-.408.126-.814.258A.54.54,0,0,1,746.2,157.65Zm30.59-.693a.532.532,0,0,1-.144-.019q-.412-.114-.825-.221a.539.539,0,1,1,.27-1.043q.422.109.841.225a.539.539,0,0,1-.143,1.059Zm-26.442-.475a.539.539,0,0,1-.125-1.063q.424-.1.85-.195a.539.539,0,0,1,.232,1.053q-.417.092-.831.19A.528.528,0,0,1,750.352,156.482Zm22.244-.5a.546.546,0,0,1-.1-.009q-.418-.08-.839-.153a.539.539,0,1,1,.183-1.062q.43.074.858.156a.539.539,0,0,1-.1,1.068Zm-18.016-.323a.539.539,0,0,1-.08-1.072c.286-.044.574-.085.861-.124a.539.539,0,0,1,.147,1.068q-.424.058-.845.122A.53.53,0,0,1,754.58,155.657Zm13.754-.309a.527.527,0,0,1-.058,0q-.424-.045-.849-.084a.539.539,0,1,1,.1-1.074c.29.026.578.055.867.086a.539.539,0,0,1-.056,1.074Zm-9.471-.168a.539.539,0,0,1-.038-1.077q.434-.031.869-.054a.539.539,0,1,1,.059,1.076q-.426.023-.852.053Zm5.171-.116h-.015q-.426-.012-.853-.016a.539.539,0,0,1-.534-.544.531.531,0,0,1,.544-.534q.436,0,.871.016a.539.539,0,0,1-.014,1.078Z" transform="translate(-43.161 -12.482)" fill="#97a7b7"/>
      <path id="패스_1383" data-name="패스 1383" d="M676.835,157.792a.54.54,0,0,1-.477-.791l10.191-19.331a.539.539,0,0,1,.889-.1l9.82,11.647,9.777-9.356a.538.538,0,0,1,.5-.134l10.191,2.508a.539.539,0,0,1-.258,1.047l-9.9-2.437-9.977,9.548a.529.529,0,0,1-.4.149.539.539,0,0,1-.384-.191L687.13,138.88,677.312,157.5A.538.538,0,0,1,676.835,157.792Z" transform="translate(-24.447 -3.046)" fill="#3e5672"/>
      <path id="패스_1384" data-name="패스 1384" d="M676.81,180.419a2.309,2.309,0,1,1-2.309-2.309,2.309,2.309,0,0,1,2.309,2.309" transform="translate(-22.111 -26.214)" fill="#fff"/>
      <path id="패스_1385" data-name="패스 1385" d="M673.789,182.557a2.848,2.848,0,1,1,2.848-2.848A2.851,2.851,0,0,1,673.789,182.557Zm0-4.619a1.77,1.77,0,1,0,1.77,1.77A1.772,1.772,0,0,0,673.789,177.938Z" transform="translate(-21.4 -25.503)" fill="#3e5672"/>
      <path id="패스_1386" data-name="패스 1386" d="M700.445,135.585a2.31,2.31,0,1,1-2.309-2.309,2.309,2.309,0,0,1,2.309,2.309" transform="translate(-35.555 -0.711)" fill="#fff"/>
      <path id="패스_1387" data-name="패스 1387" d="M697.425,137.723a2.848,2.848,0,1,1,2.848-2.848A2.852,2.852,0,0,1,697.425,137.723Zm0-4.619a1.77,1.77,0,1,0,1.77,1.77A1.773,1.773,0,0,0,697.425,133.1Z" transform="translate(-34.844)" fill="#3e5672"/>
      <path id="패스_1388" data-name="패스 1388" d="M724.081,163.615a2.309,2.309,0,1,1-2.309-2.309,2.309,2.309,0,0,1,2.309,2.309" transform="translate(-49 -16.655)" fill="#fff"/>
      <path id="패스_1389" data-name="패스 1389" d="M721.06,165.753a2.848,2.848,0,1,1,2.848-2.848A2.852,2.852,0,0,1,721.06,165.753Zm0-4.619a1.77,1.77,0,1,0,1.77,1.77A1.772,1.772,0,0,0,721.06,161.134Z" transform="translate(-48.289 -15.944)" fill="#3e5672"/>
      <path id="패스_1390" data-name="패스 1390" d="M747.716,141a2.31,2.31,0,1,1-2.309-2.309A2.31,2.31,0,0,1,747.716,141" transform="translate(-62.444 -3.789)" fill="#fff"/>
      <path id="패스_1391" data-name="패스 1391" d="M744.7,143.134a2.848,2.848,0,1,1,2.848-2.848A2.852,2.852,0,0,1,744.7,143.134Zm0-4.619a1.77,1.77,0,1,0,1.77,1.77A1.773,1.773,0,0,0,744.7,138.515Z" transform="translate(-61.733 -3.078)" fill="#3e5672"/>
      <path id="패스_1392" data-name="패스 1392" d="M771.352,146.812a2.31,2.31,0,1,1-2.309-2.309,2.309,2.309,0,0,1,2.309,2.309" transform="translate(-75.889 -7.097)" fill="#fff"/>
      <path id="패스_1393" data-name="패스 1393" d="M768.331,148.95a2.848,2.848,0,1,1,2.848-2.848A2.852,2.852,0,0,1,768.331,148.95Zm0-4.619a1.77,1.77,0,1,0,1.77,1.77A1.773,1.773,0,0,0,768.331,144.331Z" transform="translate(-75.177 -6.386)" fill="#3e5672"/>
      <rect id="사각형_1140" data-name="사각형 1140" width="6.45" height="25.786" transform="translate(649.164 165.327)" fill="#eef7ff"/>
      <path id="패스_1394" data-name="패스 1394" d="M675.807,234.872h-6.45a.539.539,0,0,1-.539-.539V208.547a.539.539,0,0,1,.539-.539h6.45a.539.539,0,0,1,.539.539v25.786A.539.539,0,0,1,675.807,234.872Zm-5.911-1.078h5.372V209.086H669.9Z" transform="translate(-20.193 -43.22)" fill="#97a7b7"/>
      <rect id="사각형_1141" data-name="사각형 1141" width="6.45" height="45.117" transform="translate(659.355 145.995)" fill="#eef7ff"/>
      <path id="패스_1395" data-name="패스 1395" d="M699.442,209.369h-6.45a.539.539,0,0,1-.539-.539V163.713a.539.539,0,0,1,.539-.539h6.45a.539.539,0,0,1,.539.539V208.83A.539.539,0,0,1,699.442,209.369Zm-5.911-1.078H698.9V164.252h-5.372Z" transform="translate(-33.637 -17.718)" fill="#97a7b7"/>
      <rect id="사각형_1142" data-name="사각형 1142" width="6.45" height="33.031" transform="translate(669.547 158.082)" fill="#eef7ff"/>
      <path id="패스_1396" data-name="패스 1396" d="M723.078,225.314h-6.45a.539.539,0,0,1-.539-.539V191.744a.539.539,0,0,1,.539-.539h6.45a.539.539,0,0,1,.539.539v33.031A.539.539,0,0,1,723.078,225.314Zm-5.911-1.078h5.372V192.283h-5.372Z" transform="translate(-47.081 -33.662)" fill="#97a7b7"/>
      <rect id="사각형_1143" data-name="사각형 1143" width="6.45" height="42.785" transform="translate(679.737 148.328)" fill="#eef7ff"/>
      <path id="패스_1397" data-name="패스 1397" d="M746.713,212.447h-6.45a.539.539,0,0,1-.539-.539V169.123a.539.539,0,0,1,.539-.539h6.45a.539.539,0,0,1,.539.539v42.785A.539.539,0,0,1,746.713,212.447Zm-5.911-1.078h5.372V169.662H740.8Z" transform="translate(-60.525 -20.795)" fill="#97a7b7"/>
      <rect id="사각형_1144" data-name="사각형 1144" width="6.45" height="40.276" transform="translate(689.929 150.836)" fill="#eef7ff"/>
      <path id="패스_1398" data-name="패스 1398" d="M770.349,215.755H763.9a.539.539,0,0,1-.539-.539V174.94a.539.539,0,0,1,.539-.539h6.45a.539.539,0,0,1,.539.539v40.276A.539.539,0,0,1,770.349,215.755Zm-5.911-1.078h5.372v-39.2h-5.372Z" transform="translate(-73.97 -24.104)" fill="#97a7b7"/>
      <path id="패스_1399" data-name="패스 1399" d="M688.428,264.679A23.531,23.531,0,1,1,664.9,241.148a23.531,23.531,0,0,1,23.531,23.531" transform="translate(-4.577 -62.071)" fill="#fff"/>
      <path id="패스_1400" data-name="패스 1400" d="M664.186,288.038a24.07,24.07,0,1,1,24.071-24.07A24.1,24.1,0,0,1,664.186,288.038Zm0-47.061a22.992,22.992,0,1,0,22.993,22.991A23.018,23.018,0,0,0,664.186,240.977Z" transform="translate(-3.866 -61.36)" fill="#97a7b7"/>
      <path id="패스_1401" data-name="패스 1401" d="M689.677,269.837a19.621,19.621,0,1,1-19.621-19.621,19.621,19.621,0,0,1,19.621,19.621" transform="translate(-9.736 -67.229)" fill="#fff"/>
      <path id="패스_1402" data-name="패스 1402" d="M669.345,289.286a20.16,20.16,0,1,1,20.16-20.16A20.182,20.182,0,0,1,669.345,289.286Zm0-39.241a19.082,19.082,0,1,0,19.082,19.081A19.1,19.1,0,0,0,669.345,250.045Z" transform="translate(-9.025 -66.519)" fill="#97a7b7"/>
      <line id="선_259" data-name="선 259" y2="2.533" transform="translate(660.32 182.987)" fill="#fff"/>
      <path id="패스_1403" data-name="패스 1403" d="M695.228,252.578a.539.539,0,0,1-.539-.539v-2.533a.539.539,0,1,1,1.078,0v2.533A.539.539,0,0,1,695.228,252.578Z" transform="translate(-34.909 -66.519)" fill="#97a7b7"/>
      <line id="선_260" data-name="선 260" x2="1.266" y2="2.193" transform="translate(650.509 185.616)" fill="#fff"/>
      <path id="패스_1404" data-name="패스 1404" d="M673.743,258.334a.539.539,0,0,1-.467-.27l-1.266-2.193a.539.539,0,0,1,.934-.539l1.266,2.193a.539.539,0,0,1-.467.809Z" transform="translate(-21.967 -69.986)" fill="#97a7b7"/>
      <line id="선_261" data-name="선 261" x2="2.193" y2="1.266" transform="translate(643.328 192.798)" fill="#fff"/>
      <path id="패스_1405" data-name="패스 1405" d="M658.013,274.063a.54.54,0,0,1-.269-.072l-2.193-1.266a.539.539,0,0,1,.539-.934l2.193,1.266a.539.539,0,0,1-.27,1.006Z" transform="translate(-12.493 -79.46)" fill="#97a7b7"/>
      <line id="선_262" data-name="선 262" x2="2.533" transform="translate(640.699 202.608)" fill="#fff"/>
      <path id="패스_1406" data-name="패스 1406" d="M652.257,295.549h-2.533a.539.539,0,1,1,0-1.078h2.533a.539.539,0,1,1,0,1.078Z" transform="translate(-9.025 -92.402)" fill="#97a7b7"/>
      <line id="선_263" data-name="선 263" y1="1.266" x2="2.193" transform="translate(643.328 211.152)" fill="#fff"/>
      <path id="패스_1407" data-name="패스 1407" d="M655.82,316.631a.539.539,0,0,1-.27-1.006l2.193-1.266a.539.539,0,1,1,.539.934l-2.193,1.266A.535.535,0,0,1,655.82,316.631Z" transform="translate(-12.493 -103.674)" fill="#97a7b7"/>
      <line id="선_264" data-name="선 264" x1="4.706" y2="8.151" transform="translate(655.614 202.608)" fill="#fff"/>
      <path id="패스_1408" data-name="패스 1408" d="M684.314,303.7a.539.539,0,0,1-.466-.808l4.705-8.151a.539.539,0,0,1,.934.539l-4.705,8.151A.539.539,0,0,1,684.314,303.7Z" transform="translate(-28.701 -92.402)" fill="#97a7b7"/>
      <line id="선_265" data-name="선 265" y1="2.193" x2="1.266" transform="translate(650.509 217.407)" fill="#fff"/>
      <path id="패스_1409" data-name="패스 1409" d="M672.476,332.064a.539.539,0,0,1-.467-.808l1.266-2.193a.539.539,0,0,1,.934.539l-1.266,2.193A.54.54,0,0,1,672.476,332.064Z" transform="translate(-21.967 -111.925)" fill="#97a7b7"/>
      <line id="선_266" data-name="선 266" y1="2.533" transform="translate(660.32 219.696)" fill="#fff"/>
      <path id="패스_1410" data-name="패스 1410" d="M695.228,337.713a.539.539,0,0,1-.539-.539v-2.533a.539.539,0,1,1,1.078,0v2.533A.539.539,0,0,1,695.228,337.713Z" transform="translate(-34.909 -114.945)" fill="#97a7b7"/>
      <line id="선_267" data-name="선 267" x1="1.266" y1="2.193" transform="translate(668.864 217.407)" fill="#fff"/>
      <path id="패스_1411" data-name="패스 1411" d="M716.311,332.064a.539.539,0,0,1-.467-.27l-1.266-2.193a.539.539,0,1,1,.933-.539l1.266,2.193a.539.539,0,0,1-.466.808Z" transform="translate(-46.18 -111.925)" fill="#97a7b7"/>
      <line id="선_268" data-name="선 268" x1="2.193" y1="1.266" transform="translate(675.118 211.152)" fill="#fff"/>
      <path id="패스_1412" data-name="패스 1412" d="M731.744,316.631a.535.535,0,0,1-.269-.072l-2.193-1.266a.539.539,0,1,1,.539-.934l2.193,1.266a.539.539,0,0,1-.27,1.006Z" transform="translate(-54.432 -103.674)" fill="#97a7b7"/>
      <line id="선_269" data-name="선 269" x1="2.533" transform="translate(677.407 202.608)" fill="#fff"/>
      <path id="패스_1413" data-name="패스 1413" d="M737.392,295.549h-2.533a.539.539,0,0,1,0-1.078h2.533a.539.539,0,1,1,0,1.078Z" transform="translate(-57.452 -92.402)" fill="#97a7b7"/>
      <line id="선_270" data-name="선 270" x1="2.193" y2="1.266" transform="translate(675.118 192.798)" fill="#fff"/>
      <path id="패스_1414" data-name="패스 1414" d="M729.551,274.063a.539.539,0,0,1-.27-1.006l2.193-1.266a.539.539,0,1,1,.539.934l-2.193,1.266A.541.541,0,0,1,729.551,274.063Z" transform="translate(-54.432 -79.46)" fill="#97a7b7"/>
      <line id="선_271" data-name="선 271" x1="1.266" y2="2.193" transform="translate(668.864 185.616)" fill="#fff"/>
      <path id="패스_1415" data-name="패스 1415" d="M715.043,258.334a.539.539,0,0,1-.466-.809l1.266-2.193a.539.539,0,0,1,.933.539l-1.266,2.193A.538.538,0,0,1,715.043,258.334Z" transform="translate(-46.18 -69.986)" fill="#97a7b7"/>
      <line id="선_272" data-name="선 272" y1="12.479" transform="translate(660.32 189.661)" fill="#fff"/>
      <path id="패스_1416" data-name="패스 1416" d="M695.228,278a.539.539,0,0,1-.539-.539V264.983a.539.539,0,1,1,1.078,0v12.479A.539.539,0,0,1,695.228,278Z" transform="translate(-34.909 -75.322)" fill="#97a7b7"/>
      <path id="패스_1417" data-name="패스 1417" d="M695.386,293.428a1.738,1.738,0,1,1-1.738-1.738,1.738,1.738,0,0,1,1.738,1.738" transform="translate(-33.327 -90.82)" fill="#fff"/>
      <path id="패스_1418" data-name="패스 1418" d="M692.935,295a2.277,2.277,0,1,1,2.278-2.278A2.28,2.28,0,0,1,692.935,295Zm0-3.477a1.2,1.2,0,1,0,1.2,1.2A1.2,1.2,0,0,0,692.935,291.519Z" transform="translate(-32.616 -90.11)" fill="#97a7b7"/>
      <path id="패스_1419" data-name="패스 1419" d="M937.312,311.408a5.356,5.356,0,1,1-5.356-5.356,5.356,5.356,0,0,1,5.356,5.356" transform="translate(-166.824 -98.99)" fill="#fff"/>
      <path id="패스_1420" data-name="패스 1420" d="M938.4,315.926a1.931,1.931,0,1,1-1.931-1.931,1.931,1.931,0,0,1,1.931,1.931" transform="translate(-171.342 -103.508)" fill="#fff"/>
      <path id="패스_1421" data-name="패스 1421" d="M935.762,317.685a2.47,2.47,0,1,1,2.47-2.47A2.473,2.473,0,0,1,935.762,317.685Zm0-3.862a1.392,1.392,0,1,0,1.392,1.392A1.394,1.394,0,0,0,935.762,313.823Z" transform="translate(-170.631 -102.797)" fill="#3e5672"/>
      <path id="패스_1422" data-name="패스 1422" d="M946.066,226.235a8.388,8.388,0,1,1-8.388-8.388,8.388,8.388,0,0,1,8.388,8.388" transform="translate(-168.355 -48.817)" fill="#fff"/>
      <line id="선_273" data-name="선 273" y1="2.777" transform="translate(769.323 171.838)" fill="#fff"/>
      <path id="패스_1423" data-name="패스 1423" d="M948.032,226.963a.539.539,0,0,1-.539-.539v-2.777a.539.539,0,1,1,1.078,0v2.777A.539.539,0,0,1,948.032,226.963Z" transform="translate(-178.709 -51.809)" fill="#3e5672"/>
      <line id="선_274" data-name="선 274" x1="1.964" y1="1.964" transform="translate(765.377 173.472)" fill="#fff"/>
      <path id="패스_1424" data-name="패스 1424" d="M940.844,229.94a.536.536,0,0,1-.381-.158l-1.964-1.964a.539.539,0,1,1,.762-.762l1.964,1.964a.539.539,0,0,1-.381.92Z" transform="translate(-173.504 -53.965)" fill="#3e5672"/>
      <line id="선_275" data-name="선 275" x1="2.778" transform="translate(763.743 177.418)" fill="#fff"/>
      <path id="패스_1425" data-name="패스 1425" d="M937.867,237.128H935.09a.539.539,0,1,1,0-1.078h2.777a.539.539,0,0,1,0,1.078Z" transform="translate(-171.347 -59.171)" fill="#3e5672"/>
      <line id="선_276" data-name="선 276" x1="1.964" y2="1.964" transform="translate(765.377 179.4)" fill="#fff"/>
      <path id="패스_1426" data-name="패스 1426" d="M938.881,243.689a.539.539,0,0,1-.381-.92l1.964-1.964a.539.539,0,1,1,.762.762l-1.964,1.964A.538.538,0,0,1,938.881,243.689Z" transform="translate(-173.504 -61.786)" fill="#3e5672"/>
      <line id="선_277" data-name="선 277" y2="2.778" transform="translate(769.323 180.221)" fill="#fff"/>
      <path id="패스_1427" data-name="패스 1427" d="M948.032,246.407a.539.539,0,0,1-.539-.539V243.09a.539.539,0,1,1,1.078,0v2.778A.539.539,0,0,1,948.032,246.407Z" transform="translate(-178.709 -62.869)" fill="#3e5672"/>
      <line id="선_278" data-name="선 278" x2="1.964" y2="1.964" transform="translate(771.305 179.4)" fill="#fff"/>
      <path id="패스_1428" data-name="패스 1428" d="M954.594,243.689a.536.536,0,0,1-.381-.158l-1.965-1.964a.539.539,0,1,1,.762-.762l1.964,1.964a.539.539,0,0,1-.381.92Z" transform="translate(-181.324 -61.786)" fill="#3e5672"/>
      <line id="선_279" data-name="선 279" x2="2.777" transform="translate(772.126 177.418)" fill="#fff"/>
      <path id="패스_1429" data-name="패스 1429" d="M957.311,237.128h-2.778a.539.539,0,1,1,0-1.078h2.778a.539.539,0,1,1,0,1.078Z" transform="translate(-182.407 -59.171)" fill="#3e5672"/>
      <line id="선_280" data-name="선 280" y1="1.964" x2="1.964" transform="translate(771.305 173.472)" fill="#fff"/>
      <path id="패스_1430" data-name="패스 1430" d="M952.629,229.94a.539.539,0,0,1-.381-.92l1.965-1.964a.539.539,0,1,1,.762.762l-1.964,1.964A.538.538,0,0,1,952.629,229.94Z" transform="translate(-181.324 -53.965)" fill="#3e5672"/>
      <rect id="사각형_1145" data-name="사각형 1145" width="81.849" height="58.204" transform="translate(674.685 171.577)" fill="#fff"/>
      <path id="패스_1431" data-name="패스 1431" d="M810.393,281.785H728.544a.539.539,0,0,1-.539-.539v-58.2a.539.539,0,0,1,.539-.539h81.849a.539.539,0,0,1,.539.539v58.2A.539.539,0,0,1,810.393,281.785Zm-81.31-1.078h80.771V223.582H729.083Z" transform="translate(-53.859 -51.466)" fill="#3e5672"/>
      <rect id="사각형_1146" data-name="사각형 1146" width="73.509" height="49.863" transform="translate(678.855 175.748)" fill="#cee6fe"/>
      <path id="패스_1432" data-name="패스 1432" d="M811.726,283.117H738.217a.539.539,0,0,1-.539-.539V232.715a.539.539,0,0,1,.539-.539h73.509a.539.539,0,0,1,.539.539v49.863A.539.539,0,0,1,811.726,283.117Zm-72.97-1.078h72.431V233.254H738.756Z" transform="translate(-59.362 -56.967)" fill="#3e5672"/>
      <path id="패스_1433" data-name="패스 1433" d="M804.525,364.439H710.316a3.493,3.493,0,0,1-3.492-3.493v-2.2H808.017v2.2a3.492,3.492,0,0,1-3.493,3.493" transform="translate(-41.811 -128.961)" fill="#fff"/>
      <path id="패스_1434" data-name="패스 1434" d="M803.814,364.267H709.6a4.036,4.036,0,0,1-4.031-4.032v-2.2a.539.539,0,0,1,.539-.539H807.306a.539.539,0,0,1,.539.539v2.2A4.036,4.036,0,0,1,803.814,364.267Zm-97.163-5.7v1.665a2.957,2.957,0,0,0,2.954,2.954h94.209a2.957,2.957,0,0,0,2.954-2.954V358.57Z" transform="translate(-41.1 -128.25)" fill="#3e5672"/>
      <rect id="사각형_1147" data-name="사각형 1147" width="22.692" height="2.696" transform="translate(704.263 229.933)" fill="#fff"/>
      <path id="패스_1435" data-name="패스 1435" d="M819.836,361.619H797.144a.539.539,0,0,1-.539-.539v-2.7a.539.539,0,0,1,.539-.539h22.692a.539.539,0,0,1,.539.539v2.7A.539.539,0,0,1,819.836,361.619Zm-22.153-1.078H819.3v-1.618H797.683Z" transform="translate(-92.881 -128.451)" fill="#3e5672"/>
      <rect id="사각형_1148" data-name="사각형 1148" width="0.001" height="0.001" transform="translate(715.609 185.933)" fill="#fff"/>
      <path id="패스_1436" data-name="패스 1436" d="M855.372,305.379,844.5,300.5l4.88,10.873,2.259-2.259,5,5,1.476-1.476-5-5Z" transform="translate(-120.123 -95.831)" fill="#fff"/>
      <g id="그룹_956" data-name="그룹 956" transform="translate(699.974 181.127)">
        <g id="그룹_955" data-name="그룹 955">
          <rect id="사각형_1149" data-name="사각형 1149" width="31.045" height="35.947" transform="translate(0.539 0.539)" fill="#fff"/>
          <path id="패스_1437" data-name="패스 1437" d="M819.492,282.927H788.447a.539.539,0,0,1-.539-.539V246.441a.539.539,0,0,1,.539-.539h31.045a.539.539,0,0,1,.539.539v35.947A.539.539,0,0,1,819.492,282.927Zm-30.506-1.078h29.967V246.98H788.986Z" transform="translate(-787.908 -245.902)" fill="#3e5672"/>
        </g>
        <rect id="사각형_1150" data-name="사각형 1150" width="23" height="1.35" rx="0.675" transform="translate(4.562 5.447)" fill="#3e5672"/>
        <rect id="사각형_1151" data-name="사각형 1151" width="23" height="1.35" rx="0.675" transform="translate(4.562 10.144)" fill="#3e5672"/>
        <rect id="사각형_1152" data-name="사각형 1152" width="23" height="1.35" rx="0.675" transform="translate(4.562 14.842)" fill="#3e5672"/>
        <rect id="사각형_1153" data-name="사각형 1153" width="23" height="1.35" rx="0.675" transform="translate(4.562 19.539)" fill="#3e5672"/>
        <rect id="사각형_1154" data-name="사각형 1154" width="23" height="1.35" rx="0.675" transform="translate(4.562 24.237)" fill="#3e5672"/>
      </g>
      <g id="그룹_957" data-name="그룹 957" transform="translate(723.836 204.129)">
        <path id="패스_1438" data-name="패스 1438" d="M855.372,305.379,844.5,300.5l4.88,10.873,2.259-2.259,5,5,1.476-1.476-5-5Z" transform="translate(-843.959 -299.961)" fill="#fff"/>
        <path id="패스_1439" data-name="패스 1439" d="M855.923,313.939a.535.535,0,0,1-.381-.158l-4.616-4.616-1.878,1.878a.539.539,0,0,1-.873-.16l-4.88-10.873a.539.539,0,0,1,.713-.712l10.874,4.879a.539.539,0,0,1,.16.873l-1.878,1.879,4.616,4.616a.539.539,0,0,1,0,.762l-1.476,1.475A.535.535,0,0,1,855.923,313.939Zm-5-6.075a.536.536,0,0,1,.381.158l4.617,4.616.714-.713-4.616-4.616a.538.538,0,0,1,0-.762l1.706-1.707-8.868-3.979,3.98,8.868,1.706-1.706A.536.536,0,0,1,850.926,307.865Z" transform="translate(-843.248 -299.25)" fill="#fc5d5b"/>
      </g>
      <path id="패스_1440" data-name="패스 1440" d="M795.282,202.862v12.186c0,1.75,5.851,3.168,13.068,3.168s13.068-1.418,13.068-3.168V202.862Z" transform="translate(-92.128 -40.293)" fill="#fff"/>
      <path id="패스_1441" data-name="패스 1441" d="M807.639,218.044c-6.762,0-13.607-1.273-13.607-3.707V202.151a.539.539,0,0,1,.539-.539h26.135a.539.539,0,0,1,.539.539v12.186C821.245,216.771,814.4,218.044,807.639,218.044ZM795.11,202.69v11.647c0,.918,4.3,2.629,12.529,2.629s12.529-1.711,12.529-2.629V202.69Z" transform="translate(-91.417 -39.582)" fill="#3e5672"/>
      <path id="패스_1442" data-name="패스 1442" d="M818.029,185.562l-23.7,8.594-23.7-8.594,23.7-8.594Z" transform="translate(-78.104 -25.564)" fill="#fff"/>
      <path id="패스_1443" data-name="패스 1443" d="M793.617,193.984a.547.547,0,0,1-.184-.032l-23.7-8.595a.539.539,0,0,1,0-1.013l23.7-8.594a.538.538,0,0,1,.367,0l23.7,8.594a.539.539,0,0,1,0,1.013l-23.7,8.595A.549.549,0,0,1,793.617,193.984Zm-22.12-9.133,22.12,8.021,22.12-8.021-22.12-8.021Z" transform="translate(-77.393 -24.853)" fill="#3e5672"/>
      <path id="패스_1444" data-name="패스 1444" d="M824.569,195.183c0,.718-1.437,1.3-3.211,1.3s-3.211-.583-3.211-1.3,1.438-1.3,3.211-1.3,3.211.583,3.211,1.3" transform="translate(-105.135 -35.185)" fill="#fff"/>
      <path id="패스_1445" data-name="패스 1445" d="M820.648,196.312c-1.864,0-3.75-.632-3.75-1.84s1.886-1.84,3.75-1.84,3.749.632,3.749,1.84S822.511,196.312,820.648,196.312Zm0-2.6c-1.72,0-2.659.567-2.672.762.016.2.958.762,2.672.762s2.656-.566,2.671-.762C823.307,194.277,822.369,193.71,820.648,193.71Z" transform="translate(-104.424 -34.474)" fill="#3e5672"/>
      <line id="선_281" data-name="선 281" y2="18.141" transform="translate(692.791 160.095)" fill="#fff"/>
      <path id="패스_1446" data-name="패스 1446" d="M770.536,215.094a.539.539,0,0,1-.539-.539V196.414a.539.539,0,1,1,1.078,0v18.141A.539.539,0,0,1,770.536,215.094Z" transform="translate(-77.745 -36.319)" fill="#3e5672"/>
      <path id="패스_1447" data-name="패스 1447" d="M770.769,240.7a1.5,1.5,0,1,1-1.5-1.5,1.5,1.5,0,0,1,1.5,1.5" transform="translate(-76.48 -60.961)" fill="#fff"/>
      <path id="패스_1448" data-name="패스 1448" d="M768.559,242.022a2.037,2.037,0,1,1,2.037-2.037A2.04,2.04,0,0,1,768.559,242.022Zm0-3a.959.959,0,1,0,.959.959A.961.961,0,0,0,768.559,239.025Z" transform="translate(-75.768 -60.25)" fill="#3e5672"/>
      <path id="패스_1449" data-name="패스 1449" d="M769.27,246.193a1.5,1.5,0,0,0-1.5,1.5v5.06h3v-5.06a1.5,1.5,0,0,0-1.5-1.5" transform="translate(-76.48 -64.941)" fill="#fff"/>
      <path id="패스_1450" data-name="패스 1450" d="M770.057,252.58h-3a.539.539,0,0,1-.539-.539v-5.06a2.038,2.038,0,0,1,4.075,0v5.06A.539.539,0,0,1,770.057,252.58ZM767.6,251.5h1.919V246.98a.96.96,0,0,0-1.919,0Z" transform="translate(-75.768 -64.23)" fill="#3e5672"/>
      <path id="패스_1451" data-name="패스 1451" d="M926.27,189.809a4.258,4.258,0,0,1-.345,1.685H894.387a3.152,3.152,0,0,1-.019-.328,3,3,0,0,1,3.014-2.988,3.3,3.3,0,0,1,.43.033,5.681,5.681,0,0,1,5.694-5.379,5.816,5.816,0,0,1,1.759.276,7.952,7.952,0,0,1,15.188,2.605,4.31,4.31,0,0,1,1.436-.247,4.36,4.36,0,0,1,4.38,4.342" transform="translate(-148.49 -26.378)" fill="#cee6fe"/>
      <path id="패스_1452" data-name="패스 1452" d="M925.214,191.322H893.676a.539.539,0,0,1-.536-.484,3.747,3.747,0,0,1-.022-.383,3.544,3.544,0,0,1,3.5-3.526,6.22,6.22,0,0,1,6.181-5.347,6.307,6.307,0,0,1,1.468.175,8.5,8.5,0,0,1,15.945,2.558,4.823,4.823,0,0,1,.971-.1A4.906,4.906,0,0,1,926.1,189.1a4.779,4.779,0,0,1-.389,1.9A.539.539,0,0,1,925.214,191.322Zm-31.008-1.078h30.635a3.715,3.715,0,0,0,.179-1.146,3.826,3.826,0,0,0-3.841-3.8,3.77,3.77,0,0,0-1.257.216.54.54,0,0,1-.717-.47,7.413,7.413,0,0,0-14.157-2.425.539.539,0,0,1-.656.3,5.293,5.293,0,0,0-1.6-.251,5.139,5.139,0,0,0-5.156,4.867.538.538,0,0,1-.608.507,2.761,2.761,0,0,0-.36-.028A2.468,2.468,0,0,0,894.205,190.244Z" transform="translate(-147.779 -25.667)" fill="#3e5672"/>
      <rect id="사각형_1155" data-name="사각형 1155" width="31.575" height="6.186" transform="translate(747.901 209.641) rotate(-45)" fill="#fff"/>
      <path id="패스_1453" data-name="패스 1453" d="M902.723,286.781h0a.54.54,0,0,1-.381-.158l-4.373-4.374a.538.538,0,0,1,0-.762L920.3,259.16a.539.539,0,0,1,.762,0l4.373,4.374a.539.539,0,0,1,0,.762L903.1,286.623A.54.54,0,0,1,902.723,286.781Zm-3.612-4.913,3.612,3.612,21.565-21.565-3.612-3.612Z" transform="translate(-150.448 -72.227)" fill="#97a7b7"/>
      <path id="패스_1454" data-name="패스 1454" d="M893.484,312.033l4.374,4.374-4.45,2.536-2.969,1.691-1.179-1.18,1.691-2.968Z" transform="translate(-145.585 -102.392)" fill="#fff"/>
      <path id="패스_1455" data-name="패스 1455" d="M889.729,320.462a.54.54,0,0,1-.381-.158l-1.179-1.18a.539.539,0,0,1-.087-.648l4.223-7.421a.539.539,0,0,1,.85-.115l4.374,4.374a.539.539,0,0,1-.114.849L890,320.391A.537.537,0,0,1,889.729,320.462Zm-.508-1.809.6.6,6.447-3.673-3.375-3.375Z" transform="translate(-144.874 -101.681)" fill="#97a7b7"/>
      <path id="패스_1456" data-name="패스 1456" d="M890.951,322.359l2.457,2.457-2.969,1.691-1.179-1.18Z" transform="translate(-145.585 -108.266)" fill="#fff"/>
      <path id="패스_1457" data-name="패스 1457" d="M889.729,326.337a.54.54,0,0,1-.381-.158L888.169,325a.539.539,0,0,1-.087-.648l1.691-2.969a.538.538,0,0,1,.849-.114l2.458,2.457a.539.539,0,0,1-.114.849L890,326.266A.539.539,0,0,1,889.729,326.337Zm-.508-1.809.6.6,2-1.138-1.458-1.457Z" transform="translate(-144.874 -107.555)" fill="#97a7b7"/>
      <rect id="사각형_1156" data-name="사각형 1156" width="2.537" height="6.186" transform="translate(765.425 192.117) rotate(-45)" fill="#fff"/>
      <path id="패스_1458" data-name="패스 1458" d="M943.364,273.227a.537.537,0,0,1-.381-.158l-4.374-4.374a.539.539,0,0,1,0-.762l1.795-1.794a.539.539,0,0,1,.762,0l4.374,4.374a.539.539,0,0,1,0,.762l-1.795,1.794A.536.536,0,0,1,943.364,273.227Zm-3.612-4.913,3.612,3.612,1.032-1.032-3.612-3.612Z" transform="translate(-173.566 -76.196)" fill="#97a7b7"/>
      <path id="패스_1459" data-name="패스 1459" d="M646.606,221.994a6.644,6.644,0,1,1-6.644-6.644,6.643,6.643,0,0,1,6.644,6.644" transform="translate(0 -47.396)" fill="#fff"/>
      <line id="선_282" data-name="선 282" y1="2.295" transform="translate(639.963 169.987)" fill="#fff"/>
      <path id="패스_1460" data-name="패스 1460" d="M648.016,222.188a.539.539,0,0,1-.539-.539v-2.295a.539.539,0,1,1,1.078,0v2.295A.539.539,0,0,1,648.016,222.188Z" transform="translate(-8.053 -49.367)" fill="#3e5672"/>
      <line id="선_283" data-name="선 283" x1="2.295" transform="translate(635.352 174.597)" fill="#fff"/>
      <path id="패스_1461" data-name="패스 1461" d="M639.618,230.586h-2.295a.539.539,0,1,1,0-1.078h2.295a.539.539,0,0,1,0,1.078Z" transform="translate(-1.971 -55.45)" fill="#3e5672"/>
      <line id="선_284" data-name="선 284" y2="2.295" transform="translate(639.963 176.913)" fill="#fff"/>
      <path id="패스_1462" data-name="패스 1462" d="M648.016,238.251a.539.539,0,0,1-.539-.539v-2.295a.539.539,0,0,1,1.078,0v2.295A.539.539,0,0,1,648.016,238.251Z" transform="translate(-8.053 -58.504)" fill="#3e5672"/>
      <line id="선_285" data-name="선 285" x2="2.295" transform="translate(642.278 174.597)" fill="#fff"/>
      <path id="패스_1463" data-name="패스 1463" d="M655.682,230.586h-2.295a.539.539,0,1,1,0-1.078h2.295a.539.539,0,0,1,0,1.078Z" transform="translate(-11.109 -55.45)" fill="#3e5672"/>
      <path id="패스_1464" data-name="패스 1464" d="M721.274,385.105a4.705,4.705,0,1,1-4.705-4.705,4.705,4.705,0,0,1,4.705,4.705" transform="translate(-44.678 -141.28)" fill="#fff"/>
      <line id="선_286" data-name="선 286" y1="1.625" transform="translate(671.891 240.559)" fill="#fff"/>
      <path id="패스_1465" data-name="패스 1465" d="M722.065,385.193a.539.539,0,0,1-.539-.539v-1.625a.539.539,0,1,1,1.078,0v1.625A.539.539,0,0,1,722.065,385.193Z" transform="translate(-50.174 -142.469)" fill="#3e5672"/>
      <line id="선_287" data-name="선 287" x1="1.625" transform="translate(668.626 243.825)" fill="#fff"/>
      <path id="패스_1466" data-name="패스 1466" d="M716.118,391.14h-1.625a.539.539,0,1,1,0-1.078h1.625a.539.539,0,0,1,0,1.078Z" transform="translate(-45.867 -146.776)" fill="#3e5672"/>
      <line id="선_288" data-name="선 288" y2="1.625" transform="translate(671.891 245.465)" fill="#fff"/>
      <path id="패스_1467" data-name="패스 1467" d="M722.065,396.569a.539.539,0,0,1-.539-.539V394.4a.539.539,0,1,1,1.078,0v1.626A.539.539,0,0,1,722.065,396.569Z" transform="translate(-50.174 -148.94)" fill="#3e5672"/>
      <line id="선_289" data-name="선 289" x2="1.625" transform="translate(673.531 243.825)" fill="#fff"/>
      <path id="패스_1468" data-name="패스 1468" d="M727.494,391.14h-1.625a.539.539,0,0,1,0-1.078h1.625a.539.539,0,0,1,0,1.078Z" transform="translate(-52.338 -146.776)" fill="#3e5672"/>
      <path id="패스_1469" data-name="패스 1469" d="M679.107,362.685a.54.54,0,0,1-.324-.108l-10.361-7.8a.539.539,0,0,1,0-.861l10.361-7.8a.539.539,0,1,1,.649.861l-9.789,7.371,9.789,7.372a.539.539,0,0,1-.325.969Z" transform="translate(-19.846 -121.715)" fill="#3e5672"/>
      <path id="패스_1470" data-name="패스 1470" d="M668.345,360.746a3.488,3.488,0,1,1-3.488-3.488,3.488,3.488,0,0,1,3.488,3.488" transform="translate(-15.955 -128.117)" fill="#cee6fe"/>
      <path id="패스_1471" data-name="패스 1471" d="M664.146,364.062a4.027,4.027,0,1,1,4.027-4.027A4.031,4.031,0,0,1,664.146,364.062Zm0-6.976a2.949,2.949,0,1,0,2.949,2.949A2.952,2.952,0,0,0,664.146,357.086Z" transform="translate(-15.244 -127.406)" fill="#3e5672"/>
      <path id="패스_1472" data-name="패스 1472" d="M692.374,342.652a3.488,3.488,0,1,1-3.488-3.488,3.488,3.488,0,0,1,3.488,3.488" transform="translate(-29.624 -117.825)" fill="#cee6fe"/>
      <path id="패스_1473" data-name="패스 1473" d="M688.175,345.968a4.027,4.027,0,1,1,4.027-4.027A4.031,4.031,0,0,1,688.175,345.968Zm0-6.976a2.949,2.949,0,1,0,2.949,2.949A2.952,2.952,0,0,0,688.175,338.992Z" transform="translate(-28.913 -117.113)" fill="#3e5672"/>
      <path id="패스_1474" data-name="패스 1474" d="M692.374,378.841a3.488,3.488,0,1,0-3.488,3.488,3.488,3.488,0,0,0,3.488-3.488" transform="translate(-29.624 -138.41)" fill="#cee6fe"/>
      <path id="패스_1475" data-name="패스 1475" d="M688.175,382.157a4.027,4.027,0,1,1,4.027-4.027A4.031,4.031,0,0,1,688.175,382.157Zm0-6.976a2.949,2.949,0,1,0,2.949,2.949A2.952,2.952,0,0,0,688.175,375.181Z" transform="translate(-28.913 -137.699)" fill="#3e5672"/>
    </g>
  </g>
</svg>
