<svg width="142" height="248" viewBox="0 0 142 248" fill="none" xmlns="http://www.w3.org/2000/svg">
<ellipse cx="65.5" cy="241.5" rx="38.5" ry="6.5" fill="#D9D9D9"/>
<path d="M94.6802 163.939C96.6638 173.039 95.3957 183.168 95.2831 192.482C95.1511 203.419 95.0195 214.355 94.8884 225.292C94.8633 227.481 94.894 229.865 96.169 231.577C96.8833 232.535 97.9171 233.172 98.6336 234.131C99.3502 235.089 99.6323 236.647 98.7679 237.452C98.4486 237.678 98.0855 237.837 97.7016 237.917C97.3177 237.997 96.9213 237.996 96.5375 237.916C88.6441 237.308 80.8002 236.177 73.0579 234.531C71.7226 234.4 70.4837 233.78 69.5821 232.791C69.0454 231.879 68.7467 230.847 68.7131 229.79C66.3701 209.425 64.4234 189.014 62.8728 168.557" fill="white"/>
<path d="M96.9803 163.711C98.026 169.209 98.3989 174.812 98.0907 180.398C97.9193 186.019 97.6683 191.616 97.6013 197.235C97.5256 203.21 97.4534 209.184 97.3846 215.157C97.349 218.122 97.311 221.086 97.2709 224.05C97.255 225.297 97.2266 226.545 97.33 227.791C97.3663 228.216 97.3493 227.992 97.3356 227.894C97.3561 228.037 97.3811 228.18 97.4106 228.32C97.4648 228.6 97.5349 228.876 97.6206 229.148C97.6615 229.282 97.7058 229.417 97.7592 229.546C97.7206 229.452 97.6093 229.284 97.8057 229.63C97.875 229.75 97.9476 229.872 98.0135 229.994C98.051 230.053 98.0895 230.106 98.127 230.17C98.035 230.074 98.0373 230.077 98.1327 230.184C98.9547 231.206 100.08 231.911 100.813 233.023C101.186 233.586 101.442 234.216 101.567 234.878C101.692 235.539 101.682 236.218 101.54 236.876C101.364 237.575 100.988 238.208 100.458 238.701C99.9284 239.193 99.2666 239.525 98.5517 239.655C97.1139 239.803 95.6624 239.756 94.2373 239.517C88.2653 238.974 82.3161 238.144 76.4282 237.025C73.9145 236.547 70.7729 236.313 68.8212 234.49C67.7949 233.418 67.1744 232.029 67.0648 230.556C66.8684 229.116 66.7186 227.668 66.5551 226.223C65.8845 220.31 65.2476 214.395 64.6443 208.476C63.4469 196.725 62.3823 184.96 61.4506 173.181C61.337 171.731 61.2235 170.282 61.1099 168.833C61.1144 168.286 61.3365 167.763 61.728 167.378C62.1196 166.992 62.6491 166.775 63.2013 166.774C63.7506 166.785 64.2745 167.005 64.6641 167.388C65.0538 167.772 65.2793 168.289 65.2938 168.833C66.1574 180.158 67.1443 191.474 68.2547 202.779C68.8148 208.475 69.4056 214.167 70.027 219.857C70.3335 222.656 70.6473 225.454 70.9682 228.25C71.0318 228.806 71.1101 229.614 71.1737 230.006C71.1737 230.012 71.26 230.456 71.3021 230.626C71.3372 230.769 71.3804 230.913 71.4269 231.055C71.6188 231.633 71.3542 230.975 71.5291 231.265C71.5563 231.31 71.8231 231.657 71.671 231.49C71.5188 231.322 71.8152 231.602 71.8492 231.638C72.0297 231.797 71.8493 231.632 71.8164 231.612C71.9299 231.681 72.0434 231.741 72.1569 231.81C72.4612 232.002 72.3045 231.892 72.1978 231.847C72.3181 231.899 72.4499 231.939 72.5736 231.98C72.828 232.063 73.0868 232.132 73.348 232.195C78.7602 233.435 84.2433 234.349 89.7674 234.932C91.1646 235.095 92.5649 235.241 93.9682 235.369C95.235 235.583 96.5203 235.669 97.8046 235.628C97.4107 235.672 97.758 235.633 97.8204 235.597C97.7262 235.651 97.6559 235.694 97.5639 235.753C97.5423 235.767 97.2857 236.121 97.5491 235.765C97.5343 235.784 97.4162 236.087 97.49 235.86C97.4968 235.832 97.5048 235.805 97.5117 235.776C97.4867 236.007 97.4764 236.045 97.4832 235.888C97.4832 235.888 97.4367 235.413 97.4832 235.71C97.523 235.953 97.4594 235.648 97.4491 235.62C97.4219 235.537 97.196 235.08 97.389 235.415L97.2528 235.177C97.1006 234.906 97.4435 235.386 97.2176 235.11C97.051 234.913 96.8724 234.725 96.6829 234.548C96.2287 234.116 95.745 233.718 95.3204 233.256C93.5038 231.276 93.0917 228.706 93.0702 226.126C93.0452 223.336 93.1291 220.54 93.162 217.749C93.2309 212.05 93.3003 206.35 93.3699 200.649C93.4358 195.175 93.5198 189.712 93.7537 184.238C94.116 178.928 94.0453 173.598 93.5425 168.299C93.4131 167.224 93.2019 165.99 92.9396 164.795C92.8669 164.533 92.847 164.259 92.8813 163.989C92.9155 163.72 93.003 163.459 93.1389 163.223C93.2748 162.986 93.4564 162.779 93.6733 162.612C93.8902 162.445 94.1381 162.322 94.403 162.25C94.6679 162.178 94.9446 162.159 95.2171 162.193C95.4896 162.227 95.7527 162.313 95.9914 162.448C96.2301 162.582 96.4397 162.762 96.6082 162.977C96.7767 163.192 96.9008 163.437 96.9735 163.699" fill="#24221E"/>
<path d="M65.8108 171.644L57.2225 225.021C56.5377 229.28 55.9175 233.976 57.9176 237.687C58.4061 238.369 58.7068 239.165 58.7899 239.997C58.7334 242.058 56.0936 242.338 54.2845 241.93C47.7499 240.457 41.2335 238.874 34.7352 237.18C26.0893 234.927 28.407 218.703 28.7144 211.23C29.4478 193.588 28.3922 174.523 32.3914 157.476" fill="white"/>
<path d="M67.5047 172.023C65.2392 186.23 62.9736 200.438 60.7081 214.647C60.1453 218.176 59.5829 221.705 59.0208 225.235C58.7556 226.889 58.5616 228.057 58.4341 229.689C58.3788 230.395 58.346 231.104 58.3494 231.811C58.3494 232.2 58.3622 232.587 58.3878 232.974C58.3979 233.129 58.4103 233.281 58.425 233.435C58.425 233.435 58.5085 234.119 58.46 233.794C58.5693 234.539 58.7488 235.272 58.996 235.983C59.0639 236.208 59.1536 236.425 59.2636 236.631C59.4487 237.008 59.6688 237.366 59.8572 237.741C60.3214 238.482 60.5597 239.342 60.5431 240.216C60.5264 241.09 60.2556 241.941 59.7636 242.664C57.8551 245.147 54.4748 244.485 51.8542 243.882C48.4134 243.091 44.9805 242.27 41.5556 241.416C39.8416 240.99 38.1295 240.555 36.4192 240.114C35.022 239.821 33.6534 239.406 32.3293 238.872C28.7177 237.216 27.0722 233.138 26.4334 229.476C25.8127 225.196 25.6903 220.858 26.0688 216.549C26.3698 211.535 26.5617 206.52 26.6444 201.506C26.8702 188.073 26.7889 174.542 29.1793 161.273C29.4569 159.727 29.7732 158.187 30.1284 156.654C30.2744 156.122 30.6259 155.67 31.1052 155.398C31.5845 155.125 32.1524 155.054 32.6842 155.2C33.2159 155.346 33.6679 155.697 33.9406 156.177C34.2133 156.656 34.2844 157.224 34.1383 157.756C31.2671 170.173 31.0776 183.072 30.8891 195.877C30.8034 201.634 30.7954 207.413 30.4377 213.161C30.1036 217.05 29.9853 220.954 30.0833 224.856C30.1093 225.365 30.1419 225.872 30.1871 226.377C30.2074 226.613 30.23 226.85 30.256 227.087C30.2751 227.264 30.3688 228.005 30.2966 227.467C30.4243 228.408 30.609 229.341 30.8496 230.26C30.9625 230.694 31.0979 231.122 31.2502 231.545C31.3202 231.738 31.4025 231.927 31.4759 232.121C31.275 231.556 31.5211 232.205 31.5967 232.358C31.777 232.726 31.9797 233.082 32.2039 233.426C32.2939 233.592 32.4034 233.748 32.5301 233.888C32.0787 233.494 32.5515 233.9 32.6791 234.041C32.8066 234.182 32.9624 234.335 33.1125 234.473C33.1926 234.548 33.6463 234.911 33.3698 234.699C33.0933 234.487 33.5774 234.835 33.6598 234.886C33.8348 234.999 34.0176 235.091 34.1993 235.19C34.7016 235.462 33.8495 235.094 34.3991 235.281C34.5865 235.343 34.7704 235.405 34.9634 235.458C35.7692 235.684 36.584 235.883 37.3944 236.093C40.726 236.955 44.0649 237.787 47.4108 238.59C49.0834 238.992 50.7568 239.386 52.4309 239.774C53.2108 239.953 53.9941 240.122 54.7717 240.304C54.9072 240.336 55.2581 240.344 54.7637 240.31C54.8766 240.318 54.9782 240.33 55.0854 240.336C55.3586 240.351 55.6271 240.336 55.8991 240.328C56.3788 240.317 55.6508 240.441 55.8991 240.328C56.0229 240.291 56.1488 240.261 56.276 240.239C56.372 240.212 56.4669 240.178 56.5605 240.143C56.0944 240.312 56.4059 240.213 56.5188 240.129C56.7603 239.949 56.1553 240.479 56.4804 240.155C56.5932 240.043 56.6181 239.906 56.4138 240.256C56.5955 239.945 56.3878 240.315 56.3856 240.369C56.4014 239.941 56.4984 240.734 56.4149 240.306C56.2784 239.581 56.5018 240.483 56.3697 240.073C56.2569 239.71 56.5853 240.427 56.2693 239.83C56.1068 239.526 55.9307 239.229 55.7761 238.927C55.3982 238.202 55.0873 237.444 54.8472 236.662C54.0925 233.688 53.9772 230.588 54.5087 227.566C54.9534 224.15 55.556 220.754 56.0978 217.353C58.2918 203.597 60.4855 189.842 62.6788 176.086C62.9527 174.367 63.2264 172.647 63.5003 170.928C63.6522 170.4 64.0054 169.952 64.4837 169.682C64.962 169.412 65.5273 169.34 66.0579 169.483C66.5811 169.638 67.0242 169.99 67.2948 170.464C67.5654 170.938 67.6426 171.499 67.5104 172.028" fill="#24221E"/>
<path d="M30.7198 150.102C30.5282 133.216 32.9657 116.403 37.9439 100.271C39.7959 94.2721 39.8804 88.1144 42.0662 82.2635C48.6986 83.2474 55.2426 84.7591 61.6362 86.7844C65.736 88.1427 70.0569 87.9525 74.2752 88.7087C78.9565 89.4864 83.4474 91.1521 87.5076 93.6167C91.4191 96.0605 94.7745 99.3431 98.7717 101.642C102.731 103.919 109.581 106.607 114.144 104.828C117.01 103.608 119.645 101.9 121.933 99.78C123.994 108.207 128.134 115.979 133.972 122.379C129.766 127.236 124.761 131.332 119.175 134.491C111.253 138.635 102.171 139.981 93.3929 138.311C93.9192 147.088 94.5293 155.872 95.2234 164.664C76.0651 166.969 56.731 167.374 37.4758 167.465C28.7087 167.506 30.7976 156.798 30.7187 150.101" fill="#7868D6"/>
<path d="M28.3699 150.322C28.2808 141.039 28.9673 131.766 30.422 122.598C31.1319 118.102 32.0292 113.641 33.1141 109.215C33.6347 107.097 34.1981 104.987 34.8044 102.887C35.4276 100.732 36.1184 98.6054 36.5928 96.4089C37.6284 91.6082 38.0747 86.6752 39.7808 82.0395C39.9475 81.5089 40.3085 81.0614 40.791 80.787C41.2736 80.5126 41.8419 80.4317 42.3816 80.5605C48.3405 81.4673 54.2326 82.771 60.0187 84.463C61.4555 84.9037 62.8652 85.4053 64.3392 85.7058C65.6886 85.9676 67.0517 86.1528 68.4219 86.2606C71.4303 86.4822 74.4182 86.9256 77.3616 87.587C80.2394 88.2932 83.0299 89.3183 85.6815 90.6433C88.1945 91.9695 90.5745 93.5348 92.7888 95.3175C94.9741 97.1062 97.2819 98.7387 99.6955 100.203C100.65 100.745 101.636 101.22 102.636 101.672C103.018 101.846 102.793 101.743 102.707 101.706C102.838 101.761 102.969 101.819 103.1 101.867C103.364 101.975 103.631 102.079 103.9 102.178C104.511 102.404 105.131 102.615 105.755 102.8C106.415 102.996 107.083 103.165 107.758 103.303C107.935 103.338 108.111 103.372 108.288 103.403C108.334 103.411 108.871 103.499 108.637 103.464C108.404 103.429 108.829 103.486 108.88 103.492C109.053 103.51 109.226 103.527 109.4 103.539C110.073 103.593 110.748 103.593 111.421 103.539C111.552 103.528 111.682 103.516 111.812 103.499C111.501 103.539 111.747 103.499 111.917 103.468C112.196 103.414 112.472 103.345 112.744 103.263C113.331 103.082 113.898 102.84 114.434 102.539C115.122 102.189 115.786 101.802 116.44 101.388C117.745 100.562 118.976 99.6245 120.119 98.5862C120.384 98.332 120.71 98.1502 121.064 98.0583C121.419 97.9664 121.792 97.9673 122.146 98.0611C122.501 98.1549 122.825 98.3383 123.089 98.5938C123.352 98.8494 123.546 99.1685 123.651 99.5205C125.623 107.575 129.571 115.008 135.136 121.144C135.52 121.547 135.735 122.083 135.735 122.641C135.735 123.199 135.52 123.735 135.136 124.139C131.083 128.76 126.348 132.73 121.095 135.913C115.591 139.048 109.446 140.879 103.128 141.268C99.5827 141.483 96.0245 141.256 92.5352 140.591L95.2104 138.548C95.7363 147.322 96.346 156.091 97.0394 164.853C97.1386 166.089 95.9824 166.845 94.9265 166.972C81.9526 168.524 68.8953 169.219 55.8368 169.528C52.5951 169.604 49.3541 169.66 46.1139 169.697C42.9924 169.733 39.8259 169.903 36.7078 169.757C34.6252 169.735 32.6261 168.932 31.1049 167.506C29.8557 166.169 29.0149 164.502 28.682 162.701C27.8109 158.62 28.4059 154.443 28.3664 150.316C28.3664 149.755 28.5891 149.216 28.9853 148.818C29.3816 148.421 29.919 148.198 30.4794 148.198C31.0398 148.198 31.5772 148.421 31.9734 148.818C32.3697 149.216 32.5923 149.755 32.5923 150.316C32.6261 153.783 32.2305 157.243 32.599 160.704C32.6407 161.088 32.59 160.634 32.581 160.581C32.5968 160.677 32.6104 160.773 32.625 160.869C32.66 161.083 32.6983 161.294 32.7377 161.505C32.8169 161.89 32.9154 162.271 33.0329 162.646C33.0859 162.816 33.1535 162.985 33.2076 163.153C33.344 163.58 33.0319 162.814 33.1705 163.07C33.211 163.146 33.2414 163.227 33.2831 163.305C33.4486 163.622 33.6303 163.931 33.8274 164.229C34.0213 164.542 33.7227 164.105 33.7215 164.097C33.7665 164.167 33.8202 164.23 33.8815 164.286C34.0088 164.421 34.1351 164.556 34.2726 164.68C34.3334 164.737 34.4033 164.785 34.4608 164.843C34.6422 165.03 34.0957 164.625 34.3312 164.74C34.4991 164.823 34.6524 164.955 34.818 165.045C35.0288 165.158 35.3351 165.271 34.9114 165.115C35.1086 165.186 35.3025 165.261 35.5042 165.319C35.7059 165.376 35.8851 165.412 36.0767 165.455C36.1522 165.472 36.4824 165.537 36.177 165.48C35.8457 165.418 36.3032 165.491 36.3742 165.497C37.7569 165.61 39.1745 165.521 40.5606 165.511C42.1383 165.499 43.7117 165.485 45.2811 165.469C48.4297 165.435 51.5775 165.384 54.7245 165.317C61.0239 165.177 67.3199 164.954 73.6091 164.59C80.731 164.179 87.8417 163.583 94.9265 162.735L92.8147 164.863C92.1138 156.101 91.5041 147.332 90.9857 138.558C90.9912 138.234 91.0699 137.915 91.216 137.625C91.362 137.336 91.5716 137.083 91.8289 136.887C92.0863 136.69 92.3848 136.555 92.7019 136.49C93.019 136.426 93.3465 136.434 93.6599 136.515C96.4587 137.022 99.3049 137.217 102.147 137.096C103.472 137.044 104.795 136.921 106.108 136.729C113.115 135.662 119.683 132.642 125.062 128.013C127.576 125.891 129.943 123.6 132.148 121.156V124.151C126.072 117.492 121.75 109.417 119.575 100.659L123.107 101.595C120.915 103.635 118.427 105.327 115.727 106.615C114.458 107.21 113.103 107.596 111.712 107.759C110.404 107.876 109.087 107.823 107.792 107.602C102.635 106.679 97.7796 104.508 93.6497 101.275C91.2922 99.5296 89.0441 97.6314 86.5751 96.0383C84.251 94.5348 81.7398 93.3442 79.106 92.4974C76.3929 91.6152 73.5949 91.0214 70.758 90.7258C67.6599 90.5544 64.5828 90.1098 61.5625 89.3971C58.2111 88.4401 54.9207 87.378 51.5174 86.6075C48.1142 85.8369 44.6906 85.22 41.2547 84.6517L43.8545 83.1716C42.3445 87.265 41.8148 91.5958 41.0034 95.8587C40.1718 100.235 38.6888 104.446 37.5856 108.755C35.3706 117.375 33.8839 126.167 33.1412 135.037C32.7182 140.12 32.5357 145.215 32.5935 150.323C32.5935 150.885 32.3709 151.424 31.9746 151.821C31.5784 152.218 31.041 152.442 30.4806 152.442C29.9202 152.442 29.3827 152.218 28.9864 151.821C28.5902 151.424 28.3677 150.885 28.3677 150.323" fill="#24221E"/>
<path d="M51.3253 118.694C57.326 122.755 64.9249 127.403 70.6864 130.697C74.071 132.804 77.7872 134.315 81.6758 135.164L62.1475 169.227C61.528 170.307 60.5077 171.095 59.3112 171.418C58.1147 171.741 56.8399 171.572 55.7671 170.948L29.9673 155.948L51.3253 118.694Z" fill="#FF79AC"/>
<path d="M58.6963 173.341C59.8981 173.342 61.0791 173.032 62.1205 172.441C63.1619 171.849 64.027 170.998 64.6286 169.972L84.3288 136.336C84.4998 136.045 84.5968 135.716 84.6117 135.38C84.6267 135.043 84.559 134.708 84.4144 134.403C84.2698 134.098 84.0527 133.831 83.7814 133.626C83.5101 133.421 83.1925 133.284 82.8559 133.226C79.176 132.423 75.6601 131.014 72.4563 129.058C67.376 126.213 59.614 121.627 53.0597 117.287C52.818 117.127 52.5455 117.018 52.2591 116.966C51.9727 116.914 51.6786 116.921 51.395 116.986C51.1113 117.051 50.8442 117.172 50.6102 117.343C50.3762 117.514 50.1803 117.73 50.0346 117.979L28.4888 154.767C28.2073 155.248 28.1311 155.819 28.2771 156.356C28.423 156.892 28.7792 157.349 29.2672 157.627L55.294 172.44C56.3294 173.03 57.5045 173.341 58.7008 173.341M79.2315 136.67L60.9532 167.878C60.6099 168.464 60.0447 168.891 59.3818 169.066C58.719 169.241 58.0128 169.15 57.4183 168.812L33.2315 155.047L52.5838 122.004C58.7891 126.024 65.6925 130.086 70.3581 132.699C73.1568 134.344 76.133 135.676 79.2315 136.67" fill="#24221E"/>
<path d="M51.7129 118.48L56.2846 110.468L82.2612 125.65C83.3417 126.281 84.1303 127.32 84.4533 128.54C84.7764 129.759 84.6075 131.058 83.9839 132.152L82.2738 135.147C78.3577 134.288 74.615 132.759 71.2065 130.627C65.4042 127.292 57.747 122.589 51.7084 118.48" fill="white"/>
<path d="M81.9347 137.498C82.3057 137.498 82.6702 137.399 82.9914 137.212C83.3126 137.024 83.5791 136.755 83.7643 136.431L85.4687 133.454C86.3683 131.877 86.6114 130.004 86.1446 128.246C85.6778 126.489 84.5391 124.99 82.9786 124.078L57.0836 108.991C56.8433 108.851 56.5778 108.76 56.3027 108.724C56.0275 108.687 55.7479 108.705 55.4798 108.778C55.2117 108.85 54.9604 108.975 54.7402 109.146C54.52 109.316 54.3353 109.529 54.1966 109.772L49.6414 117.734C49.3735 118.202 49.2918 118.756 49.4127 119.282C49.5337 119.809 49.8483 120.27 50.293 120.571C56.9099 125.059 64.7398 129.793 69.8609 132.728C73.4701 134.97 77.4334 136.572 81.5786 137.463C81.6978 137.484 81.8184 137.494 81.9393 137.494M56.8018 113.748L80.8661 127.768C81.1591 127.939 81.4161 128.166 81.6221 128.436C81.8281 128.707 81.9792 129.016 82.0667 129.346C82.1542 129.675 82.1765 130.019 82.1322 130.357C82.0879 130.696 81.9779 131.022 81.8085 131.317L80.873 132.953C77.7392 132.043 74.7387 130.719 71.9497 129.014C67.3144 126.358 60.4337 122.209 54.2948 118.13L56.8018 113.748Z" fill="#24221E"/>
<path d="M84.5947 96.0882C85.2849 99.9917 85.8273 104.357 83.6333 107.628C81.3027 111.104 76.1953 112.032 72.5995 109.971C70.8381 108.862 69.4328 107.251 68.5568 105.336C67.6807 103.421 67.3722 101.286 67.6692 99.1939C66.2966 103.495 64.4713 108.307 60.35 109.961C56.1245 111.657 51.1618 109.005 48.7459 105.075C46.3301 101.146 45.9132 96.3023 45.8325 91.665" fill="white"/>
<path d="M86.9152 95.2685C87.6172 98.3264 87.7399 101.492 87.2766 104.596C87.0083 106.003 86.4486 107.335 85.6343 108.505C84.8201 109.675 83.7701 110.655 82.5541 111.381C80.1391 112.744 77.3148 113.156 74.6197 112.539C71.9043 111.863 69.5421 110.167 68.0081 107.793C66.2743 105.19 65.5225 102.038 65.8907 98.9176L70.0123 99.4858C68.3336 104.684 65.7363 111.05 59.7222 112.083C56.7994 112.541 53.8153 111.838 51.3893 110.121C48.7605 108.256 46.7738 105.6 45.7089 102.528C44.5491 98.9548 43.9973 95.207 44.0772 91.4455C44.0822 90.8819 44.3049 90.3428 44.6973 89.9443C45.0897 89.5458 45.6206 89.3196 46.1755 89.3146C46.7288 89.3251 47.2565 89.553 47.6478 89.9503C48.0391 90.3477 48.2635 90.8836 48.2738 91.4455C48.2336 94.2207 48.548 96.9894 49.2093 99.6825C49.3856 100.337 49.5964 100.982 49.8406 101.614C49.9279 101.842 49.9894 101.972 50.1528 102.311C50.3162 102.65 50.4762 102.954 50.6552 103.266C50.8197 103.552 50.991 103.834 51.1779 104.104C51.226 104.175 51.4801 104.532 51.2686 104.25C51.3503 104.364 51.4375 104.464 51.5236 104.568C51.9177 105.041 52.3469 105.482 52.8074 105.889C52.9092 105.98 53.0143 106.067 53.1184 106.155C52.8711 105.949 53.133 106.168 53.1766 106.2C53.4239 106.381 53.6735 106.555 53.9331 106.717C54.1928 106.88 54.4535 107.031 54.7165 107.172C54.8351 107.234 54.9571 107.291 55.0768 107.351C55.4696 107.548 54.8609 107.293 55.3096 107.452C55.8035 107.635 56.309 107.784 56.8227 107.897C56.9503 107.923 57.0777 107.946 57.2064 107.966C56.7957 107.901 57.2188 107.96 57.3184 107.966C57.6405 107.991 57.9638 107.996 58.2865 107.981C58.4152 107.975 58.5438 107.965 58.6714 107.955C59.034 107.923 58.1947 108.074 58.7833 107.934C59.0385 107.874 59.2935 107.821 59.5442 107.746C59.6707 107.708 60.3131 107.449 59.9628 107.61C60.2524 107.476 60.5338 107.324 60.8055 107.156C60.9174 107.09 61.0192 107.022 61.1233 106.95C61.1054 106.963 61.6023 106.598 61.3673 106.782C61.1714 106.934 61.4792 106.685 61.5184 106.649C61.6135 106.566 61.7064 106.482 61.7981 106.394C62.0048 106.197 62.2029 105.993 62.3924 105.781C62.4774 105.685 62.5603 105.589 62.642 105.49C62.6632 105.465 63.0303 104.972 62.7864 105.312C63.5446 104.222 64.189 103.054 64.709 101.828C64.7336 101.772 64.8645 101.452 64.7336 101.772C64.7985 101.616 64.86 101.458 64.9216 101.298C65.0447 100.982 65.1633 100.664 65.2774 100.344C65.5147 99.6813 65.7351 99.0131 65.9489 98.3426C66.0904 97.851 66.4003 97.427 66.8226 97.1471C67.2449 96.8673 67.7519 96.7499 68.2519 96.8163C68.7551 96.8777 69.2185 97.1248 69.5538 97.5106C69.8892 97.8964 70.073 98.3939 70.0705 98.9085C70.0016 99.4443 69.9695 99.9843 69.9743 100.525C69.9743 100.796 69.9922 101.066 70.0146 101.336C70.0258 101.47 70.0392 101.605 70.0571 101.739C70.0157 101.426 70.0627 101.725 70.0896 101.875C70.1814 102.375 70.3062 102.869 70.4634 103.352C70.4869 103.424 70.7576 104.148 70.6065 103.788C70.7184 104.068 70.8561 104.34 70.996 104.607C71.1213 104.844 71.2546 105.075 71.3956 105.302C71.4672 105.416 71.5399 105.53 71.6193 105.637C71.6473 105.68 71.8879 106.016 71.7469 105.826C71.6059 105.636 71.8589 105.962 71.8902 106.001C71.9764 106.103 72.0626 106.203 72.1521 106.301C72.3521 106.523 72.5616 106.735 72.7809 106.935C72.8783 107.025 72.9791 107.11 73.0787 107.197C73.0127 107.139 72.7843 106.99 73.1234 107.231C73.3394 107.385 73.5577 107.534 73.786 107.672C73.9777 107.787 74.1736 107.893 74.3735 107.991C74.4261 108.017 74.7853 108.174 74.5492 108.076C74.3131 107.979 74.773 108.155 74.8223 108.171C75.2966 108.33 75.7832 108.45 76.277 108.527C75.8294 108.455 76.5378 108.541 76.6508 108.547C76.9317 108.56 77.2104 108.56 77.4946 108.547C77.7128 108.538 77.9299 108.517 78.1482 108.496C77.7072 108.539 78.3721 108.446 78.5119 108.415C78.7537 108.36 78.9942 108.301 79.2326 108.222C79.3445 108.185 79.4688 108.146 79.5851 108.108C79.6322 108.091 80.0954 107.897 79.8503 108.007C79.6052 108.117 79.9622 107.947 80.0204 107.918C80.1323 107.862 80.2386 107.805 80.3461 107.744C80.562 107.623 80.768 107.49 80.9728 107.352C81.0209 107.319 81.3298 107.085 81.1306 107.239C80.9482 107.383 81.1855 107.189 81.2045 107.171C81.4283 106.957 81.6521 106.751 81.8636 106.518C81.9465 106.426 82.027 106.331 82.1042 106.233C82.0438 106.309 81.9106 106.544 82.1042 106.209C82.2385 105.982 82.3852 105.769 82.5105 105.539C82.581 105.409 82.6447 105.277 82.7108 105.144C82.873 104.817 82.6258 105.383 82.7601 105.045C82.8798 104.738 82.9814 104.423 83.0644 104.103C83.1506 103.782 83.2155 103.455 83.2748 103.129C83.3431 102.763 83.249 103.403 83.2938 103.032C83.3162 102.845 83.333 102.659 83.3464 102.471C83.3921 101.787 83.397 101.1 83.361 100.415C83.2912 99.0642 83.1217 97.7202 82.8541 96.3947C82.719 95.8501 82.796 95.2735 83.0691 94.7851C83.3422 94.2967 83.7902 93.9341 84.32 93.7729C84.8564 93.6304 85.4264 93.7063 85.9085 93.9844C86.3906 94.2625 86.7466 94.7208 86.9007 95.2617" fill="#24221E"/>
<path d="M49.4848 136.91C54.0496 137.85 59.3563 136.838 62.1547 141.369C62.4413 141.751 62.6488 142.187 62.765 142.651C62.8812 143.115 62.9037 143.597 62.8312 144.07C62.5898 144.996 61.3983 145.671 60.642 145.091C61.1478 145.516 61.4905 146.105 61.6111 146.756C61.7317 147.407 61.6225 148.08 61.3026 148.659C60.9827 149.239 60.472 149.688 59.8581 149.93C59.2442 150.172 58.5655 150.191 57.9388 149.985C59.0517 150.602 58.8502 152.44 57.8358 153.21C57.2904 153.541 56.6834 153.756 56.0522 153.841C55.421 153.927 54.779 153.882 54.1659 153.709C54.6332 155.081 52.9821 156.192 51.5923 156.587C48.1862 157.525 44.6201 157.723 41.1317 157.169C41.4586 153.754 42.4163 150.43 43.9557 147.367C45.5872 143.773 47.4336 140.282 49.4848 136.912" fill="#FFE3D4"/>
<path d="M49.9876 134.636C50.2338 134.684 50.4812 134.732 50.7285 134.773L51.1024 134.83C50.8524 134.798 50.8524 134.798 51.1024 134.83C51.5452 134.883 51.9886 134.931 52.4329 134.972C53.3794 135.063 54.328 135.138 55.2722 135.259C57.2797 135.415 59.2315 135.999 60.9985 136.971C62.0175 137.568 62.9072 138.365 63.6153 139.314C64.3234 140.263 64.8354 141.346 65.121 142.498C65.2988 143.28 65.2436 144.098 64.9623 144.849C64.6811 145.6 64.1863 146.25 63.5398 146.719C62.9945 147.128 62.341 147.363 61.6624 147.396C60.9838 147.429 60.3108 147.258 59.729 146.905C60.5836 145.786 61.4389 144.669 62.2951 143.555C63.1396 144.323 63.6987 145.359 63.8803 146.491C64.0619 147.623 63.855 148.784 63.2939 149.781C62.7328 150.779 61.8511 151.554 60.7938 151.979C59.7365 152.405 58.5669 152.454 57.478 152.12C58.0224 150.822 58.5665 149.523 59.1101 148.221C59.5638 148.528 59.9517 148.924 60.2511 149.384C60.5505 149.845 60.7553 150.361 60.8533 150.902C60.9514 151.444 60.9407 152 60.8219 152.537C60.7031 153.075 60.4786 153.583 60.1616 154.031C58.6934 156.223 55.9725 156.344 53.63 155.93C54.4989 155.055 55.3675 154.18 56.2356 153.305C56.4325 154.065 56.4013 154.866 56.146 155.608C55.8907 156.35 55.4227 156.998 54.8012 157.472C53.526 158.422 52.0393 159.043 50.471 159.28C47.1296 159.938 43.6997 160.002 40.3365 159.469C39.8895 159.345 39.4952 159.077 39.2142 158.706C38.9332 158.334 38.7811 157.88 38.7813 157.413C39.1674 153.412 40.2996 149.52 42.1188 145.942C43.7437 142.398 45.5704 138.95 47.5898 135.617C47.873 135.129 48.3373 134.773 48.8806 134.63C49.4239 134.486 50.0017 134.565 50.4868 134.851C50.9719 135.136 51.3246 135.603 51.4674 136.151C51.6101 136.698 51.5312 137.28 51.248 137.769C49.3211 140.949 47.5693 144.233 46.0007 147.607C44.4164 150.663 43.4049 153.988 43.0167 157.413C42.4994 156.726 41.9814 156.04 41.4626 155.355C43.735 155.674 46.0402 155.674 48.3126 155.355C48.915 155.258 49.5175 155.138 50.1198 154.995C50.418 154.923 50.7172 154.85 51.0109 154.76C51.0866 154.737 51.6524 154.524 51.4773 154.604C51.3022 154.685 51.8535 154.377 51.9212 154.345C52.126 154.203 52.1388 154.2 51.9596 154.337C52.0317 154.278 52.1 154.215 52.164 154.147C52.2694 154.035 52.2559 154.065 52.1234 154.239C52.1891 154.146 52.247 154.048 52.2963 153.946C52.0433 154.031 52.286 154.902 52.1573 154.441C52.0665 154.078 52.0707 153.698 52.1694 153.337C52.2681 152.977 52.4579 152.649 52.7203 152.384C52.9828 152.12 53.3089 151.928 53.6667 151.829C54.0245 151.729 54.4018 151.725 54.7618 151.816C55.0193 151.857 55.0475 151.866 54.8476 151.84C54.9933 151.858 55.1401 151.872 55.2858 151.881C55.577 151.903 55.8693 151.9 56.1599 151.872C55.7974 151.914 56.5485 151.758 56.6355 151.717C56.4502 151.785 56.4707 151.762 56.6965 151.647C56.552 151.774 56.5282 151.789 56.6265 151.694C56.7248 151.6 56.71 151.623 56.5587 151.808C56.621 151.718 56.6765 151.622 56.7247 151.524C56.6245 151.781 56.6118 151.796 56.6863 151.568C56.7372 151.328 56.7383 151.354 56.6863 151.651C56.6943 151.544 56.6943 151.437 56.6863 151.33C56.7326 151.636 56.7259 151.672 56.6683 151.444C56.7018 151.607 56.7879 151.754 56.9133 151.863C56.7484 151.702 56.7698 151.716 56.9777 151.906C56.5497 151.636 56.2312 151.221 56.0792 150.735C55.9271 150.25 55.9514 149.726 56.1477 149.257C56.3439 148.789 56.6993 148.405 57.1504 148.176C57.6015 147.947 58.1188 147.887 58.6098 148.007C58.7296 148.046 58.8518 148.076 58.9757 148.097C58.7249 148.058 58.7249 148.046 58.9757 148.058C59.2275 148.04 59.2264 148.043 58.9757 148.058C59.0989 148.031 59.2204 147.995 59.3394 147.953C58.8334 148.138 59.7731 147.584 59.379 147.928C59.4737 147.845 59.563 147.756 59.6466 147.661C59.5099 147.845 59.5088 147.833 59.6409 147.626C59.5664 147.854 59.5686 147.846 59.6477 147.611C59.7004 147.363 59.7114 147.366 59.6805 147.619C59.6986 147.469 59.5867 146.802 59.6996 147.24C59.6731 147.116 59.6389 146.993 59.5969 146.873C59.6941 147.087 59.6872 147.083 59.5765 146.863C59.4421 146.658 59.4433 146.649 59.5765 146.834C59.493 146.739 59.4024 146.65 59.3055 146.568C57.5368 144.95 59.8464 141.904 61.8715 143.218C62.1076 143.351 62.0533 143.353 61.7077 143.227C61.6255 143.179 61.5332 143.151 61.4382 143.145C61.3432 143.14 61.2484 143.157 61.1612 143.195C61.5328 143.15 60.9613 143.38 61.2741 143.14C61.1329 143.254 60.9691 143.595 61.0877 143.26L60.9996 143.449C60.9929 143.58 60.9906 143.571 60.9929 143.421C60.9929 143.271 60.9929 143.262 60.9996 143.393C60.9736 143.273 60.94 143.156 60.8991 143.04C60.8717 142.939 60.8274 142.843 60.7681 142.756C60.6552 142.551 60.5423 142.346 60.409 142.148C60.3977 142.131 60.0114 141.611 60.2576 141.921C60.017 141.621 59.7526 141.342 59.4671 141.086C59.4287 141.051 59.0355 140.745 59.2535 140.9C59.4523 141.051 58.9994 140.739 58.9474 140.705C58.6675 140.534 58.3791 140.377 58.0834 140.236C57.5797 139.985 58.4663 140.35 57.9298 140.177C57.7592 140.121 57.5909 140.056 57.4193 140.003C56.7768 139.809 56.1217 139.66 55.4586 139.558C55.3061 139.533 54.8995 139.481 55.2824 139.527L54.7177 139.46C54.3393 139.418 53.961 139.383 53.5815 139.346C52.0004 139.232 50.4263 139.033 48.866 138.751C48.3289 138.597 47.8733 138.236 47.5968 137.747C47.3203 137.258 47.2448 136.679 47.3865 136.135C47.5456 135.595 47.9056 135.139 48.3913 134.861C48.877 134.583 49.4507 134.505 49.9922 134.643" fill="#24221E"/>
<path d="M40.0424 108.622C38.7774 113.886 38.2512 121.614 40.2672 126.63C41.8414 130.552 44.7143 134.66 48.9904 135.652C49.1108 135.68 49.2356 135.701 49.3582 135.726C47.276 139.148 45.4016 142.695 43.7451 146.345C42.1822 149.456 41.2095 152.832 40.8767 156.301C36.8563 155.708 33.0083 154.26 29.5905 152.052C26.1726 149.844 23.2637 146.928 21.0587 143.499C16.0618 135.311 15.2332 124.882 18.0757 115.709C20.9182 106.536 28.0493 97.489 37.1324 93.4278L41.9764 95.9685L40.0424 108.622Z" fill="#7868D6"/>
<path d="M41.6358 111.358C41.0317 113.747 40.7701 116.208 40.8588 118.668C40.9297 121.16 41.446 123.62 42.3843 125.936C42.4241 126.035 42.4652 126.134 42.5062 126.232C42.4204 126.035 42.4284 126.051 42.5302 126.279C42.6441 126.523 42.7579 126.767 42.8719 127.007C43.1149 127.496 43.3767 127.975 43.6569 128.444C43.9395 128.916 44.2424 129.376 44.5683 129.821C44.6492 129.933 44.7312 130.045 44.8156 130.157C44.6936 130.003 44.7108 130.023 44.868 130.215C45.0252 130.407 45.1789 130.581 45.3407 130.757C46.5443 132.238 48.251 133.245 50.1486 133.593C50.4623 133.681 50.7515 133.838 50.9943 134.052C51.2371 134.266 51.4271 134.531 51.55 134.828C51.673 135.124 51.7254 135.445 51.7037 135.764C51.682 136.084 51.5866 136.394 51.4246 136.672C49.4814 139.798 47.7147 143.026 46.1326 146.342C44.534 149.345 43.5136 152.611 43.1226 155.977C43.1147 156.298 43.0336 156.612 42.8852 156.897C42.7369 157.183 42.525 157.432 42.2655 157.626C42.006 157.82 41.7053 157.954 41.3857 158.019C41.0661 158.084 40.7357 158.077 40.419 158C34.9089 157.128 29.728 154.854 25.393 151.403C20.9936 147.847 17.7218 143.131 15.9631 137.81C12.1932 126.918 14.335 114.625 20.7299 105.112C24.2751 99.95 28.7729 95.4842 33.9912 91.9451C34.4812 91.6693 35.062 91.5935 35.6085 91.7341C36.1549 91.8746 36.6231 92.2203 36.9123 92.6965C37.1867 93.1793 37.2603 93.7475 37.1176 94.2822C36.9749 94.817 36.627 95.2769 36.1467 95.5656C34.9892 96.3673 34.2805 96.8951 33.2711 97.7146C32.2617 98.5342 31.2876 99.3918 30.3489 100.286C29.4374 101.151 28.5639 102.05 27.7285 102.983C26.8318 103.984 26.1688 104.796 25.4909 105.711C22.4203 109.743 20.2598 114.37 19.1531 119.285C16.9645 129.033 19.3058 140.278 26.9299 147.191C27.8515 148.05 28.8492 148.826 29.9113 149.51C31.0929 150.292 32.3299 150.989 33.6129 151.598C34.797 152.162 36.0253 152.633 37.286 153.004C38.6824 153.426 40.1084 153.747 41.5526 153.965L38.8479 155.985C39.2375 152.053 40.3798 148.229 42.2146 144.712C43.8535 141.228 45.6961 137.84 47.7333 134.564C48.1586 135.591 48.5843 136.617 49.0104 137.644C44.9967 136.879 41.9035 133.842 39.9143 130.488C37.7264 126.701 36.5736 122.423 36.5682 118.07C36.5598 115.44 36.8765 112.818 37.5116 110.263C37.6626 109.727 38.0245 109.272 38.5176 108.998C39.0107 108.723 39.5947 108.652 40.141 108.801C40.6873 108.949 41.1513 109.304 41.4308 109.788C41.7103 110.272 41.7823 110.845 41.6312 111.381" fill="#24221E"/>
<path d="M46.198 26.6297C50.0832 27.0395 54.0441 27.4471 57.8706 26.6591C61.6972 25.871 65.4426 23.683 67.124 20.1527C72.1433 26.2255 79.4319 29.9173 86.6686 33.0232C91.7523 35.2078 97.0277 37.2151 102.55 37.5527C106.289 37.817 110.031 37.0981 113.406 35.4674C110.083 25.5534 103.703 16.9494 95.1828 10.8935C86.6626 4.83759 76.4417 1.64193 65.991 1.7663C55.5402 1.89067 45.3984 5.32866 37.0245 11.5856C28.6507 17.8426 22.4766 26.596 19.3906 36.5863C29.2216 38.3226 40.1033 34.6365 46.2003 26.6252" fill="#7F5F42"/>
<path d="M104.201 39.9558C107.8 39.9842 111.357 39.1808 114.594 37.6083C115.048 37.3801 115.404 36.9958 115.598 36.5261C115.791 36.0564 115.808 35.5328 115.646 35.0515C112.185 24.7412 105.54 15.7934 96.665 9.49546C87.7904 3.19755 77.1446 -0.125768 66.2593 0.00364084C55.374 0.133049 44.8104 3.70852 36.0884 10.2156C27.3664 16.7227 20.9356 25.826 17.7213 36.2156C17.6332 36.5018 17.6069 36.8033 17.6443 37.1004C17.6816 37.3974 17.7818 37.6831 17.938 37.9386C18.0942 38.1941 18.3029 38.4135 18.5504 38.5823C18.7979 38.7511 19.0785 38.8654 19.3736 38.9177C29.8409 40.7619 40.9562 36.8439 47.446 29.1225C51.1501 29.6476 54.9126 29.6062 58.6042 28.9998C62.1165 28.3494 65.3113 26.5475 67.683 23.8793C72.8304 29.0786 79.5389 32.4056 86.1053 35.2226C90.9337 37.2954 96.5939 39.537 102.673 39.9074C103.184 39.9374 103.694 39.9528 104.203 39.9536M67.4182 18.3365C67.3312 18.3367 67.2441 18.342 67.1577 18.3523C66.8051 18.396 66.4693 18.5279 66.1813 18.7357C65.8933 18.9435 65.6624 19.2206 65.51 19.5412C64.2758 22.1308 61.3769 24.1236 57.7533 24.8678C54.2153 25.594 50.4148 25.1943 46.7416 24.807C46.3805 24.7683 46.0157 24.8235 45.6823 24.9673C45.349 25.1112 45.0584 25.3387 44.8391 25.6278C39.8889 32.1219 31.1822 35.7427 22.5701 35.074C25.8953 26.0662 31.8929 18.2866 39.7618 12.7743C47.6306 7.262 56.996 4.27952 66.6067 4.22531C76.2174 4.1711 85.6159 7.04773 93.5465 12.4709C101.477 17.8941 107.562 25.6056 110.989 34.5752C108.408 35.4967 105.666 35.8798 102.93 35.7011C97.5306 35.3712 92.2761 33.2827 87.7745 31.3518C80.8553 28.3828 73.7986 24.8441 69.0468 19.1066C68.8483 18.8673 68.5995 18.6746 68.318 18.5422C68.0365 18.4099 67.7293 18.3412 67.4182 18.341" fill="#24221E"/>
<path d="M118.866 37.2973C117.236 37.2952 115.621 37.6221 114.12 38.2584C113.894 37.4588 113.645 36.6772 113.383 35.8866C110.003 37.518 106.255 38.2371 102.511 37.9727C96.9806 37.6338 91.6974 35.6268 86.6073 33.4414C79.3588 30.3298 72.0606 26.6366 67.0327 20.5659C65.3523 24.0976 61.6081 26.2864 57.7657 27.0736C53.9233 27.8609 49.968 27.4554 46.0747 27.0443C39.9721 35.0632 29.071 38.7463 19.2254 37.0104C19.0921 37.4441 18.9543 37.8778 18.8323 38.3171C17.0185 37.5203 15.0375 37.178 13.0613 37.32C11.0851 37.462 9.17344 38.084 7.49238 39.1319C5.81133 40.1799 4.41174 41.6222 3.41504 43.3335C2.41833 45.0448 1.8547 46.9734 1.77312 48.9518C1.69153 50.9302 2.0944 52.8986 2.94682 54.686C3.79924 56.4735 5.07546 58.026 6.66453 59.2086C8.25359 60.3913 10.1075 61.1684 12.0653 61.4724C14.023 61.7764 16.0255 61.5982 17.8987 60.9532C20.0682 72.2369 26.1023 82.4131 34.964 89.7334C43.8257 97.0537 54.9617 101.061 66.4587 101.067C77.9557 101.072 89.0957 97.0758 97.9646 89.7642C106.833 82.4526 112.877 72.2822 115.058 61.0007C116.73 61.5521 118.502 61.7341 120.252 61.5341C122.001 61.334 123.687 60.7568 125.191 59.8422C126.696 58.9276 127.984 57.6975 128.966 56.2368C129.948 54.7761 130.601 53.1197 130.88 51.3821C131.159 49.6444 131.057 47.8669 130.582 46.1724C130.106 44.4779 129.268 42.9068 128.126 41.5676C126.983 40.2285 125.563 39.1532 123.964 38.4161C122.365 37.679 120.625 37.2977 118.864 37.2984" fill="#FFE3D4"/>
<path d="M66.7797 102.829C78.3747 102.82 89.629 98.9123 98.728 91.7348C107.827 84.5572 114.241 74.5286 116.935 63.2657C119.019 63.5867 121.148 63.4427 123.17 62.844C125.191 62.2452 127.055 61.2067 128.626 59.803C130.198 58.3992 131.438 56.6652 132.259 54.7255C133.08 52.7858 133.46 50.6886 133.372 48.5848C133.284 46.4809 132.731 44.4225 131.752 42.5577C130.772 40.6929 129.392 39.0679 127.709 37.7995C126.026 36.5311 124.082 35.6509 122.018 35.2221C119.954 34.7934 117.82 34.8267 115.77 35.3196C115.73 35.2001 115.691 35.0805 115.65 34.961C115.554 34.6733 115.397 34.4096 115.19 34.1879C114.983 33.9663 114.73 33.7918 114.449 33.6763C114.168 33.5609 113.866 33.5072 113.562 33.5189C113.259 33.5305 112.962 33.6074 112.69 33.7441C109.647 35.2026 106.275 35.844 102.908 35.605C97.4972 35.2745 92.2314 33.1824 87.7222 31.2482C80.7896 28.2742 73.7192 24.7295 68.9571 18.9821C68.7302 18.7083 68.4378 18.4959 68.107 18.3647C67.7762 18.2336 67.4176 18.1878 67.0644 18.2316C66.7112 18.2755 66.3748 18.4075 66.0862 18.6155C65.7976 18.8236 65.5662 19.101 65.4133 19.422C64.1779 22.016 61.2723 24.0122 57.6417 24.7577C54.0981 25.4851 50.2912 25.0847 46.6098 24.6968C46.248 24.659 45.8825 24.7148 45.5485 24.8588C45.2145 25.0028 44.9232 25.2301 44.7025 25.519C39.2696 32.6456 29.3138 36.3223 19.9261 34.6678C19.5595 34.6047 19.1829 34.6386 18.8334 34.766C18.4839 34.8934 18.1739 35.1099 17.9342 35.3941C15.8754 34.8493 13.7205 34.7714 11.6276 35.1662C9.5348 35.5609 7.55691 36.4183 5.83887 37.6755C4.12084 38.9327 2.70624 40.5578 1.69866 42.4318C0.691081 44.3058 0.116064 46.3812 0.0157763 48.506C-0.084511 50.6307 0.292538 52.751 1.11913 54.7113C1.94573 56.6717 3.201 58.4225 4.793 59.8355C6.385 61.2485 8.27333 62.2879 10.3197 62.8776C12.3661 63.4672 14.5187 63.5921 16.6196 63.2431C19.307 74.5126 25.7188 84.5486 34.8198 91.7312C43.9209 98.9137 55.1801 102.823 66.7797 102.829M18.2322 58.5447C17.999 58.544 17.7675 58.5821 17.5468 58.6575C16.0028 59.1856 14.3531 59.3297 12.7407 59.0773C11.1283 58.8249 9.60187 58.1835 8.29372 57.2089C6.98558 56.2342 5.93516 54.9556 5.23357 53.4839C4.53198 52.0122 4.20041 50.3919 4.26751 48.7633C4.33461 47.1347 4.7983 45.547 5.61859 44.1379C6.43887 42.7287 7.59094 41.5407 8.97484 40.6766C10.3587 39.8126 11.9327 39.2986 13.5605 39.1794C15.1882 39.0601 16.8205 39.3391 18.3159 39.9921C18.7968 40.2019 19.3385 40.2257 19.836 40.0589C20.3335 39.8922 20.7511 39.5469 21.008 39.0899C30.9456 40.2177 41.1893 36.3053 47.3201 29.0174C51.0314 29.5435 54.8012 29.502 58.5 28.8945C62.0193 28.2428 65.2205 26.4379 67.5973 23.7652C72.7536 28.9734 79.4762 32.3061 86.0542 35.1279C90.892 37.2042 96.5644 39.4497 102.655 39.8207C105.933 40.0307 109.219 39.5797 112.319 38.4944C112.326 38.5193 112.334 38.544 112.339 38.5689C112.421 38.8583 112.563 39.1271 112.756 39.3573C112.95 39.5875 113.19 39.774 113.461 39.9041C113.733 40.0343 114.029 40.1053 114.33 40.1123C114.631 40.1193 114.929 40.0622 115.206 39.9448C116.701 39.31 118.328 39.0468 119.948 39.1778C121.567 39.3089 123.13 39.8303 124.503 40.6972C125.876 41.5642 127.018 42.7509 127.832 44.1555C128.645 45.5601 129.105 47.1407 129.172 48.7618C129.239 50.3829 128.911 51.996 128.217 53.4628C127.522 54.9296 126.482 56.2063 125.185 57.1834C123.888 58.1606 122.374 58.8089 120.771 59.0729C119.168 59.3369 117.525 59.2087 115.982 58.6992C115.697 58.6049 115.394 58.5726 115.095 58.6045C114.795 58.6363 114.506 58.7314 114.247 58.8836C113.987 59.0359 113.763 59.2416 113.59 59.4871C113.416 59.7326 113.297 60.0123 113.24 60.3074C111.157 71.0918 105.377 80.8145 96.8941 87.8046C88.4112 94.7946 77.7553 98.6152 66.7578 98.6099C55.7603 98.6046 45.1081 94.7735 36.632 87.7753C28.156 80.7771 22.3855 71.0487 20.3124 60.2623C20.2199 59.7791 19.9616 59.3431 19.5819 59.0296C19.2022 58.7161 18.7249 58.5446 18.2322 58.5447" fill="#24221E"/>
<path d="M61.6975 43.7759C61.6975 44.4151 61.5079 45.0399 61.1528 45.5714C60.7977 46.1028 60.293 46.5171 59.7024 46.7617C59.1119 47.0063 58.4621 47.0703 57.8352 46.9456C57.2082 46.8209 56.6324 46.5131 56.1804 46.0611C55.7285 45.6091 55.4208 45.0333 55.2961 44.4064C55.1714 43.7795 55.2353 43.1297 55.4799 42.5392C55.7245 41.9486 56.1387 41.4439 56.6702 41.0888C57.2016 40.7336 57.8265 40.5441 58.4657 40.5441C59.3229 40.5441 60.1448 40.8846 60.7509 41.4907C61.357 42.0968 61.6975 42.9188 61.6975 43.7759" fill="#24221E"/>
<path d="M92.8401 43.7759C92.8401 44.4151 92.6505 45.0399 92.2954 45.5714C91.9403 46.1028 91.4356 46.5171 90.8451 46.7617C90.2545 47.0063 89.6047 47.0703 88.9778 46.9456C88.3509 46.8209 87.7751 46.5131 87.3231 46.0611C86.8712 45.6091 86.5633 45.0333 86.4386 44.4064C86.3139 43.7795 86.3779 43.1297 86.6225 42.5392C86.8671 41.9486 87.2814 41.4439 87.8129 41.0888C88.3443 40.7336 88.9691 40.5441 89.6082 40.5441C90.4654 40.5441 91.2874 40.8846 91.8935 41.4907C92.4996 42.0968 92.8401 42.9188 92.8401 43.7759" fill="#24221E"/>
<path d="M74.8343 47.8358C75.1211 47.597 75.4346 47.3973 75.7679 47.2415L75.2682 47.4661C75.4578 47.3834 75.6559 47.3243 75.8583 47.2902L75.3006 47.3699C75.4743 47.3467 75.65 47.3467 75.8237 47.3699L75.266 47.2902C75.4409 47.3175 75.6122 47.3674 75.7758 47.4388L75.2761 47.2141C75.4857 47.3135 75.6833 47.4392 75.865 47.5886L75.4411 47.2403C75.5504 47.3309 75.6551 47.4277 75.7546 47.5303C76.1522 47.9397 76.681 48.1729 77.2338 48.1829C77.7878 48.1789 78.3184 47.9448 78.7129 47.5303C79.104 47.1114 79.3242 46.545 79.3254 45.9542C79.3202 45.3642 79.1006 44.7993 78.7129 44.378C77.8929 43.4821 76.7839 42.9518 75.6106 42.8945C75.2861 42.9001 74.9629 42.94 74.6457 43.0134C74.4858 43.0468 74.3293 43.0965 74.1784 43.162C73.6574 43.3641 73.1661 43.6443 72.7193 43.9941C72.2642 44.3066 71.9247 44.7774 71.7587 45.3265C71.6137 45.9063 71.6895 46.5236 71.9696 47.0441C72.2465 47.5444 72.6942 47.9111 73.219 48.0676L73.7768 48.1472C74.1478 48.1482 74.5121 48.0431 74.832 47.8429" fill="#24221E"/>
<path d="M51.7085 57.8782C51.7085 63.5575 47.4997 68.1612 42.3065 68.1612C37.1132 68.1612 32.9054 63.5575 32.9054 57.8782C32.9054 52.1989 37.1144 47.5953 42.3065 47.5953C47.4985 47.5953 51.7085 52.1989 51.7085 57.8782Z" fill="#FFB18F"/>
<path d="M109.293 57.8782C109.293 63.5575 105.214 68.1612 100.185 68.1612C95.1569 68.1612 91.0775 63.5575 91.0775 57.8782C91.0775 52.1989 95.1547 47.5953 100.185 47.5953C105.216 47.5953 109.293 52.1989 109.293 57.8782Z" fill="#FFB18F"/>
<path d="M65.0876 53.382C67.8503 54.8311 70.8864 55.6554 73.9892 55.799C77.092 55.9425 80.1887 55.402 83.0684 54.214C83.6017 54.0452 84.0519 53.6753 84.3275 53.1796C84.6032 52.6839 84.6835 52.0997 84.5521 51.5457C84.3996 50.9928 84.0396 50.5235 83.5502 50.2399C83.0608 49.9563 82.4815 49.8813 81.9382 50.0311C80.6982 50.566 79.4065 50.9662 78.0844 51.2252C77.5327 51.3419 76.9729 51.4154 76.4102 51.445C75.738 51.4946 75.0639 51.5089 74.3903 51.4879C71.904 51.4022 69.4648 50.7708 67.2389 49.6365C66.7493 49.3594 66.1739 49.2857 65.6324 49.4308C65.0908 49.5758 64.6249 49.9284 64.3316 50.4153C64.0522 50.9132 63.9755 51.5031 64.1179 52.0582C64.2604 52.6133 64.6106 53.0891 65.0933 53.3832" fill="#24221E"/>
<path d="M116.856 127.31L115.912 127.035C115.272 126.849 114.674 126.534 114.152 126.111C113.631 125.687 113.195 125.162 112.871 124.566C112.548 123.969 112.341 123.313 112.265 122.635C112.188 121.957 112.242 121.271 112.424 120.614L125.437 73.6993C125.619 73.0428 125.925 72.4295 126.338 71.8944C126.752 71.3594 127.264 70.913 127.845 70.5809C128.426 70.2487 129.066 70.0373 129.727 69.9586C130.388 69.8799 131.058 69.9355 131.698 70.1223L132.642 70.3969C133.282 70.5836 133.88 70.8979 134.401 71.3217C134.923 71.7455 135.358 72.2705 135.682 72.8668C136.006 73.4631 136.212 74.119 136.289 74.797C136.365 75.4749 136.311 76.1618 136.129 76.8182L123.116 123.733C122.934 124.389 122.628 125.003 122.215 125.538C121.802 126.073 121.29 126.519 120.709 126.851C120.127 127.184 119.488 127.395 118.827 127.474C118.166 127.552 117.496 127.497 116.856 127.31Z" fill="#FFCB48"/>
<path d="M117.715 129.271C119.33 129.267 120.901 128.751 122.189 127.8C123.477 126.85 124.413 125.518 124.856 124.004L138.388 77.659C138.656 76.744 138.736 75.7866 138.623 74.8415C138.511 73.8964 138.208 72.9821 137.733 72.1509C137.258 71.3197 136.619 70.5879 135.854 69.9973C135.088 69.4066 134.211 68.9687 133.271 68.7086L132.292 68.4373C130.395 67.912 128.361 68.142 126.639 69.077C124.916 70.0119 123.645 71.5751 123.104 73.423L109.576 119.769C109.037 121.617 109.273 123.599 110.233 125.277C111.193 126.956 112.798 128.194 114.695 128.72L115.674 128.991C116.339 129.176 117.028 129.27 117.719 129.271M130.248 72.3784C130.536 72.3769 130.824 72.4148 131.102 72.491L132.081 72.7623C132.473 72.8707 132.84 73.0534 133.159 73.2999C133.479 73.5463 133.745 73.8517 133.944 74.1985C134.142 74.5454 134.268 74.9269 134.315 75.3214C134.362 75.7158 134.329 76.1154 134.218 76.4973L120.689 122.843C120.463 123.615 119.933 124.267 119.214 124.657C118.495 125.047 117.647 125.143 116.855 124.924V124.924L115.875 124.651C115.483 124.543 115.117 124.36 114.798 124.114C114.478 123.867 114.212 123.562 114.014 123.215C113.815 122.869 113.689 122.487 113.642 122.093C113.595 121.699 113.629 121.299 113.74 120.917L127.269 74.5713C127.454 73.9397 127.845 73.3839 128.382 72.9875C128.92 72.5912 129.575 72.3758 130.249 72.3739" fill="#24221E"/>
<path d="M121.99 122.968C121.91 123.467 121.931 123.977 122.053 124.469C122.249 124.968 122.562 125.415 122.966 125.774C123.37 126.134 123.855 126.395 124.38 126.537C133.085 129.507 138.477 114.441 139.16 108.443C139.873 102.173 136.772 96.3084 129.802 96.3712C128.274 96.3149 126.763 96.697 125.454 97.4706C124.808 97.867 124.291 98.4346 123.961 99.1077C123.631 99.7807 123.502 100.532 123.59 101.273C123.657 101.635 123.799 101.98 124.007 102.286C124.215 102.592 124.485 102.853 124.8 103.052C125.115 103.252 125.469 103.386 125.839 103.447C126.209 103.508 126.588 103.493 126.952 103.405C126.12 103.254 125.26 103.375 124.506 103.75C123.751 104.124 123.142 104.731 122.774 105.478C122.194 107.032 123.718 109.078 125.335 108.604C124.572 108.661 123.845 108.946 123.251 109.419C122.658 109.893 122.227 110.534 122.016 111.255C121.946 111.615 121.96 111.986 122.059 112.34C122.157 112.694 122.337 113.02 122.585 113.295C122.833 113.57 123.142 113.785 123.488 113.924C123.834 114.063 124.208 114.123 124.581 114.098C123.397 114.367 122.294 114.905 121.362 115.668C120.906 116.06 120.601 116.594 120.497 117.179C120.393 117.765 120.496 118.368 120.79 118.888C121.085 119.297 121.537 119.58 121.82 119.998C122.392 120.85 122.104 121.918 121.985 122.969" fill="#FFE3D4"/>
<path d="M119.638 122.651C119.521 123.592 119.678 124.546 120.09 125.403C120.501 126.259 121.151 126.982 121.963 127.489C123.094 128.174 124.376 128.577 125.7 128.662C127.699 128.803 129.686 128.257 131.323 127.116C134.955 124.647 137.111 120.586 138.693 116.642C140.113 113.096 141.294 109.055 140.969 105.206C140.835 102.73 140.001 100.341 138.56 98.3092C137.01 96.2073 134.714 94.7594 132.129 94.2544C128.521 93.5917 123.966 94.1817 121.975 97.6218C121.458 98.4558 121.187 99.4156 121.192 100.393C121.198 101.371 121.481 102.328 122.008 103.155C122.555 103.993 123.358 104.638 124.301 104.998C125.244 105.357 126.277 105.412 127.254 105.155C127.745 105.014 128.169 104.705 128.449 104.282C128.728 103.86 128.845 103.352 128.778 102.852C128.704 102.354 128.454 101.897 128.071 101.564C127.688 101.23 127.198 101.042 126.688 101.032C124.109 100.744 120.931 102.274 120.401 104.98C119.808 108.003 122.431 111.117 125.649 110.344C126.19 110.189 126.647 109.833 126.925 109.351C127.203 108.868 127.278 108.298 127.136 107.761C126.973 107.232 126.611 106.785 126.124 106.513C125.637 106.24 125.062 106.162 124.519 106.296C123.257 106.45 122.085 107.024 121.197 107.923C120.309 108.821 119.757 109.99 119.631 111.239C119.62 111.873 119.737 112.502 119.975 113.09C120.213 113.678 120.568 114.214 121.019 114.665C121.52 115.159 122.136 115.523 122.813 115.725C123.49 115.928 124.207 115.962 124.901 115.826C124.523 114.477 124.145 113.128 123.767 111.778C121.351 112.53 118.743 113.731 118.206 116.458C118.053 117.156 118.077 117.88 118.277 118.565C118.477 119.251 118.845 119.878 119.35 120.389C119.401 120.441 119.954 120.972 119.759 120.746C119.93 120.946 119.797 120.997 119.803 120.746C119.786 121.383 119.729 122.019 119.631 122.649C119.632 123.206 119.856 123.739 120.255 124.133C120.654 124.526 121.195 124.748 121.759 124.748C122.318 124.732 122.85 124.506 123.246 124.115C123.641 123.725 123.871 123.201 123.887 122.649C123.861 122.803 123.868 122.748 123.907 122.481L123.983 121.921C124.014 121.684 124.047 121.446 124.058 121.206C124.09 120.639 124.02 120.07 123.853 119.527C123.641 118.903 123.29 118.334 122.825 117.862C122.677 117.705 122.512 117.564 122.36 117.414C122.18 117.228 122.162 117.206 122.305 117.348C122.372 117.531 122.384 117.55 122.342 117.408C122.3 117.265 122.307 117.284 122.349 117.494C122.36 117.27 122.356 117.233 122.338 117.382C122.201 117.718 122.538 116.853 122.406 117.152C122.274 117.451 122.733 116.692 122.544 116.928C122.356 117.165 122.967 116.557 122.766 116.718C123.41 116.285 124.133 115.978 124.895 115.816C125.164 115.742 125.416 115.617 125.637 115.447C125.857 115.278 126.041 115.067 126.179 114.827C126.317 114.587 126.406 114.323 126.44 114.049C126.474 113.775 126.453 113.498 126.379 113.232C126.304 112.966 126.178 112.717 126.006 112.5C125.834 112.283 125.62 112.101 125.377 111.965C125.134 111.829 124.866 111.741 124.588 111.707C124.311 111.674 124.029 111.694 123.76 111.768C123.895 111.748 124.032 111.748 124.167 111.768C123.617 111.714 124.402 111.811 124.095 111.751C123.868 111.708 124.256 111.908 124.086 111.751C124.057 111.724 123.786 111.455 123.946 111.614C124.106 111.773 123.818 111.334 123.96 111.678C123.912 111.566 123.89 111.44 123.852 111.321C123.918 111.52 123.831 111.535 123.871 111.321C123.811 111.633 123.859 111.413 123.91 111.23C123.991 110.94 123.764 111.461 123.924 111.208C123.946 111.175 124.16 110.861 124.029 111.028C123.885 111.211 124.256 110.814 124.256 110.816C124.369 110.704 124.47 110.681 124.292 110.788C124.406 110.72 124.519 110.654 124.632 110.588C124.767 110.508 124.881 110.486 124.672 110.559C124.986 110.452 125.309 110.377 125.638 110.335L124.503 106.287C124.109 106.381 124.676 106.302 124.795 106.317C124.546 106.288 124.704 106.251 124.837 106.357C124.474 106.069 124.984 106.687 124.723 106.284C124.508 105.956 124.814 106.441 124.671 106.233C124.558 106.067 124.517 105.904 124.611 106.18C124.605 106.163 124.485 105.652 124.527 105.946C124.569 106.241 124.537 105.768 124.545 105.702C124.485 106.202 124.744 105.54 124.52 105.919C124.55 105.869 124.83 105.486 124.656 105.689C124.483 105.891 124.821 105.55 124.861 105.514C124.484 105.856 125.488 105.218 125.022 105.408C125.196 105.338 125.376 105.282 125.56 105.24C125.619 105.225 126.118 105.16 125.834 105.179C125.551 105.199 126.123 105.179 126.117 105.179C126.304 105.182 126.491 105.194 126.676 105.218L126.109 101.094C125.6 101.248 126.143 101.094 126.135 101.131C126.127 101.168 125.807 101.131 126.159 101.177C126.039 101.156 125.921 101.127 125.806 101.089C126.174 101.201 125.898 101.107 125.806 101.074C125.513 100.962 125.668 100.983 125.78 101.074C125.685 100.992 125.595 100.905 125.511 100.812C125.766 101.084 125.556 100.84 125.511 100.788C125.412 100.597 125.393 100.569 125.454 100.705C125.515 100.841 125.508 100.808 125.433 100.607C125.433 100.548 125.413 100.236 125.421 100.567C125.415 100.428 125.419 100.289 125.433 100.151C125.376 100.609 125.639 99.647 125.485 100.005C125.646 99.5848 125.931 99.2222 126.305 98.9652C127.196 98.4367 128.222 98.1692 129.261 98.1939C129.807 98.18 130.352 98.2032 130.894 98.2633C130.44 98.2129 131.144 98.3148 131.256 98.3394C131.521 98.3961 131.783 98.4644 132.042 98.5443C132.2 98.6059 132.362 98.6593 132.526 98.7044C132.299 98.6137 132.887 98.879 132.965 98.9193C133.163 99.023 133.355 99.135 133.542 99.2551C133.668 99.3346 134.21 99.76 133.845 99.4511C134.179 99.7263 134.494 100.024 134.788 100.341C134.89 100.453 135.235 100.918 134.969 100.544C135.128 100.768 135.285 100.991 135.423 101.215C135.653 101.593 135.858 101.985 136.036 102.389C135.847 101.962 136.085 102.54 136.13 102.671C136.217 102.914 136.291 103.159 136.357 103.406C136.483 103.854 136.55 104.316 136.652 104.772C136.721 105.082 136.627 104.423 136.652 104.743C136.66 104.862 136.678 104.98 136.69 105.099C136.713 105.37 136.73 105.641 136.74 105.913C136.756 106.405 136.747 106.898 136.715 107.389C136.699 107.639 136.676 107.89 136.649 108.138C136.641 108.203 136.632 108.269 136.625 108.334C136.584 108.734 136.715 107.774 136.644 108.186C136.531 108.828 136.417 109.467 136.277 110.102C135.92 111.641 135.463 113.156 134.908 114.637C134.763 115.028 134.611 115.414 134.454 115.799C134.414 115.896 134.375 115.993 134.334 116.09C134.22 116.368 134.488 115.754 134.361 116.023C134.26 116.239 134.168 116.457 134.068 116.673C133.693 117.485 133.284 118.284 132.835 119.06C132.409 119.792 131.944 120.502 131.444 121.187C131.134 121.613 131.651 120.949 131.319 121.352C131.195 121.503 131.07 121.653 130.941 121.799C130.674 122.105 130.395 122.4 130.102 122.68C129.935 122.84 129.762 122.997 129.587 123.147C129.518 123.205 129.444 123.259 129.377 123.322C129.096 123.577 129.646 123.148 129.433 123.283C129.092 123.495 128.784 123.73 128.433 123.921C128.263 124.014 128.087 124.092 127.914 124.179C127.583 124.348 128.06 124.127 128.07 124.117C127.956 124.174 127.836 124.217 127.711 124.244C127.532 124.302 127.349 124.356 127.164 124.397C127.083 124.416 126.999 124.43 126.917 124.448C126.548 124.533 126.93 124.502 127.044 124.441C126.641 124.533 126.222 124.54 125.816 124.461C125.731 124.456 125.428 124.422 125.767 124.461C126.133 124.503 125.728 124.453 125.647 124.433C125.42 124.381 125.193 124.332 124.966 124.263C124.873 124.235 124.781 124.204 124.688 124.174C124.337 124.062 124.732 124.214 124.541 124.105C124.427 124.038 124.302 123.972 124.184 123.903C123.988 123.784 124.357 124.015 124.054 123.801C123.812 123.633 123.903 123.651 123.997 123.779C123.909 123.659 123.801 123.273 123.867 123.575C123.82 123.263 123.824 122.946 123.88 122.636C123.877 122.08 123.652 121.547 123.254 121.154C122.856 120.761 122.316 120.539 121.752 120.537C121.193 120.551 120.66 120.777 120.264 121.167C119.868 121.558 119.639 122.083 119.625 122.636" fill="#24221E"/>
<path d="M135.953 52.2961L136.91 75.2123L125.158 72.5569L135.953 52.2961Z" fill="white"/>
<path fill-rule="evenodd" clip-rule="evenodd" d="M136.366 51.1625C135.607 50.9951 134.826 51.3429 134.461 52.0113L123.596 71.9063C123.345 72.3673 123.328 72.9159 123.552 73.3902C123.776 73.8646 124.214 74.2106 124.738 74.326L136.566 76.9335C137.09 77.049 137.639 76.9208 138.052 76.5868C138.465 76.2527 138.693 75.751 138.671 75.2296L137.708 52.7271C137.675 51.9711 137.125 51.33 136.366 51.1625ZM134.526 59.0433L135.131 73.1803L127.7 71.5422L134.526 59.0433Z" fill="#24221E"/>
<path d="M135.943 52.2961L136.322 62.2852L131.621 61.1249L135.943 52.2961Z" fill="#24221E"/>
</svg>
