<svg width="13" height="14" viewBox="0 0 13 14" fill="none" xmlns="http://www.w3.org/2000/svg">
<path d="M6.5 13C9.81371 13 12.5 10.3137 12.5 7C12.5 3.68629 9.81371 1 6.5 1C3.18629 1 0.5 3.68629 0.5 7C0.5 10.3137 3.18629 13 6.5 13Z" stroke="white"/>
<path d="M7.25 7.25C7.25 6.83579 6.91421 6.5 6.5 6.5C6.08579 6.5 5.75 6.83579 5.75 7.25V9.75C5.75 10.1642 6.08579 10.5 6.5 10.5C6.91421 10.5 7.25 10.1642 7.25 9.75V7.25Z" fill="white"/>
<path d="M7.375 4.375C7.375 3.89175 6.98325 3.5 6.5 3.5C6.01675 3.5 5.625 3.89175 5.625 4.375C5.625 4.85825 6.01675 5.25 6.5 5.25C6.98325 5.25 7.375 4.85825 7.375 4.375Z" fill="white"/>
</svg>
