<svg xmlns="http://www.w3.org/2000/svg" width="23.002" height="23.002" viewBox="0 0 23.002 23.002">
  <g id="그룹_983" data-name="그룹 983" transform="translate(-65.539 -13.408)">
    <g id="그룹_979" data-name="그룹 979" transform="translate(65.539 13.408)">
      <g id="그룹_978" data-name="그룹 978">
        <circle id="타원_447" data-name="타원 447" cx="11.501" cy="11.501" r="11.501" transform="translate(0 23.002) rotate(-90)" fill="#fdc42d"/>
        <g id="그룹_977" data-name="그룹 977" transform="translate(2.071 3.527)">
          <path id="패스_2322" data-name="패스 2322" d="M85.1,16.56A11.493,11.493,0,0,1,67.39,31.107,11.495,11.495,0,1,0,85.1,16.56Z" transform="translate(-67.39 -16.56)" fill="#fdb431"/>
        </g>
        <path id="패스_2323" data-name="패스 2323" d="M67.961,19.264a8.621,8.621,0,0,1,4.1-3.966" transform="translate(-65.251 -13.183)" fill="none" stroke="#fff" stroke-linecap="round" stroke-linejoin="round" stroke-width="0.5"/>
      </g>
    </g>
    <g id="그룹_982" data-name="그룹 982" transform="translate(70.363 22.202)">
      <g id="그룹_980" data-name="그룹 980" transform="translate(0 0)">
        <path id="패스_2324" data-name="패스 2324" d="M73.518,22.8a1.539,1.539,0,1,1-1.539-1.539A1.539,1.539,0,0,1,73.518,22.8Z" transform="translate(-69.78 -21.266)" fill="#403d3c"/>
        <path id="패스_2325" data-name="패스 2325" d="M72.078,21.476a2.329,2.329,0,0,0-2.228,1.261" transform="translate(-69.85 -21.242)" fill="none" stroke="#403d3c" stroke-linecap="round" stroke-linejoin="round" stroke-width="0.5"/>
      </g>
      <g id="그룹_981" data-name="그룹 981" transform="translate(9.02 0)">
        <path id="패스_2326" data-name="패스 2326" d="M81.578,22.8a1.54,1.54,0,1,1-1.54-1.539A1.54,1.54,0,0,1,81.578,22.8Z" transform="translate(-77.84 -21.266)" fill="#403d3c"/>
        <path id="패스_2327" data-name="패스 2327" d="M80.137,21.476a2.327,2.327,0,0,0-2.227,1.261" transform="translate(-77.91 -21.242)" fill="none" stroke="#403d3c" stroke-linecap="round" stroke-linejoin="round" stroke-width="0.5"/>
      </g>
    </g>
    <path id="패스_2328" data-name="패스 2328" d="M81.894,26.071a1.2,1.2,0,0,0-1.561-.588c-.824.289-1.378,1.074-2.132,1.486a4.785,4.785,0,0,1-3.929,0c-.754-.412-1.307-1.2-2.132-1.486a1.194,1.194,0,0,0-1.56.588,1.983,1.983,0,0,0,.84,1.957,8.051,8.051,0,0,0,9.633,0A1.988,1.988,0,0,0,81.894,26.071Z" transform="translate(0.593 1.428)" fill="#403d3c"/>
    <path id="패스_2329" data-name="패스 2329" d="M77.859,26.843a4.785,4.785,0,0,1-3.929,0,3.793,3.793,0,0,1-.547-.375v3.947A2.519,2.519,0,0,0,75.9,32.926h0a2.519,2.519,0,0,0,2.511-2.511V26.468A3.823,3.823,0,0,1,77.859,26.843Z" transform="translate(0.934 1.555)" fill="#ee3555"/>
  </g>
</svg>
