<svg xmlns="http://www.w3.org/2000/svg" width="28.04" height="16" viewBox="0 0 28.04 16">
  <g id="ybm북샘로고_s" transform="translate(-146.104 -308.93)">
    <path id="Path_831" data-name="Path 831" d="M146.1,313.814V308.93h2.838v7.406c0,.111-.168.16-.253.075Z" transform="translate(0 0)" fill="#fff"/>
    <path id="Path_832" data-name="Path 832" d="M176.2,322.288V308.93H173.36v15.88c0,.111.168.16.253.076Z" transform="translate(-22.999 0)" fill="#fff"/>
    <rect id="Rectangle_599" data-name="Rectangle 599" width="2.838" height="15.999" transform="translate(155.093 308.93)" fill="#fff"/>
    <path id="Path_833" data-name="Path 833" d="M231.165,308.976c-.085-.085-.253-.035-.253.075v7.279c0,.111.168.16.253.075l2.586-2.6v-2.235Z" transform="translate(-71.562 -0.002)" fill="#fff"/>
    <path id="Path_834" data-name="Path 834" d="M231.165,363.283c-.085-.085-.253-.036-.253.075v7.28c0,.111.168.16.253.076l2.586-2.6V365.88Z" transform="translate(-71.562 -45.827)" fill="#fff"/>
    <path id="Path_835" data-name="Path 835" d="M261.84,311.572V324.93H259v-15.88c0-.111.168-.16.252-.075Z" transform="translate(-95.265 -0.001)" fill="#fff"/>
    <path id="Path_836" data-name="Path 836" d="M286.073,311.572l.028,13.359h-2.867v-15.88c0-.111.168-.16.253-.075Z" transform="translate(-115.712 -0.001)" fill="#fff"/>
    <path id="Path_837" data-name="Path 837" d="M310.3,311.572V324.93h-2.838v-15.88c0-.111.168-.16.253-.075Z" transform="translate(-136.158 -0.001)" fill="#fff"/>
  </g>
</svg>
