<svg width="57" height="18" viewBox="0 0 57 18" fill="none" xmlns="http://www.w3.org/2000/svg">
<path d="M19.834 8.366C22.046 8.1 23.6 7.218 24.426 6.056C25.252 7.218 26.806 8.1 28.99 8.366L29.648 6.91C26.988 6.616 25.602 5.342 25.378 4.25H29.2V2.78H25.336V1.338H23.488V2.78H19.652V4.25H23.46C23.25 5.37 21.878 6.616 19.19 6.91L19.834 8.366ZM30.264 9.024H18.616V10.522H23.488V14.232H25.336V10.522H30.264V9.024ZM31.7889 2.626V4.124H36.0029C35.6669 6.98 34.0709 9.024 31.0749 10.564L32.1109 11.978C36.3949 9.808 37.8649 6.49 37.8649 2.626H31.7889ZM43.1009 6.224H41.2949V1.296H39.4469V14.176H41.2949V7.75H43.1009V6.224ZM51.9758 7.05C51.0098 7.19 50.0018 7.26 48.9798 7.316V6.252H51.2338V4.782H46.7678V3.438H51.1638V1.968H44.9338V6.252H47.1318V7.4C45.9838 7.428 44.8638 7.428 43.8838 7.428L44.0938 8.856C46.3618 8.842 49.3578 8.8 52.0878 8.324L51.9758 7.05ZM47.6638 11.124H52.7738V12.608H47.6638V11.124ZM45.8578 14.05H54.5798V9.682H45.8578V14.05ZM52.7318 1.31V9.136H54.5798V1.31H52.7318Z" fill="white"/>
<g clip-path="url(#clip0_6_905)">
<path d="M5.14792 11.3531C5.01933 11.4769 4.84532 11.5463 4.66393 11.5463C4.48253 11.5463 4.30852 11.4769 4.17993 11.3531L0.301526 7.60446C0.205931 7.51204 0.130101 7.40231 0.0783645 7.28155C0.0266284 7.16079 0 7.03135 0 6.90064C0 6.76993 0.0266284 6.64049 0.0783645 6.51973C0.130101 6.39897 0.205931 6.28924 0.301526 6.19682L0.78552 5.72882C0.88111 5.63631 0.994619 5.56292 1.11956 5.51284C1.2445 5.46277 1.37842 5.437 1.51366 5.437C1.64891 5.437 1.78283 5.46277 1.90777 5.51284C2.0327 5.56292 2.14621 5.63631 2.2418 5.72882L4.66177 8.06882L11.2011 1.74458C11.2967 1.65207 11.4102 1.57868 11.5351 1.5286C11.66 1.47853 11.794 1.45276 11.9292 1.45276C12.0645 1.45276 12.1984 1.47853 12.3233 1.5286C12.4483 1.57868 12.5618 1.65207 12.6574 1.74458L13.1413 2.21258C13.2369 2.305 13.3128 2.41473 13.3645 2.53549C13.4162 2.65625 13.4429 2.78569 13.4429 2.9164C13.4429 3.04711 13.4162 3.17655 13.3645 3.29731C13.3128 3.41807 13.2369 3.5278 13.1413 3.62022L5.14792 11.3531Z" fill="white"/>
</g>
<defs>
<clipPath id="clip0_6_905">
<rect width="13.4443" height="13" fill="white" transform="translate(0 1)"/>
</clipPath>
</defs>
</svg>
