<svg xmlns="http://www.w3.org/2000/svg" width="59" height="59" viewBox="0 0 59 59">
  <g id="ico_01" transform="translate(-712 -134)">
    <rect id="bg_" width="59" height="59" rx="5" transform="translate(712 134)" fill="#e9f4fd"/>
    <path id="패스_2473" data-name="패스 2473" d="M376.349-384.436l5.739,6a.675.675,0,0,0,.489.212.675.675,0,0,0,.486-.21l2.346-2.453a.746.746,0,0,0,0-1.021l-.992-1.037a4.344,4.344,0,0,0-.415-5.341l10.438-9.068a.719.719,0,0,0,.269-.524.73.73,0,0,0-.2-.558l-5.746-6.009a.664.664,0,0,0-.533-.208.672.672,0,0,0-.5.281l-8.672,10.915a3.9,3.9,0,0,0-2.8-1.2,3.87,3.87,0,0,0-2.3.76l-.99-1.035a.67.67,0,0,0-.977,0l-2.346,2.453a.739.739,0,0,0-.2.509.738.738,0,0,0,.2.511l5.739,6Zm-.1-8.776a2.558,2.558,0,0,1,1.86.805l.259.271.267.279,3.832,4.007.128.133.4.419a2.848,2.848,0,0,1,.423,3.31l-8.474-8.861A2.508,2.508,0,0,1,376.252-393.212Zm6.323,13.251-5.734-6-.005-.006-.006-.005-5.734-6,1.373-1.436.738.772.212.222L383-382.391l.165.173.785.821Zm.443-9.354-2.977-3.113,8.3-10.416L392.979-398Zm-17.039,14.16H382.1a.745.745,0,0,0,.768-.721.745.745,0,0,0-.768-.72H365.979a.745.745,0,0,0-.768.72A.745.745,0,0,0,365.979-375.155Z" transform="translate(361.539 553.405)" fill="#0f3653" stroke="#0f3653" stroke-width="0.5"/>
  </g>
</svg>
