<svg xmlns="http://www.w3.org/2000/svg" xmlns:xlink="http://www.w3.org/1999/xlink" width="21" height="30" viewBox="0 0 21 30">
  <defs>
    <clipPath id="clip-path">
      <rect id="사각형_1189" data-name="사각형 1189" width="21" height="30" fill="#fff" stroke="#707070" stroke-width="1"/>
    </clipPath>
  </defs>
  <g id="마스크_그룹_166" data-name="마스크 그룹 166" clip-path="url(#clip-path)">
    <g id="그룹_994" data-name="그룹 994" transform="translate(-4.223 -4.223)">
      <g id="그룹_992" data-name="그룹 992" transform="translate(0 0)">
        <g id="그룹_988" data-name="그룹 988" transform="translate(8.09 11.586)">
          <path id="패스_1830" data-name="패스 1830" d="M4190.732,1238.373l-.063,22.485-6.682-5.76-6.714,5.722.063-22.485Z" transform="translate(-4177.273 -1238.336)" fill="#72787f"/>
          <g id="그룹_987" data-name="그룹 987" transform="translate(0.948 0.003)">
            <path id="패스_1831" data-name="패스 1831" d="M4368.6,1260.2l.395.34.062-21.675h-.4Z" transform="translate(-4357.49 -1238.838)" fill="#454c53"/>
            <path id="패스_1832" data-name="패스 1832" d="M4192.321,1260.05l.4-.339.059-21.333h-.4Z" transform="translate(-4192.321 -1238.377)" fill="#454c53"/>
          </g>
        </g>
        <path id="패스_1833" data-name="패스 1833" d="M4177.942,1281.526v10.46a11.381,11.381,0,0,0,13.374-.027v-10.433Z" transform="translate(-4169.81 -1267.218)" fill="#454c53" opacity="0.46" style="mix-blend-mode: multiply;isolation: isolate"/>
        <g id="그룹_991" data-name="그룹 991">
          <g id="그룹_989" data-name="그룹 989">
            <circle id="타원_407" data-name="타원 407" cx="10.478" cy="10.478" r="10.478" transform="translate(0 14.819) rotate(-45)" fill="#72787f"/>
          </g>
          <path id="패스_1834" data-name="패스 1834" d="M4163.115,1129.031a10.454,10.454,0,0,1-10.985,16.482,10.471,10.471,0,1,0,10.985-16.482Z" transform="translate(-4145.625 -1124.334)" fill="#9ea4aa"/>
          <g id="그룹_990" data-name="그룹 990" transform="translate(6.355 6.355)">
            <path id="패스_1835" data-name="패스 1835" d="M4158.221,1172.269a8.463,8.463,0,1,1,8.463-8.463A8.473,8.473,0,0,1,4158.221,1172.269Zm0-16.389a7.926,7.926,0,1,0,7.926,7.926A7.935,7.935,0,0,0,4158.221,1155.879Z" transform="translate(-4149.758 -1155.342)" fill="#454c53"/>
          </g>
        </g>
      </g>
      <path id="패스_4978" data-name="패스 4978" d="M3.99.2A3.6,3.6,0,0,0,7.756-3.5,3.036,3.036,0,0,0,4.508-6.79a2.642,2.642,0,0,0-1.078.21l.154-1.764h3.71v-2.072H1.442L1.176-5.264l1.092.714a2.307,2.307,0,0,1,1.47-.5,1.45,1.45,0,0,1,1.526,1.61A1.479,1.479,0,0,1,3.626-1.82a3.17,3.17,0,0,1-2.142-.994L.35-1.246A4.963,4.963,0,0,0,3.99.2Z" transform="translate(10.766 20.223)" fill="#c9cdd2"/>
    </g>
  </g>
</svg>
