<svg width="26" height="22" viewBox="0 0 26 22" fill="none" xmlns="http://www.w3.org/2000/svg">
<path d="M5.58115 22C8.30366 22 10.2094 20.189 10.2094 17.2378C10.2094 14.4207 8.03141 12.811 5.58115 12.811C5.37696 12.811 5.10471 12.811 4.90052 12.878C4.90052 8.65244 6.94241 5.90244 11.0262 3.48781L9.05236 0C3.06283 3.15244 0 7.84756 0 14.2195C0 19.1829 1.97382 22 5.58115 22ZM20.4869 22C23.2094 22 25.1832 20.189 25.1832 17.2378C25.1832 14.4207 23.0052 12.811 20.4869 12.811C20.2827 12.811 20.0785 12.811 19.8743 12.878C19.8743 8.65244 21.9162 5.90244 26 3.48781L23.9581 0C18.0366 3.15244 14.9738 7.84756 14.9738 14.2195C14.9738 19.1829 16.9476 22 20.4869 22Z" fill="#373737"/>
</svg>
