<svg xmlns="http://www.w3.org/2000/svg" xmlns:xlink="http://www.w3.org/1999/xlink" width="35" height="35" viewBox="0 0 35 35">
  <defs>
    <clipPath id="clip-path">
      <rect id="Rectangle_785" data-name="Rectangle 785" width="35" height="35" transform="translate(30 305)" fill="#262c3a" stroke="#707070" stroke-width="1"/>
    </clipPath>
  </defs>
  <g id="ico_class_student" transform="translate(-30 -305)" clip-path="url(#clip-path)">
    <g id="reading-book_1_" data-name="reading-book (1)" transform="translate(33.198 309)">
      <path id="Path_933" data-name="Path 933" d="M25.8,17.651a2.679,2.679,0,0,0-2.14-2.621V12.142a.8.8,0,0,0-1.084-.751l-1.531.574A9.354,9.354,0,0,0,17.48,9.649a5.349,5.349,0,1,0-6.355,0,9.355,9.355,0,0,0-3.567,2.316l-1.531-.574a.8.8,0,0,0-1.084.751v2.889a2.675,2.675,0,0,0,0,5.241v3.1a.8.8,0,0,0,.521.751l8.558,3.209a.811.811,0,0,0,.563,0l8.558-3.209a.8.8,0,0,0,.521-.751v-3.1A2.679,2.679,0,0,0,25.8,17.651ZM10.558,5.349A3.744,3.744,0,1,1,14.3,9.093a3.744,3.744,0,0,1-3.742-3.744ZM14.3,10.7a7.744,7.744,0,0,1,5.076,1.893l-5.076,1.9-5.076-1.9A7.744,7.744,0,0,1,14.3,10.7ZM4.4,17.653a1.071,1.071,0,0,1,1.07-1.07h.535v2.14H5.477a1.071,1.071,0,0,1-1.07-1.072ZM6.547,20.3a1.34,1.34,0,0,0,1.07-1.31V16.314A1.34,1.34,0,0,0,6.547,15V13.3L13.5,15.907v9.519L6.547,22.818ZM15.1,25.426V15.907L22.058,13.3V15a1.34,1.34,0,0,0-1.07,1.31v2.674a1.34,1.34,0,0,0,1.07,1.31v2.52Zm8.023-6.7h-.535v-2.14h.535a1.07,1.07,0,0,1,0,2.14Z" fill="#262c3a"/>
    </g>
  </g>
</svg>
