<svg id="ico_notice" xmlns="http://www.w3.org/2000/svg" xmlns:xlink="http://www.w3.org/1999/xlink" width="20" height="20" viewBox="0 0 20 20">
  <defs>
    <clipPath id="clip-path">
      <rect id="사각형_394" data-name="사각형 394" width="20" height="20" transform="translate(-60 8)" fill="#fff" stroke="#707070" stroke-width="1"/>
    </clipPath>
  </defs>
  <g id="icon_공지사항" transform="translate(60 -8)" clip-path="url(#clip-path)">
    <g id="free-icon-sticky-note-2554926" transform="translate(-60 8)">
      <path id="패스_778" data-name="패스 778" d="M16.738,2.1H12.629a2.7,2.7,0,0,0-5.258,0H3.262A2.245,2.245,0,0,0,1.016,4.339V17.761A2.245,2.245,0,0,0,3.262,20H14.815a.586.586,0,0,0,.413-.171l3.584-3.569a.586.586,0,0,0,.172-.415V4.339A2.245,2.245,0,0,0,16.738,2.1ZM10,1.172A1.513,1.513,0,1,1,8.478,2.685,1.519,1.519,0,0,1,10,1.172ZM2.188,17.761V4.339A1.072,1.072,0,0,1,3.262,3.271H7.371a2.7,2.7,0,0,0,5.258,0h4.109a1.072,1.072,0,0,1,1.074,1.068V15.259h-3a.586.586,0,0,0-.586.586v2.983H3.262A1.072,1.072,0,0,1,2.188,17.761Zm14.792-1.33L15.4,18V16.431Z" fill="#0e3552"/>
      <path id="패스_779" data-name="패스 779" d="M4.764,7.712H15.236a.586.586,0,0,0,0-1.172H4.764a.586.586,0,1,0,0,1.172Z" fill="#0e3552"/>
      <path id="패스_780" data-name="패스 780" d="M4.764,10.056h9.3a.586.586,0,0,0,0-1.172h-9.3a.586.586,0,1,0,0,1.172Z" fill="#0e3552"/>
      <path id="패스_781" data-name="패스 781" d="M4.764,12.4H15.236a.586.586,0,0,0,0-1.172H4.764a.586.586,0,1,0,0,1.172Z" fill="#0e3552"/>
      <path id="패스_782" data-name="패스 782" d="M11.72,13.572H4.764a.586.586,0,1,0,0,1.172H11.72a.586.586,0,0,0,0-1.172Z" fill="#0e3552"/>
    </g>
  </g>
</svg>
