<svg width="25" height="26" viewBox="0 0 25 26" fill="none" xmlns="http://www.w3.org/2000/svg">
<path d="M24.01 8.9H16.08C16.1358 8.55076 16.1639 8.19766 16.164 7.844C16.164 3.8 12.539 0.5 8.082 0.5C3.625 0.5 0 3.8 0 7.847C0.0100029 8.81955 0.221303 9.77949 0.620589 10.6664C1.01988 11.5532 1.5985 12.3478 2.32 13L2.3 15.556C2.29925 15.696 2.33849 15.8332 2.4131 15.9517C2.48771 16.0701 2.59458 16.1648 2.72115 16.2245C2.84773 16.2843 2.98873 16.3067 3.12759 16.2891C3.26645 16.2714 3.39739 16.2145 3.505 16.125L5.2 14.713C5.89429 14.9541 6.61641 15.106 7.349 15.165V21.647C7.34926 21.9044 7.45165 22.1513 7.63369 22.3333C7.81573 22.5154 8.06256 22.6177 8.32 22.618H16.78L20.03 25.33C20.1377 25.4196 20.2687 25.4765 20.4077 25.4941C20.5466 25.5117 20.6877 25.4892 20.8143 25.4293C20.9409 25.3694 21.0478 25.2746 21.1223 25.156C21.1968 25.0375 21.2359 24.9001 21.235 24.76L21.217 22.619H24.009C24.1366 22.6191 24.2631 22.5941 24.381 22.5454C24.499 22.4967 24.6062 22.4252 24.6966 22.335C24.787 22.2448 24.8587 22.1378 24.9076 22.0199C24.9566 21.902 24.9819 21.7756 24.982 21.648V9.874C24.9823 9.74619 24.9573 9.61958 24.9086 9.50142C24.8599 9.38326 24.7883 9.27587 24.698 9.1854C24.6077 9.09493 24.5005 9.02315 24.3824 8.97418C24.2644 8.92521 24.1378 8.9 24.01 8.9ZM8.082 13.725C7.83467 13.725 7.58967 13.713 7.347 13.689C6.65524 13.6224 5.97683 13.4556 5.333 13.194C5.20953 13.1437 5.07468 13.1279 4.94292 13.1483C4.81115 13.1687 4.68743 13.2246 4.585 13.31L3.785 13.981L3.796 12.681C3.79706 12.5728 3.77422 12.4657 3.72911 12.3673C3.68399 12.269 3.61771 12.1818 3.535 12.112C2.89673 11.5981 2.38038 10.949 2.02313 10.2115C1.66588 9.47397 1.47663 8.66643 1.469 7.847C1.469 4.606 4.435 1.969 8.082 1.969C11.729 1.969 14.695 4.606 14.695 7.847C14.6947 8.20075 14.6586 8.55356 14.587 8.9C14.4812 9.41312 14.301 9.90802 14.052 10.369C13.5146 11.3059 12.757 12.0976 11.8446 12.6756C10.9322 13.2536 9.89265 13.6004 8.816 13.686C8.575 13.712 8.33 13.725 8.082 13.725ZM23.511 21.148H20.474C20.377 21.148 20.2809 21.1672 20.1913 21.2045C20.1018 21.2418 20.0205 21.2965 19.9521 21.3654C19.8838 21.4343 19.8298 21.516 19.7932 21.6059C19.7566 21.6958 19.7382 21.792 19.739 21.889L19.75 23.189L17.514 21.322C17.3819 21.2116 17.2152 21.1511 17.043 21.151H8.817V15.164C10.2899 15.0728 11.7091 14.5774 12.9188 13.7322C14.1285 12.8869 15.0818 11.7247 15.674 10.373H23.511V21.148Z" fill="#0F3653"/>
<path d="M21.65 13.8482H14.905C14.7751 13.8482 14.6504 13.7965 14.5586 13.7046C14.4667 13.6128 14.415 13.4881 14.415 13.3582C14.415 13.2282 14.4667 13.1036 14.5586 13.0117C14.6504 12.9198 14.7751 12.8682 14.905 12.8682H21.65C21.78 12.8682 21.9046 12.9198 21.9965 13.0117C22.0884 13.1036 22.14 13.2282 22.14 13.3582C22.14 13.4881 22.0884 13.6128 21.9965 13.7046C21.9046 13.7965 21.78 13.8482 21.65 13.8482Z" fill="#0F3653"/>
<path d="M21.6241 16.5913H11.1421C11.0121 16.5913 10.8875 16.5397 10.7956 16.4478C10.7037 16.3559 10.6521 16.2313 10.6521 16.1013C10.6521 15.9714 10.7037 15.8467 10.7956 15.7548C10.8875 15.663 11.0121 15.6113 11.1421 15.6113H21.6241C21.7541 15.6113 21.8787 15.663 21.9706 15.7548C22.0625 15.8467 22.1141 15.9714 22.1141 16.1013C22.1141 16.2313 22.0625 16.3559 21.9706 16.4478C21.8787 16.5397 21.7541 16.5913 21.6241 16.5913Z" fill="#0F3653"/>
<path d="M21.6241 19.3335H11.1421C11.0121 19.3335 10.8875 19.2819 10.7956 19.19C10.7037 19.0981 10.6521 18.9735 10.6521 18.8435C10.6521 18.7136 10.7037 18.5889 10.7956 18.497C10.8875 18.4051 11.0121 18.3535 11.1421 18.3535H21.6241C21.7541 18.3535 21.8787 18.4051 21.9706 18.497C22.0625 18.5889 22.1141 18.7136 22.1141 18.8435C22.1141 18.9735 22.0625 19.0981 21.9706 19.19C21.8787 19.2819 21.7541 19.3335 21.6241 19.3335Z" fill="#0F3653"/>
<path d="M10.151 6.07613C10.1149 5.57835 9.90077 5.11021 9.54786 4.7573C9.19495 4.40439 8.72681 4.19029 8.22903 4.15413C7.94471 4.13292 7.65908 4.17113 7.39033 4.26634C7.12158 4.36155 6.8756 4.51166 6.66803 4.70713C6.46046 4.9014 6.29489 5.13615 6.18155 5.39689C6.06821 5.65763 6.00949 5.93882 6.00903 6.22313C6.00903 6.28748 6.02171 6.3512 6.04633 6.41065C6.07096 6.47009 6.10705 6.52411 6.15255 6.56961C6.19805 6.61511 6.25207 6.65121 6.31152 6.67583C6.37097 6.70046 6.43469 6.71313 6.49903 6.71313C6.56338 6.71313 6.6271 6.70046 6.68655 6.67583C6.746 6.65121 6.80002 6.61511 6.84552 6.56961C6.89102 6.52411 6.92711 6.47009 6.95173 6.41065C6.97636 6.3512 6.98903 6.28748 6.98903 6.22313C6.98897 6.01704 7.04712 5.81511 7.15679 5.64062C7.26646 5.46613 7.42319 5.32617 7.60892 5.23685C7.79466 5.14754 8.00184 5.1125 8.20662 5.13578C8.41139 5.15907 8.60543 5.23972 8.76637 5.36845C8.92732 5.49718 9.04862 5.66875 9.11632 5.86341C9.18402 6.05807 9.19536 6.26789 9.14903 6.46871C9.1027 6.66953 9.00059 6.85318 8.85445 6.9985C8.70832 7.14383 8.52411 7.24492 8.32303 7.29013C8.1157 7.33522 7.93011 7.45007 7.79725 7.61551C7.66439 7.78094 7.59231 7.98695 7.59303 8.19913V9.37413C7.59303 9.43848 7.60571 9.5022 7.63033 9.56165C7.65496 9.6211 7.69105 9.67511 7.73655 9.72061C7.78205 9.76611 7.83607 9.80221 7.89552 9.82683C7.95497 9.85146 8.01869 9.86413 8.08303 9.86413C8.14738 9.86413 8.2111 9.85146 8.27055 9.82683C8.33 9.80221 8.38402 9.76611 8.42952 9.72061C8.47502 9.67511 8.51111 9.6211 8.53573 9.56165C8.56036 9.5022 8.57303 9.43848 8.57303 9.37413V8.23913C9.05052 8.12538 9.4718 7.84511 9.76121 7.44866C10.0506 7.05222 10.1892 6.56557 10.152 6.07613H10.151Z" fill="#0F3653"/>
<path d="M8.42804 10.9663C8.34776 10.8862 8.2422 10.8365 8.12935 10.8255C8.01651 10.8146 7.90336 10.8431 7.80919 10.9062C7.71501 10.9694 7.64565 11.0632 7.61291 11.1718C7.58018 11.2803 7.58609 11.3968 7.62966 11.5015C7.67322 11.6062 7.75173 11.6925 7.85182 11.7458C7.9519 11.7991 8.06736 11.816 8.17851 11.7937C8.28967 11.7713 8.38965 11.7112 8.46141 11.6234C8.53316 11.5356 8.57226 11.4257 8.57204 11.3123C8.57178 11.1824 8.51999 11.058 8.42804 10.9663Z" fill="#0F3653"/>
</svg>
