<svg width="25" height="26" viewBox="0 0 25 26" fill="none" xmlns="http://www.w3.org/2000/svg">
<path d="M6.43695 8.88432C6.32792 8.74398 6.27213 8.56956 6.27945 8.392C6.28677 8.21444 6.35674 8.04521 6.47695 7.91432C7.26826 7.11708 8.20953 6.48433 9.24651 6.05254C10.2835 5.62074 11.3957 5.39844 12.5189 5.39844C13.6422 5.39844 14.7544 5.62074 15.7914 6.05254C16.8284 6.48433 17.7696 7.11708 18.5609 7.91432C18.6949 8.04826 18.7701 8.22991 18.7701 8.41932C18.7701 8.60873 18.6949 8.79039 18.5609 8.92432C18.427 9.05826 18.2454 9.1335 18.0559 9.1335C17.8665 9.1335 17.6849 9.05826 17.5509 8.92432C16.8898 8.25746 16.1032 7.72814 15.2365 7.36691C14.3697 7.00568 13.44 6.8197 12.5009 6.8197C11.5619 6.8197 10.6322 7.00568 9.76544 7.36691C8.89868 7.72814 8.11205 8.25746 7.45095 8.92432C7.38248 8.98972 7.30157 9.04067 7.21301 9.07416C7.12446 9.10765 7.03007 9.12298 6.93547 9.11925C6.84086 9.11552 6.74798 9.0928 6.66234 9.05244C6.57669 9.01208 6.50004 8.95491 6.43695 8.88432Z" fill="#0F3653"/>
<path d="M3.28504 5.77184C3.15346 5.63667 3.07983 5.45548 3.07983 5.26684C3.07983 5.0782 3.15346 4.89701 3.28504 4.76184C4.49477 3.551 5.93127 2.59044 7.51244 1.93507C9.09361 1.27971 10.7884 0.942383 12.5 0.942383C14.2116 0.942383 15.9065 1.27971 17.4876 1.93507C19.0688 2.59044 20.5053 3.551 21.715 4.76184C21.849 4.89644 21.924 5.07873 21.9235 5.26861C21.923 5.45849 21.8471 5.6404 21.7125 5.77434C21.5779 5.90827 21.3956 5.98325 21.2058 5.98278C21.0159 5.98232 20.834 5.90644 20.7 5.77184C18.515 3.5976 15.558 2.37702 12.4755 2.37702C9.39308 2.37702 6.43603 3.5976 4.25104 5.77184C4.11856 5.89137 3.94647 5.95753 3.76804 5.95753C3.58961 5.95753 3.41751 5.89137 3.28504 5.77184Z" fill="#0F3653"/>
<path d="M15.817 12.652C15.824 12.559 15.829 12.468 15.829 12.372C15.829 11.4883 15.478 10.6408 14.8531 10.016C14.2282 9.39109 13.3807 9.04004 12.497 9.04004C11.6133 9.04004 10.7658 9.39109 10.1409 10.016C9.51605 10.6408 9.165 11.4883 9.165 12.372C9.165 12.466 9.165 12.56 9.177 12.652H0V25.057H25V12.652H15.817ZM10.391 12.372C10.3904 11.8249 10.6024 11.2988 10.9824 10.9051C11.3623 10.5113 11.8805 10.2807 12.4273 10.2618C12.9742 10.243 13.507 10.4374 13.9132 10.8041C14.3193 11.1707 14.5671 11.6809 14.6042 12.2268C14.6412 12.7727 14.4646 13.3117 14.1117 13.7298C13.7588 14.148 13.2571 14.4126 12.7127 14.4678C12.1683 14.523 11.6238 14.3645 11.1941 14.0257C10.7645 13.6868 10.4833 13.1943 10.41 12.652C10.3975 12.5592 10.3911 12.4657 10.391 12.372ZM6.366 22.652H2.585V17.342H3.678V21.752H6.365L6.366 22.652ZM9.582 22.652H8.487V17.312H9.582V22.652ZM14.49 22.652H13.329L11.4 17.311H12.565L13.925 21.257L15.216 17.311H16.38L14.49 22.652ZM22.415 22.652H18.336V17.312H22.316V18.212H19.43V19.412H22.116V20.312H19.43V21.771H22.414L22.415 22.652Z" fill="#0F3653"/>
</svg>
