<svg xmlns="http://www.w3.org/2000/svg" xmlns:xlink="http://www.w3.org/1999/xlink" width="16" height="16" viewBox="0 0 16 16">
  <defs>
    <clipPath id="clip-path">
      <rect id="사각형_1006" data-name="사각형 1006" width="16" height="16" transform="translate(163 251)" fill="#fff" stroke="#707070" stroke-width="1"/>
    </clipPath>
  </defs>
  <g id="마스크_그룹_150" data-name="마스크 그룹 150" transform="translate(-163 -251)" clip-path="url(#clip-path)">
    <g id="그룹_907" data-name="그룹 907" transform="translate(-191.479 -22.626)">
      <path id="패스_2127" data-name="패스 2127" d="M370.168,284.446a3.175,3.175,0,0,0-1.581-1.076c-.179-.074-.349-.144-.486-.216a1.848,1.848,0,0,1-.914-2.217c.062-.342.327-1.5.455-1.991a2.753,2.753,0,1,0-3.064-.707c-.1.5-.365,1.657-.458,1.989a1.841,1.841,0,0,1-1.789,1.594c-.157,0-.337-.007-.531-.02s-.4-.025-.6-.025a2.461,2.461,0,0,0-1.288.3,2.078,2.078,0,0,0-.812,1.258,5.9,5.9,0,0,0-.164.7,1.855,1.855,0,0,0,1.591,2.241l7.259,1.678a2.781,2.781,0,0,0,.625.076h0a1.78,1.78,0,0,0,1.784-1.393,6.073,6.073,0,0,0,.157-.7A2.083,2.083,0,0,0,370.168,284.446Zm-.869,1.317a5,5,0,0,1-.129.576.718.718,0,0,1-.761.62h0a1.729,1.729,0,0,1-.386-.048l-7.259-1.678c-.811-.188-.85-.62-.781-1.018a4.829,4.829,0,0,1,.134-.573c.049-.162.163-.541.347-.654a1.418,1.418,0,0,1,.733-.142c.174,0,.359.011.537.023.208.013.428.026.622.021a2.865,2.865,0,0,0,2.788-2.371c.059-.209.2-.781.319-1.331.264-1.178.292-1.3.034-1.537a1.7,1.7,0,0,1-.523-1.643,1.685,1.685,0,1,1,2.095,2.008c-.332.1-.36.219-.637,1.4-.128.547-.254,1.121-.293,1.337a2.875,2.875,0,0,0,1.474,3.356c.178.092.376.174.569.254a2.473,2.473,0,0,1,1.091.665A1.309,1.309,0,0,1,369.3,285.763Z" transform="translate(-2.066 0)" fill="#fff"/>
      <path id="패스_2128" data-name="패스 2128" d="M367.4,371.976h-10.39a.509.509,0,1,0,0,1.018H367.4a.509.509,0,1,0,0-1.018Z" transform="translate(0 -83.368)" fill="#fff"/>
    </g>
  </g>
</svg>
