<svg xmlns="http://www.w3.org/2000/svg" xmlns:xlink="http://www.w3.org/1999/xlink" width="16" height="16" viewBox="0 0 16 16">
  <defs>
    <clipPath id="clip-path">
      <circle id="타원_373" data-name="타원 373" cx="8" cy="8" r="8" fill="#2c93e8"/>
    </clipPath>
  </defs>
  <g id="icon_스티커" clip-path="url(#clip-path)">
    <path id="smile" d="M8,16A8,8,0,0,1,2.343,2.343,8,8,0,0,1,13.657,13.657,7.948,7.948,0,0,1,8,16ZM8,1.25A6.75,6.75,0,1,0,14.75,8,6.758,6.758,0,0,0,8,1.25Zm2.929,8.131a.625.625,0,0,0-.863.192,2.751,2.751,0,0,1-2.1,1.211,2.751,2.751,0,0,1-2.1-1.211.625.625,0,1,0-1.055.671,4.018,4.018,0,0,0,3.152,1.789,4.018,4.018,0,0,0,3.152-1.789.625.625,0,0,0-.192-.863ZM5.25,5.156a.781.781,0,1,1-.781.781A.781.781,0,0,1,5.25,5.156Zm4.688.781a.781.781,0,1,0,.781-.781A.781.781,0,0,0,9.938,5.938Z" transform="translate(0)" fill="#2c93e8"/>
  </g>
</svg>
