<svg width="26" height="24" viewBox="0 0 26 24" fill="none" xmlns="http://www.w3.org/2000/svg">
<rect x="0.667236" width="24.8202" height="24" rx="5" fill="#63C1FF"/>
<path d="M13.688 12.5905L8.35456 17.7477C8.19173 17.9051 7.97088 17.9936 7.7406 17.9936C7.51031 17.9936 7.28946 17.9051 7.12663 17.7477C6.96379 17.5902 6.87231 17.3767 6.87231 17.154C6.87231 16.9313 6.96379 16.7178 7.12663 16.5603L11.8461 11.9908L7.12663 7.43327C6.96379 7.27581 6.87231 7.06226 6.87231 6.83959C6.87231 6.61692 6.96379 6.40336 7.12663 6.24591C7.28946 6.08846 7.51031 6 7.7406 6C7.97088 6 8.19173 6.08846 8.35456 6.24591L13.688 11.4031C13.7686 11.4811 13.8326 11.5736 13.8762 11.6755C13.9199 11.7774 13.9423 11.8865 13.9423 11.9968C13.9423 12.107 13.9199 12.2162 13.8762 12.3181C13.8326 12.42 13.7686 12.5125 13.688 12.5905Z" fill="white"/>
<path d="M19.8257 12.5905L14.4923 17.7477C14.3294 17.9051 14.1086 17.9936 13.8783 17.9936C13.648 17.9936 13.4272 17.9051 13.2643 17.7477C13.1015 17.5902 13.01 17.3767 13.01 17.154C13.01 16.9313 13.1015 16.7178 13.2643 16.5603L17.9838 11.9908L13.2643 7.43327C13.1015 7.27581 13.01 7.06226 13.01 6.83959C13.01 6.61692 13.1015 6.40336 13.2643 6.24591C13.4272 6.08846 13.648 6 13.8783 6C14.1086 6 14.3294 6.08846 14.4923 6.24591L19.8257 11.4031C19.9063 11.4811 19.9703 11.5736 20.0139 11.6755C20.0576 11.7774 20.08 11.8865 20.08 11.9968C20.08 12.107 20.0576 12.2162 20.0139 12.3181C19.9703 12.42 19.9063 12.5125 19.8257 12.5905Z" fill="white" fill-opacity="0.6"/>
</svg>
