<svg width="25" height="22" viewBox="0 0 25 22" fill="none" xmlns="http://www.w3.org/2000/svg">
<path d="M23 11.3323C23.5461 11.2825 24.0539 11.0305 24.4238 10.6257C24.7938 10.221 24.9993 9.69268 25 9.14433V2.31133C25 1.72785 24.7682 1.16827 24.3556 0.755693C23.9431 0.343113 23.3835 0.111328 22.8 0.111328L15.527 0.111328C14.9435 0.111328 14.3839 0.343113 13.9714 0.755693C13.5588 1.16827 13.327 1.72785 13.327 2.31133V5.18933H4.2C3.61704 5.18933 3.05792 5.4207 2.64543 5.83263C2.23293 6.24456 2.0008 6.80337 2 7.38633V16.1753C1.9998 16.4247 2.04242 16.6723 2.126 16.9073H1.316C0.966618 16.9079 0.631742 17.0471 0.384973 17.2944C0.138204 17.5418 -0.000265106 17.8769 3.81062e-07 18.2263C0.0013232 19.1971 0.387565 20.1278 1.07404 20.8143C1.76051 21.5008 2.69118 21.887 3.662 21.8883H21.338C22.3089 21.8873 23.2397 21.5011 23.9263 20.8146C24.6128 20.1281 24.9989 19.1972 25 18.2263C24.9992 17.8773 24.86 17.5428 24.6129 17.2963C24.3658 17.0498 24.031 16.9113 23.682 16.9113H22.872C22.9567 16.6752 23 16.4262 23 16.1753V11.3323ZM14.795 2.31133C14.795 2.11719 14.8721 1.931 15.0094 1.79373C15.1467 1.65645 15.3329 1.57933 15.527 1.57933H22.8C22.9941 1.57933 23.1803 1.65645 23.3176 1.79373C23.4549 1.931 23.532 2.11719 23.532 2.31133V9.14433C23.532 9.33847 23.4549 9.52465 23.3176 9.66193C23.1803 9.79921 22.9941 9.87633 22.8 9.87633H16.016C15.8788 9.87624 15.7444 9.9147 15.628 9.98733L14.151 10.9103L14.764 8.86633C14.7845 8.79821 14.7949 8.72746 14.795 8.65633V2.31133ZM21.338 20.4263H3.662C3.1045 20.4255 2.56809 20.2131 2.16119 19.832C1.75429 19.4509 1.50725 18.9296 1.47 18.3733H23.53C23.4923 18.9292 23.245 19.4501 22.8382 19.8308C22.4313 20.2115 21.8952 20.4236 21.338 20.4243V20.4263ZM6.982 11.3903C6.982 11.2262 7.03068 11.0657 7.12188 10.9292C7.21308 10.7927 7.34271 10.6863 7.49437 10.6235C7.64604 10.5607 7.81292 10.5443 7.97393 10.5763C8.13493 10.6083 8.28282 10.6874 8.3989 10.8034C8.51498 10.9195 8.59403 11.0674 8.62605 11.2284C8.65808 11.3894 8.64164 11.5563 8.57882 11.708C8.516 11.8596 8.40962 11.9892 8.27312 12.0804C8.13663 12.1716 7.97616 12.2203 7.812 12.2203C7.59187 12.2203 7.38076 12.1329 7.2251 11.9772C7.06945 11.8216 6.982 11.6105 6.982 11.3903ZM6.592 14.5113C6.592 14.0693 7.162 13.6813 7.813 13.6813C8.14507 13.6765 8.46935 13.782 8.735 13.9813C8.82089 14.0426 8.89228 14.1221 8.94411 14.214C8.99595 14.3059 9.02698 14.4081 9.035 14.5133V16.9113H6.592V14.5113ZM10.5 16.9113V14.5113C10.4939 14.1862 10.4144 13.8666 10.2673 13.5766C10.1203 13.2865 9.90962 13.0335 9.651 12.8363L9.612 12.8113C9.87951 12.4731 10.0463 12.0664 10.0933 11.6377C10.1403 11.2091 10.0656 10.7758 9.87773 10.3877C9.68986 9.99956 9.39643 9.6722 9.03107 9.44314C8.66572 9.21408 8.24322 9.09259 7.812 9.09259C7.38078 9.09259 6.95828 9.21408 6.59293 9.44314C6.22757 9.6722 5.93414 9.99956 5.74627 10.3877C5.55839 10.7758 5.48367 11.2091 5.53067 11.6377C5.57767 12.0664 5.74449 12.4731 6.012 12.8113C5.74325 13.0073 5.52338 13.2626 5.36952 13.5575C5.21567 13.8524 5.13199 14.1788 5.125 14.5113V16.9113H4.2C4.00586 16.9113 3.81967 16.8342 3.6824 16.6969C3.54512 16.5597 3.468 16.3735 3.468 16.1793V7.38633C3.468 7.19219 3.54512 7.006 3.6824 6.86873C3.81967 6.73145 4.00586 6.65433 4.2 6.65433H13.33V8.54933L12.747 10.4903C12.6616 10.7755 12.6652 11.0799 12.7571 11.363C12.8491 11.6461 13.0251 11.8944 13.2617 12.075C13.4983 12.2556 13.7843 12.3598 14.0816 12.3738C14.3789 12.3878 14.6735 12.3109 14.926 12.1533L16.226 11.3413H21.534V16.1753C21.534 16.3695 21.4569 16.5557 21.3196 16.6929C21.1823 16.8302 20.9961 16.9073 20.802 16.9073L10.5 16.9113Z" fill="#0F3653"/>
<path d="M18.7501 6.75195H17.1881C16.9938 6.75195 16.8075 6.82913 16.6701 6.9665C16.5327 7.10387 16.4556 7.29018 16.4556 7.48445C16.4556 7.67872 16.5327 7.86504 16.6701 8.00241C16.8075 8.13978 16.9938 8.21695 17.1881 8.21695H18.7501C18.9443 8.21695 19.1307 8.13978 19.268 8.00241C19.4054 7.86504 19.4826 7.67872 19.4826 7.48445C19.4826 7.29018 19.4054 7.10387 19.268 6.9665C19.1307 6.82913 18.9443 6.75195 18.7501 6.75195Z" fill="#0F3653"/>
<path d="M17.1881 4.70133H21.0941C21.2883 4.70133 21.4747 4.62415 21.612 4.48678C21.7494 4.34941 21.8266 4.1631 21.8266 3.96883C21.8266 3.77456 21.7494 3.58824 21.612 3.45087C21.4747 3.3135 21.2883 3.23633 21.0941 3.23633H17.1881C16.9938 3.23633 16.8075 3.3135 16.6701 3.45087C16.5327 3.58824 16.4556 3.77456 16.4556 3.96883C16.4556 4.1631 16.5327 4.34941 16.6701 4.48678C16.8075 4.62415 16.9938 4.70133 17.1881 4.70133Z" fill="#0F3653"/>
</svg>
