<svg id="icon_break_time" xmlns="http://www.w3.org/2000/svg" xmlns:xlink="http://www.w3.org/1999/xlink" width="30" height="30" viewBox="0 0 30 30">
  <defs>
    <clipPath id="clip-path">
      <rect id="사각형_117" data-name="사각형 117" width="30" height="30" rx="10" fill="#2c93e8"/>
    </clipPath>
  </defs>
  <g id="icon_쉬는시간_알림" data-name="icon_쉬는시간 알림" clip-path="url(#clip-path)">
    <g id="bell_2_" data-name="bell (2)" transform="translate(1.25)">
      <path id="패스_81" data-name="패스 81" d="M33.7,13.9a.938.938,0,0,1-.937-.937,13.352,13.352,0,0,0-3.935-9.5.938.938,0,0,1,1.326-1.326,15.218,15.218,0,0,1,4.484,10.829.938.938,0,0,1-.937.938Zm0,0" transform="translate(-7.138 -0.466)" fill="#2c93e8"/>
      <path id="패스_82" data-name="패스 82" d="M.938,13.9A.938.938,0,0,1,0,12.966,15.21,15.21,0,0,1,4.485,2.138.938.938,0,0,1,5.811,3.465a13.343,13.343,0,0,0-3.936,9.5.938.938,0,0,1-.937.938Zm0,0" transform="translate(0 -0.466)" fill="#2c93e8"/>
      <path id="패스_83" data-name="패스 83" d="M16.771,38.125a4.692,4.692,0,0,1-4.687-4.687.938.938,0,0,1,1.875,0,2.813,2.813,0,0,0,5.625,0,.938.938,0,0,1,1.875,0A4.692,4.692,0,0,1,16.771,38.125Zm0,0" transform="translate(-3.021 -8.125)" fill="#2c93e8"/>
      <path id="패스_84" data-name="패스 84" d="M24.479,27.5H3.854a2.188,2.188,0,0,1-1.422-3.85,8.377,8.377,0,0,0,2.985-6.415V13.75a8.75,8.75,0,0,1,17.5,0v3.485a8.375,8.375,0,0,0,2.972,6.406,2.187,2.187,0,0,1-1.41,3.859ZM14.167,6.875A6.882,6.882,0,0,0,7.292,13.75v3.485a10.245,10.245,0,0,1-3.637,7.837.312.312,0,0,0-.113.24.316.316,0,0,0,.313.312H24.479a.316.316,0,0,0,.312-.312.308.308,0,0,0-.11-.238,10.248,10.248,0,0,1-3.64-7.84V13.75a6.882,6.882,0,0,0-6.875-6.875Zm0,0" transform="translate(-0.417 -1.25)" fill="#2c93e8"/>
      <path id="패스_85" data-name="패스 85" d="M18.021,5.625a.938.938,0,0,1-.937-.937V.938a.938.938,0,0,1,1.875,0v3.75A.938.938,0,0,1,18.021,5.625Zm0,0" transform="translate(-4.271)" fill="#2c93e8"/>
    </g>
  </g>
</svg>
