<svg xmlns="http://www.w3.org/2000/svg" xmlns:xlink="http://www.w3.org/1999/xlink" width="30" height="30" viewBox="0 0 30 30">
  <defs>
    <clipPath id="clip-path">
      <rect id="사각형_1244" data-name="사각형 1244" width="30" height="30" transform="translate(1244 135)" fill="#fff" stroke="#707070" stroke-width="1"/>
    </clipPath>
  </defs>
  <g id="마스크_그룹_166" data-name="마스크 그룹 166" transform="translate(-1244 -135)" clip-path="url(#clip-path)">
    <g id="그룹_977" data-name="그룹 977" transform="translate(975.715 189.158)">
      <path id="패스_1829" data-name="패스 1829" d="M277.15-32.542h-5.3a2.562,2.562,0,0,1-2.56-2.559v-6.841a2.562,2.562,0,0,1,2.56-2.559h5.3Zm-5.3-10.191a.792.792,0,0,0-.793.791V-35.1a.793.793,0,0,0,.793.791h3.537v-8.423Z" transform="translate(0 -0.926)" fill="#454545"/>
      <path id="패스_1830" data-name="패스 1830" d="M288.076-26.425a3.579,3.579,0,0,1-1.667-.468l-.087-.053-9.875-6.824V-44.888l10.588-7.33a3.4,3.4,0,0,1,1.226-.25,2.047,2.047,0,0,1,2.1,2.116l0,22.3-.063.158A2.4,2.4,0,0,1,288.076-26.425Zm-.793-2.006a1.83,1.83,0,0,0,.793.239.626.626,0,0,0,.516-.257V-50.289c-.031-.411-.149-.411-.331-.411a1.6,1.6,0,0,0-.464.084l-9.582,6.653V-34.7Z" transform="translate(-1.064 0)" fill="#454545"/>
      <path id="패스_1831" data-name="패스 1831" d="M298.982-34.117l-1.3-1.2c2.75-2.97-.026-5.752-.145-5.869l1.236-1.263A5.792,5.792,0,0,1,298.982-34.117Z" transform="translate(-7.282 -1.164)" fill="#00a58a"/>
      <path id="패스_1832" data-name="패스 1832" d="M302.412-30.729l-1.422-1.048c6-8.135-.3-13.5-.57-13.725l1.128-1.361C301.627-46.8,309.387-40.191,302.412-30.729Z" transform="translate(-7.617 -0.651)" fill="#00a58a"/>
    </g>
  </g>
</svg>
