<svg xmlns="http://www.w3.org/2000/svg" xmlns:xlink="http://www.w3.org/1999/xlink" width="15" height="15" viewBox="0 0 15 15">
  <defs>
    <clipPath id="clip-path">
      <rect id="사각형_559" data-name="사각형 559" width="15" height="15" fill="#2c93e8" stroke="#707070" stroke-width="1"/>
    </clipPath>
  </defs>
  <g id="good" transform="translate(-952 -72.999)">
    <g id="ico_like" transform="translate(952 72.999)" clip-path="url(#clip-path)">
      <g id="Layer_2" data-name="Layer 2" transform="translate(0.096 0.573)">
        <g id="Layer_28" data-name="Layer 28">
          <path id="패스_884" data-name="패스 884" d="M14.43,7.437a1.481,1.481,0,0,0-1.1-2.468H10.453a9.571,9.571,0,0,0,.406-2.5V1.974A1.977,1.977,0,0,0,8.885,0H8.391a.494.494,0,0,0-.479.374L7.643,1.45C7.267,2.956,6.071,4.618,4.833,4.92a1.483,1.483,0,0,0-1.377-.938H.494A.494.494,0,0,0,0,4.475V13.36a.494.494,0,0,0,.494.494H3.455a1.481,1.481,0,0,0,1.337-.844l1.7.565a5.418,5.418,0,0,0,1.717.279H12.34a1.481,1.481,0,0,0,1.377-2.026,1.481,1.481,0,0,0,.713-2.416,1.478,1.478,0,0,0,0-1.974ZM3.949,12.373a.494.494,0,0,1-.494.494H.987v-7.9H3.455a.494.494,0,0,1,.494.494ZM12.34,7.93h.987a.494.494,0,1,1,0,.987H12.34a.494.494,0,0,0,0,.987h.987a.494.494,0,1,1,0,.987H12.34a.494.494,0,0,0,0,.987.494.494,0,1,1,0,.987H8.2A4.433,4.433,0,0,1,6.8,12.638l-1.864-.621V5.909a3.977,3.977,0,0,0,2.216-1.44A7.187,7.187,0,0,0,8.6,1.689l.176-.7h.108a.987.987,0,0,1,.987.987v.494a7.807,7.807,0,0,1-.473,2.5H8.391a.494.494,0,1,0,0,.987h4.936a.494.494,0,1,1,0,.987H12.34a.494.494,0,0,0,0,.987Z" fill="#2c93e8"/>
        </g>
      </g>
    </g>
  </g>
</svg>
