<svg xmlns="http://www.w3.org/2000/svg" xmlns:xlink="http://www.w3.org/1999/xlink" width="35" height="35" viewBox="0 0 35 35">
  <defs>
    <clipPath id="clip-path">
      <rect id="Rectangle_786" data-name="Rectangle 786" width="35" height="35" transform="translate(30 380)" fill="#262c3a" stroke="#707070" stroke-width="1"/>
    </clipPath>
  </defs>
  <g id="ico_alarm_counsel" transform="translate(-30 -380)" clip-path="url(#clip-path)">
    <g id="question_3_" data-name="question (3)" transform="translate(34 384)">
      <path id="Path_929" data-name="Path 929" d="M26.806,16.093,25.1,14.127A8.7,8.7,0,1,0,9.652,9.649,8.7,8.7,0,0,0,1.9,23.726L.193,25.691A.791.791,0,0,0,.791,27H8.7a8.7,8.7,0,0,0,8.649-9.65,8.759,8.759,0,0,0,.949.052h7.91a.791.791,0,0,0,.6-1.309ZM8.7,25.418H2.524l1.019-1.175a.791.791,0,0,0-.022-1.061A7.121,7.121,0,0,1,9.993,11.3a8.74,8.74,0,0,0,5.71,5.71,7.123,7.123,0,0,1-7,8.411Zm9.6-9.6a7.12,7.12,0,1,1,5.18-2.236.791.791,0,0,0-.022,1.061l1.019,1.175Z" fill="#262c3a"/>
      <circle id="Ellipse_378" data-name="Ellipse 378" cx="0.792" cy="0.792" r="0.792" transform="translate(17.506 12.497)" fill="#262c3a"/>
      <path id="Path_930" data-name="Path 930" d="M22.887,4.239a3.036,3.036,0,0,0-3.1,3.038.792.792,0,1,0,1.584,0,1.477,1.477,0,0,1,.014-.2,1.454,1.454,0,0,1,1.441-1.251h.03a1.453,1.453,0,0,1-.031,2.906.792.792,0,0,0-.792.792v2.349a.792.792,0,1,0,1.584,0V10.209a3.051,3.051,0,0,0,1.411-.841,3.013,3.013,0,0,0,.831-2.252,3.047,3.047,0,0,0-2.972-2.877Z" transform="translate(-4.528 -0.965)" fill="#262c3a"/>
      <path id="Path_931" data-name="Path 931" d="M12.908,20.645H7.628a.792.792,0,0,0,0,1.584h5.28a.792.792,0,1,0,0-1.584Z" transform="translate(-1.565 -4.72)" fill="#262c3a"/>
      <path id="Path_932" data-name="Path 932" d="M12.908,24.746H7.628a.792.792,0,0,0,0,1.584h5.28a.792.792,0,0,0,0-1.584Z" transform="translate(-1.565 -5.658)" fill="#262c3a"/>
    </g>
  </g>
</svg>
