<svg xmlns="http://www.w3.org/2000/svg" xmlns:xlink="http://www.w3.org/1999/xlink" width="29" height="26" viewBox="0 0 29 26">
  <defs>
    <clipPath id="clip-path">
      <rect id="사각형_809" data-name="사각형 809" width="25" height="25" transform="translate(-45)" fill="#fff"/>
    </clipPath>
  </defs>
  <g id="ico_alram" transform="translate(45 1)">
    <g id="마스크_그룹_48" data-name="마스크 그룹 48" clip-path="url(#clip-path)">
      <g id="bell_3_" data-name="bell (3)" transform="translate(-43.959)">
        <path id="패스_967" data-name="패스 967" d="M21.875,11.335a1.042,1.042,0,0,1-1.042-1.042,10.868,10.868,0,0,0-3.2-7.734A1.041,1.041,0,1,1,19.1,1.086a12.935,12.935,0,0,1,3.814,9.207,1.042,1.042,0,0,1-1.042,1.042Zm0,0" fill="#fff"/>
        <path id="패스_968" data-name="패스 968" d="M1.042,11.335A1.042,1.042,0,0,1,0,10.294,12.936,12.936,0,0,1,3.814,1.086,1.041,1.041,0,0,1,5.286,2.559a10.866,10.866,0,0,0-3.2,7.734,1.042,1.042,0,0,1-1.042,1.042Zm0,0" fill="#fff"/>
        <path id="패스_969" data-name="패스 969" d="M21.228,17.618a6.977,6.977,0,0,1-2.478-5.339v-2.9A7.3,7.3,0,0,0,12.5,2.167V1.042a1.042,1.042,0,0,0-2.083,0V2.167a7.3,7.3,0,0,0-6.25,7.208v2.9a6.985,6.985,0,0,1-2.487,5.347,1.823,1.823,0,0,0,1.185,3.207H20.052a1.823,1.823,0,0,0,1.176-3.216Zm0,0" fill="#fff"/>
        <path id="패스_970" data-name="패스 970" d="M11.458,25a3.913,3.913,0,0,0,3.827-3.125H7.631A3.912,3.912,0,0,0,11.458,25Zm0,0" fill="#fff"/>
      </g>
    </g>
    <circle id="타원_385" data-name="타원 385" cx="7.5" cy="7.5" r="7.5" transform="translate(-31 -1)" fill="#123854"/>
  </g>
</svg>
