<svg xmlns="http://www.w3.org/2000/svg" xmlns:xlink="http://www.w3.org/1999/xlink" width="30" height="30" viewBox="0 0 30 30">
  <defs>
    <clipPath id="clip-path">
      <rect id="사각형_1191" data-name="사각형 1191" width="15" height="15" transform="translate(8 8)" fill="none"/>
    </clipPath>
  </defs>
  <g id="그룹_1139" data-name="그룹 1139" transform="translate(-715 -3356)">
    <g id="그룹_1003" data-name="그룹 1003" transform="translate(715 3356)">
      <rect id="사각형_552" data-name="사각형 552" width="30" height="30" rx="5" transform="translate(0 0)" fill="#b30b00"/>
      <g id="그룹_1002" data-name="그룹 1002">
        <g id="그룹_1001" data-name="그룹 1001" clip-path="url(#clip-path)">
          <g id="마스크_그룹_147" data-name="마스크 그룹 147">
            <g id="free-icon-pdf-482216">
              <g id="그룹_183" data-name="그룹 183">
                <g id="그룹_182" data-name="그룹 182">
                  <path id="패스_787" data-name="패스 787" d="M18.687,16.348a18.142,18.142,0,0,1-1.5-1.29c-.476-.476-.9-.937-1.269-1.377A13.989,13.989,0,0,0,16.75,10.5C16.75,8.425,16,8,14.875,8,14.02,8,13,8.444,13,10.56a5.992,5.992,0,0,0,1.523,3.381c-.248.756-.539,1.628-.866,2.612q-.237.708-.509,1.313-.22.1-.428.2c-.5.248-.969.472-1.406.679-2,.945-3.314,1.57-3.314,2.8C8,22.445,8.974,23,9.875,23c1.162,0,2.917-1.552,4.2-4.167a24.871,24.871,0,0,1,4.29-1.157,7.175,7.175,0,0,0,2.761,1.574c1.55,0,1.875-.9,1.875-1.647,0-1.478-1.688-1.478-2.5-1.478A14.731,14.731,0,0,0,18.687,16.348Zm-8.812,5.4a.99.99,0,0,1-.625-.2c0-.443,1.321-1.069,2.6-1.675l.247-.117c-.939,1.363-1.867,1.994-2.222,1.994ZM14.25,10.56c0-1.31.407-1.31.625-1.31.442,0,.625,0,.625,1.25a10.026,10.026,0,0,1-.5,1.952A3.834,3.834,0,0,1,14.25,10.56Zm.479,6.718q.058-.163.114-.33c.232-.7.441-1.321.627-1.884q.388.427.839.878c.117.117.408.381.8.711-.772.168-1.591.376-2.375.624Zm7.021.325c0,.281,0,.4-.58.4a4.611,4.611,0,0,1-1.05-.6c.176-.02.306-.029.38-.029.923,0,1.185.091,1.25.226Z" fill="#fff"/>
                </g>
              </g>
            </g>
          </g>
        </g>
      </g>
    </g>
  </g>
</svg>
