<svg xmlns="http://www.w3.org/2000/svg" width="58" height="16" viewBox="0 0 58 16">
  <g id="ybm북샘로고" transform="translate(-71 93)">
    <rect id="Rectangle_597" data-name="Rectangle 597" width="58" height="16" transform="translate(71 -93)" fill="none"/>
    <g id="Group_202" data-name="Group 202" transform="translate(-75.104 -401.93)">
      <g id="Group_200" data-name="Group 200" transform="translate(146.104 308.93)">
        <path id="Path_819" data-name="Path 819" d="M146.1,313.769V308.93h2.812v7.338c0,.11-.166.159-.25.074Z" transform="translate(-146.104 -308.93)" fill="#fff"/>
        <path id="Path_820" data-name="Path 820" d="M176.172,322.165V308.93H173.36v15.734c0,.11.167.159.251.075Z" transform="translate(-169.142 -308.93)" fill="#fff"/>
        <rect id="Rectangle_598" data-name="Rectangle 598" width="2.812" height="15.851" transform="translate(8.906 0)" fill="#fff"/>
        <path id="Path_821" data-name="Path 821" d="M231.163,308.975c-.085-.085-.251-.035-.251.074v7.212c0,.11.166.159.251.074l2.562-2.573v-2.214Z" transform="translate(-217.788 -308.932)" fill="#fff"/>
        <path id="Path_822" data-name="Path 822" d="M231.163,363.282c-.085-.085-.251-.035-.251.074v7.212c0,.11.166.159.251.075l2.562-2.573v-2.215Z" transform="translate(-217.788 -354.835)" fill="#fff"/>
        <path id="Path_823" data-name="Path 823" d="M261.814,311.547v13.235H259V309.048c0-.11.166-.159.25-.075Z" transform="translate(-241.532 -308.931)" fill="#fff"/>
        <path id="Path_824" data-name="Path 824" d="M286.046,311.547l.028,13.236h-2.84V309.048c0-.11.166-.159.25-.075Z" transform="translate(-262.014 -308.931)" fill="#fff"/>
        <path id="Path_825" data-name="Path 825" d="M310.276,311.547v13.235h-2.812V309.048c0-.11.166-.159.25-.075Z" transform="translate(-282.494 -308.931)" fill="#fff"/>
      </g>
      <g id="Group_201" data-name="Group 201" transform="translate(177.474 310.889)">
        <path id="Path_829" data-name="Path 829" d="M528.692,360.144v-1.778h-5.963v-1.134H536.05v1.134h-6.009v1.778H533.9v4.4h-1.318v-3.265h-7.925v-1.134Zm-3.74-4.261v-5.288h1.395v1.579h6.116v-1.579h1.349v5.288Zm7.511-2.606H526.3v1.487h6.162Z" transform="translate(-522.729 -350.502)" fill="#fff"/>
        <path id="Path_830" data-name="Path 830" d="M584.355,357.974l-.981-.843a7.605,7.605,0,0,0,1.725-1.318,5.4,5.4,0,0,0,1.5-3.242,10.286,10.286,0,0,0,.008-1.985h1.3a11.576,11.576,0,0,1-.2,2.544,7.7,7.7,0,0,0,1.2,1.985,8.54,8.54,0,0,0,1.84,1.617l-.951.858a7.7,7.7,0,0,1-1.4-1.265,8.564,8.564,0,0,1-1.142-1.678,7.022,7.022,0,0,1-1.119,1.793A8.3,8.3,0,0,1,584.355,357.974Zm11.144,5.993h-8.967v-4.89H595.5Zm-1.318-3.74H587.85v2.606h6.331Zm1.318-1.947h-1.272v-3.648h-1.793v3.648h-1.257v-7.94h1.257V353.5h1.793v-3.311H595.5Z" transform="translate(-569.67 -350.187)" fill="#fff"/>
      </g>
    </g>
  </g>
</svg>
