<svg xmlns="http://www.w3.org/2000/svg" xmlns:xlink="http://www.w3.org/1999/xlink" width="20" height="20" viewBox="0 0 20 20">
  <defs>
    <clipPath id="clip-path">
      <rect id="사각형_865" data-name="사각형 865" width="20" height="20" transform="translate(918 15)" fill="#e8ebed"/>
    </clipPath>
  </defs>
  <g id="ico_move" transform="translate(-918 -15)" clip-path="url(#clip-path)">
    <g id="free-icon-move-selector-889810" transform="translate(918 15)">
      <g id="그룹_779" data-name="그룹 779">
        <path id="패스_1036" data-name="패스 1036" d="M10,20a.435.435,0,0,1-.435-.435V.435a.435.435,0,1,1,.87,0v19.13A.435.435,0,0,1,10,20Z" fill="#e8ebed"/>
        <path id="패스_1037" data-name="패스 1037" d="M19.565,10.435H.435a.435.435,0,1,1,0-.87h19.13a.435.435,0,0,1,0,.87Z" fill="#e8ebed"/>
        <path id="패스_1038" data-name="패스 1038" d="M12.609,3.478a.435.435,0,0,1-.308-.127L10,1.05l-2.3,2.3a.435.435,0,0,1-.615-.615L9.693.128a.435.435,0,0,1,.615,0l2.609,2.609a.435.435,0,0,1-.308.742Z" fill="#e8ebed"/>
        <path id="패스_1039" data-name="패스 1039" d="M10,20a.435.435,0,0,1-.308-.127L7.084,17.264a.435.435,0,0,1,.615-.615l2.3,2.3,2.3-2.3a.435.435,0,0,1,.615.615l-2.609,2.609A.435.435,0,0,1,10,20Z" fill="#e8ebed"/>
        <path id="패스_1040" data-name="패스 1040" d="M16.957,13.043a.435.435,0,0,1-.308-.743l2.3-2.3-2.3-2.3a.435.435,0,0,1,.615-.615l2.609,2.609a.435.435,0,0,1,0,.615l-2.609,2.609A.435.435,0,0,1,16.957,13.043Z" fill="#e8ebed"/>
        <path id="패스_1041" data-name="패스 1041" d="M3.044,13.043a.435.435,0,0,1-.308-.127L.127,10.308a.435.435,0,0,1,0-.615L2.736,7.084a.435.435,0,0,1,.615.615L1.05,10l2.3,2.3a.435.435,0,0,1-.307.743Z" fill="#e8ebed"/>
      </g>
      <path id="패스_1042" data-name="패스 1042" d="M10,20a.435.435,0,0,1-.435-.435V.435a.435.435,0,1,1,.87,0v19.13A.435.435,0,0,1,10,20Z" fill="#e8ebed"/>
      <path id="패스_1043" data-name="패스 1043" d="M19.565,10.435H.435a.435.435,0,1,1,0-.87h19.13a.435.435,0,0,1,0,.87Z" fill="#e8ebed"/>
      <path id="패스_1044" data-name="패스 1044" d="M12.609,3.478a.435.435,0,0,1-.308-.127L10,1.05l-2.3,2.3a.435.435,0,0,1-.615-.615L9.693.128a.435.435,0,0,1,.615,0l2.609,2.609a.435.435,0,0,1-.308.742Z" fill="#e8ebed"/>
      <path id="패스_1045" data-name="패스 1045" d="M10,20a.435.435,0,0,1-.308-.127L7.084,17.264a.435.435,0,0,1,.615-.615l2.3,2.3,2.3-2.3a.435.435,0,0,1,.615.615l-2.609,2.609A.435.435,0,0,1,10,20Z" fill="#e8ebed"/>
      <path id="패스_1046" data-name="패스 1046" d="M16.957,13.043a.435.435,0,0,1-.308-.743l2.3-2.3-2.3-2.3a.435.435,0,0,1,.615-.615l2.609,2.609a.435.435,0,0,1,0,.615l-2.609,2.609A.435.435,0,0,1,16.957,13.043Z" fill="#e8ebed"/>
      <path id="패스_1047" data-name="패스 1047" d="M3.044,13.043a.435.435,0,0,1-.308-.127L.127,10.308a.435.435,0,0,1,0-.615L2.736,7.084a.435.435,0,0,1,.615.615L1.05,10l2.3,2.3a.435.435,0,0,1-.307.743Z" fill="#e8ebed"/>
    </g>
  </g>
</svg>
