<svg xmlns="http://www.w3.org/2000/svg" width="59" height="59" viewBox="0 0 59 59">
  <g id="ico_07" transform="translate(-712 -642)">
    <rect id="bg_" width="59" height="59" rx="5" transform="translate(712 642)" fill="#e9f4fd"/>
    <g id="그룹_1215" data-name="그룹 1215" transform="translate(726.749 656.609)">
      <g id="그룹_1209" data-name="그룹 1209" transform="translate(9.917 0)">
        <g id="그룹_1204" data-name="그룹 1204" transform="translate(0 0)">
          <path id="패스_2501" data-name="패스 2501" d="M2664.1,401.73h0a3.41,3.41,0,0,1-.466-.026.815.815,0,0,1-.644-.715.941.941,0,0,1,.381-.942,5.341,5.341,0,0,0,1.767-1.929,9.108,9.108,0,0,1-5.444-8.268c0-5.085,4.393-9.222,9.792-9.222s9.792,4.137,9.792,9.222a9.511,9.511,0,0,1-9.506,9.218A8.113,8.113,0,0,1,2664.1,401.73Zm5.386-19.333c-4.573,0-8.292,3.344-8.292,7.453a7.576,7.576,0,0,0,5.229,6.924.8.8,0,0,1,.451.448,1.028,1.028,0,0,1,.037.693,6.964,6.964,0,0,1-.791,1.63,8,8,0,0,0,2.865-2.015.689.689,0,0,1,.5-.227c4.573,0,8.292-3.343,8.292-7.453S2674.062,382.4,2669.489,382.4Z" transform="translate(-2659.697 -380.628)" fill="#1e345b"/>
        </g>
        <g id="그룹_1208" data-name="그룹 1208" transform="translate(4.234 7.81)">
          <g id="그룹_1205" data-name="그룹 1205">
            <path id="패스_2502" data-name="패스 2502" d="M2682.211,412.078a1.375,1.375,0,1,1-1.375-1.375A1.375,1.375,0,0,1,2682.211,412.078Z" transform="translate(-2679.462 -410.703)" fill="#1e345b"/>
          </g>
          <g id="그룹_1206" data-name="그룹 1206" transform="translate(4.404)">
            <path id="패스_2503" data-name="패스 2503" d="M2702.771,412.078a1.375,1.375,0,1,1-1.375-1.375A1.375,1.375,0,0,1,2702.771,412.078Z" transform="translate(-2700.021 -410.703)" fill="#1e345b"/>
          </g>
          <g id="그룹_1207" data-name="그룹 1207" transform="translate(8.807)">
            <path id="패스_2504" data-name="패스 2504" d="M2723.33,412.078a1.375,1.375,0,1,1-1.375-1.375A1.375,1.375,0,0,1,2723.33,412.078Z" transform="translate(-2720.58 -410.703)" fill="#1e345b"/>
          </g>
        </g>
      </g>
      <g id="그룹_1214" data-name="그룹 1214" transform="translate(0 15.861)">
        <g id="그룹_1210" data-name="그룹 1210" transform="translate(0)">
          <path id="패스_2505" data-name="패스 2505" d="M2624.089,446.563h0a5.009,5.009,0,0,1-3.738-1.851,6.163,6.163,0,0,1-.882.064,6.06,6.06,0,1,1,4.322-1.8,3.934,3.934,0,0,0,1.2,2.062.868.868,0,0,1,.3.811.74.74,0,0,1-.5.644A2.972,2.972,0,0,1,2624.089,446.563Zm-2.975-3.139a4.4,4.4,0,0,0,1.959,1.386,7.656,7.656,0,0,1-.65-1.992.883.883,0,0,1,.264-.8,4.369,4.369,0,0,0,1.566-3.307,4.795,4.795,0,1,0-4.785,4.482,5.074,5.074,0,0,0,1.011-.1A.6.6,0,0,1,2621.115,443.424Z" transform="translate(-2613.4 -432.643)" fill="#1e345b"/>
        </g>
        <g id="그룹_1213" data-name="그룹 1213" transform="translate(3.288 5.055)">
          <g id="그룹_1211" data-name="그룹 1211" transform="translate(3.627)">
            <path id="패스_2506" data-name="패스 2506" d="M2645.685,452.042a.968.968,0,1,0,.968-.976A.972.972,0,0,0,2645.685,452.042Z" transform="translate(-2645.685 -451.066)" fill="#1e345b"/>
          </g>
          <g id="그룹_1212" data-name="그룹 1212">
            <path id="패스_2507" data-name="패스 2507" d="M2628.751,452.042a.968.968,0,1,0,.968-.976A.972.972,0,0,0,2628.751,452.042Z" transform="translate(-2628.751 -451.066)" fill="#1e345b"/>
          </g>
        </g>
      </g>
    </g>
  </g>
</svg>
