<svg xmlns="http://www.w3.org/2000/svg" width="18" height="18" viewBox="0 0 18 18">
  <g id="그룹_774" data-name="그룹 774" transform="translate(-176.421 -223.066)">
    <g id="그룹_768" data-name="그룹 768" transform="translate(176.421 223.066)">
      <g id="그룹_765" data-name="그룹 765" transform="translate(0)">
        <path id="패스_1070" data-name="패스 1070" d="M180.343,226.987h-3.921v-3.921h3.921Zm-2.951-.97h1.98v-1.98h-1.98Z" transform="translate(-176.422 -223.066)" fill="#fff"/>
        <g id="그룹_764" data-name="그룹 764" transform="translate(4.442 1.476)">
          <rect id="사각형_888" data-name="사각형 888" width="0.738" height="0.97" fill="#fff"/>
          <rect id="사각형_889" data-name="사각형 889" width="0.738" height="0.97" transform="translate(1.542)" fill="#fff"/>
          <rect id="사각형_890" data-name="사각형 890" width="0.738" height="0.97" transform="translate(3.085)" fill="#fff"/>
          <rect id="사각형_891" data-name="사각형 891" width="0.738" height="0.97" transform="translate(4.627)" fill="#fff"/>
          <rect id="사각형_892" data-name="사각형 892" width="0.738" height="0.97" transform="translate(6.169)" fill="#fff"/>
          <rect id="사각형_893" data-name="사각형 893" width="0.738" height="0.97" transform="translate(7.712)" fill="#fff"/>
          <rect id="사각형_894" data-name="사각형 894" width="0.738" height="0.97" transform="translate(9.254)" fill="#fff"/>
        </g>
      </g>
      <g id="그룹_767" data-name="그룹 767" transform="translate(14.079)">
        <path id="패스_1071" data-name="패스 1071" d="M234.527,226.987h-3.921v-3.921h3.921Zm-2.951-.97h1.98v-1.98h-1.98Z" transform="translate(-230.606 -223.066)" fill="#fff"/>
        <g id="그룹_766" data-name="그룹 766" transform="translate(1.475 3.5)">
          <rect id="사각형_895" data-name="사각형 895" width="0.97" height="0.737" fill="#fff"/>
          <rect id="사각형_896" data-name="사각형 896" width="0.97" height="0.738" transform="translate(0 1.542)" fill="#fff"/>
          <rect id="사각형_897" data-name="사각형 897" width="0.97" height="0.737" transform="translate(0 3.085)" fill="#fff"/>
          <rect id="사각형_898" data-name="사각형 898" width="0.97" height="0.738" transform="translate(0 4.627)" fill="#fff"/>
          <rect id="사각형_899" data-name="사각형 899" width="0.97" height="0.737" transform="translate(0 6.169)" fill="#fff"/>
          <rect id="사각형_900" data-name="사각형 900" width="0.97" height="0.737" transform="translate(0 7.712)" fill="#fff"/>
          <rect id="사각형_901" data-name="사각형 901" width="0.97" height="0.737" transform="translate(0 9.254)" fill="#fff"/>
        </g>
      </g>
    </g>
    <g id="그룹_773" data-name="그룹 773" transform="translate(176.421 227.575)">
      <g id="그룹_770" data-name="그룹 770" transform="translate(3.566 9.57)">
        <path id="패스_1072" data-name="패스 1072" d="M234.526,281.171h-3.921V277.25h3.921Zm-2.951-.97h1.981V278.22h-1.981Z" transform="translate(-220.093 -277.25)" fill="#fff"/>
        <g id="그룹_769" data-name="그룹 769" transform="translate(0 1.475)">
          <rect id="사각형_902" data-name="사각형 902" width="0.738" height="0.97" transform="translate(9.254)" fill="#fff"/>
          <rect id="사각형_903" data-name="사각형 903" width="0.738" height="0.97" transform="translate(7.712)" fill="#fff"/>
          <rect id="사각형_904" data-name="사각형 904" width="0.738" height="0.97" transform="translate(6.169)" fill="#fff"/>
          <rect id="사각형_905" data-name="사각형 905" width="0.738" height="0.97" transform="translate(4.627)" fill="#fff"/>
          <rect id="사각형_906" data-name="사각형 906" width="0.738" height="0.97" transform="translate(3.085)" fill="#fff"/>
          <rect id="사각형_907" data-name="사각형 907" width="0.738" height="0.97" transform="translate(1.542)" fill="#fff"/>
          <rect id="사각형_908" data-name="사각형 908" width="0.738" height="0.97" fill="#fff"/>
        </g>
      </g>
      <g id="그룹_772" data-name="그룹 772">
        <path id="패스_1073" data-name="패스 1073" d="M180.342,281.171h-3.921V277.25h3.921Zm-2.951-.97h1.98V278.22h-1.98Z" transform="translate(-176.421 -267.68)" fill="#fff"/>
        <g id="그룹_771" data-name="그룹 771" transform="translate(1.475)">
          <rect id="사각형_909" data-name="사각형 909" width="0.97" height="0.737" transform="translate(0 9.254)" fill="#fff"/>
          <rect id="사각형_910" data-name="사각형 910" width="0.97" height="0.738" transform="translate(0 7.712)" fill="#fff"/>
          <rect id="사각형_911" data-name="사각형 911" width="0.97" height="0.737" transform="translate(0 6.169)" fill="#fff"/>
          <rect id="사각형_912" data-name="사각형 912" width="0.97" height="0.738" transform="translate(0 4.627)" fill="#fff"/>
          <rect id="사각형_913" data-name="사각형 913" width="0.97" height="0.737" transform="translate(0 3.085)" fill="#fff"/>
          <rect id="사각형_914" data-name="사각형 914" width="0.97" height="0.737" transform="translate(0 1.542)" fill="#fff"/>
          <rect id="사각형_915" data-name="사각형 915" width="0.97" height="0.737" transform="translate(0)" fill="#fff"/>
        </g>
      </g>
    </g>
  </g>
</svg>
