<svg xmlns="http://www.w3.org/2000/svg" xmlns:xlink="http://www.w3.org/1999/xlink" width="40" height="40" viewBox="0 0 40 40">
  <defs>
    <clipPath id="clip-path">
      <rect id="사각형_310" data-name="사각형 310" width="20" height="20" transform="translate(0 0)" fill="#222"/>
    </clipPath>
  </defs>
  <g id="그룹_1021" data-name="그룹 1021" transform="translate(-548 -695)">
    <g id="타원_415" data-name="타원 415" transform="translate(548 695)" fill="#fff" stroke="#d5d5d5" stroke-width="1">
      <circle cx="20" cy="20" r="20" stroke="none"/>
      <circle cx="20" cy="20" r="19.5" fill="none"/>
    </g>
    <g id="right_arrow" transform="translate(559 705)">
      <g id="right_arrow-2" data-name="right_arrow" transform="translate(0 20) rotate(-90)" clip-path="url(#clip-path)">
        <g id="arrow-down-sign-to-navigate" transform="translate(0 4.3)">
          <path id="패스_695" data-name="패스 695" d="M10,11.4a1.4,1.4,0,0,1-.99-.41l-8.6-8.6A1.4,1.4,0,0,1,2.391.41L10,8.02,17.609.41a1.4,1.4,0,1,1,1.98,1.981l-8.6,8.6A1.4,1.4,0,0,1,10,11.4Z" transform="translate(0 0)" fill="#222"/>
        </g>
      </g>
    </g>
  </g>
</svg>
