<svg width="7" height="26" viewBox="0 0 7 26" fill="none" xmlns="http://www.w3.org/2000/svg">
<g clip-path="url(#clip0_6_691)">
<path opacity="0.5" d="M-6.55671e-08 16.5L-2.18557e-08 17.5C-9.78513e-09 17.7761 0.223858 18 0.5 18C0.776142 18 1 17.7761 1 17.5L1 16.5C1 16.2239 0.776142 16 0.5 16C0.223858 16 -7.76376e-08 16.2239 -6.55671e-08 16.5Z" fill="#A2A2A2"/>
<path opacity="0.5" d="M-6.55671e-08 12.5L-2.18557e-08 13.5C-9.78513e-09 13.7761 0.223858 14 0.5 14C0.776142 14 1 13.7761 1 13.5L1 12.5C1 12.2239 0.776142 12 0.5 12C0.223858 12 -7.76376e-08 12.2239 -6.55671e-08 12.5Z" fill="#A2A2A2"/>
<path opacity="0.5" d="M-6.55671e-08 8.5L-2.18557e-08 9.5C-9.78513e-09 9.77614 0.223858 10 0.5 10C0.776142 10 1 9.77614 1 9.5L1 8.5C1 8.22386 0.776142 8 0.5 8C0.223858 8 -7.76376e-08 8.22386 -6.55671e-08 8.5Z" fill="#A2A2A2"/>
<path opacity="0.5" d="M-6.55671e-08 4.5L-2.18557e-08 5.5C-9.78513e-09 5.77614 0.223858 6 0.5 6C0.776142 6 1 5.77614 1 5.5L1 4.5C1 4.22386 0.776142 4 0.5 4C0.223858 4 -7.76376e-08 4.22386 -6.55671e-08 4.5Z" fill="#A2A2A2"/>
<path opacity="0.5" d="M-6.55671e-08 0.5L-2.18557e-08 1.5C-9.78513e-09 1.77614 0.223858 2 0.5 2C0.776142 2 1 1.77614 1 1.5L1 0.5C1 0.223858 0.776142 -3.39263e-08 0.5 -2.18557e-08C0.223858 -9.78513e-09 -7.76376e-08 0.223858 -6.55671e-08 0.5Z" fill="#A2A2A2"/>
<path opacity="0.5" d="M3 16.5L3 17.5C3 17.7761 3.22386 18 3.5 18C3.77614 18 4 17.7761 4 17.5L4 16.5C4 16.2239 3.77614 16 3.5 16C3.22386 16 3 16.2239 3 16.5Z" fill="#A2A2A2"/>
<path opacity="0.5" d="M3 12.5L3 13.5C3 13.7761 3.22386 14 3.5 14C3.77614 14 4 13.7761 4 13.5L4 12.5C4 12.2239 3.77614 12 3.5 12C3.22386 12 3 12.2239 3 12.5Z" fill="#A2A2A2"/>
<path opacity="0.5" d="M3 8.5L3 9.5C3 9.77614 3.22386 10 3.5 10C3.77614 10 4 9.77614 4 9.5L4 8.5C4 8.22386 3.77614 8 3.5 8C3.22386 8 3 8.22386 3 8.5Z" fill="#A2A2A2"/>
<path opacity="0.5" d="M3 4.5L3 5.5C3 5.77614 3.22386 6 3.5 6C3.77614 6 4 5.77614 4 5.5L4 4.5C4 4.22386 3.77614 4 3.5 4C3.22386 4 3 4.22386 3 4.5Z" fill="#A2A2A2"/>
<path opacity="0.5" d="M3 0.5L3 1.5C3 1.77614 3.22386 2 3.5 2C3.77614 2 4 1.77614 4 1.5L4 0.5C4 0.223858 3.77614 -3.39263e-08 3.5 -2.18557e-08C3.22386 -9.78513e-09 3 0.223858 3 0.5Z" fill="#A2A2A2"/>
<path opacity="0.5" d="M6 16.5L6 17.5C6 17.7761 6.22386 18 6.5 18C6.77614 18 7 17.7761 7 17.5L7 16.5C7 16.2239 6.77614 16 6.5 16C6.22386 16 6 16.2239 6 16.5Z" fill="#A2A2A2"/>
<path opacity="0.5" d="M6 12.5L6 13.5C6 13.7761 6.22386 14 6.5 14C6.77614 14 7 13.7761 7 13.5L7 12.5C7 12.2239 6.77614 12 6.5 12C6.22386 12 6 12.2239 6 12.5Z" fill="#A2A2A2"/>
<path opacity="0.5" d="M6 8.5L6 9.5C6 9.77614 6.22386 10 6.5 10C6.77614 10 7 9.77614 7 9.5L7 8.5C7 8.22386 6.77614 8 6.5 8C6.22386 8 6 8.22386 6 8.5Z" fill="#A2A2A2"/>
<path opacity="0.5" d="M6 4.5L6 5.5C6 5.77614 6.22386 6 6.5 6C6.77614 6 7 5.77614 7 5.5L7 4.5C7 4.22386 6.77614 4 6.5 4C6.22386 4 6 4.22386 6 4.5Z" fill="#A2A2A2"/>
<path opacity="0.5" d="M6 0.5L6 1.5C6 1.77614 6.22386 2 6.5 2C6.77614 2 7 1.77614 7 1.5L7 0.5C7 0.223858 6.77614 -3.39263e-08 6.5 -2.18557e-08C6.22386 -9.78513e-09 6 0.223858 6 0.5Z" fill="#A2A2A2"/>
<path opacity="0.5" d="M-6.55671e-08 20.5L-2.18557e-08 21.5C-9.78513e-09 21.7761 0.223858 22 0.5 22C0.776142 22 1 21.7761 1 21.5L1 20.5C1 20.2239 0.776142 20 0.5 20C0.223858 20 -7.76376e-08 20.2239 -6.55671e-08 20.5Z" fill="#A2A2A2"/>
<path opacity="0.5" d="M3 20.5L3 21.5C3 21.7761 3.22386 22 3.5 22C3.77614 22 4 21.7761 4 21.5L4 20.5C4 20.2239 3.77614 20 3.5 20C3.22386 20 3 20.2239 3 20.5Z" fill="#A2A2A2"/>
<path opacity="0.5" d="M6 20.5L6 21.5C6 21.7761 6.22386 22 6.5 22C6.77614 22 7 21.7761 7 21.5L7 20.5C7 20.2239 6.77614 20 6.5 20C6.22386 20 6 20.2239 6 20.5Z" fill="#A2A2A2"/>
<path opacity="0.5" d="M-6.55671e-08 24.5L-2.18557e-08 25.5C-9.78513e-09 25.7761 0.223858 26 0.5 26C0.776142 26 1 25.7761 1 25.5L1 24.5C1 24.2239 0.776142 24 0.5 24C0.223858 24 -7.76376e-08 24.2239 -6.55671e-08 24.5Z" fill="#A2A2A2"/>
<path opacity="0.5" d="M3 24.5L3 25.5C3 25.7761 3.22386 26 3.5 26C3.77614 26 4 25.7761 4 25.5L4 24.5C4 24.2239 3.77614 24 3.5 24C3.22386 24 3 24.2239 3 24.5Z" fill="#A2A2A2"/>
<path opacity="0.5" d="M6 24.5L6 25.5C6 25.7761 6.22386 26 6.5 26C6.77614 26 7 25.7761 7 25.5L7 24.5C7 24.2239 6.77614 24 6.5 24C6.22386 24 6 24.2239 6 24.5Z" fill="#A2A2A2"/>
</g>
<defs>
<clipPath id="clip0_6_691">
<rect width="26" height="7" fill="white" transform="translate(0 26) rotate(-90)"/>
</clipPath>
</defs>
</svg>
