<svg xmlns="http://www.w3.org/2000/svg" xmlns:xlink="http://www.w3.org/1999/xlink" width="18" height="18" viewBox="0 0 18 18">
  <defs>
    <clipPath id="clip-path">
      <rect id="Rectangle_796" data-name="Rectangle 796" width="18" height="18" transform="translate(777 471)" fill="#454c53"/>
    </clipPath>
  </defs>
  <g id="ico_trash" transform="translate(-777 -471)" clip-path="url(#clip-path)">
    <g id="trash" transform="translate(778.688 471)">
      <path id="Path_968" data-name="Path 968" d="M14.625,2.25H11.531V1.688A1.689,1.689,0,0,0,9.844,0H7.594A1.689,1.689,0,0,0,5.906,1.688V2.25H2.813A1.408,1.408,0,0,0,1.406,3.656V5.625a.563.563,0,0,0,.563.563h.307l.486,10.2A1.685,1.685,0,0,0,4.448,18H12.99a1.685,1.685,0,0,0,1.686-1.607l.486-10.2h.307a.563.563,0,0,0,.563-.562V3.656A1.408,1.408,0,0,0,14.625,2.25ZM7.031,1.688a.563.563,0,0,1,.563-.562h2.25a.563.563,0,0,1,.563.563V2.25H7.031Zm-4.5,1.969a.282.282,0,0,1,.281-.281H14.625a.282.282,0,0,1,.281.281V5.063H2.531ZM13.551,16.34a.562.562,0,0,1-.562.536H4.448a.562.562,0,0,1-.562-.536L3.4,6.188H14.035Z" transform="translate(-1.406)" fill="#454c53"/>
      <path id="Path_969" data-name="Path 969" d="M7.594,14.531a.563.563,0,0,0,.563-.562V6.656a.563.563,0,0,0-1.125,0v7.313a.563.563,0,0,0,.562.562Z" transform="translate(-0.281 1.219)" fill="#454c53"/>
      <path id="Path_970" data-name="Path 970" d="M9.938,14.531a.563.563,0,0,0,.563-.562V6.656a.563.563,0,0,0-1.125,0v7.313a.563.563,0,0,0,.562.562Z" transform="translate(0.188 1.219)" fill="#454c53"/>
      <path id="Path_971" data-name="Path 971" d="M5.25,14.531a.563.563,0,0,0,.563-.562V6.656a.563.563,0,0,0-1.125,0v7.313a.563.563,0,0,0,.562.562Z" transform="translate(-0.75 1.219)" fill="#454c53"/>
    </g>
  </g>
</svg>
