<svg xmlns="http://www.w3.org/2000/svg" width="24.069" height="24.069" viewBox="0 0 24.069 24.069">
  <path id="패스_971" data-name="패스 971" d="M1384.817,359.467c-.69-.21-1.374-.425-2.058-.635a.735.735,0,0,1-.48-.447,10.691,10.691,0,0,0-.6-1.292.744.744,0,0,1-.028-.706c.336-.662.668-1.33,1-1.992a.73.73,0,0,0-.144-.86c-.5-.508-1.01-1.016-1.507-1.518a.751.751,0,0,0-.888-.132q-1.159.621-2.329,1.236a.709.709,0,0,1-.64.033c-.265-.11-.535-.215-.806-.3a.74.74,0,0,1-.491-.474c-.281-.856-.569-1.7-.845-2.55a.741.741,0,0,0-.711-.512h-2.141a.737.737,0,0,0-.723.53c-.259.854-.524,1.7-.778,2.56a.74.74,0,0,1-.48.491,7.016,7.016,0,0,0-.678.254.708.708,0,0,1-.64-.033c-.778-.409-1.551-.822-2.328-1.236a.728.728,0,0,0-.883.132c-.508.5-1.015,1.01-1.512,1.518a.729.729,0,0,0-.144.86c.331.662.668,1.33,1,1.992a.7.7,0,0,1-.028.706,9.837,9.837,0,0,0-.6,1.292.735.735,0,0,1-.48.447c-.684.21-1.374.425-2.058.635a.737.737,0,0,0-.535.711v2.141a.751.751,0,0,0,.519.717c.678.221,1.352.447,2.031.679a.739.739,0,0,1,.475.457,8.335,8.335,0,0,0,.585,1.3.724.724,0,0,1,0,.717c-.348.652-.7,1.3-1.043,1.959a.747.747,0,0,0,.138.877c.508.508,1,1.015,1.512,1.518a.745.745,0,0,0,.866.143c.784-.4,1.573-.789,2.351-1.18a.733.733,0,0,1,.635-.017c.27.111.54.22.822.315a.726.726,0,0,1,.48.491c.254.844.519,1.7.778,2.555a.736.736,0,0,0,.723.535h2.141a.739.739,0,0,0,.711-.519c.276-.844.563-1.7.845-2.544a.707.707,0,0,1,.491-.474c.32-.1.635-.232.949-.359a.732.732,0,0,1,.634.017l2.351,1.18a.746.746,0,0,0,.867-.143c.508-.5,1.015-1.01,1.512-1.518a.747.747,0,0,0,.138-.877c-.348-.656-.7-1.308-1.043-1.959a.723.723,0,0,1,0-.717,8.392,8.392,0,0,0,.585-1.3.738.738,0,0,1,.474-.457c.673-.232,1.352-.458,2.031-.679a.747.747,0,0,0,.513-.717v-2.141A.732.732,0,0,0,1384.817,359.467Zm-11.5,7.593a5.716,5.716,0,1,1,6.053-5.706A5.888,5.888,0,0,1,1373.312,367.059Z" transform="translate(-1361.277 -349.319)" fill="#fff"/>
</svg>
