<svg xmlns="http://www.w3.org/2000/svg" xmlns:xlink="http://www.w3.org/1999/xlink" width="15" height="15" viewBox="0 0 15 15">
  <defs>
    <clipPath id="clip-path">
      <rect id="사각형_587" data-name="사각형 587" width="15" height="15" fill="#2c93e8" stroke="#707070" stroke-width="1"/>
    </clipPath>
  </defs>
  <g id="tack" transform="translate(-861 -74)">
    <g id="ico_tack" transform="translate(861 74)" clip-path="url(#clip-path)">
      <g id="free-icon-pushpin-66824" transform="translate(0)">
        <path id="패스_885" data-name="패스 885" d="M14.777,5.549,9.4.146a.5.5,0,0,0-.7,0,6.554,6.554,0,0,0-.892,2.24h0L5.649,4.555a1.908,1.908,0,0,0-1.964.463,1.934,1.934,0,0,0,0,2.721L5.1,9.164.146,14.146a.5.5,0,0,0,0,.707.5.5,0,0,0,.7,0L5.806,9.872,7.223,11.3a1.907,1.907,0,0,0,2.707,0,1.931,1.931,0,0,0,.461-1.974l2.158-2.169a6.475,6.475,0,0,0,2.228-.9A.5.5,0,0,0,14.777,5.549Zm-2.586.662a.5.5,0,0,0-.272.156c-.027.03-.051.055-.073.078l-2.4,2.413a.5.5,0,0,0-.077.608.927.927,0,0,1-.142,1.123.916.916,0,0,1-1.3,0L6.158,8.812h0L4.388,7.033a.929.929,0,0,1,0-1.307.917.917,0,0,1,1.117-.143.5.5,0,0,0,.6-.077l2.4-2.412c.024-.024.05-.049.077-.073a.5.5,0,0,0,.157-.275,10.486,10.486,0,0,1,.427-1.418L13.6,5.781A10.27,10.27,0,0,1,12.191,6.211Z" transform="translate(0 0)" fill="#2c93e8"/>
      </g>
    </g>
  </g>
</svg>
