<svg width="26" height="26" viewBox="0 0 26 26" fill="none" xmlns="http://www.w3.org/2000/svg">
<g clip-path="url(#clip0_32_1281)">
<path d="M13 26C20.1797 26 26 20.1797 26 13C26 5.8203 20.1797 0 13 0C5.8203 0 0 5.8203 0 13C0 20.1797 5.8203 26 13 26Z" fill="#002060"/>
<path d="M20.515 7.67308C20.4443 7.60226 20.3602 7.54609 20.2678 7.50776C20.1753 7.46943 20.0761 7.44971 19.976 7.44971C19.8759 7.44971 19.7768 7.46943 19.6843 7.50776C19.5918 7.54609 19.5078 7.60226 19.437 7.67308L10.288 16.7961L6.98804 13.2081C6.92001 13.1343 6.83813 13.0747 6.74707 13.0326C6.656 12.9905 6.55754 12.9668 6.4573 12.9628C6.35706 12.9587 6.257 12.9745 6.16285 13.0091C6.06869 13.0437 5.98228 13.0966 5.90854 13.1646C5.8348 13.2326 5.77518 13.3145 5.73309 13.4055C5.691 13.4966 5.66726 13.5951 5.66322 13.6953C5.65918 13.7956 5.67492 13.8956 5.70955 13.9898C5.74418 14.0839 5.79701 14.1703 5.86504 14.2441L9.70404 18.4081C9.7736 18.4837 9.85774 18.5445 9.9514 18.5868C10.0451 18.629 10.1463 18.6519 10.249 18.6541H10.265C10.4667 18.6541 10.6601 18.5743 10.803 18.4321L20.513 8.74708C20.6551 8.60459 20.735 8.4117 20.7354 8.21049C20.7358 8.00928 20.6566 7.81609 20.515 7.67308Z" fill="white"/>
</g>
<defs>
<clipPath id="clip0_32_1281">
<rect width="26" height="26" fill="white"/>
</clipPath>
</defs>
</svg>
