<svg xmlns="http://www.w3.org/2000/svg" width="59" height="59" viewBox="0 0 59 59">
  <g id="ico_12" transform="translate(-712 -1074)">
    <rect id="bg_" width="59" height="59" rx="5" transform="translate(712 1074)" fill="#e9f4fd"/>
    <g id="그룹_1226" data-name="그룹 1226" transform="translate(726.75 1092.29)">
      <path id="패스_2546" data-name="패스 2546" d="M-900.385,1882.7a.628.628,0,0,1-.435-.173.579.579,0,0,1-.18-.417v-2.36a.6.6,0,0,1,.615-.59.6.6,0,0,0,.615-.59.6.6,0,0,0-.615-.59.6.6,0,0,1-.615-.59v-2.36a.6.6,0,0,1,.615-.59.6.6,0,0,0,.615-.59.6.6,0,0,0-.615-.59.6.6,0,0,1-.615-.59v-2.36a.6.6,0,0,1,.615-.59.6.6,0,0,0,.615-.59.574.574,0,0,0-.18-.417.624.624,0,0,0-.435-.173.6.6,0,0,1-.615-.59v-2.36a.6.6,0,0,1,.615-.59h28.271a.628.628,0,0,1,.435.173.579.579,0,0,1,.18.417v2.36a.6.6,0,0,1-.615.59.6.6,0,0,0-.615.59.6.6,0,0,0,.615.59.6.6,0,0,1,.615.59v2.36a.6.6,0,0,1-.615.59.6.6,0,0,0-.615.59.6.6,0,0,0,.615.59.6.6,0,0,1,.615.59v2.36a.6.6,0,0,1-.615.59.6.6,0,0,0-.615.59.6.6,0,0,0,.615.59.6.6,0,0,1,.615.59v2.36a.6.6,0,0,1-.615.59Zm.615-2.461v1.281h27.042v-1.281a1.78,1.78,0,0,1-1.229-1.669,1.779,1.779,0,0,1,1.229-1.669v-1.382a1.78,1.78,0,0,1-1.229-1.669,1.78,1.78,0,0,1,1.229-1.669V1870.8a1.78,1.78,0,0,1-1.229-1.669,1.779,1.779,0,0,1,1.229-1.669v-1.281h-27.042v1.28a1.851,1.851,0,0,1,.689.418,1.724,1.724,0,0,1,.54,1.252,1.78,1.78,0,0,1-1.229,1.669v1.382a1.78,1.78,0,0,1,1.229,1.669,1.78,1.78,0,0,1-1.229,1.669v1.382a1.78,1.78,0,0,1,1.229,1.669A1.779,1.779,0,0,1-899.771,1880.239Z" transform="translate(901 -1865)" fill="#0f3653"/>
      <rect id="사각형_1335" data-name="사각형 1335" width="1.18" height="7.08" transform="translate(5.9 5.9)" fill="#0f3653"/>
      <rect id="사각형_1336" data-name="사각형 1336" width="1.18" height="7.08" transform="translate(12.98 5.9)" fill="#0f3653"/>
      <rect id="사각형_1337" data-name="사각형 1337" width="1.18" height="7.08" transform="translate(15.34 5.9)" fill="#0f3653"/>
      <rect id="사각형_1338" data-name="사각형 1338" width="1.18" height="7.08" transform="translate(8.26 5.9)" fill="#0f3653"/>
      <rect id="사각형_1339" data-name="사각형 1339" width="1.18" height="7.08" transform="translate(10.62 5.9)" fill="#0f3653"/>
      <rect id="사각형_1340" data-name="사각형 1340" width="1.18" height="3.54" transform="translate(21.24 4.72)" fill="#0f3653"/>
      <rect id="사각형_1341" data-name="사각형 1341" width="1.18" height="2.36" transform="translate(21.24 1.18)" fill="#0f3653"/>
      <rect id="사각형_1342" data-name="사각형 1342" width="1.18" height="3.54" transform="translate(21.24 9.44)" fill="#0f3653"/>
      <rect id="사각형_1343" data-name="사각형 1343" width="1.18" height="3.54" transform="translate(21.24 14.16)" fill="#0f3653"/>
      <rect id="사각형_1344" data-name="사각형 1344" width="1.18" height="29.5" rx="0.59" transform="translate(29.5 18.88) rotate(90)" fill="#0f3653"/>
      <rect id="사각형_1345" data-name="사각형 1345" width="1.18" height="29.5" rx="0.59" transform="translate(29.5 21.24) rotate(90)" fill="#0f3653"/>
    </g>
  </g>
</svg>
