<svg xmlns="http://www.w3.org/2000/svg" width="89" height="21.014" viewBox="0 0 89 21.014">
  <g id="그룹_1165" data-name="그룹 1165" transform="translate(-40 -1039.986)">
    <text id="화상연결" transform="translate(97 1057)" fill="#fff" font-size="16" font-family="MalgunGothic, Malgun Gothic"><tspan x="-32" y="0">화상연결</tspan></text>
    <g id="ico_" transform="translate(-1442.209 926.307)">
      <rect id="사각형_1045" data-name="사각형 1045" width="20" height="20" transform="translate(1482.209 113.693)" fill="none"/>
      <g id="그룹_1164" data-name="그룹 1164" transform="translate(1482.875 114.179)">
        <g id="그룹_1163" data-name="그룹 1163" transform="translate(0 2.641)">
          <g id="그룹_1161" data-name="그룹 1161" transform="translate(0 0)">
            <path id="패스_2481" data-name="패스 2481" d="M330.822,720.013v9.467H314.11V716.369h7.746" transform="translate(-314.11 -716.369)" fill="none" stroke="#fff" stroke-linecap="round" stroke-linejoin="round" stroke-width="1"/>
            <line id="선_13" data-name="선 13" x2="7.871" transform="translate(4.42 16.138)" fill="none" stroke="#fff" stroke-linecap="round" stroke-linejoin="round" stroke-width="1"/>
            <g id="그룹_1160" data-name="그룹 1160" transform="translate(5.752 13.353)">
              <line id="선_14" data-name="선 14" y1="2.422" fill="none" stroke="#fff" stroke-linecap="round" stroke-linejoin="round" stroke-width="1"/>
              <line id="선_15" data-name="선 15" y1="2.422" transform="translate(5.207)" fill="none" stroke="#fff" stroke-linecap="round" stroke-linejoin="round" stroke-width="1"/>
            </g>
          </g>
          <g id="그룹_1162" data-name="그룹 1162" transform="translate(2.72 1.78)">
            <circle id="타원_473" data-name="타원 473" cx="1.776" cy="1.776" r="1.776" transform="translate(0.506 3.253) rotate(-66.312)" fill="none" stroke="#fff" stroke-linecap="round" stroke-linejoin="round" stroke-width="1"/>
            <path id="패스_2482" data-name="패스 2482" d="M334.016,755.73a2.846,2.846,0,0,0-5.691,0" transform="translate(-328.325 -747.676)" fill="none" stroke="#fff" stroke-linecap="round" stroke-linejoin="round" stroke-width="1"/>
          </g>
          <line id="선_16" data-name="선 16" x2="16.066" transform="translate(0.323 10.094)" fill="none" stroke="#fff" stroke-linecap="round" stroke-linejoin="round" stroke-width="1"/>
        </g>
        <path id="패스_2483" data-name="패스 2483" d="M370.51,702.568h-5.178a2.215,2.215,0,0,0-2.215,2.215v1.625a2.215,2.215,0,0,0,2.215,2.215h.512v1.7l1.7-1.7h2.97a2.215,2.215,0,0,0,2.215-2.215v-1.625A2.215,2.215,0,0,0,370.51,702.568Z" transform="translate(-353.74 -702.568)" fill="none" stroke="#fff" stroke-linecap="round" stroke-linejoin="round" stroke-width="1"/>
      </g>
    </g>
  </g>
</svg>
