<svg xmlns="http://www.w3.org/2000/svg" xmlns:xlink="http://www.w3.org/1999/xlink" width="30" height="30" viewBox="0 0 30 30">
  <defs>
    <clipPath id="clip-path">
      <rect id="사각형_879" data-name="사각형 879" width="30" height="30" transform="translate(230 210)" fill="#2c93e8"/>
    </clipPath>
  </defs>
  <g id="ico_" transform="translate(-230 -210)" clip-path="url(#clip-path)">
    <g id="eye" transform="translate(230 211.375)">
      <path id="패스_1058" data-name="패스 1058" d="M29.882,19.154a17.184,17.184,0,0,0-29.764,0,.879.879,0,0,0,0,.88,17.184,17.184,0,0,0,29.764,0A.879.879,0,0,0,29.882,19.154Zm-7.61.44A7.272,7.272,0,1,1,15,12.322,7.281,7.281,0,0,1,22.272,19.594Zm-20.368,0A15.52,15.52,0,0,1,7.18,14.449q.336-.2.682-.379a9.011,9.011,0,0,0,0,11.049q-.345-.18-.682-.379A15.521,15.521,0,0,1,1.9,19.594ZM22.82,24.74q-.336.2-.682.379a9.011,9.011,0,0,0,0-11.049q.345.18.682.379A15.521,15.521,0,0,1,28.1,19.594,15.52,15.52,0,0,1,22.82,24.74Z" transform="translate(0 -1.375)" fill="#2c93e8"/>
      <path id="패스_1059" data-name="패스 1059" d="M15,23.922a4.328,4.328,0,1,0-4.328-4.328A4.333,4.333,0,0,0,15,23.922Zm0-6.9a2.57,2.57,0,1,1-2.57,2.57A2.573,2.573,0,0,1,15,17.024Z" transform="translate(0 -1.375)" fill="#2c93e8"/>
      <path id="패스_1060" data-name="패스 1060" d="M15,6.635a.879.879,0,0,0,.879-.879v-3.5a.879.879,0,1,0-1.758,0v3.5A.879.879,0,0,0,15,6.635Z" transform="translate(0 -1.375)" fill="#2c93e8"/>
      <path id="패스_1061" data-name="패스 1061" d="M26.287,9.784a.876.876,0,0,0,.621-.257L29.385,7.05a.879.879,0,0,0-1.243-1.243L25.666,8.284a.879.879,0,0,0,.622,1.5Z" transform="translate(0 -1.375)" fill="#2c93e8"/>
      <path id="패스_1062" data-name="패스 1062" d="M3.065,9.527A.879.879,0,1,0,4.308,8.284L1.832,5.807A.879.879,0,0,0,.589,7.05Z" transform="translate(0 -1.375)" fill="#2c93e8"/>
    </g>
  </g>
</svg>
