<svg xmlns="http://www.w3.org/2000/svg" width="14" height="14" viewBox="0 0 14 14">
  <path id="ico_set" d="M1374.969,355.221c-.4-.122-.8-.247-1.2-.369a.428.428,0,0,1-.279-.26,6.185,6.185,0,0,0-.35-.751.433.433,0,0,1-.016-.411c.2-.385.388-.774.581-1.159a.424.424,0,0,0-.083-.5l-.876-.883a.437.437,0,0,0-.517-.077q-.674.361-1.354.719a.412.412,0,0,1-.372.019c-.154-.064-.311-.125-.469-.173a.431.431,0,0,1-.286-.276c-.164-.5-.331-.988-.491-1.483a.431.431,0,0,0-.414-.3H1367.6a.428.428,0,0,0-.42.308c-.151.5-.3.991-.453,1.489a.431.431,0,0,1-.279.286,4.071,4.071,0,0,0-.395.147.412.412,0,0,1-.373-.019c-.453-.238-.9-.478-1.354-.719a.423.423,0,0,0-.514.077c-.3.292-.59.587-.879.883a.424.424,0,0,0-.084.5c.193.385.389.774.581,1.159a.408.408,0,0,1-.016.411,5.711,5.711,0,0,0-.35.751.427.427,0,0,1-.279.26l-1.2.369a.429.429,0,0,0-.311.414v1.245a.437.437,0,0,0,.3.417c.395.129.786.26,1.181.4a.429.429,0,0,1,.276.266,4.869,4.869,0,0,0,.34.757.42.42,0,0,1,0,.417q-.3.568-.607,1.139a.435.435,0,0,0,.08.51c.3.3.584.59.879.883a.434.434,0,0,0,.5.083c.456-.231.915-.459,1.367-.687a.426.426,0,0,1,.369-.01c.157.064.314.128.478.183a.423.423,0,0,1,.279.286c.148.491.3.988.453,1.486a.428.428,0,0,0,.42.311h1.246a.43.43,0,0,0,.414-.3c.161-.491.328-.988.491-1.48a.411.411,0,0,1,.286-.276c.186-.061.369-.135.552-.209a.426.426,0,0,1,.369.01l1.367.687a.434.434,0,0,0,.5-.083c.3-.292.591-.588.879-.883a.435.435,0,0,0,.08-.51q-.3-.573-.607-1.139a.421.421,0,0,1,0-.417,4.87,4.87,0,0,0,.34-.757.429.429,0,0,1,.276-.266c.391-.135.786-.266,1.181-.4a.434.434,0,0,0,.3-.417v-1.245A.426.426,0,0,0,1374.969,355.221Zm-6.692,4.416a3.325,3.325,0,1,1,3.521-3.319A3.425,3.425,0,0,1,1368.277,359.638Z" transform="translate(-1361.277 -349.319)" fill="#c9cdd2"/>
</svg>
