<svg xmlns="http://www.w3.org/2000/svg" xmlns:xlink="http://www.w3.org/1999/xlink" width="55" height="55" viewBox="0 0 55 55">
  <defs>
    <clipPath id="clip-path">
      <rect id="사각형_1046" data-name="사각형 1046" width="55" height="55" transform="translate(540 338)" fill="#fff" stroke="#707070" stroke-width="1"/>
    </clipPath>
  </defs>
  <g id="마스크_그룹_161" data-name="마스크 그룹 161" transform="translate(-540 -338)" clip-path="url(#clip-path)">
    <g id="그룹_914" data-name="그룹 914" transform="translate(397.928 114.402)">
      <g id="그룹_906" data-name="그룹 906" transform="translate(143.072 235.171)">
        <g id="그룹_902" data-name="그룹 902">
          <path id="패스_1103" data-name="패스 1103" d="M192.257,269.544H147.345a4.278,4.278,0,0,1-4.273-4.273V238.284a4.278,4.278,0,0,1,4.273-4.274h19.35a.562.562,0,0,1,0,1.123h-19.35a3.154,3.154,0,0,0-3.15,3.151v26.986a3.154,3.154,0,0,0,3.15,3.15h44.912a3.154,3.154,0,0,0,3.15-3.15V238.284a3.154,3.154,0,0,0-3.15-3.151.562.562,0,1,1,0-1.123,4.278,4.278,0,0,1,4.273,4.274v26.986A4.278,4.278,0,0,1,192.257,269.544Z" transform="translate(-143.072 -234.01)" fill="#c9cdd2"/>
        </g>
        <g id="그룹_903" data-name="그룹 903" transform="translate(17.532 34.41)">
          <path id="패스_1104" data-name="패스 1104" d="M176.511,269.952h-17.27a.561.561,0,0,1-.562-.562V265.2a.561.561,0,0,1,.562-.562h17.27a.56.56,0,0,1,.562.562v4.187A.56.56,0,0,1,176.511,269.952ZM159.8,268.829h16.147v-3.063H159.8Z" transform="translate(-158.679 -264.642)" fill="#c9cdd2"/>
        </g>
        <g id="그룹_904" data-name="그룹 904" transform="translate(10.434 38.597)">
          <path id="패스_1105" data-name="패스 1105" d="M184.389,272.632H152.922a.562.562,0,0,1-.562-.562v-3.14a.562.562,0,0,1,.562-.562h31.467a.562.562,0,0,1,.562.562v3.14A.562.562,0,0,1,184.389,272.632Zm-30.906-1.123h30.344v-2.016H153.483Z" transform="translate(-152.36 -268.369)" fill="#c9cdd2"/>
        </g>
        <g id="그룹_905" data-name="그룹 905" transform="translate(0 29.831)">
          <path id="패스_1106" data-name="패스 1106" d="M195.968,261.688H143.634a.562.562,0,0,1,0-1.123h52.335a.562.562,0,1,1,0,1.123Z" transform="translate(-143.072 -260.565)" fill="#c9cdd2"/>
        </g>
      </g>
      <g id="그룹_913" data-name="그룹 913" transform="translate(160.436 224.598)">
        <g id="그룹_912" data-name="그룹 912">
          <g id="그룹_907" data-name="그룹 907" transform="translate(3.411 4.48)">
            <path id="패스_1107" data-name="패스 1107" d="M167.154,251.058a.559.559,0,0,1-.4-.164l-5.026-5.026a.562.562,0,0,1,0-.794l16.323-16.323a.562.562,0,1,1,.794.8L162.922,245.47l4.232,4.232,15.926-15.925a.562.562,0,0,1,.794.794l-16.322,16.322A.559.559,0,0,1,167.154,251.058Z" transform="translate(-161.566 -228.586)" fill="#c9cdd2"/>
          </g>
          <g id="그룹_908" data-name="그룹 908" transform="translate(19.1 2.279)">
            <path id="패스_1108" data-name="패스 1108" d="M182.388,235.61a.559.559,0,0,1-.4-.164l-6.294-6.293a.564.564,0,0,1,0-.8l1.568-1.567a.562.562,0,0,1,.794,0l1.625,1.626a.562.562,0,0,1-.794.794l-1.229-1.229-.773.774,5.5,5.5.773-.773-2.288-2.289a.562.562,0,0,1,.794-.794l2.686,2.687a.562.562,0,0,1,0,.794l-1.568,1.567A.555.555,0,0,1,182.388,235.61Z" transform="translate(-175.532 -226.627)" fill="#c9cdd2"/>
          </g>
          <g id="그룹_909" data-name="그룹 909" transform="translate(21.302)">
            <path id="패스_1109" data-name="패스 1109" d="M183.08,233.66a.562.562,0,0,1-.4-.959l2.34-2.34a1.478,1.478,0,0,0,0-2.087l-2.143-2.144a1.513,1.513,0,0,0-2.088,0l-2.34,2.34a.562.562,0,0,1-.794-.794l2.34-2.34a2.662,2.662,0,0,1,3.677,0l2.143,2.144a2.6,2.6,0,0,1,0,3.676l-2.34,2.34A.556.556,0,0,1,183.08,233.66Z" transform="translate(-177.492 -224.598)" fill="#c9cdd2"/>
          </g>
          <g id="그룹_910" data-name="그룹 910" transform="translate(0 20.802)">
            <path id="패스_1110" data-name="패스 1110" d="M159.091,252.816a.561.561,0,0,1-.521-.77l3.412-8.577a.561.561,0,1,1,1.042.416l-2.916,7.332,7.2-3.032a.562.562,0,1,1,.436,1.036l-8.437,3.551A.572.572,0,0,1,159.091,252.816Z" transform="translate(-158.529 -243.115)" fill="#c9cdd2"/>
          </g>
          <g id="그룹_911" data-name="그룹 911" transform="translate(1.266 26.196)">
            <path id="패스_1111" data-name="패스 1111" d="M162.082,250.906a.564.564,0,0,1-.4-.164l-1.865-1.866a.561.561,0,0,1,.794-.793l1.865,1.865a.561.561,0,0,1-.4.958Z" transform="translate(-159.656 -247.918)" fill="#c9cdd2"/>
          </g>
        </g>
      </g>
    </g>
  </g>
</svg>
