<svg width="22" height="22" viewBox="0 0 22 22" fill="none" xmlns="http://www.w3.org/2000/svg">
<path fill-rule="evenodd" clip-rule="evenodd" d="M15.054 12.2479V12.2624L20.3096 6.66847C20.6842 6.33286 20.9838 5.92206 21.1889 5.46287C21.394 5.00368 21.5 4.50641 21.5 4.0035C21.5 3.50059 21.394 3.00333 21.1889 2.54414C20.9838 2.08495 20.6842 1.67415 20.3096 1.33853C20.2945 1.31802 20.277 1.29938 20.2575 1.283C20.2433 1.26173 20.2257 1.24297 20.2054 1.22746C18.4453 -0.251559 16.827 -0.246433 15.2497 1.22746L15.242 1.21037L15.1198 1.34708C15.0902 1.38015 15.0567 1.41587 15.0177 1.45757C14.9982 1.47836 14.9774 1.50063 14.9549 1.5248L9.97617 6.82227L11.4697 7.49043L16.2947 2.3536C16.4826 2.16323 16.7064 2.01207 16.9532 1.90891C17.2 1.80574 17.4648 1.75262 17.7322 1.75262C17.9997 1.75262 18.2645 1.80574 18.5113 1.90891C18.7581 2.01207 18.9819 2.16323 19.1698 2.3536C19.1948 2.37618 19.2182 2.40044 19.2399 2.42623L19.2766 2.46724C19.6572 2.88603 19.8681 3.43162 19.8681 3.99752C19.8681 4.56342 19.6572 5.10901 19.2766 5.52781V5.51157C19.2006 5.5842 19.1698 5.61752 19.1698 5.61752V5.62607L13.6921 11.4576C12.7966 12.4111 10.9374 11.4097 10.9374 11.4097C10.2564 10.9851 9.74375 10.8842 9.43701 11.4567C9.36864 11.6309 9.35384 11.8215 9.39448 12.0042C9.43513 12.1869 9.52936 12.3532 9.66514 12.482L9.71727 12.5376C9.73424 12.5581 9.7525 12.5775 9.77195 12.5957C11.2399 13.7705 13.0683 14.2319 14.7276 12.5957L15.054 12.2479ZM6.94607 9.75237V9.73784L1.69047 15.3318C1.31592 15.6674 1.01634 16.0782 0.811239 16.5374C0.606135 16.9966 0.500136 17.4939 0.500136 17.9968C0.500136 18.4997 0.606135 18.9969 0.811239 19.4561C1.01634 19.9153 1.31592 20.3261 1.69047 20.6617C1.7059 20.682 1.72337 20.7006 1.74259 20.7173C1.75715 20.7385 1.77504 20.7573 1.79558 20.7728C3.5557 22.2518 5.17398 22.2467 6.75126 20.7728L6.75895 20.7899L6.88114 20.6532C6.92557 20.6036 6.97769 20.5481 7.04604 20.4755L12.0248 15.178L10.5313 14.5098L5.7063 19.6467C5.51847 19.8371 5.29464 19.9884 5.04785 20.0916C4.80106 20.1949 4.53623 20.248 4.26873 20.248C4.00121 20.248 3.73636 20.1949 3.48957 20.0916C3.24279 19.9884 3.01898 19.8371 2.83115 19.6467C2.80608 19.6242 2.78267 19.5999 2.76109 19.574C2.76109 19.574 2.73972 19.5493 2.72349 19.533C2.34307 19.1142 2.13231 18.5686 2.13231 18.0028C2.13231 17.4369 2.34307 16.8913 2.72349 16.4725V16.4896C2.79868 16.4169 2.83029 16.3836 2.83029 16.3836V16.3751L8.30805 10.5436C9.2035 9.59003 11.0627 10.5906 11.0627 10.5906C11.7437 11.0152 12.2564 11.116 12.5631 10.5436C12.6315 10.3694 12.6463 10.1787 12.6056 9.99607C12.565 9.81341 12.4707 9.64703 12.335 9.51826L12.2828 9.46272C12.2659 9.44221 12.2476 9.42281 12.2282 9.40462C10.7603 8.23063 8.93178 7.76838 7.27248 9.40462L6.94607 9.75237Z" fill="#72787F"/>
</svg>
