<svg xmlns="http://www.w3.org/2000/svg" width="18" height="18" viewBox="0 0 18 18">
  <g id="타원_389" data-name="타원 389" fill="#fff">
    <path d="M 9 15.5 C 5.415890216827393 15.5 2.5 12.58411026000977 2.5 9 C 2.5 5.415890216827393 5.415890216827393 2.5 9 2.5 C 12.58411026000977 2.5 15.5 5.415890216827393 15.5 9 C 15.5 12.58411026000977 12.58411026000977 15.5 9 15.5 Z" stroke="none"/>
    <path d="M 9 5 C 6.794389724731445 5 5 6.794389724731445 5 9 C 5 11.20561027526855 6.794389724731445 13 9 13 C 11.20561027526855 13 13 11.20561027526855 13 9 C 13 6.794389724731445 11.20561027526855 5 9 5 M 9 0 C 13.97056007385254 0 18 4.029439926147461 18 9 C 18 13.97056007385254 13.97056007385254 18 9 18 C 4.029439926147461 18 0 13.97056007385254 0 9 C 0 4.029439926147461 4.029439926147461 0 9 0 Z" stroke="none" fill="#2c93e8"/>
  </g>
</svg>
