<svg xmlns="http://www.w3.org/2000/svg" xmlns:xlink="http://www.w3.org/1999/xlink" width="20" height="20" viewBox="0 0 20 20">
  <defs>
    <clipPath id="clip-path">
      <rect id="사각형_866" data-name="사각형 866" width="20" height="20" transform="translate(918 15)" fill="#72787f"/>
    </clipPath>
  </defs>
  <g id="ico_move" transform="translate(-918 -15)" clip-path="url(#clip-path)">
    <g id="free-icon-move-selector-889810" transform="translate(918 15)">
      <g id="그룹_780" data-name="그룹 780">
        <path id="패스_1048" data-name="패스 1048" d="M10,20a.435.435,0,0,1-.435-.435V.435a.435.435,0,1,1,.87,0v19.13A.435.435,0,0,1,10,20Z" fill="#72787f"/>
        <path id="패스_1049" data-name="패스 1049" d="M19.565,10.435H.435a.435.435,0,1,1,0-.87h19.13a.435.435,0,0,1,0,.87Z" fill="#72787f"/>
        <path id="패스_1050" data-name="패스 1050" d="M12.609,3.478a.435.435,0,0,1-.308-.127L10,1.05l-2.3,2.3a.435.435,0,0,1-.615-.615L9.693.128a.435.435,0,0,1,.615,0l2.609,2.609a.435.435,0,0,1-.308.742Z" fill="#72787f"/>
        <path id="패스_1051" data-name="패스 1051" d="M10,20a.435.435,0,0,1-.308-.127L7.084,17.264a.435.435,0,0,1,.615-.615l2.3,2.3,2.3-2.3a.435.435,0,0,1,.615.615l-2.609,2.609A.435.435,0,0,1,10,20Z" fill="#72787f"/>
        <path id="패스_1052" data-name="패스 1052" d="M16.957,13.043a.435.435,0,0,1-.308-.743l2.3-2.3-2.3-2.3a.435.435,0,0,1,.615-.615l2.609,2.609a.435.435,0,0,1,0,.615l-2.609,2.609A.435.435,0,0,1,16.957,13.043Z" fill="#72787f"/>
        <path id="패스_1053" data-name="패스 1053" d="M3.044,13.043a.435.435,0,0,1-.308-.127L.127,10.308a.435.435,0,0,1,0-.615L2.736,7.084a.435.435,0,0,1,.615.615L1.05,10l2.3,2.3a.435.435,0,0,1-.307.743Z" fill="#72787f"/>
      </g>
      <path id="패스_1054" data-name="패스 1054" d="M10,20a.435.435,0,0,1-.435-.435V.435a.435.435,0,1,1,.87,0v19.13A.435.435,0,0,1,10,20Z" fill="#72787f"/>
      <path id="패스_1055" data-name="패스 1055" d="M19.565,10.435H.435a.435.435,0,1,1,0-.87h19.13a.435.435,0,0,1,0,.87Z" fill="#72787f"/>
      <path id="패스_1056" data-name="패스 1056" d="M12.609,3.478a.435.435,0,0,1-.308-.127L10,1.05l-2.3,2.3a.435.435,0,0,1-.615-.615L9.693.128a.435.435,0,0,1,.615,0l2.609,2.609a.435.435,0,0,1-.308.742Z" fill="#72787f"/>
      <path id="패스_1057" data-name="패스 1057" d="M10,20a.435.435,0,0,1-.308-.127L7.084,17.264a.435.435,0,0,1,.615-.615l2.3,2.3,2.3-2.3a.435.435,0,0,1,.615.615l-2.609,2.609A.435.435,0,0,1,10,20Z" fill="#72787f"/>
      <path id="패스_1058" data-name="패스 1058" d="M16.957,13.043a.435.435,0,0,1-.308-.743l2.3-2.3-2.3-2.3a.435.435,0,0,1,.615-.615l2.609,2.609a.435.435,0,0,1,0,.615l-2.609,2.609A.435.435,0,0,1,16.957,13.043Z" fill="#72787f"/>
      <path id="패스_1059" data-name="패스 1059" d="M3.044,13.043a.435.435,0,0,1-.308-.127L.127,10.308a.435.435,0,0,1,0-.615L2.736,7.084a.435.435,0,0,1,.615.615L1.05,10l2.3,2.3a.435.435,0,0,1-.307.743Z" fill="#72787f"/>
    </g>
  </g>
</svg>
