<svg xmlns="http://www.w3.org/2000/svg" xmlns:xlink="http://www.w3.org/1999/xlink" width="18" height="18" viewBox="0 0 18 18">
  <defs>
    <clipPath id="clip-path">
      <rect id="사각형_882" data-name="사각형 882" width="18" height="18" transform="translate(282 63)" fill="#fff" stroke="#707070" stroke-width="1"/>
    </clipPath>
  </defs>
  <g id="마스크_그룹_152" data-name="마스크 그룹 152" transform="translate(-282 -63)" clip-path="url(#clip-path)">
    <g id="like_3_" data-name="like (3)" transform="translate(282 64.049)">
      <g id="그룹_852" data-name="그룹 852">
        <path id="패스_1661" data-name="패스 1661" d="M16.687,2.728a4.534,4.534,0,0,0-7.239.521A6.9,6.9,0,0,0,9,3.975a6.9,6.9,0,0,0-.448-.727,4.534,4.534,0,0,0-7.239-.521A5.456,5.456,0,0,0,0,6.352a6.681,6.681,0,0,0,1.84,4.384,40.969,40.969,0,0,0,4.606,4.3c.7.594,1.417,1.207,2.184,1.878l.023.02a.527.527,0,0,0,.695,0l.023-.02c.767-.671,1.487-1.285,2.184-1.878a40.963,40.963,0,0,0,4.606-4.3A6.682,6.682,0,0,0,18,6.352,5.456,5.456,0,0,0,16.687,2.728ZM10.87,14.236c-.6.512-1.218,1.038-1.87,1.6-.652-.566-1.27-1.093-1.87-1.6C3.472,11.118,1.055,9.059,1.055,6.352A4.4,4.4,0,0,1,2.1,3.425a3.52,3.52,0,0,1,2.677-1.2,3.555,3.555,0,0,1,2.91,1.638A6.252,6.252,0,0,1,8.5,5.463a.527.527,0,0,0,1,0,6.253,6.253,0,0,1,.807-1.605A3.481,3.481,0,0,1,15.9,3.425a4.4,4.4,0,0,1,1.05,2.927C16.945,9.059,14.528,11.118,10.87,14.236Z" transform="translate(0 -1.165)" fill="#fff"/>
      </g>
    </g>
  </g>
</svg>
