<svg xmlns="http://www.w3.org/2000/svg" xmlns:xlink="http://www.w3.org/1999/xlink" width="15" height="15" viewBox="0 0 15 15">
  <defs>
    <clipPath id="clip-path">
      <rect id="Rectangle_772" data-name="Rectangle 772" width="15" height="15" transform="translate(45 277)" fill="#0f3653"/>
    </clipPath>
  </defs>
  <g id="ico_sms" transform="translate(-45 -277)" clip-path="url(#clip-path)">
    <g id="email_2_" data-name="email (2)" transform="translate(45 278.787)">
      <g id="Group_267" data-name="Group 267" transform="translate(0.754)">
        <g id="Group_266" data-name="Group 266">
          <path id="Path_914" data-name="Path 914" d="M13.933,2.383H1.57A1.3,1.3,0,0,0,1,2.515L7.722,9.232,9.227,7.785h0l5.27-5.27a1.3,1.3,0,0,0-.564-.132Z" transform="translate(-1.005 -2.383)" fill="#0f3653"/>
        </g>
      </g>
      <g id="Group_269" data-name="Group 269" transform="translate(9.909 0.754)">
        <g id="Group_268" data-name="Group 268">
          <path id="Path_915" data-name="Path 915" d="M18.171,3.388l-4.96,4.959,4.959,4.959a1.3,1.3,0,0,0,.132-.565V3.952A1.3,1.3,0,0,0,18.171,3.388Z" transform="translate(-13.211 -3.388)" fill="#0f3653"/>
        </g>
      </g>
      <g id="Group_271" data-name="Group 271" transform="translate(0 0.754)">
        <g id="Group_270" data-name="Group 270">
          <path id="Path_916" data-name="Path 916" d="M.132,3.388A1.3,1.3,0,0,0,0,3.952v8.789a1.3,1.3,0,0,0,.132.565L5.091,8.347Z" transform="translate(0 -3.388)" fill="#0f3653"/>
        </g>
      </g>
      <g id="Group_273" data-name="Group 273" transform="translate(0.753 6.334)">
        <g id="Group_272" data-name="Group 272">
          <path id="Path_917" data-name="Path 917" d="M9.538,10.829,8.033,12.276a.439.439,0,0,1-.621,0L5.964,10.829,1,15.788a1.3,1.3,0,0,0,.565.132H13.933a1.3,1.3,0,0,0,.565-.132Z" transform="translate(-1.004 -10.829)" fill="#0f3653"/>
        </g>
      </g>
    </g>
  </g>
</svg>
