<svg xmlns="http://www.w3.org/2000/svg" xmlns:xlink="http://www.w3.org/1999/xlink" width="18" height="18" viewBox="0 0 18 18">
  <defs>
    <clipPath id="clip-path">
      <rect id="사각형_587" data-name="사각형 587" width="18" height="18" transform="translate(881 2989)" fill="#c2c2c2" stroke="#707070" stroke-width="1"/>
    </clipPath>
  </defs>
  <g id="ico_tack" transform="translate(-881 -2989)" clip-path="url(#clip-path)">
    <g id="free-icon-pushpin-66824" transform="translate(881 2989)">
      <path id="패스_885" data-name="패스 885" d="M17.824,6.658,11.342.176a.6.6,0,0,0-.849,0A7.842,7.842,0,0,0,9.417,2.863h0l-2.6,2.6A2.309,2.309,0,0,0,4.445,9.288L6.154,11,.176,16.976a.6.6,0,0,0,.849.849L7,11.846l1.709,1.709a2.309,2.309,0,0,0,3.822-2.369l2.6-2.6a7.834,7.834,0,0,0,2.688-1.077A.6.6,0,0,0,17.824,6.658ZM14.7,7.453a.6.6,0,0,0-.328.187c-.032.036-.061.066-.089.094l-2.9,2.9a.6.6,0,0,0-.092.729,1.109,1.109,0,0,1-1.74,1.347L7.428,10.574h0L5.293,8.439A1.109,1.109,0,0,1,6.641,6.7a.6.6,0,0,0,.729-.092l2.895-2.895c.029-.029.06-.058.093-.087a.6.6,0,0,0,.189-.33,12.535,12.535,0,0,1,.515-1.7l5.344,5.344A12.435,12.435,0,0,1,14.7,7.453Z" transform="translate(0 0)" fill="#c2c2c2"/>
    </g>
  </g>
</svg>
