<svg xmlns="http://www.w3.org/2000/svg" width="12" height="16.324" viewBox="0 0 12 16.324">
  <g id="ico_신고" transform="translate(-331.512 -749.513)">
    <g id="그룹_803" data-name="그룹 803" transform="translate(331.512 749.513)">
      <g id="그룹_796" data-name="그룹 796" transform="translate(0 3.735)">
        <g id="그룹_795" data-name="그룹 795" transform="translate(1.314 0)">
          <path id="패스_1090" data-name="패스 1090" d="M-178.374,530.894a.489.489,0,0,1-.477-.5v-4.88a3.829,3.829,0,0,0-3.733-3.911,3.829,3.829,0,0,0-3.733,3.911v4.88a.489.489,0,0,1-.477.5.489.489,0,0,1-.477-.5v-4.88a4.807,4.807,0,0,1,4.686-4.91,4.807,4.807,0,0,1,4.686,4.91v4.88A.488.488,0,0,1-178.374,530.894Z" transform="translate(187.27 -520.605)" fill="#fc5d5b"/>
          <path id="패스_1091" data-name="패스 1091" d="M-170.993,529.775a.5.5,0,0,1-.5-.5,2.036,2.036,0,0,0-2.034-2.034.5.5,0,0,1-.5-.5.5.5,0,0,1,.5-.5,3.036,3.036,0,0,1,3.033,3.033A.5.5,0,0,1-170.993,529.775Z" transform="translate(178.123 -524.365)" fill="#fc5d5b"/>
        </g>
        <path id="패스_1092" data-name="패스 1092" d="M-180.782,553.725h-8.866a1.6,1.6,0,0,1-1.567-1.625,1.6,1.6,0,0,1,1.567-1.625h8.866a1.6,1.6,0,0,1,1.567,1.625A1.6,1.6,0,0,1-180.782,553.725Zm-8.866-2.252a.616.616,0,0,0-.6.626.616.616,0,0,0,.6.626h8.866a.616.616,0,0,0,.6-.626.616.616,0,0,0-.6-.626Z" transform="translate(191.215 -541.135)" fill="#fc5d5b"/>
      </g>
      <g id="그룹_802" data-name="그룹 802" transform="translate(1.833)">
        <g id="그룹_798" data-name="그룹 798" transform="translate(3.668)">
          <g id="그룹_797" data-name="그룹 797">
            <path id="패스_1093" data-name="패스 1093" d="M-173.525,511.943a.5.5,0,0,1-.5-.5V509.89a.5.5,0,0,1,.5-.5.5.5,0,0,1,.5.5v1.554A.5.5,0,0,1-173.525,511.943Z" transform="translate(174.024 -509.39)" fill="#fc5d5b"/>
          </g>
        </g>
        <g id="그룹_800" data-name="그룹 800" transform="translate(0 1.044)">
          <g id="그룹_799" data-name="그룹 799">
            <path id="패스_1094" data-name="패스 1094" d="M-184.3,514.831a.5.5,0,0,1-.409-.212l-.92-1.308a.5.5,0,0,1,.121-.7.5.5,0,0,1,.7.121l.92,1.308a.5.5,0,0,1-.121.7A.5.5,0,0,1-184.3,514.831Z" transform="translate(185.723 -512.524)" fill="#fc5d5b"/>
          </g>
        </g>
        <g id="그룹_801" data-name="그룹 801" transform="translate(6.416 1.043)">
          <path id="패스_1095" data-name="패스 1095" d="M-164.591,514.829a.5.5,0,0,1-.287-.091.5.5,0,0,1-.122-.7l.919-1.309a.5.5,0,0,1,.7-.122.5.5,0,0,1,.122.7l-.919,1.308A.5.5,0,0,1-164.591,514.829Z" transform="translate(165.09 -512.521)" fill="#fc5d5b"/>
        </g>
      </g>
    </g>
  </g>
</svg>
