<svg xmlns="http://www.w3.org/2000/svg" xmlns:xlink="http://www.w3.org/1999/xlink" width="35" height="35" viewBox="0 0 35 35">
  <defs>
    <clipPath id="clip-path">
      <rect id="Rectangle_783" data-name="Rectangle 783" width="35" height="35" transform="translate(30 230)" fill="#fff"/>
    </clipPath>
  </defs>
  <g id="ico_studySet" transform="translate(-30 -230)" clip-path="url(#clip-path)">
    <g id="free-icon-online-learning-3500360" transform="translate(34 234)">
      <circle id="Ellipse_376" data-name="Ellipse 376" cx="0.523" cy="0.523" r="0.523" transform="translate(12.977 22.499)" fill="#fff"/>
      <path id="Path_925" data-name="Path 925" d="M23.04,8.014,14.666,4.35a.523.523,0,0,0-.42,0L5.876,8.013a.531.531,0,0,0-.317.481v3.23A1.573,1.573,0,0,0,4.512,13.2V15.3a.523.523,0,0,0,.523.523H7.129a.523.523,0,0,0,.523-.523V13.2a1.573,1.573,0,0,0-1.047-1.48V9.294l3.14,1.374v3.583a.523.523,0,0,0,.311.478,13.154,13.154,0,0,0,4.4,1.092,13.154,13.154,0,0,0,4.4-1.092.523.523,0,0,0,.311-.478V10.668L23.04,8.973a.523.523,0,0,0,0-.959ZM6.605,14.774H5.558V13.2a.523.523,0,1,1,1.047,0ZM18.12,13.9a11.4,11.4,0,0,1-3.664.873,11.428,11.428,0,0,1-3.664-.873V11.126l3.454,1.511a.524.524,0,0,0,.42,0l3.454-1.511Zm-3.664-2.315L7.388,8.494,14.456,5.4l7.068,3.092-7.068,3.092Z" transform="translate(-1.057 -1.009)" fill="#fff"/>
      <path id="Path_926" data-name="Path 926" d="M30.044,13.877h-4.5a.523.523,0,1,0,0,1.047h4.5a.523.523,0,0,0,0-1.047Z" transform="translate(-5.661 -3.169)" fill="#fff"/>
      <path id="Path_927" data-name="Path 927" d="M30.044,16.611h-4.5a.523.523,0,1,0,0,1.047h4.5a.523.523,0,0,0,0-1.047Z" transform="translate(-5.661 -3.793)" fill="#fff"/>
      <circle id="Ellipse_377" data-name="Ellipse 377" cx="0.523" cy="0.523" r="0.523" transform="translate(12.977)" fill="#fff"/>
      <path id="Path_928" data-name="Path 928" d="M26.473,0h-10.6a.527.527,0,0,0,0,1.055H25.945V17.191H1.055V1.055H11.127a.527.527,0,0,0,0-1.055H.527A.527.527,0,0,0,0,.527V20.883a.527.527,0,0,0,.527.527H10.754L9.9,25.945H8.227a.527.527,0,0,0,0,1.055H18.773a.527.527,0,0,0,0-1.055H17.1l-.856-4.535H26.473A.527.527,0,0,0,27,20.883V.527A.527.527,0,0,0,26.473,0Zm-15.5,25.945.856-4.535h3.344l.856,4.535Zm14.973-5.59H1.055V18.246H25.945Z" fill="#fff"/>
    </g>
  </g>
</svg>
