<svg width="88" height="74" viewBox="0 0 88 74" fill="none" xmlns="http://www.w3.org/2000/svg">
<g clip-path="url(#clip0_150_2773)">
<path d="M30.3216 28.4729C27.2277 28.0991 25.103 25.1222 24.0792 22.1764C23.3835 20.3261 23.1179 18.341 23.3026 16.3722C23.4993 14.3872 24.4555 12.556 25.9703 11.2632C27.4528 10.2298 29.2631 9.78075 31.0551 10.0019C32.847 10.2231 34.4948 11.0989 35.6832 12.462C36.8021 13.8828 37.4906 15.596 37.6668 17.3979C37.843 19.1998 37.4995 21.0145 36.6772 22.6263" fill="#66423B"/>
<path d="M30.3266 27.885C29.1534 27.6899 28.0717 27.1277 27.2364 26.2788C26.3217 25.3578 25.5874 24.2728 25.0719 23.0801C24.3876 21.7324 23.98 20.2607 23.8732 18.7521C23.7665 17.2435 23.9629 15.7288 24.4507 14.2977C24.9421 13.0716 25.8064 12.0321 26.9208 11.327C27.9085 10.7516 29.04 10.4723 30.1812 10.522C30.7583 10.533 31.3314 10.6197 31.886 10.78C32.448 10.9294 32.9884 11.1509 33.4938 11.4392C34.547 12.0296 35.4205 12.8957 36.0212 13.945C36.6456 15.0924 37.0142 16.362 37.1015 17.6662C37.1888 18.9704 36.9927 20.278 36.5268 21.4988C36.4234 21.7839 36.3043 22.063 36.1703 22.3349C36.0956 22.4706 36.0759 22.6299 36.1152 22.7798C36.1545 22.9297 36.2499 23.0586 36.3815 23.1399C36.5164 23.2175 36.6764 23.239 36.8269 23.1996C36.9775 23.1602 37.1067 23.0632 37.1866 22.9293C37.8518 21.5888 38.2229 20.1209 38.275 18.6245C38.3271 17.1281 38.0589 15.6378 37.4886 14.2541C36.9387 12.9777 36.071 11.8645 34.9688 11.0212C33.8665 10.1778 32.5667 9.63265 31.1939 9.43796C29.8537 9.22497 28.481 9.37466 27.2178 9.87159C25.8517 10.4469 24.7039 11.4438 23.9412 12.7176C22.1084 15.7082 22.4415 19.4689 23.6219 22.6352C24.6048 25.2744 26.4225 27.9859 29.248 28.847C29.5996 28.9489 29.9592 29.021 30.3229 29.0625C30.4784 29.0619 30.6272 28.9997 30.7373 28.8896C30.8473 28.7795 30.9096 28.6303 30.9106 28.4744C30.9065 28.3195 30.8432 28.1721 30.7339 28.0626C30.6245 27.9531 30.4774 27.89 30.3229 27.8862" fill="#161616"/>
<path d="M51.9876 18.9009C51.8037 18.5027 51.7024 18.0711 51.6898 17.6324C51.6772 17.1938 51.7536 16.7571 51.9144 16.3489C52.1997 14.8937 52.8443 13.5334 53.7893 12.3926C54.4335 11.7469 55.1953 11.2313 56.0334 10.8736C57.3713 10.2176 58.8419 9.87956 60.3311 9.88583C61.8204 9.89209 63.2882 10.2425 64.6205 10.9098C65.9301 11.6173 66.9725 12.7354 67.5884 14.0932C68.2043 15.451 68.3599 16.9738 68.0313 18.4286C67.7103 19.4392 67.1887 20.3743 66.498 21.1775C64.6497 23.4179 62.0783 24.9396 59.2291 25.479" fill="#66423B"/>
<path d="M52.4983 18.6029C52.2512 18.0967 52.2067 17.5148 52.374 16.9768C52.51 16.3428 52.6872 15.7184 52.9045 15.1076C53.2641 13.9286 53.9861 12.8937 54.9672 12.1507C57.0648 10.7174 59.641 10.1704 62.1379 10.628C63.2497 10.8261 64.2951 11.2982 65.18 12.0018C66.0649 12.7054 66.7615 13.6185 67.2073 14.6591C67.5981 15.5834 67.74 16.5945 67.6187 17.5911C67.3879 18.8173 66.8238 19.9558 65.9885 20.8807C64.2139 22.9792 61.7738 24.402 59.0775 24.9106C58.9282 24.9534 58.8017 25.0531 58.725 25.1885C58.6483 25.3239 58.6276 25.4841 58.6674 25.6346C58.712 25.7833 58.812 25.9091 58.9467 25.9857C59.0814 26.0623 59.2405 26.0838 59.3906 26.0458C62.0639 25.5302 64.5088 24.1871 66.3812 22.2053C67.4127 21.1745 68.18 19.9086 68.6176 18.5157C68.9373 17.3011 68.8999 16.0197 68.5096 14.826C68.1053 13.5911 67.4048 12.4746 66.4697 11.5745C65.5347 10.6744 64.3937 10.0182 63.1468 9.66351C61.7639 9.29692 60.3223 9.20858 58.9052 9.40363C57.4881 9.59868 56.1234 10.0732 54.8901 10.7999C53.637 11.5255 52.6535 12.6404 52.0882 13.9762C51.8096 14.6318 51.5791 15.3069 51.3986 15.9961C51.1763 16.6733 51.0827 17.3864 51.1228 18.0982C51.1602 18.4865 51.2824 18.8617 51.4806 19.1973C51.872 19.844 52.8897 19.2533 52.4958 18.6029" fill="#161616"/>
<path d="M75.4677 29.8451C73.1961 29.6968 70.9481 30.3799 69.1407 31.7678C67.7831 33.1528 66.7996 34.8618 66.2829 36.7335C65.4282 39.0883 64.025 41.2043 62.19 42.9054C60.351 44.5327 57.6486 45.2991 55.3909 46.2909C54.7485 46.5726 53.819 46.1277 53.0822 46.2087C49.8482 46.7886 46.6606 47.6036 43.5445 48.6473C41.5812 49.1431 39.5383 49.2368 37.5381 48.9227C32.9613 48.2755 28.7805 45.9663 25.7887 42.4331C24.7179 40.8137 23.2538 39.4943 21.5342 38.5989C19.387 37.8403 17.0384 37.8885 14.924 38.7347C11.6549 40.2948 10.8708 44.813 12.2165 47.8859C13.3272 50.2689 14.7341 52.5014 16.4038 54.5301C19.0731 57.9279 22.056 61.0657 25.3128 63.9018C28.7945 66.7191 31.956 69.9126 34.74 73.4245C37.722 77.473 38.6551 82.3165 39.8256 87.094C39.9262 87.8473 40.2732 88.5459 40.8122 89.0802C41.4816 89.4895 42.2741 89.6476 43.0487 89.5263C49.987 89.1799 56.7054 87.0927 63.3368 85.023C65.603 84.4585 67.7524 83.498 69.6862 82.1856C70.1492 81.8744 70.516 81.4392 70.7449 80.9296C70.8947 80.4172 70.9148 79.8754 70.8033 79.3533C70.5349 77.4842 70.0341 75.6262 69.6849 73.7833C69.2786 71.6649 68.102 69.7286 68.0697 67.5218C68.0224 63.5206 71.5227 60.12 73.3915 56.9961C75.6079 53.2883 77.4705 49.3791 78.9543 45.3203C79.9125 42.8727 80.5575 40.3131 80.874 37.7029C81.2008 34.3646 79.0549 30.3112 75.4628 29.8439" fill="white"/>
<path d="M75.4702 29.2559C73.4466 29.0926 71.4238 29.581 69.6961 30.6503C68.1915 31.645 67.0431 33.0958 66.4183 34.791C66.0704 35.6084 65.7971 36.4546 65.4467 37.2708C65.0789 38.1224 64.6395 38.9411 64.1333 39.7181C63.2188 41.21 61.9744 42.4712 60.4964 43.404C58.9277 44.2311 57.304 44.9489 55.6368 45.5522C55.333 45.7198 54.9892 45.8003 54.6428 45.7852C54.1881 45.7428 53.7432 45.6083 53.2835 45.6095C52.3071 45.6633 51.3393 45.8229 50.3971 46.0855C48.4662 46.5304 46.5838 47.1572 44.6815 47.7142C43.7435 48.0142 42.7839 48.2417 41.8112 48.3946C40.785 48.5237 39.7481 48.5461 38.7172 48.4618C35.1127 48.1606 31.673 46.8166 28.8155 44.5927C28.1501 44.0745 27.5269 43.504 26.9517 42.8868C26.3652 42.2563 25.8583 41.5572 25.3029 40.9006C24.2081 39.4467 22.6989 38.3604 20.9751 37.7853C19.9928 37.5333 18.9784 37.43 17.9657 37.4788C16.9854 37.4927 16.0149 37.6761 15.0967 38.0209C13.7469 38.5589 12.6308 39.5594 11.9468 40.8445C11.2795 42.1202 10.9541 43.548 11.0025 44.9878C11.0857 46.5392 11.5259 48.0502 12.2886 49.4026C13.1942 51.1068 14.2491 52.7268 15.4409 54.2436C16.666 55.8436 17.9586 57.3879 19.3188 58.8766C20.6789 60.3653 22.1 61.7882 23.582 63.1456C25.0432 64.4852 26.5641 65.7624 28.0303 67.092C31.0015 69.5708 33.5476 72.5212 35.5674 75.8258C37.1834 79.158 38.3488 82.6915 39.0329 86.3328C39.1699 87.2079 39.4419 88.0563 39.8393 88.8474C40.0825 89.2237 40.413 89.5353 40.8025 89.7555C41.192 89.9758 41.6289 90.0981 42.0758 90.1121C43.0534 90.1547 44.0329 90.108 45.002 89.9726C46.052 89.8716 47.0981 89.7359 48.1394 89.5714C52.2326 88.8626 56.2718 87.87 60.228 86.6007C62.1477 86.0163 64.0898 85.4618 65.9747 84.769C66.8779 84.447 67.7549 84.0554 68.5978 83.5977C69.4383 83.1809 70.1943 82.6108 70.8269 81.9167C71.113 81.5199 71.3086 81.0648 71.3999 80.5837C71.4912 80.1027 71.4758 79.6074 71.3549 79.1329C71.2046 78.1074 70.9822 77.0931 70.7635 76.0813C70.5448 75.0695 70.3671 74.0526 70.1136 73.0545C69.8813 72.1387 69.5371 71.2564 69.2439 70.3617C68.9185 69.4888 68.7221 68.5727 68.6611 67.6428C68.6442 66.8443 68.7628 66.0488 69.0115 65.2902C69.5613 63.7652 70.3375 62.3322 71.3139 61.0398C72.2545 59.6878 73.2572 58.3831 74.096 56.9626C75.1389 55.1957 76.1014 53.3847 76.9836 51.5297C77.8658 49.6747 78.6677 47.7777 79.3892 45.8388C80.1197 43.9515 80.6981 42.0084 81.1187 40.0283C81.527 38.3969 81.5741 36.6956 81.2567 35.0439C80.9213 33.608 80.2196 32.2842 79.2202 31.2023C78.2711 30.1704 77.0005 29.4924 75.6168 29.2796C75.4668 29.2435 75.3086 29.2658 75.1744 29.3422C75.0401 29.4185 74.9398 29.5431 74.8937 29.6908C74.8532 29.8415 74.8737 30.0021 74.9507 30.1376C75.0277 30.2732 75.1551 30.3728 75.305 30.4148C78.087 30.8011 79.8812 33.4054 80.2527 36.0521C80.3797 37.7134 80.1921 39.3839 79.6998 40.9753C79.1908 42.9316 78.5541 44.8523 77.7938 46.7248C77.0772 48.5474 76.2807 50.3355 75.4043 52.0892C74.5551 53.8367 73.6127 55.5372 72.5813 57.1832C70.8641 59.861 68.5381 62.3021 67.7354 65.4634C67.3463 67.1994 67.476 69.0119 68.1082 70.6745C68.394 71.5318 68.7232 72.3779 68.9543 73.2527C69.2029 74.2009 69.3644 75.1766 69.5756 76.1348C69.8042 77.1678 70.0316 78.2033 70.1969 79.25C70.2913 79.6738 70.3086 80.1111 70.2478 80.541C70.128 80.9507 69.8764 81.3091 69.5322 81.5603C68.1099 82.6528 66.4931 83.4635 64.7682 83.949C60.93 85.2362 57.0223 86.4138 53.0884 87.3695C51.1389 87.843 49.172 88.2418 47.1864 88.5346C46.1824 88.68 45.1739 88.7913 44.1608 88.8686C43.285 89.0342 42.3842 89.0139 41.5167 88.8088C40.7923 88.5284 40.5885 87.7184 40.4183 87.0381C40.1996 86.1658 39.9971 85.2935 39.7846 84.4138C39.3509 82.6294 38.8925 80.8463 38.2861 79.1118C37.7009 77.379 36.9196 75.7192 35.9576 74.1648C34.91 72.5704 33.7166 71.0774 32.3928 69.7051C29.7648 66.8964 26.7616 64.5064 23.956 61.8859C21.1119 59.2433 18.5042 56.3559 16.1628 53.2567C14.9852 51.7293 13.9555 50.0929 13.0875 48.3696C12.4508 47.1401 12.1409 45.7667 12.1879 44.3821C12.2314 43.0979 12.6405 41.8531 13.3671 40.7947C13.8138 40.2051 14.3789 39.7161 15.026 39.3594C15.673 39.0026 16.3875 38.786 17.1233 38.7236C18.9383 38.4157 20.8032 38.7736 22.3767 39.7317C23.6832 40.806 24.8475 42.0434 25.8409 43.4139C28.1883 45.9868 31.1932 47.8661 34.5299 48.8481C36.3473 49.4186 38.2419 49.7032 40.1462 49.6917C42.0823 49.6009 43.9958 49.235 45.8295 48.6051C47.7244 48.0344 49.6143 47.4263 51.5576 47.0425C51.9851 46.959 52.4138 46.883 52.8449 46.8294C53.2519 46.7883 53.6627 46.8085 54.0638 46.8893C54.4646 46.9762 54.8774 46.993 55.284 46.9391C55.6872 46.8262 56.0784 46.6739 56.4519 46.4843C58.1174 45.8982 59.7303 45.1711 61.273 44.3111C62.7761 43.3265 64.0524 42.0317 65.0167 40.5131C65.5121 39.772 65.9476 38.9923 66.319 38.1816C66.6818 37.3916 66.9601 36.5692 67.2807 35.7618C67.794 34.1413 68.8128 32.729 70.1869 31.7331C71.7576 30.7289 73.6144 30.2717 75.4702 30.4322C75.6257 30.4315 75.7746 30.3695 75.8846 30.2593C75.9946 30.1492 76.0569 30 76.0579 29.8441C76.0541 29.6891 75.9909 29.5414 75.8815 29.4319C75.772 29.3224 75.6248 29.2594 75.4702 29.2559" fill="#161616"/>
<path d="M39.1584 48.241C38.2638 47.233 37.1517 48.4741 37.1144 49.5071C36.9736 56.5769 37.707 63.6371 39.2976 70.5261C40.6731 76.9235 42.1554 83.9352 44.8467 89.8242C44.893 89.9648 44.9838 90.0863 45.1052 90.1705C45.2165 90.2143 45.3388 90.2212 45.4544 90.1905L46.549 90.0185C47.8462 89.8141 45.5091 82.8647 45.1947 81.5713C44.3249 78.0038 43.4812 74.4288 42.7096 70.8313C41.1297 63.7933 40.0661 56.6486 39.5274 49.4547C39.5396 49.0646 39.4395 48.6792 39.2392 48.3445C39.2119 48.3071 39.1833 48.2734 39.1547 48.241" fill="#7FA1DB"/>
<path d="M39.5735 47.8247C39.343 47.5547 39.0253 47.3745 38.6757 47.3155C38.3262 47.2565 37.9672 47.3225 37.6613 47.502C37.3764 47.6838 37.1324 47.9231 36.9446 48.2045C36.7568 48.486 36.6294 48.8034 36.5703 49.1368C36.5172 49.545 36.4944 49.9564 36.502 50.3679C36.4921 50.8149 36.4867 51.2614 36.4858 51.7075C36.4858 52.5831 36.502 53.4591 36.5343 54.3355C36.6807 57.8717 37.0463 61.3954 37.629 64.8861C38.1707 68.2131 38.8901 71.5078 39.6245 74.7962C40.3352 77.9787 41.1068 81.1512 42.0983 84.2577C42.5817 85.7717 43.1197 87.2695 43.7336 88.7361C43.8992 89.1224 44.0649 89.5071 44.2305 89.89C44.4107 90.2913 44.6033 90.6788 45.0817 90.7747C45.5204 90.8014 45.9606 90.7543 46.3839 90.6351C46.5954 90.622 46.8017 90.5639 46.989 90.4645C47.5817 90.0907 47.5543 89.2184 47.5009 88.6115C47.4036 87.7022 47.2374 86.8016 47.0039 85.9175C46.6311 84.3873 46.1167 82.8957 45.7414 81.3668C44.894 77.9089 44.0802 74.4398 43.3334 70.9583C42.5941 67.5154 41.9231 64.0549 41.3739 60.5759C40.8247 57.0968 40.4035 53.6253 40.1563 50.125C40.2196 49.3136 40.0115 48.5042 39.5648 47.8247C39.5103 47.7699 39.4456 47.7264 39.3743 47.6967C39.303 47.6669 39.2266 47.6515 39.1494 47.6514C39.0722 47.6513 38.9958 47.6665 38.9244 47.696C38.8531 47.7255 38.7882 47.7688 38.7335 47.8234C38.6789 47.8781 38.6355 47.943 38.6059 48.0145C38.5763 48.086 38.5609 48.1626 38.5608 48.24C38.5607 48.3174 38.5758 48.3941 38.6052 48.4656C38.6346 48.5372 38.6778 48.6023 38.7323 48.6571C38.8682 48.872 38.9366 49.1229 38.9287 49.3773C38.9597 49.8022 38.9858 50.2272 39.0181 50.6521C39.0827 51.4961 39.1565 52.3397 39.2393 53.1829C39.405 54.8875 39.6091 56.5884 39.8518 58.2856C40.3153 61.6176 40.903 64.9322 41.5666 68.2306C42.2375 71.5688 42.988 74.8909 43.7733 78.1992C44.079 79.4877 44.3536 80.7911 44.7114 82.0622C44.9028 82.7425 45.109 83.4191 45.3029 84.0982C45.5514 84.9879 45.7999 85.8813 46.0024 86.7835C46.0981 87.2059 46.1838 87.6321 46.2509 88.0595L46.2745 88.2153C46.2845 88.2801 46.2907 88.3399 46.2745 88.2327C46.2869 88.3287 46.2981 88.4259 46.308 88.5231C46.3242 88.6851 46.3341 88.847 46.3366 89.009C46.3366 89.08 46.3366 89.1523 46.3366 89.2233C46.3366 89.2545 46.3366 89.2844 46.3366 89.3156C46.3366 89.3467 46.3105 89.4813 46.3366 89.3654C46.3627 89.2495 46.3255 89.4178 46.3155 89.4526C46.3056 89.4875 46.2994 89.505 46.2932 89.5311C46.2708 89.6296 46.3168 89.48 46.3168 89.48C46.2608 89.5211 46.2136 89.6134 46.3329 89.48C46.2422 89.581 46.4646 89.4115 46.3466 89.4701C46.5044 89.3891 46.4224 89.4364 46.2994 89.4564L45.6607 89.5573L45.3874 89.5997C45.283 89.6159 45.2805 89.5997 45.3874 89.6695C45.5216 89.7542 45.3997 89.6284 45.3637 89.5523C45.3277 89.4763 45.283 89.3754 45.2395 89.2869C45.0916 88.958 44.9475 88.629 44.8095 88.2901C44.518 87.5873 44.2426 86.8778 43.9833 86.1617C42.9498 83.2339 42.0823 80.2497 41.3851 77.2235C40.6508 74.1582 39.9711 71.0742 39.3672 67.9801C38.7138 64.6938 38.2352 61.3749 37.9334 58.0376C37.7892 56.3716 37.696 54.7019 37.665 53.0296C37.6492 52.1856 37.6492 51.3412 37.665 50.4963C37.665 50.2886 37.67 50.081 37.6799 49.8733C37.6799 49.7773 37.6799 49.6814 37.6886 49.5854C37.6886 49.5331 37.6886 49.482 37.6948 49.4296C37.6948 49.401 37.7097 49.3387 37.6948 49.401C37.7299 49.152 37.8326 48.9175 37.9918 48.7232C37.9582 48.7668 38.0639 48.6471 38.0813 48.6284C38.0986 48.6097 38.1981 48.5238 38.1807 48.5362C38.1633 48.5487 38.2639 48.4864 38.29 48.4714C38.3484 48.439 38.29 48.4714 38.2763 48.4714C38.3111 48.4577 38.3459 48.4515 38.3807 48.439C38.3918 48.439 38.4739 48.4278 38.4093 48.4328C38.3446 48.4378 38.4366 48.4328 38.4391 48.4328C38.4415 48.4328 38.536 48.4328 38.4701 48.4328C38.4043 48.4328 38.4901 48.4328 38.5012 48.4465C38.4242 48.3817 38.5857 48.4914 38.5745 48.4839C38.6289 48.53 38.6804 48.5796 38.7286 48.6322C39.2467 49.188 40.0767 48.353 39.5611 47.7998" fill="#161616"/>
<path d="M54.8876 44.935C55.2989 43.6515 56.8173 44.3356 57.2683 45.2665C60.2532 51.6745 62.4352 58.4285 63.7643 65.3745C65.0913 71.7818 66.5699 78.7936 66.4854 85.2707C66.4998 85.4184 66.4658 85.5667 66.3885 85.6932C66.304 85.7772 66.1953 85.8325 66.0778 85.8514L65.0056 86.1368C63.737 86.4745 63.066 79.1736 62.8312 77.864C62.1826 74.2503 61.5129 70.6367 60.7611 67.038C59.3625 59.9607 57.4488 52.9955 55.0355 46.1985C54.8669 45.8465 54.8026 45.4534 54.8503 45.0658C54.8615 45.021 54.8727 44.9774 54.8864 44.9412" fill="#7FA1DB"/>
<path d="M55.4555 45.0923C55.4878 45 55.4468 45.0848 55.4903 45.005C55.5077 44.9726 55.5263 44.9403 55.5475 44.9091C55.5475 44.9178 55.4903 44.9727 55.535 44.9253C55.5524 44.9066 55.6518 44.8181 55.5996 44.8567C55.5474 44.8953 55.6071 44.8567 55.6171 44.8505C55.7413 44.7807 55.5463 44.8667 55.6171 44.8443C55.6394 44.8381 55.7724 44.8057 55.6929 44.8194C55.6134 44.8331 55.7674 44.8194 55.7985 44.8194C55.9016 44.8094 55.7289 44.7945 55.832 44.8194C55.8966 44.8356 55.9563 44.853 56.0234 44.8717C56.1241 44.9016 55.9786 44.8406 56.0718 44.8929C56.119 44.9178 56.1651 44.9415 56.211 44.9689C56.265 45.001 56.3173 45.0359 56.3676 45.0735L56.3551 45.0649L56.436 45.1358C56.482 45.1795 56.5254 45.2244 56.5688 45.2705C56.5875 45.2904 56.6049 45.3103 56.621 45.3302C56.6148 45.3228 56.5713 45.2617 56.6098 45.3165C56.6893 45.4349 56.7584 45.5599 56.8161 45.6904C57.5194 47.1474 58.1663 48.6299 58.7569 50.1377C59.9436 53.1884 60.9519 56.306 61.7764 59.4746C62.6014 62.6047 63.2549 65.7736 63.8886 68.9449C64.536 72.1573 65.1398 75.3846 65.5126 78.6431C65.6977 80.2543 65.8283 81.8717 65.873 83.4916C65.8846 83.8928 65.8903 84.2941 65.8903 84.6953C65.8903 84.8872 65.8903 85.0791 65.8903 85.271C65.8903 85.3047 65.8904 85.418 65.878 85.4118C65.8034 85.3744 66.1488 85.2199 65.8692 85.2959C65.7748 85.3208 64.8118 85.5863 64.8093 85.5763C64.8068 85.5664 65.0057 85.5588 64.8913 85.5588C64.8553 85.5588 65.069 85.5925 64.9833 85.5688C64.8975 85.5451 65.0963 85.6199 65.0603 85.6037C65.0383 85.5935 65.0176 85.581 64.9983 85.5664C64.9784 85.5514 65.1087 85.681 65.0553 85.6099C65.0393 85.5912 65.0218 85.5737 65.0031 85.5576C64.8901 85.4505 65.0665 85.6698 64.977 85.524C64.9098 85.4161 64.8492 85.3041 64.7956 85.1888C64.7844 85.1638 64.7347 85.0455 64.7708 85.1364C64.8068 85.2274 64.7621 85.114 64.7547 85.0916C64.7236 85.0093 64.6938 84.9271 64.664 84.8424C64.6031 84.6642 64.5496 84.4848 64.4986 84.3041C64.2711 83.4423 64.0904 82.5687 63.957 81.6873C63.8833 81.2362 63.8149 80.7839 63.7519 80.3303L63.7072 80.0138C63.701 79.9665 63.6948 79.9178 63.6873 79.8705C63.6799 79.8231 63.66 79.6674 63.6687 79.7384C63.6774 79.8094 63.6612 79.6799 63.6575 79.6574L63.6376 79.5017C63.6239 79.402 63.6115 79.3035 63.5978 79.2038C63.4984 78.445 63.3879 77.6948 63.2513 76.9422C62.63 73.5204 61.9937 70.1025 61.2805 66.6994C60.5909 63.406 59.8368 60.125 58.9744 56.8727C58.1121 53.6204 57.1355 50.3819 56.011 47.2031C55.8793 46.8309 55.7455 46.4596 55.6096 46.0891C55.447 45.784 55.3888 45.4337 55.4443 45.0923C55.4773 44.9442 55.4522 44.7892 55.3742 44.6592C55.2963 44.5292 55.1715 44.4344 55.0257 44.3942C54.8799 44.3539 54.7242 44.3715 54.5909 44.4433C54.4577 44.515 54.3571 44.6354 54.3099 44.7795C54.2026 45.6623 54.3766 46.5564 54.807 47.334C55.1027 48.1647 55.3884 49.0004 55.6643 49.8411C56.211 51.5025 56.7217 53.1752 57.1963 54.8591C58.1531 58.2347 58.9794 61.6465 59.7261 65.077C60.4965 68.6109 61.1799 72.1622 61.831 75.7198C61.9751 76.5085 62.1267 77.2961 62.2584 78.0873C62.277 78.1995 62.2932 78.3129 62.3093 78.425C62.3193 78.4961 62.3293 78.5671 62.3392 78.6381C62.3554 78.7553 62.3305 78.5733 62.3392 78.6157C62.3479 78.6581 62.3517 78.7091 62.3579 78.7565C62.4759 79.6474 62.5901 80.5384 62.7306 81.4268C62.8734 82.3639 63.0326 83.296 63.2587 84.2231C63.387 84.9757 63.677 85.6912 64.1085 86.3202C64.2034 86.4455 64.3248 86.5481 64.4641 86.6206C64.6033 86.693 64.757 86.7334 64.9138 86.7389C65.2398 86.7039 65.5602 86.6289 65.868 86.5158C66.2991 86.4012 66.7514 86.3103 66.9552 85.8617C67.0788 85.4562 67.1173 85.0293 67.0682 84.6081C67.0682 84.1927 67.0612 83.7773 67.0471 83.362C67.0206 82.5188 66.973 81.6765 66.9042 80.835C66.5969 77.3907 66.0992 73.9662 65.4133 70.5772C64.7721 67.2502 64.1036 63.9206 63.2872 60.6309C62.477 57.3173 61.4755 54.0537 60.2878 50.8566C59.6781 49.2326 59.0104 47.6317 58.2848 46.0542C58.0595 45.3937 57.6999 44.7874 57.2286 44.2736C56.808 43.8672 56.2447 43.6433 55.6606 43.6506C55.3482 43.6795 55.052 43.8036 54.8121 44.0063C54.5722 44.2091 54.4001 44.4806 54.3187 44.7845C54.2789 44.9351 54.2997 45.0954 54.3766 45.2308C54.4535 45.3662 54.5804 45.4659 54.7299 45.5084C54.8801 45.5471 55.0393 45.5259 55.1742 45.4492C55.3091 45.3725 55.4091 45.2464 55.4531 45.0973" fill="#161616"/>
<path d="M53.0599 44.5825C53.0665 46.2008 53.0731 47.8207 53.0798 49.4423C53.154 50.3252 53.0116 51.2129 52.6648 52.0278C52.1235 52.8912 51.2959 53.5355 50.3276 53.8471C48.8382 54.4335 47.2332 54.6643 45.6395 54.5213C45.25 54.5217 44.8642 54.4448 44.5045 54.2951C44.1448 54.1454 43.8181 53.9258 43.5433 53.649C43.2708 53.2556 43.0841 52.8089 42.9954 52.3381L41.7976 47.7463" fill="#FFD8C7"/>
<path d="M52.4709 44.5825C52.4783 46.229 52.485 47.8759 52.4908 49.5232C52.5414 50.2143 52.4543 50.9086 52.2348 51.5656C51.985 52.1008 51.5733 52.5434 51.0581 52.8303C49.8168 53.539 48.4193 53.9274 46.9913 53.9606C46.2972 54.0127 45.5992 53.9589 44.9212 53.8011C44.66 53.7522 44.4158 53.6368 44.2119 53.4659C44.008 53.295 43.8513 53.0745 43.757 52.8254C43.46 52.0129 43.2936 51.1357 43.0749 50.2983L42.3653 47.5806C42.3182 47.4365 42.2176 47.3161 42.0844 47.2443C41.9511 47.1726 41.7955 47.155 41.6496 47.1952C41.5038 47.2354 41.379 47.3303 41.301 47.4603C41.2231 47.5903 41.198 47.7453 41.2309 47.8934L41.9155 50.5176C42.1293 51.3388 42.3095 52.1786 42.5704 52.9861C42.6716 53.3566 42.85 53.7015 43.094 53.9977C43.338 54.2939 43.6419 54.5348 43.9856 54.7045C44.7096 55.0034 45.4866 55.1518 46.2694 55.1406C47.9409 55.1919 49.601 54.8479 51.1152 54.1363C51.7841 53.8353 52.3747 53.3837 52.8412 52.8166C53.3331 52.1459 53.6123 51.3422 53.6426 50.5101C53.7171 49.5593 53.665 48.5924 53.6625 47.6441C53.6575 46.624 53.6534 45.6043 53.6501 44.585C53.6431 44.4332 53.5781 44.29 53.4685 44.185C53.3589 44.0801 53.2132 44.0215 53.0617 44.0215C52.9102 44.0215 52.7645 44.0801 52.6549 44.185C52.5453 44.29 52.4803 44.4332 52.4734 44.585" fill="#161616"/>
<path d="M59.7234 38.8317C60.4755 39.0205 61.2637 39.01 62.0105 38.8013C62.7574 38.5926 63.4372 38.1928 63.9836 37.6411C64.5299 37.0894 64.9239 36.4047 65.1269 35.6543C65.3298 34.9039 65.3348 34.1135 65.1413 33.3606C64.9478 32.6076 64.5625 31.9181 64.0231 31.3595C63.4838 30.801 62.809 30.3926 62.0648 30.1744C61.3207 29.9562 60.5327 29.9357 59.7783 30.115C59.0239 30.2942 58.3289 30.6671 57.7615 31.1969" fill="#FFD8C7"/>
<path d="M59.567 39.3988C60.4179 39.614 61.3101 39.6035 62.1558 39.3681C63.0014 39.1328 63.7714 38.6808 64.3901 38.0567C65.0088 37.4325 65.4551 36.6576 65.6847 35.8082C65.9143 34.9587 65.9195 34.0639 65.6999 33.2118C65.4802 32.3597 65.0431 31.5796 64.4317 30.9482C63.8203 30.3168 63.0557 29.8558 62.2128 29.6105C61.37 29.3653 60.478 29.3443 59.6246 29.5495C58.7712 29.7547 57.9857 30.1791 57.3454 30.7809C57.2367 30.8921 57.1758 31.0415 57.1758 31.1971C57.1758 31.3527 57.2367 31.5022 57.3454 31.6133C57.457 31.7212 57.6059 31.7814 57.7609 31.7814C57.916 31.7814 58.0649 31.7212 58.1765 31.6133C58.5993 31.2256 59.1017 30.9355 59.6483 30.7633C60.1948 30.5911 60.7722 30.5409 61.3401 30.6164C61.2444 30.604 61.4644 30.6364 61.447 30.6351C61.5116 30.6464 61.5712 30.66 61.642 30.675C61.7663 30.7049 61.8968 30.7385 62.0223 30.7796C62.2442 30.8476 62.4579 30.94 62.6596 31.055C63.1133 31.2981 63.5138 31.6299 63.8376 32.0307C64.2335 32.5221 64.5042 33.1027 64.6264 33.7224C64.7487 34.3421 64.7188 34.9823 64.5392 35.5878C64.3597 36.1934 64.036 36.746 63.5959 37.1981C63.1559 37.6501 62.6128 37.9881 62.0135 38.1827C61.3229 38.404 60.5851 38.4312 59.8802 38.2612C59.1434 38.0855 58.8301 39.2194 59.567 39.3964" fill="#161616"/>
<path d="M33.3111 42.96C32.6526 43.3706 31.899 43.6025 31.1241 43.6329C30.3492 43.6633 29.5798 43.4912 28.8913 43.1334C28.2027 42.7756 27.6188 42.2445 27.1967 41.5921C26.7746 40.9397 26.5289 40.1885 26.4837 39.4121C26.4385 38.6358 26.5952 37.8609 26.9386 37.1637C27.2821 36.4664 27.8004 35.8707 28.4427 35.435C29.085 34.9992 29.8292 34.7384 30.6023 34.6781C31.3754 34.6178 32.1509 34.76 32.8527 35.091" fill="#FFD8C7"/>
<path d="M33.0103 42.4516C32.4695 42.7837 31.8582 42.9831 31.2261 43.0335C30.7217 43.0745 30.2143 43.0117 29.735 42.8491C29.2342 42.6832 28.7723 42.4168 28.3775 42.066C27.9827 41.7153 27.6632 41.2876 27.4385 40.8091C27.2139 40.3305 27.0888 39.8111 27.0707 39.2825C27.0527 38.7539 27.1422 38.2271 27.3337 37.7343C27.5253 37.2414 27.8148 36.7929 28.1848 36.4159C28.5548 36.039 28.9974 35.7415 29.4857 35.5417C29.974 35.3418 30.4978 35.2437 31.0252 35.2534C31.5525 35.2631 32.0724 35.3805 32.5531 35.5982C32.6887 35.6727 32.8477 35.6924 32.9973 35.6532C33.147 35.6141 33.2762 35.5191 33.3583 35.3876C33.4355 35.2525 33.4565 35.0923 33.417 34.9417C33.3775 34.7911 33.2805 34.6621 33.147 34.5826C32.4501 34.2555 31.6894 34.0881 30.9201 34.0924C30.1507 34.0967 29.3919 34.2726 28.6987 34.6075C28.089 34.9142 27.5473 35.3414 27.1064 35.8634C26.6656 36.3854 26.3344 36.9915 26.1331 37.6452C25.9318 38.2988 25.8645 38.9865 25.9351 39.667C26.0057 40.3474 26.2128 41.0065 26.544 41.6046C26.8751 42.2027 27.3234 42.7275 27.862 43.1473C28.4006 43.5671 29.0184 43.8734 29.678 44.0476C30.3377 44.2218 31.0257 44.2604 31.7007 44.1611C32.3756 44.0618 33.0235 43.8266 33.6055 43.4696C33.7357 43.3886 33.8293 43.2597 33.8661 43.1105C33.903 42.9613 33.8802 42.8036 33.8027 42.6709C33.7253 42.5383 33.5992 42.4412 33.4514 42.4005C33.3036 42.3597 33.1457 42.3785 33.0115 42.4529" fill="#161616"/>
<path d="M29.9189 36.9027C30.3896 39.9737 31.7584 42.8355 33.8519 45.126C35.9453 47.4165 38.6694 49.0325 41.6792 49.7696C44.689 50.5066 47.8492 50.3316 50.7597 49.2665C53.6702 48.2014 56.2002 46.2943 58.0293 43.7865C59.8585 41.2787 60.9045 38.283 61.035 35.1786C61.1656 32.0743 60.3748 29.0009 58.7627 26.3476C57.1506 23.6942 54.7897 21.5802 51.979 20.2732C49.1682 18.9662 46.0339 18.5248 42.9729 19.0051C38.8778 19.6477 35.2039 21.8927 32.7568 25.2477C30.3097 28.6028 29.2891 32.7941 29.9189 36.9027Z" fill="#FFD8C7"/>
<path d="M29.3523 37.0588C29.8792 40.3433 31.3977 43.3868 33.703 45.7789C36.0083 48.171 38.9896 49.7967 42.2449 50.4367C45.6323 51.0907 49.1388 50.6627 52.2709 49.2131C54.8973 47.9717 57.1432 46.0459 58.7741 43.6368C60.4049 41.2277 61.3609 38.4237 61.5421 35.5176C61.7234 32.6114 61.1232 29.7098 59.8044 27.1157C58.4856 24.5216 56.4965 22.3301 54.0447 20.7702C51.593 19.2103 48.7686 18.3392 45.8666 18.2478C42.9645 18.1563 40.0912 18.848 37.5466 20.2505C35.0021 21.653 32.8798 23.7149 31.4012 26.2209C29.9227 28.7269 29.1421 31.585 29.1411 34.4968C29.1471 35.3553 29.2177 36.2122 29.3523 37.06C29.395 37.21 29.4947 37.3372 29.63 37.4141C29.7652 37.491 29.9253 37.5116 30.0755 37.4713C30.2238 37.4268 30.3492 37.3268 30.4258 37.192C30.5024 37.0571 30.5243 36.8978 30.4868 36.7473C30.026 33.6938 30.5114 30.5721 31.8771 27.8042C33.2429 25.0363 35.4233 22.7558 38.1234 21.2709C40.8539 19.764 43.9832 19.1429 47.0802 19.4933C50.1772 19.8436 53.0898 21.1481 55.417 23.2272C57.753 25.3105 59.3835 28.0723 60.0815 31.1282C60.7794 34.1841 60.5101 37.3822 59.3111 40.2774C58.4184 42.4143 57.0486 44.3171 55.3072 45.8395C53.5658 47.3618 51.4992 48.463 49.2665 49.0583C47.0339 49.6535 44.6949 49.727 42.4295 49.2729C40.1641 48.8189 38.033 47.8495 36.2 46.4393C35.9738 46.2674 35.6284 45.9783 35.3674 45.7452C35.0759 45.4844 34.7947 45.2132 34.5238 44.9316C34.0126 44.4035 33.542 43.8374 33.1159 43.2381C32.209 41.9647 31.5068 40.5566 31.0347 39.065C30.7971 38.307 30.6161 37.5322 30.493 36.7473C30.4504 36.5973 30.3506 36.4701 30.2154 36.3932C30.0801 36.3163 29.92 36.2958 29.7698 36.3361C29.6215 36.3805 29.4961 36.4805 29.4195 36.6154C29.3429 36.7502 29.3211 36.9095 29.3585 37.06" fill="#161616"/>
<path d="M51.6856 37.1873C51.7841 37.8284 52.07 38.4259 52.5072 38.904C52.9444 39.3821 53.5133 39.7194 54.1418 39.8731C54.7702 40.0269 55.43 39.9903 56.0376 39.7678C56.6453 39.5453 57.1735 39.147 57.5553 38.6234C57.9372 38.0998 58.1556 37.4743 58.1828 36.8261C58.21 36.178 58.0449 35.5363 57.7084 34.9823C57.3718 34.4283 56.8789 33.9869 56.2921 33.714C55.7052 33.441 55.0508 33.3488 54.4117 33.449C53.5563 33.5831 52.7889 34.052 52.2778 34.7528C51.7667 35.4536 51.5538 36.3291 51.6856 37.1873Z" fill="#FFB9A1"/>
<path d="M33.352 40.053C33.4505 40.6941 33.7364 41.2916 34.1737 41.7697C34.6109 42.2478 35.1797 42.5851 35.8081 42.7389C36.4366 42.8926 37.0963 42.8559 37.704 42.6334C38.3117 42.411 38.8399 42.0128 39.2218 41.4891C39.6036 40.9655 39.822 40.34 39.8492 39.6919C39.8765 39.0437 39.7114 38.402 39.3748 37.848C39.0382 37.294 38.5453 36.8526 37.9584 36.5797C37.3716 36.3068 36.7172 36.2145 36.0781 36.3147C35.2226 36.4485 34.455 36.9173 33.9439 37.6182C33.4327 38.3191 33.2199 39.1948 33.352 40.053" fill="#FFB9A1"/>
<path d="M45.2604 33.2704C45.0831 33.2128 44.8928 33.2095 44.7136 33.2607C44.5343 33.312 44.3743 33.4155 44.254 33.5582C44.0383 33.8383 43.9243 34.1838 43.9309 34.5376C43.9135 35.0953 44.0818 35.6429 44.4093 36.094C44.4909 36.223 44.6155 36.3188 44.761 36.3644C44.9141 36.4049 45.077 36.3834 45.2145 36.3046C45.3463 36.2268 45.4429 36.1008 45.4841 35.9532C45.5059 35.8775 45.5119 35.7982 45.5016 35.7201C45.4913 35.6421 45.4651 35.567 45.4245 35.4996C45.3287 35.3712 45.2482 35.2319 45.1847 35.0847L45.2443 35.2255C45.1744 35.0575 45.1264 34.8812 45.1014 34.7009L45.1226 34.8579C45.1012 34.6887 45.1012 34.5174 45.1226 34.3482L45.1014 34.5052C45.1128 34.423 45.1332 34.3424 45.1623 34.2647L45.1026 34.4056C45.115 34.3769 45.1287 34.3507 45.1436 34.3233C45.1871 34.2398 45.0691 34.3981 45.1138 34.3582C45.1586 34.3183 45.1325 34.3682 45.0679 34.3881C45.0926 34.3766 45.1166 34.3637 45.1399 34.3495L44.9996 34.4093C45.0333 34.3965 45.0683 34.3873 45.1039 34.3819L44.9473 34.4031C44.9737 34.4006 45.0004 34.4006 45.0269 34.4031L44.8703 34.3819C44.8964 34.387 44.9217 34.395 44.9461 34.4056C45.0218 34.4265 45.101 34.4319 45.1789 34.4216C45.2568 34.4114 45.3318 34.3855 45.3996 34.3457C45.4662 34.3068 45.5245 34.2551 45.5712 34.1936C45.6179 34.1321 45.652 34.062 45.6716 33.9872C45.6912 33.9124 45.696 33.8345 45.6856 33.7579C45.6752 33.6813 45.6498 33.6075 45.6109 33.5408C45.5261 33.4147 45.4026 33.3198 45.2592 33.2704" fill="#161616"/>
<path d="M39.0056 34.8666C39.4409 34.9296 39.8666 35.0468 40.273 35.2155L40.1326 35.1557L40.155 35.1657L40.0307 34.2411L39.0826 35.2379C38.9743 35.3496 38.9126 35.4984 38.91 35.6541C38.9105 35.7705 38.9454 35.8842 39.0101 35.9808C39.0749 36.0774 39.1666 36.1526 39.2739 36.1971C39.3812 36.2415 39.4991 36.2532 39.613 36.2307C39.7268 36.2081 39.8315 36.1523 39.9139 36.0703L40.862 35.0734C40.926 35.0089 40.9739 34.9301 41.002 34.8435C41.03 34.7569 41.0374 34.665 41.0235 34.575C41.0203 34.497 40.9962 34.4212 40.9539 34.3557C40.9025 34.2686 40.8298 34.1961 40.7427 34.1451C40.2852 33.9457 39.8042 33.8059 39.3113 33.7289C39.2354 33.7043 39.1543 33.7003 39.0764 33.7177C38.9986 33.721 38.9232 33.7451 38.8578 33.7875C38.7912 33.8264 38.7328 33.8781 38.6862 33.9396C38.6395 34.0011 38.6054 34.0713 38.5857 34.1461C38.5661 34.2208 38.5614 34.2987 38.5718 34.3753C38.5822 34.4519 38.6076 34.5257 38.6465 34.5924C38.684 34.6589 38.7346 34.717 38.795 34.7635C38.8554 34.8099 38.9245 34.8437 38.9982 34.8628" fill="#161616"/>
<path d="M50.2382 32.4058C49.7843 32.6111 49.3583 32.8736 48.9708 33.1871C48.9048 33.2503 48.8555 33.3289 48.8273 33.4159C48.7991 33.5029 48.7928 33.5956 48.8092 33.6856C48.8198 33.7741 48.8507 33.859 48.8994 33.9335C48.9481 34.0081 49.0134 34.0704 49.09 34.1155L50.2693 34.8207C50.4071 34.8985 50.5697 34.9195 50.7228 34.8793C50.8342 34.8487 50.9341 34.7858 51.01 34.6985C51.0859 34.6112 51.1343 34.5033 51.1493 34.3884C51.1643 34.2736 51.1451 34.1568 51.0942 34.0529C51.0433 33.9489 50.9629 33.8623 50.8631 33.8039L49.684 33.0999C49.7238 33.4081 49.7652 33.7163 49.8082 34.0245L49.8654 33.9796L49.7411 34.0719C50.0778 33.8142 50.4441 33.5979 50.8321 33.4276C50.9646 33.3503 51.0617 33.2243 51.1029 33.0762C51.1441 32.9255 51.1239 32.7646 51.0467 32.6289C50.9696 32.4931 50.8419 32.3936 50.6917 32.3523L50.5351 32.3311C50.4307 32.3311 50.3282 32.359 50.2382 32.4121" fill="#161616"/>
<path d="M61.7104 22.1681C58.0685 15.6736 49.0018 13.8593 42.2027 14.7564C38.7652 15.303 35.5376 16.7663 32.8576 18.9931C30.098 20.9182 27.9841 23.6359 26.794 26.7886C25.8584 29.7792 25.119 35.3093 28.782 36.771C32.6972 38.3348 36.072 30.0795 36.7553 27.2584C37.3108 28.1406 36.9753 29.5275 37.8338 30.1182C38.3129 30.3641 38.864 30.4295 39.387 30.3026L47.2548 29.3369C48.4404 29.2622 49.6031 28.9752 50.6879 28.4895C51.2271 28.2402 51.691 27.8523 52.0325 27.3651C52.374 26.878 52.581 26.309 52.6325 25.7157C53.7021 27.4796 55.1383 28.9914 56.8434 30.1481C57.9965 30.8546 60.3672 31.8178 61.6992 31.0577C63.0312 30.2976 62.784 27.7282 62.8176 26.4223C62.8356 24.9325 62.4536 23.4652 61.7117 22.1744" fill="#66423B"/>
<path d="M62.2187 21.87C61.0333 19.8281 59.3445 18.1259 57.3144 16.9268C55.2615 15.7181 53.0133 14.8793 50.6718 14.4483C48.364 13.9972 46.0068 13.8531 43.6614 14.0197C40.8433 14.1657 38.1002 14.9815 35.6583 16.3997C34.3756 17.134 33.155 17.9725 32.0089 18.9068C30.8906 19.7914 29.8607 20.7829 28.9337 21.8675C27.9973 22.9516 27.2272 24.1695 26.6487 25.4812C26.2338 26.4783 25.9272 27.5172 25.7342 28.5802C25.2156 30.6705 25.335 32.8689 26.0771 34.8903C26.4255 35.7891 27.0799 36.5352 27.9244 36.9964C28.7688 37.4576 29.7488 37.6041 30.6907 37.4099C32.501 36.8754 33.7783 35.1234 34.7077 33.5844C35.6929 31.9347 36.48 30.1738 37.0524 28.3384C37.1506 28.0294 37.2401 27.7154 37.3171 27.4039L36.2423 27.5446C36.4464 28.0078 36.5723 28.5018 36.6151 29.0063C36.6793 29.5622 36.9335 30.0787 37.3345 30.468C37.6149 30.6718 37.9348 30.8145 38.2736 30.887C38.6123 30.9596 38.9624 30.9603 39.3014 30.8892C40.1041 30.7957 40.9068 30.6923 41.7082 30.5938L46.4683 30.0094C47.9595 29.9333 49.4283 29.6142 50.8172 29.0649C51.4828 28.7747 52.057 28.3082 52.4782 27.7154C52.8993 27.1227 53.1516 26.4261 53.2079 25.7005L52.1119 25.997C53.0019 27.412 54.0932 28.689 55.3512 29.7876C56.4616 30.7198 57.7684 31.387 59.1732 31.739C59.8064 31.985 60.5019 32.0191 61.1559 31.8364C61.81 31.6536 62.3877 31.2636 62.8027 30.7247C63.315 29.6013 63.5192 28.3611 63.3942 27.1322C63.4196 26.3159 63.3722 25.499 63.2525 24.6911C63.0601 23.6975 62.708 22.7417 62.21 21.8613C61.8373 21.1984 60.8258 21.7915 61.1949 22.4557C61.5744 23.1345 61.8579 23.8629 62.0373 24.6201C62.1789 25.2996 62.239 25.9936 62.2162 26.6874C62.2162 27.2095 62.2261 27.7316 62.2025 28.2537C62.1963 28.387 62.1876 28.5204 62.1764 28.6537C62.1698 28.7251 62.1628 28.7966 62.1553 28.868C62.1553 28.8992 62.1491 28.9291 62.1454 28.959C62.1541 28.8942 62.1454 28.9515 62.1454 28.9827C62.1065 29.2532 62.0433 29.5198 61.9565 29.7789C61.9466 29.8101 61.8895 29.9521 61.9056 29.9147C61.9218 29.8773 61.8658 29.9932 61.8546 30.0156C61.8261 30.0705 61.7963 30.1241 61.7627 30.1764C61.7428 30.2076 61.6297 30.3496 61.703 30.2661C61.6695 30.3048 61.6359 30.3421 61.5999 30.3783C61.5639 30.4144 61.4632 30.5029 61.5067 30.4655C61.5502 30.4281 61.4384 30.5078 61.4173 30.5203C61.3962 30.5328 61.3514 30.5577 61.3179 30.5751C61.3079 30.5751 61.2097 30.6237 61.2545 30.6063C61.0392 30.6878 60.8111 30.73 60.581 30.7309C60.2954 30.7401 60.0097 30.7154 59.7299 30.6574C58.5122 30.4093 57.3683 29.8822 56.3875 29.1172C55.1073 28.0658 54.0072 26.8115 53.1308 25.4039C53.0631 25.2962 52.9627 25.2131 52.8445 25.1668C52.7262 25.1205 52.5963 25.1134 52.4738 25.1466C52.3512 25.1798 52.2424 25.2514 52.1634 25.3511C52.0844 25.4508 52.0394 25.5732 52.0349 25.7005C51.9774 26.1968 51.7908 26.6692 51.4938 27.0703C51.1967 27.4715 50.7997 27.7871 50.3425 27.9858C49.1405 28.48 47.862 28.7612 46.564 28.8169L42.1928 29.354L40.0556 29.6157C39.7276 29.6555 39.3983 29.7041 39.0678 29.7328C38.7925 29.7818 38.5094 29.7612 38.244 29.673C38.1683 29.6457 38.1021 29.5967 38.0539 29.5322C37.9296 29.4075 38.0937 29.6094 38.0005 29.4686C37.9574 29.4034 37.92 29.3346 37.8886 29.263C37.8998 29.2892 37.9197 29.3477 37.8824 29.2368C37.8563 29.1596 37.8327 29.0811 37.8129 29.0013C37.7818 28.8767 37.7582 28.7521 37.7358 28.6275C37.681 28.042 37.5166 27.4722 37.2512 26.9478C37.1909 26.8504 37.1039 26.7725 37.0005 26.7234C36.8972 26.6743 36.782 26.6561 36.6686 26.671C36.5552 26.6858 36.4485 26.7331 36.3612 26.8071C36.274 26.8812 36.2098 26.9789 36.1764 27.0886C36.0039 27.7717 35.7915 28.4441 35.5403 29.1023C35.4641 29.3083 35.3849 29.5135 35.3029 29.7178C35.2607 29.8238 35.2172 29.9297 35.1787 30.0343L35.1551 30.0917L35.0806 30.2661C34.8875 30.7114 34.6805 31.1508 34.4593 31.5845C34.0282 32.4575 33.527 33.2939 32.9607 34.0854L32.8638 34.2174C32.8464 34.2424 32.7669 34.3421 32.8241 34.271C32.7483 34.3695 32.67 34.4667 32.5905 34.5626C32.4526 34.7296 32.3084 34.8904 32.1593 35.0474C32.0102 35.2044 31.8561 35.3514 31.6946 35.4935C31.6176 35.5607 31.5368 35.6268 31.456 35.6916C31.5355 35.628 31.4647 35.6853 31.4262 35.7128L31.2958 35.8062C31.1368 35.916 30.9708 36.015 30.7987 36.1028L30.6819 36.1589C30.5763 36.2112 30.6969 36.1588 30.6671 36.1676C30.5764 36.2025 30.4844 36.2374 30.3912 36.2648C30.298 36.2922 30.2322 36.3096 30.1527 36.3258L30.0284 36.3495C29.8892 36.3744 30.129 36.3495 29.9836 36.3495C29.8136 36.3609 29.643 36.3609 29.473 36.3495C29.5885 36.3582 29.5152 36.3557 29.4431 36.3433L29.3189 36.3171C29.2273 36.2956 29.1369 36.2694 29.048 36.2386L28.9238 36.1925C29.0132 36.2274 28.8505 36.1601 28.8269 36.1476C28.7175 36.0966 28.6107 36.0405 28.5063 35.9794C28.4019 35.9184 28.3211 35.8648 28.2329 35.8025L28.1472 35.7389C28.1559 35.7452 28.213 35.7925 28.1621 35.7501C28.1111 35.7078 28.0677 35.6716 28.0217 35.6255C27.8533 35.4737 27.6991 35.3069 27.5607 35.1271C27.6216 35.2056 27.5495 35.1096 27.5296 35.081C27.5098 35.0523 27.4712 34.9963 27.4427 34.9564C27.3818 34.8617 27.3184 34.7657 27.27 34.6661C27.2215 34.5664 27.1643 34.4642 27.1171 34.3607C27.1034 34.3296 27.055 34.2149 27.0923 34.3072C27.0687 34.2486 27.0463 34.1913 27.0239 34.1327C26.8623 33.6835 26.7474 33.2187 26.681 32.7458C26.6711 32.676 26.681 32.7458 26.681 32.762L26.6698 32.6773C26.6636 32.6212 26.6573 32.5639 26.6511 32.5078C26.6375 32.3745 26.6276 32.2399 26.6201 32.1066C26.6052 31.8574 26.6015 31.6082 26.604 31.3502C26.6106 30.8503 26.6442 30.3511 26.7046 29.8549C26.7108 29.7976 26.7183 29.7403 26.7258 29.6817C26.7121 29.7876 26.7369 29.6094 26.7406 29.5808C26.758 29.4561 26.7779 29.3316 26.799 29.2132C26.8396 28.9739 26.8848 28.7359 26.9345 28.4992C27.0256 28.068 27.1328 27.6402 27.2562 27.2157C27.6207 25.9925 28.1786 24.836 28.9088 23.7902C30.5029 21.6033 32.4954 19.7387 34.7811 18.295C37.0457 16.7289 39.6389 15.7057 42.3605 15.3044C44.5427 15.0367 46.75 15.0463 48.9298 15.333C49.1025 15.3555 49.4392 15.4066 49.689 15.4477C49.9714 15.495 50.2535 15.5474 50.5352 15.6047C51.0968 15.7193 51.6543 15.8543 52.2076 16.0097C53.2641 16.3028 54.2934 16.6867 55.2841 17.1573C55.7877 17.3999 56.2785 17.6669 56.7565 17.9585C57.1814 18.219 57.6972 18.5716 58.0289 18.8308C58.4656 19.168 58.8806 19.5326 59.2714 19.9224C59.4661 20.1168 59.6541 20.3174 59.8355 20.5242C59.9184 20.6198 60.0012 20.7169 60.084 20.8158L60.2083 20.9641L60.268 21.0389C60.3326 21.1211 60.2294 20.9878 60.2928 21.0713C60.6243 21.507 60.9257 21.965 61.1949 22.442C61.2784 22.5665 61.4061 22.6544 61.552 22.6879C61.698 22.7213 61.8511 22.6979 61.9804 22.6222C62.1096 22.5465 62.2053 22.4243 62.2479 22.2804C62.2906 22.1366 62.2771 21.9818 62.21 21.8476" fill="#161616"/>
<path d="M39.5324 38.6011C41.294 39.5741 43.3157 39.968 45.3124 39.7275C47.3091 39.4869 49.1802 38.624 50.6618 37.2603C50.7705 37.1492 50.8313 36.9998 50.8313 36.8442C50.8313 36.6885 50.7705 36.539 50.6618 36.4279C50.5502 36.32 50.4012 36.2598 50.2462 36.2598C50.0911 36.2598 49.9422 36.32 49.8306 36.4279C48.8324 37.3324 47.6336 37.9851 46.3336 38.3318C45.0336 38.6786 43.6698 38.7094 42.3555 38.4217C41.5772 38.2482 40.8268 37.9663 40.1264 37.5843C39.4616 37.2205 38.8677 38.2373 39.5324 38.6011" fill="#161616"/>
<path d="M16.1294 36.5804C16.0051 36.3835 16.1654 36.1355 16.3344 35.9785C16.7695 35.6002 17.3122 35.3687 17.8858 35.3168C18.4593 35.2649 19.0346 35.3953 19.5302 35.6894C20.0143 36.0006 20.4008 36.4428 20.6451 36.9649C20.8893 37.487 20.9814 38.0678 20.9107 38.6401C20.8242 39.2108 20.597 39.7508 20.2499 40.2112C19.9027 40.6717 19.4465 41.0379 18.9226 41.2768" fill="#FFD8C7"/>
<path d="M16.6363 36.2822C16.6363 36.2822 16.6674 36.4916 16.6649 36.4903C16.6624 36.4891 16.6823 36.4492 16.6997 36.4368C16.7171 36.4243 16.7867 36.357 16.8239 36.3246C16.9319 36.2424 17.0471 36.1703 17.1682 36.1091C17.3916 36.0054 17.6296 35.9368 17.8739 35.9059C18.4277 35.8414 18.9848 35.9946 19.4283 36.3334C19.8671 36.694 20.1696 37.1944 20.2856 37.7514C20.4015 38.3084 20.3239 38.8883 20.0657 39.3949C19.7526 40.0014 19.2449 40.4843 18.6244 40.7657C18.4909 40.8452 18.3939 40.9741 18.3544 41.1247C18.3148 41.2754 18.3359 41.4355 18.4131 41.5707C18.4946 41.7028 18.6237 41.7985 18.7737 41.8377C18.9236 41.8769 19.0828 41.8567 19.2183 41.7812C20.0164 41.4103 20.6674 40.7814 21.0668 39.9954C21.4662 39.2094 21.5911 38.3117 21.4213 37.4461C21.2265 36.579 20.7206 35.8139 19.9999 35.2966C19.6334 35.048 19.2217 34.8743 18.7883 34.7853C18.3549 34.6964 17.9082 34.694 17.4738 34.7783C16.5506 34.9378 15.1068 35.7515 15.6162 36.8742C15.6962 37.0081 15.8253 37.1051 15.9758 37.1445C16.1264 37.1839 16.2864 37.1624 16.4214 37.0847C16.5532 37.0037 16.6488 36.8748 16.6881 36.7248C16.7275 36.5748 16.7076 36.4154 16.6326 36.2797" fill="#161616"/>
<path d="M20.8634 43.5211C19.1449 47.5447 13.9735 46.6363 12.0414 43.2993C10.3739 40.4333 12.0625 31.8851 16.7879 34.6789C17.1766 34.909 17.4689 35.2728 17.6103 35.7028C17.7518 36.1327 17.7328 36.5996 17.557 37.0166C17.7822 37.0499 17.9966 37.1354 18.183 37.2666C18.3694 37.3977 18.5226 37.5707 18.6305 37.7717C18.7384 37.9728 18.798 38.1963 18.8045 38.4246C18.811 38.6528 18.7642 38.8794 18.6678 39.0862C18.8441 39.0598 19.0242 39.076 19.1929 39.1335C19.3617 39.1909 19.5143 39.288 19.6381 39.4166C19.7619 39.5453 19.8532 39.7017 19.9045 39.873C19.9557 40.0442 19.9654 40.2251 19.9327 40.4009C19.8818 40.5878 19.7849 40.8071 19.9079 40.9579C19.9854 41.03 20.0805 41.0804 20.1837 41.1037C20.5881 41.3392 20.8857 41.723 21.0136 42.1741C21.1415 42.6253 21.0899 43.1086 20.8696 43.5223" fill="#FFD8C7"/>
<path d="M20.3576 43.2231C20.2549 43.4629 20.1349 43.6949 19.9985 43.9172C19.9364 44.0169 19.8742 44.1153 19.8009 44.2113C19.7612 44.2661 19.8009 44.2113 19.8009 44.2113L19.7475 44.2786C19.7052 44.3297 19.663 44.3795 19.6232 44.4281C19.4665 44.6049 19.294 44.7667 19.1076 44.9116C19.1846 44.853 19.0827 44.9278 19.0566 44.9464L18.9262 45.035C18.8309 45.0956 18.7336 45.1521 18.6341 45.2044C18.5894 45.2281 18.5422 45.2517 18.4963 45.2742C18.4752 45.2841 18.3497 45.3415 18.4019 45.3178C18.454 45.2941 18.3273 45.3464 18.3049 45.3552C18.249 45.3763 18.1918 45.395 18.1359 45.4137C17.9326 45.4784 17.725 45.5284 17.5146 45.5633L17.4389 45.5745C17.4476 45.5745 17.537 45.5633 17.4675 45.5745L17.3133 45.5895C17.1891 45.5995 17.0723 45.6044 16.9518 45.6044C16.7336 45.6052 16.5158 45.5916 16.2995 45.5633C16.4051 45.577 16.2871 45.5633 16.2473 45.5533L16.0907 45.5247C15.978 45.5023 15.8658 45.476 15.754 45.4461C15.5365 45.3876 15.3253 45.3141 15.1141 45.2343C15.011 45.1957 15.1551 45.2555 15.0544 45.2107L14.9053 45.1421C14.7985 45.091 14.6929 45.0375 14.5885 44.9801C14.3786 44.8648 14.1757 44.737 13.9809 44.5976C13.9597 44.5814 13.8566 44.5041 13.8839 44.5278C13.9113 44.5514 13.8119 44.4692 13.7908 44.453C13.6976 44.377 13.6057 44.2973 13.5162 44.215C13.3442 44.0555 13.182 43.8857 13.0304 43.7066C12.9944 43.6642 12.9583 43.6194 12.9235 43.5758C12.8887 43.5322 12.9235 43.5758 12.9235 43.5832L12.8726 43.5147C12.7993 43.4138 12.7297 43.3129 12.6626 43.2082C12.5661 43.0567 12.4789 42.8994 12.4016 42.7372C12.3668 42.6649 12.3743 42.6687 12.4016 42.7472C12.3892 42.7135 12.3743 42.6786 12.3619 42.6449C12.3333 42.5689 12.306 42.4929 12.2811 42.4144C12.2314 42.2574 12.1892 42.0979 12.1569 41.9372C12.1246 41.7764 12.0898 41.5945 12.0637 41.4226C12.0637 41.3889 12.0749 41.5285 12.0637 41.4076C12.0637 41.364 12.0538 41.3203 12.05 41.283C12.0401 41.187 12.0314 41.0898 12.0251 40.9939C11.9983 40.6002 11.9958 40.2053 12.0177 39.8114C12.0277 39.612 12.0438 39.4134 12.0662 39.2157C12.0662 39.1684 12.0774 39.1198 12.0823 39.0724C12.0948 38.954 12.0687 39.1547 12.0823 39.0376C12.096 38.9205 12.1134 38.8307 12.1308 38.7285C12.1991 38.3285 12.2921 37.9332 12.4091 37.5447C12.465 37.359 12.5334 37.1709 12.5967 36.9952L12.6464 36.8706L12.6725 36.807L12.6576 36.8432C12.6973 36.7547 12.7359 36.6663 12.7819 36.579C12.8601 36.4158 12.9458 36.2563 13.039 36.1005C13.0825 36.0282 13.1273 35.9572 13.1745 35.8862C13.2018 35.8463 13.2292 35.8064 13.2577 35.7616C13.2727 35.7417 13.3596 35.6245 13.3099 35.6893C13.2602 35.7541 13.3373 35.6544 13.3522 35.6382C13.3671 35.622 13.4031 35.5772 13.4304 35.5473C13.4851 35.4837 13.5435 35.4226 13.6044 35.3603C13.6653 35.298 13.715 35.2532 13.7734 35.2033L13.8604 35.1298C13.9324 35.0663 13.7672 35.1909 13.8765 35.1198C14.004 35.0344 14.1359 34.9559 14.2716 34.8844C14.3412 34.8495 14.3462 34.8532 14.2654 34.8844L14.3673 34.8444C14.4423 34.8177 14.5186 34.7948 14.5959 34.7759C14.658 34.7597 14.8867 34.7336 14.714 34.746C14.7972 34.746 14.878 34.7298 14.9625 34.7273C15.047 34.7248 15.1203 34.7273 15.1986 34.7273L15.3228 34.7386C15.3899 34.7386 15.2681 34.731 15.2681 34.731L15.3501 34.7448C15.5317 34.7802 15.7103 34.8293 15.8845 34.8918L16.0174 34.9429C16.0796 34.9679 15.9963 34.9329 15.99 34.9317L16.0584 34.9629C16.159 35.0115 16.2597 35.0601 16.3579 35.1149C16.5596 35.2141 16.7349 35.3601 16.8691 35.5409C17.0033 35.7216 17.0925 35.9318 17.1294 36.1541C17.1563 36.3482 17.1314 36.546 17.0574 36.7273C17.0081 36.8173 16.9828 36.9185 16.9838 37.0212C16.9848 37.1239 17.0121 37.2246 17.0632 37.3136C17.1142 37.4026 17.1872 37.4769 17.2752 37.5294C17.3632 37.5819 17.4632 37.6108 17.5656 37.6133C17.4674 37.6021 17.5917 37.6195 17.6115 37.6257C17.658 37.6377 17.7037 37.6527 17.7483 37.6706C17.6377 37.622 17.9222 37.7952 17.8365 37.7242C17.9649 37.8131 18.0667 37.9355 18.131 38.0781C18.1397 38.093 18.1918 38.2027 18.1583 38.1242C18.1726 38.1605 18.1851 38.1975 18.1956 38.2351C18.2105 38.2824 18.2204 38.3298 18.2304 38.3771C18.2403 38.4245 18.2304 38.3173 18.2304 38.422C18.2304 38.4706 18.2304 38.5179 18.2304 38.5665C18.2304 38.6587 18.2664 38.4494 18.2304 38.6102C18.2204 38.6475 18.213 38.6849 18.2018 38.721C18.1521 38.8805 18.2477 38.6438 18.1682 38.7958C18.1132 38.8973 18.0889 39.0126 18.098 39.1278C18.1071 39.2429 18.1494 39.353 18.2196 39.4446C18.2899 39.5361 18.385 39.6052 18.4937 39.6436C18.6024 39.6819 18.7198 39.6879 18.8317 39.6606C18.7634 39.6743 18.9237 39.6606 18.9348 39.6606C18.8578 39.6519 18.9746 39.673 18.9982 39.6818L19.161 39.7715C19.2252 39.822 19.2788 39.8847 19.3188 39.9559C19.3586 40.0245 19.335 39.9796 19.3536 40.022C19.3636 40.0444 19.3921 40.1627 19.3797 40.0855C19.3797 40.0855 19.3797 40.2662 19.3884 40.1865C19.3774 40.2454 19.3616 40.3033 19.3412 40.3596C19.2912 40.5145 19.2677 40.6767 19.2716 40.8394C19.2887 41.0262 19.3622 41.2034 19.4823 41.3472C19.6024 41.4911 19.7634 41.5947 19.9438 41.6444C19.96 41.6444 20.0842 41.7029 20.0022 41.6643C20.045 41.6855 20.0865 41.7092 20.1265 41.7353C20.1774 41.7677 20.0904 41.6955 20.1637 41.764C20.2052 41.8027 20.2438 41.8443 20.2793 41.8886C20.2284 41.8238 20.2793 41.901 20.3004 41.9309C20.3215 41.9608 20.3476 42.0132 20.3687 42.0556C20.324 41.9634 20.3924 42.1253 20.3949 42.1316C20.4098 42.1789 20.423 42.2267 20.4346 42.2749C20.4458 42.3235 20.457 42.3733 20.4632 42.4219C20.4483 42.3185 20.4632 42.5054 20.4632 42.5079C20.4693 42.6108 20.4693 42.714 20.4632 42.8169C20.4558 42.9166 20.4632 42.8169 20.4557 42.8755C20.4483 42.934 20.4371 42.9764 20.4247 43.0263C20.3952 43.1439 20.3574 43.2592 20.3116 43.3714C20.2711 43.5219 20.2914 43.6824 20.3682 43.8179C20.445 43.9535 20.572 44.0532 20.7217 44.0954C20.8718 44.1331 21.0306 44.1114 21.1652 44.0349C21.2999 43.9583 21.4 43.8327 21.4448 43.6842C21.6928 43.1565 21.7413 42.5565 21.5813 41.9957C21.4213 41.4348 21.0637 40.9513 20.575 40.635C20.5328 40.6151 20.3811 40.5105 20.3265 40.5304C20.2892 40.5154 20.2867 40.5167 20.319 40.5304C20.3579 40.5599 20.3901 40.5974 20.4135 40.6404C20.4368 40.6833 20.4508 40.7308 20.4545 40.7795C20.5278 40.721 20.5564 40.3547 20.5639 40.2812C20.5849 39.9486 20.5014 39.6178 20.3253 39.3353C20.1452 39.0316 19.876 38.791 19.5544 38.6465C19.2328 38.502 18.8745 38.4605 18.5286 38.5279L19.1921 39.3927C19.3372 39.0961 19.4091 38.7689 19.4016 38.4386C19.3942 38.1083 19.3076 37.7847 19.1492 37.495C18.9909 37.2053 18.7653 36.958 18.4916 36.7741C18.218 36.5902 17.9042 36.475 17.5768 36.4383L18.0837 37.3229C18.2378 36.998 18.3165 36.6424 18.3139 36.2826C18.3113 35.9229 18.2276 35.5684 18.0688 35.2457C17.7851 34.679 17.3112 34.2308 16.7306 33.9797C15.9425 33.5542 15.0223 33.446 14.1573 33.6769C13.3941 34.0171 12.7257 34.5397 12.2106 35.199C11.6955 35.8583 11.3494 36.6342 11.2026 37.4588C10.7009 39.1519 10.6764 40.9512 11.1318 42.6574C11.4742 43.6084 12.043 44.4611 12.7888 45.1415C13.5345 45.8218 14.4347 46.3092 15.411 46.5614C16.4043 46.8446 17.4576 46.8368 18.4465 46.539C19.4858 46.1986 20.3751 45.5072 20.9627 44.5826C21.1199 44.3378 21.2562 44.0803 21.3702 43.8125C21.444 43.6766 21.4632 43.5176 21.4239 43.368C21.3847 43.2184 21.2899 43.0895 21.159 43.0076C21.0241 42.9301 20.8642 42.9089 20.7138 42.9485C20.5634 42.9881 20.4346 43.0854 20.3551 43.2194" fill="#161616"/>
<path d="M73.655 28.1729C73.7059 27.9486 73.4822 27.7605 73.2735 27.6645C72.7431 27.44 72.1557 27.3883 71.5944 27.5169C71.0332 27.6455 70.5266 27.9478 70.1461 28.381C69.7811 28.8281 69.55 29.3698 69.4796 29.9432C69.4092 30.5167 69.5024 31.0984 69.7484 31.6208C70.0069 32.1366 70.3895 32.5796 70.8615 32.9098C71.3336 33.2401 71.8803 33.4472 72.4522 33.5124" fill="#FFD8C7"/>
<path d="M74.2426 28.1714C74.3072 27.5895 73.7741 27.2232 73.3007 27.04C72.9124 26.8944 72.4981 26.8316 72.0842 26.8556C71.2076 26.8949 70.3803 27.2731 69.7757 27.911C69.187 28.5923 68.869 29.4672 68.8825 30.3686C68.896 31.27 69.2401 32.1349 69.849 32.7981C70.5348 33.5267 71.4575 33.9858 72.4508 34.0928C72.6065 34.0925 72.7558 34.0305 72.8661 33.9203C72.9764 33.8102 73.0388 33.6608 73.0398 33.5047C73.0357 33.3496 72.9723 33.2019 72.8626 33.0925C72.753 32.983 72.6055 32.92 72.4508 32.9165C71.8855 32.8413 71.3566 32.5948 70.9347 32.2101C70.5128 31.8253 70.2181 31.3205 70.09 30.7633C69.9742 30.2161 70.0629 29.6454 70.3392 29.1596C70.6155 28.6737 71.0601 28.3066 71.5886 28.1278C71.8838 28.0318 72.1965 28.0028 72.5042 28.0431C72.6471 28.067 72.7876 28.1033 72.9242 28.1515C72.9453 28.1602 73.0982 28.2437 73.1032 28.24C73.0883 28.2512 73.0907 27.9746 73.0683 28.1714C73.0696 28.3274 73.1322 28.4766 73.2424 28.5867C73.3527 28.6968 73.5017 28.7589 73.6573 28.7596C73.8118 28.7561 73.9592 28.6931 74.0686 28.5835C74.1781 28.474 74.2412 28.3264 74.245 28.1714" fill="#161616"/>
<path d="M71.3053 36.2385C74.1855 39.5307 78.8203 37.0597 79.6304 33.2878C80.3262 30.048 76.0706 22.4469 72.4449 26.5665C72.1469 26.9064 71.982 27.3432 71.9809 27.7958C71.9797 28.2484 72.1424 28.686 72.4386 29.0275C72.2351 29.1294 72.0579 29.2776 71.9216 29.4603C71.7852 29.643 71.6933 29.8551 71.6531 30.0797C71.6129 30.3043 71.6256 30.5353 71.6901 30.7541C71.7547 30.9729 71.8693 31.1737 72.0249 31.3402C71.8495 31.3701 71.6837 31.4415 71.5413 31.5486C71.399 31.6556 71.2842 31.7952 71.2064 31.9557C71.1287 32.1161 71.0901 32.2929 71.0942 32.4713C71.0982 32.6497 71.1447 32.8245 71.2296 32.9813C71.3365 33.1433 71.4955 33.3215 71.4259 33.5022C71.375 33.5949 71.3004 33.6723 71.2098 33.7265C70.8983 34.0763 70.7343 34.5338 70.7526 35.0024C70.7709 35.4711 70.9701 35.9142 71.3079 36.2385" fill="#FFD8C7"/>
<path d="M70.889 36.6551C71.6075 37.4992 72.5899 38.0746 73.6761 38.2874C74.7241 38.4546 75.7979 38.2936 76.7513 37.8264C77.6915 37.3697 78.5045 36.6872 79.1179 35.8393C79.7314 34.9914 80.1263 34.0046 80.2677 32.9667C80.3289 32.1659 80.2422 31.3607 80.0118 30.5916C79.7676 29.6951 79.4096 28.8336 78.9469 28.0284C78.5888 27.2557 78.0685 26.5697 77.4214 26.0174C76.7744 25.4651 76.016 25.0595 75.1982 24.8285C74.7745 24.7636 74.3421 24.7854 73.927 24.8925C73.5119 24.9995 73.1227 25.1897 72.7827 25.4515C72.318 25.7699 71.9348 26.1939 71.6644 26.6889C71.3717 27.2786 71.3173 27.959 71.5127 28.5879C71.6196 28.9056 71.7943 29.196 72.0246 29.439C72.0644 29.1308 72.1059 28.8226 72.149 28.5144C71.868 28.6623 71.625 28.8735 71.4392 29.1315C71.2533 29.3895 71.1297 29.6872 71.078 30.0012C71.0264 30.3152 71.0481 30.637 71.1414 30.9412C71.2348 31.2453 71.3971 31.5237 71.6159 31.7542L72.0309 30.7499C71.7067 30.7837 71.3992 30.9104 71.1449 31.1148C70.8907 31.3191 70.7005 31.5926 70.5971 31.9025C70.4923 32.1989 70.4729 32.5189 70.5411 32.8258C70.5763 32.9764 70.6346 33.1206 70.7139 33.2533C70.7543 33.3289 70.8022 33.4002 70.8567 33.4663L70.894 33.5311C71.02 33.203 71.0228 33.1029 70.9027 33.2308C70.9375 33.2184 70.7847 33.3218 70.7524 33.3554C70.7081 33.3972 70.6667 33.4417 70.6282 33.4888C70.5159 33.6172 70.4233 33.7617 70.3535 33.9174C70.2176 34.2187 70.1551 34.5479 70.1709 34.8781C70.2113 35.5372 70.4692 36.1641 70.9039 36.6601C71.0152 36.7642 71.1626 36.8209 71.3148 36.8183C71.467 36.8157 71.6123 36.754 71.7201 36.6461C71.8278 36.5382 71.8896 36.3926 71.8924 36.2399C71.8952 36.0873 71.8389 35.9395 71.7352 35.8277C71.494 35.5322 71.3568 35.1651 71.345 34.7835C71.3358 34.674 71.3522 34.5639 71.3928 34.4618C71.4333 34.3597 71.497 34.2685 71.5787 34.1953C71.7063 34.0998 71.82 33.987 71.9166 33.8601C72.0043 33.7031 72.0451 33.5242 72.0343 33.3446C72.0236 33.165 71.9615 32.9923 71.8557 32.847C71.8209 32.7934 71.7824 32.7448 71.7489 32.6913C71.7402 32.6776 71.6756 32.5318 71.7092 32.629C71.7092 32.6153 71.6706 32.472 71.6831 32.5442C71.6955 32.6165 71.6831 32.4695 71.6831 32.4558C71.6731 32.3311 71.6545 32.5143 71.6893 32.3885C71.7017 32.3424 71.7129 32.2963 71.729 32.2514C71.7452 32.2065 71.6992 32.2975 71.7501 32.209C71.7501 32.209 71.8482 32.0558 71.7848 32.1393C71.8143 32.1026 71.8463 32.068 71.8805 32.0358C71.9066 32.0097 71.9812 31.9623 71.9141 32.0047C71.9253 31.9972 72.0731 31.9262 71.9725 31.9636C71.9973 31.9548 72.1514 31.9224 72.0371 31.9362C72.152 31.9337 72.2637 31.8982 72.3591 31.8339C72.4545 31.7697 72.5296 31.6793 72.5752 31.5735C72.6204 31.4661 72.6327 31.3476 72.6106 31.2331C72.5884 31.1186 72.5328 31.0133 72.4509 30.9306C72.4509 30.9306 72.3266 30.796 72.3937 30.882C72.3718 30.8519 72.3515 30.8207 72.3328 30.7885C72.3328 30.7798 72.2545 30.6252 72.2967 30.7299C72.2806 30.6863 72.267 30.6427 72.2546 30.5978C72.2423 30.5527 72.2322 30.5069 72.2247 30.4608C72.2421 30.5704 72.2247 30.4446 72.2247 30.4222C72.2247 30.3748 72.2247 30.3275 72.2247 30.2813C72.2247 30.1293 72.1975 30.3623 72.2323 30.214C72.2516 30.1221 72.2777 30.0317 72.3106 29.9437C72.2782 30.0209 72.3105 29.9437 72.3341 29.9063C72.3577 29.8689 72.38 29.8253 72.4061 29.7817C72.4395 29.7375 72.476 29.6958 72.5155 29.657C72.472 29.6944 72.5913 29.6072 72.5913 29.6072C72.6403 29.5789 72.6908 29.5535 72.7428 29.5312C72.8202 29.4858 72.8863 29.4233 72.9361 29.3485C72.9858 29.2737 73.018 29.1884 73.03 29.0993C73.0419 29.0102 73.0334 28.9195 73.0052 28.8341C72.977 28.7487 72.9299 28.6709 72.8672 28.6066C72.7366 28.4563 72.6455 28.2758 72.6021 28.0812C72.5587 27.8867 72.5643 27.6844 72.6186 27.4926C72.6635 27.3051 72.7484 27.1296 72.8672 26.978C73.0183 26.8017 73.1845 26.639 73.3641 26.492C73.374 26.4845 73.5133 26.3749 73.4102 26.4521L73.4933 26.3911C73.5741 26.3337 73.6574 26.2802 73.7419 26.2303C73.8264 26.1805 73.8798 26.1568 73.9494 26.1207C73.9743 26.1082 74.1159 26.0546 73.9755 26.107C74.024 26.0895 74.0724 26.0696 74.1208 26.0546C74.1954 26.0297 74.2725 26.0085 74.3495 25.9911C74.4055 25.9786 74.598 25.9562 74.4402 25.9699C74.6056 25.9563 74.7717 25.9563 74.9371 25.9699C74.9744 25.9699 75.1061 26.0023 74.9434 25.9699L75.0677 25.9923C75.1348 26.0064 75.2019 26.023 75.269 26.0422C75.3498 26.0658 75.4281 26.097 75.5076 26.1232C75.5349 26.1319 75.6106 26.168 75.4851 26.1119C75.5373 26.1356 75.5895 26.1593 75.6405 26.1842C75.7861 26.2581 75.9268 26.3413 76.0617 26.4334C76.125 26.4758 76.1859 26.5207 76.2493 26.5643C76.3735 26.6515 76.1587 26.4845 76.278 26.5855C76.3264 26.6266 76.376 26.6652 76.4233 26.7101C76.697 26.9482 76.9502 27.2091 77.18 27.4901L77.2769 27.6147C77.385 27.7468 77.2097 27.5213 77.3116 27.6596C77.3638 27.7294 77.416 27.7992 77.4657 27.8714C77.5883 28.0451 77.7047 28.2228 77.8149 28.4047C78.2278 29.0658 78.5532 29.7779 78.7829 30.5231C78.8978 30.8826 78.9891 31.2493 79.0562 31.6209C79.0637 31.6657 79.106 31.9473 79.0861 31.7928C79.096 31.8693 79.1047 31.9457 79.1122 32.0221C79.1283 32.1978 79.1381 32.3735 79.1369 32.5504C79.1369 32.7012 79.1232 32.8508 79.1108 33.0003C79.0984 33.1498 79.1394 32.8657 79.1108 33.0003C79.1108 33.0252 79.1021 33.0502 79.0972 33.0751C79.0736 33.1997 79.0425 33.3243 79.0077 33.4551C78.9012 33.8684 78.7377 34.2648 78.5219 34.6327C78.0971 35.3902 77.494 36.0319 76.765 36.5018C76.5593 36.6309 76.346 36.7474 76.1263 36.8507C76.1052 36.8606 75.9908 36.9105 76.0815 36.8719C76.0107 36.9018 75.9399 36.9279 75.8678 36.9541C75.7597 36.9927 75.6517 37.0276 75.5423 37.0575C75.433 37.0874 75.2863 37.1236 75.1559 37.1485L75.0441 37.1684C74.9732 37.1784 74.9695 37.1796 75.0328 37.1684L74.9211 37.1809C74.678 37.2025 74.4335 37.2025 74.1904 37.1809L74.0786 37.1709C74.0078 37.1622 74.0041 37.1622 74.0662 37.1709L73.9544 37.1522C73.8426 37.131 73.7295 37.1062 73.6201 37.0762C73.4897 37.0412 73.3611 36.9995 73.2349 36.9516C73.1901 36.9341 73.1106 36.8981 72.9951 36.8395C72.5159 36.5936 72.0903 36.2548 71.7427 35.8426C71.6313 35.7385 71.484 35.6817 71.3318 35.6843C71.1796 35.6869 71.0342 35.7487 70.9265 35.8566C70.8188 35.9644 70.757 36.11 70.7542 36.2627C70.7514 36.4154 70.8077 36.5632 70.9113 36.675" fill="#161616"/>
<path d="M10.8289 8.00956C11.0131 7.28434 11.0265 6.52634 10.868 5.79548C10.751 5.29675 10.507 4.83708 10.1597 4.46131C9.61346 3.9266 8.93041 3.55341 8.18571 3.38279C7.68083 3.25408 7.20199 3.0391 6.77021 2.74726L6.69864 2.69142C6.456 2.5367 6.25013 2.33062 6.09548 2.08763C6.04813 1.98534 5.9643 1.90453 5.86047 1.86107C5.75664 1.81761 5.64029 1.81463 5.53428 1.85271C5.42842 1.89139 5.34108 1.96883 5.28987 2.06943C5.23866 2.17002 5.22738 2.28628 5.25832 2.39476L7.44308 10.0457C6.98805 9.92482 6.5085 9.93115 6.05647 10.064C5.53273 10.1616 5.06734 10.46 4.75917 10.8957C4.451 11.3314 4.32433 11.8701 4.40608 12.3974C4.61514 12.8885 5.0073 13.2783 5.49912 13.4837C5.99094 13.6891 6.54358 13.694 7.03944 13.4973C7.56347 13.4 8.02921 13.1017 8.33764 12.6659C8.64607 12.2301 8.77285 11.6911 8.69104 11.1636L7.26222 6.15992C7.82053 6.19666 8.35936 6.37908 8.82524 6.68909C9.29111 6.9991 9.66782 7.42591 9.918 7.92717C9.89158 8.02467 9.85933 8.12049 9.82144 8.21413C9.77086 8.32113 9.76474 8.44384 9.80444 8.55525C9.84414 8.66666 9.92639 8.75764 10.0331 8.80819C10.1398 8.85874 10.2623 8.86471 10.3735 8.82478C10.4847 8.78486 10.5756 8.70231 10.6262 8.59531C10.7038 8.42312 10.7667 8.24463 10.814 8.06178C10.8207 8.04489 10.8256 8.0274 10.8289 8.00956V8.00956Z" fill="black"/>
<path d="M18.9243 17.6686C19.4542 17.1422 19.8546 16.4994 20.0938 15.7909C20.2494 15.3029 20.276 14.7826 20.1712 14.2809C19.9773 13.5399 19.5832 12.8665 19.0325 12.335C18.6657 11.9634 18.3656 11.5314 18.1452 11.0578L18.1125 10.9729C17.9839 10.7148 17.9132 10.4316 17.9053 10.1433C17.9172 10.0311 17.8868 9.91846 17.8201 9.82748C17.7534 9.7365 17.6552 9.67375 17.5447 9.65154C17.4342 9.62992 17.3196 9.65112 17.2241 9.71085C17.1285 9.77058 17.0592 9.8644 17.0301 9.97341L14.9773 17.6622C14.6493 17.3231 14.235 17.0804 13.7794 16.9604C13.2804 16.7731 12.7284 16.7881 12.2407 17.0021C11.753 17.2161 11.368 17.6124 11.1675 18.1067C11.0947 18.6358 11.2309 19.1728 11.5471 19.6034C11.8633 20.0339 12.3345 20.3241 12.8605 20.412C13.3596 20.5997 13.9118 20.585 14.3998 20.371C14.8878 20.157 15.273 19.7606 15.4735 19.2661L16.816 14.2377C17.2757 14.5581 17.644 14.9932 17.8843 15.5C18.1246 16.0068 18.2285 16.5676 18.1857 17.1267C18.1131 17.1966 18.0363 17.2621 17.9557 17.3227C17.8575 17.3883 17.7893 17.4903 17.7662 17.6063C17.743 17.7224 17.7669 17.8429 17.8324 17.9415C17.8979 18.04 17.9998 18.1085 18.1156 18.1318C18.2315 18.1551 18.3517 18.1314 18.45 18.0658C18.6049 17.9584 18.7503 17.8379 18.8848 17.7057C18.8991 17.6946 18.9123 17.6822 18.9243 17.6686V17.6686Z" fill="black"/>
<path d="M8.02206 37.6074C7.44943 38.5551 7.15238 39.6445 7.16443 40.7525C7.17649 41.8606 7.49717 42.9432 8.09029 43.8781" stroke="black" stroke-linecap="round"/>
<path d="M78.0671 19.9026C79.1488 20.1286 80.146 20.6534 80.9461 21.4177C81.7461 22.182 82.3172 23.1554 82.5948 24.228" stroke="black" stroke-width="1.0002" stroke-linecap="round"/>
<path d="M3.72476 37.1709C3.22145 38.6859 3.11003 40.3043 3.40094 41.8743C3.69185 43.4443 4.37557 44.9145 5.38799 46.1471" stroke="black" stroke-linecap="round"/>
<path d="M81.0219 16.1449C82.47 16.8091 83.7264 17.8311 84.673 19.1153C85.6196 20.3995 86.2255 21.9037 86.4339 23.487" stroke="black" stroke-linecap="round"/>
</g>
<defs>
<clipPath id="clip0_150_2773">
<rect width="88" height="73.519" fill="white" transform="translate(0 0.240723)"/>
</clipPath>
</defs>
</svg>
