<svg width="88" height="70" viewBox="0 0 88 70" fill="none" xmlns="http://www.w3.org/2000/svg">
<g clip-path="url(#clip0_150_2271)">
<path d="M15.5482 36.1543C15.7117 35.155 16.9412 34.7453 17.5597 33.9334C17.9623 33.2875 18.1797 32.5446 18.1882 31.7849C18.316 31.2566 18.3287 30.7073 18.2255 30.1737C18.1223 29.6401 17.9056 29.1346 17.5898 28.6909C17.2655 28.3612 16.8242 28.1564 16.5301 27.7991C16.2359 27.4419 16.1316 27.0159 15.8852 26.6537C15.6464 26.3186 15.3072 26.0669 14.916 25.9346C14.5248 25.8023 14.1015 25.796 13.7065 25.9168C13.5525 25.9886 13.3861 26.031 13.2162 26.0416C13.0485 26.009 12.8846 25.9592 12.7272 25.893C12.0195 25.7007 11.4198 26.4351 11.113 27.0984C11.0533 27.2691 10.9487 27.421 10.8101 27.5381C10.6003 27.6355 10.3701 27.6813 10.1387 27.6717C9.79809 27.7201 9.48435 27.8827 9.24952 28.1326C9.01469 28.3825 8.8729 28.7047 8.84768 29.0457C8.84014 29.1869 8.84139 29.353 8.72196 29.4342C8.62236 29.4804 8.51053 29.494 8.40265 29.4729C7.56665 29.4492 7.14551 30.4884 7.14551 31.3215C7.15282 32.2497 7.39909 33.1605 7.86086 33.9673C8.32263 34.7741 8.98454 35.4502 9.7836 35.931C10.5827 36.4118 11.4923 36.6813 12.4258 36.7141C13.3594 36.7468 14.2859 36.5416 15.1171 36.118" fill="#FFD8C7"/>
<path d="M16.0637 36.2955C16.073 36.2408 16.0852 36.1866 16.1002 36.1331C16.1102 36.0994 16.1216 36.0645 16.1354 36.0307C16.1354 36.042 16.1078 36.0907 16.1354 36.0307C16.1631 35.9708 16.1857 35.937 16.2133 35.8921C16.2272 35.8696 16.2422 35.8471 16.2573 35.8259C16.3529 35.6897 16.2272 35.8584 16.29 35.7859C16.4603 35.5974 16.648 35.425 16.8507 35.2713C17.2963 34.9597 17.6965 34.5886 18.04 34.1683C18.4115 33.5814 18.6278 32.9107 18.6685 32.2185C18.7611 31.6006 18.794 30.9753 18.7666 30.3512C18.7502 29.7211 18.5521 29.109 18.1958 28.5874C17.9763 28.3105 17.7161 28.068 17.424 27.868C17.1943 27.7231 16.9957 27.5346 16.8394 27.3134C16.6672 27.0323 16.5578 26.7176 16.3805 26.439C16.1184 26.0279 15.74 25.7028 15.2928 25.5044C14.8455 25.306 14.3493 25.2431 13.8662 25.3236C13.6274 25.3611 13.3634 25.5372 13.1421 25.4647C12.8257 25.3281 12.4747 25.2911 12.1364 25.3586C11.8307 25.4639 11.5495 25.6295 11.3097 25.8454C11.0699 26.0614 10.8765 26.3232 10.741 26.6152C10.6731 26.7401 10.6153 26.8762 10.5499 26.9999C10.4983 27.0885 10.4921 27.0923 10.4079 27.1035C10.0775 27.121 9.75224 27.1919 9.44487 27.3134C9.1592 27.4524 8.91006 27.6555 8.71716 27.9068C8.52426 28.1581 8.39291 28.4506 8.33355 28.7611C8.31846 28.8485 8.30841 28.9372 8.30213 29.0259C8.30213 29.0571 8.31094 29.167 8.29334 29.1296L8.53094 28.9235H8.46307C8.43167 28.9217 8.40017 28.9217 8.36877 28.9235C8.27553 28.9255 8.1826 28.9351 8.09093 28.9522C7.80639 29.0086 7.54439 29.1457 7.33664 29.3469C6.92244 29.7799 6.6723 30.3424 6.62888 30.9382C6.53673 32.1786 6.86127 33.4144 7.55163 34.4519C8.24338 35.5443 9.27288 36.3845 10.4858 36.8464C11.7493 37.3147 13.1332 37.3547 14.4219 36.9601C14.7533 36.856 15.0753 36.7248 15.3849 36.5678C15.5082 36.4965 15.598 36.3793 15.6344 36.2422C15.6709 36.105 15.651 35.9591 15.5791 35.8365C15.5073 35.7139 15.3894 35.6248 15.2513 35.5886C15.1133 35.5524 14.9664 35.5721 14.843 35.6435C13.8176 36.1488 12.6487 36.289 11.5317 36.0407C10.4517 35.8034 9.48544 35.2073 8.79243 34.3507C8.13684 33.5409 7.7503 32.5489 7.68614 31.5116C7.63739 31.0766 7.73365 30.6378 7.96018 30.2625C8.04818 30.1226 7.89985 30.3199 8.00545 30.1988C8.03973 30.1592 8.07671 30.1221 8.1161 30.0876C8.22924 29.9877 8.04064 30.1226 8.17138 30.0514C8.18521 30.0439 8.32602 29.9902 8.2267 30.0214C8.23802 30.0214 8.39768 29.9877 8.28705 30.0002C8.34566 29.9965 8.40446 29.9965 8.46307 30.0002C8.69068 30.0182 8.91635 29.9469 9.09164 29.8016C9.21958 29.6852 9.3075 29.5318 9.34305 29.3631C9.35986 29.2749 9.37035 29.1856 9.37447 29.0958C9.37447 29.1071 9.39584 28.911 9.38076 28.9934C9.41151 28.7988 9.50452 28.6192 9.64601 28.4813C9.77824 28.3358 9.95491 28.2375 10.1489 28.2015C10.4666 28.1921 10.7795 28.1217 11.0704 27.9942C11.3217 27.801 11.5131 27.5412 11.6223 27.2447C11.7338 27.0089 11.8847 26.7935 12.0685 26.6077C12.1361 26.5361 12.2162 26.4772 12.3049 26.434C12.3578 26.4042 12.4175 26.3883 12.4784 26.3878C12.5591 26.3942 12.6381 26.4141 12.7122 26.4465C12.8905 26.5239 13.0821 26.5664 13.2766 26.5714C13.5434 26.5228 13.8068 26.4569 14.0649 26.3741C14.3106 26.337 14.5618 26.3672 14.7915 26.4615C14.9801 26.5355 15.1513 26.6473 15.2944 26.79C15.4724 27.0056 15.6161 27.2469 15.7205 27.5057C15.8485 27.7893 16.0212 28.0508 16.2322 28.2802C16.4525 28.4839 16.6878 28.671 16.9362 28.8398C17.129 28.9822 17.2914 29.1612 17.4142 29.3664C17.537 29.5715 17.6176 29.7988 17.6515 30.0351C17.7293 30.6401 17.7234 31.2529 17.6339 31.8563C17.6244 32.4731 17.4509 33.0764 17.1311 33.605C16.779 33.99 16.3838 34.3336 15.9531 34.6293C15.4903 34.9674 15.162 35.4564 15.0254 36.0108C14.9912 36.1478 15.0113 36.2926 15.0814 36.4153C15.1516 36.538 15.2665 36.6293 15.4025 36.6703C15.5402 36.7068 15.6867 36.6878 15.8105 36.6177C15.9343 36.5476 16.0252 36.4318 16.0637 36.2955" fill="#161616"/>
<path d="M24.1975 69.8921C23.1704 75.6753 22.2413 80.8254 22.7555 86.8734C23.2899 92.4927 24.3326 98.0528 25.8707 103.486C26.8035 106.909 27.847 113.048 31.0175 115.236C31.5765 115.577 32.2032 115.792 32.8542 115.869C33.5053 115.946 34.1653 115.881 34.7889 115.68C36.0333 115.267 37.2103 114.676 38.2825 113.925C38.8401 113.628 39.3234 113.21 39.6968 112.702C39.9664 112.196 40.1273 111.639 40.1694 111.068C40.9561 105.458 41.3342 99.7994 41.3009 94.1356C41.2745 89.5752 42.1294 85.2571 41.8993 80.7217" fill="white"/>
<path d="M23.6834 69.7498C23.1416 72.8013 22.5922 75.8578 22.3006 78.9456C22.0057 82.0826 22.0285 85.2412 22.3685 88.3737C22.7212 91.6065 23.2537 94.8173 23.9638 97.9916C24.5458 100.627 25.2699 103.225 25.9211 105.843C26.4001 108.056 27.1105 110.214 28.0406 112.28C28.4888 113.242 29.088 114.127 29.8157 114.903C30.1807 115.289 30.6019 115.62 31.0653 115.882C31.7051 116.217 32.4143 116.399 33.1371 116.414C34.6174 116.387 36.0604 115.949 37.3032 115.149C37.9355 114.797 38.5491 114.412 39.1412 113.996C39.7654 113.584 40.2354 112.979 40.4788 112.275C40.6777 111.511 40.8074 110.73 40.866 109.943C40.9716 109.136 41.0684 108.329 41.1564 107.521C41.3366 105.874 41.4816 104.224 41.5914 102.571C41.7003 100.933 41.775 99.2932 41.8152 97.6519C41.8554 96.0006 41.8151 94.3468 41.8667 92.6955C41.9635 89.4953 42.411 86.3152 42.4777 83.1125C42.494 82.3131 42.4865 81.5125 42.4475 80.7143C42.445 80.5734 42.3877 80.4389 42.2876 80.3391C42.1876 80.2392 42.0525 80.1816 41.9107 80.1784C41.7682 80.1797 41.6319 80.2367 41.5313 80.3369C41.4306 80.4372 41.3736 80.5727 41.3726 80.7143C41.4164 83.8588 41.2691 87.003 40.9314 90.1298C40.7001 93.325 40.8057 96.5289 40.6725 99.7278C40.5392 102.927 40.2701 106.132 39.8728 109.315C39.7786 110.064 39.7082 110.833 39.551 111.575C39.4486 112.168 39.1175 112.697 38.6283 113.051C38.0512 113.461 37.4515 113.839 36.8318 114.183C36.2314 114.547 35.5933 114.846 34.9285 115.074C34.3391 115.302 33.7049 115.393 33.0746 115.34C32.4443 115.286 31.8348 115.09 31.2929 114.766L31.1672 114.677C31.0817 114.616 31.1357 114.653 31.1533 114.668L31.093 114.621C30.9987 114.544 30.9069 114.466 30.8176 114.385C30.6489 114.23 30.4887 114.066 30.3375 113.894C30.1908 113.731 30.0544 113.56 29.9289 113.382C29.7805 113.174 29.641 112.961 29.5102 112.743C28.4686 110.847 27.7065 108.813 27.2474 106.701C26.996 105.738 26.7685 104.769 26.5195 103.805C26.16 102.42 25.7828 101.039 25.4484 99.6479C24.7046 96.5951 24.1172 93.5067 23.6884 90.3947C23.2416 87.3069 23.0841 84.1845 23.2182 81.0678C23.415 78.1091 23.7874 75.1644 24.3334 72.2493C24.4616 71.5107 24.5919 70.772 24.7243 70.0333C24.7581 69.8965 24.7378 69.752 24.6677 69.6296C24.5975 69.5072 24.4828 69.4161 24.3472 69.3751C24.2095 69.3386 24.0629 69.3575 23.9391 69.4276C23.8154 69.4978 23.7244 69.6135 23.6859 69.7498" fill="#161616"/>
<path d="M18.7289 36.9547C18.5322 36.114 18.1614 35.3232 17.6402 34.6327C17.3299 34.4605 16.9853 34.3581 16.6308 34.3328C16.2762 34.3076 15.9204 34.3601 15.5886 34.4865C12.8618 35.0973 8.5486 35.3946 8.6894 38.8333C8.91348 42.6175 9.70058 46.3478 11.0251 49.9027C11.5135 51.5066 12.3206 52.9971 13.3986 54.2858C14.3986 55.29 15.5727 56.1066 16.8646 56.6965C20.2589 58.3928 25.1617 60.1439 29.1569 58.1454C33.0541 56.1981 38.0273 54.5231 39.4051 49.914C39.8187 48.6133 39.7986 47.2146 39.3479 45.9262C38.8971 44.6378 38.0398 43.5283 36.9034 42.7629C34.281 41.1391 30.7183 41.6387 27.4435 41.966C26.5109 42.0995 25.5638 42.0995 24.6312 41.966C23.6588 41.752 22.7466 41.3253 21.961 40.7169C20.7849 39.8563 19.7852 38.7803 19.0156 37.5468C18.9016 37.3575 18.8056 37.1579 18.7289 36.9509" fill="#7FA1DB"/>
<path d="M19.2405 36.8138C19.0322 36.081 18.7465 35.3722 18.3882 34.6991C18.1675 34.3733 17.857 34.1174 17.4938 33.9624C17.1306 33.8073 16.7301 33.7595 16.3403 33.8248C15.7117 33.8872 15.1033 34.0521 14.4885 34.1707C13.9455 34.2769 13.4011 34.3793 12.8618 34.5018C11.7568 34.6994 10.6999 35.1046 9.74787 35.6959C9.27921 36.0042 8.89016 36.4178 8.61215 36.9033C8.33414 37.3887 8.17496 37.9322 8.14751 38.4901C8.13563 39.3406 8.19365 40.1908 8.321 41.032C8.43163 41.9771 8.57916 42.9173 8.76354 43.8524C9.12573 45.6496 9.60315 47.4219 10.1929 49.1585C10.6658 50.8016 11.38 52.3665 12.3124 53.8026C13.3402 55.152 14.6759 56.2394 16.2096 56.9753C18.9762 58.571 22.0955 59.4655 25.2924 59.5796C26.1177 59.5718 26.939 59.4631 27.7376 59.2561C28.4802 59.0348 29.1994 58.742 29.8848 58.3818C31.0703 57.8047 32.2734 57.2676 33.4463 56.663C35.8861 55.5979 37.9345 53.8091 39.3108 51.5418C39.9969 50.2608 40.2989 48.8112 40.1808 47.3649C40.0516 45.8917 39.4526 44.498 38.471 43.3865C36.2635 40.9321 32.6555 40.9458 29.622 41.2118C28.7772 41.2855 27.935 41.3842 27.0902 41.4617C26.2031 41.5848 25.3011 41.5531 24.425 41.368C22.8818 40.8686 21.5195 39.9311 20.5065 38.6712C19.9829 38.1246 19.5547 37.4952 19.2393 36.8088C19.1983 36.6741 19.1069 36.5602 18.9838 36.4905C18.8608 36.4208 18.7156 36.4006 18.578 36.4341C18.4405 36.4726 18.3237 36.5634 18.2531 36.6869C18.1825 36.8103 18.1638 36.9565 18.2009 37.0936C18.5362 37.862 18.9919 38.5728 19.5511 39.1995C20.054 39.8057 20.6199 40.3576 21.2394 40.8459C21.8883 41.3734 22.6075 41.8093 23.3766 42.1412C24.1857 42.4646 25.0528 42.6206 25.9248 42.5996C26.7796 42.5909 27.632 42.4747 28.4818 42.3922C29.2889 42.3098 30.0972 42.2323 30.9081 42.1911C32.4082 42.056 33.9206 42.2052 35.3647 42.6308C36.608 43.0332 37.6604 43.8732 38.324 44.9928C38.9863 46.1345 39.2556 47.4599 39.0908 48.7676C38.9195 50.0085 38.4192 51.1819 37.6413 52.1675C37.6345 52.1776 37.6269 52.1872 37.6187 52.1963L37.5458 52.2875L37.4201 52.4436C37.3136 52.5685 37.2034 52.6909 37.0895 52.8108C36.882 53.0294 36.6645 53.238 36.4395 53.4354C35.9864 53.835 35.5036 54.1999 34.9951 54.5271C33.9236 55.2079 32.8077 55.8171 31.6548 56.3507C31.0879 56.623 30.5234 56.8878 29.9514 57.1576C29.3794 57.4274 28.7948 57.7559 28.1914 57.9783C25.3 59.0425 22.0993 58.3143 19.3273 57.2189C17.9328 56.6885 16.5974 56.0162 15.3422 55.2128C14.6939 54.7924 14.1074 54.2846 13.5997 53.7039C13.1052 53.1073 12.6887 52.4509 12.3602 51.7504C11.6643 50.2419 11.0987 48.6774 10.6694 47.0738C10.1616 45.3582 9.77307 43.61 9.50651 41.8414C9.3808 40.982 9.29278 40.1151 9.24375 39.2483C9.2153 38.9158 9.2153 38.5815 9.24375 38.249C9.23244 38.3489 9.25253 38.2041 9.25756 38.1728C9.2693 38.1104 9.28315 38.0484 9.29907 37.9867C9.3298 37.8683 9.36802 37.7518 9.41348 37.6382C9.44365 37.5632 9.37702 37.7144 9.41348 37.6382C9.42731 37.612 9.43863 37.5845 9.45246 37.5583C9.47508 37.5125 9.49937 37.4671 9.52535 37.4221C9.55133 37.3772 9.58192 37.3276 9.61712 37.2735L9.66615 37.2023C9.67495 37.191 9.74785 37.0949 9.7026 37.1523C9.65734 37.2098 9.75291 37.0936 9.77177 37.0736C9.80948 37.0299 9.84971 36.9874 9.8912 36.9487C9.97417 36.865 10.0622 36.7876 10.1514 36.7114L10.2218 36.6552C10.1389 36.7189 10.203 36.6702 10.2218 36.6552C10.2721 36.6214 10.3199 36.5852 10.3701 36.5515C10.4732 36.4828 10.5788 36.4204 10.6857 36.3604C10.7926 36.3005 10.8944 36.2493 11.0012 36.198C11.0591 36.1706 11.1181 36.1443 11.176 36.1181L11.2426 36.0893C11.1395 36.1343 11.2866 36.0719 11.2954 36.0681C12.3062 35.7012 13.3497 35.4302 14.4119 35.2587C14.9323 35.1575 15.449 35.0451 15.9682 34.9414C16.2744 34.8697 16.5902 34.8474 16.9035 34.8752C17.0344 34.8894 17.1597 34.9358 17.2681 35.0102C17.3464 35.0708 17.4133 35.1448 17.4655 35.2288C17.7783 35.8208 18.0277 36.4437 18.2097 37.0874C18.2507 37.2221 18.3421 37.336 18.4651 37.4057C18.5881 37.4755 18.7334 37.4956 18.8709 37.4621C19.0085 37.4236 19.1252 37.3327 19.1958 37.2093C19.2664 37.0858 19.2852 36.9397 19.2481 36.8026" fill="#161616"/>
<path d="M49.8419 46.1831C53.421 48.2241 56.8227 50.0552 59.6689 53.0967L62.0211 55.6062C66.015 59.8668 67.7536 65.3378 63.0104 70.0319C62.1886 70.835 61.2038 71.4548 60.1219 71.85C59.04 72.2452 57.8858 72.4068 56.7361 72.3239C55.081 72.1229 53.4788 71.6144 52.0129 70.825C49.8132 69.7538 47.7204 68.4782 45.7625 67.0153" fill="#7FA1DB"/>
<path d="M49.5717 46.6453C52.5338 48.1732 55.3251 50.0079 57.899 52.1188C58.559 52.7084 59.1674 53.3454 59.7734 53.9924C60.4283 54.6919 61.0896 55.3876 61.7408 56.0921C62.7598 57.1742 63.6202 58.3937 64.2966 59.7145C64.9125 60.9063 65.2656 62.2148 65.3324 63.5529C65.3719 64.9 65.0421 66.2323 64.3783 67.4076C63.623 68.7995 62.5088 69.9669 61.15 70.7901C59.8167 71.5634 58.278 71.915 56.7386 71.7981C54.988 71.5642 53.3 70.9935 51.7691 70.1181C50.1506 69.3002 48.5917 68.3707 47.1039 67.3364C46.7435 67.0865 46.3873 66.8296 46.0353 66.5657C45.912 66.495 45.7655 66.4756 45.6278 66.5116C45.4901 66.5476 45.3722 66.6362 45.2999 66.758C45.2315 66.8813 45.2134 67.026 45.2492 67.1622C45.2849 67.2983 45.3719 67.4156 45.4922 67.49C46.9995 68.6115 48.5864 69.6234 50.2404 70.5178C51.8584 71.4741 53.6049 72.1975 55.4274 72.6662C57.1316 73.0463 58.9117 72.9057 60.534 72.2628C62.1434 71.5851 63.5348 70.4816 64.5568 69.0726C65.5152 67.8281 66.1297 66.3563 66.3394 64.8032C66.5049 63.3613 66.3248 61.9009 65.8139 60.5413C65.2599 59.0764 64.4744 57.7085 63.487 56.4893C62.9515 55.8085 62.3556 55.1816 61.766 54.5508C61.0858 53.8251 60.417 53.0868 59.7206 52.3773C57.1954 49.9947 54.3478 47.9741 51.26 46.3743L50.111 45.721C49.9882 45.6579 49.8457 45.6441 49.7129 45.6824C49.5802 45.7207 49.4672 45.8082 49.3976 45.9268C49.3279 46.0454 49.3067 46.1861 49.3384 46.3198C49.3701 46.4535 49.4522 46.57 49.5679 46.6453" fill="#161616"/>
<path d="M52.8856 58.9115C52.6895 62.0542 52.4933 65.1969 52.2972 68.3396C52.1715 70.3693 52.0458 72.4029 51.7466 74.4164C51.6238 75.9056 51.1205 77.3389 50.2845 78.5808C48.791 80.5057 46.2755 80.1559 44.1069 80.0497L23.6557 79.0505C23.2867 79.0705 22.9208 78.9734 22.611 78.7732C22.4325 78.5673 22.3045 78.3231 22.2371 78.0598C22.1697 77.7964 22.1648 77.5211 22.2226 77.2555C22.763 69.2406 23.8076 61.2671 25.3504 53.3818C26.3837 48.097 28.2116 41.7203 34.5866 40.7036C35.8521 40.5474 37.1346 40.593 38.3857 40.8385C42.1433 41.4406 46.4314 41.8378 49.622 44.1136C54.0145 47.2476 53.2275 53.4331 52.9346 58.1234C52.9187 58.384 52.9023 58.645 52.8856 58.9065" fill="#7FA1DB"/>
<path d="M52.3486 58.9112L51.9048 66.031C51.759 68.3668 51.6534 70.7101 51.3894 73.0371C51.2935 74.074 51.1179 75.1021 50.8639 76.1123C50.6575 77.0203 50.2218 77.8611 49.5979 78.5555C49.0478 79.087 48.3389 79.4268 47.5777 79.5236C47.1958 79.5813 46.81 79.6106 46.4236 79.6111C46.0025 79.6111 45.5813 79.5985 45.1665 79.5773C40.5591 79.3275 35.9491 79.1214 31.3379 78.8978L24.1936 78.5506C23.9233 78.5369 23.6493 78.5368 23.3803 78.5068C23.2256 78.497 23.0761 78.4475 22.9465 78.3632C22.8387 78.2536 22.7745 78.109 22.7655 77.956C22.7756 78.011 22.7655 77.9085 22.7655 77.9085C22.7592 77.8436 22.7567 77.7836 22.7554 77.7149C22.7554 77.6075 22.7554 77.4988 22.7554 77.3914C22.8133 76.2422 22.9176 75.0919 23.0157 73.9452C23.4096 69.3069 23.9732 64.6878 24.7065 60.0879C25.0678 57.8254 25.4696 55.57 25.9121 53.3216C26.1863 51.868 26.5473 50.4319 26.9932 49.0209C27.417 47.6353 28.0308 46.3144 28.8173 45.0951C29.1904 44.517 29.6278 43.9824 30.1211 43.5013C30.609 43.0089 31.1632 42.5859 31.7679 42.2447C31.928 42.1522 32.0914 42.0652 32.2581 41.9836C32.4065 41.9112 32.6139 41.8175 32.6994 41.7838C34.0086 41.2532 35.4283 41.0478 36.8355 41.1855C37.85 41.2667 38.8569 41.4578 39.8626 41.6101C40.8256 41.7563 41.7886 41.9049 42.7465 42.0885C44.6442 42.3965 46.4826 42.9944 48.1962 43.861C49.6427 44.5944 50.8179 45.7647 51.5528 47.2036C51.8773 47.8758 52.1216 48.5834 52.2807 49.312C52.4507 50.0613 52.5572 50.8234 52.5988 51.5903C52.6769 53.2001 52.6488 54.8132 52.5145 56.4193C52.4592 57.2512 52.4026 58.0818 52.3511 58.9175C52.3511 59.0591 52.4077 59.1949 52.5085 59.2951C52.6093 59.3952 52.746 59.4514 52.8885 59.4514C53.031 59.4514 53.1678 59.3952 53.2686 59.2951C53.3693 59.1949 53.4259 59.0591 53.4259 58.9175C53.6346 55.5749 54.0847 52.0988 53.2625 48.7999C52.8949 47.1949 52.0934 45.72 50.9443 44.5343C49.4839 43.2041 47.7231 42.2423 45.8102 41.7301C43.8837 41.1914 41.9197 40.7956 39.9343 40.5459C38.8468 40.3823 37.7595 40.1712 36.6657 40.1025C35.5938 40.0269 34.5167 40.1273 33.4776 40.3998C31.9247 40.8125 30.5072 41.6211 29.3655 42.7456C28.3041 43.8266 27.4488 45.0899 26.8412 46.4741C25.5405 49.7287 24.6573 53.133 24.2125 56.6067C23.3744 61.3416 22.7131 66.103 22.2287 70.8912C22.1072 72.097 21.997 73.3044 21.8981 74.5136C21.8486 75.1106 21.8025 75.7076 21.7598 76.3047C21.6932 76.8374 21.6696 77.3746 21.6894 77.911C21.6946 78.1679 21.7562 78.4206 21.8697 78.6514C21.9833 78.8822 22.1461 79.0857 22.3469 79.2476C22.827 79.5219 23.3783 79.6484 23.9309 79.6111L27.5929 79.7897L42.3279 80.5054C43.3587 80.5554 44.3896 80.6153 45.4205 80.664C46.2995 80.727 47.183 80.6805 48.0504 80.5254C48.9252 80.3576 49.7308 79.937 50.3661 79.3163C51.0727 78.5491 51.5809 77.6227 51.847 76.617C52.1361 75.5446 52.3333 74.4498 52.4366 73.3444C52.5799 72.1465 52.6742 70.9436 52.7546 69.7408C52.9168 67.32 53.0588 64.8993 53.2097 62.4773C53.2843 61.2915 53.3585 60.1058 53.4322 58.92C53.4322 58.7784 53.3756 58.6425 53.2748 58.5424C53.1741 58.4422 53.0373 58.386 52.8948 58.386C52.7523 58.386 52.6155 58.4422 52.5148 58.5424C52.414 58.6425 52.3574 58.7784 52.3574 58.92" fill="#161616"/>
<path d="M58.6257 65.5241C58.7238 64.6655 58.6369 63.7959 58.3707 62.9733C58.1045 62.1506 57.6652 61.3936 57.0819 60.7526C55.8977 59.6147 53.9001 58.237 52.164 58.613C51.3853 58.8036 50.6938 59.249 50.2008 59.8775C49.7078 60.506 49.4419 61.2811 49.446 62.0779C49.4382 62.1812 49.4696 62.2837 49.534 62.3652C49.609 62.4251 49.7018 62.459 49.798 62.4614L50.8478 62.6C50.4574 62.7756 50.1509 63.0949 49.9929 63.4906C49.9523 63.7564 50.0033 64.028 50.1374 64.2615C50.2716 64.495 50.4811 64.6767 50.7321 64.7772C51.2393 64.9641 51.7833 65.0313 52.3211 64.9733C52.2081 64.998 52.1017 65.0467 52.0093 65.116C51.9169 65.1853 51.8407 65.2736 51.7858 65.3749C51.7309 65.4762 51.6986 65.588 51.6912 65.7028C51.6838 65.8176 51.7014 65.9326 51.7428 66.04C51.8428 66.252 52.0034 66.43 52.2047 66.5517C52.4059 66.6735 52.6389 66.7336 52.8743 66.7245C53.3456 66.6968 53.7992 66.5361 54.1817 66.2611C54.121 66.4422 54.1203 66.6378 54.1799 66.8192C54.2394 67.0007 54.3559 67.1583 54.5123 67.2691C54.8306 67.4821 55.1958 67.6158 55.5771 67.6588C56.2259 67.8416 56.9182 67.7975 57.5382 67.5339C57.8627 67.3071 58.1296 67.0085 58.3181 66.6616C58.5066 66.3148 58.6115 65.9293 58.6244 65.5354" fill="#FFD8C7"/>
<path d="M59.1637 65.5239C59.2801 64.3005 59.0694 63.0682 58.5527 61.9516C58.0023 60.8607 57.1659 59.9376 56.1315 59.2797C55.1155 58.4694 53.8527 58.0259 52.5499 58.022C51.5768 58.1253 50.6733 58.5725 50.0042 59.282C49.3351 59.9916 48.9447 60.9163 48.9041 61.8878C48.8633 62.1072 48.9015 62.3339 49.0121 62.528C49.1226 62.7222 49.2985 62.8714 49.5088 62.9495C49.7154 62.9977 49.9257 63.029 50.1374 63.0432L50.8376 63.1357L50.5661 62.1364C50.1528 62.3451 49.8089 62.6678 49.5754 63.0657C49.4641 63.2939 49.4129 63.5464 49.4266 63.7996C49.4402 64.0528 49.5182 64.2984 49.6534 64.5134C49.9629 64.9041 50.3738 65.2036 50.8419 65.3797C51.3099 65.5558 51.8173 65.6017 52.3097 65.5127C52.2628 65.1621 52.2151 64.8115 52.1664 64.461C51.9367 64.5094 51.725 64.6202 51.5548 64.7809C51.3846 64.9417 51.2626 65.1461 51.2022 65.3715C51.1346 65.6069 51.1304 65.8558 51.1902 66.0932C51.25 66.3307 51.3716 66.5483 51.5429 66.7243C51.9496 67.0611 52.4623 67.2456 52.9917 67.2456C53.5212 67.2456 54.0339 67.0611 54.4406 66.7243L53.6511 66.1197C53.5506 66.4739 53.5848 66.8525 53.7471 67.1833C53.9094 67.514 54.1884 67.7739 54.5311 67.9134C54.8614 68.0567 55.2099 68.1543 55.567 68.2033C55.9222 68.2715 56.2838 68.3021 56.6456 68.2944C57.0076 68.2877 57.3633 68.1993 57.6859 68.0359C58.0084 67.8725 58.2894 67.6385 58.5075 67.3514C58.8787 66.8095 59.0997 66.1801 59.1486 65.5265C59.1482 65.3847 59.0915 65.2487 58.9907 65.1483C58.8899 65.0479 58.7532 64.9912 58.6105 64.9906C58.4689 64.9944 58.3342 65.0522 58.2343 65.1519C58.1344 65.2517 58.0769 65.3858 58.0737 65.5265C57.9807 66.2897 57.6237 67.1415 56.7198 67.2189C56.2225 67.2474 55.724 67.1877 55.2477 67.0428C55.0522 67.0029 54.8739 66.9038 54.7373 66.7593C54.7019 66.7134 54.6754 66.6612 54.6593 66.6056C54.6354 66.5244 54.638 66.5869 54.648 66.502C54.6392 66.5757 54.6857 66.4008 54.6845 66.4046C54.8555 65.9649 54.2709 65.5627 53.895 65.8C53.6323 65.988 53.3323 66.1183 53.015 66.1822C52.9041 66.204 52.7898 66.2023 52.6795 66.1774C52.5693 66.1524 52.4655 66.1047 52.3751 66.0373C52.3162 65.9854 52.2669 65.9237 52.2293 65.855C52.2117 65.8212 52.2117 65.8187 52.2293 65.855C52.2155 65.7913 52.2117 65.7863 52.2192 65.8387C52.2192 65.8325 52.2192 65.6701 52.2104 65.7662C52.2104 65.7363 52.2582 65.6026 52.2482 65.6251C52.2192 65.6863 52.3499 65.4814 52.2795 65.5739C52.3462 65.4877 52.2381 65.5802 52.3311 65.5265C52.3873 65.4965 52.3918 65.4939 52.3449 65.5189C52.3791 65.5093 52.414 65.5026 52.4493 65.4989C52.5745 65.464 52.6828 65.3852 52.7542 65.2772C52.8256 65.1692 52.8553 65.0393 52.8378 64.9112C52.8204 64.7832 52.7569 64.6657 52.6592 64.5804C52.5615 64.4952 52.436 64.4479 52.3059 64.4472C51.7553 64.4635 50.9998 64.5172 50.6302 64.06C50.5627 63.9836 50.5164 63.891 50.4956 63.7914C50.4752 63.7238 50.4816 63.651 50.5133 63.5879C50.654 63.3615 50.8598 63.1822 51.1041 63.0732C51.2058 63.0126 51.2853 62.9212 51.3305 62.8123C51.3758 62.7034 51.3846 62.5829 51.3556 62.4687C51.3206 62.358 51.2521 62.2608 51.1594 62.1904C51.0666 62.1199 50.9543 62.0797 50.8376 62.0752C50.5186 62.0171 50.1967 61.9753 49.8734 61.9503L49.8168 61.9391C49.8547 61.951 49.8886 61.9731 49.9147 62.0028C49.9409 62.0325 49.9583 62.0688 49.9651 62.1077C49.9651 62.124 49.9739 62.1389 49.9777 62.1539C49.9777 62.1115 49.9777 62.0702 49.9777 62.029C49.9777 61.9215 49.9891 61.7155 49.9954 61.6668C50.0601 61.2084 50.2323 60.7715 50.4982 60.3915C50.7418 60.0139 51.0727 59.6996 51.4632 59.4748C51.8537 59.2499 52.2926 59.121 52.7435 59.0987C53.7849 59.1767 54.7774 59.5689 55.5884 60.2228C56.4084 60.7501 57.0799 61.4761 57.5395 62.3325C58.0221 63.3302 58.212 64.4427 58.0875 65.5427C58.0882 65.6842 58.1449 65.8197 58.2454 65.92C58.3458 66.0203 58.4819 66.0772 58.6243 66.0785C58.7662 66.0753 58.9014 66.0178 59.0017 65.9179C59.102 65.8181 59.1596 65.6837 59.1624 65.5427" fill="#161616"/>
<path d="M47.8795 38.6498L46.4967 42.8368C46.3066 43.6185 45.9272 44.3422 45.3916 44.9452C44.6755 45.5327 43.7733 45.8495 42.8446 45.8395C41.3869 45.9163 39.9314 45.6533 38.5943 45.0714C38.2569 44.9586 37.9453 44.7806 37.6775 44.5475C37.4097 44.3145 37.191 44.031 37.0341 43.7136C36.912 43.2961 36.8795 42.8578 36.9386 42.4271C37.035 40.9931 37.1318 39.5596 37.229 38.1265" fill="#FFD8C7"/>
<path d="M47.3616 38.5064C46.8931 39.922 46.4242 41.3406 45.9548 42.762C45.8054 43.3114 45.5669 43.8329 45.2484 44.3059C44.9054 44.7275 44.4299 45.0225 43.8982 45.144C42.6272 45.4313 41.3032 45.3883 40.0538 45.0191C39.426 44.8672 38.8232 44.6271 38.2637 44.3059C38.0381 44.1951 37.8452 44.0281 37.7038 43.8213C37.5623 43.6144 37.4772 43.3747 37.4566 43.1255C37.4495 42.7327 37.4662 42.3397 37.5069 41.9489C37.5354 41.5242 37.5639 41.0999 37.5924 40.6761C37.6493 39.8284 37.7063 38.9802 37.7633 38.1316C37.7633 37.99 37.7067 37.8542 37.6059 37.7541C37.5051 37.654 37.3684 37.5977 37.2259 37.5977C37.0834 37.5977 36.9466 37.654 36.8458 37.7541C36.7451 37.8542 36.6885 37.99 36.6885 38.1316L36.5225 40.5886C36.4697 41.3755 36.3716 42.1737 36.3754 42.9618C36.3655 43.3237 36.4369 43.6832 36.5843 44.0142C36.7318 44.3452 36.9516 44.6394 37.2278 44.8755C37.7982 45.3171 38.4455 45.6507 39.1374 45.8597C40.5756 46.3609 42.1141 46.5109 43.6229 46.2969C44.3243 46.2056 44.9898 45.9344 45.5538 45.51C46.0809 45.0574 46.4796 44.4756 46.7104 43.8225C47.0285 43.0456 47.2598 42.2299 47.5225 41.433L48.395 38.7949C48.4149 38.7269 48.4209 38.6557 48.4129 38.5854C48.4048 38.5151 48.3829 38.4469 48.3481 38.3851C48.3134 38.3233 48.2666 38.269 48.2105 38.2252C48.1545 38.1815 48.0903 38.1493 48.0216 38.1305C47.953 38.1116 47.8812 38.1065 47.8105 38.1154C47.7398 38.1243 47.6716 38.1471 47.6098 38.1824C47.5481 38.2177 47.494 38.2649 47.4508 38.3212C47.4075 38.3774 47.3759 38.4417 47.3578 38.5101" fill="#161616"/>
<path d="M31.0124 46.9912C30.3913 45.9282 29.6446 44.9365 29.1015 43.831C28.501 42.7427 28.2943 41.4826 28.5157 40.2611C28.6399 39.6576 28.954 39.109 29.4125 38.6943C29.8709 38.2797 30.4501 38.0205 31.0665 37.9541C31.1406 37.4553 31.3836 36.9965 31.7554 36.6534C32.1273 36.3103 32.6057 36.1034 33.1118 36.0667C33.6185 36.048 34.1229 36.145 34.586 36.3503C35.0491 36.5556 35.4587 36.8637 35.7832 37.2509C36.4275 38.0327 36.8868 38.9482 37.1271 39.9301C37.8374 42.407 39.1838 46.2368 42.5115 44.9015C44.5833 44.0696 46.1962 42.4033 48.1334 41.3391C50.0279 40.2949 52.1563 39.2156 54.2595 39.7377C54.7025 39.8301 55.1191 40.0197 55.4789 40.2927C55.8386 40.5656 56.1324 40.915 56.3388 41.3153C56.5295 41.723 56.5696 42.1843 56.4519 42.6184C56.3341 43.0524 56.0662 43.4314 55.6952 43.6886C56.2564 43.7649 56.7696 44.0438 57.1371 44.472C57.5046 44.9003 57.7006 45.448 57.6877 46.0107C57.6506 46.5731 57.4773 47.1183 57.1824 47.5998C56.8876 48.0813 56.48 48.4849 55.9943 48.7761C55.0171 49.3471 53.9251 49.6969 52.7962 49.8004C51.1874 50.019 49.5579 50.0421 47.9436 49.8691" fill="#7FA1DB"/>
<path d="M31.475 46.7202C30.6166 45.5019 29.8766 44.2053 29.265 42.848C29.0075 42.2801 28.9007 41.6563 28.9546 41.0357C29.0085 40.4152 29.2214 39.8188 29.5729 39.3032C29.7512 39.0717 29.9758 38.8794 30.2327 38.7385C30.4895 38.5977 30.773 38.5114 31.0652 38.485C31.2066 38.4806 31.3409 38.4226 31.4407 38.323C31.5405 38.2234 31.5982 38.0896 31.602 37.9491C31.6102 37.9149 31.6164 37.8804 31.6208 37.8455C31.6369 37.7752 31.6575 37.7059 31.6824 37.6381C31.7306 37.5301 31.7882 37.4264 31.8547 37.3284C32.0744 37.0355 32.3764 36.8137 32.7227 36.691C33.069 36.5683 33.444 36.5502 33.8007 36.6389C34.3765 36.8178 34.9008 37.1312 35.3297 37.5528C35.7586 37.9744 36.0796 38.4919 36.2659 39.0621C36.6431 39.9827 36.848 40.9669 37.2088 41.895C37.5324 42.8029 38.0053 43.6513 38.608 44.4056C39.1785 45.1155 40.0053 45.5762 40.9124 45.6897C42.0681 45.7035 43.1977 45.3489 44.1357 44.6779C45.2671 44.0047 46.2728 43.1666 47.3665 42.4296C47.9307 42.0576 48.5144 41.7156 49.1152 41.4054C49.7316 41.068 50.3719 40.7757 51.0311 40.531C51.6183 40.2758 52.2509 40.1395 52.8918 40.13C53.5327 40.1206 54.1689 40.2382 54.7635 40.476C55.2555 40.6958 55.6501 41.0862 55.8736 41.574C55.947 41.7704 55.9797 41.9795 55.9698 42.1888C55.9599 42.3981 55.9075 42.6032 55.8158 42.7918C55.7292 42.9688 55.5924 43.1169 55.4223 43.2178C55.3233 43.2792 55.2468 43.3707 55.2041 43.4787C55.1614 43.5867 55.1548 43.7054 55.1852 43.8174C55.2157 43.9294 55.2816 44.0287 55.3732 44.1007C55.4647 44.1726 55.5772 44.2134 55.6939 44.217C56.0035 44.2512 56.294 44.3825 56.5236 44.5918C56.7722 44.8215 56.9571 45.111 57.0604 45.4324C57.1662 45.7634 57.1779 46.1169 57.0943 46.4541C57.0002 46.8452 56.8218 47.2113 56.5714 47.5271C55.4399 48.9885 53.3103 49.2521 51.5855 49.3808C50.371 49.4703 49.1508 49.4506 47.9398 49.3221C47.7972 49.323 47.6607 49.3799 47.56 49.4802C47.4592 49.5805 47.4024 49.7162 47.4018 49.8579C47.4046 49.9989 47.4622 50.1333 47.5624 50.2332C47.6627 50.333 47.7979 50.3905 47.9398 50.3937C49.1508 50.5223 50.371 50.542 51.5855 50.4524C52.7343 50.4009 53.871 50.1981 54.9659 49.8492C55.9935 49.5148 56.8921 48.8736 57.5393 48.013C57.8449 47.6087 58.0537 47.1405 58.15 46.644C58.2463 46.1476 58.2275 45.6358 58.095 45.1476C57.9443 44.6119 57.6343 44.134 57.2057 43.7763C56.777 43.4186 56.2496 43.1978 55.6926 43.1428L55.9641 44.1421C56.4917 43.7824 56.8602 43.2352 56.9935 42.6135C57.1269 41.9917 57.0149 41.3429 56.6807 40.8008C56.2791 40.2226 55.7336 39.7575 55.0973 39.4511C54.461 39.1446 53.7557 39.0071 53.0501 39.052C51.5058 39.1618 50.009 39.6303 48.6802 40.4198C48.0313 40.7516 47.4018 41.1194 46.7945 41.5215C46.22 41.9088 45.6631 42.3259 45.1024 42.7319C44.5467 43.1435 43.9689 43.5246 43.3714 43.8736C42.8536 44.1926 42.2891 44.4298 41.6981 44.5768C41.6365 44.5893 41.5724 44.6017 41.5133 44.6105C41.4542 44.6192 41.5133 44.6105 41.5271 44.6105L41.4253 44.6192C41.3106 44.6263 41.1955 44.6263 41.0808 44.6192C41.0255 44.6192 40.9702 44.6118 40.9149 44.6055C40.8595 44.5993 40.935 44.6055 40.9426 44.6055L40.852 44.5893C40.7478 44.5685 40.6449 44.5414 40.544 44.5081C40.5104 44.494 40.476 44.4819 40.441 44.4719C40.4913 44.4919 40.368 44.4381 40.3416 44.4256C40.2479 44.3789 40.1569 44.3273 40.0688 44.2708C40.0248 44.242 39.9808 44.2121 39.9431 44.1821C39.845 44.1146 39.9582 44.2008 39.8903 44.1421C39.8224 44.0834 39.7269 44.0022 39.6502 43.926C39.5735 43.8498 39.4956 43.7686 39.4239 43.6862C39.3875 43.6437 39.351 43.6013 39.3158 43.5613L39.2705 43.505C39.3183 43.565 39.2705 43.5051 39.2517 43.4776C39.1159 43.2893 38.9901 43.0941 38.8745 42.893C38.7488 42.6856 38.6445 42.4733 38.5414 42.2572C38.4923 42.1561 38.4471 42.0536 38.4019 41.9499C38.4019 41.9374 38.3616 41.8563 38.3943 41.935L38.3641 41.8625C38.3373 41.7984 38.3113 41.7342 38.2862 41.6701C37.8965 40.6846 37.6802 39.6379 37.2716 38.6599C37.0327 37.97 36.6421 37.3418 36.1283 36.8206C35.6145 36.2995 34.9903 35.8986 34.301 35.6471C33.658 35.4392 32.9627 35.4558 32.3305 35.6944C31.6983 35.9329 31.1671 36.379 30.825 36.9586C30.665 37.2619 30.5679 37.5941 30.5397 37.9354L31.0765 37.3995C30.3585 37.4651 29.679 37.7519 29.133 38.2197C28.5869 38.6874 28.2015 39.313 28.0304 40.0089C27.7173 41.6769 28.0787 43.4003 29.0361 44.8053C29.5164 45.6347 30.0733 46.4167 30.5585 47.2436C30.6328 47.3615 30.7505 47.446 30.8865 47.4792C31.0225 47.5123 31.1661 47.4914 31.2869 47.421C31.4076 47.3506 31.4961 47.2362 31.5333 47.1021C31.5706 46.968 31.5537 46.8246 31.4863 46.7027" fill="#161616"/>
<path d="M55.2148 36.3838C55.8137 36.7616 56.5009 36.9784 57.2094 37.013C57.9179 37.0476 58.6234 36.8988 59.2566 36.5812C59.8898 36.2635 60.4291 35.7879 60.8217 35.2009C61.2143 34.6139 61.4468 33.9356 61.4963 33.2325C61.5458 32.5294 61.4107 31.8256 61.1042 31.19C60.7977 30.5544 60.3303 30.0088 59.7477 29.6066C59.1652 29.2044 58.4875 28.9594 57.7811 28.8956C57.0746 28.8318 56.3637 28.9515 55.7177 29.2428" fill="#FFD8C7"/>
<path d="M54.9447 36.8464C55.6251 37.2715 56.4051 37.5135 57.208 37.5485C58.011 37.5835 58.8094 37.4103 59.5246 37.046C60.2398 36.6816 60.8473 36.1387 61.2874 35.4704C61.7275 34.8022 61.985 34.0317 62.0347 33.2347C62.0844 32.4376 61.9246 31.6414 61.5708 30.9243C61.2171 30.2072 60.6817 29.5939 60.0172 29.1447C59.3527 28.6954 58.582 28.4256 57.7808 28.3619C56.9797 28.2981 56.1755 28.4426 55.4476 28.7811C55.3251 28.8535 55.2362 28.9708 55.2 29.1077C55.1638 29.2446 55.1831 29.3902 55.254 29.513C55.3279 29.6332 55.4457 29.7202 55.5827 29.7561C55.7198 29.7919 55.8655 29.7738 55.9894 29.7054C56.4225 29.5129 56.89 29.4083 57.3643 29.3979C57.8387 29.3874 58.3103 29.4713 58.7516 29.6446C59.1929 29.8178 59.5949 30.077 59.9339 30.4068C60.273 30.7366 60.5422 31.1304 60.7259 31.5651C60.9095 31.9997 61.004 32.4665 61.0035 32.938C61.003 33.4094 60.9077 33.8759 60.7231 34.3102C60.5386 34.7446 60.2686 35.1379 59.9289 35.467C59.5892 35.7961 59.1867 36.0545 58.7451 36.2269C58.2643 36.4227 57.7451 36.5081 57.2265 36.4766C56.6069 36.4398 56.0069 36.2473 55.4828 35.917C54.8944 35.5511 54.3513 36.4767 54.9397 36.8414" fill="#161616"/>
<path d="M31.1745 32.3372C30.4835 32.5009 29.7616 32.4833 29.0795 32.2862C28.3974 32.0891 27.7786 31.7193 27.2838 31.2129C26.789 30.7066 26.4351 30.0812 26.2568 29.398C26.0786 28.7148 26.0822 27.9973 26.2671 27.3158C26.4521 26.6344 26.8121 26.0124 27.312 25.5109C27.8118 25.0095 28.4342 24.6457 29.1182 24.4552C29.8022 24.2648 30.5242 24.2543 31.2135 24.4247C31.9028 24.5951 32.5357 24.9405 33.0501 25.4272" fill="#FFD8C7"/>
<path d="M31.0311 31.821C30.5143 31.9388 29.9775 31.9404 29.4599 31.8259C28.9423 31.7114 28.4569 31.4836 28.0391 31.159C27.3349 30.5975 26.8655 29.7963 26.7217 28.9106C26.6613 28.473 26.6787 28.0282 26.7733 27.5966C26.8738 27.1443 27.0644 26.7167 27.3339 26.3388C27.8566 25.6063 28.639 25.0975 29.5239 24.9148C30.0325 24.815 30.5566 24.8243 31.0613 24.9423C31.6643 25.0877 32.2189 25.3864 32.6705 25.8091C33.1733 26.28 33.9364 25.5244 33.4247 25.0522C32.8434 24.5028 32.1283 24.113 31.3497 23.921C30.571 23.729 29.7554 23.7414 28.983 23.957C28.2106 24.1726 27.5078 24.5839 26.9437 25.1507C26.3795 25.7175 25.9733 26.4202 25.7649 27.19C25.5565 27.9598 25.553 28.7703 25.7548 29.5418C25.9567 30.3133 26.3569 31.0194 26.9162 31.591C27.4755 32.1625 28.1747 32.5797 28.9452 32.8018C29.7158 33.0239 30.5312 33.0432 31.3115 32.8577C31.4455 32.8167 31.5581 32.7255 31.6255 32.6035C31.6929 32.4814 31.7099 32.3381 31.6728 32.2038C31.6357 32.0695 31.5475 31.9548 31.4268 31.8841C31.3061 31.8133 31.1624 31.7921 31.0262 31.8247" fill="#161616"/>
<path d="M29.9903 26.143C29.526 28.9102 29.8977 31.752 31.0584 34.3094C32.2191 36.8668 34.1166 39.0249 36.5114 40.5111C38.9061 41.9973 41.6904 42.7449 44.5126 42.6593C47.3348 42.5738 50.0681 41.6589 52.3671 40.0304C54.6662 38.4019 56.4278 36.1329 57.4294 33.51C58.431 30.887 58.6277 28.0279 57.9944 25.294C57.3612 22.5601 55.9265 20.074 53.8717 18.15C51.817 16.2259 49.2343 14.9502 46.4501 14.484C42.7122 13.8676 38.8807 14.7486 35.7954 16.934C32.7101 19.1194 30.6226 22.431 29.9903 26.143" fill="#FFD8C7"/>
<path d="M29.4723 26.0004C28.954 29.047 29.398 32.1782 30.7433 34.9639C32.4216 38.3859 35.3682 41.0293 38.9652 42.3401C42.5622 43.6508 46.5302 43.5269 50.0372 41.9945C53.5443 40.462 56.3181 37.6399 57.7769 34.12C59.2358 30.6001 59.2664 26.6557 57.8624 23.1138C56.7557 20.3369 54.838 17.9525 52.3561 16.2676C50.4625 15.0005 48.2998 14.1853 46.0369 13.8855C43.774 13.5857 41.472 13.8095 39.3104 14.5393C37.1488 15.2691 35.1863 16.4852 33.5757 18.0928C31.9651 19.7004 30.7501 21.656 30.0255 23.8071C29.7845 24.5224 29.6 25.2554 29.4735 25.9992C29.4398 26.136 29.46 26.2805 29.5302 26.403C29.6003 26.5254 29.715 26.6165 29.8507 26.6574C29.9883 26.6939 30.135 26.6751 30.2587 26.6049C30.3825 26.5348 30.4734 26.419 30.5119 26.2827C30.9713 23.5041 32.2819 20.9337 34.265 18.922C36.2481 16.9103 38.8072 15.5551 41.5936 15.041C42.2677 14.9146 42.9508 14.8423 43.6365 14.8249C44.3774 14.8033 45.1189 14.8392 45.8542 14.9323C47.2733 15.1219 48.6549 15.5259 49.9512 16.1302C52.5005 17.3326 54.6175 19.2829 56.0163 21.7181C57.4152 24.1534 58.0287 26.9563 57.7741 29.7488C57.5195 32.5413 56.409 35.189 54.5925 37.3348C52.7759 39.4807 50.3408 41.0213 47.6154 41.7489C46.2415 42.1193 44.8167 42.269 43.3952 42.1923C41.4589 42.0907 39.566 41.5845 37.8399 40.7069C36.1138 39.8292 34.5934 38.5998 33.3778 37.0989C32.1622 35.598 31.2788 33.8592 30.7852 31.9962C30.2916 30.1331 30.1989 28.1875 30.5132 26.2865C30.5467 26.1497 30.5263 26.0053 30.4561 25.8829C30.386 25.7606 30.2716 25.6694 30.1361 25.6282C29.9984 25.5917 29.8518 25.6106 29.7281 25.6808C29.6043 25.7509 29.5133 25.8666 29.4748 26.0029" fill="#161616"/>
<path d="M48.7393 32.6542C48.6424 33.232 48.7199 33.8254 48.9623 34.3594C49.2047 34.8933 49.6009 35.3439 50.1009 35.6543C50.6009 35.9646 51.1823 36.1207 51.7716 36.1028C52.3609 36.085 52.9316 35.894 53.4116 35.5539C53.8917 35.2139 54.2595 34.7401 54.4687 34.1925C54.6778 33.6448 54.7189 33.0479 54.5867 32.477C54.4545 31.9062 54.1549 31.3871 53.7259 30.9853C53.2969 30.5835 52.7576 30.3172 52.1763 30.2198C51.3958 30.0911 50.5958 30.275 49.9515 30.7313C49.3073 31.1877 48.8714 31.8791 48.7393 32.6542Z" fill="#FFB9A1"/>
<path d="M32.0508 29.8451C31.9539 30.4229 32.0315 31.0163 32.2739 31.5503C32.5162 32.0843 32.9125 32.5349 33.4125 32.8452C33.9125 33.1555 34.4939 33.3116 35.0831 33.2938C35.6724 33.2759 36.2431 33.0849 36.7232 32.7449C37.2032 32.4048 37.571 31.9311 37.7802 31.3834C37.9893 30.8357 38.0304 30.2388 37.8982 29.668C37.766 29.0971 37.4665 28.578 37.0374 28.1762C36.6084 27.7744 36.0692 27.5081 35.4879 27.4107C34.7074 27.282 33.9073 27.4659 33.263 27.9223C32.6188 28.3786 32.1829 29.07 32.0508 29.8451Z" fill="#FFB9A1"/>
<path d="M47.7023 28.7595C47.6658 28.9766 47.695 29.1995 47.786 29.4001C47.877 29.6007 48.0258 29.7699 48.2136 29.8865C48.4014 30.0031 48.6198 30.0617 48.8412 30.055C49.0625 30.0483 49.2769 29.9766 49.4572 29.8489C49.6376 29.7212 49.7757 29.5433 49.8543 29.3376C49.9329 29.1318 49.9484 28.9076 49.8987 28.6931C49.8491 28.4787 49.7366 28.2837 49.5754 28.1328C49.4143 27.9818 49.2117 27.8818 48.9933 27.8452C48.7002 27.7968 48.3996 27.8658 48.1576 28.0372C47.9156 28.2086 47.7518 28.4684 47.7023 28.7595" fill="#161616"/>
<path d="M38.0814 27.0295C38.045 27.2466 38.0741 27.4695 38.1651 27.6701C38.2562 27.8706 38.4049 28.0399 38.5928 28.1565C38.7806 28.2731 38.999 28.3317 39.2203 28.3251C39.4417 28.3184 39.6561 28.2467 39.8364 28.1189C40.0167 27.9912 40.1549 27.8133 40.2335 27.6075C40.3121 27.4018 40.3275 27.1776 40.2779 26.9631C40.2283 26.7487 40.1157 26.5537 39.9546 26.4028C39.7934 26.2519 39.5909 26.1518 39.3725 26.1152C39.0793 26.0668 38.7788 26.1358 38.5367 26.3072C38.2947 26.4786 38.131 26.7384 38.0814 27.0295" fill="#161616"/>
<path d="M44.3922 27.4966C44.2529 27.3703 44.0765 27.2917 43.8888 27.2726C43.7012 27.2535 43.5123 27.2948 43.3501 27.3904C43.0854 27.5706 42.8904 27.8349 42.797 28.1398C42.6151 28.6262 42.6045 29.1594 42.7668 29.6525C42.7849 29.721 42.8165 29.7852 42.8597 29.8415C42.903 29.8977 42.957 29.9449 43.0188 29.9802C43.0805 30.0155 43.1487 30.0383 43.2194 30.0472C43.2901 30.0562 43.3619 30.0511 43.4306 30.0322C43.4993 30.0134 43.5635 29.9811 43.6195 29.9374C43.6755 29.8937 43.7223 29.8393 43.757 29.7775C43.7917 29.7157 43.8138 29.6476 43.8218 29.5773C43.8299 29.507 43.8238 29.4357 43.8039 29.3677C43.7678 29.2596 43.7418 29.1484 43.726 29.0355L43.7448 29.1778C43.7242 29.0173 43.7242 28.855 43.7448 28.6945L43.726 28.8369C43.7479 28.6769 43.7901 28.5203 43.8517 28.3709L43.7977 28.4959C43.831 28.4137 43.8731 28.3354 43.9234 28.2623L43.8391 28.3709C43.8712 28.3298 43.9079 28.2926 43.9485 28.2598L43.8391 28.3435C43.8658 28.3236 43.8944 28.3064 43.9246 28.2922L43.7989 28.346C43.8282 28.3345 43.8585 28.3257 43.8894 28.3198L43.7473 28.3384C43.7783 28.3356 43.8095 28.3356 43.8404 28.3384L43.6971 28.3198C43.7276 28.3236 43.7576 28.3312 43.7863 28.3422L43.6606 28.2885C43.6815 28.298 43.7013 28.3098 43.7197 28.3235L43.6103 28.2398L43.6279 28.2548C43.7297 28.3519 43.8641 28.4079 44.0051 28.4122C44.1113 28.4113 44.2148 28.3792 44.3028 28.3201C44.3907 28.2609 44.4592 28.1772 44.4994 28.0795C44.5397 27.9819 44.5501 27.8746 44.5292 27.7711C44.5084 27.6676 44.4572 27.5725 44.3822 27.4978" fill="#161616"/>
<path d="M40.2725 34.9028C40.0264 34.3582 39.897 33.7687 39.8925 33.1718C39.8879 32.5749 40.0083 31.9836 40.2461 31.4353C40.6522 30.8695 41.8805 31.1955 42.4273 31.263C43.4773 31.3939 44.5048 31.6644 45.4822 32.0674C45.7957 32.1652 46.0693 32.3605 46.2628 32.6244C46.3672 32.8552 46.4151 33.1073 46.4027 33.36C46.3902 33.6127 46.3177 33.8588 46.1911 34.0784C45.5513 35.4286 44.6424 36.7314 43.125 36.7539C42.5149 36.7775 41.9125 36.6118 41.4014 36.2799C40.8902 35.948 40.4957 35.4662 40.2725 34.9015" fill="white"/>
<path d="M40.7917 34.7588C40.6056 34.2989 40.4879 33.8146 40.4422 33.3211C40.4119 33.0254 40.4119 32.7275 40.4422 32.4318C40.4497 32.3681 40.4422 32.4155 40.4422 32.4318C40.4422 32.403 40.451 32.3743 40.4573 32.3455C40.4699 32.2806 40.4837 32.2207 40.5013 32.152C40.5189 32.0833 40.5377 32.0271 40.5591 31.9696C40.5805 31.9122 40.5591 31.9634 40.5591 31.9696C40.5755 31.9296 40.5956 31.8909 40.617 31.8534C40.6383 31.816 40.7112 31.691 40.6546 31.776C40.6785 31.7422 40.7539 31.691 40.6785 31.741C40.7036 31.7235 40.7301 31.711 40.7565 31.6948C40.7502 31.6948 40.6748 31.7235 40.7351 31.7022C40.7967 31.6812 40.8597 31.6645 40.9237 31.6523C40.9853 31.6398 40.9237 31.6523 40.9073 31.6523C40.9425 31.6523 40.9778 31.646 41.013 31.6435C41.067 31.6435 41.1223 31.6435 41.1763 31.6435C41.3159 31.6435 41.4555 31.6573 41.5937 31.6723L41.6767 31.6823C41.5912 31.671 41.6767 31.6823 41.6956 31.6823L41.8753 31.711L42.1922 31.7622C42.5542 31.816 42.9138 31.8647 43.272 31.9409C44.001 32.0836 44.7118 32.306 45.3916 32.6041C45.6342 32.7178 45.8165 32.8152 45.8667 33.07C45.8886 33.3232 45.8408 33.5775 45.7285 33.8057C45.5007 34.3362 45.2012 34.8333 44.8384 35.2834C44.7459 35.3929 44.6477 35.4976 44.5442 35.5969C44.4552 35.6843 44.3594 35.7644 44.2576 35.8367C44.0534 35.9852 43.8226 36.0937 43.5775 36.1565C43.2891 36.2235 42.9907 36.2367 42.6975 36.1953C42.4375 36.1506 42.1841 36.0738 41.9432 35.9666C41.3927 35.6808 40.9662 35.2051 40.7439 34.6289C40.6717 34.5068 40.5539 34.4181 40.4161 34.382C40.2783 34.346 40.1318 34.3656 40.0085 34.4365C39.8882 34.5109 39.8012 34.6282 39.7654 34.7644C39.7296 34.9006 39.7478 35.0452 39.8161 35.1685C40.1042 35.8354 40.5939 36.3967 41.2174 36.7747C41.8409 37.1528 42.5673 37.3287 43.2959 37.2782C44.018 37.1549 44.6953 36.8465 45.2606 36.3833C45.8259 35.9202 46.2597 35.3185 46.5192 34.6376C46.7621 34.2945 46.9054 33.8916 46.9334 33.473C46.9613 33.0545 46.8728 32.6363 46.6776 32.2644C46.4061 31.9294 46.0435 31.6788 45.633 31.5424C44.7969 31.1977 43.9237 30.9496 43.0307 30.8029C42.9351 30.7871 42.8391 30.7726 42.7428 30.7593L42.5177 30.7292H42.5039L42.0916 30.663C41.4521 30.4825 40.7692 30.5307 40.1619 30.7992C39.8691 31.0562 39.6428 31.3794 39.5023 31.7417C39.3618 32.1039 39.3112 32.4944 39.3548 32.8802C39.3496 33.6186 39.4878 34.351 39.762 35.0374C39.8036 35.1717 39.8951 35.2853 40.018 35.3549C40.1409 35.4245 40.2858 35.445 40.4233 35.4121C40.5606 35.3735 40.6771 35.2829 40.7477 35.1597C40.8183 35.0365 40.8372 34.8908 40.8005 34.7538" fill="#161616"/>
<path d="M35.5493 23.8185C37.6369 23.3668 39.6066 22.487 41.3322 21.2354C41.6204 22.0133 42.1167 22.6983 42.7678 23.2167C43.4189 23.735 44.2 24.067 45.0269 24.1769C46.6934 24.3678 48.3739 23.9631 49.7676 23.0353C49.8018 23.6759 49.9943 24.2983 50.328 24.8475C50.6617 25.3967 51.1264 25.8558 51.681 26.1843C52.242 26.4812 52.8632 26.6485 53.4983 26.6739C54.1335 26.6992 54.7662 26.5817 55.3493 26.3304C55.7893 27.9642 56.5423 30.1226 58.506 30.3199C60.7223 30.5423 60.9549 27.587 61.0832 25.9282C61.2439 23.7601 60.8787 21.5854 60.0183 19.5866C58.9582 17.8863 57.7483 16.2828 56.4028 14.7951C56.6726 14.2129 56.7218 13.5534 56.5414 12.938C56.3609 12.3226 55.9629 11.7926 55.4205 11.4455C54.8781 11.0984 54.228 10.9576 53.5894 11.0488C52.9509 11.1401 52.3669 11.4573 51.9449 11.9422C51.2727 10.9528 50.2923 10.2099 49.1541 9.82749C47.9888 9.57768 46.538 10.4658 46.719 11.6386C41.6452 10.0148 35.3092 11.3289 32.0305 15.7406C31.5127 16.5563 30.9371 17.3344 30.3083 18.0689C29.8995 18.4253 29.5096 18.8026 29.1404 19.1994C28.1258 20.4597 28.1347 23.2239 29.6671 24.1357C31.1996 25.0476 33.9867 24.152 35.5455 23.8172" fill="#896959"/>
<path d="M35.6928 24.3341C37.8259 23.8687 39.8394 22.9711 41.6076 21.6973L40.8181 21.3775C41.0301 21.9952 41.365 22.5641 41.8031 23.0504C42.2411 23.5367 42.7732 23.9303 43.3676 24.208C44.7037 24.8194 46.2151 24.939 47.6318 24.5452C48.484 24.3183 49.2969 23.965 50.043 23.4972L49.2334 23.0351C49.2696 23.7229 49.4644 24.3933 49.8027 24.9945C50.141 25.5957 50.6138 26.1116 51.1845 26.5025C51.824 26.8958 52.5485 27.132 53.2981 27.1917C54.0477 27.2515 54.8008 27.133 55.4952 26.846L54.8339 26.4713C55.3142 28.2438 56.1578 30.5021 58.2471 30.8206C58.6949 30.9077 59.1584 30.8645 59.5821 30.6964C60.0057 30.5282 60.3716 30.2422 60.6357 29.8726C61.0854 29.1799 61.3644 28.3916 61.4503 27.5717C61.8446 25.2351 61.681 22.8391 60.9726 20.5769C60.8383 20.1059 60.659 19.6487 60.4371 19.2116C60.3365 19.033 60.2195 18.8631 60.1051 18.6945C59.7217 18.1249 59.3194 17.5703 58.9134 17.012C58.4256 16.3462 57.9316 15.6842 57.4049 15.0434C57.2579 14.8528 57.0991 14.6713 56.9296 14.5001C56.6467 14.229 56.1854 14.1079 55.9402 14.52L56.8681 15.0609C57.1069 14.5233 57.1978 13.9323 57.1315 13.3484C57.0653 12.7644 56.8441 12.2084 56.4909 11.7371C56.1998 11.3716 55.8324 11.0733 55.414 10.8628C54.9956 10.6522 54.5362 10.5344 54.0675 10.5175C53.5988 10.5006 53.132 10.5851 52.6993 10.7651C52.2667 10.945 51.8785 11.2161 51.5616 11.5597H52.3159C51.412 10.488 50.2467 9.23518 48.7205 9.24518C47.4633 9.25267 45.9875 10.2444 46.1735 11.6347L46.8537 11.1175C44.7002 10.4498 42.4238 10.2684 40.1908 10.5867C37.9908 10.8717 35.8953 11.6911 34.0899 12.9725C33.1596 13.6466 32.3337 14.4525 31.6384 15.3645C31.2324 15.8978 30.8842 16.4736 30.4919 17.0157C30.0689 17.5317 29.6021 18.0106 29.0965 18.4472C28.3847 19.1851 27.9567 20.1484 27.8878 21.1683C27.8188 22.1882 28.1133 23.1997 28.7194 24.0256C29.0903 24.4052 29.5436 24.6956 30.0447 24.8746C30.5458 25.0536 31.0815 25.1166 31.6108 25.0586C32.7592 24.984 33.8967 24.7915 35.0051 24.484C35.2289 24.4303 35.4526 24.3778 35.6764 24.3279C35.8103 24.2869 35.923 24.1957 35.9904 24.0736C36.0578 23.9516 36.0747 23.8082 36.0377 23.6739C36.0006 23.5396 35.9124 23.425 35.7917 23.3542C35.671 23.2835 35.5272 23.2622 35.391 23.2949C34.4293 23.5035 33.4236 23.7858 32.4845 23.9194C31.9578 23.9981 31.4236 24.0148 30.8929 23.9694C30.486 23.9362 30.0954 23.7956 29.7615 23.5622C29.8508 23.6284 29.7238 23.5272 29.7175 23.521C29.681 23.4885 29.6446 23.4535 29.6107 23.4186C29.5767 23.3836 29.544 23.3461 29.5113 23.3099C29.4057 23.185 29.5667 23.3923 29.4736 23.2624C29.4156 23.182 29.3619 23.0986 29.3127 23.0126C29.2889 22.9689 29.2649 22.9239 29.2423 22.8777C29.2197 22.8315 29.2134 22.8165 29.1996 22.7852C29.2197 22.8352 29.2184 22.8302 29.1996 22.7703C29.1308 22.5904 29.0767 22.4054 29.0374 22.2169C28.9933 22.018 28.9709 21.8148 28.9708 21.6111C28.9655 21.3946 28.9757 21.178 29.001 20.9628C28.9884 21.0715 29.011 20.8991 29.0123 20.8929C29.0211 20.8404 29.0311 20.7892 29.0412 20.7368C29.0655 20.6169 29.0952 20.4986 29.1304 20.382C29.1738 20.2162 29.2375 20.0564 29.3203 19.9061C29.364 19.8204 29.4123 19.737 29.4648 19.6563C29.49 19.6176 29.5176 19.5801 29.5453 19.5426C29.4711 19.6438 29.6496 19.4177 29.671 19.4028C30.111 18.9244 30.639 18.5446 31.0539 18.04C31.4688 17.5354 31.8408 16.9495 32.2217 16.3937C32.8092 15.5446 33.5177 14.7847 34.325 14.1378C35.9219 12.9016 37.8011 12.0757 39.796 11.7334C42.0565 11.3198 44.3847 11.4643 46.5758 12.1543C46.6556 12.1755 46.7393 12.1782 46.8204 12.1623C46.9014 12.1463 46.9777 12.1121 47.0434 12.0623C47.1091 12.0125 47.1623 11.9484 47.1992 11.8749C47.236 11.8014 47.2555 11.7205 47.2559 11.6384C47.2468 11.5747 47.2418 11.5104 47.2408 11.4461C47.2408 11.4223 47.2609 11.25 47.2408 11.3499C47.2509 11.2974 47.2648 11.2487 47.2786 11.1975C47.31 11.0851 47.2559 11.2287 47.3024 11.1313C47.3858 10.9407 47.5223 10.7777 47.6959 10.6616C47.6431 10.7016 47.8002 10.5954 47.8216 10.5842C47.8706 10.5542 47.9209 10.5268 47.9712 10.5018C47.9712 10.5018 48.1208 10.4343 48.0529 10.4618C48.107 10.4405 48.1611 10.4218 48.2164 10.4043C48.4347 10.3258 48.6685 10.2993 48.899 10.3269C48.9376 10.3269 48.9376 10.3269 48.899 10.3269C48.9368 10.3269 48.9732 10.3394 49.0109 10.3481C49.0788 10.3619 49.1467 10.3794 49.2133 10.3993C49.3341 10.4337 49.4518 10.478 49.5653 10.5317C49.8154 10.6523 50.0504 10.8016 50.2655 10.9764C50.7395 11.3856 51.1746 11.8371 51.5654 12.3254C51.6662 12.4234 51.8015 12.4782 51.9425 12.4782C52.0835 12.4782 52.2189 12.4234 52.3197 12.3254C52.6655 11.9386 53.1375 11.6852 53.6526 11.6096C54.1678 11.534 54.6933 11.6411 55.137 11.912C55.5395 12.19 55.8351 12.5956 55.9755 13.0624C56.0577 13.3034 56.0935 13.5576 56.081 13.8118C56.0745 14.058 56.0243 14.3012 55.9327 14.5301C55.8653 14.6535 55.8476 14.7979 55.8833 14.9338C55.919 15.0697 56.0055 15.1871 56.1251 15.262C56.2487 15.3317 56.3948 15.3505 56.5322 15.3146C56.6696 15.2787 56.7874 15.1907 56.8605 15.0696C56.8303 15.1308 56.7874 15.1849 56.7346 15.2283C56.6818 15.2718 56.6204 15.3035 56.5543 15.3216C56.4882 15.3397 56.4191 15.3436 56.3514 15.3331C56.2836 15.3226 56.2189 15.298 56.1615 15.2608L56.1829 15.2745C56.2105 15.2907 56.0572 15.1571 56.1288 15.2358C56.1791 15.2907 56.2345 15.3407 56.2848 15.3957C56.4381 15.5643 56.5827 15.7417 56.7247 15.9191C56.8085 16.0281 56.8952 16.1376 56.9849 16.2476L57.0013 16.2688L57.078 16.3687L57.2351 16.5736C57.4463 16.8517 57.6559 17.1315 57.8637 17.4129C58.2534 17.9426 58.6381 18.4772 59.0114 19.0193C59.2649 19.3571 59.4787 19.7225 59.6488 20.1084C60.0984 21.235 60.3894 22.4178 60.5137 23.6234C60.6019 24.6376 60.5897 25.658 60.4773 26.6699C60.4681 26.764 60.458 26.8581 60.4471 26.9522C60.4471 26.9797 60.4145 27.2108 60.4296 27.0983C60.4032 27.2944 60.3717 27.4893 60.3327 27.6829C60.2624 28.0491 60.1602 28.4085 60.0273 28.7571C59.9719 28.9008 60.075 28.6634 60.0084 28.8008C59.9883 28.8421 59.9694 28.8833 59.9493 28.9258C59.9154 28.992 59.8802 29.0581 59.8412 29.1218C59.8022 29.1855 59.7481 29.2692 59.6953 29.3392C59.7079 29.3217 59.7657 29.263 59.6953 29.3305C59.6564 29.3717 59.6211 29.4154 59.5809 29.4553C59.5407 29.4953 59.5206 29.5128 59.4905 29.5415C59.4905 29.5415 59.3811 29.6277 59.4489 29.5778C59.5168 29.5278 59.405 29.6052 59.4024 29.6077C59.3672 29.629 59.332 29.6515 59.2956 29.6714C59.2591 29.6914 59.2214 29.7102 59.1837 29.7277C59.2918 29.6777 59.2038 29.7189 59.1736 29.7277C59.082 29.7557 58.9888 29.7786 58.8946 29.7964C59.0203 29.7739 58.8719 29.7964 58.8505 29.7964C58.8015 29.7964 58.7525 29.7964 58.7034 29.7964C58.6036 29.7954 58.504 29.7866 58.4055 29.7701C58.2047 29.7335 58.0101 29.6691 57.8273 29.579C57.6511 29.4934 57.4898 29.3804 57.3495 29.2443C57.1975 29.102 57.059 28.946 56.9359 28.7784C56.4221 27.9867 56.0576 27.1089 55.8598 26.1877C55.8213 26.0514 55.7303 25.9357 55.6065 25.8656C55.4828 25.7954 55.3362 25.7766 55.1986 25.813C54.6526 26.053 54.0569 26.1602 53.4609 26.1256C52.8649 26.0911 52.2858 25.9158 51.7716 25.6144C51.3446 25.3239 50.9899 24.9405 50.7343 24.4933C50.4788 24.0462 50.3293 23.547 50.297 23.0338C50.2955 22.9404 50.2696 22.849 50.2219 22.7686C50.1742 22.6881 50.1063 22.6214 50.0248 22.5748C49.9434 22.5282 49.8511 22.5034 49.7571 22.5029C49.6631 22.5023 49.5706 22.526 49.4886 22.5717C48.3897 23.2908 47.107 23.6834 45.7913 23.7033C44.6757 23.7016 43.6016 23.2834 42.7818 22.5317C42.3532 22.1373 42.0307 21.6427 41.8439 21.0928C41.8213 21.0143 41.7812 20.9419 41.7263 20.8812C41.6715 20.8204 41.6035 20.7729 41.5274 20.7421C41.4514 20.7113 41.3693 20.6981 41.2874 20.7034C41.2054 20.7088 41.1257 20.7325 41.0544 20.773C39.3651 21.9959 37.4388 22.8572 35.3973 23.3024C35.2633 23.3434 35.1507 23.4346 35.0833 23.5566C35.0158 23.6787 34.9989 23.8221 35.036 23.9563C35.0731 24.0906 35.1613 24.2052 35.282 24.276C35.4027 24.3468 35.5465 24.368 35.6827 24.3354" fill="#161616"/>
<path d="M15.3433 28.4522C15.1524 28.2976 14.9293 28.1871 14.6901 28.1286C14.451 28.07 14.2018 28.065 13.9604 28.1137C13.5012 28.2031 13.0952 28.467 12.829 28.8494C12.5677 29.2841 12.4569 29.7919 12.5134 30.2951C12.5699 30.7983 12.7907 31.2693 13.142 31.6361C13.5017 32.0316 13.9465 32.3415 14.4432 32.5429C14.5672 32.6107 14.7127 32.6285 14.8495 32.5927C14.9864 32.5569 15.1042 32.4702 15.1786 32.3506C15.2493 32.2276 15.2687 32.0821 15.2328 31.9451C15.1968 31.808 15.1084 31.6904 14.9863 31.6174C14.7645 31.5244 14.552 31.4111 14.3514 31.2789C14.3087 31.2502 14.2672 31.2202 14.2257 31.1902C14.3036 31.2489 14.1779 31.149 14.1742 31.1465C14.0847 31.069 14.0007 30.9855 13.9227 30.8966C13.9227 30.8966 13.8196 30.7717 13.8787 30.8479C13.8435 30.8004 13.8096 30.7505 13.7794 30.7005C13.7492 30.6506 13.7216 30.5994 13.6926 30.5469C13.6197 30.4133 13.7178 30.6356 13.6663 30.492C13.6285 30.3812 13.5979 30.2681 13.5745 30.1535C13.5984 30.2609 13.5745 30.1135 13.5745 30.0973C13.5745 30.0398 13.5745 29.9811 13.5745 29.9236C13.5745 29.8974 13.6009 29.7313 13.5745 29.8449C13.5833 29.7962 13.5933 29.7488 13.6072 29.7013C13.621 29.6538 13.6361 29.6076 13.6537 29.5614C13.6135 29.6638 13.6964 29.489 13.709 29.4702C13.7216 29.4515 13.8171 29.3353 13.7316 29.4303C13.7593 29.399 13.7869 29.3677 13.8184 29.339C13.8498 29.3103 13.8599 29.3016 13.8812 29.2841C13.8276 29.3241 13.8251 29.3269 13.8737 29.2928C13.9101 29.2728 13.9453 29.2478 13.9818 29.2279C14.0183 29.2079 14.0937 29.1829 14.0069 29.2116C14.0597 29.1922 14.1134 29.1755 14.1679 29.1617C14.2006 29.1542 14.3262 29.1417 14.1905 29.1517C14.232 29.1517 14.2734 29.1454 14.3162 29.1454C14.335 29.1454 14.4897 29.1642 14.4092 29.1454C14.3288 29.1267 14.4834 29.1667 14.4972 29.1704C14.6154 29.1967 14.4142 29.118 14.5211 29.1767C14.545 29.1904 14.6921 29.2878 14.5865 29.2054C14.69 29.2909 14.822 29.3348 14.9565 29.3283C15.091 29.3219 15.2182 29.2655 15.3129 29.1704C15.4076 29.0754 15.463 28.9485 15.4682 28.8149C15.4733 28.6812 15.4279 28.5505 15.3408 28.4485" fill="#161616"/>
<path d="M13.7922 32.0461C13.8006 32.0955 13.7963 32.1462 13.7796 32.1935C13.7518 32.2387 13.7189 32.2806 13.6815 32.3184C13.6267 32.3532 13.5635 32.3727 13.4985 32.3749C13.4335 32.3771 13.369 32.3619 13.3119 32.3309C13.2164 32.2705 13.1245 32.2046 13.0366 32.1335C12.8561 32.0124 12.6348 31.967 12.4208 32.0073C12.2067 32.0475 12.0174 32.1701 11.8939 32.3484C11.8461 32.4058 11.8021 32.4658 11.7581 32.5258C11.7506 32.5358 11.6777 32.6282 11.7242 32.5745C11.6794 32.6376 11.6169 32.6863 11.5444 32.7144C11.3928 32.7667 11.2335 32.7933 11.073 32.7931C10.5136 32.8143 9.95162 32.7931 9.39219 32.7931C9.25382 32.7997 9.12332 32.859 9.02776 32.9586C8.9322 33.0583 8.87891 33.1907 8.87891 33.3283C8.87891 33.466 8.9322 33.5983 9.02776 33.6979C9.12332 33.7976 9.25382 33.8569 9.39219 33.8635C10.0019 33.8635 10.6267 33.911 11.2352 33.8635C11.5278 33.8586 11.8147 33.7822 12.0706 33.6411C12.3264 33.4999 12.5434 33.2983 12.7022 33.0541L12.6884 33.0741C12.7362 33.0292 12.7387 33.0216 12.6959 33.0504C12.6557 33.0416 12.3741 33.2477 12.4671 33.0504C12.4508 33.0853 12.784 33.2752 12.8292 33.3002C13.1292 33.4453 13.4686 33.4891 13.7959 33.4251C14.1073 33.3575 14.3849 33.1837 14.5806 32.9338C14.7763 32.6839 14.8776 32.3738 14.867 32.0574C14.8645 31.9163 14.807 31.7816 14.7067 31.6817C14.6064 31.5818 14.471 31.5244 14.329 31.5215C14.1867 31.5231 14.0507 31.5802 13.9503 31.6804C13.8499 31.7807 13.7932 31.916 13.7922 32.0574" fill="#161616"/>
<path d="M71.8095 60.4952C72.5313 61.3434 73 62.3752 73.1629 63.4742C73.3257 64.5731 73.1761 65.6954 72.7309 66.7144" stroke="black" stroke-linecap="round"/>
<path d="M76.4933 59.3531C77.2362 60.774 77.6039 62.3591 77.5617 63.9597C77.5195 65.5604 77.0689 67.1242 76.2522 68.5045" stroke="black" stroke-width="1.00024" stroke-linecap="round"/>
<path d="M11.4727 5.24805H6.02051C4.56182 5.24805 3.1629 5.82379 2.13145 6.84863C1.1 7.87346 0.520508 9.26345 0.520508 10.7128C0.520508 12.1621 1.1 13.5521 2.13145 14.5769C3.1629 15.6018 4.56182 16.1775 6.02051 16.1775H9.19605L12.6105 19.1841C12.7542 19.3103 12.9377 19.3828 13.1295 19.3889C13.3212 19.395 13.5091 19.3344 13.6607 19.2176C13.8122 19.1007 13.918 18.935 13.9597 18.7489C14.0014 18.5629 13.9763 18.3682 13.8889 18.1985L12.7575 16.0201C14.0644 15.7055 15.2099 14.9258 15.9773 13.8286C16.7447 12.7315 17.0807 11.3929 16.9218 10.0662C16.763 8.73943 16.1202 7.51658 15.1152 6.62895C14.1101 5.74131 12.8124 5.25047 11.4677 5.24929" fill="#EFBDBB"/>
<path d="M13.1547 19.9112C12.8259 19.91 12.5091 19.7886 12.2646 19.5702L8.99609 16.6973H6.01789C4.42134 16.6973 2.89016 16.0672 1.76122 14.9455C0.632287 13.8238 -0.00195312 12.3024 -0.00195312 10.7161C-0.00195312 9.12978 0.632287 7.60844 1.76122 6.48674C2.89016 5.36504 4.42134 4.73486 6.01789 4.73486H11.4726C12.8892 4.73502 14.2604 5.2317 15.3446 6.13745C16.4289 7.04321 17.1569 8.29998 17.4004 9.68654C17.6439 11.0731 17.3872 12.5005 16.6757 13.7176C15.9641 14.9347 14.8433 15.8633 13.5105 16.3401L14.3502 17.9639C14.4547 18.1678 14.5049 18.3949 14.4961 18.6236C14.4873 18.8522 14.4197 19.0748 14.2999 19.2702C14.1801 19.4656 14.012 19.6273 13.8116 19.7399C13.6111 19.8526 13.385 19.9124 13.1547 19.9137M6.02043 5.76785C4.69977 5.76785 3.43321 6.28912 2.49937 7.21698C1.56552 8.14484 1.04088 9.4033 1.04088 10.7155C1.04088 12.0277 1.56552 13.2861 2.49937 14.214C3.43321 15.1418 4.69977 15.6631 6.02043 15.6631H9.19597C9.32226 15.6617 9.4447 15.7061 9.54041 15.788L12.9548 18.7945C13.0077 18.8412 13.0754 18.868 13.1461 18.8702C13.2168 18.8725 13.2861 18.8501 13.3419 18.807C13.3978 18.7638 13.4366 18.7026 13.4518 18.6339C13.467 18.5653 13.4575 18.4935 13.425 18.4311L12.2936 16.2527C12.2577 16.1831 12.2382 16.1063 12.2365 16.0282C12.2348 15.95 12.2509 15.8725 12.2837 15.8015C12.3165 15.7304 12.3651 15.6677 12.4258 15.618C12.4865 15.5683 12.5578 15.5329 12.6342 15.5145C13.819 15.231 14.858 14.5255 15.5542 13.5317C16.2504 12.5379 16.5553 11.3248 16.4113 10.1225C16.2674 8.92013 15.6844 7.81205 14.773 7.00828C13.8616 6.20451 12.685 5.76093 11.4663 5.76162L6.02043 5.76785Z" fill="#161616"/>
<path d="M69.3654 0.635307H79.6941C81.7339 0.635307 83.6902 1.44043 85.1326 2.87356C86.575 4.30669 87.3853 6.25044 87.3853 8.2772C87.3853 10.304 86.575 12.2477 85.1326 13.6808C83.6902 15.114 81.7339 15.9191 79.6941 15.9191H73.1356L70.3497 20.387C70.2131 20.6001 70.0064 20.7595 69.7648 20.8382C69.5232 20.9169 69.2617 20.9101 69.0246 20.8188C68.7875 20.7275 68.5896 20.5575 68.4645 20.3376C68.3394 20.1177 68.2948 19.8615 68.3383 19.6126L69.031 15.9028C67.0184 15.8223 65.1181 14.96 63.7389 13.5015C62.3597 12.043 61.6118 10.1049 61.6562 8.10412C61.7005 6.10333 62.5335 4.19976 63.9759 2.80298C65.4184 1.4062 67.355 0.62783 69.3691 0.635307" fill="#A1BCE2"/>
<path d="M69.4282 21.5176C69.7187 21.5172 70.0041 21.4425 70.2571 21.3008C70.5101 21.159 70.7221 20.9549 70.8727 20.7082L73.4775 16.5288H79.6941C81.8968 16.5288 84.0093 15.6593 85.5668 14.1118C87.1244 12.5642 87.9994 10.4653 87.9994 8.27669C87.9994 6.08811 87.1244 3.98915 85.5668 2.44158C84.0093 0.894021 81.8968 0.0246105 79.6941 0.0246105H69.3654C67.2473 0.0100897 65.2039 0.800961 63.6538 2.23517C62.1037 3.66938 61.1643 5.63832 61.0282 7.73851C60.892 9.83869 61.5694 11.9111 62.9215 13.531C64.2737 15.1509 66.1981 16.1958 68.3005 16.4513L67.7324 19.5003C67.6553 19.891 67.7201 20.2961 67.9153 20.6437C68.1105 20.9913 68.4234 21.2589 68.7984 21.3989C68.999 21.4759 69.212 21.5157 69.427 21.5163M79.6928 1.24371C81.5699 1.24371 83.3702 1.98462 84.6975 3.30344C86.0248 4.62226 86.7705 6.41097 86.7705 8.27606C86.7705 10.1412 86.0248 11.9298 84.6975 13.2487C83.3702 14.5675 81.5699 15.3084 79.6928 15.3084H73.1305C73.026 15.3084 72.9233 15.3349 72.832 15.3854C72.7407 15.4358 72.6638 15.5087 72.6088 15.5969L69.8242 20.0649C69.7643 20.1602 69.6728 20.2318 69.5655 20.2673C69.4582 20.3029 69.3418 20.3001 69.2363 20.2596C69.1308 20.2191 69.0428 20.1434 68.9874 20.0454C68.9321 19.9474 68.9128 19.8332 68.9329 19.7226L69.6256 16.0129C69.6417 15.9271 69.6391 15.8389 69.6179 15.7543C69.5968 15.6696 69.5576 15.5905 69.503 15.5221C69.4485 15.4538 69.3797 15.3979 69.3016 15.3583C69.2234 15.3186 69.1375 15.296 69.0498 15.2922C67.2002 15.2147 65.455 14.4198 64.1887 13.0782C62.9223 11.7365 62.2358 9.95503 62.2766 8.11613C62.3174 6.27724 63.0822 4.52753 64.4069 3.24264C65.7315 1.95774 67.5104 1.24008 69.3616 1.24371H79.6928Z" fill="#161616"/>
</g>
<defs>
<clipPath id="clip0_150_2271">
<rect width="88" height="69.9487" fill="white" transform="translate(0 0.0258789)"/>
</clipPath>
</defs>
</svg>
