<svg xmlns="http://www.w3.org/2000/svg" width="500" height="320" viewBox="0 0 500 320">
  <g id="noimage_t3_1" transform="translate(-31 -129)">
    <rect id="img_" width="500" height="320" transform="translate(31 129)" fill="#f5f5f5"/>
    <g id="그룹_1173" data-name="그룹 1173" transform="translate(64.396 -321.074)">
      <path id="패스_1308" data-name="패스 1308" d="M261.25,624.937c0,23.207-19.261,42.02-43.02,42.02s-43.021-18.813-43.021-42.02,19.261-42.02,43.021-42.02,43.02,18.813,43.02,42.02" transform="translate(-17.515 -28.503)" fill="#fff"/>
      <path id="패스_1309" data-name="패스 1309" d="M216.722,666.781h-.01q-.434-.008-.865-.025a.527.527,0,0,1-.514-.542.52.52,0,0,1,.555-.5q.421.016.845.024a.522.522,0,1,1-.01,1.045Zm3.419-.067a.522.522,0,0,1-.031-1.044q.422-.024.842-.056a.523.523,0,1,1,.085,1.041c-.287.023-.576.041-.864.058Zm-7.682-.217a.561.561,0,0,1-.063,0q-.43-.05-.858-.107a.524.524,0,0,1-.457-.589.532.532,0,0,1,.6-.446q.418.056.838.1a.525.525,0,0,1,.468.58A.531.531,0,0,1,212.459,666.5Zm11.93-.236a.531.531,0,0,1-.527-.44.524.524,0,0,1,.444-.6q.418-.065.832-.138a.534.534,0,0,1,.621.422.524.524,0,0,1-.431.607q-.425.075-.854.142A.536.536,0,0,1,224.389,666.261Zm-16.144-.459a.582.582,0,0,1-.115-.012q-.423-.092-.844-.191a.522.522,0,0,1-.394-.63.533.533,0,0,1,.645-.385q.41.1.823.185a.523.523,0,0,1,.407.622A.533.533,0,0,1,208.245,665.8Zm20.326-.4a.533.533,0,0,1-.516-.389.521.521,0,0,1,.38-.639q.409-.106.815-.219a.537.537,0,0,1,.661.359.521.521,0,0,1-.368.646q-.415.115-.834.224A.552.552,0,0,1,228.571,665.4Zm-24.449-.7a.539.539,0,0,1-.167-.026q-.413-.133-.823-.273a.519.519,0,0,1-.327-.666.537.537,0,0,1,.681-.32q.4.137.8.267a.52.52,0,0,1,.341.659A.534.534,0,0,1,204.122,664.7Zm28.522-.567a.534.534,0,0,1-.5-.339.519.519,0,0,1,.313-.672q.4-.145.788-.3a.538.538,0,0,1,.695.292.518.518,0,0,1-.3.678q-.4.156-.808.305A.556.556,0,0,1,232.644,664.132Zm-32.516-.935a.543.543,0,0,1-.216-.045c-.265-.114-.528-.232-.79-.351a.517.517,0,0,1-.258-.694.54.54,0,0,1,.71-.252q.384.175.771.343a.518.518,0,0,1,.272.689A.535.535,0,0,1,200.127,663.2Zm36.438-.722a.536.536,0,0,1-.48-.29.517.517,0,0,1,.242-.7q.378-.183.752-.372a.541.541,0,0,1,.721.223.517.517,0,0,1-.229.7q-.382.194-.77.381A.538.538,0,0,1,236.565,662.474Zm-40.257-1.161a.544.544,0,0,1-.264-.068q-.377-.21-.75-.427a.516.516,0,0,1-.186-.716.541.541,0,0,1,.733-.181q.363.211.731.415a.516.516,0,0,1,.2.713A.537.537,0,0,1,196.308,661.313Zm43.988-.869a.538.538,0,0,1-.454-.246.515.515,0,0,1,.171-.72q.357-.218.71-.443a.541.541,0,0,1,.74.153.514.514,0,0,1-.156.722q-.362.231-.729.454A.539.539,0,0,1,240.3,660.444Zm-47.6-1.376a.541.541,0,0,1-.309-.1q-.354-.244-.7-.5a.515.515,0,0,1-.112-.73.543.543,0,0,1,.748-.109q.34.245.685.484a.515.515,0,0,1,.127.728A.538.538,0,0,1,192.7,659.069Zm51.1-1.006a.538.538,0,0,1-.423-.2.514.514,0,0,1,.1-.733q.334-.252.663-.511a.544.544,0,0,1,.752.08.515.515,0,0,1-.082.735q-.337.264-.68.523A.541.541,0,0,1,243.8,658.062Zm-54.464-1.576a.54.54,0,0,1-.351-.128q-.327-.278-.648-.561a.514.514,0,0,1-.038-.738.543.543,0,0,1,.755-.037q.313.276.632.548a.514.514,0,0,1,.052.737A.539.539,0,0,1,189.34,656.486Zm57.715-1.134a.54.54,0,0,1-.389-.164.513.513,0,0,1,.022-.738q.307-.283.609-.572a.544.544,0,0,1,.756.007.515.515,0,0,1-.007.739q-.309.3-.624.586A.54.54,0,0,1,247.054,655.352Zm-60.8-1.759a.539.539,0,0,1-.389-.164q-.3-.307-.588-.621a.513.513,0,0,1,.037-.738.543.543,0,0,1,.755.035q.284.307.574.606a.513.513,0,0,1-.022.738A.54.54,0,0,1,186.256,653.593Zm63.76-1.251a.539.539,0,0,1-.35-.128.514.514,0,0,1-.053-.737q.278-.312.549-.629a.544.544,0,0,1,.753-.066.514.514,0,0,1,.067.736q-.278.325-.562.644A.539.539,0,0,1,250.016,652.342Zm-66.535-1.924a.538.538,0,0,1-.424-.2q-.264-.335-.521-.674a.514.514,0,0,1,.111-.731.543.543,0,0,1,.748.108q.252.332.509.658a.515.515,0,0,1-.1.733A.544.544,0,0,1,183.481,650.418Zm69.179-1.358a.545.545,0,0,1-.309-.1.515.515,0,0,1-.126-.728q.244-.337.482-.678a.542.542,0,0,1,.743-.138.514.514,0,0,1,.141.725q-.244.35-.495.7A.537.537,0,0,1,252.66,649.059Zm-71.62-2.068a.537.537,0,0,1-.454-.246q-.228-.357-.45-.72a.516.516,0,0,1,.184-.716.541.541,0,0,1,.734.18q.216.354.44.7a.516.516,0,0,1-.17.72A.544.544,0,0,1,181.041,646.991Zm73.919-1.455a.543.543,0,0,1-.265-.068.516.516,0,0,1-.2-.713q.209-.359.411-.722a.542.542,0,0,1,.725-.209.516.516,0,0,1,.214.708q-.207.372-.422.741A.537.537,0,0,1,254.96,645.536Zm-76-2.189a.536.536,0,0,1-.48-.292q-.191-.377-.375-.759a.517.517,0,0,1,.257-.694.539.539,0,0,1,.711.25q.179.372.366.742a.517.517,0,0,1-.243.7A.541.541,0,0,1,178.962,643.347Zm77.928-1.541a.545.545,0,0,1-.217-.045.518.518,0,0,1-.271-.69q.172-.377.336-.759a.539.539,0,0,1,.7-.279.518.518,0,0,1,.285.684q-.169.391-.345.778A.535.535,0,0,1,256.89,641.806Zm-79.626-2.286a.534.534,0,0,1-.5-.338q-.151-.4-.3-.8a.519.519,0,0,1,.327-.666.536.536,0,0,1,.682.319q.141.39.289.775a.518.518,0,0,1-.313.672A.536.536,0,0,1,177.264,639.52Zm81.166-1.614a.541.541,0,0,1-.167-.026.52.52,0,0,1-.341-.66q.132-.394.257-.79a.537.537,0,0,1,.668-.346.521.521,0,0,1,.354.653q-.128.407-.263.81A.534.534,0,0,1,258.43,637.906Zm-82.465-2.364a.533.533,0,0,1-.517-.389q-.11-.408-.213-.82a.522.522,0,0,1,.393-.631.538.538,0,0,1,.646.384q.1.4.208.8a.521.521,0,0,1-.38.638A.554.554,0,0,1,175.964,635.542Zm83.6-1.667a.56.56,0,0,1-.116-.012.522.522,0,0,1-.407-.623c.061-.269.119-.537.174-.808a.535.535,0,0,1,.629-.409.523.523,0,0,1,.42.615q-.085.415-.178.828A.533.533,0,0,1,259.562,633.875Zm-84.484-2.418a.531.531,0,0,1-.527-.439q-.068-.418-.128-.837a.524.524,0,0,1,.455-.59.534.534,0,0,1,.6.445c.039.272.081.545.126.816a.525.525,0,0,1-.443.6A.538.538,0,0,1,175.078,631.457Zm85.2-1.7a.543.543,0,0,1-.064,0,.525.525,0,0,1-.467-.58q.05-.409.091-.82a.535.535,0,0,1,1.064.1q-.042.422-.093.841A.531.531,0,0,1,260.276,629.758Zm-85.663-2.451a.53.53,0,0,1-.533-.491q-.026-.421-.043-.845a.535.535,0,0,1,1.068-.042q.017.412.042.824a.526.526,0,0,1-.5.552Zm85.956-1.715h-.011a.528.528,0,0,1-.523-.532q.008-.412.008-.825c0-.017,0-.034,0-.05a.5.5,0,0,1,0-.051q0-.413-.01-.825a.528.528,0,0,1,.523-.534.542.542,0,0,1,.546.511c.006.282.01.563.01.846,0,.017,0,.034,0,.051s0,.034,0,.052q0,.424-.009.846A.529.529,0,0,1,260.569,625.592Zm-86-2.462h-.021a.528.528,0,0,1-.514-.542q.017-.423.041-.845a.535.535,0,0,1,1.068.061q-.024.411-.041.824A.529.529,0,0,1,174.567,623.13Zm85.79-2.645a.53.53,0,0,1-.531-.47q-.042-.412-.093-.82a.525.525,0,0,1,.466-.582.535.535,0,0,1,.595.456q.052.419.1.841a.526.526,0,0,1-.479.572Zm-85.417-1.515a.557.557,0,0,1-.074-.005.525.525,0,0,1-.456-.589q.059-.419.127-.837a.531.531,0,0,1,.612-.434.524.524,0,0,1,.444.6c-.044.272-.085.544-.124.817A.531.531,0,0,1,174.94,618.971Zm84.777-2.614a.532.532,0,0,1-.524-.419q-.084-.4-.176-.806a.522.522,0,0,1,.405-.624.534.534,0,0,1,.639.4q.094.413.18.828a.523.523,0,0,1-.418.615A.541.541,0,0,1,259.717,616.357Zm-83.984-1.489a.544.544,0,0,1-.126-.015.522.522,0,0,1-.394-.63q.1-.412.212-.821a.534.534,0,0,1,.653-.372.522.522,0,0,1,.381.638q-.108.4-.206.8A.533.533,0,0,1,175.733,614.868Zm82.926-2.557a.533.533,0,0,1-.51-.368q-.125-.395-.258-.786a.519.519,0,0,1,.339-.66.538.538,0,0,1,.676.331q.136.4.264.806a.52.52,0,0,1-.352.654A.549.549,0,0,1,258.659,612.311Zm-81.718-1.449a.545.545,0,0,1-.177-.029.519.519,0,0,1-.328-.666q.143-.4.3-.8a.538.538,0,0,1,.688-.307.519.519,0,0,1,.314.672q-.148.387-.288.778A.534.534,0,0,1,176.941,610.862Zm80.253-2.471a.535.535,0,0,1-.493-.319q-.164-.379-.335-.753a.518.518,0,0,1,.27-.69.541.541,0,0,1,.706.264q.176.385.344.773a.518.518,0,0,1-.284.685A.543.543,0,0,1,257.194,608.391Zm-78.639-1.4a.538.538,0,0,1-.226-.05.517.517,0,0,1-.258-.694q.184-.384.375-.764a.541.541,0,0,1,.716-.239.517.517,0,0,1,.244.7q-.187.372-.366.746A.536.536,0,0,1,178.555,606.99Zm76.781-2.354a.537.537,0,0,1-.47-.272q-.2-.361-.411-.718a.516.516,0,0,1,.2-.712.54.54,0,0,1,.729.194q.215.366.422.737a.516.516,0,0,1-.213.708A.536.536,0,0,1,255.337,604.636Zm-74.779-1.34a.541.541,0,0,1-.273-.074.516.516,0,0,1-.186-.716q.222-.365.451-.724a.542.542,0,0,1,.736-.168.516.516,0,0,1,.171.72q-.223.351-.44.706A.536.536,0,0,1,180.558,603.3Zm72.548-2.218a.537.537,0,0,1-.442-.228q-.238-.34-.483-.676a.515.515,0,0,1,.125-.728.543.543,0,0,1,.746.122q.251.344.494.693a.515.515,0,0,1-.14.726A.54.54,0,0,1,253.106,601.078Zm-70.182-1.262a.539.539,0,0,1-.317-.1.515.515,0,0,1-.113-.731q.258-.34.522-.677a.543.543,0,0,1,.75-.094.515.515,0,0,1,.1.733q-.258.326-.509.659A.538.538,0,0,1,182.924,599.815Zm67.6-2.064a.54.54,0,0,1-.409-.186q-.271-.316-.55-.627a.515.515,0,0,1,.051-.737.543.543,0,0,1,.755.05q.284.318.562.642a.514.514,0,0,1-.065.736A.541.541,0,0,1,250.524,597.751Zm-64.893-1.17a.539.539,0,0,1-.358-.135.514.514,0,0,1-.038-.738q.291-.313.587-.622a.543.543,0,0,1,.756-.022.514.514,0,0,1,.023.738q-.29.3-.573.607A.539.539,0,0,1,185.631,596.581Zm61.987-1.891a.54.54,0,0,1-.374-.149q-.3-.288-.609-.571a.513.513,0,0,1-.024-.738.543.543,0,0,1,.756-.023q.316.29.626.586a.514.514,0,0,1,.008.739A.539.539,0,0,1,247.618,594.69Zm-58.967-1.065a.538.538,0,0,1-.4-.171.514.514,0,0,1,.037-.738q.32-.283.646-.561a.543.543,0,0,1,.754.05.514.514,0,0,1-.051.737q-.318.272-.631.549A.539.539,0,0,1,188.651,593.625Zm55.765-1.7a.541.541,0,0,1-.334-.115q-.33-.258-.664-.509a.515.515,0,0,1-.1-.733.544.544,0,0,1,.75-.1q.344.259.682.523a.514.514,0,0,1,.082.734A.538.538,0,0,1,244.416,591.922Zm-52.462-.947a.537.537,0,0,1-.43-.211.515.515,0,0,1,.111-.731q.347-.251.7-.5a.543.543,0,0,1,.745.123.515.515,0,0,1-.126.728q-.344.239-.683.484A.54.54,0,0,1,191.954,590.975Zm49-1.5a.542.542,0,0,1-.291-.084q-.354-.225-.713-.443a.516.516,0,0,1-.172-.72.542.542,0,0,1,.736-.167q.369.224.733.455a.515.515,0,0,1,.157.722A.538.538,0,0,1,240.949,589.476Zm-45.443-.818a.537.537,0,0,1-.459-.255.516.516,0,0,1,.185-.717q.37-.216.745-.425a.541.541,0,0,1,.73.194.516.516,0,0,1-.2.712q-.366.2-.728.416A.541.541,0,0,1,195.507,588.658Zm41.744-1.28a.543.543,0,0,1-.244-.058q-.376-.189-.757-.372a.517.517,0,0,1-.244-.7.541.541,0,0,1,.716-.238q.389.187.775.381a.517.517,0,0,1,.231.7A.537.537,0,0,1,237.25,587.378Zm-37.974-.681a.536.536,0,0,1-.484-.3.517.517,0,0,1,.256-.694c.26-.12.522-.236.784-.352a.541.541,0,0,1,.706.264.518.518,0,0,1-.27.69q-.385.167-.766.342A.543.543,0,0,1,199.276,586.7Zm34.079-1.047a.543.543,0,0,1-.2-.037q-.393-.152-.791-.3a.519.519,0,0,1-.315-.671.539.539,0,0,1,.688-.308q.407.148.811.3a.518.518,0,0,1,.3.678A.534.534,0,0,1,233.355,585.649Zm-30.131-.536a.534.534,0,0,1-.5-.349.52.52,0,0,1,.326-.666q.408-.14.82-.274a.539.539,0,0,1,.675.333.52.52,0,0,1-.34.66q-.4.129-.8.267A.54.54,0,0,1,203.224,585.113Zm26.08-.8a.523.523,0,0,1-.146-.02q-.405-.112-.814-.216a.521.521,0,0,1-.382-.638.534.534,0,0,1,.652-.373c.28.071.559.145.836.222a.52.52,0,0,1,.369.645A.533.533,0,0,1,229.3,584.31Zm-21.984-.389a.533.533,0,0,1-.519-.4.522.522,0,0,1,.392-.631q.42-.1.844-.193a.534.534,0,0,1,.638.4.522.522,0,0,1-.405.623q-.413.09-.822.188A.537.537,0,0,1,207.32,583.921Zm17.819-.546a.513.513,0,0,1-.094-.008q-.415-.072-.832-.136a.524.524,0,0,1-.445-.6.537.537,0,0,1,.611-.435q.429.066.855.14a.524.524,0,0,1,.432.606A.531.531,0,0,1,225.139,583.375Zm-13.622-.24a.531.531,0,0,1-.529-.45.525.525,0,0,1,.455-.59q.429-.059.86-.109a.532.532,0,0,1,.594.456.526.526,0,0,1-.467.581q-.42.049-.837.107A.572.572,0,0,1,211.517,583.135Zm9.383-.286-.041,0q-.421-.031-.843-.055a.527.527,0,0,1-.5-.551.533.533,0,0,1,.564-.492q.433.025.864.057a.522.522,0,0,1-.04,1.043Zm-5.126-.09a.522.522,0,1,1-.021-1.044c.287-.011.575-.02.864-.026a.523.523,0,1,1,.022,1.045q-.422.008-.842.025Z" transform="translate(-16.842 -27.8)" fill="#97a7b7"/>
      <rect id="사각형_1134" data-name="사각형 1134" width="38.231" height="47.255" transform="translate(145.139 596.844)" fill="#eef7ff"/>
      <path id="패스_1310" data-name="패스 1310" d="M183.369,733.874H145.139a.534.534,0,0,1-.535-.535V686.084a.535.535,0,0,1,.535-.535h38.231a.535.535,0,0,1,.535.535v47.255A.534.534,0,0,1,183.369,733.874Zm-37.7-1.069h37.161V686.618H145.673Z" transform="translate(0 -89.239)" fill="#97a7b7"/>
      <rect id="사각형_1135" data-name="사각형 1135" width="31.477" height="40.985" transform="translate(148.515 599.98)" fill="#fff"/>
      <path id="패스_1311" data-name="패스 1311" d="M184.511,734.934H153.034a.535.535,0,0,1-.535-.535V693.414a.535.535,0,0,1,.535-.535h31.477a.535.535,0,0,1,.535.535V734.4A.534.534,0,0,1,184.511,734.934Zm-30.943-1.069h30.408V693.948H153.568Z" transform="translate(-4.518 -93.434)" fill="#97a7b7"/>
      <path id="패스_1312" data-name="패스 1312" d="M187.651,711.75a4.691,4.691,0,1,1-4.691-4.691,4.691,4.691,0,0,1,4.691,4.691" transform="translate(-19.266 -99.995)" fill="#fff"/>
      <path id="패스_1313" data-name="패스 1313" d="M182.244,716.261a5.226,5.226,0,1,1,5.226-5.226A5.232,5.232,0,0,1,182.244,716.261Zm0-9.383a4.157,4.157,0,1,0,4.157,4.157A4.161,4.161,0,0,0,182.244,706.878Z" transform="translate(-18.55 -99.289)" fill="#97a7b7"/>
      <path id="패스_1314" data-name="패스 1314" d="M180.434,671.735a4.829,4.829,0,1,0-9.256,0h-4.9a1.485,1.485,0,0,0-1.485,1.485v3.995a1.486,1.486,0,0,0,1.485,1.486h19.062a1.486,1.486,0,0,0,1.486-1.486V673.22a1.486,1.486,0,0,0-1.486-1.485Z" transform="translate(-11.552 -75.512)" fill="#fff"/>
      <path id="패스_1315" data-name="패스 1315" d="M184.622,678.521H165.56a2.022,2.022,0,0,1-2.02-2.02v-4a2.023,2.023,0,0,1,2.02-2.02h4.234a5.353,5.353,0,0,1,1.862-4.96,5.363,5.363,0,0,1,8.732,4.96h4.233a2.023,2.023,0,0,1,2.02,2.02v4A2.023,2.023,0,0,1,184.622,678.521Zm-19.062-6.966a.952.952,0,0,0-.951.951v4a.952.952,0,0,0,.951.951h19.062a.952.952,0,0,0,.951-.951v-4a.952.952,0,0,0-.951-.951h-4.9a.535.535,0,0,1-.513-.686,4.293,4.293,0,0,0-3.3-5.444,4.33,4.33,0,0,0-3.561.922,4.287,4.287,0,0,0-1.366,4.522.535.535,0,0,1-.512.687Z" transform="translate(-10.837 -74.799)" fill="#97a7b7"/>
      <path id="패스_1316" data-name="패스 1316" d="M188.266,713.228h-1.915v-1.915h-1.915v1.915h-1.914v1.915h1.914v1.915h1.915v-1.915h1.915Z" transform="translate(-21.7 -102.401)" fill="#fff"/>
      <rect id="사각형_1136" data-name="사각형 1136" width="2.765" height="2.765" transform="translate(153.001 620.535)" fill="#fff"/>
      <path id="패스_1317" data-name="패스 1317" d="M166.286,742.078h-2.765a.534.534,0,0,1-.535-.535v-2.765a.535.535,0,0,1,.535-.535h2.765a.535.535,0,0,1,.535.535v2.765A.534.534,0,0,1,166.286,742.078Zm-2.23-1.069h1.7v-1.7h-1.7Z" transform="translate(-10.52 -118.256)" fill="#97a7b7"/>
      <line id="선_232" data-name="선 232" x2="16.635" transform="translate(159.228 621.948)" fill="#fff"/>
      <path id="패스_1318" data-name="패스 1318" d="M194.716,742.546H178.081a.535.535,0,1,1,0-1.069h16.635a.535.535,0,1,1,0,1.069Z" transform="translate(-18.853 -120.075)" fill="#97a7b7"/>
      <rect id="사각형_1137" data-name="사각형 1137" width="2.765" height="2.765" transform="translate(153.001 626.678)" fill="#fff"/>
      <path id="패스_1319" data-name="패스 1319" d="M166.286,757.864h-2.765a.534.534,0,0,1-.535-.535v-2.765a.534.534,0,0,1,.535-.535h2.765a.534.534,0,0,1,.535.535v2.765A.534.534,0,0,1,166.286,757.864Zm-2.23-1.069h1.7v-1.7h-1.7Z" transform="translate(-10.52 -127.582)" fill="#97a7b7"/>
      <line id="선_233" data-name="선 233" x2="16.635" transform="translate(159.228 627.517)" fill="#fff"/>
      <path id="패스_1320" data-name="패스 1320" d="M194.716,758.332H178.081a.535.535,0,0,1,0-1.069h16.635a.535.535,0,0,1,0,1.069Z" transform="translate(-18.853 -130.281)" fill="#97a7b7"/>
      <rect id="사각형_1138" data-name="사각형 1138" width="2.765" height="2.765" transform="translate(153.001 632.886)" fill="#fff"/>
      <path id="패스_1321" data-name="패스 1321" d="M166.286,773.65h-2.765a.534.534,0,0,1-.535-.535v-2.765a.534.534,0,0,1,.535-.535h2.765a.534.534,0,0,1,.535.535v2.765A.534.534,0,0,1,166.286,773.65Zm-2.23-1.069h1.7v-1.7h-1.7Z" transform="translate(-10.52 -137.465)" fill="#97a7b7"/>
      <line id="선_234" data-name="선 234" x2="16.635" transform="translate(159.228 634.268)" fill="#fff"/>
      <path id="패스_1322" data-name="패스 1322" d="M194.716,774.118H178.081a.535.535,0,1,1,0-1.069h16.635a.535.535,0,1,1,0,1.069Z" transform="translate(-18.853 -139.315)" fill="#97a7b7"/>
      <path id="패스_1323" data-name="패스 1323" d="M169.317,627.858a9.609,9.609,0,1,1-9.61-9.609,9.61,9.61,0,0,1,9.61,9.609" transform="translate(-3.144 -47.601)" fill="#fff"/>
      <line id="선_235" data-name="선 235" y1="3.182" transform="translate(156.563 573.97)" fill="#fff"/>
      <path id="패스_1324" data-name="패스 1324" d="M171.851,628.769a.534.534,0,0,1-.535-.535v-3.181a.535.535,0,0,1,1.069,0v3.181A.535.535,0,0,1,171.851,628.769Z" transform="translate(-15.287 -51.075)" fill="#3e5672"/>
      <line id="선_236" data-name="선 236" x1="2.25" y1="2.25" transform="translate(152.042 575.776)" fill="#fff"/>
      <path id="패스_1325" data-name="패스 1325" d="M163.531,632.215a.533.533,0,0,1-.378-.157l-2.25-2.25a.535.535,0,0,1,.756-.756l2.251,2.25a.534.534,0,0,1-.378.912Z" transform="translate(-9.238 -53.648)" fill="#3e5672"/>
      <line id="선_237" data-name="선 237" x1="3.182" transform="translate(150.17 580.141)" fill="#fff"/>
      <path id="패스_1326" data-name="패스 1326" d="M160.085,640.535H156.9a.535.535,0,0,1,0-1.069h3.182a.535.535,0,0,1,0,1.069Z" transform="translate(-6.733 -59.855)" fill="#3e5672"/>
      <line id="선_238" data-name="선 238" x1="2.25" y2="2.25" transform="translate(152.042 582.278)" fill="#fff"/>
      <path id="패스_1327" data-name="패스 1327" d="M161.281,648.094a.534.534,0,0,1-.378-.912l2.25-2.25a.535.535,0,0,1,.756.756l-2.251,2.25A.533.533,0,0,1,161.281,648.094Z" transform="translate(-9.238 -63.027)" fill="#3e5672"/>
      <line id="선_239" data-name="선 239" y2="3.182" transform="translate(156.563 583.162)" fill="#fff"/>
      <path id="패스_1328" data-name="패스 1328" d="M171.851,651.225a.534.534,0,0,1-.535-.535v-3.182a.535.535,0,0,1,1.069,0v3.182A.535.535,0,0,1,171.851,651.225Z" transform="translate(-15.287 -64.343)" fill="#3e5672"/>
      <line id="선_240" data-name="선 240" x2="2.25" y2="2.25" transform="translate(158.834 582.278)" fill="#fff"/>
      <path id="패스_1329" data-name="패스 1329" d="M179.409,648.094a.533.533,0,0,1-.378-.156l-2.25-2.25a.535.535,0,0,1,.756-.756l2.25,2.25a.534.534,0,0,1-.378.912Z" transform="translate(-18.326 -63.027)" fill="#3e5672"/>
      <line id="선_241" data-name="선 241" x2="3.182" transform="translate(159.774 580.141)" fill="#fff"/>
      <path id="패스_1330" data-name="패스 1330" d="M182.54,640.535h-3.182a.535.535,0,0,1,0-1.069h3.182a.535.535,0,0,1,0,1.069Z" transform="translate(-19.584 -59.855)" fill="#3e5672"/>
      <line id="선_242" data-name="선 242" y1="2.25" x2="2.25" transform="translate(158.834 575.776)" fill="#fff"/>
      <path id="패스_1331" data-name="패스 1331" d="M177.16,632.215a.534.534,0,0,1-.378-.912l2.25-2.25a.535.535,0,0,1,.756.756l-2.25,2.25A.533.533,0,0,1,177.16,632.215Z" transform="translate(-18.326 -53.648)" fill="#3e5672"/>
      <path id="패스_1332" data-name="패스 1332" d="M382.076,780.49a5.176,5.176,0,1,1-5.176-5.176,5.176,5.176,0,0,1,5.176,5.176" transform="translate(-129.98 -140.612)" fill="#fff"/>
      <path id="패스_1333" data-name="패스 1333" d="M383.195,784.919a1.866,1.866,0,1,1-1.866-1.866,1.866,1.866,0,0,1,1.866,1.866" transform="translate(-134.409 -145.041)" fill="#fff"/>
      <path id="패스_1334" data-name="패스 1334" d="M380.613,786.6a2.4,2.4,0,1,1,2.4-2.4A2.4,2.4,0,0,1,380.613,786.6Zm0-3.732a1.331,1.331,0,1,0,1.331,1.331A1.333,1.333,0,0,0,380.613,782.872Z" transform="translate(-133.693 -144.325)" fill="#3e5672"/>
      <path id="패스_1335" data-name="패스 1335" d="M457.973,620.124a5.453,5.453,0,1,1-5.453-5.454,5.453,5.453,0,0,1,5.453,5.454" transform="translate(-173.098 -45.346)" fill="#fff"/>
      <line id="선_243" data-name="선 243" y1="1.884" transform="translate(279.421 571.042)" fill="#fff"/>
      <path id="패스_1336" data-name="패스 1336" d="M459.1,620.276a.534.534,0,0,1-.535-.535v-1.884a.535.535,0,1,1,1.069,0v1.884A.535.535,0,0,1,459.1,620.276Z" transform="translate(-179.68 -46.807)" fill="#3e5672"/>
      <line id="선_244" data-name="선 244" x1="1.884" transform="translate(275.637 574.692)" fill="#fff"/>
      <path id="패스_1337" data-name="패스 1337" d="M452.136,627.24h-1.884a.535.535,0,1,1,0-1.069h1.884a.535.535,0,1,1,0,1.069Z" transform="translate(-174.616 -52.006)" fill="#3e5672"/>
      <line id="선_245" data-name="선 245" y2="1.884" transform="translate(279.421 576.486)" fill="#fff"/>
      <path id="패스_1338" data-name="패스 1338" d="M459.1,633.568a.534.534,0,0,1-.535-.535V631.15a.535.535,0,1,1,1.069,0v1.884A.535.535,0,0,1,459.1,633.568Z" transform="translate(-179.68 -54.657)" fill="#3e5672"/>
      <line id="선_246" data-name="선 246" x2="1.884" transform="translate(281.322 574.692)" fill="#fff"/>
      <path id="패스_1339" data-name="패스 1339" d="M465.429,627.24h-1.884a.535.535,0,1,1,0-1.069h1.884a.535.535,0,1,1,0,1.069Z" transform="translate(-182.224 -52.006)" fill="#3e5672"/>
      <path id="패스_1340" data-name="패스 1340" d="M295.389,684.272h-82.4a3.827,3.827,0,0,1-3.827-3.827V626.151a3.827,3.827,0,0,1,3.827-3.827h82.4a3.827,3.827,0,0,1,3.827,3.827v54.294a3.827,3.827,0,0,1-3.827,3.827" transform="translate(-36.946 -51.776)" fill="#fff"/>
      <path id="패스_1341" data-name="패스 1341" d="M294.674,684.091h-82.4a4.367,4.367,0,0,1-4.362-4.362V625.436a4.367,4.367,0,0,1,4.362-4.362h82.4a4.367,4.367,0,0,1,4.361,4.362v54.293A4.366,4.366,0,0,1,294.674,684.091Zm-82.4-61.948a3.3,3.3,0,0,0-3.292,3.293v54.293a3.3,3.3,0,0,0,3.292,3.292h82.4a3.3,3.3,0,0,0,3.292-3.292V625.436a3.3,3.3,0,0,0-3.292-3.293Z" transform="translate(-36.231 -51.667)" fill="#3e5672"/>
      <path id="사각형_1139" data-name="사각형 1139" d="M.945,0H82.264a.945.945,0,0,1,.945.945V54.156a.946.946,0,0,1-.946.946H.945A.945.945,0,0,1,0,54.157V.945A.945.945,0,0,1,.945,0Z" transform="translate(175.639 574.387)" fill="#cee6fe"/>
      <path id="패스_1342" data-name="패스 1342" d="M299.254,685.248h-82.4a.94.94,0,0,1-.939-.939V630.016a.94.94,0,0,1,.939-.939h82.4a.94.94,0,0,1,.939.939V684.31A.94.94,0,0,1,299.254,685.248Zm-82.27-1.069h82.14V630.146h-82.14Z" transform="translate(-40.811 -55.237)" fill="#3e5672"/>
      <line id="선_247" data-name="선 247" x2="57.224" transform="translate(188.631 610.969)" fill="#cee6fe"/>
      <path id="패스_1343" data-name="패스 1343" d="M304.052,715.758H246.828a.535.535,0,1,1,0-1.069h57.224a.535.535,0,0,1,0,1.069Z" transform="translate(-58.196 -104.261)" fill="#3e5672"/>
      <line id="선_248" data-name="선 248" y1="0.567" transform="translate(217.205 576.678)" fill="#cee6fe"/>
      <path id="패스_1344" data-name="패스 1344" d="M305.012,733.036H273.5a3.07,3.07,0,1,1,0-6.139h31.515a3.07,3.07,0,1,1,0,6.139" transform="translate(-72.009 -111.626)" fill="#fff"/>
      <path id="패스_1345" data-name="패스 1345" d="M304.3,732.855H272.782a3.6,3.6,0,1,1,0-7.208H304.3a3.6,3.6,0,1,1,0,7.208Zm-31.515-6.139a2.535,2.535,0,1,0,0,5.07H304.3a2.535,2.535,0,1,0,0-5.07Z" transform="translate(-71.293 -110.922)" fill="#3e5672"/>
      <path id="패스_1346" data-name="패스 1346" d="M311.98,783.778H297.463l1.213-16.615h12.091Z" transform="translate(-87.48 -135.24)" fill="#fff"/>
      <path id="패스_1347" data-name="패스 1347" d="M311.264,783.6H296.748a.543.543,0,0,1-.391-.163.5.5,0,0,1-.142-.387l1.213-16.656a.527.527,0,0,1,.533-.478h12.091a.527.527,0,0,1,.533.478l1.213,16.656a.5.5,0,0,1-.142.387A.543.543,0,0,1,311.264,783.6Zm-13.943-1.028h13.37l-1.138-15.628H298.459Z" transform="translate(-86.766 -134.525)" fill="#3e5672"/>
      <path id="패스_1348" data-name="패스 1348" d="M308.066,802.79H270.4a3.645,3.645,0,0,1,3.645-3.645h30.375a3.645,3.645,0,0,1,3.645,3.645" transform="translate(-71.993 -154.25)" fill="#fff"/>
      <path id="패스_1349" data-name="패스 1349" d="M307.351,802.61H269.685a.534.534,0,0,1-.535-.535,4.185,4.185,0,0,1,4.18-4.18h30.375a4.185,4.185,0,0,1,4.18,4.18A.534.534,0,0,1,307.351,802.61Zm-37.086-1.069H306.77a3.116,3.116,0,0,0-3.065-2.576H273.33A3.116,3.116,0,0,0,270.265,801.54Z" transform="translate(-71.277 -153.535)" fill="#3e5672"/>
      <path id="패스_1350" data-name="패스 1350" d="M379.707,594.748a3.481,3.481,0,1,1-3.481-3.481,3.481,3.481,0,0,1,3.481,3.481" transform="translate(-130.565 -31.453)" fill="#fff"/>
      <path id="패스_1351" data-name="패스 1351" d="M375.511,598.048a4.016,4.016,0,1,1,4.015-4.016A4.02,4.02,0,0,1,375.511,598.048Zm0-6.962a2.946,2.946,0,1,0,2.946,2.946A2.95,2.95,0,0,0,375.511,591.086Z" transform="translate(-129.849 -30.724)" fill="#fc5d5b"/>
      <path id="패스_1352" data-name="패스 1352" d="M356.322,543.809a23.683,23.683,0,0,0-17.723,7.978,2.531,2.531,0,0,0,.111,3.467,2.494,2.494,0,0,0,3.615-.05,18.659,18.659,0,0,1,27.995,0,2.494,2.494,0,0,0,3.615.05h0a2.532,2.532,0,0,0,.111-3.467,23.682,23.682,0,0,0-17.723-7.978" transform="translate(-110.661 -3.282)" fill="#fff"/>
      <path id="패스_1353" data-name="패스 1353" d="M339.8,555.824a3.107,3.107,0,0,1-2.189-.907,3.063,3.063,0,0,1-.132-4.2,24.209,24.209,0,0,1,36.244,0,3.064,3.064,0,0,1-.132,4.2,3.1,3.1,0,0,1-2.283.906,2.909,2.909,0,0,1-2.11-.98,18.124,18.124,0,0,0-27.194,0,2.907,2.907,0,0,1-2.111.98Zm15.8-8.191a19.244,19.244,0,0,1,14.4,6.5,1.848,1.848,0,0,0,1.343.62,2.075,2.075,0,0,0,1.494-.593,1.994,1.994,0,0,0,.09-2.734,23.139,23.139,0,0,0-34.648,0,1.993,1.993,0,0,0,.09,2.734,2.044,2.044,0,0,0,1.494.593,1.848,1.848,0,0,0,1.343-.62A19.245,19.245,0,0,1,355.606,547.633Z" transform="translate(-109.944 -2.566)" fill="#fc5d5b"/>
      <path id="패스_1354" data-name="패스 1354" d="M365.913,567.537a13.6,13.6,0,0,0-10.681,5.181,2.5,2.5,0,0,0,.245,3.293l.04.04a2.5,2.5,0,0,0,3.726-.19,8.468,8.468,0,0,1,13.338,0,2.5,2.5,0,0,0,3.726.19l.04-.041a2.5,2.5,0,0,0,.245-3.293,13.6,13.6,0,0,0-10.68-5.181" transform="translate(-120.251 -16.861)" fill="#fff"/>
      <path id="패스_1355" data-name="패스 1355" d="M373.8,576.613c-.06,0-.12,0-.18-.005a2.994,2.994,0,0,1-2.174-1.131,7.934,7.934,0,0,0-12.5,0,2.993,2.993,0,0,1-2.175,1.13,3.062,3.062,0,0,1-2.348-.893l-.039-.039a3.017,3.017,0,0,1-.287-4,14.133,14.133,0,0,1,22.2,0,3.017,3.017,0,0,1-.286,4l-.039.039A3.071,3.071,0,0,1,373.8,576.613Zm-8.6-5.251a8.986,8.986,0,0,1,7.088,3.453,1.9,1.9,0,0,0,1.4.725,1.985,1.985,0,0,0,1.53-.582l.039-.04a1.972,1.972,0,0,0,.2-2.584,13.063,13.063,0,0,0-20.522,0,1.973,1.973,0,0,0,.2,2.583l.039.039a2.009,2.009,0,0,0,1.531.583,1.9,1.9,0,0,0,1.4-.725A8.985,8.985,0,0,1,365.192,571.362Z" transform="translate(-119.53 -16.146)" fill="#fc5d5b"/>
      <path id="패스_1356" data-name="패스 1356" d="M380.233,657.647c-.093.082-.178.167-.266.255l-1.461,1.461a1.246,1.246,0,1,1-1.762-1.762l1.461-1.461c.088-.088.172-.172.254-.266Z" transform="translate(-132.645 -69.594)" fill="#cee6fe"/>
      <path id="패스_1357" data-name="패스 1357" d="M445.846,587.65,441.9,583.7a1.388,1.388,0,0,0-1.964,0l-2.442,2.442,5.912,5.912,2.442-2.442a1.388,1.388,0,0,0,0-1.964" transform="translate(-167.619 -26.753)" fill="#cee6fe"/>
      <path id="패스_1358" data-name="패스 1358" d="M442.688,591.874a.531.531,0,0,1-.378-.157l-5.912-5.912a.534.534,0,0,1,0-.756l2.442-2.442a1.922,1.922,0,0,1,2.719,0l3.949,3.948a1.925,1.925,0,0,1,0,2.719l-2.443,2.442A.532.532,0,0,1,442.688,591.874Zm-5.156-6.447,5.156,5.156,2.065-2.064a.855.855,0,0,0,0-1.207l-3.948-3.949a.874.874,0,0,0-1.207,0Z" transform="translate(-166.904 -26.022)" fill="#3e5672"/>
      <path id="패스_1359" data-name="패스 1359" d="M174.456,539.325h33.827a6.439,6.439,0,0,1,6.439,6.439v18.6a6.439,6.439,0,0,1-6.439,6.439h-2.739l3.809,10.4-12.521-10.4H174.456a6.439,6.439,0,0,1-6.439-6.439v-18.6a6.439,6.439,0,0,1,6.439-6.439" transform="translate(-13.399 -0.715)" fill="#fff"/>
      <path id="패스_1360" data-name="패스 1360" d="M208.638,581.027a.534.534,0,0,1-.342-.123l-12.372-10.279H173.741a6.982,6.982,0,0,1-6.974-6.974v-18.6a6.982,6.982,0,0,1,6.974-6.974h33.827a6.982,6.982,0,0,1,6.974,6.974v18.6a6.982,6.982,0,0,1-6.974,6.974h-1.974l3.546,9.684a.534.534,0,0,1-.5.718Zm-34.9-41.882a5.911,5.911,0,0,0-5.9,5.9v18.6a5.911,5.911,0,0,0,5.9,5.9h22.376a.539.539,0,0,1,.342.123l10.995,9.135-3.127-8.539a.535.535,0,0,1,.5-.719h2.739a5.911,5.911,0,0,0,5.9-5.9v-18.6a5.911,5.911,0,0,0-5.9-5.9Z" transform="translate(-12.684)" fill="#3e5672"/>
      <line id="선_249" data-name="선 249" x2="15.133" transform="translate(179.544 545.473)" fill="#fff"/>
      <path id="패스_1361" data-name="패스 1361" d="M240.715,555.191H225.582a.535.535,0,1,1,0-1.069h15.133a.535.535,0,1,1,0,1.069Z" transform="translate(-46.037 -9.184)" fill="#97a7b7"/>
      <line id="선_250" data-name="선 250" x2="3.582" transform="translate(172.678 545.473)" fill="#fff"/>
      <path id="패스_1362" data-name="패스 1362" d="M213.109,555.191h-3.582a.535.535,0,1,1,0-1.069h3.582a.535.535,0,1,1,0,1.069Z" transform="translate(-36.849 -9.184)" fill="#97a7b7"/>
      <line id="선_251" data-name="선 251" x2="8.055" transform="translate(161.861 545.473)" fill="#fff"/>
      <path id="패스_1363" data-name="패스 1363" d="M192.291,555.191h-8.055a.535.535,0,1,1,0-1.069h8.055a.535.535,0,1,1,0,1.069Z" transform="translate(-22.375 -9.184)" fill="#97a7b7"/>
      <line id="선_252" data-name="선 252" x2="32.817" transform="translate(161.861 550.03)" fill="#fff"/>
      <path id="패스_1364" data-name="패스 1364" d="M217.052,565.845H184.236a.535.535,0,0,1,0-1.069h32.817a.535.535,0,0,1,0,1.069Z" transform="translate(-22.375 -15.281)" fill="#97a7b7"/>
      <line id="선_253" data-name="선 253" x2="6.41" transform="translate(188.267 554.586)" fill="#fff"/>
      <path id="패스_1365" data-name="패스 1365" d="M252.387,576.5h-6.41a.535.535,0,1,1,0-1.069h6.41a.535.535,0,1,1,0,1.069Z" transform="translate(-57.709 -21.378)" fill="#97a7b7"/>
      <line id="선_254" data-name="선 254" x2="23.538" transform="translate(161.861 554.586)" fill="#fff"/>
      <path id="패스_1366" data-name="패스 1366" d="M207.774,576.5H184.236a.535.535,0,0,1,0-1.069h23.538a.535.535,0,1,1,0,1.069Z" transform="translate(-22.375 -21.378)" fill="#97a7b7"/>
      <line id="선_255" data-name="선 255" x2="20.62" transform="translate(174.058 559.143)" fill="#fff"/>
      <path id="패스_1367" data-name="패스 1367" d="M233.373,587.152H212.754a.535.535,0,1,1,0-1.069h20.619a.535.535,0,1,1,0,1.069Z" transform="translate(-38.696 -27.475)" fill="#97a7b7"/>
      <line id="선_256" data-name="선 256" x2="8.976" transform="translate(161.861 559.143)" fill="#fff"/>
      <path id="패스_1368" data-name="패스 1368" d="M193.211,587.152h-8.976a.535.535,0,1,1,0-1.069h8.976a.535.535,0,1,1,0,1.069Z" transform="translate(-22.375 -27.475)" fill="#97a7b7"/>
      <line id="선_257" data-name="선 257" x2="32.817" transform="translate(161.861 562.629)" fill="#fff"/>
      <path id="패스_1369" data-name="패스 1369" d="M217.052,597.806H184.236a.535.535,0,0,1,0-1.069h32.817a.535.535,0,1,1,0,1.069Z" transform="translate(-22.375 -34.63)" fill="#97a7b7"/>
      <path id="패스_1370" data-name="패스 1370" d="M454.312,742.3h0a3.59,3.59,0,0,1,3.59,3.59v24.318h-7.18V745.891a3.59,3.59,0,0,1,3.59-3.59" transform="translate(-175.191 -121.718)" fill="#eef7ff"/>
      <path id="패스_1371" data-name="패스 1371" d="M457.187,770.028h-7.18a.535.535,0,0,1-.535-.535V745.176a4.125,4.125,0,1,1,8.25,0v24.317A.535.535,0,0,1,457.187,770.028Zm-6.646-1.069h6.111V745.176a3.056,3.056,0,1,0-6.111,0Z" transform="translate(-174.475 -121.003)" fill="#97a7b7"/>
      <path id="패스_1372" data-name="패스 1372" d="M432.456,702.3h0a3.59,3.59,0,0,1,3.59,3.59v41.425h-7.18V705.891a3.59,3.59,0,0,1,3.59-3.59" transform="translate(-162.683 -98.826)" fill="#eef7ff"/>
      <path id="패스_1373" data-name="패스 1373" d="M435.331,747.136h-7.18a.535.535,0,0,1-.535-.535V705.176a4.125,4.125,0,1,1,8.25,0V746.6A.535.535,0,0,1,435.331,747.136Zm-6.646-1.069H434.8V705.176a3.055,3.055,0,1,0-6.111,0Z" transform="translate(-161.967 -98.111)" fill="#97a7b7"/>
      <path id="패스_1374" data-name="패스 1374" d="M410.6,722.3h0a3.59,3.59,0,0,1,3.59,3.59v32.871h-7.18V725.891a3.59,3.59,0,0,1,3.59-3.59" transform="translate(-150.174 -110.272)" fill="#eef7ff"/>
      <path id="패스_1375" data-name="패스 1375" d="M413.475,758.582h-7.18a.535.535,0,0,1-.535-.535V725.176a4.125,4.125,0,1,1,8.249,0v32.871A.535.535,0,0,1,413.475,758.582Zm-6.646-1.069h6.111V725.176a3.055,3.055,0,1,0-6.111,0Z" transform="translate(-149.459 -109.557)" fill="#97a7b7"/>
      <path id="패스_1376" data-name="패스 1376" d="M178.192,768.7a4.186,4.186,0,1,1-4.186-4.186,4.186,4.186,0,0,1,4.186,4.186" transform="translate(-14.431 -134.429)" fill="#fff"/>
      <path id="패스_1377" data-name="패스 1377" d="M173.291,772.7a4.721,4.721,0,1,1,4.721-4.721A4.726,4.726,0,0,1,173.291,772.7Zm0-8.372a3.652,3.652,0,1,0,3.652,3.652A3.655,3.655,0,0,0,173.291,764.33Z" transform="translate(-13.716 -133.714)" fill="#3e5672"/>
      <line id="선_258" data-name="선 258" y2="4.739" transform="translate(159.575 631.899)" fill="#fff"/>
      <path id="패스_1378" data-name="패스 1378" d="M178.892,773.317a.535.535,0,0,1-.535-.535v-4.739a.535.535,0,1,1,1.069,0v4.739A.534.534,0,0,1,178.892,773.317Z" transform="translate(-19.317 -136.145)" fill="#3e5672"/>
      <path id="패스_1379" data-name="패스 1379" d="M446.608,671.636v-3.751a2.622,2.622,0,0,1,2.623-2.623h4.7a2.623,2.623,0,0,0,0-5.245h-14.05a2.622,2.622,0,0,1-2.622-2.622v-.219a2.622,2.622,0,0,1,2.622-2.622h4.4a2.623,2.623,0,0,0,2.623-2.623v-4.043" transform="translate(-167.486 -65.314)" fill="#fff"/>
      <path id="패스_1380" data-name="패스 1380" d="M445.893,671.454a.534.534,0,0,1-.535-.535v-3.751a3.161,3.161,0,0,1,3.157-3.157h4.7a2.088,2.088,0,0,0,0-4.177h-14.05a3.16,3.16,0,0,1-3.157-3.156v-.219a3.16,3.16,0,0,1,3.157-3.157h4.4a2.091,2.091,0,0,0,2.088-2.088v-4.043a.535.535,0,0,1,1.069,0v4.043a3.161,3.161,0,0,1-3.157,3.157h-4.4a2.09,2.09,0,0,0-2.088,2.088v.219a2.09,2.09,0,0,0,2.088,2.087h14.05a3.157,3.157,0,0,1,0,6.315h-4.7a2.09,2.09,0,0,0-2.088,2.088v3.751A.535.535,0,0,1,445.893,671.454Z" transform="translate(-166.771 -64.599)" fill="#3e5672"/>
      <text id="Quiz" transform="translate(193.732 603.786)" fill="#3e5672" stroke="#3e5672" stroke-miterlimit="10" stroke-width="1" font-size="23" font-family="Bahnschrift-SemiBold, Bahnschrift" font-weight="600"><tspan x="0" y="0">Quiz</tspan></text>
    </g>
    <text id="_퀴즈_설문_-_설문조사_" data-name="[퀴즈/설문 - 설문조사]" transform="translate(281 357)" fill="#454c53" font-size="16" font-family="NotoSansKR-Medium, Noto Sans KR" font-weight="500"><tspan x="-74.136" y="0">[퀴즈/설문 - 설문조사]</tspan></text>
  </g>
</svg>
