<svg xmlns="http://www.w3.org/2000/svg" width="500" height="320" viewBox="0 0 500 320">
  <g id="그룹_1177" data-name="그룹 1177" transform="translate(-31 -129)">
    <rect id="img_" width="500" height="320" transform="translate(31 129)" fill="#f5f5f5"/>
    <g id="그룹_1174" data-name="그룹 1174" transform="translate(75.365 87.461)">
      <path id="패스_1717" data-name="패스 1717" d="M149.767,318.156h60.581a4.688,4.688,0,0,0,4.688-4.688v-.593a4.688,4.688,0,0,0-4.688-4.688H167.294a4.688,4.688,0,0,1,0-9.376h47.742" transform="translate(-9.362 -98.995)" fill="#fff"/>
      <path id="패스_1718" data-name="패스 1718" d="M209.623,317.955H149.042a.525.525,0,1,1,0-1.049h60.581a4.168,4.168,0,0,0,4.163-4.163v-.593a4.168,4.168,0,0,0-4.163-4.163H166.568a5.213,5.213,0,0,1,0-10.425H214.31a.525.525,0,1,1,0,1.049H166.568a4.163,4.163,0,1,0,0,8.327h43.054a5.218,5.218,0,0,1,5.213,5.212v.593A5.219,5.219,0,0,1,209.623,317.955Z" transform="translate(-8.636 -98.335)" fill="#3e5672"/>
      <path id="패스_1719" data-name="패스 1719" d="M416.93,276.708a16.184,16.184,0,0,1-7.338-30.612,16.022,16.022,0,0,1,7.338-1.762,16.187,16.187,0,0,1,0,32.374" transform="translate(-155.004 -67.22)" fill="#fff"/>
      <path id="패스_1720" data-name="패스 1720" d="M416.205,276.507a16.708,16.708,0,0,1-7.575-31.6,16.444,16.444,0,0,1,7.575-1.819,16.712,16.712,0,0,1,0,33.423Zm0-32.374a15.406,15.406,0,0,0-7.1,1.7,15.654,15.654,0,1,0,7.1-1.7Z" transform="translate(-154.278 -66.496)" fill="#97a7b7"/>
      <path id="패스_1721" data-name="패스 1721" d="M445.354,260.518H429.17L421.832,246.1a16.017,16.017,0,0,1,7.338-1.762,16.184,16.184,0,0,1,16.184,16.184" transform="translate(-167.244 -67.118)" fill="#eef7ff"/>
      <path id="패스_1722" data-name="패스 1722" d="M444.628,260.317H428.444a.525.525,0,0,1-.468-.287l-7.338-14.422a.525.525,0,0,1,.228-.7,16.447,16.447,0,0,1,7.577-1.82,16.727,16.727,0,0,1,16.708,16.708A.524.524,0,0,1,444.628,260.317Zm-15.862-1.049H444.1a15.678,15.678,0,0,0-15.651-15.134,15.409,15.409,0,0,0-6.629,1.473Z" transform="translate(-166.518 -66.393)" fill="#97a7b7"/>
      <path id="패스_1723" data-name="패스 1723" d="M203.548,299.266V281.135h-6.157v18.131l-11.372,17.783a4.085,4.085,0,0,0,3.441,6.285h22.018a4.085,4.085,0,0,0,3.441-6.285Z" transform="translate(-30.022 -88.975)" fill="#fff"/>
      <path id="패스_1724" data-name="패스 1724" d="M210.749,323.134H188.731a4.609,4.609,0,0,1-3.883-7.093l11.29-17.654V280.41a.524.524,0,0,1,.525-.525h6.157a.525.525,0,0,1,.525.525v17.977l11.289,17.654a4.609,4.609,0,0,1-3.883,7.093Zm-13.563-42.2v17.606a.527.527,0,0,1-.083.282l-11.372,17.783a3.56,3.56,0,0,0,3,5.478h22.019a3.56,3.56,0,0,0,3-5.478l-11.372-17.783a.526.526,0,0,1-.082-.282V280.934Z" transform="translate(-29.292 -88.249)" fill="#97a7b7"/>
      <path id="패스_1725" data-name="패스 1725" d="M216.861,355.45a.5.5,0,0,1-.473.278H194.368a.5.5,0,0,1-.467-.278.506.506,0,0,1,.018-.55l7.564-11.829h7.789l7.564,11.829a.5.5,0,0,1,.024.55" transform="translate(-34.93 -124.917)" fill="#eef7ff"/>
      <path id="패스_1726" data-name="패스 1726" d="M215.662,355.528h-22.02a1.063,1.063,0,0,1-.905-1.613l7.578-11.852a.525.525,0,0,1,.442-.242h7.789a.525.525,0,0,1,.442.242l7.564,11.829a1.028,1.028,0,0,1,.045,1.079l0,.008A1.029,1.029,0,0,1,215.662,355.528ZM201.044,342.87l-7.41,11.587,22.027.021.473.246-.463-.246a.1.1,0,0,0,.009-.022L208.26,342.87Z" transform="translate(-34.204 -124.191)" fill="#97a7b7"/>
      <rect id="사각형_1172" data-name="사각형 1172" width="8.23" height="3.034" transform="translate(166.333 192.579)" fill="#fff"/>
      <path id="패스_1727" data-name="패스 1727" d="M219.05,283.967h-8.23a.525.525,0,0,1-.525-.525v-3.034a.525.525,0,0,1,.525-.525h8.23a.525.525,0,0,1,.525.525v3.034A.525.525,0,0,1,219.05,283.967Zm-7.706-1.049h7.181v-1.984h-7.181Z" transform="translate(-44.487 -87.83)" fill="#97a7b7"/>
      <g id="그룹_1161" data-name="그룹 1161" transform="translate(-2)">
        <path id="패스_1728" data-name="패스 1728" d="M233.938,157.98a15.93,15.93,0,1,0-24.247-20.491L185.209,166.5a12.506,12.506,0,1,0,17.686,17.686L231.9,159.7a16.028,16.028,0,0,0,2.037-1.719" transform="translate(-30.803 -0.725)" fill="#fff"/>
        <path id="패스_1729" data-name="패스 1729" d="M194.88,187.549a.525.525,0,0,1-.064-1.045c.264-.033.531-.075.794-.126a.525.525,0,1,1,.2,1.03c-.286.055-.576.1-.863.137A.488.488,0,0,1,194.88,187.549Zm-3.346-.032a.574.574,0,0,1-.076-.005c-.287-.042-.577-.094-.861-.154a.525.525,0,1,1,.219-1.026q.394.084.792.141a.525.525,0,0,1-.074,1.044Zm7.347-1.168a.525.525,0,0,1-.233-1c.238-.118.475-.246.707-.381a.525.525,0,1,1,.528.907c-.251.147-.511.286-.77.414A.519.519,0,0,1,198.881,186.349Zm-11.324-.111a.516.516,0,0,1-.241-.06c-.258-.133-.514-.278-.763-.43a.525.525,0,1,1,.546-.9c.228.139.464.272.7.4a.525.525,0,0,1-.243.99Zm14.711-2.336a.525.525,0,0,1-.339-.925l.642-.541a.524.524,0,1,1,.677.8l-.641.541A.523.523,0,0,1,202.267,183.9Zm-18.041-.186a.524.524,0,0,1-.382-.165c-.2-.211-.394-.431-.579-.656a.525.525,0,1,1,.81-.668c.17.206.349.409.532.6a.525.525,0,0,1-.382.885Zm21.248-2.521a.525.525,0,0,1-.338-.925l.641-.541a.524.524,0,1,1,.677.8l-.641.541A.523.523,0,0,1,205.474,181.195Zm-23.567-.952a.525.525,0,0,1-.479-.311c-.118-.265-.229-.538-.329-.81a.525.525,0,1,1,.985-.362c.092.251.194.5.3.744a.525.525,0,0,1-.479.739Zm26.775-1.755a.525.525,0,0,1-.339-.925l.641-.541a.525.525,0,1,1,.677.8l-.642.541A.522.522,0,0,1,208.681,178.488ZM180.865,176.2a.525.525,0,0,1-.522-.481c-.024-.288-.039-.582-.044-.873a.525.525,0,0,1,1.049-.018q.008.4.041.8a.524.524,0,0,1-.478.567Zm31.023-.418a.525.525,0,0,1-.339-.925l.642-.541a.524.524,0,0,1,.677.8l-.641.541A.523.523,0,0,1,211.889,175.781Zm3.207-2.707a.524.524,0,0,1-.338-.925l.642-.541a.525.525,0,0,1,.677.8l-.642.541A.523.523,0,0,1,215.1,173.074Zm-33.884-1.038a.532.532,0,0,1-.13-.016.525.525,0,0,1-.379-.638c.071-.281.154-.564.245-.84a.525.525,0,0,1,1,.327c-.084.254-.159.514-.225.772A.525.525,0,0,1,181.212,172.036Zm37.091-1.669a.525.525,0,0,1-.339-.925l.641-.541a.525.525,0,0,1,.677.8l-.642.541A.522.522,0,0,1,218.3,170.367Zm-35.395-2.148a.525.525,0,0,1-.436-.815c.16-.241.332-.48.509-.711a.525.525,0,0,1,.832.639c-.163.213-.321.433-.468.654A.525.525,0,0,1,182.908,168.219Zm38.6-.559a.525.525,0,0,1-.339-.925l.641-.541a.525.525,0,1,1,.677.8l-.642.541A.52.52,0,0,1,221.51,167.66Zm-35.924-2.669a.524.524,0,0,1-.4-.863l.541-.641a.525.525,0,0,1,.8.677l-.541.642A.524.524,0,0,1,185.587,164.991Zm39.131-.038a.525.525,0,0,1-.338-.925l.641-.541a.524.524,0,1,1,.677.8l-.641.541A.522.522,0,0,1,224.717,164.953Zm3.207-2.707a.524.524,0,0,1-.338-.925l.641-.541a.524.524,0,1,1,.677.8l-.641.542A.522.522,0,0,1,227.924,162.246Zm-39.631-.462a.525.525,0,0,1-.4-.863l.541-.641a.524.524,0,1,1,.8.677l-.541.642A.524.524,0,0,1,188.294,161.784Zm42.838-2.245a.525.525,0,0,1-.338-.926l.047-.039c.237-.171.438-.321.636-.477a.525.525,0,1,1,.649.825q-.317.249-.643.481l-.013.013A.522.522,0,0,1,231.132,159.539ZM191,158.577a.525.525,0,0,1-.4-.863l.541-.642a.525.525,0,1,1,.8.677l-.541.641A.523.523,0,0,1,191,158.577Zm42.214-.8a.524.524,0,0,1-.371-.9q.289-.289.559-.589a.525.525,0,1,1,.779.7q-.288.32-.6.628A.524.524,0,0,1,233.215,157.781Zm-39.507-2.411a.525.525,0,0,1-.4-.863l.541-.642a.525.525,0,1,1,.8.677l-.541.641A.523.523,0,0,1,193.708,155.37Zm42.055-.909a.525.525,0,0,1-.454-.786q.2-.353.386-.713a.525.525,0,0,1,.936.474q-.2.387-.413.763A.524.524,0,0,1,235.763,154.461Zm-39.348-2.3a.525.525,0,0,1-.4-.863l.541-.641a.524.524,0,1,1,.8.677l-.541.641A.523.523,0,0,1,196.415,152.163Zm40.939-1.572a.524.524,0,0,1-.508-.658q.1-.393.186-.79a.525.525,0,1,1,1.027.214q-.088.423-.2.843A.525.525,0,0,1,237.354,150.59Zm-38.233-1.635a.525.525,0,0,1-.4-.863l.541-.641a.524.524,0,0,1,.8.677l-.541.641A.523.523,0,0,1,199.121,148.955Zm38.76-2.516a.524.524,0,0,1-.525-.522c0-.271-.01-.541-.026-.812a.525.525,0,0,1,1.048-.06q.025.432.027.866a.525.525,0,0,1-.522.527Zm-36.052-.691a.525.525,0,0,1-.4-.863l.541-.641a.524.524,0,1,1,.8.677l-.541.642A.524.524,0,0,1,201.829,145.748Zm2.707-3.207a.525.525,0,0,1-.4-.863l.541-.641a.524.524,0,0,1,.8.677l-.541.641A.523.523,0,0,1,204.535,142.541Zm32.778-.248a.525.525,0,0,1-.506-.386q-.107-.391-.235-.777a.525.525,0,1,1,1-.33q.137.412.251.83a.525.525,0,0,1-.367.645A.531.531,0,0,1,237.313,142.293Zm-30.071-2.959a.525.525,0,0,1-.4-.863l.541-.642a.525.525,0,1,1,.8.677l-.541.641A.523.523,0,0,1,207.243,139.334Zm28.444-.895a.525.525,0,0,1-.453-.258q-.2-.349-.43-.688a.524.524,0,1,1,.874-.58q.24.362.46.735a.525.525,0,0,1-.452.791Zm-25.779-2.346a.525.525,0,0,1-.4-.867q.282-.327.585-.642a.524.524,0,1,1,.756.727q-.282.295-.546.6A.522.522,0,0,1,209.907,136.093Zm23.2-.948a.522.522,0,0,1-.367-.15q-.291-.286-.594-.553a.525.525,0,1,1,.694-.787q.323.286.635.591a.525.525,0,0,1-.368.9Zm-20.071-1.832a.525.525,0,0,1-.295-.959q.361-.244.731-.467a.525.525,0,1,1,.541.9q-.346.209-.684.437A.521.521,0,0,1,213.035,133.313Zm16.727-.684a.521.521,0,0,1-.257-.068q-.355-.2-.718-.379a.525.525,0,0,1,.465-.941q.388.193.767.405a.525.525,0,0,1-.258.982Zm-12.983-1.183a.525.525,0,0,1-.17-1.021q.41-.14.827-.259a.525.525,0,0,1,.287,1.009q-.39.111-.775.243A.532.532,0,0,1,216.779,131.446Zm9.1-.371a.528.528,0,0,1-.129-.016q-.394-.1-.792-.178a.525.525,0,0,1,.2-1.029q.425.084.846.191a.525.525,0,0,1-.128,1.033Zm-5-.453a.525.525,0,0,1-.034-1.048q.433-.029.866-.035a.525.525,0,1,1,.016,1.049q-.406.006-.811.033Z" transform="translate(-30.08)" fill="#97a7b7"/>
        <path id="패스_1730" data-name="패스 1730" d="M269.526,161.863l3.139-3.139-2.524-2.523a9.153,9.153,0,0,0,1.048-2.531h3.569v-4.439h-3.569a9.135,9.135,0,0,0-1.048-2.531l2.524-2.524-3.139-3.138L267,143.562a9.157,9.157,0,0,0-2.531-1.048v-3.569h-4.439v3.569a9.143,9.143,0,0,0-2.531,1.048l-2.524-2.524-3.139,3.138,2.524,2.524a9.149,9.149,0,0,0-1.048,2.531h-3.569v4.439h3.569a9.154,9.154,0,0,0,1.048,2.531l-2.524,2.523,3.139,3.139,2.524-2.524a9.143,9.143,0,0,0,2.531,1.048v3.569h4.439v-3.569A9.143,9.143,0,0,0,267,159.339Z" transform="translate(-70.381 -5.459)" fill="#cee6fe"/>
        <path id="패스_1731" data-name="패스 1731" d="M263.746,163.756h-4.439a.525.525,0,0,1-.525-.525v-3.167a9.642,9.642,0,0,1-1.919-.795l-2.24,2.24a.525.525,0,0,1-.742,0l-3.139-3.139a.525.525,0,0,1,0-.742l2.24-2.239a9.673,9.673,0,0,1-.795-1.919h-3.167a.525.525,0,0,1-.525-.525v-4.439a.525.525,0,0,1,.525-.525h3.167a9.668,9.668,0,0,1,.795-1.919l-2.24-2.24a.525.525,0,0,1,0-.742l3.139-3.138a.525.525,0,0,1,.742,0l2.24,2.239a9.666,9.666,0,0,1,1.919-.794V138.22a.525.525,0,0,1,.525-.525h4.439a.525.525,0,0,1,.525.525v3.167a9.683,9.683,0,0,1,1.919.795l2.24-2.239a.525.525,0,0,1,.742,0l3.139,3.138a.525.525,0,0,1,0,.742l-2.24,2.24a9.639,9.639,0,0,1,.794,1.919h3.168a.525.525,0,0,1,.525.525v4.439a.525.525,0,0,1-.525.525h-3.168a9.665,9.665,0,0,1-.794,1.919l2.24,2.239a.525.525,0,0,1,0,.742l-3.139,3.139a.525.525,0,0,1-.742,0l-2.24-2.24a9.653,9.653,0,0,1-1.919.795v3.167A.525.525,0,0,1,263.746,163.756Zm-3.914-1.049h3.389v-3.044a.524.524,0,0,1,.4-.509,8.631,8.631,0,0,0,2.386-.988.524.524,0,0,1,.642.078L268.8,160.4l2.4-2.4-2.153-2.152a.525.525,0,0,1-.078-.642,8.645,8.645,0,0,0,.988-2.386.524.524,0,0,1,.509-.4h3.045v-3.39h-3.045a.524.524,0,0,1-.509-.4,8.617,8.617,0,0,0-.988-2.386.525.525,0,0,1,.078-.642l2.153-2.153-2.4-2.4-2.153,2.153a.524.524,0,0,1-.642.078,8.633,8.633,0,0,0-2.386-.988.524.524,0,0,1-.4-.509v-3.044h-3.389v3.044a.524.524,0,0,1-.4.509,8.631,8.631,0,0,0-2.385.988.524.524,0,0,1-.642-.078l-2.153-2.153-2.4,2.4,2.153,2.153a.525.525,0,0,1,.078.642,8.628,8.628,0,0,0-.988,2.386.524.524,0,0,1-.509.4h-3.044v3.39h3.044a.524.524,0,0,1,.509.4,8.643,8.643,0,0,0,.988,2.386.525.525,0,0,1-.078.642L251.856,158l2.4,2.4,2.153-2.153a.524.524,0,0,1,.642-.078,8.631,8.631,0,0,0,2.385.988.524.524,0,0,1,.4.509Z" transform="translate(-69.654 -4.733)" fill="#3e5672"/>
        <path id="패스_1732" data-name="패스 1732" d="M277.349,166.547a3.249,3.249,0,1,1,0-4.595,3.249,3.249,0,0,1,0,4.595" transform="translate(-83.18 -18.258)" fill="#fff"/>
        <path id="패스_1733" data-name="패스 1733" d="M274.329,167.3a3.772,3.772,0,1,1,2.668-1.1A3.761,3.761,0,0,1,274.329,167.3Zm0-6.5a2.723,2.723,0,1,0,1.926.8A2.714,2.714,0,0,0,274.329,160.8Z" transform="translate(-82.457 -17.535)" fill="#3e5672"/>
        <path id="패스_1734" data-name="패스 1734" d="M203.979,231.886l2.307-2.307-1.855-1.855a6.737,6.737,0,0,0,.77-1.86h2.623V222.6H205.2a6.734,6.734,0,0,0-.77-1.86l1.855-1.855-2.307-2.307-1.855,1.855a6.74,6.74,0,0,0-1.86-.77V215.04H197v2.623a6.74,6.74,0,0,0-1.86.77l-1.855-1.855-2.307,2.307,1.855,1.855a6.735,6.735,0,0,0-.77,1.86H189.44v3.263h2.623a6.738,6.738,0,0,0,.77,1.86l-1.855,1.855,2.307,2.307,1.855-1.855a6.741,6.741,0,0,0,1.86.77v2.623h3.263V230.8a6.729,6.729,0,0,0,1.86-.771Z" transform="translate(-35.385 -50)" fill="#fff"/>
        <path id="패스_1735" data-name="패스 1735" d="M199.538,233.224h-3.262a.525.525,0,0,1-.525-.525v-2.225a7.266,7.266,0,0,1-1.247-.516l-1.573,1.573a.524.524,0,0,1-.742,0l-2.307-2.307a.524.524,0,0,1,0-.742l1.573-1.573a7.273,7.273,0,0,1-.516-1.246h-2.225a.525.525,0,0,1-.525-.525v-3.263a.525.525,0,0,1,.525-.525h2.225a7.276,7.276,0,0,1,.516-1.246l-1.573-1.573a.524.524,0,0,1,0-.742l2.307-2.307a.524.524,0,0,1,.742,0l1.573,1.573a7.252,7.252,0,0,1,1.247-.516v-2.225a.524.524,0,0,1,.525-.525h3.262a.524.524,0,0,1,.525.525v2.225a7.252,7.252,0,0,1,1.247.516l1.573-1.573a.524.524,0,0,1,.742,0l2.307,2.307a.524.524,0,0,1,0,.742l-1.573,1.573a7.25,7.25,0,0,1,.516,1.246H207.1a.525.525,0,0,1,.525.525v3.263a.525.525,0,0,1-.525.525h-2.225a7.3,7.3,0,0,1-.516,1.246l1.573,1.573a.524.524,0,0,1,0,.742l-2.307,2.307a.524.524,0,0,1-.371.154h0a.525.525,0,0,1-.371-.154l-1.573-1.573a7.221,7.221,0,0,1-1.247.516V232.7A.525.525,0,0,1,199.538,233.224Zm-2.738-1.049h2.213v-2.1a.524.524,0,0,1,.4-.509,6.215,6.215,0,0,0,1.716-.711.524.524,0,0,1,.642.078l1.484,1.484,1.565-1.565-1.484-1.484a.525.525,0,0,1-.078-.642,6.206,6.206,0,0,0,.71-1.715.524.524,0,0,1,.51-.4h2.1V222.4h-2.1a.525.525,0,0,1-.51-.4,6.211,6.211,0,0,0-.71-1.716.524.524,0,0,1,.078-.642l1.484-1.484-1.565-1.565-1.484,1.484a.524.524,0,0,1-.641.078,6.218,6.218,0,0,0-1.716-.711.525.525,0,0,1-.4-.509v-2.1H196.8v2.1a.525.525,0,0,1-.4.509,6.218,6.218,0,0,0-1.716.711.524.524,0,0,1-.641-.078l-1.484-1.484L191,218.161l1.484,1.484a.524.524,0,0,1,.078.642,6.205,6.205,0,0,0-.71,1.716.525.525,0,0,1-.51.4h-2.1v2.213h2.1a.524.524,0,0,1,.51.4,6.226,6.226,0,0,0,.71,1.715.524.524,0,0,1-.078.642L191,228.854l1.565,1.565,1.484-1.484a.524.524,0,0,1,.641-.078,6.216,6.216,0,0,0,1.716.711.524.524,0,0,1,.4.509Z" transform="translate(-34.658 -49.272)" fill="#3e5672"/>
        <path id="패스_1736" data-name="패스 1736" d="M209.73,235.329a2.388,2.388,0,1,1,0-3.377,2.387,2.387,0,0,1,0,3.377" transform="translate(-44.793 -59.423)" fill="#fff"/>
        <path id="패스_1737" data-name="패스 1737" d="M207.316,235.828a2.913,2.913,0,1,1,2.059-.853h0A2.894,2.894,0,0,1,207.316,235.828Zm0-4.776a1.864,1.864,0,1,0,1.317.546A1.85,1.85,0,0,0,207.316,231.051ZM209,234.6h0Z" transform="translate(-44.068 -58.696)" fill="#3e5672"/>
      </g>
      <rect id="사각형_1173" data-name="사각형 1173" width="29.662" height="38.24" transform="translate(224.722 192.258)" fill="#fff"/>
      <path id="패스_1738" data-name="패스 1738" d="M379.606,319.407H349.944a.525.525,0,0,1-.525-.525v-38.24a.525.525,0,0,1,.525-.525h29.662a.525.525,0,0,1,.525.525v38.24A.524.524,0,0,1,379.606,319.407Zm-29.138-1.049h28.613V281.166H350.468Z" transform="translate(-125.222 -88.384)" fill="#97a7b7"/>
      <rect id="사각형_1174" data-name="사각형 1174" width="20.118" height="5.953" transform="translate(229.494 197.458)" fill="#eef7ff"/>
      <path id="패스_1739" data-name="패스 1739" d="M381.432,298.659H361.314a.525.525,0,0,1-.525-.525v-5.953a.525.525,0,0,1,.525-.525h20.118a.525.525,0,0,1,.525.525v5.953A.525.525,0,0,1,381.432,298.659Zm-19.594-1.049h19.069v-4.9H361.838Z" transform="translate(-131.82 -94.725)" fill="#97a7b7"/>
      <rect id="사각형_1175" data-name="사각형 1175" width="8.267" height="8.267" transform="translate(229.494 207.505)" fill="#eef7ff"/>
      <path id="패스_1740" data-name="패스 1740" d="M369.58,325.178h-8.267a.525.525,0,0,1-.525-.525v-8.267a.525.525,0,0,1,.525-.525h8.267a.525.525,0,0,1,.525.525v8.267A.525.525,0,0,1,369.58,325.178Zm-7.742-1.049h7.217v-7.217h-7.217Z" transform="translate(-131.82 -108.885)" fill="#97a7b7"/>
      <rect id="사각형_1176" data-name="사각형 1176" width="8.267" height="8.267" transform="translate(241.345 207.505)" fill="#eef7ff"/>
      <path id="패스_1741" data-name="패스 1741" d="M397.819,325.178h-8.267a.525.525,0,0,1-.525-.525v-8.267a.525.525,0,0,1,.525-.525h8.267a.525.525,0,0,1,.525.525v8.267A.525.525,0,0,1,397.819,325.178Zm-7.742-1.049h7.217v-7.217h-7.217Z" transform="translate(-148.207 -108.885)" fill="#97a7b7"/>
      <rect id="사각형_1177" data-name="사각형 1177" width="8.267" height="8.267" transform="translate(229.494 218.889)" fill="#eef7ff"/>
      <path id="패스_1742" data-name="패스 1742" d="M369.58,352.633h-8.267a.525.525,0,0,1-.525-.525v-8.267a.525.525,0,0,1,.525-.525h8.267a.525.525,0,0,1,.525.525v8.267A.525.525,0,0,1,369.58,352.633Zm-7.742-1.049h7.217v-7.217h-7.217Z" transform="translate(-131.82 -125.059)" fill="#97a7b7"/>
      <rect id="사각형_1178" data-name="사각형 1178" width="8.267" height="8.267" transform="translate(241.345 218.889)" fill="#eef7ff"/>
      <path id="패스_1743" data-name="패스 1743" d="M397.819,352.633h-8.267a.525.525,0,0,1-.525-.525v-8.267a.525.525,0,0,1,.525-.525h8.267a.525.525,0,0,1,.525.525v8.267A.525.525,0,0,1,397.819,352.633Zm-7.742-1.049h7.217v-7.217h-7.217Z" transform="translate(-148.207 -125.059)" fill="#97a7b7"/>
      <line id="선_367" data-name="선 367" x2="3.88" transform="translate(231.687 211.657)" fill="#fff"/>
      <path id="패스_1744" data-name="패스 1744" d="M370.42,326.76h-3.88a.525.525,0,1,1,0-1.049h3.88a.525.525,0,0,1,0,1.049Z" transform="translate(-134.853 -114.581)" fill="#97a7b7"/>
      <line id="선_368" data-name="선 368" y1="3.88" transform="translate(233.627 209.709)" fill="#fff"/>
      <path id="패스_1745" data-name="패스 1745" d="M371.163,326.018a.525.525,0,0,1-.525-.525v-3.88a.525.525,0,1,1,1.049,0v3.88A.525.525,0,0,1,371.163,326.018Z" transform="translate(-137.535 -111.907)" fill="#97a7b7"/>
      <line id="선_369" data-name="선 369" x2="2.743" y2="2.743" transform="translate(244.107 210.279)" fill="#fff"/>
      <path id="패스_1746" data-name="패스 1746" d="M398.877,326.235a.523.523,0,0,1-.371-.154l-2.743-2.743a.525.525,0,1,1,.742-.742l2.743,2.743a.525.525,0,0,1-.371.9Z" transform="translate(-152.026 -112.691)" fill="#97a7b7"/>
      <line id="선_370" data-name="선 370" y1="2.743" x2="2.743" transform="translate(244.107 210.279)" fill="#fff"/>
      <path id="패스_1747" data-name="패스 1747" d="M396.134,326.235a.525.525,0,0,1-.371-.9l2.743-2.743a.524.524,0,1,1,.742.742l-2.743,2.743A.523.523,0,0,1,396.134,326.235Z" transform="translate(-152.026 -112.691)" fill="#97a7b7"/>
      <line id="선_371" data-name="선 371" x2="0.17" y2="0.17" transform="translate(232.256 221.544)" fill="#fff"/>
      <path id="패스_1748" data-name="패스 1748" d="M368.064,351.117a.524.524,0,0,1-.371-.154l-.17-.17a.525.525,0,1,1,.742-.742l.17.17a.525.525,0,0,1-.371.9Z" transform="translate(-135.639 -128.751)" fill="#97a7b7"/>
      <line id="선_372" data-name="선 372" x1="0.17" y1="0.17" transform="translate(234.829 224.118)" fill="#fff"/>
      <path id="패스_1749" data-name="패스 1749" d="M374.2,357.249a.524.524,0,0,1-.371-.154l-.17-.17a.525.525,0,0,1,.742-.742l.17.17a.525.525,0,0,1-.371.9Z" transform="translate(-139.197 -132.437)" fill="#97a7b7"/>
      <line id="선_373" data-name="선 373" y1="2.743" x2="2.743" transform="translate(232.256 221.544)" fill="#fff"/>
      <path id="패스_1750" data-name="패스 1750" d="M367.895,353.69a.525.525,0,0,1-.371-.9l2.743-2.743a.525.525,0,0,1,.742.742l-2.743,2.743A.523.523,0,0,1,367.895,353.69Z" transform="translate(-135.639 -128.763)" fill="#97a7b7"/>
      <line id="선_374" data-name="선 374" x2="3.07" transform="translate(243.943 221.858)" fill="#fff"/>
      <path id="패스_1751" data-name="패스 1751" d="M398.814,351.7h-3.07a.525.525,0,1,1,0-1.049h3.07a.525.525,0,1,1,0,1.049Z" transform="translate(-151.8 -129.187)" fill="#97a7b7"/>
      <line id="선_375" data-name="선 375" x1="3.07" transform="translate(243.943 223.973)" fill="#fff"/>
      <path id="패스_1752" data-name="패스 1752" d="M398.813,356.734h-3.071a.525.525,0,1,1,0-1.049h3.071a.525.525,0,1,1,0,1.049Z" transform="translate(-151.799 -132.237)" fill="#97a7b7"/>
      <path id="패스_1753" data-name="패스 1753" d="M247.995,314.6a5.079,5.079,0,1,1-5.079-5.079,5.079,5.079,0,0,1,5.079,5.079" transform="translate(-60.47 -105.188)" fill="#fff"/>
      <path id="패스_1754" data-name="패스 1754" d="M249.238,319.1a1.831,1.831,0,1,1-1.831-1.831,1.831,1.831,0,0,1,1.831,1.831" transform="translate(-64.96 -109.664)" fill="#fff"/>
      <path id="패스_1755" data-name="패스 1755" d="M246.681,320.725a2.356,2.356,0,1,1,2.356-2.356A2.359,2.359,0,0,1,246.681,320.725Zm0-3.662a1.306,1.306,0,1,0,1.306,1.306A1.308,1.308,0,0,0,246.681,317.063Z" transform="translate(-64.235 -108.941)" fill="#3e5672"/>
      <path id="패스_1756" data-name="패스 1756" d="M168.65,281.339a5.079,5.079,0,1,1-5.079-5.079,5.079,5.079,0,0,1,5.079,5.079" transform="translate(-14.425 -85.747)" fill="#fff"/>
      <path id="패스_1757" data-name="패스 1757" d="M169.893,285.831A1.831,1.831,0,1,1,168.062,284a1.831,1.831,0,0,1,1.831,1.831" transform="translate(-18.916 -90.232)" fill="#fff"/>
      <path id="패스_1758" data-name="패스 1758" d="M167.337,287.46a2.356,2.356,0,1,1,2.356-2.355A2.359,2.359,0,0,1,167.337,287.46Zm0-3.662a1.307,1.307,0,1,0,1.307,1.307A1.308,1.308,0,0,0,167.337,283.8Z" transform="translate(-18.19 -89.507)" fill="#3e5672"/>
      <path id="패스_1767" data-name="패스 1767" d="M298.868,299.15h-7.133l-4.512-25.008h16.156Z" transform="translate(-89.129 -84.611)" fill="#fff"/>
      <path id="패스_1769" data-name="패스 1769" d="M272.741,255.815h0a3.846,3.846,0,0,1,3.846,3.846v3.846h-3.846a3.846,3.846,0,0,1,0-7.692" transform="translate(-78.493 -73.786)" fill="#fff"/>
      <path id="패스_1771" data-name="패스 1771" d="M329.566,255.815h0a3.846,3.846,0,0,0-3.846,3.846v3.846h3.846a3.846,3.846,0,1,0,0-7.692" transform="translate(-111.469 -73.786)" fill="#fff"/>
      <g id="그룹_1159" data-name="그룹 1159" transform="translate(179.378 164.505)">
        <path id="패스_1759" data-name="패스 1759" d="M302.379,362.953c0,2.626-4.787,4.755-10.692,4.755s-10.693-2.129-10.693-4.755,4.787-4.756,10.693-4.756,10.692,2.129,10.692,4.756" transform="translate(-264.892 -292.2)" fill="#fff"/>
        <path id="패스_1760" data-name="패스 1760" d="M290.961,367.507c-6.29,0-11.217-2.32-11.217-5.28s4.927-5.28,11.217-5.28,11.217,2.319,11.217,5.28S297.251,367.507,290.961,367.507Zm0-9.511c-6.083,0-10.168,2.187-10.168,4.231s4.086,4.231,10.168,4.231,10.168-2.188,10.168-4.231S297.044,358,290.961,358Z" transform="translate(-264.167 -291.474)" fill="#3e5672"/>
        <path id="패스_1761" data-name="패스 1761" d="M296.417,228.465a26.27,26.27,0,1,0-45.887,17.444,24.442,24.442,0,0,1,6.356,16.243v.434h26.521v-.436a24.021,24.021,0,0,1,6.237-16.109,26.1,26.1,0,0,0,6.773-17.576" transform="translate(-243.353 -201.67)" fill="#fff"/>
        <path id="패스_1762" data-name="패스 1762" d="M282.682,262.385H256.161a.525.525,0,0,1-.525-.525v-.434a23.938,23.938,0,0,0-6.223-15.894,26.8,26.8,0,1,1,39.894.135,23.462,23.462,0,0,0-6.1,15.757v.436A.525.525,0,0,1,282.682,262.385Zm-26-1.049h25.472a24.512,24.512,0,0,1,6.373-16.372,25.732,25.732,0,0,0-20.342-42.941,25.954,25.954,0,0,0-24.472,24.261,25.557,25.557,0,0,0,6.481,18.551A24.99,24.99,0,0,1,256.685,261.336Z" transform="translate(-242.626 -200.944)" fill="#3e5672"/>
        <path id="패스_1763" data-name="패스 1763" d="M296.612,341.241H272.23a3.756,3.756,0,1,1,0-7.512h24.381a3.756,3.756,0,1,1,0,7.512" transform="translate(-257.626 -278)" fill="#cee6fe"/>
        <path id="패스_1764" data-name="패스 1764" d="M295.887,341.04H271.505a4.281,4.281,0,0,1,0-8.561h24.382a4.281,4.281,0,0,1,0,8.561Zm-24.382-7.512a3.231,3.231,0,0,0,0,6.463h24.382a3.231,3.231,0,0,0,0-6.463Z" transform="translate(-256.902 -277.276)" fill="#3e5672"/>
        <path id="패스_1765" data-name="패스 1765" d="M296.612,359.141H272.23a3.756,3.756,0,1,1,0-7.512h24.381a3.756,3.756,0,1,1,0,7.512" transform="translate(-257.626 -288.388)" fill="#cee6fe"/>
        <path id="패스_1766" data-name="패스 1766" d="M295.887,358.94H271.505a4.281,4.281,0,0,1,0-8.561h24.382a4.281,4.281,0,0,1,0,8.561Zm-24.382-7.512a3.231,3.231,0,0,0,0,6.463h24.382a3.231,3.231,0,0,0,0-6.463Z" transform="translate(-256.902 -287.664)" fill="#3e5672"/>
        <path id="패스_1768" data-name="패스 1768" d="M298.142,298.95h-7.133a.525.525,0,0,1-.516-.431l-4.512-25.008a.524.524,0,0,1,.516-.618h16.156a.524.524,0,0,1,.516.618l-4.512,25.008A.524.524,0,0,1,298.142,298.95Zm-6.694-1.049H297.7l4.322-23.958h-14.9Z" transform="translate(-267.782 -242.61)" fill="#3e5672"/>
        <path id="패스_1770" data-name="패스 1770" d="M275.862,263.306h-3.846a4.371,4.371,0,1,1,4.371-4.371v3.846A.524.524,0,0,1,275.862,263.306Zm-3.846-7.692a3.321,3.321,0,1,0,0,6.643h3.321v-3.321A3.325,3.325,0,0,0,272.016,255.614Z" transform="translate(-257.146 -231.901)" fill="#3e5672"/>
        <path id="패스_1772" data-name="패스 1772" d="M328.841,263.306h-3.846a.524.524,0,0,1-.525-.525v-3.846a4.371,4.371,0,1,1,4.371,4.371Zm-3.321-1.049h3.321a3.321,3.321,0,1,0-3.321-3.321Z" transform="translate(-290.122 -231.901)" fill="#3e5672"/>
      </g>
      <path id="패스_1773" data-name="패스 1773" d="M390.66,236.114a7.954,7.954,0,1,1-7.954-7.954,7.954,7.954,0,0,1,7.954,7.954" transform="translate(-139.923 -57.66)" fill="#fff"/>
      <line id="선_376" data-name="선 376" y1="2.634" transform="translate(242.783 173.189)" fill="#fff"/>
      <path id="패스_1774" data-name="패스 1774" d="M392.978,236.936a.525.525,0,0,1-.525-.525v-2.634a.525.525,0,1,1,1.049,0v2.634A.524.524,0,0,1,392.978,236.936Z" transform="translate(-150.195 -60.587)" fill="#3e5672"/>
      <line id="선_377" data-name="선 377" x1="1.862" y1="1.862" transform="translate(239.041 174.728)" fill="#fff"/>
      <path id="패스_1775" data-name="패스 1775" d="M385.925,239.857a.523.523,0,0,1-.371-.154l-1.862-1.862a.525.525,0,1,1,.742-.742l1.862,1.862a.525.525,0,0,1-.371.9Z" transform="translate(-145.021 -62.742)" fill="#3e5672"/>
      <line id="선_378" data-name="선 378" x1="2.634" transform="translate(237.491 178.443)" fill="#fff"/>
      <path id="패스_1776" data-name="패스 1776" d="M383,246.91h-2.634a.525.525,0,1,1,0-1.049H383a.525.525,0,1,1,0,1.049Z" transform="translate(-142.878 -67.942)" fill="#3e5672"/>
      <line id="선_379" data-name="선 379" x1="1.862" y2="1.862" transform="translate(239.041 180.298)" fill="#fff"/>
      <path id="패스_1777" data-name="패스 1777" d="M384.063,253.251a.525.525,0,0,1-.371-.9l1.862-1.862a.525.525,0,1,1,.742.742l-1.862,1.862A.522.522,0,0,1,384.063,253.251Z" transform="translate(-145.021 -70.566)" fill="#3e5672"/>
      <line id="선_380" data-name="선 380" y2="2.634" transform="translate(242.783 181.066)" fill="#fff"/>
      <path id="패스_1778" data-name="패스 1778" d="M392.978,255.877a.525.525,0,0,1-.525-.525V252.72a.525.525,0,1,1,1.049,0v2.633A.524.524,0,0,1,392.978,255.877Z" transform="translate(-150.195 -71.653)" fill="#3e5672"/>
      <line id="선_381" data-name="선 381" x2="1.862" y2="1.862" transform="translate(244.662 180.298)" fill="#fff"/>
      <path id="패스_1779" data-name="패스 1779" d="M399.319,253.251a.522.522,0,0,1-.371-.154l-1.862-1.862a.524.524,0,0,1,.742-.742l1.862,1.862a.525.525,0,0,1-.371.9Z" transform="translate(-152.794 -70.566)" fill="#3e5672"/>
      <line id="선_382" data-name="선 382" x2="2.634" transform="translate(245.441 178.443)" fill="#fff"/>
      <path id="패스_1780" data-name="패스 1780" d="M401.945,246.91h-2.634a.525.525,0,1,1,0-1.049h2.634a.525.525,0,0,1,0,1.049Z" transform="translate(-153.871 -67.942)" fill="#3e5672"/>
      <line id="선_383" data-name="선 383" y1="1.862" x2="1.862" transform="translate(244.662 174.728)" fill="#fff"/>
      <path id="패스_1781" data-name="패스 1781" d="M397.457,239.857a.525.525,0,0,1-.371-.9l1.862-1.862a.525.525,0,0,1,.742.742l-1.862,1.862A.523.523,0,0,1,397.457,239.857Z" transform="translate(-152.794 -62.742)" fill="#3e5672"/>
      <path id="패스_1782" data-name="패스 1782" d="M361.211,331.423h40.306V295.511Zm33.275-7.03H379.669l14.817-13.2Z" transform="translate(-132.065 -97.317)" fill="#fff"/>
      <path id="패스_1783" data-name="패스 1783" d="M400.791,331.222H360.486a.525.525,0,0,1-.349-.916l40.306-35.912a.524.524,0,0,1,.873.392V330.7A.525.525,0,0,1,400.791,331.222Zm-38.928-1.049h38.4V295.956Zm31.9-5.981H378.944a.525.525,0,0,1-.349-.916l14.818-13.2a.524.524,0,0,1,.873.392v13.2A.525.525,0,0,1,393.761,324.192Zm-13.44-1.049h12.915V311.635Z" transform="translate(-131.339 -96.592)" fill="#3e5672"/>
      <line id="선_384" data-name="선 384" y1="1.611" transform="translate(235.072 232.495)" fill="#fff"/>
      <path id="패스_1784" data-name="패스 1784" d="M374.606,378.65a.524.524,0,0,1-.525-.525v-1.611a.525.525,0,1,1,1.049,0v1.611A.525.525,0,0,1,374.606,378.65Z" transform="translate(-139.533 -144.02)" fill="#3e5672"/>
      <line id="선_385" data-name="선 385" y1="1.611" transform="translate(238.186 232.495)" fill="#fff"/>
      <path id="패스_1785" data-name="패스 1785" d="M382.025,378.65a.524.524,0,0,1-.525-.525v-1.611a.525.525,0,1,1,1.049,0v1.611A.525.525,0,0,1,382.025,378.65Z" transform="translate(-143.839 -144.02)" fill="#3e5672"/>
      <line id="선_386" data-name="선 386" y1="1.611" transform="translate(241.299 232.495)" fill="#fff"/>
      <path id="패스_1786" data-name="패스 1786" d="M389.443,378.65a.525.525,0,0,1-.525-.525v-1.611a.525.525,0,1,1,1.049,0v1.611A.524.524,0,0,1,389.443,378.65Z" transform="translate(-148.143 -144.02)" fill="#3e5672"/>
      <line id="선_387" data-name="선 387" y1="1.611" transform="translate(244.413 232.495)" fill="#fff"/>
      <path id="패스_1787" data-name="패스 1787" d="M396.862,378.65a.525.525,0,0,1-.525-.525v-1.611a.525.525,0,1,1,1.049,0v1.611A.524.524,0,0,1,396.862,378.65Z" transform="translate(-152.449 -144.02)" fill="#3e5672"/>
      <line id="선_388" data-name="선 388" y1="1.611" transform="translate(247.527 232.495)" fill="#fff"/>
      <path id="패스_1788" data-name="패스 1788" d="M404.281,378.65a.525.525,0,0,1-.525-.525v-1.611a.525.525,0,1,1,1.049,0v1.611A.524.524,0,0,1,404.281,378.65Z" transform="translate(-156.754 -144.02)" fill="#3e5672"/>
      <line id="선_389" data-name="선 389" y1="1.611" transform="translate(250.641 232.495)" fill="#fff"/>
      <path id="패스_1789" data-name="패스 1789" d="M411.7,378.65a.524.524,0,0,1-.525-.525v-1.611a.525.525,0,1,1,1.049,0v1.611A.525.525,0,0,1,411.7,378.65Z" transform="translate(-161.06 -144.02)" fill="#3e5672"/>
      <line id="선_390" data-name="선 390" y1="1.611" transform="translate(253.754 232.495)" fill="#fff"/>
      <path id="패스_1790" data-name="패스 1790" d="M419.12,378.65a.524.524,0,0,1-.525-.525v-1.611a.525.525,0,1,1,1.049,0v1.611A.525.525,0,0,1,419.12,378.65Z" transform="translate(-165.365 -144.02)" fill="#3e5672"/>
      <line id="선_391" data-name="선 391" y1="1.611" transform="translate(256.868 232.495)" fill="#fff"/>
      <path id="패스_1791" data-name="패스 1791" d="M426.539,378.65a.524.524,0,0,1-.525-.525v-1.611a.525.525,0,1,1,1.049,0v1.611A.525.525,0,0,1,426.539,378.65Z" transform="translate(-169.671 -144.02)" fill="#3e5672"/>
      <line id="선_392" data-name="선 392" y1="1.611" transform="translate(259.981 232.495)" fill="#fff"/>
      <path id="패스_1792" data-name="패스 1792" d="M433.958,378.65a.524.524,0,0,1-.525-.525v-1.611a.525.525,0,1,1,1.049,0v1.611A.525.525,0,0,1,433.958,378.65Z" transform="translate(-173.976 -144.02)" fill="#3e5672"/>
      <line id="선_393" data-name="선 393" y1="1.611" transform="translate(263.095 232.495)" fill="#fff"/>
      <path id="패스_1793" data-name="패스 1793" d="M441.377,378.65a.524.524,0,0,1-.525-.525v-1.611a.525.525,0,1,1,1.049,0v1.611A.525.525,0,0,1,441.377,378.65Z" transform="translate(-178.281 -144.02)" fill="#3e5672"/>
      <line id="선_394" data-name="선 394" y1="1.611" transform="translate(266.209 232.495)" fill="#fff"/>
      <path id="패스_1794" data-name="패스 1794" d="M448.8,378.65a.524.524,0,0,1-.525-.525v-1.611a.525.525,0,1,1,1.049,0v1.611A.525.525,0,0,1,448.8,378.65Z" transform="translate(-182.587 -144.02)" fill="#3e5672"/>
      <g id="그룹_1160" data-name="그룹 1160" transform="translate(1 -4)">
        <path id="패스_1795" data-name="패스 1795" d="M362.512,155.547H333.755a5.474,5.474,0,0,0-5.474,5.474v15.814a5.474,5.474,0,0,0,5.474,5.474h2.329v8.843l5.924-8.843h20.5a5.474,5.474,0,0,0,5.474-5.474V161.021a5.474,5.474,0,0,0-5.474-5.474" transform="translate(-114.955 -14.093)" fill="#fff"/>
        <path id="패스_1796" data-name="패스 1796" d="M335.358,190.951a.517.517,0,0,1-.153-.023.524.524,0,0,1-.372-.5v-8.318h-1.8a6.005,6.005,0,0,1-6-6V160.3a6,6,0,0,1,6-6h28.757a6,6,0,0,1,6,6v15.814a6.005,6.005,0,0,1-6,6H341.562l-5.769,8.61A.524.524,0,0,1,335.358,190.951Zm-2.329-35.6a4.955,4.955,0,0,0-4.949,4.949v15.814a4.955,4.955,0,0,0,4.949,4.949h2.329a.525.525,0,0,1,.525.525V188.7l4.964-7.409a.525.525,0,0,1,.436-.232h20.5a4.955,4.955,0,0,0,4.949-4.949V160.3a4.955,4.955,0,0,0-4.949-4.949Z" transform="translate(-114.23 -13.367)" fill="#3e5672"/>
        <rect id="사각형_1179" data-name="사각형 1179" width="3.265" height="10.622" transform="translate(231.545 146.143)" fill="#fff"/>
        <path id="패스_1797" data-name="패스 1797" d="M374.233,177.4h-3.265a.524.524,0,0,1-.525-.525V166.257a.525.525,0,0,1,.525-.525h3.265a.525.525,0,0,1,.525.525v10.622A.524.524,0,0,1,374.233,177.4Zm-2.741-1.049h2.216v-9.573h-2.216Z" transform="translate(-139.422 -20.004)" fill="#fc5d5b"/>
        <rect id="사각형_1180" data-name="사각형 1180" width="3.265" height="3.316" transform="translate(231.545 159.687)" fill="#fff"/>
        <path id="패스_1798" data-name="패스 1798" d="M374.233,202.776h-3.265a.525.525,0,0,1-.525-.525v-3.316a.524.524,0,0,1,.525-.525h3.265a.524.524,0,0,1,.525.525v3.316A.525.525,0,0,1,374.233,202.776Zm-2.741-1.049h2.216V199.46h-2.216Z" transform="translate(-139.422 -39.247)" fill="#fc5d5b"/>
      </g>
      <path id="패스_1799" data-name="패스 1799" d="M147.175,250.358a6.77,6.77,0,1,1-6.77-6.77,6.77,6.77,0,0,1,6.77,6.77" transform="translate(0 -66.669)" fill="#fff"/>
      <line id="선_395" data-name="선 395" y1="2.338" transform="translate(140.405 179.022)" fill="#fff"/>
      <path id="패스_1800" data-name="패스 1800" d="M149.042,250.663a.525.525,0,0,1-.525-.525V247.8a.525.525,0,0,1,1.049,0v2.338A.525.525,0,0,1,149.042,250.663Z" transform="translate(-8.636 -68.778)" fill="#3e5672"/>
      <line id="선_396" data-name="선 396" x1="2.338" transform="translate(135.707 183.688)" fill="#fff"/>
      <path id="패스_1801" data-name="패스 1801" d="M140.186,259.519h-2.338a.525.525,0,1,1,0-1.049h2.338a.525.525,0,1,1,0,1.049Z" transform="translate(-2.14 -75.307)" fill="#3e5672"/>
      <line id="선_397" data-name="선 397" y2="2.339" transform="translate(140.405 186.016)" fill="#fff"/>
      <path id="패스_1802" data-name="패스 1802" d="M149.042,267.48a.525.525,0,0,1-.525-.525v-2.338a.525.525,0,1,1,1.049,0v2.338A.524.524,0,0,1,149.042,267.48Z" transform="translate(-8.636 -78.602)" fill="#3e5672"/>
      <line id="선_398" data-name="선 398" x2="2.338" transform="translate(142.765 183.688)" fill="#fff"/>
      <path id="패스_1803" data-name="패스 1803" d="M157,259.519h-2.338a.525.525,0,1,1,0-1.049H157a.525.525,0,1,1,0,1.049Z" transform="translate(-11.899 -75.307)" fill="#3e5672"/>
      <path id="패스_1804" data-name="패스 1804" d="M156.711,325.99h18.763v19.947a3.427,3.427,0,0,1-3.427,3.427h-11.91a3.427,3.427,0,0,1-3.427-3.427Z" transform="translate(-13.391 -115.004)" fill="#fff"/>
      <path id="패스_1805" data-name="패스 1805" d="M171.322,349.163h-11.91a3.956,3.956,0,0,1-3.951-3.952V325.265a.525.525,0,0,1,.525-.525h18.763a.525.525,0,0,1,.525.525v19.947A3.956,3.956,0,0,1,171.322,349.163ZM156.51,325.789v19.422a2.906,2.906,0,0,0,2.9,2.9h11.91a2.906,2.906,0,0,0,2.9-2.9V325.789Z" transform="translate(-12.666 -114.279)" fill="#3e5672"/>
      <path id="패스_1806" data-name="패스 1806" d="M164.391,350.541a.351.351,0,0,1-.351-.351V333.318h12.612V350.19a.351.351,0,0,1-.351.351Z" transform="translate(-17.644 -119.257)" fill="#cee6fe"/>
      <path id="패스_1807" data-name="패스 1807" d="M175.575,350.34h-11.91a.877.877,0,0,1-.876-.876V332.593a.525.525,0,0,1,.525-.525h12.612a.525.525,0,0,1,.525.525v16.872A.877.877,0,0,1,175.575,350.34Zm-11.736-1.049H175.4V333.117H163.839Z" transform="translate(-16.919 -118.531)" fill="#3e5672"/>
      <rect id="사각형_1181" data-name="사각형 1181" width="21.179" height="3.352" transform="translate(142.112 207.91)" fill="#fff"/>
      <path id="패스_1808" data-name="패스 1808" d="M174.287,321.155H153.109a.525.525,0,0,1-.525-.525v-3.352a.525.525,0,0,1,.525-.525h21.179a.525.525,0,0,1,.525.525v3.352A.525.525,0,0,1,174.287,321.155Zm-20.654-1.049h20.13v-2.3h-20.13Z" transform="translate(-10.996 -109.371)" fill="#3e5672"/>
    </g>
    <text id="_토의_토론_-_찬성vs반대_" data-name="[토의/토론 - 찬성vs반대]" transform="translate(281 357)" fill="#454c53" font-size="16" font-family="NotoSansKR-Medium, Noto Sans KR" font-weight="500"><tspan x="-82.336" y="0">[토의/토론 - 찬성vs반대]</tspan></text>
  </g>
</svg>
