<svg xmlns="http://www.w3.org/2000/svg" width="500" height="320" viewBox="0 0 500 320">
  <g id="noimage_t4_1" transform="translate(-31 -129)">
    <rect id="img_" width="500" height="320" transform="translate(31 129)" fill="#f5f5f5"/>
    <text id="_매칭형_게임_" data-name="[매칭형 게임]" transform="translate(281 357)" fill="#454c53" font-size="16" font-family="NotoSansKR-Medium, Noto Sans KR" font-weight="500"><tspan x="-44.28" y="0">[매칭형 게임]</tspan></text>
    <g id="그룹_1177" data-name="그룹 1177" transform="translate(-1357.26 91.65)">
      <path id="패스_2198" data-name="패스 2198" d="M1587.408,181.931V135.9a10.8,10.8,0,1,1,21.606,0v20.313a9.179,9.179,0,0,0,18.358,0,16.176,16.176,0,0,1,16.176-16.176h15.877" transform="translate(-11.254 -6.723)" fill="none" stroke="#97a7b7" stroke-linecap="round" stroke-linejoin="round" stroke-width="1"/>
      <path id="패스_2199" data-name="패스 2199" d="M1576.155,246.032h0a8.179,8.179,0,0,1-8.179-8.178v-9.77a8.178,8.178,0,0,1,16.357,0v9.77a8.178,8.178,0,0,1-8.178,8.178" transform="translate(0 -61.629)" fill="#fff" stroke="#707070" stroke-width="1"/>
      <path id="패스_2200" data-name="패스 2200" d="M1576.155,246.032h0a8.179,8.179,0,0,1-8.179-8.178v-9.77a8.178,8.178,0,0,1,16.357,0v9.77A8.178,8.178,0,0,1,1576.155,246.032Z" transform="translate(0 -61.629)" fill="none" stroke="#3e5672" stroke-linecap="round" stroke-linejoin="round" stroke-width="1"/>
      <path id="패스_2201" data-name="패스 2201" d="M1585.3,235.493h0a1.53,1.53,0,0,1-1.53-1.53v-2.914a1.53,1.53,0,0,1,3.06,0v2.914a1.53,1.53,0,0,1-1.53,1.53" transform="translate(-9.149 -67.197)" fill="#cee6fe" stroke="#707070" stroke-width="1"/>
      <path id="패스_2202" data-name="패스 2202" d="M1585.3,235.493h0a1.53,1.53,0,0,1-1.53-1.53v-2.914a1.53,1.53,0,0,1,3.06,0v2.914A1.53,1.53,0,0,1,1585.3,235.493Z" transform="translate(-9.149 -67.197)" fill="none" stroke="#3e5672" stroke-linecap="round" stroke-linejoin="round" stroke-width="1"/>
      <rect id="사각형_1350" data-name="사각형 1350" width="111.304" height="6.427" transform="translate(1586.605 145.458)" fill="#eef7ff" stroke="#707070" stroke-width="1"/>
      <rect id="사각형_1351" data-name="사각형 1351" width="111.304" height="6.427" transform="translate(1586.605 145.458)" fill="none" stroke="#97a7b7" stroke-linecap="round" stroke-linejoin="round" stroke-width="1"/>
      <rect id="사각형_1352" data-name="사각형 1352" width="111.304" height="6.427" transform="translate(1586.605 212.573)" fill="#eef7ff" stroke="#707070" stroke-width="1"/>
      <rect id="사각형_1353" data-name="사각형 1353" width="111.304" height="6.427" transform="translate(1586.605 212.573)" fill="none" stroke="#97a7b7" stroke-linecap="round" stroke-linejoin="round" stroke-width="1"/>
      <rect id="사각형_1354" data-name="사각형 1354" width="101.059" height="60.688" transform="translate(1591.727 151.885)" fill="#fff" stroke="#707070" stroke-width="1"/>
      <rect id="사각형_1355" data-name="사각형 1355" width="101.059" height="60.688" transform="translate(1591.727 151.885)" fill="none" stroke="#97a7b7" stroke-linecap="round" stroke-linejoin="round" stroke-width="1"/>
      <path id="패스_2203" data-name="패스 2203" d="M1670.195,234.682a15.5,15.5,0,0,1-29.321,7.029,15.346,15.346,0,0,1-1.688-7.029,15.5,15.5,0,0,1,31.009,0" transform="translate(-41.24 -61.21)" fill="#fff" stroke="#707070" stroke-width="1"/>
      <path id="패스_2204" data-name="패스 2204" d="M1670.195,234.682a15.5,15.5,0,0,1-29.321,7.029,15.346,15.346,0,0,1-1.688-7.029,15.5,15.5,0,0,1,31.009,0Z" transform="translate(-41.24 -61.21)" fill="none" stroke="#97a7b7" stroke-linecap="round" stroke-linejoin="round" stroke-width="1"/>
      <path id="패스_2205" data-name="패스 2205" d="M1654.686,219.182v15.5l-13.814,7.028a15.5,15.5,0,0,1,13.814-22.53" transform="translate(-41.24 -61.21)" fill="#eef7ff" stroke="#707070" stroke-width="1"/>
      <path id="패스_2206" data-name="패스 2206" d="M1654.686,219.182v15.5l-13.814,7.028a15.5,15.5,0,0,1,13.814-22.53Z" transform="translate(-41.24 -61.21)" fill="none" stroke="#97a7b7" stroke-linecap="round" stroke-linejoin="round" stroke-width="1"/>
      <rect id="사각형_1356" data-name="사각형 1356" width="5.627" height="23.814" transform="translate(1665.173 184.185)" fill="#fff" stroke="#707070" stroke-width="1"/>
      <rect id="사각형_1357" data-name="사각형 1357" width="5.627" height="23.814" transform="translate(1665.173 184.185)" fill="none" stroke="#97a7b7" stroke-linecap="round" stroke-linejoin="round" stroke-width="1"/>
      <rect id="사각형_1358" data-name="사각형 1358" width="5.627" height="44.635" transform="translate(1673.554 163.365)" fill="#fff" stroke="#707070" stroke-width="1"/>
      <rect id="사각형_1359" data-name="사각형 1359" width="5.627" height="44.635" transform="translate(1673.554 163.365)" fill="none" stroke="#97a7b7" stroke-linecap="round" stroke-linejoin="round" stroke-width="1"/>
      <rect id="사각형_1360" data-name="사각형 1360" width="5.627" height="33.427" transform="translate(1681.935 174.572)" fill="#fff" stroke="#707070" stroke-width="1"/>
      <rect id="사각형_1361" data-name="사각형 1361" width="5.627" height="33.427" transform="translate(1681.935 174.572)" fill="none" stroke="#97a7b7" stroke-linecap="round" stroke-linejoin="round" stroke-width="1"/>
      <line id="선_406" data-name="선 406" x2="25.61" transform="translate(1663.563 208)" fill="#fff" stroke="#707070" stroke-width="1"/>
      <line id="선_407" data-name="선 407" x2="25.61" transform="translate(1663.563 208)" fill="none" stroke="#97a7b7" stroke-linecap="round" stroke-linejoin="round" stroke-width="1"/>
      <line id="선_408" data-name="선 408" y1="0.96" x2="3.599" transform="translate(1631.399 223.313)" fill="#fff" stroke="#707070" stroke-width="1"/>
      <line id="선_409" data-name="선 409" y1="0.96" x2="3.599" transform="translate(1631.399 223.313)" fill="none" stroke="#3e5672" stroke-linecap="round" stroke-linejoin="round" stroke-width="1"/>
      <path id="패스_2207" data-name="패스 2207" d="M1593.3,186.042l21.131,21.13,7.716,2.962-2.962-7.716-21.13-21.131a1.6,1.6,0,0,0-2.254,0l-2.5,2.5a1.593,1.593,0,0,0,0,2.254" transform="translate(-14.394 -38.994)" fill="#cee6fe" stroke="#707070" stroke-width="1"/>
      <path id="패스_2208" data-name="패스 2208" d="M1593.3,186.042l21.131,21.13,7.716,2.962-2.962-7.716-21.13-21.131a1.6,1.6,0,0,0-2.254,0l-2.5,2.5A1.593,1.593,0,0,0,1593.3,186.042Z" transform="translate(-14.394 -38.994)" fill="none" stroke="#3e5672" stroke-linecap="round" stroke-linejoin="round" stroke-width="1"/>
      <path id="패스_2209" data-name="패스 2209" d="M1644.146,236.891l4.371,1.678,3.345,1.284-1.284-3.345-1.678-4.371Z" transform="translate(-44.113 -68.713)" fill="#fff" stroke="#707070" stroke-width="1"/>
      <path id="패스_2210" data-name="패스 2210" d="M1644.146,236.891l4.371,1.678,3.345,1.284-1.284-3.345-1.678-4.371Z" transform="translate(-44.113 -68.713)" fill="none" stroke="#3e5672" stroke-linecap="round" stroke-linejoin="round" stroke-width="1"/>
      <path id="패스_2211" data-name="패스 2211" d="M1654.531,244.584l3.345,1.284-1.284-3.345Z" transform="translate(-50.128 -74.728)" fill="#cee6fe" stroke="#707070" stroke-width="1"/>
      <path id="패스_2212" data-name="패스 2212" d="M1654.531,244.584l3.345,1.284-1.284-3.345Z" transform="translate(-50.128 -74.728)" fill="none" stroke="#3e5672" stroke-linecap="round" stroke-linejoin="round" stroke-width="1"/>
      <rect id="사각형_1362" data-name="사각형 1362" width="6.723" height="2.099" transform="translate(1580.448 148.593) rotate(-45)" fill="#fff" stroke="#707070" stroke-width="1"/>
      <rect id="사각형_1363" data-name="사각형 1363" width="6.723" height="2.099" transform="translate(1580.448 148.593) rotate(-45)" fill="none" stroke="#3e5672" stroke-linecap="round" stroke-linejoin="round" stroke-width="1"/>
      <path id="패스_2213" data-name="패스 2213" d="M1671.984,294.391v-7.167q-.559.032-1.117.032h-1a11.723,11.723,0,0,1-11.71-11.71V264.463h-13.08l13.1-22.576c.586-15.638,13.257-28.175,28.748-28.175l.535.005a28.893,28.893,0,0,1,28.2,28.745,28.574,28.574,0,0,1-6.988,18.781v33.148Z" transform="translate(-44.654 -58.042)" fill="#fff" stroke="#707070" stroke-width="1"/>
      <path id="패스_2214" data-name="패스 2214" d="M1714.326,295.921V265.26a24.676,24.676,0,0,0-17.217-41.878c-13.835-.263-25.16,11.4-25.16,25.234l-10.084,17.377h10.084v15.15a7.643,7.643,0,0,0,7.643,7.642h1a15.992,15.992,0,0,0,5.185-.872v8.008" transform="translate(-54.375 -63.64)" fill="#fff" stroke="#707070" stroke-width="1"/>
      <path id="패스_2215" data-name="패스 2215" d="M1714.326,295.921V265.26a24.676,24.676,0,0,0-17.217-41.878c-13.835-.263-25.16,11.4-25.16,25.234l-10.084,17.377h10.084v15.15a7.643,7.643,0,0,0,7.643,7.642h1a15.992,15.992,0,0,0,5.185-.872v8.008" transform="translate(-54.375 -63.64)" fill="none" stroke="#3e5672" stroke-linecap="round" stroke-linejoin="round" stroke-width="1"/>
      <path id="패스_2216" data-name="패스 2216" d="M1738.369,266.667v-3.9l-5.378-.926a11.162,11.162,0,0,0-1.144-2.764l3.147-4.456-2.759-2.76-4.456,3.147a11.141,11.141,0,0,0-2.764-1.144l-.925-5.378h-3.9l-.925,5.378a11.143,11.143,0,0,0-2.764,1.144l-4.456-3.147-2.759,2.76,3.147,4.456a11.152,11.152,0,0,0-1.143,2.764l-5.378.926v3.9l5.378.926a11.149,11.149,0,0,0,1.143,2.764l-3.147,4.456,2.759,2.759,4.456-3.147a11.143,11.143,0,0,0,2.764,1.143l.925,5.378h3.9l.925-5.378a11.141,11.141,0,0,0,2.764-1.143l4.456,3.147,2.759-2.759-3.147-4.456a11.152,11.152,0,0,0,1.144-2.764Z" transform="translate(-79.882 -78.181)" fill="#cee6fe" stroke="#707070" stroke-width="1"/>
      <path id="패스_2217" data-name="패스 2217" d="M1738.369,266.667v-3.9l-5.378-.926a11.162,11.162,0,0,0-1.144-2.764l3.147-4.456-2.759-2.76-4.456,3.147a11.141,11.141,0,0,0-2.764-1.144l-.925-5.378h-3.9l-.925,5.378a11.143,11.143,0,0,0-2.764,1.144l-4.456-3.147-2.759,2.76,3.147,4.456a11.152,11.152,0,0,0-1.143,2.764l-5.378.926v3.9l5.378.926a11.149,11.149,0,0,0,1.143,2.764l-3.147,4.456,2.759,2.759,4.456-3.147a11.143,11.143,0,0,0,2.764,1.143l.925,5.378h3.9l.925-5.378a11.141,11.141,0,0,0,2.764-1.143l4.456,3.147,2.759-2.759-3.147-4.456a11.152,11.152,0,0,0,1.144-2.764Z" transform="translate(-79.882 -78.181)" fill="none" stroke="#3e5672" stroke-linecap="round" stroke-linejoin="round" stroke-width="1"/>
      <path id="패스_2218" data-name="패스 2218" d="M1741.981,277.931a6.626,6.626,0,1,1-6.626-6.626,6.627,6.627,0,0,1,6.626,6.626" transform="translate(-93.097 -91.396)" fill="#fff" stroke="#707070" stroke-width="1"/>
      <path id="패스_2219" data-name="패스 2219" d="M1741.981,277.931a6.626,6.626,0,1,1-6.626-6.626A6.627,6.627,0,0,1,1741.981,277.931Z" transform="translate(-93.097 -91.396)" fill="none" stroke="#fc7f54" stroke-linecap="round" stroke-linejoin="round" stroke-width="1"/>
      <path id="패스_2220" data-name="패스 2220" d="M1743.073,281.93a3.721,3.721,0,1,1-3.72-3.72,3.721,3.721,0,0,1,3.72,3.72" transform="translate(-97.096 -95.395)" fill="#fff" stroke="#707070" stroke-width="1"/>
      <path id="패스_2221" data-name="패스 2221" d="M1743.073,281.93a3.721,3.721,0,1,1-3.72-3.72A3.721,3.721,0,0,1,1743.073,281.93Z" transform="translate(-97.096 -95.395)" fill="none" stroke="#3e5672" stroke-linecap="round" stroke-linejoin="round" stroke-width="1"/>
      <path id="패스_2222" data-name="패스 2222" d="M1830.457,160.7h-33.286a6.336,6.336,0,0,0-6.336,6.337v18.3a6.336,6.336,0,0,0,6.336,6.336h2.7v10.235l6.858-10.235h23.733a6.336,6.336,0,0,0,6.336-6.336v-18.3a6.336,6.336,0,0,0-6.336-6.337" transform="translate(-129.066 -27.342)" fill="#fff" stroke="#707070" stroke-width="1"/>
      <path id="패스_2223" data-name="패스 2223" d="M1830.457,160.7h-33.286a6.336,6.336,0,0,0-6.336,6.337v18.3a6.336,6.336,0,0,0,6.336,6.336h2.7v10.235l6.858-10.235h23.733a6.336,6.336,0,0,0,6.336-6.336v-18.3A6.336,6.336,0,0,0,1830.457,160.7Z" transform="translate(-129.066 -27.342)" fill="none" stroke="#3e5672" stroke-linecap="round" stroke-linejoin="round" stroke-width="1"/>
      <path id="패스_2224" data-name="패스 2224" d="M1813.077,381.285a5.909,5.909,0,1,1-5.909-5.909,5.909,5.909,0,0,1,5.909,5.909" transform="translate(-135.102 -151.668)" fill="#fff" stroke="#707070" stroke-width="1"/>
      <line id="선_410" data-name="선 410" y1="2.041" transform="translate(1672.065 225.517)" fill="#fff" stroke="#707070" stroke-width="1"/>
      <line id="선_411" data-name="선 411" y1="2.041" transform="translate(1672.065 225.517)" fill="none" stroke="#3e5672" stroke-linecap="round" stroke-linejoin="round" stroke-width="1"/>
      <line id="선_412" data-name="선 412" x1="2.041" transform="translate(1667.964 229.617)" fill="#fff" stroke="#707070" stroke-width="1"/>
      <line id="선_413" data-name="선 413" x1="2.041" transform="translate(1667.964 229.617)" fill="none" stroke="#3e5672" stroke-linecap="round" stroke-linejoin="round" stroke-width="1"/>
      <line id="선_414" data-name="선 414" y2="2.041" transform="translate(1672.065 231.677)" fill="#fff" stroke="#707070" stroke-width="1"/>
      <line id="선_415" data-name="선 415" y2="2.041" transform="translate(1672.065 231.677)" fill="none" stroke="#3e5672" stroke-linecap="round" stroke-linejoin="round" stroke-width="1"/>
      <line id="선_416" data-name="선 416" x2="2.041" transform="translate(1674.125 229.617)" fill="#fff" stroke="#707070" stroke-width="1"/>
      <line id="선_417" data-name="선 417" x2="2.041" transform="translate(1674.125 229.617)" fill="none" stroke="#3e5672" stroke-linecap="round" stroke-linejoin="round" stroke-width="1"/>
      <path id="패스_2225" data-name="패스 2225" d="M1786.635,123.416a9.926,9.926,0,1,1-9.926-9.926,9.926,9.926,0,0,1,9.926,9.926" transform="translate(-115.136)" fill="#fff" stroke="#707070" stroke-width="1"/>
      <line id="선_418" data-name="선 418" y1="3.287" transform="translate(1661.573 116.812)" fill="#fff" stroke="#707070" stroke-width="1"/>
      <line id="선_419" data-name="선 419" y1="3.287" transform="translate(1661.573 116.812)" fill="none" stroke="#3e5672" stroke-linecap="round" stroke-linejoin="round" stroke-width="1"/>
      <line id="선_420" data-name="선 420" x1="2.324" y1="2.324" transform="translate(1656.903 118.746)" fill="#fff" stroke="#707070" stroke-width="1"/>
      <line id="선_421" data-name="선 421" x1="2.324" y1="2.324" transform="translate(1656.903 118.746)" fill="none" stroke="#3e5672" stroke-linecap="round" stroke-linejoin="round" stroke-width="1"/>
      <line id="선_422" data-name="선 422" x1="3.287" transform="translate(1654.968 123.416)" fill="#fff" stroke="#707070" stroke-width="1"/>
      <line id="선_423" data-name="선 423" x1="3.287" transform="translate(1654.968 123.416)" fill="none" stroke="#3e5672" stroke-linecap="round" stroke-linejoin="round" stroke-width="1"/>
      <line id="선_424" data-name="선 424" x1="2.324" y2="2.324" transform="translate(1656.903 125.762)" fill="#fff" stroke="#707070" stroke-width="1"/>
      <line id="선_425" data-name="선 425" x1="2.324" y2="2.324" transform="translate(1656.903 125.762)" fill="none" stroke="#3e5672" stroke-linecap="round" stroke-linejoin="round" stroke-width="1"/>
      <line id="선_426" data-name="선 426" y2="3.287" transform="translate(1661.573 126.733)" fill="#fff" stroke="#707070" stroke-width="1"/>
      <line id="선_427" data-name="선 427" y2="3.287" transform="translate(1661.573 126.733)" fill="none" stroke="#3e5672" stroke-linecap="round" stroke-linejoin="round" stroke-width="1"/>
      <line id="선_428" data-name="선 428" x2="2.324" y2="2.324" transform="translate(1663.918 125.762)" fill="#fff" stroke="#707070" stroke-width="1"/>
      <line id="선_429" data-name="선 429" x2="2.324" y2="2.324" transform="translate(1663.918 125.762)" fill="none" stroke="#3e5672" stroke-linecap="round" stroke-linejoin="round" stroke-width="1"/>
      <line id="선_430" data-name="선 430" x2="3.287" transform="translate(1664.89 123.416)" fill="#fff" stroke="#707070" stroke-width="1"/>
      <line id="선_431" data-name="선 431" x2="3.287" transform="translate(1664.89 123.416)" fill="none" stroke="#3e5672" stroke-linecap="round" stroke-linejoin="round" stroke-width="1"/>
      <line id="선_432" data-name="선 432" y1="2.324" x2="2.324" transform="translate(1663.918 118.746)" fill="#fff" stroke="#707070" stroke-width="1"/>
      <line id="선_433" data-name="선 433" y1="2.324" x2="2.324" transform="translate(1663.918 118.746)" fill="none" stroke="#3e5672" stroke-linecap="round" stroke-linejoin="round" stroke-width="1"/>
      <path id="패스_2226" data-name="패스 2226" d="M1770.453,164.458a4.865,4.865,0,1,1-4.865-4.865,4.865,4.865,0,0,1,4.865,4.865" transform="translate(-111.627 -26.7)" fill="#fff" stroke="#707070" stroke-width="1"/>
      <path id="패스_2227" data-name="패스 2227" d="M1771.623,168.739a1.754,1.754,0,1,1-1.754-1.754,1.754,1.754,0,0,1,1.754,1.754" transform="translate(-115.908 -30.981)" fill="#fff" stroke="#707070" stroke-width="1"/>
      <path id="패스_2228" data-name="패스 2228" d="M1771.623,168.739a1.754,1.754,0,1,1-1.754-1.754A1.754,1.754,0,0,1,1771.623,168.739Z" transform="translate(-115.908 -30.981)" fill="none" stroke="#3e5672" stroke-linecap="round" stroke-linejoin="round" stroke-width="1"/>
      <path id="패스_2229" data-name="패스 2229" d="M1648.476,342.158a4.865,4.865,0,1,1-4.865-4.865,4.865,4.865,0,0,1,4.865,4.865" transform="translate(-40.986 -129.613)" fill="#fff" stroke="#707070" stroke-width="1"/>
      <path id="패스_2230" data-name="패스 2230" d="M1649.646,346.439a1.754,1.754,0,1,1-1.754-1.754,1.754,1.754,0,0,1,1.754,1.754" transform="translate(-45.266 -133.894)" fill="#fff" stroke="#707070" stroke-width="1"/>
      <path id="패스_2231" data-name="패스 2231" d="M1649.646,346.439a1.754,1.754,0,1,1-1.754-1.754A1.754,1.754,0,0,1,1649.646,346.439Z" transform="translate(-45.266 -133.894)" fill="none" stroke="#3e5672" stroke-linecap="round" stroke-linejoin="round" stroke-width="1"/>
      <line id="선_434" data-name="선 434" x2="28.405" transform="translate(1678.648 198.692)" fill="#fff" stroke="#707070" stroke-width="1"/>
      <line id="선_435" data-name="선 435" x2="28.405" transform="translate(1678.648 198.692)" fill="none" stroke="#3e5672" stroke-linecap="round" stroke-linejoin="round" stroke-width="1"/>
      <path id="패스_2232" data-name="패스 2232" d="M1829.343,314.635h0l13.508-32.359-3.22-1.181-12.326,29.14a3.429,3.429,0,0,0,2.038,4.4" transform="translate(-150.065 -97.066)" fill="#fff" stroke="#707070" stroke-width="1"/>
      <path id="패스_2233" data-name="패스 2233" d="M1829.343,314.635h0l13.508-32.359-3.22-1.181-12.326,29.14A3.429,3.429,0,0,0,1829.343,314.635Z" transform="translate(-150.065 -97.066)" fill="none" stroke="#3e5672" stroke-linecap="round" stroke-linejoin="round" stroke-width="1"/>
      <line id="선_436" data-name="선 436" y1="4.883" x2="1.752" transform="translate(1677.526 217.569)" fill="#fff" stroke="#707070" stroke-width="1"/>
      <line id="선_437" data-name="선 437" y1="4.883" x2="1.752" transform="translate(1677.526 217.569)" fill="none" stroke="#3e5672" stroke-linecap="round" stroke-linejoin="round" stroke-width="1"/>
      <path id="패스_2234" data-name="패스 2234" d="M1878.042,314.635h0l-13.508-32.359,3.219-1.181,12.327,29.14a3.43,3.43,0,0,1-2.038,4.4" transform="translate(-171.748 -97.066)" fill="#fff" stroke="#707070" stroke-width="1"/>
      <path id="패스_2235" data-name="패스 2235" d="M1878.042,314.635h0l-13.508-32.359,3.219-1.181,12.327,29.14A3.43,3.43,0,0,1,1878.042,314.635Z" transform="translate(-171.748 -97.066)" fill="none" stroke="#3e5672" stroke-linecap="round" stroke-linejoin="round" stroke-width="1"/>
      <line id="선_438" data-name="선 438" x1="1.753" y1="4.883" transform="translate(1706.294 217.569)" fill="#fff" stroke="#707070" stroke-width="1"/>
      <line id="선_439" data-name="선 439" x1="1.753" y1="4.883" transform="translate(1706.294 217.569)" fill="none" stroke="#3e5672" stroke-linecap="round" stroke-linejoin="round" stroke-width="1"/>
      <rect id="사각형_1364" data-name="사각형 1364" width="3.771" height="6.049" transform="translate(1690.901 174.573)" fill="#cee6fe" stroke="#707070" stroke-width="1"/>
      <rect id="사각형_1365" data-name="사각형 1365" width="3.771" height="6.049" transform="translate(1690.901 174.573)" fill="none" stroke="#3e5672" stroke-linecap="round" stroke-linejoin="round" stroke-width="1"/>
      <path id="패스_2236" data-name="패스 2236" d="M1862.458,276.3a5.521,5.521,0,1,1-5.521-5.521,5.52,5.52,0,0,1,5.521,5.521" transform="translate(-164.151 -91.095)" fill="#cee6fe" stroke="#707070" stroke-width="1"/>
      <path id="패스_2237" data-name="패스 2237" d="M1862.458,276.3a5.521,5.521,0,1,1-5.521-5.521A5.52,5.52,0,0,1,1862.458,276.3Z" transform="translate(-164.151 -91.095)" fill="none" stroke="#3e5672" stroke-linecap="round" stroke-linejoin="round" stroke-width="1"/>
      <path id="패스_2238" data-name="패스 2238" d="M1863.9,281.568a1.7,1.7,0,1,1-1.7-1.7,1.7,1.7,0,0,1,1.7,1.7" transform="translate(-169.413 -96.357)" fill="#cee6fe" stroke="#707070" stroke-width="1"/>
      <path id="패스_2239" data-name="패스 2239" d="M1863.9,281.568a1.7,1.7,0,1,1-1.7-1.7A1.7,1.7,0,0,1,1863.9,281.568Z" transform="translate(-169.413 -96.357)" fill="none" stroke="#3e5672" stroke-linecap="round" stroke-linejoin="round" stroke-width="1"/>
      <rect id="사각형_1366" data-name="사각형 1366" width="2.026" height="6.18" transform="translate(1691.774 195.601)" fill="#fff" stroke="#707070" stroke-width="1"/>
      <rect id="사각형_1367" data-name="사각형 1367" width="2.026" height="6.18" transform="translate(1691.774 195.601)" fill="none" stroke="#3e5672" stroke-linecap="round" stroke-linejoin="round" stroke-width="1"/>
      <rect id="사각형_1368" data-name="사각형 1368" width="27.495" height="4.18" transform="translate(1574.624 191.006)" fill="#fff" stroke="#707070" stroke-width="1"/>
      <rect id="사각형_1369" data-name="사각형 1369" width="27.495" height="4.18" transform="translate(1574.624 191.006)" fill="none" stroke="#97a7b7" stroke-linecap="round" stroke-linejoin="round" stroke-width="1"/>
      <rect id="사각형_1370" data-name="사각형 1370" width="27.495" height="4.18" transform="translate(1574.624 229.903)" fill="#fff" stroke="#707070" stroke-width="1"/>
      <rect id="사각형_1371" data-name="사각형 1371" width="27.495" height="4.18" transform="translate(1574.624 229.903)" fill="none" stroke="#97a7b7" stroke-linecap="round" stroke-linejoin="round" stroke-width="1"/>
      <path id="패스_2240" data-name="패스 2240" d="M1612.048,307.607H1588.7a19.583,19.583,0,0,0,6.485,14.559l3.112,2.8-3.112,2.8a19.583,19.583,0,0,0-6.485,14.559h23.347a19.584,19.584,0,0,0-6.486-14.559l-3.112-2.8,3.112-2.8a19.584,19.584,0,0,0,6.486-14.559" transform="translate(-12.003 -112.42)" fill="#fff" stroke="#707070" stroke-width="1"/>
      <path id="패스_2241" data-name="패스 2241" d="M1612.048,307.607H1588.7a19.583,19.583,0,0,0,6.485,14.559l3.112,2.8-3.112,2.8a19.583,19.583,0,0,0-6.485,14.559h23.347a19.584,19.584,0,0,0-6.486-14.559l-3.112-2.8,3.112-2.8A19.584,19.584,0,0,0,1612.048,307.607Z" transform="translate(-12.003 -112.42)" fill="none" stroke="#97a7b7" stroke-linecap="round" stroke-linejoin="round" stroke-width="1"/>
      <path id="패스_2242" data-name="패스 2242" d="M1596.328,343.431a16.667,16.667,0,0,1,5.246-9.422l3.218-2.9,3.218,2.9a16.665,16.665,0,0,1,5.246,9.422Zm5.246-19.4a16.669,16.669,0,0,1-5.246-9.422h16.927a16.668,16.668,0,0,1-5.246,9.422l-3.218,2.9Z" transform="translate(-16.42 -116.474)" fill="#eef7ff" stroke="#707070" stroke-width="1"/>
      <path id="패스_2243" data-name="패스 2243" d="M1596.328,343.431a16.667,16.667,0,0,1,5.246-9.422l3.218-2.9,3.218,2.9a16.665,16.665,0,0,1,5.246,9.422Zm5.246-19.4a16.669,16.669,0,0,1-5.246-9.422h16.927a16.668,16.668,0,0,1-5.246,9.422l-3.218,2.9Z" transform="translate(-16.42 -116.474)" fill="none" stroke="#97a7b7" stroke-linecap="round" stroke-linejoin="round" stroke-width="1"/>
      <path id="패스_2244" data-name="패스 2244" d="M1857.212,183.589a1.02,1.02,0,0,0-.927.445c-.3.574-.7.537-.7.537a.631.631,0,0,1-.667-.463v-4.282h-4.388a.63.63,0,0,1-.464-.667s-.037-.408.538-.7a1.021,1.021,0,0,0,.445-.927s-.018-1.131-1.928-1.279c-1.909.148-1.928,1.279-1.928,1.279a1.021,1.021,0,0,0,.445.927c.574.3.537.7.537.7a.63.63,0,0,1-.463.667h-4.265v4.282a.631.631,0,0,0,.668.463s.408.037.7-.537a1.021,1.021,0,0,1,.927-.445s1.13.019,1.279,1.928c-.149,1.909-1.279,1.928-1.279,1.928a1.021,1.021,0,0,1-.927-.445c-.3-.574-.7-.537-.7-.537a.631.631,0,0,0-.668.463v4.282h4.421l-.5-2.629,1.752-.564,1.957.721-.736,2.471h4.577v-4.282a.631.631,0,0,1,.667-.463s.408-.037.7.537a1.02,1.02,0,0,0,.927.445s1.13-.019,1.279-1.928C1858.343,183.608,1857.212,183.589,1857.212,183.589Z" transform="translate(-159.523 -36.346)" fill="#cee6fe" stroke="#707070" stroke-width="1"/>
      <path id="패스_2245" data-name="패스 2245" d="M1840.52,182.754a1.283,1.283,0,0,0-1.182.585c-.22.426-.486.423-.511.423a.417.417,0,0,1-.447-.267v-4.471a.238.238,0,0,0-.238-.238h-4.363c-.062-.02-.267-.111-.267-.461,0-.011,0-.277.443-.508a1.283,1.283,0,0,0,.565-1.171c-.009-.162-.147-1.37-2.2-1.529h-.037c-2.049.159-2.187,1.368-2.2,1.529a1.286,1.286,0,0,0,.584,1.182c.426.22.423.485.423.511a.418.418,0,0,1-.268.447h-4.365a.242.242,0,0,0-.085-.017.233.233,0,0,0-.089.018h-4.3a.216.216,0,0,0-.047,0,.876.876,0,0,0-.666.9,1.028,1.028,0,0,0,.66.944.8.8,0,0,1,.348.721c0,.009,0,.017,0,.026s-.035.938-1.74,1.077c-1.679-.137-1.737-1.041-1.739-1.077a.235.235,0,0,0,0-.026.8.8,0,0,1,.343-.716,1.042,1.042,0,0,0,.667-.927.886.886,0,0,0-.667-.918.218.218,0,0,0-.047,0H1814.7a.238.238,0,0,0-.238.238V190.79a.238.238,0,0,0,.238.238h4.363c.062.019.267.11.267.461,0,.011,0,.276-.443.508a1.283,1.283,0,0,0-.565,1.171c.009.162.147,1.37,2.2,1.529h.037c2.049-.159,2.187-1.367,2.2-1.529a1.285,1.285,0,0,0-.585-1.182c-.426-.22-.423-.485-.422-.511a.417.417,0,0,1,.268-.446h4.362a.214.214,0,0,0,.046-.01.21.21,0,0,0,.043.009h4.392a.251.251,0,0,0,.047,0,.877.877,0,0,0,.666-.9,1.042,1.042,0,0,0-.666-.949.8.8,0,0,1-.343-.716.166.166,0,0,0,0-.026c0-.009.035-.938,1.74-1.077,1.678.137,1.737,1.042,1.739,1.077a.228.228,0,0,0,0,.026.8.8,0,0,1-.343.716,1.043,1.043,0,0,0-.667.928.887.887,0,0,0,.667.918.251.251,0,0,0,.047,0h4.3a.243.243,0,0,0,.089.017.238.238,0,0,0,.238-.238v-4.363c.02-.062.111-.267.461-.267.008,0,.277,0,.508.443a1.282,1.282,0,0,0,1.171.565c.162-.009,1.37-.148,1.529-2.2a.268.268,0,0,0,0-.037C1841.89,182.9,1840.681,182.764,1840.52,182.754Zm-14.379,3.535v4.263h-4.154a.247.247,0,0,0-.047,0,.876.876,0,0,0-.666.9,1.028,1.028,0,0,0,.66.944.8.8,0,0,1,.348.721c0,.008,0,.017,0,.026s-.035.938-1.74,1.077c-1.679-.137-1.737-1.042-1.739-1.077a.22.22,0,0,0,0-.026.8.8,0,0,1,.343-.716,1.043,1.043,0,0,0,.667-.928.886.886,0,0,0-.667-.918.249.249,0,0,0-.047,0h-4.154v-11.29h4.124c.062.02.267.111.267.461,0,.011,0,.277-.443.508a1.283,1.283,0,0,0-.565,1.171c.009.162.147,1.37,2.2,1.529h.037c2.049-.159,2.187-1.367,2.2-1.529a1.285,1.285,0,0,0-.585-1.182c-.426-.22-.423-.485-.422-.511a.418.418,0,0,1,.268-.447h4.124V183.4a.246.246,0,0,0,0,.047.876.876,0,0,0,.894.666h0a1.041,1.041,0,0,0,.949-.666.8.8,0,0,1,.716-.343l.026,0c.009,0,.938.035,1.077,1.739-.137,1.679-1.042,1.738-1.077,1.739l-.026,0a.8.8,0,0,1-.716-.343,1.044,1.044,0,0,0-.927-.667.888.888,0,0,0-.918.667A.249.249,0,0,0,1826.14,186.289Zm14.355.42-.026,0a.8.8,0,0,1-.716-.342,1.043,1.043,0,0,0-.927-.667.887.887,0,0,0-.918.667.252.252,0,0,0,0,.047v4.137h-4.125c-.062-.019-.267-.11-.267-.461,0-.011,0-.277.443-.508a1.283,1.283,0,0,0,.565-1.171c-.009-.162-.147-1.37-2.2-1.53h-.037c-2.049.16-2.187,1.368-2.2,1.53a1.285,1.285,0,0,0,.584,1.182c.426.22.423.485.423.511a.417.417,0,0,1-.268.446h-4.212v-4.233c.02-.062.111-.267.461-.267.007,0,.276,0,.508.442a1.285,1.285,0,0,0,1.171.565c.162-.009,1.37-.148,1.529-2.2a.235.235,0,0,0,0-.037c-.159-2.049-1.368-2.187-1.529-2.2a1.287,1.287,0,0,0-1.183.585c-.22.426-.485.425-.51.423a.418.418,0,0,1-.447-.267v-4.108h4.243a.221.221,0,0,0,.047,0,.876.876,0,0,0,.666-.9,1.041,1.041,0,0,0-.666-.949.8.8,0,0,1-.343-.716.17.17,0,0,0,0-.026c0-.01.035-.938,1.74-1.077,1.678.137,1.737,1.042,1.739,1.077a.237.237,0,0,0,0,.026.8.8,0,0,1-.343.716,1.042,1.042,0,0,0-.667.927.886.886,0,0,0,.667.918.22.22,0,0,0,.047,0h4.154v4.263a.245.245,0,0,0,0,.046.876.876,0,0,0,.895.666h0a1.041,1.041,0,0,0,.949-.666.8.8,0,0,1,.716-.343l.026,0c.009,0,.938.035,1.077,1.739C1841.436,186.648,1840.531,186.707,1840.5,186.709Z" transform="translate(-142.751 -35.69)" fill="#3e5672" stroke="#3e5672" stroke-miterlimit="10" stroke-width="1"/>
    </g>
  </g>
</svg>
