<svg width="30" height="31" viewBox="0 0 30 31" fill="none" xmlns="http://www.w3.org/2000/svg">
<rect y="0.0957031" width="30" height="30" rx="5" fill="#24C3ED"/>
<path d="M16.7842 9.99899H16.6261C16.0839 10.0743 15.5267 10.1044 14.9544 10.0894C14.4122 10.0743 13.8776 10.0216 13.3505 9.93122C12.8535 9.8258 12.5221 9.81827 12.3565 9.90863C12.1757 9.99899 12.2059 10.2174 12.4468 10.5638C13.0944 11.3017 13.7044 11.761 14.2767 11.9418C14.8941 12.1376 15.745 12.0848 16.8294 11.7836C17.1306 11.6782 17.364 11.5201 17.5297 11.3092C17.6803 11.0984 17.7556 10.8875 17.7556 10.6767C17.7405 10.4508 17.6502 10.2701 17.4845 10.1345C17.3038 9.99899 17.0704 9.95381 16.7842 9.99899ZM14.367 13.9975L14.4122 13.9749C15.1351 13.8996 15.7902 13.8394 16.3776 13.7942C17.1457 13.734 17.6728 13.7189 17.9589 13.749C18.1246 13.749 18.3053 13.7641 18.5011 13.7942C18.6216 13.8093 18.7872 13.8394 18.9981 13.8846C19.4951 13.9599 19.8415 13.99 20.0372 13.9749C20.3535 13.9448 20.5945 13.8017 20.7601 13.5457C21.0463 13.1993 21.0764 12.8605 20.8505 12.5291C20.6397 12.2129 20.2556 11.9719 19.6984 11.8062C19.3671 11.7159 19.0884 11.6857 18.8625 11.7159C18.7119 11.746 18.5086 11.8138 18.2526 11.9192C18.0719 11.9945 17.9288 12.0547 17.8234 12.0999C17.6427 12.1601 17.4619 12.2129 17.2812 12.258C15.73 12.4839 14.2767 12.627 12.9212 12.6873C11.6712 12.7475 10.6622 12.7324 9.89411 12.6421C9.45736 12.5818 9.17874 12.627 9.05826 12.7776C8.95284 12.8981 8.99049 13.0864 9.17121 13.3424C9.32182 13.5833 9.55525 13.8168 9.87152 14.0427C10.2028 14.2837 10.5492 14.4719 10.9107 14.6075C11.2119 14.7129 11.4529 14.7581 11.6336 14.743C11.7691 14.7279 11.98 14.6677 12.2661 14.5623C12.5523 14.4418 12.8083 14.3514 13.0342 14.2912C13.4258 14.1707 13.87 14.0728 14.367 13.9975ZM15.5643 14.2686H15.474C14.3746 14.2686 13.4408 14.6225 12.6727 15.3303C11.98 15.9629 11.6336 16.6331 11.6336 17.3409C11.6336 18.2295 12.0929 18.9599 13.0116 19.5322C13.855 20.0744 14.8791 20.3454 16.0839 20.3454C16.9273 20.3454 17.7405 20.1195 18.5237 19.6677C19.4725 19.1557 19.9469 18.5006 19.9469 17.7024C19.9469 16.6632 19.5026 15.8198 18.614 15.1722C17.7707 14.5698 16.7541 14.2686 15.5643 14.2686ZM15.8128 15.8725H15.8806C16.3926 15.8725 16.8821 16.0307 17.349 16.3469C17.7857 16.6481 18.0041 16.9569 18.0041 17.2731C18.0041 17.6346 17.7933 17.9508 17.3716 18.2219C16.9499 18.493 16.4529 18.6286 15.8806 18.6286C15.2631 18.6286 14.7209 18.5156 14.2541 18.2897C13.727 18.0337 13.4634 17.6948 13.4634 17.2731C13.4634 16.8816 13.7194 16.5427 14.2315 16.2566C14.7134 16.0005 15.2405 15.8725 15.8128 15.8725Z" fill="white"/>
</svg>
