<svg width="30" height="30" viewBox="0 0 30 30" fill="none" xmlns="http://www.w3.org/2000/svg">
<g clip-path="url(#clip0_6064_92907)">
<path d="M25 0H5C2.23858 0 0 2.23858 0 5V25C0 27.7614 2.23858 30 5 30H25C27.7614 30 30 27.7614 30 25V5C30 2.23858 27.7614 0 25 0Z" fill="#209DDF"/>
<mask id="mask0_6064_92907" style="mask-type:alpha" maskUnits="userSpaceOnUse" x="3" y="3" width="24" height="24">
<rect x="3" y="3" width="24" height="24" fill="#D9D9D9"/>
</mask>
<g mask="url(#mask0_6064_92907)">
<path d="M23 10.4231V21.3846C23 21.8449 22.8458 22.2292 22.5375 22.5375C22.2292 22.8458 21.8449 23 21.3846 23H8.61538C8.15513 23 7.77083 22.8458 7.4625 22.5375C7.15417 22.2292 7 21.8449 7 21.3846V8.61537C7 8.15512 7.15417 7.77083 7.4625 7.4625C7.77083 7.15417 8.15513 7 8.61538 7H19.5769L23 10.4231ZM22 10.85L19.15 8H8.61538C8.43589 8 8.28846 8.05769 8.17308 8.17308C8.05769 8.28846 8 8.43589 8 8.61537V21.3846C8 21.5641 8.05769 21.7115 8.17308 21.8269C8.28846 21.9423 8.43589 22 8.61538 22H21.3846C21.5641 22 21.7115 21.9423 21.8269 21.8269C21.9423 21.7115 22 21.5641 22 21.3846V10.85ZM15 19.5385C15.5513 19.5385 16.0224 19.343 16.4135 18.9519C16.8045 18.5609 17 18.0898 17 17.5385C17 16.9872 16.8045 16.516 16.4135 16.125C16.0224 15.734 15.5513 15.5385 15 15.5385C14.4487 15.5385 13.9776 15.734 13.5865 16.125C13.1955 16.516 13 16.9872 13 17.5385C13 18.0898 13.1955 18.5609 13.5865 18.9519C13.9776 19.343 14.4487 19.5385 15 19.5385ZM9.76923 12.7692H17.1923V9.76923H9.76923V12.7692Z" fill="white"/>
</g>
</g>
<defs>
<clipPath id="clip0_6064_92907">
<rect width="30" height="30" fill="white"/>
</clipPath>
</defs>
</svg>
