<svg width="30" height="30" viewBox="0 0 30 30" fill="none" xmlns="http://www.w3.org/2000/svg">
<g clip-path="url(#clip0_6066_92930)">
<path d="M25 0H5C2.23858 0 0 2.23858 0 5V25C0 27.7614 2.23858 30 5 30H25C27.7614 30 30 27.7614 30 25V5C30 2.23858 27.7614 0 25 0Z" fill="#F17A26"/>
<path fill-rule="evenodd" clip-rule="evenodd" d="M7 15V15H7.04395C7.44192 11.4 10.494 8.6 14.2 8.6V15.8H21.4C21.4 19.7765 18.1764 23 14.2 23C10.2235 23 7 19.7765 7 15.8C7 15.5296 7.0149 15.2627 7.04394 15H7V15ZM21.2222 15C21.2222 11.5635 18.4364 8.77776 15 8.77773V7C19.4183 7 23 10.5817 23 15V15H21.2222V15Z" fill="white"/>
</g>
<defs>
<clipPath id="clip0_6066_92930">
<rect width="30" height="30" fill="white"/>
</clipPath>
</defs>
</svg>
