<svg width="30" height="31" viewBox="0 0 30 31" fill="none" xmlns="http://www.w3.org/2000/svg">
<rect y="0.0957031" width="30" height="30" rx="5" fill="#EF3C36"/>
<path d="M18.3987 16.0001C17.8408 15.5709 17.3067 15.1116 16.7988 14.6242C16.2911 14.1165 15.8389 13.6248 15.4453 13.1555C15.8735 12.0634 16.1713 10.9246 16.3327 9.76268C16.3327 7.54949 15.5328 7.09619 14.3328 7.09619C13.4209 7.09619 12.333 7.56976 12.333 9.82668C12.4795 11.1703 13.0482 12.4328 13.9574 13.4328C13.6929 14.2392 13.3825 15.1693 13.0337 16.2188C12.8652 16.7222 12.6842 17.189 12.4908 17.6192C12.3344 17.6903 12.1822 17.7614 12.0343 17.8325C11.501 18.0971 11.0008 18.336 10.5347 18.5568C8.40151 19.5647 7 20.2313 7 21.5432C7 22.5032 8.03886 23.0951 8.99987 23.0951C10.2393 23.0951 12.1111 21.4398 13.4796 18.6506C14.9649 18.1036 16.4963 17.6906 18.0553 17.4166C18.899 18.1893 19.9054 18.763 21.0001 19.0954C22.6534 19.0954 23 18.1355 23 17.3387C23 15.7623 21.1996 15.7623 20.3335 15.7623C19.6843 15.8014 19.0381 15.8809 18.3987 16.0001ZM8.99987 21.7597C8.75987 21.7665 8.52474 21.6913 8.33324 21.5464C8.33324 21.0739 9.74222 20.4062 11.1064 19.7599L11.3698 19.6351C10.3683 21.0889 9.37851 21.7619 8.99987 21.7619V21.7597ZM13.6662 9.82668C13.6662 8.42944 14.1003 8.42944 14.3328 8.42944C14.8043 8.42944 14.9995 8.42944 14.9995 9.76268C14.8921 10.4728 14.7134 11.1703 14.4662 11.8447C14.0226 11.2564 13.7462 10.5591 13.6662 9.82668ZM14.1771 16.9921C14.2184 16.8762 14.2589 16.7588 14.2987 16.6401C14.5462 15.8935 14.7691 15.2311 14.9675 14.6306C15.2434 14.9342 15.5417 15.2464 15.8623 15.5671C15.9871 15.6919 16.2975 15.9735 16.7156 16.3254C15.8922 16.5046 15.0187 16.7265 14.1825 16.991L14.1771 16.9921ZM21.6657 17.3387C21.6657 17.6384 21.6657 17.7653 21.0471 17.7653C20.6473 17.6021 20.2707 17.3869 19.9271 17.1254C20.1149 17.1041 20.2535 17.0945 20.3324 17.0945C21.3169 17.0945 21.5964 17.1915 21.6657 17.3355V17.3387Z" fill="white"/>
</svg>
