<svg width="30" height="30" viewBox="0 0 30 30" fill="none" xmlns="http://www.w3.org/2000/svg">
<g clip-path="url(#clip0_6102_93090)">
<mask id="mask0_6102_93090" style="mask-type:luminance" maskUnits="userSpaceOnUse" x="0" y="0" width="30" height="30">
<path d="M30 0H0V30H30V0Z" fill="white"/>
</mask>
<g mask="url(#mask0_6102_93090)">
<path d="M25 0H5C2.23858 0 0 2.23858 0 5V25C0 27.7614 2.23858 30 5 30H25C27.7614 30 30 27.7614 30 25V5C30 2.23858 27.7614 0 25 0Z" fill="#2B569A"/>
<path d="M5.32031 18.6349H3V12.0895H5.33949C5.99787 12.0895 6.56463 12.2205 7.03977 12.4826C7.51492 12.7425 7.88033 13.1165 8.13601 13.6044C8.39382 14.0923 8.52273 14.6761 8.52273 15.3558C8.52273 16.0376 8.39382 16.6236 8.13601 17.1136C7.88033 17.6037 7.51278 17.9798 7.03338 18.2418C6.55611 18.5039 5.98509 18.6349 5.32031 18.6349ZM4.38388 17.4492H5.26278C5.67188 17.4492 6.01598 17.3768 6.2951 17.2319C6.57635 17.0849 6.78729 16.858 6.92791 16.5511C7.07067 16.2422 7.14205 15.8438 7.14205 15.3558C7.14205 14.8722 7.07067 14.4769 6.92791 14.1701C6.78729 13.8633 6.57741 13.6374 6.2983 13.4925C6.01918 13.3477 5.67507 13.2752 5.26598 13.2752H4.38388V17.4492Z" fill="white"/>
<path d="M15.0228 15.3622C15.0228 16.076 14.8875 16.6832 14.6169 17.1839C14.3484 17.6847 13.9819 18.0671 13.5174 18.3313C13.0551 18.5934 12.5352 18.7244 11.9578 18.7244C11.3761 18.7244 10.8541 18.5923 10.3917 18.3281C9.92937 18.0639 9.56396 17.6815 9.29549 17.1808C9.02703 16.68 8.89279 16.0739 8.89279 15.3622C8.89279 14.6484 9.02703 14.0412 9.29549 13.5405C9.56396 13.0398 9.92937 12.6584 10.3917 12.3963C10.8541 12.1321 11.3761 12 11.9578 12C12.5352 12 13.0551 12.1321 13.5174 12.3963C13.9819 12.6584 14.3484 13.0398 14.6169 13.5405C14.8875 14.0412 15.0228 14.6484 15.0228 15.3622ZM13.6197 15.3622C13.6197 14.8999 13.5505 14.5099 13.412 14.1925C13.2756 13.875 13.0828 13.6342 12.8335 13.4702C12.5842 13.3061 12.2923 13.2241 11.9578 13.2241C11.6233 13.2241 11.3314 13.3061 11.0821 13.4702C10.8328 13.6342 10.6389 13.875 10.5004 14.1925C10.364 14.5099 10.2958 14.8999 10.2958 15.3622C10.2958 15.8246 10.364 16.2145 10.5004 16.532C10.6389 16.8494 10.8328 17.0902 11.0821 17.2543C11.3314 17.4183 11.6233 17.5004 11.9578 17.5004C12.2923 17.5004 12.5842 17.4183 12.8335 17.2543C13.0828 17.0902 13.2756 16.8494 13.412 16.532C13.5505 16.2145 13.6197 15.8246 13.6197 15.3622Z" fill="white"/>
<path d="M21.2831 14.381H19.8832C19.8577 14.1999 19.8055 14.0391 19.7266 13.8984C19.6478 13.7557 19.5466 13.6342 19.423 13.5341C19.2994 13.4339 19.1567 13.3572 18.9948 13.304C18.835 13.2507 18.6613 13.2241 18.4738 13.2241C18.135 13.2241 17.8399 13.3082 17.5885 13.4766C17.3371 13.6428 17.1421 13.8857 17.0036 14.2053C16.8651 14.5227 16.7959 14.9084 16.7959 15.3622C16.7959 15.8288 16.8651 16.2209 17.0036 16.5384C17.1443 16.8558 17.3403 17.0955 17.5917 17.2575C17.8431 17.4194 18.134 17.5004 18.4642 17.5004C18.6496 17.5004 18.8211 17.4759 18.9788 17.4268C19.1386 17.3778 19.2803 17.3065 19.4038 17.2127C19.5274 17.1168 19.6297 17.0007 19.7107 16.8643C19.7938 16.728 19.8513 16.5724 19.8832 16.3977L21.2831 16.4041C21.2469 16.7045 21.1563 16.9943 21.0114 17.2734C20.8687 17.5504 20.6759 17.7987 20.433 18.0181C20.1922 18.2354 19.9046 18.408 19.57 18.5359C19.2376 18.6616 18.8616 18.7244 18.4418 18.7244C17.858 18.7244 17.336 18.5923 16.8758 18.3281C16.4177 18.0639 16.0555 17.6815 15.7891 17.1808C15.5249 16.68 15.3928 16.0739 15.3928 15.3622C15.3928 14.6484 15.5271 14.0412 15.7955 13.5405C16.064 13.0398 16.4283 12.6584 16.8886 12.3963C17.3488 12.1321 17.8666 12 18.4418 12C18.8211 12 19.1727 12.0533 19.4965 12.1598C19.8225 12.2663 20.1112 12.4219 20.3626 12.6264C20.6141 12.8288 20.8186 13.0771 20.9763 13.3711C21.1361 13.6651 21.2384 14.0018 21.2831 14.381Z" fill="white"/>
<path d="M22.8924 12.0895L24.2124 14.3203H24.2635L25.5899 12.0895H27.1527L25.1552 15.3622L27.1975 18.6349H25.6059L24.2635 16.4009H24.2124L22.8701 18.6349H21.2848L23.3335 15.3622L21.3232 12.0895H22.8924Z" fill="white"/>
</g>
</g>
<defs>
<clipPath id="clip0_6102_93090">
<rect width="30" height="30" fill="white"/>
</clipPath>
</defs>
</svg>
