<svg width="30" height="30" viewBox="0 0 30 30" fill="none" xmlns="http://www.w3.org/2000/svg">
<g clip-path="url(#clip0_6102_93097)">
<mask id="mask0_6102_93097" style="mask-type:luminance" maskUnits="userSpaceOnUse" x="0" y="0" width="30" height="30">
<path d="M30 0H0V30H30V0Z" fill="white"/>
</mask>
<g mask="url(#mask0_6102_93097)">
<path d="M25 0H5C2.23858 0 0 2.23858 0 5V25C0 27.7614 2.23858 30 5 30H25C27.7614 30 30 27.7614 30 25V5C30 2.23858 27.7614 0 25 0Z" fill="#2B569A"/>
<path d="M7.88916 19.0001H5.56885V12.4546H7.90834C8.56672 12.4546 9.13348 12.5856 9.60862 12.8477C10.0838 13.1077 10.4492 13.4816 10.7049 13.9695C10.9627 14.4574 11.0916 15.0412 11.0916 15.7209C11.0916 16.4028 10.9627 16.9887 10.7049 17.4787C10.4492 17.9688 10.0816 18.3449 9.60223 18.6069C9.12496 18.869 8.55393 19.0001 7.88916 19.0001ZM6.95273 17.8143H7.83163C8.24072 17.8143 8.58483 17.7419 8.86395 17.597C9.1452 17.45 9.35613 17.2231 9.49676 16.9162C9.63952 16.6073 9.71089 16.2089 9.71089 15.7209C9.71089 15.2373 9.63952 14.842 9.49676 14.5352C9.35613 14.2284 9.14626 14.0025 8.86714 13.8577C8.58802 13.7128 8.24392 13.6403 7.83483 13.6403H6.95273V17.8143Z" fill="white"/>
<path d="M17.5916 15.7273C17.5916 16.4411 17.4563 17.0484 17.1857 17.5491C16.9173 18.0498 16.5508 18.4322 16.0863 18.6964C15.6239 18.9585 15.104 19.0895 14.5266 19.0895C13.945 19.0895 13.4229 18.9574 12.9606 18.6932C12.4982 18.429 12.1328 18.0466 11.8643 17.5459C11.5959 17.0452 11.4616 16.439 11.4616 15.7273C11.4616 15.0135 11.5959 14.4063 11.8643 13.9056C12.1328 13.4049 12.4982 13.0235 12.9606 12.7614C13.4229 12.4972 13.945 12.3651 14.5266 12.3651C15.104 12.3651 15.6239 12.4972 16.0863 12.7614C16.5508 13.0235 16.9173 13.4049 17.1857 13.9056C17.4563 14.4063 17.5916 15.0135 17.5916 15.7273ZM16.1886 15.7273C16.1886 15.265 16.1193 14.8751 15.9808 14.5576C15.8445 14.2401 15.6516 13.9993 15.4023 13.8353C15.153 13.6712 14.8611 13.5892 14.5266 13.5892C14.1921 13.5892 13.9002 13.6712 13.6509 13.8353C13.4016 13.9993 13.2077 14.2401 13.0692 14.5576C12.9329 14.8751 12.8647 15.265 12.8647 15.7273C12.8647 16.1897 12.9329 16.5796 13.0692 16.8971C13.2077 17.2145 13.4016 17.4553 13.6509 17.6194C13.9002 17.7834 14.1921 17.8655 14.5266 17.8655C14.8611 17.8655 15.153 17.7834 15.4023 17.6194C15.6516 17.4553 15.8445 17.2145 15.9808 16.8971C16.1193 16.5796 16.1886 16.1897 16.1886 15.7273Z" fill="white"/>
<path d="M23.852 14.7461H22.4521C22.4265 14.565 22.3743 14.4042 22.2955 14.2635C22.2167 14.1208 22.1154 13.9993 21.9919 13.8992C21.8683 13.7991 21.7255 13.7224 21.5636 13.6691C21.4038 13.6158 21.2301 13.5892 21.0426 13.5892C20.7039 13.5892 20.4088 13.6734 20.1573 13.8417C19.9059 14.0079 19.711 14.2508 19.5725 14.5704C19.434 14.8878 19.3647 15.2735 19.3647 15.7273C19.3647 16.1939 19.434 16.586 19.5725 16.9035C19.7131 17.2209 19.9091 17.4606 20.1605 17.6226C20.412 17.7845 20.7028 17.8655 21.0331 17.8655C21.2184 17.8655 21.3899 17.841 21.5476 17.792C21.7074 17.743 21.8491 17.6716 21.9727 17.5778C22.0963 17.4819 22.1985 17.3658 22.2795 17.2295C22.3626 17.0931 22.4201 16.9376 22.4521 16.7628L23.852 16.7692C23.8157 17.0697 23.7252 17.3594 23.5803 17.6386C23.4375 17.9155 23.2447 18.1638 23.0018 18.3832C22.761 18.6006 22.4734 18.7731 22.1389 18.901C21.8065 19.0267 21.4304 19.0895 21.0107 19.0895C20.4269 19.0895 19.9049 18.9574 19.4446 18.6932C18.9865 18.429 18.6243 18.0466 18.358 17.5459C18.0938 17.0452 17.9617 16.439 17.9617 15.7273C17.9617 15.0135 18.0959 14.4063 18.3644 13.9056C18.6328 13.4049 18.9972 13.0235 19.4574 12.7614C19.9176 12.4972 20.4354 12.3651 21.0107 12.3651C21.3899 12.3651 21.7415 12.4184 22.0654 12.5249C22.3914 12.6314 22.6801 12.787 22.9315 12.9915C23.1829 13.1939 23.3875 13.4422 23.5451 13.7362C23.7049 14.0302 23.8072 14.3669 23.852 14.7461Z" fill="white"/>
</g>
</g>
<defs>
<clipPath id="clip0_6102_93097">
<rect width="30" height="30" fill="white"/>
</clipPath>
</defs>
</svg>
