<svg width="30" height="31" viewBox="0 0 30 31" fill="none" xmlns="http://www.w3.org/2000/svg">
<rect y="0.0957031" width="30" height="30" rx="5" fill="#54B09A"/>
<path d="M12.62 19.2757H11.08V13.8457L9.03 17.5957H7.62L5.66 13.8457V19.2757H4.13V11.6957H6.36L8.37 15.4257L10.37 11.6957H12.62V19.2757ZM17.4126 15.4357C17.6059 15.4357 17.7826 15.3857 17.9426 15.2857C18.1092 15.1857 18.2392 15.0524 18.3326 14.8857C18.4326 14.719 18.4826 14.539 18.4826 14.3457C18.4826 14.1524 18.4326 13.9757 18.3326 13.8157C18.2392 13.649 18.1092 13.519 17.9426 13.4257C17.7826 13.3257 17.6059 13.2757 17.4126 13.2757H15.5326V15.4357H17.4126ZM17.3626 11.6957C17.8426 11.6957 18.2826 11.8157 18.6826 12.0557C19.0892 12.289 19.4092 12.609 19.6426 13.0157C19.8826 13.4224 20.0026 13.8657 20.0026 14.3457C20.0026 14.819 19.8826 15.259 19.6426 15.6657C19.4092 16.0724 19.0892 16.3957 18.6826 16.6357C18.2826 16.8757 17.8426 16.9957 17.3626 16.9957H15.5326V19.2757H14.0226V11.6957H17.3626ZM24.8352 15.3557C25.1886 15.5557 25.4752 15.8057 25.6952 16.1057C25.9219 16.4057 26.0352 16.7324 26.0352 17.0857C26.0352 17.499 25.9319 17.869 25.7252 18.1957C25.5186 18.5157 25.2152 18.7657 24.8152 18.9457C24.4219 19.1257 23.9452 19.2157 23.3852 19.2157C22.8186 19.2157 22.3352 19.1224 21.9352 18.9357C21.5419 18.749 21.2419 18.4857 21.0352 18.1457C20.8352 17.799 20.7352 17.3957 20.7352 16.9357H22.2252C22.2252 17.1024 22.2586 17.2524 22.3252 17.3857C22.3986 17.519 22.5219 17.629 22.6952 17.7157C22.8686 17.7957 23.0986 17.8357 23.3852 17.8357C23.6786 17.8357 23.9186 17.7957 24.1052 17.7157C24.2986 17.629 24.4386 17.519 24.5252 17.3857C24.6186 17.2457 24.6652 17.0957 24.6652 16.9357C24.6652 16.6757 24.5619 16.459 24.3552 16.2857C24.1486 16.1057 23.8319 16.0157 23.4052 16.0157H22.9052V14.7157H23.4252C23.7719 14.7157 24.0452 14.6324 24.2452 14.4657C24.4452 14.299 24.5452 14.109 24.5452 13.8957C24.5452 13.7624 24.5052 13.639 24.4252 13.5257C24.3519 13.4057 24.2352 13.3124 24.0752 13.2457C23.9152 13.1724 23.7086 13.1357 23.4552 13.1357C23.2019 13.1357 23.0019 13.1724 22.8552 13.2457C22.7086 13.3124 22.6052 13.4024 22.5452 13.5157C22.4919 13.629 22.4652 13.7557 22.4652 13.8957H20.9752C20.9752 13.4624 21.0719 13.0857 21.2652 12.7657C21.4586 12.439 21.7419 12.189 22.1152 12.0157C22.4886 11.8424 22.9352 11.7557 23.4552 11.7557C23.9552 11.7557 24.3919 11.8424 24.7652 12.0157C25.1386 12.1824 25.4219 12.4157 25.6152 12.7157C25.8152 13.0157 25.9152 13.359 25.9152 13.7457C25.9152 14.0724 25.8152 14.3757 25.6152 14.6557C25.4219 14.929 25.1619 15.1624 24.8352 15.3557Z" fill="white"/>
</svg>
