<svg width="20" height="21" viewBox="0 0 20 21" fill="none" xmlns="http://www.w3.org/2000/svg">
<rect y="0.157104" width="20" height="20" rx="3" fill="#EF3C36"/>
<mask id="mask0_74_2200" style="mask-type:alpha" maskUnits="userSpaceOnUse" x="0" y="0" width="20" height="21">
<rect y="0.157104" width="20" height="20" fill="white"/>
</mask>
<g mask="url(#mask0_74_2200)">
<path d="M8.04084 13.1571H7.08743V8.6813L5.42288 11.8265H4.57107L2.94559 8.6813V13.1571H2V7.1571H3.27381L5.01651 10.4636L6.7514 7.1571H8.04084V13.1571Z" fill="white"/>
<path d="M11.4695 10.1732C11.6414 10.1732 11.8029 10.1275 11.954 10.0361C12.1103 9.93936 12.2301 9.81302 12.3135 9.6571C12.402 9.50119 12.4463 9.33452 12.4463 9.1571C12.4463 8.97431 12.402 8.80495 12.3135 8.64904C12.2301 8.49313 12.1103 8.37216 11.954 8.28614C11.8029 8.19474 11.6414 8.14904 11.4695 8.14904H9.95339V10.1732H11.4695ZM11.4538 7.1571C11.8029 7.1571 12.1233 7.24581 12.415 7.42323C12.7068 7.60065 12.9386 7.84259 13.1106 8.14904C13.2877 8.45549 13.3763 8.78883 13.3763 9.14904C13.3763 9.50926 13.2877 9.84259 13.1106 10.149C12.9386 10.4555 12.7068 10.7001 12.415 10.8829C12.1233 11.0603 11.8029 11.149 11.4538 11.149H9.95339V13.1571H9.01561V7.1571H11.4538Z" fill="white"/>
<path d="M17.3045 10.8668H18V11.7861H17.3045V13.0684H16.437V11.7861H13.8816V10.9071L16.437 7.24581H17.3045V10.8668ZM16.437 10.8668V8.70549L14.9288 10.8668H16.437Z" fill="white"/>
</g>
</svg>
