<svg width="30" height="30" viewBox="0 0 30 30" fill="none" xmlns="http://www.w3.org/2000/svg">
<rect width="30" height="30" rx="5" fill="#B11D3B"/>
<path d="M12.75 12.9L8.67 17.88H12.75V19.18H6.7V17.88L10.8 12.9H6.7V11.6H12.75V12.9ZM15.0653 11.6V19.18H13.5453V11.6H15.0653ZM19.5499 15.6C19.7699 15.6 19.9699 15.5367 20.1499 15.41C20.3299 15.2833 20.4699 15.1167 20.5699 14.91C20.6699 14.7033 20.7199 14.4833 20.7199 14.25C20.7199 14.0167 20.6699 13.7967 20.5699 13.59C20.4699 13.3833 20.3299 13.2167 20.1499 13.09C19.9699 12.9633 19.7699 12.9 19.5499 12.9H17.7799V15.6H19.5499ZM19.5999 11.6C20.0799 11.6 20.5199 11.72 20.9199 11.96C21.3266 12.1933 21.6466 12.5133 21.8799 12.92C22.1199 13.3267 22.2399 13.77 22.2399 14.25C22.2399 14.7233 22.1199 15.1633 21.8799 15.57C21.6466 15.9767 21.3266 16.3 20.9199 16.54C20.5199 16.78 20.0799 16.9 19.5999 16.9H17.7799V19.18H16.2599V11.6H19.5999Z" fill="white"/>
</svg>
