<svg xmlns="http://www.w3.org/2000/svg" xmlns:xlink="http://www.w3.org/1999/xlink" width="490" height="759" viewBox="0 0 490 759">
  <defs>
    <filter id="패스_1014" x="0" y="0" width="490" height="759" filterUnits="userSpaceOnUse">
      <feOffset dy="-5" input="SourceAlpha"/>
      <feGaussianBlur stdDeviation="10" result="blur"/>
      <feFlood flood-color="#454c53" flood-opacity="0.502"/>
      <feComposite operator="in" in2="blur"/>
      <feComposite in="SourceGraphic"/>
    </filter>
    <clipPath id="clip-path">
      <rect id="사각형_876" data-name="사각형 876" width="120" height="160" transform="translate(529.998 535)" fill="#fff" stroke="#707070" stroke-width="1"/>
    </clipPath>
  </defs>
  <g id="그룹_843" data-name="그룹 843" transform="translate(-499.998 -152)">
    <g id="그룹_662" data-name="그룹 662" transform="translate(988.998 307)">
      <path id="패스_1013" data-name="패스 1013" d="M-29,580v-1c0,.335-.017.667-.025,1Z" fill="#fee"/>
      <g transform="matrix(1, 0, 0, 1, -489, -155)" filter="url(#패스_1014)">
        <path id="패스_1014-2" data-name="패스 1014" d="M-121.736-120H-459V539H-69a40,40,0,0,1,40,40V-27.264A92.736,92.736,0,0,0-121.736-120Z" transform="translate(489 155)" fill="#fee"/>
      </g>
    </g>
    <g id="마스크_그룹_154" data-name="마스크 그룹 154" transform="translate(0 32)" opacity="0.15" clip-path="url(#clip-path)">
      <g id="book_15_" data-name="book (15)" transform="translate(482.341 535)">
        <path id="패스_1052" data-name="패스 1052" d="M167.655,2.964A3.109,3.109,0,0,0,164.447,0H3.209A3.109,3.109,0,0,0,0,2.964V131.628a3.231,3.231,0,0,0,3.209,3.109H58.415l-5.407,19.139H43.385a3.062,3.062,0,0,0,0,6.124h80.885a3.062,3.062,0,0,0,0-6.124h-9.623l-5.407-19.139h55.206a3.231,3.231,0,0,0,3.209-3.109ZM6.124,6.124H161.531v95.694H6.124ZM108.286,153.875H59.369l5.407-19.139h38.1Zm53.245-25.263H6.124v-20.67H161.531Zm0,0" transform="translate(0)" fill="#ff5c5c"/>
        <path id="패스_1053" data-name="패스 1053" d="M128.137,11.781H91.667a12.182,12.182,0,0,0-4.154.791L77.837,16.12a6.033,6.033,0,0,1-4.121.015l-9.677-3.571a12.181,12.181,0,0,0-4.154-.783H23.415a3.235,3.235,0,0,0-3.141,3.18V82.113a3.215,3.215,0,0,0,3.141,3.161h36.47a5.959,5.959,0,0,1,2.06.314l9.677,3.494a12.222,12.222,0,0,0,8.306-.019l9.677-3.472a5.962,5.962,0,0,1,2.06-.317h36.47a3.215,3.215,0,0,0,3.143-3.161V14.961a3.235,3.235,0,0,0-3.141-3.18Zm-64.1,68.05a12.088,12.088,0,0,0-4.154-.682H26.4V17.905H59.885a6.053,6.053,0,0,1,2.06.422l9.677,3.548c.359.13.724.272,1.092.368v60.7Zm61.115-.682H91.667a12.088,12.088,0,0,0-4.154.682l-8.675,3.107V22.244c.368-.1.733-.208,1.092-.339l9.677-3.578a6.087,6.087,0,0,1,2.06-.42h33.487Zm0,0" transform="translate(8.051 4.679)" fill="#ff5c5c"/>
        <path id="패스_1054" data-name="패스 1054" d="M67.943,26.076A3.062,3.062,0,0,0,71,29.138H82.633a3.062,3.062,0,1,0,0-6.124H71A3.062,3.062,0,0,0,67.943,26.076Zm0,0" transform="translate(26.982 9.139)" fill="#ff5c5c"/>
        <path id="패스_1055" data-name="패스 1055" d="M67.943,34.569A3.062,3.062,0,0,0,71,37.631H96.344a3.062,3.062,0,0,0,0-6.124H71A3.062,3.062,0,0,0,67.943,34.569Zm0,0" transform="translate(26.982 12.512)" fill="#ff5c5c"/>
        <path id="패스_1056" data-name="패스 1056" d="M96.344,40.274H71A3.062,3.062,0,0,0,71,46.4H96.344a3.062,3.062,0,0,0,0-6.124Zm0,0" transform="translate(26.982 15.994)" fill="#ff5c5c"/>
        <path id="패스_1057" data-name="패스 1057" d="M96.344,48.767H71a3.062,3.062,0,0,0,0,6.124H96.344a3.062,3.062,0,0,0,0-6.124Zm0,0" transform="translate(26.982 19.367)" fill="#ff5c5c"/>
      </g>
    </g>
  </g>
</svg>
