<svg id="그룹_976" data-name="그룹 976" xmlns="http://www.w3.org/2000/svg" width="14.999" height="13.714" viewBox="0 0 14.999 13.714">
  <path id="패스_2129" data-name="패스 2129" d="M1851.806,171.547a.456.456,0,0,1-.36-.175l-2.073-2.635h-2.2a2.5,2.5,0,0,1-2.493-2.494v-4.159a2.5,2.5,0,0,1,2.493-2.494h5.406a2.5,2.5,0,0,1,2.494,2.494v4.159a2.5,2.5,0,0,1-2.494,2.494h-.317v2.352a.457.457,0,0,1-.458.458Zm-4.631-11.04a1.579,1.579,0,0,0-1.577,1.578v4.159a1.579,1.579,0,0,0,1.577,1.578h2.42a.458.458,0,0,1,.36.175l1.393,1.77V168.28a.458.458,0,0,1,.458-.458h.775a1.58,1.58,0,0,0,1.578-1.578v-4.159a1.58,1.58,0,0,0-1.578-1.578Z" transform="translate(-1840.076 -157.833)" fill="#36435e"/>
  <g id="그룹_972" data-name="그룹 972">
    <path id="패스_2130" data-name="패스 2130" d="M1843.164,156.043H1835.4a2.036,2.036,0,0,0-2.036,2.036v4.159a2.036,2.036,0,0,0,2.036,2.036h.775v2.81l2.21-2.81h4.782a2.036,2.036,0,0,0,2.036-2.036v-4.159A2.036,2.036,0,0,0,1843.164,156.043Z" transform="translate(-1832.903 -155.585)" fill="#fff"/>
    <path id="패스_2131" data-name="패스 2131" d="M1835.379,166.749a.453.453,0,0,1-.15-.025.458.458,0,0,1-.308-.433V163.94h-.317a2.5,2.5,0,0,1-2.494-2.494v-4.159a2.5,2.5,0,0,1,2.494-2.494h7.768a2.5,2.5,0,0,1,2.494,2.494v4.159a2.5,2.5,0,0,1-2.494,2.494h-4.559l-2.073,2.635A.458.458,0,0,1,1835.379,166.749Zm-.775-11.04a1.579,1.579,0,0,0-1.578,1.578v4.159a1.58,1.58,0,0,0,1.578,1.578h.775a.458.458,0,0,1,.458.458v1.487l1.393-1.77a.458.458,0,0,1,.36-.175h4.782a1.58,1.58,0,0,0,1.578-1.578v-4.159a1.58,1.58,0,0,0-1.578-1.578Z" transform="translate(-1832.11 -154.793)" fill="#36435e"/>
  </g>
  <g id="그룹_973" data-name="그룹 973" transform="translate(3.257 4.115)">
    <line id="선_400" data-name="선 400" x2="0.466" transform="translate(0.458 0.458)" fill="#fff"/>
    <path id="패스_2132" data-name="패스 2132" d="M1841.924,166.941h-.466a.458.458,0,0,1,0-.916h.466a.458.458,0,0,1,0,.916Z" transform="translate(-1841 -166.025)" fill="#36435e"/>
  </g>
  <g id="그룹_974" data-name="그룹 974" transform="translate(5.657 4.115)">
    <line id="선_401" data-name="선 401" x2="0.466" transform="translate(0.458 0.458)" fill="#fff"/>
    <path id="패스_2133" data-name="패스 2133" d="M1848.473,166.941h-.465a.458.458,0,0,1,0-.916h.465a.458.458,0,0,1,0,.916Z" transform="translate(-1847.55 -166.025)" fill="#36435e"/>
  </g>
  <g id="그룹_975" data-name="그룹 975" transform="translate(8.057 4.115)">
    <line id="선_402" data-name="선 402" x2="0.466" transform="translate(0.458 0.458)" fill="#fff"/>
    <path id="패스_2134" data-name="패스 2134" d="M1855.023,166.941h-.465a.458.458,0,0,1,0-.916h.465a.458.458,0,0,1,0,.916Z" transform="translate(-1854.1 -166.025)" fill="#36435e"/>
  </g>
</svg>
