<svg width="45" height="50" viewBox="0 0 45 50" fill="none" xmlns="http://www.w3.org/2000/svg">
<path fill-rule="evenodd" clip-rule="evenodd" d="M20 3.90039C20 2.51968 21.1193 1.40039 22.5 1.40039C23.8807 1.40039 25 2.51968 25 3.90039V6.40036H40.5C41.6046 6.40036 42.5 7.29579 42.5 8.40036V17.1385C42.5067 16.4539 43.0637 15.901 43.7499 15.901C44.4403 15.901 44.9999 16.4606 44.9999 17.151V27.151C44.9999 27.8413 44.4403 28.401 43.7499 28.401C43.0637 28.401 42.5067 27.8481 42.5 27.1635V38.9004C42.5 40.0049 41.6046 40.9004 40.5 40.9004H4.49999C3.39542 40.9004 2.49998 40.0049 2.49998 38.9004V27.1572C2.49665 27.8447 1.93829 28.401 1.25 28.401C0.559644 28.401 0 27.8413 0 27.151V17.151C0 16.4606 0.559644 15.901 1.25 15.901C1.93829 15.901 2.49665 16.4573 2.49998 17.1448V8.40036C2.49998 7.29579 3.39542 6.40036 4.49999 6.40036H20V3.90039ZM12.5 48.4274V40.9004H22.5L12.8244 48.584C12.6933 48.6881 12.5 48.5947 12.5 48.4274Z" fill="white"/>
<path fill-rule="evenodd" clip-rule="evenodd" d="M20 3.90039C20 2.51968 21.1193 1.40039 22.5 1.40039C23.8807 1.40039 25 2.51968 25 3.90039V6.40036H40.5C41.6046 6.40036 42.5 7.29579 42.5 8.40036V17.1385C42.5067 16.4539 43.0637 15.901 43.7499 15.901C44.4403 15.901 44.9999 16.4606 44.9999 17.151V27.151C44.9999 27.8413 44.4403 28.401 43.7499 28.401C43.0637 28.401 42.5067 27.8481 42.5 27.1635V38.9004C42.5 40.0049 41.6046 40.9004 40.5 40.9004H4.49999C3.39542 40.9004 2.49998 40.0049 2.49998 38.9004V27.1572C2.49665 27.8447 1.93829 28.401 1.25 28.401C0.559644 28.401 0 27.8413 0 27.151V17.151C0 16.4606 0.559644 15.901 1.25 15.901C1.93829 15.901 2.49665 16.4573 2.49998 17.1448V8.40036C2.49998 7.29579 3.39542 6.40036 4.49999 6.40036H20V3.90039ZM12.5 48.4274V40.9004H22.5L12.8244 48.584C12.6933 48.6881 12.5 48.5947 12.5 48.4274Z" fill="url(#paint0_linear_81_1294)"/>
<path d="M19.4884 17.7261L15.1145 31.4409H11.0664L17.3364 14.5039H19.8955L19.4884 17.7261ZM23.1178 31.4409L18.7323 17.7261L18.2786 14.5039H20.8727L27.1659 31.4409H23.1178ZM22.9316 25.1361V28.0675H14.1025V25.1361H22.9316Z" fill="white"/>
<path d="M33.9335 14.5039V31.4409H30.1529V14.5039H33.9335Z" fill="white"/>
<defs>
<linearGradient id="paint0_linear_81_1294" x1="0" y1="1.40039" x2="48.0649" y2="1.52783" gradientUnits="userSpaceOnUse">
<stop offset="0.0001" stop-color="#FF00A1"/>
<stop offset="0.53125" stop-color="#9C00FF"/>
<stop offset="1" stop-color="#0258FF"/>
</linearGradient>
</defs>
</svg>
