<svg xmlns="http://www.w3.org/2000/svg" xmlns:xlink="http://www.w3.org/1999/xlink" width="25" height="25" viewBox="0 0 25 25">
  <defs>
    <clipPath id="clip-path">
      <rect id="사각형_1037" data-name="사각형 1037" width="25" height="25" transform="translate(31 18)" fill="#ff5c5c" stroke="#707070" stroke-width="1"/>
    </clipPath>
  </defs>
  <g id="마스크_그룹_155" data-name="마스크 그룹 155" transform="translate(-31 -18)" clip-path="url(#clip-path)">
    <path id="approval" d="M10.5,24.023A.976.976,0,0,1,9.521,25H3.906A3.911,3.911,0,0,1,0,21.094V3.906A3.911,3.911,0,0,1,3.906,0H15.913a3.911,3.911,0,0,1,3.906,3.906V14.258a.977.977,0,0,1-1.953,0V3.906a1.955,1.955,0,0,0-1.953-1.953H3.906A1.955,1.955,0,0,0,1.953,3.906V21.094a1.955,1.955,0,0,0,1.953,1.953H9.521a.976.976,0,0,1,.977.977ZM22,15.905a.977.977,0,0,0-1.362.225l-4.814,6.724a.558.558,0,0,1-.8.042L11.909,19.9a.977.977,0,0,0-1.353,1.409l3.119,3A2.519,2.519,0,0,0,15.408,25q.083,0,.166-.006a2.517,2.517,0,0,0,1.79-.933l.033-.043,4.833-6.751A.976.976,0,0,0,22,15.905ZM14.936,5.859H4.877a.977.977,0,1,0,0,1.953H14.936a.977.977,0,0,0,0-1.953Zm.977,4.883a.977.977,0,0,0-.977-.977H4.877a.977.977,0,1,0,0,1.953H14.936A.977.977,0,0,0,15.913,10.742ZM4.877,13.672a.977.977,0,1,0,0,1.953h6.109a.977.977,0,0,0,0-1.953Zm0,0" transform="translate(32.294 18)" fill="#ff5c5c"/>
  </g>
</svg>
