<svg xmlns="http://www.w3.org/2000/svg" xmlns:xlink="http://www.w3.org/1999/xlink" width="15" height="15" viewBox="0 0 15 15">
  <defs>
    <clipPath id="clip-path">
      <rect id="사각형_168" data-name="사각형 168" width="15" height="15" fill="#ff5c5c"/>
    </clipPath>
  </defs>
  <g id="icon_appdownload" clip-path="url(#clip-path)">
    <g id="download">
      <g id="그룹_77" data-name="그룹 77" transform="translate(5)">
        <g id="그룹_76" data-name="그룹 76">
          <path id="패스_183" data-name="패스 183" d="M9.934,7.221a.626.626,0,0,0-.559-.346H8.125V.625a.625.625,0,1,0-1.25,0v6.25H5.625a.625.625,0,0,0-.5,1L7,10.375c.008.011.021.014.029.024a.61.61,0,0,0,.144.121.644.644,0,0,0,.064.043.586.586,0,0,0,.524,0,.635.635,0,0,0,.064-.043.61.61,0,0,0,.144-.121c.008-.01.021-.014.029-.024l1.875-2.5A.624.624,0,0,0,9.934,7.221Z" transform="translate(-5)" fill="#ff5c5c"/>
        </g>
      </g>
      <g id="그룹_79" data-name="그룹 79" transform="translate(0 9.375)">
        <g id="그룹_78" data-name="그룹 78">
          <path id="패스_184" data-name="패스 184" d="M14.375,9.375A.625.625,0,0,0,13.75,10v1.875a1.877,1.877,0,0,1-1.875,1.875H3.125A1.877,1.877,0,0,1,1.25,11.875V10A.625.625,0,0,0,0,10v1.875A3.129,3.129,0,0,0,3.125,15h8.75A3.129,3.129,0,0,0,15,11.875V10A.625.625,0,0,0,14.375,9.375Z" transform="translate(0 -9.375)" fill="#ff5c5c"/>
        </g>
      </g>
    </g>
  </g>
</svg>
