<svg xmlns="http://www.w3.org/2000/svg" width="23" height="23" viewBox="0 0 23 23">
  <g id="love" transform="translate(-166.64 -162.18)">
    <g id="패스_2191" data-name="패스 2191" transform="translate(0 0)" fill="#f03a17">
      <path d="M 178.1482238769531 184.3686676025391 C 176.9182891845703 182.8087463378906 175.31298828125 181.3890686035156 173.7553253173828 180.011474609375 C 171.7847900390625 178.2687377929688 169.7471618652344 176.4666595458984 168.4790649414062 174.392822265625 C 167.0693664550781 172.08740234375 166.7781524658203 169.7616424560547 167.5626983642578 167.0746765136719 C 168.0543518066406 165.5892639160156 168.8265533447266 164.4496459960938 169.8578948974609 163.6875915527344 C 170.7499389648438 163.0284576416016 171.8146057128906 162.6800537109375 172.936767578125 162.6800537109375 C 175.0803375244141 162.6800537109375 177.0237579345703 163.9283294677734 177.6628112792969 165.7156372070312 L 178.118896484375 166.9911956787109 L 178.6009063720703 165.7252044677734 C 179.2814178466797 163.9377899169922 181.2450561523438 162.6894378662109 183.3760833740234 162.6894378662109 C 184.4902954101562 162.6894378662109 185.5459289550781 163.0360870361328 186.4288330078125 163.6919097900391 C 187.4502410888672 164.4506072998047 188.2159576416016 165.5872192382812 188.7048645019531 167.0704345703125 C 189.5113067626953 169.7831268310547 189.2115325927734 172.1465148925781 187.7615814208984 174.5072326660156 C 186.4567260742188 176.6317138671875 184.3594055175781 178.4931945800781 182.3311462402344 180.2933654785156 C 180.8687286376953 181.5913238525391 179.3617858886719 182.9287872314453 178.1482238769531 184.3686676025391 Z" stroke="none"/>
      <path d="M 172.936767578125 163.1800537109375 C 170.6775665283203 163.1800537109375 168.8935394287109 164.6537170410156 168.0401000976562 167.2236022949219 C 167.301025390625 169.7620544433594 167.5761871337891 171.9578094482422 168.9056396484375 174.1319732666016 C 170.1345977783203 176.1418151855469 172.1436614990234 177.9186248779297 174.0865631103516 179.6369323730469 C 175.5062408447266 180.8924865722656 176.9652099609375 182.1828155517578 178.1598205566406 183.5931701660156 C 179.3175201416016 182.2995758056641 180.6764526367188 181.0934295654297 181.9992370605469 179.9194030761719 C 184.0002746582031 178.1434020996094 186.0694274902344 176.3069305419922 187.3355255126953 174.2455444335938 C 188.7045288085938 172.0166320800781 188.9881286621094 169.7837524414062 188.2276763916016 167.2199401855469 C 187.3808746337891 164.6582336425781 185.6132049560547 163.1895141601562 183.3759155273438 163.1894378662109 C 181.4478912353516 163.1894378662109 179.6764831542969 164.3053436279297 179.0681762695312 165.9031066894531 L 178.1041717529297 168.4351043701172 L 177.1920013427734 165.8839721679688 C 176.6227722167969 164.2919464111328 174.8729553222656 163.1800537109375 172.936767578125 163.1800537109375 M 172.936767578125 162.1800537109375 C 175.2214508056641 162.1800537109375 177.4051971435547 163.5100555419922 178.1336212158203 165.5472869873047 C 179.6854553222656 161.4713287353516 186.9756164550781 160.2114715576172 189.1820220947266 166.9208679199219 C 191.7995758056641 175.70703125 182.5260162353516 179.5434112548828 178.1336212158203 185.1800689697266 C 174.0334014892578 179.4657135009766 164.4717407226562 175.8538665771484 167.0852203369141 166.9260559082031 C 168.2007293701172 163.5457916259766 170.6206207275391 162.1800537109375 172.936767578125 162.1800537109375 Z" stroke="none" fill="#000"/>
    </g>
  </g>
</svg>
