<svg xmlns="http://www.w3.org/2000/svg" xmlns:xlink="http://www.w3.org/1999/xlink" width="20" height="20" viewBox="0 0 20 20">
  <defs>
    <clipPath id="clip-path">
      <rect id="사각형_535" data-name="사각형 535" width="20" height="20" fill="#fff" stroke="#707070" stroke-width="1"/>
    </clipPath>
  </defs>
  <g id="icon_calender" clip-path="url(#clip-path)">
    <g id="folder" transform="translate(0 1.757)">
      <g id="그룹_180" data-name="그룹 180">
        <path id="패스_782" data-name="패스 782" d="M19.851,6.742a.586.586,0,0,0-.437-.2H17.128V4.506a.586.586,0,0,0-.586-.586H6.486v-.7A.586.586,0,0,0,5.9,2.635H.586A.586.586,0,0,0,0,3.221V18.532a.585.585,0,0,0,.585.59H18.153a.586.586,0,0,0,.582-.522L20,7.2A.586.586,0,0,0,19.851,6.742ZM1.172,3.807H5.314v.7a.586.586,0,0,0,.586.586H15.956V6.547H2.93a.586.586,0,0,0-.574.468l-1.184,5.76ZM17.628,17.95H1.3l2.1-10.231H18.76Z" transform="translate(0 -2.635)" fill="#fff"/>
      </g>
    </g>
  </g>
</svg>
