<svg xmlns="http://www.w3.org/2000/svg" width="59" height="59" viewBox="0 0 59 59">
  <g id="ico_09" transform="translate(-712 -824)">
    <rect id="bg_" width="59" height="59" rx="5" transform="translate(712 824)" fill="#fee"/>
    <g id="그룹_1220" data-name="그룹 1220" transform="translate(726.75 840.874)">
      <path id="패스_2513" data-name="패스 2513" d="M377.59,117.76H352.809a2.367,2.367,0,0,0-2.36,2.36v16.9a2.367,2.367,0,0,0,2.36,2.36H377.59a2.367,2.367,0,0,0,2.36-2.36v-16.9A2.366,2.366,0,0,0,377.59,117.76Zm1.18,19.262H351.629V120.076H378.77Z" transform="translate(-350.449 -117.76)" fill="#0f3653"/>
      <rect id="사각형_1334" data-name="사각형 1334" width="8.829" height="2.36" rx="1" transform="translate(10.335 22.823)" fill="#0f3653"/>
      <path id="패스_2514" data-name="패스 2514" d="M383.3,147.3c3.27,0,6.044-2.829,7.02-3.957a.73.73,0,0,0,0-.911c-.976-1.127-3.75-3.957-7.02-3.957s-6.044,2.829-7.02,3.957a.73.73,0,0,0,0,.911C377.251,144.467,380.026,147.3,383.3,147.3Zm.007-7.539a3.126,3.126,0,1,1-3.127,3.127A3.126,3.126,0,0,1,383.3,139.757Z" transform="translate(-368.545 -132.362)" fill="#0f3653"/>
      <path id="패스_2515" data-name="패스 2515" d="M395.829,150.723a1.947,1.947,0,1,0-1.947-1.946A1.948,1.948,0,0,0,395.829,150.723Zm.59-3.126a.59.59,0,1,1-.59.591A.59.59,0,0,1,396.419,147.6Z" transform="translate(-381.071 -138.256)" fill="#0f3653"/>
    </g>
  </g>
</svg>
