<svg xmlns="http://www.w3.org/2000/svg" width="22.996" height="22.996" viewBox="0 0 22.996 22.996">
  <g id="그룹_1064" data-name="그룹 1064" transform="translate(-65.539 -90.898)">
    <g id="그룹_1059" data-name="그룹 1059" transform="translate(65.539 90.898)">
      <g id="그룹_1058" data-name="그룹 1058">
        <circle id="타원_459" data-name="타원 459" cx="11.498" cy="11.498" r="11.498" fill="#fdc42d"/>
        <g id="그룹_1057" data-name="그룹 1057" transform="translate(2.071 3.526)">
          <path id="패스_2404" data-name="패스 2404" d="M85.092,94.05a11.49,11.49,0,0,1-17.7,14.545,11.492,11.492,0,1,0,17.7-14.545Z" transform="translate(-67.39 -94.05)" fill="#fdb431"/>
        </g>
        <path id="패스_2405" data-name="패스 2405" d="M67.961,96.753a8.625,8.625,0,0,1,4.1-3.965" transform="translate(-65.251 -90.674)" fill="none" stroke="#fff" stroke-linecap="round" stroke-linejoin="round" stroke-width="0.5"/>
      </g>
    </g>
    <g id="그룹_1062" data-name="그룹 1062" transform="translate(70.903 99.576)">
      <g id="그룹_1060" data-name="그룹 1060">
        <path id="패스_2406" data-name="패스 2406" d="M73.548,99.806a1.939,1.939,0,0,0-.367-.592,1.655,1.655,0,0,0-.531-.4,1.561,1.561,0,0,0-.343-.12,2.25,2.25,0,0,0-.367-.043,1.748,1.748,0,0,0-1.239.555,1.575,1.575,0,0,0-.368.6A4.236,4.236,0,0,1,73.548,99.806Z" transform="translate(-70.333 -98.655)" fill="#403d3c"/>
      </g>
      <g id="그룹_1061" data-name="그룹 1061" transform="translate(9.053)">
        <path id="패스_2407" data-name="패스 2407" d="M81.64,99.806a1.828,1.828,0,0,0-.083-.182,1.591,1.591,0,0,0-.285-.409,1.643,1.643,0,0,0-.531-.4,1.552,1.552,0,0,0-.342-.12,2.25,2.25,0,0,0-.368-.043,1.75,1.75,0,0,0-1.239.555,1.562,1.562,0,0,0-.367.6A4.235,4.235,0,0,1,81.64,99.806Z" transform="translate(-78.425 -98.655)" fill="#403d3c"/>
      </g>
    </g>
    <g id="그룹_1063" data-name="그룹 1063" transform="translate(67.477 102.573)">
      <path id="패스_2408" data-name="패스 2408" d="M71.5,103.505a2.115,2.115,0,1,1-2.126-2.1A2.116,2.116,0,0,1,71.5,103.505Z" transform="translate(-67.271 -101.325)" fill="#f57c71"/>
      <path id="패스_2409" data-name="패스 2409" d="M85.2,103.436a2.115,2.115,0,1,1-2.125-2.1A2.115,2.115,0,0,1,85.2,103.436Z" transform="translate(-65.643 -101.333)" fill="#f57c71"/>
    </g>
    <path id="패스_2410" data-name="패스 2410" d="M74.516,102.837s2.291-2.115,3.437-.7c0,0,.7,1.233-1.762,2.026,1.189.111,2.78,1.867,2.015,2.753-1.2,1.391-2.592-.623-3.072-1.344" transform="translate(1.067 1.277)" fill="none" stroke="#403d3c" stroke-linecap="round" stroke-linejoin="round" stroke-width="0.75"/>
  </g>
</svg>
