<svg xmlns="http://www.w3.org/2000/svg" xmlns:xlink="http://www.w3.org/1999/xlink" width="18" height="18" viewBox="0 0 18 18">
  <defs>
    <clipPath id="clip-path">
      <rect id="사각형_395" data-name="사각형 395" width="18" height="18" transform="translate(0)" fill="#9ea4aa" stroke="#707070" stroke-width="1"/>
    </clipPath>
  </defs>
  <g id="btn_수정하기" transform="translate(-989 -29)">
    <g id="ico_수정" transform="translate(989 29)" clip-path="url(#clip-path)">
      <g id="pencil" transform="translate(0 1.238)">
        <path id="패스_783" data-name="패스 783" d="M19.652,20.968H9.478a.783.783,0,1,1,0-1.565H19.652a.783.783,0,0,1,0,1.565Zm0,0" transform="translate(-2.435 -5.445)" fill="#9ea4aa"/>
        <path id="패스_784" data-name="패스 784" d="M19.023,1.567,17.916.46A1.6,1.6,0,0,0,15.7.46L14.085,2.079,17.4,5.4,19.023,3.78a1.564,1.564,0,0,0,0-2.213Zm0,0" transform="translate(-3.944 -0.017)" fill="#9ea4aa"/>
        <path id="패스_785" data-name="패스 785" d="M9.033,4.419.968,12.484a.384.384,0,0,0-.1.187L.01,16.291a.392.392,0,0,0,.47.471l3.62-.853a.389.389,0,0,0,.187-.1l8.066-8.066Zm0,0" transform="translate(0 -1.249)" fill="#9ea4aa"/>
      </g>
    </g>
  </g>
</svg>
