<svg xmlns="http://www.w3.org/2000/svg" xmlns:xlink="http://www.w3.org/1999/xlink" width="30" height="30" viewBox="0 0 30 30">
  <defs>
    <clipPath id="clip-path">
      <rect id="사각형_881" data-name="사각형 881" width="30" height="30" transform="translate(250 210)" fill="#ff5c5c"/>
    </clipPath>
  </defs>
  <g id="ico_" transform="translate(-250 -210)" clip-path="url(#clip-path)">
    <g id="manuscript" transform="translate(250 210)">
      <path id="패스_1063" data-name="패스 1063" d="M4.966,22.391a.878.878,0,1,0,.411.925.89.89,0,0,0-.411-.925Z" transform="translate(0 0)" fill="#ff5c5c"/>
      <path id="패스_1064" data-name="패스 1064" d="M4.514,6.445H9.468a.879.879,0,1,0,0-1.758H4.514a.879.879,0,1,0,0,1.758Z" transform="translate(0 0)" fill="#ff5c5c"/>
      <path id="패스_1065" data-name="패스 1065" d="M28.9,4.754A4.805,4.805,0,0,0,22.3,4.168L20.675,5.474a.019.019,0,0,1-.03-.014V.879A.88.88,0,0,0,19.764,0H.88A.88.88,0,0,0,0,.879V25.217A4.858,4.858,0,0,0,4.92,30H22.207a2.974,2.974,0,1,0,.012-5.947H20.663a.019.019,0,0,1-.018-.019v-6.95l.06,0a.881.881,0,0,0,.553-.195L28.3,11.22A4.495,4.495,0,0,0,28.9,4.754ZM18.838,11.84l-2.117,1.738a.018.018,0,0,1-.03-.014V10.953a.018.018,0,0,1,.007-.014l2.117-1.706a.019.019,0,0,1,.03.014v2.579a.019.019,0,0,1-.007.014Zm4.638,15.194a1.241,1.241,0,0,1-1.269,1.209H8.751a.018.018,0,0,1-.014-.03,4.548,4.548,0,0,0,1.047-2.372.018.018,0,0,1,.018-.016h12.41a1.242,1.242,0,0,1,1.264,1.209ZM9.005,24.053a.782.782,0,0,0-.127.009.957.957,0,0,0-.741.527,1.64,1.64,0,0,0-.079.687A3.039,3.039,0,0,1,4.92,28.242a3.1,3.1,0,0,1-3.16-3.025V1.776a.019.019,0,0,1,.019-.019H18.866a.019.019,0,0,1,.019.019V6.908a.018.018,0,0,1-.007.014L17.293,8.2l-.012,0H4.514a.879.879,0,1,0,0,1.758H15.1a.018.018,0,0,1,.014.03.876.876,0,0,0-.182.533V11.7a.019.019,0,0,1-.019.019H4.514a.879.879,0,1,0,0,1.758h10.4a.019.019,0,0,1,.019.019v1.543a.018.018,0,0,1-.007.014l-.217.178-.012,0H4.514a.879.879,0,1,0,0,1.758h7.994a.018.018,0,0,1,.012.033l-2.1,1.721-.012,0h-5.9a.879.879,0,1,0,0,1.758h6.244a.878.878,0,0,0,.673-.313l0,0L16.175,16.3a.018.018,0,0,1,.015,0l2.679.477a.018.018,0,0,1,.015.018v7.242a.019.019,0,0,1-.019.019Zm11.45-8.782-2.447-.436A.019.019,0,0,1,18,14.8l2.03-1.666a.018.018,0,0,1,.015,0l2.478.441a.019.019,0,0,1,.008.033L20.47,15.267l-.015,0Zm7.773-7.331A2.766,2.766,0,0,1,27.19,9.852l-2.806,2.261-.015,0-2.506-.446a.019.019,0,0,1-.008-.033l2.866-2.352A.879.879,0,1,0,23.6,7.928l-2.969,2.437a.018.018,0,0,1-.03-.014V7.8a.018.018,0,0,1,.007-.014L23.4,5.536a3.03,3.03,0,0,1,4.165.364,2.725,2.725,0,0,1,.662,2.04Z" transform="translate(0 0)" fill="#ff5c5c"/>
    </g>
  </g>
</svg>
