<svg xmlns="http://www.w3.org/2000/svg" xmlns:xlink="http://www.w3.org/1999/xlink" width="25" height="25" viewBox="0 0 25 25">
  <defs>
    <clipPath id="clip-path">
      <rect id="사각형_354" data-name="사각형 354" width="25" height="25" fill="#ff5c5c"/>
    </clipPath>
  </defs>
  <g id="ico_bell" clip-path="url(#clip-path)">
    <g id="bell" transform="translate(3.475 1.95)">
      <path id="패스_752" data-name="패스 752" d="M24.774,9.254a.612.612,0,0,1-.612-.612,8.714,8.714,0,0,0-2.568-6.2.612.612,0,0,1,.866-.865,9.931,9.931,0,0,1,2.926,7.067.612.612,0,0,1-.612.612Zm0,0" transform="translate(-7.44 -0.485)" fill="#ff5c5c"/>
      <path id="패스_753" data-name="패스 753" d="M.612,9.255A.612.612,0,0,1,0,8.643,9.926,9.926,0,0,1,2.927,1.577a.612.612,0,0,1,.866.866,8.708,8.708,0,0,0-2.569,6.2.612.612,0,0,1-.612.612Zm0,0" transform="translate(0 -0.486)" fill="#ff5c5c"/>
      <path id="패스_754" data-name="패스 754" d="M12.122,28.046a3.062,3.062,0,0,1-3.059-3.059.612.612,0,0,1,1.224,0,1.835,1.835,0,1,0,3.671,0,.612.612,0,0,1,1.224,0A3.062,3.062,0,0,1,12.122,28.046Zm0,0" transform="translate(-3.148 -8.468)" fill="#ff5c5c"/>
      <path id="패스_755" data-name="패스 755" d="M16.137,18.433H2.678a1.428,1.428,0,0,1-.928-2.512A5.467,5.467,0,0,0,3.7,11.735V9.46a5.71,5.71,0,0,1,11.42,0v2.274a5.466,5.466,0,0,0,1.94,4.181,1.427,1.427,0,0,1-.92,2.518ZM9.407,4.974A4.491,4.491,0,0,0,4.921,9.46v2.274a6.686,6.686,0,0,1-2.374,5.115.2.2,0,0,0-.073.157.206.206,0,0,0,.2.2h13.46a.206.206,0,0,0,.2-.2.2.2,0,0,0-.072-.155,6.688,6.688,0,0,1-2.375-5.116V9.46A4.491,4.491,0,0,0,9.407,4.974Zm0,0" transform="translate(-0.434 -1.303)" fill="#ff5c5c"/>
      <path id="패스_756" data-name="패스 756" d="M13.424,3.671a.612.612,0,0,1-.612-.612V.612a.612.612,0,0,1,1.224,0V3.059A.612.612,0,0,1,13.424,3.671Zm0,0" transform="translate(-4.451 0)" fill="#ff5c5c"/>
    </g>
  </g>
</svg>
