<svg xmlns="http://www.w3.org/2000/svg" width="30" height="30" viewBox="0 0 30 30">
  <g id="double-arrow" transform="translate(-1 10)">
    <g id="타원_407" data-name="타원 407" transform="translate(1 -10)" fill="#fff" stroke="#0f3653" stroke-width="2">
      <circle cx="15" cy="15" r="15" stroke="none"/>
      <circle cx="15" cy="15" r="14" fill="none"/>
    </g>
    <path id="패스_121" data-name="패스 121" d="M25.8,13.48,21.452,9.137a.723.723,0,0,0-1,0l-.379.378a.727.727,0,0,0,0,1.014l2.462,2.479H9.451l2.474-2.491a.717.717,0,0,0,0-1.006l-.378-.382a.723.723,0,0,0-1,0L6.205,13.471a.732.732,0,0,0,0,1.015l4.343,4.343a.723.723,0,0,0,1,0l.378-.378a.679.679,0,0,0,0-.975L9.39,14.963H22.621l-2.546,2.524a.675.675,0,0,0-.206.487.687.687,0,0,0,.206.493l.378.376a.708.708,0,0,0,1,0L25.8,14.5a.733.733,0,0,0,0-1.016Z" transform="translate(0 -8.93)" fill="#0f3653"/>
  </g>
</svg>
