<svg xmlns="http://www.w3.org/2000/svg" width="49.659" height="45" viewBox="0 0 49.659 45">
  <g id="LOGO_W_S" transform="translate(-626.104 -1016.93)">
    <g id="Group_252" data-name="Group 252" transform="translate(626.104 1016.93)">
      <path id="Path_900" data-name="Path 900" d="M626.1,1025.579v-8.649h5.026v13.116c0,.2-.3.283-.447.133Z" transform="translate(-626.104 -1016.93)" fill="#fff"/>
      <path id="Path_901" data-name="Path 901" d="M658.387,1040.586V1016.93H653.36v28.123c0,.2.3.284.448.134Z" transform="translate(-645.821 -1016.93)" fill="#fff"/>
      <rect id="Rectangle_761" data-name="Rectangle 761" width="5.027" height="28.333" transform="translate(15.919 0)" fill="#fff"/>
      <path id="Path_902" data-name="Path 902" d="M711.361,1017.009c-.151-.151-.449-.063-.449.133v12.892c0,.2.3.283.449.133l4.579-4.6v-3.958Z" transform="translate(-687.454 -1016.932)" fill="#fff"/>
      <path id="Path_903" data-name="Path 903" d="M711.361,1071.316c-.151-.151-.449-.063-.449.133v12.892c0,.2.3.284.449.134l4.579-4.6v-3.959Z" transform="translate(-687.454 -1056.217)" fill="#fff"/>
      <path id="Path_904" data-name="Path 904" d="M744.028,1021.607v23.657H739v-28.124c0-.2.3-.284.447-.133Z" transform="translate(-707.774 -1016.931)" fill="#fff"/>
      <path id="Path_905" data-name="Path 905" d="M768.261,1021.607l.05,23.659-5.077,0v-28.124c0-.2.3-.284.447-.133Z" transform="translate(-725.304 -1016.931)" fill="#fff"/>
      <path id="Path_906" data-name="Path 906" d="M792.491,1021.607v23.657h-5.027v-28.124c0-.2.3-.284.448-.133Z" transform="translate(-742.832 -1016.931)" fill="#fff"/>
    </g>
    <g id="Group_253" data-name="Group 253" transform="translate(626.746 1051.678)">
      <path id="Path_907" data-name="Path 907" d="M637.7,1152.235v.964h-9.277v-.964Zm-.907-2a5.362,5.362,0,0,1-3.776-2.812,5.362,5.362,0,0,1-3.776,2.813l-.5-.964c2.019-.374,3.663-1.951,3.663-3.572v-.771h1.236v.771c0,1.633,1.644,3.209,3.663,3.572Z" transform="translate(-628.424 -1144.274)" fill="#fff"/>
      <path id="Path_908" data-name="Path 908" d="M665.365,1143.552h4.8v6.691h-4.8Zm1.157,5.761h2.483v-4.831h-2.483Zm8.018-1.792h-1.6v5.285h-1.168v-10.252h1.168v4h1.6Z" transform="translate(-655.147 -1142.554)" fill="#fff"/>
      <path id="Path_909" data-name="Path 909" d="M709.052,1152.748v.953h-9.288v-.953Zm-1.044-1.678h-7.1v-5.523h7.02v.941H702.1v1.316h5.6v.918h-5.6v1.406h5.908Z" transform="translate(-680.031 -1144.719)" fill="#fff"/>
      <path id="Path_910" data-name="Path 910" d="M744.711,1152.235v.964h-9.277v-.964Zm-.908-2a5.362,5.362,0,0,1-3.776-2.812,5.362,5.362,0,0,1-3.776,2.813l-.5-.964c2.019-.374,3.663-1.951,3.663-3.572v-.771h1.236v.771c0,1.633,1.644,3.209,3.663,3.572Z" transform="translate(-705.835 -1144.274)" fill="#fff"/>
      <path id="Path_911" data-name="Path 911" d="M776.339,1148.484v.9h2.994v2.529h-5.977v.862h6.328v.907h-7.474v-2.62h5.965v-.771h-5.988v-.907h2.982v-.9h-4.026v-.93h6.725a8.414,8.414,0,0,0,.17-1.077l-5.874.25-.136-.9,6.067-.17c.011-.272.011-.533.011-.794H772.3v-.919h6.952v.828a13.492,13.492,0,0,1-.215,2.778h1.338v.93Z" transform="translate(-731.668 -1143.562)" fill="#fff"/>
    </g>
  </g>
</svg>
