<svg width="60" height="59" viewBox="0 0 60 59" fill="none" xmlns="http://www.w3.org/2000/svg">
<g filter="url(#filter0_d_480_26)">
<path d="M6 29.5C6 16.7975 16.2975 6.5 29 6.5H30C43.2548 6.5 54 17.2452 54 30.5V52.5H29C16.2975 52.5 6 42.2025 6 29.5Z" fill="white"/>
</g>
<path fill-rule="evenodd" clip-rule="evenodd" d="M30 20.8333C25.2135 20.8333 21.3333 24.7135 21.3333 29.5C21.3333 34.2865 25.2135 38.1667 30 38.1667C34.7865 38.1667 38.6667 34.2865 38.6667 29.5C38.6667 24.7135 34.7865 20.8333 30 20.8333ZM17 29.5C17 22.3203 22.8203 16.5 30 16.5C37.1797 16.5 43 22.3203 43 29.5C43 36.6797 37.1797 42.5 30 42.5C22.8203 42.5 17 36.6797 17 29.5Z" fill="#41A2EA"/>
<defs>
<filter id="filter0_d_480_26" x="0" y="0.5" width="60" height="58" filterUnits="userSpaceOnUse" color-interpolation-filters="sRGB">
<feFlood flood-opacity="0" result="BackgroundImageFix"/>
<feColorMatrix in="SourceAlpha" type="matrix" values="0 0 0 0 0 0 0 0 0 0 0 0 0 0 0 0 0 0 127 0" result="hardAlpha"/>
<feOffset/>
<feGaussianBlur stdDeviation="3"/>
<feComposite in2="hardAlpha" operator="out"/>
<feColorMatrix type="matrix" values="0 0 0 0 0 0 0 0 0 0 0 0 0 0 0 0 0 0 0.4 0"/>
<feBlend mode="normal" in2="BackgroundImageFix" result="effect1_dropShadow_480_26"/>
<feBlend mode="normal" in="SourceGraphic" in2="effect1_dropShadow_480_26" result="shape"/>
</filter>
</defs>
</svg>
