<svg width="60" height="59" viewBox="0 0 60 59" fill="none" xmlns="http://www.w3.org/2000/svg">
<g filter="url(#filter0_d_480_20)">
<path d="M6 29.5C6 16.7975 16.2975 6.5 29 6.5H30C43.2548 6.5 54 17.2452 54 30.5V52.5H29C16.2975 52.5 6 42.2025 6 29.5Z" fill="white"/>
</g>
<path fill-rule="evenodd" clip-rule="evenodd" d="M40.7285 41.3398C40.9789 41.2352 41.2046 41.0826 41.3917 40.8912C41.7806 40.4983 41.9981 39.9769 41.9995 39.4342C42.0009 38.8915 41.7861 38.369 41.3992 37.9743L32.9271 29.5018L41.4004 21.0287C41.787 20.6339 42.0016 20.1113 42 19.5686C41.9984 19.026 41.7806 18.5046 41.3916 18.1119C41.2045 17.9205 40.9788 17.7678 40.7284 17.6632C40.4779 17.5586 40.2079 17.5043 39.9349 17.5035C39.6619 17.5027 39.3916 17.5555 39.1405 17.6586C38.8894 17.7618 38.6628 17.9131 38.4745 18.1034L30.0015 26.5762L21.5256 18.1C21.3373 17.9097 21.1107 17.7583 20.8596 17.6552C20.6085 17.552 20.3382 17.4992 20.0652 17.5C19.7922 17.5008 19.5222 17.5552 19.2718 17.6598C19.0213 17.7644 18.7957 17.917 18.6085 18.1084C18.2195 18.5011 18.0018 19.0225 18.0001 19.5652C17.9985 20.1078 18.2131 20.6304 18.5998 21.0253L27.0762 29.5015L18.5996 37.9778C18.213 38.3727 17.9984 38.8952 18 39.4379C18.0016 39.9805 18.2194 40.5019 18.6084 40.8946C18.7955 41.086 19.0212 41.2387 19.2716 41.3433C19.5221 41.4479 19.7921 41.5023 20.0651 41.5031C20.3381 41.5038 20.6084 41.451 20.8595 41.3479C21.1106 41.2447 21.3372 41.0934 21.5255 40.9031L30.0018 32.427L38.4746 40.8996C38.6629 41.0899 38.8896 41.2413 39.1407 41.3444C39.3918 41.4476 39.6621 41.5004 39.9351 41.4996C40.2081 41.4988 40.478 41.4445 40.7285 41.3398Z" fill="#FC5D5B"/>
<defs>
<filter id="filter0_d_480_20" x="0" y="0.5" width="60" height="58" filterUnits="userSpaceOnUse" color-interpolation-filters="sRGB">
<feFlood flood-opacity="0" result="BackgroundImageFix"/>
<feColorMatrix in="SourceAlpha" type="matrix" values="0 0 0 0 0 0 0 0 0 0 0 0 0 0 0 0 0 0 127 0" result="hardAlpha"/>
<feOffset/>
<feGaussianBlur stdDeviation="3"/>
<feComposite in2="hardAlpha" operator="out"/>
<feColorMatrix type="matrix" values="0 0 0 0 0 0 0 0 0 0 0 0 0 0 0 0 0 0 0.4 0"/>
<feBlend mode="normal" in2="BackgroundImageFix" result="effect1_dropShadow_480_20"/>
<feBlend mode="normal" in="SourceGraphic" in2="effect1_dropShadow_480_20" result="shape"/>
</filter>
</defs>
</svg>
