<svg width="24" height="30" viewBox="0 0 24 30" fill="none" xmlns="http://www.w3.org/2000/svg">
<g clip-path="url(#clip0_262_289)">
<path d="M18.362 14.3338C19.2222 13.3502 19.7311 12.1357 19.7311 10.831C19.7311 7.5088 16.0105 11.7574 12.0003 11.7574C7.99011 11.7574 5.19261 7.5088 5.19261 10.831C5.19261 12.1357 5.70145 13.3502 6.56165 14.3338L2.76953 26.8898L6.40415 24.8824L8.82722 28.8971L11.4078 16.7828C11.747 16.8229 12.0984 16.853 12.4618 16.853C12.8253 16.853 13.1766 16.8229 13.5159 16.7828L16.0965 28.8971L18.5195 24.8824L22.1541 26.8898L18.362 14.3338Z" fill="#F9BA48" stroke="#454545" stroke-linejoin="round"/>
<path d="M12.2289 23.8561C5.86452 23.8561 0.69043 18.663 0.69043 12.2752C0.69043 5.88745 5.86452 0.694336 12.2289 0.694336C18.5933 0.694336 23.7674 5.88745 23.7674 12.2752C23.7674 18.663 18.5933 23.8561 12.2289 23.8561ZM12.2289 1.91338C6.53861 1.91338 1.905 6.56401 1.905 12.2752C1.905 17.9864 6.53861 22.6371 12.2289 22.6371C17.9192 22.6371 22.5528 17.9864 22.5528 12.2752C22.5528 6.56401 17.9192 1.91338 12.2289 1.91338Z" fill="#454545"/>
<path d="M12.2287 22.1991C17.7003 22.1991 22.1235 17.7491 22.1235 12.2753C22.1235 6.80151 17.7003 2.35156 12.2287 2.35156C6.7571 2.35156 2.33398 6.80151 2.33398 12.2753C2.33398 17.7491 6.7571 22.1991 12.2287 22.1991Z" fill="#F9BA48" stroke="white" stroke-width="4"/>
<path d="M12.4974 17.9561H11.9574V7.77105L10.9374 8.44605L10.6374 7.99605L11.9574 7.12605H12.4974V17.9561Z" fill="white"/>
</g>
<defs>
<clipPath id="clip0_262_289">
<rect width="24" height="29.6471" fill="white" transform="translate(0 0.176758)"/>
</clipPath>
</defs>
</svg>
