<svg width="21" height="22" viewBox="0 0 21 22" fill="none" xmlns="http://www.w3.org/2000/svg">
<path d="M16.9043 10.8654L19.7187 8.05099C20.2004 7.56924 20.2004 6.8086 19.7187 6.32685L14.673 1.28123C14.1913 0.799486 13.4053 0.799486 12.9489 1.28123L10.1345 4.09562L16.9043 10.8654Z" fill="#787EC1" stroke="#787EC1" stroke-width="1.5" stroke-linecap="round" stroke-linejoin="round"/>
<path d="M13.514 7.483L5.6972 15.2998L9.08568 18.6883L16.9025 10.8715L13.514 7.483Z" fill="white" stroke="#00416C" stroke-width="1.5" stroke-linecap="round" stroke-linejoin="round"/>
<path d="M10.131 4.07626L2.31415 11.8931L5.70262 15.2815L13.5194 7.46474L10.131 4.07626Z" fill="white" stroke="#00416C" stroke-width="1.5" stroke-linecap="round" stroke-linejoin="round"/>
<path d="M3.79581 19.5625L9.09498 18.675L5.69743 15.3028L2.32523 11.9053L1.43781 17.2044L3.79581 19.5625Z" fill="white" stroke="#00416C" stroke-width="1.5" stroke-linecap="round" stroke-linejoin="round"/>
<path d="M0.956055 20.0443L3.7958 19.5626L1.4378 17.2046L0.956055 20.0443Z" fill="#00416C" stroke="#00416C" stroke-width="1.5" stroke-linecap="round" stroke-linejoin="round"/>
<path d="M17.3607 11.9048C16.8536 12.4119 16.0676 12.4119 15.5605 11.9048L9.09505 5.4393C8.58795 4.9322 8.58795 4.1462 9.09505 3.6391L9.45001 3.28413C9.95711 2.77703 10.7431 2.77703 11.2502 3.28413L17.7157 9.74963C18.2228 10.2567 18.2228 11.0427 17.7157 11.5498L17.3607 11.9048Z" fill="white" stroke="#787EC1" stroke-width="1.5" stroke-linecap="round" stroke-linejoin="round"/>
<path d="M0.880005 21.1816H15.0787" stroke="#00416C" stroke-width="1.5" stroke-linecap="round" stroke-linejoin="round"/>
</svg>
