<svg width="24" height="30" viewBox="0 0 24 30" fill="none" xmlns="http://www.w3.org/2000/svg">
<g clip-path="url(#clip0_262_301)">
<path d="M18.362 14.3338C19.2222 13.3502 19.7311 12.1357 19.7311 10.831C19.7311 7.5088 16.0105 11.7574 12.0003 11.7574C7.99011 11.7574 5.19261 7.5088 5.19261 10.831C5.19261 12.1357 5.70145 13.3502 6.56165 14.3338L2.76953 26.8898L6.40415 24.8824L8.82722 28.8971L11.4078 16.7828C11.747 16.8229 12.0984 16.853 12.4618 16.853C12.8253 16.853 13.1766 16.8229 13.5159 16.7828L16.0965 28.8971L18.5195 24.8824L22.1541 26.8898L18.362 14.3338Z" fill="#AAAAAA" stroke="#454545" stroke-linejoin="round"/>
<path d="M12.2289 23.8561C5.86452 23.8561 0.69043 18.663 0.69043 12.2752C0.69043 5.88745 5.86452 0.694336 12.2289 0.694336C18.5933 0.694336 23.7674 5.88745 23.7674 12.2752C23.7674 18.663 18.5933 23.8561 12.2289 23.8561ZM12.2289 1.91338C6.53861 1.91338 1.905 6.56401 1.905 12.2752C1.905 17.9864 6.53861 22.6371 12.2289 22.6371C17.9192 22.6371 22.5528 17.9864 22.5528 12.2752C22.5528 6.56401 17.9192 1.91338 12.2289 1.91338Z" fill="#454545"/>
<path d="M12.2287 22.1991C17.7003 22.1991 22.1235 17.7491 22.1235 12.2753C22.1235 6.80151 17.7003 2.35156 12.2287 2.35156C6.7571 2.35156 2.33398 6.80151 2.33398 12.2753C2.33398 17.7491 6.7571 22.1991 12.2287 22.1991Z" fill="#AAAAAA" stroke="white" stroke-width="4"/>
<path d="M8.82377 17.4161C9.03377 17.1961 9.28377 16.9461 9.57377 16.6661C9.87377 16.3861 10.1638 16.1111 10.4438 15.8411C11.3038 15.0311 12.0038 14.3411 12.5438 13.7711C13.0938 13.2011 13.5538 12.6111 13.9238 12.0011C14.3038 11.3911 14.4938 10.8161 14.4938 10.2761C14.4938 9.71605 14.3788 9.23105 14.1488 8.82105C13.9288 8.41105 13.6338 8.10105 13.2638 7.89105C12.8938 7.67105 12.4938 7.56105 12.0638 7.56105C11.5538 7.56105 11.0738 7.70105 10.6238 7.98105C10.1738 8.25105 9.80877 8.73105 9.52877 9.42105L9.01877 9.21105C9.23877 8.67105 9.51877 8.24105 9.85877 7.92105C10.2088 7.59105 10.5688 7.36105 10.9388 7.23105C11.3188 7.09105 11.6938 7.02105 12.0638 7.02105C12.5738 7.02105 13.0538 7.15605 13.5038 7.42605C13.9638 7.68605 14.3338 8.06105 14.6138 8.55105C14.8938 9.04105 15.0338 9.61605 15.0338 10.2761C15.0338 10.8861 14.8338 11.5261 14.4338 12.1961C14.0338 12.8561 13.5538 13.4861 12.9938 14.0861C12.4338 14.6761 11.6938 15.4061 10.7738 16.2761C10.0338 16.9761 9.51377 17.4811 9.21377 17.7911L8.82377 17.4161ZM8.82377 17.4161H15.1688V17.9561H8.82377V17.4161Z" fill="white"/>
</g>
<defs>
<clipPath id="clip0_262_301">
<rect width="24" height="29.6471" fill="white" transform="translate(0 0.176758)"/>
</clipPath>
</defs>
</svg>
