<svg width="24" height="30" viewBox="0 0 24 30" fill="none" xmlns="http://www.w3.org/2000/svg">
<g clip-path="url(#clip0_262_313)">
<path d="M18.362 14.3338C19.2222 13.3502 19.7311 12.1357 19.7311 10.831C19.7311 7.5088 16.0105 11.7574 12.0003 11.7574C7.99011 11.7574 5.19261 7.5088 5.19261 10.831C5.19261 12.1357 5.70145 13.3502 6.56165 14.3338L2.76953 26.8898L6.40415 24.8824L8.82722 28.8971L11.4078 16.7828C11.747 16.8229 12.0984 16.853 12.4618 16.853C12.8253 16.853 13.1766 16.8229 13.5159 16.7828L16.0965 28.8971L18.5195 24.8824L22.1541 26.8898L18.362 14.3338Z" fill="#BE6C5C" stroke="#454545" stroke-linejoin="round"/>
<path d="M12.2289 23.8561C5.86452 23.8561 0.69043 18.663 0.69043 12.2752C0.69043 5.88745 5.86452 0.694336 12.2289 0.694336C18.5933 0.694336 23.7674 5.88745 23.7674 12.2752C23.7674 18.663 18.5933 23.8561 12.2289 23.8561ZM12.2289 1.91338C6.53861 1.91338 1.905 6.56401 1.905 12.2752C1.905 17.9864 6.53861 22.6371 12.2289 22.6371C17.9192 22.6371 22.5528 17.9864 22.5528 12.2752C22.5528 6.56401 17.9192 1.91338 12.2289 1.91338Z" fill="#454545"/>
<path d="M12.2287 22.1991C17.7003 22.1991 22.1235 17.7491 22.1235 12.2753C22.1235 6.80151 17.7003 2.35156 12.2287 2.35156C6.7571 2.35156 2.33398 6.80151 2.33398 12.2753C2.33398 17.7491 6.7571 22.1991 12.2287 22.1991Z" fill="#BE6C5C" stroke="white" stroke-width="4"/>
<path d="M13.2907 12.3461C13.9707 12.5061 14.4857 12.8261 14.8357 13.3061C15.1857 13.7761 15.3607 14.3011 15.3607 14.8811C15.3607 15.4711 15.2057 16.0111 14.8957 16.5011C14.5857 16.9911 14.1707 17.3761 13.6507 17.6561C13.1407 17.9261 12.5907 18.0611 12.0007 18.0611C11.4107 18.0611 10.8557 17.9261 10.3357 17.6561C9.82566 17.3761 9.41566 16.9911 9.10566 16.5011C8.79566 16.0111 8.64066 15.4711 8.64066 14.8811H9.18066C9.18066 15.3211 9.30066 15.7461 9.54066 16.1561C9.78066 16.5561 10.1157 16.8811 10.5457 17.1311C10.9757 17.3711 11.4607 17.4911 12.0007 17.4911C12.5407 17.4911 13.0257 17.3711 13.4557 17.1311C13.8857 16.8811 14.2207 16.5711 14.4607 16.2011C14.7007 15.8211 14.8207 15.4411 14.8207 15.0611C14.8207 14.3811 14.5907 13.8061 14.1307 13.3361C13.6707 12.8561 12.9707 12.6161 12.0307 12.6161H11.7757V12.0911H12.0157C12.8757 12.0911 13.5307 11.8811 13.9807 11.4611C14.4407 11.0411 14.6707 10.4861 14.6707 9.79605C14.6707 9.46605 14.5607 9.13105 14.3407 8.79105C14.1207 8.44105 13.8107 8.15105 13.4107 7.92105C13.0207 7.68105 12.5757 7.56105 12.0757 7.56105C11.5757 7.56105 11.1257 7.67605 10.7257 7.90605C10.3357 8.12605 10.0257 8.42105 9.79566 8.79105C9.57566 9.16105 9.46566 9.55105 9.46566 9.96105H8.92566C8.92566 9.41105 9.07066 8.91105 9.36066 8.46105C9.66066 8.00105 10.0507 7.64105 10.5307 7.38105C11.0207 7.12105 11.5357 6.99105 12.0757 6.99105C12.6257 6.99105 13.1407 7.12105 13.6207 7.38105C14.1007 7.64105 14.4857 7.99605 14.7757 8.44605C15.0657 8.89605 15.2107 9.40105 15.2107 9.96105C15.2107 10.4911 15.0607 10.9561 14.7607 11.3561C14.4607 11.7561 13.9707 12.0861 13.2907 12.3461Z" fill="white"/>
</g>
<defs>
<clipPath id="clip0_262_313">
<rect width="24" height="29.6471" fill="white" transform="translate(0 0.176758)"/>
</clipPath>
</defs>
</svg>
