<svg xmlns="http://www.w3.org/2000/svg" xmlns:xlink="http://www.w3.org/1999/xlink" width="110" height="110" viewBox="0 0 110 110">
  <defs>
    <clipPath id="clip-path">
      <rect id="사각형_1004" data-name="사각형 1004" width="110" height="110" transform="translate(1055 2408)" fill="#fff" stroke="#707070" stroke-width="1"/>
    </clipPath>
  </defs>
  <g id="마스크_그룹_12" data-name="마스크 그룹 12" transform="translate(-1055 -2408)" clip-path="url(#clip-path)">
    <g id="schedule" transform="translate(1055 2408)">
      <g id="그룹_5218" data-name="그룹 5218">
        <path id="패스_5479" data-name="패스 5479" d="M52.9,91.667H11a7.333,7.333,0,0,1-7.333-7.333V77h56.28Z" fill="#d3dcfb"/>
        <path id="패스_5480" data-name="패스 5480" d="M99.005,33V84.333H11A7.333,7.333,0,0,1,3.665,77V33L55,14.667Z" fill="#ebf5fc"/>
        <g id="그룹_5211" data-name="그룹 5211">
          <path id="패스_5481" data-name="패스 5481" d="M16.615,47.667h-3.9A1.719,1.719,0,0,1,11,45.948v-3.9a1.719,1.719,0,0,1,1.719-1.719h3.9a1.719,1.719,0,0,1,1.719,1.719v3.9A1.719,1.719,0,0,1,16.615,47.667Z" fill="#5391d9"/>
          <path id="패스_5482" data-name="패스 5482" d="M31.282,47.667h-3.9a1.719,1.719,0,0,1-1.719-1.719v-3.9a1.719,1.719,0,0,1,1.719-1.719h3.9A1.719,1.719,0,0,1,33,42.052v3.9A1.719,1.719,0,0,1,31.282,47.667Z" fill="#5391d9"/>
          <path id="패스_5483" data-name="패스 5483" d="M45.948,47.667h-3.9a1.719,1.719,0,0,1-1.719-1.719v-3.9a1.719,1.719,0,0,1,1.719-1.719h3.9a1.719,1.719,0,0,1,1.719,1.719v3.9A1.719,1.719,0,0,1,45.948,47.667Z" fill="#5391d9"/>
          <path id="패스_5484" data-name="패스 5484" d="M60.615,47.667h-3.9A1.719,1.719,0,0,1,55,45.948v-3.9a1.719,1.719,0,0,1,1.719-1.719h3.9a1.719,1.719,0,0,1,1.719,1.719v3.9A1.719,1.719,0,0,1,60.615,47.667Z" fill="#5391d9"/>
          <path id="패스_5485" data-name="패스 5485" d="M75.279,47.667h-3.9a1.719,1.719,0,0,1-1.719-1.719v-3.9a1.719,1.719,0,0,1,1.719-1.719h3.9A1.719,1.719,0,0,1,77,42.052v3.9A1.719,1.719,0,0,1,75.279,47.667Z" fill="#5391d9"/>
          <path id="패스_5486" data-name="패스 5486" d="M89.946,47.667h-3.9a1.719,1.719,0,0,1-1.719-1.719v-3.9a1.719,1.719,0,0,1,1.719-1.719h3.9a1.719,1.719,0,0,1,1.719,1.719v3.9A1.719,1.719,0,0,1,89.946,47.667Z" fill="#5391d9"/>
          <path id="패스_5487" data-name="패스 5487" d="M16.615,62.333h-3.9A1.719,1.719,0,0,1,11,60.615v-3.9A1.719,1.719,0,0,1,12.719,55h3.9a1.719,1.719,0,0,1,1.719,1.719v3.9A1.719,1.719,0,0,1,16.615,62.333Z" fill="#5391d9"/>
          <path id="패스_5488" data-name="패스 5488" d="M31.282,62.333h-3.9a1.719,1.719,0,0,1-1.719-1.719v-3.9A1.719,1.719,0,0,1,27.386,55h3.9A1.719,1.719,0,0,1,33,56.719v3.9A1.719,1.719,0,0,1,31.282,62.333Z" fill="#5391d9"/>
          <path id="패스_5489" data-name="패스 5489" d="M45.948,62.333h-3.9a1.719,1.719,0,0,1-1.719-1.719v-3.9A1.719,1.719,0,0,1,42.053,55h3.9a1.719,1.719,0,0,1,1.719,1.719v3.9A1.719,1.719,0,0,1,45.948,62.333Z" fill="#5391d9"/>
          <path id="패스_5490" data-name="패스 5490" d="M62.334,62.333v-5.5A1.833,1.833,0,0,0,60.5,55H56.834A1.833,1.833,0,0,0,55,56.833V60.5a1.833,1.833,0,0,0,1.833,1.833Z" fill="#5391d9"/>
          <path id="패스_5491" data-name="패스 5491" d="M16.615,77h-3.9A1.719,1.719,0,0,1,11,75.281v-3.9a1.719,1.719,0,0,1,1.719-1.719h3.9a1.719,1.719,0,0,1,1.719,1.719v3.9A1.719,1.719,0,0,1,16.615,77Z" fill="#5391d9"/>
          <path id="패스_5492" data-name="패스 5492" d="M31.282,77h-3.9a1.719,1.719,0,0,1-1.719-1.719v-3.9a1.719,1.719,0,0,1,1.719-1.719h3.9A1.719,1.719,0,0,1,33,71.385v3.9A1.719,1.719,0,0,1,31.282,77Z" fill="#5391d9"/>
          <path id="패스_5493" data-name="패스 5493" d="M45.948,77h-3.9a1.719,1.719,0,0,1-1.719-1.719v-3.9a1.719,1.719,0,0,1,1.719-1.719h3.9a1.719,1.719,0,0,1,1.719,1.719v3.9A1.719,1.719,0,0,1,45.948,77Z" fill="#5391d9"/>
        </g>
        <path id="패스_5494" data-name="패스 5494" d="M89.894,40.333H86.1a1.767,1.767,0,0,0-.649.124A1.77,1.77,0,0,1,86.574,42.1V45.9a1.77,1.77,0,0,1-1.121,1.646,1.763,1.763,0,0,0,.649.125h3.792A1.771,1.771,0,0,0,91.665,45.9V42.1A1.771,1.771,0,0,0,89.894,40.333Z" fill="#7ebaff"/>
        <path id="패스_5495" data-name="패스 5495" d="M75.228,40.333H71.436a1.767,1.767,0,0,0-.649.124A1.77,1.77,0,0,1,71.908,42.1V45.9a1.77,1.77,0,0,1-1.121,1.646,1.763,1.763,0,0,0,.649.125h3.792A1.77,1.77,0,0,0,77,45.9V42.1A1.771,1.771,0,0,0,75.228,40.333Z" fill="#7ebaff"/>
        <path id="패스_5496" data-name="패스 5496" d="M60.563,40.333H56.771a1.767,1.767,0,0,0-.649.124A1.77,1.77,0,0,1,57.244,42.1V45.9a1.77,1.77,0,0,1-1.121,1.646,1.763,1.763,0,0,0,.649.125h3.792A1.771,1.771,0,0,0,62.334,45.9V42.1A1.771,1.771,0,0,0,60.563,40.333Z" fill="#7ebaff"/>
        <path id="패스_5497" data-name="패스 5497" d="M45.9,40.333H42.1a1.767,1.767,0,0,0-.649.124A1.77,1.77,0,0,1,42.577,42.1V45.9a1.77,1.77,0,0,1-1.121,1.646,1.763,1.763,0,0,0,.649.125H45.9A1.771,1.771,0,0,0,47.667,45.9V42.1A1.771,1.771,0,0,0,45.9,40.333Z" fill="#7ebaff"/>
        <path id="패스_5498" data-name="패스 5498" d="M31.23,40.333H27.438a1.767,1.767,0,0,0-.649.124A1.77,1.77,0,0,1,27.91,42.1V45.9a1.77,1.77,0,0,1-1.121,1.646,1.763,1.763,0,0,0,.649.125H31.23A1.771,1.771,0,0,0,33,45.9V42.1A1.771,1.771,0,0,0,31.23,40.333Z" fill="#7ebaff"/>
        <path id="패스_5499" data-name="패스 5499" d="M16.563,40.333H12.771a1.767,1.767,0,0,0-.649.124A1.77,1.77,0,0,1,13.244,42.1V45.9a1.77,1.77,0,0,1-1.121,1.646,1.763,1.763,0,0,0,.649.125h3.792A1.771,1.771,0,0,0,18.334,45.9V42.1A1.771,1.771,0,0,0,16.563,40.333Z" fill="#7ebaff"/>
        <path id="패스_5500" data-name="패스 5500" d="M16.563,55H12.771a1.767,1.767,0,0,0-.649.124,1.77,1.77,0,0,1,1.121,1.646v3.792a1.77,1.77,0,0,1-1.121,1.646,1.763,1.763,0,0,0,.649.125h3.792a1.771,1.771,0,0,0,1.771-1.771V56.771A1.771,1.771,0,0,0,16.563,55Z" fill="#7ebaff"/>
        <path id="패스_5501" data-name="패스 5501" d="M16.563,69.667H12.771a1.767,1.767,0,0,0-.649.124,1.77,1.77,0,0,1,1.121,1.646v3.792a1.77,1.77,0,0,1-1.121,1.646,1.763,1.763,0,0,0,.649.125h3.792a1.771,1.771,0,0,0,1.771-1.771V71.437a1.771,1.771,0,0,0-1.771-1.771Z" fill="#7ebaff"/>
        <path id="패스_5502" data-name="패스 5502" d="M31.23,55H27.438a1.767,1.767,0,0,0-.649.124,1.77,1.77,0,0,1,1.121,1.646v3.792a1.77,1.77,0,0,1-1.121,1.646,1.763,1.763,0,0,0,.649.125H31.23A1.771,1.771,0,0,0,33,60.563V56.771A1.771,1.771,0,0,0,31.23,55Z" fill="#7ebaff"/>
        <path id="패스_5503" data-name="패스 5503" d="M31.23,69.667H27.438a1.767,1.767,0,0,0-.649.124,1.77,1.77,0,0,1,1.121,1.646v3.792a1.77,1.77,0,0,1-1.121,1.646,1.763,1.763,0,0,0,.649.125H31.23A1.771,1.771,0,0,0,33,75.23V71.437a1.771,1.771,0,0,0-1.771-1.771Z" fill="#7ebaff"/>
        <path id="패스_5504" data-name="패스 5504" d="M45.9,55H42.1a1.767,1.767,0,0,0-.649.124,1.77,1.77,0,0,1,1.121,1.646v3.792a1.77,1.77,0,0,1-1.121,1.646,1.763,1.763,0,0,0,.649.125H45.9a1.771,1.771,0,0,0,1.771-1.771V56.771A1.771,1.771,0,0,0,45.9,55Z" fill="#7ebaff"/>
        <path id="패스_5505" data-name="패스 5505" d="M62.334,62.333V56.771A1.771,1.771,0,0,0,60.563,55H56.771a1.767,1.767,0,0,0-.649.124,1.77,1.77,0,0,1,1.121,1.646v3.792a1.77,1.77,0,0,1-1.121,1.646,1.763,1.763,0,0,0,.649.125h5.563Z" fill="#7ebaff"/>
        <path id="패스_5506" data-name="패스 5506" d="M45.9,69.667H42.1a1.767,1.767,0,0,0-.649.124,1.77,1.77,0,0,1,1.121,1.646v3.792a1.77,1.77,0,0,1-1.121,1.646A1.763,1.763,0,0,0,42.1,77H45.9a1.771,1.771,0,0,0,1.771-1.771V71.437A1.771,1.771,0,0,0,45.9,69.667Z" fill="#7ebaff"/>
        <path id="패스_5507" data-name="패스 5507" d="M93.911,30.878V84.333h5.094V33Z" fill="#d3dcfb"/>
        <path id="패스_5508" data-name="패스 5508" d="M99.005,33V14.667a7.333,7.333,0,0,0-7.333-7.333H11a7.333,7.333,0,0,0-7.333,7.333V33Z" fill="#ffe571"/>
        <g id="그룹_5217" data-name="그룹 5217">
          <g id="그룹_5216" data-name="그룹 5216">
            <g id="그룹_5212" data-name="그룹 5212">
              <path id="패스_5509" data-name="패스 5509" d="M26.771,16.327H22a1.66,1.66,0,1,1,0-3.32h4.773a1.66,1.66,0,0,1,0,3.32Z" fill="#feb31e"/>
            </g>
            <g id="그룹_5213" data-name="그룹 5213">
              <path id="패스_5510" data-name="패스 5510" d="M38.5,16.327H33.725a1.66,1.66,0,1,1,0-3.32H38.5a1.66,1.66,0,0,1,0,3.32Z" fill="#feb31e"/>
            </g>
            <g id="그룹_5214" data-name="그룹 5214">
              <path id="패스_5511" data-name="패스 5511" d="M68.941,16.327H64.167a1.66,1.66,0,1,1,0-3.32h4.773a1.66,1.66,0,0,1,0,3.32Z" fill="#feb31e"/>
            </g>
            <g id="그룹_5215" data-name="그룹 5215">
              <path id="패스_5512" data-name="패스 5512" d="M80.667,16.327H75.894a1.66,1.66,0,1,1,0-3.32h4.773a1.66,1.66,0,1,1,0,3.32Z" fill="#feb31e"/>
            </g>
          </g>
        </g>
        <path id="패스_5513" data-name="패스 5513" d="M34.832,13.75a4.583,4.583,0,0,1-9.167,0V4.583a4.583,4.583,0,1,1,9.166,0V13.75Z" fill="#ebf5fc"/>
        <path id="패스_5514" data-name="패스 5514" d="M77,13.75a4.583,4.583,0,0,1-9.167,0V4.583a4.583,4.583,0,0,1,9.167,0V13.75Z" fill="#ebf5fc"/>
        <path id="패스_5515" data-name="패스 5515" d="M72.417,0a4.561,4.561,0,0,0-2.543.771,4.578,4.578,0,0,1,2.041,3.813V13.75a4.578,4.578,0,0,1-2.041,3.813A4.582,4.582,0,0,0,77,13.75V4.583A4.583,4.583,0,0,0,72.417,0Z" fill="#d3dcfb"/>
        <path id="패스_5516" data-name="패스 5516" d="M30.248,0a4.561,4.561,0,0,0-2.543.771,4.578,4.578,0,0,1,2.041,3.813V13.75a4.578,4.578,0,0,1-2.041,3.813,4.582,4.582,0,0,0,7.126-3.812V4.583A4.583,4.583,0,0,0,30.248,0Z" fill="#d3dcfb"/>
        <path id="패스_5517" data-name="패스 5517" d="M91.672,7.333H86.58a7.333,7.333,0,0,1,7.333,7.333V33h5.092V14.667a7.333,7.333,0,0,0-7.333-7.333Z" fill="#feb31e"/>
        <path id="패스_5518" data-name="패스 5518" d="M3.665,24.007H99.005v3.32H3.665Z" fill="#feb31e"/>
      </g>
      <circle id="타원_67" data-name="타원 67" cx="27.5" cy="27.5" r="27.5" transform="translate(51.335 55)" fill="#feb31e"/>
      <circle id="타원_68" data-name="타원 68" cx="20.167" cy="20.167" r="20.167" transform="translate(58.668 62.333)" fill="#fff"/>
      <g id="그룹_5220" data-name="그룹 5220">
        <g id="그룹_5219" data-name="그룹 5219">
          <path id="패스_5519" data-name="패스 5519" d="M78.835,80.493a1.66,1.66,0,0,1-1.66-1.66V69.667a1.66,1.66,0,0,1,3.32,0v9.167A1.66,1.66,0,0,1,78.835,80.493Z" fill="#ff7307"/>
        </g>
      </g>
      <g id="그룹_5222" data-name="그룹 5222">
        <g id="그룹_5221" data-name="그룹 5221">
          <path id="패스_5520" data-name="패스 5520" d="M88,84.16H82.5a1.66,1.66,0,0,1,0-3.32H88a1.66,1.66,0,0,1,0,3.32Z" fill="#ff7307"/>
        </g>
      </g>
      <path id="패스_5521" data-name="패스 5521" d="M78.835,55c-.858,0-1.707.041-2.545.118a27.5,27.5,0,0,1,0,54.763c.838.077,1.687.118,2.545.118a27.5,27.5,0,0,0,0-55Z" fill="#ff7307"/>
      <path id="패스_5522" data-name="패스 5522" d="M78.835,62.333a20.365,20.365,0,0,0-2.544.159,20.169,20.169,0,0,1,0,40.015,20.168,20.168,0,1,0,2.544-40.174Z" fill="#ebf5fc"/>
      <circle id="타원_69" data-name="타원 69" cx="3.667" cy="3.667" r="3.667" transform="translate(75.168 78.833)" fill="#feb31e"/>
    </g>
  </g>
</svg>
