<svg id="checked_5_" data-name="checked (5)" xmlns="http://www.w3.org/2000/svg" width="50" height="50" viewBox="0 0 50 50">
  <g id="그룹_777" data-name="그룹 777" transform="translate(11.872 6.282)">
    <g id="그룹_776" data-name="그룹 776">
      <path id="패스_1041" data-name="패스 1041" d="M50.945,8.092a1.884,1.884,0,0,0-2.665,0L25.673,30.636l-8.156-8.859a1.884,1.884,0,1,0-2.773,2.553l9.485,10.3a1.882,1.882,0,0,0,1.346.607h.04a1.886,1.886,0,0,0,1.33-.55l24-23.932A1.884,1.884,0,0,0,50.945,8.092Z" transform="translate(-14.246 -7.538)" fill="#ff5c5c"/>
    </g>
  </g>
  <g id="그룹_779" data-name="그룹 779">
    <g id="그룹_778" data-name="그룹 778">
      <path id="패스_1042" data-name="패스 1042" d="M48.116,23.116A1.884,1.884,0,0,0,46.231,25,21.231,21.231,0,1,1,25,3.769,1.884,1.884,0,1,0,25,0,25,25,0,1,0,50,25,1.884,1.884,0,0,0,48.116,23.116Z" fill="#fdd4d4"/>
    </g>
  </g>
</svg>
