<svg xmlns="http://www.w3.org/2000/svg" xmlns:xlink="http://www.w3.org/1999/xlink" width="200" height="200" viewBox="0 0 200 200">
  <defs>
    <clipPath id="clip-path">
      <rect id="사각형_386" data-name="사각형 386" width="60" height="60" transform="translate(1248 137)" fill="#e0f4f1"/>
    </clipPath>
  </defs>
  <g id="그룹_1287" data-name="그룹 1287" transform="translate(-903 -503)">
    <rect id="사각형_505" data-name="사각형 505" width="200" height="200" rx="15" transform="translate(903 503)" fill="#f5f5f5"/>
    <g id="마스크_그룹_133" data-name="마스크 그룹 133" transform="translate(-275 418)" clip-path="url(#clip-path)">
      <g id="Layer_2" data-name="Layer 2" transform="translate(1249.248 138.258)">
        <g id="Layer_26" data-name="Layer 26" transform="translate(0 0)">
          <path id="패스_357" data-name="패스 357" d="M29.375,11.577c11.084,0,20.07,7.719,20.07,17.24a15.5,15.5,0,0,1-3.353,9.542l2.979,8.8-9.409-3.533a22.5,22.5,0,0,1-10.287,2.434c-11.083,0-20.069-7.718-20.069-17.24S18.289,11.577,29.375,11.577Z" transform="translate(8.059 10.329)" fill="#454545" stroke="#454545" stroke-linecap="round" stroke-linejoin="round" stroke-width="1.248"/>
          <path id="패스_358" data-name="패스 358" d="M20.693.624C9.608.624.624,8.343.624,17.864a15.5,15.5,0,0,0,3.353,9.542L1,36.2l9.407-3.533A22.506,22.506,0,0,0,20.693,35.1c11.084,0,20.07-7.719,20.07-17.241S31.777.624,20.693.624Z" transform="translate(-0.624 -0.624)" fill="#00a58a" stroke="#00a58a" stroke-linecap="round" stroke-linejoin="round" stroke-width="1.248"/>
          <path id="패스_359" data-name="패스 359" d="M7.387,12.59a8.5,8.5,0,0,1,.477-2.91A6.727,6.727,0,0,1,9.209,7.414a5.946,5.946,0,0,1,2.04-1.46,6.34,6.34,0,0,1,2.564-.515,6.27,6.27,0,0,1,2.554.515,5.972,5.972,0,0,1,2.025,1.46,6.683,6.683,0,0,1,1.338,2.265,8.5,8.5,0,0,1,.478,2.91,8.823,8.823,0,0,1-.262,2.2A7.362,7.362,0,0,1,19.2,16.65l1.1.973a.453.453,0,0,1,.125.58,3.353,3.353,0,0,1-.533.73,3.127,3.127,0,0,1-.646.6.416.416,0,0,1-.533-.056l-1.1-.973a5.932,5.932,0,0,1-1.747.917,6.472,6.472,0,0,1-2.059.318,6.339,6.339,0,0,1-2.564-.514,5.989,5.989,0,0,1-2.031-1.454,6.621,6.621,0,0,1-1.345-2.246,8.56,8.56,0,0,1-.477-2.935Zm8.2.861,1.647,1.46a6.463,6.463,0,0,0,.393-2.321,7.2,7.2,0,0,0-.235-1.853,4.79,4.79,0,0,0-.711-1.554,3.536,3.536,0,0,0-1.188-1.067,3.39,3.39,0,0,0-1.666-.393,3.539,3.539,0,0,0-1.7.393,3.485,3.485,0,0,0-1.208,1.067,4.939,4.939,0,0,0-.72,1.554,7.249,7.249,0,0,0,0,3.725,4.815,4.815,0,0,0,.72,1.545,3.443,3.443,0,0,0,2.911,1.45,3.379,3.379,0,0,0,1.965-.58l-1.8-1.61Z" transform="translate(6.139 4.191)" fill="#fff"/>
          <path id="패스_360" data-name="패스 360" d="M19.075,30.1h-2.62L21.527,16.3h1.984L28.564,30.1H25.925l-.936-2.77H20.067Zm1.759-5.054H24.2l-1.647-4.735Z" transform="translate(15.207 15.054)" fill="#fff"/>
        </g>
      </g>
    </g>
    <text id="입력형" transform="translate(978 656)" fill="#303d53" font-size="18" font-family="NotoSansKR-Regular, Noto Sans KR"><tspan x="0" y="0">입력형</tspan></text>
  </g>
</svg>
