<svg xmlns="http://www.w3.org/2000/svg" xmlns:xlink="http://www.w3.org/1999/xlink" width="19" height="19" viewBox="0 0 19 19">
  <defs>
    <clipPath id="clip-path">
      <rect id="사각형_273" data-name="사각형 273" width="19" height="19" transform="translate(1385 760)" fill="#fff"/>
    </clipPath>
  </defs>
  <g id="icon_발표도우미" transform="translate(-1385 -760)" clip-path="url(#clip-path)">
    <g id="fist" transform="translate(1385 760)">
      <path id="패스_258" data-name="패스 258" d="M16.458,13.99V11.764a.557.557,0,0,0-.823-.489l-3.816,2.081V12.81a3.808,3.808,0,0,0,2.227-3.468V7.236a2.044,2.044,0,0,0-1.484-1.963V2.412a1.669,1.669,0,0,0-2.408-1.5,1.669,1.669,0,0,0-2.977,0,1.668,1.668,0,0,0-2.227.742,1.669,1.669,0,0,0-2.408,1.5V10.03a3.223,3.223,0,0,0,1.484,2.725v.679a.557.557,0,0,0-.557.557v2.227a.556.556,0,0,0,.371.524v1.7A.557.557,0,0,0,4.4,19h7.051A.557.557,0,0,0,12,18.443V16.952l3.63,1.98a.557.557,0,0,0,.823-.489V16.217a.557.557,0,0,0-.29-.489L15.023,15.1l1.145-.625a.557.557,0,0,0,.29-.489Zm-11.875.557h6.68V15.66H4.583ZM10.892,1.855a.557.557,0,0,1,.557.557V5.2H10.335V2.412A.557.557,0,0,1,10.892,1.855ZM8.108,1.67a.557.557,0,0,1,1.113,0V5.2H8.108Zm-2.227.742A.557.557,0,0,1,7,2.412V5.381a.557.557,0,0,1-1.113,0Zm-2.227.742a.557.557,0,0,1,1.113,0V5.381a.557.557,0,0,1-1.113,0Zm1.177,8.78a2.118,2.118,0,0,1-1.177-1.9V6.955a1.666,1.666,0,0,0,1.67-.331,1.665,1.665,0,0,0,1.8.278A2.425,2.425,0,0,0,8.26,8.244,3.519,3.519,0,0,0,7,10.947a.557.557,0,0,0,1.113,0,2.415,2.415,0,0,1,2.412-2.412.557.557,0,0,0,0-1.113H9.407A1.3,1.3,0,0,1,8.122,6.309H12a.929.929,0,0,1,.928.928V9.342A2.7,2.7,0,0,1,11.087,11.9a.557.557,0,0,0-.381.528v1H5.14v-1a.557.557,0,0,0-.308-.5Zm6.06,5.953H4.954V16.773h5.938Zm4.453-.381-2.969-1.619v-.958l2.969,1.619Zm0-3.846-1.484.81-.879-.479L15.345,12.7Z" fill="#222"/>
    </g>
  </g>
</svg>
