<svg width="26" height="26" viewBox="0 0 26 26" fill="none" xmlns="http://www.w3.org/2000/svg">
<path d="M2.6875 0.81438L8.3125 0.82C8.5611 0.82 8.7996 0.91877 8.9754 1.09459C9.1512 1.2704 9.25 1.50886 9.25 1.7575C9.25 2.00614 9.1512 2.2446 8.9754 2.42041C8.7996 2.59623 8.5611 2.695 8.3125 2.695L2.6875 2.68937V8.3125C2.6875 8.5611 2.58873 8.7996 2.41291 8.9754C2.2371 9.1512 1.99864 9.25 1.75 9.25C1.50136 9.25 1.2629 9.1512 1.08709 8.9754C0.91127 8.7996 0.8125 8.5611 0.8125 8.3125V0.8125H2.6875V0.81438ZM2.6875 25.1856V25.1875H0.8125V17.6875C0.8125 17.4389 0.91127 17.2004 1.08709 17.0246C1.2629 16.8488 1.50136 16.75 1.75 16.75C1.99864 16.75 2.2371 16.8488 2.41291 17.0246C2.58873 17.2004 2.6875 17.4389 2.6875 17.6875V23.3106L8.3125 23.305C8.5611 23.305 8.7996 23.4038 8.9754 23.5796C9.1512 23.7554 9.25 23.9939 9.25 24.2425C9.25 24.4911 9.1512 24.7296 8.9754 24.9054C8.7996 25.0812 8.5611 25.18 8.3125 25.18L2.6875 25.1856ZM23.3125 0.81438V0.8125H25.1875V8.3125C25.1875 8.5611 25.0887 8.7996 24.9129 8.9754C24.7371 9.1512 24.4986 9.25 24.25 9.25C24.0014 9.25 23.7629 9.1512 23.5871 8.9754C23.4113 8.7996 23.3125 8.5611 23.3125 8.3125V2.68937L17.6875 2.695C17.4389 2.695 17.2004 2.59623 17.0246 2.42041C16.8488 2.2446 16.75 2.00614 16.75 1.7575C16.75 1.50886 16.8488 1.2704 17.0246 1.09459C17.2004 0.91877 17.4389 0.82 17.6875 0.82L23.3125 0.81438ZM23.3125 25.1856L17.6875 25.18C17.4389 25.18 17.2004 25.0812 17.0246 24.9054C16.8488 24.7296 16.75 24.4911 16.75 24.2425C16.75 23.9939 16.8488 23.7554 17.0246 23.5796C17.2004 23.4038 17.4389 23.305 17.6875 23.305L23.3125 23.3106V17.6875C23.3125 17.4389 23.4113 17.2004 23.5871 17.0246C23.7629 16.8488 24.0014 16.75 24.25 16.75C24.4986 16.75 24.7371 16.8488 24.9129 17.0246C25.0887 17.2004 25.1875 17.4389 25.1875 17.6875V25.1875H23.3125V25.1856Z" fill="black"/>
</svg>
