<svg id="ico_pdf" xmlns="http://www.w3.org/2000/svg" xmlns:xlink="http://www.w3.org/1999/xlink" width="30" height="30" viewBox="0 0 30 30">
  <defs>
    <clipPath id="clip-path">
      <rect id="사각형_553" data-name="사각형 553" width="15" height="15" transform="translate(504 3050)" fill="#fff"/>
    </clipPath>
  </defs>
  <rect id="사각형_552" data-name="사각형 552" width="30" height="30" rx="5" fill="#b30b00"/>
  <g id="마스크_그룹_147" data-name="마스크 그룹 147" transform="translate(-496 -3042)" clip-path="url(#clip-path)">
    <g id="free-icon-pdf-482216" transform="translate(504 3050)">
      <g id="그룹_183" data-name="그룹 183">
        <g id="그룹_182" data-name="그룹 182">
          <path id="패스_787" data-name="패스 787" d="M13.687,12.348a18.114,18.114,0,0,1-1.495-1.29c-.476-.476-.9-.937-1.269-1.377A13.993,13.993,0,0,0,11.75,6.5C11.75,4.425,11,4,9.875,4,9.02,4,8,4.444,8,6.56A5.993,5.993,0,0,0,9.523,9.941c-.248.756-.539,1.628-.866,2.612-.158.472-.328.909-.509,1.313-.147.065-.29.132-.428.2-.5.248-.969.472-1.406.679-2,.945-3.314,1.57-3.314,2.8C3,18.445,3.974,19,4.875,19c1.162,0,2.917-1.552,4.2-4.167a24.866,24.866,0,0,1,4.29-1.157,7.17,7.17,0,0,0,2.761,1.574c1.55,0,1.875-.9,1.875-1.647,0-1.478-1.688-1.478-2.5-1.478A14.8,14.8,0,0,0,13.687,12.348Zm-8.812,5.4a.988.988,0,0,1-.625-.2c0-.443,1.321-1.069,2.6-1.675l.247-.117C6.158,17.119,5.23,17.75,4.875,17.75ZM9.25,6.56c0-1.31.407-1.31.625-1.31.442,0,.625,0,.625,1.25A10.021,10.021,0,0,1,10,8.452,3.84,3.84,0,0,1,9.25,6.56Zm.479,6.718q.059-.163.114-.33c.232-.7.441-1.321.627-1.884q.389.428.839.878c.117.117.408.381.795.711C11.332,12.821,10.513,13.029,9.729,13.277Zm7.021.325c0,.281,0,.4-.58.4a4.606,4.606,0,0,1-1.05-.6c.176-.02.306-.029.38-.029C16.423,13.375,16.685,13.465,16.75,13.6Z" transform="translate(-3 -4)" fill="#fff"/>
        </g>
      </g>
    </g>
  </g>
</svg>
