<svg xmlns="http://www.w3.org/2000/svg" xmlns:xlink="http://www.w3.org/1999/xlink" width="75" height="75" viewBox="0 0 75 75">
  <defs>
    <filter id="bg" x="0" y="0" width="75" height="75" filterUnits="userSpaceOnUse">
      <feOffset dx="2" dy="3" input="SourceAlpha"/>
      <feGaussianBlur stdDeviation="2.5" result="blur"/>
      <feFlood flood-color="#454c53" flood-opacity="0.2"/>
      <feComposite operator="in" in2="blur"/>
      <feComposite in="SourceGraphic"/>
    </filter>
    <clipPath id="clip-path">
      <rect id="사각형_1322" data-name="사각형 1322" width="25" height="25" transform="translate(1528 623)" fill="#fc5d5b"/>
    </clipPath>
  </defs>
  <g id="메모" transform="translate(-1170.5 -394.5)">
    <g transform="matrix(1, 0, 0, 1, 1170.5, 394.5)" filter="url(#bg)">
      <path id="bg-2" data-name="bg" d="M30,0h0A30,30,0,0,1,60,30v0A30,30,0,0,1,30,60H0a0,0,0,0,1,0,0V30A30,30,0,0,1,30,0Z" transform="translate(5.5 4.5)" fill="#e8ebed"/>
    </g>
    <g id="bg-3" data-name="bg" transform="translate(1181 404)" fill="#fff" stroke="#c9cdd2" stroke-width="1">
      <path d="M25,0h0A25,25,0,0,1,50,25v0A25,25,0,0,1,25,50H0a0,0,0,0,1,0,0V25A25,25,0,0,1,25,0Z" stroke="none"/>
      <path d="M25,.5h0A24.5,24.5,0,0,1,49.5,25v0A24.5,24.5,0,0,1,25,49.5H.747A.247.247,0,0,1,.5,49.253V25A24.5,24.5,0,0,1,25,.5Z" fill="none"/>
    </g>
    <g id="icon_메모" transform="translate(-334 -206)" clip-path="url(#clip-path)">
      <g id="Layer_2" data-name="Layer 2" transform="translate(1528.001 623)">
        <g id="Layer_8" data-name="Layer 8">
          <path id="패스_1710" data-name="패스 1710" d="M24.141,6.576a2.986,2.986,0,0,0-4.192,0l-.809.809V3.674a2.193,2.193,0,0,0-2.184-2.2h-.795V.732a.732.732,0,0,0-1.465,0v.743H13.232V.732a.732.732,0,0,0-1.465,0v.743H10.3V.732a.732.732,0,1,0-1.465,0v.743H7.373V.732a.732.732,0,1,0-1.465,0v.743H4.443V.732a.732.732,0,1,0-1.465,0v.743H2.246A2.221,2.221,0,0,0,0,3.666V22.806A2.232,2.232,0,0,0,2.246,25H16.957a2.17,2.17,0,0,0,2.184-2.182V15.689c1.693-1.678,3.337-3.308,5-4.971a2.93,2.93,0,0,0,0-4.142ZM17.676,22.818a.711.711,0,0,1-.718.721H2.246a.778.778,0,0,1-.781-.732V3.667a.783.783,0,0,1,.781-.737h.732v.732a.732.732,0,0,0,1.465,0V2.93H5.908v.732a.732.732,0,0,0,1.465,0V2.93H8.838v.732a.732.732,0,0,0,1.465,0V2.93h1.465v.732a.732.732,0,0,0,1.465,0V2.93H14.7v.732a.732.732,0,0,0,1.465,0V2.93h.8a.726.726,0,0,1,.718.743V8.848l-4.395,4.389H3.711a.732.732,0,1,0,0,1.46h8.105c-.872.871-1.4,1.4-1.465,1.469H3.711a.732.732,0,0,0,0,1.465h5.98L9.2,19.1H3.711a.732.732,0,0,0,0,1.465h5l-.229.686a.732.732,0,0,0,.928.928l4.661-1.554a.737.737,0,0,0,.286-.177q1.68-1.68,3.316-3.3v5.675ZM12.76,19.513l-2.422.807.808-2.421Zm1.265-.807-2.072-2.072c2.3-2.3,4.51-4.5,6.819-6.812L20.881,11.9c-.968.962-5.586,5.54-6.856,6.807Zm9.082-9.023-1.187,1.183L19.808,8.789l1.177-1.176a1.522,1.522,0,0,1,2.12,0,1.465,1.465,0,0,1,0,2.07Z" fill="#fc5d5b"/>
          <path id="패스_1711" data-name="패스 1711" d="M9.375,7.182H4A.732.732,0,0,0,4,8.646H9.375a.732.732,0,1,0,0-1.465Z" fill="#fc5d5b"/>
          <path id="패스_1712" data-name="패스 1712" d="M12.411,10.111H4a.732.732,0,0,0,0,1.465h8.407a.732.732,0,1,0,0-1.465Z" fill="#fc5d5b"/>
        </g>
      </g>
    </g>
  </g>
</svg>
