<svg xmlns="http://www.w3.org/2000/svg" xmlns:xlink="http://www.w3.org/1999/xlink" width="19" height="19" viewBox="0 0 19 19">
  <defs>
    <clipPath id="clip-path">
      <rect id="사각형_374" data-name="사각형 374" width="19" height="19" transform="translate(1183 815)" fill="#fff"/>
    </clipPath>
  </defs>
  <g id="icon_흠" transform="translate(-1183 -815)" clip-path="url(#clip-path)">
    <g id="rolling-eyes" transform="translate(1183 815)">
      <circle id="타원_46" data-name="타원 46" cx="9.5" cy="9.5" r="9.5" fill="#ffd54f"/>
      <path id="패스_304" data-name="패스 304" d="M8.708,7.521a2.769,2.769,0,0,1-5.463.641,2.454,2.454,0,0,1-.079-.641A2.774,2.774,0,0,1,5.938,4.75a2.668,2.668,0,0,1,1.275.317,2.749,2.749,0,0,1,1.5,2.454Z" fill="#fff"/>
      <path id="패스_305" data-name="패스 305" d="M4.615,5.708A2.774,2.774,0,0,0,7.386,8.479a2.569,2.569,0,0,0,1.243-.317,2.454,2.454,0,0,0,.079-.641A2.774,2.774,0,0,0,5.938,4.75a2.668,2.668,0,0,0-1.275.317l-.032.348C4.623,5.526,4.615,5.621,4.615,5.708Z" fill="#6d4c41"/>
      <path id="패스_306" data-name="패스 306" d="M10.688,7.521a2.769,2.769,0,0,0,5.462.641,2.454,2.454,0,0,0,.079-.641A2.774,2.774,0,0,0,13.458,4.75a2.668,2.668,0,0,0-1.275.317,2.749,2.749,0,0,0-1.5,2.454Z" fill="#fff"/>
      <g id="그룹_40" data-name="그룹 40">
        <path id="패스_307" data-name="패스 307" d="M12.136,5.708a2.774,2.774,0,0,0,2.771,2.771,2.569,2.569,0,0,0,1.243-.317,2.454,2.454,0,0,0,.079-.641A2.774,2.774,0,0,0,13.458,4.75a2.668,2.668,0,0,0-1.275.317l-.032.348C12.144,5.526,12.136,5.621,12.136,5.708Z" fill="#6d4c41"/>
        <path id="패스_308" data-name="패스 308" d="M11.132,14.51a.589.589,0,0,1-.42-.174,1.685,1.685,0,0,0-2.327,0,.594.594,0,0,1-.84-.84,2.9,2.9,0,0,1,4.007,0,.594.594,0,0,1-.42,1.014Z" fill="#6d4c41"/>
      </g>
    </g>
  </g>
</svg>
