<svg xmlns="http://www.w3.org/2000/svg" xmlns:xlink="http://www.w3.org/1999/xlink" width="19" height="19" viewBox="0 0 19 19">
  <defs>
    <clipPath id="clip-path">
      <rect id="사각형_369" data-name="사각형 369" width="19" height="19" transform="translate(1183 590)" fill="#fff"/>
    </clipPath>
  </defs>
  <g id="icon_별" transform="translate(-1183 -590)" clip-path="url(#clip-path)">
    <g id="Layer_2" data-name="Layer 2" transform="translate(1182.998 590.074)">
      <g id="Layer_2-2" data-name="Layer 2">
        <path id="패스_291" data-name="패스 291" d="M6.361,15.161c.448-2.441.6-4.92,1.014-7.369A72.808,72.808,0,0,1,9.008.479H8.171c1.731,4.849,3.543,9.674,5.324,14.509l.747-.507a42.648,42.648,0,0,0-6.774-3.5Q5.8,10.3,4.063,9.744C2.979,9.387,1.509,9.169.927,8.187c-.1.216-.2.434-.3.65A145.477,145.477,0,0,0,18.508,4.209l-.714-1.072A83.87,83.87,0,0,0,5.327,17.843c-.5.743.807,1.416,1.307.677A97.841,97.841,0,0,1,18.827,4.045a.662.662,0,0,0-.714-1.072A130.184,130.184,0,0,1,.357,7.983a.434.434,0,0,0-.293.65,4.014,4.014,0,0,0,2.322,1.479c1.364.436,2.724.864,4.043,1.4a45.777,45.777,0,0,1,7.29,3.75c.357.225.882-.15.748-.509C12.65,9.93,10.866,5.09,9,.286c-.13-.336-.741-.4-.838,0a73.969,73.969,0,0,0-1.429,7.3,33.907,33.907,0,0,0-.5,7.572c0,.057.109.079.121.014Z" fill="#fc5d5b"/>
      </g>
    </g>
  </g>
</svg>
