<svg xmlns="http://www.w3.org/2000/svg" xmlns:xlink="http://www.w3.org/1999/xlink" width="25" height="25" viewBox="0 0 25 25">
  <defs>
    <clipPath id="clip-path">
      <rect id="Rectangle_1368" data-name="Rectangle 1368" width="25" height="25" transform="translate(1558 196)" fill="#222" stroke="#707070" stroke-width="1"/>
    </clipPath>
  </defs>
  <g id="ico_가리기" transform="translate(-1558 -196)" clip-path="url(#clip-path)">
    <g id="drag" transform="translate(1558 196)">
      <path id="Path_2760" data-name="Path 2760" d="M7.06,17.1a.844.844,0,1,0,.844.844A.844.844,0,0,0,7.06,17.1Z" fill="#222"/>
      <path id="Path_2761" data-name="Path 2761" d="M3.952,17.1a.844.844,0,1,0,.844.844A.844.844,0,0,0,3.952,17.1Z" fill="#222"/>
      <path id="Path_2762" data-name="Path 2762" d="M10.169,17.1a.844.844,0,1,0,.844.844A.843.843,0,0,0,10.169,17.1Z" fill="#222"/>
      <path id="Path_2763" data-name="Path 2763" d="M13.277,17.1a.844.844,0,1,0,.844.844A.844.844,0,0,0,13.277,17.1Z" fill="#222"/>
      <path id="Path_2764" data-name="Path 2764" d="M.844,17.1a.844.844,0,1,0,.6.247A.85.85,0,0,0,.844,17.1Z" fill="#222"/>
      <path id="Path_2765" data-name="Path 2765" d="M.844,10.878a.844.844,0,1,0,.844.844A.844.844,0,0,0,.844,10.878Z" fill="#222"/>
      <path id="Path_2766" data-name="Path 2766" d="M.844,7.767a.844.844,0,1,0,.844.844A.844.844,0,0,0,.844,7.767Z" fill="#222"/>
      <path id="Path_2767" data-name="Path 2767" d="M.844,4.657a.844.844,0,1,0,.844.844A.844.844,0,0,0,.844,4.657Z" fill="#222"/>
      <path id="Path_2768" data-name="Path 2768" d="M.844,13.989a.844.844,0,1,0,.844.844A.844.844,0,0,0,.844,13.989Z" fill="#222"/>
      <path id="Path_2769" data-name="Path 2769" d="M.844,1.547a.844.844,0,1,0,.6,1.441.844.844,0,0,0-.6-1.441Z" fill="#222"/>
      <path id="Path_2770" data-name="Path 2770" d="M13.277,3.235a.844.844,0,1,0-.844-.844A.844.844,0,0,0,13.277,3.235Z" fill="#222"/>
      <path id="Path_2771" data-name="Path 2771" d="M16.385,3.235a.844.844,0,1,0-.844-.844A.844.844,0,0,0,16.385,3.235Z" fill="#222"/>
      <path id="Path_2772" data-name="Path 2772" d="M7.06,1.547a.844.844,0,1,0,.844.844A.844.844,0,0,0,7.06,1.547Z" fill="#222"/>
      <path id="Path_2773" data-name="Path 2773" d="M3.952,1.547a.844.844,0,1,0,.844.844A.844.844,0,0,0,3.952,1.547Z" fill="#222"/>
      <path id="Path_2774" data-name="Path 2774" d="M10.169,1.547a.844.844,0,1,0,.844.844A.843.843,0,0,0,10.169,1.547Z" fill="#222"/>
      <path id="Path_2775" data-name="Path 2775" d="M19.494,3.235a.844.844,0,1,0-.6-.247A.85.85,0,0,0,19.494,3.235Z" fill="#222"/>
      <path id="Path_2776" data-name="Path 2776" d="M19.494,9.455a.844.844,0,1,0-.844-.844A.844.844,0,0,0,19.494,9.455Z" fill="#222"/>
      <path id="Path_2777" data-name="Path 2777" d="M19.494,6.345A.844.844,0,1,0,18.65,5.5.844.844,0,0,0,19.494,6.345Z" fill="#222"/>
      <path id="Path_2778" data-name="Path 2778" d="M19.494,12.566a.844.844,0,1,0-.844-.844A.844.844,0,0,0,19.494,12.566Z" fill="#222"/>
      <path id="Path_2779" data-name="Path 2779" d="M24.446,15.437l-9.894-3.62a.844.844,0,0,0-1.085,1.077l3.582,10a.844.844,0,0,0,.779.559h.016a.844.844,0,0,0,.783-.529l1.344-3.345L22.8,22.434A.844.844,0,1,0,24,21.247l-2.843-2.873,3.324-1.364a.844.844,0,0,0-.03-1.574Zm-5.1,1.854a.844.844,0,0,0-.463.466l-.994,2.476-2.225-6.211,6.158,2.253Z" fill="#222"/>
    </g>
  </g>
</svg>
