<svg xmlns="http://www.w3.org/2000/svg" width="95.716" height="134.002" viewBox="0 0 95.716 134.002">
  <path id="패스_2470" data-name="패스 2470" d="M309.3,465.314a12.678,12.678,0,0,1-3.876-7.106h-5.166V560.354c-5.885-4.286-15.935-5.731-26.473-3.13-15.06,3.721-25.385,14.276-23.067,23.578s16.409,13.827,31.468,10.106c14.607-3.607,24.759-13.647,23.239-22.733V481.382s2.258.427,9.42,4.447c22.371,12.551,31.471,25.608,25.557,67.031-.164,1.15.752,1.184,1.083.045C360.969,485.938,312.792,468.792,309.3,465.314Z" transform="translate(-250.392 -458.208)" opacity="0.3"/>
</svg>
