<svg xmlns="http://www.w3.org/2000/svg" xmlns:xlink="http://www.w3.org/1999/xlink" width="25" height="25" viewBox="0 0 25 25">
  <defs>
    <clipPath id="clip-path">
      <rect id="Rectangle_1356" data-name="Rectangle 1356" width="25" height="25" transform="translate(1528 561)" fill="#222"/>
    </clipPath>
  </defs>
  <g id="icon_그리기" transform="translate(-1528 -561)" clip-path="url(#clip-path)">
    <g id="Layer_2" data-name="Layer 2" transform="translate(1528.845 560.998)">
      <g id="그리기">
        <path id="Path_2694" data-name="Path 2694" d="M23.114,4.815,18.493.2a.663.663,0,0,0-.937,0L6.066,11.684a.666.666,0,0,0-.181.34L4.74,17.789a.662.662,0,0,0,.65.791.68.68,0,0,0,.129-.013l5.765-1.145a.661.661,0,0,0,.339-.181l11.49-11.49a.662.662,0,0,0,0-.937ZM6.5,15.729l.6-3.014,3.494,3.494-3.013.6Z" fill="#222"/>
        <path id="Path_2695" data-name="Path 2695" d="M17.338,20.052C11,17.4,6.88,21.786,5.648,22.452c-1.576.852-3.792,1.852-4.308.12-.31-1.045,1.371-2.162,2.486-2.51.812-.254.466-1.533-.352-1.276-1.729.54-3.793,2-3.431,4.048.269,1.524,2.179,2.914,5.861.981,2.676-1.4,4.495-4.313,10.132-2.807a5.586,5.586,0,0,1,3.99,3.538c.28.8,1.56.456,1.276-.352A6.829,6.829,0,0,0,17.338,20.052Z" fill="#222"/>
      </g>
    </g>
  </g>
</svg>
