<svg xmlns="http://www.w3.org/2000/svg" xmlns:xlink="http://www.w3.org/1999/xlink" width="19" height="19" viewBox="0 0 19 19">
  <defs>
    <clipPath id="clip-path">
      <rect id="사각형_293" data-name="사각형 293" width="19" height="19" transform="translate(1244 636)" fill="#fff"/>
    </clipPath>
  </defs>
  <g id="icon_눈" transform="translate(-1244 -636)" clip-path="url(#clip-path)">
    <g id="private" transform="translate(1244 636)">
      <g id="그룹_33" data-name="그룹 33">
        <path id="패스_282" data-name="패스 282" d="M18.87,9.1a18.016,18.016,0,0,0-4.1-3.908l2.678-2.678a.679.679,0,0,0-.943-.976l-.017.017L13.559,4.479A8.775,8.775,0,0,0,9.5,3.393C4.343,3.393.3,8.868.13,9.1a.679.679,0,0,0,0,.8,18.016,18.016,0,0,0,4.1,3.908L1.556,16.484a.679.679,0,1,0,.943.976l.017-.017,2.925-2.923A8.775,8.775,0,0,0,9.5,15.607c5.157,0,9.2-5.475,9.37-5.708A.678.678,0,0,0,18.87,9.1ZM5.22,12.822A16.9,16.9,0,0,1,1.543,9.5c1-1.21,4.238-4.75,7.957-4.75a7.183,7.183,0,0,1,3.046.746L11.368,6.674a3.387,3.387,0,0,0-4.7,4.7Zm6.112-4.194a2,2,0,0,1,.2.872A2.036,2.036,0,0,1,9.5,11.536a2,2,0,0,1-.872-.2ZM7.668,10.372a2,2,0,0,1-.2-.872A2.036,2.036,0,0,1,9.5,7.464a2,2,0,0,1,.872.2ZM9.5,14.25A7.183,7.183,0,0,1,6.454,13.5l1.178-1.178a3.387,3.387,0,0,0,4.7-4.7L13.78,6.178A16.9,16.9,0,0,1,17.457,9.5C16.458,10.71,13.219,14.25,9.5,14.25Z"/>
      </g>
    </g>
  </g>
</svg>
