<svg xmlns="http://www.w3.org/2000/svg" xmlns:xlink="http://www.w3.org/1999/xlink" width="25" height="25" viewBox="0 0 25 25">
  <defs>
    <clipPath id="clip-path">
      <rect id="Rectangle_1377" data-name="Rectangle 1377" width="25" height="25" transform="translate(1558 196)" fill="#ff5c5c" stroke="#707070" stroke-width="1"/>
    </clipPath>
  </defs>
  <g id="ico_가리기" transform="translate(-1558 -196)" clip-path="url(#clip-path)">
    <g id="drag" transform="translate(1558 196)">
      <path id="Path_2822" data-name="Path 2822" d="M7.06,17.1a.844.844,0,1,0,.844.844A.844.844,0,0,0,7.06,17.1Z" fill="#ff5c5c"/>
      <path id="Path_2823" data-name="Path 2823" d="M3.952,17.1a.844.844,0,1,0,.844.844A.844.844,0,0,0,3.952,17.1Z" fill="#ff5c5c"/>
      <path id="Path_2824" data-name="Path 2824" d="M10.169,17.1a.844.844,0,1,0,.844.844A.843.843,0,0,0,10.169,17.1Z" fill="#ff5c5c"/>
      <path id="Path_2825" data-name="Path 2825" d="M13.277,17.1a.844.844,0,1,0,.844.844A.844.844,0,0,0,13.277,17.1Z" fill="#ff5c5c"/>
      <path id="Path_2826" data-name="Path 2826" d="M.844,17.1a.844.844,0,1,0,.6.247A.85.85,0,0,0,.844,17.1Z" fill="#ff5c5c"/>
      <path id="Path_2827" data-name="Path 2827" d="M.844,10.878a.844.844,0,1,0,.844.844A.844.844,0,0,0,.844,10.878Z" fill="#ff5c5c"/>
      <path id="Path_2828" data-name="Path 2828" d="M.844,7.767a.844.844,0,1,0,.844.844A.844.844,0,0,0,.844,7.767Z" fill="#ff5c5c"/>
      <path id="Path_2829" data-name="Path 2829" d="M.844,4.657a.844.844,0,1,0,.844.844A.844.844,0,0,0,.844,4.657Z" fill="#ff5c5c"/>
      <path id="Path_2830" data-name="Path 2830" d="M.844,13.989a.844.844,0,1,0,.844.844A.844.844,0,0,0,.844,13.989Z" fill="#ff5c5c"/>
      <path id="Path_2831" data-name="Path 2831" d="M.844,1.547a.844.844,0,1,0,.6,1.441.844.844,0,0,0-.6-1.441Z" fill="#ff5c5c"/>
      <path id="Path_2832" data-name="Path 2832" d="M13.277,3.235a.844.844,0,1,0-.844-.844A.844.844,0,0,0,13.277,3.235Z" fill="#ff5c5c"/>
      <path id="Path_2833" data-name="Path 2833" d="M16.385,3.235a.844.844,0,1,0-.844-.844A.844.844,0,0,0,16.385,3.235Z" fill="#ff5c5c"/>
      <path id="Path_2834" data-name="Path 2834" d="M7.06,1.547a.844.844,0,1,0,.844.844A.844.844,0,0,0,7.06,1.547Z" fill="#ff5c5c"/>
      <path id="Path_2835" data-name="Path 2835" d="M3.952,1.547a.844.844,0,1,0,.844.844A.844.844,0,0,0,3.952,1.547Z" fill="#ff5c5c"/>
      <path id="Path_2836" data-name="Path 2836" d="M10.169,1.547a.844.844,0,1,0,.844.844A.843.843,0,0,0,10.169,1.547Z" fill="#ff5c5c"/>
      <path id="Path_2837" data-name="Path 2837" d="M19.494,3.235a.844.844,0,1,0-.6-.247A.85.85,0,0,0,19.494,3.235Z" fill="#ff5c5c"/>
      <path id="Path_2838" data-name="Path 2838" d="M19.494,9.455a.844.844,0,1,0-.844-.844A.844.844,0,0,0,19.494,9.455Z" fill="#ff5c5c"/>
      <path id="Path_2839" data-name="Path 2839" d="M19.494,6.345A.844.844,0,1,0,18.65,5.5.844.844,0,0,0,19.494,6.345Z" fill="#ff5c5c"/>
      <path id="Path_2840" data-name="Path 2840" d="M19.494,12.566a.844.844,0,1,0-.844-.844A.844.844,0,0,0,19.494,12.566Z" fill="#ff5c5c"/>
      <path id="Path_2841" data-name="Path 2841" d="M24.446,15.437l-9.894-3.62a.844.844,0,0,0-1.085,1.077l3.582,10a.844.844,0,0,0,.779.559h.016a.844.844,0,0,0,.783-.529l1.344-3.345L22.8,22.434A.844.844,0,1,0,24,21.247l-2.843-2.873,3.324-1.364a.844.844,0,0,0-.03-1.574Zm-5.1,1.854a.844.844,0,0,0-.463.466l-.994,2.476-2.225-6.211,6.158,2.253Z" fill="#ff5c5c"/>
    </g>
  </g>
</svg>
