<svg xmlns="http://www.w3.org/2000/svg" xmlns:xlink="http://www.w3.org/1999/xlink" width="18" height="18" viewBox="0 0 18 18">
  <defs>
    <clipPath id="clip-path">
      <rect id="사각형_658" data-name="사각형 658" width="18" height="18" fill="#72787f"/>
    </clipPath>
  </defs>
  <g id="ico_trash" clip-path="url(#clip-path)">
    <g id="delete_1_" data-name="delete (1)" transform="translate(2.136)">
      <path id="패스_898" data-name="패스 898" d="M4.125,1.636A.922.922,0,0,1,5.08.708H9.007a.922.922,0,0,1,.955.929V2.654h.708V1.636A1.63,1.63,0,0,0,9.007,0H5.08A1.63,1.63,0,0,0,3.417,1.636V2.654h.708Zm0,0" transform="translate(-0.18)" fill="#72787f"/>
      <path id="패스_899" data-name="패스 899" d="M2.749,18.3h8.368a1.507,1.507,0,0,0,1.433-1.592V5.789H1.316V16.713A1.507,1.507,0,0,0,2.749,18.3ZM9.189,7.478a.354.354,0,1,1,.708,0v8.359a.354.354,0,0,1-.708,0Zm-2.609,0a.354.354,0,1,1,.708,0v8.359a.354.354,0,0,1-.708,0Zm-2.609,0a.354.354,0,1,1,.708,0v8.359a.354.354,0,0,1-.708,0Zm0,0" transform="translate(-0.069 -0.305)" fill="#72787f"/>
      <path id="패스_900" data-name="패스 900" d="M.885,4.943H12.843a.885.885,0,0,0,0-1.769H.885a.885.885,0,1,0,0,1.769Zm0,0" transform="translate(0 -0.167)" fill="#72787f"/>
    </g>
  </g>
</svg>
