<svg xmlns="http://www.w3.org/2000/svg" xmlns:xlink="http://www.w3.org/1999/xlink" width="25" height="25" viewBox="0 0 25 25">
  <defs>
    <clipPath id="clip-path">
      <rect id="Rectangle_1363" data-name="Rectangle 1363" width="25" height="25" transform="translate(1528 812)" fill="#222"/>
    </clipPath>
  </defs>
  <g id="icon_녹화" transform="translate(-1528 -812)" clip-path="url(#clip-path)">
    <g id="Layer_2" data-name="Layer 2" transform="translate(1528 816.906)">
      <g id="Layer_15" data-name="Layer 15">
        <path id="Path_2724" data-name="Path 2724" d="M19.5,15.188H.735A.735.735,0,0,1,0,14.453V.735A.735.735,0,0,1,.735,0H19.5a.735.735,0,0,1,.735.735V14.453a.735.735,0,0,1-.735.735ZM1.47,13.718h17.3V1.47H1.47Z" fill="#222"/>
        <path id="Path_2725" data-name="Path 2725" d="M24.265,13.718A.735.735,0,0,1,24,13.67l-4.765-1.862a.735.735,0,0,1-.467-.686V4.067a.735.735,0,0,1,.467-.686L24,1.519A.735.735,0,0,1,25,2.2V12.984a.735.735,0,0,1-.735.735Zm-4.03-3.1,3.3,1.286V3.283l-3.3,1.286Z" fill="#222"/>
        <path id="Path_2726" data-name="Path 2726" d="M7.965,10.871a.735.735,0,0,1-.735-.735V5.052a.735.735,0,0,1,1.1-.637l4.4,2.542a.735.735,0,0,1,0,1.274l-4.4,2.542a.735.735,0,0,1-.367.1ZM8.7,6.325V8.863l2.2-1.269Z" fill="#222"/>
      </g>
    </g>
  </g>
</svg>
