<svg xmlns="http://www.w3.org/2000/svg" xmlns:xlink="http://www.w3.org/1999/xlink" width="200" height="200" viewBox="0 0 200 200">
  <defs>
    <clipPath id="clip-path">
      <rect id="사각형_383" data-name="사각형 383" width="60" height="60" transform="translate(1098 137)" fill="#aeaeae"/>
    </clipPath>
  </defs>
  <g id="그룹_1285" data-name="그룹 1285" transform="translate(-423 -503)">
    <rect id="사각형_503" data-name="사각형 503" width="200" height="200" rx="15" transform="translate(423 503)" fill="#f5f5f5"/>
    <g id="마스크_그룹_135" data-name="마스크 그룹 135" transform="translate(-605 418)" clip-path="url(#clip-path)">
      <g id="Layer_2" data-name="Layer 2" transform="translate(1099.2 146.237)">
        <g id="Layer_27" data-name="Layer 27">
          <rect id="사각형_501" data-name="사각형 501" width="57.6" height="24" rx="6" fill="#fff" stroke="#454545" stroke-linecap="round" stroke-linejoin="round" stroke-width="1.2"/>
          <path id="패스_363" data-name="패스 363" d="M6.24,10.038A8.173,8.173,0,0,1,6.7,7.24,6.467,6.467,0,0,1,7.986,5.061a5.75,5.75,0,0,1,1.962-1.4,6.12,6.12,0,0,1,2.466-.494,6.049,6.049,0,0,1,2.456.494,5.776,5.776,0,0,1,1.954,1.4A6.464,6.464,0,0,1,18.111,7.24a8.173,8.173,0,0,1,.46,2.8,8.237,8.237,0,0,1-.46,2.818,6.36,6.36,0,0,1-1.286,2.168,5.8,5.8,0,0,1-1.954,1.4,6.049,6.049,0,0,1-2.456.494,6.12,6.12,0,0,1-2.466-.494,5.776,5.776,0,0,1-1.962-1.4A6.36,6.36,0,0,1,6.7,12.856a8.237,8.237,0,0,1-.458-2.818Zm9.846,0a6.906,6.906,0,0,0-.226-1.782,4.607,4.607,0,0,0-.684-1.494A3.4,3.4,0,0,0,14.04,5.736a3.26,3.26,0,0,0-1.608-.378,3.4,3.4,0,0,0-1.632.378A3.352,3.352,0,0,0,9.639,6.762a4.607,4.607,0,0,0-.684,1.494,6.906,6.906,0,0,0-.23,1.782,6.979,6.979,0,0,0,.224,1.8,4.5,4.5,0,0,0,.684,1.486,3.311,3.311,0,0,0,2.8,1.394,3.26,3.26,0,0,0,1.608-.378,3.436,3.436,0,0,0,1.142-1.016,4.5,4.5,0,0,0,.684-1.486A6.978,6.978,0,0,0,16.086,10.038Z" transform="translate(5.04 1.962)" fill="#454545"/>
          <path id="패스_364" data-name="패스 364" d="M17.82,16.549l4.518-6.821L18.072,3.284h2.916l2.76,4.427L26.52,3.284h2.892L25.128,9.728,29.7,16.549H26.748l-3-4.824-3.006,4.824Z" transform="translate(16.62 2.084)" fill="#454545"/>
          <path id="패스_365" data-name="패스 365" d="M29.51,23.088l-13.7-13.7a.781.781,0,0,0-1.256.578V28.694a.758.758,0,0,0,.758.758.72.72,0,0,0,.5-.185l3.8-3.307,3.1,7.234a.509.509,0,0,0,.276.271.534.534,0,0,0,.188.035.5.5,0,0,0,.2-.042l3.257-1.4a.505.505,0,0,0,.266-.664l-3-7.006h5.082a.758.758,0,0,0,.758-.758.84.84,0,0,0-.216-.538Z" transform="translate(13.352 8.026)" fill="#00a58a" stroke="#00a58a" stroke-linecap="round" stroke-linejoin="round" stroke-width="1.2"/>
        </g>
      </g>
    </g>
    <text id="OX형" transform="translate(503 656)" fill="#303d53" font-size="18" font-family="NotoSansKR-Regular, Noto Sans KR"><tspan x="0" y="0">OX형</tspan></text>
  </g>
</svg>
