<svg xmlns="http://www.w3.org/2000/svg" xmlns:xlink="http://www.w3.org/1999/xlink" width="19" height="19" viewBox="0 0 19 19">
  <defs>
    <clipPath id="clip-path">
      <rect id="사각형_367" data-name="사각형 367" width="19" height="19" transform="translate(1183 500)" fill="#fff"/>
    </clipPath>
  </defs>
  <g id="icon_원형" transform="translate(-1183 -500)" clip-path="url(#clip-path)">
    <g id="Layer_2" data-name="Layer 2" transform="translate(1183.919 500)">
      <g id="Layer_2-2" data-name="Layer 2">
        <path id="패스_289" data-name="패스 289" d="M12.306,14.889c-3.577.3-7.425-.645-9.379-3.33A5.534,5.534,0,0,1,3.981,3.782c2.278-1.9,6.776-3.2,9.363-1.013,2.431,2.047,1.948,5.671.681,8.1a13.5,13.5,0,0,1-8.016,6.3.938.938,0,1,0,.587,1.77,15.518,15.518,0,0,0,9.173-6.919c1.711-3.109,2.22-7.382-.643-10.153C12.175-.991,6.958-.223,3.714,1.858.3,4.046-.943,7.793.751,11.109c1.842,3.62,7.147,5.636,11.688,4.6a.415.415,0,0,0-.133-.819Z" fill="#fc5d5b"/>
      </g>
    </g>
  </g>
</svg>
