<svg id="icon_그리기" xmlns="http://www.w3.org/2000/svg" xmlns:xlink="http://www.w3.org/1999/xlink" width="19" height="19" viewBox="0 0 19 19">
  <defs>
    <clipPath id="clip-path">
      <rect id="사각형_229" data-name="사각형 229" width="19" height="19" transform="translate(1528 561)" fill="#222"/>
    </clipPath>
  </defs>
  <g id="마스크_그룹_4" data-name="마스크 그룹 4" transform="translate(-1528 -561)" opacity="0.9" clip-path="url(#clip-path)">
    <g id="Layer_2" data-name="Layer 2" transform="translate(1528.644 561)">
      <g id="그리기" transform="translate(0 0)">
        <path id="패스_180" data-name="패스 180" d="M18.7,3.66,15.189.15a.5.5,0,0,0-.712,0L5.745,8.88a.506.506,0,0,0-.138.258l-.87,4.382a.5.5,0,0,0,.494.6.517.517,0,0,0,.1-.01l4.382-.87a.5.5,0,0,0,.258-.138L18.7,4.372a.5.5,0,0,0,0-.712ZM6.074,11.955l.455-2.291L9.185,12.32l-2.29.455Z" transform="translate(-1.136 -0.002)" fill="#222"/>
        <path id="패스_181" data-name="패스 181" d="M13.178,19.74c-4.814-2.014-7.948,1.318-8.884,1.824-1.2.648-2.882,1.407-3.274.091-.236-.794,1.042-1.643,1.89-1.907.617-.193.354-1.165-.268-.969C1.327,19.189-.241,20.3.034,21.855c.2,1.158,1.656,2.215,4.454.746,2.034-1.067,3.416-3.278,7.7-2.133a4.245,4.245,0,0,1,3.032,2.689c.213.609,1.185.347.969-.268A5.19,5.19,0,0,0,13.178,19.74Z" transform="translate(-0.002 -4.502)" fill="#222"/>
      </g>
    </g>
  </g>
</svg>
