<svg xmlns="http://www.w3.org/2000/svg" width="17.49" height="15.042" viewBox="0 0 17.49 15.042">
  <g id="icon_세모" transform="translate(18.245 16) rotate(180)">
    <path id="패스_1" data-name="패스 1" d="M8.64,1.448a1,1,0,0,1,1.72,0L18.1,14.489A1,1,0,0,1,17.243,16H1.757A1,1,0,0,1,.9,14.489Z" fill="none"/>
    <path id="패스_2" data-name="패스 2" d="M9.5,2.938,2.635,14.5h13.73L9.5,2.938M9.5.959a.991.991,0,0,1,.86.489L18.1,14.49a1,1,0,0,1-.86,1.51H1.757A1,1,0,0,1,.9,14.49L8.64,1.448A.991.991,0,0,1,9.5.959Z" fill="#222"/>
  </g>
</svg>
