<svg xmlns="http://www.w3.org/2000/svg" width="50" height="50.001" viewBox="0 0 50 50.001">
  <path id="패스_2683" data-name="패스 2683" d="M670.452,490.844a25,25,0,1,0,25,25A25.029,25.029,0,0,0,670.452,490.844Zm0,41.705a2.887,2.887,0,1,1,2.886-2.886A2.886,2.886,0,0,1,670.452,532.549Zm2.56-12.161v2.029a2.56,2.56,0,0,1-5.119,0V518.16a2.56,2.56,0,0,1,2.56-2.56,4.922,4.922,0,1,0-4.922-4.922,2.559,2.559,0,1,1-5.119,0,10.041,10.041,0,1,1,12.6,9.71Z" transform="translate(-645.452 -490.844)" fill="#00a58a"/>
</svg>
