<svg width="23" height="23" viewBox="0 0 23 23" fill="none" xmlns="http://www.w3.org/2000/svg">
<g clip-path="url(#clip0_262_53)">
<path d="M11.5003 5.90866C12.5637 5.90866 13.4253 6.77033 13.4253 7.83366C13.4253 8.89699 12.5637 9.75866 11.5003 9.75866C10.437 9.75866 9.57533 8.89699 9.57533 7.83366C9.57533 6.77033 10.437 5.90866 11.5003 5.90866ZM11.5003 14.1587C14.2228 14.1587 17.092 15.497 17.092 16.0837V17.092H5.90866V16.0837C5.90866 15.497 8.77783 14.1587 11.5003 14.1587ZM11.5003 4.16699C9.47449 4.16699 7.83366 5.80783 7.83366 7.83366C7.83366 9.85949 9.47449 11.5003 11.5003 11.5003C13.5262 11.5003 15.167 9.85949 15.167 7.83366C15.167 5.80783 13.5262 4.16699 11.5003 4.16699ZM11.5003 12.417C9.05283 12.417 4.16699 13.6453 4.16699 16.0837V18.8337H18.8337V16.0837C18.8337 13.6453 13.9478 12.417 11.5003 12.417Z" fill="#333333"/>
</g>
<defs>
<clipPath id="clip0_262_53">
<rect width="22" height="22" fill="white" transform="translate(0.5 0.5)"/>
</clipPath>
</defs>
</svg>
