<svg xmlns="http://www.w3.org/2000/svg" width="30.097" height="13.282" viewBox="0 0 30.097 13.282">
  <g id="right-arrow" transform="translate(0 -132)" opacity="0.6">
    <g id="그룹_5595" data-name="그룹 5595" transform="translate(0 132)">
      <path id="패스_5897" data-name="패스 5897" d="M29.752,137.883h0l-6.143-5.57a1.258,1.258,0,0,0-1.663,0,1,1,0,0,0,0,1.515l4.124,3.74H1.176a1.076,1.076,0,1,0,0,2.142h24.9l-4.124,3.74a1,1,0,0,0,0,1.515,1.258,1.258,0,0,0,1.663,0l6.143-5.57h0A1.006,1.006,0,0,0,29.752,137.883Z" transform="translate(0 -132)" fill="#fff"/>
    </g>
  </g>
</svg>
