<svg xmlns="http://www.w3.org/2000/svg" width="16" height="11" viewBox="0 0 16 11">
  <g id="그룹_4555" data-name="그룹 4555" transform="translate(-69 -8684)">
    <path id="left" d="M4.676,1.2a1,1,0,0,1,1.648,0l3.6,5.235A1,1,0,0,1,9.1,8H1.9a1,1,0,0,1-.824-1.567Z" transform="translate(77 8695) rotate(-90)" fill="#1b1d1f"/>
    <path id="left-2" data-name="left" d="M4.676,1.2a1,1,0,0,1,1.648,0l3.6,5.235A1,1,0,0,1,9.1,8H1.9a1,1,0,0,1-.824-1.567Z" transform="translate(69 8695) rotate(-90)" fill="#1b1d1f"/>
  </g>
</svg>
