<svg xmlns="http://www.w3.org/2000/svg" width="20" height="18" viewBox="0 0 20 18">
  <g id="arrow" opacity="0.6">
    <g id="그룹_56" data-name="그룹 56" transform="translate(0 0)">
      <path id="패스_24" data-name="패스 24" d="M1.2,39.368a1.364,1.364,0,0,1,.248-.019h14.11l-.308-.15a2.867,2.867,0,0,1-.809-.6l-3.957-4.152a1.611,1.611,0,0,1-.207-1.99,1.388,1.388,0,0,1,2-.324,1.452,1.452,0,0,1,.146.129L19.58,39.77a1.555,1.555,0,0,1,0,2.124h0L12.425,49.4a1.384,1.384,0,0,1-2.024,0,1.486,1.486,0,0,1-.123-.147,1.611,1.611,0,0,1,.207-1.99l3.95-4.16a2.873,2.873,0,0,1,.715-.548l.429-.2H1.528A1.508,1.508,0,0,1,1.2,39.368Z" transform="translate(0 -31.842)" fill="#222"/>
    </g>
  </g>
</svg>
