<svg xmlns="http://www.w3.org/2000/svg" width="50" height="50" viewBox="0 0 50 50">
  <g id="close" transform="translate(-1345 -305)">
    <path id="패스_1070" data-name="패스 1070" d="M25,0A25,25,0,1,1,0,25,25,25,0,0,1,25,0Z" transform="translate(1345 305)" fill="#fff"/>
    <path id="합치기_1" data-name="합치기 1" d="M-4703-2902v-8h-8a2,2,0,0,1-2-2,2,2,0,0,1,2-2h8v-8a2,2,0,0,1,2-2,2,2,0,0,1,2,2v8h8a2,2,0,0,1,2,2,2,2,0,0,1-2,2h-8v8a2,2,0,0,1-2,2A2,2,0,0,1-4703-2902Z" transform="translate(2635.015 5713.205) rotate(45)" fill="#1b1d1f" opacity="0.6"/>
  </g>
</svg>
