<svg xmlns="http://www.w3.org/2000/svg" width="121.433" height="34.61" viewBox="0 0 121.433 34.61">
  <g id="logo" transform="translate(-146.104 -634.93)">
    <g id="그룹_377" data-name="그룹 377" transform="translate(146.104 634.93)">
      <path id="패스_444" data-name="패스 444" d="M146.1,645.495V634.93h6.139v16.021c0,.24-.363.346-.546.162Z" transform="translate(-146.104 -634.93)" fill="#c9cdd2"/>
      <path id="패스_445" data-name="패스 445" d="M179.5,663.825v-28.9H173.36v34.352c0,.239.364.347.547.163Z" transform="translate(-164.151 -634.93)" fill="#c9cdd2"/>
      <rect id="사각형_680" data-name="사각형 680" width="6.14" height="34.608" transform="translate(19.444 0)" fill="#c9cdd2"/>
      <path id="패스_446" data-name="패스 446" d="M231.46,635.026c-.185-.185-.548-.077-.548.162v15.747c0,.239.363.346.548.162l5.594-5.619v-4.835Z" transform="translate(-202.259 -634.932)" fill="#c9cdd2"/>
      <path id="패스_447" data-name="패스 447" d="M231.46,689.333c-.185-.185-.548-.077-.548.162v15.747c0,.239.363.347.548.164l5.594-5.619v-4.836Z" transform="translate(-202.259 -670.891)" fill="#c9cdd2"/>
      <path id="패스_448" data-name="패스 448" d="M265.141,640.643v28.9H259V635.187c0-.239.363-.347.546-.163Z" transform="translate(-220.859 -634.931)" fill="#c9cdd2"/>
      <path id="패스_449" data-name="패스 449" d="M289.375,640.643l.06,28.9-6.2,0V635.187c0-.239.363-.347.546-.163Z" transform="translate(-236.904 -634.931)" fill="#c9cdd2"/>
      <path id="패스_450" data-name="패스 450" d="M313.6,640.643v28.9h-6.14V635.187c0-.239.363-.347.547-.163Z" transform="translate(-252.947 -634.931)" fill="#c9cdd2"/>
    </g>
    <path id="패스_451" data-name="패스 451" d="M350.829,688.312l-6.764-12.577h4.865l4.095,8.156,4.123-8.156h4.746l-6.763,12.518V696.5h-4.3Z" transform="translate(-131.078 -27.019)" fill="#c9cdd2"/>
    <path id="패스_452" data-name="패스 452" d="M400.171,675.735h7.712a7.578,7.578,0,0,1,5.428,1.81,4.8,4.8,0,0,1,1.393,3.529v.089a4.857,4.857,0,0,1-2.817,4.539c2.225.86,3.708,2.223,3.708,4.953v.149c0,3.737-3,5.7-7.505,5.7h-7.919Zm10.292,6.11c0-1.513-1.068-2.314-2.907-2.314h-3.2v4.687h3c1.9,0,3.114-.77,3.114-2.343Zm-2.343,5.991h-3.768V692.7h3.857c1.928,0,3.143-.831,3.143-2.432v-.03c0-1.482-1.1-2.4-3.233-2.4" transform="translate(-168.229 -27.019)" fill="#c9cdd2"/>
    <path id="패스_453" data-name="패스 453" d="M451.53,675.735h4.509l4.628,8.425,4.568-8.425h4.538V696.5h-4.212V683.239l-4.894,8.572h-.091l-4.864-8.512v13.2H451.53Z" transform="translate(-202.236 -27.019)" fill="#c9cdd2"/>
  </g>
</svg>
