<svg xmlns="http://www.w3.org/2000/svg" xmlns:xlink="http://www.w3.org/1999/xlink" width="25" height="25" viewBox="0 0 25 25">
  <defs>
    <clipPath id="clip-path">
      <rect id="사각형_1060" data-name="사각형 1060" width="25" height="25" transform="translate(476 510)" fill="#fff" stroke="#707070" stroke-width="1"/>
    </clipPath>
  </defs>
  <g id="ico_" transform="translate(-476 -510)" clip-path="url(#clip-path)">
    <g id="favorite" transform="translate(478.375 510)">
      <path id="패스_4979" data-name="패스 4979" d="M21.42,0H2.631A.731.731,0,0,0,1.9.731V24.217a.731.731,0,0,0,1.058.654l9.068-4.534,9.068,4.534a.731.731,0,0,0,1.058-.654V.731A.731.731,0,0,0,21.42,0Z" transform="translate(-1.9)" fill="#ff7171"/>
      <path id="패스_4980" data-name="패스 4980" d="M19.394.042H10V20.379l9.068,4.534a.731.731,0,0,0,1.058-.654V.772A.731.731,0,0,0,19.394.042Z" transform="translate(0.125 0.01)" fill="#ff5c5c"/>
      <path id="패스_4981" data-name="패스 4981" d="M16.478,7.676a.731.731,0,0,0-.59-.5l-2.865-.416-1.281-2.6a.731.731,0,0,0-1.311,0l-1.281,2.6-2.866.416a.731.731,0,0,0-.405,1.247l2.074,2.021L7.462,13.3a.731.731,0,0,0,1.061.771l2.563-1.347,2.563,1.347a.74.74,0,0,0,.342.084.732.732,0,0,0,.711-.894l-.483-2.814,2.073-2.021A.731.731,0,0,0,16.478,7.676Z" transform="translate(-0.96 0.939)" fill="#ffda2d"/>
      <path id="패스_4982" data-name="패스 4982" d="M15.392,7.676a.731.731,0,0,0-.59-.5l-2.865-.416-1.281-2.6A.731.731,0,0,0,10,3.758v8.965l2.563,1.347a.74.74,0,0,0,.342.084.732.732,0,0,0,.711-.894l-.483-2.814,2.073-2.021A.731.731,0,0,0,15.392,7.676Z" transform="translate(0.125 0.939)" fill="#ffda2d"/>
    </g>
  </g>
</svg>
