<svg xmlns="http://www.w3.org/2000/svg" xmlns:xlink="http://www.w3.org/1999/xlink" width="40" height="40" viewBox="0 0 40 40">
  <defs>
    <clipPath id="clip-path">
      <rect id="사각형_549" data-name="사각형 549" width="18" height="18" fill="#fff"/>
    </clipPath>
  </defs>
  <g id="그룹_243" data-name="그룹 243" transform="translate(-1060 -1015)">
    <circle id="타원_3" data-name="타원 3" cx="20" cy="20" r="20" transform="translate(1060 1015)" fill="#1b1d1f"/>
    <g id="마스크_그룹_3" data-name="마스크 그룹 3" transform="translate(1071 1026)" clip-path="url(#clip-path)">
      <g id="apple" transform="translate(1.342)">
        <g id="그룹_222" data-name="그룹 222" transform="translate(7.554)">
          <g id="그룹_221" data-name="그룹 221">
            <path id="패스_904" data-name="패스 904" d="M30.343,0a4.318,4.318,0,0,0-2.8,1.513,3.75,3.75,0,0,0-.915,2.914,3.644,3.644,0,0,0,2.821-1.441A4.049,4.049,0,0,0,30.343,0Z" transform="translate(-26.589)" fill="#fff"/>
          </g>
        </g>
        <g id="그룹_224" data-name="그룹 224" transform="translate(0 4.307)">
          <g id="그룹_223" data-name="그룹 223">
            <path id="패스_905" data-name="패스 905" d="M19.2,14.74a4.658,4.658,0,0,0-3.516-1.867c-1.65,0-2.348.79-3.5.79-1.182,0-2.08-.788-3.508-.788A4.773,4.773,0,0,0,4.836,15.2c-1.331,2.063-1.1,5.942,1.053,9.247.772,1.182,1.8,2.512,3.15,2.523,1.2.011,1.538-.769,3.163-.777s1.933.788,3.13.775c1.349-.01,2.436-1.484,3.208-2.666a13.258,13.258,0,0,0,1.188-2.231A4.057,4.057,0,0,1,19.2,14.74Z" transform="translate(-4.011 -12.873)" fill="#fff"/>
          </g>
        </g>
      </g>
    </g>
  </g>
</svg>
