<svg xmlns="http://www.w3.org/2000/svg" xmlns:xlink="http://www.w3.org/1999/xlink" width="40" height="40" viewBox="0 0 40 40">
  <defs>
    <clipPath id="clip-path">
      <rect id="bg" width="40" height="40" transform="translate(600 567)" fill="#26282b"/>
    </clipPath>
  </defs>
  <g id="ico_" transform="translate(-600 -567)" clip-path="url(#clip-path)">
    <g id="notepad_1_" data-name="notepad (1)" transform="translate(605.331 567)">
      <path id="패스_5049" data-name="패스 5049" d="M25.265,2.716H18.836a4.555,4.555,0,0,0-8.335,0H4.073A4.4,4.4,0,0,0-.32,7.109v28.5A4.4,4.4,0,0,0,4.073,40H25.265a4.4,4.4,0,0,0,4.393-4.393V7.109a4.4,4.4,0,0,0-4.393-4.393Zm-14.04,2A1,1,0,0,0,12.2,3.93a2.542,2.542,0,0,1,4.935,0,1,1,0,0,0,.977.786H20.1v.878A2.4,2.4,0,0,1,17.7,7.986H11.635A2.4,2.4,0,0,1,9.242,5.593V4.716ZM27.658,35.607A2.4,2.4,0,0,1,25.265,38H4.073A2.4,2.4,0,0,1,1.68,35.607V7.109A2.4,2.4,0,0,1,4.073,4.716H7.242v.878a4.4,4.4,0,0,0,4.393,4.393H17.7A4.4,4.4,0,0,0,22.1,5.593V4.716h3.169a2.4,2.4,0,0,1,2.393,2.393Zm0,0" fill="#454c53"/>
      <path id="패스_5050" data-name="패스 5050" d="M19.618,18.477l-6.565,6.41L9.719,21.632A1,1,0,0,0,8.309,23.05l.013.013L12.354,27a1,1,0,0,0,1.4,0l7.263-7.092a1,1,0,0,0-1.4-1.431Zm0,0" fill="#ff5c5c"/>
    </g>
  </g>
</svg>
