<svg xmlns="http://www.w3.org/2000/svg" xmlns:xlink="http://www.w3.org/1999/xlink" width="80" height="80" viewBox="0 0 80 80">
  <defs>
    <clipPath id="clip-path">
      <rect id="사각형_568" data-name="사각형 568" width="80" height="80" transform="translate(1090 458)" fill="#fff"/>
    </clipPath>
  </defs>
  <g id="ico_teacher" transform="translate(-1090 -458)" clip-path="url(#clip-path)">
    <g id="teacher_4_" data-name="teacher (4)" transform="translate(1099.032 458)">
      <path id="패스_910" data-name="패스 910" d="M37.419,29.677h7.742v2.581H37.419Z" transform="translate(-16.774 -1.29)" fill="#fff"/>
      <path id="패스_911" data-name="패스 911" d="M74.839,34.839h-1.29V30.968a3.871,3.871,0,1,0-7.742,0v4.108a3.866,3.866,0,0,0-2.581,3.634v3.023a6.412,6.412,0,0,0,1.89,4.563l.6.6-.981,5.883A24.526,24.526,0,0,0,47.51,38.911l-.516-2.061A9.044,9.044,0,0,0,52.8,29.676h.1a5.154,5.154,0,0,0,4.3-8.008l.412-1.645A15.071,15.071,0,0,0,42.987,1.29h-3.4A15.072,15.072,0,0,0,24.968,20.025l.412,1.646a5.152,5.152,0,0,0,4.3,8.006h.1a9.046,9.046,0,0,0,5.806,7.174l-.51,2.036a22.432,22.432,0,0,0-18.3,21.942V67.1A14.21,14.21,0,0,0,30.968,81.29H42.581a5.155,5.155,0,0,0,5.076-4.323,13.991,13.991,0,0,1,4.737-.839h5.671V73.243l1.8,2.157a9.2,9.2,0,0,0,16.266-5.889V46.986l.69-.69a6.411,6.411,0,0,0,1.89-4.563V38.71a3.876,3.876,0,0,0-3.871-3.871Zm-5.161-5.161a1.291,1.291,0,0,1,1.29,1.29v4.108a3.856,3.856,0,0,0-1.29.769,3.835,3.835,0,0,0-1.29-.769V30.968a1.291,1.291,0,0,1,1.289-1.291ZM42.412,70.968a3.683,3.683,0,0,0-6.809-.545l-.271.545H32.258v-12.9h3.09a14.017,14.017,0,0,1,7.232,2.01v10.89Zm-3.5-28.135L35.39,45.646,33.855,41.81a19.818,19.818,0,0,1,2.084-.463Zm2.066,7.49h.634l2.123,7.43a16.586,16.586,0,0,0-4.373-1.772Zm.809-2.581H40.8l-1.112-2.225,1.6-1.284L42.9,45.517Zm1.889-4.91,2.952-1.476c.7.142,1.4.317,2.074.521L47.19,45.646Zm6.65-20.9a2.581,2.581,0,1,1-2.581-2.581,2.581,2.581,0,0,1,2.581,2.581ZM52.9,27.1V21.935a2.581,2.581,0,1,1,0,5.161ZM39.594,3.871h3.4A12.5,12.5,0,0,1,55.111,19.4l-.1.414a5.107,5.107,0,0,0-2.1-.459H52.84a6.443,6.443,0,0,0-5.587-5.716l-.681-.085a4.563,4.563,0,0,1-3.991-4.521H40a7.146,7.146,0,0,0,6.25,7.081l.681.085a3.849,3.849,0,0,1,1.706.665,5.253,5.253,0,0,0-.9-.089,5.154,5.154,0,0,0-4.978,3.871H39.817a5.1,5.1,0,0,0-7.5-3.187A3.86,3.86,0,0,1,36,14.206a9.975,9.975,0,0,0,3.288,3.641L40.715,15.7a7.388,7.388,0,0,1-3.3-6.159v-.51H34.839v.51a10.019,10.019,0,0,0,.252,2.177,6.445,6.445,0,0,0-5.413,6.346v1.29a5.107,5.107,0,0,0-2.1.459l-.1-.414A12.5,12.5,0,0,1,39.594,3.871ZM34.839,19.355a2.581,2.581,0,1,1-2.581,2.581A2.581,2.581,0,0,1,34.839,19.355ZM27.1,24.516a2.583,2.583,0,0,1,2.581-2.581V27.1A2.583,2.583,0,0,1,27.1,24.516Zm5.161,3.871V26.379a5.1,5.1,0,0,0,7.559-3.154h2.947a5.1,5.1,0,0,0,7.559,3.154v2.008a6.459,6.459,0,0,1-6.452,6.452H38.71a6.459,6.459,0,0,1-6.452-6.452Zm6.452,9.032h5.161c.2,0,.4-.017.6-.03l.48,1.919L41.3,41.138l-3.658-1.83.48-1.919c.2.013.4.03.6.03ZM19.355,67.1V60.83a19.86,19.86,0,0,1,12.06-18.172l2.872,7.179,3.338-2.67,1,1.994L36.8,55.555c-.481-.043-.963-.071-1.448-.071H29.677V70.73A3.866,3.866,0,0,1,27.1,67.1V52.9H24.516V67.1a6.459,6.459,0,0,0,6.452,6.452h3.871V78.71H30.968A11.625,11.625,0,0,1,19.355,67.1ZM42.581,78.71H37.419V72.563l.493-.986A1.1,1.1,0,0,1,40,72.07v1.479h2.581a2.581,2.581,0,1,1,0,5.161Zm12.9-5.161h-3.09a16.539,16.539,0,0,0-5,.772,5.159,5.159,0,0,0-2.236-2.635V60.075a14.02,14.02,0,0,1,7.232-2.01h3.09Zm11.449,2.58a6.6,6.6,0,0,1-5.084-2.382l-3.782-4.538V55.484h-5.67a16.607,16.607,0,0,0-6.276,1.234L43.959,49.16l1-1.994,3.338,2.67,2.828-7.07A21.974,21.974,0,0,1,63.477,56.785l.375,1.276-1.9,11.405,2.546.423L68.19,47.742h5.359V69.511a6.626,6.626,0,0,1-6.618,6.618ZM75,44.471l-.69.69H67.631l-.69-.69a3.851,3.851,0,0,1-1.134-2.738V38.71a1.29,1.29,0,1,1,2.581,0,3.876,3.876,0,0,0,3.871,3.871h3.779a3.855,3.855,0,0,1-1.043,1.89ZM76.129,40H72.258a1.291,1.291,0,1,1,0-2.581h2.581a1.291,1.291,0,0,1,1.29,1.29Z" transform="translate(-16.774 -1.29)" fill="#fff"/>
    </g>
  </g>
</svg>
