<svg xmlns="http://www.w3.org/2000/svg" xmlns:xlink="http://www.w3.org/1999/xlink" width="15" height="15" viewBox="0 0 15 15">
  <defs>
    <clipPath id="clip-path">
      <rect id="사각형_592" data-name="사각형 592" width="15" height="15" transform="translate(935 3134)" fill="#454c53" stroke="#454c53" stroke-width="1"/>
    </clipPath>
  </defs>
  <g id="icon_Refresh" transform="translate(-935 -3134)" clip-path="url(#clip-path)">
    <g id="refresh_2_" data-name="refresh (2)" transform="translate(935 3134.021)">
      <path id="패스_886" data-name="패스 886" d="M14.112,4.093A7.472,7.472,0,0,0,3.947.9.612.612,0,1,0,4.52,1.985a6.242,6.242,0,1,1-2.4,8.89l2.123.444A.618.618,0,0,0,4.5,10.11L.737,9.344a.637.637,0,0,0-.732.7l.478,3.793a.594.594,0,0,0,.607.542.652.652,0,0,0,.607-.732L1.512,12.1a7.624,7.624,0,0,0,9.417,2.089A7.439,7.439,0,0,0,14.112,4.093Z" transform="translate(0 -0.043)" fill="#454c53"/>
    </g>
  </g>
</svg>
