<svg xmlns="http://www.w3.org/2000/svg" width="40" height="40" viewBox="0 0 40 40">
  <g id="ico_google" transform="translate(-1000 -1015)">
    <circle id="타원_2" data-name="타원 2" cx="20" cy="20" r="20" transform="translate(1000 1015)" fill="#f7f8f9"/>
    <g id="그룹_220" data-name="그룹 220" transform="translate(1011 1026)">
      <path id="패스_900" data-name="패스 900" d="M30.97,50.81l-.625,2.339-2.284.054A9.027,9.027,0,0,1,27,48.933,8.845,8.845,0,0,1,28.006,44.8h0l2.039.381.9,2.012a5.2,5.2,0,0,0-.3,1.74A5.448,5.448,0,0,0,30.97,50.81Z" transform="translate(-27 -39.933)" fill="#fbbb00"/>
      <path id="패스_901" data-name="패스 901" d="M69.32,53.8a8.645,8.645,0,0,1,.163,1.686,8.447,8.447,0,0,1-.19,1.876,8.851,8.851,0,0,1-3.154,5.112h0l-2.556-.136-.354-2.257a5.386,5.386,0,0,0,2.311-2.719H60.7V53.8h8.62Z" transform="translate(-51.483 -46.46)" fill="#518ef8"/>
      <path id="패스_902" data-name="패스 902" d="M44.442,71.939h0A8.979,8.979,0,0,1,30.9,69.193L33.81,66.8a5.338,5.338,0,0,0,7.7,2.719Z" transform="translate(-29.839 -55.925)" fill="#28b446"/>
      <path id="패스_903" data-name="패스 903" d="M44.332,29.067l-2.91,2.393a5.29,5.29,0,0,0-2.828-.816,5.358,5.358,0,0,0-5.058,3.589L30.6,31.84h0a9.013,9.013,0,0,1,13.732-2.774Z" transform="translate(-29.621 -27)" fill="#f14336"/>
    </g>
  </g>
</svg>
