<svg xmlns="http://www.w3.org/2000/svg" xmlns:xlink="http://www.w3.org/1999/xlink" width="16" height="16" viewBox="0 0 16 16">
  <defs>
    <clipPath id="clip-path">
      <rect id="사각형_300" data-name="사각형 300" width="16" height="16" transform="translate(1408 22)" fill="#fff"/>
    </clipPath>
  </defs>
  <g id="ico_App" transform="translate(-1408 -22)" clip-path="url(#clip-path)">
    <g id="add_3_" data-name="add (3)" transform="translate(1408 22)">
      <g id="그룹_226" data-name="그룹 226">
        <g id="그룹_225" data-name="그룹 225">
          <path id="패스_906" data-name="패스 906" d="M5.818,0H1.455A1.456,1.456,0,0,0,0,1.455V5.818A1.456,1.456,0,0,0,1.455,7.273H5.818A1.456,1.456,0,0,0,7.273,5.818V1.455A1.456,1.456,0,0,0,5.818,0Z" fill="#fff"/>
          <path id="패스_907" data-name="패스 907" d="M14.545,0H10.182A1.456,1.456,0,0,0,8.727,1.455V5.818a1.456,1.456,0,0,0,1.455,1.455h4.364A1.456,1.456,0,0,0,16,5.818V1.455A1.456,1.456,0,0,0,14.545,0Z" fill="#fff"/>
          <path id="패스_908" data-name="패스 908" d="M5.818,8.727H1.455A1.456,1.456,0,0,0,0,10.182v4.364A1.456,1.456,0,0,0,1.455,16H5.818a1.456,1.456,0,0,0,1.455-1.455V10.182A1.456,1.456,0,0,0,5.818,8.727Z" fill="#fff"/>
          <path id="패스_909" data-name="패스 909" d="M14.182,11.636H13.091V10.545a.363.363,0,0,0-.364-.364H12a.363.363,0,0,0-.364.364v1.091H10.545a.363.363,0,0,0-.364.364v.727a.363.363,0,0,0,.364.364h1.091v1.091a.363.363,0,0,0,.364.364h.727a.363.363,0,0,0,.364-.364V13.091h1.091a.363.363,0,0,0,.364-.364V12A.363.363,0,0,0,14.182,11.636Z" fill="#fff"/>
        </g>
      </g>
    </g>
  </g>
</svg>
