<svg xmlns="http://www.w3.org/2000/svg" xmlns:xlink="http://www.w3.org/1999/xlink" width="40" height="40" viewBox="0 0 40 40">
  <defs>
    <clipPath id="clip-path">
      <rect id="사각형_997" data-name="사각형 997" width="40" height="40" transform="translate(950 633)" fill="#febe2a" stroke="#707070" stroke-width="1"/>
    </clipPath>
  </defs>
  <g id="ico_수업연구실" transform="translate(-950 -633)" clip-path="url(#clip-path)">
    <path id="chemistry_1_" data-name="chemistry (1)" d="M38.437,6.25H28.984a1.562,1.562,0,0,0,0,3.125v25.9a4.727,4.727,0,0,0,9.453,0V23.516a1.562,1.562,0,0,0-1.562-1.562H32.109V9.375h3.2v7.187a1.562,1.562,0,1,0,3.125,0V9.375a1.562,1.562,0,0,0,0-3.125ZM35.312,25.078v10.2a1.6,1.6,0,1,1-3.2,0v-10.2ZM14.019,24.062A1.562,1.562,0,1,1,15.581,22.5,1.562,1.562,0,0,1,14.019,24.062ZM11.8,26.719a1.562,1.562,0,1,1-1.562-1.562A1.562,1.562,0,0,1,11.8,26.719Zm6.71-11.234a1.553,1.553,0,0,1-.851-1.391V3.125a1.562,1.562,0,0,0,0-3.125H8.047a1.562,1.562,0,0,0,0,3.125V14.061a1.553,1.553,0,0,1-.852,1.391,12.843,12.843,0,0,0-5.168,4.628A13.014,13.014,0,0,0,3.66,36.1,12.844,12.844,0,0,0,12.744,40h.188A12.93,12.93,0,0,0,25.859,27.07a12.628,12.628,0,0,0-2.078-6.923,13.342,13.342,0,0,0-5.274-4.663Zm1.306,18.567a9.8,9.8,0,0,1-16.135-3.74H5.312a1.562,1.562,0,1,0,0-3.125H3.126c0-.077,0-.155,0-.232a9.742,9.742,0,0,1,5.446-8.7,4.7,4.7,0,0,0,2.6-4.2V3.125h3.359V14.094a4.7,4.7,0,0,0,2.6,4.194,9.929,9.929,0,0,1,5.607,8.782c0,.039,0,.079,0,.118H15.156a1.562,1.562,0,1,0,0,3.125h7.032A9.764,9.764,0,0,1,19.813,34.052Z" transform="translate(950 633)" fill="#febe2a"/>
  </g>
</svg>
