<svg xmlns="http://www.w3.org/2000/svg" xmlns:xlink="http://www.w3.org/1999/xlink" width="25" height="25" viewBox="0 0 25 25">
  <defs>
    <clipPath id="clip-path">
      <rect id="사각형_1056" data-name="사각형 1056" width="25" height="25" transform="translate(-45)" fill="#1b1d1f" stroke="#707070" stroke-width="1"/>
    </clipPath>
  </defs>
  <g id="마스크_그룹_49" data-name="마스크 그룹 49" transform="translate(45)" clip-path="url(#clip-path)">
    <g id="bell_7_" data-name="bell (7)" transform="translate(-43.958)">
      <path id="패스_4964" data-name="패스 4964" d="M22.135,11.2a.782.782,0,0,1-.781-.781A11.127,11.127,0,0,0,18.075,2.5.782.782,0,1,1,19.18,1.393a12.682,12.682,0,0,1,3.736,9.024.782.782,0,0,1-.781.781Zm0,0" fill="#1b1d1f"/>
      <path id="패스_4965" data-name="패스 4965" d="M.781,11.2A.782.782,0,0,1,0,10.417,12.675,12.675,0,0,1,3.737,1.394.782.782,0,1,1,4.843,2.5a11.119,11.119,0,0,0-3.28,7.918.782.782,0,0,1-.781.781Zm0,0" fill="#1b1d1f"/>
      <path id="패스_4966" data-name="패스 4966" d="M11.458,25a3.91,3.91,0,0,1-3.906-3.906.781.781,0,0,1,1.563,0,2.344,2.344,0,1,0,4.688,0,.781.781,0,0,1,1.563,0A3.91,3.91,0,0,1,11.458,25Zm0,0" fill="#1b1d1f"/>
      <path id="패스_4967" data-name="패스 4967" d="M20.052,21.875H2.865a1.823,1.823,0,0,1-1.185-3.208,6.981,6.981,0,0,0,2.487-5.346v-2.9a7.292,7.292,0,0,1,14.583,0v2.9a6.979,6.979,0,0,0,2.477,5.338,1.822,1.822,0,0,1-1.175,3.216ZM11.458,4.688a5.735,5.735,0,0,0-5.729,5.729v2.9A8.537,8.537,0,0,1,2.7,19.852a.26.26,0,0,0-.094.2.263.263,0,0,0,.261.26H20.052a.263.263,0,0,0,.26-.26.257.257,0,0,0-.092-.2,8.54,8.54,0,0,1-3.033-6.533v-2.9a5.735,5.735,0,0,0-5.729-5.729Zm0,0" fill="#1b1d1f"/>
      <path id="패스_4968" data-name="패스 4968" d="M11.458,4.688a.782.782,0,0,1-.781-.781V.781a.781.781,0,0,1,1.563,0V3.906A.782.782,0,0,1,11.458,4.688Zm0,0" fill="#1b1d1f"/>
    </g>
  </g>
</svg>
