<svg xmlns="http://www.w3.org/2000/svg" xmlns:xlink="http://www.w3.org/1999/xlink" width="25" height="25" viewBox="0 0 25 25">
  <defs>
    <clipPath id="clip-path">
      <rect id="사각형_1057" data-name="사각형 1057" width="25" height="25" transform="translate(0 2)" fill="#26282b"/>
    </clipPath>
  </defs>
  <g id="마스크_그룹_50" data-name="마스크 그룹 50" transform="translate(0 -2)" clip-path="url(#clip-path)">
    <g id="chatting" transform="translate(0 2)">
      <path id="패스_4969" data-name="패스 4969" d="M0,17.042a.733.733,0,0,0,1.158.6l4.027-2.873A1.97,1.97,0,0,1,6.335,14.4h8.857a2.83,2.83,0,0,0,2.827-2.827V2.277a.732.732,0,0,0-.732-.732H2.827A2.83,2.83,0,0,0,0,4.371ZM1.465,4.371A1.364,1.364,0,0,1,2.827,3.009H16.554V11.57a1.364,1.364,0,0,1-1.362,1.362H6.335a3.427,3.427,0,0,0-2,.641L1.465,15.62Z" fill="#26282b"/>
      <path id="패스_4970" data-name="패스 4970" d="M25,10.053a2.831,2.831,0,0,0-2.827-2.828H20.216a.732.732,0,0,0,0,1.465h1.957a1.364,1.364,0,0,1,1.362,1.363V21.3l-2.869-2.047a3.426,3.426,0,0,0-2-.641H9.808a1.364,1.364,0,0,1-1.362-1.363v-.656a.732.732,0,0,0-1.465,0v.656a2.831,2.831,0,0,0,2.827,2.828h8.857a1.97,1.97,0,0,1,1.15.368l4.027,2.873a.733.733,0,0,0,1.158-.6V10.053Z" fill="#26282b"/>
      <path id="패스_4971" data-name="패스 4971" d="M5.267,7h8.462a.732.732,0,1,0,0-1.465H5.267A.732.732,0,0,0,5.267,7Z" fill="#26282b"/>
      <path id="패스_4972" data-name="패스 4972" d="M5.267,10.417h8.462a.732.732,0,1,0,0-1.465H5.267a.732.732,0,1,0,0,1.465Z" fill="#26282b"/>
    </g>
  </g>
</svg>
