<svg xmlns="http://www.w3.org/2000/svg" xmlns:xlink="http://www.w3.org/1999/xlink" width="80" height="80" viewBox="0 0 80 80">
  <defs>
    <clipPath id="clip-path">
      <rect id="사각형_567" data-name="사각형 567" width="80" height="80" transform="translate(1298 468)" fill="#6f57cf" stroke="#707070" stroke-width="1"/>
    </clipPath>
  </defs>
  <g id="ico_student" transform="translate(-1298 -468)" clip-path="url(#clip-path)">
    <g id="reading_1_" data-name="reading (1)" transform="translate(1305.188 468)">
      <circle id="타원_14" data-name="타원 14" cx="1.563" cy="1.563" r="1.563" transform="translate(37.5 25)" fill="#6f57cf"/>
      <circle id="타원_15" data-name="타원 15" cx="1.563" cy="1.563" r="1.563" transform="translate(25 25)" fill="#6f57cf"/>
      <path id="패스_912" data-name="패스 912" d="M38.066,26.953a1.563,1.563,0,0,0-3.125,0,1.562,1.562,0,1,1-3.125,0,1.563,1.563,0,0,0-3.125,0,4.688,4.688,0,1,0,9.375,0Z" transform="translate(-0.566 5.859)" fill="#6f57cf"/>
      <path id="패스_913" data-name="패스 913" d="M68.34,51.206V42.188A1.562,1.562,0,0,0,66.4,40.672L58.965,42.53V21.1C58.965,9.959,50.246,0,38.652,0A20.335,20.335,0,0,0,18.34,20.313V42.53l-7.434-1.858a1.562,1.562,0,0,0-1.941,1.516v9.019A4.7,4.7,0,0,0,5.84,55.625v6.25a4.7,4.7,0,0,0,3.125,4.419v5.894A1.562,1.562,0,0,0,10.148,73.7l5.678,1.42a1.562,1.562,0,1,0,.758-3.032L12.09,70.967v-4.4a4.693,4.693,0,0,0,4.687-4.687V57.188a6.261,6.261,0,0,0-4.687-6.052V44.189l21.875,5.469V76.436L30.228,75.5a1.562,1.562,0,1,0-.758,3.032l5.678,1.42a1.781,1.781,0,0,0,.387.047h6.233a1.635,1.635,0,0,0,.388-.047l25-6.25a1.562,1.562,0,0,0,1.183-1.516V66.294a4.7,4.7,0,0,0,3.125-4.419v-6.25A4.7,4.7,0,0,0,68.34,51.206ZM13.652,57.188v4.688a1.564,1.564,0,0,1-1.562,1.563H10.527a1.564,1.564,0,0,1-1.563-1.562v-6.25a1.564,1.564,0,0,1,1.563-1.562A3.129,3.129,0,0,1,13.652,57.188ZM52.715,28.125v-6.25a3.125,3.125,0,0,1,0,6.25Zm3.125,2.284v12.9l-9.375,2.344V41.38a14.134,14.134,0,0,0,6.162-10.13h.088A6.208,6.208,0,0,0,55.84,30.409ZM38.652,3.125c8.98,0,16.372,7.239,17.123,16.429a6.208,6.208,0,0,0-3.061-.8H51.66a12.133,12.133,0,0,1-11.525-8.306,1.563,1.563,0,0,0-1.481-1.069h0a1.562,1.562,0,0,0-1.482,1.067c-.012.016-2.254,8.308-11.018,8.308H24.59a6.21,6.21,0,0,0-3.108.831A17.208,17.208,0,0,1,38.652,3.125ZM24.59,21.875v6.25a3.125,3.125,0,0,1,0-6.25Zm6.25,23.78-9.375-2.344v-12.9a6.21,6.21,0,0,0,3.125.841h.088A14.135,14.135,0,0,0,30.84,41.38ZM27.715,29.688v-7.9A14.548,14.548,0,0,0,38.708,14.7,15.25,15.25,0,0,0,49.59,21.734v7.953a10.938,10.938,0,0,1-21.875,0Zm12.5,47.187H37.09V50h3.125Zm1.37-30H35.72l-1.755-.439V42.945a14.059,14.059,0,0,0,9.375,0v3.491Zm23.63,24.093L43.34,76.436V49.658l21.875-5.469v6.947a6.261,6.261,0,0,0-4.687,6.052v4.688a4.693,4.693,0,0,0,4.687,4.688Zm3.125-9.093a1.564,1.564,0,0,1-1.562,1.563H65.215a1.564,1.564,0,0,1-1.562-1.562V57.188a3.129,3.129,0,0,1,3.125-3.125,1.564,1.564,0,0,1,1.563,1.563Z" transform="translate(-5.84 0)" fill="#6f57cf"/>
      <circle id="타원_16" data-name="타원 16" cx="1.563" cy="1.563" r="1.563" transform="translate(15.625 73.75)" fill="#6f57cf"/>
    </g>
  </g>
</svg>
