<svg width="15" height="10" viewBox="0 0 15 10" fill="none" xmlns="http://www.w3.org/2000/svg">
<path d="M14.142 0.279079C14.0507 0.190603 13.9422 0.120417 13.8229 0.072532C13.7036 0.0246467 13.5757 0 13.4465 0C13.3173 0 13.1894 0.0246467 13.0701 0.072532C12.9507 0.120417 12.8423 0.190603 12.751 0.279079L5.96436 7.13402L1.70736 2.65609C1.61986 2.56406 1.51451 2.48961 1.3973 2.43701C1.2801 2.38441 1.15334 2.35467 1.02428 2.34951C0.895208 2.34435 0.766353 2.36386 0.645069 2.40692C0.523785 2.44998 0.412447 2.51576 0.317412 2.60049C0.222377 2.68522 0.145506 2.78725 0.0911884 2.90075C0.0368706 3.01426 0.00616956 3.13701 0.000838164 3.262C-0.00449323 3.38699 0.0156496 3.51178 0.0601163 3.62924C0.104583 3.74669 0.172503 3.85451 0.259998 3.94655L5.21067 9.15285C5.30036 9.24722 5.40884 9.32305 5.52957 9.37577C5.6503 9.4285 5.78079 9.45704 5.91321 9.45967H5.93408C6.19433 9.45951 6.44392 9.35956 6.62827 9.18167L14.142 1.62514C14.3262 1.44658 14.4296 1.2045 14.4296 0.952109C14.4296 0.699714 14.3262 0.457642 14.142 0.279079Z" fill="white"/>
</svg>
