<svg xmlns="http://www.w3.org/2000/svg" xmlns:xlink="http://www.w3.org/1999/xlink" width="40" height="40" viewBox="0 0 40 40">
  <defs>
    <clipPath id="clip-path">
      <rect id="사각형_853" data-name="사각형 853" width="40" height="40" transform="translate(1307 3574)" fill="#fff495"/>
    </clipPath>
  </defs>
  <g id="ico_리포트" transform="translate(-1307 -3574)" clip-path="url(#clip-path)">
    <g id="free-icon-writing-1001371" transform="translate(1309.076 3574)">
      <g id="그룹_4293" data-name="그룹 4293" transform="translate(0)">
        <g id="그룹_4292" data-name="그룹 4292">
          <path id="패스_4197" data-name="패스 4197" d="M26.5,15.234a1.562,1.562,0,0,0-1.562-1.562H8.84a1.562,1.562,0,1,0,0,3.125H24.934A1.562,1.562,0,0,0,26.5,15.234Z" transform="translate(-1.036 1.953)" fill="#fff495"/>
          <path id="패스_4198" data-name="패스 4198" d="M8.84,19.141a1.563,1.563,0,0,0,0,3.125h9.774a1.563,1.563,0,0,0,0-3.125Z" transform="translate(-1.036 2.734)" fill="#fff495"/>
          <path id="패스_4199" data-name="패스 4199" d="M13.292,36.875H8.066A3.129,3.129,0,0,1,4.941,33.75V6.25A3.129,3.129,0,0,1,8.066,3.125h19.21A3.129,3.129,0,0,1,30.4,6.25v9.609a1.563,1.563,0,0,0,3.125,0V6.25A6.257,6.257,0,0,0,27.276,0H8.066a6.257,6.257,0,0,0-6.25,6.25v27.5A6.257,6.257,0,0,0,8.066,40h5.226a1.563,1.563,0,0,0,0-3.125Z" transform="translate(-1.816 0)" fill="#fff495"/>
          <path id="패스_4200" data-name="패스 4200" d="M34.176,19.966a4.692,4.692,0,0,0-6.628,0L18.97,28.524a1.563,1.563,0,0,0-.391.652l-1.868,6.15a1.562,1.562,0,0,0,1.912,1.96l6.307-1.747a1.562,1.562,0,0,0,.687-.4l8.56-8.544A4.693,4.693,0,0,0,34.176,19.966ZM23.7,32.638l-3.173.879.929-3.057,5.788-5.775,2.21,2.21Zm8.269-8.253-.3.3-2.21-2.21.3-.3a1.563,1.563,0,0,1,2.211,2.209Z" transform="translate(0.302 2.656)" fill="#fff495"/>
          <path id="패스_4201" data-name="패스 4201" d="M24.934,8.2H8.84a1.563,1.563,0,0,0,0,3.125H24.934a1.563,1.563,0,0,0,0-3.125Z" transform="translate(-1.036 1.172)" fill="#fff495"/>
        </g>
      </g>
    </g>
  </g>
</svg>
