<svg xmlns="http://www.w3.org/2000/svg" width="22.996" height="22.997" viewBox="0 0 22.996 22.997">
  <g id="그룹_989" data-name="그룹 989" transform="translate(-90.818 -13.408)">
    <g id="그룹_986" data-name="그룹 986" transform="translate(90.818 13.408)">
      <g id="그룹_985" data-name="그룹 985">
        <circle id="타원_448" data-name="타원 448" cx="11.498" cy="11.498" r="11.498" transform="translate(0 22.996) rotate(-90)" fill="#fdc42d"/>
        <g id="그룹_984" data-name="그룹 984" transform="translate(2.071 3.527)">
          <path id="패스_2330" data-name="패스 2330" d="M110.371,16.56A11.49,11.49,0,0,1,92.669,31.1a11.492,11.492,0,1,0,17.7-14.544Z" transform="translate(-92.669 -16.56)" fill="#fdb431"/>
        </g>
        <path id="패스_2331" data-name="패스 2331" d="M93.239,19.263a8.632,8.632,0,0,1,4.1-3.965" transform="translate(-90.53 -13.183)" fill="none" stroke="#fff" stroke-linecap="round" stroke-linejoin="round" stroke-width="0.5"/>
      </g>
    </g>
    <path id="패스_2332" data-name="패스 2332" d="M102.8,29.009a1.582,1.582,0,1,1-3.083,0,1.582,1.582,0,1,1,3.083,0Z" transform="translate(1.057 1.624)" fill="#ee3555"/>
    <g id="그룹_987" data-name="그룹 987" transform="translate(94.563 21.382)">
      <path id="패스_2333" data-name="패스 2333" d="M100.509,23.707a3.172,3.172,0,1,1-3.172-3.172A3.173,3.173,0,0,1,100.509,23.707Z" transform="translate(-94.165 -20.535)" fill="#fff"/>
      <path id="패스_2334" data-name="패스 2334" d="M98.3,23.5a1.178,1.178,0,1,1-1.178-1.178A1.179,1.179,0,0,1,98.3,23.5Z" transform="translate(-93.953 -20.323)" fill="#403d3c"/>
    </g>
    <g id="그룹_988" data-name="그룹 988" transform="translate(103.726 21.382)">
      <path id="패스_2335" data-name="패스 2335" d="M108.7,23.707a3.172,3.172,0,1,1-3.172-3.172A3.172,3.172,0,0,1,108.7,23.707Z" transform="translate(-102.355 -20.535)" fill="#fff"/>
      <path id="패스_2336" data-name="패스 2336" d="M106.493,23.5a1.178,1.178,0,1,1-1.178-1.178A1.179,1.179,0,0,1,106.493,23.5Z" transform="translate(-102.143 -20.323)" fill="#403d3c"/>
    </g>
  </g>
</svg>
