<svg xmlns="http://www.w3.org/2000/svg" xmlns:xlink="http://www.w3.org/1999/xlink" width="40" height="40" viewBox="0 0 40 40">
  <defs>
    <clipPath id="clip-path">
      <rect id="bg" width="40" height="40" transform="translate(1124 537)" fill="#454c53"/>
    </clipPath>
  </defs>
  <g id="ico_" transform="translate(-1124 -537)" clip-path="url(#clip-path)">
    <g id="Layer_2" transform="translate(1124.063 536.961)">
      <g id="그룹_4561" data-name="그룹 4561">
        <path id="패스_5057" data-name="패스 5057" d="M31.8,40.039H8.086a3.807,3.807,0,0,1-3.8-3.8V3.84a3.807,3.807,0,0,1,3.8-3.8h23.7a3.807,3.807,0,0,1,3.8,3.8v32.4A3.8,3.8,0,0,1,31.8,40.039ZM8.086,2.212A1.626,1.626,0,0,0,6.465,3.84v32.4a1.619,1.619,0,0,0,1.62,1.62h23.7a1.619,1.619,0,0,0,1.62-1.62V3.84a1.619,1.619,0,0,0-1.62-1.62H8.086Z" fill="#454c53"/>
        <path id="패스_5058" data-name="패스 5058" d="M28.386,27.466H11.5a1.061,1.061,0,0,1-1.059-1.059v-.226A1.061,1.061,0,0,1,11.5,25.122h16.9a1.061,1.061,0,0,1,1.059,1.059v.226A1.072,1.072,0,0,1,28.386,27.466Z" fill="#454c53"/>
        <path id="패스_5059" data-name="패스 5059" d="M20.689,34.08H11.241a.809.809,0,0,1-.81-.81v-.724a.809.809,0,0,1,.81-.81h9.449a.809.809,0,0,1,.81.81v.724A.809.809,0,0,1,20.689,34.08Z" fill="#454c53"/>
        <g id="그룹_4559" data-name="그룹 4559">
          <path id="패스_5060" data-name="패스 5060" d="M19.942,14.084A4.183,4.183,0,1,1,24.125,9.9,4.189,4.189,0,0,1,19.942,14.084Zm0-6.185a2,2,0,1,0,2,2A2.006,2.006,0,0,0,19.942,7.9Z" fill="#ff5c5c"/>
        </g>
        <g id="그룹_4560" data-name="그룹 4560">
          <path id="패스_5061" data-name="패스 5061" d="M26.345,21.889A1.094,1.094,0,0,1,25.254,20.8a5.2,5.2,0,0,0-5.313-5.063A5.2,5.2,0,0,0,14.629,20.8a1.091,1.091,0,1,1-2.181,0,7.377,7.377,0,0,1,7.494-7.244A7.382,7.382,0,0,1,27.435,20.8,1.094,1.094,0,0,1,26.345,21.889Z" fill="#ff5c5c"/>
        </g>
      </g>
    </g>
  </g>
</svg>
