<svg xmlns="http://www.w3.org/2000/svg" xmlns:xlink="http://www.w3.org/1999/xlink" width="40" height="40" viewBox="0 0 40 40">
  <defs>
    <clipPath id="clip-path">
      <rect id="사각형_992" data-name="사각형 992" width="40" height="40" transform="translate(240 544)" fill="#8e71ff" stroke="#707070" stroke-width="1"/>
    </clipPath>
  </defs>
  <g id="ico_과제평가" transform="translate(-240 -544)" clip-path="url(#clip-path)">
    <path id="blogging" d="M35.313.034H4.688A4.693,4.693,0,0,0,0,4.722V30.659a6.257,6.257,0,0,0,6.25,6.25H23.906a1.563,1.563,0,1,0,0-3.125H6.25a3.129,3.129,0,0,1-3.125-3.125V9.487h33.75V23.862a1.563,1.563,0,1,0,3.125,0V4.722A4.693,4.693,0,0,0,35.313.034ZM28.984,3.159a1.563,1.563,0,1,1-1.562,1.562A1.564,1.564,0,0,1,28.984,3.159ZM36.8,4.722a1.563,1.563,0,1,1-1.562-1.562A1.564,1.564,0,0,1,36.8,4.722Zm-33.672,0A1.564,1.564,0,0,1,4.688,3.159H24.566a4.678,4.678,0,0,0,.028,3.2H3.125ZM30.069,21.892a1.563,1.563,0,0,0-.652-.392l-6.15-1.868a1.562,1.562,0,0,0-1.96,1.912l1.747,6.306a1.56,1.56,0,0,0,.4.687L32,37.1a4.687,4.687,0,0,0,6.63-6.628Zm-4.992,1.556,3.057.929,5.775,5.788-2.21,2.21-5.743-5.754Zm11.341,11.44a1.564,1.564,0,0,1-2.209,0l-.3-.3,2.21-2.21.3.3a1.564,1.564,0,0,1,0,2.209Zm0,0" transform="translate(240 544.748)" fill="#8e71ff"/>
  </g>
</svg>
