<svg xmlns="http://www.w3.org/2000/svg" xmlns:xlink="http://www.w3.org/1999/xlink" width="40" height="40" viewBox="0 0 40 40">
  <defs>
    <clipPath id="clip-path">
      <rect id="사각형_851" data-name="사각형 851" width="40" height="40" transform="translate(1320 3514)" fill="#945400"/>
    </clipPath>
  </defs>
  <g id="ico_수업자료" transform="translate(-1320 -3514)" clip-path="url(#clip-path)">
    <g id="free-icon-puzzle-538920" transform="translate(1320 3514)">
      <g id="그룹_4289" data-name="그룹 4289">
        <path id="패스_4193" data-name="패스 4193" d="M36.484,0H3.516A3.52,3.52,0,0,0,0,3.516V36.484A3.52,3.52,0,0,0,3.516,40H36.484A3.52,3.52,0,0,0,40,36.484V3.516A3.52,3.52,0,0,0,36.484,0ZM2.344,3.516A1.173,1.173,0,0,1,3.516,2.344H18.828V8.281a1.173,1.173,0,0,0,1.7,1.048l.329-.165a1.818,1.818,0,0,1,2.661,1.4,1.724,1.724,0,0,1-2.5,1.607l-.495-.247a1.174,1.174,0,0,0-1.7,1.048v5.859H14.6a4.115,4.115,0,0,0-3.83-4.685A4.072,4.072,0,0,0,6.6,18.828H2.344ZM18.828,37.656H3.516a1.173,1.173,0,0,1-1.172-1.172V21.172H8.281a1.173,1.173,0,0,0,1.048-1.7l-.248-.495a1.724,1.724,0,0,1,1.607-2.5,1.818,1.818,0,0,1,1.4,2.661l-.165.329a1.173,1.173,0,0,0,1.048,1.7h5.859V25.35a4.072,4.072,0,0,0-4.685,4.167,4.115,4.115,0,0,0,4.685,3.83Zm18.828-1.172a1.173,1.173,0,0,1-1.172,1.172H21.172V31.719a1.173,1.173,0,0,0-1.7-1.048l-.329.165a1.818,1.818,0,0,1-2.661-1.4,1.723,1.723,0,0,1,2.5-1.607l.495.247a1.173,1.173,0,0,0,1.7-1.048V21.164h4.179a4.074,4.074,0,0,0,4.025,4.7l.141,0A3.94,3.94,0,0,0,32.771,23.9a4.279,4.279,0,0,0,.574-2.731h4.311Zm0-17.656H31.719a1.174,1.174,0,0,0-1.048,1.7l.165.329a1.949,1.949,0,0,1-.078,1.851,1.581,1.581,0,0,1-1.318.81,1.693,1.693,0,0,1-1.516-.792,1.711,1.711,0,0,1-.091-1.7l.247-.495a1.175,1.175,0,0,0-1.048-1.7H21.172V14.649a4.016,4.016,0,0,0,.622.05,4.048,4.048,0,1,0-.622-8.044V2.344H36.484a1.173,1.173,0,0,1,1.172,1.172Z" fill="#945400"/>
      </g>
    </g>
  </g>
</svg>
