<svg xmlns="http://www.w3.org/2000/svg" xmlns:xlink="http://www.w3.org/1999/xlink" width="15" height="15" viewBox="0 0 15 15">
  <defs>
    <clipPath id="clip-path">
      <rect id="사각형_1056" data-name="사각형 1056" width="15" height="15" transform="translate(-45)" fill="#fff" stroke="#707070" stroke-width="1"/>
    </clipPath>
  </defs>
  <g id="마스크_그룹_49" data-name="마스크 그룹 49" transform="translate(45)" clip-path="url(#clip-path)">
    <g id="bell_7_" data-name="bell (7)" transform="translate(-44.375)">
      <path id="패스_4964" data-name="패스 4964" d="M20.42,7.184a.469.469,0,0,1-.469-.469,6.676,6.676,0,0,0-1.967-4.751.469.469,0,1,1,.663-.663,7.609,7.609,0,0,1,2.242,5.414.469.469,0,0,1-.469.469Zm0,0" transform="translate(-7.138 -0.466)" fill="#fff"/>
      <path id="패스_4965" data-name="패스 4965" d="M.469,7.185A.469.469,0,0,1,0,6.716,7.6,7.6,0,0,1,2.242,1.3a.469.469,0,0,1,.663.663A6.672,6.672,0,0,0,.938,6.716a.469.469,0,0,1-.469.469Zm0,0" transform="translate(0 -0.466)" fill="#fff"/>
      <path id="패스_4966" data-name="패스 4966" d="M9.9,23.125a2.346,2.346,0,0,1-2.344-2.344.469.469,0,0,1,.938,0,1.406,1.406,0,0,0,2.813,0,.469.469,0,0,1,.938,0A2.346,2.346,0,0,1,9.9,23.125Zm0,0" transform="translate(-3.021 -8.125)" fill="#fff"/>
      <path id="패스_4967" data-name="패스 4967" d="M12.448,14.375H2.135a1.094,1.094,0,0,1-.711-1.925A4.189,4.189,0,0,0,2.917,9.243V7.5a4.375,4.375,0,0,1,8.75,0V9.243a4.188,4.188,0,0,0,1.486,3.2,1.093,1.093,0,0,1-.7,1.929ZM7.292,4.063A3.441,3.441,0,0,0,3.854,7.5V9.243a5.122,5.122,0,0,1-1.819,3.919.156.156,0,0,0-.056.12.158.158,0,0,0,.156.156H12.448a.158.158,0,0,0,.156-.156.154.154,0,0,0-.055-.119,5.124,5.124,0,0,1-1.82-3.92V7.5A3.441,3.441,0,0,0,7.292,4.063Zm0,0" transform="translate(-0.417 -1.25)" fill="#fff"/>
      <path id="패스_4968" data-name="패스 4968" d="M11.146,2.813a.469.469,0,0,1-.469-.469V.469a.469.469,0,1,1,.938,0V2.344A.469.469,0,0,1,11.146,2.813Zm0,0" transform="translate(-4.271)" fill="#fff"/>
    </g>
  </g>
</svg>
