<svg width="19" height="12" viewBox="0 0 19 12" fill="none" xmlns="http://www.w3.org/2000/svg">
<g clip-path="url(#clip0_4_4)">
<path d="M0.482697 3.83829V0.703918H2.30512V5.45681C2.30512 5.52793 2.19742 5.5595 2.14312 5.50491L0.482697 3.83829Z" fill="white"/>
<path d="M5.03808 9.27603V0.703918H3.21625V10.8949C3.21625 10.9657 3.32424 10.9979 3.37854 10.9433L5.03808 9.27603Z" fill="white"/>
<path d="M8.07417 0.703918H6.25262V10.971H8.07417V0.703918Z" fill="white"/>
<path d="M9.14739 0.731936C9.09251 0.67705 8.9848 0.709222 8.9848 0.780041V5.45147C8.9848 5.52258 9.09251 5.55419 9.14739 5.4996L10.8069 3.83265V2.39827L9.14739 0.731936Z" fill="white"/>
<path d="M9.14739 6.17506C9.09251 6.12018 8.9848 6.15231 8.9848 6.22313V10.8949C8.9848 10.966 9.09251 10.9979 9.14739 10.9433L10.8069 9.27637V7.84168L9.14739 6.17506Z" fill="white"/>
<path d="M13.6214 2.39858V10.971H11.7996V0.779752C11.7996 0.708932 11.9073 0.676768 11.9616 0.731358L13.6214 2.39858Z" fill="white"/>
<path d="M16.0508 2.39858L16.0688 10.9719H14.2293V0.779752C14.2293 0.708932 14.337 0.676768 14.3913 0.731358L16.0508 2.39858Z" fill="white"/>
<path d="M18.4791 2.39858V10.971H16.6575V0.779752C16.6575 0.708932 16.7652 0.676768 16.8198 0.731358L18.4791 2.39858Z" fill="white"/>
</g>
<defs>
<clipPath id="clip0_4_4">
<rect width="18" height="10.3279" fill="white" transform="translate(0.484375 0.703918)"/>
</clipPath>
</defs>
</svg>
