<svg xmlns="http://www.w3.org/2000/svg" xmlns:xlink="http://www.w3.org/1999/xlink" width="20" height="30" viewBox="0 0 20 30">
  <defs>
    <clipPath id="clip-path">
      <rect id="사각형_290" data-name="사각형 290" width="20" height="30" fill="#fff"/>
    </clipPath>
  </defs>
  <g id="ico_arw" clip-path="url(#clip-path)">
    <g id="arrow-down-sign-to-navigate" transform="translate(0 16.6)">
      <path id="패스_188" data-name="패스 188" d="M10,14.2a1.4,1.4,0,0,1-.99-.41l-8.6-8.6A1.4,1.4,0,0,1,2.391,3.2L10,10.814l7.609-7.609a1.4,1.4,0,1,1,1.98,1.981l-8.6,8.6A1.4,1.4,0,0,1,10,14.2Z" transform="translate(0 -2.795)" fill="#fff"/>
    </g>
    <g id="arrow-down-sign-to-navigate-2" data-name="arrow-down-sign-to-navigate" transform="translate(0 3)" opacity="0.6">
      <path id="패스_188-2" data-name="패스 188" d="M10,14.2a1.4,1.4,0,0,1-.99-.41l-8.6-8.6A1.4,1.4,0,0,1,2.391,3.2L10,10.814l7.609-7.609a1.4,1.4,0,1,1,1.98,1.981l-8.6,8.6A1.4,1.4,0,0,1,10,14.2Z" transform="translate(0 -2.795)" fill="#fff"/>
    </g>
  </g>
</svg>
