<svg xmlns="http://www.w3.org/2000/svg" xmlns:xlink="http://www.w3.org/1999/xlink" width="80" height="80" viewBox="0 0 80 80">
  <defs>
    <clipPath id="clip-path">
      <rect id="사각형_546" data-name="사각형 546" width="80" height="80" transform="translate(1250 416)" fill="#454c53"/>
    </clipPath>
  </defs>
  <g id="ico_parents" transform="translate(-1250 -416)" clip-path="url(#clip-path)">
    <g id="outline" transform="translate(1250 416.667)">
      <path id="패스_873" data-name="패스 873" d="M78.071,54.4a9.17,9.17,0,0,0-1.8-9.336,9.169,9.169,0,0,0-1.6-9.591V32.779A10.112,10.112,0,0,0,64.555,22.667h-3.8A10.1,10.1,0,0,0,50.667,32.761v8.515a8.067,8.067,0,0,0,8,8.058v1.61c-.473.088-.94.2-1.4.328A10.683,10.683,0,0,0,49.509,48h-.75a10.08,10.08,0,0,0-7.992,3.941c-.267-.087-.533-.169-.8-.242,0,0-3.907-1.033-3.964-1.033V47.895a5.769,5.769,0,0,0,4-5.459V31.784a5.648,5.648,0,0,0,3.446-3.9l.068-.271a5.506,5.506,0,0,0-.758-4.382l-.035-.052A5.645,5.645,0,0,0,36.9,20.758l-3.055.611a6.634,6.634,0,0,1-1.3.129H31.84a3.653,3.653,0,0,1-1.626-.383l-.341-.17A8.931,8.931,0,0,0,17.161,30.87l1.513,6.807a4.006,4.006,0,0,0,2.659,3.592v9.4s-1.448,0-1.5.011c-.018,0-3.793,1.021-3.793,1.021A16.369,16.369,0,0,0,4,67.457V88a1.333,1.333,0,0,0,1.333,1.333H82.667A1.333,1.333,0,0,0,84,88V67a16.308,16.308,0,0,0-5.929-12.6ZM60.76,25.334h3.8A7.445,7.445,0,0,1,72,32.779V36a1.333,1.333,0,0,0,.391.943,6.506,6.506,0,0,1,1.22,7.52l-.137.274a1.333,1.333,0,0,0,.25,1.539l.34.341a6.5,6.5,0,0,1,1.709,6.2,16.235,16.235,0,0,0-5.107-1.87V45.105a4,4,0,0,0-1.333-7.771,2.67,2.67,0,0,1-2.667-2.667v-4a1.333,1.333,0,0,0-2.073-1.109A14.5,14.5,0,0,1,56.526,32H53.372a7.437,7.437,0,0,1,7.388-6.667ZM53.333,41.276V34.667h3.192A17.152,17.152,0,0,0,64,32.961v1.706A5.339,5.339,0,0,0,69.333,40a1.333,1.333,0,0,1,0,2.667A1.333,1.333,0,0,0,68,44V50.76H61.333V49.334h1.333a1.333,1.333,0,1,0,0-2.667H58.725A5.4,5.4,0,0,1,53.333,41.276Zm1.333,25.391A1.333,1.333,0,0,0,53.333,68v6.667h-5.3l.028-1.3A1.333,1.333,0,0,0,46.724,72a5.4,5.4,0,0,1-5.391-5.391V60h3.193A17.152,17.152,0,0,0,52,58.294V60a5.343,5.343,0,0,0,4,5.165v.169a1.335,1.335,0,0,1-1.333,1.333Zm-5.907-16h.75a8.15,8.15,0,0,1,7.732,10.728l-.408,1.224A2.67,2.67,0,0,1,54.667,60V56a1.333,1.333,0,0,0-2.073-1.109,14.5,14.5,0,0,1-8.068,2.443H41.372a7.437,7.437,0,0,1,7.388-6.667ZM34.031,53.334l-1.4,3.493L28.6,54.808a1.333,1.333,0,0,0-1.193,0l-4.037,2.019-1.4-3.493ZM22.4,23.719a6.279,6.279,0,0,1,6.276-.391l.341.17a6.333,6.333,0,0,0,2.819.665h.705a9.3,9.3,0,0,0,1.82-.18l3.057-.612a2.987,2.987,0,0,1,3.079,1.28l.035.052a2.836,2.836,0,0,1,.391,2.256l-.068.271a2.986,2.986,0,0,1-2.9,2.264H35.98a19.252,19.252,0,0,1-7.18-1.383l-2.971-1.189A1.333,1.333,0,0,0,24,28.164V33.5H22.667a3.974,3.974,0,0,0-2.062.574l-.84-3.781a6.3,6.3,0,0,1,2.64-6.571Zm.262,15.112a1.333,1.333,0,1,1,0-2.667h2.667a1.333,1.333,0,0,0,1.333-1.333v-4.7l1.143.457a21.9,21.9,0,0,0,8.171,1.574h1.353V42.436a3.077,3.077,0,0,1-2.8,3.05c-.025,0-.048.009-.073.012H30.667a1.333,1.333,0,1,0,0,2.667h2.667v2.5H24v-10.5A1.333,1.333,0,0,0,22.667,38.831Zm-16,28.627A13.7,13.7,0,0,1,16.737,54.272L19.2,53.6l2.225,5.563a1.333,1.333,0,0,0,1.834.7L28,57.491l4.737,2.368a1.333,1.333,0,0,0,1.834-.7L36.8,53.6l2.467.673.141.041a10.037,10.037,0,0,0-.738,3.781v8.515c0,.02,0,.039,0,.058H33.333a1.333,1.333,0,1,0,0,2.667h5.809a8.083,8.083,0,0,0,6.222,5.219l-.009.4-.624.156a13.264,13.264,0,0,0-10,11.557H16V69.334a1.333,1.333,0,0,0-2.667,0V86.667H6.667ZM60,86.667V84a1.333,1.333,0,1,0-2.667,0v2.667H44V84a1.333,1.333,0,1,0-2.667,0v2.667H37.417a10.6,10.6,0,0,1,7.962-8.97l1.452-.363H54.5l1.452.363a10.6,10.6,0,0,1,7.961,8.97Zm6.6,0a13.264,13.264,0,0,0-10-11.557l-.6-.15V69.105a4.007,4.007,0,0,0,2.657-3.525l1.114-3.342a10.683,10.683,0,0,0-.783-8.639q.544-.108,1.1-.172h9.165a13.6,13.6,0,0,1,6.305,2.4,1.325,1.325,0,0,0,.243.179A13.648,13.648,0,0,1,81.333,67v1H77.287a7.183,7.183,0,0,0-2.062-4.342l-.263-.263-.268-2.73a1.333,1.333,0,0,0-2.654.261l.315,3.205a1.333,1.333,0,0,0,.384.813l.6.6a4.543,4.543,0,0,1,.567,5.717,1.333,1.333,0,0,0-.224.741V86.667Zm9.75,0V72.382a7.148,7.148,0,0,0,.722-1.715h4.264v16Z" transform="translate(-4 -10.667)" fill="#454c53"/>
      <path id="패스_874" data-name="패스 874" d="M62.706,15.052,66.832,17.8a1.333,1.333,0,0,0,1.479,0l4.127-2.751a5.281,5.281,0,0,0,1.791-6.745,4.177,4.177,0,0,0-6.657-1.114,4.177,4.177,0,0,0-6.657,1.114,5.28,5.28,0,0,0,1.791,6.745ZM63.3,9.5a1.506,1.506,0,0,1,2.695,0l.385.77a1.333,1.333,0,0,0,2.385,0l.385-.77a1.506,1.506,0,0,1,2.695,0,2.61,2.61,0,0,1-.885,3.333l-3.387,2.258-3.387-2.257A2.61,2.61,0,0,1,63.3,9.5Z" transform="translate(-22.787 -6)" fill="#454c53"/>
      <circle id="타원_6" data-name="타원 6" cx="1.167" cy="1.167" r="1.167" transform="translate(24.167 23.33)" fill="#454c53"/>
      <circle id="타원_7" data-name="타원 7" cx="1.167" cy="1.167" r="1.167" transform="translate(29.667 23.33)" fill="#454c53"/>
      <circle id="타원_8" data-name="타원 8" cx="1.167" cy="1.167" r="1.167" transform="translate(56.5 25.833)" fill="#454c53"/>
      <circle id="타원_9" data-name="타원 9" cx="1.167" cy="1.167" r="1.167" transform="translate(51.167 25.833)" fill="#454c53"/>
      <path id="패스_875" data-name="패스 875" d="M47.172,52.282l.308,0h.02a1.333,1.333,0,1,0,.019-2.667l-.308,0a.719.719,0,0,1-.65-.436,1.333,1.333,0,0,0-2.452,1.047A3.388,3.388,0,0,0,47.172,52.282Z" transform="translate(-17.334 -20.123)" fill="#454c53"/>
      <path id="패스_876" data-name="패스 876" d="M85.6,55.416l.309,0a3.388,3.388,0,0,0,3.063-2.056,1.333,1.333,0,1,0-2.452-1.047.719.719,0,0,1-.65.436l-.308,0a1.333,1.333,0,0,0,.019,2.667Z" transform="translate(-30.746 -21.166)" fill="#454c53"/>
      <circle id="타원_10" data-name="타원 10" cx="1.167" cy="1.167" r="1.167" transform="translate(44.5 51.167)" fill="#454c53"/>
      <circle id="타원_11" data-name="타원 11" cx="1.167" cy="1.167" r="1.167" transform="translate(39.167 51.167)" fill="#454c53"/>
      <path id="패스_877" data-name="패스 877" d="M70.27,89.607a1.333,1.333,0,0,0-1.75.7.72.72,0,0,1-.65.436l-.308,0a1.333,1.333,0,0,0,.019,2.667h.02l.309,0a3.388,3.388,0,0,0,3.063-2.056A1.333,1.333,0,0,0,70.27,89.607Z" transform="translate(-24.746 -33.833)" fill="#454c53"/>
    </g>
  </g>
</svg>
