<svg xmlns="http://www.w3.org/2000/svg" xmlns:xlink="http://www.w3.org/1999/xlink" width="20" height="20" viewBox="0 0 20 20">
  <defs>
    <clipPath id="clip-path">
      <rect id="사각형_1089" data-name="사각형 1089" width="20" height="20" transform="translate(841 2986)" fill="#72787f" stroke="#707070" stroke-width="1"/>
    </clipPath>
  </defs>
  <g id="icon_like" transform="translate(-841 -2986)" clip-path="url(#clip-path)">
    <g id="Layer_2" data-name="Layer 2" transform="translate(841 2986.645)">
      <g id="Layer_28" data-name="Layer 28">
        <path id="패스_2490" data-name="패스 2490" d="M19.489,10.044A2,2,0,0,0,18,6.711H14.118a12.927,12.927,0,0,0,.548-3.378V2.667A2.67,2.67,0,0,0,12,0h-.667a.667.667,0,0,0-.647.5l-.363,1.453c-.509,2.035-2.124,4.28-3.8,4.688a2,2,0,0,0-1.86-1.268h-4A.667.667,0,0,0,0,6.044v12a.667.667,0,0,0,.667.667h4a2,2,0,0,0,1.805-1.14l2.291.763a7.317,7.317,0,0,0,2.319.376h5.585a2,2,0,0,0,1.86-2.737,2,2,0,0,0,.963-3.263A2,2,0,0,0,19.489,10.044ZM5.333,16.711a.667.667,0,0,1-.667.667H1.333V6.711H4.667a.667.667,0,0,1,.667.667Zm11.333-6H18a.667.667,0,1,1,0,1.333H16.667a.667.667,0,1,0,0,1.333H18a.667.667,0,1,1,0,1.333H16.667a.667.667,0,1,0,0,1.333.667.667,0,0,1,0,1.333H11.082a5.987,5.987,0,0,1-1.9-.308l-2.517-.839V7.981A5.372,5.372,0,0,0,9.66,6.036a9.706,9.706,0,0,0,1.956-3.755l.238-.948H12a1.333,1.333,0,0,1,1.333,1.333v.667A10.544,10.544,0,0,1,12.7,6.711H11.333a.667.667,0,1,0,0,1.333H18a.667.667,0,0,1,0,1.333H16.667a.667.667,0,1,0,0,1.333Z" fill="#72787f"/>
      </g>
    </g>
  </g>
</svg>
