<svg width="200" height="42" viewBox="0 0 200 42" fill="none" xmlns="http://www.w3.org/2000/svg">
<g clip-path="url(#clip0_3346_75093)">
<path d="M-0.00463867 12.6455V0.000244141H7.34774V19.1752C7.34774 19.4621 6.91321 19.5895 6.69417 19.3693L-0.00463867 12.6455Z" fill="white"/>
<path d="M18.3716 34.5836V0.000244141H11.0215V41.1145C11.0215 41.4002 11.4573 41.53 11.6763 41.3098L18.3716 34.5836Z" fill="white"/>
<path d="M30.6204 0.000244141H23.2715V41.4217H30.6204V0.000244141Z" fill="white"/>
<path d="M34.9501 0.113266C34.7287 -0.108163 34.2942 0.0216285 34.2942 0.307342V19.1538C34.2942 19.4407 34.7287 19.5681 34.9501 19.3478L41.6454 12.6228V6.83592L34.9501 0.113266Z" fill="white"/>
<path d="M34.9501 22.0727C34.7287 21.8513 34.2942 21.9811 34.2942 22.2668V41.1144C34.2942 41.4013 34.7287 41.5299 34.9501 41.3097L41.6454 34.5847V28.7966L34.9501 22.0727Z" fill="white"/>
<path d="M53.0001 6.83717V41.4217H45.6501V0.306187C45.6501 0.0204725 46.0847 -0.109291 46.3037 0.110947L53.0001 6.83717Z" fill="white"/>
<path d="M62.8013 6.83717L62.8739 41.4252H55.4525V0.306187C55.4525 0.0204725 55.887 -0.109291 56.1061 0.110947L62.8013 6.83717Z" fill="white"/>
<path d="M72.5978 6.83717V41.4217H65.249V0.306187C65.249 0.0204725 65.6835 -0.109291 65.9037 0.110947L72.5978 6.83717Z" fill="white"/>
<path d="M104.051 36.1135V38.4503H81.5596V36.1135H104.051ZM101.851 31.2753C99.9069 30.9103 98.0715 30.1063 96.4849 28.9246C94.8982 27.7428 93.6021 26.2147 92.6953 24.4564C91.7886 26.2146 90.4925 27.7428 88.9058 28.9245C87.3192 30.1061 85.4838 30.9102 83.5394 31.2753L82.3299 28.9373C87.2239 28.0302 91.2108 24.2086 91.2108 20.2765V18.4062H94.2073V20.2765C94.2073 24.236 98.1942 28.0576 103.088 28.9373L101.851 31.2753Z" fill="white"/>
<path d="M106.336 19.2312H117.967V35.4527H106.336V19.2312ZM109.141 33.1979H115.162V21.4848H109.141V33.1979ZM128.579 28.8538H124.707V41.6669H121.875V16.8123H124.707V26.5169H128.583L128.579 28.8538Z" fill="white"/>
<path d="M151.924 36.2787V38.5883H129.406V36.2787H151.924ZM149.394 32.2098H132.183V18.8193H149.207V21.1015H135.07V24.2908H148.652V26.518H135.07V29.9287H149.394V32.2098Z" fill="white"/>
<path d="M175.819 36.1135V38.4503H153.329V36.1135H175.819ZM173.619 31.2753C171.675 30.9102 169.839 30.1061 168.252 28.9245C166.667 27.7428 165.37 26.2146 164.463 24.4564C163.556 26.2147 162.261 27.7429 160.674 28.9246C159.087 30.1064 157.251 30.9103 155.307 31.2753L154.098 28.9373C158.992 28.0302 162.979 24.2086 162.979 20.2765V18.4062H165.971V20.2765C165.971 24.236 169.958 28.0576 174.852 28.9373L173.619 31.2753Z" fill="white"/>
<path d="M189.871 28.7443V30.9156H197.133V37.0467H182.641V39.136H197.983V41.3348H179.864V34.9894H194.326V33.1193H179.808V30.9205H187.039V28.749H177.277V26.4894H193.587C193.781 25.6287 193.919 24.7562 193.999 23.8777L179.757 24.4823L179.427 22.311L194.137 21.8978C194.164 21.2382 194.164 20.6062 194.164 19.9741H180.083V17.7466H196.938V19.7513C196.998 22.0086 196.821 24.266 196.416 26.4872H199.66V28.7418L189.871 28.7443Z" fill="white"/>
</g>
<defs>
<clipPath id="clip0_3346_75093">
<rect width="200" height="41.6667" fill="white"/>
</clipPath>
</defs>
</svg>
