<svg xmlns="http://www.w3.org/2000/svg" xmlns:xlink="http://www.w3.org/1999/xlink" width="40" height="40" viewBox="0 0 40 40">
  <defs>
    <clipPath id="clip-path">
      <rect id="사각형_998" data-name="사각형 998" width="40" height="40" transform="translate(991 579)" fill="#febe2a" stroke="#707070" stroke-width="1"/>
    </clipPath>
  </defs>
  <g id="ico_학급학생관리" transform="translate(-991 -579)" clip-path="url(#clip-path)">
    <path id="infection" d="M19.6,21.242c.132,0,.264.008.4.008a10.635,10.635,0,1,0-6.356-2.116A20.319,20.319,0,0,0,.1,34.275,4.747,4.747,0,0,0,4.742,40H19.453a1.563,1.563,0,0,0,0-3.125H4.742a1.588,1.588,0,0,1-1.25-.594,1.632,1.632,0,0,1-.331-1.369A17.263,17.263,0,0,1,19.6,21.242ZM12.5,10.625A7.5,7.5,0,1,1,20,18.2a7.508,7.508,0,0,1-7.5-7.573ZM31.875,30.313a1.563,1.563,0,1,1-1.562-1.562A1.562,1.562,0,0,1,31.875,30.313Zm6.881-1.53-2.042-.425a6.684,6.684,0,0,0-.493-1.189l.013-.021,1.11-1.795a1.562,1.562,0,0,0-2.218-2.107L33.455,24.4a6.685,6.685,0,0,0-1.188-.492l-.425-2.042a1.562,1.562,0,0,0-3.059,0l-.425,2.042a6.688,6.688,0,0,0-1.189.493l-1.775-1.175a1.562,1.562,0,0,0-2.165,2.165L24.4,27.169a6.683,6.683,0,0,0-.493,1.189l-2.042.425a1.563,1.563,0,0,0,0,3.059l2.042.425a6.688,6.688,0,0,0,.493,1.189l-1.175,1.775A1.562,1.562,0,0,0,25.394,37.4l1.775-1.175a6.683,6.683,0,0,0,1.189.493l.425,2.042a1.563,1.563,0,0,0,3.059,0l.425-2.042a6.688,6.688,0,0,0,1.187-.492l1.738,1.226a1.562,1.562,0,0,0,2.22-2.114l-1.188-1.873,0-.006a6.684,6.684,0,0,0,.493-1.189l2.042-.425a1.562,1.562,0,0,0,0-3.059Zm-5.03,2.569a3.548,3.548,0,0,1-.264.637,3.122,3.122,0,0,0-.349,1.123,3.124,3.124,0,0,0-1.123.349,3.542,3.542,0,0,1-.637.264,3.118,3.118,0,0,0-1.039.546,3.118,3.118,0,0,0-1.039-.546,3.548,3.548,0,0,1-.637-.264,3.118,3.118,0,0,0-1.123-.349,3.123,3.123,0,0,0-.349-1.123,3.542,3.542,0,0,1-.264-.637,3.118,3.118,0,0,0-.546-1.039,3.118,3.118,0,0,0,.546-1.039,3.548,3.548,0,0,1,.264-.637,3.118,3.118,0,0,0,.349-1.123,3.123,3.123,0,0,0,1.123-.349,3.542,3.542,0,0,1,.637-.264,3.118,3.118,0,0,0,1.039-.546,3.118,3.118,0,0,0,1.039.546,3.548,3.548,0,0,1,.637.264,3.122,3.122,0,0,0,1.123.349,3.122,3.122,0,0,0,.349,1.123,3.542,3.542,0,0,1,.264.637,3.118,3.118,0,0,0,.546,1.039A3.118,3.118,0,0,0,33.726,31.352Z" transform="translate(991 579)" fill="#febe2a"/>
  </g>
</svg>
