<svg width="24" height="24" viewBox="0 0 24 24" fill="none" xmlns="http://www.w3.org/2000/svg">
<path d="M22.0437 13.6429H13.8294V21.8571C13.8294 22.7607 13.0901 23.5 12.1865 23.5C11.283 23.5 10.5437 22.7607 10.5437 21.8571V13.6429H2.32938C1.42581 13.6429 0.686523 12.9036 0.686523 12C0.686523 11.0964 1.42581 10.3571 2.32938 10.3571H10.5437V2.14286C10.5437 1.23929 11.283 0.5 12.1865 0.5C13.0901 0.5 13.8294 1.23929 13.8294 2.14286V10.3571H22.0437C22.9472 10.3571 23.6865 11.0964 23.6865 12C23.6865 12.9036 22.9472 13.6429 22.0437 13.6429Z" fill="#203A63"/>
</svg>
