<svg xmlns="http://www.w3.org/2000/svg" width="467.894" height="462.915" viewBox="0 0 467.894 462.915">
  <g id="ico_" transform="translate(-8.099 170.225) rotate(-30)">
    <path id="패스_5151" data-name="패스 5151" d="M161.349,12.844a30,30,0,0,1,35.3,0L340.4,117.442a30,30,0,0,1,10.885,33.515l-54.925,169.3A30,30,0,0,1,267.821,341H90.179a30,30,0,0,1-28.536-20.742L6.718,150.957A30,30,0,0,1,17.6,117.442Z" fill="none"/>
    <path id="패스_5152" data-name="패스 5152" d="M179,61.836l-120.244,87.5L104.716,291H253.284l45.96-141.668L179,61.836M179,7.1a29.96,29.96,0,0,1,17.651,5.742L340.4,117.442a30,30,0,0,1,10.884,33.515l-54.925,169.3A30,30,0,0,1,267.821,341H90.178a30,30,0,0,1-28.536-20.742L6.718,150.957A30,30,0,0,1,17.6,117.442l143.747-104.6A29.96,29.96,0,0,1,179,7.1Z" fill="#ff5c5c"/>
  </g>
</svg>
