<svg width="163" height="42" viewBox="0 0 163 42" fill="none" xmlns="http://www.w3.org/2000/svg">
<path d="M102.084 1.86816C101.188 1.86816 100.459 2.60415 100.459 3.5084V38.8845C100.459 39.7891 101.188 40.5251 102.084 40.5251H104.137C105.033 40.5251 105.762 39.7891 105.762 38.8845V25.499C105.762 24.8274 106.303 24.2807 106.97 24.2807H107.4C108.296 24.2807 109.025 23.5447 109.025 22.6402V19.7527C109.025 18.8482 108.296 18.1125 107.4 18.1125H106.97C106.304 18.1125 105.762 17.5659 105.762 16.8942V3.5084C105.762 2.60415 105.033 1.86816 104.137 1.86816H102.084ZM84.5565 18.0663C82.099 18.0663 80.0997 20.0846 80.0997 22.5653V35.3114C80.0997 37.6991 82.2873 40.3697 85.2152 40.3697L95.6061 40.5251C96.4997 40.5251 97.2284 39.7891 97.2284 38.8845V35.9511C97.2284 35.0466 96.4997 34.3106 95.6041 34.3106H87.3184C86.2617 34.3106 85.402 33.4435 85.402 32.3777V26.2598C85.402 25.1938 86.2617 24.3267 87.3184 24.3267H94.8958C96.1819 24.3267 97.2284 23.2702 97.2284 21.9718V5.29525C97.2284 3.40539 95.7053 1.86816 93.8335 1.86816H84.5565C82.099 1.86816 80.0997 3.87771 80.0997 6.34757C80.0997 7.30421 80.8704 8.08233 81.8177 8.08233H90.0097C91.0664 8.08233 91.9258 8.94971 91.9258 10.0152V16.1331C91.9258 17.1989 91.0664 18.066 90.0097 18.066H84.5565V18.0663Z" fill="white"/>
<path d="M124.533 1.5188C117.01 1.5188 113.195 4.37904 113.195 10.0199V15.4615C113.195 21.1241 117.009 23.9952 124.533 23.9952C132.088 23.9952 135.919 21.1241 135.919 15.4615V10.0199C135.919 4.37904 132.088 1.5188 124.533 1.5188ZM129.509 14.6228C129.509 17.0731 127.793 18.3156 124.41 18.3156C121.063 18.3156 119.366 17.0731 119.366 14.6228V10.4899C119.366 8.05809 121.063 6.82521 124.41 6.82521C127.793 6.82521 129.509 8.05809 129.509 10.4899V14.6228Z" fill="white"/>
<path d="M54.652 30.4509C52.3655 30.4509 49.7583 33.1215 49.7583 35.4644V36.3634C49.7583 39.0592 50.869 40.3696 53.1535 40.3696H72.7344C73.63 40.3696 74.3587 39.6512 74.3587 38.7683V37.3706C74.3587 36.8577 73.5722 36.064 73.0639 36.064H55.9151C55.4441 36.064 55.0609 35.671 55.0609 35.1882C55.0609 34.688 55.4441 34.2953 55.9151 34.2953H72.3556C73.679 34.0911 74.3374 33.0864 74.3584 32.4725V25.4875C74.3584 24.5077 73.199 23.8865 72.7099 23.8865H53.1532C51.2814 23.8865 49.758 25.4761 49.758 27.4303C49.758 28.1312 50.3029 28.7012 50.9723 28.7012H68.2037C68.6733 28.7012 69.0559 29.0934 69.0559 29.5751C69.0559 30.0582 68.6727 30.4509 68.2017 30.4509H54.652Z" fill="white"/>
<path d="M51.2222 17.4751C49.4029 17.4751 47.9228 18.8953 47.9228 20.6406C47.9228 21.4983 48.6514 22.196 49.5471 22.196H75.749C76.4494 22.196 77.0194 21.6511 77.0194 20.9809V18.6902C77.0194 18.0203 76.4497 17.4751 75.749 17.4751H74.3342L74.3538 6.94485C74.3538 3.90844 72.2783 1.86816 69.1887 1.86816H53.9631C52.2296 1.86816 50.2139 3.78172 50.2139 6.24866C50.2139 6.67738 50.5697 7.02591 51.0071 7.02591H67.4512C68.3126 7.02591 69.0136 7.71624 69.0136 8.56489V9.0176C69.0136 9.69828 68.5087 10.0436 67.5127 10.0436H53.6091C51.737 10.0436 50.2139 11.5401 50.2139 13.3794C50.2139 13.9687 50.703 14.4484 51.3039 14.4484H67.4508C68.3123 14.4484 69.0133 15.1387 69.0133 15.9877V17.4751H51.2222Z" fill="white"/>
<path d="M141.409 35.1218C140.514 35.1218 139.785 35.8402 139.785 36.7231V38.7684C139.785 39.6512 140.514 40.3697 141.409 40.3697H160.876C161.771 40.3697 162.5 39.6512 162.5 38.7684V36.7231C162.5 35.8402 161.771 35.1218 160.876 35.1218H141.409ZM147.251 1.86816C143.427 1.86816 140.315 5.00144 140.315 8.85285V24.6758C140.315 27.2463 142.828 30.2342 146.067 30.2342H159.522C160.417 30.2342 161.146 29.5002 161.146 28.5977V25.5929C161.146 24.6907 160.417 23.9565 159.522 23.9565H148.192C147.135 23.9565 146.275 23.0912 146.275 22.0274V10.0749C146.275 9.01146 147.135 8.14613 148.192 8.14613H159.522C160.417 8.14613 161.146 7.4119 161.146 6.5097V3.50459C161.146 2.6021 160.417 1.86816 159.522 1.86816H147.251Z" fill="white"/>
<path d="M113.791 26.9678C112.896 26.9678 112.167 27.6862 112.167 28.5688V30.7299C112.167 31.6131 112.896 32.3312 113.791 32.3312H119.974C121.031 32.3312 121.891 33.1808 121.891 34.2249V38.8714C121.891 39.7543 122.62 40.4727 123.515 40.4727H125.658C126.554 40.4727 127.283 39.7543 127.283 38.8714V34.2249C127.283 33.1808 128.142 32.3312 129.199 32.3312H135.382C136.278 32.3312 137.007 31.6131 137.007 30.7299V28.5688C137.007 27.6862 136.278 26.9678 135.382 26.9678H113.791Z" fill="white"/>
<path d="M14.5823 34.9211L14.6319 34.9797L14.6322 34.9946C14.6448 38.8574 17.7186 42 21.4838 42C25.2621 42 28.3357 38.8475 28.3357 34.9723L28.3097 27.4003C28.305 26.0969 28.6806 25.6969 30.483 23.7754C32.2515 21.89 35.2109 18.7344 40.4545 12.0462L40.4674 12.0351C43.1324 9.30155 43.1324 4.84292 40.4598 2.10236C39.1649 0.774954 37.4446 0.0439453 35.6148 0.0439453C33.7847 0.0439453 32.0644 0.774954 30.7695 2.10236L22.507 12.1536C22.4912 12.1703 21.1059 13.639 18.8833 14.9243C16.8303 16.1115 13.6222 17.3813 9.99502 16.6904C9.99502 16.6904 9.95941 16.6836 9.89492 16.6711L9.87743 16.6675C9.81527 16.6553 9.75282 16.6427 9.69036 16.6289C8.91818 16.465 6.95823 15.9983 5.09489 15.1438C7.47448 18.0704 10.8492 22.0869 13.6485 24.9085C14.2415 25.507 14.5817 26.3389 14.5817 27.1914V34.9211H14.5823Z" fill="white"/>
<path d="M2.57815 12.1307C2.64294 12.2103 2.9873 12.63 3.06142 12.7186C3.17845 12.8585 3.28728 12.9864 3.37541 13.0853C3.38854 13.1002 3.43611 13.1432 3.48339 13.1851C3.50206 13.2015 3.5193 13.2164 3.53565 13.2305C5.96689 14.9371 9.60336 16.0161 12.0968 16.0161C15.6475 16.0161 18.6235 14.2576 20.4948 12.7827C20.5342 12.7517 20.5744 12.7186 20.6147 12.6859C20.6208 12.6809 20.7507 12.5589 20.8648 12.4623C20.7954 12.3959 20.7329 12.3323 20.683 12.2765C20.6395 12.2276 20.5916 12.1734 20.5449 12.1202C18.3621 9.64008 12.6787 2.58751 12.6787 2.58751C12.6752 2.58341 12.6655 2.57434 12.6533 2.56292C11.3955 0.997894 9.49073 0 7.35862 0C3.57066 0 0.5 3.14908 0.5 7.03355C0.5 8.76714 1.11433 10.3518 2.12844 11.5776C2.21511 11.6827 2.38525 11.8937 2.57815 12.1307Z" fill="white"/>
</svg>
