<svg id="ico_like2" xmlns="http://www.w3.org/2000/svg" xmlns:xlink="http://www.w3.org/1999/xlink" width="20" height="20" viewBox="0 0 20 20">
  <defs>
    <clipPath id="clip-path">
      <rect id="사각형_1083" data-name="사각형 1083" width="20" height="20" fill="#fff" stroke="#707070" stroke-width="1"/>
    </clipPath>
    <clipPath id="clip-path-2">
      <rect id="사각형_1084" data-name="사각형 1084" width="20" height="20" fill="#72787f" stroke="#707070" stroke-width="1"/>
    </clipPath>
  </defs>
  <g id="마스크_그룹_162" data-name="마스크 그룹 162" clip-path="url(#clip-path)">
    <g id="like_6_" data-name="like (6)" transform="translate(0 1.245)">
      <path id="패스_2482" data-name="패스 2482" d="M17.891,12.865a1.337,1.337,0,0,0-1.333-1.333,1.333,1.333,0,1,0,0-2.667H11.091a11.814,11.814,0,0,0,.8-4.756,1.994,1.994,0,0,0-1.333-1.88,1.848,1.848,0,0,0-.667-.12h-.4a.689.689,0,0,0-.64.507L8.477,4.069c-.56,2.173-2.36,4.8-4.587,4.8V18.2l2.973.987a6.646,6.646,0,0,0,2.107.347h6.253a1.333,1.333,0,0,0,0-2.667h1.333a1.333,1.333,0,1,0,0-2.667A1.337,1.337,0,0,0,17.891,12.865Z" transform="translate(2.109 -2.109)" fill="#f2f3f7"/>
      <path id="패스_2483" data-name="패스 2483" d="M12.388,19.532a1.333,1.333,0,0,0,0-2.667h1.333a1.333,1.333,0,1,0,0-2.667,1.333,1.333,0,0,0,0-2.667,1.333,1.333,0,1,0,0-2.667H8.255a11.814,11.814,0,0,0,.8-4.756,1.994,1.994,0,0,0-1.333-1.88,1.848,1.848,0,0,0-.667-.12V19.532Z" transform="translate(4.945 -2.109)" fill="#f2f3f7"/>
      <g id="그룹_1148" data-name="그룹 1148" transform="translate(0 5.422)">
        <path id="패스_2484" data-name="패스 2484" d="M5.393,17.544h-4a.648.648,0,0,1-.667-.629V5.6a.648.648,0,0,1,.667-.629h4a1.948,1.948,0,0,1,2,1.886v8.8A1.948,1.948,0,0,1,5.393,17.544Z" transform="translate(-0.727 -4.969)" fill="#157fce"/>
        <circle id="타원_469" data-name="타원 469" cx="0.667" cy="0.667" r="0.667" transform="translate(2.667 8.743)" fill="#157fce"/>
      </g>
    </g>
  </g>
  <g id="icon_like" clip-path="url(#clip-path-2)">
    <g id="Layer_2" data-name="Layer 2" transform="translate(0 0.645)">
      <g id="Layer_28" data-name="Layer 28">
        <path id="패스_2485" data-name="패스 2485" d="M19.489,10.044A2,2,0,0,0,18,6.711H14.118a12.927,12.927,0,0,0,.548-3.378V2.667A2.67,2.67,0,0,0,12,0h-.667a.667.667,0,0,0-.647.5l-.363,1.453c-.509,2.035-2.124,4.28-3.8,4.688a2,2,0,0,0-1.86-1.268h-4A.667.667,0,0,0,0,6.044v12a.667.667,0,0,0,.667.667h4a2,2,0,0,0,1.805-1.14l2.291.763a7.317,7.317,0,0,0,2.319.376h5.585a2,2,0,0,0,1.86-2.737,2,2,0,0,0,.963-3.263,2,2,0,0,0,0-2.667ZM5.333,16.711a.667.667,0,0,1-.667.667H1.333V6.711H4.667a.667.667,0,0,1,.667.667Zm11.333-6H18a.667.667,0,1,1,0,1.333H16.667a.667.667,0,0,0,0,1.333H18a.667.667,0,1,1,0,1.333H16.667a.667.667,0,1,0,0,1.333.667.667,0,0,1,0,1.333H11.082a5.987,5.987,0,0,1-1.9-.308l-2.517-.839V7.981A5.372,5.372,0,0,0,9.66,6.036a9.706,9.706,0,0,0,1.956-3.755l.238-.948H12a1.333,1.333,0,0,1,1.333,1.333v.667A10.544,10.544,0,0,1,12.7,6.711H11.333a.667.667,0,1,0,0,1.333H18a.667.667,0,1,1,0,1.333H16.667a.667.667,0,0,0,0,1.333Z" fill="#72787f"/>
      </g>
    </g>
  </g>
</svg>
