<svg xmlns="http://www.w3.org/2000/svg" width="22.996" height="22.996" viewBox="0 0 22.996 22.996">
  <g id="그룹_996" data-name="그룹 996" transform="translate(-116.097 -13.408)">
    <g id="그룹_992" data-name="그룹 992" transform="translate(116.097 13.408)">
      <g id="그룹_991" data-name="그룹 991">
        <circle id="타원_449" data-name="타원 449" cx="11.498" cy="11.498" r="11.498" transform="translate(0 22.996) rotate(-90)" fill="#fdc42d"/>
        <g id="그룹_990" data-name="그룹 990" transform="translate(2.071 3.526)">
          <path id="패스_2337" data-name="패스 2337" d="M135.65,16.56a11.49,11.49,0,0,1-17.7,14.544,11.492,11.492,0,1,0,17.7-14.544Z" transform="translate(-117.948 -16.56)" fill="#fdb431"/>
        </g>
        <path id="패스_2338" data-name="패스 2338" d="M118.518,19.263a8.625,8.625,0,0,1,4.1-3.965" transform="translate(-115.809 -13.183)" fill="none" stroke="#fff" stroke-linecap="round" stroke-linejoin="round" stroke-width="0.5"/>
      </g>
    </g>
    <g id="그룹_994" data-name="그룹 994" transform="translate(130.688 24.085)">
      <g id="그룹_993" data-name="그룹 993" transform="translate(0 0)">
        <path id="패스_2339" data-name="패스 2339" d="M132.354,24.1a1.827,1.827,0,0,0-.083-.182,1.59,1.59,0,0,0-.285-.409,1.63,1.63,0,0,0-.531-.4,1.551,1.551,0,0,0-.342-.12,2.248,2.248,0,0,0-.368-.043,1.745,1.745,0,0,0-1.237.555,1.549,1.549,0,0,0-.368.6A4.235,4.235,0,0,1,132.354,24.1Z" transform="translate(-129.138 -22.951)" fill="#403d3c"/>
      </g>
    </g>
    <path id="패스_2340" data-name="패스 2340" d="M121.934,27.858s4.758,4.163,9.582,0" transform="translate(0.694 1.717)" fill="none" stroke="#403d3c" stroke-linecap="round" stroke-linejoin="round" stroke-width="0.75"/>
    <g id="그룹_995" data-name="그룹 995" transform="translate(120.106 21.381)">
      <circle id="타원_450" data-name="타원 450" cx="3.172" cy="3.172" r="3.172" fill="#fff"/>
      <circle id="타원_451" data-name="타원 451" cx="1.178" cy="1.178" r="1.178" transform="translate(1.994 1.994)" fill="#403d3c"/>
    </g>
  </g>
</svg>
