<svg xmlns="http://www.w3.org/2000/svg" width="569.327" height="480.439" viewBox="0 0 569.327 480.439">
  <g id="그룹_4502" data-name="그룹 4502" transform="translate(196 -46.876)">
    <g id="ico_" transform="translate(-196 232) rotate(-30)" fill="none">
      <path d="M161.349,12.844a30,30,0,0,1,35.3,0L340.4,117.442a30,30,0,0,1,10.885,33.515l-54.925,169.3A30,30,0,0,1,267.821,341H90.179a30,30,0,0,1-28.536-20.742L6.718,150.957A30,30,0,0,1,17.6,117.442Z" stroke="none"/>
      <path d="M 178.9999389648438 61.83612060546875 L 58.75607299804688 149.332275390625 L 104.71630859375 291 L 253.2836761474609 291 L 299.2439575195312 149.3323059082031 L 178.9999389648438 61.83612060546875 M 178.9999542236328 7.1016845703125 C 185.1950378417969 7.1016845703125 191.39013671875 9.01580810546875 196.6511840820312 12.843994140625 L 340.3975830078125 117.44189453125 C 350.8961791992188 125.0811920166016 355.2888793945312 138.6071929931641 351.2821960449219 150.9572906494141 L 296.3572998046875 320.2576904296875 C 292.3450927734375 332.6249084472656 280.8233032226562 341 267.8214721679688 341 L 90.17849731445312 341 C 77.17678833007812 341 65.65487670898438 332.6249084472656 61.64266967773438 320.2576904296875 L 6.7177734375 150.9572906494141 C 2.711090087890625 138.6071929931641 7.1038818359375 125.081298828125 17.60238647460938 117.44189453125 L 161.3487854003906 12.843994140625 C 166.6097869873047 9.01580810546875 172.8048553466797 7.1016845703125 178.9999542236328 7.1016845703125 Z" stroke="none" fill="#ffe53b"/>
    </g>
    <g id="ico_2" data-name="ico_" transform="translate(186.672 118.85) rotate(-30)" fill="none">
      <path d="M36.515,61.083c15.8-27.222,55.115-27.222,70.917,0L108.2,62.4c15.867,27.333-3.854,61.584-35.459,61.584H71.208c-31.6,0-51.326-34.251-35.459-61.584Z" stroke="none"/>
      <path d="M 71.97371673583984 60.66634368896484 C 68.33821868896484 60.66634368896484 59.29088592529297 61.68531036376953 53.81201934814453 71.12344360351562 L 53.04631805419922 72.44248199462891 C 47.54498291015625 81.91934967041016 51.18765258789062 90.30044555664062 53.00911712646484 93.46394348144531 C 54.83058166503906 96.62744140625 60.25015258789062 103.9854125976562 71.20801544189453 103.9854125976562 L 72.73941802978516 103.9854125976562 C 83.69728088378906 103.9854125976562 89.11685180664062 96.62744140625 90.93831634521484 93.46394348144531 C 92.75978088378906 90.30044555664062 96.40245056152344 81.91934967041016 90.90111541748047 72.44248199462891 L 90.13545227050781 71.12348175048828 C 84.65655517578125 61.68531036376953 75.60921478271484 60.66634368896484 71.97371673583984 60.66634368896484 M 71.97371673583984 40.66636657714844 C 85.75244140625 40.66636657714844 99.53116607666016 47.47177886962891 107.4322814941406 61.08261108398438 L 108.1979827880859 62.40164947509766 C 124.0649490356445 89.73487854003906 104.3442535400391 123.9854125976562 72.73941802978516 123.9854125976562 L 71.20801544189453 123.9854125976562 C 39.60317993164062 123.9854125976562 19.88248443603516 89.73487854003906 35.74945068359375 62.40164947509766 L 36.51515197753906 61.08261108398438 C 44.41626739501953 47.47177886962891 58.19499206542969 40.66636657714844 71.97371673583984 40.66636657714844 Z" stroke="none" fill="#57d5de"/>
    </g>
  </g>
</svg>
