<svg xmlns="http://www.w3.org/2000/svg" xmlns:xlink="http://www.w3.org/1999/xlink" width="40" height="40" viewBox="0 0 40 40">
  <defs>
    <clipPath id="clip-path">
      <rect id="bg" width="40" height="40" transform="translate(600 537)" fill="#454c53"/>
    </clipPath>
  </defs>
  <g id="ico_" transform="translate(-600 -537)" clip-path="url(#clip-path)">
    <g id="Layer_2" transform="translate(597.524 536.968)">
      <path id="패스_5067" data-name="패스 5067" d="M28.838.032h-16.5A3.374,3.374,0,0,0,8.967,3.4V34.829a3.374,3.374,0,0,0,3.37,3.37H23.973a10.31,10.31,0,0,1-1.689-2.252H12.336a1.115,1.115,0,0,1-1.118-1.118V3.4a1.115,1.115,0,0,1,1.118-1.118h2.3V3.458A1.544,1.544,0,0,0,16.18,5h8.814a1.544,1.544,0,0,0,1.544-1.544V2.284h2.3A1.115,1.115,0,0,1,29.956,3.4V21.166a9.883,9.883,0,0,1,2.252,0V3.4A3.374,3.374,0,0,0,28.838.032ZM24.286,2.75h-7.4V2.284h7.4Z" fill="#454c53"/>
      <g id="그룹_4565" data-name="그룹 4565">
        <path id="패스_5068" data-name="패스 5068" d="M31.082,40.032a8.826,8.826,0,0,1-3.707-.812A8.97,8.97,0,0,1,24.1,36.647a8.8,8.8,0,0,1-1.922-5.517,8.912,8.912,0,0,1,7.616-8.806,9.2,9.2,0,0,1,2.573,0h0a8.9,8.9,0,0,1-1.287,17.708Zm0-15.545a6.5,6.5,0,0,0-.965.072,6.682,6.682,0,0,0-5.686,6.578,6.587,6.587,0,0,0,1.431,4.117,6.772,6.772,0,0,0,2.453,1.93,6.541,6.541,0,0,0,2.766.6,6.65,6.65,0,0,0,.965-13.229h0A6.5,6.5,0,0,0,31.082,24.487Z" fill="#454c53"/>
      </g>
      <path id="패스_5069" data-name="패스 5069" d="M30.261,34.411a1.133,1.133,0,0,1-.8-.33L26.787,31.4a1.126,1.126,0,0,1,1.592-1.592l1.882,1.882,3.514-3.514a1.126,1.126,0,1,1,1.592,1.592l-4.31,4.31A1.1,1.1,0,0,1,30.261,34.411Z" fill="#ff5c5c"/>
    </g>
  </g>
</svg>
