<svg xmlns="http://www.w3.org/2000/svg" xmlns:xlink="http://www.w3.org/1999/xlink" width="50" height="50" viewBox="0 0 50 50">
  <defs>
    <clipPath id="clip-path">
      <rect id="bg" width="50" height="50" transform="translate(1283 1188)" fill="#72787f" stroke="#c9cdd2" stroke-width="1"/>
    </clipPath>
  </defs>
  <g id="마스크_그룹_165" data-name="마스크 그룹 165" transform="translate(-1283 -1188)" clip-path="url(#clip-path)">
    <g id="Layer_2" transform="translate(1279.162 1187.95)">
      <path id="패스_5051" data-name="패스 5051" d="M36.063,10.907H14.3a1.366,1.366,0,0,1-1.365-1.365V9.251A1.366,1.366,0,0,1,14.3,7.887H36.063a1.366,1.366,0,0,1,1.365,1.365v.291A1.36,1.36,0,0,1,36.063,10.907Z" fill="#72787f"/>
      <path id="패스_5052" data-name="패스 5052" d="M33.674,19.426H14.228a1.3,1.3,0,0,1-1.294-1.294V17.7a1.3,1.3,0,0,1,1.294-1.294H33.664A1.3,1.3,0,0,1,34.959,17.7v.431A1.289,1.289,0,0,1,33.674,19.426Z" fill="#72787f"/>
      <path id="패스_5053" data-name="패스 5053" d="M28.9,27.935H14.078A1.133,1.133,0,0,1,12.944,26.8v-.732a1.133,1.133,0,0,1,1.134-1.134H28.9a1.133,1.133,0,0,1,1.134,1.134V26.8A1.133,1.133,0,0,1,28.9,27.935Z" fill="#72787f"/>
      <path id="패스_5054" data-name="패스 5054" d="M12.2,42.745a1.668,1.668,0,0,1-1.666-1.666V4.525A1.668,1.668,0,0,1,12.2,2.86H39.163a1.668,1.668,0,0,1,1.666,1.666V26.6a12.556,12.556,0,0,1,2.81.8V4.525A4.479,4.479,0,0,0,39.163.05H12.2A4.466,4.466,0,0,0,7.726,4.525V41.08A4.479,4.479,0,0,0,12.2,45.555H28.226a12.793,12.793,0,0,1-1.3-2.81Z" fill="#72787f"/>
      <path id="패스_5055" data-name="패스 5055" d="M38.842,50.05a11.142,11.142,0,0,1-8.118-3.532,11.069,11.069,0,0,1-2.99-7.566A11.119,11.119,0,0,1,38.842,27.845a10.935,10.935,0,0,1,2.288.241A11.1,11.1,0,0,1,38.842,50.05Zm0-19.406a8.3,8.3,0,0,0-7.636,11.549A8.432,8.432,0,0,0,32.771,44.6,8.295,8.295,0,1,0,42.946,31.738h0a8.284,8.284,0,0,0-2.4-.913A8.142,8.142,0,0,0,38.842,30.644Z" fill="#72787f"/>
      <path id="패스_5056" data-name="패스 5056" d="M42.866,36.6l-2.96-2.96a1.1,1.1,0,0,0-.11-.1.219.219,0,0,1-.05-.04c-.02-.02-.04-.03-.06-.05a.436.436,0,0,0-.07-.04.21.21,0,0,1-.06-.04c-.02-.01-.05-.02-.07-.03l-.06-.03a.145.145,0,0,0-.07-.02.186.186,0,0,0-.07-.02c-.02-.01-.05-.01-.07-.02s-.05-.01-.07-.02h-.01c-.02,0-.05-.01-.07-.01s-.04-.01-.07-.01c-.05,0-.1-.01-.151-.01h0a.759.759,0,0,0-.151.01c-.02,0-.04.01-.07.01s-.05.01-.07.01h-.01a.145.145,0,0,0-.07.02c-.02.01-.05.01-.07.02a.186.186,0,0,1-.07.02c-.02.01-.04.01-.06.02h-.01l-.06.03c-.02.01-.05.02-.07.03a.21.21,0,0,0-.06.04.436.436,0,0,1-.07.04.266.266,0,0,0-.06.05.219.219,0,0,0-.05.04.526.526,0,0,0-.11.1l-2.96,2.96a1.5,1.5,0,0,0,2.127,2.127l.391-.391v4.826a1.5,1.5,0,0,0,1.505,1.505h0a1.5,1.5,0,0,0,1.505-1.505V38.34l.391.391A1.5,1.5,0,0,0,42.866,36.6Z" fill="#72787f"/>
    </g>
  </g>
</svg>
