<svg id="ico_" xmlns="http://www.w3.org/2000/svg" width="30" height="30" viewBox="0 0 30 30">
  <rect id="bg" width="30" height="30" fill="#72787f" opacity="0"/>
  <path id="패스_4980" data-name="패스 4980" d="M142.063,420.234V419.08a2.372,2.372,0,0,0-2.371-2.371H114.434a2.371,2.371,0,0,0-2.371,2.371v17.425a2.37,2.37,0,0,0,2.371,2.37h25.258a2.37,2.37,0,0,0,2.371-2.37V424.048H114.089v-3.814Zm-9.007,9.549a2.925,2.925,0,0,1,1.634.5,2.942,2.942,0,1,1,0,4.892,2.942,2.942,0,1,1-1.634-5.388Zm-18.2,3.882h9.916v2h-9.916Z" transform="translate(-112.063 -412.709)" fill="#72787f"/>
</svg>
