<svg xmlns="http://www.w3.org/2000/svg" xmlns:xlink="http://www.w3.org/1999/xlink" width="18" height="18" viewBox="0 0 18 18">
  <defs>
    <clipPath id="clip-path">
      <rect id="사각형_534" data-name="사각형 534" width="18" height="18" fill="#454c53" stroke="#707070" stroke-width="1"/>
    </clipPath>
  </defs>
  <g id="icon_search" clip-path="url(#clip-path)">
    <g id="loupe_2_" data-name="loupe (2)">
      <g id="그룹_176" data-name="그룹 176">
        <g id="그룹_175" data-name="그룹 175">
          <path id="패스_779" data-name="패스 779" d="M7.927,0a7.927,7.927,0,1,0,7.927,7.927A7.936,7.936,0,0,0,7.927,0Zm0,14.39A6.463,6.463,0,1,1,14.39,7.927,6.471,6.471,0,0,1,7.927,14.39Z" fill="#454c53"/>
        </g>
      </g>
      <g id="그룹_178" data-name="그룹 178" transform="translate(12.341 12.341)">
        <g id="그룹_177" data-name="그룹 177">
          <path id="패스_780" data-name="패스 780" d="M26.013,24.979l-4.2-4.2a.732.732,0,0,0-1.035,1.035l4.2,4.2a.732.732,0,1,0,1.035-1.035Z" transform="translate(-20.569 -20.569)" fill="#454c53"/>
        </g>
      </g>
    </g>
  </g>
</svg>
