<svg xmlns="http://www.w3.org/2000/svg" xmlns:xlink="http://www.w3.org/1999/xlink" width="109" height="109" viewBox="0 0 109 109">
  <defs>
    <clipPath id="clip-path">
      <rect id="사각형_1018" data-name="사각형 1018" width="50" height="50" transform="translate(889 458)" fill="#ff5c5c"/>
    </clipPath>
  </defs>
  <g id="그룹_4524" data-name="그룹 4524" transform="translate(-859 -428)">
    <g id="bg" transform="translate(859 428)" fill="#fff" stroke="#ff5c5c" stroke-width="1">
      <rect width="109" height="109" rx="54.5" stroke="none"/>
      <rect x="0.5" y="0.5" width="108" height="108" rx="54" fill="none"/>
    </g>
    <g id="cio_lock" clip-path="url(#clip-path)">
      <g id="padlock" transform="translate(889 458)">
        <path id="패스_4950" data-name="패스 4950" d="M39.063,50H10.938A4.693,4.693,0,0,1,6.25,45.313V23.438a4.693,4.693,0,0,1,4.688-4.687H39.063a4.693,4.693,0,0,1,4.688,4.688V45.313A4.693,4.693,0,0,1,39.063,50ZM10.938,21.875a1.564,1.564,0,0,0-1.562,1.563V45.313a1.564,1.564,0,0,0,1.563,1.563H39.063a1.564,1.564,0,0,0,1.563-1.562V23.438a1.564,1.564,0,0,0-1.562-1.562Z" fill="#ff5c5c"/>
        <path id="패스_4951" data-name="패스 4951" d="M35.938,21.875a1.563,1.563,0,0,1-1.562-1.562V12.5a9.375,9.375,0,0,0-18.75,0v7.813a1.562,1.562,0,1,1-3.125,0V12.5a12.5,12.5,0,0,1,25,0v7.813A1.563,1.563,0,0,1,35.938,21.875Z" fill="#ff5c5c"/>
        <path id="패스_4952" data-name="패스 4952" d="M25,35.417a4.167,4.167,0,1,1,4.167-4.167A4.171,4.171,0,0,1,25,35.417Zm0-5.208a1.042,1.042,0,1,0,1.042,1.042A1.043,1.043,0,0,0,25,30.208Z" fill="#ff5c5c"/>
        <path id="패스_4953" data-name="패스 4953" d="M25,41.667A1.563,1.563,0,0,1,23.438,40.1V34.375a1.562,1.562,0,1,1,3.125,0V40.1A1.563,1.563,0,0,1,25,41.667Z" fill="#ff5c5c"/>
      </g>
    </g>
  </g>
</svg>
