<svg id="ico_" xmlns="http://www.w3.org/2000/svg" width="100" height="100" viewBox="0 0 100 100">
  <rect id="사각형_1232" data-name="사각형 1232" width="100" height="100" fill="#fff" opacity="0"/>
  <g id="그룹_4570" data-name="그룹 4570" transform="translate(-1192.754 -514.967)">
    <g id="그룹_4569" data-name="그룹 4569">
      <path id="패스_4973" data-name="패스 4973" d="M1273.077,605.916a3.878,3.878,0,0,1-3.878-3.878V522.511a3.878,3.878,0,1,1,7.756,0v79.527A3.878,3.878,0,0,1,1273.077,605.916Z" fill="#ffadad"/>
      <path id="패스_4974" data-name="패스 4974" d="M1212.431,605.916a3.878,3.878,0,0,1-3.878-3.878V522.014a3.878,3.878,0,1,1,7.756,0v80.024A3.878,3.878,0,0,1,1212.431,605.916Z" fill="#ffadad"/>
      <path id="패스_4975" data-name="패스 4975" d="M1266.719,609.845a3.872,3.872,0,0,1-1.993-.551l-4.007-2.4-4,2.4a3.88,3.88,0,0,1-3.992,0l-3.995-2.4-3.995,2.4a3.879,3.879,0,0,1-3.991,0l-4-2.4-3.995,2.4a3.879,3.879,0,0,1-3.991,0l-4-2.4-3.993,2.4a3.879,3.879,0,0,1-3.994,0l-5.986-3.6a3.878,3.878,0,0,1,3.993-6.648l3.99,2.4,3.993-2.4a3.88,3.88,0,0,1,3.992,0l4,2.4,3.994-2.4a3.88,3.88,0,0,1,3.992,0l4,2.4,4-2.4a3.882,3.882,0,0,1,3.993,0l3.995,2.4,4-2.4a3.877,3.877,0,0,1,3.989,0l4.008,2.4,4.01-2.4a3.879,3.879,0,0,1,3.987,6.654l-6,3.6A3.875,3.875,0,0,1,1266.719,609.845Z" fill="#ffadad"/>
      <path id="패스_4976" data-name="패스 4976" d="M1258.619,544.056H1226.89a3.878,3.878,0,1,1,0-7.756h31.729a3.878,3.878,0,0,1,0,7.756Z" fill="#ffadad"/>
      <path id="패스_4977" data-name="패스 4977" d="M1258.619,561.121H1226.89a3.878,3.878,0,1,1,0-7.756h31.729a3.878,3.878,0,0,1,0,7.756Z" fill="#ffadad"/>
      <path id="패스_4978" data-name="패스 4978" d="M1258.619,578.186H1226.89a3.878,3.878,0,1,1,0-7.756h31.729a3.878,3.878,0,0,1,0,7.756Z" fill="#ffadad"/>
    </g>
    <path id="패스_4979" data-name="패스 4979" d="M1281.411,537.656H1276.8V529.9h4.613a3.588,3.588,0,0,0,0-7.176H1204.1a3.588,3.588,0,1,0,0,7.176h4.63v7.757h-4.63a11.345,11.345,0,1,1,0-22.689h77.312a11.345,11.345,0,0,1,0,22.689Z" fill="#ff5c5c"/>
  </g>
</svg>
