<svg xmlns="http://www.w3.org/2000/svg" width="467.778" height="430.541" viewBox="0 0 467.778 430.541">
  <g id="다각형_15" data-name="다각형 15" transform="matrix(0.966, -0.259, 0.259, 0.966, 0, 101.733)" fill="none">
    <path d="M277.481,0a30,30,0,0,1,25.981,15l80.947,140.2a30,30,0,0,1,0,30l-80.947,140.2a30,30,0,0,1-25.981,15H115.588a30,30,0,0,1-25.981-15L8.66,185.2a30,30,0,0,1,0-30L89.607,15A30,30,0,0,1,115.588,0Z" stroke="none"/>
    <path d="M 127.1345520019531 49.99996948242188 L 57.73501586914062 170.2034454345703 L 127.1344909667969 290.406982421875 L 265.9335327148438 290.406982421875 L 335.3330688476562 170.2035064697266 L 265.93359375 49.99996948242188 L 127.1345520019531 49.99996948242188 M 115.5875549316406 -3.0517578125e-05 L 277.4805297851562 -3.0517578125e-05 C 288.1985473632812 -3.0517578125e-05 298.1023559570312 5.717987060546875 303.4613342285156 14.99996948242188 L 384.4078369140625 155.2034759521484 C 389.766845703125 164.4854736328125 389.766845703125 175.9214782714844 384.4078369140625 185.2034759521484 L 303.4613342285156 325.406982421875 C 298.1023559570312 334.68896484375 288.1985473632812 340.406982421875 277.4805297851562 340.406982421875 L 115.5874328613281 340.406982421875 C 104.8695373535156 340.406982421875 94.96572875976562 334.68896484375 89.60675048828125 325.406982421875 L 8.660247802734375 185.2034759521484 C 3.301239013671875 175.9214782714844 3.301239013671875 164.4854736328125 8.660247802734375 155.2034759521484 L 89.60675048828125 14.99996948242188 C 94.96572875976562 5.717987060546875 104.86962890625 -3.0517578125e-05 115.5875549316406 -3.0517578125e-05 Z" stroke="none" fill="#afe4ff"/>
  </g>
</svg>
