<svg width="24" height="24" viewBox="0 0 24 24" fill="none" xmlns="http://www.w3.org/2000/svg">
<path d="M21.6631 13.6429H13.4488V21.8571C13.4488 22.7607 12.7095 23.5 11.8059 23.5C10.9023 23.5 10.1631 22.7607 10.1631 21.8571V13.6429H1.94877C1.04519 13.6429 0.305908 12.9036 0.305908 12C0.305908 11.0964 1.04519 10.3571 1.94877 10.3571H10.1631V2.14286C10.1631 1.23929 10.9023 0.5 11.8059 0.5C12.7095 0.5 13.4488 1.23929 13.4488 2.14286V10.3571H21.6631C22.5666 10.3571 23.3059 11.0964 23.3059 12C23.3059 12.9036 22.5666 13.6429 21.6631 13.6429Z" fill="#FF6652"/>
</svg>
