<svg xmlns="http://www.w3.org/2000/svg" xmlns:xlink="http://www.w3.org/1999/xlink" width="109" height="109" viewBox="0 0 109 109">
  <defs>
    <clipPath id="clip-path">
      <rect id="사각형_1019" data-name="사각형 1019" width="50" height="50" transform="translate(889 458)" fill="#72787f"/>
    </clipPath>
  </defs>
  <g id="그룹_4525" data-name="그룹 4525" transform="translate(-859 -428)">
    <g id="bg" transform="translate(859 428)" fill="#f7f8f9" stroke="#c9cdd2" stroke-width="1">
      <rect width="109" height="109" rx="54.5" stroke="none"/>
      <rect x="0.5" y="0.5" width="108" height="108" rx="54" fill="none"/>
    </g>
    <g id="ico" transform="translate(3 1)" clip-path="url(#clip-path)">
      <g id="certificate" transform="translate(889 458)">
        <path id="패스_4954" data-name="패스 4954" d="M10.872,11.522h7.843v2.93H10.872Z" fill="#72787f"/>
        <path id="패스_4955" data-name="패스 4955" d="M10.872,17.479H26.456v2.93H10.872Z" fill="#72787f"/>
        <path id="패스_4956" data-name="패스 4956" d="M10.872,23.436H26.456v2.93H10.872Z" fill="#72787f"/>
        <path id="패스_4957" data-name="패스 4957" d="M10.872,29.394H26.456v2.93H10.872Z" fill="#72787f"/>
        <path id="패스_4958" data-name="패스 4958" d="M47.632,11.4a11.4,11.4,0,0,0-19.494-8.03H2.368L2.5,39.814A10.2,10.2,0,0,0,12.684,50h25.2V33.87l4.064,2.311V21.266A11.411,11.411,0,0,0,47.632,11.4ZM5.539,41.062a5.4,5.4,0,0,0,2.391.552h3.149v2.865A5.48,5.48,0,0,0,11.692,47,7.271,7.271,0,0,1,5.539,41.062ZM16.606,47.07a2.6,2.6,0,0,1-2.6-2.591V38.685H7.93a2.445,2.445,0,0,1-1.756-.727,2.635,2.635,0,0,1-.745-1.907L5.308,6.3H26.031a11.4,11.4,0,0,0,4.863,15.177v14.7l4.064-2.31v13.2ZM39.021,31.145l-2.6-1.477-2.6,1.478V22.552a11.427,11.427,0,0,0,5.2-.09v8.683ZM36.228,19.879A8.475,8.475,0,1,1,44.7,11.4,8.484,8.484,0,0,1,36.228,19.879Z" fill="#72787f"/>
        <path id="패스_4959" data-name="패스 4959" d="M36.228,5.847A5.557,5.557,0,1,0,41.786,11.4,5.564,5.564,0,0,0,36.228,5.847Zm0,8.185A2.628,2.628,0,1,1,38.856,11.4,2.631,2.631,0,0,1,36.228,14.032Z" fill="#72787f"/>
      </g>
    </g>
  </g>
</svg>
