<svg xmlns="http://www.w3.org/2000/svg" width="480.537" height="474.315" viewBox="0 0 480.537 474.315">
  <g id="ico_" transform="translate(0 179) rotate(-30)" fill="none">
    <path d="M161.349,12.844a30,30,0,0,1,35.3,0L340.4,117.442a30,30,0,0,1,10.885,33.515l-54.925,169.3A30,30,0,0,1,267.821,341H90.179a30,30,0,0,1-28.536-20.742L6.718,150.957A30,30,0,0,1,17.6,117.442Z" stroke="none"/>
    <path d="M 178.9999389648438 61.83612060546875 L 58.75607299804688 149.332275390625 L 104.71630859375 291 L 253.2836761474609 291 L 299.2439575195312 149.3323059082031 L 178.9999389648438 61.83612060546875 M 178.9999542236328 7.1016845703125 C 185.1950378417969 7.1016845703125 191.39013671875 9.01580810546875 196.6511840820312 12.843994140625 L 340.3975830078125 117.44189453125 C 350.8961791992188 125.0811920166016 355.2888793945312 138.6071929931641 351.2821960449219 150.9572906494141 L 296.3572998046875 320.2576904296875 C 292.3450927734375 332.6249084472656 280.8233032226562 341 267.8214721679688 341 L 90.17849731445312 341 C 77.17678833007812 341 65.65487670898438 332.6249084472656 61.64266967773438 320.2576904296875 L 6.7177734375 150.9572906494141 C 2.711090087890625 138.6071929931641 7.1038818359375 125.081298828125 17.60238647460938 117.44189453125 L 161.3487854003906 12.843994140625 C 166.6097869873047 9.01580810546875 172.8048553466797 7.1016845703125 178.9999542236328 7.1016845703125 Z" stroke="none" fill="#ffe53b"/>
  </g>
</svg>
