<svg xmlns="http://www.w3.org/2000/svg" xmlns:xlink="http://www.w3.org/1999/xlink" width="80" height="80" viewBox="0 0 80 80">
  <defs>
    <clipPath id="clip-path">
      <rect id="사각형_577" data-name="사각형 577" width="80" height="80" transform="translate(606 481)" fill="#fff"/>
    </clipPath>
  </defs>
  <g id="마스크_그룹_10" data-name="마스크 그룹 10" transform="translate(-606 -481)" clip-path="url(#clip-path)">
    <g id="Outline" transform="translate(603.333 478.333)">
      <path id="패스_953" data-name="패스 953" d="M38,22.667a2,2,0,1,0,2,2A2,2,0,0,0,38,22.667Z" fill="#fff"/>
      <path id="패스_954" data-name="패스 954" d="M50,22.667a2,2,0,1,0,2,2A2,2,0,0,0,50,22.667Z" fill="#fff"/>
      <path id="패스_955" data-name="패스 955" d="M44,30.667a1.335,1.335,0,0,1-1.333-1.333H40a4,4,0,1,0,8,0H45.333A1.335,1.335,0,0,1,44,30.667Z" fill="#fff"/>
      <path id="패스_956" data-name="패스 956" d="M82.2,50.983a1.335,1.335,0,0,0-1.081-.3L69.06,52.694a6.067,6.067,0,0,0-2.233.846l-.919-2.32a8.881,8.881,0,0,0-1.53-2.554l.348-3.153a23.1,23.1,0,0,0,.141-2.419A21.761,21.761,0,0,0,63.092,34.5a19.259,19.259,0,0,1-1.521-8.517l.227-4.615c.014-.291.028-.592.028-.89a17.823,17.823,0,1,0-35.624.891l.226,4.6c.013.344.026.668.026.989A19.008,19.008,0,0,1,24.908,34.5a21.787,21.787,0,0,0-1.633,11.02l.347,3.109a9.052,9.052,0,0,0-1.056,1.527l-1.82-4.55a3.927,3.927,0,1,0-7.159,3.215l.256.51H11.222a6.7,6.7,0,0,1-2.98-.7l-1.33-.664a2.933,2.933,0,0,0-4.245,2.624v3.763a3.978,3.978,0,0,0,2.211,3.578l2.17,1.085A9.381,9.381,0,0,0,11.222,60H12v3.949L11.042,76.4a5.821,5.821,0,0,0,5.8,6.267q.148,0,.294-.007c.085,0,.17.007.254.007a5.367,5.367,0,0,0,5.042-3.527l6.086-11.315a11.662,11.662,0,0,0,2.144,4.642v10.2h2.667V72a1.333,1.333,0,0,0-.309-.853,9.091,9.091,0,0,1,1.163-12.789l-1.7-2.049A11.753,11.753,0,0,0,30.823,58a1.372,1.372,0,0,0-.138.167h0l-.024.042c-.006.009-.011.02-.017.029a11.676,11.676,0,0,0-1.733,3.24L22.667,73.083v-16.2l1.9-4.718a6.391,6.391,0,0,1,1.4-2.152A6.748,6.748,0,0,1,30.747,48h4.462L42.83,61.972a1.333,1.333,0,0,0,2.341,0L48,56.784V74.667a1.333,1.333,0,0,0,1.072,1.308l5.6,1.119v5.573h2.667v-5.04l5.1,1.019c.033.006.188.021.232.021h2.522l.256.477A5.4,5.4,0,0,0,70.5,82.667a5.02,5.02,0,0,0,.879-.073,5.4,5.4,0,0,0,4.173-3.481l3.546-.591h0a2.656,2.656,0,0,0,2.222-2.494l.267-.053a1.333,1.333,0,0,0,1.073-1.307V52a1.333,1.333,0,0,0-.465-1.017ZM38.1,47.724A3.2,3.2,0,0,0,40,44.8V40.72a13.34,13.34,0,0,0,8,0V44.8a3.2,3.2,0,0,0,1.9,2.924l-1.6,2.943H39.7ZM44,38.667A10.679,10.679,0,0,1,33.333,28V22.031A19.478,19.478,0,0,0,39.1,15.424,34.537,34.537,0,0,0,54.667,22.47V28A10.679,10.679,0,0,1,44,38.667Zm18.019,11.37.025.025A6.179,6.179,0,0,1,63.427,52.2L64,53.644a6.065,6.065,0,0,0-2.393-.95L51.179,50.956,52.791,48H57.24a6.606,6.606,0,0,1,4.779,2.037Zm.779,7.3L56.732,56.12l-6.067-1.213V53.573l10.5,1.75a3.377,3.377,0,0,1,2.562,2.01Zm6.7-2.009L80,53.574v1.333l-6.271,1.254-5.861,1.172h-.931A3.377,3.377,0,0,1,69.5,55.324ZM8.24,56.629,6.07,55.544a1.326,1.326,0,0,1-.737-1.193V50.589a.267.267,0,0,1,.386-.238l1.329.664A9.381,9.381,0,0,0,11.222,52H16a1.333,1.333,0,0,0,1.192-1.93l-1.22-2.441a1.26,1.26,0,0,1,.821-1.786h0a1.265,1.265,0,0,1,1.476.755L20,50.923v6.41H11.222a6.7,6.7,0,0,1-2.98-.7ZM20,60v2.667H14.667V60ZM13.7,76.6l.867-11.271H20V76.846a3.156,3.156,0,0,1-2.926,3.143,1.364,1.364,0,0,0-.15.007h-.078A3.154,3.154,0,0,1,13.7,76.6ZM30.688,58.168q.04-.052.085-.1l-.081.1Zm-4.61-11.575-.153-1.37a19.117,19.117,0,0,1,1.433-9.67A21.658,21.658,0,0,0,29.12,26.96c0-.372-.014-.738-.028-1.105l-.227-4.614a15.157,15.157,0,1,1,30.3-.761c0,.235-.012.492-.025.761l-.227,4.61a21.935,21.935,0,0,0,1.732,9.7,19.109,19.109,0,0,1,1.56,7.542,20.428,20.428,0,0,1-.125,2.133L61.923,46.6a9.325,9.325,0,0,0-4.683-1.267H51.2a.541.541,0,0,1-.533-.533V39.54A13.338,13.338,0,0,0,57.333,28V21.333a1.333,1.333,0,0,0-1.145-1.32A31.879,31.879,0,0,1,40.277,12.94l-.757-.631a1.333,1.333,0,0,0-2.046.428l-.517,1.033a16.8,16.8,0,0,1-5.7,6.453,1.333,1.333,0,0,0-.594,1.109V28A13.338,13.338,0,0,0,37.33,39.539V44.8a.541.541,0,0,1-.533.533h-6.05a9.393,9.393,0,0,0-4.669,1.26ZM44,58.549l-2.845-5.215h5.69Zm6.667-.922L61.333,59.76V75.707L50.667,73.573ZM64,60h2.667V76H64Zm6.928,19.967a2.385,2.385,0,0,1-.421.033,2.732,2.732,0,0,1-2.35-1.343l.075-.011h.039l2.741-.548a2.632,2.632,0,0,0,1.343,1.169,2.78,2.78,0,0,1-1.428.707Zm7.739-4.076h0l-5.333.889V71.824a.4.4,0,0,1,.336-.4l4.529-.755a.437.437,0,0,1,.068-.006.4.4,0,0,1,.4.4v4.821Zm-.907-7.849-4.529.755a3.06,3.06,0,0,0-2.564,3.027v3.617l-1.333.267V59.76L80,57.626V68.54a3.06,3.06,0,0,0-2.24-.5Z" fill="#fff"/>
    </g>
  </g>
</svg>
