<svg xmlns="http://www.w3.org/2000/svg" width="40" height="40" viewBox="0 0 40 40">
  <g id="ico_kakao" transform="translate(-820 -1015)">
    <circle id="타원_4" data-name="타원 4" cx="20" cy="20" r="20" transform="translate(820 1015)" fill="#fae300"/>
    <path id="패스_897" data-name="패스 897" d="M40.017,34C34.5,34,30,37.553,30,41.919c0,2.843,1.9,5.347,4.738,6.734-.2.778-.744,2.843-.88,3.283-.135.541.2.541.406.406.169-.1,2.741-1.861,3.858-2.606a11.211,11.211,0,0,0,1.861.135C45.5,49.871,50,46.318,50,41.953c.034-4.4-4.433-7.953-9.983-7.953" transform="translate(800 992)" fill="#391b1b"/>
  </g>
</svg>
