<svg xmlns="http://www.w3.org/2000/svg" width="22.996" height="22.996" viewBox="0 0 22.996 22.996">
  <g id="그룹_1012" data-name="그룹 1012" transform="translate(-40.26 -116.729)">
    <g id="그룹_1006" data-name="그룹 1006" transform="translate(40.26 116.729)">
      <g id="그룹_1005" data-name="그룹 1005" transform="translate(0 0)">
        <circle id="타원_453" data-name="타원 453" cx="11.498" cy="11.498" r="11.498" transform="translate(0 22.996) rotate(-90)" fill="#fdc42d"/>
        <g id="그룹_1004" data-name="그룹 1004" transform="translate(2.071 3.525)">
          <path id="패스_2348" data-name="패스 2348" d="M59.813,119.88a11.49,11.49,0,0,1-17.7,14.544,11.492,11.492,0,1,0,17.7-14.544Z" transform="translate(-42.111 -119.88)" fill="#fdb431"/>
        </g>
        <path id="패스_2349" data-name="패스 2349" d="M42.681,122.584a8.632,8.632,0,0,1,4.1-3.965" transform="translate(-39.972 -116.504)" fill="none" stroke="#fff" stroke-linecap="round" stroke-linejoin="round" stroke-width="0.5"/>
      </g>
    </g>
    <g id="그룹_1009" data-name="그룹 1009" transform="translate(45.624 126.509)">
      <g id="그룹_1007" data-name="그룹 1007">
        <path id="패스_2350" data-name="패스 2350" d="M48.269,126.622a1.754,1.754,0,0,0-.082-.182,1.591,1.591,0,0,0-.285-.409,1.655,1.655,0,0,0-.531-.4,1.56,1.56,0,0,0-.343-.12,2.249,2.249,0,0,0-.368-.043,1.744,1.744,0,0,0-1.237.556,1.566,1.566,0,0,0-.368.6A4.241,4.241,0,0,1,48.269,126.622Z" transform="translate(-45.054 -125.471)" fill="#403d3c"/>
      </g>
      <g id="그룹_1008" data-name="그룹 1008" transform="translate(9.052)">
        <path id="패스_2351" data-name="패스 2351" d="M56.362,126.622a1.98,1.98,0,0,0-.083-.182,1.591,1.591,0,0,0-.285-.409,1.643,1.643,0,0,0-.531-.4,1.551,1.551,0,0,0-.342-.12,2.249,2.249,0,0,0-.368-.043,1.742,1.742,0,0,0-1.237.556,1.561,1.561,0,0,0-.369.6A4.244,4.244,0,0,1,56.362,126.622Z" transform="translate(-53.145 -125.471)" fill="#403d3c"/>
      </g>
    </g>
    <g id="그룹_1010" data-name="그룹 1010" transform="translate(47.033 129.904)">
      <path id="패스_2352" data-name="패스 2352" d="M51.071,128.507v0h-.066v0a16.484,16.484,0,0,0-4.691.7s.4,4.956,4.691,4.956h.066c4.3,0,4.692-4.956,4.692-4.956A16.485,16.485,0,0,0,51.071,128.507Z" transform="translate(-46.314 -128.505)" fill="#403d3c"/>
      <path id="패스_2353" data-name="패스 2353" d="M47.7,132.1a6.532,6.532,0,0,1,6.376,0,3.713,3.713,0,0,1-3.2,1.454S48.561,133.492,47.7,132.1Z" transform="translate(-46.149 -128.177)" fill="#ee3555"/>
      <path id="패스_2354" data-name="패스 2354" d="M51.839,128.74l0-.01a15.005,15.005,0,0,0-1.592,0l0,.007a16.347,16.347,0,0,0-3.7.6l.3.957s.023.269.667.073a19.058,19.058,0,0,1,3.231-.469h.584a19.037,19.037,0,0,1,3.231.469c.643.2.668-.073.668-.073l.3-.957A16.347,16.347,0,0,0,51.839,128.74Z" transform="translate(-46.285 -128.481)" fill="#fff"/>
    </g>
    <g id="그룹_1011" data-name="그룹 1011" transform="translate(45.15 122.588)">
      <path id="패스_2355" data-name="패스 2355" d="M44.631,123.64a3.99,3.99,0,0,0,3.083-1.674" transform="translate(-44.631 -121.966)" fill="none" stroke="#403d3c" stroke-linecap="round" stroke-linejoin="round" stroke-width="0.5"/>
      <path id="패스_2356" data-name="패스 2356" d="M56.77,123.64a3.989,3.989,0,0,1-3.083-1.674" transform="translate(-43.555 -121.966)" fill="none" stroke="#403d3c" stroke-linecap="round" stroke-linejoin="round" stroke-width="0.5"/>
    </g>
    <path id="패스_2357" data-name="패스 2357" d="M59.155,125.432a.991.991,0,1,1-1.983,0,11.868,11.868,0,0,1,.99-2.511A11.852,11.852,0,0,1,59.155,125.432Z" transform="translate(2.009 0.736)" fill="#15a3cb"/>
  </g>
</svg>
