<svg width="200" height="43" viewBox="0 0 200 43" fill="none" xmlns="http://www.w3.org/2000/svg">
<g clip-path="url(#clip0_3346_75123)">
<path d="M0 12.7521V0H7.41495V19.3115C7.41495 19.5967 6.9668 19.7189 6.76309 19.5152L0 12.7521Z" fill="white"/>
<path d="M18.4966 34.834V0H11.1224V41.4341C11.1224 41.7193 11.5706 41.8415 11.7743 41.6378L18.4966 34.834Z" fill="white"/>
<path d="M30.8821 0H23.4671V41.7193H30.8821V0Z" fill="white"/>
<path d="M35.2007 0.122152C34.997 -0.0815554 34.5488 0.0406691 34.5488 0.32586V19.3114C34.5488 19.5966 34.997 19.7188 35.2007 19.5151L41.9637 12.7113V6.88524L35.2007 0.122152Z" fill="white"/>
<path d="M35.2007 22.245C34.997 22.0412 34.5488 22.1635 34.5488 22.4487V41.4342C34.5488 41.7194 34.997 41.8416 35.2007 41.6379L41.9637 34.8341V29.008L35.2007 22.245Z" fill="white"/>
<path d="M53.4121 6.88524V41.7192H45.9971V0.32586C45.9971 0.0406691 46.4453 -0.0815554 46.649 0.122152L53.4121 6.88524Z" fill="white"/>
<path d="M63.2715 6.88524L63.353 41.7192H55.8566V0.32586C55.8566 0.0406691 56.3048 -0.0815554 56.5085 0.122152L63.2715 6.88524Z" fill="white"/>
<path d="M73.131 6.88524V41.7192H65.716V0.32586C65.716 0.0406691 66.1642 -0.0815554 66.3679 0.122152L73.131 6.88524Z" fill="white"/>
<path d="M88.8165 31.7784L80.6682 16.6226H86.5349L91.4646 26.4413L96.4351 16.6226H102.139L93.9906 31.7377V41.6786H88.8165V31.7784Z" fill="white"/>
<path d="M103.524 16.6226H112.813C115.584 16.6226 117.947 17.3559 119.373 18.8226C120.473 19.9634 121.043 21.3078 121.043 23.0597V23.1819C121.043 26.1153 119.454 27.7042 117.661 28.6413C120.35 29.6598 122.143 31.3302 122.143 34.6303V34.7933C122.143 39.3156 118.517 41.6786 113.098 41.6786H103.565V16.6226H103.524ZM115.91 23.9968C115.91 22.1634 114.606 21.2263 112.406 21.2263H108.535V26.8894H112.161C114.443 26.8487 115.91 25.9116 115.91 23.9968ZM113.098 31.208H108.535V37.0748H113.18C115.502 37.0748 116.969 36.0563 116.969 34.1414V34.1007C117.01 32.3488 115.665 31.208 113.098 31.208Z" fill="white"/>
<path d="M124.425 16.6226H129.884L135.465 26.7672L140.966 16.6226H146.425V41.6786H141.373V25.6672L135.465 36.0155H135.343L129.476 25.7487V41.6786H124.425V16.6226Z" fill="white"/>
<path d="M164.188 34.1822V30.9636H153.432V28.9265H177.429V30.9636H166.633V34.1822H173.6V42.1268H171.237V36.2192H156.936V34.1822H164.188ZM157.466 26.5228V16.9893H159.992V19.8412H171.033V16.9893H173.477V26.5228H157.466ZM170.992 21.7968H159.87V24.4857H170.992V21.7968Z" fill="white"/>
<path d="M179.914 30.8412L178.163 29.3338C179.426 28.6005 180.485 27.7856 181.259 26.9708C182.074 26.1152 182.685 25.2189 183.133 24.2411C183.581 23.2633 183.866 22.2448 183.989 21.104C184.111 20.004 184.111 18.7818 183.989 17.5188H186.352C186.392 19.2299 186.27 20.7374 185.985 22.1226C186.555 23.467 187.248 24.6485 188.144 25.7078C189.041 26.7671 190.141 27.7449 191.444 28.6412L189.733 30.1894C188.837 29.5783 187.981 28.8042 187.207 27.9079C186.433 27.0115 185.74 25.993 185.129 24.893C184.64 26.0337 183.948 27.1338 183.092 28.1116C182.277 29.0894 181.218 29.9857 179.914 30.8412ZM200 41.6377H183.826V32.8376H200V41.6377ZM197.637 34.9154H186.229V39.6007H197.637V34.9154ZM200 31.4116H197.718V24.8115H194.5V31.3709H192.218V17.0706H194.5V22.7744H197.718V16.8262H200V31.4116Z" fill="white"/>
</g>
<defs>
<clipPath id="clip0_3346_75123">
<rect width="200" height="42.1267" fill="white"/>
</clipPath>
</defs>
</svg>
