<svg xmlns="http://www.w3.org/2000/svg" width="190" height="40" viewBox="0 0 190 40">
  <g id="logo" transform="translate(663.875 0.374)">
    <g id="그룹_192" data-name="그룹 192" transform="translate(-663.875 -0.374)">
      <path id="패스_861" data-name="패스 861" d="M-663.875,11.659V-.374h6.992V17.873c0,.273-.413.394-.622.185Z" transform="translate(663.875 0.374)" fill="#fff"/>
      <path id="패스_862" data-name="패스 862" d="M-629.625,32.828V-.374h-6.994V39.1c0,.275.414.4.623.188Z" transform="translate(647.107 0.374)" fill="#fff"/>
      <rect id="사각형_541" data-name="사각형 541" width="6.993" height="39.766" transform="translate(22.146 0)" fill="#fff"/>
      <path id="패스_863" data-name="패스 863" d="M-578.443-.265c-.21-.21-.624-.087-.624.185V17.855c0,.272.414.394.624.185l6.371-6.4V6.134Z" transform="translate(611.702 0.372)" fill="#fff"/>
      <path id="패스_864" data-name="패스 864" d="M-578.443,54.042c-.21-.21-.624-.088-.624.185V72.162c0,.272.414.4.624.186l6.371-6.4V60.441Z" transform="translate(611.702 -32.688)" fill="#fff"/>
      <path id="패스_865" data-name="패스 865" d="M-543.985,6.19v33.2h-6.992V-.079c0-.274.413-.4.621-.187Z" transform="translate(594.421 0.373)" fill="#fff"/>
      <path id="패스_866" data-name="패스 866" d="M-519.751,6.19l.069,33.206-7.063,0V-.079c0-.274.413-.4.622-.187Z" transform="translate(579.514 0.373)" fill="#fff"/>
      <path id="패스_867" data-name="패스 867" d="M-495.522,6.19v33.2h-6.993V-.079c0-.274.414-.4.623-.187Z" transform="translate(564.608 0.373)" fill="#fff"/>
    </g>
    <g id="그룹_193" data-name="그룹 193" transform="translate(-586.26 15.973)">
      <path id="패스_868" data-name="패스 868" d="M-440.776,61.994v2.224h-21.4V61.994Zm-2.093-4.605a12.371,12.371,0,0,1-8.712-6.489,12.371,12.371,0,0,1-8.713,6.489l-1.151-2.224c4.658-.863,8.451-4.5,8.451-8.241V45.144h2.852v1.779c0,3.768,3.794,7.4,8.451,8.241Z" transform="translate(462.178 -43.627)" fill="#fff"/>
      <path id="패스_869" data-name="패스 869" d="M-400.911,43.5h11.068V58.94h-11.068Zm2.669,13.291h5.73V45.649h-5.73Zm18.5-4.134h-3.689V64.854h-2.7V41.2h2.7v9.236h3.689Z" transform="translate(424.487 -41.201)" fill="#fff"/>
      <path id="패스_870" data-name="패스 870" d="M-322.43,62.779v2.2h-21.429v-2.2Zm-2.407-3.872h-16.379V46.164h16.2v2.171h-13.448v3.035h12.925V53.49h-12.925v3.244h13.632Z" transform="translate(389.389 -44.254)" fill="#fff"/>
      <path id="패스_871" data-name="패스 871" d="M-263.3,61.994v2.224h-21.4V61.994Zm-2.093-4.605A12.371,12.371,0,0,1-274.1,50.9a12.37,12.37,0,0,1-8.712,6.489l-1.151-2.224c4.657-.863,8.451-4.5,8.451-8.241V45.144h2.852v1.779c0,3.768,3.794,7.4,8.451,8.241Z" transform="translate(352.995 -43.627)" fill="#fff"/>
      <path id="패스_872" data-name="패스 872" d="M-213.488,53.978v2.067h6.908V61.88h-13.789v1.988h14.6v2.093h-17.243V59.917h13.763V58.138h-13.815V56.045h6.881V53.978h-9.288V51.832h15.516a19.3,19.3,0,0,0,.393-2.486l-13.553.576-.314-2.067,14-.393c.026-.628.026-1.229.026-1.831h-13.4v-2.12h16.039v1.91a31.114,31.114,0,0,1-.5,6.41h3.087v2.146Z" transform="translate(316.558 -42.623)" fill="#fff"/>
    </g>
  </g>
</svg>
