<svg xmlns="http://www.w3.org/2000/svg" width="35" height="19.971" viewBox="0 0 35 19.971">
  <g id="img_ybm" transform="translate(-1156 -682)">
    <g id="그룹_230" data-name="그룹 230" transform="translate(1162.896 429.53)">
      <path id="패스_914" data-name="패스 914" d="M-6.9,258.566v-6.1h3.542v9.244c0,.138-.209.2-.315.094Z" fill="#e8473f"/>
      <path id="패스_915" data-name="패스 915" d="M23.4,269.143V252.47H19.852v19.822c0,.138.21.2.315.094Z" transform="translate(-21.434)" fill="#e8473f"/>
      <rect id="사각형_569" data-name="사각형 569" width="3.543" height="19.97" transform="translate(4.324 252.47)" fill="#e8473f"/>
      <path id="패스_916" data-name="패스 916" d="M76.646,252.526c-.107-.107-.316-.044-.316.094v9.086c0,.138.21.2.316.094l3.228-3.242v-2.79Z" transform="translate(-66.693 -0.002)" fill="#e8473f"/>
      <path id="패스_917" data-name="패스 917" d="M76.646,305.82c-.107-.107-.316-.044-.316.094V315c0,.138.21.2.316.094l3.228-3.242v-2.79Z" transform="translate(-66.693 -42.708)" fill="#e8473f"/>
      <path id="패스_918" data-name="패스 918" d="M107.439,255.767V272.44H103.9V252.618c0-.138.209-.2.315-.094Z" transform="translate(-88.783 -0.001)" fill="#004ea1"/>
      <path id="패스_919" data-name="패스 919" d="M131.219,255.767l.035,16.675h-3.578V252.618c0-.138.209-.2.315-.094Z" transform="translate(-107.838 -0.001)" fill="#004ea1"/>
      <path id="패스_920" data-name="패스 920" d="M155,255.767V272.44h-3.543V252.618c0-.138.21-.2.316-.094Z" transform="translate(-126.893 -0.001)" fill="#004ea1"/>
    </g>
  </g>
</svg>
