<svg xmlns="http://www.w3.org/2000/svg" width="35.33" height="30.716" viewBox="0 0 35.33 30.716">
  <g id="그룹_4526" data-name="그룹 4526" transform="translate(-516 -982)">
    <g id="그룹_4525" data-name="그룹 4525" transform="translate(517 1005.49)">
      <path id="패스_928" data-name="패스 928" d="M634.962,1150.079v.679h-6.538v-.679Zm-.64-1.407a3.779,3.779,0,0,1-2.662-1.982,3.779,3.779,0,0,1-2.662,1.982l-.352-.679a2.96,2.96,0,0,0,2.582-2.518v-.544h.871v.544a2.945,2.945,0,0,0,2.582,2.518Z" transform="translate(-628.424 -1144.468)" fill="#004ea1"/>
      <path id="패스_929" data-name="패스 929" d="M665.365,1143.257h3.381v4.716h-3.381Zm.815,4.06h1.75v-3.405h-1.75Zm5.651-1.263H670.7v3.725h-.823v-7.226h.823v2.821h1.127Z" transform="translate(-658.163 -1142.554)" fill="#004ea1"/>
      <path id="패스_930" data-name="패스 930" d="M706.31,1150.623v.671h-6.546v-.671Zm-.736-1.183h-5v-3.893h4.948v.663h-4.108v.927h3.949v.647h-3.949v.991h4.164Z" transform="translate(-685.856 -1144.964)" fill="#004ea1"/>
      <path id="패스_931" data-name="패스 931" d="M741.972,1150.079v.679h-6.538v-.679Zm-.64-1.407a2.778,2.778,0,0,0-5.323,0l-.352-.679a2.96,2.96,0,0,0,2.582-2.518v-.544h.871v.544a2.945,2.945,0,0,0,2.582,2.518Z" transform="translate(-714.572 -1144.468)" fill="#004ea1"/>
      <path id="패스_932" data-name="패스 932" d="M774.806,1147.144v.631h2.11v1.782H772.7v.608h4.46v.639H771.9v-1.846h4.2v-.544h-4.22v-.639h2.1v-.631h-2.837v-.656h4.74a5.919,5.919,0,0,0,.12-.759l-4.14.176-.1-.631,4.276-.12c.008-.192.008-.376.008-.559H771.96v-.648h4.9v.583a9.509,9.509,0,0,1-.152,1.958h.943v.656Z" transform="translate(-743.322 -1143.675)" fill="#004ea1"/>
    </g>
    <g id="img_ybm" transform="translate(-640 300)">
      <g id="그룹_230" data-name="그룹 230" transform="translate(1162.896 429.53)">
        <path id="패스_914" data-name="패스 914" d="M-6.9,258.566v-6.1h3.542v9.244c0,.138-.209.2-.315.094Z" fill="#e8473f"/>
        <path id="패스_915" data-name="패스 915" d="M23.4,269.143V252.47H19.852v19.822c0,.138.21.2.315.094Z" transform="translate(-21.434)" fill="#e8473f"/>
        <rect id="사각형_569" data-name="사각형 569" width="3.543" height="19.97" transform="translate(4.324 252.47)" fill="#e8473f"/>
        <path id="패스_916" data-name="패스 916" d="M76.646,252.526c-.107-.107-.316-.044-.316.094v9.086c0,.138.21.2.316.094l3.228-3.242v-2.79Z" transform="translate(-66.693 -0.002)" fill="#e8473f"/>
        <path id="패스_917" data-name="패스 917" d="M76.646,305.82c-.107-.107-.316-.044-.316.094V315c0,.138.21.2.316.094l3.228-3.242v-2.79Z" transform="translate(-66.693 -42.708)" fill="#e8473f"/>
        <path id="패스_918" data-name="패스 918" d="M107.439,255.767V272.44H103.9V252.618c0-.138.209-.2.315-.094Z" transform="translate(-88.783 -0.001)" fill="#004ea1"/>
        <path id="패스_919" data-name="패스 919" d="M131.219,255.767l.035,16.675h-3.578V252.618c0-.138.209-.2.315-.094Z" transform="translate(-107.838 -0.001)" fill="#004ea1"/>
        <path id="패스_920" data-name="패스 920" d="M155,255.767V272.44h-3.543V252.618c0-.138.21-.2.316-.094Z" transform="translate(-126.893 -0.001)" fill="#004ea1"/>
      </g>
    </g>
  </g>
</svg>
