<svg xmlns="http://www.w3.org/2000/svg" width="820.858" height="352.714" viewBox="0 0 820.858 352.714">
  <g id="그룹_4555" data-name="그룹 4555" transform="translate(-1147.418 -15)">
    <g id="ico_" transform="translate(1729.633 221.355) rotate(-30)" fill="none" opacity="0.35">
      <path d="M83.123,4.259a10,10,0,0,1,11.743,0L172.1,60.281a10,10,0,0,1,3.638,11.189l-29.494,90.625A10,10,0,0,1,136.734,169H41.254a10,10,0,0,1-9.509-6.905L2.251,71.47A10,10,0,0,1,5.889,60.281Z" stroke="none"/>
      <path d="M 88.99412536621094 49.41476440429688 L 47.04208374023438 79.84487152099609 L 63.03969573974609 129 L 114.9485473632812 129 L 130.9461669921875 79.84487915039062 L 88.99412536621094 49.41476440429688 M 88.99411010742188 2.35369873046875 C 91.05433654785156 2.35369873046875 93.11457061767578 2.98876953125 94.86569213867188 4.258926391601562 L 172.0992584228516 60.28067779541016 C 175.6099395751953 62.82711791992188 177.0789489746094 67.34618377685547 175.73681640625 71.47018432617188 L 146.2428894042969 162.0947418212891 C 144.9026947021484 166.2126159667969 141.0642547607422 169 136.7337646484375 169 L 41.25450134277344 169 C 36.92401123046875 169 33.0855712890625 166.2126159667969 31.74537658691406 162.0947418212891 L 2.251449584960938 71.47018432617188 C 0.9092559814453125 67.34618377685547 2.378387451171875 62.82711791992188 5.888946533203125 60.28067779541016 L 83.12257385253906 4.258926391601562 C 84.87366485595703 2.98876953125 86.93388366699219 2.35369873046875 88.99411010742188 2.35369873046875 Z" stroke="none" fill="#ffe53b"/>
    </g>
    <g id="ico_2" data-name="ico_" transform="translate(1191.275 186.018) rotate(30)" fill="none" opacity="0.35">
      <path d="M41.312,15.241a10,10,0,0,1,17.375,0L91.477,72.763a10,10,0,0,1-8.688,14.952H17.211A10,10,0,0,1,8.523,72.763Z" stroke="none"/>
      <path d="M 50.00000762939453 40.38620376586914 L 34.42158508300781 67.71563720703125 L 65.57843017578125 67.71563720703125 L 50.00000762939453 40.38620376586914 M 50 10.19309234619141 C 53.38471984863281 10.19309234619141 56.76943588256836 11.87570190429688 58.68768692016602 15.24092102050781 L 91.47690582275391 72.76345062255859 C 95.27696990966797 79.42997741699219 90.46275329589844 87.71563720703125 82.78921508789062 87.71563720703125 L 17.21078491210938 87.71563720703125 C 9.537246704101562 87.71563720703125 4.723030090332031 79.42997741699219 8.523094177246094 72.76348114013672 L 41.31231307983398 15.24092102050781 C 43.23056411743164 11.87570190429688 46.61528015136719 10.19309234619141 50 10.19309234619141 Z" stroke="none" fill="#afe4ff"/>
    </g>
    <g id="타원_23" data-name="타원 23" transform="translate(1540 15)" fill="none" stroke="#ff5c5c" stroke-width="35" opacity="0.35">
      <circle cx="75" cy="75" r="75" stroke="none"/>
      <circle cx="75" cy="75" r="57.5" fill="none"/>
    </g>
  </g>
</svg>
