<svg xmlns="http://www.w3.org/2000/svg" width="35" height="31.716" viewBox="0 0 35 31.716">
  <g id="img_SmartSchool" transform="translate(-1156 -586)">
    <g id="그룹_234" data-name="그룹 234" transform="translate(529.896 -430.93)">
      <g id="그룹_232" data-name="그룹 232" transform="translate(626.104 1016.93)">
        <path id="패스_921" data-name="패스 921" d="M626.1,1023.026v-6.1h3.542v9.244c0,.138-.209.2-.315.093Z" transform="translate(-626.104 -1016.93)" fill="#fff"/>
        <path id="패스_922" data-name="패스 922" d="M656.9,1033.6V1016.93H653.36v19.822c0,.138.21.2.316.094Z" transform="translate(-648.046 -1016.93)" fill="#fff"/>
        <rect id="사각형_570" data-name="사각형 570" width="3.543" height="19.969" transform="translate(11.22 0)" fill="#fff"/>
        <path id="패스_923" data-name="패스 923" d="M711.228,1016.987c-.107-.107-.316-.044-.316.094v9.086c0,.138.21.2.316.094l3.228-3.242v-2.79Z" transform="translate(-694.379 -1016.932)" fill="#fff"/>
        <path id="패스_924" data-name="패스 924" d="M711.228,1071.293c-.107-.107-.316-.044-.316.094v9.086c0,.138.21.2.316.094l3.228-3.242v-2.79Z" transform="translate(-694.379 -1060.652)" fill="#fff"/>
        <path id="패스_925" data-name="패스 925" d="M742.544,1020.227V1036.9H739v-19.822c0-.138.209-.2.315-.094Z" transform="translate(-716.993 -1016.931)" fill="#fff"/>
        <path id="패스_926" data-name="패스 926" d="M766.777,1020.227l.035,16.675h-3.578v-19.822c0-.138.209-.2.315-.094Z" transform="translate(-736.5 -1016.931)" fill="#fff"/>
        <path id="패스_927" data-name="패스 927" d="M791.007,1020.227V1036.9h-3.543v-19.822c0-.138.21-.2.315-.094Z" transform="translate(-756.007 -1016.931)" fill="#fff"/>
      </g>
      <g id="그룹_233" data-name="그룹 233" transform="translate(626.556 1041.42)">
        <path id="패스_928" data-name="패스 928" d="M634.962,1150.079v.679h-6.538v-.679Zm-.64-1.407a3.779,3.779,0,0,1-2.662-1.982,3.779,3.779,0,0,1-2.662,1.982l-.352-.679a2.96,2.96,0,0,0,2.582-2.518v-.544h.871v.544a2.945,2.945,0,0,0,2.582,2.518Z" transform="translate(-628.424 -1144.468)" fill="#fff"/>
        <path id="패스_929" data-name="패스 929" d="M665.365,1143.257h3.381v4.716h-3.381Zm.815,4.06h1.75v-3.405h-1.75Zm5.651-1.263H670.7v3.725h-.823v-7.226h.823v2.821h1.127Z" transform="translate(-658.163 -1142.554)" fill="#fff"/>
        <path id="패스_930" data-name="패스 930" d="M706.31,1150.623v.671h-6.546v-.671Zm-.736-1.183h-5v-3.893h4.948v.663h-4.108v.927h3.949v.647h-3.949v.991h4.164Z" transform="translate(-685.856 -1144.964)" fill="#fff"/>
        <path id="패스_931" data-name="패스 931" d="M741.972,1150.079v.679h-6.538v-.679Zm-.64-1.407a2.778,2.778,0,0,0-5.323,0l-.352-.679a2.96,2.96,0,0,0,2.582-2.518v-.544h.871v.544a2.945,2.945,0,0,0,2.582,2.518Z" transform="translate(-714.572 -1144.468)" fill="#fff"/>
        <path id="패스_932" data-name="패스 932" d="M774.806,1147.144v.631h2.11v1.782H772.7v.608h4.46v.639H771.9v-1.846h4.2v-.544h-4.22v-.639h2.1v-.631h-2.837v-.656h4.74a5.919,5.919,0,0,0,.12-.759l-4.14.176-.1-.631,4.276-.12c.008-.192.008-.376.008-.559H771.96v-.648h4.9v.583a9.509,9.509,0,0,1-.152,1.958h.943v.656Z" transform="translate(-743.322 -1143.675)" fill="#fff"/>
      </g>
    </g>
  </g>
</svg>
