<svg xmlns="http://www.w3.org/2000/svg" xmlns:xlink="http://www.w3.org/1999/xlink" width="60" height="60" viewBox="0 0 60 60">
  <defs>
    <clipPath id="clip-path">
      <rect id="사각형_878" data-name="사각형 878" width="60" height="60" transform="translate(1299 501)" fill="#9ea4aa"/>
    </clipPath>
  </defs>
  <g id="마스크_그룹_11" data-name="마스크 그룹 11" transform="translate(-1299 -501)" clip-path="url(#clip-path)">
    <g id="idea_8_" data-name="idea (8)" transform="translate(1299 501)">
      <path id="패스_1051" data-name="패스 1051" d="M1.758,70.4H20.41a6.055,6.055,0,0,0,5.783,4.286h7.615A6.055,6.055,0,0,0,39.59,70.4H58.242a1.758,1.758,0,0,0,0-3.516H57.179V60.751a1.759,1.759,0,0,0-2.164-1.71,26.752,26.752,0,0,1-7.074.969c-4.1-.054-5.85-.873-10.723-1.249a8.325,8.325,0,0,0-7.287,3.26,8.326,8.326,0,0,0-7.287-3.26c-4.861.375-6.632,1.195-10.723,1.249a26.767,26.767,0,0,1-7.074-.969,1.759,1.759,0,0,0-2.164,1.71v6.131H1.758a1.758,1.758,0,0,0,0,3.516ZM6.2,62.945a26.3,26.3,0,0,0,5.769.58c4.437-.058,6.281-.9,10.947-1.259a5.175,5.175,0,0,1,5.312,4.055v0a1.759,1.759,0,0,0,3.409,0v0a5.174,5.174,0,0,1,5.311-4.055c4.667.36,6.51,1.2,10.947,1.259a26.3,26.3,0,0,0,5.769-.58v3.937H38.094a1.758,1.758,0,0,0-1.758,1.758,2.532,2.532,0,0,1-2.529,2.529H26.193a2.532,2.532,0,0,1-2.529-2.529,1.758,1.758,0,0,0-1.758-1.758H6.2Z" transform="translate(0 -14.684)"/>
      <path id="패스_1052" data-name="패스 1052" d="M33.72,41.254h3.62a5.036,5.036,0,0,0,5.1-4.9l.028-3.688a19.526,19.526,0,0,1,3.755-8.744,13.368,13.368,0,0,0-10.872-21.4A13.4,13.4,0,0,0,22.178,15.685,13.242,13.242,0,0,0,24.89,23.96a19.225,19.225,0,0,1,3.726,8.683v3.674a5.028,5.028,0,0,0,5.1,4.936Zm5.209-4.926a1.516,1.516,0,0,1-1.589,1.41H33.72a1.513,1.513,0,0,1-1.588-1.42v-2.1h6.813ZM25.693,15.736a9.852,9.852,0,0,1,19.7.149,9.759,9.759,0,0,1-1.977,5.921,23.09,23.09,0,0,0-4.151,8.9H37.3V20.515a1.758,1.758,0,1,0-3.516,0V30.707H31.825a22.727,22.727,0,0,0-4.135-8.872,9.76,9.76,0,0,1-2-6.1Z" transform="translate(-5.544 -0.629)"/>
      <path id="패스_1053" data-name="패스 1053" d="M14.515,17.441a1.758,1.758,0,0,0-1.758-1.758H6.9a1.758,1.758,0,0,0,0,3.516h5.861A1.758,1.758,0,0,0,14.515,17.441Z" transform="translate(-1.285 -3.921)"/>
      <path id="패스_1054" data-name="패스 1054" d="M62.2,30.672l5.049,2.975a1.758,1.758,0,1,0,1.785-3.029l-5.049-2.975A1.758,1.758,0,1,0,62.2,30.672Z" transform="translate(-15.334 -6.85)"/>
      <path id="패스_1055" data-name="패스 1055" d="M9.892,33.647l5.049-2.975a1.758,1.758,0,1,0-1.785-3.029L8.107,30.618a1.758,1.758,0,1,0,1.785,3.029Z" transform="translate(-1.81 -6.85)"/>
      <path id="패스_1056" data-name="패스 1056" d="M63.988,6.247l5.049-2.975A1.758,1.758,0,0,0,67.253.244L62.2,3.218a1.758,1.758,0,1,0,1.785,3.029Z" transform="translate(-15.334 0)"/>
      <path id="패스_1057" data-name="패스 1057" d="M14.941,3.218,9.892.244A1.758,1.758,0,1,0,8.107,3.273l5.049,2.975a1.758,1.758,0,0,0,1.785-3.029Z" transform="translate(-1.81 0)"/>
      <path id="패스_1058" data-name="패스 1058" d="M71.736,17.441a1.758,1.758,0,0,0-1.758-1.758H64.117a1.758,1.758,0,1,0,0,3.516h5.861A1.758,1.758,0,0,0,71.736,17.441Z" transform="translate(-15.59 -3.921)"/>
    </g>
  </g>
</svg>
