<svg width="168" height="35" viewBox="0 0 168 35" fill="none" xmlns="http://www.w3.org/2000/svg">
<g clip-path="url(#clip0_1_27)">
<path d="M-0.00390625 10.6222V0.000206947H6.17209V16.1072C6.17209 16.3482 5.80709 16.4552 5.62309 16.2702L-0.00390625 10.6222Z" fill="white"/>
<path d="M15.4321 29.0502V0.000206947H9.25809V34.5362C9.25809 34.7762 9.62409 34.8852 9.80809 34.7002L15.4321 29.0502Z" fill="white"/>
<path d="M25.7211 0.000213623H19.5481V34.7942H25.7211V0.000213623Z" fill="white"/>
<path d="M29.3581 0.0951704C29.1721 -0.0908296 28.8071 0.0181953 28.8071 0.258195V16.0892C28.8071 16.3302 29.1721 16.4372 29.3581 16.2522L34.9821 10.6032V5.7422L29.3581 0.0951704Z" fill="white"/>
<path d="M29.3581 18.5412C29.1721 18.3552 28.8071 18.4642 28.8071 18.7042V34.5362C28.8071 34.7772 29.1721 34.8852 29.3581 34.7002L34.9821 29.0512V24.1892L29.3581 18.5412Z" fill="white"/>
<path d="M44.5201 5.74322V34.7942H38.3461V0.257197C38.3461 0.0171969 38.7111 -0.0918046 38.8951 0.0931954L44.5201 5.74322Z" fill="white"/>
<path d="M52.7531 5.74322L52.8141 34.7972H46.5801V0.257197C46.5801 0.0171969 46.9451 -0.0918046 47.1291 0.0931954L52.7531 5.74322Z" fill="white"/>
<path d="M60.9821 5.74322V34.7942H54.8091V0.257197C54.8091 0.0171969 55.1741 -0.0918046 55.3591 0.0931954L60.9821 5.74322Z" fill="white"/>
<path d="M87.4031 30.3353V32.2982H68.5101V30.3353H87.4031ZM85.5551 26.2712C83.9218 25.9646 82.3801 25.2892 81.0473 24.2966C79.7145 23.3039 78.6258 22.0203 77.8641 20.5433C77.1024 22.0202 76.0137 23.3039 74.6809 24.2965C73.3481 25.2891 71.8064 25.9645 70.1731 26.2712L69.1571 24.3073C73.2681 23.5453 76.6171 20.3352 76.6171 17.0322V15.4612H79.1341V17.0322C79.1341 20.3582 82.4831 23.5683 86.5941 24.3073L85.5551 26.2712Z" fill="white"/>
<path d="M89.3221 16.1542H99.0921V29.7803H89.3221V16.1542ZM91.6781 27.8862H96.7361V18.0472H91.6781V27.8862ZM108.006 24.2372H104.754V35.0002H102.375V14.1223H104.754V22.2742H108.01L108.006 24.2372Z" fill="white"/>
<path d="M127.616 30.4742V32.4142H108.701V30.4742H127.616ZM125.491 27.0563H111.034V15.8083H125.334V17.7253H113.459V20.4043H124.868V22.2752H113.459V25.1402H125.491V27.0563Z" fill="white"/>
<path d="M147.688 30.3353V32.2982H128.796V30.3353H147.688ZM145.84 26.2712C144.207 25.9645 142.665 25.2891 141.332 24.2965C140 23.3039 138.911 22.0202 138.149 20.5433C137.387 22.0203 136.299 23.304 134.966 24.2966C133.633 25.2893 132.091 25.9646 130.458 26.2712L129.442 24.3073C133.553 23.5453 136.902 20.3352 136.902 17.0322V15.4612H139.416V17.0322C139.416 20.3582 142.765 23.5683 146.876 24.3073L145.84 26.2712Z" fill="white"/>
<path d="M159.492 24.1453V25.9692H165.592V31.1193H153.418V32.8743H166.306V34.7213H151.086V29.3912H163.234V27.8203H151.039V25.9733H157.113V24.1492H148.913V22.2512H162.613C162.776 21.5282 162.892 20.7953 162.959 20.0573L150.996 20.5652L150.719 18.7413L163.075 18.3942C163.098 17.8402 163.098 17.3093 163.098 16.7783H151.27V14.9072H165.428V16.5912C165.478 18.4873 165.33 20.3835 164.989 22.2493H167.714V24.1432L159.492 24.1453Z" fill="white"/>
</g>
<defs>
<clipPath id="clip0_1_27">
<rect width="168" height="35" fill="white"/>
</clipPath>
</defs>
</svg>
