<svg width="168" height="35" viewBox="0 0 168 35" fill="none" xmlns="http://www.w3.org/2000/svg">
<path d="M-0.0039978 10.622V-3.8147e-05H6.172V16.107C6.172 16.348 5.807 16.455 5.623 16.27L-0.0039978 10.622Z" fill="#E8473F"/>
<path d="M15.432 29.0499V-3.8147e-05H9.258V34.536C9.258 34.776 9.62399 34.885 9.80799 34.7L15.432 29.0499Z" fill="#E8473F"/>
<path d="M25.721 -3.05176e-05H19.548V34.794H25.721V-3.05176e-05Z" fill="#E8473F"/>
<path d="M29.358 0.0949273C29.172 -0.0910728 28.807 0.0179522 28.807 0.257952V16.0889C28.807 16.3299 29.172 16.437 29.358 16.252L34.982 10.6029V5.74196L29.358 0.0949273Z" fill="#E8473F"/>
<path d="M29.358 18.541C29.172 18.355 28.807 18.4639 28.807 18.7039V34.536C28.807 34.777 29.172 34.885 29.358 34.7L34.982 29.051V24.189L29.358 18.541Z" fill="#E8473F"/>
<path d="M44.52 5.74298V34.7939H38.346V0.256953C38.346 0.0169527 38.711 -0.0920487 38.895 0.0929513L44.52 5.74298Z" fill="#004EA1"/>
<path d="M52.753 5.74298L52.814 34.797H46.58V0.256953C46.58 0.0169527 46.945 -0.0920487 47.129 0.0929513L52.753 5.74298Z" fill="#004EA1"/>
<path d="M60.982 5.74298V34.7939H54.809V0.256953C54.809 0.0169527 55.174 -0.0920487 55.359 0.0929513L60.982 5.74298Z" fill="#004EA1"/>
<path d="M87.403 30.335V32.298H68.51V30.335H87.403ZM85.555 26.271C83.9217 25.9643 82.38 25.289 81.0472 24.2963C79.7144 23.3037 78.6257 22.02 77.864 20.543C77.1023 22.02 76.0136 23.3037 74.6808 24.2963C73.348 25.2889 71.8063 25.9643 70.173 26.271L69.157 24.307C73.268 23.545 76.617 20.335 76.617 17.032V15.461H79.134V17.032C79.134 20.358 82.483 23.568 86.594 24.307L85.555 26.271Z" fill="#004EA1"/>
<path d="M89.322 16.154H99.092V29.78H89.322V16.154ZM91.678 27.886H96.736V18.047H91.678V27.886ZM108.006 24.237H104.754V35H102.375V14.122H104.754V22.274H108.01L108.006 24.237Z" fill="#004EA1"/>
<path d="M127.616 30.474V32.414H108.701V30.474H127.616ZM125.491 27.056H111.034V15.808H125.334V17.725H113.459V20.404H124.868V22.275H113.459V25.14H125.491V27.056Z" fill="#004EA1"/>
<path d="M147.688 30.335V32.298H128.796V30.335H147.688ZM145.84 26.271C144.207 25.9643 142.665 25.2889 141.332 24.2963C139.999 23.3037 138.911 22.02 138.149 20.543C137.387 22.0201 136.299 23.3038 134.966 24.2964C133.633 25.289 132.091 25.9644 130.458 26.271L129.442 24.307C133.553 23.545 136.902 20.335 136.902 17.032V15.461H139.416V17.032C139.416 20.358 142.765 23.568 146.876 24.307L145.84 26.271Z" fill="#004EA1"/>
<path d="M159.492 24.145V25.969H165.592V31.119H153.418V32.874H166.306V34.721H151.086V29.391H163.234V27.82H151.039V25.973H157.113V24.149H148.913V22.251H162.613C162.776 21.528 162.892 20.7951 162.959 20.057L150.996 20.565L150.719 18.741L163.075 18.394C163.098 17.84 163.098 17.309 163.098 16.778H151.27V14.907H165.428V16.591C165.477 18.4871 165.33 20.3832 164.989 22.249H167.714V24.143L159.492 24.145Z" fill="#004EA1"/>
</svg>
