<svg xmlns="http://www.w3.org/2000/svg" width="79.001" height="22" viewBox="0 0 79.001 22">
  <g id="그룹_4514" data-name="그룹 4514" transform="translate(12678.001 20539)">
    <g id="logo" transform="translate(-12671.104 -21318.93)">
      <path id="패스_4931" data-name="패스 4931" d="M-6.9,786.7V779.93h3.935V790.2c0,.154-.233.222-.35.1Z" transform="translate(0 0)" fill="#fff"/>
      <path id="패스_4932" data-name="패스 4932" d="M24.3,798.3V779.93H20.36v21.836c0,.152.233.221.351.1Z" transform="translate(-21.389 0)" fill="#fff"/>
      <rect id="사각형_999" data-name="사각형 999" width="3.936" height="21.999" transform="translate(5.492 779.93)" fill="#fff"/>
      <path id="패스_4933" data-name="패스 4933" d="M78.263,779.993c-.118-.119-.351-.049-.351.1V790.19c0,.153.233.222.351.1l3.586-3.6v-3.1Z" transform="translate(-66.552 -0.002)" fill="#fff"/>
      <path id="패스_4934" data-name="패스 4934" d="M78.263,834.3c-.118-.118-.351-.049-.351.1V844.5c0,.153.233.222.351.1l3.586-3.6v-3.1Z" transform="translate(-66.552 -42.733)" fill="#fff"/>
      <path id="패스_4935" data-name="패스 4935" d="M109.937,783.562V801.93H106V780.094c0-.152.233-.22.35-.1Z" transform="translate(-88.596 -0.002)" fill="#fff"/>
      <path id="패스_4936" data-name="패스 4936" d="M134.17,783.562l.039,18.369-3.975,0V780.094c0-.152.233-.22.35-.1Z" transform="translate(-107.644 -0.002)" fill="#fff"/>
      <path id="패스_4937" data-name="패스 4937" d="M158.4,783.562V801.93h-3.936V780.094c0-.152.233-.22.35-.1Z" transform="translate(-126.626 -0.002)" fill="#fff"/>
    </g>
    <g id="그룹_4513" data-name="그룹 4513" transform="translate(-12899 -20960)">
      <path id="패스_5109" data-name="패스 5109" d="M265,443h8V433h-8Zm1.7-7.978h2.241a2.944,2.944,0,0,1,1.767.447,1.524,1.524,0,0,1,.6,1.306,1.439,1.439,0,0,1-.243.829,1.388,1.388,0,0,1-.671.525,1.357,1.357,0,0,1,.775.5,1.474,1.474,0,0,1,.283.914,1.69,1.69,0,0,1-.589,1.4,2.652,2.652,0,0,1-1.678.483H266.7Z" fill="#fff"/>
      <path id="패스_5110" data-name="패스 5110" d="M270.136,439.527a.8.8,0,0,0-.91-.892h-1.208v1.726h1.129a1.089,1.089,0,0,0,.727-.221A.76.76,0,0,0,270.136,439.527Z" fill="#fff"/>
      <path id="패스_5111" data-name="패스 5111" d="M269.991,436.908a.738.738,0,0,0-.253-.627,1.333,1.333,0,0,0-.8-.191h-.922V437.7h.975Q269.99,437.685,269.991,436.908Z" fill="#fff"/>
      <path id="패스_5112" data-name="패스 5112" d="M274,443h8V433h-8Zm1.7-7.978h4.28v1.068h-2.961v1.525h2.531v1.033h-2.531v1.713h2.97v1.06H275.7Z" fill="#fff"/>
      <path id="패스_5113" data-name="패스 5113" d="M283,443h8V433h-8Zm1.3-7.978h5.212v1.068h-1.96v5.331h-1.319V436.09H284.3Z" fill="#fff"/>
      <path id="패스_5114" data-name="패스 5114" d="M292,433v10h8V433Zm5.755,8.421-.443-1.318H295l-.439,1.318h-1.4l2.381-6.4h1.223l2.394,6.4Z" fill="#fff"/>
      <path id="패스_5115" data-name="패스 5115" d="M295.356,439.035h1.6l-.8-2.4Z" fill="#fff"/>
    </g>
  </g>
</svg>
