<svg xmlns="http://www.w3.org/2000/svg" width="15.085" height="18.242" viewBox="0 0 15.085 18.242">
  <g id="그룹_243" data-name="그룹 243" transform="translate(-259.899 -261.061)">
    <path id="패스_957" data-name="패스 957" d="M265.149,279.3h-.525v-7.095l-4.724-9.292h.554l4.7,9.292Zm1.051,0h-.525v-7.095l-4.637-9.292h.554l4.608,9.292Zm1.051,0h-.525v-7.095l-4.578-9.292h.554l4.549,9.292Zm1.051,0h-.525v-7.095l-4.549-9.292h.555l4.52,9.292Zm.525-7.095-4.491-9.292h.554l2.1,4.264,3.006-6.12h.554l-3.3,6.715.263.536,3.589-7.251h.554l-3.881,7.816.263.566,4.144-8.381h.554l-4.436,8.946.263.536,4.728-9.482h.554l-5.019,10.047.262.536,5.341-10.583h.555l-5.632,11.148V279.3h-.525Z" transform="translate(0 0)" fill="#fff"/>
    <path id="패스_958" data-name="패스 958" d="M267.25,273.41l.263.537m.262.566.263.567m.263.566.262.537m.263.566.263.537m-3.94,7.676h-.526v-7.11L259.9,268.54h.554l4.7,9.312Zm1.051,0h-.525v-7.11l-4.637-9.312h.555l4.607,9.312Zm1.051,0h-.525v-7.11l-4.578-9.312h.555l4.549,9.312Zm1.051,0h-.526v-7.11l-4.549-9.312h.555l4.52,9.312Zm1.05-7.11v7.11h-.525v-7.11l-4.491-9.312h.555l2.1,4.274" transform="translate(0 -5.659)" fill="#fff"/>
  </g>
</svg>
