<svg xmlns="http://www.w3.org/2000/svg" xmlns:xlink="http://www.w3.org/1999/xlink" width="20" height="20" viewBox="0 0 20 20">
  <defs>
    <clipPath id="clip-path">
      <circle id="타원_23" data-name="타원 23" cx="10" cy="10" r="10" transform="translate(1331 528)" fill="#72787f"/>
    </clipPath>
  </defs>
  <g id="icon_스티커" transform="translate(-1331 -528)" clip-path="url(#clip-path)">
    <path id="smile" d="M10,20A10,10,0,0,1,2.929,2.929,10,10,0,0,1,17.071,17.071,9.935,9.935,0,0,1,10,20ZM10,1.563A8.438,8.438,0,1,0,18.438,10,8.447,8.447,0,0,0,10,1.563Zm3.662,10.164a.781.781,0,0,0-1.079.24,3.438,3.438,0,0,1-2.622,1.513,3.438,3.438,0,0,1-2.622-1.513.781.781,0,0,0-1.318.839,5.023,5.023,0,0,0,3.94,2.237A5.023,5.023,0,0,0,13.9,12.8a.781.781,0,0,0-.24-1.079Zm-7.1-5.281a.977.977,0,1,1-.977.977A.977.977,0,0,1,6.563,6.445Zm5.859.977a.977.977,0,1,0,.977-.977A.977.977,0,0,0,12.422,7.422Z" transform="translate(1331 528)" fill="#72787f"/>
  </g>
</svg>
