<svg xmlns="http://www.w3.org/2000/svg" xmlns:xlink="http://www.w3.org/1999/xlink" width="16" height="16" viewBox="0 0 16 16">
  <defs>
    <clipPath id="clip-path">
      <circle id="Ellipse_373" data-name="Ellipse 373" cx="8" cy="8" r="8" fill="#fc5d5b"/>
    </clipPath>
  </defs>
  <g id="icon_스티커" clip-path="url(#clip-path)">
    <path id="smile" d="M8,16a8,8,0,1,1,5.657-2.343A8,8,0,0,1,8,16ZM8,1.25A6.75,6.75,0,1,0,14.75,8,6.75,6.75,0,0,0,8,1.25Zm2.93,8.131a.625.625,0,0,0-.863.192,2.75,2.75,0,0,1-2.1,1.21,2.75,2.75,0,0,1-2.1-1.21.625.625,0,1,0-1.054.671,4.018,4.018,0,0,0,3.152,1.79A4.018,4.018,0,0,0,11.12,10.24a.625.625,0,0,0-.192-.863ZM5.25,5.157a.78.78,0,1,1-.553.228.782.782,0,0,1,.553-.228Zm4.687.782a.782.782,0,1,0,.782-.782.782.782,0,0,0-.782.782Z" transform="translate(0 0)" fill="#fc5d5b"/>
  </g>
</svg>
