<svg xmlns="http://www.w3.org/2000/svg" width="205" height="162" viewBox="0 0 205 162">
  <g id="그룹_974" data-name="그룹 974" transform="translate(-81 -320)">
    <path id="img_" d="M4,0H201a4,4,0,0,1,4,4V162a0,0,0,0,1,0,0H0a0,0,0,0,1,0,0V4A4,4,0,0,1,4,0Z" transform="translate(81 320)" fill="#f6faff"/>
    <g id="그룹_954" data-name="그룹 954" transform="translate(-33.604 -195.074)">
      <path id="패스_1308" data-name="패스 1308" d="M261.25,625.936a43.021,43.021,0,1,1-43.02-43.02,43.02,43.02,0,0,1,43.02,43.02" transform="translate(-17.515 -25.662)" fill="#fff"/>
      <path id="패스_1309" data-name="패스 1309" d="M216.722,668.782h-.01q-.434-.008-.865-.025a.534.534,0,0,1-.514-.555.525.525,0,0,1,.555-.514q.421.016.845.024a.535.535,0,0,1-.01,1.069Zm3.419-.069a.535.535,0,0,1-.031-1.068q.422-.024.842-.058a.535.535,0,0,1,.085,1.066c-.287.023-.576.042-.864.06Zm-7.682-.222a.548.548,0,0,1-.063,0q-.43-.051-.858-.11a.534.534,0,1,1,.146-1.059q.418.058.838.107a.535.535,0,0,1-.062,1.065Zm11.93-.242a.535.535,0,0,1-.083-1.062q.418-.067.832-.142a.535.535,0,0,1,.19,1.053q-.425.076-.854.145A.522.522,0,0,1,224.389,668.249Zm-16.144-.47a.569.569,0,0,1-.115-.012q-.423-.094-.844-.2a.535.535,0,0,1,.251-1.039q.41.1.823.19a.535.535,0,0,1-.115,1.057Zm20.326-.413a.535.535,0,0,1-.136-1.051q.409-.108.815-.224a.535.535,0,1,1,.293,1.028q-.415.118-.834.229A.541.541,0,0,1,228.571,667.366Zm-24.449-.716a.528.528,0,0,1-.167-.027q-.413-.136-.823-.28a.535.535,0,0,1,.354-1.009q.4.14.8.273a.535.535,0,0,1-.167,1.042Zm28.522-.58a.535.535,0,0,1-.188-1.035q.4-.149.788-.3a.534.534,0,1,1,.4.993q-.4.16-.808.313A.545.545,0,0,1,232.644,666.07Zm-32.516-.957a.532.532,0,0,1-.216-.046c-.265-.117-.528-.238-.79-.36a.534.534,0,1,1,.452-.969q.384.179.771.351a.534.534,0,0,1-.217,1.023Zm36.438-.739a.534.534,0,0,1-.237-1.014q.378-.187.752-.381a.534.534,0,1,1,.492.949q-.382.2-.77.39A.528.528,0,0,1,236.565,664.373Zm-40.257-1.189a.535.535,0,0,1-.264-.07q-.377-.215-.75-.437a.534.534,0,1,1,.547-.918q.363.216.731.425a.535.535,0,0,1-.264,1ZM240.3,662.3a.535.535,0,0,1-.283-.988q.357-.223.71-.453a.535.535,0,0,1,.584.9q-.362.236-.729.465A.53.53,0,0,1,240.3,662.3Zm-47.6-1.408a.532.532,0,0,1-.309-.1q-.354-.25-.7-.508a.535.535,0,1,1,.636-.86q.34.251.685.5a.535.535,0,0,1-.31.971Zm51.1-1.03a.535.535,0,0,1-.327-.958q.334-.258.663-.523a.535.535,0,0,1,.67.834q-.337.271-.68.535A.533.533,0,0,1,243.8,659.858Zm-54.464-1.613a.533.533,0,0,1-.351-.131q-.327-.284-.648-.574a.535.535,0,1,1,.717-.793q.313.283.632.561a.535.535,0,0,1-.351.938Zm57.715-1.16a.535.535,0,0,1-.367-.923q.307-.29.609-.586a.535.535,0,1,1,.749.763q-.309.3-.624.6A.533.533,0,0,1,247.054,657.084Zm-60.8-1.8a.533.533,0,0,1-.389-.168q-.3-.314-.588-.635a.535.535,0,0,1,.792-.719q.284.314.574.621a.534.534,0,0,1-.389.9ZM250.016,654a.535.535,0,0,1-.4-.885q.278-.32.549-.643a.535.535,0,1,1,.82.686q-.278.332-.562.659A.533.533,0,0,1,250.016,654Zm-66.535-1.97a.534.534,0,0,1-.424-.208q-.264-.343-.521-.69a.535.535,0,0,1,.858-.637q.252.339.509.674a.534.534,0,0,1-.423.861Zm69.179-1.39a.534.534,0,0,1-.435-.844q.244-.345.482-.694a.535.535,0,0,1,.884.6q-.244.359-.495.712A.533.533,0,0,1,252.66,650.643Zm-71.62-2.116a.534.534,0,0,1-.454-.251q-.228-.366-.45-.737a.535.535,0,0,1,.918-.549q.216.362.44.719a.534.534,0,0,1-.453.818Zm73.919-1.49a.534.534,0,0,1-.464-.8q.209-.367.411-.739a.535.535,0,0,1,.939.511q-.207.381-.422.758A.535.535,0,0,1,254.96,647.037Zm-76-2.24a.534.534,0,0,1-.48-.3q-.191-.386-.375-.777a.535.535,0,0,1,.968-.455q.179.381.366.759a.535.535,0,0,1-.479.771Zm77.928-1.577a.534.534,0,0,1-.488-.752q.172-.386.336-.777a.535.535,0,1,1,.986.414q-.169.4-.345.8A.534.534,0,0,1,256.89,643.219Zm-79.626-2.34a.535.535,0,0,1-.5-.346q-.151-.4-.3-.814a.535.535,0,0,1,1.009-.355q.141.4.289.793a.534.534,0,0,1-.313.688A.525.525,0,0,1,177.264,640.879Zm81.166-1.652a.529.529,0,0,1-.167-.027.535.535,0,0,1-.341-.675q.132-.4.257-.808a.535.535,0,0,1,1.022.314q-.128.416-.263.829A.535.535,0,0,1,258.43,639.227Zm-82.465-2.42a.535.535,0,0,1-.517-.4q-.11-.418-.213-.84a.534.534,0,1,1,1.038-.253q.1.411.208.819a.534.534,0,0,1-.38.654A.543.543,0,0,1,175.964,636.807Zm83.6-1.706a.545.545,0,0,1-.116-.013.534.534,0,0,1-.407-.637c.061-.275.119-.55.174-.827a.535.535,0,0,1,1.049.21q-.085.425-.178.847A.535.535,0,0,1,259.562,635.1Zm-84.484-2.475a.535.535,0,0,1-.527-.45q-.068-.427-.128-.857a.534.534,0,1,1,1.059-.148q.059.418.126.835a.533.533,0,0,1-.529.619Zm85.2-1.739a.535.535,0,0,1-.532-.6q.05-.419.091-.84a.535.535,0,1,1,1.064.1q-.042.432-.093.861A.535.535,0,0,1,260.276,630.888Zm-85.663-2.509a.535.535,0,0,1-.533-.5q-.026-.431-.043-.864a.535.535,0,1,1,1.068-.043q.017.422.042.844a.534.534,0,0,1-.5.565Zm85.956-1.755h-.011a.534.534,0,0,1-.523-.545q.008-.422.008-.845c0-.017,0-.034,0-.051s0-.035,0-.052q0-.423-.01-.844a.535.535,0,0,1,.523-.546.548.548,0,0,1,.546.523c.006.288.01.576.01.866,0,.018,0,.035,0,.052s0,.035,0,.053q0,.434-.009.866A.534.534,0,0,1,260.569,626.624Zm-86-2.52h-.021a.535.535,0,0,1-.514-.555q.017-.433.041-.865a.535.535,0,0,1,1.068.062q-.024.421-.041.843A.535.535,0,0,1,174.567,624.1Zm85.79-2.707a.534.534,0,0,1-.531-.481q-.042-.422-.093-.839a.534.534,0,1,1,1.061-.129q.052.429.1.861a.535.535,0,0,1-.479.586Zm-85.417-1.55a.548.548,0,0,1-.074-.005.535.535,0,0,1-.456-.6q.059-.429.127-.857a.535.535,0,0,1,1.056.167c-.044.279-.085.557-.124.836A.535.535,0,0,1,174.94,619.847Zm84.777-2.675a.535.535,0,0,1-.524-.429q-.084-.414-.176-.825a.535.535,0,0,1,1.044-.234q.094.422.18.847a.534.534,0,0,1-.418.63A.528.528,0,0,1,259.717,617.172Zm-83.984-1.524a.535.535,0,0,1-.52-.66q.1-.422.212-.84a.535.535,0,0,1,1.034.272q-.108.407-.206.818A.535.535,0,0,1,175.733,615.648Zm82.926-2.617a.535.535,0,0,1-.51-.376q-.125-.4-.258-.8a.535.535,0,0,1,1.015-.337q.136.411.264.825a.535.535,0,0,1-.511.693Zm-81.718-1.483a.534.534,0,0,1-.5-.711q.143-.411.3-.817a.535.535,0,0,1,1,.373q-.148.4-.288.8A.534.534,0,0,1,176.941,611.548Zm80.253-2.529a.534.534,0,0,1-.493-.327q-.164-.387-.335-.771a.535.535,0,1,1,.976-.436q.176.394.344.792a.534.534,0,0,1-.492.743Zm-78.639-1.435a.527.527,0,0,1-.226-.051.535.535,0,0,1-.258-.71q.184-.393.375-.782a.535.535,0,1,1,.96.471q-.187.38-.366.764A.535.535,0,0,1,178.555,607.584Zm76.781-2.409a.535.535,0,0,1-.47-.279q-.2-.37-.411-.735a.535.535,0,0,1,.928-.531q.215.375.422.754a.534.534,0,0,1-.213.725A.526.526,0,0,1,255.337,605.175ZM180.558,603.8A.535.535,0,0,1,180.1,603q.222-.373.451-.741a.534.534,0,1,1,.908.565q-.223.359-.44.722A.534.534,0,0,1,180.558,603.8Zm72.548-2.27a.533.533,0,0,1-.442-.233q-.238-.349-.483-.692a.535.535,0,0,1,.871-.621q.251.352.494.709a.535.535,0,0,1-.441.836Zm-70.182-1.292a.535.535,0,0,1-.43-.852q.258-.348.522-.692a.535.535,0,0,1,.847.654q-.258.334-.509.674A.534.534,0,0,1,182.924,600.241Zm67.6-2.113a.535.535,0,0,1-.409-.19q-.271-.323-.55-.642a.535.535,0,0,1,.806-.7q.284.326.562.657a.534.534,0,0,1-.409.878Zm-64.893-1.2a.534.534,0,0,1-.4-.893q.291-.321.587-.636a.534.534,0,1,1,.778.733q-.29.308-.573.621A.533.533,0,0,1,185.631,596.931ZM247.618,595a.533.533,0,0,1-.374-.153q-.3-.3-.609-.584a.534.534,0,1,1,.732-.779q.316.3.626.6a.535.535,0,0,1-.374.917Zm-58.967-1.09a.535.535,0,0,1-.359-.931q.32-.29.646-.574a.534.534,0,1,1,.7.8q-.318.278-.631.561A.532.532,0,0,1,188.651,593.905Zm55.765-1.743a.533.533,0,0,1-.334-.118q-.33-.264-.664-.521a.535.535,0,1,1,.651-.848q.344.265.682.535a.535.535,0,0,1-.335.952Zm-52.462-.969a.535.535,0,0,1-.319-.964q.347-.257.7-.508a.535.535,0,1,1,.62.871q-.344.244-.683.5A.531.531,0,0,1,191.954,591.193Zm49-1.535a.533.533,0,0,1-.291-.086q-.354-.23-.713-.453a.534.534,0,1,1,.564-.908c.246.153.49.307.733.465a.534.534,0,0,1-.292.982Zm-45.443-.837a.535.535,0,0,1-.275-.994q.37-.221.745-.435a.535.535,0,1,1,.531.928q-.366.209-.728.426A.531.531,0,0,1,195.507,588.821Zm41.744-1.31a.533.533,0,0,1-.244-.059q-.376-.193-.757-.381a.535.535,0,1,1,.472-.96q.389.191.775.39a.535.535,0,0,1-.245,1.01Zm-37.974-.7a.535.535,0,0,1-.228-1.018c.26-.122.522-.242.784-.36a.535.535,0,0,1,.436.977q-.385.171-.766.35A.532.532,0,0,1,199.276,586.814Zm34.079-1.072a.531.531,0,0,1-.2-.038q-.393-.156-.791-.3a.535.535,0,1,1,.373-1q.407.151.811.311a.535.535,0,0,1-.2,1.032Zm-30.131-.549a.535.535,0,0,1-.178-1.039q.408-.144.82-.28a.535.535,0,0,1,.335,1.016q-.4.132-.8.273A.529.529,0,0,1,203.224,585.194Zm26.08-.822a.51.51,0,0,1-.146-.021q-.405-.114-.814-.222a.534.534,0,1,1,.27-1.034c.28.073.559.148.836.228a.534.534,0,0,1-.145,1.049Zm-21.984-.4a.535.535,0,0,1-.127-1.054q.42-.1.844-.2a.534.534,0,1,1,.233,1.043q-.413.092-.822.192A.526.526,0,0,1,207.32,583.974Zm17.819-.559a.5.5,0,0,1-.094-.009q-.415-.074-.832-.139a.535.535,0,0,1,.166-1.057q.429.068.855.144a.535.535,0,0,1-.094,1.061Zm-13.622-.245a.535.535,0,0,1-.074-1.064q.429-.06.86-.112a.535.535,0,1,1,.127,1.062q-.42.05-.837.109A.562.562,0,0,1,211.517,583.169Zm9.383-.293-.041,0q-.421-.032-.843-.056a.535.535,0,0,1,.061-1.068q.433.025.864.058a.535.535,0,0,1-.04,1.068Zm-5.126-.092a.535.535,0,0,1-.021-1.069c.287-.012.575-.021.864-.026a.535.535,0,0,1,.022,1.069q-.422.008-.842.026Z" transform="translate(-16.842 -24.96)" fill="#97a7b7"/>
      <rect id="사각형_1134" data-name="사각형 1134" width="38.231" height="47.255" transform="translate(145.139 601.685)" fill="#eef7ff"/>
      <path id="패스_1310" data-name="패스 1310" d="M183.369,733.874H145.139a.534.534,0,0,1-.535-.535V686.084a.535.535,0,0,1,.535-.535h38.231a.535.535,0,0,1,.535.535v47.255A.534.534,0,0,1,183.369,733.874Zm-37.7-1.069h37.161V686.618H145.673Z" transform="translate(0 -84.399)" fill="#97a7b7"/>
      <rect id="사각형_1135" data-name="사각형 1135" width="31.477" height="40.985" transform="translate(148.515 604.82)" fill="#fff"/>
      <path id="패스_1311" data-name="패스 1311" d="M184.511,734.934H153.034a.535.535,0,0,1-.535-.535V693.414a.535.535,0,0,1,.535-.535h31.477a.535.535,0,0,1,.535.535V734.4A.534.534,0,0,1,184.511,734.934Zm-30.943-1.069h30.408V693.948H153.568Z" transform="translate(-4.518 -88.594)" fill="#97a7b7"/>
      <path id="패스_1312" data-name="패스 1312" d="M187.651,711.75a4.691,4.691,0,1,1-4.691-4.691,4.691,4.691,0,0,1,4.691,4.691" transform="translate(-19.266 -96.709)" fill="#fff"/>
      <path id="패스_1313" data-name="패스 1313" d="M182.244,716.261a5.226,5.226,0,1,1,5.226-5.226A5.232,5.232,0,0,1,182.244,716.261Zm0-9.383a4.157,4.157,0,1,0,4.157,4.157A4.161,4.161,0,0,0,182.244,706.878Z" transform="translate(-18.55 -95.994)" fill="#97a7b7"/>
      <path id="패스_1314" data-name="패스 1314" d="M180.434,671.735a4.829,4.829,0,1,0-9.256,0h-4.9a1.485,1.485,0,0,0-1.485,1.485v3.995a1.486,1.486,0,0,0,1.485,1.486h19.062a1.486,1.486,0,0,0,1.486-1.486V673.22a1.486,1.486,0,0,0-1.486-1.485Z" transform="translate(-11.552 -72.943)" fill="#fff"/>
      <path id="패스_1315" data-name="패스 1315" d="M184.622,678.521H165.56a2.022,2.022,0,0,1-2.02-2.02v-4a2.023,2.023,0,0,1,2.02-2.02h4.234a5.353,5.353,0,0,1,1.862-4.96,5.363,5.363,0,0,1,8.732,4.96h4.233a2.023,2.023,0,0,1,2.02,2.02v4A2.023,2.023,0,0,1,184.622,678.521Zm-19.062-6.966a.952.952,0,0,0-.951.951v4a.952.952,0,0,0,.951.951h19.062a.952.952,0,0,0,.951-.951v-4a.952.952,0,0,0-.951-.951h-4.9a.535.535,0,0,1-.513-.686,4.293,4.293,0,0,0-3.3-5.444,4.33,4.33,0,0,0-3.561.922,4.287,4.287,0,0,0-1.366,4.522.535.535,0,0,1-.512.687Z" transform="translate(-10.837 -72.228)" fill="#97a7b7"/>
      <path id="패스_1316" data-name="패스 1316" d="M188.266,713.228h-1.915v-1.915h-1.915v1.915h-1.914v1.915h1.914v1.915h1.915v-1.915h1.915Z" transform="translate(-21.7 -99.144)" fill="#fff"/>
      <rect id="사각형_1136" data-name="사각형 1136" width="2.765" height="2.765" transform="translate(153.001 624.222)" fill="#fff"/>
      <path id="패스_1317" data-name="패스 1317" d="M166.286,742.078h-2.765a.534.534,0,0,1-.535-.535v-2.765a.535.535,0,0,1,.535-.535h2.765a.535.535,0,0,1,.535.535v2.765A.534.534,0,0,1,166.286,742.078Zm-2.23-1.069h1.7v-1.7h-1.7Z" transform="translate(-10.52 -114.556)" fill="#97a7b7"/>
      <line id="선_232" data-name="선 232" x2="16.635" transform="translate(159.228 625.605)" fill="#fff"/>
      <path id="패스_1318" data-name="패스 1318" d="M194.716,742.546H178.081a.535.535,0,1,1,0-1.069h16.635a.535.535,0,1,1,0,1.069Z" transform="translate(-18.853 -116.407)" fill="#97a7b7"/>
      <rect id="사각형_1137" data-name="사각형 1137" width="2.765" height="2.765" transform="translate(153.001 630.974)" fill="#fff"/>
      <path id="패스_1319" data-name="패스 1319" d="M166.286,757.864h-2.765a.534.534,0,0,1-.535-.535v-2.765a.534.534,0,0,1,.535-.535h2.765a.534.534,0,0,1,.535.535v2.765A.534.534,0,0,1,166.286,757.864Zm-2.23-1.069h1.7v-1.7h-1.7Z" transform="translate(-10.52 -123.591)" fill="#97a7b7"/>
      <line id="선_233" data-name="선 233" x2="16.635" transform="translate(159.228 632.357)" fill="#fff"/>
      <path id="패스_1320" data-name="패스 1320" d="M194.716,758.332H178.081a.535.535,0,0,1,0-1.069h16.635a.535.535,0,0,1,0,1.069Z" transform="translate(-18.853 -125.441)" fill="#97a7b7"/>
      <rect id="사각형_1138" data-name="사각형 1138" width="2.765" height="2.765" transform="translate(153.001 637.726)" fill="#fff"/>
      <path id="패스_1321" data-name="패스 1321" d="M166.286,773.65h-2.765a.534.534,0,0,1-.535-.535v-2.765a.534.534,0,0,1,.535-.535h2.765a.534.534,0,0,1,.535.535v2.765A.534.534,0,0,1,166.286,773.65Zm-2.23-1.069h1.7v-1.7h-1.7Z" transform="translate(-10.52 -132.625)" fill="#97a7b7"/>
      <line id="선_234" data-name="선 234" x2="16.635" transform="translate(159.228 639.108)" fill="#fff"/>
      <path id="패스_1322" data-name="패스 1322" d="M194.716,774.118H178.081a.535.535,0,1,1,0-1.069h16.635a.535.535,0,1,1,0,1.069Z" transform="translate(-18.853 -134.475)" fill="#97a7b7"/>
      <path id="패스_1323" data-name="패스 1323" d="M169.317,627.858a9.609,9.609,0,1,1-9.61-9.609,9.61,9.61,0,0,1,9.61,9.609" transform="translate(-3.144 -45.883)" fill="#fff"/>
      <line id="선_235" data-name="선 235" y1="3.182" transform="translate(156.563 575.582)" fill="#fff"/>
      <path id="패스_1324" data-name="패스 1324" d="M171.851,628.769a.534.534,0,0,1-.535-.535v-3.181a.535.535,0,0,1,1.069,0v3.181A.535.535,0,0,1,171.851,628.769Z" transform="translate(-15.287 -49.472)" fill="#3e5672"/>
      <line id="선_236" data-name="선 236" x1="2.25" y1="2.25" transform="translate(152.042 577.454)" fill="#fff"/>
      <path id="패스_1325" data-name="패스 1325" d="M163.531,632.215a.533.533,0,0,1-.378-.157l-2.25-2.25a.535.535,0,0,1,.756-.756l2.251,2.25a.534.534,0,0,1-.378.912Z" transform="translate(-9.238 -51.977)" fill="#3e5672"/>
      <line id="선_237" data-name="선 237" x1="3.182" transform="translate(150.17 581.975)" fill="#fff"/>
      <path id="패스_1326" data-name="패스 1326" d="M160.085,640.535H156.9a.535.535,0,0,1,0-1.069h3.182a.535.535,0,0,1,0,1.069Z" transform="translate(-6.733 -58.026)" fill="#3e5672"/>
      <line id="선_238" data-name="선 238" x1="2.25" y2="2.25" transform="translate(152.042 584.246)" fill="#fff"/>
      <path id="패스_1327" data-name="패스 1327" d="M161.281,648.094a.534.534,0,0,1-.378-.912l2.25-2.25a.535.535,0,0,1,.756.756l-2.251,2.25A.533.533,0,0,1,161.281,648.094Z" transform="translate(-9.238 -61.064)" fill="#3e5672"/>
      <line id="선_239" data-name="선 239" y2="3.182" transform="translate(156.563 585.186)" fill="#fff"/>
      <path id="패스_1328" data-name="패스 1328" d="M171.851,651.225a.534.534,0,0,1-.535-.535v-3.182a.535.535,0,0,1,1.069,0v3.182A.535.535,0,0,1,171.851,651.225Z" transform="translate(-15.287 -62.323)" fill="#3e5672"/>
      <line id="선_240" data-name="선 240" x2="2.25" y2="2.25" transform="translate(158.834 584.246)" fill="#fff"/>
      <path id="패스_1329" data-name="패스 1329" d="M179.409,648.094a.533.533,0,0,1-.378-.156l-2.25-2.25a.535.535,0,0,1,.756-.756l2.25,2.25a.534.534,0,0,1-.378.912Z" transform="translate(-18.326 -61.064)" fill="#3e5672"/>
      <line id="선_241" data-name="선 241" x2="3.182" transform="translate(159.774 581.975)" fill="#fff"/>
      <path id="패스_1330" data-name="패스 1330" d="M182.54,640.535h-3.182a.535.535,0,0,1,0-1.069h3.182a.535.535,0,0,1,0,1.069Z" transform="translate(-19.584 -58.026)" fill="#3e5672"/>
      <line id="선_242" data-name="선 242" y1="2.25" x2="2.25" transform="translate(158.834 577.454)" fill="#fff"/>
      <path id="패스_1331" data-name="패스 1331" d="M177.16,632.215a.534.534,0,0,1-.378-.912l2.25-2.25a.535.535,0,0,1,.756.756l-2.25,2.25A.533.533,0,0,1,177.16,632.215Z" transform="translate(-18.326 -51.977)" fill="#3e5672"/>
      <path id="패스_1332" data-name="패스 1332" d="M382.076,780.49a5.176,5.176,0,1,1-5.176-5.176,5.176,5.176,0,0,1,5.176,5.176" transform="translate(-129.98 -135.771)" fill="#fff"/>
      <path id="패스_1333" data-name="패스 1333" d="M383.195,784.919a1.866,1.866,0,1,1-1.866-1.866,1.866,1.866,0,0,1,1.866,1.866" transform="translate(-134.409 -140.2)" fill="#fff"/>
      <path id="패스_1334" data-name="패스 1334" d="M380.613,786.6a2.4,2.4,0,1,1,2.4-2.4A2.4,2.4,0,0,1,380.613,786.6Zm0-3.732a1.331,1.331,0,1,0,1.331,1.331A1.333,1.333,0,0,0,380.613,782.872Z" transform="translate(-133.693 -139.485)" fill="#3e5672"/>
      <path id="패스_1335" data-name="패스 1335" d="M457.973,620.124a5.453,5.453,0,1,1-5.453-5.454,5.453,5.453,0,0,1,5.453,5.454" transform="translate(-173.098 -43.835)" fill="#fff"/>
      <line id="선_243" data-name="선 243" y1="1.884" transform="translate(279.421 572.504)" fill="#fff"/>
      <path id="패스_1336" data-name="패스 1336" d="M459.1,620.276a.534.534,0,0,1-.535-.535v-1.884a.535.535,0,1,1,1.069,0v1.884A.535.535,0,0,1,459.1,620.276Z" transform="translate(-179.68 -45.353)" fill="#3e5672"/>
      <line id="선_244" data-name="선 244" x1="1.884" transform="translate(275.637 576.289)" fill="#fff"/>
      <path id="패스_1337" data-name="패스 1337" d="M452.136,627.24h-1.884a.535.535,0,1,1,0-1.069h1.884a.535.535,0,1,1,0,1.069Z" transform="translate(-174.616 -50.417)" fill="#3e5672"/>
      <line id="선_245" data-name="선 245" y2="1.884" transform="translate(279.421 578.189)" fill="#fff"/>
      <path id="패스_1338" data-name="패스 1338" d="M459.1,633.568a.534.534,0,0,1-.535-.535V631.15a.535.535,0,1,1,1.069,0v1.884A.535.535,0,0,1,459.1,633.568Z" transform="translate(-179.68 -52.96)" fill="#3e5672"/>
      <line id="선_246" data-name="선 246" x2="1.884" transform="translate(281.322 576.289)" fill="#fff"/>
      <path id="패스_1339" data-name="패스 1339" d="M465.429,627.24h-1.884a.535.535,0,1,1,0-1.069h1.884a.535.535,0,1,1,0,1.069Z" transform="translate(-182.224 -50.417)" fill="#3e5672"/>
      <path id="패스_1340" data-name="패스 1340" d="M295.389,684.272h-82.4a3.827,3.827,0,0,1-3.827-3.827V626.151a3.827,3.827,0,0,1,3.827-3.827h82.4a3.827,3.827,0,0,1,3.827,3.827v54.294a3.827,3.827,0,0,1-3.827,3.827" transform="translate(-36.946 -48.216)" fill="#fff"/>
      <path id="패스_1341" data-name="패스 1341" d="M294.674,684.091h-82.4a4.367,4.367,0,0,1-4.362-4.362V625.436a4.367,4.367,0,0,1,4.362-4.362h82.4a4.367,4.367,0,0,1,4.361,4.362v54.293A4.366,4.366,0,0,1,294.674,684.091Zm-82.4-61.948a3.3,3.3,0,0,0-3.292,3.293v54.293a3.3,3.3,0,0,0,3.292,3.292h82.4a3.3,3.3,0,0,0,3.292-3.292V625.436a3.3,3.3,0,0,0-3.292-3.293Z" transform="translate(-36.231 -47.5)" fill="#3e5672"/>
      <path id="사각형_1139" data-name="사각형 1139" d="M.945,0H82.264a.945.945,0,0,1,.945.945V54.156a.946.946,0,0,1-.946.946H.945A.945.945,0,0,1,0,54.157V.945A.945.945,0,0,1,.945,0Z" transform="translate(175.639 577.531)" fill="#cee6fe"/>
      <path id="패스_1342" data-name="패스 1342" d="M299.254,685.248h-82.4a.94.94,0,0,1-.939-.939V630.016a.94.94,0,0,1,.939-.939h82.4a.94.94,0,0,1,.939.939V684.31A.94.94,0,0,1,299.254,685.248Zm-82.27-1.069h82.14V630.146h-82.14Z" transform="translate(-40.811 -52.08)" fill="#3e5672"/>
      <line id="선_247" data-name="선 247" x2="57.224" transform="translate(188.631 614.148)" fill="#cee6fe"/>
      <path id="패스_1343" data-name="패스 1343" d="M304.052,715.758H246.828a.535.535,0,1,1,0-1.069h57.224a.535.535,0,0,1,0,1.069Z" transform="translate(-58.196 -101.076)" fill="#3e5672"/>
      <line id="선_248" data-name="선 248" y1="0.567" transform="translate(217.205 578.37)" fill="#cee6fe"/>
      <path id="패스_1344" data-name="패스 1344" d="M305.012,733.036H273.5a3.07,3.07,0,1,1,0-6.139h31.515a3.07,3.07,0,1,1,0,6.139" transform="translate(-72.009 -108.062)" fill="#fff"/>
      <path id="패스_1345" data-name="패스 1345" d="M304.3,732.855H272.782a3.6,3.6,0,1,1,0-7.208H304.3a3.6,3.6,0,1,1,0,7.208Zm-31.515-6.139a2.535,2.535,0,1,0,0,5.07H304.3a2.535,2.535,0,1,0,0-5.07Z" transform="translate(-71.293 -107.347)" fill="#3e5672"/>
      <path id="패스_1346" data-name="패스 1346" d="M311.979,784.487H297.463l1.213-17.324h12.09Z" transform="translate(-87.481 -131.107)" fill="#fff"/>
      <path id="패스_1347" data-name="패스 1347" d="M311.264,784.306H296.748a.535.535,0,0,1-.533-.572l1.213-17.324a.535.535,0,0,1,.533-.5h12.09a.535.535,0,0,1,.533.5l1.213,17.324a.534.534,0,0,1-.533.572Zm-13.943-1.069H310.69l-1.138-16.255H298.459Z" transform="translate(-86.766 -130.391)" fill="#3e5672"/>
      <path id="패스_1348" data-name="패스 1348" d="M308.066,802.79H270.4a3.645,3.645,0,0,1,3.645-3.645h30.375a3.645,3.645,0,0,1,3.645,3.645" transform="translate(-71.993 -149.41)" fill="#fff"/>
      <path id="패스_1349" data-name="패스 1349" d="M307.351,802.61H269.685a.534.534,0,0,1-.535-.535,4.185,4.185,0,0,1,4.18-4.18h30.375a4.185,4.185,0,0,1,4.18,4.18A.534.534,0,0,1,307.351,802.61Zm-37.086-1.069H306.77a3.116,3.116,0,0,0-3.065-2.576H273.33A3.116,3.116,0,0,0,270.265,801.54Z" transform="translate(-71.277 -148.695)" fill="#3e5672"/>
      <path id="패스_1350" data-name="패스 1350" d="M379.707,594.748a3.481,3.481,0,1,1-3.481-3.481,3.481,3.481,0,0,1,3.481,3.481" transform="translate(-130.565 -30.442)" fill="#fff"/>
      <path id="패스_1351" data-name="패스 1351" d="M375.511,598.048a4.016,4.016,0,1,1,4.015-4.016A4.02,4.02,0,0,1,375.511,598.048Zm0-6.962a2.946,2.946,0,1,0,2.946,2.946A2.95,2.95,0,0,0,375.511,591.086Z" transform="translate(-129.849 -29.726)" fill="#fc5d5b"/>
      <path id="패스_1352" data-name="패스 1352" d="M356.322,543.809a23.683,23.683,0,0,0-17.723,7.978,2.531,2.531,0,0,0,.111,3.467,2.494,2.494,0,0,0,3.615-.05,18.659,18.659,0,0,1,27.995,0,2.494,2.494,0,0,0,3.615.05h0a2.532,2.532,0,0,0,.111-3.467,23.682,23.682,0,0,0-17.723-7.978" transform="translate(-110.661 -3.282)" fill="#fff"/>
      <path id="패스_1353" data-name="패스 1353" d="M339.8,555.824a3.107,3.107,0,0,1-2.189-.907,3.063,3.063,0,0,1-.132-4.2,24.209,24.209,0,0,1,36.244,0,3.064,3.064,0,0,1-.132,4.2,3.1,3.1,0,0,1-2.283.906,2.909,2.909,0,0,1-2.11-.98,18.124,18.124,0,0,0-27.194,0,2.907,2.907,0,0,1-2.111.98Zm15.8-8.191a19.244,19.244,0,0,1,14.4,6.5,1.848,1.848,0,0,0,1.343.62,2.075,2.075,0,0,0,1.494-.593,1.994,1.994,0,0,0,.09-2.734,23.139,23.139,0,0,0-34.648,0,1.993,1.993,0,0,0,.09,2.734,2.044,2.044,0,0,0,1.494.593,1.848,1.848,0,0,0,1.343-.62A19.245,19.245,0,0,1,355.606,547.633Z" transform="translate(-109.944 -2.566)" fill="#fc5d5b"/>
      <path id="패스_1354" data-name="패스 1354" d="M365.913,567.537a13.6,13.6,0,0,0-10.681,5.181,2.5,2.5,0,0,0,.245,3.293l.04.04a2.5,2.5,0,0,0,3.726-.19,8.468,8.468,0,0,1,13.338,0,2.5,2.5,0,0,0,3.726.19l.04-.041a2.5,2.5,0,0,0,.245-3.293,13.6,13.6,0,0,0-10.68-5.181" transform="translate(-120.251 -16.861)" fill="#fff"/>
      <path id="패스_1355" data-name="패스 1355" d="M373.8,576.613c-.06,0-.12,0-.18-.005a2.994,2.994,0,0,1-2.174-1.131,7.934,7.934,0,0,0-12.5,0,2.993,2.993,0,0,1-2.175,1.13,3.062,3.062,0,0,1-2.348-.893l-.039-.039a3.017,3.017,0,0,1-.287-4,14.133,14.133,0,0,1,22.2,0,3.017,3.017,0,0,1-.286,4l-.039.039A3.071,3.071,0,0,1,373.8,576.613Zm-8.6-5.251a8.986,8.986,0,0,1,7.088,3.453,1.9,1.9,0,0,0,1.4.725,1.985,1.985,0,0,0,1.53-.582l.039-.04a1.972,1.972,0,0,0,.2-2.584,13.063,13.063,0,0,0-20.522,0,1.973,1.973,0,0,0,.2,2.583l.039.039a2.009,2.009,0,0,0,1.531.583,1.9,1.9,0,0,0,1.4-.725A8.985,8.985,0,0,1,365.192,571.362Z" transform="translate(-119.53 -16.146)" fill="#fc5d5b"/>
      <path id="패스_1356" data-name="패스 1356" d="M380.233,657.647c-.093.082-.178.167-.266.255l-1.461,1.461a1.246,1.246,0,1,1-1.762-1.762l1.461-1.461c.088-.088.172-.172.254-.266Z" transform="translate(-132.645 -67.416)" fill="#cee6fe"/>
      <path id="패스_1357" data-name="패스 1357" d="M445.846,587.65,441.9,583.7a1.388,1.388,0,0,0-1.964,0l-2.442,2.442,5.912,5.912,2.442-2.442a1.388,1.388,0,0,0,0-1.964" transform="translate(-167.619 -25.879)" fill="#cee6fe"/>
      <path id="패스_1358" data-name="패스 1358" d="M442.688,591.874a.531.531,0,0,1-.378-.157l-5.912-5.912a.534.534,0,0,1,0-.756l2.442-2.442a1.922,1.922,0,0,1,2.719,0l3.949,3.948a1.925,1.925,0,0,1,0,2.719l-2.443,2.442A.532.532,0,0,1,442.688,591.874Zm-5.156-6.447,5.156,5.156,2.065-2.064a.855.855,0,0,0,0-1.207l-3.948-3.949a.874.874,0,0,0-1.207,0Z" transform="translate(-166.904 -25.163)" fill="#3e5672"/>
      <path id="패스_1359" data-name="패스 1359" d="M174.456,539.325h33.827a6.439,6.439,0,0,1,6.439,6.439v18.6a6.439,6.439,0,0,1-6.439,6.439h-2.739l3.809,10.4-12.521-10.4H174.456a6.439,6.439,0,0,1-6.439-6.439v-18.6a6.439,6.439,0,0,1,6.439-6.439" transform="translate(-13.399 -0.715)" fill="#fff"/>
      <path id="패스_1360" data-name="패스 1360" d="M208.638,581.027a.534.534,0,0,1-.342-.123l-12.372-10.279H173.741a6.982,6.982,0,0,1-6.974-6.974v-18.6a6.982,6.982,0,0,1,6.974-6.974h33.827a6.982,6.982,0,0,1,6.974,6.974v18.6a6.982,6.982,0,0,1-6.974,6.974h-1.974l3.546,9.684a.534.534,0,0,1-.5.718Zm-34.9-41.882a5.911,5.911,0,0,0-5.9,5.9v18.6a5.911,5.911,0,0,0,5.9,5.9h22.376a.539.539,0,0,1,.342.123l10.995,9.135-3.127-8.539a.535.535,0,0,1,.5-.719h2.739a5.911,5.911,0,0,0,5.9-5.9v-18.6a5.911,5.911,0,0,0-5.9-5.9Z" transform="translate(-12.684)" fill="#3e5672"/>
      <line id="선_249" data-name="선 249" x2="15.133" transform="translate(179.544 545.473)" fill="#fff"/>
      <path id="패스_1361" data-name="패스 1361" d="M240.715,555.191H225.582a.535.535,0,1,1,0-1.069h15.133a.535.535,0,1,1,0,1.069Z" transform="translate(-46.037 -9.184)" fill="#97a7b7"/>
      <line id="선_250" data-name="선 250" x2="3.582" transform="translate(172.678 545.473)" fill="#fff"/>
      <path id="패스_1362" data-name="패스 1362" d="M213.109,555.191h-3.582a.535.535,0,1,1,0-1.069h3.582a.535.535,0,1,1,0,1.069Z" transform="translate(-36.849 -9.184)" fill="#97a7b7"/>
      <line id="선_251" data-name="선 251" x2="8.055" transform="translate(161.861 545.473)" fill="#fff"/>
      <path id="패스_1363" data-name="패스 1363" d="M192.291,555.191h-8.055a.535.535,0,1,1,0-1.069h8.055a.535.535,0,1,1,0,1.069Z" transform="translate(-22.375 -9.184)" fill="#97a7b7"/>
      <line id="선_252" data-name="선 252" x2="32.817" transform="translate(161.861 550.03)" fill="#fff"/>
      <path id="패스_1364" data-name="패스 1364" d="M217.052,565.845H184.236a.535.535,0,0,1,0-1.069h32.817a.535.535,0,0,1,0,1.069Z" transform="translate(-22.375 -15.281)" fill="#97a7b7"/>
      <line id="선_253" data-name="선 253" x2="6.41" transform="translate(188.267 554.586)" fill="#fff"/>
      <path id="패스_1365" data-name="패스 1365" d="M252.387,576.5h-6.41a.535.535,0,1,1,0-1.069h6.41a.535.535,0,1,1,0,1.069Z" transform="translate(-57.709 -21.378)" fill="#97a7b7"/>
      <line id="선_254" data-name="선 254" x2="23.538" transform="translate(161.861 554.586)" fill="#fff"/>
      <path id="패스_1366" data-name="패스 1366" d="M207.774,576.5H184.236a.535.535,0,0,1,0-1.069h23.538a.535.535,0,1,1,0,1.069Z" transform="translate(-22.375 -21.378)" fill="#97a7b7"/>
      <line id="선_255" data-name="선 255" x2="20.62" transform="translate(174.058 559.143)" fill="#fff"/>
      <path id="패스_1367" data-name="패스 1367" d="M233.373,587.152H212.754a.535.535,0,1,1,0-1.069h20.619a.535.535,0,1,1,0,1.069Z" transform="translate(-38.696 -27.475)" fill="#97a7b7"/>
      <line id="선_256" data-name="선 256" x2="8.976" transform="translate(161.861 559.143)" fill="#fff"/>
      <path id="패스_1368" data-name="패스 1368" d="M193.211,587.152h-8.976a.535.535,0,1,1,0-1.069h8.976a.535.535,0,1,1,0,1.069Z" transform="translate(-22.375 -27.475)" fill="#97a7b7"/>
      <line id="선_257" data-name="선 257" x2="32.817" transform="translate(161.861 563.699)" fill="#fff"/>
      <path id="패스_1369" data-name="패스 1369" d="M217.052,597.806H184.236a.535.535,0,0,1,0-1.069h32.817a.535.535,0,1,1,0,1.069Z" transform="translate(-22.375 -33.572)" fill="#97a7b7"/>
      <path id="패스_1370" data-name="패스 1370" d="M454.312,742.3h0a3.59,3.59,0,0,1,3.59,3.59v24.318h-7.18V745.891a3.59,3.59,0,0,1,3.59-3.59" transform="translate(-175.191 -116.878)" fill="#eef7ff"/>
      <path id="패스_1371" data-name="패스 1371" d="M457.187,770.028h-7.18a.535.535,0,0,1-.535-.535V745.176a4.125,4.125,0,1,1,8.25,0v24.317A.535.535,0,0,1,457.187,770.028Zm-6.646-1.069h6.111V745.176a3.056,3.056,0,1,0-6.111,0Z" transform="translate(-174.475 -116.163)" fill="#97a7b7"/>
      <path id="패스_1372" data-name="패스 1372" d="M432.456,702.3h0a3.59,3.59,0,0,1,3.59,3.59v41.425h-7.18V705.891a3.59,3.59,0,0,1,3.59-3.59" transform="translate(-162.683 -93.986)" fill="#eef7ff"/>
      <path id="패스_1373" data-name="패스 1373" d="M435.331,747.136h-7.18a.535.535,0,0,1-.535-.535V705.176a4.125,4.125,0,1,1,8.25,0V746.6A.535.535,0,0,1,435.331,747.136Zm-6.646-1.069H434.8V705.176a3.055,3.055,0,1,0-6.111,0Z" transform="translate(-161.967 -93.271)" fill="#97a7b7"/>
      <path id="패스_1374" data-name="패스 1374" d="M410.6,722.3h0a3.59,3.59,0,0,1,3.59,3.59v32.871h-7.18V725.891a3.59,3.59,0,0,1,3.59-3.59" transform="translate(-150.174 -105.432)" fill="#eef7ff"/>
      <path id="패스_1375" data-name="패스 1375" d="M413.475,758.582h-7.18a.535.535,0,0,1-.535-.535V725.176a4.125,4.125,0,1,1,8.249,0v32.871A.535.535,0,0,1,413.475,758.582Zm-6.646-1.069h6.111V725.176a3.055,3.055,0,1,0-6.111,0Z" transform="translate(-149.459 -104.717)" fill="#97a7b7"/>
      <path id="패스_1376" data-name="패스 1376" d="M178.192,768.7a4.186,4.186,0,1,1-4.186-4.186,4.186,4.186,0,0,1,4.186,4.186" transform="translate(-14.431 -129.589)" fill="#fff"/>
      <path id="패스_1377" data-name="패스 1377" d="M173.291,772.7a4.721,4.721,0,1,1,4.721-4.721A4.726,4.726,0,0,1,173.291,772.7Zm0-8.372a3.652,3.652,0,1,0,3.652,3.652A3.655,3.655,0,0,0,173.291,764.33Z" transform="translate(-13.716 -128.874)" fill="#3e5672"/>
      <line id="선_258" data-name="선 258" y2="4.739" transform="translate(159.575 636.739)" fill="#fff"/>
      <path id="패스_1378" data-name="패스 1378" d="M178.892,773.317a.535.535,0,0,1-.535-.535v-4.739a.535.535,0,1,1,1.069,0v4.739A.534.534,0,0,1,178.892,773.317Z" transform="translate(-19.317 -131.305)" fill="#3e5672"/>
      <path id="패스_1379" data-name="패스 1379" d="M446.608,671.636v-3.751a2.622,2.622,0,0,1,2.623-2.623h4.7a2.623,2.623,0,0,0,0-5.245h-14.05a2.622,2.622,0,0,1-2.622-2.622v-.219a2.622,2.622,0,0,1,2.622-2.622h4.4a2.623,2.623,0,0,0,2.623-2.623v-4.043" transform="translate(-167.486 -62.845)" fill="#fff"/>
      <path id="패스_1380" data-name="패스 1380" d="M445.893,671.454a.534.534,0,0,1-.535-.535v-3.751a3.161,3.161,0,0,1,3.157-3.157h4.7a2.088,2.088,0,0,0,0-4.177h-14.05a3.16,3.16,0,0,1-3.157-3.156v-.219a3.16,3.16,0,0,1,3.157-3.157h4.4a2.091,2.091,0,0,0,2.088-2.088v-4.043a.535.535,0,0,1,1.069,0v4.043a3.161,3.161,0,0,1-3.157,3.157h-4.4a2.09,2.09,0,0,0-2.088,2.088v.219a2.09,2.09,0,0,0,2.088,2.087h14.05a3.157,3.157,0,0,1,0,6.315h-4.7a2.09,2.09,0,0,0-2.088,2.088v3.751A.535.535,0,0,1,445.893,671.454Z" transform="translate(-166.771 -62.13)" fill="#3e5672"/>
      <text id="Quiz" transform="translate(193.732 606.41)" fill="#3e5672" stroke="#3e5672" stroke-miterlimit="10" stroke-width="1" font-size="23" font-family="Bahnschrift-SemiBold, Bahnschrift" font-weight="600"><tspan x="0" y="0">Quiz</tspan></text>
    </g>
  </g>
</svg>
