<svg width="169" height="229" viewBox="0 0 169 229" fill="none" xmlns="http://www.w3.org/2000/svg">
<g clip-path="url(#clip0_32_1383)">
<ellipse cx="79.5" cy="224.5" rx="38.5" ry="6.5" fill="#D9D9D9"/>
<path d="M73.7463 163.556C76.4232 181.364 77.8084 199.343 77.8911 217.352C77.9951 218.6 77.7934 219.855 77.3037 221.008C76.0518 223.395 72.4805 224.315 72.0699 226.974L95.9139 224.5C96.9151 224.498 97.8913 224.186 98.7092 223.606C99.4526 222.762 99.8731 221.681 99.8958 220.554L108.539 156.537C108.629 155.87 107.709 154.986 107.62 155.653" fill="#24221E"/>
<path d="M71.8084 164.092C73.1589 173.102 74.1732 182.172 74.8513 191.301C75.1957 195.921 75.454 200.545 75.6262 205.175C75.712 207.469 75.7763 209.764 75.8192 212.058C75.861 214.284 75.9682 216.538 75.8503 218.764C75.8509 218.935 75.8282 219.106 75.7827 219.271C75.7317 219.528 75.6578 219.78 75.5619 220.024C75.548 220.052 75.384 220.3 75.3176 220.409C75.2983 220.442 75.1332 220.653 75.2822 220.465C75.4312 220.277 75.2104 220.54 75.175 220.573C74.8908 220.874 74.5895 221.159 74.2725 221.425C74.1225 221.551 73.967 221.674 73.8138 221.795C73.6337 221.938 73.8642 221.757 73.8856 221.741L73.6176 221.946C72.0935 223.123 70.4911 224.42 70.1267 226.441C69.9123 227.595 70.654 229.14 72.0645 228.995L92.4636 226.88C94.1378 226.707 95.8603 226.626 97.5141 226.307C98.349 226.166 99.1342 225.814 99.7955 225.284C100.457 224.753 100.972 224.062 101.293 223.276C101.771 221.796 102.059 220.26 102.151 218.707L102.833 213.659C104.668 200.068 106.503 186.476 108.337 172.884C108.852 169.077 109.366 165.269 109.88 161.462C110.006 160.53 110.132 159.601 110.257 158.674C110.522 157.669 110.577 156.621 110.42 155.594C110.282 155.112 110.031 154.67 109.688 154.306C109.345 153.941 108.919 153.665 108.447 153.499C108.159 153.418 107.857 153.396 107.56 153.435C107.263 153.473 106.977 153.571 106.719 153.722C106.46 153.874 106.235 154.076 106.056 154.317C105.877 154.557 105.748 154.832 105.677 155.123C105.535 155.639 105.603 156.191 105.866 156.656C106.129 157.122 106.566 157.464 107.08 157.606C107.594 157.749 108.143 157.681 108.607 157.417C109.071 157.153 109.412 156.715 109.554 156.199L109.426 156.493L108.706 157.216L108.768 157.175L107.754 157.451C107.394 157.435 107.047 157.304 106.766 157.076C106.715 157.025 106.523 156.55 106.564 156.739C106.64 157.093 106.671 155.914 106.543 156.409C106.5 156.628 106.47 156.849 106.453 157.072C106.346 157.87 106.239 158.667 106.132 159.463C105.924 161.013 105.715 162.563 105.505 164.112L104.231 173.542L101.721 192.137L99.1744 210.997C98.7585 214.072 98.3705 217.153 97.9279 220.225C97.886 220.522 97.8389 220.819 97.7735 221.112C97.7456 221.243 97.7135 221.372 97.6781 221.501C97.6535 221.581 97.5088 221.98 97.6449 221.664C97.5915 221.781 97.531 221.895 97.4637 222.004C97.4262 222.073 97.2322 222.268 97.4262 222.055C97.4059 222.077 97.1679 222.3 97.3555 222.127C97.154 222.227 97.11 222.256 97.2236 222.215C97.3373 222.174 97.289 222.194 97.0725 222.268C95.7745 222.548 94.4556 222.72 93.1293 222.782L72.0667 224.965L74.0046 227.517C74.0324 227.361 74.0796 227.211 74.1117 227.057C74.1825 226.723 74.1214 227.029 74.0785 227.111C74.115 227.044 74.145 226.974 74.1857 226.909C74.2264 226.845 74.4665 226.46 74.3229 226.667C74.1793 226.875 74.3229 226.667 74.3561 226.63C74.4451 226.534 74.5308 226.434 74.623 226.34C74.8495 226.11 75.0885 225.892 75.339 225.688C75.488 225.563 75.6413 225.443 75.7935 225.322C75.4923 225.561 75.8835 225.253 75.9864 225.175C77.5729 224.154 78.8047 222.664 79.5116 220.911C79.823 219.794 79.9547 218.635 79.9018 217.476C79.9018 216.334 79.8868 215.193 79.8707 214.051C79.8393 211.713 79.786 209.375 79.711 207.039C79.4102 197.691 78.7578 188.363 77.7538 179.055C77.1772 173.699 76.4873 168.358 75.6841 163.03C75.5394 162.517 75.1989 162.081 74.7363 161.817C74.2736 161.554 73.7262 161.484 73.2125 161.623C72.7056 161.776 72.2771 162.119 72.0158 162.58C71.7545 163.042 71.6806 163.587 71.8094 164.103" fill="#24221E"/>
<path d="M51.0053 158.899C53.6822 176.707 55.0674 194.687 55.1501 212.696C55.253 213.945 55.051 215.2 54.5616 216.352C53.3108 218.738 49.7384 219.658 49.3279 222.317L73.1729 219.843C74.1741 219.841 75.1503 219.529 75.9683 218.95C76.7115 218.106 77.1319 217.025 77.1548 215.899L85.798 151.88C85.8881 151.213 84.9684 150.33 84.8795 150.997" fill="#24221E"/>
<path d="M49.0673 159.435C50.4193 168.445 51.434 177.515 52.1114 186.645C52.4551 191.263 52.7134 195.888 52.8863 200.518C52.972 202.813 53.0363 205.107 53.0792 207.401C53.12 209.629 53.2282 211.883 53.1092 214.108C53.1109 214.279 53.0885 214.45 53.0428 214.614C52.9918 214.872 52.9176 215.124 52.8209 215.367C52.8081 215.395 52.643 215.643 52.5776 215.752C52.5583 215.786 52.3932 215.996 52.5422 215.808C52.6912 215.62 52.4704 215.884 52.4351 215.916C52.1506 216.217 51.8492 216.502 51.5326 216.769C51.3814 216.894 51.2271 217.016 51.0727 217.139C50.8937 217.281 51.1242 217.099 51.1456 217.083L50.8777 217.289C49.3525 218.466 47.7511 219.763 47.3867 221.785C47.1777 222.939 47.9141 224.483 49.3235 224.337L69.7237 222.222C71.3979 222.049 73.1193 221.97 74.7742 221.65C75.6089 221.509 76.394 221.157 77.0552 220.627C77.7164 220.096 78.2317 219.406 78.5524 218.62C79.0304 217.139 79.3185 215.603 79.4098 214.05L80.0915 209.003L85.5965 168.227C86.1109 164.42 86.625 160.612 87.1388 156.804C87.2653 155.872 87.3907 154.943 87.515 154.016C87.7801 153.012 87.8356 151.964 87.678 150.938C87.5409 150.455 87.2901 150.013 86.9469 149.648C86.6036 149.283 86.178 149.007 85.7058 148.842C85.4175 148.761 85.116 148.739 84.8191 148.777C84.5222 148.815 84.236 148.913 83.9776 149.065C83.7192 149.216 83.4938 149.419 83.3149 149.66C83.136 149.9 83.0072 150.175 82.9362 150.467C82.8658 150.722 82.8462 150.989 82.8786 151.252C82.911 151.515 82.9946 151.769 83.1248 151.999C83.255 152.23 83.4291 152.432 83.6373 152.595C83.8455 152.758 84.0836 152.878 84.3381 152.949C84.5926 153.019 84.8585 153.039 85.1205 153.007C85.3826 152.974 85.6357 152.89 85.8654 152.76C86.0951 152.629 86.2969 152.454 86.4593 152.245C86.6217 152.036 86.7415 151.797 86.8119 151.542L86.6854 151.835L85.9641 152.558L86.0273 152.519L85.0123 152.794C84.6521 152.777 84.3064 152.646 84.0251 152.42C83.9737 152.368 83.7818 151.893 83.8226 152.082C83.8987 152.436 83.9297 151.257 83.8011 151.752C83.7586 151.971 83.7289 152.193 83.7122 152.415C83.6043 153.213 83.4971 154.01 83.3906 154.806L82.7636 159.454L81.4903 168.885L78.9833 187.476L76.4366 206.337C76.0207 209.412 75.6327 212.493 75.19 215.564C75.1472 215.862 75.1011 216.159 75.0357 216.452C75.0068 216.583 74.9757 216.712 74.9392 216.84C74.9156 216.921 74.7709 217.319 74.9071 217.003C74.854 217.12 74.7935 217.234 74.7259 217.344C74.6863 217.412 74.4933 217.607 74.6884 217.395C74.6681 217.417 74.429 217.64 74.6177 217.467C74.4162 217.566 74.3722 217.596 74.4848 217.555C74.5973 217.514 74.5502 217.533 74.3347 217.606C73.0367 217.887 71.7178 218.059 70.3914 218.122L49.3278 220.299L51.2657 222.853C51.2946 222.697 51.3407 222.546 51.3729 222.392C51.4436 222.059 51.3825 222.364 51.3386 222.446C51.3739 222.379 51.405 222.309 51.4457 222.245C51.4865 222.18 51.7266 221.795 51.5819 222.003C51.4372 222.211 51.5819 222.003 51.6162 221.965C51.7051 221.869 51.7909 221.77 51.882 221.676C52.1094 221.446 52.3487 221.227 52.599 221.022C52.748 220.897 52.9002 220.778 53.0524 220.658C52.7523 220.895 53.1435 220.589 53.2464 220.509C54.8327 219.488 56.0643 217.999 56.7717 216.246C57.0827 215.129 57.214 213.97 57.1608 212.812C57.1608 211.67 57.1508 210.528 57.1307 209.387C57.1 207.048 57.0468 204.711 56.971 202.374C56.6702 193.025 56.0178 183.697 55.0139 174.389C54.4372 169.034 53.7473 163.692 52.9442 158.365C52.7995 157.851 52.459 157.415 51.9964 157.152C51.5338 156.888 50.9864 156.818 50.4725 156.956C49.9657 157.11 49.5372 157.453 49.2758 157.915C49.0144 158.377 48.9401 158.922 49.0684 159.437" fill="#24221E"/>
<path d="M106.968 18.7273C116.207 31.4544 126.368 44.8893 141.221 49.9838C147.759 52.2251 155.019 52.7618 160.766 56.6066C166.513 60.4514 169.549 69.7059 164.267 74.1734C162.366 75.7866 159.572 76.647 158.744 79.0055C158.101 80.8166 158.927 82.7772 159.153 84.684C160.086 92.5006 151.183 97.8048 143.423 98.961C141.657 99.0726 139.932 99.5401 138.351 100.335C136.156 101.693 135.13 104.308 133.452 106.271C130.792 109.381 126.654 110.692 122.74 111.863C112.967 114.783 102.902 117.737 92.7445 116.818C85.1335 116.019 77.8937 113.113 71.8335 108.424C65.7733 103.735 61.1312 97.4484 58.4255 90.2658" fill="#7A6A59"/>
<path d="M105.232 19.7457C109.628 26.0717 114.457 32.0837 119.683 37.7384C124.878 43.3597 131.161 47.8584 138.148 50.9593C141.861 52.3626 145.671 53.4877 149.549 54.3255C153.326 55.0923 156.927 56.5561 160.17 58.6425C160.481 58.8576 160.018 58.4994 160.306 58.75C160.459 58.8812 160.614 59.0081 160.765 59.1426C161.066 59.4147 161.357 59.6986 161.633 59.9954C161.894 60.2729 162.138 60.5622 162.384 60.8558C162.629 61.1494 162.283 60.6956 162.496 61.0074C162.613 61.1774 162.734 61.3419 162.849 61.5129C163.288 62.1706 163.675 62.8613 164.007 63.5789C164.044 63.6585 164.078 63.7381 164.115 63.8177C164.243 64.0994 164.007 63.5294 164.115 63.8177C164.177 63.979 164.24 64.1403 164.299 64.3038C164.434 64.6802 164.553 65.0623 164.657 65.4502C164.749 65.8041 164.83 66.1611 164.892 66.5257C164.923 66.701 164.948 67.014 164.917 66.6483C164.937 66.8634 164.962 67.086 164.975 67.3054C164.995 67.6281 165 67.9507 164.989 68.2809C164.983 68.468 164.968 68.6552 164.954 68.8423C164.947 68.9208 164.936 69.0004 164.929 69.08C164.942 68.924 164.981 68.7734 164.929 69.0154C164.863 69.351 164.795 69.6822 164.698 70.0102C164.645 70.1866 164.581 70.3566 164.524 70.5297C164.417 70.8523 164.658 70.2834 164.45 70.6953C164.3 71.0014 164.131 71.2981 163.944 71.5837C163.853 71.7213 163.661 71.959 163.882 71.6912C163.744 71.859 163.604 72.0235 163.453 72.1805C163.339 72.301 163.221 72.4182 163.098 72.5301C163.016 72.6064 162.929 72.6785 162.846 72.7538C162.833 72.7656 162.598 72.956 162.763 72.8258C162.886 72.729 162.518 73.0012 162.441 73.0517C162.237 73.1937 162.029 73.3302 161.818 73.4647C161.138 73.9024 160.438 74.3111 159.781 74.7875C158.875 75.3585 158.11 76.1284 157.543 77.0391C156.976 77.9499 156.622 78.9778 156.509 80.0455C156.474 81.2267 156.608 82.4068 156.909 83.5494C157.103 84.3191 157.202 85.1097 157.203 85.9036C157.203 86.1001 157.195 86.2969 157.178 86.4941C157.172 86.5737 157.109 87.0544 157.151 86.8049C157.193 86.5554 157.095 87.0824 157.073 87.1856C157.033 87.3717 156.986 87.5577 156.934 87.7405C156.837 88.08 156.723 88.4142 156.591 88.7418C156.722 88.4116 156.6 88.7074 156.528 88.8494C156.432 89.0458 156.331 89.239 156.224 89.429C156.047 89.7409 155.854 90.0442 155.649 90.3367C155.605 90.3991 155.328 90.7669 155.458 90.6035C155.602 90.4185 155.427 90.639 155.407 90.6626C155.314 90.7702 155.226 90.8777 155.133 90.9852C154.637 91.5492 154.1 92.0745 153.525 92.5565C153.367 92.6899 153.203 92.8211 153.046 92.948C153.312 92.7415 152.977 92.9942 152.883 93.0631C152.541 93.3104 152.191 93.5467 151.835 93.7718C151.133 94.2129 150.408 94.6144 149.662 94.9742C149.495 95.0548 149.327 95.1344 149.157 95.2108C149.063 95.2538 148.532 95.4829 148.87 95.3431C148.469 95.5094 148.064 95.6657 147.653 95.812C146.897 96.0816 146.131 96.3157 145.353 96.5143C143.561 96.9735 141.709 97.0735 139.915 97.5338C137.909 98.0409 136.13 99.2075 134.862 100.847C134.239 101.641 133.683 102.471 133.123 103.311C132.703 104.001 132.215 104.646 131.667 105.237C130.436 106.486 128.967 107.474 127.349 108.141C127.219 108.2 127.09 108.258 126.96 108.313C127.003 108.295 127.163 108.228 126.949 108.313C126.752 108.395 126.552 108.472 126.353 108.549C125.887 108.727 125.417 108.896 124.942 109.054C124.033 109.362 123.114 109.64 122.194 109.915C113.497 112.516 104.663 115.169 95.5484 114.955C94.4766 114.931 93.4087 114.866 92.3447 114.761C92.1186 114.737 91.8913 114.712 91.6652 114.684L91.3747 114.649C91.4133 114.649 91.663 114.69 91.4251 114.655C90.9749 114.592 90.5255 114.52 90.0767 114.44C88.3492 114.132 86.6447 113.706 84.9748 113.165C84.1709 112.906 83.376 112.621 82.59 112.31C82.3756 112.227 82.1677 112.141 81.9565 112.054C81.8751 112.026 81.7956 111.992 81.7186 111.953C81.3027 111.767 80.8868 111.582 80.4763 111.385C78.888 110.628 77.3487 109.772 75.8675 108.821C75.1529 108.363 74.4541 107.883 73.771 107.383C73.5866 107.249 73.4033 107.113 73.2211 106.975L72.9885 106.798C73.0207 106.823 73.189 106.955 73.0089 106.813C72.6516 106.531 72.2972 106.244 71.9456 105.953C70.5958 104.822 69.3178 103.608 68.1192 102.318C67.544 101.697 66.987 101.06 66.4482 100.404C66.3053 100.227 66.1624 100.048 66.0195 99.8665C65.9659 99.8009 65.6733 99.4234 65.8533 99.659C65.5768 99.2962 65.3067 98.9291 65.043 98.5577C64.023 97.1252 63.0995 95.6259 62.2788 94.0697C61.8993 93.3527 61.5421 92.6207 61.2069 91.8736C61.1148 91.665 61.0226 91.4563 60.9336 91.2466C61.0537 91.5295 60.8693 91.0885 60.8361 91.0046C60.6657 90.5809 60.5038 90.1528 60.3473 89.7226C60.1939 89.2147 59.8518 88.7853 59.3918 88.5233C58.9318 88.2613 58.389 88.1867 57.8757 88.3149C57.364 88.4605 56.93 88.8023 56.6673 89.2663C56.4046 89.7303 56.3343 90.2793 56.4716 90.7949C59.0128 97.7459 63.3189 103.911 68.9638 108.679C74.5674 113.491 81.305 116.784 88.5354 118.244C97.6321 119.988 106.874 118.38 115.701 115.992C117.987 115.374 120.26 114.702 122.53 114.027C124.458 113.492 126.358 112.857 128.221 112.124C130.207 111.35 132.053 110.257 133.687 108.887C135.071 107.533 136.275 106.006 137.268 104.343C137.399 104.149 137.532 103.958 137.668 103.768C137.726 103.688 137.785 103.608 137.845 103.527C137.819 103.562 137.69 103.723 137.832 103.545C138.137 103.16 138.471 102.801 138.831 102.469C138.897 102.409 139.268 102.127 139.032 102.294C139.233 102.152 139.442 102.022 139.659 101.905C140.046 101.705 140.456 101.553 140.879 101.452C142.702 100.964 144.6 100.87 146.428 100.403C149.9 99.5427 153.151 97.955 155.968 95.7442C158.694 93.707 160.536 90.696 161.112 87.334C161.222 85.2974 161.039 83.2555 160.567 81.2715C160.574 81.321 160.586 81.449 160.559 81.2124C160.546 81.0941 160.537 80.9758 160.53 80.8575C160.52 80.665 160.514 80.2595 160.521 80.1896C160.521 80.1606 160.628 79.8035 160.649 79.6519C160.687 79.4078 160.649 79.6089 160.618 79.6852C160.677 79.5497 160.754 79.426 160.824 79.2959C160.866 79.2196 160.918 79.1486 160.964 79.0744C160.923 79.1421 160.71 79.3518 160.964 79.0744C161.082 78.9442 161.199 78.8152 161.326 78.6926C161.476 78.5474 161.633 78.4129 161.794 78.2807C161.955 78.1484 161.773 78.2989 161.745 78.3183C161.843 78.2473 161.942 78.1753 162.042 78.1032C163.586 77.2143 165.031 76.1626 166.353 74.966C167.512 73.7246 168.325 72.1991 168.711 70.5426C169.357 67.1592 168.762 63.6555 167.036 60.6773C165.244 57.4677 162.485 54.9096 159.155 53.3694C155.31 51.6967 151.302 50.4294 147.196 49.588C145.195 49.0901 143.199 48.5588 141.256 47.8673C139.558 47.2652 137.91 46.5317 136.325 45.6733C133.097 43.9448 130.074 41.8563 127.313 39.4474C124.402 36.8979 121.676 34.1423 119.157 31.2017C117.87 29.7218 116.622 28.2119 115.412 26.6718C114.223 25.1661 113.289 23.9433 112.089 22.328C110.946 20.7986 109.816 19.2596 108.701 17.7109C108.421 17.2608 107.98 16.9351 107.469 16.8008C106.958 16.6664 106.414 16.7334 105.951 16.9882C105.494 17.261 105.162 17.7032 105.027 18.2194C104.892 18.7356 104.965 19.2842 105.23 19.7468" fill="#24221E"/>
<path d="M70.8738 171.591C72.1814 177.239 73.309 182.927 74.1107 188.671C74.1418 188.892 74.1579 189.018 74.2072 189.402C74.2522 189.747 74.2961 190.095 74.3379 190.44C74.4237 191.137 74.5037 191.834 74.578 192.531C74.7302 193.946 74.8628 195.363 74.9757 196.783C75.2158 199.794 75.3572 202.806 75.4623 205.825C75.5888 209.467 75.7156 213.11 75.8428 216.754C75.8428 217.288 76.0545 217.801 76.4314 218.179C76.8083 218.558 77.3195 218.77 77.8525 218.77C78.3855 218.77 78.8966 218.558 79.2735 218.179C79.6504 217.801 79.8621 217.288 79.8621 216.754C79.6413 210.419 79.5406 204.063 79.069 197.747C78.6363 191.942 77.8896 186.165 76.8321 180.442C76.2201 177.118 75.5116 173.812 74.7495 170.519C74.6074 170.003 74.2669 169.565 73.803 169.301C73.339 169.038 72.7897 168.969 72.2757 169.112C71.7618 169.255 71.3253 169.596 71.0624 170.062C70.7995 170.527 70.7316 171.079 70.8738 171.594" fill="white"/>
<path d="M109.813 147.146C109.998 131.102 107.683 115.127 102.954 99.7999C101.194 94.0998 101.113 88.2493 99.0362 82.6901C92.7334 83.625 86.5147 85.0613 80.4389 86.9856C76.5427 88.2761 72.4366 88.0955 68.4279 88.8139C63.9792 89.5528 59.7115 91.1354 55.8532 93.4771C52.1361 95.7991 48.9474 98.918 45.1488 101.102C41.3867 103.266 34.8764 105.819 30.5408 104.13C27.817 102.97 25.3129 101.347 23.1387 99.3331C21.1803 107.34 17.246 114.724 11.698 120.805C15.6947 125.42 20.4508 129.312 25.7594 132.313C33.2879 136.25 41.9189 137.529 50.2604 135.942C49.7602 144.282 49.1803 152.628 48.5208 160.982C66.7269 163.171 85.1002 163.556 103.399 163.642C111.73 163.681 109.745 153.507 109.819 147.144" fill="#AFD1DD"/>
<path d="M111.823 147.146C111.909 138.31 111.256 129.482 109.872 120.756C109.197 116.476 108.344 112.23 107.312 108.017C106.817 106 106.281 103.993 105.704 101.994C105.111 99.9418 104.453 97.9178 104.003 95.827C103.018 91.2573 102.594 86.5618 100.97 82.1492C100.812 81.6441 100.469 81.218 100.01 80.9567C99.5508 80.6954 99.0102 80.6185 98.497 80.7414C92.8293 81.6045 87.2251 82.8454 81.7218 84.456C80.3552 84.8755 79.0143 85.353 77.6124 85.6391C76.3289 85.8882 75.0324 86.0645 73.7291 86.1671C70.8678 86.3781 68.0258 86.8001 65.2263 87.4297C62.4891 88.1019 59.835 89.0776 57.313 90.3389C54.9228 91.6013 52.659 93.0912 50.5529 94.7881C48.4744 96.4908 46.2793 98.0447 43.9837 99.4385C43.0758 99.9547 42.138 100.406 41.1872 100.837C40.8239 101.002 41.0372 100.904 41.1197 100.869C40.9943 100.922 40.87 100.976 40.7457 101.023C40.4941 101.125 40.2405 101.224 39.9846 101.318C39.4037 101.534 38.8142 101.735 38.2204 101.911C37.5923 102.097 36.9567 102.258 36.3147 102.39C36.1464 102.423 35.9792 102.455 35.8109 102.484C35.767 102.492 35.2568 102.576 35.4787 102.542C35.7005 102.509 35.2965 102.564 35.2482 102.569C35.0832 102.586 34.9181 102.603 34.753 102.614C34.1134 102.665 33.4709 102.665 32.8312 102.614C32.7069 102.604 32.5826 102.592 32.4593 102.576C32.7551 102.614 32.5215 102.576 32.3596 102.547C32.0942 102.495 31.8316 102.43 31.5729 102.351C31.0143 102.179 30.4754 101.948 29.9652 101.663C29.3114 101.329 28.679 100.96 28.0573 100.567C26.8165 99.7803 25.6456 98.8879 24.5578 97.8995C24.3059 97.6576 23.9964 97.4845 23.6588 97.397C23.3213 97.3095 22.9669 97.3104 22.6298 97.3997C22.2927 97.489 21.9841 97.6636 21.7335 97.9068C21.4829 98.1501 21.2987 98.4538 21.1987 98.7889C19.3229 106.456 15.5679 113.531 10.2745 119.371C9.90926 119.755 9.70544 120.266 9.70544 120.797C9.70544 121.328 9.90926 121.838 10.2745 122.222C14.1295 126.621 18.6334 130.401 23.6296 133.43C28.8644 136.414 34.7097 138.157 40.7189 138.528C44.0909 138.732 47.4753 138.516 50.7941 137.882L48.2495 135.938C47.7493 144.29 47.1695 152.637 46.51 160.977C46.4156 162.154 47.5153 162.873 48.5197 162.994C60.8597 164.471 73.279 165.133 85.6993 165.428C88.7819 165.499 91.8645 165.553 94.9471 165.588C97.9161 165.622 100.928 165.785 103.894 165.645C105.875 165.624 107.776 164.86 109.223 163.502C110.411 162.23 111.211 160.643 111.527 158.928C112.356 155.044 111.79 151.068 111.826 147.14C111.826 146.605 111.615 146.092 111.238 145.714C110.861 145.336 110.35 145.124 109.817 145.124C109.284 145.124 108.772 145.336 108.396 145.714C108.019 146.092 107.807 146.605 107.807 147.14C107.776 150.44 108.152 153.734 107.802 157.028C107.762 157.394 107.81 156.961 107.819 156.911C107.804 157.002 107.791 157.094 107.777 157.185C107.744 157.388 107.707 157.589 107.67 157.791C107.594 158.157 107.501 158.52 107.389 158.877C107.339 159.038 107.274 159.199 107.223 159.359C107.093 159.765 107.39 159.036 107.258 159.28C107.22 159.352 107.191 159.43 107.151 159.504C106.994 159.806 106.821 160.099 106.633 160.384C106.449 160.681 106.733 160.265 106.734 160.258C106.691 160.324 106.64 160.384 106.582 160.437C106.461 160.566 106.341 160.694 106.21 160.813C106.152 160.866 106.086 160.913 106.031 160.968C105.858 161.146 106.378 160.76 106.154 160.87C105.994 160.948 105.849 161.074 105.691 161.16C105.491 161.268 105.199 161.375 105.602 161.227C105.415 161.295 105.23 161.365 105.038 161.42C104.847 161.475 104.676 161.51 104.494 161.55C104.422 161.567 104.108 161.628 104.399 161.574C104.714 161.515 104.278 161.585 104.211 161.59C102.896 161.698 101.547 161.613 100.229 161.603C98.7285 161.592 97.2319 161.579 95.7392 161.563C92.7445 161.531 89.7505 161.483 86.7572 161.419C80.7657 161.286 74.7774 161.073 68.7955 160.727C62.0215 160.335 55.2583 159.768 48.5197 158.961L50.5283 160.987C51.1949 152.646 51.7748 144.3 52.2678 135.948C52.2626 135.639 52.1878 135.335 52.0489 135.06C51.91 134.784 51.7106 134.544 51.4659 134.357C51.2211 134.17 50.9372 134.041 50.6356 133.979C50.334 133.918 50.0224 133.926 49.7244 134.003C47.0623 134.486 44.3552 134.671 41.6524 134.556C40.3913 134.507 39.1337 134.39 37.8849 134.206C31.2195 133.191 24.9726 130.316 19.8567 125.91C17.4656 123.89 15.2139 121.709 13.117 119.383V122.234C18.8958 115.895 23.0062 108.209 25.0755 99.873L21.7164 100.763C23.8006 102.705 26.1676 104.316 28.7358 105.542C29.9422 106.108 31.2317 106.476 32.5547 106.631C33.7986 106.742 35.0514 106.692 36.2825 106.482C41.1882 105.603 45.8059 103.536 49.734 100.459C51.9763 98.7975 54.1146 96.9907 56.463 95.4743C58.6735 94.0431 61.062 92.9099 63.5671 92.1038C66.1476 91.264 68.8089 90.6988 71.5072 90.4174C74.454 90.2543 77.3807 89.8311 80.2534 89.1526C83.441 88.2417 86.5708 87.2308 89.8077 86.4973C93.0446 85.7638 96.3008 85.1766 99.5689 84.6357L97.0961 83.2268C98.5324 87.1232 99.0362 91.2455 99.8079 95.3033C100.599 99.4686 102.009 103.477 103.059 107.579C105.166 115.784 106.58 124.153 107.286 132.597C107.688 137.435 107.862 142.285 107.806 147.147C107.806 147.681 108.018 148.194 108.395 148.573C108.771 148.951 109.283 149.163 109.816 149.163C110.349 149.163 110.86 148.951 111.237 148.573C111.614 148.194 111.825 147.681 111.825 147.147" fill="#24221E"/>
<path d="M20.4742 96.5563C17.7549 93.1438 17.4109 86.8705 12.0195 86.6619C9.1942 86.5543 6.50282 90.0088 8.16845 92.3027C7.34744 92.277 6.54022 92.519 5.8679 92.9925C5.19557 93.466 4.6944 94.1455 4.43954 94.9291C4.24688 95.6916 4.28228 96.4942 4.54132 97.2366C4.80036 97.9791 5.27157 98.6286 5.89616 99.1041C2.12117 98.8191 0.3355 103.854 4.06762 105.404C3.47486 105.766 3.01678 106.313 2.76371 106.961C2.51064 107.609 2.47657 108.323 2.66673 108.992C3.07963 110.323 3.78761 111.542 4.73751 112.559C6.98086 115.349 9.2703 118.152 11.6959 120.809C17.2435 114.728 21.1778 107.344 23.1366 99.3374C22.1772 98.4832 21.2876 97.5531 20.4763 96.5563" fill="#FFE3D4"/>
<path d="M21.8954 95.1301C22.143 95.4463 21.9404 95.1828 21.8311 95.0226C21.7357 94.8828 21.6446 94.7419 21.5556 94.5988C21.3487 94.2633 21.159 93.9181 20.98 93.5664C20.6317 92.8899 20.3219 92.1941 20.0079 91.5015C19.3923 90.0176 18.5847 88.6214 17.6059 87.3491C17.0126 86.5891 16.267 85.9625 15.4171 85.5099C14.5673 85.0573 13.6322 84.7888 12.6724 84.7217C11.7126 84.6546 10.7495 84.7904 9.84533 85.1203C8.94116 85.4503 8.11608 85.967 7.42349 86.6371C5.73964 88.3934 4.97436 91.181 6.43312 93.3223L8.16842 90.2883C6.97444 90.2714 5.80387 90.6214 4.81389 91.2914C3.82392 91.9614 3.06193 92.9192 2.63026 94.0364C2.24686 95.1787 2.21804 96.4109 2.5476 97.57C2.87716 98.7291 3.54958 99.7606 4.47595 100.528L5.89613 97.0864C4.65015 97.023 3.41831 97.3754 2.39308 98.0887C1.36785 98.802 0.606987 99.836 0.229365 101.029C-0.1304 102.219 -0.0413713 103.499 0.479497 104.627C1.00036 105.755 1.91664 106.651 3.05364 107.144V103.663C2.27888 104.114 1.63912 104.766 1.20114 105.55C0.76316 106.334 0.543039 107.222 0.563773 108.121C0.692152 110.047 1.47011 111.871 2.7696 113.294C5.15336 116.364 7.6593 119.362 10.2724 122.235C10.6517 122.609 11.162 122.819 11.6937 122.819C12.2253 122.819 12.7357 122.609 13.1149 122.235C18.8936 115.896 23.0036 108.21 25.0723 99.873C25.1658 99.5292 25.1672 99.1668 25.0763 98.8223C24.9854 98.4778 24.8054 98.1636 24.5546 97.9113C23.5988 97.0533 22.7095 96.1235 21.8943 95.1301C21.5157 94.755 21.0051 94.5446 20.473 94.5446C19.941 94.5446 19.4303 94.755 19.0518 95.1301C18.686 95.514 18.4819 96.0246 18.4819 96.5557C18.4819 97.0868 18.686 97.5974 19.0518 97.9812C19.8671 98.9752 20.7568 99.9054 21.7132 100.763C21.5402 100.108 21.368 99.4543 21.1965 98.8018C19.3206 106.468 15.5655 113.543 10.2724 119.383H13.1214C10.8705 116.91 8.74293 114.328 6.64428 111.731C5.7968 110.845 5.12433 109.805 4.66245 108.667C4.66245 108.689 4.55527 108.095 4.58743 108.379C4.61958 108.663 4.58743 108.176 4.58743 108.121C4.58743 108.066 4.64852 107.593 4.596 107.862C4.54348 108.13 4.67103 107.612 4.66995 107.615C4.70747 107.427 4.74284 107.438 4.65388 107.615C4.65388 107.615 4.91005 107.169 4.76107 107.386C4.61208 107.603 4.89183 107.252 4.93363 107.21C4.69997 107.442 4.93363 107.229 5.08583 107.146C5.38604 106.967 5.6346 106.712 5.80721 106.407C5.97981 106.101 6.07055 105.757 6.07055 105.406C6.07055 105.055 5.97981 104.71 5.80721 104.405C5.6346 104.1 5.38604 103.845 5.08583 103.665C4.88642 103.581 4.69304 103.483 4.50704 103.372C4.4213 103.318 4.33768 103.264 4.25623 103.202C4.47059 103.37 4.49524 103.382 4.33232 103.24C3.96897 102.81 4.36341 103.422 4.2155 103.133C4.17477 103.052 4.02365 102.896 4.02686 102.797C4.14262 103.088 4.16298 103.131 4.09009 102.928C4.06544 102.849 4.04294 102.769 4.02472 102.688C3.98256 102.472 3.98684 102.529 4.03758 102.857C4.03007 102.776 4.02471 102.693 4.02364 102.611C4.02257 102.529 4.02364 102.446 4.03007 102.363C4.04936 102.148 4.0408 102.198 4.00328 102.529C3.9647 102.443 4.08795 102.195 4.11045 102.105C4.21764 101.645 3.91432 102.355 4.12333 102.061C4.21765 101.927 4.30447 101.765 4.387 101.623C4.10939 102.098 4.38699 101.662 4.49417 101.538C4.55634 101.477 4.62172 101.417 4.68817 101.361C4.47381 101.524 4.42129 101.563 4.54348 101.475C4.68249 101.403 4.81675 101.322 4.94542 101.232C5.14156 101.138 5.10726 101.151 4.83823 101.269C4.92505 101.236 5.01401 101.207 5.10404 101.181C5.26482 101.135 5.81575 101.122 5.28305 101.124C5.49098 101.124 5.69356 101.112 5.90149 101.124C6.29502 101.115 6.67758 100.992 7.00252 100.769C7.32745 100.546 7.5807 100.233 7.73139 99.8684C7.88207 99.5035 7.92367 99.1025 7.8511 98.7143C7.77854 98.3261 7.59496 97.9675 7.32274 97.6822C7.19305 97.5682 7.06764 97.4553 6.9476 97.3316C6.88436 97.266 6.64534 96.981 6.80397 97.1907C6.70383 97.0542 6.61392 96.9104 6.53495 96.7606C6.48136 96.6648 6.35702 96.3433 6.44706 96.6003C6.39215 96.4425 6.34774 96.2812 6.31414 96.1174C6.2434 95.7808 6.33558 96.5659 6.31414 95.955C6.29806 95.6087 6.27341 95.9787 6.31414 95.7765C6.34605 95.611 6.39159 95.4484 6.45028 95.2904C6.3088 95.6733 6.86399 94.7634 6.60354 95.0527C6.68821 94.9591 6.77825 94.8731 6.86507 94.7817C7.23271 94.3956 6.72788 94.8473 6.97226 94.687C7.10517 94.5999 7.24022 94.5225 7.37848 94.4483C7.08158 94.6064 7.42456 94.4321 7.50924 94.4063C7.65809 94.3588 7.81039 94.3228 7.96477 94.2988C7.60464 94.3483 8.06445 94.3246 8.17913 94.3278C8.53129 94.3236 8.87626 94.2274 9.17998 94.0485C9.48371 93.8696 9.73568 93.6143 9.91101 93.3078C10.0863 93.0014 10.179 92.6543 10.1798 92.3009C10.1806 91.9476 10.0895 91.6001 9.9155 91.2928C9.82117 91.1552 9.74293 91.0143 9.66147 90.8691C9.82439 91.1595 9.73436 90.9293 9.66147 90.7616C9.67862 90.8024 9.66148 91.1261 9.68291 90.9154C9.69738 90.813 9.69738 90.7091 9.68291 90.6067C9.64218 90.4163 9.66577 90.7002 9.65184 90.7562C9.67649 90.6486 9.69364 90.5497 9.72043 90.4486C9.76652 90.2765 9.89621 90.0184 9.73865 90.326C9.81475 90.1797 9.88656 90.0324 9.97338 89.8958C10.0602 89.7592 10.2724 89.5011 10.0506 89.7592C10.1813 89.6076 10.3207 89.4688 10.46 89.329C10.52 89.2677 10.5865 89.2139 10.6519 89.1569C10.3775 89.3989 10.5779 89.2075 10.6519 89.1623C10.7976 89.0731 10.9477 88.9881 11.0924 88.8978C11.3914 88.7063 10.8962 88.9225 11.236 88.83C11.3303 88.8042 11.8437 88.6558 11.6251 88.7074C11.4064 88.759 11.8512 88.6977 11.9466 88.6977C12.117 88.6977 12.2853 88.7257 12.4547 88.7289C12.6894 88.7289 12.3475 88.7181 12.3239 88.7117C12.4247 88.7364 12.5297 88.7493 12.6315 88.773C12.8041 88.8128 12.9713 88.8655 13.1406 88.9171C13.2114 88.9376 13.2778 88.9698 13.3486 88.9902C13.3314 88.9902 13.0142 88.8171 13.1985 88.929C13.3186 89.0021 13.4515 89.0548 13.5737 89.1247C13.6959 89.1946 13.8095 89.272 13.9263 89.3484C14.3014 89.5968 13.7784 89.1881 14.0078 89.4161C14.2371 89.6441 14.4365 89.8345 14.6401 90.0614C14.9038 90.355 14.6133 89.999 14.6766 90.0937C14.7698 90.2324 14.8717 90.3647 14.9638 90.5034C15.6342 91.5896 16.217 92.7279 16.7066 93.9073C17.3248 95.3627 18.1166 96.7375 19.0647 98.0017C19.4429 98.3773 19.9537 98.588 20.4859 98.588C21.0181 98.588 21.5289 98.3773 21.9072 98.0017C22.272 97.6173 22.4754 97.1069 22.4754 96.5761C22.4754 96.0453 22.272 95.5349 21.9072 95.1506" fill="#24221E"/>
<path d="M58.0236 99.161C60.3317 107.959 64.1282 116.293 69.2478 123.801C70.1028 125.331 71.4062 126.559 72.981 127.32C76.0893 128.471 79.3198 125.945 81.382 123.341C87.7058 115.349 90.4218 105.156 92.9824 95.2796" fill="white"/>
<path d="M56.0858 99.6966C57.4245 104.754 59.2383 109.673 61.5028 114.388C62.6039 116.682 63.8126 118.921 65.1288 121.105C66.3425 123.361 67.8176 125.465 69.5233 127.373C70.4232 128.326 71.5682 129.01 72.8316 129.351C74.0949 129.691 75.4276 129.674 76.6821 129.302C79.0607 128.463 81.1421 126.943 82.6693 124.929C85.8013 120.935 88.3009 116.481 90.08 111.723C92.0146 106.523 93.6307 101.209 94.9193 95.812C95.0614 95.2963 94.9936 94.7451 94.7307 94.2796C94.4678 93.814 94.0313 93.4724 93.5174 93.3298C93.0034 93.1872 92.454 93.2553 91.9901 93.5191C91.5262 93.7829 91.1857 94.2208 91.0436 94.7365C89.8806 99.218 88.7048 103.705 87.1625 108.072C86.4395 110.171 85.596 112.226 84.6362 114.227C83.6586 116.271 82.5304 118.239 81.261 120.115C80.1912 121.845 78.8152 123.364 77.2009 124.598C76.9629 124.756 76.7185 124.905 76.4677 125.041C76.3745 125.092 76.2812 125.14 76.1858 125.186C76.1505 125.206 75.7571 125.377 75.9522 125.294C76.1205 125.227 75.8043 125.34 75.8075 125.34C75.6778 125.379 75.5502 125.424 75.4195 125.46C75.2887 125.495 75.159 125.524 75.0283 125.552C74.8975 125.58 74.7539 125.575 74.9704 125.563C74.7056 125.583 74.4398 125.583 74.1751 125.563C74.5213 125.596 73.9114 125.493 73.8128 125.464C73.7731 125.453 73.3723 125.308 73.5641 125.389C73.7303 125.456 73.428 125.316 73.4291 125.317C73.3101 125.249 73.1901 125.184 73.0754 125.11C73.0336 125.084 72.6466 124.801 72.7795 124.907C72.1073 124.311 71.5223 123.623 71.0421 122.863C70.369 121.885 69.7202 120.89 69.0957 119.878C67.818 117.816 66.6362 115.698 65.55 113.525C63.1765 108.765 61.3032 103.77 59.9604 98.6201C59.8183 98.1043 59.4778 97.6664 59.0139 97.4026C58.55 97.1388 58.0006 97.0707 57.4867 97.2133C56.9727 97.3559 56.5363 97.6976 56.2733 98.1631C56.0104 98.6286 55.9426 99.1798 56.0847 99.6955" fill="#24221E"/>
<path d="M79.263 118.208C73.5362 122.069 66.2842 126.489 60.7857 129.622C57.5556 131.625 54.0089 133.061 50.2979 133.869L68.9349 166.26C69.5261 167.287 70.4997 168.037 71.6416 168.344C72.7835 168.651 74.0001 168.49 75.0239 167.897L99.6461 153.633L79.263 118.208Z" fill="#FFCB48"/>
<path d="M72.8064 170.511C71.6694 170.513 70.552 170.214 69.5668 169.645C68.5816 169.075 67.7633 168.255 67.1942 167.268L48.5572 134.878C48.3954 134.597 48.3036 134.281 48.2895 133.957C48.2754 133.632 48.3395 133.31 48.4762 133.016C48.613 132.722 48.8184 132.465 49.0751 132.268C49.3318 132.071 49.6321 131.938 49.9506 131.882C53.4318 131.11 56.7581 129.753 59.789 127.869C64.595 125.129 71.9382 120.714 78.1387 116.534C78.3674 116.38 78.6252 116.275 78.8961 116.225C79.167 116.175 79.4453 116.181 79.7136 116.244C79.9819 116.306 80.2346 116.423 80.456 116.588C80.6774 116.752 80.8627 116.961 81.0005 117.2L101.388 152.63C101.654 153.094 101.726 153.644 101.588 154.161C101.45 154.677 101.113 155.117 100.651 155.385L76.0294 169.649C75.0498 170.218 73.9381 170.517 72.8064 170.517M53.3837 135.205L70.6788 165.251C71.0036 165.815 71.5383 166.227 72.1654 166.395C72.7924 166.564 73.4605 166.476 74.0229 166.15L96.9044 152.895L78.5932 121.076C72.7228 124.948 66.1921 128.859 61.7783 131.375C59.1306 132.959 56.315 134.242 53.3837 135.199" fill="#24221E"/>
<path d="M79.263 118.208L74.9307 110.679L50.3139 124.944C49.29 125.538 48.5428 126.514 48.2366 127.66C47.9305 128.806 48.0905 130.027 48.6815 131.054L50.3021 133.869C54.0132 133.061 57.5599 131.625 60.79 129.622C66.2885 126.488 73.5448 122.069 79.2673 118.208" fill="white"/>
<path d="M50.2968 135.885C49.9441 135.885 49.5976 135.792 49.2922 135.615C48.9868 135.438 48.7333 135.183 48.5572 134.877L46.9366 132.062C46.0812 130.571 45.8501 128.8 46.294 127.139C46.7379 125.477 47.8204 124.06 49.3043 123.198L73.9264 108.934C74.1549 108.801 74.4072 108.715 74.6688 108.681C74.9304 108.646 75.1963 108.664 75.4512 108.732C75.7062 108.801 75.9451 108.919 76.1545 109.08C76.3638 109.241 76.5395 109.442 76.6714 109.672L81.0026 117.2C81.2574 117.643 81.3351 118.166 81.2201 118.664C81.1051 119.162 80.8059 119.597 80.3831 119.882C74.0915 124.125 66.6465 128.601 61.7772 131.376C58.3454 133.496 54.577 135.01 50.6355 135.853C50.5222 135.872 50.4074 135.882 50.2925 135.882M74.1944 113.432L51.314 126.69C51.0353 126.851 50.7911 127.066 50.5952 127.322C50.3994 127.577 50.2557 127.87 50.1725 128.181C50.0893 128.493 50.0681 128.818 50.1102 129.138C50.1523 129.458 50.2569 129.766 50.4179 130.045L51.3075 131.592C54.2872 130.732 57.1403 129.48 59.7922 127.868C64.1995 125.356 70.742 121.434 76.5792 117.577L74.1944 113.432Z" fill="#24221E"/>
<path d="M58.2808 95.5829C57.6205 99.2503 57.1018 103.351 59.2004 106.425C61.4298 109.69 66.3152 110.562 69.7548 108.626C71.4397 107.584 72.784 106.07 73.622 104.271C74.46 102.472 74.7551 100.466 74.4708 98.5007C75.7838 102.541 77.5298 107.063 81.472 108.617C85.5139 110.209 90.261 107.719 92.5719 104.026C94.8828 100.334 95.2815 95.784 95.3587 91.4273" fill="white"/>
<path d="M56.3429 95.0463C55.6706 97.9401 55.5531 100.936 55.9967 103.874C56.2537 105.205 56.7899 106.465 57.5697 107.572C58.3496 108.679 59.3552 109.607 60.5199 110.294C62.8329 111.584 65.5379 111.974 68.1192 111.39C70.7198 110.75 72.9824 109.145 74.4515 106.899C76.1121 104.435 76.8321 101.453 76.4794 98.4996L72.5319 99.0373C74.1396 103.957 76.6274 109.981 82.3874 110.959C85.1867 111.392 88.0448 110.727 90.3682 109.102C92.8861 107.336 94.7889 104.823 95.8089 101.916C96.9196 98.5348 97.4481 94.988 97.3716 91.4284C97.3668 90.895 97.1536 90.3849 96.7777 90.0077C96.4018 89.6306 95.8934 89.4166 95.3619 89.4118C94.832 89.4218 94.3265 89.6374 93.9518 90.0134C93.577 90.3895 93.3621 90.8966 93.3522 91.4284C93.3908 94.0547 93.0896 96.6749 92.4562 99.2234C92.2874 99.8432 92.0856 100.454 91.8517 101.052C91.768 101.267 91.7091 101.39 91.5526 101.711C91.3961 102.031 91.2429 102.32 91.0714 102.614C90.9138 102.885 90.7498 103.152 90.5708 103.408C90.5247 103.475 90.2814 103.812 90.484 103.546C90.4057 103.653 90.3221 103.748 90.2396 103.847C89.8611 104.294 89.449 104.711 89.007 105.094C88.9095 105.18 88.8087 105.263 88.709 105.346C88.9459 105.151 88.6951 105.359 88.6533 105.389C88.4164 105.56 88.1774 105.725 87.9287 105.878C87.6801 106.032 87.4303 106.175 87.1731 106.309C87.0595 106.368 86.9427 106.416 86.828 106.479C86.4518 106.665 87.0348 106.424 86.605 106.574C86.132 106.747 85.6479 106.888 85.1559 106.995C85.0337 107.02 84.9115 107.041 84.7883 107.06C85.1816 106.999 84.7765 107.055 84.6811 107.06C84.3726 107.084 84.063 107.089 83.754 107.074C83.6307 107.074 83.5074 107.059 83.3853 107.05C83.038 107.02 83.8418 107.157 83.2781 107.03C83.0337 106.973 82.7893 106.923 82.5492 106.852C82.4281 106.816 81.8129 106.571 82.1484 106.724C81.871 106.597 81.6015 106.453 81.3413 106.294C81.2341 106.231 81.1366 106.167 81.0369 106.099C81.054 106.111 80.5781 105.766 80.8032 105.94C80.9908 106.084 80.696 105.848 80.6585 105.814C80.5674 105.735 80.4784 105.656 80.3905 105.573C80.1926 105.387 80.0029 105.193 79.8214 104.992C79.74 104.902 79.6606 104.811 79.5824 104.717C79.562 104.693 79.2105 104.227 79.4441 104.549C78.7179 103.517 78.1008 102.412 77.6027 101.252C77.5791 101.199 77.4537 100.896 77.5791 101.199C77.517 101.051 77.458 100.901 77.3991 100.751C77.2812 100.45 77.1676 100.149 77.0582 99.8472C76.831 99.2202 76.6198 98.5878 76.4151 97.9533C76.2796 97.4881 75.9828 97.0868 75.5783 96.822C75.1738 96.5571 74.6882 96.4461 74.2093 96.5089C73.7274 96.567 73.2837 96.8008 72.9625 97.1659C72.6413 97.531 72.4652 98.0019 72.4676 98.4889C72.5336 98.9959 72.5644 99.5069 72.5597 100.018C72.5597 100.275 72.5426 100.53 72.5212 100.786C72.5104 100.913 72.4976 101.041 72.4804 101.168C72.5201 100.871 72.4751 101.154 72.4493 101.296C72.3614 101.769 72.2418 102.237 72.0914 102.694C72.0688 102.762 71.8095 103.447 71.9542 103.107C71.847 103.372 71.7151 103.629 71.5812 103.881C71.4611 104.106 71.3336 104.324 71.1985 104.539C71.1299 104.647 71.0603 104.755 70.9842 104.857C70.9574 104.897 70.7269 105.215 70.862 105.035C70.997 104.856 70.7548 105.164 70.7248 105.201C70.6422 105.298 70.5597 105.392 70.474 105.485C70.2817 105.694 70.081 105.894 69.8716 106.085C69.7783 106.17 69.6819 106.251 69.5865 106.332C69.6497 106.277 69.8684 106.137 69.5436 106.365C69.3367 106.511 69.1277 106.652 68.9091 106.782C68.7262 106.89 68.5386 106.991 68.3464 107.084C68.296 107.109 67.9519 107.257 68.1781 107.165C68.4043 107.072 67.9637 107.239 67.9166 107.254C67.4623 107.405 66.9962 107.518 66.5232 107.592C66.9519 107.523 66.2735 107.605 66.1652 107.61C65.8962 107.623 65.6293 107.623 65.357 107.61C65.1427 107.601 64.9401 107.582 64.7311 107.562C65.1534 107.602 64.5167 107.514 64.3827 107.485C64.1512 107.434 63.9208 107.378 63.6925 107.302C63.5853 107.268 63.4663 107.23 63.3549 107.195C63.3098 107.179 62.8661 106.995 63.1008 107.099C63.3356 107.203 62.9937 107.042 62.9379 107.015C62.8307 106.961 62.7236 106.908 62.626 106.851C62.4192 106.736 62.2219 106.61 62.0258 106.48C61.9797 106.448 61.6839 106.227 61.8747 106.372C62.0654 106.517 61.8221 106.325 61.8039 106.308C61.5896 106.105 61.3752 105.911 61.1726 105.69C61.0933 105.603 61.0161 105.513 60.9422 105.42C61 105.492 61.1276 105.715 60.9368 105.398C60.8082 105.183 60.6678 104.982 60.5477 104.763C60.4802 104.641 60.4191 104.516 60.3559 104.39C60.2005 104.08 60.4373 104.616 60.3087 104.296C60.1941 104.005 60.0967 103.708 60.0172 103.405C59.9346 103.1 59.8725 102.792 59.8157 102.483C59.7503 102.137 59.8403 102.742 59.7974 102.391C59.776 102.214 59.7599 102.038 59.7471 101.86C59.7033 101.213 59.6987 100.563 59.7331 99.9149C59.8 98.6362 59.9623 97.3643 60.2187 96.1099C60.3481 95.5945 60.2743 95.0489 60.0127 94.5867C59.7512 94.1245 59.322 93.7814 58.8146 93.6288C58.3009 93.4939 57.755 93.5657 57.2933 93.8289C56.8315 94.0921 56.4905 94.5258 56.3429 95.0377" fill="#24221E"/>
<path d="M14.6809 103.159C14.2015 103.158 13.7382 102.985 13.3745 102.672C13.0108 102.358 12.7705 101.925 12.6969 101.45L2.95183 38.2353C2.87039 37.7068 3.00153 37.1674 3.31641 36.7359C3.63129 36.3044 4.1041 36.0161 4.63085 35.9343C5.1576 35.8526 5.69512 35.9842 6.12518 36.3002C6.55523 36.6161 6.84259 37.0905 6.92403 37.6191L16.6691 100.833C16.7135 101.121 16.6953 101.415 16.6158 101.695C16.5363 101.975 16.3973 102.234 16.2084 102.455C16.0194 102.676 15.7851 102.853 15.5214 102.975C15.2577 103.096 14.971 103.159 14.6809 103.159Z" fill="#24221E"/>
<path d="M18.8386 97.38C17.9371 96.2153 16.891 94.0461 15.3583 93.7525C11.7773 93.0792 10.7494 98.52 11.4204 100.947C11.6868 101.882 12.15 102.749 12.7786 103.489C13.4073 104.229 14.1868 104.825 15.0646 105.237C15.4319 105.346 15.748 105.583 15.9553 105.906" fill="#FFE3D4"/>
<path d="M20.5737 96.3626C19.4397 94.8677 18.5587 92.9727 16.7784 92.1349C15.8832 91.7195 14.8815 91.5933 13.9118 91.7736C12.942 91.9539 12.052 92.4319 11.3646 93.1416C10.2963 94.3225 9.61014 95.8007 9.39667 97.3811C9.08074 98.8086 9.13508 100.293 9.5545 101.694C9.97392 103.094 10.7444 104.363 11.7922 105.379C12.2625 105.837 12.7798 106.243 13.3357 106.59C13.5673 106.733 13.8067 106.863 14.0527 106.979C14.1502 107.026 14.2531 107.08 14.3528 107.12C14.6744 107.249 14.3078 107.074 14.2221 106.925C14.3553 107.154 14.5321 107.354 14.7424 107.514C14.9527 107.674 15.1923 107.791 15.4477 107.858C15.703 107.925 15.969 107.941 16.2305 107.905C16.4921 107.869 16.744 107.782 16.9718 107.648C17.1997 107.514 17.3991 107.337 17.5587 107.126C17.7182 106.915 17.8348 106.675 17.9018 106.418C17.9687 106.162 17.9847 105.895 17.9488 105.633C17.9129 105.37 17.8259 105.118 17.6927 104.889C17.1267 103.898 16.1782 103.634 15.2875 103.061C15.1931 102.999 14.8523 102.743 15.1074 102.953C14.9438 102.82 14.7858 102.679 14.6336 102.53C14.5036 102.404 14.3789 102.272 14.2596 102.136C14.2253 102.096 13.9905 101.799 14.132 101.987C14.2564 102.154 14.0441 101.853 14.0248 101.823C13.9076 101.646 13.7987 101.465 13.6979 101.278C13.6422 101.17 13.4589 100.79 13.5907 101.102C13.4586 100.79 13.3573 100.466 13.2885 100.134C13.2724 100.058 13.2006 99.6106 13.2574 99.9923C13.3142 100.374 13.2574 99.8988 13.2499 99.8192C13.2322 99.5424 13.229 99.265 13.2403 98.9879C13.2403 98.8631 13.2521 98.7394 13.2617 98.6157C13.2681 98.5458 13.3249 98.0275 13.281 98.3802C13.237 98.733 13.3131 98.2103 13.326 98.1404C13.3549 97.993 13.3871 97.8457 13.4235 97.7005C13.4887 97.4311 13.5685 97.1654 13.6626 96.9047C13.7014 96.8299 13.7316 96.7508 13.7526 96.6691C13.7526 96.6799 13.5715 97.0445 13.6744 96.8659C13.7547 96.7251 13.8169 96.5723 13.8973 96.4358C13.9573 96.3282 14.0238 96.2336 14.0859 96.1325C14.3292 95.7399 13.8587 96.3476 14.0859 96.1325C14.1674 96.055 14.2424 95.969 14.3217 95.8894C14.3121 95.898 14.49 95.7496 14.489 95.7432C14.4997 95.812 14.087 95.9819 14.3496 95.8647C14.4257 95.8303 14.8341 95.6281 14.4964 95.7636C14.1588 95.8991 14.5458 95.7636 14.6229 95.7389C15.042 95.5915 14.2778 95.7249 14.6004 95.7302C14.7639 95.7517 14.9291 95.7563 15.0935 95.7442C15.1095 95.7313 14.6444 95.7087 14.8887 95.727C14.9391 95.727 15.2617 95.8346 14.9852 95.7367C14.6637 95.6291 15.4043 96.0432 15.1685 95.8539C14.9841 95.7055 15.4225 96.1099 15.4836 96.1766C15.6144 96.3164 15.7366 96.4648 15.8577 96.6132C15.5972 96.2906 15.9649 96.7745 16.041 96.881C16.1674 97.0628 16.2896 97.2467 16.4129 97.4295C16.6358 97.7618 16.8566 98.0941 17.0989 98.4136C17.3775 98.8646 17.8181 99.1911 18.3297 99.3256C18.8413 99.4601 19.3849 99.3923 19.8481 99.1363C20.3043 98.8627 20.6353 98.4206 20.7702 97.9048C20.9051 97.389 20.833 96.8407 20.5694 96.3777" fill="#24221E"/>
<path d="M86.6565 134.486C82.2385 135.395 77.1022 134.416 74.3937 138.798C74.1163 139.167 73.9154 139.589 73.8029 140.037C73.6905 140.486 73.6687 140.953 73.7388 141.41C73.9725 142.305 75.1258 142.958 75.8578 142.397C75.3682 142.808 75.0366 143.377 74.9199 144.007C74.8032 144.637 74.9087 145.287 75.2184 145.848C75.528 146.408 76.0224 146.842 76.6166 147.076C77.2108 147.31 77.8676 147.329 78.4742 147.129C77.397 147.726 77.5921 149.503 78.5739 150.248C79.1017 150.568 79.6892 150.775 80.3002 150.858C80.9111 150.941 81.5324 150.898 82.1259 150.73C81.6736 152.057 83.2717 153.132 84.6169 153.513C87.9136 154.42 91.365 154.612 94.7414 154.076C94.425 150.774 93.4981 147.559 92.0082 144.598C90.429 141.123 88.6419 137.747 86.6565 134.488" fill="#FFE3D4"/>
<path d="M86.1216 132.541C85.888 132.587 85.6533 132.632 85.4185 132.671L85.0637 132.725C85.301 132.694 85.301 132.694 85.0637 132.725C84.6436 132.775 84.2227 132.82 83.8011 132.859C82.9029 132.945 82.0026 133.016 81.1065 133.13C79.2018 133.276 77.3497 133.826 75.6724 134.743C74.7054 135.308 73.861 136.061 73.189 136.958C72.5171 137.855 72.0312 138.879 71.7602 139.968C71.5914 140.707 71.6438 141.481 71.9107 142.19C72.1776 142.9 72.6472 143.515 73.2607 143.959C73.7781 144.345 74.3983 144.568 75.0423 144.599C75.6863 144.63 76.325 144.468 76.8771 144.134C76.0653 143.077 75.2536 142.021 74.4419 140.967C73.6416 141.694 73.1121 142.673 72.9404 143.743C72.7687 144.813 72.9651 145.909 73.4973 146.852C74.0295 147.794 74.8657 148.527 75.8683 148.929C76.8709 149.331 77.9801 149.379 79.0133 149.064C78.4966 147.837 77.9804 146.608 77.4644 145.379C77.0338 145.669 76.6655 146.042 76.3813 146.478C76.097 146.913 75.9026 147.401 75.8096 147.913C75.7166 148.425 75.7268 148.951 75.8396 149.459C75.9525 149.967 76.1657 150.447 76.4666 150.871C77.86 152.943 80.442 153.057 82.665 152.666C81.8411 151.839 81.0169 151.012 80.1923 150.185C80.0054 150.903 80.0351 151.661 80.2774 152.362C80.5197 153.063 80.9638 153.676 81.5535 154.124C82.7637 155.022 84.1746 155.609 85.6629 155.833C88.8338 156.455 92.0888 156.516 95.2804 156.012C95.7047 155.895 96.0789 155.641 96.3456 155.29C96.6122 154.939 96.7566 154.51 96.7564 154.068C96.39 150.286 95.3154 146.607 93.5891 143.224C92.0471 139.873 90.3135 136.614 88.3971 133.463C88.264 133.235 88.0874 133.034 87.8772 132.874C87.667 132.714 87.4274 132.597 87.1721 132.53C86.9168 132.462 86.6508 132.446 86.3893 132.482C86.1278 132.518 85.8758 132.605 85.6479 132.738C85.4199 132.872 85.2204 133.049 85.0608 133.26C84.9011 133.471 84.7844 133.711 84.7173 133.968C84.6502 134.224 84.6341 134.491 84.6698 134.753C84.7055 135.016 84.7924 135.268 84.9255 135.497C86.7541 138.503 88.4166 141.608 89.9052 144.798C91.4087 147.687 92.3686 150.83 92.737 154.068C93.2279 153.419 93.7195 152.77 94.2118 152.123C92.0553 152.424 89.8677 152.424 87.7112 152.123C87.1395 152.031 86.5679 151.917 85.9962 151.782C85.7133 151.714 85.4292 151.645 85.1506 151.56C85.0787 151.539 84.5418 151.337 84.7079 151.413C84.874 151.489 84.351 151.198 84.2867 151.168C84.093 151.034 84.0809 151.031 84.2502 151.16C84.1818 151.105 84.117 151.045 84.0562 150.981C83.9562 150.875 83.969 150.904 84.0948 151.068C84.0323 150.98 83.9775 150.887 83.9308 150.79C84.1709 150.871 83.9405 151.695 84.0627 151.258C84.1488 150.915 84.1448 150.556 84.0511 150.215C83.9575 149.875 83.7773 149.564 83.5283 149.314C83.2792 149.064 82.9698 148.883 82.6303 148.789C82.2907 148.695 81.9326 148.691 81.591 148.777C81.3466 148.816 81.3198 148.824 81.5095 148.8C81.3713 148.817 81.2319 148.83 81.0937 148.838C80.8174 148.859 80.5399 148.856 80.2641 148.83C80.6081 148.87 79.8954 148.722 79.8128 148.683C79.9886 148.748 79.9693 148.726 79.755 148.617C79.8922 148.737 79.9147 148.751 79.8214 148.662C79.7282 148.573 79.7421 148.594 79.8857 148.77C79.8266 148.684 79.774 148.594 79.7282 148.501C79.8239 148.744 79.8361 148.758 79.7646 148.543C79.7164 148.316 79.7153 148.34 79.7646 148.621C79.7571 148.52 79.7571 148.419 79.7646 148.318C79.7207 148.607 79.7271 148.64 79.7818 148.425C79.7499 148.579 79.6682 148.719 79.5492 148.821C79.7057 148.67 79.6853 148.682 79.4881 148.862C79.8942 148.606 80.1965 148.214 80.3408 147.755C80.4851 147.297 80.4621 146.802 80.2758 146.358C80.0896 145.915 79.7522 145.553 79.3241 145.336C78.8961 145.12 78.4052 145.063 77.9393 145.176C77.8256 145.213 77.7096 145.241 77.592 145.261C77.8299 145.225 77.8299 145.213 77.592 145.225C77.353 145.208 77.3541 145.21 77.592 145.225C77.475 145.198 77.3598 145.165 77.2469 145.125C77.727 145.3 76.8353 144.776 77.2094 145.101C77.1195 145.023 77.0346 144.939 76.9553 144.849C77.085 145.023 77.0861 145.012 76.9607 144.816C77.0314 145.031 77.0293 145.024 76.9543 144.802C76.9035 144.568 76.8932 144.57 76.9232 144.81C76.906 144.668 77.0121 144.037 76.905 144.451C76.9301 144.334 76.9627 144.218 77.0025 144.104C76.9103 144.306 76.9167 144.303 77.0218 144.094C77.1493 143.901 77.1483 143.892 77.0218 144.068C77.1011 143.977 77.187 143.893 77.279 143.816C78.9575 142.287 76.7656 139.406 74.8438 140.649C74.6198 140.774 74.6713 140.777 74.9992 140.657C75.0773 140.612 75.165 140.585 75.2551 140.58C75.3452 140.575 75.4352 140.591 75.518 140.627C75.1654 140.584 75.7077 140.802 75.4108 140.575C75.5448 140.683 75.7002 141.006 75.5877 140.683L75.6713 140.862C75.6777 140.986 75.6799 140.977 75.6777 140.836C75.6777 140.694 75.6777 140.685 75.6713 140.809C75.696 140.696 75.7279 140.584 75.7667 140.475C75.7928 140.379 75.8348 140.289 75.891 140.207C75.9982 140.013 76.1054 139.819 76.2319 139.632C76.2426 139.616 76.6091 139.125 76.3755 139.417C76.6038 139.134 76.8548 138.87 77.1258 138.628C77.1622 138.594 77.5352 138.3 77.3283 138.452C77.1397 138.594 77.5695 138.3 77.6188 138.268C77.8844 138.106 78.1581 137.958 78.4387 137.824C78.9168 137.587 78.0754 137.932 78.5845 137.768C78.7464 137.716 78.9061 137.654 79.069 137.604C79.6787 137.42 80.3004 137.28 80.9297 137.183C81.0744 137.16 81.4602 137.11 81.0969 137.154L81.6328 137.091C81.9919 137.051 82.3509 137.018 82.7111 136.983C84.2115 136.875 85.7053 136.687 87.186 136.421C87.6957 136.274 88.1281 135.934 88.3905 135.471C88.6529 135.009 88.7246 134.462 88.5901 133.947C88.4392 133.437 88.0975 133.006 87.6365 132.743C87.1756 132.48 86.6312 132.406 86.1173 132.537" fill="#24221E"/>
<path d="M96.0705 110.628C97.3921 115.65 97.1299 120.96 95.3202 125.827C93.8196 129.56 91.0811 133.472 87.0049 134.416C86.8902 134.443 86.7712 134.462 86.6544 134.486C88.6392 137.745 90.426 141.121 92.005 144.596C93.4948 147.557 94.422 150.771 94.7392 154.074C98.5716 153.51 102.24 152.131 105.498 150.029C108.756 147.927 111.528 145.151 113.63 141.886C118.393 134.091 119.183 124.163 116.474 115.43C113.764 106.697 107.76 99.4783 100.306 94.2181" fill="#AFD1DD"/>
<path d="M94.1325 111.163C94.7008 113.462 94.9469 115.828 94.8635 118.195C94.7967 120.591 94.311 122.957 93.4283 125.185C93.3908 125.281 93.3522 125.376 93.3136 125.47C93.3936 125.281 93.3862 125.296 93.2911 125.516C93.1839 125.75 93.0767 125.984 92.9696 126.216C92.7416 126.685 92.4955 127.146 92.2311 127.598C91.9653 128.052 91.6801 128.495 91.3736 128.923C91.2975 129.03 91.2203 129.138 91.141 129.245C91.2557 129.097 91.2396 129.116 91.0917 129.301C90.9438 129.486 90.7991 129.653 90.6469 129.823C89.5146 131.248 87.909 132.216 86.1238 132.55C85.8286 132.635 85.5566 132.786 85.3281 132.992C85.0997 133.198 84.9209 133.453 84.8053 133.738C84.6897 134.023 84.6402 134.331 84.6606 134.639C84.6811 134.946 84.7709 135.245 84.9233 135.512C86.7514 138.518 88.4135 141.623 89.902 144.813C91.4059 147.701 92.3659 150.843 92.7338 154.081C92.7412 154.389 92.8176 154.692 92.9571 154.966C93.0967 155.24 93.2959 155.48 93.5401 155.667C93.7842 155.853 94.0671 155.983 94.3678 156.045C94.6685 156.107 94.9793 156.101 95.2772 156.027C100.461 155.188 105.335 153 109.414 149.681C113.552 146.261 116.631 141.725 118.285 136.607C121.832 126.13 119.817 114.306 113.801 105.156C110.465 100.19 106.234 95.895 101.324 92.4909C100.863 92.2256 100.317 92.1527 99.803 92.2878C99.2889 92.423 98.8484 92.7555 98.5763 93.2136C98.3181 93.678 98.2489 94.2245 98.3832 94.7388C98.5174 95.2532 98.8447 95.6955 99.2966 95.9733C100.386 96.7444 101.052 97.252 102.002 98.0404C102.952 98.8287 103.868 99.6536 104.751 100.514C105.609 101.346 106.43 102.21 107.216 103.108C108.06 104.076 108.684 104.851 109.321 105.732C112.21 109.61 114.243 114.061 115.284 118.788C117.343 128.164 115.14 138.981 107.968 145.63C107.101 146.456 106.162 147.202 105.163 147.861C104.051 148.612 102.887 149.284 101.68 149.869C100.566 150.412 99.4108 150.864 98.2248 151.222C96.911 151.628 95.5694 151.936 94.2107 152.145L96.7553 154.089C96.3887 150.307 95.3142 146.628 93.588 143.246C92.0462 139.895 90.3126 136.635 88.3961 133.485C87.9959 134.472 87.5954 135.459 87.1945 136.447C90.9706 135.711 93.8806 132.79 95.752 129.564C97.8105 125.921 98.8949 121.807 98.9 117.619C98.9079 115.09 98.6099 112.568 98.0125 110.11C97.9422 109.855 97.8223 109.616 97.6599 109.407C97.4975 109.198 97.2957 109.024 97.066 108.893C96.8363 108.762 96.5832 108.678 96.3211 108.646C96.0591 108.613 95.7932 108.633 95.5387 108.704C95.2843 108.774 95.0461 108.895 94.8379 109.057C94.6298 109.22 94.4556 109.423 94.3254 109.653C94.1952 109.884 94.1116 110.138 94.0792 110.401C94.0468 110.664 94.0664 110.931 94.1368 111.186" fill="#24221E"/>
<path d="M130.058 37.0641C128.438 37.0617 126.834 37.3876 125.342 38.0224C125.164 37.3857 124.974 36.754 124.773 36.1274C108.561 33.4362 93.6459 25.5723 82.2405 13.7026C66.904 26.5056 49.0516 35.9233 29.8462 41.3424C28.5222 47.7174 28.4691 54.2924 29.6898 60.6881C30.9106 67.0838 33.381 73.1738 36.9587 78.607C40.5364 84.0401 45.1505 88.7088 50.5351 92.344C55.9197 95.9791 61.9682 98.5088 68.3319 99.7871C74.6955 101.065 81.2484 101.067 87.6127 99.7921C93.977 98.517 100.027 95.9904 105.413 92.358C110.8 88.7256 115.416 84.0592 118.997 78.6279C122.577 73.1966 125.051 67.1079 126.275 60.7128C127.936 61.2619 129.697 61.4425 131.435 61.2424C133.173 61.0422 134.846 60.4658 136.341 59.5532C137.835 58.6406 139.114 57.4134 140.09 55.9564C141.065 54.4994 141.714 52.8473 141.991 51.1142C142.269 49.3811 142.168 47.6082 141.695 45.9181C141.223 44.228 140.391 42.6608 139.256 41.3248C138.122 39.9889 136.711 38.916 135.123 38.1802C133.535 37.4444 131.806 37.0632 130.057 37.063" fill="#FFE3D4"/>
<path d="M77.9972 102.706C70.397 102.7 62.8934 100.998 56.0304 97.7214C49.1675 94.4451 43.1173 89.6771 38.3186 83.7635C33.52 77.8498 30.0932 70.9386 28.2869 63.5311C26.4805 56.1237 26.3399 48.4057 27.8751 40.9369C27.9491 40.5747 28.1211 40.2398 28.3721 39.9691C28.6232 39.6984 28.9437 39.5023 29.2985 39.4022C48.2252 34.0449 65.8211 24.7626 80.949 12.155C81.341 11.8267 81.8428 11.6604 82.3526 11.6898C82.8624 11.7191 83.3419 11.942 83.6939 12.3131C94.7907 23.8762 109.314 31.5318 125.1 34.1388C125.454 34.1983 125.787 34.3521 126.062 34.5842C126.337 34.8163 126.545 35.1182 126.665 35.4585C128.696 34.9518 130.813 34.9049 132.864 35.3212C134.915 35.7375 136.849 36.6065 138.523 37.8653C140.198 39.1241 141.573 40.7411 142.548 42.599C143.523 44.457 144.074 46.5093 144.16 48.6073C144.247 50.7052 143.867 52.7962 143.048 54.7286C142.23 56.6611 140.993 58.3865 139.427 59.7799C137.862 61.1732 136.007 62.1995 133.997 62.7844C131.987 63.3694 129.873 63.4982 127.807 63.1616C125.149 74.4143 118.787 84.4386 109.748 91.6143C100.71 98.79 89.5246 102.698 77.9993 102.706M31.589 42.9416C29.3685 55.2453 32.0914 67.9308 39.1627 78.2265C46.2341 88.5221 57.0791 95.591 69.3284 97.8888C81.5776 100.187 94.2354 97.5264 104.536 90.4894C114.837 83.4525 121.943 72.6108 124.302 60.3331C124.356 60.0516 124.47 59.7849 124.635 59.5507C124.799 59.3166 125.012 59.1204 125.258 58.9751C125.505 58.8299 125.779 58.7391 126.063 58.7086C126.347 58.6781 126.635 58.7087 126.906 58.7984C128.452 59.3073 130.099 59.4328 131.704 59.164C133.309 58.8953 134.826 58.2404 136.124 57.2553C137.422 56.2702 138.462 54.9843 139.157 53.5075C139.852 52.0308 140.18 50.4072 140.112 48.7756C140.045 47.144 139.585 45.553 138.772 44.1387C137.958 42.7244 136.815 41.5289 135.441 40.6544C134.066 39.78 132.501 39.2527 130.879 39.1176C129.257 38.9825 127.627 39.2436 126.128 39.8787C125.865 39.9906 125.581 40.0451 125.296 40.0384C125.01 40.0317 124.73 39.964 124.472 39.8398C124.215 39.7157 123.987 39.5379 123.804 39.3183C123.62 39.0988 123.485 38.8425 123.409 38.5666C123.346 38.345 123.283 38.1235 123.218 37.9019C107.666 35.0719 93.331 27.5897 82.0937 16.4376C67.1753 28.5434 50.0073 37.5527 31.5879 42.9416" fill="#24221E"/>
<path d="M77.9972 2.01653C66.688 2.01736 55.7246 5.92873 46.9534 13.0919C38.1822 20.2551 32.1391 30.2324 29.8419 41.3435C49.0472 35.9239 66.8994 26.5062 82.2363 13.7037C93.641 25.5736 108.556 33.4375 124.768 36.1285C121.56 26.2153 115.308 17.5756 106.905 11.4479C98.5032 5.3201 88.3832 2.01894 77.9961 2.0176" fill="#7A6A59"/>
<path d="M29.8418 43.3621C29.5435 43.362 29.2489 43.2953 28.9794 43.1668C28.7099 43.0383 28.4722 42.8512 28.2837 42.6192C28.0952 42.3871 27.9606 42.1158 27.8895 41.825C27.8185 41.5343 27.8128 41.2313 27.8729 40.938C30.165 29.8442 36.0484 19.8222 44.6073 12.4324C53.1661 5.04267 63.9199 0.699882 75.1943 0.0802817C86.4687 -0.539319 97.6308 2.59904 106.943 9.00669C116.255 15.4143 123.194 24.7317 126.68 35.5079C126.786 35.8374 126.806 36.1888 126.738 36.5283C126.67 36.8678 126.516 37.184 126.291 37.4464C126.065 37.7088 125.776 37.9085 125.452 38.0264C125.127 38.1442 124.778 38.1762 124.437 38.1192C108.425 35.465 93.6275 27.8902 82.0872 16.4397C66.8435 28.8097 49.2541 37.9434 30.3863 43.2868C30.2091 43.3367 30.0259 43.362 29.8418 43.3621M77.996 4.03519C67.7426 4.06202 57.7751 7.4286 49.5926 13.6286C41.4101 19.8286 35.4551 28.5268 32.6233 38.4149C50.297 32.9361 66.7193 24.0112 80.9489 12.1518C81.3406 11.8231 81.8423 11.6565 82.3521 11.6858C82.8618 11.7152 83.3413 11.9384 83.6928 12.3099C93.9587 23.0162 107.187 30.3897 121.67 33.4785C118.146 24.7605 112.105 17.2987 104.323 12.0513C96.5407 6.80387 87.3731 4.01046 77.9971 4.02981" fill="#24221E"/>
<path d="M62.9968 43.9386C62.9968 44.5784 62.8078 45.2039 62.4535 45.7359C62.0992 46.2679 61.5957 46.6825 61.0066 46.9274C60.4174 47.1722 59.7692 47.2363 59.1438 47.1114C58.5184 46.9866 57.9439 46.6785 57.493 46.2261C57.0421 45.7737 56.7351 45.1972 56.6107 44.5697C56.4863 43.9422 56.5501 43.2917 56.7941 42.7006C57.0381 42.1095 57.4514 41.6042 57.9816 41.2487C58.5118 40.8933 59.1351 40.7035 59.7728 40.7035C60.6278 40.7035 61.4479 41.0444 62.0525 41.6511C62.6572 42.2577 62.9968 43.0806 62.9968 43.9386Z" fill="#24221E"/>
<path d="M93.6266 43.9386C93.6266 44.5784 93.4375 45.2039 93.0833 45.7359C92.729 46.2679 92.2255 46.6825 91.6363 46.9274C91.0472 47.1722 90.399 47.2363 89.7736 47.1114C89.1481 46.9866 88.5737 46.6785 88.1228 46.2261C87.6719 45.7737 87.3648 45.1972 87.2404 44.5697C87.116 43.9422 87.1799 43.2917 87.4239 42.7006C87.6679 42.1095 88.0811 41.6042 88.6113 41.2487C89.1415 40.8933 89.7649 40.7035 90.4025 40.7035C91.2576 40.7035 92.0777 41.0444 92.6823 41.6511C93.2869 42.2577 93.6266 43.0806 93.6266 43.9386" fill="#24221E"/>
<path d="M54.3183 57.823C54.3183 63.481 50.1157 68.0669 44.9323 68.0669C39.7489 68.0669 35.5452 63.481 35.5452 57.823C35.5452 52.1649 39.7478 47.578 44.9323 47.578C50.1167 47.578 54.3183 52.1649 54.3183 57.823Z" fill="#FFB18F"/>
<path d="M113.599 57.823C113.599 63.481 109.396 68.0669 104.213 68.0669C99.0297 68.0669 94.827 63.481 94.827 57.823C94.827 52.1649 99.0286 47.578 104.213 47.578C109.398 47.578 113.599 52.1649 113.599 57.823Z" fill="#FFB18F"/>
<path d="M76.4002 42.8868C75.9593 42.5028 75.4547 42.1996 74.9093 41.9909C74.5128 41.8462 74.0984 41.7568 73.6777 41.7252C72.8171 41.6473 71.9523 41.8186 71.1857 42.2189C70.4397 42.6049 69.8263 43.2066 69.4247 43.9461C69.2268 44.2983 69.0822 44.6782 68.996 45.0732C68.9361 45.3612 68.9003 45.6536 68.8888 45.9476C68.8965 46.2413 68.9273 46.5341 68.981 46.823C69.1196 47.3308 69.4514 47.7638 69.9049 48.0286C70.1328 48.1622 70.3846 48.2495 70.6461 48.2855C70.9076 48.3214 71.1736 48.3053 71.4289 48.2381C71.6842 48.1709 71.9238 48.0539 72.134 47.8937C72.3443 47.7336 72.521 47.5335 72.6541 47.3048L72.8567 46.823C72.9524 46.4709 72.9524 46.0996 72.8567 45.7475C72.8567 45.7292 72.8567 45.7099 72.8492 45.6916C72.8728 45.8701 72.8974 46.0487 72.921 46.2293C72.903 46.0601 72.9048 45.8894 72.9264 45.7206C72.9017 45.8992 72.8781 46.0777 72.8546 46.2584C72.8824 46.0701 72.9328 45.886 73.0046 45.7099L72.8021 46.1906C72.8856 45.9952 72.9937 45.8112 73.1236 45.6432C73.0164 45.7798 72.9092 45.9153 72.8095 46.0519C72.9312 45.8984 73.07 45.7595 73.2233 45.6378L72.816 45.954C72.9752 45.8336 73.1479 45.7322 73.3305 45.6518L72.8503 45.8561C73.0566 45.7719 73.2727 45.7141 73.4934 45.6841L72.9575 45.7561C73.1991 45.726 73.4436 45.726 73.6852 45.7561L73.1493 45.6841C73.3891 45.7187 73.6236 45.7837 73.8471 45.8777L73.368 45.6744C73.5495 45.7555 73.7214 45.8569 73.8803 45.9766L73.473 45.6615C73.5041 45.6851 73.5352 45.7109 73.5641 45.7368C73.9492 46.1026 74.4553 46.3129 74.9854 46.3272C75.5177 46.3236 76.0276 46.1118 76.4066 45.7368C76.7824 45.3578 76.9939 44.8453 76.995 44.3107C76.9969 44.0456 76.9458 43.7828 76.8447 43.5379C76.7436 43.2929 76.5947 43.0708 76.4066 42.8846" fill="#24221E"/>
<path d="M66.0698 52.3122H84.7465C84.7465 52.3122 85.7744 67.7873 77.3787 67.7873C68.9831 67.7873 66.0698 52.3122 66.0698 52.3122Z" fill="white"/>
<path d="M77.3777 69.8038C67.43 69.8038 64.2252 53.3856 64.0934 52.6865C64.0388 52.3951 64.0488 52.0952 64.1228 51.8081C64.1968 51.5211 64.3329 51.2539 64.5215 51.0256C64.7101 50.7973 64.9465 50.6136 65.214 50.4874C65.4814 50.3613 65.7733 50.2958 66.0688 50.2957H84.7465C85.2576 50.2946 85.7499 50.489 86.1233 50.8392C86.4966 51.1895 86.723 51.6693 86.7562 52.181C86.827 53.2501 87.3264 62.7573 83.0423 67.3517C82.3234 68.1366 81.4478 68.7608 80.4726 69.1839C79.4974 69.6069 78.4443 69.8192 77.382 69.807M68.6144 54.332C69.8866 58.8716 72.802 65.774 77.3777 65.774C77.8904 65.7889 78.4002 65.6906 78.871 65.4862C79.3418 65.2818 79.7621 64.9762 80.1023 64.591C82.2224 62.3185 82.7422 57.4197 82.7819 54.3266L68.6144 54.332Z" fill="#24221E"/>
</g>
<defs>
<clipPath id="clip0_32_1383">
<rect width="169" height="229" fill="white"/>
</clipPath>
</defs>
</svg>
