<svg width="82" height="82" viewBox="0 0 82 82" fill="none" xmlns="http://www.w3.org/2000/svg">
<rect x="40.9731" y="2.75657" width="54.0464" height="54.0464" rx="27.0232" transform="rotate(45 40.9731 2.75657)" fill="white"/>
<path d="M46.9989 45.2769L42.6952 40.9732L47 36.6685C47.2283 36.4401 47.3566 36.1304 47.3566 35.8074C47.3566 35.4845 47.2283 35.1747 47 34.9464C46.7716 34.718 46.4619 34.5897 46.1389 34.5897C45.816 34.5897 45.5062 34.718 45.2779 34.9464L40.9731 39.2511L36.6684 34.9464C36.4401 34.718 36.1303 34.5897 35.8074 34.5897C35.4844 34.5897 35.1747 34.718 34.9463 34.9464C34.718 35.1747 34.5897 35.4845 34.5897 35.8074C34.5897 36.1304 34.718 36.4401 34.9463 36.6685L39.2511 40.9732L34.9463 45.2779C34.718 45.5063 34.5897 45.816 34.5897 46.1389C34.5897 46.4619 34.718 46.7716 34.9463 47C35.1747 47.2284 35.4844 47.3566 35.8074 47.3566C36.1303 47.3566 36.4401 47.2284 36.6684 47L40.9731 42.6953L45.2779 47C45.5062 47.2284 45.816 47.3566 46.1389 47.3566C46.4619 47.3566 46.7716 47.2284 47 47C47.2283 46.7716 47.3566 46.4619 47.3566 46.1389C47.3566 45.816 47.2283 45.5063 47 45.2779L46.9989 45.2769Z" fill="#FF5C5C"/>
<rect x="40.9731" y="2.75657" width="54.0464" height="54.0464" rx="27.0232" transform="rotate(45 40.9731 2.75657)" stroke="#FF5C5C" stroke-width="3"/>
</svg>
