<svg width="24" height="24" viewBox="0 0 24 24" fill="none" xmlns="http://www.w3.org/2000/svg">
<path d="M11 20C12.028 20 13.0123 19.8093 13.953 19.428C14.893 19.0467 15.7397 18.5133 16.493 17.828L15.76 17.115C15.1007 17.7063 14.3767 18.1683 13.588 18.501C12.8 18.8337 11.9373 19 11 19C9.05332 19 7.39999 18.32 6.03999 16.96C4.67999 15.6 3.99999 13.9467 3.99999 12C3.99999 10.0667 4.68332 8.41667 6.04999 7.05C7.41666 5.68333 9.06666 5 11 5C12.9333 5 14.5833 5.68333 15.95 7.05C17.3167 8.41667 18 10.0667 18 12V13.387L15.848 11.235L15.135 11.923L18.5 15.288L21.865 11.923L21.152 11.235L19 13.412V12C19 10.8913 18.7913 9.852 18.374 8.882C17.9567 7.912 17.3857 7.06433 16.661 6.339C15.9357 5.61433 15.088 5.04333 14.118 4.626C13.148 4.20867 12.1087 4 11 4C9.89132 4 8.85199 4.20867 7.88199 4.626C6.91199 5.04333 6.06432 5.61433 5.33899 6.339C4.61432 7.06433 4.04332 7.912 3.62599 8.882C3.20866 9.852 2.99999 10.8913 2.99999 12C2.99999 14.218 3.77899 16.1057 5.33699 17.663C6.89432 19.221 8.78199 20 11 20ZM13.885 15.77V11H12.885V9.885C12.885 9.36033 12.7017 8.915 12.335 8.549C11.9703 8.183 11.5253 8 11 8C10.4753 8 10.03 8.183 9.66399 8.549C9.29799 8.91567 9.11499 9.361 9.11499 9.885V11H8.11499V15.77H13.885ZM12.115 11H9.88499V9.885C9.88499 9.57567 9.99366 9.31233 10.211 9.095C10.4283 8.87767 10.6913 8.76933 11 8.77C11.3087 8.77 11.572 8.87867 11.79 9.096C12.0067 9.31333 12.115 9.57667 12.115 9.886V11Z" fill="black"/>
</svg>
