<svg xmlns="http://www.w3.org/2000/svg" xmlns:xlink="http://www.w3.org/1999/xlink" width="30" height="30" viewBox="0 0 30 30">
  <defs>
    <clipPath id="clip-path">
      <rect id="사각형_115" data-name="사각형 115" width="30" height="30" fill="#fc5d5d"/>
    </clipPath>
  </defs>
  <g id="ico_bylaw" clip-path="url(#clip-path)">
    <g id="teacher" transform="translate(0 0)">
      <path id="패스_93" data-name="패스 93" d="M29.121,27.07h-.937V24.434a.879.879,0,0,0-.879-.879h-.336a6.748,6.748,0,0,0-6.695-5.977H18.223v-1.03a5.59,5.59,0,0,0,2.082-2.85A5.712,5.712,0,0,0,23.5,8.569V8.5q0-.232-.013-.461A4.1,4.1,0,1,0,19.4,1.224,8.467,8.467,0,0,0,8.922,2.586,8.566,8.566,0,0,0,6.5,8.569,5.711,5.711,0,0,0,9.7,13.7a5.59,5.59,0,0,0,2.082,2.85v1.03H8.555a6.679,6.679,0,0,0-3.53,1,2.894,2.894,0,0,0-.764-.209L1.745,4.1A.879.879,0,0,0,.013,4.4L2.53,18.673A2.933,2.933,0,0,0,1,21.782l.2,1.109a2.911,2.911,0,0,0,.626,1.356V27.07H.879a.879.879,0,1,0,0,1.758H12.171a3.1,3.1,0,0,1,2.208.914h0a.878.878,0,0,0,1.241,0,3.1,3.1,0,0,1,2.208-.914H29.121a.879.879,0,0,0,0-1.758Zm-6.8-25.312a2.343,2.343,0,0,1,.88,4.515,8.439,8.439,0,0,0-2.257-3.845c-.043-.042-.086-.083-.129-.124a2.33,2.33,0,0,1,1.507-.547ZM10.313,8.2a.879.879,0,0,0-.879.879v2.3A3.956,3.956,0,0,1,8.262,8.569a6.81,6.81,0,0,1,6.6-6.81A6.738,6.738,0,0,1,21.738,8.5v.073a3.956,3.956,0,0,1-1.172,2.813v-2.3a.879.879,0,0,0-.879-.879h-.9a3.343,3.343,0,0,1-3.006-1.858.879.879,0,0,0-1.572,0A3.343,3.343,0,0,1,11.208,8.2Zm.879,3.809V9.961h.016A5.089,5.089,0,0,0,15,8.285a5.089,5.089,0,0,0,3.792,1.676h.016v2.051a3.809,3.809,0,1,1-7.617,0Zm6.152,7.324h.142a2.637,2.637,0,0,1-4.972,0h.142a.879.879,0,0,0,.879-.879V17.382a5.572,5.572,0,0,0,2.93,0v1.075A.879.879,0,0,0,17.344,19.336ZM2.922,22.586l-.2-1.109a1.172,1.172,0,0,1,.951-1.358,1.186,1.186,0,0,1,.206-.018,1.173,1.173,0,0,1,1.152.969l.2,1.109a1.172,1.172,0,1,1-2.308.407Zm11.2,4.888a4.87,4.87,0,0,0-1.95-.4h-8.6V25.312h9.082a1.466,1.466,0,0,1,1.465,1.465ZM15,24.569a3.213,3.213,0,0,0-2.344-1.014H6.76a2.912,2.912,0,0,0,.2-1.681l-.2-1.109a2.931,2.931,0,0,0-.343-.951,4.946,4.946,0,0,1,2.132-.478h2.139a4.395,4.395,0,0,0,8.612,0h.967A4.988,4.988,0,0,1,25.2,23.555H17.344A3.214,3.214,0,0,0,15,24.569Zm11.426,2.5h-8.6a4.869,4.869,0,0,0-1.95.4v-.7a1.466,1.466,0,0,1,1.465-1.465h9.082Z" transform="translate(0 0)" fill="#fc5d5d"/>
    </g>
  </g>
</svg>
