<svg width="48" height="49" viewBox="0 0 48 49" fill="none" xmlns="http://www.w3.org/2000/svg">
<g clip-path="url(#clip0_81_684)">
<path d="M44 10.5485L21.18 33.3885L12.7 24.9085L15.52 22.0885L21.18 27.7485L41.18 7.74848L44 10.5485ZM24 40.1885C15.18 40.1885 8 33.0085 8 24.1885C8 15.3685 15.18 8.18848 24 8.18848C27.14 8.18848 30.08 9.10848 32.56 10.6885L35.46 7.78848C32.2 5.52848 28.26 4.18848 24 4.18848C12.96 4.18848 4 13.1485 4 24.1885C4 35.2285 12.96 44.1885 24 44.1885C27.46 44.1885 30.72 43.3085 33.56 41.7485L30.56 38.7485C28.56 39.6685 26.34 40.1885 24 40.1885ZM38 30.1885H32V34.1885H38V40.1885H42V34.1885H48V30.1885H42V24.1885H38V30.1885Z" fill="#C9CDD2"/>
</g>
<defs>
<clipPath id="clip0_81_684">
<rect width="48" height="48" fill="white" transform="translate(0 0.0634766)"/>
</clipPath>
</defs>
</svg>
