<svg xmlns="http://www.w3.org/2000/svg" xmlns:xlink="http://www.w3.org/1999/xlink" width="30" height="30" viewBox="0 0 30 30">
  <defs>
    <clipPath id="clip-path">
      <rect id="사각형_1243" data-name="사각형 1243" width="30" height="30" transform="translate(1249 137)" fill="#fff" stroke="#707070" stroke-width="1"/>
    </clipPath>
  </defs>
  <g id="마스크_그룹_165" data-name="마스크 그룹 165" transform="translate(-1249 -137)" clip-path="url(#clip-path)">
    <g id="그룹_774" data-name="그룹 774" transform="translate(1074.578 -85.066)">
      <g id="그룹_765" data-name="그룹 765" transform="translate(176.422 223.066)">
        <path id="패스_1070" data-name="패스 1070" d="M181.579,228.223h-5.157v-5.157h5.157Zm-3.881-1.276h2.6v-2.6h-2.6Z" transform="translate(-176.422 -223.066)" fill="#454545"/>
        <g id="그룹_764" data-name="그룹 764" transform="translate(5.842 1.941)">
          <rect id="사각형_888" data-name="사각형 888" width="0.97" height="1.276" fill="#454545"/>
          <rect id="사각형_889" data-name="사각형 889" width="0.97" height="1.276" transform="translate(2.029)" fill="#454545"/>
          <rect id="사각형_890" data-name="사각형 890" width="0.97" height="1.276" transform="translate(4.057)" fill="#454545"/>
          <rect id="사각형_891" data-name="사각형 891" width="0.97" height="1.276" transform="translate(6.086)" fill="#454545"/>
          <rect id="사각형_892" data-name="사각형 892" width="0.97" height="1.276" transform="translate(8.114)" fill="#454545"/>
          <rect id="사각형_893" data-name="사각형 893" width="0.97" height="1.276" transform="translate(10.143)" fill="#454545"/>
          <rect id="사각형_894" data-name="사각형 894" width="0.97" height="1.276" transform="translate(12.171)" fill="#454545"/>
        </g>
      </g>
      <g id="그룹_767" data-name="그룹 767" transform="translate(194.938 223.066)">
        <path id="패스_1071" data-name="패스 1071" d="M235.763,228.223h-5.157v-5.157h5.157Zm-3.881-1.276h2.6v-2.6h-2.6Z" transform="translate(-230.606 -223.066)" fill="#454545"/>
        <g id="그룹_766" data-name="그룹 766" transform="translate(1.94 4.603)">
          <rect id="사각형_895" data-name="사각형 895" width="1.276" height="0.97" fill="#454545"/>
          <rect id="사각형_896" data-name="사각형 896" width="1.276" height="0.97" transform="translate(0 2.028)" fill="#454545"/>
          <rect id="사각형_897" data-name="사각형 897" width="1.276" height="0.97" transform="translate(0 4.057)" fill="#454545"/>
          <rect id="사각형_898" data-name="사각형 898" width="1.276" height="0.97" transform="translate(0 6.085)" fill="#454545"/>
          <rect id="사각형_899" data-name="사각형 899" width="1.276" height="0.97" transform="translate(0 8.114)" fill="#454545"/>
          <rect id="사각형_900" data-name="사각형 900" width="1.276" height="0.97" transform="translate(0 10.143)" fill="#454545"/>
          <rect id="사각형_901" data-name="사각형 901" width="1.276" height="0.97" transform="translate(0 12.171)" fill="#454545"/>
        </g>
      </g>
      <g id="그룹_770" data-name="그룹 770" transform="translate(181.113 243.523)">
        <g id="그룹_769" data-name="그룹 769" transform="translate(0 0)">
          <rect id="사각형_902" data-name="사각형 902" width="0.97" height="1.276" transform="translate(12.171)" fill="#454545"/>
          <rect id="사각형_903" data-name="사각형 903" width="0.97" height="1.276" transform="translate(10.143)" fill="#454545"/>
          <rect id="사각형_904" data-name="사각형 904" width="0.97" height="1.276" transform="translate(8.114)" fill="#454545"/>
          <rect id="사각형_905" data-name="사각형 905" width="0.97" height="1.276" transform="translate(6.086)" fill="#454545"/>
          <rect id="사각형_906" data-name="사각형 906" width="0.97" height="1.276" transform="translate(4.057)" fill="#454545"/>
          <rect id="사각형_907" data-name="사각형 907" width="0.97" height="1.276" transform="translate(2.029)" fill="#454545"/>
          <rect id="사각형_908" data-name="사각형 908" width="0.97" height="1.276" fill="#454545"/>
        </g>
      </g>
      <g id="그룹_772" data-name="그룹 772" transform="translate(176.422 228.995)">
        <path id="패스_1073" data-name="패스 1073" d="M181.578,282.407h-5.157V277.25h5.157Zm-3.881-1.276h2.6v-2.6h-2.6Z" transform="translate(-176.421 -264.663)" fill="#454545"/>
        <g id="그룹_771" data-name="그룹 771" transform="translate(1.941)">
          <rect id="사각형_909" data-name="사각형 909" width="1.276" height="0.97" transform="translate(0 12.171)" fill="#454545"/>
          <rect id="사각형_910" data-name="사각형 910" width="1.276" height="0.97" transform="translate(0 10.143)" fill="#454545"/>
          <rect id="사각형_911" data-name="사각형 911" width="1.276" height="0.97" transform="translate(0 8.114)" fill="#454545"/>
          <rect id="사각형_912" data-name="사각형 912" width="1.276" height="0.97" transform="translate(0 6.086)" fill="#454545"/>
          <rect id="사각형_913" data-name="사각형 913" width="1.276" height="0.97" transform="translate(0 4.057)" fill="#454545"/>
          <rect id="사각형_914" data-name="사각형 914" width="1.276" height="0.97" transform="translate(0 2.029)" fill="#454545"/>
          <rect id="사각형_915" data-name="사각형 915" width="1.276" height="0.97" transform="translate(0)" fill="#454545"/>
        </g>
      </g>
      <rect id="사각형_1241" data-name="사각형 1241" width="10" height="2" transform="translate(194.422 245.066)" fill="#00a58a"/>
      <rect id="사각형_1242" data-name="사각형 1242" width="10" height="2" transform="translate(200.422 241.066) rotate(90)" fill="#00a58a"/>
    </g>
  </g>
</svg>
