<svg width="100" height="123" viewBox="0 0 100 123" fill="none" xmlns="http://www.w3.org/2000/svg">
<g filter="url(#filter0_d_39_294)">
<path d="M84.3457 81.4866C84.908 86.2795 84.8518 90.3676 84.1489 93.6098C83.699 95.6961 82.9961 97.4723 82.0121 98.882C81.028 100.292 79.819 101.363 78.3288 102.04C77.8227 102.406 74.3925 104.633 69.5003 106.156C69.3035 106.212 69.0786 106.297 68.8536 106.353C61.4309 108.496 54.4581 107.735 48.6942 104.126L48.6099 104.07L22.1243 82.5016C20.4936 81.2611 19.4814 79.4003 19.3408 77.314C19.2002 75.5942 19.7345 73.8744 20.7185 72.4929L21.2246 71.7881C22.3212 70.2656 23.9238 69.2507 25.7513 68.9687C27.5789 68.6868 29.4065 69.1379 30.8966 70.2656L36.1825 74.2691C36.2387 74.3255 36.3512 74.2409 36.3231 74.1845L23.6145 34.7419C22.4899 31.3023 24.3174 27.5525 27.6914 26.4248C29.3221 25.8609 31.0372 26.0019 32.5836 26.7913C34.0738 27.5807 35.2265 28.934 35.7607 30.5974L39.8376 43.2563C40.5968 41.8184 41.862 40.6907 43.4365 40.155C45.0672 39.5911 46.7823 39.7321 48.3287 40.5215C49.847 41.3109 50.9998 42.6642 51.534 44.3276C52.265 42.777 53.5865 41.5083 55.2735 40.9162C58.2819 39.8731 61.5434 41.3109 62.9492 44.1021C63.6802 42.5515 65.0017 41.3109 66.6887 40.7471C66.7449 40.7189 66.8011 40.7189 66.8574 40.6907C70.0345 39.7039 73.0148 41.3955 74.1395 44.8915L80.8593 65.7829C80.9436 65.8956 83.3898 73.3951 84.3457 81.4866Z" fill="white"/>
<path d="M80.9155 65.853L74.1957 44.9544C73.0711 41.4854 70.0908 39.765 66.9136 40.7803C66.8574 40.8085 66.8011 40.8085 66.7449 40.8368C65.0579 41.4008 63.7365 42.6418 63.0054 44.1929C61.5715 41.3726 58.3381 39.9625 55.3297 41.006C53.6427 41.57 52.3212 42.8392 51.5902 44.4186C51.056 42.7546 49.9032 41.4008 48.385 40.6111C46.8667 39.8214 45.1235 39.6804 43.4927 40.2445C41.9182 40.7803 40.653 41.9085 39.8938 43.3468L35.7607 30.599C35.2265 28.935 34.0738 27.5812 32.5555 26.7915C31.0372 26.0019 29.294 25.8608 27.6633 26.4249C24.3174 27.5812 22.4899 31.3041 23.5864 34.7449L36.3231 74.2012C36.3512 74.2858 36.2668 74.3422 36.1825 74.2858L30.8966 70.2809C29.4065 69.1528 27.5789 68.7015 25.7513 68.9836C23.9238 69.2656 22.3212 70.2809 21.2246 71.8039L20.7185 72.509C19.7345 73.8909 19.2002 75.6113 19.3408 77.3317C19.5095 79.4188 20.4936 81.3084 22.1243 82.5211L48.6099 104.068L48.6942 104.125C54.4581 107.735 61.4309 108.497 68.8536 106.353C69.0786 106.297 69.2754 106.241 69.5003 106.156C74.3925 104.633 77.8227 102.376 78.3288 102.038C81.281 100.628 83.2492 97.8073 84.1489 93.605C84.8518 90.3616 84.908 86.2721 84.3457 81.4776C83.3898 73.4115 80.9436 65.9094 80.9155 65.853ZM82.6306 81.7032C83.4741 88.7822 83.2773 97.7791 77.5697 100.43L77.5134 100.458L77.4572 100.515C77.4291 100.543 73.7177 103.109 68.4319 104.632C61.4028 106.663 55.1048 105.986 49.7064 102.63L23.1928 81.111L23.1646 81.0828C21.9838 80.1803 21.2246 78.8265 21.084 77.3035C20.9716 75.978 21.3652 74.6524 22.1243 73.5807L22.5742 72.932C23.3052 71.9167 24.3174 71.1834 25.4983 70.8732C27.0166 70.4783 28.5911 70.7886 29.8563 71.7475L37.9538 77.8676C38.5161 78.2906 39.3034 77.7266 39.0785 77.0215L25.2453 34.1808C24.8516 32.9681 24.936 31.6707 25.4983 30.5144C26.0606 29.358 27.0166 28.5119 28.1975 28.1171C29.3783 27.7222 30.6436 27.8069 31.7401 28.3709C32.8648 28.935 33.6801 29.9221 34.0738 31.1348L39.1628 46.9287L44.1675 63.2301C44.3081 63.7096 44.7861 63.9634 45.2641 63.8224C45.7139 63.6814 45.967 63.1737 45.8264 62.6943L40.7655 46.2518C40.8217 44.2493 42.0869 42.5007 43.9426 41.8521C45.3203 41.3726 46.8105 41.5982 48.0195 42.4443C48.8911 43.0366 49.5096 43.9673 49.847 44.9826L50.9717 48.508L54.4862 60.579C54.6268 61.0585 55.1048 61.3123 55.5827 61.1713C56.0326 61.0303 56.3138 60.5226 56.1732 60.0432L52.6305 47.9158C52.265 45.6313 53.6146 43.375 55.7514 42.6418C55.7796 42.6418 55.8358 42.6136 55.8639 42.6136C58.2538 41.8803 60.8405 43.234 61.6277 45.6877L61.9651 46.7312L64.9174 57.6459C65.0579 58.1253 65.5359 58.4074 65.9858 58.2664C65.9858 58.2664 65.9858 58.2664 66.0139 58.2664C66.4637 58.1253 66.7168 57.6459 66.6043 57.1664L64.0176 47.5773V47.4081C63.8489 45.2083 65.1704 43.1776 67.1948 42.5007C69.5565 41.7111 71.609 42.8674 72.4525 45.4903L79.1723 66.3889C79.2848 66.5017 81.7028 73.8063 82.6306 81.7032Z" fill="black"/>
</g>
<defs>
<filter id="filter0_d_39_294" x="4.3186" y="11.0828" width="95.408" height="111.459" filterUnits="userSpaceOnUse" color-interpolation-filters="sRGB">
<feFlood flood-opacity="0" result="BackgroundImageFix"/>
<feColorMatrix in="SourceAlpha" type="matrix" values="0 0 0 0 0 0 0 0 0 0 0 0 0 0 0 0 0 0 127 0" result="hardAlpha"/>
<feOffset/>
<feGaussianBlur stdDeviation="7.5"/>
<feComposite in2="hardAlpha" operator="out"/>
<feColorMatrix type="matrix" values="0 0 0 0 0 0 0 0 0 0 0 0 0 0 0 0 0 0 0.5 0"/>
<feBlend mode="normal" in2="BackgroundImageFix" result="effect1_dropShadow_39_294"/>
<feBlend mode="normal" in="SourceGraphic" in2="effect1_dropShadow_39_294" result="shape"/>
</filter>
</defs>
</svg>
