<svg xmlns="http://www.w3.org/2000/svg" xmlns:xlink="http://www.w3.org/1999/xlink" width="68" height="68" viewBox="0 0 68 68">
  <defs>
    <filter id="bg" x="0" y="0" width="68" height="68" filterUnits="userSpaceOnUse">
      <feOffset dy="3" input="SourceAlpha"/>
      <feGaussianBlur stdDeviation="3" result="blur"/>
      <feFlood flood-opacity="0.161"/>
      <feComposite operator="in" in2="blur"/>
      <feComposite in="SourceGraphic"/>
    </filter>
    <clipPath id="clip-path">
      <rect id="사각형_1281" data-name="사각형 1281" width="30" height="30" transform="translate(1246 137)" fill="#fff" stroke="#707070" stroke-width="1"/>
    </clipPath>
  </defs>
  <g id="그룹_1015" data-name="그룹 1015" transform="translate(-1229 -121)">
    <g transform="matrix(1, 0, 0, 1, 1229, 121)" filter="url(#bg)">
      <g id="bg-2" data-name="bg" transform="translate(9 6)" fill="#fff" stroke="#e3e3e3" stroke-width="1">
        <rect width="50" height="50" rx="25" stroke="none"/>
        <rect x="0.5" y="0.5" width="49" height="49" rx="24.5" fill="none"/>
      </g>
    </g>
    <g id="마스크_그룹_169" data-name="마스크 그룹 169" transform="translate(2)" clip-path="url(#clip-path)">
      <path id="패스_1840" data-name="패스 1840" d="M28.666,12.913a5.124,5.124,0,1,0,5.115,5.179A5.126,5.126,0,0,0,28.666,12.913Zm3.225,5.941h-2.5v2.5H27.912v-2.5h-2.5v-.66a.4.4,0,0,1-.016-.127.422.422,0,0,1,.016-.1v-.588h2.5v-2.5H29.39v2.5h2.5Z" transform="translate(1240.464 125.965)" fill="#00a58a"/>
      <g id="그룹_1012" data-name="그룹 1012" transform="translate(971.655 79.54)">
        <path id="패스_1841" data-name="패스 1841" d="M304.73,82.476v.017l-.382-.407c-1.942-1.915-4.082-1.374-5.8,0a.735.735,0,0,0-.064.068l-.061.065a1.1,1.1,0,0,0-.267,1.2c.359.67.959.552,1.756.055,0,0,2.176-1.171,3.224-.055l6.411,6.825v.01s.037.039.125.124v-.02a2.664,2.664,0,0,1,0,3.582c-.019.019-.044.048-.044.048a.821.821,0,0,1-.082.085,2.363,2.363,0,0,1-3.365,0l-5.647-6.012-1.748.782,5.827,6.2c.08.085.141.15.193.208l.143.16.009-.02c1.846,1.725,3.74,1.731,5.8,0a.28.28,0,0,0,.062-.065.436.436,0,0,0,.061-.065,4.188,4.188,0,0,0,0-6.238Zm0,0" transform="translate(-11.953 -11.108)" fill="#454545"/>
        <path id="패스_1842" data-name="패스 1842" d="M283.288,74.323v-.017l.382.407c1.942,1.915,4.082,1.375,5.8,0a.732.732,0,0,0,.064-.068l.061-.065a1.1,1.1,0,0,0,.267-1.2c-.359-.67-.959-.552-1.756-.055,0,0-2.176,1.172-3.224.056l-6.411-6.825v-.01s-.036-.039-.125-.124v.019a2.663,2.663,0,0,1,0-3.582l.043-.048a.863.863,0,0,1,.082-.085,2.364,2.364,0,0,1,3.365,0l5.647,6.012,1.748-.782-5.827-6.2c-.079-.085-.141-.15-.193-.208l-.143-.16-.009.02c-1.846-1.725-3.74-1.731-5.8,0a.271.271,0,0,0-.061.065.376.376,0,0,0-.061.065,4.188,4.188,0,0,0,0,6.238Zm0,0" transform="translate(0)" fill="#454545"/>
      </g>
    </g>
  </g>
</svg>
