<svg xmlns="http://www.w3.org/2000/svg" xmlns:xlink="http://www.w3.org/1999/xlink" width="16" height="16" viewBox="0 0 16 16">
  <defs>
    <clipPath id="clip-path">
      <rect id="사각형_559" data-name="사각형 559" width="16" height="16" transform="translate(840.897 2985.897)" fill="#72787f" stroke="#707070" stroke-width="1"/>
    </clipPath>
  </defs>
  <g id="ico_like" transform="translate(-840.897 -2985.897)" clip-path="url(#clip-path)">
    <g id="Layer_2" data-name="Layer 2" transform="translate(841 2986.509)">
      <g id="Layer_28" data-name="Layer 28">
        <path id="패스_884" data-name="패스 884" d="M15.392,7.933A1.579,1.579,0,0,0,14.215,5.3H11.15a10.209,10.209,0,0,0,.433-2.668V2.106A2.108,2.108,0,0,0,9.477,0H8.95A.526.526,0,0,0,8.44.4L8.153,1.546c-.4,1.607-1.678,3.38-3,3.7a1.582,1.582,0,0,0-1.469-1H.526A.526.526,0,0,0,0,4.774v9.477a.526.526,0,0,0,.526.526H3.685a1.579,1.579,0,0,0,1.426-.9l1.809.6a5.779,5.779,0,0,0,1.832.3h4.411a1.579,1.579,0,0,0,1.469-2.161,1.579,1.579,0,0,0,.761-2.577,1.576,1.576,0,0,0,0-2.106ZM4.212,13.2a.526.526,0,0,1-.526.526H1.053V5.3H3.685a.526.526,0,0,1,.526.526Zm8.95-4.738h1.053a.526.526,0,1,1,0,1.053H13.162a.526.526,0,1,0,0,1.053h1.053a.526.526,0,1,1,0,1.053H13.162a.526.526,0,1,0,0,1.053.526.526,0,1,1,0,1.053H8.752a4.728,4.728,0,0,1-1.5-.243l-1.988-.663V6.3A4.243,4.243,0,0,0,7.629,4.767,7.666,7.666,0,0,0,9.173,1.8l.188-.749h.115A1.053,1.053,0,0,1,10.53,2.106v.526a8.327,8.327,0,0,1-.5,2.668H8.95a.526.526,0,1,0,0,1.053h5.265a.526.526,0,1,1,0,1.053H13.162a.526.526,0,1,0,0,1.053Z" fill="#72787f"/>
      </g>
    </g>
  </g>
</svg>
