<svg xmlns="http://www.w3.org/2000/svg" xmlns:xlink="http://www.w3.org/1999/xlink" width="30" height="30" viewBox="0 0 30 30">
  <defs>
    <clipPath id="clip-path">
      <rect id="사각형_884" data-name="사각형 884" width="30" height="30" transform="translate(243 213)" fill="#ff5c5c"/>
    </clipPath>
  </defs>
  <g id="ico_" transform="translate(-243 -213)" clip-path="url(#clip-path)">
    <g id="calendar_2_" data-name="calendar (2)" transform="translate(243.345 213)">
      <path id="패스_1078" data-name="패스 1078" d="M11.456,18.236a.886.886,0,0,0,1.253,0l3.162-3.162a.886.886,0,0,0-1.253-1.253l-2.536,2.536L10.927,15.2a.886.886,0,1,0-1.253,1.253Zm0,0" transform="translate(1.883 2.712)" fill="#ff5c5c"/>
      <path id="패스_1079" data-name="패스 1079" d="M13.385,23.821a7.032,7.032,0,1,0-7.032-7.032A7.04,7.04,0,0,0,13.385,23.821Zm0-12.293a5.261,5.261,0,1,1-5.261,5.26,5.266,5.266,0,0,1,5.261-5.26Zm0,0" transform="translate(1.271 1.951)" fill="#ff5c5c"/>
      <path id="패스_1080" data-name="패스 1080" d="M26.446,1.886H24.83v-1a.886.886,0,1,0-1.772,0v1H21.318v-1a.886.886,0,0,0-1.772,0v1H9.765v-1a.886.886,0,0,0-1.772,0v1H6.252v-1a.886.886,0,0,0-1.772,0v1H2.865A2.868,2.868,0,0,0,0,4.751V27.135A2.868,2.868,0,0,0,2.865,30H26.446a2.868,2.868,0,0,0,2.865-2.865V4.751a2.868,2.868,0,0,0-2.865-2.865Zm1.093,25.249a1.094,1.094,0,0,1-1.093,1.093H2.865a1.1,1.1,0,0,1-1.093-1.093V9.252H27.539ZM1.772,4.751A1.094,1.094,0,0,1,2.865,3.658H4.481v1a.886.886,0,0,0,1.772,0v-1H7.993v1a.886.886,0,0,0,1.772,0v-1h9.782v1a.886.886,0,0,0,1.772,0v-1h1.741v1a.886.886,0,0,0,1.772,0v-1h1.615a1.094,1.094,0,0,1,1.093,1.093V7.48H1.772Zm0,0" transform="translate(0 0)" fill="#ff5c5c"/>
    </g>
  </g>
</svg>
