<svg xmlns="http://www.w3.org/2000/svg" width="37.054" height="25" viewBox="0 0 37.054 25">
  <g id="그룹_1032" data-name="그룹 1032" transform="translate(-3107.792 -1144.254)">
    <g id="그룹_1016" data-name="그룹 1016" transform="translate(3108.05 1144.254)">
      <g id="그룹_1013" data-name="그룹 1013" transform="translate(2.56)">
        <g id="그룹_1012" data-name="그룹 1012">
          <rect id="사각형_1058" data-name="사각형 1058" width="30.234" height="21.936" rx="10" transform="translate(0.72 0.72)" fill="none"/>
          <path id="패스_1119" data-name="패스 1119" d="M3152.594,1167.63h-26.632a2.524,2.524,0,0,1-2.521-2.521v-18.334a2.524,2.524,0,0,1,2.521-2.521h26.632a2.524,2.524,0,0,1,2.521,2.521v18.334A2.524,2.524,0,0,1,3152.594,1167.63Zm-26.632-21.936a1.082,1.082,0,0,0-1.081,1.08v18.334a1.082,1.082,0,0,0,1.081,1.081h26.632a1.082,1.082,0,0,0,1.081-1.081v-18.334a1.082,1.082,0,0,0-1.081-1.08Z" transform="translate(-3123.44 -1144.254)" fill="#ff5c5c"/>
        </g>
      </g>
      <g id="그룹_1014" data-name="그룹 1014" transform="translate(21.399 17.364)">
        <rect id="사각형_1059" data-name="사각형 1059" width="7.974" height="3.933" transform="translate(0.72 0.72)" fill="none"/>
        <path id="패스_1120" data-name="패스 1120" d="M3236.739,1246.043h-7.974a.721.721,0,0,1-.72-.72v-3.933a.721.721,0,0,1,.72-.72h7.974a.72.72,0,0,1,.72.72v3.933A.72.72,0,0,1,3236.739,1246.043Zm-7.253-1.441h6.533v-2.492h-6.533Z" transform="translate(-3228.045 -1240.67)" fill="#ff5c5c"/>
      </g>
      <g id="그룹_1015" data-name="그룹 1015" transform="translate(0 20.313)">
        <rect id="사각형_1060" data-name="사각형 1060" width="35.355" height="3.246" transform="translate(0.72 0.72)" fill="#fff"/>
        <path id="패스_1121" data-name="패스 1121" d="M3145.3,1261.734h-35.355a.721.721,0,0,1-.721-.72v-3.246a.721.721,0,0,1,.721-.72H3145.3a.72.72,0,0,1,.72.72v3.246A.721.721,0,0,1,3145.3,1261.734Zm-34.635-1.441h33.914v-1.8h-33.914Z" transform="translate(-3109.223 -1257.048)" fill="#ff5c5c"/>
      </g>
    </g>
    <g id="그룹_1030" data-name="그룹 1030" transform="translate(3118.067 1151.948)">
      <g id="그룹_1022" data-name="그룹 1022" transform="translate(0 0)">
        <path id="패스_1122" data-name="패스 1122" d="M3165.567,1193.51a.721.721,0,0,1-.677-.968l1.859-5.092a.72.72,0,0,1,1.354.494l-1.859,5.092A.721.721,0,0,1,3165.567,1193.51Z" transform="translate(-3164.847 -1186.977)" fill="#ff5c5c"/>
        <path id="패스_1123" data-name="패스 1123" d="M3177.752,1193.51a.72.72,0,0,1-.677-.473l-1.86-5.092a.72.72,0,1,1,1.353-.494l1.86,5.092a.721.721,0,0,1-.677.968Z" transform="translate(-3173.313 -1186.977)" fill="#ff5c5c"/>
        <path id="패스_1124" data-name="패스 1124" d="M3171.354,1210.3H3168.6a.72.72,0,1,1,0-1.441h2.752a.72.72,0,1,1,0,1.441Z" transform="translate(-3167.335 -1204.918)" fill="#ff5c5c"/>
      </g>
      <g id="그룹_1026" data-name="그룹 1026" transform="translate(6.575 0.153)">
        <path id="패스_1125" data-name="패스 1125" d="M3202.074,1194.083a.72.72,0,0,1-.72-.72v-4.817a.72.72,0,1,1,1.441,0v4.817A.72.72,0,0,1,3202.074,1194.083Z" transform="translate(-3201.354 -1187.826)" fill="#ff5c5c"/>
        <path id="패스_1126" data-name="패스 1126" d="M3203.841,1191.674h-1.766a.72.72,0,0,1,0-1.441h1.766a.484.484,0,1,0,0-.968h-1.766a.72.72,0,0,1,0-1.441h1.766a1.925,1.925,0,1,1,0,3.849Z" transform="translate(-3201.354 -1187.826)" fill="#ff5c5c"/>
        <path id="패스_1127" data-name="패스 1127" d="M3203.841,1205.173h-1.766a.72.72,0,0,1,0-1.441h1.766a.484.484,0,1,0,0-.968h-1.766a.72.72,0,0,1,0-1.441h1.766a1.925,1.925,0,1,1,0,3.849Z" transform="translate(-3201.354 -1198.895)" fill="#ff5c5c"/>
      </g>
      <g id="그룹_1029" data-name="그룹 1029" transform="translate(12.308 0.024)">
        <path id="패스_1128" data-name="패스 1128" d="M3245.211,1215.557a.72.72,0,0,1,0-1.441.987.987,0,0,0,.568-.186.72.72,0,0,1,.818,1.186A2.434,2.434,0,0,1,3245.211,1215.557Z" transform="translate(-3242.456 -1208.996)" fill="#ff5c5c"/>
        <path id="패스_1129" data-name="패스 1129" d="M3235.947,1193.672a3.331,3.331,0,0,1,0-6.561,2.437,2.437,0,0,1,1.376.434.72.72,0,0,1-.813,1.19.987.987,0,0,0-.564-.183c-.712,0-1.314.843-1.314,1.84s.6,1.84,1.314,1.84a.72.72,0,1,1,0,1.441Z" transform="translate(-3233.192 -1187.111)" fill="#ff5c5c"/>
      </g>
    </g>
    <g id="그룹_1031" data-name="그룹 1031" transform="translate(3107.792 1156.779)">
      <path id="패스_1130" data-name="패스 1130" d="M3108.512,1220.607a.72.72,0,0,1-.5-1.242l5.636-5.364a.72.72,0,1,1,.993,1.044l-5.636,5.364A.718.718,0,0,1,3108.512,1220.607Z" transform="translate(-3107.792 -1213.803)" fill="#ff5c5c"/>
    </g>
  </g>
</svg>
