<svg width="24" height="24" viewBox="0 0 24 24" fill="none" xmlns="http://www.w3.org/2000/svg">
<path d="M18.9043 11.8654L21.7187 9.05099C22.2004 8.56924 22.2004 7.8086 21.7187 7.32685L16.673 2.28123C16.1913 1.79949 15.4053 1.79949 14.9489 2.28123L12.1345 5.09562L18.9043 11.8654Z" fill="#787EC1" stroke="#787EC1" stroke-width="1.5" stroke-linecap="round" stroke-linejoin="round"/>
<path d="M15.514 8.483L7.6972 16.2998L11.0857 19.6883L18.9025 11.8715L15.514 8.483Z" fill="white" stroke="#00416C" stroke-width="1.5" stroke-linecap="round" stroke-linejoin="round"/>
<path d="M12.131 5.07626L4.31415 12.8931L7.70262 16.2815L15.5194 8.46474L12.131 5.07626Z" fill="white" stroke="#00416C" stroke-width="1.5" stroke-linecap="round" stroke-linejoin="round"/>
<path d="M5.79581 20.5625L11.095 19.675L7.69743 16.3028L4.32523 12.9053L3.43781 18.2044L5.79581 20.5625Z" fill="white" stroke="#00416C" stroke-width="1.5" stroke-linecap="round" stroke-linejoin="round"/>
<path d="M2.95605 21.0443L5.7958 20.5626L3.4378 18.2046L2.95605 21.0443Z" fill="#00416C" stroke="#00416C" stroke-width="1.5" stroke-linecap="round" stroke-linejoin="round"/>
<path d="M19.3607 12.9048C18.8536 13.4119 18.0676 13.4119 17.5605 12.9048L11.095 6.4393C10.5879 5.9322 10.5879 5.1462 11.095 4.6391L11.45 4.28413C11.9571 3.77703 12.7431 3.77703 13.2502 4.28413L19.7157 10.7496C20.2228 11.2567 20.2228 12.0427 19.7157 12.5498L19.3607 12.9048Z" fill="white" stroke="#787EC1" stroke-width="1.5" stroke-linecap="round" stroke-linejoin="round"/>
<path d="M2.88 22.1816H17.0787" stroke="#00416C" stroke-width="1.5" stroke-linecap="round" stroke-linejoin="round"/>
</svg>
