<svg xmlns="http://www.w3.org/2000/svg" xmlns:xlink="http://www.w3.org/1999/xlink" width="35" height="35" viewBox="0 0 35 35">
  <defs>
    <clipPath id="clip-path">
      <rect id="Rectangle_782" data-name="Rectangle 782" width="35" height="35" transform="translate(30 155)" fill="#fff"/>
    </clipPath>
  </defs>
  <g id="ico_study_board" transform="translate(-30 -155)" clip-path="url(#clip-path)">
    <g id="reading-book" transform="translate(34 159)">
      <path id="Path_924" data-name="Path 924" d="M1.586,21.789a.527.527,0,0,0,.605.459,15.126,15.126,0,0,1,4.835-.014,9.683,9.683,0,0,1,4.375,2.86,2.109,2.109,0,0,0,4.2,0,9.63,9.63,0,0,1,4.375-2.859,15.16,15.16,0,0,1,4.835.014.528.528,0,0,0,.605-.459l.51-4.288a.527.527,0,0,0-1.047-.125l-.447,3.756a14.13,14.13,0,0,0-4.749.088,10.378,10.378,0,0,0-4.072,2.35V10.154c.287-.5,1.721-2.771,4.219-2.771A17.408,17.408,0,0,1,25.9,8.768l-.464,3.9a.527.527,0,1,0,1.047.125L27,8.5a.527.527,0,0,0-.305-.542,20.344,20.344,0,0,0-1.977-.745L25.1,3.75a.527.527,0,0,0-.524-.586,10.781,10.781,0,0,0-1.251.073L23.518.566A.527.527,0,0,0,22.992,0,8,8,0,0,0,15.1,6.682c-.554,3.353-.549,3.248-.549,3.337a1.055,1.055,0,0,1-2.109,0c0-.111-.036-.224-.549-3.337A8,8,0,0,0,4.008,0a.527.527,0,0,0-.526.566l.195,2.671a10.783,10.783,0,0,0-1.251-.073A.527.527,0,0,0,1.9,3.75l.385,3.463a20.361,20.361,0,0,0-1.977.745A.527.527,0,0,0,0,8.5Zm22.4-17.552-.3,2.67a14.912,14.912,0,0,0-3.858-.579,5.116,5.116,0,0,0-1.591.25A9.7,9.7,0,0,1,23.983,4.237ZM16.144,6.856a6.919,6.919,0,0,1,6.28-5.778l-.171,2.34a10.758,10.758,0,0,0-6.189,3.921ZM13.5,12.129a2.1,2.1,0,0,0,1.055-.284V24.891a1.055,1.055,0,1,1-2.109,0V11.845A2.1,2.1,0,0,0,13.5,12.129ZM10.856,6.856l.08.482A10.76,10.76,0,0,0,4.747,3.417l-.171-2.34A6.919,6.919,0,0,1,10.856,6.856ZM8.763,6.578a5.117,5.117,0,0,0-1.591-.25,14.912,14.912,0,0,0-3.858.579l-.3-2.67A9.7,9.7,0,0,1,8.763,6.578Zm-1.591.8c2.5,0,3.931,2.267,4.219,2.771V23.57a10.379,10.379,0,0,0-4.072-2.35,13.848,13.848,0,0,0-4.748-.088L1.1,8.768A17.405,17.405,0,0,1,7.172,7.383Z" transform="translate(0 0)" fill="#fff"/>
      <circle id="Ellipse_375" data-name="Ellipse 375" cx="0.684" cy="0.684" r="0.684" transform="translate(24.607 14.379)" fill="#fff"/>
    </g>
  </g>
</svg>
