<svg xmlns="http://www.w3.org/2000/svg" xmlns:xlink="http://www.w3.org/1999/xlink" width="58" height="58" viewBox="0 0 58 58">
  <defs>
    <clipPath id="clip-path">
      <rect id="사각형_881" data-name="사각형 881" width="36" height="36" transform="translate(406 287)" fill="#fff" stroke="#707070" stroke-width="1"/>
    </clipPath>
  </defs>
  <g id="ico_01" transform="translate(-80 -243)">
    <g id="사각형_875" data-name="사각형 875" transform="translate(80 243)" fill="#fff" stroke="#d5d5d5" stroke-width="1">
      <rect width="58" height="58" rx="5" stroke="none"/>
      <rect x="0.5" y="0.5" width="57" height="57" rx="4.5" fill="none"/>
    </g>
    <g id="ico_01-2" data-name="ico_01" transform="translate(-315 -33)" clip-path="url(#clip-path)">
      <g id="그룹_984" data-name="그룹 984" transform="translate(278.424 -252.759)">
        <g id="그룹_970" data-name="그룹 970" transform="translate(152.413 559.179)">
          <path id="패스_2217" data-name="패스 2217" d="M214.981,607.665a.426.426,0,0,1-.426-.426v-6.388h-1.7v6.388a.426.426,0,0,1-.852,0v-6.814a.426.426,0,0,1,.426-.426h2.555a.426.426,0,0,1,.426.426v6.814A.426.426,0,0,1,214.981,607.665Z" transform="translate(-212 -600)" fill="#00a58a" stroke="#00a58a" stroke-width="0.5"/>
        </g>
        <g id="그룹_971" data-name="그룹 971" transform="translate(154.969 556.38)">
          <path id="패스_2218" data-name="패스 2218" d="M222.768,593.792h-1.342a.426.426,0,0,1-.426-.426v-1.335a1.865,1.865,0,0,1,1.7-1.886,1.827,1.827,0,0,1,1.925,2.126A1.871,1.871,0,0,1,222.768,593.792Zm-.916-.852h.916a1.013,1.013,0,0,0,1.017-.806.98.98,0,0,0-.239-.822.969.969,0,0,0-.789-.317,1.024,1.024,0,0,0-.906,1.036Z" transform="translate(-221 -590.141)" fill="#00a58a" stroke="#00a58a" stroke-width="0.5"/>
        </g>
        <g id="그룹_972" data-name="그룹 972" transform="translate(149.614 556.379)">
          <path id="패스_2219" data-name="패스 2219" d="M205.365,593.791h-1.342a1.872,1.872,0,0,1-1.858-1.52,1.827,1.827,0,0,1,2.105-2.106,1.872,1.872,0,0,1,1.521,1.858v1.342A.426.426,0,0,1,205.365,593.791Zm-1.4-2.8a.974.974,0,0,0-.961,1.141,1.013,1.013,0,0,0,1.018.806h.916v-.916a1.013,1.013,0,0,0-.806-1.017A1,1,0,0,0,203.966,590.992Z" transform="translate(-202.14 -590.14)" fill="#00a58a" stroke="#00a58a" stroke-width="0.5"/>
        </g>
        <path id="패스_2220" data-name="패스 2220" d="M210,628v1.773a1,1,0,0,0,1.114.989l3.118-.372a1,1,0,0,0,.878-.99V628Z" transform="translate(-58.154 -60.872)" fill="#00a58a" stroke="#303c52" stroke-width="0.5"/>
        <path id="패스_2221" data-name="패스 2221" d="M192.052,572.43a7.77,7.77,0,0,1,13.035-5.361,7.77,7.77,0,1,0-11.915,9.739A7.738,7.738,0,0,1,192.052,572.43Z" transform="translate(-44.314 -14.563)" fill="#ffc960"/>
        <g id="그룹_973" data-name="그룹 973" transform="translate(145.875 548.274)">
          <path id="패스_2222" data-name="패스 2222" d="M199.984,580.727h-5.549a1.486,1.486,0,0,1-1.484-1.484v-1.157a2.475,2.475,0,0,0-.931-1.932,8.249,8.249,0,0,1-2.395-9.687,7.574,7.574,0,0,1,4.09-4.159,8.475,8.475,0,0,1,8.083.667,8.167,8.167,0,0,1,2.187,11.482.426.426,0,1,1-.7-.488,7.316,7.316,0,0,0-1.961-10.285,7.637,7.637,0,0,0-7.283-.589,6.715,6.715,0,0,0-3.627,3.689,7.412,7.412,0,0,0,2.139,8.708,3.324,3.324,0,0,1,1.249,2.6v1.157a.633.633,0,0,0,.632.632h5.549a.633.633,0,0,0,.632-.632V578.2a3.542,3.542,0,0,1,1.3-2.749.426.426,0,1,1,.54.658,2.7,2.7,0,0,0-.986,2.091v1.043A1.486,1.486,0,0,1,199.984,580.727Z" transform="translate(-188.968 -561.589)" fill="#303d53" stroke="#303c52" stroke-width="0.5"/>
        </g>
        <g id="그룹_974" data-name="그룹 974" transform="translate(151.278 566.56)">
          <path id="패스_2223" data-name="패스 2223" d="M209.423,629.823A1.422,1.422,0,0,1,208,628.4v-1.975a.426.426,0,0,1,.852,0V628.4a.57.57,0,0,0,.637.567l3.118-.367a.571.571,0,0,0,.5-.567v-1.608a.426.426,0,0,1,.852,0v1.608a1.422,1.422,0,0,1-1.256,1.412l-3.118.367A1.414,1.414,0,0,1,209.423,629.823Z" transform="translate(-208 -626)" fill="#303d53" stroke="#303c52" stroke-width="0.5"/>
        </g>
        <g id="그룹_975" data-name="그룹 975" transform="translate(152.13 569.115)">
          <path id="패스_2224" data-name="패스 2224" d="M213.936,638.407h-1.614A1.324,1.324,0,0,1,211,637.084v-.807a.426.426,0,1,1,.852,0v.807a.471.471,0,0,0,.471.471h1.614a.471.471,0,0,0,.471-.471v-1.659a.426.426,0,0,1,.852,0v1.659A1.324,1.324,0,0,1,213.936,638.407Z" transform="translate(-211 -635)" fill="#303d53" stroke="#303c52" stroke-width="0.5"/>
        </g>
        <path id="패스_2225" data-name="패스 2225" d="M151.231,635.407H132.969A3.491,3.491,0,0,1,131.111,632h20.12Z" transform="translate(-1.656 -63.737)" fill="#ffc960"/>
        <g id="그룹_976" data-name="그룹 976" transform="translate(151.707 542.996)">
          <path id="패스_2226" data-name="패스 2226" d="M209.938,546.741a.4.4,0,0,1-.084-.009.425.425,0,0,1-.334-.5c.459-2.3,1.278-3.232,2.827-3.232a2.8,2.8,0,0,1,2.112.985,2.844,2.844,0,0,1,.6,2.349.426.426,0,0,1-.42.356h-2.293a.426.426,0,0,1,0-.852h1.907a1.9,1.9,0,0,0-.445-1.3,1.942,1.942,0,0,0-1.462-.684c-.962,0-1.564.406-1.992,2.547A.426.426,0,0,1,209.938,546.741Z" transform="translate(-209.511 -543)" fill="#303d53" stroke="#303c52" stroke-width="0.5"/>
        </g>
        <g id="그룹_977" data-name="그룹 977" transform="translate(128.79 567.696)">
          <path id="패스_2227" data-name="패스 2227" d="M149.432,634.258H131.754a3.047,3.047,0,0,1-2.162-1.052,3.459,3.459,0,0,1-.765-2.833.426.426,0,0,1,.422-.373h20.183a.426.426,0,1,1,0,.852h-19.79a2.494,2.494,0,0,0,.587,1.791,2.229,2.229,0,0,0,1.524.764h17.678a.426.426,0,1,1,0,.852Z" transform="translate(-128.79 -630)" fill="#303d53" stroke="#303c52" stroke-width="0.5"/>
        </g>
        <g id="그룹_978" data-name="그룹 978" transform="translate(132.523 542.995)">
          <path id="패스_2228" data-name="패스 2228" d="M142.682,567.16a.425.425,0,0,1-.387-.6c.79-1.737.224-8.327-.113-12.264-.116-1.354-.217-2.524-.244-3.235a.428.428,0,0,1,.093-.283l1.036-1.3-1.005-1.718a.426.426,0,0,1-.056-.259c.393-3.815,2.081-4.55,3.421-4.507h18.53a.426.426,0,1,1,0,.852H145.411c-.538-.021-2.125-.078-2.543,3.605l1.082,1.849a.425.425,0,0,1-.035.481l-1.119,1.4c.034.7.127,1.791.235,3.037.486,5.664.855,10.9.04,12.69A.426.426,0,0,1,142.682,567.16Z" transform="translate(-141.937 -542.995)" fill="#303d53" stroke="#303c52" stroke-width="0.5"/>
        </g>
        <g id="그룹_979" data-name="그룹 979" transform="translate(137.083 551.797)">
          <path id="패스_2229" data-name="패스 2229" d="M165.807,574.852h-7.381a.426.426,0,1,1,0-.852h7.381a.426.426,0,1,1,0,.852Z" transform="translate(-158 -574)" fill="#303d53" stroke="#303c52" stroke-width="0.5"/>
        </g>
        <g id="그룹_980" data-name="그룹 980" transform="translate(137.083 554.636)">
          <path id="패스_2230" data-name="패스 2230" d="M164.672,584.852h-6.246a.426.426,0,1,1,0-.852h6.246a.426.426,0,1,1,0,.852Z" transform="translate(-158 -584)" fill="#303d53" stroke="#303c52" stroke-width="0.5"/>
        </g>
        <g id="그룹_981" data-name="그룹 981" transform="translate(137.083 548.674)">
          <path id="패스_2231" data-name="패스 2231" d="M168.93,563.852h-10.5a.426.426,0,1,1,0-.852h10.5a.426.426,0,1,1,0,.852Z" transform="translate(-158 -563)" fill="#303d53" stroke="#303c52" stroke-width="0.5"/>
        </g>
        <g id="그룹_982" data-name="그룹 982" transform="translate(137.083 563.153)">
          <path id="패스_2232" data-name="패스 2232" d="M167.795,614.852h-9.369a.426.426,0,1,1,0-.852h9.369a.426.426,0,1,1,0,.852Z" transform="translate(-158 -614)" fill="#303d53" stroke="#303c52" stroke-width="0.5"/>
        </g>
        <g id="그룹_983" data-name="그룹 983" transform="translate(137.083 560.314)">
          <path id="패스_2233" data-name="패스 2233" d="M165.523,604.852h-7.1a.426.426,0,1,1,0-.852h7.1a.426.426,0,1,1,0,.852Z" transform="translate(-158 -604)" fill="#303d53" stroke="#303c52" stroke-width="0.5"/>
        </g>
      </g>
    </g>
  </g>
</svg>
