<svg xmlns="http://www.w3.org/2000/svg" width="15" height="15" viewBox="0 0 15 15">
  <path id="패스_971" data-name="패스 971" d="M1375.947,355.643c-.43-.131-.856-.265-1.283-.4a.458.458,0,0,1-.3-.279,6.678,6.678,0,0,0-.375-.805.463.463,0,0,1-.017-.44c.21-.412.416-.829.623-1.241a.455.455,0,0,0-.089-.536l-.939-.946a.468.468,0,0,0-.553-.082q-.722.387-1.451.77a.442.442,0,0,1-.4.02c-.165-.069-.334-.134-.5-.186a.461.461,0,0,1-.306-.3c-.175-.533-.354-1.059-.526-1.589a.462.462,0,0,0-.443-.319h-1.334a.459.459,0,0,0-.451.33c-.162.532-.327,1.062-.485,1.6a.461.461,0,0,1-.3.306,4.363,4.363,0,0,0-.423.158.441.441,0,0,1-.4-.02c-.485-.255-.966-.512-1.451-.77a.454.454,0,0,0-.55.082c-.317.313-.633.629-.942.946a.454.454,0,0,0-.09.536l.623,1.241a.437.437,0,0,1-.017.44,6.133,6.133,0,0,0-.375.805.458.458,0,0,1-.3.279l-1.283.4a.459.459,0,0,0-.333.443v1.334a.468.468,0,0,0,.323.447c.423.138.842.279,1.265.423a.461.461,0,0,1,.3.285,5.191,5.191,0,0,0,.365.811.451.451,0,0,1,0,.447c-.217.406-.433.812-.65,1.221a.466.466,0,0,0,.086.547c.317.316.626.633.942.946a.465.465,0,0,0,.54.089c.488-.247.98-.492,1.465-.736a.457.457,0,0,1,.4-.01c.168.069.337.137.512.2a.452.452,0,0,1,.3.306c.158.526.323,1.059.485,1.592a.459.459,0,0,0,.451.333h1.334a.461.461,0,0,0,.443-.324c.172-.526.351-1.059.526-1.585a.44.44,0,0,1,.306-.3c.2-.065.4-.145.592-.224a.456.456,0,0,1,.4.01l1.465.736a.465.465,0,0,0,.54-.089c.316-.313.633-.63.942-.946a.465.465,0,0,0,.086-.547c-.217-.409-.433-.815-.65-1.221a.45.45,0,0,1,0-.447,5.236,5.236,0,0,0,.365-.811.46.46,0,0,1,.3-.285c.419-.145.842-.285,1.265-.423a.465.465,0,0,0,.32-.447v-1.334A.456.456,0,0,0,1375.947,355.643Zm-7.17,4.732a3.562,3.562,0,1,1,3.772-3.556A3.669,3.669,0,0,1,1368.777,360.375Z" transform="translate(-1361.277 -349.319)" fill="#c9cdd2"/>
</svg>
