<svg xmlns="http://www.w3.org/2000/svg" xmlns:xlink="http://www.w3.org/1999/xlink" width="20" height="20" viewBox="0 0 20 20">
  <defs>
    <clipPath id="clip-path">
      <rect id="사각형_354" data-name="사각형 354" width="20" height="20" fill="#72787f"/>
    </clipPath>
  </defs>
  <g id="ico_bell" clip-path="url(#clip-path)">
    <g id="bell" transform="translate(1 1)">
      <path id="패스_752" data-name="패스 752" d="M24.638,8.935a.587.587,0,0,1-.587-.587A8.359,8.359,0,0,0,21.587,2.4a.587.587,0,0,1,.83-.83,9.528,9.528,0,0,1,2.807,6.779.587.587,0,0,1-.587.587Zm0,0" transform="translate(-7.225 -0.522)" fill="#72787f"/>
      <path id="패스_753" data-name="패스 753" d="M.587,8.935A.587.587,0,0,1,0,8.349,9.522,9.522,0,0,1,2.808,1.57a.587.587,0,0,1,.83.83A8.354,8.354,0,0,0,1.174,8.348a.587.587,0,0,1-.587.587Zm0,0" transform="translate(0 -0.523)" fill="#72787f"/>
      <path id="패스_754" data-name="패스 754" d="M12,27.9a2.938,2.938,0,0,1-2.935-2.935.587.587,0,1,1,1.174,0,1.761,1.761,0,0,0,3.522,0,.587.587,0,0,1,1.174,0A2.938,2.938,0,0,1,12,27.9Zm0,0" transform="translate(-2.997 -8.897)" fill="#72787f"/>
      <path id="패스_755" data-name="패스 755" d="M16.247,18.054H2.688A1.417,1.417,0,0,1,1.25,16.664a1.371,1.371,0,0,1,.5-1.057,5.257,5.257,0,0,0,1.962-4.078V9.313A5.666,5.666,0,0,1,9.467,3.75,5.666,5.666,0,0,1,15.22,9.313v2.216A5.255,5.255,0,0,0,17.174,15.6a1.373,1.373,0,0,1,.511,1.063,1.416,1.416,0,0,1-1.438,1.391ZM9.467,4.942a4.452,4.452,0,0,0-4.52,4.371v2.216a6.428,6.428,0,0,1-2.391,4.983.2.2,0,0,0-.074.153.2.2,0,0,0,.206.2H16.247a.2.2,0,0,0,.205-.2.194.194,0,0,0-.072-.151,6.43,6.43,0,0,1-2.393-4.984V9.313A4.452,4.452,0,0,0,9.467,4.942Zm0,0" transform="translate(-0.467 -1.402)" fill="#72787f"/>
      <path id="패스_756" data-name="패스 756" d="M13.4,3.522a.587.587,0,0,1-.587-.587V.587a.587.587,0,0,1,1.174,0V2.935A.587.587,0,0,1,13.4,3.522Zm0,0" transform="translate(-4.399 0)" fill="#72787f"/>
    </g>
  </g>
</svg>
