<svg width="41" height="36" viewBox="0 0 41 36" fill="none" xmlns="http://www.w3.org/2000/svg">
<path d="M39.7993 4.79502H38.0585L36.0249 0.673598C35.9202 0.461644 35.7566 0.285285 35.5544 0.16615C35.3521 0.0470161 35.1199 -0.009714 34.8863 0.0029175C29.9876 0.297059 25.1495 1.25195 20.5 2.84233C15.858 1.22328 11.016 0.267231 6.11369 0.00173054C5.88007 -0.010901 5.6479 0.0458292 5.44565 0.164963C5.24339 0.284098 5.07984 0.460457 4.97506 0.672411L2.94146 4.79502H1.20071C0.882265 4.79502 0.576859 4.92321 0.351681 5.15139C0.126503 5.37957 0 5.68905 0 6.01174L0 30.3557C0 30.6784 0.126503 30.9878 0.351681 31.216C0.576859 31.4442 0.882265 31.5724 1.20071 31.5724H3.29406C7.99113 31.5702 12.6602 32.3045 17.1357 33.7494C17.4174 34.4173 17.8865 34.9865 18.4847 35.3866C19.0829 35.7867 19.7838 36 20.5006 36C21.2173 36 21.9183 35.7867 22.5165 35.3866C23.1147 34.9865 23.5838 34.4173 23.8655 33.7494C28.3407 32.3033 33.0099 31.5677 37.7071 31.5688H39.7993C40.1171 31.5688 40.422 31.4411 40.6471 31.2137C40.8722 30.9863 40.9991 30.6777 41 30.3557V6.01174C41 5.68905 40.8735 5.37957 40.6483 5.15139C40.4231 4.92321 40.1177 4.79502 39.7993 4.79502ZM6.76851 2.48147C11.3238 2.80271 15.8156 3.74419 20.1228 5.28052C20.3695 5.36397 20.6363 5.36397 20.8831 5.28052C25.191 3.74664 29.6824 2.80523 34.2373 2.48147L35.4088 4.85556C31.033 5.06361 26.706 5.87879 22.5488 7.27832C22.3425 7.34273 22.1573 7.46263 22.0129 7.62526C21.8685 7.78788 21.7703 7.98715 21.7288 8.20184C21.6724 8.48895 21.5196 8.74736 21.2963 8.93307C21.0729 9.11877 20.793 9.22026 20.5041 9.22026C20.2152 9.22026 19.9353 9.11877 19.7119 8.93307C19.4886 8.74736 19.3358 8.48895 19.2794 8.20184C19.2376 7.98725 19.1394 7.78811 18.995 7.62552C18.8507 7.46293 18.6656 7.34296 18.4594 7.27832C14.3024 5.87718 9.97544 5.0604 5.59943 4.85081L6.76851 2.48147ZM2.4026 29.1389V7.22965H3.29406C7.90719 7.22792 12.4938 7.93677 16.8967 9.33191V31.132C12.4806 29.8087 7.89923 29.1374 3.29406 29.1389H2.4026ZM20.5 33.569C20.2258 33.5788 19.9567 33.4926 19.738 33.3248C19.5193 33.157 19.3643 32.9179 19.2993 32.6479V11.4662C20.0799 11.7241 20.9212 11.7241 21.7019 11.4662V32.6479C21.6368 32.9181 21.4817 33.1574 21.2627 33.3252C21.0438 33.493 20.7744 33.5791 20.5 33.569ZM38.5974 29.1389H37.7059C33.1008 29.1374 28.5194 29.8087 24.1033 31.132V9.33191C28.5062 7.93674 33.0928 7.22789 37.7059 7.22965H38.5974V29.1389Z" fill="white"/>
</svg>
