<svg xmlns="http://www.w3.org/2000/svg" xmlns:xlink="http://www.w3.org/1999/xlink" width="15" height="15" viewBox="0 0 15 15">
  <defs>
    <clipPath id="clip-path">
      <rect id="사각형_587" data-name="사각형 587" width="15" height="15" transform="translate(881.072 2989)" fill="#5ab448" stroke="#707070" stroke-width="1"/>
    </clipPath>
  </defs>
  <g id="ico_tack" transform="translate(-881.072 -2989)" clip-path="url(#clip-path)">
    <g id="free-icon-pushpin-66824" transform="translate(881 2989)">
      <path id="패스_885" data-name="패스 885" d="M14.925,5.575,9.5.147a.5.5,0,0,0-.711,0,6.566,6.566,0,0,0-.9,2.25h0l-2.18,2.18a1.934,1.934,0,0,0-1.984,3.2L5.153,9.208.147,14.215a.5.5,0,0,0,.711.711L5.864,9.919,7.3,11.35a1.934,1.934,0,0,0,3.2-1.984l2.179-2.179a6.559,6.559,0,0,0,2.251-.9A.5.5,0,0,0,14.925,5.575Zm-2.612.666a.5.5,0,0,0-.275.157c-.027.03-.051.056-.074.079L9.54,8.9a.5.5,0,0,0-.077.611A.929.929,0,0,1,8.006,10.64L6.22,8.854h0L4.432,7.067A.929.929,0,0,1,5.561,5.61a.5.5,0,0,0,.611-.077L8.6,3.109c.024-.024.051-.049.078-.073a.5.5,0,0,0,.158-.276,10.5,10.5,0,0,1,.432-1.425l4.475,4.475A10.413,10.413,0,0,1,12.313,6.241Z" transform="translate(0 0)" fill="#5ab448"/>
    </g>
  </g>
</svg>
