<svg xmlns="http://www.w3.org/2000/svg" xmlns:xlink="http://www.w3.org/1999/xlink" width="22" height="22" viewBox="0 0 22 22">
  <defs>
    <clipPath id="clip-path">
      <rect id="사각형_1056" data-name="사각형 1056" width="22" height="22" transform="translate(3.07 2.195)" fill="#fff"/>
    </clipPath>
  </defs>
  <g id="ico_bell" transform="translate(-3.07 -2.195)" clip-path="url(#clip-path)">
    <g id="bell" transform="translate(3.915 2.195)">
      <path id="패스_1109" data-name="패스 1109" d="M25.19,10.227a.688.688,0,0,1-.688-.687,9.792,9.792,0,0,0-2.886-6.969.688.688,0,1,1,.973-.973,11.16,11.16,0,0,1,3.288,7.941.688.688,0,0,1-.688.688Zm0,0" transform="translate(-5.711 -0.372)" fill="#fff"/>
      <path id="패스_1110" data-name="패스 1110" d="M.688,10.227A.688.688,0,0,1,0,9.539,11.154,11.154,0,0,1,3.289,1.6a.688.688,0,0,1,.973.973A9.785,9.785,0,0,0,1.375,9.539a.688.688,0,0,1-.688.688Zm0,0" transform="translate(0 -0.373)" fill="#fff"/>
      <path id="패스_1111" data-name="패스 1111" d="M12.5,28.5a3.441,3.441,0,0,1-3.437-3.437.687.687,0,1,1,1.375,0,2.062,2.062,0,0,0,4.125,0,.688.688,0,0,1,1.375,0A3.441,3.441,0,0,1,12.5,28.5Zm0,0" transform="translate(-2.417 -6.5)" fill="#fff"/>
      <path id="패스_1112" data-name="패스 1112" d="M17.979,20.25H2.854a1.6,1.6,0,0,1-1.043-2.823A6.143,6.143,0,0,0,4,12.722V10.167a6.417,6.417,0,0,1,12.833,0v2.556a6.142,6.142,0,0,0,2.18,4.7,1.6,1.6,0,0,1-1.034,2.83ZM10.417,5.125a5.047,5.047,0,0,0-5.042,5.042v2.556A7.513,7.513,0,0,1,2.708,18.47a.229.229,0,0,0-.083.176.232.232,0,0,0,.229.229H17.979a.232.232,0,0,0,.229-.229.226.226,0,0,0-.081-.174,7.515,7.515,0,0,1-2.669-5.749V10.167A5.047,5.047,0,0,0,10.417,5.125Zm0,0" transform="translate(-0.333 -1)" fill="#fff"/>
      <path id="패스_1113" data-name="패스 1113" d="M13.5,4.125a.688.688,0,0,1-.688-.687V.688a.688.688,0,0,1,1.375,0v2.75A.688.688,0,0,1,13.5,4.125Zm0,0" transform="translate(-3.417 0)" fill="#fff"/>
    </g>
  </g>
</svg>
