<svg xmlns="http://www.w3.org/2000/svg" xmlns:xlink="http://www.w3.org/1999/xlink" width="30" height="30" viewBox="0 0 30 30">
  <defs>
    <clipPath id="clip-path">
      <rect id="사각형_160" data-name="사각형 160" width="30" height="30" transform="translate(945 924)" fill="#fff"/>
    </clipPath>
  </defs>
  <g id="icon_minus" transform="translate(-945 -924)" clip-path="url(#clip-path)">
    <g id="minus" transform="translate(945 924)">
      <g id="그룹_9" data-name="그룹 9">
        <g id="그룹_8" data-name="그룹 8">
          <path id="패스_122" data-name="패스 122" d="M15,0A15,15,0,1,0,30,15,15.017,15.017,0,0,0,15,0Zm0,27.676A12.676,12.676,0,1,1,27.676,15,12.69,12.69,0,0,1,15,27.676Z" fill="#fff"/>
        </g>
      </g>
      <g id="그룹_11" data-name="그룹 11" transform="translate(8.029 13.734)">
        <g id="그룹_10" data-name="그룹 10">
          <path id="패스_123" data-name="패스 123" d="M20.809,13.734H9.191a1.162,1.162,0,1,0,0,2.324H20.809a1.162,1.162,0,0,0,0-2.324Z" transform="translate(-8.029 -13.734)" fill="#fff"/>
        </g>
      </g>
    </g>
  </g>
</svg>
