<svg width="150" height="150" viewBox="0 0 150 150" fill="none" xmlns="http://www.w3.org/2000/svg">
<rect width="150" height="150" rx="75" fill="white"/>
<path fill-rule="evenodd" clip-rule="evenodd" d="M102.5 51.3497C102.496 50.0579 101.997 48.8168 101.106 47.8819C100.677 47.4263 100.16 47.0629 99.5858 46.8139C99.0119 46.5649 98.3932 46.4355 97.7676 46.4336C97.1419 46.4317 96.5225 46.5574 95.947 46.803C95.3716 47.0485 94.8523 47.4088 94.4207 47.8618L74.9988 68.0359L55.5799 47.8637C55.1484 47.4107 54.629 47.0504 54.0536 46.8049C53.4782 46.5593 52.8587 46.4336 52.2331 46.4355C51.6074 46.4374 50.9888 46.5668 50.4148 46.8158C49.8409 47.0648 49.3237 47.4282 48.8949 47.8838C48.0034 48.8187 47.5044 50.0598 47.5007 51.3516C47.4969 52.6434 47.9887 53.8874 48.8748 54.8274L68.2949 74.9995L48.8742 95.1723C47.9881 96.1123 47.4963 97.3563 47.5 98.648C47.5038 99.9398 48.0028 101.181 48.8943 102.116C49.3231 102.571 49.8402 102.935 50.4142 103.184C50.9881 103.433 51.6068 103.562 52.2324 103.564C52.8581 103.566 53.4775 103.44 54.053 103.195C54.6284 102.949 55.1477 102.589 55.5793 102.136L74.9994 81.9637L94.4214 102.138C94.8529 102.591 95.3722 102.951 95.9477 103.197C96.5231 103.442 97.1425 103.568 97.7682 103.566C98.3938 103.564 99.0125 103.435 99.5865 103.186C100.16 102.937 100.678 102.573 101.106 102.118C101.997 101.182 102.496 99.9412 102.499 98.6494C102.502 97.3576 102.01 96.1138 101.124 95.1742L81.7031 75.0003L101.126 54.8255C102.012 53.8855 102.504 52.6415 102.5 51.3497Z" fill="#FC5D5B"/>
</svg>
