<svg width="59" height="59" viewBox="0 0 59 59" fill="none" xmlns="http://www.w3.org/2000/svg">
<g clip-path="url(#clip0_201_147)">
<path d="M54 0H5C2.23858 0 0 2.23858 0 5V54C0 56.7614 2.23858 59 5 59H54C56.7614 59 59 56.7614 59 54V5C59 2.23858 56.7614 0 54 0Z" fill="#FFEEEE"/>
<path d="M23.0894 17.5414C23.4063 17.2253 23.8356 17.0479 24.2832 17.0479C24.7308 17.0479 25.1601 17.2253 25.477 17.5414L42.1537 34.2181C42.7402 34.8046 43.2054 35.5009 43.5228 36.2672C43.8402 37.0335 44.0036 37.8548 44.0036 38.6843C44.0036 39.5137 43.8402 40.335 43.5228 41.1013C43.2054 41.8676 42.7402 42.5639 42.1537 43.1504C41.5672 43.7369 40.8709 44.2021 40.1046 44.5195C39.3383 44.8369 38.517 45.0003 37.6876 45.0003C36.8581 45.0003 36.0368 44.8369 35.2705 44.5195C34.5042 44.2021 33.8079 43.7369 33.2214 43.1504L16.5447 26.4736C16.3879 26.3169 16.2636 26.1308 16.1787 25.926C16.0938 25.7211 16.0502 25.5016 16.0502 25.2799C16.0502 25.0582 16.0938 24.8386 16.1787 24.6338C16.2636 24.429 16.3879 24.2429 16.5447 24.0861L23.0894 17.5414ZM33.7337 42.6273C34.2523 43.1458 34.8678 43.5571 35.5453 43.8377C36.2228 44.1183 36.9489 44.2628 37.6822 44.2628C38.4155 44.2628 39.1416 44.1183 39.819 43.8377C40.4965 43.5571 41.1121 43.1458 41.6306 42.6273C42.1491 42.1088 42.5604 41.4932 42.841 40.8157C43.1216 40.1383 43.2661 39.4121 43.2661 38.6789C43.2661 37.9456 43.1216 37.2195 42.841 36.542C42.5604 35.8645 42.1491 35.2489 41.6306 34.7304L41.0307 34.1305L33.1339 42.0274L33.7337 42.6273ZM17.0618 25.9566L32.6156 41.5055L40.516 33.6122L24.9599 18.0585C24.7801 17.8801 24.5371 17.78 24.2838 17.78C24.0305 17.78 23.7875 17.8801 23.6077 18.0585L17.0618 24.6032C16.8834 24.783 16.7833 25.026 16.7833 25.2793C16.7833 25.5326 16.8834 25.7756 17.0618 25.9554V25.9566Z" fill="#0F3653"/>
<path d="M35.8537 31.2415C36.4927 31.8892 36.8877 32.7382 36.9716 33.6442C37.0554 34.5502 36.8228 35.4573 36.3135 36.2112C35.8042 36.9652 35.0494 37.5195 34.1776 37.7799C33.3058 38.0403 32.3707 37.9907 31.5313 37.6397C30.6919 37.2886 30 36.6577 29.5732 35.8541C29.1464 35.0506 29.011 34.124 29.1901 33.2319C29.3691 32.3399 29.8516 31.5374 30.5555 30.9608C31.2594 30.3842 32.1412 30.0692 33.0511 30.0693C33.5724 30.0706 34.0883 30.1748 34.5693 30.3759C35.0503 30.5771 35.4868 30.8712 35.8537 31.2415ZM31.0379 31.5151L31.7997 32.2769C32.1656 32.0191 32.6023 31.8807 33.0499 31.8807C33.4975 31.8807 33.9341 32.0191 34.3 32.2769L35.0619 31.5151C34.4894 31.0613 33.7804 30.8145 33.0499 30.8145C32.3194 30.8145 31.6104 31.0613 31.0379 31.5151ZM32.0361 35.058C32.2365 35.2581 32.4918 35.3942 32.7696 35.4493C33.0474 35.5044 33.3353 35.4759 33.5969 35.3674C33.8585 35.2589 34.0821 35.0753 34.2394 34.8398C34.3967 34.6042 34.4807 34.3274 34.4807 34.0442C34.4807 33.7609 34.3967 33.4841 34.2394 33.2485C34.0821 33.013 33.8585 32.8294 33.5969 32.7209C33.3353 32.6124 33.0474 32.5839 32.7696 32.639C32.4918 32.6941 32.2365 32.8303 32.0361 33.0304C31.9028 33.1634 31.7971 33.3214 31.7249 33.4954C31.6528 33.6694 31.6156 33.8558 31.6156 34.0442C31.6156 34.2325 31.6528 34.419 31.7249 34.5929C31.7971 34.7669 31.9028 34.9249 32.0361 35.058ZM36.2808 34.0442C36.2829 33.3131 36.0353 32.6033 35.579 32.0321L34.8171 32.794C35.075 33.1599 35.2134 33.5965 35.2134 34.0442C35.2134 34.4918 35.075 34.9284 34.8171 35.2943L35.579 36.0562C36.0353 35.485 36.2829 34.7752 36.2808 34.0442ZM35.0619 36.5745L34.3 35.8126C33.9343 36.0708 33.4976 36.2094 33.0499 36.2094C32.6022 36.2094 32.1655 36.0708 31.7997 35.8126L31.0379 36.5745C31.6104 37.0282 32.3194 37.2751 33.0499 37.2751C33.7804 37.2751 34.4894 37.0282 35.0619 36.5745ZM30.5208 36.0574L31.2826 35.2955C31.0246 34.9297 30.8861 34.493 30.8861 34.0454C30.8861 33.5977 31.0246 33.161 31.2826 32.7952L30.5208 32.0334C30.0671 32.6058 29.8202 33.3149 29.8202 34.0454C29.8202 34.7758 30.0671 35.4849 30.5208 36.0574Z" fill="#0F3653"/>
<path d="M33.729 33.3632C33.8621 33.4979 33.9524 33.669 33.9885 33.8548C34.0246 34.0407 34.0049 34.2331 33.932 34.4078C33.859 34.5826 33.736 34.7318 33.5784 34.8368C33.4208 34.9417 33.2357 34.9977 33.0463 34.9977C32.8569 34.9977 32.6718 34.9417 32.5142 34.8368C32.3566 34.7318 32.2336 34.5826 32.1606 34.4078C32.0877 34.2331 32.068 34.0407 32.1041 33.8548C32.1402 33.669 32.2305 33.4979 32.3636 33.3632C32.4529 33.2729 32.5592 33.2012 32.6764 33.1523C32.7936 33.1033 32.9193 33.0781 33.0463 33.0781C33.1733 33.0781 33.299 33.1033 33.4162 33.1523C33.5334 33.2012 33.6397 33.2729 33.729 33.3632ZM32.8807 34.2115C32.9254 34.254 32.9846 34.2778 33.0463 34.2778C33.108 34.2778 33.1672 34.254 33.2119 34.2115C33.2466 34.1784 33.2706 34.1357 33.2808 34.0888C33.291 34.042 33.2869 33.9931 33.2691 33.9486C33.2513 33.9041 33.2205 33.866 33.1808 33.8391C33.1411 33.8122 33.0942 33.7978 33.0463 33.7978C32.9984 33.7978 32.9515 33.8122 32.9118 33.8391C32.8721 33.866 32.8413 33.9041 32.8235 33.9486C32.8057 33.9931 32.8016 34.042 32.8118 34.0888C32.822 34.1357 32.846 34.1784 32.8807 34.2115Z" fill="#0F3653"/>
<path d="M26.9239 31.3575C26.7365 31.1707 26.6197 30.9247 26.5933 30.6614C26.567 30.3982 26.6328 30.1339 26.7795 29.9137C26.9262 29.6935 27.1448 29.531 27.3979 29.4539C27.651 29.3768 27.923 29.3899 28.1675 29.4909C28.4121 29.5919 28.614 29.7746 28.739 30.0079C28.8639 30.2411 28.904 30.5105 28.8526 30.77C28.8011 31.0296 28.6612 31.2632 28.4568 31.4312C28.2523 31.5991 27.9959 31.691 27.7313 31.691C27.4286 31.6911 27.1383 31.5712 26.9239 31.3575ZM27.441 30.8404C27.5081 30.9076 27.5964 30.9494 27.6908 30.9588C27.7853 30.9682 27.8801 30.9445 27.959 30.8918C28.038 30.8391 28.0963 30.7607 28.1239 30.6699C28.1515 30.5791 28.1468 30.4815 28.1105 30.3938C28.0743 30.306 28.0088 30.2336 27.9251 30.1888C27.8414 30.144 27.7448 30.1295 27.6517 30.148C27.5585 30.1664 27.4747 30.2166 27.4144 30.2899C27.3541 30.3632 27.3211 30.4551 27.321 30.5501C27.321 30.604 27.3315 30.6574 27.3521 30.7072C27.3727 30.757 27.4029 30.8023 27.441 30.8404Z" fill="#0F3653"/>
<path d="M31.3798 28.0387C31.1441 28.0386 30.9142 27.9657 30.7215 27.8299C30.5289 27.6942 30.3829 27.5022 30.3035 27.2802C30.2242 27.0583 30.2154 26.8172 30.2783 26.5901C30.3412 26.363 30.4728 26.1608 30.655 26.0113C30.8373 25.8618 31.0612 25.7723 31.2963 25.755C31.5313 25.7377 31.766 25.7935 31.9682 25.9147C32.1703 26.0359 32.33 26.2166 32.4255 26.4321C32.521 26.6476 32.5476 26.8873 32.5016 27.1185C32.4508 27.3784 32.311 27.6125 32.1063 27.7804C31.9015 27.9484 31.6446 28.0397 31.3798 28.0387ZM31.6701 26.6074C31.6127 26.5501 31.5396 26.511 31.46 26.4953C31.3805 26.4795 31.298 26.4876 31.2231 26.5187C31.1481 26.5498 31.0841 26.6024 31.039 26.6698C30.9939 26.7373 30.9699 26.8166 30.9699 26.8977C30.9699 26.9789 30.9939 27.0582 31.039 27.1256C31.0841 27.1931 31.1481 27.2457 31.2231 27.2768C31.298 27.3078 31.3805 27.316 31.46 27.3002C31.5396 27.2844 31.6127 27.2454 31.6701 27.1881C31.7083 27.15 31.7386 27.1047 31.7592 27.0549C31.7799 27.0051 31.7905 26.9517 31.7905 26.8977C31.7905 26.8438 31.7799 26.7904 31.7592 26.7406C31.7386 26.6908 31.7083 26.6455 31.6701 26.6074Z" fill="#0F3653"/>
<path d="M25.9005 31.2344C26.1455 31.2342 26.3841 31.3129 26.5811 31.4587C26.778 31.6046 26.9228 31.8099 26.9941 32.0443C27.0653 32.2788 27.0593 32.5299 26.9769 32.7607C26.8945 32.9915 26.74 33.1896 26.5363 33.3259C26.3326 33.4622 26.0905 33.5293 25.8458 33.5174C25.601 33.5055 25.3666 33.4152 25.1771 33.2598C24.9876 33.1044 24.8531 32.8922 24.7934 32.6545C24.7338 32.4168 24.7522 32.1663 24.8459 31.9398C24.9322 31.7312 25.0785 31.5528 25.2662 31.4272C25.4539 31.3016 25.6746 31.2345 25.9005 31.2344ZM25.6101 32.6669C25.6772 32.7341 25.7655 32.7759 25.86 32.7853C25.9544 32.7946 26.0492 32.771 26.1282 32.7183C26.2071 32.6656 26.2654 32.5872 26.293 32.4964C26.3207 32.4056 26.3159 32.308 26.2797 32.2203C26.2434 32.1325 26.1779 32.0601 26.0942 32.0153C26.0105 31.9704 25.9139 31.956 25.8208 31.9744C25.7277 31.9929 25.6438 32.043 25.5835 32.1164C25.5233 32.1897 25.4902 32.2816 25.4902 32.3766C25.4901 32.4305 25.5007 32.4838 25.5213 32.5337C25.5418 32.5835 25.572 32.6288 25.6101 32.6669Z" fill="#0F3653"/>
<path d="M29.5537 27.582C29.7988 27.5819 30.0374 27.6605 30.2343 27.8064C30.4312 27.9522 30.576 28.1575 30.6473 28.392C30.7186 28.6264 30.7126 28.8776 30.6302 29.1084C30.5477 29.3392 30.3933 29.5373 30.1896 29.6736C29.9859 29.8098 29.7438 29.8769 29.499 29.865C29.2543 29.8531 29.0198 29.7628 28.8303 29.6074C28.6408 29.4521 28.5063 29.2399 28.4467 29.0022C28.3871 28.7645 28.4054 28.5139 28.4991 28.2875C28.5855 28.0788 28.7318 27.9004 28.9195 27.7749C29.1072 27.6493 29.3279 27.5822 29.5537 27.582ZM29.2634 29.0146C29.3305 29.0817 29.4188 29.1236 29.5132 29.1329C29.6077 29.1423 29.7025 29.1186 29.7814 29.066C29.8604 29.0133 29.9187 28.9349 29.9463 28.844C29.9739 28.7532 29.9692 28.6556 29.933 28.5679C29.8967 28.4802 29.8312 28.4077 29.7475 28.3629C29.6638 28.3181 29.5672 28.3037 29.4741 28.3221C29.3809 28.3405 29.2971 28.3907 29.2368 28.464C29.1765 28.5373 29.1435 28.6293 29.1434 28.7242C29.1434 28.7781 29.1539 28.8315 29.1745 28.8813C29.1951 28.9311 29.2253 28.9764 29.2634 29.0146Z" fill="#0F3653"/>
<path d="M25.5778 29.5422C25.3135 29.5423 25.0574 29.4507 24.8531 29.2831C24.6487 29.1156 24.5088 28.8823 24.4572 28.6232C24.4056 28.364 24.4454 28.095 24.5699 27.8619C24.6944 27.6288 24.8958 27.4461 25.14 27.3449C25.3841 27.2437 25.6557 27.2303 25.9086 27.3069C26.1615 27.3835 26.38 27.5455 26.5269 27.7652C26.6737 27.9849 26.7399 28.2487 26.7141 28.5116C26.6882 28.7746 26.572 29.0205 26.3852 29.2074C26.1711 29.4217 25.8806 29.5421 25.5778 29.5422ZM25.8681 28.1096C25.801 28.0425 25.7127 28.0006 25.6183 27.9913C25.5238 27.9819 25.429 28.0056 25.3501 28.0582C25.2711 28.1109 25.2128 28.1893 25.1852 28.2802C25.1576 28.371 25.1623 28.4686 25.1985 28.5563C25.2348 28.644 25.3003 28.7165 25.384 28.7613C25.4677 28.8061 25.5643 28.8205 25.6574 28.8021C25.7506 28.7837 25.8344 28.7335 25.8947 28.6602C25.955 28.5869 25.988 28.4949 25.9881 28.4C25.9881 28.3461 25.9776 28.2927 25.957 28.2429C25.9364 28.1931 25.9062 28.1478 25.8681 28.1096Z" fill="#0F3653"/>
<path d="M29.231 25.8898C28.9668 25.8899 28.7107 25.7984 28.5063 25.6308C28.302 25.4632 28.1621 25.23 28.1105 24.9708C28.0588 24.7117 28.0986 24.4426 28.2231 24.2095C28.3476 23.9764 28.5491 23.7937 28.7932 23.6925C29.0373 23.5913 29.309 23.5779 29.5619 23.6546C29.8148 23.7312 30.0333 23.8931 30.1801 24.1128C30.327 24.3325 30.3932 24.5963 30.3673 24.8593C30.3415 25.1223 30.2253 25.3682 30.0385 25.5551C29.8243 25.7693 29.5339 25.8897 29.231 25.8898ZM29.5214 24.4573C29.464 24.4 29.3908 24.361 29.3113 24.3452C29.2317 24.3294 29.1492 24.3375 29.0743 24.3686C28.9993 24.3997 28.9353 24.4523 28.8902 24.5197C28.8452 24.5872 28.8211 24.6665 28.8211 24.7476C28.8211 24.8288 28.8452 24.9081 28.8902 24.9755C28.9353 25.043 28.9993 25.0956 29.0743 25.1267C29.1492 25.1577 29.2317 25.1659 29.3113 25.1501C29.3908 25.1343 29.464 25.0953 29.5214 25.038C29.5595 24.9999 29.5898 24.9546 29.6105 24.9048C29.6311 24.855 29.6417 24.8016 29.6417 24.7476C29.6417 24.6937 29.6311 24.6403 29.6105 24.5905C29.5898 24.5407 29.5595 24.4954 29.5214 24.4573Z" fill="#0F3653"/>
<path d="M23.7517 29.0859C24.016 29.0858 24.2721 29.1774 24.4764 29.345C24.6807 29.5125 24.8206 29.7458 24.8723 30.0049C24.9239 30.2641 24.8841 30.5331 24.7596 30.7662C24.6351 30.9993 24.4336 31.182 24.1895 31.2832C23.9454 31.3844 23.6738 31.3978 23.4209 31.3212C23.168 31.2446 22.9495 31.0826 22.8026 30.8629C22.6557 30.6433 22.5896 30.3794 22.6154 30.1165C22.6412 29.8535 22.7575 29.6076 22.9443 29.4207C23.1584 29.2064 23.4488 29.086 23.7517 29.0859ZM23.4614 30.5185C23.5284 30.5856 23.6167 30.6275 23.7112 30.6368C23.8056 30.6462 23.9004 30.6225 23.9794 30.5699C24.0584 30.5172 24.1166 30.4388 24.1443 30.3479C24.1719 30.2571 24.1672 30.1595 24.1309 30.0718C24.0947 29.9841 24.0291 29.9116 23.9454 29.8668C23.8618 29.822 23.7651 29.8076 23.672 29.826C23.5789 29.8444 23.4951 29.8946 23.4348 29.9679C23.3745 30.0412 23.3415 30.1332 23.3414 30.2281C23.3413 30.282 23.3519 30.3354 23.3725 30.3852C23.3931 30.435 23.4233 30.4803 23.4614 30.5185Z" fill="#0F3653"/>
<path d="M27.405 27.717C27.1407 27.7171 26.8846 27.6255 26.6803 27.4579C26.4759 27.2904 26.336 27.0571 26.2844 26.798C26.2328 26.5388 26.2726 26.2698 26.3971 26.0367C26.5216 25.8036 26.7231 25.6209 26.9672 25.5197C27.2113 25.4185 27.4829 25.4051 27.7358 25.4817C27.9887 25.5583 28.2072 25.7203 28.3541 25.94C28.501 26.1597 28.5671 26.4235 28.5413 26.6865C28.5154 26.9494 28.3992 27.1953 28.2124 27.3822C27.9983 27.5965 27.7078 27.7169 27.405 27.717ZM27.6953 26.2845C27.6379 26.2271 27.5648 26.1881 27.4852 26.1723C27.4056 26.1565 27.3232 26.1647 27.2482 26.1958C27.1733 26.2268 27.1092 26.2794 27.0642 26.3469C27.0191 26.4144 26.9951 26.4937 26.9951 26.5748C26.9951 26.6559 27.0191 26.7352 27.0642 26.8027C27.1092 26.8702 27.1733 26.9228 27.2482 26.9538C27.3232 26.9849 27.4056 26.9931 27.4852 26.9773C27.5648 26.9615 27.6379 26.9225 27.6953 26.8651C27.7335 26.827 27.7637 26.7818 27.7844 26.7319C27.8051 26.6821 27.8157 26.6287 27.8157 26.5748C27.8157 26.5209 27.8051 26.4675 27.7844 26.4176C27.7637 26.3678 27.7335 26.3226 27.6953 26.2845Z" fill="#0F3653"/>
<path d="M24.5663 26.2521C24.5664 26.5164 24.4749 26.7725 24.3073 26.9768C24.1397 27.1811 23.9065 27.321 23.6473 27.3727C23.3882 27.4243 23.1191 27.3845 22.8861 27.26C22.653 27.1355 22.4703 26.934 22.3691 26.6899C22.2679 26.4458 22.2544 26.1742 22.3311 25.9213C22.4077 25.6684 22.5697 25.4499 22.7893 25.303C23.009 25.1561 23.2728 25.09 23.5358 25.1158C23.7988 25.1417 24.0447 25.2579 24.2316 25.4447C24.4458 25.6588 24.5662 25.9492 24.5663 26.2521ZM23.7145 25.9618C23.6571 25.9045 23.584 25.8654 23.5044 25.8497C23.4248 25.8339 23.3424 25.842 23.2674 25.8731C23.1925 25.9042 23.1284 25.9568 23.0834 26.0242C23.0383 26.0917 23.0142 26.171 23.0142 26.2521C23.0142 26.3333 23.0383 26.4126 23.0834 26.48C23.1284 26.5475 23.1925 26.6001 23.2674 26.6312C23.3424 26.6622 23.4248 26.6704 23.5044 26.6546C23.584 26.6388 23.6571 26.5998 23.7145 26.5425C23.7527 26.5044 23.7829 26.4591 23.8036 26.4093C23.8243 26.3595 23.8349 26.3061 23.8349 26.2521C23.8349 26.1982 23.8243 26.1448 23.8036 26.095C23.7829 26.0452 23.7527 25.9999 23.7145 25.9618Z" fill="#0F3653"/>
<path d="M27.0811 23.7414C26.8168 23.7415 26.5607 23.6499 26.3564 23.4824C26.152 23.3148 26.0121 23.0816 25.9605 22.8224C25.9089 22.5632 25.9487 22.2942 26.0732 22.0611C26.1977 21.828 26.3991 21.6453 26.6432 21.5441C26.8874 21.4429 27.159 21.4295 27.4119 21.5061C27.6648 21.5828 27.8833 21.7447 28.0302 21.9644C28.177 22.1841 28.2432 22.4479 28.2174 22.7109C28.1915 22.9739 28.0753 23.2197 27.8885 23.4066C27.6744 23.6209 27.3839 23.7413 27.0811 23.7414ZM27.3714 22.3089C27.314 22.2515 27.2409 22.2125 27.1613 22.1967C27.0817 22.1809 26.9992 22.1891 26.9243 22.2202C26.8494 22.2512 26.7853 22.3038 26.7403 22.3713C26.6952 22.4388 26.6711 22.5181 26.6711 22.5992C26.6711 22.6803 26.6952 22.7596 26.7403 22.8271C26.7853 22.8946 26.8494 22.9472 26.9243 22.9782C26.9992 23.0093 27.0817 23.0175 27.1613 23.0017C27.2409 22.9859 27.314 22.9469 27.3714 22.8896C27.4096 22.8514 27.4398 22.8062 27.4605 22.7564C27.4811 22.7065 27.4918 22.6531 27.4918 22.5992C27.4918 22.5453 27.4811 22.4919 27.4605 22.4421C27.4398 22.3922 27.4096 22.347 27.3714 22.3089Z" fill="#0F3653"/>
<path d="M21.6017 26.9355C21.866 26.9355 22.1221 27.027 22.3264 27.1946C22.5308 27.3621 22.6707 27.5954 22.7223 27.8545C22.7739 28.1137 22.7341 28.3827 22.6096 28.6158C22.4851 28.8489 22.2837 29.0316 22.0395 29.1328C21.7954 29.234 21.5238 29.2474 21.2709 29.1708C21.018 29.0942 20.7995 28.9322 20.6526 28.7125C20.5058 28.4929 20.4396 28.2291 20.4654 27.9661C20.4913 27.7031 20.6075 27.4572 20.7943 27.2703C21.0084 27.0561 21.2989 26.9357 21.6017 26.9355ZM21.3114 28.3681C21.3785 28.4352 21.4668 28.4771 21.5612 28.4864C21.6557 28.4958 21.7505 28.4721 21.8294 28.4195C21.9084 28.3668 21.9667 28.2884 21.9943 28.1976C22.0219 28.1067 22.0172 28.0092 21.981 27.9214C21.9447 27.8337 21.8792 27.7613 21.7955 27.7164C21.7118 27.6716 21.6152 27.6572 21.5221 27.6756C21.4289 27.6941 21.3451 27.7442 21.2848 27.8175C21.2245 27.8908 21.1915 27.9828 21.1914 28.0777C21.1914 28.1316 21.2019 28.185 21.2225 28.2348C21.2431 28.2846 21.2733 28.3299 21.3114 28.3681Z" fill="#0F3653"/>
<path d="M25.2549 25.5676C24.9907 25.5676 24.7346 25.4761 24.5303 25.3085C24.3259 25.141 24.186 24.9077 24.1344 24.6486C24.0827 24.3894 24.1226 24.1204 24.2471 23.8873C24.3716 23.6542 24.573 23.4715 24.8171 23.3703C25.0612 23.2691 25.3329 23.2557 25.5858 23.3323C25.8387 23.4089 26.0572 23.5709 26.2041 23.7906C26.3509 24.0102 26.4171 24.2741 26.3912 24.537C26.3654 24.8 26.2492 25.0459 26.0624 25.2328C25.8483 25.447 25.5578 25.5674 25.2549 25.5676ZM25.5453 24.135C25.4879 24.0777 25.4148 24.0387 25.3352 24.0229C25.2556 24.0071 25.1731 24.0153 25.0982 24.0463C25.0232 24.0774 24.9592 24.13 24.9141 24.1975C24.8691 24.2649 24.845 24.3443 24.845 24.4254C24.845 24.5065 24.8691 24.5858 24.9141 24.6533C24.9592 24.7207 25.0232 24.7733 25.0982 24.8044C25.1731 24.8355 25.2556 24.8436 25.3352 24.8279C25.4148 24.8121 25.4879 24.773 25.5453 24.7157C25.5834 24.6776 25.6137 24.6324 25.6344 24.5825C25.655 24.5327 25.6657 24.4793 25.6657 24.4254C25.6657 24.3714 25.655 24.318 25.6344 24.2682C25.6137 24.2184 25.5834 24.1731 25.5453 24.135Z" fill="#0F3653"/>
<path d="M24.9334 21.5895C24.6978 21.5894 24.4678 21.5165 24.2752 21.3807C24.0825 21.2449 23.9365 21.0529 23.8572 20.831C23.7779 20.6091 23.769 20.368 23.832 20.1409C23.8949 19.9137 24.0265 19.7116 24.2087 19.5621C24.3909 19.4126 24.6149 19.3231 24.8499 19.3058C25.085 19.2885 25.3197 19.3443 25.5218 19.4655C25.7239 19.5867 25.8837 19.7674 25.9792 19.9829C26.0747 20.1984 26.1012 20.4381 26.0552 20.6693C26.0044 20.9292 25.8646 21.1632 25.6599 21.3312C25.4552 21.4992 25.1983 21.5905 24.9334 21.5895ZM25.2238 20.1582C25.1569 20.0913 25.0688 20.0497 24.9747 20.0405C24.8805 20.0312 24.7861 20.0549 24.7074 20.1074C24.6287 20.1599 24.5707 20.2381 24.5432 20.3286C24.5157 20.4192 24.5204 20.5164 24.5565 20.6039C24.5927 20.6913 24.658 20.7635 24.7414 20.8082C24.8247 20.8529 24.921 20.8673 25.0139 20.849C25.1067 20.8307 25.1903 20.7808 25.2504 20.7077C25.3106 20.6347 25.3436 20.5431 25.3438 20.4485C25.3438 20.3946 25.3333 20.3412 25.3127 20.2914C25.2921 20.2416 25.2619 20.1963 25.2238 20.1582Z" fill="#0F3653"/>
<path d="M33.471 28.2157C33.4228 28.2161 33.3751 28.2069 33.3306 28.1886C33.2861 28.1702 33.2457 28.1432 33.2118 28.1089L33.0787 27.9758C33.0447 27.9418 33.0178 27.9015 32.9994 27.8571C32.981 27.8128 32.9716 27.7652 32.9716 27.7172C32.9716 27.6692 32.981 27.6216 32.9994 27.5773C33.0178 27.5329 33.0447 27.4926 33.0787 27.4587C33.1126 27.4247 33.1529 27.3978 33.1973 27.3794C33.2416 27.361 33.2892 27.3516 33.3372 27.3516C33.3852 27.3516 33.4328 27.361 33.4771 27.3794C33.5215 27.3978 33.5618 27.4247 33.5958 27.4587L33.7289 27.5882C33.783 27.6382 33.8204 27.7036 33.8362 27.7756C33.8519 27.8475 33.8452 27.9225 33.8169 27.9906C33.7887 28.0586 33.7403 28.1163 33.6782 28.1559C33.6161 28.1955 33.5434 28.2151 33.4698 28.2121L33.471 28.2157Z" fill="#0F3653"/>
<path d="M36.7295 31.6274L34.1296 29.0275C34.0957 28.9936 34.0687 28.9533 34.0504 28.9089C34.032 28.8645 34.0225 28.817 34.0225 28.769C34.0225 28.7209 34.032 28.6734 34.0504 28.629C34.0687 28.5847 34.0957 28.5444 34.1296 28.5104C34.1636 28.4765 34.2039 28.4495 34.2482 28.4312C34.2926 28.4128 34.3401 28.4033 34.3882 28.4033C34.4362 28.4033 34.4837 28.4128 34.5281 28.4312C34.5725 28.4495 34.6128 28.4765 34.6467 28.5104L37.2502 31.1139C37.3188 31.1825 37.3573 31.2755 37.3573 31.3725C37.3573 31.4694 37.3188 31.5624 37.2502 31.631C37.1816 31.6996 37.0886 31.7381 36.9917 31.7381C36.8947 31.7381 36.8017 31.6996 36.7331 31.631L36.7295 31.6274Z" fill="#0F3653"/>
<path d="M18.5951 19.5939C18.4682 19.7194 18.3675 19.8689 18.2989 20.0337C18.2303 20.1985 18.1952 20.3752 18.1956 20.5537C18.1956 20.6492 18.1576 20.7407 18.0901 20.8082C18.0226 20.8757 17.9311 20.9136 17.8356 20.9136C17.7402 20.9136 17.6486 20.8757 17.5811 20.8082C17.5136 20.7407 17.4757 20.6492 17.4757 20.5537C17.4752 20.2803 17.5287 20.0095 17.6329 19.7568C17.7372 19.504 17.8902 19.2743 18.0833 19.0808C18.2764 18.8872 18.5058 18.7336 18.7583 18.6288C19.0108 18.5239 19.2815 18.4699 19.5549 18.4697C19.6504 18.4697 19.7419 18.5076 19.8094 18.5751C19.8769 18.6426 19.9148 18.7342 19.9148 18.8297C19.9148 18.9251 19.8769 19.0167 19.8094 19.0842C19.7419 19.1517 19.6504 19.1896 19.5549 19.1896C19.3766 19.1892 19.2001 19.2241 19.0353 19.2923C18.8706 19.3605 18.721 19.4605 18.5951 19.5867V19.5939Z" fill="#0F3653"/>
<path d="M19.5561 16.707C19.6532 16.7111 19.7449 16.7526 19.812 16.8228C19.8791 16.8931 19.9164 16.9866 19.916 17.0838C19.9164 17.1804 19.8789 17.2734 19.8117 17.3429C19.7445 17.4124 19.6527 17.4529 19.5561 17.4557C18.7367 17.4579 17.9515 17.7846 17.3723 18.3642C16.7931 18.9438 16.4671 19.7293 16.4655 20.5487C16.4655 20.6457 16.4269 20.7388 16.3583 20.8074C16.2897 20.8761 16.1966 20.9146 16.0996 20.9146C16.0025 20.9146 15.9094 20.8761 15.8408 20.8074C15.7722 20.7388 15.7336 20.6457 15.7336 20.5487C15.7336 19.5333 16.1358 18.5594 16.8522 17.8398C17.5686 17.1203 18.5408 16.7139 19.5561 16.7094V16.707Z" fill="#0F3653"/>
<path d="M19.5525 15C19.6006 15 19.6481 15.0095 19.6925 15.0279C19.7369 15.0462 19.7773 15.0732 19.8113 15.1072C19.8452 15.1412 19.8722 15.1815 19.8906 15.2259C19.909 15.2703 19.9184 15.3179 19.9184 15.3659C19.9184 15.414 19.909 15.4616 19.8906 15.506C19.8722 15.5504 19.8452 15.5907 19.8113 15.6247C19.7773 15.6587 19.7369 15.6856 19.6925 15.704C19.6481 15.7224 19.6006 15.7319 19.5525 15.7319C18.2746 15.7325 17.0492 16.2403 16.1453 17.1436C15.2415 18.047 14.7331 19.2722 14.7319 20.5501C14.7319 20.6472 14.6933 20.7402 14.6247 20.8089C14.5561 20.8775 14.463 20.916 14.3659 20.916C14.2689 20.916 14.1758 20.8775 14.1072 20.8089C14.0386 20.7402 14 20.6472 14 20.5501C14.0006 19.0779 14.5859 17.6662 15.6271 16.6254C16.6684 15.5847 18.0803 15 19.5525 15Z" fill="#0F3653"/>
</g>
<defs>
<clipPath id="clip0_201_147">
<rect width="59" height="59" fill="white"/>
</clipPath>
</defs>
</svg>
