<svg xmlns="http://www.w3.org/2000/svg" width="20.411" height="20.411" viewBox="0 0 20.411 20.411">
  <g id="_14" data-name="14" transform="translate(-2130.295 -242.716)">
    <ellipse id="타원_471" data-name="타원 471" cx="6.793" cy="2.058" rx="6.793" ry="2.058" transform="translate(2133.707 258.897)" fill="#00bed6"/>
    <g id="그룹_1071" data-name="그룹 1071" transform="translate(2130.295 242.716)">
      <circle id="타원_472" data-name="타원 472" cx="8.896" cy="8.896" r="8.896" transform="matrix(0.16, -0.987, 0.987, 0.16, 0, 17.561)" fill="#ffdc00"/>
      <path id="패스_2188" data-name="패스 2188" d="M2156.243,263.907a8.9,8.9,0,0,1-16.389,4.8,8.9,8.9,0,0,0,14.193-10.648A8.859,8.859,0,0,1,2156.243,263.907Z" transform="translate(-2137.142 -253.703)" fill="#ffdc00"/>
    </g>
    <g id="그룹_1078" data-name="그룹 1078" transform="translate(2134.086 246.931)">
      <g id="그룹_1075" data-name="그룹 1075" transform="translate(0 0)">
        <g id="그룹_1072" data-name="그룹 1072">
          <path id="패스_2189" data-name="패스 2189" d="M2143.938,259.7c-.461.316-.32.687.153.543a4.786,4.786,0,0,0,2.349-1.527c.307-.4.307-.746.145-.947h0c-.162-.2-.558-.415-1.011.249A6.036,6.036,0,0,1,2143.938,259.7Z" transform="translate(-2143.656 -257.57)" fill="#fa0"/>
          <path id="패스_2190" data-name="패스 2190" d="M2180.922,259.7c.461.316.32.687-.153.543a4.783,4.783,0,0,1-2.349-1.527c-.307-.4-.307-.746-.145-.947h0c.162-.2.558-.415,1.011.249A6.036,6.036,0,0,0,2180.922,259.7Z" transform="translate(-2168.375 -257.57)" fill="#fa0"/>
        </g>
        <g id="그룹_1073" data-name="그룹 1073" transform="translate(0.092 3.196)">
          <path id="패스_2191" data-name="패스 2191" d="M2177.94,269.548a1.333,1.333,0,0,0-.462,1.819,4.136,4.136,0,0,1,.645,2.234c-.05,1.112-.991,2.1-.116,3.419a3.1,3.1,0,0,1,.289,2.955,7.234,7.234,0,0,1-3,0,3.008,3.008,0,0,0-.033-2.591,4.239,4.239,0,0,1-.005-3.826c.486-1.3-1.363-2.6-.4-4.34C2175.247,268.528,2177.722,268.848,2177.94,269.548Z" transform="translate(-2165.899 -268.834)" fill="#00bed6"/>
          <path id="패스_2192" data-name="패스 2192" d="M2144.585,269.548a1.334,1.334,0,0,1,.463,1.819,4.136,4.136,0,0,0-.646,2.234c.05,1.112.992,2.1.117,3.419a3.1,3.1,0,0,0-.29,2.955,7.234,7.234,0,0,0,3,0,3.009,3.009,0,0,1,.032-2.591,4.237,4.237,0,0,0,.005-3.826c-.486-1.3,1.363-2.6.4-4.34C2147.279,268.528,2144.8,268.848,2144.585,269.548Z" transform="translate(-2143.982 -268.834)" fill="#00bed6"/>
        </g>
        <g id="그룹_1074" data-name="그룹 1074" transform="translate(0.358 2.601)">
          <path id="패스_2193" data-name="패스 2193" d="M2147.1,266.737a2.458,2.458,0,0,1,1.844.729c.892.911.472,1.409.256,1.14a2.58,2.58,0,0,0-2.054-1.092,2.274,2.274,0,0,0-1.9,1.1c-.141.186-.479.068-.258-.462A2.372,2.372,0,0,1,2147.1,266.737Z" transform="translate(-2144.918 -266.737)" fill="#401800"/>
          <path id="패스_2194" data-name="패스 2194" d="M2173.884,266.737a2.459,2.459,0,0,0-1.844.729c-.892.911-.472,1.409-.256,1.14a2.58,2.58,0,0,1,2.054-1.092,2.275,2.275,0,0,1,1.9,1.1c.14.186.479.068.258-.462A2.372,2.372,0,0,0,2173.884,266.737Z" transform="translate(-2163.954 -266.737)" fill="#401800"/>
        </g>
      </g>
      <g id="그룹_1077" data-name="그룹 1077" transform="translate(4.491 7.391)">
        <g id="그룹_1076" data-name="그룹 1076">
          <path id="패스_2195" data-name="패스 2195" d="M2163.332,285.743a2.264,2.264,0,0,1-.377,1.261,1.82,1.82,0,0,1-3.1,0,2.262,2.262,0,0,1-.375-1.261,2.219,2.219,0,0,1,.1-.669,1.869,1.869,0,0,1,3.646,0A2.219,2.219,0,0,1,2163.332,285.743Z" transform="translate(-2159.484 -283.619)" fill="#401800"/>
          <path id="패스_2196" data-name="패스 2196" d="M2163.9,293.639a1.821,1.821,0,0,1-3.1,0c.351-.523.927-1.22,1.548-.332C2162.983,292.419,2163.552,293.116,2163.9,293.639Z" transform="translate(-2160.431 -290.253)" fill="#cc0a17"/>
        </g>
        <path id="패스_2197" data-name="패스 2197" d="M2163.486,285.074h-3.646a1.869,1.869,0,0,1,3.646,0Z" transform="translate(-2159.739 -283.619)" fill="#fff"/>
      </g>
    </g>
  </g>
</svg>
