<svg width="35" height="36" viewBox="0 0 35 36" fill="none" xmlns="http://www.w3.org/2000/svg">
<path d="M30.488 3.25059H27.344V1.61059C27.3484 1.46421 27.3234 1.31843 27.2705 1.18189C27.2175 1.04535 27.1377 0.920837 27.0357 0.815728C26.9337 0.710619 26.8117 0.627055 26.6768 0.56999C26.5419 0.512925 26.3969 0.483521 26.2505 0.483521C26.104 0.483521 25.9591 0.512925 25.8242 0.56999C25.6893 0.627055 25.5673 0.710619 25.4653 0.815728C25.3633 0.920837 25.2835 1.04535 25.2305 1.18189C25.1776 1.31843 25.1526 1.46421 25.157 1.61059V3.25059H9.844V1.61059C9.844 1.32045 9.72874 1.04218 9.52357 0.837018C9.31841 0.631853 9.04015 0.516592 8.75 0.516592C8.45985 0.516592 8.18159 0.631853 7.97643 0.837018C7.77126 1.04218 7.656 1.32045 7.656 1.61059V3.25059H4.512C3.31575 3.25192 2.16887 3.72771 1.323 4.57359C0.477118 5.41947 0.00132343 6.56634 0 7.76259L0 31.0046C0.00132343 32.2008 0.477118 33.3477 1.323 34.1936C2.16887 35.0395 3.31575 35.5153 4.512 35.5166H30.488C31.6843 35.5153 32.8311 35.0395 33.677 34.1936C34.5229 33.3477 34.9987 32.2008 35 31.0046V7.76259C34.9987 6.56634 34.5229 5.41947 33.677 4.57359C32.8311 3.72771 31.6843 3.25192 30.488 3.25059V3.25059ZM32.812 31.0046C32.812 31.621 32.5672 32.2121 32.1313 32.6479C31.6955 33.0837 31.1044 33.3286 30.488 33.3286H4.512C3.89564 33.3286 3.30452 33.0837 2.86868 32.6479C2.43285 32.2121 2.188 31.621 2.188 31.0046V12.8896C2.188 12.7989 2.22403 12.7119 2.28817 12.6478C2.35231 12.5836 2.4393 12.5476 2.53 12.5476H32.471C32.5617 12.5476 32.6487 12.5836 32.7128 12.6478C32.777 12.7119 32.813 12.7989 32.813 12.8896L32.812 31.0046Z" fill="white"/>
<path d="M18 24.3726C20.7614 24.3726 23 22.134 23 19.3726C23 16.6111 20.7614 14.3726 18 14.3726C15.2386 14.3726 13 16.6111 13 19.3726C13 22.134 15.2386 24.3726 18 24.3726Z" fill="white"/>
<path d="M18 23.3726C20.2091 23.3726 22 21.5817 22 19.3726C22 17.1634 20.2091 15.3726 18 15.3726C15.7909 15.3726 14 17.1634 14 19.3726C14 21.5817 15.7909 23.3726 18 23.3726Z" fill="white"/>
<path d="M17 26.2566H19C20.1819 26.2566 21.3522 26.4894 22.4442 26.9417C23.5361 27.394 24.5282 28.0569 25.364 28.8926C26.1997 29.7284 26.8626 30.7205 27.3149 31.8124C27.7672 32.9044 28 34.0747 28 35.2566H8C8 32.8696 8.94821 30.5805 10.636 28.8926C12.3239 27.2048 14.6131 26.2566 17 26.2566V26.2566Z" fill="white"/>
<path d="M15.588 27.5066H20.413C22.0937 27.5069 23.7056 28.1747 24.894 29.3633C26.0824 30.5519 26.75 32.1638 26.75 33.8446V33.8446C26.75 33.8876 26.7329 33.929 26.7026 33.9595C26.6722 33.99 26.631 34.0073 26.588 34.0076H9.41298C9.37009 34.0073 9.32904 33.9902 9.29872 33.9599C9.26839 33.9295 9.25124 33.8885 9.25098 33.8456V33.8456C9.25085 33.0133 9.41465 32.1891 9.73305 31.4201C10.0514 30.6511 10.5182 29.9523 11.1066 29.3637C11.6951 28.775 12.3937 28.3081 13.1626 27.9894C13.9315 27.6708 14.7557 27.5067 15.588 27.5066V27.5066Z" fill="white"/>
</svg>
