<svg xmlns="http://www.w3.org/2000/svg" xmlns:xlink="http://www.w3.org/1999/xlink" width="58" height="58" viewBox="0 0 58 58">
  <defs>
    <clipPath id="clip-path">
      <rect id="사각형_881" data-name="사각형 881" width="36" height="36" transform="translate(406 287)" fill="#fff" stroke="#707070" stroke-width="1"/>
    </clipPath>
  </defs>
  <g id="그룹_935" data-name="그룹 935" transform="translate(-80 -243)">
    <g id="사각형_875" data-name="사각형 875" transform="translate(80 243)" fill="#fff" stroke="#d5d5d5" stroke-width="1">
      <rect width="58" height="58" rx="5" stroke="none"/>
      <rect x="0.5" y="0.5" width="57" height="57" rx="4.5" fill="none"/>
    </g>
    <g id="ico_01" transform="translate(-315 -33)" clip-path="url(#clip-path)">
      <g id="그룹_688" data-name="그룹 688" transform="translate(-90.535 -622.811)">
        <path id="패스_1024" data-name="패스 1024" d="M527.423,952.605H498.452a.7.7,0,0,1-.694-.694v-20a.7.7,0,0,1,.694-.694h4.378a.694.694,0,0,1,0,1.389h-3.684v18.611h27.582v-3.191a.694.694,0,1,1,1.389,0v3.886A.694.694,0,0,1,527.423,952.605Z" transform="translate(0 -12.813)" fill="#303d53"/>
        <path id="패스_1025" data-name="패스 1025" d="M559.366,936.53a.7.7,0,0,1-.694-.694V932.6H547.386a.694.694,0,0,1,0-1.389h11.979a.694.694,0,0,1,.694.694v3.925A.694.694,0,0,1,559.366,936.53Z" transform="translate(-31.943 -12.813)" fill="#303d53"/>
        <path id="패스_1026" data-name="패스 1026" d="M540.169,994.366a.7.7,0,0,1-.694-.695V989.51a.694.694,0,0,1,1.389,0v4.161A.694.694,0,0,1,540.169,994.366Z" transform="translate(-27.232 -50.413)" fill="#303d53"/>
        <path id="패스_1027" data-name="패스 1027" d="M535.077,1002.188H523.5a.694.694,0,0,1,0-1.389h11.574a.694.694,0,1,1,0,1.389Z" transform="translate(-16.353 -58.235)" fill="#303d53"/>
        <path id="패스_1028" data-name="패스 1028" d="M511.061,948.1a.694.694,0,0,1-.694-.694v-5.176a.694.694,0,1,1,1.389,0V947.4A.7.7,0,0,1,511.061,948.1Z" transform="translate(-8.231 -19.547)" fill="#00a58a"/>
        <path id="패스_1029" data-name="패스 1029" d="M523.29,924.764h-8.443a.694.694,0,1,1,0-1.389H522.6v-10.4h-10.84v9.7a.694.694,0,0,1-1.389,0v-10.4a.694.694,0,0,1,.694-.694H523.29a.7.7,0,0,1,.694.694v11.788A.694.694,0,0,1,523.29,924.764Z" transform="translate(-8.231 0)" fill="#00a58a"/>
        <path id="패스_1030" data-name="패스 1030" d="M511.062,950.711a.694.694,0,0,1-.491-1.185l3.785-3.786a.695.695,0,1,1,.982.982l-3.786,3.786A.692.692,0,0,1,511.062,950.711Z" transform="translate(-8.231 -22.161)" fill="#00a58a"/>
        <path id="패스_1031" data-name="패스 1031" d="M551.456,979.014h-5.176a.694.694,0,0,1,0-1.389h5.176a.694.694,0,1,1,0,1.389Z" transform="translate(-31.22 -43.108)" fill="#303d53"/>
        <path id="패스_1032" data-name="패스 1032" d="M568.969,956.025h-10.4a.694.694,0,0,1,0-1.389h9.7V943.8h-10.4v7.748a.694.694,0,1,1-1.389,0V943.1a.694.694,0,0,1,.695-.695h11.788a.694.694,0,0,1,.695.695v12.228A.694.694,0,0,1,568.969,956.025Z" transform="translate(-38.337 -20.119)" fill="#303d53"/>
        <path id="패스_1033" data-name="패스 1033" d="M546.279,971.9a.694.694,0,0,1-.491-1.185l3.786-3.786a.694.694,0,0,1,.982.982l-3.785,3.785A.692.692,0,0,1,546.279,971.9Z" transform="translate(-31.22 -35.992)" fill="#303d53"/>
        <g id="그룹_684" data-name="그룹 684" transform="translate(505.985 914.896)">
          <g id="그룹_683" data-name="그룹 683">
            <path id="패스_1034" data-name="패스 1034" d="M526.225,927.046l-.287-.754H523.5l-.287.77a2.685,2.685,0,0,1-.287.609.456.456,0,0,1-.389.158.569.569,0,0,1-.406-.168.513.513,0,0,1-.176-.381.859.859,0,0,1,.041-.254q.041-.131.135-.365l1.536-3.9.158-.4a2.03,2.03,0,0,1,.2-.391.8.8,0,0,1,.274-.252.974.974,0,0,1,.844,0,.815.815,0,0,1,.275.248,1.738,1.738,0,0,1,.176.326q.072.174.182.465l1.569,3.876a1.943,1.943,0,0,1,.185.643.534.534,0,0,1-.174.383.572.572,0,0,1-.42.174.547.547,0,0,1-.246-.051.5.5,0,0,1-.172-.14,1.263,1.263,0,0,1-.15-.27C526.309,927.246,526.263,927.139,526.225,927.046Zm-2.409-1.668h1.794L524.7,922.9Z" transform="translate(-521.777 -921.444)" fill="#00a58a"/>
            <path id="패스_1035" data-name="패스 1035" d="M526.6,927.677a.713.713,0,0,1-.324-.07.676.676,0,0,1-.23-.186,1.431,1.431,0,0,1-.173-.309c-.054-.122-.1-.231-.138-.325l0,0-.244-.642h-2.2l-.245.658a2.8,2.8,0,0,1-.311.652.621.621,0,0,1-.528.227.74.74,0,0,1-.525-.216.683.683,0,0,1-.23-.507,1.038,1.038,0,0,1,.049-.306q.043-.136.14-.378l1.694-4.3a2.188,2.188,0,0,1,.214-.425.974.974,0,0,1,.333-.306,1.149,1.149,0,0,1,1.015,0,1,1,0,0,1,.332.3,1.906,1.906,0,0,1,.193.358q.073.176.184.469l1.568,3.873a2.059,2.059,0,0,1,.2.709.7.7,0,0,1-.225.506A.744.744,0,0,1,526.6,927.677Zm-.544-1.02q.057.137.135.316a1.1,1.1,0,0,0,.126.233.327.327,0,0,0,.114.092.371.371,0,0,0,.168.033.4.4,0,0,0,.3-.123.363.363,0,0,0,.124-.26,1.727,1.727,0,0,0-.171-.577l-1.57-3.878c-.074-.2-.135-.349-.182-.464a1.608,1.608,0,0,0-.159-.294.649.649,0,0,0-.217-.2.809.809,0,0,0-.673,0,.619.619,0,0,0-.216.2,1.868,1.868,0,0,0-.179.358l-1.695,4.305q-.091.227-.131.353a.687.687,0,0,0-.033.2.341.341,0,0,0,.123.255.4.4,0,0,0,.286.12c.184,0,.234-.066.25-.089a2.433,2.433,0,0,0,.263-.565l.287-.77a.174.174,0,0,1,.163-.113h2.442a.174.174,0,0,1,.163.112Zm-.776-1.43h-1.795a.174.174,0,0,1-.164-.232l.889-2.479a.174.174,0,0,1,.163-.115h0a.174.174,0,0,1,.163.114l.906,2.479a.174.174,0,0,1-.163.233Zm-1.548-.347h1.3l-.656-1.8Z" transform="translate(-521.451 -921.118)" fill="#00a58a"/>
          </g>
        </g>
        <g id="그룹_686" data-name="그룹 686" transform="translate(521.985 925.818)">
          <g id="그룹_685" data-name="그룹 685" transform="translate(0)">
            <path id="패스_1036" data-name="패스 1036" d="M570.691,959.283h-1.9a.787.787,0,0,1-.587-.184.83.83,0,0,1-.176-.587v-4.669a.813.813,0,0,1,.18-.591.8.8,0,0,1,.583-.18h2.013a4.687,4.687,0,0,1,.771.055,1.637,1.637,0,0,1,.585.212,1.533,1.533,0,0,1,.39.333,1.469,1.469,0,0,1,.258.445,1.489,1.489,0,0,1,.089.515,1.429,1.429,0,0,1-.932,1.365,1.516,1.516,0,0,1,1.225,1.517,1.705,1.705,0,0,1-.267.939,1.6,1.6,0,0,1-.72.617,2.561,2.561,0,0,1-.652.167A6.634,6.634,0,0,1,570.691,959.283Zm-1.4-5.267v1.606h1.153a2.311,2.311,0,0,0,.726-.089.693.693,0,0,0,.392-.339.762.762,0,0,0,.106-.4.618.618,0,0,0-.335-.625,2.555,2.555,0,0,0-1.021-.155Zm1.309,2.509h-1.309v1.814h1.352q1.276,0,1.275-.92a.75.75,0,0,0-.331-.682A1.85,1.85,0,0,0,570.6,956.525Z" transform="translate(-567.856 -952.897)" fill="#303d53"/>
            <path id="패스_1037" data-name="패스 1037" d="M570.365,959.13h-1.9a.951.951,0,0,1-.713-.238,1,1,0,0,1-.224-.707v-4.67a.977.977,0,0,1,.231-.714.962.962,0,0,1,.705-.231h2.013a4.871,4.871,0,0,1,.8.058,1.823,1.823,0,0,1,.646.235,1.7,1.7,0,0,1,.432.369,1.639,1.639,0,0,1,.289.5,1.666,1.666,0,0,1,.1.574,1.532,1.532,0,0,1-.7,1.336,1.6,1.6,0,0,1,.994,1.546,1.885,1.885,0,0,1-.294,1.032,1.784,1.784,0,0,1-.8.682,2.762,2.762,0,0,1-.7.181A6.916,6.916,0,0,1,570.365,959.13Zm-1.9-6.212a.647.647,0,0,0-.46.13.661.661,0,0,0-.129.468v4.67a.677.677,0,0,0,.128.467.635.635,0,0,0,.461.13h1.9a6.517,6.517,0,0,0,.837-.047,2.4,2.4,0,0,0,.609-.155,1.421,1.421,0,0,0,.641-.55,1.544,1.544,0,0,0,.239-.845,1.348,1.348,0,0,0-1.1-1.352.174.174,0,0,1-.02-.323,1.258,1.258,0,0,0,.831-1.207,1.328,1.328,0,0,0-.078-.455,1.3,1.3,0,0,0-.228-.392,1.356,1.356,0,0,0-.346-.3,1.475,1.475,0,0,0-.525-.19,4.513,4.513,0,0,0-.742-.053Zm1.848,5.267h-1.352a.174.174,0,0,1-.174-.174V956.2a.174.174,0,0,1,.174-.174h1.309a2,2,0,0,1,1.081.239.915.915,0,0,1,.41.828C571.763,957.591,571.512,958.185,570.314,958.185Zm-1.179-.347h1.179c.987,0,1.1-.426,1.1-.746a.583.583,0,0,0-.25-.536,1.7,1.7,0,0,0-.894-.184h-1.136Zm.979-2.369h-1.152a.173.173,0,0,1-.174-.174v-1.606a.174.174,0,0,1,.174-.174h1.021a2.687,2.687,0,0,1,1.094.171.78.78,0,0,1,.436.782.939.939,0,0,1-.131.487.86.86,0,0,1-.484.414A2.452,2.452,0,0,1,570.114,955.469Zm-.979-.347h.979a2.173,2.173,0,0,0,.67-.079.522.522,0,0,0,.3-.258.6.6,0,0,0,.085-.316c0-.322-.134-.421-.234-.467a2.413,2.413,0,0,0-.949-.139h-.848Z" transform="translate(-567.53 -952.571)" fill="#303d53"/>
          </g>
        </g>
        <g id="그룹_687" data-name="그룹 687" transform="translate(504.424 927.154)">
          <path id="패스_1038" data-name="패스 1038" d="M526.335,975.188h-3.591a.694.694,0,1,1,0-1.389h2.9v-1.985a.694.694,0,0,1,1.389,0v2.68A.694.694,0,0,1,526.335,975.188Z" transform="translate(-520.281 -966.016)" fill="#303d53"/>
          <path id="패스_1039" data-name="패스 1039" d="M519.42,970.151h-1.768a.694.694,0,0,1-.694-.695V964.1a.694.694,0,0,1,.694-.694h2.84a.694.694,0,1,1,0,1.389h-2.145v3.97h1.074a.694.694,0,1,1,0,1.389Z" transform="translate(-516.957 -960.979)" fill="#303d53"/>
          <path id="패스_1040" data-name="패스 1040" d="M522.448,963.1h-.024a.7.7,0,0,1-.519-.26l-1.736-2.172a.695.695,0,1,1,1.085-.867l1.229,1.538,4.305-4.692a.694.694,0,0,1,1.023.939l-4.853,5.289A.7.7,0,0,1,522.448,963.1Z" transform="translate(-518.955 -956.421)" fill="#00a58a"/>
        </g>
      </g>
    </g>
  </g>
</svg>
