<svg xmlns="http://www.w3.org/2000/svg" width="23" height="23" viewBox="0 0 23 23">
  <g id="다각형_19" data-name="다각형 19" fill="#fdc42d">
    <path d="M 18.01484298706055 22.16291236877441 L 11.71547985076904 19.15446090698242 L 11.5 19.05155944824219 L 11.28452014923096 19.15446090698242 L 4.98515796661377 22.16291236877441 L 5.763669967651367 14.89696979522705 L 5.786900043487549 14.68019962310791 L 5.643879890441895 14.51566982269287 L 0.9325729012489319 9.095893859863281 L 7.752739906311035 7.627500057220459 L 7.978059768676758 7.57898998260498 L 8.087510108947754 7.376160144805908 L 11.5 1.052800536155701 L 14.91248989105225 7.376160144805908 L 15.02194023132324 7.57898998260498 L 15.24726009368896 7.627500057220459 L 22.06742668151855 9.095893859863281 L 17.35611915588379 14.51566982269287 L 17.21310043334961 14.68019962310791 L 17.23633003234863 14.89696979522705 L 18.01484298706055 22.16291236877441 Z" stroke="none"/>
    <path d="M 11.5 2.105619430541992 L 8.308609962463379 8.019280433654785 L 1.865137100219727 9.406569480895996 L 6.307279586791992 14.51671028137207 L 5.577714920043945 21.32582855224609 L 11.5 18.49745941162109 L 17.42228507995605 21.32582855224609 L 16.69272041320801 14.51671028137207 L 21.13486289978027 9.406569480895996 L 14.69139003753662 8.019280433654785 L 11.5 2.105619430541992 M 11.5 0 L 15.35249996185303 7.138699531555176 L 23 8.785220146179199 L 17.73348045349121 14.84370040893555 L 18.60738945007324 23 L 11.5 19.60564994812012 L 4.392610549926758 23 L 5.266519546508789 14.84370040893555 L 0 8.785220146179199 L 7.647500038146973 7.138699531555176 L 11.5 0 Z" stroke="none" fill="#000"/>
  </g>
</svg>
