<svg id="ico_class_Study" xmlns="http://www.w3.org/2000/svg" xmlns:xlink="http://www.w3.org/1999/xlink" width="35" height="35" viewBox="0 0 35 35">
  <defs>
    <clipPath id="clip-path">
      <rect id="Rectangle_340" data-name="Rectangle 340" width="35" height="35" fill="#fff" stroke="#707070" stroke-width="1"/>
    </clipPath>
  </defs>
  <g id="icon_수업연구실" clip-path="url(#clip-path)">
    <g id="microscope_1_" data-name="microscope (1)" transform="translate(4.966 1.389)">
      <g id="Group_113" data-name="Group 113" transform="translate(10.069 24.041)">
        <g id="Group_112" data-name="Group 112">
          <path id="Path_727" data-name="Path 727" d="M16.8,22.383a.629.629,0,1,1-.629.629A.63.63,0,0,1,16.8,22.383Z" transform="translate(-16.172 -22.383)" fill="#fff"/>
        </g>
      </g>
      <g id="Group_116" data-name="Group 116">
        <g id="Group_115" data-name="Group 115">
          <g id="Group_114" data-name="Group 114">
            <path id="Path_728" data-name="Path 728" d="M5.135,26.559l.516-1.547a8.734,8.734,0,0,1-2.37-6.006,8.888,8.888,0,0,1,6.37-8.513L8.108,7.822a.629.629,0,0,1,.23-.86l.545-.315-.629-1.09-.545.315a.629.629,0,0,1-.86-.23L5.591,3.461a.63.63,0,0,1,.23-.86L10.181.084a.629.629,0,0,1,.86.23L12.3,2.495a.629.629,0,0,1-.23.86l-.545.315.629,1.09.545-.315a.629.629,0,0,1,.86.23l4.72,8.176.545-.315a.629.629,0,0,1,.86.23l1.259,2.18a.629.629,0,0,1-.23.86l-6.54,3.776a.629.629,0,0,1-.86-.23l-1.259-2.18a.629.629,0,0,1,.23-.86L12.828,16l-.465-.8a3.8,3.8,0,0,0-4.048,3.814,3.735,3.735,0,0,0,.5,1.887,5.867,5.867,0,0,1,6.273.63h6.142a3.131,3.131,0,0,1,2.815,1.74l.563,1.126a.629.629,0,0,1-.563.911H17.37l.42,1.259h8.777a1.89,1.89,0,0,1,1.888,1.888v3.147a.629.629,0,0,1-.629.629H3.911a.629.629,0,0,1-.629-.629V28.446A1.89,1.89,0,0,1,5.135,26.559Zm5.131-25.07L7,3.377l.629,1.09L10.9,2.579ZM10.434,4.3l-1.09.629.629,1.09,1.09-.629Zm3.653,13.879,5.45-3.147-.629-1.09L14,16.773h0l-.545.315Zm-.169-2.809,3.27-1.888L12.783,5.849,10.335,7.263l.178-.1-1,.577Zm-2.275-1.423L10.3,11.621A7.581,7.581,0,0,0,4.54,19.006a7.479,7.479,0,0,0,1.6,4.65A5.9,5.9,0,0,1,7.763,21.58a4.98,4.98,0,0,1-.706-2.574A5.07,5.07,0,0,1,11.643,13.945Zm-.181,7.579A4.61,4.61,0,0,0,7.09,24.675l-.628,1.883h10l-.628-1.883A4.612,4.612,0,0,0,11.463,21.524Zm11.569,2.517a1.957,1.957,0,0,0-1.8-1.265H16.279a5.924,5.924,0,0,1,.665,1.265ZM4.54,30.964H27.2V28.446a.63.63,0,0,0-.629-.629H5.169a.63.63,0,0,0-.629.629Z" transform="translate(-3.281 0)" fill="#fff"/>
            <path id="Path_729" data-name="Path 729" d="M20.327,6.8l-.1.06Z" transform="translate(-13.35 0.504)" fill="#fff"/>
            <path id="Path_730" data-name="Path 730" d="M20.223,6.8l0,0Z" transform="translate(-13.242 0.504)" fill="#fff"/>
            <path id="Path_731" data-name="Path 731" d="M20.158,6.762l-.006,0Z" transform="translate(-13.104 0.501)" fill="#fff"/>
            <path id="Path_732" data-name="Path 732" d="M20.223,6.765l-.066.038Z" transform="translate(-13.176 0.501)" fill="#fff"/>
            <path id="Path_733" data-name="Path 733" d="M20.337,6.859l-.017.01Z" transform="translate(-13.465 0.508)" fill="#fff"/>
            <path id="Path_734" data-name="Path 734" d="M20.569,7l-.005,0Z" transform="translate(-13.957 0.518)" fill="#fff"/>
            <path id="Path_735" data-name="Path 735" d="M20.564,6.991,20.549,7Z" transform="translate(-13.937 0.518)" fill="#fff"/>
            <path id="Path_736" data-name="Path 736" d="M20.573,7Z" transform="translate(-13.967 0.519)" fill="#fff"/>
            <path id="Path_737" data-name="Path 737" d="M20.48,6.944l-.014.008Z" transform="translate(-13.765 0.514)" fill="#fff"/>
            <path id="Path_738" data-name="Path 738" d="M20.554,6.951l-.075.043Z" transform="translate(-13.852 0.515)" fill="#fff"/>
            <path id="Path_739" data-name="Path 739" d="M20.468,6.933l-.02.012Z" transform="translate(-13.732 0.514)" fill="#fff"/>
            <path id="Path_740" data-name="Path 740" d="M20.456,6.868l-.12.069Z" transform="translate(-13.6 0.509)" fill="#fff"/>
          </g>
        </g>
      </g>
      <g id="Group_118" data-name="Group 118" transform="translate(5.035 24.041)">
        <g id="Group_117" data-name="Group 117">
          <path id="Path_741" data-name="Path 741" d="M19.145,22.383h2.517a.629.629,0,1,1,0,1.259H19.145a.629.629,0,0,1,0-1.259Z" transform="translate(-18.516 -22.383)" fill="#fff"/>
        </g>
      </g>
    </g>
  </g>
</svg>
