<svg width="103" height="39" viewBox="0 0 103 39" fill="none" xmlns="http://www.w3.org/2000/svg">
<g clip-path="url(#clip0_856_3000)">
<path d="M11.4542 13.291H5V7.5479C5 5.75891 6.46479 4.29102 8.25 4.29102C10.0352 4.29102 11.5 5.75891 11.5 7.5479V13.291H11.4542Z" fill="#A00070"/>
<g filter="url(#filter0_d_856_3000)">
<path d="M8.2998 4.29102C10.0434 4.29102 11.4741 5.70805 11.4741 7.43506V15.2647C11.4741 21.3314 16.4367 26.291 22.6065 26.291H94.2998V16.3173C94.2998 10.2506 89.3371 4.29102 83.1674 4.29102H8.2998Z" fill="white"/>
<path d="M8.2998 4.29102C10.0434 4.29102 11.4741 5.70805 11.4741 7.43506V15.2647C11.4741 21.3314 16.4367 26.291 22.6065 26.291H94.2998V16.3173C94.2998 10.2506 89.3371 4.29102 83.1674 4.29102H8.2998Z" fill="url(#paint0_linear_856_3000)"/>
</g>
<path fill-rule="evenodd" clip-rule="evenodd" d="M35.1111 7.03928C35.1111 6.54836 35.5091 6.15039 36 6.15039C36.4909 6.15039 36.8889 6.54836 36.8889 7.03928V7.92773H41.1109C42.2155 7.92773 43.1109 8.82316 43.1109 9.92773V18.1944C43.1109 19.299 42.2155 20.1944 41.1109 20.1944H30.8887C29.7841 20.1944 28.8887 19.299 28.8887 18.1944V15.3207C28.8813 15.5596 28.6852 15.7511 28.4444 15.7511C28.199 15.7511 28 15.5521 28 15.3066V11.7511C28 11.5056 28.199 11.3066 28.4444 11.3066C28.6852 11.3066 28.8813 11.4981 28.8887 11.7371V9.92774C28.8887 8.82317 29.7841 7.92773 30.8887 7.92773H35.1111V7.03928ZM43.1113 11.7511C43.1113 11.5056 43.3103 11.3066 43.5558 11.3066C43.8012 11.3066 44.0002 11.5056 44.0002 11.7511V15.3066C44.0002 15.5521 43.8012 15.7511 43.5558 15.7511C43.3103 15.7511 43.1113 15.5521 43.1113 15.3066V11.7511ZM32.4443 20.1953H35.9999L32.7687 22.7612C32.6376 22.8653 32.4443 22.772 32.4443 22.6046V20.1953Z" fill="url(#paint1_linear_856_3000)"/>
<path fill-rule="evenodd" clip-rule="evenodd" d="M35.1111 7.03928C35.1111 6.54836 35.5091 6.15039 36 6.15039C36.4909 6.15039 36.8889 6.54836 36.8889 7.03928V7.92773H41.1109C42.2155 7.92773 43.1109 8.82316 43.1109 9.92773V18.1944C43.1109 19.299 42.2155 20.1944 41.1109 20.1944H30.8887C29.7841 20.1944 28.8887 19.299 28.8887 18.1944V15.3207C28.8813 15.5596 28.6852 15.7511 28.4444 15.7511C28.199 15.7511 28 15.5521 28 15.3066V11.7511C28 11.5056 28.199 11.3066 28.4444 11.3066C28.6852 11.3066 28.8813 11.4981 28.8887 11.7371V9.92774C28.8887 8.82317 29.7841 7.92773 30.8887 7.92773H35.1111V7.03928ZM43.1113 11.7511C43.1113 11.5056 43.3103 11.3066 43.5558 11.3066C43.8012 11.3066 44.0002 11.5056 44.0002 11.7511V15.3066C44.0002 15.5521 43.8012 15.7511 43.5558 15.7511C43.3103 15.7511 43.1113 15.5521 43.1113 15.3066V11.7511ZM32.4443 20.1953H35.9999L32.7687 22.7612C32.6376 22.8653 32.4443 22.772 32.4443 22.6046V20.1953Z" fill="white"/>
<path d="M34.9291 11.9562L33.3739 16.8326H31.9346L34.1639 10.8105H35.0738L34.9291 11.9562ZM36.2195 16.8326L34.6602 11.9562L34.4989 10.8105H35.4212L37.6588 16.8326H36.2195ZM36.1533 14.5909V15.6332H33.0141V14.5909H36.1533Z" fill="white"/>
<path d="M34.9291 11.9562L33.3739 16.8326H31.9346L34.1639 10.8105H35.0738L34.9291 11.9562ZM36.2195 16.8326L34.6602 11.9562L34.4989 10.8105H35.4212L37.6588 16.8326H36.2195ZM36.1533 14.5909V15.6332H33.0141V14.5909H36.1533Z" fill="url(#paint2_linear_856_3000)"/>
<path d="M40.0651 10.8105V13.8216V16.8326H38.7209V10.8105H40.0651Z" fill="white"/>
<path d="M40.0651 10.8105V13.8216V16.8326H38.7209V10.8105H40.0651Z" fill="url(#paint3_linear_856_3000)"/>
<path d="M59.065 14.578L58.337 16.008C56.257 15.592 54.723 14.435 53.956 12.914C53.189 14.435 51.668 15.605 49.588 16.008L48.86 14.578C51.551 14.11 53.046 12.212 53.046 10.496V9.63802H54.879V10.496C54.879 12.251 56.361 14.11 59.065 14.578ZM48.6 18.062H59.442V19.453H48.6V18.062ZM71.362 14.799H66.825V15.592H70.205V18.764H63.458V19.479H70.595V20.766H61.768V17.555H68.502V16.892H61.742V15.592H65.109V14.799H60.585V13.447H68.203C68.268 13.109 68.307 12.797 68.346 12.485L61.742 12.771L61.56 11.458L68.424 11.302C68.437 11.068 68.437 10.86 68.437 10.639H61.898V9.31301H70.127V10.366C70.127 11.276 70.127 12.264 69.919 13.447H71.362V14.799Z" fill="white"/>
</g>
<defs>
<filter id="filter0_d_856_3000" x="0.299805" y="0.291016" width="102" height="38" filterUnits="userSpaceOnUse" color-interpolation-filters="sRGB">
<feFlood flood-opacity="0" result="BackgroundImageFix"/>
<feColorMatrix in="SourceAlpha" type="matrix" values="0 0 0 0 0 0 0 0 0 0 0 0 0 0 0 0 0 0 127 0" result="hardAlpha"/>
<feOffset dy="4"/>
<feGaussianBlur stdDeviation="4"/>
<feComposite in2="hardAlpha" operator="out"/>
<feColorMatrix type="matrix" values="0 0 0 0 0 0 0 0 0 0 0 0 0 0 0 0 0 0 0.16 0"/>
<feBlend mode="normal" in2="BackgroundImageFix" result="effect1_dropShadow_856_3000"/>
<feBlend mode="normal" in="SourceGraphic" in2="effect1_dropShadow_856_3000" result="shape"/>
</filter>
<linearGradient id="paint0_linear_856_3000" x1="8.2998" y1="4.29102" x2="120.595" y2="7.08684" gradientUnits="userSpaceOnUse">
<stop offset="0.0001" stop-color="#FF00A1"/>
<stop offset="0.53125" stop-color="#9C00FF"/>
<stop offset="1" stop-color="#0258FF"/>
</linearGradient>
<linearGradient id="paint1_linear_856_3000" x1="28" y1="5.08982" x2="43.8951" y2="23.5904" gradientUnits="userSpaceOnUse">
<stop stop-color="#4089F8"/>
<stop offset="1" stop-color="#A73BE9"/>
</linearGradient>
<linearGradient id="paint2_linear_856_3000" x1="31.9346" y1="10.8105" x2="42.5569" y2="10.9019" gradientUnits="userSpaceOnUse">
<stop offset="0.0001" stop-color="#FF00A1"/>
<stop offset="0.53125" stop-color="#9C00FF"/>
<stop offset="1" stop-color="#0258FF"/>
</linearGradient>
<linearGradient id="paint3_linear_856_3000" x1="31.9346" y1="10.8105" x2="42.5569" y2="10.9019" gradientUnits="userSpaceOnUse">
<stop offset="0.0001" stop-color="#FF00A1"/>
<stop offset="0.53125" stop-color="#9C00FF"/>
<stop offset="1" stop-color="#0258FF"/>
</linearGradient>
<clipPath id="clip0_856_3000">
<rect width="103" height="39" fill="white"/>
</clipPath>
</defs>
</svg>
