<svg width="35" height="36" viewBox="0 0 35 36" fill="none" xmlns="http://www.w3.org/2000/svg">
<path d="M26.387 16.222C27.142 16.222 27.754 15.61 27.754 14.855C27.754 14.1001 27.142 13.488 26.387 13.488C25.632 13.488 25.02 14.1001 25.02 14.855C25.02 15.61 25.632 16.222 26.387 16.222Z" fill="white"/>
<path d="M29.531 3.234H27.754V1.867C27.754 1.50445 27.61 1.15675 27.3536 0.900385C27.0973 0.644023 26.7495 0.5 26.387 0.5C26.0244 0.5 25.6767 0.644023 25.4204 0.900385C25.164 1.15675 25.02 1.50445 25.02 1.867V3.234H18.8V1.867C18.8 1.50445 18.656 1.15675 18.3996 0.900385C18.1433 0.644023 17.7956 0.5 17.433 0.5C17.0704 0.5 16.7227 0.644023 16.4664 0.900385C16.21 1.15675 16.066 1.50445 16.066 1.867V3.234H9.912V1.867C9.912 1.50445 9.76798 1.15675 9.51161 0.900385C9.25525 0.644023 8.90755 0.5 8.545 0.5C8.18245 0.5 7.83475 0.644023 7.57838 0.900385C7.32202 1.15675 7.178 1.50445 7.178 1.867V3.234H5.469C4.01954 3.23559 2.62985 3.81188 1.60465 4.83652C0.579439 5.86117 0.00238181 7.25054 0 8.7L0 30.031C0.00158815 31.481 0.578295 32.8711 1.60359 33.8964C2.62888 34.9217 4.01902 35.4984 5.469 35.5H15.928C16.2906 35.5 16.6383 35.356 16.8946 35.0996C17.151 34.8433 17.295 34.4956 17.295 34.133C17.295 33.7704 17.151 33.4227 16.8946 33.1664C16.6383 32.91 16.2906 32.766 15.928 32.766H5.469C4.74414 32.7652 4.0492 32.4769 3.53665 31.9644C3.02409 31.4518 2.73579 30.7569 2.735 30.032V8.7C2.73659 7.97566 3.02524 7.28149 3.5377 6.76959C4.05017 6.25768 4.74466 5.96979 5.469 5.969H7.178V7.336C7.178 7.69855 7.32202 8.04625 7.57838 8.30262C7.83475 8.55898 8.18245 8.703 8.545 8.703C8.90755 8.703 9.25525 8.55898 9.51161 8.30262C9.76798 8.04625 9.912 7.69855 9.912 7.336V5.969H16.064V7.336C16.064 7.69855 16.208 8.04625 16.4644 8.30262C16.7207 8.55898 17.0684 8.703 17.431 8.703C17.7936 8.703 18.1413 8.55898 18.3976 8.30262C18.654 8.04625 18.798 7.69855 18.798 7.336V5.969H25.02V7.336C25.02 7.69855 25.164 8.04625 25.4204 8.30261C25.6767 8.55898 26.0244 8.703 26.387 8.703C26.7495 8.703 27.0973 8.55898 27.3536 8.30261C27.61 8.04625 27.754 7.69855 27.754 7.336V5.969H29.531C30.2555 5.96953 30.9503 6.2573 31.4629 6.76923C31.9756 7.28117 32.2644 7.97549 32.266 8.7V16.5C32.266 16.8626 32.41 17.2103 32.6664 17.4666C32.9227 17.723 33.2704 17.867 33.633 17.867C33.9956 17.867 34.3433 17.723 34.5996 17.4666C34.856 17.2103 35 16.8626 35 16.5V8.7C34.9976 7.25054 34.4206 5.86117 33.3954 4.83652C32.3701 3.81188 30.9805 3.23559 29.531 3.234Z" fill="white"/>
<path d="M26.729 18.957C25.0932 18.957 23.4941 19.4421 22.134 20.3509C20.7739 21.2597 19.7137 22.5514 19.0877 24.0626C18.4617 25.5739 18.2978 27.2369 18.6169 28.8413C18.9359 30.4456 19.7236 31.9194 20.8802 33.0762C22.0368 34.2329 23.5105 35.0207 25.1148 35.34C26.7192 35.6592 28.3821 35.4956 29.8935 34.8697C31.4048 34.2439 32.6967 33.1839 33.6056 31.8239C34.5146 30.4639 34.9998 28.8648 35 27.229C34.9976 25.0361 34.1255 22.9336 32.5749 21.3828C31.0244 19.8321 28.922 18.9597 26.729 18.957ZM26.729 32.766C25.6339 32.766 24.5634 32.4413 23.6528 31.8329C22.7423 31.2245 22.0326 30.3597 21.6135 29.3479C21.1944 28.3362 21.0848 27.2229 21.2984 26.1488C21.512 25.0747 22.0394 24.0881 22.8138 23.3138C23.5881 22.5394 24.5747 22.0121 25.6488 21.7984C26.7229 21.5848 27.8362 21.6944 28.8479 22.1135C29.8597 22.5326 30.7244 23.2423 31.3329 24.1528C31.9413 25.0634 32.266 26.1339 32.266 27.229C32.2644 28.697 31.6806 30.1045 30.6425 31.1425C29.6045 32.1806 28.197 32.7644 26.729 32.766Z" fill="white"/>
<path d="M28.711 25.861H28.1V24.426C28.1 24.0634 27.956 23.7157 27.6996 23.4593C27.4432 23.203 27.0955 23.059 26.733 23.059C26.3704 23.059 26.0227 23.203 25.7664 23.4593C25.51 23.7157 25.366 24.0634 25.366 24.426V27.226C25.3651 27.4057 25.3996 27.5839 25.4676 27.7503C25.5357 27.9167 25.6359 28.0681 25.7625 28.1957C25.8891 28.3233 26.0396 28.4247 26.2055 28.4941C26.3713 28.5635 26.5492 28.5994 26.729 28.6H28.711C29.0735 28.6 29.4212 28.4559 29.6776 28.1996C29.934 27.9432 30.078 27.5955 30.078 27.233C30.078 26.8704 29.934 26.5227 29.6776 26.2663C29.4212 26.01 29.0735 25.866 28.711 25.866V25.861Z" fill="white"/>
<path d="M20.439 16.222C21.194 16.222 21.806 15.61 21.806 14.855C21.806 14.1001 21.194 13.488 20.439 13.488C19.684 13.488 19.072 14.1001 19.072 14.855C19.072 15.61 19.684 16.222 20.439 16.222Z" fill="white"/>
<path d="M14.492 22.17C15.247 22.17 15.859 21.558 15.859 20.803C15.859 20.0481 15.247 19.436 14.492 19.436C13.737 19.436 13.125 20.0481 13.125 20.803C13.125 21.558 13.737 22.17 14.492 22.17Z" fill="white"/>
<path d="M8.54498 16.222C9.29995 16.222 9.91198 15.61 9.91198 14.855C9.91198 14.1001 9.29995 13.488 8.54498 13.488C7.79001 13.488 7.17798 14.1001 7.17798 14.855C7.17798 15.61 7.79001 16.222 8.54498 16.222Z" fill="white"/>
<path d="M8.54498 22.17C9.29995 22.17 9.91198 21.558 9.91198 20.803C9.91198 20.0481 9.29995 19.436 8.54498 19.436C7.79001 19.436 7.17798 20.0481 7.17798 20.803C7.17798 21.558 7.79001 22.17 8.54498 22.17Z" fill="white"/>
<path d="M8.54498 28.1171C9.29995 28.1171 9.91198 27.505 9.91198 26.7501C9.91198 25.9951 9.29995 25.3831 8.54498 25.3831C7.79001 25.3831 7.17798 25.9951 7.17798 26.7501C7.17798 27.505 7.79001 28.1171 8.54498 28.1171Z" fill="white"/>
<path d="M14.492 28.1171C15.247 28.1171 15.859 27.505 15.859 26.7501C15.859 25.9951 15.247 25.3831 14.492 25.3831C13.737 25.3831 13.125 25.9951 13.125 26.7501C13.125 27.505 13.737 28.1171 14.492 28.1171Z" fill="white"/>
<path d="M14.492 16.222C15.247 16.222 15.859 15.61 15.859 14.855C15.859 14.1001 15.247 13.488 14.492 13.488C13.737 13.488 13.125 14.1001 13.125 14.855C13.125 15.61 13.737 16.222 14.492 16.222Z" fill="white"/>
</svg>
