<svg xmlns="http://www.w3.org/2000/svg" width="25" height="25" viewBox="0 0 25 25">
  <g id="그룹_779" data-name="그룹 779" transform="translate(-983 -2515)">
    <path id="패스_887" data-name="패스 887" d="M18.75,35a2.321,2.321,0,0,1-2.5-2.083V12.083A2.321,2.321,0,0,1,18.75,10a2.32,2.32,0,0,1,2.5,2.083V32.917A2.321,2.321,0,0,1,18.75,35Zm0,0" transform="translate(976.75 2505)" fill="#fff"/>
    <path id="패스_888" data-name="패스 888" d="M32.917,21.25H12.083A2.321,2.321,0,0,1,10,18.75a2.321,2.321,0,0,1,2.083-2.5H32.917A2.321,2.321,0,0,1,35,18.75,2.321,2.321,0,0,1,32.917,21.25Zm0,0" transform="translate(973 2508.75)" fill="#fff"/>
  </g>
</svg>
