<svg xmlns="http://www.w3.org/2000/svg" xmlns:xlink="http://www.w3.org/1999/xlink" width="58" height="58" viewBox="0 0 58 58">
  <defs>
    <clipPath id="clip-path">
      <rect id="사각형_880" data-name="사각형 880" width="36" height="36" transform="translate(465 278)" fill="#fff" stroke="#707070" stroke-width="1"/>
    </clipPath>
  </defs>
  <g id="그룹_936" data-name="그룹 936" transform="translate(-80 -243)">
    <g id="사각형_875" data-name="사각형 875" transform="translate(80 243)" fill="#fff" stroke="#d5d5d5" stroke-width="1">
      <rect width="58" height="58" rx="5" stroke="none"/>
      <rect x="0.5" y="0.5" width="57" height="57" rx="4.5" fill="none"/>
    </g>
    <g id="ico_02" transform="translate(-374 -24)" clip-path="url(#clip-path)">
      <g id="그룹_682" data-name="그룹 682" transform="translate(149.117 -632.406)">
        <path id="패스_1006" data-name="패스 1006" d="M317.406,945.224a.719.719,0,0,1-.719-.719V912.343a.719.719,0,0,1,.718-.719l24.173-.037h0a.719.719,0,0,1,.719.719V916.3a.719.719,0,0,1-1.438,0v-3.271l-22.735.034v30.724l22.735-.034v-3.58a.719.719,0,1,1,1.438,0v4.3a.719.719,0,0,1-.718.719l-24.173.036Z" fill="#303d53"/>
        <g id="그룹_678" data-name="그룹 678" transform="translate(321.768 916.462)">
          <g id="그룹_675" data-name="그룹 675" transform="translate(0.096 0)">
            <path id="패스_1007" data-name="패스 1007" d="M333.069,930.065v-3.007a2.7,2.7,0,0,1-1.13.644.334.334,0,0,1-.246-.111.357.357,0,0,1-.108-.256.29.29,0,0,1,.106-.248,2.342,2.342,0,0,1,.374-.2,2.784,2.784,0,0,0,.639-.4,2.7,2.7,0,0,0,.425-.466q.185-.258.241-.317a.289.289,0,0,1,.211-.059.338.338,0,0,1,.281.135.594.594,0,0,1,.106.374v3.784q0,.664-.453.664a.414.414,0,0,1-.324-.136A.579.579,0,0,1,333.069,930.065Z" transform="translate(-331.405 -925.464)" fill="#303d53"/>
            <path id="패스_1008" data-name="패스 1008" d="M333.195,930.46a.6.6,0,0,1-.457-.195.75.75,0,0,1-.169-.52V927.1c-.573.408-.809.466-.95.466a.516.516,0,0,1-.375-.165.539.539,0,0,1-.159-.382.463.463,0,0,1,.177-.392,2.466,2.466,0,0,1,.406-.224,2.613,2.613,0,0,0,.6-.369,2.531,2.531,0,0,0,.4-.435,3.527,3.527,0,0,1,.257-.336.446.446,0,0,1,.342-.115.519.519,0,0,1,.423.2.77.77,0,0,1,.143.484v3.783C333.827,930.351,333.431,930.46,333.195,930.46Zm-.446-3.9a.18.18,0,0,1,.18.18v3.007a.413.413,0,0,0,.076.279.238.238,0,0,0,.19.076c.088,0,.273,0,.273-.485v-3.783a.426.426,0,0,0-.068-.263.16.16,0,0,0-.139-.066.224.224,0,0,0-.091.011c0,.008-.056.067-.216.291a2.892,2.892,0,0,1-.453.5,2.973,2.973,0,0,1-.681.423,2.181,2.181,0,0,0-.343.186c-.009.006-.033.025-.033.1a.176.176,0,0,0,.056.131.154.154,0,0,0,.118.056c.069,0,.307-.059,1.02-.607A.181.181,0,0,1,332.749,926.558Z" transform="translate(-331.085 -925.144)" fill="#303d53"/>
          </g>
          <g id="그룹_676" data-name="그룹 676" transform="translate(0.043 9.286)">
            <path id="패스_1009" data-name="패스 1009" d="M332.575,955.563H334.3a.627.627,0,0,1,.393.106.345.345,0,0,1,.136.288.381.381,0,0,1-.107.274.431.431,0,0,1-.326.113h-2.432a.526.526,0,0,1-.387-.137.439.439,0,0,1-.139-.323.822.822,0,0,1,.089-.315,1.132,1.132,0,0,1,.195-.309q.44-.456.793-.782a5.248,5.248,0,0,1,.506-.428,2.894,2.894,0,0,0,.451-.385,1.526,1.526,0,0,0,.274-.4.941.941,0,0,0,.094-.4.716.716,0,0,0-.1-.378.7.7,0,0,0-.274-.26.793.793,0,0,0-.378-.092.772.772,0,0,0-.681.38,1.656,1.656,0,0,0-.111.271,1.131,1.131,0,0,1-.175.34.348.348,0,0,1-.286.119.372.372,0,0,1-.274-.109.4.4,0,0,1-.109-.3,1.245,1.245,0,0,1,.1-.476,1.366,1.366,0,0,1,.306-.449,1.521,1.521,0,0,1,.515-.325,1.977,1.977,0,0,1,.732-.124,2.117,2.117,0,0,1,.863.159,1.3,1.3,0,0,1,.406.291,1.364,1.364,0,0,1,.37.932,1.409,1.409,0,0,1-.2.745,2.315,2.315,0,0,1-.415.525q-.211.19-.709.6a5.313,5.313,0,0,0-.682.631A1.845,1.845,0,0,0,332.575,955.563Z" transform="translate(-331.258 -951.289)" fill="#303d53"/>
            <path id="패스_1010" data-name="패스 1010" d="M334.075,956.2h-2.432a.7.7,0,0,1-.513-.189.616.616,0,0,1-.192-.451.979.979,0,0,1,.105-.39,1.3,1.3,0,0,1,.228-.358c.3-.307.566-.573.8-.791a5.3,5.3,0,0,1,.526-.444,2.753,2.753,0,0,0,.42-.359,1.361,1.361,0,0,0,.243-.35.769.769,0,0,0,.077-.322.535.535,0,0,0-.075-.286.514.514,0,0,0-.2-.194.609.609,0,0,0-.294-.072.591.591,0,0,0-.53.3,1.515,1.515,0,0,0-.092.232,1.287,1.287,0,0,1-.206.395.523.523,0,0,1-.425.185.554.554,0,0,1-.4-.162.576.576,0,0,1-.162-.425,1.429,1.429,0,0,1,.116-.544,1.544,1.544,0,0,1,.345-.508,1.7,1.7,0,0,1,.576-.365,2.168,2.168,0,0,1,.8-.137,2.305,2.305,0,0,1,.936.174,1.493,1.493,0,0,1,.464.331,1.545,1.545,0,0,1,.419,1.056,1.593,1.593,0,0,1-.229.838,2.489,2.489,0,0,1-.448.566q-.213.192-.715.6a6.563,6.563,0,0,0-.587.527h1.354a.807.807,0,0,1,.5.143.526.526,0,0,1,.2.43.558.558,0,0,1-.157.4A.6.6,0,0,1,334.075,956.2Zm-1.308-4.563a.978.978,0,0,1,.463.114.878.878,0,0,1,.344.325.9.9,0,0,1,.127.472,1.123,1.123,0,0,1-.111.474,1.725,1.725,0,0,1-.306.443,3.1,3.1,0,0,1-.479.409,4.835,4.835,0,0,0-.488.414c-.231.213-.5.473-.785.774a.957.957,0,0,0-.161.259.644.644,0,0,0-.073.241.26.26,0,0,0,.086.195.352.352,0,0,0,.26.085h2.432a.268.268,0,0,0,.2-.057.2.2,0,0,0,.058-.15.168.168,0,0,0-.066-.146.474.474,0,0,0-.282-.067h-1.725a.18.18,0,0,1-.15-.279,2.1,2.1,0,0,1,.178-.236,5.429,5.429,0,0,1,.7-.65q.493-.4.7-.591a2.139,2.139,0,0,0,.381-.485,1.224,1.224,0,0,0,.177-.652,1.186,1.186,0,0,0-.321-.808,1.121,1.121,0,0,0-.351-.251,1.945,1.945,0,0,0-.788-.143,1.814,1.814,0,0,0-.666.112,1.34,1.34,0,0,0-.455.286,1.192,1.192,0,0,0-.266.39,1.074,1.074,0,0,0-.089.407.219.219,0,0,0,.056.17.194.194,0,0,0,.147.056.17.17,0,0,0,.147-.053.972.972,0,0,0,.145-.286,1.462,1.462,0,0,1,.131-.311A.945.945,0,0,1,332.767,951.64Z" transform="translate(-330.938 -950.969)" fill="#303d53"/>
          </g>
          <g id="그룹_677" data-name="그룹 677" transform="translate(0 18.579)">
            <path id="패스_1011" data-name="패스 1011" d="M332.842,979.255a.807.807,0,0,0,.524-.178.622.622,0,0,0,.22-.512.613.613,0,0,0-.175-.438.623.623,0,0,0-.472-.183.847.847,0,0,0-.332.056.535.535,0,0,0-.206.149,1.124,1.124,0,0,0-.144.238c-.045.1-.086.188-.124.274a.233.233,0,0,1-.119.109.467.467,0,0,1-.2.04.342.342,0,0,1-.243-.107.38.38,0,0,1-.111-.286.756.756,0,0,1,.1-.362,1.321,1.321,0,0,1,.3-.362,1.522,1.522,0,0,1,.5-.276,2,2,0,0,1,.664-.1,1.845,1.845,0,0,1,.585.088,1.357,1.357,0,0,1,.459.253,1.088,1.088,0,0,1,.294.383,1.119,1.119,0,0,1,.1.469,1.068,1.068,0,0,1-.144.567,1.912,1.912,0,0,1-.411.461,1.809,1.809,0,0,1,.434.317,1.185,1.185,0,0,1,.355.863,1.458,1.458,0,0,1-.12.581,1.488,1.488,0,0,1-.355.5,1.689,1.689,0,0,1-.557.343,1.965,1.965,0,0,1-.712.124,1.707,1.707,0,0,1-.711-.142,1.642,1.642,0,0,1-.517-.355,1.613,1.613,0,0,1-.307-.441.957.957,0,0,1-.1-.377.405.405,0,0,1,.124-.309.431.431,0,0,1,.309-.117.328.328,0,0,1,.178.054.258.258,0,0,1,.112.131,2.221,2.221,0,0,0,.369.682.7.7,0,0,0,.553.223.833.833,0,0,0,.4-.1.824.824,0,0,0,.314-.3.849.849,0,0,0,.124-.459.838.838,0,0,0-.211-.606.777.777,0,0,0-.588-.22q-.066,0-.2.013c-.092.009-.152.013-.178.013a.4.4,0,0,1-.281-.091.325.325,0,0,1-.1-.253.316.316,0,0,1,.119-.256.547.547,0,0,1,.353-.1Z" transform="translate(-331.139 -977.133)" fill="#303d53"/>
            <path id="패스_1012" data-name="패스 1012" d="M332.638,982.122a1.891,1.891,0,0,1-.785-.158,1.813,1.813,0,0,1-.573-.4,1.788,1.788,0,0,1-.341-.49,1.119,1.119,0,0,1-.12-.452.589.589,0,0,1,.887-.524.435.435,0,0,1,.186.224,2.058,2.058,0,0,0,.334.622.524.524,0,0,0,.419.163.653.653,0,0,0,.557-.316.772.772,0,0,0-.065-.846.6.6,0,0,0-.459-.165c-.04,0-.1,0-.188.013-.1.009-.166.014-.2.014a.575.575,0,0,1-.4-.138.5.5,0,0,1-.158-.385.5.5,0,0,1,.185-.4.721.721,0,0,1,.467-.138h.136a.625.625,0,0,0,.411-.138.447.447,0,0,0,.153-.373.434.434,0,0,0-.125-.314.448.448,0,0,0-.343-.128.682.682,0,0,0-.261.041.362.362,0,0,0-.139.1.952.952,0,0,0-.12.2c-.044.1-.085.185-.122.27a.407.407,0,0,1-.208.2.578.578,0,0,1-.642-.1.561.561,0,0,1-.165-.415.935.935,0,0,1,.126-.448,1.5,1.5,0,0,1,.344-.411,1.691,1.691,0,0,1,.556-.31,2.271,2.271,0,0,1,1.365-.018,1.55,1.55,0,0,1,.519.287,1.269,1.269,0,0,1,.341.446,1.3,1.3,0,0,1,.115.544,1.247,1.247,0,0,1-.17.66,1.867,1.867,0,0,1-.268.339,1.82,1.82,0,0,1,.265.22,1.362,1.362,0,0,1,.407.989,1.636,1.636,0,0,1-.135.652,1.669,1.669,0,0,1-.4.561,1.9,1.9,0,0,1-.615.38A2.169,2.169,0,0,1,332.638,982.122Zm-1.206-1.741a.253.253,0,0,0-.186.068.224.224,0,0,0-.068.178.775.775,0,0,0,.088.3,1.444,1.444,0,0,0,.735.707,1.8,1.8,0,0,0,1.284.014,1.517,1.517,0,0,0,.5-.307,1.306,1.306,0,0,0,.313-.44,1.283,1.283,0,0,0,.106-.511,1,1,0,0,0-.3-.736,1.636,1.636,0,0,0-.392-.286.179.179,0,0,1-.03-.3,1.75,1.75,0,0,0,.373-.417.9.9,0,0,0,.118-.473.947.947,0,0,0-.083-.395.914.914,0,0,0-.247-.32,1.192,1.192,0,0,0-.4-.219,1.909,1.909,0,0,0-1.133.015,1.339,1.339,0,0,0-.44.242,1.149,1.149,0,0,0-.264.312.584.584,0,0,0-.082.276.2.2,0,0,0,.056.156.165.165,0,0,0,.118.057.29.29,0,0,0,.122-.023c.021-.009.03-.018.032-.023.036-.082.078-.175.124-.273a1.288,1.288,0,0,1,.168-.276.715.715,0,0,1,.274-.2,1.011,1.011,0,0,1,.4-.07.8.8,0,0,1,.6.239.788.788,0,0,1,.225.562.8.8,0,0,1-.286.652.984.984,0,0,1-.637.219h-.136a.394.394,0,0,0-.239.056.138.138,0,0,0-.053.118.148.148,0,0,0,.041.12.237.237,0,0,0,.159.043c.024,0,.078,0,.161-.013.1-.009.174-.014.222-.014a.954.954,0,0,1,.718.275,1.015,1.015,0,0,1,.261.731,1.03,1.03,0,0,1-.151.555,1.007,1.007,0,0,1-.382.363,1.018,1.018,0,0,1-.48.122.873.873,0,0,1-.688-.284,2.372,2.372,0,0,1-.4-.738.093.093,0,0,0-.041-.042A.151.151,0,0,0,331.432,980.381Z" transform="translate(-330.819 -976.813)" fill="#303d53"/>
          </g>
        </g>
        <path id="패스_1013" data-name="패스 1013" d="M327.819,928.908a4.645,4.645,0,1,1,4.645-4.645A4.651,4.651,0,0,1,327.819,928.908Zm0-7.852a3.207,3.207,0,1,0,3.207,3.207A3.211,3.211,0,0,0,327.819,921.055Z" transform="translate(-4.154 -5.143)" fill="#00a58a"/>
        <path id="패스_1014" data-name="패스 1014" d="M325.324,957.753a.719.719,0,0,1-.508-1.228l7.338-7.338a.719.719,0,0,1,1.017,1.017l-7.338,7.338A.716.716,0,0,1,325.324,957.753Z" transform="translate(-5.071 -23.946)" fill="#00a58a"/>
        <path id="패스_1015" data-name="패스 1015" d="M325.324,980.768a.719.719,0,0,1-.508-1.228l7.338-7.338a.719.719,0,0,1,1.017,1.017l-7.338,7.337A.717.717,0,0,1,325.324,980.768Z" transform="translate(-5.071 -38.685)" fill="#00a58a"/>
        <path id="패스_1016" data-name="패스 1016" d="M373.1,948H352.911a.719.719,0,0,1-.719-.719V923.407a.719.719,0,0,1,.719-.719H373.1a.719.719,0,0,1,.719.719V947.28A.719.719,0,0,1,373.1,948ZM353.63,946.56h18.749V924.126H353.63Z" transform="translate(-22.738 -7.109)" fill="#303d53"/>
        <g id="그룹_681" data-name="그룹 681" transform="translate(334.474 920.542)">
          <g id="그룹_679" data-name="그룹 679" transform="translate(0.233)">
            <path id="패스_1017" data-name="패스 1017" d="M368.563,941.54h1.916a.7.7,0,0,1,.437.118.384.384,0,0,1,.151.319.425.425,0,0,1-.119.3.477.477,0,0,1-.361.125h-2.7a.585.585,0,0,1-.429-.152.487.487,0,0,1-.154-.358.911.911,0,0,1,.1-.351,1.245,1.245,0,0,1,.216-.343q.488-.506.881-.868a5.786,5.786,0,0,1,.562-.475,3.25,3.25,0,0,0,.5-.427,1.7,1.7,0,0,0,.3-.441,1.045,1.045,0,0,0,.1-.442.8.8,0,0,0-.112-.42.774.774,0,0,0-.3-.288.877.877,0,0,0-.42-.1.858.858,0,0,0-.756.422,1.848,1.848,0,0,0-.123.3,1.255,1.255,0,0,1-.195.378.386.386,0,0,1-.318.132.412.412,0,0,1-.3-.121.445.445,0,0,1-.121-.33,1.38,1.38,0,0,1,.114-.529,1.518,1.518,0,0,1,.339-.5,1.683,1.683,0,0,1,.573-.361,2.189,2.189,0,0,1,.813-.138,2.347,2.347,0,0,1,.958.176,1.436,1.436,0,0,1,.452.323,1.516,1.516,0,0,1,.411,1.035,1.565,1.565,0,0,1-.226.828,2.564,2.564,0,0,1-.461.583q-.235.211-.787.663a5.889,5.889,0,0,0-.758.7A2.115,2.115,0,0,0,368.563,941.54Z" transform="translate(-367.121 -936.813)" fill="#00a58a"/>
            <path id="패스_1018" data-name="패스 1018" d="M370.266,942.266h-2.7a.759.759,0,0,1-.556-.2.663.663,0,0,1-.207-.486,1.068,1.068,0,0,1,.115-.424,1.441,1.441,0,0,1,.25-.392c.327-.339.626-.634.89-.877a5.949,5.949,0,0,1,.583-.492,3.023,3.023,0,0,0,.47-.4,1.526,1.526,0,0,0,.273-.393.875.875,0,0,0,.088-.366.616.616,0,0,0-.086-.328.594.594,0,0,0-.236-.222.692.692,0,0,0-.336-.082.682.682,0,0,0-.605.341,1.67,1.67,0,0,0-.1.262,1.417,1.417,0,0,1-.225.433.561.561,0,0,1-.456.2.59.59,0,0,1-.432-.174.622.622,0,0,1-.174-.457,1.567,1.567,0,0,1,.127-.6,1.7,1.7,0,0,1,.379-.558,1.87,1.87,0,0,1,.632-.4,2.39,2.39,0,0,1,.879-.15,2.538,2.538,0,0,1,1.031.192,1.633,1.633,0,0,1,.509.364,1.7,1.7,0,0,1,.46,1.159,1.751,1.751,0,0,1-.252.921,2.753,2.753,0,0,1-.494.624c-.158.143-.425.367-.794.668a6.653,6.653,0,0,0-.685.621h1.549a.873.873,0,0,1,.547.156.564.564,0,0,1,.22.461.6.6,0,0,1-.169.429A.65.65,0,0,1,370.266,942.266Zm-1.453-5.028a1.059,1.059,0,0,1,.505.124.956.956,0,0,1,.374.354.98.98,0,0,1,.138.513,1.227,1.227,0,0,1-.121.517,1.864,1.864,0,0,1-.337.488,3.4,3.4,0,0,1-.528.452,5.653,5.653,0,0,0-.544.461c-.259.238-.553.528-.873.86a1.092,1.092,0,0,0-.182.293.727.727,0,0,0-.083.276.306.306,0,0,0,.1.23.41.41,0,0,0,.3.1h2.7a.314.314,0,0,0,.232-.069.246.246,0,0,0,.069-.18.206.206,0,0,0-.081-.177.532.532,0,0,0-.326-.08h-1.916a.18.18,0,0,1-.15-.279,2.222,2.222,0,0,1,.2-.259,6.011,6.011,0,0,1,.779-.721c.364-.3.626-.518.781-.657a2.413,2.413,0,0,0,.427-.543,1.4,1.4,0,0,0,.2-.735,1.336,1.336,0,0,0-.362-.911,1.267,1.267,0,0,0-.4-.283,2.182,2.182,0,0,0-.883-.16,2.036,2.036,0,0,0-.746.125,1.5,1.5,0,0,0-.512.323,1.342,1.342,0,0,0-.3.439,1.219,1.219,0,0,0-.1.46.273.273,0,0,0,.068.2.235.235,0,0,0,.178.068.206.206,0,0,0,.178-.066,1.086,1.086,0,0,0,.164-.324,1.61,1.61,0,0,1,.143-.341A1.031,1.031,0,0,1,368.812,937.238Z" transform="translate(-366.801 -936.493)" fill="#00a58a"/>
          </g>
          <g id="그룹_680" data-name="그룹 680" transform="translate(6.898 0.39)">
            <path id="패스_1019" data-name="패스 1019" d="M386.058,942.57a.719.719,0,0,1-.509-1.228l3.555-3.555a.719.719,0,0,1,1.017,1.017l-3.554,3.554A.717.717,0,0,1,386.058,942.57Z" transform="translate(-385.338 -937.577)" fill="#00a58a"/>
            <path id="패스_1020" data-name="패스 1020" d="M389.612,942.57a.716.716,0,0,1-.508-.211l-3.555-3.554a.719.719,0,0,1,1.017-1.017l3.554,3.555a.719.719,0,0,1-.508,1.228Z" transform="translate(-385.338 -937.577)" fill="#00a58a"/>
          </g>
          <path id="패스_1021" data-name="패스 1021" d="M377.326,958.757H366.873a.719.719,0,0,1,0-1.438h10.453a.719.719,0,1,1,0,1.438Z" transform="translate(-366.154 -949.831)" fill="#303d53"/>
          <path id="패스_1022" data-name="패스 1022" d="M377.326,968.023H366.873a.719.719,0,0,1,0-1.438h10.453a.719.719,0,1,1,0,1.438Z" transform="translate(-366.154 -955.765)" fill="#303d53"/>
          <path id="패스_1023" data-name="패스 1023" d="M372.458,977.291h-5.585a.719.719,0,0,1,0-1.438h5.585a.719.719,0,1,1,0,1.438Z" transform="translate(-366.154 -961.7)" fill="#303d53"/>
        </g>
      </g>
    </g>
  </g>
</svg>
