<svg width="24" height="25" viewBox="0 0 24 25" fill="none" xmlns="http://www.w3.org/2000/svg">
<g clip-path="url(#clip0_81_1255)">
<path d="M19 1.5L14 6.5V17.5L19 13V1.5ZM1 6.5V21.15C1 21.4 1.25 21.65 1.5 21.65C1.6 21.65 1.65 21.6 1.75 21.6C3.1 20.95 5.05 20.5 6.5 20.5C8.45 20.5 10.55 20.9 12 22V6.5C10.55 5.4 8.45 5 6.5 5C4.55 5 2.45 5.4 1 6.5ZM23 20V6.5C22.4 6.05 21.75 5.75 21 5.5V19C19.9 18.65 18.7 18.5 17.5 18.5C15.8 18.5 13.35 19.15 12 20V22C13.35 21.15 15.8 20.5 17.5 20.5C19.15 20.5 20.85 20.8 22.25 21.55C22.35 21.6 22.4 21.6 22.5 21.6C22.75 21.6 23 21.35 23 21.1V20Z" fill="white"/>
</g>
<defs>
<clipPath id="clip0_81_1255">
<rect width="24" height="24" fill="white" transform="translate(0 0.5)"/>
</clipPath>
</defs>
</svg>
