<svg id="icon_Quiz_end" xmlns="http://www.w3.org/2000/svg" xmlns:xlink="http://www.w3.org/1999/xlink" width="30" height="30" viewBox="0 0 30 30">
  <defs>
    <clipPath id="clip-path">
      <rect id="사각형_119" data-name="사각형 119" width="30" height="30" fill="#ff5c5c"/>
    </clipPath>
  </defs>
  <g id="icon_퀴즈마감" clip-path="url(#clip-path)">
    <g id="help">
      <path id="패스_87" data-name="패스 87" d="M30,20.3a9.72,9.72,0,0,0-7.1-9.345,11.455,11.455,0,1,0-21.31,6.319L.042,22.868l5.59-1.546A11.412,11.412,0,0,0,10.958,22.9a9.7,9.7,0,0,0,14.279,5.754l4.721,1.306-1.306-4.721A9.662,9.662,0,0,0,30,20.3ZM5.91,19.421l-3.347.926L3.489,17l-.211-.33A9.694,9.694,0,1,1,6.24,19.632Zm21.527,8.016-2.483-.687-.332.216a7.942,7.942,0,0,1-11.846-4.132A11.477,11.477,0,0,0,22.834,12.776a7.943,7.943,0,0,1,4.132,11.846l-.216.332Zm0,0" fill="#ff5c5c"/>
      <path id="패스_88" data-name="패스 88" d="M14.1,21.172h1.758V22.93H14.1Zm0,0" transform="translate(-3.525 -5.293)" fill="#ff5c5c"/>
      <path id="패스_89" data-name="패스 89" d="M15.859,10.547a1.74,1.74,0,0,1-.572,1.3l-2.065,1.89v2.145H14.98V14.508l1.493-1.367a3.516,3.516,0,1,0-5.888-2.594h1.758a1.758,1.758,0,1,1,3.516,0Zm0,0" transform="translate(-2.646 -1.758)" fill="#ff5c5c"/>
    </g>
  </g>
</svg>
