<svg width="19" height="19" viewBox="0 0 19 19" fill="none" xmlns="http://www.w3.org/2000/svg">
<g clip-path="url(#clip0_6_188)">
<path fill-rule="evenodd" clip-rule="evenodd" d="M13.1967 10.3982L15.8483 7.74652L16.3787 8.27685C16.6704 8.56854 17.1477 8.56854 17.4393 8.27685C17.731 7.98517 17.731 7.50788 17.4393 7.21619L12.136 1.91289C11.8444 1.62121 11.3671 1.62121 11.0754 1.91289C10.7837 2.20458 10.7837 2.68187 11.0754 2.97355L11.6057 3.50388L8.95406 6.15553C8.07371 7.03588 6.65243 7.03588 5.77208 6.15553L4.71142 7.21619L7.87749 10.3823L4.16518 14.0946V15.1552H5.22584L8.93815 11.4429L12.136 14.6408L13.1967 13.5802C12.3164 12.6998 12.3164 11.2785 13.1967 10.3982Z" fill="#888888"/>
</g>
<defs>
<clipPath id="clip0_6_188">
<rect width="18" height="18" fill="white" transform="translate(0.484375 0.867859)"/>
</clipPath>
</defs>
</svg>
