<svg width="88" height="74" viewBox="0 0 88 74" fill="none" xmlns="http://www.w3.org/2000/svg">
<g clip-path="url(#clip0_150_2706)">
<path d="M62.5379 25.7056L64.6153 30.674C65.4126 32.0905 65.675 33.7525 65.3537 35.3505C64.6572 37.4055 62.2499 38.2402 60.1245 38.5197C56.4475 38.9766 52.7164 38.6188 49.1892 37.4708C45.662 36.3228 42.4227 34.412 39.6951 31.8706" fill="#3F9CB2"/>
<path d="M62.0209 26.0189L63.7906 30.2525C64.4395 31.479 64.8321 32.828 64.9438 34.2152C64.9433 34.768 64.7871 35.3091 64.4934 35.7749C64.2477 36.145 63.9364 36.4657 63.5753 36.7207C62.728 37.2777 61.7751 37.6487 60.7779 37.8099C59.6438 38.0163 58.494 38.1207 57.3418 38.1218C56.1201 38.1404 54.8988 38.0666 53.6879 37.901C51.3402 37.5769 49.0492 36.9196 46.8822 35.9483C44.3967 34.8376 42.1096 33.3178 40.1134 31.4503C39.5498 30.92 38.703 31.7747 39.2679 32.3075C43.0812 35.8709 47.8533 38.2044 52.9778 39.0115C55.5292 39.4336 58.1301 39.4475 60.6857 39.0527C62.8455 38.6983 65.3229 37.6802 65.9776 35.3457C66.2607 33.6394 65.9611 31.8863 65.1284 30.376C64.4368 28.719 63.7443 27.0629 63.051 25.4076C62.9705 25.2696 62.8394 25.1694 62.6864 25.1288C62.5334 25.0881 62.3708 25.1103 62.2339 25.1905C62.1003 25.2749 62.0037 25.4078 61.9638 25.5622C61.924 25.7165 61.944 25.8804 62.0197 26.0202" fill="#161616"/>
<path d="M61.6074 30.3408C61.1444 31.1173 60.8839 32.0005 60.8503 32.9072C60.8167 33.8139 61.0112 34.7143 61.4154 35.5238C62.8159 38.2551 68.6543 37.7697 67.4617 41.7038C67.3781 41.9812 67.238 42.2377 67.0505 42.4567C66.8629 42.6758 66.6321 42.8524 66.3729 42.9753C66.1138 43.0982 65.8321 43.1646 65.5461 43.1701C65.26 43.1757 64.976 43.1204 64.7124 43.0076C64.5917 43.596 64.3569 44.1541 64.0217 44.6497C63.6865 45.1453 63.2575 45.5685 62.7597 45.8947C62.2619 46.2208 61.7052 46.4435 61.1218 46.5497C60.5384 46.656 59.94 46.6438 59.3614 46.5137C59.0324 46.995 58.6053 47.3989 58.1089 47.6982C57.6125 47.9976 57.0585 48.1853 56.4844 48.2487C55.9102 48.3122 55.3293 48.2498 54.7811 48.0658C54.2328 47.8819 53.7299 47.5806 53.3064 47.1825C52.3599 47.8158 51.3385 48.3259 50.2665 48.701C48.9485 49.0302 47.5728 49.0418 46.2496 48.7347C44.043 48.2219 41.0019 46.2742 41.0745 43.6377" fill="#38322F"/>
<path d="M61.0906 30.0342C60.6297 30.8107 60.3493 31.6836 60.2709 32.5864C60.1924 33.4892 60.3178 34.3983 60.6377 35.2446C60.8436 35.815 61.1744 36.3308 61.6051 36.7531C61.9836 37.0999 62.4042 37.3963 62.8567 37.6352C63.7465 38.1193 64.7027 38.4512 65.5975 38.9353C65.7957 39.0417 65.988 39.1592 66.1734 39.2873L66.3088 39.3858C66.3753 39.4345 66.2226 39.3147 66.2854 39.3671L66.3334 39.4057C66.4183 39.4806 66.5032 39.5555 66.5795 39.6379C66.6152 39.6753 66.6497 39.7152 66.6842 39.7539C66.7186 39.7925 66.7616 39.8636 66.6989 39.7676C66.7614 39.8565 66.819 39.949 66.8712 40.0446C66.8921 40.0845 66.9093 40.1257 66.929 40.1694C66.8552 40.0159 66.9291 40.1619 66.9377 40.2068C66.9463 40.2517 66.9684 40.3091 66.9807 40.3603C66.9881 40.3915 67.0226 40.5711 67.0078 40.485C66.9931 40.3989 67.0152 40.5836 67.0164 40.6173C67.0164 40.6772 67.0164 40.742 67.0164 40.7969C67.0164 40.8518 67.0078 40.9379 67.0029 41.0078C67.0029 41.0977 67.0201 40.903 67.0029 40.9941C66.9967 41.0365 66.9894 41.0777 66.982 41.1188C66.9527 41.2855 66.9115 41.4499 66.8589 41.6105C66.8022 41.7375 66.7365 41.8602 66.662 41.9773C66.4645 42.242 66.187 42.4339 65.8719 42.5238C65.7913 42.5484 65.7091 42.5668 65.6258 42.5787C65.7132 42.5675 65.6061 42.5787 65.595 42.5787C65.5421 42.5787 65.4891 42.5787 65.435 42.5787C65.2893 42.5738 65.1456 42.543 65.0104 42.4877C64.6991 42.3479 64.1981 42.424 64.1317 42.8495C64.0482 43.3654 63.8563 43.8572 63.569 44.2914C63.2818 44.7256 62.9058 45.0921 62.4666 45.3661C62.0371 45.657 61.5542 45.8571 61.0467 45.9544C60.5392 46.0518 60.0175 46.0444 59.5129 45.9326C59.3857 45.8999 59.2516 45.9093 59.13 45.9593C59.0085 46.0094 58.9059 46.0974 58.8372 46.2108C58.7941 46.2807 58.7499 46.3505 58.7007 46.4179C58.633 46.5127 58.7265 46.3929 58.6452 46.4903C58.5537 46.5992 58.4559 46.7025 58.3524 46.7998C58.1841 46.9605 57.9953 47.0977 57.7912 47.2077C57.6771 47.2736 57.5596 47.3331 57.4392 47.3862L57.3247 47.4299C57.2681 47.4511 57.2103 47.471 57.1512 47.4897C57.0153 47.5333 56.8772 47.57 56.7377 47.5995C56.6774 47.612 56.6146 47.6233 56.5568 47.6345C56.4989 47.6457 56.4756 47.647 56.5334 47.6345L56.4423 47.6445C55.9383 47.7094 55.4265 47.6625 54.9421 47.5072C54.7197 47.4452 54.5074 47.3506 54.312 47.2265C54.0893 47.1028 53.8885 46.9426 53.7176 46.7523C53.6147 46.6491 53.4783 46.5871 53.3338 46.5781C53.1893 46.569 53.0464 46.6134 52.9317 46.703C52.817 46.7926 52.7384 46.9213 52.7102 47.0653C52.682 47.2093 52.7063 47.3588 52.7786 47.486C52.7057 47.3851 52.6728 47.2601 52.6865 47.1358C52.7001 47.0114 52.7594 46.8968 52.8524 46.8147C52.8412 46.8267 52.8293 46.838 52.8167 46.8484C52.9866 46.6937 52.8561 46.8147 52.8007 46.8484C52.6678 46.9333 52.5287 47.0081 52.3884 47.0817C52.0426 47.2626 51.6894 47.4298 51.3337 47.5908C51.1696 47.6656 51.0056 47.7393 50.8415 47.8116C50.7996 47.8291 50.5411 47.9364 50.6999 47.874L50.4538 47.9776C50.1364 48.1034 49.8061 48.1934 49.4692 48.2459C48.1951 48.461 46.8883 48.3534 45.6651 47.9326C44.724 47.6011 43.8527 47.0933 43.0967 46.4354C42.672 46.0735 42.3151 45.6369 42.0432 45.1465C41.7845 44.6846 41.6535 44.1604 41.6642 43.6293C41.6572 43.4734 41.5912 43.3262 41.4799 43.2184C41.3686 43.1105 41.2207 43.0504 41.0667 43.0504C40.9128 43.0504 40.7647 43.1105 40.6534 43.2184C40.5421 43.3262 40.4762 43.4734 40.4692 43.6293C40.4224 46.2595 42.8358 48.1136 45.0227 48.977C46.4287 49.5116 47.9447 49.6785 49.431 49.4624C49.8834 49.4138 50.3279 49.3078 50.7541 49.1467C51.1516 48.9845 51.5454 48.8111 51.9367 48.6327C52.3687 48.4343 52.7982 48.2346 53.2191 48C53.3795 47.9153 53.5298 47.8124 53.6671 47.6931C53.7824 47.5941 53.8599 47.4573 53.886 47.3063C53.9121 47.1554 53.8851 47 53.8099 46.8671L52.8709 47.6008C53.3598 48.0628 53.9414 48.4123 54.5759 48.6253C55.2105 48.8382 55.8828 48.9095 56.5471 48.8344C57.2114 48.7593 57.8518 48.5394 58.4245 48.19C58.9971 47.8405 59.4884 47.3697 59.8649 46.8097L59.1905 47.0879C59.8448 47.2381 60.5219 47.2554 61.1828 47.1389C61.8438 47.0223 62.4754 46.7743 63.0413 46.409C63.6072 46.0437 64.0961 45.5685 64.4799 45.0107C64.8637 44.4528 65.1348 43.8235 65.2775 43.1589L64.3988 43.5208C64.7769 43.6994 65.1918 43.7832 65.6086 43.7652C66.0255 43.7472 66.4319 43.6279 66.7937 43.4172C67.1316 43.2142 67.4235 42.9413 67.6504 42.6162C67.8773 42.2911 68.0341 41.9212 68.1105 41.5306C68.247 41.0057 68.2368 40.4526 68.0809 39.9333C67.9251 39.4139 67.6298 38.9487 67.2281 38.5898C66.4049 37.9556 65.4922 37.4508 64.5206 37.0925C64.0401 36.8869 63.5727 36.6511 63.1213 36.3863C63.0241 36.3264 62.9268 36.2615 62.8333 36.2004L62.6869 36.0955C62.6709 36.0843 62.5933 36.0244 62.6586 36.0756C62.7238 36.1267 62.6278 36.0519 62.6142 36.0394C62.4261 35.8815 62.2534 35.7056 62.0986 35.5141C62.181 35.6177 62.0986 35.5067 62.0666 35.463C62.0346 35.4193 61.989 35.3382 61.9546 35.2795C61.8614 35.1117 61.782 34.9365 61.7171 34.7555C61.4718 34.0825 61.3795 33.3622 61.4468 32.648C61.5141 31.9338 61.7394 31.2442 62.1059 30.6305C62.1861 30.4917 62.2085 30.3263 62.1684 30.1707C62.1282 30.0151 62.0287 29.8821 61.8918 29.8008C61.7549 29.7196 61.5917 29.6968 61.4382 29.7375C61.2848 29.7782 61.1535 29.8791 61.0734 30.0179" fill="#161616"/>
<path d="M27.4251 27.5161C27.0757 27.7573 26.6757 27.9128 26.2568 27.97C25.8379 28.0271 25.4116 27.9845 25.0117 27.8455C22.9848 27.178 19.4736 26.1648 19.9056 23.4074C20.4252 20.6208 21.464 17.9602 22.9663 15.5679C23.1985 15.1122 23.5317 14.7171 23.9398 14.4138C24.1468 14.2669 24.3941 14.1896 24.6467 14.193C24.8994 14.1963 25.1446 14.2802 25.3477 14.4326C25.9433 14.9716 25.5938 15.9573 25.2012 16.6647C25.4027 16.3567 25.7077 16.1332 26.0594 16.0359C26.4112 15.9386 26.7858 15.9741 27.1137 16.1357C27.4293 16.3198 27.6667 16.6156 27.7802 16.9664C27.8938 17.3171 27.8756 17.698 27.7291 18.036C27.8124 17.9105 27.9233 17.8064 28.053 17.7317C28.1828 17.6571 28.3279 17.614 28.4768 17.6058C28.6258 17.5976 28.7746 17.6244 28.9115 17.6844C29.0485 17.7443 29.1699 17.8356 29.2662 17.9511C29.4446 18.2026 29.5622 18.493 29.6097 18.799C29.6571 19.105 29.6331 19.418 29.5394 19.7129C29.7014 19.6617 29.8721 19.6456 30.0406 19.6658C30.2091 19.6859 30.3715 19.7418 30.5172 19.8299C30.6629 19.9179 30.7888 20.0362 30.8864 20.1768C30.984 20.3175 31.0514 20.4774 31.084 20.6462C31.1797 21.3423 31.045 22.0509 30.7012 22.6612C30.0009 24.2159 28.9499 26.5292 27.4214 27.5186" fill="#FFD8C7"/>
<path d="M27.1236 26.992C26.821 27.1924 26.4761 27.3175 26.1168 27.3574C25.7576 27.3973 25.3942 27.3507 25.056 27.2216C24.5293 27.0494 24.0025 26.8797 23.4844 26.6825C23.3573 26.6343 23.2301 26.5844 23.1029 26.5328L22.9946 26.4879C23.0057 26.4879 23.0648 26.5191 23.002 26.4879C22.9393 26.4567 22.8408 26.4168 22.7559 26.3794C22.4906 26.2576 22.2318 26.1218 21.9805 25.9726C21.8583 25.9003 21.7385 25.8233 21.6212 25.7418C21.567 25.7044 21.5153 25.667 21.4624 25.627C21.4476 25.6158 21.3726 25.5559 21.4526 25.6195L21.3677 25.5497C21.2647 25.4628 21.1661 25.3708 21.0722 25.2739C21.0292 25.229 20.9874 25.1841 20.9492 25.1367C20.9258 25.1105 20.9037 25.083 20.8815 25.0568C20.8089 24.9707 20.9025 25.0905 20.8643 25.0343C20.7955 24.935 20.7318 24.8321 20.6735 24.7261C20.6452 24.6737 20.6193 24.6188 20.5947 24.5639C20.6477 24.6799 20.564 24.4729 20.5542 24.4392C20.5357 24.3805 20.5209 24.3206 20.5062 24.262C20.5062 24.2345 20.4668 24.0249 20.4828 24.1572C20.4661 24.0164 20.4611 23.8746 20.468 23.733C20.4723 23.5859 20.4908 23.4396 20.5234 23.2962C20.5652 23.0583 20.612 22.8217 20.6637 22.5863C20.7621 22.1421 20.8778 21.7025 21.0107 21.2675C21.5589 19.5292 22.3021 17.8604 23.226 16.294C23.4296 15.8927 23.6773 15.516 23.9644 15.1711C24.0753 15.0465 24.2069 14.9426 24.3533 14.8642C24.4866 14.8016 24.6353 14.7807 24.7803 14.8043C24.8334 14.812 24.8837 14.833 24.9267 14.8655C24.9697 14.898 25.004 14.9408 25.0265 14.9902C24.9982 14.9266 25.061 15.1062 25.0659 15.1437C25.0524 15.0563 25.0659 15.1636 25.0659 15.1761C25.0659 15.2322 25.0659 15.2871 25.0659 15.3433C25.0005 15.6998 24.8729 16.0416 24.6893 16.3527C24.6146 16.4912 24.5961 16.6538 24.6378 16.8059C24.6795 16.958 24.7781 17.0876 24.9125 17.1672C25.047 17.2468 25.2067 17.27 25.3578 17.2321C25.5089 17.1942 25.6395 17.098 25.7218 16.9641C25.8493 16.781 26.0399 16.6532 26.256 16.606C26.3523 16.5759 26.4539 16.5674 26.5538 16.5811C26.6446 16.591 26.7335 16.6149 26.8171 16.6521C26.9212 16.6992 27.0109 16.7738 27.0768 16.868C27.1039 16.8992 27.1051 16.9017 27.0842 16.878C27.1088 16.9142 27.1322 16.9529 27.1531 16.9915C27.1531 16.9915 27.2257 17.1537 27.2023 17.0901C27.2292 17.1633 27.2494 17.239 27.2627 17.316C27.27 17.3584 27.2713 17.3596 27.2627 17.316C27.2627 17.3609 27.2627 17.4045 27.2627 17.4495C27.2653 17.5424 27.2493 17.6349 27.2159 17.7215C27.1402 17.8613 27.1202 18.0252 27.16 18.1796C27.1999 18.3339 27.2965 18.4669 27.43 18.5512C27.5673 18.6308 27.7299 18.6526 27.883 18.612C28.036 18.5715 28.1672 18.4717 28.2485 18.3341C28.2657 18.2991 28.2964 18.1806 28.2767 18.2729C28.3222 18.2318 28.3285 18.2243 28.2965 18.2492C28.2645 18.2742 28.273 18.2692 28.3235 18.2355C28.4281 18.2131 28.289 18.2355 28.3555 18.2243C28.401 18.213 28.4786 18.2031 28.3875 18.2106C28.4445 18.2065 28.5016 18.2065 28.5585 18.2106C28.4416 18.2031 28.609 18.2255 28.6262 18.2293C28.7259 18.2542 28.6189 18.2168 28.6718 18.2418C28.6927 18.253 28.817 18.3328 28.7801 18.3029C28.9092 18.4463 28.9914 18.6267 29.0152 18.8194C29.0395 19.0618 29.0224 19.3066 28.9647 19.5431C28.9372 19.6585 28.9432 19.7796 28.9822 19.8916C29.0212 20.0036 29.0914 20.1018 29.1843 20.1741C29.2771 20.2465 29.3887 20.29 29.5055 20.2994C29.6223 20.3088 29.7392 20.2836 29.8422 20.2269C29.8016 20.2481 29.8151 20.2469 29.8828 20.2269C29.8274 20.2269 29.8372 20.2269 29.9111 20.2269C29.9849 20.2269 29.9948 20.2269 29.9394 20.2269C29.9811 20.2355 30.0222 20.2468 30.0625 20.2606C30.0084 20.2406 30.1856 20.3279 30.2102 20.3479C30.1868 20.3304 30.3184 20.4477 30.3431 20.4727C30.4246 20.5663 30.4817 20.6791 30.5092 20.8008C30.5439 20.958 30.551 21.1203 30.5302 21.28C30.4553 21.7131 30.3137 22.1316 30.1105 22.5201C29.9653 22.8408 29.8188 23.1615 29.6662 23.4772C29.1292 24.8493 28.2532 26.0583 27.1223 26.9882C26.9891 27.0725 26.8927 27.2053 26.8529 27.3593C26.8131 27.5134 26.8328 27.677 26.9082 27.8167C26.9894 27.9539 27.1204 28.0536 27.2732 28.0941C27.4259 28.1347 27.5882 28.113 27.7254 28.0338C28.8931 27.1546 29.8206 25.9884 30.4206 24.645C30.7332 24.0399 31.0236 23.4185 31.2944 22.7922C31.5251 22.3834 31.6642 21.928 31.7016 21.4586C31.739 20.9891 31.674 20.517 31.511 20.0759C31.3209 19.6981 31.0164 19.392 30.6421 19.2025C30.4251 19.0909 30.1857 19.0314 29.9425 19.0286C29.6992 19.0258 29.4586 19.0797 29.2392 19.1862L30.1179 19.87C30.2742 19.4102 30.2871 18.9126 30.155 18.445C30.023 17.9774 29.7521 17.5623 29.3794 17.256C29.2082 17.1396 29.0157 17.0593 28.8133 17.0199C28.6108 16.9805 28.4026 16.9828 28.2011 17.0267C27.9995 17.0705 27.8087 17.1552 27.6401 17.2754C27.4715 17.3956 27.3285 17.549 27.2196 17.7264L28.2521 18.3378C28.4733 17.8593 28.5104 17.3144 28.356 16.8097C28.2017 16.305 27.867 15.8768 27.4177 15.6091C26.9516 15.3713 26.4154 15.3162 25.9117 15.4543C25.408 15.5925 24.9724 15.9141 24.6881 16.3577L25.7206 16.9691C25.9923 16.5932 26.1639 16.1527 26.2188 15.6901C26.2738 15.2274 26.2103 14.7582 26.0344 14.3277C25.8834 14.1202 25.6903 13.9478 25.4682 13.8221C25.2461 13.6965 25.0001 13.6204 24.7466 13.599C24.4931 13.5776 24.2381 13.6114 23.9985 13.6981C23.759 13.7848 23.5405 13.9225 23.3577 14.1018C22.9929 14.4336 22.6865 14.826 22.4519 15.2622C22.1893 15.7006 21.9383 16.1452 21.6987 16.596C21.1929 17.5432 20.7445 18.5207 20.356 19.5232C19.9728 20.4999 19.6722 21.5079 19.4576 22.5364C19.2265 23.3206 19.229 24.1567 19.465 24.9395C19.7705 25.5593 20.1944 26.1114 20.7123 26.5636C21.2301 27.0158 21.8315 27.3591 22.4814 27.5735C23.1804 27.8754 23.8992 28.1174 24.6216 28.3545C25.0936 28.5318 25.5954 28.6132 26.0984 28.5941C26.6766 28.5457 27.2345 28.3555 27.7242 28.0401C28.3752 27.6283 27.7759 26.579 27.1211 26.9932" fill="#161616"/>
<path d="M54.8325 47.441C46.2952 43.6379 36.697 40.828 29.5554 34.839C27.4915 33.1046 27.2835 31.7646 28.0859 29.0782C28.2006 28.6901 28.337 28.309 28.4945 27.9366C28.8025 27.3947 28.9411 26.7708 28.892 26.1474C28.7296 25.3613 27.9604 24.8822 27.2576 24.5116C23.3121 22.4342 19.2163 19.5644 17.1918 25.3962C15.0027 31.6862 14.7949 38.5102 16.597 44.9251C18.3991 51.34 22.1221 57.029 27.2515 61.2058C27.59 61.4848 27.9473 61.7396 28.3209 61.9682C28.0491 67.0648 28.0384 72.1724 28.2889 77.2702C28.2661 77.9857 28.3976 78.6976 28.6742 79.3563C29.4975 80.9784 31.6647 81.1818 33.464 81.1718L54.0165 81.057C55.0232 81.1277 56.0328 80.9678 56.9702 80.5891C58.7892 79.6858 59.4316 77.5946 59.5423 75.431C61.1349 75.3722 62.7041 75.0231 64.1747 74.4004C66.1837 73.7839 67.9989 72.646 69.4407 71.0993C70.8824 69.5527 71.9006 67.6511 72.3944 65.5828C74.5604 55.1256 63.9384 51.7531 56.7819 48.3418C56.1387 48.0349 55.4876 47.735 54.8288 47.4422" fill="#FFD97B"/>
<path d="M55.134 46.9158C52.1016 45.5657 49.0088 44.3629 45.937 43.1089C42.8804 41.9022 39.8867 40.5375 36.9678 39.0202C35.5288 38.2571 34.13 37.4183 32.7773 36.5072C32.1004 36.0481 31.4358 35.5703 30.7922 35.065C30.2045 34.629 29.6536 34.144 29.1455 33.615C28.792 33.2499 28.5299 32.8043 28.3811 32.3155C28.2323 31.8266 28.2011 31.3088 28.2902 30.8052C28.413 30.0185 28.6193 29.2475 28.9055 28.5057C29.3833 27.7012 29.5683 26.7526 29.4285 25.8243C29.1356 25.0909 28.5824 24.4953 27.8779 24.1549C27.3314 23.8405 26.7703 23.5547 26.2103 23.254C25.1526 22.6465 24.0474 22.1282 22.9059 21.7044C21.9141 21.3129 20.8286 21.235 19.7923 21.481C19.2366 21.6737 18.7242 21.9764 18.285 22.3716C17.8457 22.7668 17.4883 23.2465 17.2336 23.783C16.8523 24.545 16.5424 25.3417 16.3081 26.1625C16.0398 27.0192 15.8077 27.8868 15.6116 28.7652C15.2114 30.5573 14.957 32.3797 14.851 34.214C14.5706 39.243 15.4331 44.2702 17.3721 48.9078C19.311 53.5455 22.2746 57.6697 26.0343 60.9626C26.653 61.5263 27.317 62.0367 28.0195 62.4885L27.7228 61.9658C27.4681 65.8337 27.4767 69.719 27.5727 73.5944C27.5973 74.5469 27.6268 75.4989 27.6613 76.4505C27.6302 77.3465 27.7221 78.2427 27.9345 79.1131C28.1884 79.7788 28.6171 80.3613 29.1742 80.7977C29.7313 81.234 30.3955 81.5076 31.0949 81.5886C32.6951 81.8021 34.3119 81.8598 35.9229 81.7608L41.7331 81.7284L53.4086 81.6635C54.3015 81.6933 55.1952 81.6424 56.0792 81.5112C56.8814 81.3605 57.628 80.9912 58.2391 80.4432C59.2573 79.419 59.8891 78.0653 60.0248 76.6177C60.0814 76.2222 60.1207 75.8267 60.1478 75.4274L59.5497 76.0337C60.6063 76.0519 61.6579 75.8831 62.6572 75.5347C63.5408 75.2614 64.4368 74.982 65.2921 74.6251C66.8769 73.9726 68.3268 73.0241 69.5663 71.8289C70.7556 70.6689 71.6989 69.2752 72.3386 67.7329C72.9783 66.1906 73.3009 64.5322 73.2867 62.8591C73.2547 60.1679 72.2264 57.5871 70.4057 55.6285C68.5499 53.7246 66.3751 52.1703 63.9827 51.0382C61.5705 49.7905 59.0599 48.7324 56.6084 47.5807C56.1202 47.3528 55.6304 47.1295 55.1389 46.9107C55.001 46.834 54.8393 46.8137 54.6871 46.8541C54.5349 46.8945 54.4037 46.9924 54.3205 47.1279C54.2417 47.2668 54.2201 47.4316 54.2601 47.5866C54.3002 47.7416 54.3988 47.8744 54.5347 47.9563C55.9364 48.5802 57.3184 49.2503 58.719 49.8816C59.9017 50.4169 61.0856 50.9496 62.2535 51.5186C63.4215 52.0875 64.5919 52.7014 65.7069 53.3901C66.7639 54.0236 67.7573 54.7603 68.6728 55.5899C69.1169 55.9968 69.5334 56.4337 69.9195 56.8975C70.0948 57.1039 70.2592 57.3197 70.4118 57.5438C70.5759 57.7834 70.7318 58.0292 70.8795 58.2812C71.4747 59.3065 71.8613 60.4422 72.0167 61.6214C72.1978 63.106 72.0796 64.6124 71.6694 66.0494C71.2592 67.4864 70.5655 68.8239 69.6303 69.981C68.6133 71.2103 67.3702 72.2274 65.9702 72.9756C65.2742 73.3397 64.5487 73.6428 63.8017 73.8815C62.8753 74.2233 61.9277 74.5029 60.965 74.7186C60.4997 74.8088 60.0252 74.8415 59.5522 74.8159C59.3949 74.8204 59.2453 74.8857 59.1341 74.9985C59.0228 75.1113 58.9584 75.2629 58.9541 75.4224C58.958 76.7228 58.5811 77.9951 57.8711 79.0782C57.4901 79.5868 56.9695 79.97 56.3745 80.1799C55.6113 80.3926 54.8194 80.4806 54.0288 80.4407C50.3048 80.4639 46.5807 80.4848 42.8566 80.5031L37.2693 80.5342L34.5888 80.5493C33.8369 80.5493 33.0813 80.5754 32.3306 80.5243C31.7748 80.5506 31.2201 80.4544 30.7046 80.2422C30.1891 80.03 29.7252 79.707 29.3449 79.2953C29 78.6378 28.8423 77.8961 28.8895 77.153C28.8559 76.238 28.8256 75.3255 28.7985 74.4154C28.6754 70.2643 28.652 66.1057 28.9215 61.9595C28.9218 61.8534 28.8946 61.7492 28.8425 61.6572C28.7904 61.5652 28.7154 61.4887 28.625 61.4354C27.3121 60.5624 26.1094 59.53 25.0436 58.3611C23.9827 57.2772 23.0013 56.1162 22.1072 54.8874C20.2855 52.3856 18.8324 49.6283 17.7936 46.7024C16.6729 43.5214 16.067 40.1776 15.9993 36.8005C15.9262 33.2494 16.437 29.7107 17.5106 26.3296C17.7198 25.5967 18.0057 24.8886 18.3634 24.2172C18.4997 23.9733 18.6574 23.7424 18.8348 23.5273C18.9173 23.4312 19.0034 23.3388 19.0945 23.2502C19.1388 23.2091 19.183 23.1679 19.2273 23.1255C19.2495 23.1068 19.3836 23.0007 19.311 23.0544C19.401 22.9907 19.4943 22.932 19.5905 22.8784C19.6446 22.846 19.7012 22.8161 19.7578 22.7874C19.7898 22.7711 19.9362 22.7075 19.8353 22.7487C20.0488 22.6633 20.2708 22.6018 20.4975 22.5653C20.3916 22.584 20.5061 22.5653 20.5492 22.5653L20.7091 22.554C20.8322 22.554 20.9442 22.554 21.0623 22.554C21.273 22.5562 21.4827 22.5825 21.6875 22.6326C22.7435 22.8838 23.7588 23.2862 24.7027 23.8279C25.2381 24.1062 25.7685 24.3969 26.3026 24.6839C26.8796 24.9381 27.4229 25.2646 27.9198 25.6559C28.1346 25.8294 28.2795 26.0766 28.3271 26.3509C28.3259 26.7655 28.2217 27.173 28.0243 27.5361C27.6889 28.3188 27.4268 29.1318 27.2416 29.9643C26.9081 31.157 27.0363 32.4337 27.5998 33.5339C28.4307 34.7272 29.488 35.7406 30.7097 36.5148C31.9881 37.4685 33.3199 38.3463 34.6984 39.1437C37.5198 40.7412 40.4383 42.1556 43.4363 43.3785C46.4293 44.6424 49.4667 45.8078 52.456 47.0692C53.1534 47.3637 53.8479 47.6644 54.5395 47.9713C54.6775 48.0481 54.8392 48.0683 54.9914 48.0279C55.1437 47.9875 55.2748 47.8896 55.358 47.7542C55.4368 47.6151 55.4585 47.4501 55.4185 47.2949C55.3784 47.1396 55.2798 47.0066 55.1439 46.9244" fill="#161616"/>
<path d="M19.4589 26.966C22.1912 27.5263 24.818 28.5246 27.2405 29.9231C27.3771 29.9988 27.5375 30.0175 27.6875 29.9752C27.8375 29.933 27.9654 29.833 28.0439 29.6967C28.1224 29.5604 28.1454 29.3985 28.108 29.2453C28.0706 29.0921 27.9757 28.9597 27.8435 28.8763C25.3325 27.4225 22.6095 26.3826 19.7764 25.7956C19.6233 25.7567 19.4612 25.7788 19.3238 25.8576C19.1864 25.9363 19.0841 26.0655 19.038 26.2186C18.9963 26.3739 19.0167 26.5396 19.0949 26.6798C19.173 26.82 19.3024 26.9232 19.4552 26.9672" fill="#161616"/>
<path d="M50.4316 43.6689L49.2009 48.2144C49.0424 49.0598 48.6825 49.8531 48.1523 50.5252C47.4314 51.1908 46.5017 51.577 45.5273 51.6156C44.0019 51.7757 42.4607 51.5724 41.0266 51.0218C40.6669 50.9198 40.3308 50.7467 40.0374 50.5124C39.744 50.2782 39.4992 49.9873 39.3172 49.6567C39.1669 49.2162 39.1099 48.7486 39.1498 48.2842L39.2274 43.6764" fill="#FFD8C7"/>
<path d="M49.8555 43.5082C49.4346 45.0616 49.0174 46.6175 48.5928 48.1697C48.4648 48.7908 48.2253 49.3829 47.8864 49.9164C47.541 50.3531 47.0665 50.6659 46.5326 50.8086C45.2131 51.1644 43.8263 51.1765 42.5009 50.8435C41.4856 50.6102 39.9017 50.2321 39.7614 48.9906C39.7361 48.5913 39.7361 48.1908 39.7614 47.7916C39.7696 47.3249 39.7773 46.8575 39.7847 46.3892C39.7995 45.4883 39.8147 44.587 39.8303 43.6854C39.8233 43.5295 39.7574 43.3823 39.6461 43.2744C39.5348 43.1666 39.3867 43.1064 39.2328 43.1064C39.0788 43.1064 38.9309 43.1666 38.8196 43.2744C38.7083 43.3823 38.6423 43.5295 38.6353 43.6854C38.6214 44.5529 38.607 45.4209 38.5922 46.2893C38.5787 47.1415 38.5171 48.0086 38.5627 48.8608C38.5678 49.2452 38.6557 49.6238 38.8202 49.9702C38.9848 50.3165 39.222 50.6223 39.5152 50.866C40.131 51.3244 40.8279 51.6586 41.568 51.8504C43.1212 52.3227 44.7639 52.4083 46.3567 52.0999C47.0759 51.9648 47.7518 51.6539 48.3257 51.1941C48.8828 50.6866 49.2916 50.0335 49.5072 49.3063C49.7989 48.4666 49.9995 47.5894 50.2296 46.7322L51.0161 43.8301C51.0553 43.676 51.0331 43.5125 50.9545 43.3748C50.8758 43.2371 50.7469 43.1363 50.5956 43.094C50.4443 43.0518 50.2827 43.0715 50.1456 43.149C50.0085 43.2265 49.907 43.3555 49.8629 43.5082" fill="#161616"/>
<path d="M56.6833 40.2064C57.3298 40.5789 58.0606 40.7748 58.8042 40.7749C59.5478 40.775 60.2787 40.5792 60.9252 40.2068C61.5717 39.8344 62.1117 39.298 62.4923 38.6503C62.8729 38.0027 63.0811 37.2659 63.0963 36.5122C63.1116 35.7585 62.9335 35.0137 62.5795 34.3507C62.2254 33.6878 61.7076 33.1295 61.0767 32.7305C60.4458 32.3314 59.7235 32.1054 58.9805 32.0745C58.2376 32.0436 57.4995 32.2089 56.8385 32.5542" fill="#FFD8C7"/>
<path d="M56.3758 40.7293C57.1131 41.1559 57.9473 41.3806 58.7962 41.3812C59.6452 41.3818 60.4796 41.1584 61.2176 40.733C61.9555 40.3075 62.5715 39.6946 63.005 38.9546C63.4384 38.2146 63.6745 37.3729 63.6898 36.5123C63.7051 35.6518 63.4993 34.802 63.0925 34.0466C62.6857 33.2912 62.0919 32.6562 61.3696 32.204C60.6473 31.7517 59.8213 31.4979 58.9729 31.4675C58.1245 31.437 57.283 31.631 56.5309 32.0302C56.3988 32.1137 56.3039 32.2461 56.2665 32.3993C56.2291 32.5525 56.2521 32.7144 56.3306 32.8507C56.4091 32.987 56.5369 33.087 56.6869 33.1292C56.8369 33.1715 56.9973 33.1528 57.1339 33.0771C57.6927 32.7923 58.3132 32.655 58.9381 32.6778C59.4327 32.7014 59.9184 32.8199 60.3694 33.0271C60.8022 33.2308 61.1905 33.5202 61.5115 33.8781C61.8091 34.2093 62.0496 34.5889 62.2229 35.001C62.5158 35.7222 62.5793 36.518 62.4044 37.2775C62.2295 38.0369 61.825 38.7221 61.2474 39.2371C60.6698 39.7522 59.948 40.0715 59.1827 40.1505C58.4174 40.2294 57.6469 40.064 56.9788 39.6775C56.3056 39.3032 55.7014 40.345 56.3746 40.7243" fill="#161616"/>
<path d="M31.2353 37.1682C30.5211 37.3787 29.7653 37.3976 29.0419 37.2229C28.3184 37.0482 27.6522 36.6859 27.1083 36.1716C26.5645 35.6573 26.1619 35.0086 25.9398 34.289C25.7177 33.5694 25.6838 32.8037 25.8414 32.0668C25.9991 31.33 26.3428 30.6473 26.839 30.0856C27.3352 29.524 27.9668 29.1027 28.6719 28.863C29.377 28.6233 30.1314 28.5734 30.8613 28.7183C31.5911 28.8631 32.2713 29.1978 32.8352 29.6893" fill="#FFD8C7"/>
<path d="M31.0764 36.5843C30.1329 36.8525 29.1231 36.7297 28.2689 36.243C27.4147 35.7563 26.7862 34.9455 26.5216 33.989C26.2571 33.0325 26.3781 32.0087 26.8582 31.1426C27.3383 30.2766 28.138 29.6394 29.0815 29.3712C29.3314 29.2957 29.59 29.2538 29.8507 29.2465C30.139 29.231 30.4281 29.2498 30.7122 29.3026C31.3405 29.4225 31.9281 29.7034 32.4191 30.1186C32.5333 30.2281 32.6846 30.2891 32.8418 30.2891C32.9991 30.2891 33.1503 30.2281 33.2646 30.1186C33.3757 30.0044 33.4381 29.8504 33.4381 29.69C33.4381 29.5296 33.3757 29.3756 33.2646 29.2614C32.7186 28.7865 32.0779 28.4368 31.3863 28.2361C30.6947 28.0354 29.9686 27.9885 29.2575 28.0985C28.05 28.2939 26.9601 28.9451 26.2066 29.9214C25.5663 30.7454 25.2003 31.754 25.1612 32.8022C25.1221 33.8504 25.412 34.8841 25.9892 35.7546C26.5664 36.6252 27.401 37.2878 28.3731 37.6469C29.3451 38.0061 30.4046 38.0434 31.3989 37.7534C31.5495 37.7087 31.6767 37.6057 31.7531 37.4667C31.8295 37.3277 31.849 37.1638 31.8073 37.0104C31.7657 36.857 31.6662 36.7264 31.5304 36.6466C31.3946 36.5669 31.2333 36.5445 31.0813 36.5843" fill="#161616"/>
<path d="M29.6648 30.6176C29.3177 33.6056 29.8522 36.6309 31.2009 39.3109C32.5496 41.9909 34.652 44.2052 37.242 45.6739C39.832 47.1425 42.7934 47.7995 45.7517 47.5618C48.7101 47.3241 51.5324 46.2024 53.862 44.3385C56.1915 42.4746 57.9235 39.9521 58.839 37.0902C59.7546 34.2283 59.8125 31.1555 59.0054 28.2603C58.1984 25.365 56.5627 22.7774 54.3051 20.8246C52.0475 18.8718 49.2694 17.6416 46.3222 17.2895C42.37 16.8177 38.3949 17.9568 35.271 20.4563C32.1472 22.9558 30.1307 26.6108 29.6648 30.6176Z" fill="#FFD8C7"/>
<path d="M29.0667 30.6177C28.7055 33.8297 29.3241 37.0767 30.8391 39.9214C32.3542 42.766 34.6928 45.0716 37.54 46.5273C40.5045 48.0262 43.8585 48.5429 47.1283 48.0046C49.8861 47.5378 52.4694 46.3281 54.6079 44.5022C56.7464 42.6762 58.3616 40.3011 59.2844 37.6253C60.2071 34.9496 60.4037 32.0715 59.8533 29.2924C59.3029 26.5133 58.0258 23.9352 56.1558 21.828C54.2858 19.7207 51.8915 18.1618 49.2235 17.3143C46.5555 16.4667 43.7118 16.3618 40.9901 17.0104C38.2683 17.659 35.7686 19.0374 33.7524 21.0012C31.7362 22.965 30.2776 25.4421 29.5294 28.1733C29.315 28.9764 29.1603 29.7948 29.0667 30.6214C29.0673 30.782 29.1306 30.9359 29.2426 31.0495C29.3546 31.163 29.5064 31.2271 29.6648 31.2277C29.8221 31.2233 29.9717 31.158 30.0829 31.0453C30.1942 30.9325 30.2586 30.7808 30.2629 30.6214C30.4514 29.1232 30.8605 27.6621 31.4764 26.2868C33.0416 22.8444 35.8641 20.1527 39.3489 18.7793C42.8337 17.406 46.7083 17.4583 50.1558 18.9252C52.8335 20.0783 55.1083 22.0195 56.6859 24.4976C58.299 27.0417 59.0942 30.0303 58.962 33.0518C58.8297 36.0732 57.7765 38.9787 55.9474 41.368C54.1517 43.6949 51.7078 45.4211 48.9325 46.3227C47.51 46.7865 46.0234 47.0165 44.5291 47.0039C41.5023 46.9959 38.5547 46.0215 36.105 44.219C34.9576 43.3636 33.9365 42.3464 33.0726 41.1983C31.2992 38.811 30.2883 35.931 30.1756 32.9446C30.1497 32.1672 30.1814 31.389 30.2703 30.6164C30.2697 30.4557 30.2065 30.3019 30.0944 30.1883C29.9824 30.0747 29.8306 30.0107 29.6722 30.01C29.5149 30.0144 29.3654 30.0797 29.2541 30.1925C29.1429 30.3053 29.0784 30.4569 29.0741 30.6164" fill="#161616"/>
<path d="M49.6846 36.5696C49.6121 37.1936 49.7239 37.8254 50.0056 38.385C50.2873 38.9446 50.7264 39.4069 51.2673 39.7136C51.8082 40.0202 52.4266 40.1573 53.0444 40.1076C53.6622 40.0579 54.2515 39.8236 54.7379 39.4342C55.2244 39.0449 55.586 38.5181 55.7771 37.9204C55.9682 37.3228 55.9802 36.681 55.8116 36.0764C55.6429 35.4718 55.3012 34.9316 54.8297 34.5239C54.3581 34.1162 53.778 33.8593 53.1625 33.7859C52.3372 33.6875 51.5072 33.9255 50.8549 34.4476C50.2027 34.9696 49.7817 35.7329 49.6846 36.5696" fill="#FFB9A1"/>
<path d="M32.0266 34.4622C31.9542 35.0862 32.0659 35.7179 32.3476 36.2776C32.6293 36.8372 33.0684 37.2995 33.6093 37.6062C34.1502 37.9128 34.7687 38.0499 35.3864 38.0002C36.0042 37.9505 36.5936 37.7161 37.08 37.3268C37.5664 36.9375 37.928 36.4107 38.1191 35.813C38.3102 35.2153 38.3222 34.5737 38.1535 33.9691C37.9849 33.3645 37.6432 32.8241 37.1717 32.4164C36.7002 32.0087 36.12 31.7519 35.5045 31.6785C34.6792 31.5801 33.8491 31.8181 33.1969 32.3401C32.5447 32.8622 32.1237 33.6255 32.0266 34.4622" fill="#FFB9A1"/>
<path d="M48.3898 32.467C48.3627 32.7012 48.4048 32.9384 48.5106 33.1484C48.6164 33.3585 48.7812 33.5321 48.9843 33.6471C49.1874 33.7622 49.4195 33.8137 49.6514 33.795C49.8833 33.7764 50.1046 33.6885 50.2872 33.5424C50.4698 33.3963 50.6057 33.1985 50.6775 32.9742C50.7493 32.7498 50.7539 32.509 50.6907 32.282C50.6275 32.055 50.4994 31.8521 50.3225 31.6989C50.1456 31.5457 49.9279 31.4491 49.6969 31.4214C49.5433 31.4029 49.3877 31.4154 49.2389 31.4579C49.0901 31.5005 48.951 31.5725 48.8296 31.6696C48.7082 31.7667 48.6069 31.8871 48.5314 32.0239C48.456 32.1607 48.4079 32.3113 48.3898 32.467" fill="#161616"/>
<path d="M38.2033 31.1329C38.1762 31.3672 38.2182 31.6043 38.324 31.8144C38.4298 32.0244 38.5946 32.198 38.7977 32.3131C39.0008 32.4282 39.233 32.4796 39.4649 32.461C39.6968 32.4423 39.918 32.3544 40.1007 32.2083C40.2833 32.0622 40.4191 31.8645 40.4909 31.6401C40.5627 31.4158 40.5674 31.1749 40.5042 30.948C40.441 30.721 40.3129 30.518 40.136 30.3648C39.9591 30.2117 39.7414 30.1152 39.5103 30.0874C39.3568 30.069 39.2011 30.0813 39.0523 30.1239C38.9035 30.1665 38.7644 30.2384 38.643 30.3355C38.5217 30.4326 38.4203 30.553 38.3448 30.6899C38.2694 30.8267 38.2213 30.9772 38.2033 31.1329" fill="#161616"/>
<path d="M44.8934 31.293C44.7929 31.2015 44.6754 31.1316 44.5477 31.0871C44.4614 31.0609 44.3719 31.0471 44.2818 31.0459C44.0967 31.0448 43.9149 31.0967 43.7575 31.1956C43.4808 31.3954 43.2804 31.6858 43.1902 32.0179C43.0136 32.5545 43.024 33.1363 43.2197 33.6661C43.2658 33.816 43.3632 33.9443 43.4942 34.028C43.6342 34.1088 43.7999 34.1308 43.9557 34.0891C44.1055 34.0463 44.2333 33.9467 44.3126 33.8109C44.3536 33.7414 44.3802 33.6642 44.3906 33.5839C44.401 33.5036 44.3949 33.422 44.3729 33.3442C44.3179 33.199 44.2795 33.0479 44.2584 32.8938C44.2658 32.9475 44.2732 33.0011 44.2806 33.0547C44.2606 32.889 44.2606 32.7214 44.2806 32.5557L44.2597 32.7166C44.2823 32.5424 44.3278 32.372 44.395 32.21L44.3347 32.3548C44.3671 32.2769 44.4083 32.2032 44.4578 32.1352L44.3642 32.26C44.3935 32.2244 44.4261 32.1919 44.4615 32.1626L44.3384 32.2575C44.3663 32.2373 44.396 32.2198 44.427 32.2051L44.2842 32.2662C44.3153 32.254 44.3475 32.2448 44.3802 32.2387L44.2215 32.26C44.2539 32.2568 44.2864 32.2568 44.3187 32.26L44.16 32.2387C44.1838 32.2427 44.2072 32.2485 44.2301 32.2562L44.0874 32.1951C44.1096 32.2049 44.131 32.2166 44.1514 32.23L44.0282 32.1352L44.048 32.1502C44.1627 32.2595 44.3127 32.3229 44.4701 32.3286C44.6286 32.3266 44.7802 32.2627 44.8934 32.1502C45.0051 32.0365 45.068 31.8826 45.0682 31.7222C45.0694 31.6423 45.0546 31.5631 45.0245 31.4893C44.9945 31.4155 44.9498 31.3487 44.8934 31.293" fill="#161616"/>
<path d="M35.3766 27.8378C37.5439 27.2449 39.5655 26.2003 41.3122 24.7709C41.6567 25.5868 42.2142 26.2921 42.9246 26.8107C43.635 27.3294 44.4715 27.6417 45.344 27.7142C47.1024 27.8297 48.8441 27.3079 50.2582 26.2419C50.3282 26.9246 50.5631 27.5793 50.9422 28.148C51.3213 28.7167 51.8329 29.1818 52.4316 29.5022C53.0363 29.7891 53.6969 29.9346 54.3645 29.9277C55.0322 29.9208 55.6897 29.7617 56.2885 29.4623C56.8374 31.1829 57.7396 33.4487 59.812 33.5535C62.1504 33.6783 62.2377 30.5054 62.2845 28.7262C62.3383 26.4025 61.8402 24.0997 60.8323 22.0121C55.9464 11.9056 37.5833 9.7658 31.26 19.3994C30.7594 20.2977 30.1963 21.1587 29.5752 21.976C29.1651 22.3785 28.7761 22.8025 28.4097 23.2462C27.4117 24.6461 27.5617 27.597 29.2232 28.4866C30.8846 29.3762 33.7583 28.2745 35.3766 27.8328" fill="#38322F"/>
<path d="M35.5354 28.423C37.7988 27.7934 39.9093 26.6962 41.7344 25.2001L40.7351 24.9331C40.995 25.5988 41.386 26.2038 41.884 26.7113C42.3821 27.2189 42.9769 27.6182 43.6321 27.8852C45.0659 28.4614 46.6551 28.5016 48.1155 27.9987C48.9862 27.7129 49.8102 27.2979 50.5609 26.7672L49.6613 26.2432C49.7306 26.9681 49.9599 27.6678 50.3323 28.2905C50.7047 28.9132 51.2107 29.443 51.8126 29.8404C52.5109 30.2538 53.298 30.4887 54.1059 30.5248C54.9138 30.5609 55.7183 30.3971 56.4498 30.0475L55.7113 29.6246C56.0367 30.8855 56.6364 32.0566 57.4663 33.0521C57.9016 33.5504 58.4772 33.9013 59.1154 34.0575C59.7536 34.2136 60.4237 34.1675 61.0353 33.9254C61.4928 33.644 61.8789 33.2579 62.1626 32.7979C62.4462 32.3378 62.6194 31.8167 62.6685 31.2765C62.8783 30.0611 62.9448 28.8247 62.8666 27.5933C62.7207 24.5922 61.6676 21.7093 59.8502 19.3358C58.5048 17.6548 56.8405 16.2645 54.9558 15.2471C52.9826 14.1656 50.8529 13.4076 48.646 13.0012C46.4312 12.5728 44.165 12.4887 41.9252 12.7517C39.7298 12.9965 37.5974 13.6477 35.6339 14.6731C33.7325 15.6803 32.0972 17.1351 30.865 18.9154C30.401 19.5942 30.0293 20.3341 29.5653 21.0141C29.089 21.714 28.4134 22.228 27.9174 22.9105C27.5834 23.4362 27.3552 24.0237 27.246 24.6391C27.1368 25.2545 27.1488 25.8858 27.2812 26.4965C27.3637 27.123 27.6169 27.7138 28.0124 28.2025C28.4078 28.6911 28.9299 29.0582 29.5198 29.2627C30.9379 29.5491 32.4063 29.4365 33.7657 28.937C34.3589 28.7736 34.9447 28.5852 35.5379 28.423C35.6885 28.3783 35.8157 28.2753 35.8921 28.1364C35.9686 27.9974 35.988 27.8335 35.9464 27.6801C35.9047 27.5267 35.8052 27.3961 35.6694 27.3163C35.5336 27.2366 35.3724 27.2141 35.2204 27.2539C34.0333 27.6471 32.82 27.954 31.5898 28.1722C31.2633 28.2133 30.9342 28.2287 30.6053 28.2184C30.3441 28.2174 30.0846 28.1753 29.8361 28.0936C29.4153 27.9674 29.0579 27.6831 28.8368 27.2988C28.7112 27.1074 28.6169 26.8967 28.5574 26.6749C28.5168 26.5414 28.4823 26.4042 28.4553 26.2657C28.443 26.2058 28.4343 26.1409 28.4233 26.086C28.406 25.9837 28.4319 26.1684 28.4233 26.0648C28.4233 26.0249 28.4147 25.9837 28.4097 25.9401C28.3848 25.6549 28.3848 25.368 28.4097 25.0829C28.4097 25.0542 28.4269 24.9132 28.422 24.9581C28.4171 25.003 28.4417 24.8333 28.4479 24.8022C28.4725 24.6674 28.5032 24.5338 28.5401 24.4016C28.5745 24.2747 28.6156 24.1497 28.6633 24.0273C28.6251 24.1196 28.6768 24.0011 28.6916 23.9712C28.7228 23.9063 28.756 23.843 28.7913 23.7814C28.9634 23.5059 29.1703 23.2542 29.4066 23.0328C29.9902 22.455 30.5048 21.8096 30.94 21.1101C31.3092 20.4962 31.6588 19.8624 32.0797 19.2847L32.1757 19.1525C32.1941 19.1275 32.2987 18.9964 32.2298 19.08C32.3073 18.9802 32.3861 18.8817 32.466 18.7843C32.626 18.5905 32.7902 18.4017 32.9584 18.2179C33.2935 17.8599 33.649 17.5221 34.0229 17.206C34.1177 17.1261 34.2149 17.0475 34.3109 16.9702C34.3638 16.9265 34.3023 16.9702 34.2949 16.9827L34.3577 16.934L34.5274 16.8092C34.7276 16.6603 34.9327 16.5173 35.1428 16.38C35.5535 16.1083 35.9778 15.8584 36.4141 15.6314C36.6373 15.5149 36.8633 15.4043 37.0923 15.2995L37.2646 15.2221L37.3667 15.1772L37.395 15.1647L37.4946 15.1236L37.6965 15.0425C38.6364 14.6685 39.6066 14.378 40.596 14.174C40.852 14.1216 41.108 14.0755 41.3652 14.033L41.7258 13.9782L41.7861 13.9694H41.8181L42.0409 13.942C42.5569 13.8812 43.0742 13.8397 43.5927 13.8172C44.6494 13.775 45.7077 13.8104 46.7593 13.9233L47.1285 13.9657L47.3279 13.9919L47.451 14.0106C47.7061 14.048 47.9609 14.0896 48.2152 14.1354C48.7411 14.2318 49.263 14.3471 49.7807 14.481C50.2984 14.6149 50.7988 14.7646 51.2821 14.9302C51.5331 15.0134 51.7821 15.1032 52.0291 15.1997L52.3713 15.3344L52.5546 15.4093L52.6716 15.4579C53.6112 15.8609 54.5168 16.3412 55.3791 16.8941C55.5941 17.033 55.8061 17.1769 56.0153 17.3258C56.1121 17.3948 56.2082 17.4643 56.3033 17.5341L56.456 17.6489C56.4818 17.6689 56.6369 17.7887 56.5495 17.7201C56.9384 18.027 57.3117 18.3522 57.6694 18.6958C58.0232 19.0354 58.3592 19.3935 58.6761 19.7688C58.7561 19.8636 58.8349 19.9597 58.9124 20.057L59.0109 20.1818L59.0761 20.2654C59.0404 20.218 59.049 20.2292 59.0761 20.2654C59.2225 20.4663 59.3665 20.6672 59.5044 20.8743C60.2028 21.9393 60.7419 23.1031 61.1043 24.328C61.5491 25.842 61.7462 27.4196 61.6876 28.9982C61.6728 29.4861 61.6507 29.9752 61.5953 30.4605C61.5953 30.4905 61.5682 30.6714 61.5854 30.5504C61.5781 30.6065 61.5694 30.6614 61.5608 30.7163C61.5395 30.8544 61.5145 30.9916 61.4858 31.128C61.4359 31.3664 61.3702 31.6012 61.2889 31.8305C61.2778 31.863 61.2211 32.0052 61.2433 31.9553C61.2654 31.9054 61.199 32.0501 61.1904 32.0688C61.1399 32.1729 61.0832 32.2737 61.0206 32.3708C61.007 32.392 60.911 32.523 60.9566 32.4656C61.0021 32.4082 60.9122 32.5155 60.8975 32.5317C60.8605 32.5729 60.8224 32.6103 60.7831 32.649C60.7671 32.6652 60.7486 32.6802 60.7314 32.6952C60.6711 32.7513 60.8471 32.6228 60.7314 32.6952C60.6466 32.7508 60.5591 32.802 60.4692 32.8487C60.4089 32.8798 60.4963 32.8374 60.5024 32.8349C60.4717 32.8462 60.4422 32.8587 60.4114 32.8674C60.3548 32.8836 60.2994 32.8986 60.2428 32.9123C60.1012 32.9485 60.2772 32.9198 60.1689 32.9272C60.1037 32.9272 60.0397 32.936 59.9744 32.9372C59.9092 32.9385 59.8514 32.9372 59.796 32.9372C59.7407 32.9372 59.7074 32.9373 59.6631 32.926C59.5548 32.9135 59.7333 32.9385 59.6287 32.9185C59.1351 32.8348 58.6839 32.5842 58.3487 32.2074C57.9721 31.7899 57.6661 31.3122 57.443 30.7936C57.4159 30.735 57.3888 30.6751 57.363 30.6165L57.3125 30.4917C57.3125 30.5055 57.3371 30.5516 57.3125 30.4917C57.2596 30.367 57.2103 30.2347 57.1623 30.1037C57.0627 29.8354 56.9716 29.5634 56.8842 29.2902C56.8411 29.1351 56.7393 29.0036 56.601 28.9244C56.4627 28.8452 56.299 28.8246 56.1458 28.8672C55.5787 29.1598 54.9501 29.3084 54.3138 29.3004C53.6776 29.2923 53.0528 29.1278 52.4931 28.821C52.0511 28.5372 51.6765 28.1579 51.396 27.71C51.1156 27.2622 50.9363 26.757 50.8711 26.2307C50.8292 25.8165 50.3788 25.421 49.9714 25.7079C49.2396 26.235 48.4266 26.6352 47.5654 26.8921C46.7844 27.1252 45.9629 27.1852 45.1569 27.068C44.4532 26.9678 43.7859 26.6889 43.217 26.2572C42.6481 25.8255 42.1961 25.255 41.903 24.5987C41.8727 24.4984 41.8176 24.4076 41.743 24.3349C41.6684 24.2622 41.5767 24.21 41.4767 24.1832C41.3766 24.1565 41.2714 24.1561 41.1712 24.1821C41.0709 24.2081 40.9788 24.2596 40.9037 24.3317C39.2302 25.6867 37.2993 26.6776 35.2314 27.2427C35.0808 27.2874 34.9536 27.3903 34.8772 27.5293C34.8008 27.6683 34.7813 27.8322 34.8229 27.9856C34.8646 28.139 34.9641 28.2696 35.0999 28.3494C35.2357 28.4291 35.397 28.4515 35.5489 28.4117" fill="#161616"/>
<path d="M62.7888 29.0907C63.0332 28.8767 63.2054 28.5905 63.2811 28.2722C63.8657 26.4069 62.8381 23.617 62.0972 21.94C60.723 18.5585 58.2576 15.7498 55.1044 13.9733C52.7741 12.6604 50.2107 11.8274 47.5617 11.5225C44.9128 11.2176 42.2304 11.4467 39.6691 12.1966C35.006 13.463 30.4315 16.3141 29.234 21.3524C29.1537 21.6017 29.1443 21.8689 29.207 22.1234C29.4261 22.776 30.3146 22.7935 30.9915 22.6937C35.322 21.8646 39.7746 21.9495 44.0713 22.9431C48.0427 24.0486 51.9945 24.6301 55.8625 26.2809C57.1211 26.8182 58.367 27.3859 59.6001 27.984C60.6696 28.5043 61.9753 29.6934 62.7827 29.0882" fill="#3F9CB2"/>
<path d="M63.2123 29.5186C63.7003 29.0304 63.9875 28.3727 64.0159 27.6782C64.0847 27.0123 64.0573 26.3398 63.9347 25.6819C63.687 24.3643 63.2798 23.0828 62.7224 21.8663C61.7333 19.4554 60.2339 17.2942 58.3301 15.5354C56.1131 13.6075 53.4886 12.2222 50.6593 11.4866C47.6541 10.7014 44.5158 10.5929 41.4648 11.1684C38.85 11.6081 36.3431 12.5536 34.0806 13.9533C31.9381 15.2592 30.2399 17.1972 29.2132 19.5082C28.944 20.1146 28.7434 20.75 28.6151 21.4022C28.5158 21.8107 28.5753 22.2423 28.7812 22.6075C28.9724 22.8923 29.251 23.105 29.5738 23.2126C30.1964 23.3752 30.8489 23.3804 31.474 23.2276C32.2526 23.1153 33.0321 23.0201 33.8123 22.9419C37.0144 22.5406 40.2605 22.6946 43.4117 23.3973C44.9956 23.7941 46.5721 24.2108 48.1609 24.5876C49.7498 24.9644 51.3238 25.3462 52.8757 25.8353C54.4466 26.3462 55.985 26.9546 57.4822 27.657C58.2033 27.9852 58.9455 28.2996 59.6347 28.6914C60.184 29.043 60.7526 29.3625 61.3379 29.6484C61.6075 29.7925 61.9088 29.8649 62.2135 29.859C62.5183 29.8531 62.8166 29.769 63.0806 29.6146C63.2138 29.5303 63.3102 29.3976 63.35 29.2435C63.3898 29.0895 63.3701 28.9259 63.2947 28.7862C63.2137 28.6487 63.0827 28.5489 62.9299 28.5084C62.7771 28.4678 62.6147 28.4896 62.4776 28.5691C62.4329 28.6025 62.3851 28.6313 62.3348 28.6552C62.4579 28.604 62.2918 28.6552 62.2745 28.6552C62.4099 28.629 62.2376 28.6477 62.2167 28.6552C62.0628 28.6639 62.304 28.6876 62.1477 28.6489C61.8943 28.5886 61.6512 28.4902 61.4265 28.357C60.8801 28.0588 60.3694 27.6969 59.8082 27.4249C58.3314 26.705 56.8299 26.0112 55.3014 25.4098C52.3385 24.3683 49.311 23.5264 46.2386 22.8895C44.747 22.5227 43.2849 22.0722 41.7577 21.8401C40.1942 21.6067 38.6142 21.5057 37.0342 21.5382C35.4738 21.5741 33.9165 21.6944 32.3688 21.8988C31.9766 21.9487 31.5852 22.0015 31.1946 22.0572L30.919 22.0972C30.6285 22.1396 31.0162 22.0972 30.8033 22.1122C30.6552 22.1273 30.5065 22.1344 30.3578 22.1334C30.295 22.1334 30.2347 22.1334 30.167 22.1234C29.9738 22.1047 30.2655 22.1521 30.0821 22.1072C30.0243 22.0944 29.9672 22.0786 29.9111 22.0597C30.0194 22.0984 29.8606 22.0335 29.8483 22.0261C29.7178 21.9512 29.8962 22.0984 29.7978 21.9861C29.6993 21.8738 29.8138 22.066 29.7634 21.9287C29.7978 22.0223 29.7572 21.9113 29.7559 21.8726C29.7546 21.7814 29.7645 21.6905 29.7855 21.6018C30.3318 19.351 31.6072 17.3511 33.4074 15.9222C35.2304 14.4907 37.3208 13.4491 39.5523 12.8603C42.3016 12.0532 45.1847 11.8248 48.0243 12.189C50.8644 12.5795 53.5802 13.6178 55.9672 15.226C57.9168 16.5673 59.5297 18.3526 60.677 20.439C61.2689 21.4919 61.7676 22.5959 62.1674 23.7379C62.6395 24.9007 62.868 26.1504 62.8382 27.4075C62.8369 27.8736 62.665 28.3227 62.3557 28.6677C62.2443 28.7817 62.1818 28.9357 62.1818 29.0963C62.1818 29.2568 62.2443 29.4108 62.3557 29.5249C62.47 29.6344 62.6212 29.6954 62.7785 29.6954C62.9357 29.6954 63.087 29.6344 63.2012 29.5249" fill="#161616"/>
<path d="M65.0705 55.6684C63.0947 55.0765 60.9781 55.1918 59.0762 55.9949C57.1743 56.7981 55.6028 58.2401 54.6256 60.079C53.1847 62.8286 52.6897 65.9869 53.2189 69.0539C53.3665 70.0237 53.7252 70.9481 54.2688 71.7599C54.8125 72.5718 55.5275 73.2509 56.3621 73.7478C57.6056 74.3173 58.9628 74.5856 60.3262 74.5314C62.5705 74.7259 64.8137 74.144 66.6901 72.8806" fill="#FFD97B"/>
<path d="M65.7746 55.1044C64.6337 54.7357 63.4318 54.6009 62.2391 54.708C61.0463 54.8151 59.8865 55.162 58.8273 55.7283C57.7888 56.2555 56.8499 56.9638 56.0534 57.8207C55.1916 58.7883 54.5125 59.9083 54.0498 61.1247C52.9156 63.8227 52.6473 66.8141 53.2831 69.6752C53.5816 70.9283 54.1802 72.0876 55.0257 73.0503C55.981 74.079 57.2481 74.7545 58.6255 74.9694C60.1793 75.2257 61.7621 75.2463 63.3219 75.0305C64.8924 74.8719 66.3912 74.2846 67.6588 73.3311C67.7702 73.2171 67.8328 73.0631 67.8328 72.9025C67.8328 72.742 67.7702 72.588 67.6588 72.4739C67.4127 72.2244 67.0939 72.3092 66.8133 72.4739C65.7935 73.1133 64.6676 73.5593 63.4904 73.7903C62.249 73.9758 60.9902 74.0115 59.7405 73.8963C58.5106 73.858 57.3242 73.4261 56.3512 72.6623C55.5372 71.9276 54.9342 70.9835 54.6061 69.9298C53.8916 67.4084 53.9951 64.721 54.9014 62.2638C55.2512 61.1644 55.7754 60.1303 56.4534 59.2019C57.1107 58.3633 57.9146 57.6545 58.8249 57.1108C59.8036 56.4888 60.9046 56.0917 62.0508 55.9473C63.197 55.8029 64.3605 55.9146 65.4596 56.2748C65.5357 56.2974 65.6156 56.3044 65.6944 56.2955C65.7733 56.2865 65.8496 56.2617 65.919 56.2225C65.9883 56.1833 66.0492 56.1305 66.0982 56.0672C66.1472 56.0039 66.1833 55.9314 66.2043 55.8538C66.2254 55.7763 66.2311 55.6952 66.2209 55.6154C66.2108 55.5356 66.1851 55.4586 66.1453 55.389C66.1055 55.3194 66.0525 55.2585 65.9893 55.2098C65.9261 55.1612 65.8539 55.1257 65.7771 55.1056" fill="#161616"/>
<path d="M49.4322 60.6843L48.7479 62.652C48.5436 63.2397 49.0912 63.6302 49.6094 63.2683L51.32 62.0743L58.3178 53.0545L56.4311 51.6646L49.4322 60.6843Z" fill="#FFD97B"/>
<path d="M49.1996 64.0142C48.9572 64.0158 48.7212 63.9354 48.5289 63.7859C48.3377 63.6303 48.2008 63.4166 48.1386 63.1762C48.0763 62.9359 48.0919 62.6816 48.183 62.4509L48.8673 60.4832C48.889 60.4206 48.9206 60.3621 48.9608 60.3098L55.9585 51.29C56.0543 51.1672 56.1931 51.0865 56.346 51.0649C56.4989 51.0433 56.6542 51.0824 56.7794 51.174L58.6673 52.5652C58.7325 52.6129 58.7875 52.6734 58.8291 52.7431C58.8708 52.8129 58.8982 52.8904 58.9097 52.9711C58.9212 53.0517 58.9165 53.1339 58.896 53.2127C58.8755 53.2915 58.8395 53.3654 58.7903 53.4298L51.7926 62.4496C51.7556 62.4976 51.7116 62.5397 51.6622 62.5744L49.9516 63.7672C49.733 63.9256 49.4719 64.0126 49.2033 64.0167M49.9663 60.9773L49.3682 62.7003L50.909 61.6261L57.4661 53.1728L56.5468 52.4953L49.9663 60.9773Z" fill="#161616"/>
<path d="M60.586 62.9664C60.7242 62.0529 60.6688 61.1201 60.4235 60.23C60.1782 59.3399 59.7486 58.5131 59.1633 57.8046C57.9658 56.5382 55.9265 54.9848 54.0879 55.3092C53.2634 55.4791 52.5194 55.9255 51.9757 56.5765C51.4321 57.2275 51.1205 58.0451 51.0911 58.8976C51.0783 59.0077 51.1069 59.1186 51.1711 59.2083C51.2475 59.2754 51.3435 59.3153 51.4443 59.3218L52.5397 59.514C52.1229 59.6848 51.788 60.0133 51.6056 60.4298C51.5521 60.7123 51.5943 61.0048 51.7255 61.2598C51.8566 61.5149 52.0689 61.7175 52.328 61.8347C52.8529 62.0556 53.4212 62.15 53.9882 62.1105C53.8687 62.132 53.7552 62.1794 53.6554 62.2495C53.5557 62.3196 53.472 62.4108 53.4102 62.5168C53.3484 62.6227 53.3098 62.7409 53.2972 62.8633C53.2846 62.9857 53.2983 63.1093 53.3372 63.2259C53.4336 63.4568 53.595 63.6537 53.8012 63.7922C54.0073 63.9307 54.2492 64.0045 54.4965 64.0045C54.9924 63.995 55.4752 63.8422 55.8884 63.564C55.817 63.7549 55.8082 63.9641 55.8632 64.1605C55.9181 64.3569 56.034 64.5301 56.1936 64.6546C56.5206 64.8969 56.9007 65.0553 57.3012 65.1162C57.9758 65.3369 58.7046 65.3166 59.3663 65.0588C59.7168 64.83 60.0098 64.5216 60.2222 64.158C60.4345 63.7943 60.5604 63.3855 60.5896 62.9639" fill="#FFD8C7"/>
<path d="M61.1618 63.1271C61.3603 61.8146 61.2103 60.4722 60.7274 59.238C60.4848 58.606 60.1382 58.0204 59.7022 57.5061C59.2633 57.0164 58.7786 56.5709 58.2549 56.176C57.2129 55.2605 55.8972 54.7274 54.5198 54.6626C53.4848 54.7314 52.5088 55.1758 51.7707 55.9145C51.0325 56.6533 50.5815 57.6369 50.5003 58.6852C50.4569 58.9011 50.481 59.1252 50.5692 59.3265C50.6575 59.5278 50.8055 59.6962 50.9926 59.8081C51.2173 59.8994 51.4541 59.9562 51.6953 59.9766L52.3808 60.1013L52.2381 58.9934C51.7819 59.2063 51.4 59.5543 51.1427 59.9916C51.0242 60.2363 50.9674 60.5069 50.9772 60.7793C50.9871 61.0517 51.0634 61.3173 51.1994 61.5525C51.5174 61.9837 51.9444 62.3201 52.4352 62.526C52.9259 62.732 53.4624 62.8 53.9881 62.7228V61.51C53.7236 61.5432 53.4731 61.6493 53.2638 61.8166C53.0546 61.984 52.8946 62.2064 52.8012 62.4595C52.7078 62.7126 52.6846 62.9868 52.7342 63.2523C52.7838 63.5178 52.9042 63.7646 53.0824 63.9656C53.5031 64.3535 54.0453 64.5787 54.6137 64.6015C55.182 64.6244 55.7401 64.4433 56.1898 64.0903L55.3726 63.2606C55.2174 63.6326 55.2048 64.0499 55.337 64.4309C55.4693 64.8119 55.7369 65.1291 56.0876 65.3206C56.4152 65.5039 56.7697 65.6327 57.1375 65.7024C57.5352 65.801 57.9418 65.8586 58.3509 65.8745C58.7257 65.8928 59.0997 65.8261 59.4459 65.6794C59.7921 65.5326 60.1016 65.3094 60.352 65.0261C60.7864 64.479 61.0663 63.8227 61.1618 63.1271C61.2003 62.9719 61.1784 62.8076 61.1008 62.6683C61.0231 62.5289 60.8956 62.4252 60.7446 62.3784C60.5913 62.3358 60.4278 62.3564 60.2894 62.4356C60.1511 62.5149 60.0493 62.6464 60.0062 62.8014C59.8708 63.6498 59.546 64.5682 58.6008 64.653C58.0784 64.6763 57.5563 64.601 57.0611 64.431C56.853 64.3847 56.6624 64.2786 56.5123 64.1253C56.4819 64.0819 56.4559 64.0355 56.4348 63.9867C56.4348 63.9693 56.3929 63.8358 56.4138 63.9044C56.4027 63.8682 56.431 63.8033 56.4015 63.8707C56.4639 63.7537 56.4885 63.6198 56.4717 63.4879C56.4549 63.356 56.3976 63.2329 56.308 63.1358C56.2131 63.0438 56.0917 62.985 55.9615 62.968C55.8313 62.9509 55.6991 62.9765 55.5843 63.041C55.0982 63.3267 54.505 63.565 54.0607 63.2431C54.1112 63.2793 53.9611 63.1458 53.9697 63.1557C54.0152 63.2094 53.8958 63.0373 53.9044 63.0497C53.9389 63.0997 53.8774 62.925 53.8934 63.0497C53.8934 63.026 53.8995 62.8576 53.8859 62.9612C53.8859 62.9412 53.9401 62.7815 53.9032 62.8688C53.9181 62.8362 53.935 62.8045 53.9537 62.774C53.961 62.7629 53.9697 62.7529 53.9795 62.7441C54.0164 62.7228 54.0127 62.7216 53.9684 62.7378C54.0382 62.7212 54.0439 62.7158 53.9857 62.7216C54.1429 62.7172 54.2925 62.6519 54.4038 62.5391C54.515 62.4263 54.5794 62.2746 54.5838 62.1152C54.5815 61.955 54.5178 61.8022 54.4061 61.6889C54.2944 61.5757 54.1436 61.5111 53.9857 61.5088C53.4245 61.5088 52.6504 61.5088 52.3045 61.0609C52.2308 60.9746 52.1822 60.8691 52.1642 60.7564C52.154 60.6809 52.1687 60.6042 52.2061 60.5381C52.3691 60.3174 52.5876 60.145 52.8387 60.039C52.9378 59.977 53.0171 59.8874 53.0671 59.7808C53.1171 59.6742 53.1357 59.5552 53.1206 59.4382C53.1055 59.3211 53.0574 59.2111 52.9821 59.1211C52.9067 59.0311 52.8073 58.9651 52.6959 58.931C52.3611 58.8723 52.0264 58.815 51.6917 58.7551L51.6005 58.7389C51.4488 58.6914 51.4767 58.7572 51.6842 58.936C51.699 58.9285 51.651 59.1145 51.6842 58.8998C51.6953 58.8312 51.6843 58.7539 51.6929 58.6852C51.6929 58.7002 51.7163 58.4793 51.704 58.5604C51.7756 58.0676 51.963 57.5995 52.2504 57.1954C52.511 56.8048 52.8582 56.4814 53.2643 56.2513C53.6703 56.0212 54.124 55.8907 54.5887 55.8703C55.6716 55.9639 56.698 56.4004 57.5226 57.1181C58.2045 57.5637 58.7802 58.1573 59.2082 58.856C59.6362 59.5547 59.9058 60.341 59.9976 61.1582C60.065 61.702 60.0671 62.2521 60.0037 62.7965C59.9653 62.9517 59.9871 63.1159 60.0648 63.2553C60.1424 63.3946 60.2699 63.4983 60.4209 63.5451C60.5741 63.5877 60.7378 63.5671 60.8761 63.4879C61.0144 63.4086 61.1163 63.2771 61.1594 63.1221" fill="#161616"/>
<path d="M30.0008 45.9326C29.4946 50.0709 29.1332 54.2233 28.9166 58.3898C28.913 58.4717 28.9257 58.5534 28.954 58.6302C28.9824 58.7069 29.0259 58.777 29.0817 58.8362C29.1376 58.8955 29.2047 58.9426 29.279 58.9748C29.3533 59.0071 29.4333 59.0237 29.5141 59.0237C29.5949 59.0237 29.675 59.0071 29.7493 58.9748C29.8236 58.9426 29.8907 58.8955 29.9465 58.8362C30.0024 58.777 30.0458 58.7069 30.0742 58.6302C30.1025 58.5534 30.1153 58.4717 30.1116 58.3898C30.3274 54.2258 30.6888 50.0734 31.1959 45.9326C31.1952 45.772 31.132 45.6181 31.0199 45.5045C30.9079 45.3909 30.7561 45.3268 30.5977 45.3262C30.4405 45.3306 30.2909 45.3959 30.1796 45.5086C30.0684 45.6214 30.004 45.7732 29.9996 45.9326" fill="#161616"/>
<path d="M52.328 21.9734C52.472 22.0372 52.6293 22.0634 52.7858 22.0496C53.1415 21.9847 53.2879 21.5504 53.3138 21.1861C53.313 20.1911 53.0086 19.2207 52.4424 18.408C51.8761 17.5953 51.0757 16.9801 50.1509 16.6469C46.9437 15.378 42.6068 15.6675 41.1829 19.3919C42.5883 19.7213 43.8904 20.0532 45.3081 20.2653C47.6923 20.6213 50.04 21.1938 52.3231 21.9759" fill="#38322F"/>
<path d="M52.1707 22.5588C52.3904 22.6544 52.6333 22.6818 52.8684 22.6374C53.1035 22.5929 53.3203 22.4787 53.4912 22.3092C53.7471 22.0014 53.8943 21.6159 53.9096 21.2137C53.9578 20.468 53.8194 19.7222 53.5072 19.0452C52.8722 17.677 51.739 16.6113 50.3456 16.0719C49.2388 15.5898 48.046 15.3435 46.8414 15.3482C45.6368 15.3529 44.446 15.6086 43.3429 16.0993C42.0797 16.7571 41.1044 17.8696 40.6083 19.2186C40.5663 19.374 40.5866 19.5399 40.6648 19.6801C40.7429 19.8204 40.8726 19.9236 41.0255 19.9673C41.9572 20.1856 42.8876 20.4164 43.8266 20.6061C44.7656 20.7957 45.7132 20.918 46.6572 21.0952C48.5281 21.4484 50.3722 21.935 52.1756 22.5513C52.2518 22.5739 52.3316 22.5809 52.4105 22.5719C52.4893 22.563 52.5657 22.5382 52.635 22.499C52.7043 22.4598 52.7653 22.4071 52.8143 22.3438C52.8633 22.2805 52.8994 22.2079 52.9204 22.1303C52.9415 22.0527 52.9471 21.9717 52.937 21.8919C52.9268 21.8121 52.9012 21.7351 52.8614 21.6655C52.8216 21.5958 52.7685 21.5349 52.7053 21.4863C52.6421 21.4376 52.57 21.4023 52.4931 21.3822C50.6902 20.7654 48.8465 20.2784 46.976 19.9249C46.0357 19.7477 45.0881 19.6254 44.1454 19.437C43.2027 19.2486 42.2772 19.0165 41.3443 18.7982L41.7615 19.5468C41.8543 19.3156 41.9637 19.0916 42.0889 18.8768C42.1529 18.767 42.2205 18.6584 42.2919 18.5549C42.3276 18.5037 42.3633 18.4525 42.4002 18.4026C42.4371 18.3527 42.4088 18.3914 42.4002 18.4026L42.4777 18.3065C42.6379 18.114 42.8123 17.9343 42.9996 17.7688C43.0439 17.7301 43.0894 17.6915 43.1349 17.654C43.1805 17.6166 43.1349 17.654 43.1349 17.654L43.2051 17.6003C43.3072 17.5255 43.4118 17.4531 43.5189 17.3857C43.7257 17.2565 43.9407 17.1415 44.1626 17.0414C44.2253 17.0127 44.1626 17.0414 44.1539 17.0414L44.2352 17.0077L44.3989 16.944C44.522 16.8991 44.645 16.8592 44.7681 16.8193C45.006 16.749 45.2476 16.6924 45.4917 16.6496L45.6689 16.6209C45.7391 16.6097 45.6689 16.6209 45.6591 16.6209L45.7489 16.6096C45.8794 16.5947 46.0098 16.5822 46.1403 16.5735C47.143 16.5021 48.15 16.6163 49.1124 16.9104C50.188 17.1754 51.1549 17.7748 51.8778 18.6247C52.2717 19.105 52.5453 19.6748 52.6753 20.2855C52.7062 20.4198 52.7248 20.5568 52.7306 20.6947C52.7447 20.8628 52.7447 21.0319 52.7306 21.2C52.722 21.2711 52.7306 21.2162 52.7306 21.2C52.7232 21.2449 52.711 21.2886 52.6999 21.3323C52.6888 21.376 52.647 21.3847 52.6445 21.457C52.6421 21.5294 52.6162 21.457 52.6445 21.457C52.6445 21.457 52.7073 21.4208 52.7073 21.4283C52.7073 21.4358 52.519 21.3722 52.5067 21.3685C52.3547 21.3287 52.1934 21.3511 52.0576 21.4308C51.9218 21.5106 51.8223 21.6412 51.7806 21.7946C51.739 21.948 51.7584 22.1119 51.8349 22.2509C51.9113 22.3898 52.0385 22.4929 52.1891 22.5376" fill="#161616"/>
<path d="M40.0679 40.0843C39.7945 39.4681 39.6507 38.8009 39.6456 38.1253C39.6406 37.4497 39.7743 36.7805 40.0384 36.1602C40.4912 35.5201 41.861 35.8894 42.4653 35.9655C43.633 36.1138 44.7758 36.4202 45.8633 36.8764C46.2115 36.987 46.5155 37.2078 46.7308 37.5064C46.847 37.7676 46.9003 38.053 46.8864 38.3391C46.8725 38.6252 46.7917 38.9039 46.6508 39.1522C45.9383 40.6807 44.9279 42.1542 43.2406 42.1804C42.5625 42.2075 41.893 42.0201 41.3246 41.6444C40.7561 41.2686 40.3169 40.7229 40.0679 40.083" fill="white"/>
<path d="M40.6437 39.9247C40.4373 39.406 40.3063 38.8596 40.2549 38.3027C40.2212 37.9683 40.2212 37.6313 40.2549 37.297C40.2635 37.2246 40.2549 37.2783 40.2549 37.297C40.2549 37.2645 40.2647 37.2321 40.2721 37.1996C40.2868 37.126 40.3016 37.0524 40.3201 36.9813C40.3385 36.9102 40.3607 36.8428 40.3841 36.7742C40.4074 36.7055 40.3841 36.7667 40.3841 36.7742C40.4032 36.7294 40.4246 36.6857 40.4481 36.6432C40.4616 36.6182 40.5539 36.4598 40.4899 36.5546C40.5157 36.5159 40.6007 36.4585 40.5157 36.5159C40.544 36.496 40.5736 36.481 40.6019 36.4635C40.5945 36.4635 40.5121 36.4972 40.5773 36.4722C40.6461 36.4481 40.7163 36.429 40.7877 36.4149C40.8554 36.4011 40.7816 36.4149 40.7693 36.4149C40.8087 36.4149 40.8481 36.4074 40.8924 36.4049C40.9527 36.4049 41.0154 36.4049 41.0732 36.4049C41.2283 36.4049 41.3834 36.4211 41.5372 36.4373L41.6296 36.4485C41.5348 36.4361 41.6295 36.4485 41.6504 36.4485L41.8511 36.481C41.9741 36.5009 42.0849 36.5209 42.2031 36.5396C42.6055 36.6008 43.0067 36.6556 43.4042 36.7417C44.215 36.9025 45.0058 37.1536 45.7622 37.4904C46.0317 37.6152 46.2348 37.7287 46.2902 38.0182C46.3145 38.3046 46.2614 38.5923 46.1363 38.8504C45.8846 39.4508 45.5534 40.0137 45.1518 40.5236C45.0484 40.6474 44.9387 40.7657 44.8232 40.8779C44.7241 40.9766 44.6176 41.0672 44.5044 41.1487C44.2771 41.3173 44.0203 41.4404 43.7476 41.5118C43.425 41.5887 43.0911 41.604 42.763 41.5567C42.4733 41.5064 42.1909 41.4197 41.9224 41.2984C41.3105 40.9753 40.8361 40.4366 40.5884 39.7837C40.5076 39.6457 40.3764 39.5454 40.2232 39.5048C40.07 39.4641 39.9071 39.4864 39.77 39.5666C39.6368 39.6509 39.5404 39.7837 39.5006 39.9377C39.4607 40.0917 39.4805 40.2554 39.5558 40.3951C39.8774 41.1508 40.4225 41.7865 41.1158 42.2145C41.8092 42.6425 42.6166 42.8417 43.4264 42.7845C44.2297 42.6454 44.9831 42.2959 45.6122 41.7706C46.2412 41.2454 46.724 40.5626 47.0126 39.7899C47.2818 39.4024 47.4406 38.9473 47.4717 38.4743C47.5027 38.0014 47.4047 37.5288 47.1885 37.1086C46.8864 36.729 46.4832 36.4454 46.0268 36.2914C45.0967 35.901 44.1255 35.6201 43.1322 35.4541C43.0256 35.4366 42.9189 35.42 42.8122 35.4042L42.5661 35.3693C42.3692 35.3431 42.5095 35.3618 42.5501 35.3693C42.3975 35.3456 42.2449 35.3194 42.0911 35.2932C41.3797 35.0891 40.6204 35.1438 39.9447 35.4479C39.619 35.7382 39.3672 36.104 39.2108 36.5141C39.0544 36.9242 38.998 37.3666 39.0463 37.8036C39.0404 38.6395 39.1942 39.4687 39.4992 40.2454C39.5453 40.3984 39.6477 40.5277 39.7851 40.6064C39.9225 40.6852 40.0846 40.7073 40.2377 40.6683C40.3906 40.6247 40.5203 40.5214 40.5984 40.3812C40.6766 40.2409 40.6969 40.075 40.6549 39.9197" fill="#161616"/>
<path d="M11.2336 7.96311C11.4182 7.23708 11.4333 6.47869 11.2778 5.74787C11.1629 5.24919 10.9218 4.78991 10.5781 4.41482C10.0372 3.8812 9.36024 3.50952 8.62158 3.34064C8.12083 3.21313 7.64612 2.99922 7.21831 2.70831L7.14742 2.65262C6.90698 2.49842 6.70316 2.29275 6.55027 2.05002C6.50351 1.9478 6.42052 1.86717 6.31758 1.82394C6.21463 1.78071 6.09917 1.77802 5.99387 1.81638C5.88871 1.85534 5.80185 1.93304 5.75078 2.0338C5.69971 2.13457 5.68825 2.25091 5.71869 2.35937L7.86852 10.0086C7.41721 9.88876 6.94127 9.89627 6.49234 10.0303C5.97232 10.1293 5.50973 10.4289 5.20284 10.8656C4.89594 11.3022 4.76894 11.8415 4.8488 12.3689C5.0551 12.8597 5.44336 13.2487 5.93096 13.453C6.41857 13.6573 6.96702 13.6608 7.45962 13.4628C7.97992 13.3641 8.44286 13.0646 8.75001 12.6278C9.05715 12.191 9.18428 11.6515 9.10435 11.1239L7.69838 6.12138C8.25239 6.15676 8.78671 6.33795 9.24831 6.64695C9.70992 6.95596 10.0828 7.38204 10.3298 7.88292C10.3034 7.98053 10.2711 8.07648 10.2333 8.17026C10.1829 8.27744 10.1765 8.40022 10.2156 8.51159C10.2548 8.62295 10.3362 8.71378 10.442 8.76408C10.5478 8.81439 10.6693 8.82006 10.7797 8.77984C10.8902 8.73963 10.9806 8.65682 11.0311 8.54963C11.1085 8.37717 11.1713 8.19844 11.2188 8.01539C11.2254 7.99847 11.2304 7.98097 11.2336 7.96311V7.96311Z" fill="black"/>
<path d="M68.7217 15.7574L67.7579 18.4597C67.6829 18.6698 68.4118 19.1325 69.3855 19.4945C70.3593 19.8565 71.2093 19.9795 71.2839 19.7705L72.2777 16.9842L68.7217 15.7574Z" fill="white"/>
<path d="M68.825 19.2988L68.6663 19.832C68.6624 19.9563 68.6977 20.0789 68.767 20.1824C68.8364 20.2859 68.9362 20.3649 69.0522 20.4081C69.1682 20.4512 69.2944 20.4562 69.4127 20.4225C69.531 20.3887 69.6353 20.3179 69.7106 20.2202L69.925 19.7078L68.825 19.2988Z" fill="#0054C6"/>
<path d="M68.7217 15.7574L67.7579 18.4597C67.6829 18.6698 68.4118 19.1325 69.3855 19.4945C70.3593 19.8565 71.2093 19.9795 71.2839 19.7705L72.2777 16.9842" stroke="black" stroke-width="0.440052" stroke-linecap="round" stroke-linejoin="round"/>
<path d="M70.3974 16.7106C73.8302 17.9869 77.6114 16.2226 78.8428 12.77C80.0743 9.31748 78.2898 5.48403 74.857 4.2078C71.4242 2.93156 67.6431 4.69583 66.4116 8.14839C65.1801 11.601 66.9646 15.4344 70.3974 16.7106Z" fill="#F3B200" stroke="#161616" stroke-width="1.00012"/>
<path d="M72.4863 16.2987C72.5865 16.0202 71.9088 15.5108 70.9726 15.1609C70.0364 14.8109 69.1962 14.753 69.096 15.0314C68.9958 15.3099 69.6735 15.8193 70.6097 16.1693C71.5459 16.5192 72.3861 16.5772 72.4863 16.2987Z" stroke="white" stroke-width="0.440052" stroke-linecap="round" stroke-linejoin="round"/>
<path d="M69.9853 15.1904C69.3025 13.1454 69.325 10.9339 70.049 8.91714C70.1658 8.61028 70.3536 8.33665 70.5969 8.11898C70.7197 8.01181 70.8693 7.94065 71.0298 7.91312C71.1903 7.8856 71.3556 7.90274 71.5081 7.96271C71.7427 8.09829 71.9222 8.31387 72.0138 8.57026C72.1916 8.98236 72.277 9.42824 72.2639 9.87579C72.2508 10.3233 72.1395 10.7614 71.938 11.1585C71.9087 11.2311 71.8557 11.2912 71.7877 11.329C71.7336 11.3437 71.6759 11.3393 71.6243 11.3165C71.5726 11.2937 71.53 11.2538 71.5035 11.2035C71.4553 11.0995 71.4363 10.9843 71.4485 10.8707C71.4626 10.372 71.5947 9.88514 71.8339 9.45074C72.0732 9.01633 72.4125 8.64701 72.8235 8.37365C73.4604 8.01222 73.9581 8.73456 74.0071 9.30198C74.0668 9.99782 73.8331 11.7744 72.9798 11.964C72.9219 11.9786 72.8607 11.9751 72.8044 11.9542C72.748 11.9332 72.699 11.8957 72.6638 11.8466C72.636 11.78 72.624 11.7079 72.6288 11.6361C72.6336 11.5644 72.6551 11.4949 72.6915 11.4333C73.0017 10.6964 74.3144 8.72806 75.3454 9.40908C76.4037 10.1056 75.1839 12.0753 74.7231 12.7325C73.8861 13.9296 72.8594 14.9784 71.6836 15.8376" stroke="black" stroke-width="0.440052" stroke-linecap="round" stroke-linejoin="round"/>
<path d="M67.9976 17.8037C67.9228 18.0123 68.6494 18.4716 69.6202 18.831C70.591 19.1905 71.4384 19.3126 71.5127 19.1051" stroke="black" stroke-width="0.440052" stroke-linecap="round" stroke-linejoin="round"/>
<path d="M68.2793 17.0195C68.2046 17.2281 68.9308 17.6886 69.9015 18.048C70.8723 18.4074 71.7197 18.5295 71.7944 18.3209" stroke="black" stroke-width="0.440052" stroke-linecap="round" stroke-linejoin="round"/>
<path d="M68.561 16.2349C68.4863 16.4435 69.2129 16.9028 70.1837 17.2622C71.1545 17.6216 72.0019 17.7437 72.0762 17.5363" stroke="black" stroke-width="0.440052" stroke-linecap="round" stroke-linejoin="round"/>
<path d="M77.1446 8.46111C77.5451 8.23537 77.6134 7.58789 77.2972 7.01492C76.981 6.44195 76.4 6.16046 75.9995 6.38619C75.5991 6.61193 75.5307 7.25941 75.8469 7.83238C76.1631 8.40535 76.7441 8.68684 77.1446 8.46111Z" fill="white"/>
<path d="M8.44588 37.6086C7.87871 38.5575 7.58449 39.6483 7.59643 40.7578C7.60837 41.8673 7.926 42.9514 8.51346 43.8875" stroke="black" stroke-linecap="round"/>
<path d="M80.2931 59.3482C80.9998 60.1955 81.4587 61.2262 81.6181 62.3239C81.7775 63.4217 81.631 64.5427 81.1952 65.5605" stroke="black" stroke-linecap="round"/>
<path d="M4.18955 37.1711C3.69104 38.6881 3.58068 40.3086 3.86882 41.8807C4.15696 43.4528 4.83416 44.9249 5.83693 46.1591" stroke="black" stroke-linecap="round"/>
<path d="M84.8784 58.2084C85.6057 59.6278 85.9656 61.2111 85.9243 62.81C85.8831 64.4089 85.442 65.971 84.6424 67.3498" stroke="black" stroke-width="1.00024" stroke-linecap="round"/>
</g>
<defs>
<clipPath id="clip0_150_2706">
<rect width="87" height="73.6154" fill="white" transform="translate(0.5 0.192383)"/>
</clipPath>
</defs>
</svg>
