<svg width="84" height="72" viewBox="0 0 84 72" fill="none" xmlns="http://www.w3.org/2000/svg">
<g clip-path="url(#clip0_150_2202)">
<path d="M44.9023 18.7339C48.7051 19.3607 51.7847 22.3665 53.5616 25.8182C55.3385 29.27 56.0332 33.1678 56.7705 36.9859C57.5078 40.804 58.347 44.6947 60.3598 48.0132C61.9008 50.5491 64.095 52.6985 65.1879 55.4604C66.2808 58.2222 65.7438 62.0392 63.0376 63.2132C62.7696 63.3109 62.51 63.4302 62.2612 63.57C61.7521 63.9966 61.3616 64.5481 61.1279 65.171C60.1909 66.9162 58.7553 68.3405 57.0055 69.2608C55.2557 70.1811 53.2716 70.5554 51.3082 70.3356C50.7394 70.1884 50.1409 70.2049 49.5811 70.3831C49.1906 70.6202 48.8474 70.9279 48.5688 71.2907C46.7539 73.1938 43.8059 73.3722 41.204 73.0748C35.7106 72.4636 30.5097 70.2747 26.2254 66.7708C21.9403 63.2323 18.8717 58.4319 17.4535 53.0482C16.5759 49.1524 16.2792 45.1476 16.5728 41.1644C16.6391 38.2344 17.0368 35.3214 17.7582 32.4815C18.8509 28.5735 20.909 25.0055 23.742 22.1083" fill="#896959"/>
<path d="M44.7483 19.2885C49.0844 20.0224 52.1854 23.7382 53.7845 27.6574C55.7166 32.395 56.0367 37.581 57.4307 42.4732C58.0818 44.8999 59.1228 47.204 60.5128 49.2946C62.0089 51.1586 63.3382 53.1515 64.485 55.2502C65.2611 56.8928 65.3666 58.7748 64.779 60.4944C64.5216 61.2222 64.0586 61.8591 63.4466 62.3274C63.0115 62.6342 62.5113 62.7603 62.0561 63.022C61.5643 63.3386 61.1715 63.7879 60.9229 64.3185C60.4783 65.2393 59.9099 66.0945 59.2337 66.8603C58.5492 67.5835 57.7566 68.1951 56.8842 68.6731C55.0979 69.6472 53.045 70.0145 51.0332 69.7198C50.3953 69.5783 49.7282 69.6649 49.1473 69.9648C48.7088 70.3045 48.305 70.687 47.9417 71.1067C47.1816 71.7702 46.2589 72.2182 45.2687 72.4043C43.1151 72.7536 40.9129 72.6548 38.7989 72.1141C34.1354 71.1815 29.7869 69.0684 26.1661 65.9754C22.7071 62.9888 20.091 59.1425 18.5797 54.822C16.8538 49.8001 16.8763 44.3442 17.264 39.1035C17.4122 36.4652 17.897 33.8569 18.7066 31.3423C19.4754 29.1059 20.5734 26.9975 21.964 25.0871C22.6267 24.1788 23.355 23.3205 24.1427 22.519C24.6572 21.9921 23.8535 21.1785 23.3367 21.7067C19.8164 25.339 17.4752 29.9562 16.6214 34.9499C16.1771 37.7123 15.948 40.5053 15.9363 43.3034C15.8518 46.1121 16.062 48.922 16.5634 51.6866C17.5186 56.4549 19.7447 60.8739 23.0047 64.4731C26.3009 68.0892 30.4706 70.7914 35.1111 72.3187C37.4186 73.1086 39.8201 73.5885 42.2531 73.746C44.4778 74.0112 46.7204 73.4269 48.5356 72.1094C48.906 71.7026 49.302 71.32 49.721 70.9639C50.1951 70.663 50.8685 70.8616 51.3877 70.9235C52.4455 71.044 53.5159 70.9894 54.5562 70.7617C56.6775 70.3048 58.6093 69.2088 60.0931 67.6204C60.8083 66.8114 61.4119 65.9097 61.8878 64.9394C61.998 64.7093 62.1353 64.4932 62.2968 64.2959C62.4835 64.0988 62.7148 63.9499 62.9712 63.8618C63.4664 63.6733 63.9295 63.4088 64.3439 63.0779C65.0332 62.4293 65.566 61.6316 65.9018 60.7453C66.2377 59.859 66.3677 58.9076 66.282 57.9633C66.0634 55.7397 65.2032 53.6282 63.8069 51.8876C63.0957 50.8837 62.3299 49.9203 61.6258 48.914C60.8997 47.8808 60.273 46.7808 59.7541 45.6288C57.6334 40.8829 57.33 35.5756 55.968 30.6037C54.7245 26.0636 52.3774 21.4616 48.0579 19.2171C47.1156 18.7213 46.1023 18.3754 45.0541 18.1918C44.9083 18.1577 44.755 18.1802 44.6251 18.2547C44.4951 18.3293 44.3981 18.4505 44.3535 18.5939C44.3147 18.7405 44.3347 18.8966 44.4092 19.0286C44.4836 19.1607 44.6066 19.2582 44.7518 19.3004" fill="#161616"/>
<path d="M11.0027 17.4531C10.9814 17.2366 11.2114 17.0879 11.4164 17.0225C11.9362 16.8751 12.4891 16.8966 12.996 17.084C13.5028 17.2714 13.9375 17.6151 14.2376 18.0657C14.5232 18.5281 14.6736 19.0617 14.6717 19.6057C14.6699 20.1498 14.5157 20.6823 14.2269 21.1428C13.928 21.5941 13.5213 21.9633 13.0439 22.2167C12.5665 22.4702 12.0335 22.5998 11.4935 22.5939" fill="#FFD8C7"/>
<path d="M11.5705 17.4521C11.5705 17.4806 11.5089 17.571 11.5196 17.5984C11.5196 17.5841 11.6204 17.5579 11.631 17.5555C11.695 17.5377 11.7602 17.5211 11.8266 17.5092C11.8745 17.4986 11.9234 17.4934 11.9725 17.4937C12.2222 17.4739 12.4733 17.5067 12.7097 17.59C13.1769 17.7391 13.5729 18.0559 13.8216 18.4797C14.0797 18.9659 14.1596 19.5274 14.0477 20.0666C13.9357 20.6058 13.6389 21.0885 13.2088 21.4307C12.7184 21.815 12.1133 22.022 11.4912 22.0183C11.3457 22.0277 11.2092 22.0924 11.1095 22.1991C11.0098 22.3058 10.9543 22.4466 10.9543 22.5928C10.9543 22.7391 11.0098 22.8799 11.1095 22.9866C11.2092 23.0933 11.3457 23.1579 11.4912 23.1673C12.3372 23.1814 13.1627 22.9052 13.8309 22.3843C14.4992 21.8634 14.9701 21.1292 15.1658 20.3032C15.3485 19.4477 15.1997 18.5546 14.7498 17.8053C14.3135 17.1241 13.6356 16.6346 12.8532 16.4363C12.0459 16.2353 10.4515 16.2995 10.4349 17.4521C10.4349 17.6035 10.4949 17.7487 10.6016 17.8558C10.7083 17.9628 10.8531 18.023 11.004 18.023C11.1549 18.023 11.2996 17.9628 11.4063 17.8558C11.513 17.7487 11.5729 17.6035 11.5729 17.4521" fill="#161616"/>
<path d="M67.2399 42.9236C67.2716 42.4876 67.4628 42.0788 67.7769 41.7758C67.8946 41.7029 68.0256 41.6541 68.1623 41.6323C68.2989 41.6104 68.4385 41.6159 68.5731 41.6484C68.7076 41.6809 68.8344 41.7398 68.9461 41.8217C69.0579 41.9035 69.1524 42.0068 69.2242 42.1255C69.4886 42.628 69.6146 43.1921 69.5893 43.7598C70.2428 43.4426 70.8988 43.131 71.5571 42.8249C72.0526 42.5965 72.6547 42.3776 73.0732 42.6786C73.2383 42.8318 73.3509 43.0335 73.395 43.2548C73.4391 43.4761 73.4123 43.7057 73.3185 43.9109C73.1274 44.3393 72.8538 44.7257 72.5136 45.048C72.9258 45.0169 73.3356 44.9597 73.7405 44.8767C73.9388 44.8351 74.1447 44.8504 74.3346 44.9209C74.5246 44.9914 74.6909 45.1142 74.8145 45.2751C75.1215 45.8032 74.6663 46.4955 74.2419 46.9891C74.3796 46.8644 74.5477 46.7784 74.7291 46.7398C74.9106 46.7011 75.099 46.7112 75.2753 46.769C75.4516 46.8268 75.6096 46.9303 75.7333 47.069C75.857 47.2077 75.942 47.3766 75.9797 47.5589C76.0048 47.9565 75.8973 48.3512 75.6741 48.6808C75.4509 49.0103 75.1247 49.2559 74.7469 49.3787C75.2329 49.1896 75.6763 49.7819 75.5708 50.2993C75.404 50.8105 75.0671 51.2485 74.6166 51.5399C73.5363 52.5094 72.2048 53.1526 70.7758 53.3955C67.2434 53.7416 63.9991 49.1063 66.0071 45.6986C66.6249 44.8807 67.0471 43.9313 67.241 42.9236" fill="#FFD8C7"/>
<path d="M67.7886 43.0759C67.8161 42.9152 67.8529 42.7564 67.8989 42.6001C67.9284 42.4988 67.9736 42.4029 68.0328 42.3158C68.0582 42.2728 68.0942 42.237 68.1374 42.212C68.1806 42.187 68.2295 42.1736 68.2794 42.1731C68.1715 42.1873 68.4252 42.1921 68.3635 42.1826C68.3019 42.1731 68.5414 42.2408 68.4548 42.2052C68.5722 42.2461 68.6738 42.3231 68.7452 42.4252C68.7132 42.3848 68.8092 42.5442 68.8092 42.5442C68.8437 42.6114 68.8715 42.6819 68.8922 42.7547C68.9759 43.0832 69.0189 43.4207 69.0202 43.7598C69.0221 43.8597 69.0496 43.9574 69.1002 44.0435C69.1508 44.1295 69.2227 44.201 69.309 44.2509C69.3953 44.3008 69.4929 44.3275 69.5925 44.3284C69.692 44.3292 69.7901 44.3042 69.8772 44.2558C70.3806 44.0108 70.8856 43.7697 71.3922 43.5326C71.7655 43.2969 72.1884 43.1515 72.6273 43.108C72.587 43.108 72.7696 43.1543 72.7233 43.1306C72.6985 43.1175 72.7826 43.19 72.7566 43.1543C72.7305 43.1187 72.8052 43.2329 72.8111 43.2483C72.7969 43.2162 72.8325 43.3589 72.8325 43.3554C72.8414 43.4255 72.8386 43.4967 72.8241 43.5659C72.6872 43.9804 72.4415 44.3502 72.1129 44.6364C72.0361 44.7178 71.9843 44.8197 71.9639 44.9298C71.9434 45.04 71.9552 45.1538 71.9976 45.2574C72.0401 45.3611 72.1114 45.4502 72.2031 45.5141C72.2949 45.5781 72.4031 45.614 72.5148 45.6177C72.9043 45.5935 73.2914 45.5398 73.6729 45.4571C73.804 45.4348 73.9376 45.43 74.07 45.4428C73.9894 45.4333 74.179 45.4702 74.1743 45.469C74.262 45.4952 74.1873 45.4571 74.268 45.5083C74.3486 45.5594 74.3011 45.5083 74.3402 45.5737C74.3059 45.5118 74.3402 45.5927 74.3402 45.6118C74.3402 45.5499 74.3402 45.7307 74.3402 45.7307C74.3462 45.6831 74.3094 45.8366 74.3035 45.8496C74.1936 46.1193 74.0353 46.3665 73.8365 46.5788C73.7338 46.6889 73.6767 46.8341 73.6767 46.985C73.6767 47.1358 73.7338 47.281 73.8365 47.3911C73.9438 47.4971 74.0883 47.5565 74.2389 47.5565C74.3894 47.5565 74.534 47.4971 74.6414 47.3911C74.7504 47.2793 74.7125 47.3138 74.8476 47.2722C74.7291 47.3031 74.9199 47.2722 74.9543 47.2722C75.0218 47.2722 75.023 47.2722 74.9543 47.2722C74.9886 47.2793 75.023 47.2877 75.0562 47.2972C75.0894 47.3067 75.1238 47.3186 75.1558 47.3317C75.1 47.3091 75.1037 47.3138 75.1629 47.3424C75.1937 47.359 75.2234 47.3781 75.253 47.3983C75.2087 47.361 75.2119 47.3642 75.2625 47.4078C75.2886 47.4316 75.3135 47.4566 75.336 47.4827L75.3431 47.4923C75.362 47.5223 75.3794 47.5532 75.3952 47.585C75.3775 47.5375 75.3751 47.5327 75.3881 47.5719C75.416 47.6635 75.4245 47.76 75.413 47.855C75.3902 48.0058 75.3325 48.1492 75.2447 48.2737C75.0852 48.5174 74.8553 48.7063 74.5856 48.8149C74.4424 48.8604 74.3216 48.9588 74.2479 49.0902C74.1742 49.2216 74.153 49.3761 74.1885 49.5226C74.2295 49.6681 74.3258 49.7915 74.4566 49.8665C74.5874 49.9414 74.7423 49.9619 74.8879 49.9235C75.0124 49.883 74.9294 49.8997 74.9093 49.908C74.8891 49.9163 74.812 49.8533 74.9211 49.908C74.9092 49.9021 74.8571 49.8723 74.9104 49.908C74.9851 49.9568 74.8642 49.8581 74.9282 49.9259C74.9721 49.9711 74.9389 49.9366 74.9282 49.9259C74.9502 49.9601 74.9703 49.9954 74.9886 50.0317C74.9543 49.9508 75.01 50.1935 75.0017 50.1019C74.9964 50.2183 74.9586 50.3308 74.8926 50.4266C74.8007 50.5698 74.6894 50.6995 74.5619 50.812C73.9691 51.3552 73.3089 51.8193 72.5977 52.1929C71.965 52.5575 71.2582 52.7738 70.5304 52.8257C70.3877 52.831 70.2449 52.8286 70.1025 52.8186C70.0361 52.8186 69.9709 52.8079 69.9045 52.7996C70.0029 52.8126 69.8061 52.7817 69.7753 52.7758C69.5022 52.7199 69.2345 52.6403 68.9752 52.5379C67.9488 52.0777 67.1037 51.2887 66.5724 50.2946C66.5045 50.1725 66.4408 50.048 66.3816 49.9211C66.3246 49.8056 66.2755 49.6864 66.2345 49.5643C66.1339 49.2833 66.0566 48.9945 66.0035 48.7007C65.9169 48.1629 65.9302 47.6137 66.0425 47.0807C66.111 46.7664 66.2223 46.463 66.3732 46.1791C66.5582 45.8223 66.781 45.4928 66.9861 45.1502C67.3712 44.5104 67.6378 43.8061 67.7732 43.0711C67.8084 42.9246 67.7868 42.7702 67.7129 42.639C67.6389 42.5079 67.5182 42.4098 67.3749 42.3646C67.2289 42.3258 67.0736 42.3463 66.9425 42.4215C66.8114 42.4967 66.7151 42.6207 66.6744 42.7666C66.5618 43.4475 66.3112 44.0981 65.9382 44.678C65.4977 45.3198 65.1624 46.0281 64.9449 46.7762C64.637 48.218 64.8883 49.7233 65.6478 50.9856C66.3622 52.2457 67.4949 53.214 68.8483 53.7214C69.6479 53.9593 70.4907 54.0134 71.314 53.8798C72.1373 53.7462 72.9201 53.4282 73.6041 52.9494C74.068 52.6588 74.5145 52.341 74.9412 51.9979C75.344 51.7165 75.6816 51.3514 75.9311 50.9274C76.0657 50.6921 76.1365 50.4255 76.1365 50.1542C76.1365 49.8829 76.0657 49.6163 75.9311 49.3811C75.8024 49.1492 75.5991 48.968 75.3546 48.8669C75.11 48.7658 74.8385 48.7508 74.5844 48.8244L74.8867 49.933C75.4595 49.7636 75.9427 49.3743 76.2312 48.8497C76.5198 48.325 76.5903 47.7073 76.4277 47.1307C76.3241 46.8912 76.1648 46.6802 75.9632 46.5152C75.7616 46.3503 75.5235 46.2363 75.2689 46.1827C75.0143 46.1291 74.7507 46.1375 74.5 46.2073C74.2493 46.277 74.0189 46.406 73.8281 46.5835L74.633 47.3959C75.2257 46.6953 75.886 45.6117 75.1344 44.7672C74.9804 44.6129 74.7972 44.4912 74.5953 44.4095C74.3935 44.3277 74.1773 44.2876 73.9597 44.2915C73.4666 44.2772 72.9948 44.4723 72.5029 44.4711L72.906 45.4524C73.3952 45.0116 73.7485 44.4396 73.9241 43.8038C74.0053 43.4844 73.9816 43.1472 73.8567 42.8423C73.7318 42.5374 73.5123 42.281 73.2307 42.1112C72.907 41.9956 72.5613 41.955 72.2197 41.9925C71.8781 42.03 71.5494 42.1446 71.2583 42.3277C70.598 42.6286 69.9424 42.9438 69.2905 43.2614L70.1475 43.7574C70.0989 42.6988 69.9105 41.4891 68.7642 41.1085C68.5172 41.0261 68.2528 41.0106 67.9979 41.0634C67.7429 41.1163 67.5064 41.2356 67.3121 41.4094C66.9588 41.7805 66.7368 42.2577 66.6803 42.7678C66.6451 42.9143 66.6667 43.0687 66.7406 43.1998C66.8146 43.331 66.9353 43.4291 67.0786 43.4743C67.2246 43.5134 67.3801 43.4931 67.5112 43.4178C67.6424 43.3425 67.7387 43.2184 67.7792 43.0723" fill="#161616"/>
<path d="M70.2614 52.8285C68.8216 51.1202 67.1524 49.6207 65.3017 48.3729C65.0257 48.0993 64.6934 47.8894 64.3281 47.7579C63.9629 47.6264 63.5735 47.5765 63.187 47.6116C62.6242 47.8325 62.1414 48.2194 61.8024 48.7214C61.5466 49.0179 61.2645 49.2906 60.9596 49.5362C57.9843 51.9317 52.662 53.6992 48.9766 51.9733C48.2316 51.5749 47.51 51.1337 46.8156 50.6519C45.8219 50.0425 44.7466 49.5787 43.6222 49.2745V49.2412C43.5819 49.2412 43.5404 49.2412 43.5037 49.2412C42.2419 48.9089 40.9358 48.7781 39.6334 48.8534C38.7237 48.648 37.8259 48.3931 36.9438 48.0898C34.1226 47.1328 31.2361 46.3815 28.307 45.8417C25.1432 45.1645 22.1245 43.9285 19.3918 42.1913C16.6428 40.5915 15.3733 37.0767 14.6383 34.1531C13.9397 31.37 13.505 28.5269 13.3403 25.6616C13.3784 25.0783 13.2059 24.5006 12.8543 24.0345C12.6021 23.8142 12.3034 23.654 11.9807 23.5658C10.23 22.9547 8.42452 22.5146 6.58952 22.2515C1.92977 21.583 1.36557 32.3463 1.37387 35.4841C1.36835 41.0358 2.97476 46.4689 5.99683 51.1193C7.6137 53.56 9.60753 55.7462 11.0371 58.3036C12.1573 60.309 13.1969 63.0613 12.6386 65.4045C12.4276 66.2859 10.2477 74.0494 10.2797 74.0613C18.6035 77.3727 27.3363 79.5362 36.2396 80.4926C36.7272 80.596 37.2351 80.5393 37.6882 80.3309C38.0973 80.0166 38.3928 79.5768 38.5298 79.0784C39.9435 75.4609 41.208 71.7883 42.323 68.0606C47.7082 67.7037 52.7106 67.8417 57.7995 65.7459C62.432 63.8251 66.5394 60.8202 69.7789 56.9821C71.0556 55.4703 71.4385 54.3653 70.2531 52.8273" fill="white"/>
<path d="M70.6632 52.4227C69.2669 50.7717 67.6567 49.3156 65.8755 48.0931C65.0279 47.4544 64.0002 46.7051 62.886 47.1059C61.895 47.4627 61.3449 48.4904 60.5566 49.128C59.125 50.2467 57.49 51.0749 55.7428 51.5663C54.3595 52.1184 52.8553 52.2934 51.3828 52.0736C49.9103 51.8538 48.5219 51.2471 47.3586 50.315C46.2511 49.605 45.0435 49.0661 43.7763 48.7164L44.1936 49.2707V49.2374C44.1927 49.0859 44.1325 48.9409 44.0261 48.8334C43.9197 48.726 43.7755 48.6647 43.6246 48.6629C43.2465 48.6203 42.8727 48.5463 42.5068 48.4416C42.1144 48.3774 41.7185 48.3227 41.3214 48.2953C40.9243 48.268 40.5414 48.2525 40.1514 48.2585C39.7691 48.2656 39.3878 48.2171 39.0194 48.1145C37.4784 47.7149 35.9884 47.1499 34.4616 46.7074C32.9348 46.265 31.4175 45.8879 29.8741 45.5656C28.4076 45.3072 26.9586 44.9572 25.5356 44.5177C24.2077 44.0499 22.9181 43.4792 21.6784 42.8108C20.4915 42.2769 19.3898 41.5699 18.4091 40.7126C16.7496 39.0617 15.9102 39.189 15.3152 36.9659C14.9169 35.4791 14.604 40.1239 14.3669 38.6026C14.1215 37.0444 14.0267 35.4838 13.8821 33.9162C13.8821 33.5812 13.8141 33.2497 13.6822 32.9419C13.5504 32.6341 13.3574 32.3565 13.1152 32.126C12.5155 31.7328 11.8482 31.4549 11.1474 31.3065C9.65928 30.8376 8.13354 30.499 6.58721 30.2943C3.23494 29.8709 1.9986 34.2373 1.49007 36.7661C1.25389 38.2264 1.21796 39.7123 1.38335 41.1825C1.58993 43.3015 2.22221 45.3566 3.24203 47.2237C3.81461 48.5531 4.49332 49.8339 5.27145 51.0537C6.05855 52.2859 6.95111 53.4444 7.83185 54.6101C9.69183 56.7871 11.0956 59.3179 11.9594 62.0513C12.267 63.1387 12.2988 64.286 12.0518 65.3888C11.9202 65.9039 11.7769 66.4165 11.6358 66.9351C11.196 68.5432 10.7479 70.1466 10.3058 71.7571C10.1446 72.3411 9.98334 72.924 9.83161 73.5092C9.79842 73.6281 9.76052 73.759 9.73445 73.8862C9.59931 74.5702 10.3591 74.7188 10.8523 74.9056C16.6172 77.1458 22.5784 78.8398 28.6579 79.9655C30.1879 80.2486 31.723 80.4956 33.2632 80.7065C34.0416 80.8136 34.8204 80.9115 35.5996 81.0003C36.3186 81.1695 37.0695 81.1449 37.7759 80.9289C38.0692 80.7722 38.3287 80.5589 38.5396 80.3013C38.7505 80.0437 38.9088 79.7469 39.0052 79.4279C39.3015 78.7035 39.5729 77.9672 39.8468 77.2333C40.4086 75.7267 40.9452 74.2114 41.4565 72.6873C41.9528 71.2052 42.425 69.7153 42.8731 68.2173L42.3242 68.6396C47.3088 68.3089 52.4071 68.3648 57.1641 66.6116C61.5306 64.9683 65.4781 62.3709 68.7204 59.0075C69.1732 58.5412 69.611 58.0615 70.0338 57.5682C70.4911 57.0757 70.8821 56.525 71.1967 55.9304C71.4576 55.3831 71.5543 54.7714 71.4749 54.17C71.3956 53.5685 71.1436 53.0032 70.7498 52.5428C70.671 52.4149 70.5463 52.3222 70.4013 52.2839C70.2564 52.2456 70.1023 52.2646 69.971 52.3371C69.841 52.4151 69.7468 52.5412 69.7087 52.6883C69.6705 52.8354 69.6915 52.9916 69.7671 53.1233C70.0878 53.4931 70.3035 53.9425 70.3918 54.4245C70.4143 54.8317 70.3099 55.2358 70.0931 55.5807C69.5019 56.5095 68.797 57.3602 67.995 58.113C66.4797 59.6878 64.8025 61.0972 62.9914 62.3177C61.1869 63.5438 59.2528 64.5662 57.2245 65.3662C55.0135 66.1956 52.7044 66.733 50.3553 66.9649C47.687 67.2587 44.9997 67.3134 42.3231 67.4906C42.1991 67.4945 42.0793 67.5373 41.9809 67.6131C41.8824 67.6888 41.8102 67.7937 41.7742 67.9129C40.98 70.5661 40.1107 73.1944 39.1664 75.7977C38.9372 76.4273 38.7037 77.0549 38.4658 77.6806C38.2724 78.2726 38.0383 78.8505 37.7652 79.41C37.4724 79.9429 37.0374 79.9893 36.472 79.9441C35.8153 79.8905 35.1586 79.8013 34.5054 79.7193C29.2388 79.0553 24.0345 77.9637 18.9437 76.4554C16.0632 75.6038 13.225 74.6221 10.4291 73.5104L10.8274 73.9124C10.8475 73.9719 10.8001 74.2621 10.838 74.1634C10.8515 74.12 10.8626 74.0759 10.8712 74.0313C10.9068 73.8946 10.9435 73.7578 10.9802 73.621C11.1043 73.1619 11.2296 72.7031 11.356 72.2448C11.6998 70.9983 12.0439 69.7521 12.3885 68.5064C12.6445 67.5798 12.9065 66.6544 13.146 65.7231C13.5327 63.8604 13.3253 61.9228 12.5533 60.185C10.902 55.9887 7.51422 52.883 5.3663 48.9769C3.25631 45.1386 2.82358 44.4142 2.32217 40.9267C2.21648 39.9165 2.21648 38.8979 2.32217 37.8877C2.55861 36.5925 2.93054 35.3258 3.43173 34.1088C3.6321 33.6051 3.88393 33.1236 4.18323 32.672C4.3089 32.4818 4.45348 32.3048 4.61473 32.1439C4.69415 32.063 4.77713 31.9869 4.8613 31.9119C4.94546 31.837 4.88499 31.8905 4.90514 31.8751C4.95888 31.8346 5.01385 31.795 5.06995 31.7561C5.3915 31.535 5.77184 31.4161 6.16165 31.4147C6.53373 31.4284 6.9039 31.4754 7.26766 31.5551C7.86194 31.6582 8.45265 31.7799 9.03981 31.9203C9.60563 32.0559 10.1667 32.2081 10.723 32.377C11.2728 32.4978 11.8047 32.6893 12.3056 32.9468C12.4585 33.0777 12.5787 33.2427 12.6567 33.4285C12.7347 33.6144 12.7683 33.816 12.7548 34.0173C12.801 34.612 12.8319 35.2174 12.8864 35.8169C13.1092 38.2564 13.5182 34.5275 14.1239 36.9005C14.5779 38.6763 15.1706 37.9924 16.1106 39.5696C16.5732 40.3663 17.1482 41.0919 17.8176 41.7237C18.5658 42.3597 19.3872 42.9036 20.2642 43.3437C22.1583 44.4348 24.1692 45.3075 26.2587 45.945C27.3706 46.265 28.5109 46.447 29.6382 46.6837C30.8165 46.9311 31.9869 47.2126 33.1494 47.5282C34.3118 47.8438 35.464 48.1934 36.606 48.5772C37.1987 48.7771 37.7914 48.9686 38.3995 49.1351C38.6745 49.21 38.9506 49.2814 39.2292 49.3456C39.5339 49.4053 39.8451 49.4253 40.155 49.4051C40.737 49.3946 41.319 49.4268 41.8963 49.5014C42.1725 49.5371 42.4463 49.5859 42.719 49.643C43.0146 49.732 43.3191 49.7883 43.627 49.8107L43.058 49.2362V49.2695C43.0584 49.3949 43.0994 49.5168 43.1749 49.6168C43.2503 49.7168 43.3562 49.7895 43.4764 49.8238C44.5514 50.1183 45.5798 50.5631 46.5312 51.1453C47.393 51.7533 48.3102 52.2782 49.2706 52.7129C51.0444 53.3123 52.949 53.407 54.7732 52.9865C56.6176 52.618 58.3811 51.9198 59.9794 50.9252C60.7894 50.4495 61.5264 49.8585 62.1676 49.1708C62.4362 48.7858 62.7823 48.4617 63.1835 48.2192C63.4159 48.1574 63.6598 48.1532 63.8942 48.2071C64.1286 48.2609 64.3465 48.3712 64.5289 48.5285C65.5004 49.1788 66.4307 49.8891 67.3145 50.6552C68.2536 51.4214 69.1066 52.2881 69.8583 53.2399C69.9652 53.3467 70.11 53.4067 70.2608 53.4067C70.4117 53.4067 70.5564 53.3467 70.6632 53.2399C70.7659 53.1297 70.8231 52.9845 70.8231 52.8337C70.8231 52.6828 70.7659 52.5376 70.6632 52.4275" fill="#161616"/>
<path d="M35.3435 104.174C35.7647 104.218 36.1863 104.258 36.6083 104.293C36.9272 104.322 39.7081 79.8991 39.9392 77.4738C40.3944 72.716 39.5492 68.0843 39.8432 63.3729C39.9696 61.3273 40.2549 59.2947 40.6966 57.2937C41.3261 54.439 42.2685 51.6676 42.8802 48.8117C42.9334 48.711 42.958 48.5974 42.9512 48.4836C42.9443 48.3697 42.9064 48.26 42.8415 48.1663C42.7766 48.0727 42.6872 47.9988 42.5832 47.9528C42.4792 47.9067 42.3646 47.8903 42.2519 47.9054L40.9136 47.7198C40.6875 47.6702 40.4533 47.6702 40.2272 47.7198C39.6654 47.8935 39.4757 48.5834 39.3619 49.1662C38.8702 51.69 38.1562 54.165 37.2283 56.5622C36.9347 57.3927 36.5452 58.1859 36.0678 58.9256C35.3873 59.9152 35.0838 60.1388 33.9518 59.9711C32.7866 59.7986 31.6249 59.6143 30.4691 59.393C28.2857 58.9712 26.1263 58.4427 23.9911 57.8075C22.9977 57.5113 21.868 57.1081 22.0363 55.8735C22.5484 52.1259 23.0653 48.3788 23.5868 44.632C23.6651 44.0694 23.6982 43.3903 23.2478 43.0513C23.0679 42.9346 22.8663 42.8557 22.6551 42.8193C21.817 42.6171 21.1283 42.0509 20.7146 42.9383C20.4519 43.8499 20.2929 44.7884 20.2405 45.7358C19.9038 47.6021 19.5292 49.4624 19.0325 51.2941C18.3011 54.0156 17.3422 57.4352 15.5191 59.6476C13.7895 61.4456 12.2483 63.4169 10.9198 65.5306C9.43921 68.4066 8.8501 72.1284 7.83778 75.2126C5.5974 82.0266 3.15155 88.7668 0.500241 95.4332C0.462309 95.5295 9.48193 98.6447 10.5168 98.8933L14.387 99.8103C14.8937 99.9961 15.4509 99.9877 15.9517 99.7866C16.2891 99.5501 16.5546 99.2244 16.7187 98.8457C17.4568 97.4977 18.2328 96.1746 19.0468 94.8765C19.1475 94.7148 19.3005 94.5304 19.4842 94.5744C19.6288 94.6089 19.7046 94.7671 19.7521 94.9098C20.1901 96.8939 20.4178 98.9189 20.4313 100.951C20.4334 101.151 20.4927 101.347 20.602 101.515C20.7628 101.673 20.971 101.775 21.1947 101.803C25.8567 102.885 30.5813 103.675 35.3411 104.168" fill="#7FDDAC"/>
<path d="M35.3434 104.749L36.1483 104.83C36.396 104.896 36.6582 104.884 36.8986 104.794C37.0363 104.707 37.1372 104.572 37.1819 104.416C37.2155 104.311 37.242 104.205 37.2614 104.097C37.3609 103.598 37.4321 103.093 37.5056 102.591C37.7829 100.688 38.0212 98.7848 38.2594 96.8733C38.5637 94.427 38.8589 91.9796 39.1449 89.5309C39.4176 87.2099 39.6859 84.8877 39.9498 82.5643C40.1217 81.0442 40.2947 79.5229 40.4548 78.0004C40.6705 74.3419 40.6421 70.673 40.3695 67.0183C40.2927 64.7119 40.42 62.4033 40.75 60.1195C41.1302 57.8236 41.6511 55.5534 42.3099 53.3218C42.6157 52.2192 42.9228 51.1166 43.1907 50.0033C43.392 49.4485 43.4868 48.8605 43.4704 48.2703C43.4226 48.0261 43.2961 47.8045 43.1104 47.6396C42.9246 47.4747 42.69 47.3757 42.4427 47.358C41.9021 47.2723 41.3568 47.1974 40.8128 47.1332C40.5662 47.0907 40.3132 47.1077 40.0745 47.1828C39.8358 47.2579 39.6184 47.3888 39.4401 47.5649C39.1524 47.8991 38.9566 48.303 38.8723 48.7365C38.7443 49.2646 38.6542 49.807 38.5344 50.3339C38.0387 52.5486 37.3647 54.7194 36.5193 56.8247C36.2136 57.7156 35.7323 58.5356 35.104 59.2358C35.0425 59.3037 34.9679 59.3583 34.8847 59.3963C34.7878 59.4318 34.6855 59.4503 34.5824 59.451C34.1081 59.4361 33.6361 59.3792 33.1718 59.2809C30.8857 58.9297 28.6187 58.4628 26.3795 57.8822C25.3724 57.6627 24.3821 57.3718 23.4161 57.0115C23.1448 56.9171 22.9028 56.7531 22.7143 56.5357C22.5778 56.2255 22.5572 55.8763 22.6562 55.552C22.9818 53.1732 23.3089 50.7943 23.6377 48.4154C23.7957 47.2466 23.9578 46.0781 24.1237 44.9101C24.2553 43.9585 24.279 42.8274 23.2323 42.4015C22.8471 42.2445 22.4251 42.1446 22.028 42.0126C21.8366 41.9324 21.6313 41.8911 21.424 41.8911C21.2166 41.8911 21.0114 41.9324 20.8201 42.0126C20.0081 42.4229 19.9108 43.6088 19.8255 44.4058C19.5683 46.5654 19.1511 48.7028 18.5773 50.8002C18.1377 52.6405 17.5649 54.4461 16.8632 56.2027C16.5019 57.0781 16.054 57.9149 15.5261 58.7005C14.9531 59.4751 14.334 60.2143 13.6722 60.9141C12.2511 62.3804 11.0561 64.0513 10.1267 65.8717C9.32412 67.7852 8.68602 69.7641 8.21942 71.7868C7.07789 76.1377 5.52385 80.3817 3.99945 84.6078C3.19734 86.8281 2.3731 89.0432 1.52673 91.2532C1.11106 92.338 0.689804 93.4204 0.263065 94.5004C0.105409 94.8989 -0.27391 95.471 0.105414 95.8492C0.194075 95.9282 0.297705 95.9885 0.410081 96.0265C1.10235 96.3214 1.81952 96.5617 2.52719 96.8138C3.66911 97.2198 4.81494 97.6187 5.96477 98.0104C7.01621 98.3673 8.06882 98.7241 9.12618 99.0714C10.1835 99.4187 11.2326 99.6566 12.3054 99.91L14.0064 100.313C14.5113 100.469 15.0401 100.534 15.5676 100.502C16.7269 100.354 17.1632 99.2213 17.6741 98.3149C18.2446 97.3039 18.8373 96.306 19.4522 95.3211C19.4628 95.3045 19.6169 95.0963 19.6133 95.0832C19.6098 95.0701 19.2079 95.0654 19.2103 95.0606C19.2127 95.0558 19.2494 95.1796 19.2577 95.2069C19.3336 95.4448 19.3964 95.6982 19.4485 95.9479C19.5495 96.4506 19.6192 96.9591 19.6572 97.4704C19.7414 98.4957 19.752 99.5246 19.8338 100.55C19.8111 100.818 19.8434 101.088 19.9286 101.344C20.0138 101.599 20.1502 101.834 20.3293 102.034C20.7774 102.311 21.2826 102.481 21.8063 102.53C24.0633 103.039 26.3341 103.478 28.6187 103.849C30.8543 104.213 33.099 104.511 35.3528 104.745C35.5039 104.744 35.6483 104.682 35.7548 104.575C35.8612 104.467 35.9213 104.322 35.9219 104.171C35.9192 104.02 35.8585 103.876 35.7524 103.769C35.6464 103.662 35.5032 103.6 35.3528 103.596C31.2346 103.167 27.1426 102.514 23.0948 101.641C22.5922 101.532 22.0904 101.42 21.5894 101.305C21.4172 101.292 21.2487 101.248 21.0915 101.177C20.9896 101.095 21.0026 100.883 20.9896 100.754C20.9066 99.8422 20.8912 98.9251 20.8343 98.0104C20.7968 97.0612 20.665 96.118 20.4407 95.195C20.417 94.9723 20.3456 94.7572 20.2314 94.5647C20.1173 94.3721 19.9631 94.2066 19.7793 94.0793C19.5573 93.9943 19.3115 93.9959 19.0906 94.0841C18.8698 94.1722 18.69 94.3403 18.5868 94.5551C18.0047 95.4068 17.4998 96.3262 16.9853 97.2206C16.7308 97.6639 16.4807 98.11 16.235 98.5588C16.069 98.8597 15.8936 99.2498 15.5356 99.3462C15.1223 99.3966 14.703 99.3477 14.3122 99.2034L12.7879 98.8466C12.0375 98.6682 11.2765 98.5148 10.5356 98.309C8.85002 97.8415 7.1952 97.2242 5.54159 96.6545C4.54745 96.3119 3.5553 95.9642 2.5651 95.6113C2.19763 95.4805 1.83019 95.3473 1.46509 95.2117C1.32877 95.1605 1.19123 95.1094 1.0561 95.0571L0.9174 95.0023C0.826126 94.9666 0.765671 94.9274 0.9174 95.0023C0.712329 94.8965 0.945881 95.0404 1.00871 95.1498C1.03478 95.2466 1.06047 95.3433 1.08576 95.44C1.08576 95.5947 1.20427 95.245 1.20427 95.2569L1.33703 94.9215C1.41053 94.7347 1.48406 94.5492 1.55756 94.3624C1.73378 93.9152 1.90882 93.4676 2.08267 93.0195C2.39878 92.198 2.71486 91.3753 3.03097 90.5514C3.65685 88.9044 4.27046 87.2523 4.87185 85.595C6.08884 82.244 7.25493 78.8739 8.36998 75.4847C9.33014 72.5635 9.80542 69.4614 11.0489 66.6377C11.6942 65.245 12.5393 63.9546 13.5572 62.8076C14.5292 61.6634 15.6127 60.5905 16.4768 59.3583C17.9865 56.889 19.0555 54.1744 19.6358 51.3366C20.0875 49.6381 20.4443 47.9134 20.7607 46.184C20.8876 45.4905 20.9208 44.7899 21.024 44.0929C21.0551 43.8013 21.124 43.515 21.229 43.2413C21.2551 43.1806 21.2907 43.1319 21.3203 43.0748C21.3357 43.0462 21.4069 43.001 21.363 43.0343C21.3191 43.0676 21.3701 43.0343 21.395 43.0343C21.3345 43.0462 21.4412 43.045 21.4685 43.051C21.7454 43.1239 22.0177 43.2133 22.284 43.3186C22.5045 43.3888 22.853 43.3935 22.9952 43.5969C23.1045 43.8455 23.1316 44.1228 23.0723 44.3879C23.0355 44.7876 22.9656 45.1848 22.9111 45.5774C22.659 47.3901 22.4085 49.2032 22.1596 51.0167C22.0371 51.9032 21.9153 52.7897 21.7944 53.6763L21.6119 55.0061C21.5292 55.4061 21.4847 55.8132 21.4791 56.2217C21.5621 57.6799 23.0438 58.1331 24.2055 58.4721C25.8832 58.9614 27.5779 59.3856 29.2896 59.7448C30.1589 59.9264 31.031 60.0902 31.9058 60.2361C32.7285 60.4021 33.5594 60.524 34.3951 60.6012C34.6602 60.6246 34.9274 60.5938 35.1804 60.5108C35.4335 60.4279 35.6671 60.2943 35.8673 60.1183C36.3492 59.6422 36.7454 59.086 37.0385 58.4745C37.8004 56.9237 38.4128 55.3035 38.8675 53.6358C39.1149 52.8159 39.3381 51.9893 39.5373 51.1559C39.7198 50.391 39.823 49.5941 40.0482 48.8424C40.1051 48.6509 40.1904 48.3666 40.392 48.2881C40.7093 48.2399 41.0334 48.2639 41.3403 48.3583L42.01 48.4511C42.1179 48.4665 42.3656 48.4594 42.4462 48.5367C42.3502 48.4427 42.3668 48.5795 42.3514 48.6652C42.3052 48.9173 42.2412 49.1671 42.1831 49.4157C41.3829 52.8365 40.2367 56.161 39.7009 59.6449C39.4248 61.3957 39.2692 63.1634 39.235 64.9356C39.2089 66.684 39.3026 68.4313 39.3915 70.1763C39.5769 72.7682 39.5606 75.3706 39.3429 77.96C39.0667 80.6017 38.7585 83.2399 38.455 85.8781C38.0275 89.5844 37.5854 93.2891 37.1286 96.9923C37.0282 97.7916 36.9267 98.5913 36.8239 99.3914C36.8002 99.5746 36.7765 99.7565 36.7528 99.9397C36.7425 100.019 36.7319 100.098 36.7208 100.178C36.7149 100.225 36.7089 100.273 36.7018 100.32C36.6805 100.486 36.7018 100.304 36.6912 100.401C36.6485 100.718 36.6051 101.038 36.5608 101.36C36.4423 102.201 36.3474 103.054 36.1672 103.884C36.1406 103.953 36.1219 104.025 36.1115 104.098C36.1115 104.166 36.1909 103.931 36.1554 103.992C36.1802 103.951 36.53 103.569 36.6295 103.725C36.4404 103.686 36.2477 103.667 36.0546 103.67L35.3647 103.601C35.2137 103.602 35.0693 103.664 34.9629 103.771C34.8564 103.879 34.7964 104.024 34.7957 104.175C34.7987 104.326 34.8595 104.47 34.9655 104.577C35.0714 104.684 35.2144 104.746 35.3647 104.75" fill="#161616"/>
<path d="M37.9892 46.2152L36.0654 50.3699C35.776 51.153 35.3007 51.8536 34.6808 52.411C33.8797 52.9297 32.921 53.146 31.9758 53.0212C30.4796 52.9211 29.0277 52.4701 27.7368 51.7045C27.4068 51.5459 27.1112 51.3235 26.8671 51.0499C26.623 50.7764 26.4351 50.4572 26.3144 50.1106C26.2415 49.6643 26.2625 49.2077 26.376 48.7701C26.6494 47.3015 26.9232 45.8345 27.1975 44.3691" fill="#FFD8C7"/>
<path d="M37.4985 45.9259C36.8417 47.3453 36.1846 48.7647 35.5271 50.1842C35.3063 50.7378 34.9977 51.2519 34.6132 51.7066C34.1949 52.1223 33.6455 52.3789 33.0592 52.4322C31.7605 52.5425 30.4546 52.3326 29.2552 51.8208C28.6656 51.5959 28.1078 51.2948 27.5957 50.9252C27.365 50.7845 27.1741 50.5867 27.0415 50.3507C26.9088 50.1147 26.8388 49.8485 26.8382 49.5775C26.8685 49.1994 26.9272 48.824 27.0137 48.4547L27.2591 47.1463L27.7486 44.5212C27.7838 44.3749 27.7624 44.2206 27.6887 44.0895C27.615 43.9583 27.4946 43.8601 27.3516 43.8147C27.2057 43.7759 27.0505 43.7962 26.9195 43.8712C26.7884 43.9462 26.692 44.0698 26.651 44.2155L26.1768 46.7467C26.0203 47.5793 25.8283 48.4214 25.7252 49.2659C25.6712 49.6487 25.7041 50.0389 25.8215 50.4072C25.9389 50.7754 26.1378 51.1123 26.4032 51.3926C26.9212 51.9047 27.5298 52.3154 28.1979 52.6035C29.5773 53.2849 31.0974 53.6305 32.6348 53.6121C33.3628 53.6114 34.0791 53.4282 34.7187 53.0792C35.3236 52.6953 35.8148 52.1556 36.1412 51.5163C36.5632 50.7539 36.8986 49.9379 37.2649 49.1469L38.487 46.5076C38.5588 46.375 38.5776 46.2201 38.5397 46.0741C38.5019 45.9281 38.4102 45.802 38.2832 45.7214C38.1525 45.6458 37.9974 45.6251 37.8516 45.6636C37.7058 45.7021 37.581 45.7968 37.5044 45.9271" fill="#161616"/>
<path d="M45.9302 43.9932C46.4659 44.4353 47.1027 44.737 47.7834 44.871C48.464 45.005 49.1672 44.9671 49.8297 44.7608C50.4922 44.5545 51.0931 44.1863 51.5786 43.6891C52.0641 43.192 52.4189 42.5816 52.611 41.9128C52.9266 40.8379 52.8051 39.6813 52.273 38.6961C51.741 37.7108 50.8418 36.9771 49.772 36.6555C48.9711 36.4159 48.1166 36.4246 47.3206 36.6805" fill="#FFD8C7"/>
<path d="M45.5283 44.3997C46.0538 44.8356 46.6648 45.1554 47.3217 45.3384C47.9785 45.5214 48.6664 45.5635 49.3406 45.4619C50.5077 45.2775 51.5631 44.6593 52.2969 43.73C52.9411 42.9304 53.3123 41.9442 53.3558 40.9169C53.3994 39.8896 53.113 38.8754 52.5388 38.0237C51.9646 37.172 51.133 36.5279 50.1664 36.1863C49.1999 35.8446 48.1495 35.8235 47.1701 36.1259C46.4719 36.3424 46.7695 37.4522 47.4724 37.2345C48.2386 36.983 49.0667 36.9967 49.8243 37.2734C50.5818 37.5501 51.225 38.0737 51.6509 38.7605C51.8999 39.1502 52.0702 39.585 52.1523 40.0404C52.3205 40.9668 52.1325 41.9227 51.626 42.7155C51.1352 43.4774 50.3792 44.0286 49.5054 44.2617C49.0186 44.3913 48.5101 44.4168 48.0129 44.3367C47.3994 44.2338 46.8217 43.9773 46.3332 43.5909C46.281 43.534 46.2177 43.4883 46.1474 43.4566C46.077 43.4248 46.0011 43.4077 45.924 43.4063C45.8468 43.4048 45.7702 43.419 45.6987 43.4481C45.6272 43.4771 45.5623 43.5204 45.5079 43.5753C45.4536 43.6301 45.4108 43.6955 45.3823 43.7674C45.3537 43.8393 45.3401 43.9163 45.342 43.9936C45.3439 44.071 45.3614 44.1472 45.3934 44.2176C45.4254 44.288 45.4713 44.3512 45.5283 44.4033" fill="#161616"/>
<path d="M21.9178 36.8552C21.3605 36.9193 20.7959 36.8695 20.2582 36.7089C19.1915 36.3877 18.2947 35.6562 17.7635 34.6739C17.2322 33.6916 17.1098 32.5384 17.4228 31.4659C17.7359 30.3934 18.4589 29.4887 19.4343 28.9492C20.4097 28.4097 21.5581 28.2792 22.629 28.5862C23.432 28.824 24.1453 29.2985 24.6762 29.9481" fill="#FFD8C7"/>
<path d="M21.9225 36.2806C21.2902 36.3667 20.6465 36.285 20.0555 36.0437C19.4645 35.8024 18.9469 35.4099 18.5541 34.9053C18.1614 34.4007 17.9073 33.8017 17.8172 33.1679C17.727 32.5341 17.804 31.8876 18.0404 31.293C18.2768 30.6983 18.6645 30.1762 19.1646 29.7786C19.6648 29.3811 20.26 29.122 20.891 29.0272C21.522 28.9325 22.1668 29.0053 22.761 29.2384C23.3552 29.4715 23.8782 29.8568 24.2778 30.356C24.3848 30.4625 24.5295 30.5223 24.6803 30.5223C24.8311 30.5223 24.9757 30.4625 25.0827 30.356C25.1854 30.2458 25.2425 30.1006 25.2425 29.9498C25.2425 29.7989 25.1854 29.6537 25.0827 29.5436C24.6711 29.0506 24.1643 28.6466 23.5927 28.3557C23.0212 28.0649 22.3968 27.8933 21.7573 27.8514C21.1178 27.8095 20.4765 27.8981 19.8721 28.1119C19.2676 28.3256 18.7127 28.6601 18.2407 29.0951C17.3224 29.9418 16.7679 31.1134 16.694 32.3625C16.6201 33.6117 17.0327 34.8408 17.8447 35.7905C18.3428 36.3729 18.9736 36.826 19.6835 37.1116C20.3934 37.3971 21.1614 37.5066 21.9225 37.4308C22.0721 37.4248 22.214 37.3623 22.3195 37.2557C22.4251 37.1492 22.4865 37.0064 22.4915 36.8563C22.4909 36.7047 22.4308 36.5595 22.3244 36.452C22.2179 36.3445 22.0735 36.2833 21.9225 36.2818" fill="#161616"/>
<path d="M21.4685 30.3119C20.6584 33.1063 20.692 36.0789 21.565 38.8541C22.438 41.6292 24.1112 44.0825 26.3733 45.9038C28.6353 47.7251 31.3847 48.8327 34.2738 49.0866C37.163 49.3406 40.0623 48.7294 42.6055 47.3305C45.1486 45.9315 47.2215 43.8075 48.562 41.2269C49.9025 38.6462 50.4505 35.7248 50.1369 32.8317C49.8233 29.9386 48.662 27.2037 46.7999 24.9726C44.9378 22.7415 42.4583 21.1144 39.6748 20.2968C35.9373 19.2251 31.9294 19.6756 28.5208 21.5506C25.1123 23.4256 22.5782 26.5738 21.4685 30.3119" fill="#FFD8C7"/>
<path d="M20.9208 30.1589C20.0353 33.1889 20.0977 36.4186 21.0998 39.4118C22.1018 42.405 23.9952 45.0176 26.5241 46.8967C29.0481 48.7716 32.0906 49.8124 35.2303 49.8751C38.37 49.9377 41.4513 49.0191 44.0476 47.2464C46.6733 45.467 48.685 42.9149 49.806 39.9412C50.9269 36.9675 51.102 33.7183 50.3071 30.6407C49.5123 27.563 47.7866 24.8081 45.3674 22.755C42.9482 20.7019 39.9543 19.4514 36.7978 19.1755C33.7041 18.9199 30.6065 19.6197 27.9205 21.1811C25.2345 22.7425 23.0886 25.0907 21.7707 27.9108C21.4318 28.6396 21.1473 29.3926 20.9196 30.1636C20.8868 30.3071 20.9104 30.4578 20.9855 30.5843C21.0607 30.7107 21.1815 30.8033 21.3228 30.8427C21.4642 30.882 21.6153 30.8652 21.7446 30.7957C21.874 30.7261 21.9716 30.6092 22.0173 30.4693C22.7547 28.0436 24.1286 25.8615 25.9952 24.1516C27.8617 22.4418 30.1522 21.267 32.6266 20.7505C35.1011 20.2339 37.6684 20.3946 40.0597 21.2156C42.451 22.0367 44.5782 23.4879 46.2186 25.4172C47.8589 27.3465 48.952 29.683 49.3834 32.1819C49.8147 34.6807 49.5684 37.25 48.6703 39.6205C47.7722 41.991 46.2553 44.0756 44.2785 45.6558C42.3017 47.2361 39.9378 48.2538 37.4344 48.6024H37.3952L37.2684 48.619L36.9828 48.6512C36.8018 48.6694 36.6204 48.6841 36.4387 48.6952C36.0625 48.7182 35.686 48.7269 35.309 48.7213C34.9321 48.7158 34.563 48.6956 34.2018 48.6607C33.8154 48.625 33.5582 48.5905 33.1765 48.5227C30.3022 48.0185 27.6527 46.6371 25.5893 44.5668C23.526 42.4966 22.1491 39.8383 21.6463 36.9542C21.522 36.2506 21.4526 35.5383 21.4388 34.8239C21.3993 33.3492 21.5942 31.8777 22.016 30.4646C22.0488 30.3211 22.0252 30.1704 21.9501 30.0439C21.8749 29.9175 21.7541 29.8249 21.6128 29.7855C21.4714 29.7462 21.3204 29.763 21.191 29.8325C21.0617 29.9021 20.964 30.0189 20.9184 30.1589" fill="#161616"/>
<path d="M39.7851 39.3446C39.6159 39.9281 39.6228 40.5488 39.8051 41.1283C39.9874 41.7078 40.3367 42.2201 40.809 42.6004C41.2814 42.9807 41.8554 43.212 42.4587 43.2651C43.062 43.3181 43.6674 43.1905 44.1985 42.8984C44.7295 42.6063 45.1623 42.1628 45.4423 41.624C45.7222 41.0851 45.8367 40.4751 45.7712 39.8709C45.7057 39.2668 45.4632 38.6958 45.0744 38.2299C44.6855 37.764 44.1678 37.4242 43.5866 37.2535C42.8062 37.0295 41.9692 37.1235 41.2575 37.515C40.5457 37.9065 40.0166 38.564 39.7851 39.3446" fill="#FFB9A1"/>
<path d="M23.1163 34.3885C22.9471 34.972 22.954 35.5927 23.1362 36.1722C23.3185 36.7517 23.6679 37.264 24.1402 37.6443C24.6126 38.0247 25.1866 38.256 25.7899 38.309C26.3932 38.3621 26.9987 38.2345 27.5297 37.9424C28.0607 37.6503 28.4935 37.2068 28.7735 36.6679C29.0534 36.129 29.1679 35.519 29.1024 34.9149C29.0369 34.3108 28.7944 33.7397 28.4056 33.2738C28.0167 32.8079 27.499 32.4682 26.9178 32.2975C26.1374 32.0735 25.3004 32.1674 24.5887 32.559C23.8769 32.9505 23.3478 33.6079 23.1163 34.3885" fill="#FFB9A1"/>
<path d="M35.9528 33.4201C35.8131 33.2797 35.6319 33.1883 35.4362 33.1596C35.2405 33.1309 35.0409 33.1664 34.8669 33.2607C34.6094 33.406 34.405 33.6303 34.2837 33.9007C34.0209 34.4178 33.9426 35.0098 34.062 35.5778C34.1022 35.7237 34.1983 35.8478 34.3294 35.9229C34.4604 35.998 34.6158 36.018 34.7615 35.9786C34.9049 35.9334 35.0259 35.8351 35.0998 35.7037C35.1738 35.5723 35.1952 35.4176 35.1597 35.2709C35.1503 35.2257 35.1432 35.1805 35.1372 35.1341C35.1432 35.1853 35.1514 35.2352 35.1574 35.2864C35.1365 35.1201 35.1365 34.9519 35.1574 34.7856C35.1514 34.8368 35.1444 34.8879 35.1372 34.9391C35.1611 34.7731 35.2057 34.6109 35.27 34.4561L35.2131 34.5929C35.2657 34.4663 35.3333 34.3464 35.4146 34.2361L35.3257 34.355C35.3607 34.3082 35.4004 34.2651 35.4442 34.2266L35.3257 34.317C35.3593 34.2911 35.3954 34.2688 35.4336 34.2504L35.2972 34.3087C35.3326 34.294 35.3696 34.2837 35.4075 34.2777L35.2557 34.2979C35.2865 34.2952 35.3175 34.2952 35.3482 34.2979L35.1965 34.2777C35.2265 34.2817 35.2559 34.2893 35.2842 34.3003L35.1479 34.242C35.1681 34.2511 35.1875 34.2619 35.206 34.2742L35.0874 34.1838C35.1048 34.1979 35.1211 34.2134 35.136 34.2301C35.2429 34.337 35.3876 34.397 35.5385 34.397C35.6894 34.397 35.834 34.337 35.9409 34.2301C36.0436 34.12 36.1007 33.9748 36.1007 33.824C36.1007 33.6731 36.0436 33.5279 35.9409 33.4178" fill="#161616"/>
<path d="M30.0472 32.3174C30.1491 32.3856 30.2483 32.4574 30.3447 32.5327L30.2262 32.4423C30.4618 32.6255 30.68 32.8302 30.8781 33.0537C30.9619 32.7365 31.0456 32.4166 31.1294 32.0938L29.9298 32.5601C29.7886 32.6044 29.6678 32.6981 29.5896 32.8241C29.5137 32.9585 29.4929 33.1172 29.5316 33.2666C29.5717 33.4107 29.6654 33.5338 29.7935 33.6104C29.8587 33.6496 29.9314 33.675 30.0069 33.6848C30.0824 33.6946 30.159 33.6887 30.2321 33.6675L31.4329 33.2012C31.5281 33.1743 31.6146 33.1231 31.6842 33.0527C31.7538 32.9822 31.804 32.8949 31.83 32.7992C31.8549 32.7011 31.8545 32.5983 31.8287 32.5005C31.803 32.4027 31.7529 32.3131 31.683 32.2401C31.3677 31.8906 31.0091 31.5828 30.6162 31.3243C30.5179 31.2672 30.405 31.2408 30.2917 31.2483C30.1785 31.2559 30.0701 31.2972 29.9803 31.3669C29.8905 31.4365 29.8234 31.5315 29.7876 31.6395C29.7518 31.7476 29.7489 31.864 29.7793 31.9737C29.8238 32.1155 29.9165 32.2372 30.0413 32.3174" fill="#161616"/>
<path d="M40.5177 34.6515C40.0468 34.6403 39.5764 34.689 39.1177 34.7966C39.0339 34.8212 38.9568 34.8645 38.892 34.9233C38.8272 34.9821 38.7766 35.0549 38.7438 35.1362C38.7111 35.2174 38.6971 35.3051 38.703 35.3925C38.7088 35.48 38.7343 35.5649 38.7775 35.6411L39.4948 36.7187C39.5717 36.8455 39.6923 36.9394 39.8337 36.9828C39.9434 37.0125 40.0595 37.0089 40.167 36.9722C40.2746 36.9356 40.3689 36.8677 40.4379 36.7772C40.5069 36.6866 40.5475 36.5775 40.5545 36.4638C40.5616 36.35 40.5347 36.2367 40.4774 36.1383L39.7661 35.0606L39.4259 35.9051C39.5698 35.871 39.7148 35.8441 39.861 35.8243L39.7093 35.8445C39.9787 35.8082 40.2506 35.7935 40.5224 35.8005C40.6743 35.8005 40.8199 35.7399 40.9273 35.6322C41.0347 35.5245 41.095 35.3783 41.095 35.226C41.095 35.0736 41.0347 34.9275 40.9273 34.8197C40.8199 34.712 40.6743 34.6515 40.5224 34.6515" fill="#161616"/>
<path d="M33.7053 42.4622C30.609 43.1759 31.0974 38.7595 31.2954 37.0753C31.3069 36.8868 31.3519 36.7019 31.4281 36.5293C32.9098 37.0979 34.5101 37.4606 36.0239 37.9899C36.1422 38.0138 36.254 38.0627 36.3521 38.1332C36.4502 38.2037 36.5323 38.2944 36.5928 38.3991C36.6408 38.5803 36.6275 38.7723 36.5549 38.9451C36.3512 39.7161 36.0271 40.45 35.5948 41.1194C35.1574 41.7912 34.482 42.2711 33.7053 42.4622" fill="white"/>
<path d="M33.5571 41.9115C33.486 41.9281 33.416 41.94 33.3437 41.9531C33.2311 41.9745 33.32 41.9531 33.3437 41.9531L33.2466 41.9626C33.1183 41.9718 32.9896 41.9718 32.8613 41.9626C32.7795 41.9626 32.9668 41.984 32.8886 41.9626L32.8091 41.9459C32.7582 41.9341 32.7084 41.9198 32.6574 41.9043C32.6065 41.8889 32.5388 41.846 32.6348 41.9043C32.5815 41.8746 32.5258 41.8496 32.4737 41.8163C32.4215 41.783 32.3255 41.6974 32.4417 41.7997C32.4049 41.7675 32.3682 41.7366 32.3326 41.7033C32.2971 41.67 32.2745 41.6415 32.2449 41.6093C32.2152 41.5772 32.2141 41.5713 32.1975 41.5522C32.1536 41.5023 32.2591 41.6533 32.2081 41.5641C32.1572 41.4749 32.0991 41.3917 32.0529 41.3001C32.0292 41.2525 32.0078 41.2049 31.9853 41.1562C32.0434 41.2834 31.9782 41.1324 31.9628 41.0848C31.8865 40.8604 31.829 40.6301 31.7909 40.3961C31.7802 40.3378 31.7719 40.2772 31.7636 40.2189C31.7826 40.3521 31.7636 40.1903 31.7565 40.1451C31.7439 40.0222 31.7344 39.8993 31.7281 39.7764C31.7034 39.2757 31.7106 38.7739 31.7494 38.2741C31.766 38.0362 31.7885 37.7924 31.8146 37.5521C31.8157 37.3071 31.852 37.0636 31.9225 36.829L31.28 37.093C32.1418 37.4213 33.0261 37.6794 33.9104 37.9387C34.3407 38.0648 34.7709 38.1921 35.1989 38.3277C35.398 38.3903 35.5956 38.4557 35.7916 38.5239L35.9895 38.5965C36.0156 38.6096 36.1591 38.6583 36.0773 38.6393C36.0595 38.5346 36.0523 38.5346 36.0571 38.6393C36.0468 38.6506 36.0391 38.664 36.0346 38.6786C36.0301 38.6932 36.0289 38.7086 36.031 38.7237C36.0061 38.832 35.9658 38.9402 35.9326 39.0461C35.8722 39.2364 35.8082 39.4255 35.7382 39.6123C35.5988 39.9923 35.4188 40.356 35.2013 40.697C34.8351 41.3044 34.2438 41.7411 33.5571 41.9115C33.4106 41.9517 33.286 42.0486 33.2108 42.181C33.1355 42.3134 33.1158 42.4704 33.1558 42.6174C33.1959 42.7644 33.2926 42.8894 33.4246 42.9649C33.5565 43.0404 33.7129 43.0602 33.8594 43.02C34.5943 42.7828 35.2572 42.3622 35.7857 41.7975C36.3142 41.2329 36.6911 40.5427 36.8809 39.7919C37.0429 39.4236 37.1492 39.0331 37.1962 38.6333C37.2018 38.4179 37.1451 38.2055 37.0329 38.0216C36.9208 37.8378 36.7581 37.6905 36.5644 37.5973C36.1936 37.4284 35.8094 37.2907 35.4158 37.1858C35.0305 37.0668 34.6429 36.9479 34.2565 36.8361C33.358 36.572 32.4595 36.3104 31.5835 35.9785C31.4623 35.945 31.3336 35.9527 31.2173 36.0005C31.101 36.0483 31.0039 36.1334 30.941 36.2426C30.7352 36.8325 30.629 37.4528 30.6268 38.0779C30.579 38.6177 30.566 39.16 30.5877 39.7015C30.5512 40.2735 30.645 40.8463 30.8618 41.3765C31.0787 41.9068 31.4131 42.3805 31.8395 42.7619C32.1408 42.942 32.4759 43.0578 32.8238 43.1023C33.1718 43.1467 33.5251 43.1187 33.8618 43.02C33.9343 43.0001 34.0022 42.966 34.0617 42.9198C34.1211 42.8735 34.1708 42.816 34.2081 42.7504C34.2454 42.6849 34.2694 42.6126 34.2788 42.5377C34.2882 42.4629 34.2829 42.3869 34.263 42.3141C34.2432 42.2413 34.2092 42.1731 34.1631 42.1135C34.117 42.0539 34.0597 42.0039 33.9944 41.9666C33.9291 41.9292 33.857 41.9051 33.7824 41.8956C33.7078 41.8862 33.632 41.8915 33.5595 41.9115" fill="#161616"/>
<path d="M54.2752 30.5657C53.788 23.548 46.837 18.3382 40.7192 16.3578C37.5918 15.4353 34.2738 15.3799 31.1175 16.1972C28.0066 16.7302 25.1301 18.198 22.8684 20.4067C20.8794 22.5857 18.0439 27.0081 20.5593 29.7355C23.2489 32.652 29.4058 26.9641 31.1092 24.8302C31.2277 25.8079 30.3873 26.8523 30.8793 27.7075C31.1855 28.1103 31.6261 28.389 32.1204 28.4925L39.1675 30.8452C40.2008 31.2604 41.3002 31.4852 42.4131 31.5089C42.9708 31.5127 43.5196 31.3681 44.0035 31.0898C44.4875 30.8115 44.8893 30.4094 45.1679 29.9246C45.3679 31.8612 45.9795 33.7323 46.9614 35.4115C47.6561 36.482 49.2765 38.2662 50.7096 38.1472C52.1427 38.0283 52.9618 35.7422 53.5106 34.6407C54.1219 33.3748 54.385 31.9679 54.2728 30.5657" fill="#896959"/>
<path d="M54.843 30.5644C54.5123 25.9946 51.6212 22.2193 48.0946 19.5549C46.3406 18.2408 44.4215 17.1646 42.387 16.3541C39.8829 15.2954 37.1586 14.8679 34.452 15.1088C31.7477 15.3024 29.0975 15.9652 26.619 17.0678C23.4704 18.5589 20.9761 21.1569 19.6086 24.3698C19.1742 25.3356 18.9685 26.3892 19.0076 27.4481C19.0654 28.5312 19.5316 29.5518 20.3116 30.3028C20.8857 30.8249 21.6302 31.1184 22.405 31.1282C23.1918 31.123 23.9688 30.952 24.6856 30.6263C25.5371 30.2607 26.3477 29.8058 27.1038 29.2691C28.5033 28.2915 29.7913 27.1623 30.9445 25.9018C31.1412 25.6865 31.3321 25.4677 31.5147 25.2405L30.5426 24.8349C30.5291 25.3715 30.4294 25.9025 30.2474 26.4073C30.1598 26.6912 30.1338 26.9907 30.1713 27.2855C30.2087 27.5804 30.3086 27.8637 30.4643 28.1166C30.8655 28.5931 31.4094 28.9268 32.0149 29.0681L34.1118 29.7675L38.2607 31.152C39.578 31.7131 40.9855 32.0306 42.4154 32.0893C43.0724 32.0909 43.7182 31.9191 44.2881 31.5911C44.858 31.2631 45.3319 30.7905 45.6622 30.2207L44.6215 30.0827C44.818 31.6765 45.2515 33.2317 45.9076 34.6966C46.5003 35.9414 47.3746 37.0301 48.4609 37.8759C48.8986 38.3119 49.4676 38.5905 50.0794 38.6686C50.6911 38.7467 51.3114 38.6198 51.844 38.3077C52.6995 37.5382 53.3513 36.5675 53.7406 35.4828C54.0905 34.7998 54.3758 34.0853 54.5929 33.3489C54.8185 32.4416 54.9013 31.5045 54.8383 30.5716C54.8353 30.4208 54.7745 30.2769 54.6685 30.1699C54.5626 30.0629 54.4196 30.001 54.2693 29.9971C54.1184 29.9989 53.9742 30.0602 53.8678 30.1676C53.7613 30.275 53.7013 30.4201 53.7003 30.5716C53.819 31.9484 53.5478 33.3308 52.9179 34.5598C52.7081 34.9999 52.5126 35.4471 52.2873 35.8801C52.1688 36.1108 52.0408 36.338 51.9009 36.5557C51.7886 36.7449 51.6554 36.9209 51.5038 37.0802C51.4241 37.1642 51.3398 37.2436 51.2513 37.3181C51.1719 37.3871 51.288 37.2979 51.2015 37.355C51.1458 37.393 51.0889 37.4299 51.0297 37.462C50.9965 37.4799 50.8945 37.5286 50.987 37.4906C50.9413 37.5094 50.8946 37.5257 50.8471 37.5393C50.8281 37.5393 50.6681 37.581 50.7285 37.5714C50.789 37.5619 50.6254 37.5774 50.591 37.5786C50.5241 37.5792 50.4573 37.5761 50.3907 37.5691H50.399C50.3705 37.5691 50.3409 37.5584 50.3125 37.5524C50.1746 37.5212 50.0394 37.479 49.9082 37.4263C49.8478 37.4014 49.8881 37.4168 49.9 37.4263L49.8135 37.3847C49.7558 37.3562 49.6988 37.326 49.6427 37.2943C49.5069 37.218 49.3752 37.1346 49.248 37.0445C48.3219 36.3645 47.5693 35.4743 47.0515 34.4468C46.3463 32.9765 45.8935 31.3973 45.712 29.7758C45.6808 29.6687 45.6193 29.5729 45.5348 29.5003C45.4504 29.4276 45.3467 29.3811 45.2364 29.3665C45.1262 29.3519 45.014 29.3697 44.9136 29.4179C44.8133 29.4661 44.7291 29.5425 44.6712 29.6379C44.4551 30.0168 44.1463 30.3342 43.774 30.5602C43.4018 30.7862 42.9782 30.9133 42.5434 30.9296C41.279 30.9144 40.0301 30.648 38.8688 30.1458L35.0328 28.8659L33.16 28.2403C32.6237 28.1061 32.1043 27.9114 31.6118 27.6598C31.5296 27.6159 31.4585 27.5538 31.4039 27.4781C31.3492 27.4025 31.3125 27.3153 31.2965 27.2233C31.2789 27.0163 31.3015 26.8079 31.3629 26.6095C31.5683 26.0401 31.6738 25.4393 31.6747 24.8337C31.6723 24.721 31.6374 24.6113 31.5743 24.518C31.5112 24.4248 31.4225 24.3518 31.319 24.308C31.2155 24.2623 31.1006 24.2493 30.9895 24.2705C30.8784 24.2918 30.7763 24.3463 30.6967 24.4269C29.7693 25.5506 28.7254 26.5721 27.5827 27.4743C26.931 28.0034 26.2429 28.486 25.5237 28.9182C25.1687 29.1303 24.8022 29.3225 24.426 29.4939L24.2838 29.557C24.4023 29.5082 24.2423 29.5724 24.2304 29.5772C24.1368 29.6153 24.0432 29.6509 23.9483 29.6842C23.7658 29.7497 23.5797 29.8032 23.3924 29.8555C23.2276 29.8972 23.0629 29.9293 22.8957 29.9566C23.0486 29.9316 22.8151 29.9638 22.7771 29.9673C22.6764 29.9757 22.5756 29.9804 22.4749 29.9804C22.4037 29.9804 22.3338 29.9804 22.2639 29.9745C22.2224 29.9745 22.1809 29.9661 22.1394 29.9638C21.9996 29.9566 22.2639 29.9923 22.1276 29.9638C21.9676 29.9322 21.8093 29.8925 21.6534 29.8448C21.6238 29.8353 21.5017 29.7758 21.6392 29.8448C21.6143 29.8329 21.5894 29.8234 21.5657 29.8103C21.4934 29.7723 21.4211 29.7354 21.3511 29.6914C21.3144 29.6688 21.1141 29.5177 21.2326 29.6117C21.1662 29.557 21.101 29.4999 21.0382 29.4392C20.9 29.3061 20.7764 29.1586 20.6695 28.9991C20.5996 28.8951 20.5351 28.7875 20.4763 28.6768C20.4324 28.5949 20.3929 28.5107 20.3578 28.4246C20.0534 27.5736 20.0388 26.6454 20.3163 25.7852C20.5962 24.807 21.0231 23.8773 21.5823 23.0281C22.07 22.2435 22.6304 21.5067 23.256 20.8276C24.0394 19.984 24.9489 19.2677 25.9516 18.7045C28.1078 17.5344 30.4571 16.7655 32.8861 16.435C35.5604 15.9721 38.3069 16.1705 40.8875 17.0131C42.7925 17.6666 44.6068 18.5607 46.2869 19.6739C49.6344 21.8791 52.6335 25.0942 53.4965 29.1193C53.6007 29.5932 53.6692 30.0743 53.7015 30.5585C53.7045 30.7093 53.7653 30.8532 53.8712 30.9601C53.9772 31.0671 54.1202 31.129 54.2705 31.133C54.4214 31.1311 54.5656 31.0699 54.672 30.9624C54.7784 30.855 54.8386 30.71 54.8395 30.5585" fill="#161616"/>
<path d="M67.4081 55.6628C66.7409 54.729 66.0021 53.8489 65.1985 53.0305C64.3597 52.2508 63.4586 51.5415 62.5042 50.9097C62.3735 50.8345 62.2185 50.814 62.0728 50.8525C61.927 50.891 61.8022 50.9855 61.7253 51.1155C61.6536 51.2481 61.6348 51.403 61.6727 51.549C61.7105 51.695 61.8022 51.8211 61.9292 51.9017C62.8043 52.4771 63.6288 53.1266 64.3937 53.8429C65.1321 54.5888 65.8114 55.3914 66.4254 56.2432C66.5044 56.371 66.6291 56.4635 66.7739 56.5018C66.9188 56.54 67.0728 56.5211 67.2042 56.449C67.3339 56.3707 67.428 56.2446 67.4661 56.0976C67.5042 55.9507 67.4834 55.7945 67.4081 55.6628" fill="#161616"/>
<path d="M19.6513 65.899C19.8531 64.7198 20.1733 63.5641 20.6068 62.4496L20.0579 62.8718C22.8563 62.9694 25.6324 63.4087 28.3248 64.1802C29.6904 64.5133 31.0512 64.8582 32.4298 65.1437C32.7202 65.2043 33.0142 65.2495 33.2999 65.3257C33.3639 65.3423 33.4267 65.3613 33.4895 65.3816C33.4753 65.3816 33.6685 65.4553 33.5939 65.4208C33.6512 65.4472 33.7063 65.4782 33.7586 65.5136C33.7823 65.5302 33.8392 65.5897 33.8167 65.554C33.8167 65.554 33.8914 65.7134 33.8677 65.6349C33.8876 65.695 33.8933 65.759 33.8843 65.8217C33.8702 65.9696 33.8473 66.1166 33.8155 66.2617C33.7492 66.6186 33.6733 66.9754 33.5784 67.3322C33.3145 68.6004 32.7193 69.7752 31.8537 70.7364C31.4705 71.1345 31.0167 71.4572 30.5154 71.688C30.2771 71.7933 30.0283 71.873 29.7733 71.9259C29.6548 71.9497 29.5363 71.9675 29.4177 71.9865L29.253 72.0103H29.2376L29.119 72.0246C28.1123 72.1519 27.0962 72.1861 26.0833 72.1269C25.5868 72.1013 25.0926 72.0425 24.6039 71.9509C24.0935 71.8573 23.591 71.7245 23.1008 71.5536C22.5961 71.379 22.1146 71.1425 21.6676 70.8494C21.2274 70.5657 20.8352 70.2131 20.506 69.8051C20.3164 69.5605 20.1498 69.299 20.0082 69.0236C19.8451 68.6954 19.7255 68.3471 19.6526 67.9876C19.5241 67.2982 19.5241 66.5908 19.6526 65.9014C19.6877 65.7549 19.6661 65.6004 19.5922 65.4693C19.5183 65.3381 19.3975 65.24 19.2543 65.1948C19.1083 65.1558 18.9528 65.1761 18.8216 65.2513C18.6904 65.3266 18.5942 65.4508 18.5537 65.5968C18.232 67.1125 18.4901 68.694 19.2768 70.0275C19.8968 70.9733 20.7602 71.7332 21.7755 72.2268C23.8728 73.1644 26.1836 73.5158 28.4635 73.2438C29.0061 73.2045 29.5459 73.1338 30.0804 73.0321C30.7358 72.8902 31.3536 72.61 31.8928 72.2101C33.0435 71.3237 33.9007 70.1095 34.3525 68.7263C34.597 68.0234 34.7845 67.3018 34.9132 66.5686C35.0348 66.1565 35.0491 65.7199 34.9547 65.3007C34.8345 64.9573 34.5951 64.6689 34.2802 64.4883C33.6634 64.2068 33.006 64.0253 32.3326 63.9506C31.6095 63.7948 30.8888 63.6236 30.1705 63.4487C27.2212 62.607 24.2012 62.0384 21.1485 61.7502C20.7849 61.7304 20.4214 61.7216 20.0579 61.724C19.9339 61.7279 19.8142 61.7707 19.7158 61.8465C19.6173 61.9222 19.545 62.0271 19.5091 62.1463C19.076 63.2609 18.7559 64.4166 18.5537 65.5957C18.5185 65.742 18.5398 65.8963 18.6135 66.0274C18.6872 66.1585 18.8077 66.2567 18.9508 66.3022C19.0968 66.3412 19.2522 66.3209 19.3834 66.2457C19.5146 66.1704 19.6108 66.0462 19.6513 65.9002" fill="#161616"/>
<path d="M19.2399 11.6983L17.4524 3.64819C17.3447 3.1503 17.0793 2.70076 16.6959 2.36683C16.3124 2.03291 15.8315 1.83254 15.325 1.79572C14.8186 1.7589 14.314 1.8876 13.8866 2.16256C13.4591 2.43753 13.1319 2.84397 12.9538 3.32109L10.0425 11.0299C9.8714 11.0684 9.71721 11.1613 9.60294 11.2948C9.48868 11.4284 9.42041 11.5953 9.40832 11.7709L9.09302 16.179L19.4462 16.9319L19.7603 12.5238C19.7732 12.3481 19.7293 12.1729 19.6351 12.0243C19.5409 11.8756 19.4016 11.7613 19.2376 11.6983" fill="#7FA1DB"/>
<path d="M8.73031 16.5193L8.71967 16.5063C8.63401 16.4053 8.59138 16.2745 8.60109 16.1423L8.91523 11.7342C8.93271 11.5014 9.0109 11.2773 9.14198 11.0844C9.27306 10.8914 9.45242 10.7365 9.66203 10.6352L12.4927 3.14166C12.7076 2.56323 13.1036 2.07029 13.6213 1.73674C14.139 1.4032 14.7505 1.24703 15.3641 1.29165C15.9777 1.33627 16.5603 1.57927 17.0247 1.98423C17.489 2.38919 17.8101 2.93427 17.9396 3.53775L19.6702 11.3643C19.8653 11.4937 20.0228 11.6725 20.1269 11.8826C20.231 12.0927 20.2779 12.3267 20.2629 12.5609L19.9429 16.9618C19.9383 17.0274 19.9208 17.0914 19.8916 17.1502C19.8623 17.2089 19.8217 17.2613 19.7722 17.3044C19.6739 17.3896 19.5461 17.4323 19.4166 17.4233L9.06341 16.6704C8.93771 16.6612 8.82028 16.6042 8.73508 16.511M16.5242 2.87879C16.1989 2.5348 15.756 2.32701 15.2843 2.29716C14.8835 2.25968 14.4818 2.35767 14.1429 2.57554C13.804 2.79342 13.5473 3.11869 13.4138 3.49968L10.5025 11.2085C10.4736 11.2858 10.426 11.3548 10.3639 11.409C10.3018 11.4632 10.2272 11.501 10.1469 11.5189C10.0805 11.5342 10.0208 11.5704 9.97647 11.6222C9.9321 11.674 9.90539 11.7387 9.90028 11.8068L9.62173 15.7153L18.9863 16.3968L19.2649 12.4883C19.2697 12.4202 19.2525 12.3524 19.216 12.2948C19.1795 12.2372 19.1256 12.1929 19.0621 12.1684C18.9856 12.1387 18.9175 12.0907 18.8638 12.0285C18.81 11.9663 18.7723 11.8918 18.7539 11.8115L16.9688 3.75898C16.9015 3.43104 16.748 3.12712 16.5242 2.87879" fill="#161616"/>
<path d="M5.27136 69.7422L5.41728 67.7099L15.7709 68.4585L15.6249 70.4907L5.27136 69.7422Z" fill="#7FA1DB"/>
<path d="M4.90757 70.0861C4.86145 70.0357 4.8261 69.9763 4.80368 69.9117C4.78126 69.847 4.77225 69.7785 4.7772 69.7102L4.92183 67.6774C4.9315 67.5451 4.99282 67.422 5.0925 67.3349C5.19094 67.25 5.31861 67.2073 5.4481 67.2159L15.8013 67.9689C15.9328 67.9789 16.055 68.0409 16.141 68.1412C16.227 68.2416 16.2698 68.3721 16.26 68.5041L16.1154 70.5357C16.1056 70.6679 16.0442 70.791 15.9447 70.8782C15.8463 70.9632 15.7186 71.0059 15.5891 70.9972L5.2359 70.2443C5.11023 70.235 4.99285 70.178 4.90757 70.0849M5.87605 68.2472L5.80255 69.2808L15.1671 69.9624L15.2406 68.9287L5.87605 68.2472Z" fill="#161616"/>
<path d="M5.00232 73.5161L5.27329 69.7423L15.6269 70.4908L15.3559 74.2646L5.00232 73.5161Z" fill="#F4F0ED"/>
<path d="M4.63369 73.8565L4.62182 73.8434C4.53616 73.7424 4.4936 73.6117 4.50331 73.4794L4.77238 69.7053C4.7769 69.6399 4.79419 69.5759 4.82332 69.5172C4.85245 69.4585 4.8928 69.4061 4.94212 69.363C4.99143 69.3199 5.04878 69.287 5.11077 69.2662C5.17275 69.2453 5.23821 69.2369 5.30343 69.2414L15.6578 69.9955C15.7231 69.9993 15.7869 70.0165 15.8452 70.0462C15.9036 70.0759 15.9552 70.1173 15.9968 70.168C16.0826 70.2689 16.1251 70.3997 16.1153 70.532L15.8462 74.3061C15.8368 74.438 15.7756 74.5609 15.6761 74.6476C15.5765 74.7344 15.4467 74.7779 15.3152 74.7688L4.96201 74.0158C4.83635 74.0065 4.71896 73.9495 4.63369 73.8565M5.72661 70.2774L5.52866 73.0524L14.8932 73.7339L15.0911 70.959L5.72661 70.2774Z" fill="#161616"/>
<path d="M8.9176 18.646L9.24824 14.0519L19.5975 14.8019L19.2669 19.3959L8.9176 18.646Z" fill="#F4F0ED"/>
<path d="M8.55373 18.9886C8.50718 18.9382 8.47146 18.8787 8.44882 18.8138C8.42618 18.749 8.41709 18.6801 8.42212 18.6116L8.75052 14.0144C8.76006 13.882 8.82141 13.7589 8.9212 13.6718C9.01957 13.5869 9.14729 13.5441 9.2768 13.5529L19.63 14.3058C19.6954 14.3099 19.7592 14.3273 19.8177 14.357C19.8762 14.3866 19.9281 14.4279 19.9702 14.4783C20.0558 14.5792 20.0985 14.71 20.0887 14.8422L19.7687 19.4359C19.7643 19.5014 19.7471 19.5654 19.718 19.6242C19.6889 19.683 19.6486 19.7354 19.5992 19.7785C19.5499 19.8217 19.4925 19.8545 19.4304 19.8753C19.3684 19.8961 19.3029 19.9044 19.2376 19.8998L8.88444 19.1468C8.75874 19.1376 8.64131 19.0806 8.55612 18.9874M9.70714 14.5865L9.44986 18.1846L18.8144 18.8649L19.0716 15.2681L9.70714 14.5865Z" fill="#161616"/>
<path d="M5.41597 67.7095L8.77271 20.6792L19.1263 21.4277L15.7696 68.458L5.41597 67.7095Z" fill="#F4F0ED"/>
<path d="M5.05203 68.051L5.04139 68.0379C4.9555 67.937 4.91284 67.8062 4.92281 67.6739L8.27986 20.6433C8.28438 20.5778 8.30167 20.5139 8.3308 20.4552C8.35993 20.3965 8.40028 20.3441 8.4496 20.301C8.49891 20.2579 8.55626 20.225 8.61824 20.2041C8.68023 20.1833 8.74569 20.1749 8.81091 20.1794L19.1641 20.9323C19.2293 20.9359 19.2931 20.953 19.3514 20.9824C19.4097 21.0119 19.4613 21.0532 19.503 21.1036C19.5889 21.2045 19.6316 21.3353 19.6216 21.4676L16.2646 68.5018C16.2601 68.5672 16.2428 68.6311 16.2136 68.6899C16.1845 68.7486 16.1442 68.801 16.0948 68.8441C16.0455 68.8871 15.9883 68.9201 15.9263 68.9409C15.8643 68.9618 15.7988 68.9702 15.7335 68.9656L5.38035 68.2127C5.25475 68.2032 5.13744 68.1462 5.05203 68.0533M9.2317 21.2178L5.947 67.2493L15.3116 67.9308L18.5963 21.8994L9.2317 21.2178Z" fill="#161616"/>
<path d="M8.77307 20.6787L8.91896 18.6465L19.2726 19.3948L19.1267 21.4271L8.77307 20.6787Z" fill="#7FA1DB"/>
<path d="M8.40917 21.0192L8.39737 21.0061C8.31183 20.9051 8.26921 20.7744 8.27879 20.6422L8.42342 18.6106C8.42793 18.5451 8.44522 18.4812 8.47435 18.4225C8.50349 18.3638 8.54391 18.3114 8.59323 18.2683C8.64254 18.2252 8.69981 18.1923 8.7618 18.1714C8.82379 18.1506 8.88925 18.1422 8.95447 18.1467L19.3076 18.8996C19.4392 18.9097 19.5614 18.9717 19.6474 19.072C19.7334 19.1724 19.7762 19.3029 19.7664 19.4349L19.6218 21.4676C19.6125 21.5998 19.5516 21.7229 19.4523 21.8102C19.3539 21.8951 19.2262 21.9379 19.0967 21.9291L8.7435 21.1762C8.61777 21.1671 8.50023 21.1101 8.4151 21.0168M9.38358 19.1803L9.31007 20.2128L18.6746 20.8943L18.7482 19.8619L9.38358 19.1803Z" fill="#161616"/>
<path d="M10.8356 11.5489C10.7678 11.4753 10.7235 11.383 10.7085 11.2839C10.6935 11.1848 10.7086 11.0835 10.7516 10.9931C10.7946 10.9026 10.8637 10.8272 10.9499 10.7766C11.0361 10.7259 11.1354 10.7025 11.2351 10.7091L18.1103 11.2087C18.2424 11.2181 18.3653 11.2799 18.452 11.3802C18.5387 11.4806 18.5821 11.6114 18.5726 11.7439C18.5632 11.8764 18.5017 11.9997 18.4017 12.0867C18.3016 12.1737 18.1712 12.2173 18.0392 12.2078L11.164 11.7082C11.0384 11.6996 10.9209 11.643 10.8356 11.5501" fill="#161616"/>
<path d="M12.2367 35.1425C9.17366 37.8853 5.15989 35.0235 4.85169 31.3886C4.58735 28.2663 9.43208 21.6494 12.3197 25.9421C12.5574 26.2964 12.6598 26.7248 12.6079 27.1488C12.5561 27.5727 12.3536 27.9636 12.0375 28.2497C12.2149 28.3704 12.3619 28.5307 12.4671 28.7181C12.5722 28.9055 12.6325 29.1147 12.6434 29.3295C12.6544 29.5442 12.6155 29.7586 12.5299 29.9557C12.4443 30.1529 12.3143 30.3274 12.1502 30.4656C12.3106 30.5149 12.457 30.602 12.5772 30.7196C12.6975 30.8371 12.788 30.9817 12.8413 31.1414C12.8946 31.3011 12.9092 31.4713 12.8839 31.6378C12.8585 31.8043 12.7939 31.9623 12.6954 32.0987C12.5769 32.2379 12.4085 32.3854 12.4512 32.5638C12.4877 32.6572 12.5482 32.7393 12.6267 32.8017C12.8745 33.1671 12.9726 33.6142 12.9007 34.0503C12.8287 34.4864 12.5922 34.8779 12.2402 35.1437" fill="#FFD8C7"/>
<path d="M11.8336 34.7346C11.6653 34.8859 11.4841 35.022 11.2919 35.1413C11.1189 35.2478 10.9387 35.342 10.7525 35.4232C10.5583 35.4993 10.3581 35.559 10.1539 35.6017L10.0117 35.629C9.8315 35.6623 10.1172 35.629 9.93463 35.6385C9.81609 35.648 9.70826 35.6564 9.59328 35.6576C9.49964 35.6576 9.40476 35.6576 9.31112 35.6492L9.17126 35.6373C9.06458 35.6266 9.30404 35.6623 9.12742 35.6373C8.92305 35.6038 8.72135 35.5553 8.52402 35.4922C8.35235 35.4416 8.18635 35.3735 8.02856 35.2888C7.83943 35.1924 7.65688 35.0836 7.4821 34.9629C6.83971 34.5092 6.31647 33.906 5.95725 33.205C5.59803 32.504 5.41355 31.7261 5.41954 30.9378C5.41954 30.8712 5.429 30.8034 5.43611 30.7368C5.43611 30.7059 5.46219 30.5655 5.43611 30.7237C5.43611 30.6952 5.44439 30.6678 5.44913 30.6393C5.47877 30.4716 5.51195 30.3062 5.55462 30.1421C5.6419 29.8104 5.75121 29.485 5.88179 29.168C5.832 29.2869 5.89605 29.1358 5.90197 29.1204L5.95291 29.0014C5.99163 28.9166 6.03119 28.8321 6.07149 28.7481C6.15526 28.5776 6.24376 28.4095 6.33701 28.2438C6.52542 27.9079 6.73317 27.5835 6.9593 27.272L7.02094 27.1875C7.02687 27.1792 7.13242 27.0424 7.05892 27.1364C7.11227 27.0686 7.16675 27.0008 7.22128 26.933C7.3414 26.7879 7.46587 26.6463 7.59468 26.5084C7.72349 26.3704 7.85427 26.2411 7.98703 26.1206C8.04709 26.0659 8.10837 26.012 8.1708 25.9588L8.26327 25.8815C8.37351 25.7899 8.23006 25.9029 8.31659 25.8387C8.58436 25.6398 8.86963 25.4658 9.16887 25.3189L9.24832 25.2832C9.112 25.3427 9.24829 25.2832 9.27082 25.2773C9.3372 25.2535 9.40361 25.2297 9.47 25.2095C9.53638 25.1893 9.60154 25.1714 9.6691 25.1571C9.73667 25.1429 9.95838 25.1155 9.79716 25.1286C9.96233 25.1139 10.1284 25.112 10.2938 25.1227C10.3342 25.1227 10.423 25.1488 10.2808 25.1227C10.327 25.1322 10.3732 25.1393 10.4183 25.15C10.5036 25.169 10.5878 25.1976 10.672 25.2238C10.698 25.2321 10.7229 25.2428 10.749 25.2523C10.602 25.1988 10.7751 25.2666 10.8047 25.2809C10.8824 25.3205 10.9579 25.3642 11.0311 25.4117L11.1058 25.4628L11.1805 25.5164C11.1276 25.4735 11.1276 25.4735 11.1805 25.5164C11.2552 25.5806 11.3286 25.6448 11.3986 25.715C11.7172 25.9815 11.941 26.3447 12.0363 26.7498C12.0719 26.933 12.0363 26.6642 12.047 26.8509C12.047 26.9151 12.047 26.9794 12.047 27.0436C12.0464 27.141 12.0292 27.2375 11.996 27.3291C11.9384 27.5375 11.8133 27.7208 11.6404 27.85C11.5798 27.913 11.5341 27.9889 11.5068 28.072C11.4795 28.1551 11.4712 28.2434 11.4826 28.3301C11.494 28.4169 11.5248 28.5 11.5726 28.5732C11.6205 28.6464 11.6842 28.7078 11.7589 28.7528C11.7589 28.7528 11.8775 28.8361 11.8372 28.8016C11.7969 28.7671 11.8917 28.8575 11.9 28.867C11.9688 28.9372 11.9 28.8516 11.9285 28.9003C11.9569 28.9491 11.9759 28.9765 11.9984 29.0193C12.0209 29.0621 12.0316 29.0883 12.0091 29.0312C12.0258 29.0739 12.04 29.1176 12.0517 29.162C12.0636 29.206 12.0743 29.2512 12.0826 29.2976C12.0672 29.2143 12.0826 29.2976 12.0826 29.338C12.0874 29.4214 12.085 29.5049 12.0755 29.5878C12.0909 29.482 12.0671 29.6057 12.0612 29.6259C12.0482 29.6699 12.0375 29.7139 12.0221 29.7567C12.0493 29.6818 12.0221 29.7567 12.002 29.7948C11.9818 29.8329 11.9581 29.8733 11.932 29.9137C11.9948 29.8221 11.7874 30.0446 11.8704 29.9815C11.7753 30.0408 11.6991 30.1262 11.651 30.2276C11.6029 30.3291 11.5848 30.4422 11.5989 30.5537C11.6134 30.6641 11.6597 30.768 11.7322 30.8525C11.8046 30.937 11.9 30.9985 12.0067 31.0294C12.0067 31.0294 12.1454 31.077 12.0932 31.0532C12.041 31.0294 12.1561 31.0937 12.1679 31.102C12.0802 31.0389 12.2864 31.2542 12.226 31.1674C12.2568 31.2131 12.2838 31.2612 12.3066 31.3113C12.2734 31.2376 12.3066 31.322 12.3161 31.3553C12.3296 31.3993 12.3399 31.4443 12.3469 31.4898C12.3363 31.4053 12.3469 31.4897 12.341 31.529C12.3351 31.5683 12.3232 31.6479 12.341 31.5659C12.341 31.579 12.2983 31.7134 12.322 31.6515C12.3458 31.5897 12.2864 31.7157 12.2781 31.7276C12.3279 31.6491 12.2449 31.7645 12.2319 31.78C12.103 31.8972 12.006 32.0454 11.95 32.2106C11.894 32.3758 11.8809 32.5527 11.9119 32.7244C11.9806 32.998 12.2308 33.1645 12.328 33.3488C12.3606 33.4135 12.3807 33.4837 12.3872 33.5558C12.3742 33.4737 12.3872 33.6022 12.3872 33.6177C12.3872 33.67 12.3872 33.7223 12.3872 33.7747C12.3943 33.6962 12.3683 33.8746 12.3683 33.8746C12.3588 33.9174 12.3469 33.959 12.3351 34.0007C12.3114 34.0921 12.2751 34.1798 12.2272 34.2611C12.1335 34.4442 12.006 34.6077 11.8514 34.7429C11.7516 34.8515 11.6975 34.9946 11.7003 35.1423C11.703 35.29 11.7625 35.4309 11.8663 35.5356C11.9701 35.6404 12.1102 35.7009 12.2574 35.7046C12.4045 35.7082 12.5475 35.6548 12.6563 35.5553C13.0974 35.1511 13.3921 34.6114 13.4943 34.0209C13.5525 33.7041 13.5351 33.378 13.4434 33.0693C13.3973 32.925 13.3323 32.7874 13.2502 32.6602C13.2 32.5845 13.1445 32.5126 13.0842 32.4449L13.0416 32.3973C12.9452 32.2776 12.9369 32.3426 13.0167 32.5924C13.0582 32.5995 12.8708 32.7529 13.0652 32.5614C13.1275 32.4957 13.1842 32.4249 13.2347 32.3497C13.3132 32.2331 13.3743 32.1057 13.4161 31.9715C13.4961 31.6963 13.5043 31.4051 13.4399 31.1258C13.3808 30.8401 13.2446 30.5762 13.0462 30.3629C12.8478 30.1495 12.5948 29.995 12.3149 29.9161L12.45 30.9664C12.7007 30.7761 12.9018 30.528 13.0366 30.2431C13.1713 29.9581 13.2356 29.6448 13.224 29.3297C13.2123 29.0145 13.1252 28.7068 12.9698 28.4327C12.8144 28.1586 12.5955 27.9261 12.3315 27.7549C12.3702 28.0562 12.4097 28.3571 12.45 28.6577C12.8774 28.255 13.1402 27.7071 13.1871 27.1207C13.234 26.5343 13.0616 25.9514 12.7037 25.4854C12.2327 24.7616 11.5088 24.2409 10.6743 24.026C9.88915 23.9626 9.10094 24.104 8.38626 24.4364C7.67158 24.7688 7.05465 25.281 6.59538 25.9232C5.4655 27.1587 4.69334 28.6804 4.36214 30.3241C4.2401 31.2828 4.35685 32.2569 4.7019 33.1592C5.04695 34.0615 5.60958 34.8639 6.3394 35.4946C7.17788 36.26 8.24814 36.7207 9.37869 36.803C10.5915 36.8318 11.7669 36.3811 12.6515 35.5481C12.7513 35.4395 12.8055 35.2964 12.8027 35.1487C12.8 35.001 12.7404 34.8601 12.6366 34.7554C12.5328 34.6506 12.3927 34.5901 12.2456 34.5864C12.0984 34.5828 11.9555 34.6363 11.8467 34.7357" fill="#161616"/>
<path d="M73.9929 36.8601C75.0468 36.8377 76.0859 37.1114 76.993 37.6502C77.9001 38.189 78.6391 38.9716 79.1264 39.9095" stroke="black" stroke-linecap="round"/>
<path d="M75.9345 32.6213C77.4228 32.9271 78.8093 33.6072 79.9641 34.5978C81.1188 35.5883 82.0039 36.8569 82.5365 38.2846" stroke="black" stroke-linecap="round"/>
<path d="M53.6661 15.4694L55.6871 23.039C55.7308 23.2034 55.817 23.3534 55.9368 23.4738C56.0567 23.5942 56.2061 23.6808 56.3699 23.7248C56.5337 23.7688 56.7062 23.7688 56.87 23.7246C57.0338 23.6804 57.1831 23.5937 57.3028 23.4731L62.8244 17.9315C62.9441 17.8112 63.0302 17.6614 63.0741 17.4971C63.1179 17.3329 63.1179 17.1599 63.0741 16.9957C63.0302 16.8314 62.9441 16.6816 62.8243 16.5613C62.7045 16.441 62.5553 16.3545 62.3917 16.3103L54.8479 14.2882C54.6837 14.2432 54.5105 14.2425 54.3459 14.2862C54.1814 14.33 54.0313 14.4167 53.9109 14.5375C53.7905 14.6583 53.7041 14.8089 53.6605 14.974C53.6169 15.1391 53.6176 15.3129 53.6625 15.4777" fill="#FFD97B"/>
<path d="M56.6259 24.2937C56.4926 24.2936 56.3599 24.276 56.2312 24.2414C55.9763 24.1745 55.7438 24.0408 55.5576 23.8539C55.3713 23.667 55.238 23.4337 55.1714 23.178L53.1504 15.6096C53.0824 15.3546 53.0825 15.0862 53.1506 14.8313C53.2187 14.5765 53.3524 14.344 53.5383 14.1574C53.7242 13.9707 53.9558 13.8364 54.2098 13.7679C54.4637 13.6994 54.7312 13.6991 54.9853 13.7671L62.5291 15.7951C62.7835 15.8632 63.0155 15.9974 63.2018 16.1841C63.388 16.3708 63.522 16.6034 63.5901 16.8586C63.6583 17.1138 63.6582 17.3825 63.59 17.6376C63.5217 17.8928 63.3876 18.1254 63.2012 18.312L57.6797 23.8524C57.5421 23.9921 57.3781 24.1031 57.1975 24.1789C57.0168 24.2546 56.8229 24.2936 56.6271 24.2937M54.5942 14.7841C54.4808 14.7853 54.3726 14.8315 54.2931 14.9125C54.2388 14.9659 54.1999 15.0329 54.1803 15.1066C54.1607 15.1802 54.1612 15.2578 54.1816 15.3312L56.2027 22.9009C56.2224 22.9743 56.261 23.0414 56.3146 23.0952C56.3682 23.149 56.435 23.1877 56.5083 23.2075C56.5815 23.2272 56.6586 23.2273 56.7319 23.2077C56.8052 23.1882 56.8721 23.1496 56.9258 23.0959L62.4473 17.5555C62.5008 17.5016 62.5393 17.4346 62.5589 17.3611C62.5785 17.2877 62.5785 17.2103 62.5589 17.1369C62.5394 17.0634 62.5009 16.9964 62.4474 16.9425C62.3939 16.8886 62.3273 16.8498 62.2541 16.8299L54.7115 14.8079C54.6728 14.7975 54.633 14.7923 54.593 14.7924" fill="#161616"/>
<path d="M73.6042 15.7997L70.9786 14.7292C70.6155 14.5809 70.2852 14.3622 70.0064 14.0857C69.7276 13.8092 69.5058 13.4803 69.3537 13.1178C69.2016 12.7553 69.1221 12.3663 69.1198 11.973C69.1175 11.5797 69.1925 11.1897 69.3404 10.8255L70.4072 8.19086C70.5551 7.82659 70.773 7.49512 71.0485 7.21537C71.3241 6.93562 71.6519 6.71307 72.0131 6.56043C72.3744 6.40778 72.7621 6.32803 73.154 6.32573C73.546 6.32344 73.9346 6.39865 74.2976 6.54705L76.9233 7.61755C77.2863 7.76593 77.6166 7.98461 77.8954 8.2611C78.1742 8.53758 78.396 8.86646 78.5481 9.22896C78.7003 9.59146 78.7797 9.98048 78.782 10.3738C78.7843 10.7671 78.7094 11.157 78.5615 11.5213L77.4946 14.1559C77.3468 14.5202 77.1288 14.8517 76.8533 15.1314C76.5777 15.4112 76.25 15.6337 75.8887 15.7864C75.5274 15.939 75.1398 16.0187 74.7478 16.021C74.3558 16.0233 73.9672 15.9481 73.6042 15.7997" fill="#F2827C"/>
<path d="M74.7315 16.6502C74.2648 16.6499 73.8027 16.5586 73.3707 16.3814L70.7451 15.3109C69.8586 14.9487 69.1517 14.248 68.7801 13.3629C68.4084 12.4778 68.4023 11.4808 68.7631 10.5912L69.8299 7.95658C70.1912 7.06725 70.8896 6.35828 71.7716 5.98556C72.6537 5.61284 73.6471 5.6069 74.5336 5.96902L77.1592 7.03951C78.0457 7.40173 78.7525 8.10245 79.1242 8.98754C79.4959 9.87263 79.502 10.8696 79.1412 11.7592L78.0743 14.3939C77.8036 15.0607 77.3413 15.6317 76.7462 16.0341C76.1512 16.4365 75.4503 16.6522 74.7327 16.6538M73.1763 6.95387C72.7073 6.95538 72.2493 7.09643 71.8602 7.35918C71.4711 7.62193 71.1684 7.99458 70.9904 8.42998L69.9236 11.0646C69.8065 11.3526 69.7472 11.6609 69.7489 11.972C69.7507 12.283 69.8135 12.5907 69.9338 12.8774C70.0542 13.164 70.2296 13.4241 70.4502 13.6426C70.6707 13.8612 70.9321 14.034 71.2192 14.1512L73.8448 15.2217C74.1319 15.339 74.4392 15.3985 74.7491 15.3966C75.0591 15.3948 75.3656 15.3317 75.6512 15.211C75.9369 15.0902 76.196 14.9142 76.4139 14.693C76.6317 14.4718 76.804 14.2097 76.9209 13.9216L77.9878 11.287C78.1056 10.9987 78.1656 10.6898 78.1642 10.3781C78.1628 10.0665 78.1001 9.75816 77.9798 9.47085C77.8594 9.18355 77.6837 8.92291 77.4628 8.70388C77.2418 8.48485 76.9799 8.31173 76.6921 8.19446L74.0665 7.12396C73.784 7.00753 73.4817 6.94735 73.1763 6.94674" fill="#161616"/>
</g>
<defs>
<clipPath id="clip0_150_2202">
<rect width="84" height="70.1772" fill="white" transform="translate(0 0.911621)"/>
</clipPath>
</defs>
</svg>
