<svg xmlns="http://www.w3.org/2000/svg" width="500" height="320" viewBox="0 0 500 320">
  <g id="noimage_t1_1" transform="translate(-31 -129)">
    <rect id="img_" width="500" height="320" transform="translate(31 129)" fill="#f5f5f5"/>
    <g id="그룹_1168" data-name="그룹 1168" transform="translate(-422.139 -329.984)">
      <path id="패스_1582" data-name="패스 1582" d="M893.153,566.726v28.956H864.921V557.327h18.833Z" transform="translate(-133.557 -5.909)" fill="#fff"/>
      <path id="패스_1583" data-name="패스 1583" d="M892.438,595.5H864.207a.536.536,0,0,1-.536-.536V556.613a.536.536,0,0,1,.536-.536H883.04a.534.534,0,0,1,.379.157l9.4,9.4a.536.536,0,0,1,.157.379v28.956A.536.536,0,0,1,892.438,595.5Zm-27.7-1.072H891.9v-28.2l-9.084-9.085H864.743Z" transform="translate(-132.842 -5.195)" fill="#97a7b7"/>
      <path id="패스_1584" data-name="패스 1584" d="M918.249,566.726h-9.4v-9.4Z" transform="translate(-158.653 -5.909)" fill="#eef7ff"/>
      <path id="패스_1585" data-name="패스 1585" d="M917.535,566.548h-9.4a.536.536,0,0,1-.536-.536v-9.4a.535.535,0,0,1,.914-.379l9.4,9.4a.536.536,0,0,1-.379.915Zm-8.862-1.072h7.568l-7.568-7.569Z" transform="translate(-157.939 -5.195)" fill="#97a7b7"/>
      <line id="선_322" data-name="선 322" x2="9.343" transform="translate(735.377 556.118)" fill="#fff"/>
      <path id="패스_1586" data-name="패스 1586" d="M882.91,568.11h-9.343a.536.536,0,1,1,0-1.072h9.343a.536.536,0,1,1,0,1.072Z" transform="translate(-138.189 -11.457)" fill="#97a7b7"/>
      <line id="선_323" data-name="선 323" x2="9.343" transform="translate(735.377 560.817)" fill="#fff"/>
      <path id="패스_1587" data-name="패스 1587" d="M882.91,579.072h-9.343a.536.536,0,1,1,0-1.072h9.343a.536.536,0,1,1,0,1.072Z" transform="translate(-138.189 -17.719)" fill="#97a7b7"/>
      <line id="선_324" data-name="선 324" x2="20.556" transform="translate(735.377 565.516)" fill="#fff"/>
      <path id="패스_1588" data-name="패스 1588" d="M894.123,590.033H873.567a.536.536,0,1,1,0-1.072h20.556a.536.536,0,1,1,0,1.072Z" transform="translate(-138.189 -23.981)" fill="#97a7b7"/>
      <line id="선_325" data-name="선 325" x2="20.556" transform="translate(735.377 570.039)" fill="#fff"/>
      <path id="패스_1589" data-name="패스 1589" d="M894.123,600.994H873.567a.536.536,0,1,1,0-1.072h20.556a.536.536,0,1,1,0,1.072Z" transform="translate(-138.189 -30.417)" fill="#97a7b7"/>
      <line id="선_326" data-name="선 326" x2="20.556" transform="translate(735.377 574.703)" fill="#fff"/>
      <path id="패스_1590" data-name="패스 1590" d="M894.123,611.956H873.567a.536.536,0,1,1,0-1.072h20.556a.536.536,0,0,1,0,1.072Z" transform="translate(-138.189 -36.715)" fill="#97a7b7"/>
      <line id="선_327" data-name="선 327" x2="20.556" transform="translate(735.377 579.366)" fill="#fff"/>
      <path id="패스_1591" data-name="패스 1591" d="M894.123,622.917H873.567a.536.536,0,1,1,0-1.072h20.556a.536.536,0,0,1,0,1.072Z" transform="translate(-138.189 -43.013)" fill="#97a7b7"/>
      <path id="패스_1592" data-name="패스 1592" d="M781.395,562.766l-5.548-5.427v3.526H742.508v3.782h33.338v3.484Z" transform="translate(-63.624 -5.916)" fill="#cee6fe"/>
      <path id="패스_1593" data-name="패스 1593" d="M775.132,567.953a.526.526,0,0,1-.209-.043.535.535,0,0,1-.327-.493v-2.948h-32.8a.536.536,0,0,1-.536-.536v-3.782a.536.536,0,0,1,.536-.536h32.8v-2.99a.536.536,0,0,1,.911-.383l5.548,5.426a.536.536,0,0,1,0,.768L775.5,567.8A.535.535,0,0,1,775.132,567.953Zm-32.8-4.555h32.8a.536.536,0,0,1,.536.536v2.22l4.244-4.1-4.244-4.15v2.252a.536.536,0,0,1-.536.536h-32.8Z" transform="translate(-62.909 -5.202)" fill="#3e5672"/>
      <path id="패스_1594" data-name="패스 1594" d="M801.376,580.221l-5.549-5.427v3.526H762.49V582.1h33.338v3.484Z" transform="translate(-75.039 -15.888)" fill="#eef7ff"/>
      <path id="패스_1595" data-name="패스 1595" d="M795.113,585.407a.527.527,0,0,1-.209-.043.535.535,0,0,1-.327-.493v-2.948h-32.8a.536.536,0,0,1-.536-.536v-3.781a.536.536,0,0,1,.536-.536h32.8v-2.99a.536.536,0,0,1,.911-.383l5.548,5.427a.536.536,0,0,1,0,.768l-5.548,5.365A.536.536,0,0,1,795.113,585.407Zm-32.8-4.556h32.8a.536.536,0,0,1,.536.536v2.22l4.244-4.1-4.244-4.151v2.253a.536.536,0,0,1-.536.536h-32.8Z" transform="translate(-74.324 -15.174)" fill="#97a7b7"/>
      <path id="패스_1596" data-name="패스 1596" d="M732.22,548.234h0Z" transform="translate(-57.745 -0.714)" fill="#fff"/>
      <path id="패스_1597" data-name="패스 1597" d="M731.506,548.056h0a.536.536,0,1,1,.537-.536A.536.536,0,0,1,731.5,548.056Z" transform="translate(-57.031)" fill="#97a7b7"/>
      <path id="패스_1598" data-name="패스 1598" d="M704.609,565.793a30.945,30.945,0,0,1-6.975-2.056,16.08,16.08,0,0,0-3.1,9.509h9.3a34.827,34.827,0,0,1,.774-7.453" transform="translate(-36.218 -9.571)" fill="#fff"/>
      <path id="패스_1599" data-name="패스 1599" d="M703.12,573.068h-9.3a.536.536,0,0,1-.536-.536,16.564,16.564,0,0,1,3.2-9.825.535.535,0,0,1,.647-.176,30.384,30.384,0,0,0,6.853,2.02.536.536,0,0,1,.431.643,34.587,34.587,0,0,0-.761,7.337A.536.536,0,0,1,703.12,573.068ZM694.366,572h8.222a35.223,35.223,0,0,1,.668-6.489,31.4,31.4,0,0,1-6.149-1.822A15.483,15.483,0,0,0,694.366,572Z" transform="translate(-35.503 -8.857)" fill="#97a7b7"/>
      <path id="패스_1600" data-name="패스 1600" d="M747.184,573.246h9.3a16.077,16.077,0,0,0-3.1-9.509,30.949,30.949,0,0,1-6.974,2.056,34.818,34.818,0,0,1,.774,7.453" transform="translate(-65.853 -9.571)" fill="#fff"/>
      <path id="패스_1601" data-name="패스 1601" d="M755.769,573.068h-9.3a.536.536,0,0,1-.536-.536,34.53,34.53,0,0,0-.761-7.337.536.536,0,0,1,.43-.644,30.37,30.37,0,0,0,6.853-2.02.535.535,0,0,1,.647.176,16.561,16.561,0,0,1,3.2,9.825A.536.536,0,0,1,755.769,573.068Zm-8.763-.536h0Zm0-.536h8.222a15.487,15.487,0,0,0-2.741-8.312,31.417,31.417,0,0,1-6.149,1.822A35.15,35.15,0,0,1,747,572Z" transform="translate(-65.139 -8.857)" fill="#97a7b7"/>
      <path id="패스_1602" data-name="패스 1602" d="M703.835,585.918h-9.3a16.074,16.074,0,0,0,3.1,9.509,30.975,30.975,0,0,1,6.974-2.056,34.825,34.825,0,0,1-.774-7.453" transform="translate(-36.218 -22.242)" fill="#fff"/>
      <path id="패스_1603" data-name="패스 1603" d="M696.92,595.249a.535.535,0,0,1-.433-.22,16.56,16.56,0,0,1-3.2-9.825.536.536,0,0,1,.536-.536h9.3a.536.536,0,0,1,.536.536,34.58,34.58,0,0,0,.761,7.337.536.536,0,0,1-.43.644,30.435,30.435,0,0,0-6.853,2.02A.527.527,0,0,1,696.92,595.249Zm-2.553-9.509a15.479,15.479,0,0,0,2.74,8.312,31.434,31.434,0,0,1,6.149-1.822,35.218,35.218,0,0,1-.668-6.49Z" transform="translate(-35.504 -21.528)" fill="#97a7b7"/>
      <path id="패스_1604" data-name="패스 1604" d="M747.184,585.918a34.813,34.813,0,0,1-.774,7.453,30.968,30.968,0,0,1,6.974,2.056,16.076,16.076,0,0,0,3.1-9.509Z" transform="translate(-65.853 -22.242)" fill="#fff"/>
      <path id="패스_1605" data-name="패스 1605" d="M752.67,595.249a.527.527,0,0,1-.213-.045,30.419,30.419,0,0,0-6.854-2.02.536.536,0,0,1-.43-.644,34.525,34.525,0,0,0,.761-7.337.536.536,0,0,1,.536-.536h9.3a.536.536,0,0,1,.536.536,16.56,16.56,0,0,1-3.2,9.825A.535.535,0,0,1,752.67,595.249Zm-6.336-3.019a31.407,31.407,0,0,1,6.149,1.822,15.48,15.48,0,0,0,2.741-8.312H747A35.156,35.156,0,0,1,746.334,592.23Z" transform="translate(-65.139 -21.528)" fill="#97a7b7"/>
      <path id="패스_1606" data-name="패스 1606" d="M717,593.371a34.931,34.931,0,0,1,12.167,0,34.851,34.851,0,0,0,.774-7.453H716.226a34.82,34.82,0,0,0,.774,7.453" transform="translate(-48.609 -22.242)" fill="#fff"/>
      <path id="패스_1607" data-name="패스 1607" d="M716.285,593.193a.535.535,0,0,1-.523-.42,35.162,35.162,0,0,1-.786-7.569.536.536,0,0,1,.536-.536h13.715a.536.536,0,0,1,.536.536,35.149,35.149,0,0,1-.787,7.569.536.536,0,0,1-.617.412,34.559,34.559,0,0,0-11.981,0A.526.526,0,0,1,716.285,593.193Zm-.234-7.453a34.788,34.788,0,0,0,.652,6.3,35.628,35.628,0,0,1,11.331,0,34.771,34.771,0,0,0,.652-6.3Z" transform="translate(-47.895 -21.528)" fill="#97a7b7"/>
      <path id="패스_1608" data-name="패스 1608" d="M723.083,569.067a35.141,35.141,0,0,1-6.083-.533,34.817,34.817,0,0,0-.774,7.453h13.715a34.848,34.848,0,0,0-.774-7.453,35.143,35.143,0,0,1-6.083.533" transform="translate(-48.609 -12.311)" fill="#fff"/>
      <path id="패스_1609" data-name="패스 1609" d="M729.227,575.808H715.512a.535.535,0,0,1-.536-.536,35.159,35.159,0,0,1,.786-7.569.536.536,0,0,1,.616-.412,34.559,34.559,0,0,0,11.981,0,.535.535,0,0,1,.617.412,35.145,35.145,0,0,1,.787,7.569A.536.536,0,0,1,729.227,575.808Zm-13.175-1.072h12.635a34.772,34.772,0,0,0-.652-6.3,35.616,35.616,0,0,1-11.331,0A34.79,34.79,0,0,0,716.051,574.736Z" transform="translate(-47.895 -11.596)" fill="#97a7b7"/>
      <path id="패스_1610" data-name="패스 1610" d="M714.819,548.234a16.132,16.132,0,0,0-13.057,6.646,30.949,30.949,0,0,0,6.975,2.056c1.143-5.169,3.437-8.7,6.082-8.7" transform="translate(-40.346 -0.714)" fill="#fff"/>
      <path id="패스_1611" data-name="패스 1611" d="M708.023,556.758a.526.526,0,0,1-.093-.008,31.463,31.463,0,0,1-7.1-2.092.537.537,0,0,1-.219-.807,16.758,16.758,0,0,1,13.49-6.867h0a.536.536,0,0,1,0,1.072c-2.265,0-4.447,3.252-5.56,8.282A.536.536,0,0,1,708.023,556.758Zm-6.128-2.817a30.544,30.544,0,0,0,5.721,1.662c.794-3.3,2.042-5.823,3.53-7.261A15.7,15.7,0,0,0,701.894,553.941Z" transform="translate(-39.632)" fill="#97a7b7"/>
      <path id="패스_1612" data-name="패스 1612" d="M738.3,556.937a30.956,30.956,0,0,0,6.974-2.056,16.129,16.129,0,0,0-13.057-6.646c2.646,0,4.939,3.533,6.083,8.7" transform="translate(-57.747 -0.714)" fill="#fff"/>
      <path id="패스_1613" data-name="패스 1613" d="M737.591,556.759a.536.536,0,0,1-.523-.42c-1.113-5.03-3.295-8.281-5.559-8.282a.536.536,0,0,1,0-1.072h0A16.755,16.755,0,0,1,745,553.851a.536.536,0,0,1-.219.807,31.5,31.5,0,0,1-7.1,2.093A.536.536,0,0,1,737.591,556.759Zm-3.123-8.416c1.488,1.438,2.736,3.958,3.53,7.261a30.5,30.5,0,0,0,5.721-1.663A15.706,15.706,0,0,0,734.468,548.343Z" transform="translate(-57.034 -0.001)" fill="#97a7b7"/>
      <path id="패스_1614" data-name="패스 1614" d="M718.031,556.937a34.963,34.963,0,0,0,12.167,0c-1.143-5.169-3.437-8.7-6.083-8.7h0c-2.645,0-4.939,3.533-6.082,8.7" transform="translate(-49.64 -0.714)" fill="#fff"/>
      <path id="패스_1615" data-name="패스 1615" d="M723.4,557.293a35.8,35.8,0,0,1-6.177-.542.535.535,0,0,1-.43-.643c1.244-5.626,3.775-9.122,6.606-9.123s5.363,3.5,6.608,9.123a.536.536,0,0,1-.43.643A35.794,35.794,0,0,1,723.4,557.293Zm-5.433-1.5a34.515,34.515,0,0,0,10.865,0c-1.146-4.716-3.25-7.731-5.431-7.732S719.114,551.072,717.967,555.789Z" transform="translate(-48.926 -0.001)" fill="#97a7b7"/>
      <path id="패스_1616" data-name="패스 1616" d="M714.821,612.006c-2.646,0-4.94-3.533-6.083-8.7a30.932,30.932,0,0,0-6.974,2.056,16.15,16.15,0,0,0,26.115,0A30.931,30.931,0,0,0,720.9,603.3c-1.144,5.17-3.438,8.7-6.083,8.7" transform="translate(-40.347 -32.374)" fill="#fff"/>
      <path id="패스_1617" data-name="패스 1617" d="M714.107,611.828a16.756,16.756,0,0,1-13.491-6.867.537.537,0,0,1,.219-.807,31.4,31.4,0,0,1,7.1-2.092.536.536,0,0,1,.616.412c1.113,5.031,3.3,8.282,5.56,8.282s4.447-3.251,5.56-8.283a.534.534,0,0,1,.616-.412,31.431,31.431,0,0,1,7.1,2.092.536.536,0,0,1,.219.807A16.758,16.758,0,0,1,714.107,611.828Zm6.49-8.619c-.794,3.3-2.042,5.823-3.531,7.262a15.709,15.709,0,0,0,9.252-5.6A30.526,30.526,0,0,0,720.6,603.209Zm-18.7,1.663a15.709,15.709,0,0,0,9.251,5.6c-1.488-1.438-2.736-3.957-3.53-7.262A30.5,30.5,0,0,0,701.9,604.871Z" transform="translate(-39.632 -31.657)" fill="#97a7b7"/>
      <path id="패스_1618" data-name="패스 1618" d="M718.031,602.592c1.143,5.17,3.438,8.7,6.083,8.7s4.94-3.532,6.083-8.7a34.939,34.939,0,0,0-12.167,0" transform="translate(-49.64 -31.658)" fill="#fff"/>
      <path id="패스_1619" data-name="패스 1619" d="M723.4,611.12c-2.831,0-5.363-3.5-6.607-9.123a.535.535,0,0,1,.43-.643,35.664,35.664,0,0,1,12.353,0,.536.536,0,0,1,.43.643C728.761,607.624,726.23,611.12,723.4,611.12Zm-5.433-8.8c1.146,4.717,3.251,7.732,5.433,7.732s4.285-3.015,5.432-7.732A34.515,34.515,0,0,0,717.967,602.316Z" transform="translate(-48.926 -30.946)" fill="#97a7b7"/>
      <path id="패스_1620" data-name="패스 1620" d="M755.625,686.961a.536.536,0,0,1-.536-.536V672.189a8.039,8.039,0,0,1,8.029-8.029h4.992a6.957,6.957,0,0,0,0-13.914H639.168a8.038,8.038,0,0,1-8.029-8.029v-3.922a8.038,8.038,0,0,1,8.029-8.029h39.9a.536.536,0,0,1,0,1.072h-39.9a6.965,6.965,0,0,0-6.957,6.957v3.922a6.965,6.965,0,0,0,6.957,6.957H768.11a8.029,8.029,0,1,1,0,16.058h-4.992a6.966,6.966,0,0,0-6.958,6.958v14.236A.536.536,0,0,1,755.625,686.961Z" transform="translate(0 -48.127)" fill="#3e5672"/>
      <path id="패스_1621" data-name="패스 1621" d="M940.459,630.539a10.83,10.83,0,1,1-10.83-10.83,10.83,10.83,0,0,1,10.83,10.83" transform="translate(-164.336 -41.84)" fill="#fff"/>
      <line id="선_328" data-name="선 328" y1="3.586" transform="translate(765.293 581.514)" fill="#fff"/>
      <path id="패스_1622" data-name="패스 1622" d="M943.346,631.572a.536.536,0,0,1-.536-.536V627.45a.536.536,0,1,1,1.072,0v3.587A.536.536,0,0,1,943.346,631.572Z" transform="translate(-178.053 -45.934)" fill="#3e5672"/>
      <line id="선_329" data-name="선 329" x1="2.536" y1="2.536" transform="translate(760.198 583.611)" fill="#fff"/>
      <path id="패스_1623" data-name="패스 1623" d="M934,635.445a.534.534,0,0,1-.379-.157l-2.536-2.536a.536.536,0,0,1,.758-.758l2.536,2.536a.536.536,0,0,1-.379.915Z" transform="translate(-171.264 -48.761)" fill="#3e5672"/>
      <line id="선_330" data-name="선 330" x1="3.586" transform="translate(758.087 588.674)" fill="#fff"/>
      <path id="패스_1624" data-name="패스 1624" d="M930.125,644.793h-3.586a.536.536,0,0,1,0-1.072h3.586a.536.536,0,0,1,0,1.072Z" transform="translate(-168.452 -55.582)" fill="#3e5672"/>
      <line id="선_331" data-name="선 331" x1="2.536" y2="2.536" transform="translate(760.198 591.205)" fill="#fff"/>
      <path id="패스_1625" data-name="패스 1625" d="M931.462,653.3a.536.536,0,0,1-.379-.915l2.536-2.536a.536.536,0,0,1,.758.758l-2.536,2.536A.535.535,0,0,1,931.462,653.3Z" transform="translate(-171.264 -59.021)" fill="#3e5672"/>
      <line id="선_332" data-name="선 332" y2="3.586" transform="translate(765.293 592.254)" fill="#fff"/>
      <path id="패스_1626" data-name="패스 1626" d="M943.346,656.821a.536.536,0,0,1-.536-.536V652.7a.536.536,0,0,1,1.072,0v3.587A.536.536,0,0,1,943.346,656.821Z" transform="translate(-178.053 -60.445)" fill="#3e5672"/>
      <line id="선_333" data-name="선 333" x2="2.536" y2="2.536" transform="translate(767.852 591.205)" fill="#fff"/>
      <path id="패스_1627" data-name="패스 1627" d="M951.851,653.3a.533.533,0,0,1-.378-.157l-2.536-2.536a.536.536,0,1,1,.758-.758l2.536,2.536a.536.536,0,0,1-.379.915Z" transform="translate(-181.463 -59.021)" fill="#3e5672"/>
      <line id="선_334" data-name="선 334" x2="3.586" transform="translate(768.912 588.674)" fill="#fff"/>
      <path id="패스_1628" data-name="패스 1628" d="M955.374,644.793h-3.586a.536.536,0,0,1,0-1.072h3.586a.536.536,0,1,1,0,1.072Z" transform="translate(-182.876 -55.582)" fill="#3e5672"/>
      <line id="선_335" data-name="선 335" y1="2.536" x2="2.536" transform="translate(767.852 583.611)" fill="#fff"/>
      <path id="패스_1629" data-name="패스 1629" d="M949.315,635.445a.536.536,0,0,1-.379-.915l2.536-2.536a.536.536,0,0,1,.758.758l-2.536,2.536A.534.534,0,0,1,949.315,635.445Z" transform="translate(-181.463 -48.761)" fill="#3e5672"/>
      <path id="패스_1630" data-name="패스 1630" d="M647.661,690.032a6.147,6.147,0,1,1-6.147-6.146,6.147,6.147,0,0,1,6.147,6.146" transform="translate(-2.416 -78.711)" fill="#fff"/>
      <line id="선_336" data-name="선 336" y1="2.123" transform="translate(639.099 607.088)" fill="#fff"/>
      <path id="패스_1631" data-name="패스 1631" d="M648.991,690.219a.536.536,0,0,1-.536-.536V687.56a.536.536,0,0,1,1.072,0v2.123A.536.536,0,0,1,648.991,690.219Z" transform="translate(-9.892 -80.472)" fill="#3e5672"/>
      <line id="선_337" data-name="선 337" x1="2.123" transform="translate(634.833 611.33)" fill="#fff"/>
      <path id="패스_1632" data-name="패스 1632" d="M641.165,698.045h-2.123a.536.536,0,1,1,0-1.072h2.123a.536.536,0,0,1,0,1.072Z" transform="translate(-4.209 -86.18)" fill="#3e5672"/>
      <line id="선_338" data-name="선 338" y2="2.123" transform="translate(639.099 613.447)" fill="#fff"/>
      <path id="패스_1633" data-name="패스 1633" d="M648.991,705.166a.536.536,0,0,1-.536-.536v-2.123a.536.536,0,0,1,1.072,0v2.123A.536.536,0,0,1,648.991,705.166Z" transform="translate(-9.892 -89.061)" fill="#3e5672"/>
      <line id="선_339" data-name="선 339" x2="2.123" transform="translate(641.241 611.33)" fill="#fff"/>
      <path id="패스_1634" data-name="패스 1634" d="M656.112,698.045h-2.123a.536.536,0,0,1,0-1.072h2.123a.536.536,0,0,1,0,1.072Z" transform="translate(-12.748 -86.18)" fill="#3e5672"/>
      <path id="패스_1635" data-name="패스 1635" d="M824.933,767.4a6.147,6.147,0,1,1-6.147-6.147,6.147,6.147,0,0,1,6.147,6.147" transform="translate(-103.688 -123.258)" fill="#fff"/>
      <line id="선_340" data-name="선 340" y1="2.123" transform="translate(715.097 639.876)" fill="#fff"/>
      <path id="패스_1636" data-name="패스 1636" d="M826.263,767.586a.536.536,0,0,1-.536-.536v-2.123a.536.536,0,1,1,1.072,0v2.123A.536.536,0,0,1,826.263,767.586Z" transform="translate(-111.165 -125.051)" fill="#3e5672"/>
      <line id="선_341" data-name="선 341" x1="2.123" transform="translate(710.832 644.141)" fill="#fff"/>
      <path id="패스_1637" data-name="패스 1637" d="M818.436,775.412h-2.123a.536.536,0,1,1,0-1.072h2.123a.536.536,0,1,1,0,1.072Z" transform="translate(-105.481 -130.735)" fill="#3e5672"/>
      <line id="선_342" data-name="선 342" y2="2.123" transform="translate(715.097 646.284)" fill="#fff"/>
      <path id="패스_1638" data-name="패스 1638" d="M826.263,782.533a.535.535,0,0,1-.536-.536v-2.123a.536.536,0,1,1,1.072,0V782A.536.536,0,0,1,826.263,782.533Z" transform="translate(-111.165 -133.59)" fill="#3e5672"/>
      <line id="선_343" data-name="선 343" x2="2.123" transform="translate(717.24 644.141)" fill="#fff"/>
      <path id="패스_1639" data-name="패스 1639" d="M833.384,775.412h-2.123a.536.536,0,1,1,0-1.072h2.123a.536.536,0,1,1,0,1.072Z" transform="translate(-114.021 -130.735)" fill="#3e5672"/>
      <path id="패스_1640" data-name="패스 1640" d="M903.045,688.935a5.188,5.188,0,1,1-5.188-5.188,5.188,5.188,0,0,1,5.188,5.188" transform="translate(-149.408 -78.622)" fill="#fff"/>
      <path id="패스_1641" data-name="패스 1641" d="M904.148,693.357a1.871,1.871,0,1,1-1.87-1.87,1.871,1.871,0,0,1,1.87,1.87" transform="translate(-153.829 -83.039)" fill="#fff"/>
      <path id="패스_1642" data-name="패스 1642" d="M901.564,695.049a2.406,2.406,0,1,1,2.406-2.406A2.409,2.409,0,0,1,901.564,695.049Zm0-3.741a1.335,1.335,0,1,0,1.335,1.335A1.337,1.337,0,0,0,901.564,691.308Z" transform="translate(-153.115 -82.325)" fill="#3e5672"/>
      <rect id="사각형_1164" data-name="사각형 1164" width="90.725" height="59.242" transform="translate(649.424 573.484)" fill="#cee6fe"/>
      <path id="패스_1643" data-name="패스 1643" d="M763.8,668.874H673.076a.536.536,0,0,1-.536-.536V609.1a.536.536,0,0,1,.536-.536H763.8a.536.536,0,0,1,.536.536v59.242A.536.536,0,0,1,763.8,668.874ZM673.612,667.8h89.653V609.632H673.612Z" transform="translate(-23.652 -35.613)" fill="#3e5672"/>
      <rect id="사각형_1165" data-name="사각형 1165" width="90.725" height="3.2" transform="translate(649.424 632.487)" fill="#cee6fe"/>
      <path id="패스_1644" data-name="패스 1644" d="M763.8,751.019H673.076a.536.536,0,0,1-.536-.536v-3.2a.536.536,0,0,1,.536-.536H763.8a.536.536,0,0,1,.536.536v3.2A.536.536,0,0,1,763.8,751.019Zm-90.189-1.072h89.653v-2.129H673.612Z" transform="translate(-23.652 -114.798)" fill="#3e5672"/>
      <rect id="사각형_1166" data-name="사각형 1166" width="40.622" height="4.909" transform="translate(654.164 623.915)" fill="#fff"/>
      <path id="패스_1645" data-name="패스 1645" d="M724.755,732.6H684.133a.536.536,0,0,1-.536-.536v-4.909a.536.536,0,0,1,.536-.536h40.622a.536.536,0,0,1,.536.536v4.909A.536.536,0,0,1,724.755,732.6Zm-40.086-1.072h39.55v-3.837h-39.55Z" transform="translate(-29.968 -103.24)" fill="#3e5672"/>
      <path id="패스_1646" data-name="패스 1646" d="M720.56,600.034H684.846v54.8H720.56a4.909,4.909,0,0,1,4.909,4.909v-54.8a4.909,4.909,0,0,0-4.909-4.909" transform="translate(-30.682 -30.677)" fill="#fff"/>
      <path id="패스_1647" data-name="패스 1647" d="M724.755,659.568a.536.536,0,0,1-.536-.536,4.379,4.379,0,0,0-4.373-4.373H684.133a.536.536,0,0,1-.536-.536v-54.8a.536.536,0,0,1,.536-.536h35.713a5.451,5.451,0,0,1,5.445,5.445v54.8A.536.536,0,0,1,724.755,659.568Zm-40.086-5.981h35.177a5.441,5.441,0,0,1,4.373,2.2V604.228a4.379,4.379,0,0,0-4.373-4.373H684.669Z" transform="translate(-29.968 -29.961)" fill="#3e5672"/>
      <line id="선_344" data-name="선 344" x2="24.907" transform="translate(654.164 626.378)" fill="#fff"/>
      <path id="패스_1648" data-name="패스 1648" d="M709.04,733.414H684.133a.536.536,0,1,1,0-1.072H709.04a.536.536,0,1,1,0,1.072Z" transform="translate(-29.968 -106.502)" fill="#3e5672"/>
      <rect id="사각형_1167" data-name="사각형 1167" width="40.622" height="4.909" transform="translate(694.786 623.915)" fill="#fff"/>
      <path id="패스_1649" data-name="패스 1649" d="M819.508,732.6H778.886a.536.536,0,0,1-.536-.536v-4.909a.536.536,0,0,1,.536-.536h40.622a.536.536,0,0,1,.536.536v4.909A.536.536,0,0,1,819.508,732.6Zm-40.086-1.072h39.55v-3.837h-39.55Z" transform="translate(-84.1 -103.24)" fill="#3e5672"/>
      <path id="패스_1650" data-name="패스 1650" d="M784.509,600.034h35.714v54.8H784.509a4.909,4.909,0,0,0-4.909,4.909v-54.8a4.909,4.909,0,0,1,4.909-4.909" transform="translate(-84.814 -30.677)" fill="#fff"/>
      <path id="패스_1651" data-name="패스 1651" d="M778.886,659.568a.536.536,0,0,1-.536-.536v-54.8a5.451,5.451,0,0,1,5.445-5.445h35.714a.536.536,0,0,1,.536.536v54.8a.536.536,0,0,1-.536.536H783.795a4.378,4.378,0,0,0-4.373,4.373A.536.536,0,0,1,778.886,659.568Zm4.909-59.713a4.378,4.378,0,0,0-4.373,4.373v51.563a5.44,5.44,0,0,1,4.373-2.2h35.178V599.855Z" transform="translate(-84.1 -29.961)" fill="#3e5672"/>
      <path id="패스_1652" data-name="패스 1652" d="M800.154,746.828l-2.034-1.715-2.034,1.715V733.593h4.068Z" transform="translate(-94.232 -107.296)" fill="#fff"/>
      <path id="패스_1653" data-name="패스 1653" d="M799.44,746.65a.534.534,0,0,1-.345-.126l-1.689-1.424-1.689,1.424a.536.536,0,0,1-.882-.41V732.879a.536.536,0,0,1,.536-.536h4.069a.536.536,0,0,1,.536.536v13.235a.535.535,0,0,1-.536.536Zm-2.034-2.787a.536.536,0,0,1,.346.126l1.153.972V733.415h-3v11.547l1.153-.972A.536.536,0,0,1,797.406,743.863Z" transform="translate(-93.518 -106.585)" fill="#fc5d5b"/>
      <line id="선_345" data-name="선 345" x1="34.827" transform="translate(700.581 626.378)" fill="#fff"/>
      <path id="패스_1654" data-name="패스 1654" d="M827.23,733.414H792.4a.536.536,0,1,1,0-1.072H827.23a.536.536,0,1,1,0,1.072Z" transform="translate(-91.821 -106.502)" fill="#3e5672"/>
      <path id="패스_1655" data-name="패스 1655" d="M819.8,622.052h-8.624l-4.312,7.469,4.313,7.469H819.8l4.312-7.469Z" transform="translate(-100.387 -43.167)" fill="#cee6fe"/>
      <path id="패스_1656" data-name="패스 1656" d="M819.082,636.812h-8.624a.536.536,0,0,1-.464-.268l-4.313-7.469a.537.537,0,0,1,0-.536l4.313-7.469a.535.535,0,0,1,.464-.268h8.624a.535.535,0,0,1,.464.268l4.313,7.469a.536.536,0,0,1,0,.536l-4.313,7.469A.536.536,0,0,1,819.082,636.812Zm-8.315-1.072h8.005l4-6.933-4-6.933h-8.005l-4,6.933Z" transform="translate(-99.673 -42.452)" fill="#3e5672"/>
      <path id="패스_1657" data-name="패스 1657" d="M816.3,619.562a1.869,1.869,0,1,1-1.869-1.869,1.869,1.869,0,0,1,1.869,1.869" transform="translate(-103.643 -40.633)" fill="#fff"/>
      <path id="패스_1658" data-name="패스 1658" d="M813.714,621.252a2.4,2.4,0,1,1,2.4-2.4A2.407,2.407,0,0,1,813.714,621.252Zm0-3.738a1.333,1.333,0,1,0,1.332,1.333A1.334,1.334,0,0,0,813.714,617.515Z" transform="translate(-102.929 -39.917)" fill="#3e5672"/>
      <path id="패스_1659" data-name="패스 1659" d="M805.3,635.365a1.869,1.869,0,1,1-2.553.684,1.869,1.869,0,0,1,2.553-.684" transform="translate(-97.896 -50.644)" fill="#fff"/>
      <path id="패스_1660" data-name="패스 1660" d="M803.652,638.675a2.4,2.4,0,1,1,1.206-4.487h0a2.4,2.4,0,0,1-1.206,4.487Zm.006-3.737a1.333,1.333,0,1,0,.664.178h0A1.323,1.323,0,0,0,803.658,634.938Z" transform="translate(-97.183 -49.931)" fill="#3e5672"/>
      <path id="패스_1661" data-name="패스 1661" d="M813.493,652.787a1.869,1.869,0,1,1-.684,2.553,1.869,1.869,0,0,1,.684-2.553" transform="translate(-103.642 -60.656)" fill="#fff"/>
      <path id="패스_1662" data-name="패스 1662" d="M813.719,656.1a2.4,2.4,0,0,1-1.207-4.487h0a2.405,2.405,0,1,1,1.207,4.487Zm-.671-3.559a1.333,1.333,0,1,0,1.821.488,1.334,1.334,0,0,0-1.821-.488Z" transform="translate(-102.93 -59.942)" fill="#3e5672"/>
      <path id="패스_1663" data-name="패스 1663" d="M832.676,654.406a1.869,1.869,0,1,1,1.869,1.869,1.869,1.869,0,0,1-1.869-1.869" transform="translate(-115.135 -60.656)" fill="#fff"/>
      <path id="패스_1664" data-name="패스 1664" d="M833.831,656.1a2.4,2.4,0,1,1,2.406-2.4A2.407,2.407,0,0,1,833.831,656.1Zm0-3.738a1.333,1.333,0,1,0,1.334,1.333A1.334,1.334,0,0,0,833.831,652.359Z" transform="translate(-114.421 -59.942)" fill="#3e5672"/>
      <path id="패스_1665" data-name="패스 1665" d="M843.668,638.6a1.869,1.869,0,1,1,2.553-.684,1.869,1.869,0,0,1-2.553.684" transform="translate(-120.881 -50.644)" fill="#fff"/>
      <path id="패스_1666" data-name="패스 1666" d="M843.886,638.673a2.4,2.4,0,1,1,2.087-1.2A2.387,2.387,0,0,1,843.886,638.673Zm.006-3.737a1.335,1.335,0,1,0,.664.179A1.336,1.336,0,0,0,843.892,634.936Z" transform="translate(-120.168 -49.928)" fill="#3e5672"/>
      <path id="패스_1667" data-name="패스 1667" d="M835.479,621.18a1.869,1.869,0,1,1,.684-2.553,1.869,1.869,0,0,1-.684,2.553" transform="translate(-115.135 -40.633)" fill="#fff"/>
      <path id="패스_1668" data-name="패스 1668" d="M833.836,621.251a2.4,2.4,0,1,1,1.2-.322A2.405,2.405,0,0,1,833.836,621.251Zm-.006-3.737A1.333,1.333,0,1,0,834.5,620a1.332,1.332,0,0,0-.668-2.487Z" transform="translate(-114.422 -39.916)" fill="#3e5672"/>
      <rect id="사각형_1168" data-name="사각형 1168" width="13.059" height="13.059" transform="translate(659.63 605.558)" fill="#fff"/>
      <path id="패스_1669" data-name="패스 1669" d="M709.941,697.678H696.882a.536.536,0,0,1-.536-.536V684.083a.536.536,0,0,1,.536-.536h13.059a.536.536,0,0,1,.536.536v13.059A.536.536,0,0,1,709.941,697.678Zm-12.523-1.072h11.987V684.619H697.418Z" transform="translate(-37.252 -78.525)" fill="#3e5672"/>
      <line id="선_346" data-name="선 346" x1="13.059" y2="13.059" transform="translate(659.63 605.558)" fill="#fff"/>
      <path id="패스_1670" data-name="패스 1670" d="M696.882,697.678a.536.536,0,0,1-.379-.915L709.562,683.7a.536.536,0,1,1,.758.758L697.26,697.521A.534.534,0,0,1,696.882,697.678Z" transform="translate(-37.252 -78.525)" fill="#3e5672"/>
      <line id="선_347" data-name="선 347" x2="13.059" y2="13.059" transform="translate(659.63 605.558)" fill="#fff"/>
      <path id="패스_1671" data-name="패스 1671" d="M709.94,697.678a.534.534,0,0,1-.379-.157L696.5,684.462a.536.536,0,0,1,.758-.758l13.059,13.059a.536.536,0,0,1-.379.915Z" transform="translate(-37.251 -78.525)" fill="#3e5672"/>
      <line id="선_348" data-name="선 348" x2="13.084" transform="translate(676.536 618.578)" fill="#fff"/>
      <path id="패스_1672" data-name="패스 1672" d="M749.4,715.08H736.315a.536.536,0,1,1,0-1.072H749.4a.536.536,0,1,1,0,1.072Z" transform="translate(-59.779 -95.968)" fill="#3e5672"/>
      <line id="선_349" data-name="선 349" x2="13.084" transform="translate(676.536 614.954)" fill="#fff"/>
      <path id="패스_1673" data-name="패스 1673" d="M749.4,706.562H736.315a.536.536,0,0,1,0-1.072H749.4a.536.536,0,0,1,0,1.072Z" transform="translate(-59.779 -91.073)" fill="#3e5672"/>
      <line id="선_350" data-name="선 350" x2="13.084" transform="translate(676.536 611.33)" fill="#fff"/>
      <path id="패스_1674" data-name="패스 1674" d="M749.4,698.045H736.315a.536.536,0,0,1,0-1.072H749.4a.536.536,0,0,1,0,1.072Z" transform="translate(-59.779 -86.18)" fill="#3e5672"/>
      <line id="선_351" data-name="선 351" x2="13.084" transform="translate(676.536 607.706)" fill="#fff"/>
      <path id="패스_1675" data-name="패스 1675" d="M749.4,689.528H736.315a.536.536,0,0,1,0-1.072H749.4a.536.536,0,0,1,0,1.072Z" transform="translate(-59.779 -81.286)" fill="#3e5672"/>
      <line id="선_352" data-name="선 352" x2="13.084" transform="translate(676.536 604.083)" fill="#fff"/>
      <path id="패스_1676" data-name="패스 1676" d="M749.4,681.011H736.315a.536.536,0,0,1,0-1.072H749.4a.536.536,0,0,1,0,1.072Z" transform="translate(-59.779 -76.392)" fill="#3e5672"/>
      <line id="선_353" data-name="선 353" x2="29.804" transform="translate(659.816 600.459)" fill="#fff"/>
      <path id="패스_1677" data-name="패스 1677" d="M727.119,672.493h-29.8a.536.536,0,0,1,0-1.072h29.8a.536.536,0,1,1,0,1.072Z" transform="translate(-37.499 -71.498)" fill="#3e5672"/>
      <line id="선_354" data-name="선 354" x2="29.804" transform="translate(659.816 596.835)" fill="#fff"/>
      <path id="패스_1678" data-name="패스 1678" d="M727.119,663.976h-29.8a.536.536,0,0,1,0-1.072h29.8a.536.536,0,1,1,0,1.072Z" transform="translate(-37.499 -66.605)" fill="#3e5672"/>
      <line id="선_355" data-name="선 355" x2="29.804" transform="translate(659.816 593.211)" fill="#fff"/>
      <path id="패스_1679" data-name="패스 1679" d="M727.119,655.458h-29.8a.536.536,0,0,1,0-1.072h29.8a.536.536,0,0,1,0,1.072Z" transform="translate(-37.499 -61.71)" fill="#3e5672"/>
      <line id="선_356" data-name="선 356" x2="29.804" transform="translate(659.816 589.587)" fill="#fff"/>
      <path id="패스_1680" data-name="패스 1680" d="M727.119,646.94h-29.8a.536.536,0,0,1,0-1.072h29.8a.536.536,0,0,1,0,1.072Z" transform="translate(-37.499 -56.816)" fill="#3e5672"/>
      <line id="선_357" data-name="선 357" x2="29.804" transform="translate(659.816 585.963)" fill="#fff"/>
      <path id="패스_1681" data-name="패스 1681" d="M727.119,638.423h-29.8a.536.536,0,0,1,0-1.072h29.8a.536.536,0,0,1,0,1.072Z" transform="translate(-37.499 -51.922)" fill="#3e5672"/>
      <line id="선_358" data-name="선 358" x2="29.804" transform="translate(659.816 582.34)" fill="#fff"/>
      <path id="패스_1682" data-name="패스 1682" d="M727.119,629.906h-29.8a.536.536,0,0,1,0-1.072h29.8a.536.536,0,0,1,0,1.072Z" transform="translate(-37.499 -47.029)" fill="#3e5672"/>
      <line id="선_359" data-name="선 359" x2="29.804" transform="translate(659.816 578.716)" fill="#fff"/>
      <path id="패스_1683" data-name="패스 1683" d="M727.119,621.389h-29.8a.536.536,0,0,1,0-1.072h29.8a.536.536,0,1,1,0,1.072Z" transform="translate(-37.499 -42.135)" fill="#3e5672"/>
      <line id="선_360" data-name="선 360" x2="29.804" transform="translate(659.816 575.092)" fill="#fff"/>
      <path id="패스_1684" data-name="패스 1684" d="M727.119,612.871h-29.8a.536.536,0,0,1,0-1.072h29.8a.536.536,0,0,1,0,1.072Z" transform="translate(-37.499 -37.241)" fill="#3e5672"/>
      <path id="패스_1685" data-name="패스 1685" d="M910.408,771.165h0a8.331,8.331,0,0,1-8.331-8.331v-9.952a8.331,8.331,0,1,1,16.661,0v9.952a8.331,8.331,0,0,1-8.331,8.331" transform="translate(-154.783 -113.717)" fill="#fff"/>
      <path id="패스_1686" data-name="패스 1686" d="M909.694,770.987a8.876,8.876,0,0,1-8.867-8.866v-9.953a8.867,8.867,0,1,1,17.733,0v9.953A8.876,8.876,0,0,1,909.694,770.987Zm0-26.614a7.8,7.8,0,0,0-7.795,7.795v9.953a7.795,7.795,0,0,0,15.59,0v-9.953A7.8,7.8,0,0,0,909.694,744.373Z" transform="translate(-154.069 -113.003)" fill="#3e5672"/>
      <path id="패스_1687" data-name="패스 1687" d="M919.432,760.249h0a1.558,1.558,0,0,1-1.558-1.559v-2.969a1.558,1.558,0,0,1,3.117,0v2.969a1.559,1.559,0,0,1-1.558,1.559" transform="translate(-163.808 -119.072)" fill="#cee6fe"/>
      <path id="패스_1688" data-name="패스 1688" d="M918.718,760.071a2.1,2.1,0,0,1-2.094-2.095v-2.969a2.094,2.094,0,0,1,4.189,0v2.969A2.1,2.1,0,0,1,918.718,760.071Zm0-6.086a1.023,1.023,0,0,0-1.022,1.023v2.969a1.023,1.023,0,1,0,2.045,0v-2.969A1.024,1.024,0,0,0,918.718,753.985Z" transform="translate(-163.094 -118.494)" fill="#3e5672"/>
      <rect id="사각형_1169" data-name="사각형 1169" width="13.184" height="13.184" transform="translate(651.806 548.392)" fill="#fff"/>
      <path id="패스_1689" data-name="패스 1689" d="M691.817,563.275H678.633a.536.536,0,0,1-.536-.536V549.555a.536.536,0,0,1,.536-.536h13.184a.536.536,0,0,1,.536.536v13.184A.536.536,0,0,1,691.817,563.275ZM679.169,562.2h12.112V550.091H679.169Z" transform="translate(-26.826 -1.163)" fill="#3e5672"/>
      <path id="패스_1690" data-name="패스 1690" d="M693.337,559.939l-5.313,5.317-3.909-3.909,1.407-1.407,2.5,2.5,3.906-3.909Z" transform="translate(-30.264 -6.597)" fill="#fff"/>
      <path id="패스_1691" data-name="패스 1691" d="M687.31,565.086a.535.535,0,0,1-.379-.157l-3.909-3.91a.536.536,0,0,1,0-.758l1.407-1.407a.551.551,0,0,1,.758,0l2.123,2.123,3.527-3.53a.552.552,0,0,1,.758,0L693,558.854a.536.536,0,0,1,0,.758l-5.313,5.317A.536.536,0,0,1,687.31,565.086Zm-3.151-4.445,3.151,3.151,4.555-4.559-.649-.649-3.527,3.53a.551.551,0,0,1-.758,0l-2.124-2.123Z" transform="translate(-29.55 -5.891)" fill="#fc5d5b"/>
      <path id="패스_1692" data-name="패스 1692" d="M840.4,686.171l-8.062,2.685,2.686-8.062,6.76-1.384Z" transform="translate(-114.945 -76.125)" fill="#fff"/>
      <path id="패스_1693" data-name="패스 1693" d="M831.628,688.679a.536.536,0,0,1-.508-.706l2.686-8.062a.537.537,0,0,1,.4-.355l6.76-1.384a.536.536,0,0,1,.633.632l-1.384,6.76a.535.535,0,0,1-.356.4l-8.062,2.685A.523.523,0,0,1,831.628,688.679Zm3.1-8.134-2.249,6.751,6.752-2.249,1.159-5.662Zm4.966,4.914h0Z" transform="translate(-114.23 -75.412)" fill="#3e5672"/>
      <line id="선_361" data-name="선 361" y1="4.797" x2="4.797" transform="translate(717.398 607.919)" fill="#fff"/>
      <path id="패스_1694" data-name="패스 1694" d="M831.629,694.873a.536.536,0,0,1-.379-.915l4.8-4.8a.536.536,0,0,1,.758.758l-4.8,4.8A.533.533,0,0,1,831.629,694.873Z" transform="translate(-114.231 -81.622)" fill="#3e5672"/>
      <path id="패스_1695" data-name="패스 1695" d="M850.449,667.994l-2.6-2.6,9.654-10.865,3.812,3.812Z" transform="translate(-123.803 -61.836)" fill="#fff"/>
      <path id="패스_1696" data-name="패스 1696" d="M849.735,667.815a.536.536,0,0,1-.379-.157l-2.6-2.6a.536.536,0,0,1-.022-.735l9.655-10.865a.532.532,0,0,1,.385-.18.5.5,0,0,1,.395.156l3.812,3.812a.537.537,0,0,1-.023.78l-10.865,9.654A.534.534,0,0,1,849.735,667.815Zm-1.865-3.159,1.887,1.887,10.062-8.942-3.008-3.008Z" transform="translate(-123.089 -61.121)" fill="#3e5672"/>
      <path id="패스_1697" data-name="패스 1697" d="M899.3,595.178h0a1.935,1.935,0,0,0-2.712-.024L870.367,620.3l3.812,3.812,25.144-26.221a1.934,1.934,0,0,0-.024-2.712" transform="translate(-136.668 -27.419)" fill="#cee6fe"/>
      <path id="패스_1698" data-name="패스 1698" d="M873.465,623.938a.536.536,0,0,1-.379-.157l-3.812-3.813a.536.536,0,0,1,.008-.766L895.5,594.059a2.481,2.481,0,0,1,3.461.032h0a2.482,2.482,0,0,1,.032,3.463l-25.144,26.22a.537.537,0,0,1-.382.165Zm-3.046-4.34,3.038,3.039,24.766-25.826a1.406,1.406,0,0,0-.017-1.962h0a1.4,1.4,0,0,0-1.96-.017Z" transform="translate(-135.953 -26.708)" fill="#3e5672"/>
      <line id="선_362" data-name="선 362" x2="20.698" transform="translate(700.581 600.035)" fill="#fff"/>
      <path id="패스_1699" data-name="패스 1699" d="M813.1,671.5H792.4a.536.536,0,1,1,0-1.072h20.7a.536.536,0,0,1,0,1.072Z" transform="translate(-91.821 -70.926)" fill="#3e5672"/>
      <line id="선_363" data-name="선 363" x2="15.068" transform="translate(700.581 603.765)" fill="#fff"/>
      <path id="패스_1700" data-name="패스 1700" d="M807.47,680.264H792.4a.536.536,0,1,1,0-1.072H807.47a.536.536,0,0,1,0,1.072Z" transform="translate(-91.821 -75.963)" fill="#3e5672"/>
      <line id="선_364" data-name="선 364" x2="15.068" transform="translate(700.581 607.495)" fill="#fff"/>
      <path id="패스_1701" data-name="패스 1701" d="M807.47,689.03H792.4a.536.536,0,1,1,0-1.072H807.47a.536.536,0,0,1,0,1.072Z" transform="translate(-91.821 -81)" fill="#3e5672"/>
      <line id="선_365" data-name="선 365" x2="11.861" transform="translate(700.581 611.224)" fill="#fff"/>
      <path id="패스_1702" data-name="패스 1702" d="M804.263,697.8H792.4a.536.536,0,1,1,0-1.072h11.861a.536.536,0,0,1,0,1.072Z" transform="translate(-91.821 -86.037)" fill="#3e5672"/>
      <line id="선_366" data-name="선 366" x2="15.068" transform="translate(700.581 614.954)" fill="#fff"/>
      <path id="패스_1703" data-name="패스 1703" d="M807.47,706.562H792.4a.536.536,0,1,1,0-1.072H807.47a.536.536,0,0,1,0,1.072Z" transform="translate(-91.821 -91.073)" fill="#3e5672"/>
      <rect id="사각형_1170" data-name="사각형 1170" width="11.463" height="3.341" transform="translate(655.685 638.651)" fill="#eef7ff"/>
      <path id="패스_1704" data-name="패스 1704" d="M699.142,765.946H687.679a.536.536,0,0,1-.536-.536v-3.341a.536.536,0,0,1,.536-.536h11.463a.536.536,0,0,1,.536.536v3.341A.536.536,0,0,1,699.142,765.946Zm-10.927-1.072h10.391V762.6H688.215Z" transform="translate(-31.994 -123.418)" fill="#97a7b7"/>
      <path id="패스_1705" data-name="패스 1705" d="M647.8,766.124h-9.792a1.671,1.671,0,1,1,0-3.341H647.8Z" transform="translate(-2.97 -124.132)" fill="#eef7ff"/>
      <path id="패스_1706" data-name="패스 1706" d="M647.085,765.945h-9.792a2.207,2.207,0,0,1,0-4.413h9.792a.536.536,0,0,1,.536.536v3.341A.535.535,0,0,1,647.085,765.945Zm-9.792-3.341a1.135,1.135,0,0,0,0,2.27h9.256V762.6Z" transform="translate(-2.255 -123.418)" fill="#97a7b7"/>
      <path id="패스_1707" data-name="패스 1707" d="M740.449,766.124h9.792a1.671,1.671,0,1,0,0-3.341h-9.792Z" transform="translate(-62.447 -124.132)" fill="#eef7ff"/>
      <path id="패스_1708" data-name="패스 1708" d="M749.527,765.945h-9.792a.536.536,0,0,1-.536-.536v-3.341a.536.536,0,0,1,.536-.536h9.792a2.207,2.207,0,1,1,0,4.413Zm-9.256-1.072h9.256a1.135,1.135,0,1,0,0-2.27h-9.256Z" transform="translate(-61.733 -123.418)" fill="#97a7b7"/>
      <path id="패스_1709" data-name="패스 1709" d="M668.33,758.9A10.906,10.906,0,1,1,657.424,748,10.906,10.906,0,0,1,668.33,758.9" transform="translate(-8.786 -115.685)" fill="#eef7ff"/>
      <path id="패스_1710" data-name="패스 1710" d="M656.71,769.629a11.442,11.442,0,1,1,11.442-11.442A11.454,11.454,0,0,1,656.71,769.629Zm0-21.812a10.37,10.37,0,1,0,10.37,10.37A10.382,10.382,0,0,0,656.71,747.818Z" transform="translate(-8.072 -114.971)" fill="#97a7b7"/>
      <path id="패스_1711" data-name="패스 1711" d="M669.4,763.171a7.7,7.7,0,1,1-7.7-7.7,7.7,7.7,0,0,1,7.7,7.7" transform="translate(-13.054 -119.954)" fill="#fff"/>
      <path id="패스_1712" data-name="패스 1712" d="M660.979,770.7a8.238,8.238,0,1,1,8.238-8.238A8.248,8.248,0,0,1,660.979,770.7Zm0-15.4a7.166,7.166,0,1,0,7.166,7.166A7.175,7.175,0,0,0,660.979,755.291Z" transform="translate(-12.34 -119.24)" fill="#97a7b7"/>
      <path id="패스_1713" data-name="패스 1713" d="M727.94,758.9A10.906,10.906,0,1,1,717.034,748,10.906,10.906,0,0,1,727.94,758.9" transform="translate(-42.84 -115.685)" fill="#eef7ff"/>
      <path id="패스_1714" data-name="패스 1714" d="M716.32,769.629a11.442,11.442,0,1,1,11.442-11.442A11.455,11.455,0,0,1,716.32,769.629Zm0-21.812a10.37,10.37,0,1,0,10.37,10.37A10.382,10.382,0,0,0,716.32,747.818Z" transform="translate(-42.126 -114.971)" fill="#97a7b7"/>
      <path id="패스_1715" data-name="패스 1715" d="M729.006,763.171a7.7,7.7,0,1,1-7.7-7.7,7.7,7.7,0,0,1,7.7,7.7" transform="translate(-47.109 -119.954)" fill="#fff"/>
      <path id="패스_1716" data-name="패스 1716" d="M720.589,770.7a8.238,8.238,0,1,1,8.238-8.238A8.248,8.248,0,0,1,720.589,770.7Zm0-15.4a7.166,7.166,0,1,0,7.166,7.166A7.175,7.175,0,0,0,720.589,755.291Z" transform="translate(-46.395 -119.24)" fill="#97a7b7"/>
    </g>
    <text id="_기본문서형_-_xls_xlsx_zip_" data-name="[기본문서형 - xls, xlsx, zip]" transform="translate(188 357)" fill="#454c53" font-size="16" font-family="NotoSansKR-Medium, Noto Sans KR" font-weight="500"><tspan x="0" y="0">[기본문서형 - xls, xlsx, zip]</tspan></text>
  </g>
</svg>
