<svg xmlns="http://www.w3.org/2000/svg" width="500" height="320" viewBox="0 0 500 320">
  <g id="noimage_t2" transform="translate(-31 -129)">
    <rect id="img_" width="500" height="320" transform="translate(31 129)" fill="#f5f5f5"/>
    <text id="_온라인_시험지_" data-name="[온라인 시험지]" transform="translate(230 357)" fill="#454c53" font-size="16" font-family="NotoSansKR-Medium, Noto Sans KR" font-weight="500"><tspan x="0" y="0">[온라인 시험지]</tspan></text>
    <g id="그룹_1172" data-name="그룹 1172" transform="translate(96.852 -315.183)">
      <path id="패스_1476" data-name="패스 1476" d="M158.976,759.863H132.086a6.636,6.636,0,1,0,0,13.273h79.92" transform="translate(-7.914 -135.713)" fill="#fff"/>
      <path id="패스_1477" data-name="패스 1477" d="M209.961,772.9h-.81a.506.506,0,1,1,0-1.013h.81a.506.506,0,1,1,0,1.013Zm-4.05,0h-.81a.506.506,0,0,1,0-1.013h.81a.506.506,0,0,1,0,1.013Zm-4.05,0h-.81a.506.506,0,0,1,0-1.013h.81a.506.506,0,1,1,0,1.013Zm-4.05,0H197a.506.506,0,1,1,0-1.013h.81a.506.506,0,1,1,0,1.013Zm-4.05,0h-.81a.506.506,0,1,1,0-1.013h.81a.506.506,0,0,1,0,1.013Zm-4.05,0h-.81a.506.506,0,0,1,0-1.013h.81a.506.506,0,1,1,0,1.013Zm-4.05,0h-.81a.506.506,0,1,1,0-1.013h.81a.506.506,0,1,1,0,1.013Zm-4.05,0h-.81a.506.506,0,0,1,0-1.013h.81a.506.506,0,1,1,0,1.013Zm-4.05,0h-.81a.506.506,0,1,1,0-1.013h.81a.506.506,0,1,1,0,1.013Zm-4.05,0h-.81a.506.506,0,0,1,0-1.013h.81a.506.506,0,1,1,0,1.013Zm-4.05,0h-.81a.506.506,0,0,1,0-1.013h.81a.506.506,0,1,1,0,1.013Zm-4.05,0h-.81a.506.506,0,1,1,0-1.013h.81a.506.506,0,0,1,0,1.013Zm-4.05,0h-.81a.506.506,0,1,1,0-1.013h.81a.506.506,0,0,1,0,1.013Zm-4.05,0h-.81a.506.506,0,0,1,0-1.013h.81a.506.506,0,1,1,0,1.013Zm-4.05,0h-.81a.506.506,0,0,1,0-1.013h.81a.506.506,0,0,1,0,1.013Zm-4.05,0h-.81a.506.506,0,1,1,0-1.013h.81a.506.506,0,0,1,0,1.013Zm-4.05,0h-.81a.506.506,0,1,1,0-1.013h.81a.506.506,0,1,1,0,1.013Zm-4.05,0h-.81a.506.506,0,0,1,0-1.013h.81a.506.506,0,1,1,0,1.013Zm-4.05,0h-.81a.506.506,0,0,1,0-1.013h.81a.506.506,0,1,1,0,1.013Zm-4.05,0h-.81a.506.506,0,1,1,0-1.013h.81a.506.506,0,0,1,0,1.013Zm-4-.422a.5.5,0,0,1-.178-.032,7.118,7.118,0,0,1-.8-.356.506.506,0,0,1,.469-.9,6.168,6.168,0,0,0,.682.305.506.506,0,0,1-.178.98Zm-3.138-2.459a.506.506,0,0,1-.418-.219,7.294,7.294,0,0,1-.449-.747.506.506,0,1,1,.9-.468,6.1,6.1,0,0,0,.386.641.507.507,0,0,1-.417.793Zm-1.165-3.812h0a.506.506,0,0,1-.5-.511,7.288,7.288,0,0,1,.06-.868.506.506,0,0,1,1,.131,6.256,6.256,0,0,0-.051.746A.506.506,0,0,1,124.705,766.2Zm1.229-3.792a.506.506,0,0,1-.412-.8,7.186,7.186,0,0,1,.548-.676.506.506,0,1,1,.747.683,6.288,6.288,0,0,0-.471.582A.5.5,0,0,1,125.934,762.413Zm3.181-2.4a.506.506,0,0,1-.17-.984,7.228,7.228,0,0,1,.838-.241.506.506,0,1,1,.221.988,6.175,6.175,0,0,0-.719.207A.516.516,0,0,1,129.115,760.008Zm29.118-.383h-.81a.506.506,0,1,1,0-1.013h.81a.506.506,0,1,1,0,1.013Zm-4.05,0h-.81a.506.506,0,0,1,0-1.013h.81a.506.506,0,1,1,0,1.013Zm-4.05,0h-.81a.506.506,0,1,1,0-1.013h.81a.506.506,0,0,1,0,1.013Zm-4.05,0h-.81a.506.506,0,1,1,0-1.013h.81a.506.506,0,0,1,0,1.013Zm-4.05,0h-.81a.506.506,0,1,1,0-1.013h.81a.506.506,0,1,1,0,1.013Zm-4.05,0h-.81a.506.506,0,0,1,0-1.013h.81a.506.506,0,1,1,0,1.013Zm-4.05,0h-.81a.506.506,0,0,1,0-1.013h.81a.506.506,0,0,1,0,1.013Z" transform="translate(-7.17 -134.969)" fill="#97a7b7"/>
      <path id="패스_1478" data-name="패스 1478" d="M329.154,567.6h0a1.712,1.712,0,0,1,.541-1.249l.177-.166a1.713,1.713,0,0,0,.541-1.249v-2.977a2.8,2.8,0,1,0-5.592,0v2.977a1.713,1.713,0,0,0,.541,1.249l.177.166a1.712,1.712,0,0,1-.6,2.863l-3.185,1.127a3.525,3.525,0,0,0-2.349,3.323v2.779h16.426v-2.779a3.525,3.525,0,0,0-2.349-3.323l-3.185-1.127a1.712,1.712,0,0,1-1.141-1.615" transform="translate(-123.312 -16.055)" fill="#fff"/>
      <path id="패스_1479" data-name="패스 1479" d="M335.085,576.209H318.659a.506.506,0,0,1-.506-.506v-2.778a4.038,4.038,0,0,1,2.686-3.8L324.025,568a1.206,1.206,0,0,0,.423-2.017l-.177-.165a2.227,2.227,0,0,1-.7-1.618V561.22a3.3,3.3,0,1,1,6.6,0V564.2a2.225,2.225,0,0,1-.7,1.618l-.177.166A1.206,1.206,0,0,0,329.72,568l3.186,1.127a4.039,4.039,0,0,1,2.686,3.8V575.7A.506.506,0,0,1,335.085,576.209Zm-15.92-1.013h15.414v-2.272a3.023,3.023,0,0,0-2.012-2.846l-3.185-1.127a2.219,2.219,0,0,1-.778-3.71l.177-.166a1.213,1.213,0,0,0,.38-.88V561.22a2.29,2.29,0,1,0-4.579,0V564.2a1.213,1.213,0,0,0,.381.88l.177.165a2.218,2.218,0,0,1-.778,3.71l-3.185,1.127a3.023,3.023,0,0,0-2.012,2.846Z" transform="translate(-122.568 -15.311)" fill="#97a7b7"/>
      <path id="패스_1480" data-name="패스 1480" d="M337.03,598.005v1.549H325.723v-1.549" transform="translate(-127.072 -39.223)" fill="#fff"/>
      <path id="패스_1481" data-name="패스 1481" d="M336.286,599.317H324.979a.506.506,0,0,1-.506-.506v-1.549a.506.506,0,0,1,1.013,0V598.3H335.78v-1.043a.506.506,0,0,1,1.013,0v1.549A.506.506,0,0,1,336.286,599.317Z" transform="translate(-126.328 -38.479)" fill="#97a7b7"/>
      <path id="패스_1482" data-name="패스 1482" d="M256.182,567.6h0a1.712,1.712,0,0,0-.541-1.249l-.177-.166a1.713,1.713,0,0,1-.541-1.249v-2.977a2.8,2.8,0,1,1,5.592,0v2.977a1.713,1.713,0,0,1-.541,1.249l-.177.166a1.712,1.712,0,0,0,.6,2.863l3.185,1.127a3.525,3.525,0,0,1,2.35,3.323v2.779H249.506v-2.779a3.524,3.524,0,0,1,2.349-3.323l3.185-1.127a1.712,1.712,0,0,0,1.141-1.615" transform="translate(-81.725 -16.055)" fill="#fff"/>
      <path id="패스_1483" data-name="패스 1483" d="M265.188,576.209H248.762a.506.506,0,0,1-.506-.506v-2.778a4.038,4.038,0,0,1,2.687-3.8L254.128,568a1.207,1.207,0,0,0,.423-2.017l-.177-.165a2.227,2.227,0,0,1-.7-1.618V561.22a3.3,3.3,0,1,1,6.6,0V564.2a2.227,2.227,0,0,1-.7,1.618l-.177.166a1.206,1.206,0,0,0,.423,2.017l3.185,1.127a4.038,4.038,0,0,1,2.687,3.8V575.7A.506.506,0,0,1,265.188,576.209Zm-15.92-1.013h15.414v-2.272a3.023,3.023,0,0,0-2.012-2.846l-3.185-1.127a2.219,2.219,0,0,1-.778-3.71l.177-.166a1.212,1.212,0,0,0,.38-.88V561.22a2.29,2.29,0,1,0-4.579,0V564.2a1.212,1.212,0,0,0,.381.88l.177.165a2.219,2.219,0,0,1-.778,3.71l-3.185,1.127a3.023,3.023,0,0,0-2.012,2.846Z" transform="translate(-80.981 -15.311)" fill="#97a7b7"/>
      <path id="패스_1484" data-name="패스 1484" d="M255.825,598.005v1.549h11.307v-1.549" transform="translate(-85.485 -39.223)" fill="#fff"/>
      <path id="패스_1485" data-name="패스 1485" d="M266.388,599.317H255.081a.506.506,0,0,1-.506-.506v-1.549a.506.506,0,0,1,1.013,0V598.3h10.294v-1.043a.506.506,0,0,1,1.013,0v1.549A.506.506,0,0,1,266.388,599.317Z" transform="translate(-84.741 -38.479)" fill="#97a7b7"/>
      <path id="패스_1486" data-name="패스 1486" d="M291.405,558.5h0a2.169,2.169,0,0,1,.684-1.581l.224-.21a2.168,2.168,0,0,0,.685-1.581v-3.768a3.539,3.539,0,1,0-7.079,0v3.768a2.168,2.168,0,0,0,.685,1.581l.224.21a2.168,2.168,0,0,1-.76,3.625l-4.032,1.426a4.462,4.462,0,0,0-2.974,4.207V569.7h20.794v-3.518a4.462,4.462,0,0,0-2.974-4.207l-4.032-1.426a2.167,2.167,0,0,1-1.444-2.044" transform="translate(-99.31 -9.307)" fill="#eef7ff"/>
      <path id="패스_1487" data-name="패스 1487" d="M299.112,569.461H278.318a.506.506,0,0,1-.506-.506v-3.518a4.977,4.977,0,0,1,3.311-4.684l4.032-1.426a1.661,1.661,0,0,0,.583-2.778l-.224-.211a2.683,2.683,0,0,1-.844-1.95v-3.767a4.046,4.046,0,1,1,8.091,0v3.767a2.683,2.683,0,0,1-.845,1.951l-.224.21a1.662,1.662,0,0,0,.582,2.779l4.032,1.426a4.977,4.977,0,0,1,3.311,4.684v3.518A.506.506,0,0,1,299.112,569.461Zm-20.288-1.013h19.781v-3.011a3.962,3.962,0,0,0-2.636-3.729l-4.032-1.426A2.675,2.675,0,0,1,291,555.81l.223-.21a1.668,1.668,0,0,0,.526-1.212v-3.767a3.033,3.033,0,1,0-6.066,0v3.767a1.668,1.668,0,0,0,.524,1.212l.224.21a2.674,2.674,0,0,1-.938,4.471l-4.032,1.426a3.962,3.962,0,0,0-2.637,3.729Z" transform="translate(-98.566 -8.563)" fill="#97a7b7"/>
      <path id="패스_1488" data-name="패스 1488" d="M301.376,596.988v1.961H287.063v-1.961" transform="translate(-104.07 -38.617)" fill="#eef7ff"/>
      <path id="패스_1489" data-name="패스 1489" d="M300.632,598.712H286.319a.506.506,0,0,1-.506-.506v-1.961a.506.506,0,1,1,1.013,0V597.7h13.3v-1.455a.506.506,0,1,1,1.013,0v1.961A.506.506,0,0,1,300.632,598.712Z" transform="translate(-103.327 -37.873)" fill="#97a7b7"/>
      <path id="패스_1490" data-name="패스 1490" d="M450.188,775.352a4.9,4.9,0,1,1-4.9-4.9,4.9,4.9,0,0,1,4.9,4.9" transform="translate(-195.293 -142.012)" fill="#fff"/>
      <path id="패스_1491" data-name="패스 1491" d="M451.657,779.956a1.767,1.767,0,1,1-1.767-1.767,1.767,1.767,0,0,1,1.767,1.767" transform="translate(-199.897 -146.616)" fill="#fff"/>
      <path id="패스_1492" data-name="패스 1492" d="M449.146,781.486a2.273,2.273,0,1,1,2.274-2.273A2.276,2.276,0,0,1,449.146,781.486Zm0-3.534a1.261,1.261,0,1,0,1.261,1.26A1.262,1.262,0,0,0,449.146,777.953Z" transform="translate(-199.154 -145.873)" fill="#3e5672"/>
      <path id="패스_1493" data-name="패스 1493" d="M141.147,643.292a7.676,7.676,0,1,1-7.676-7.676,7.676,7.676,0,0,1,7.676,7.676" transform="translate(-8.12 -61.649)" fill="#fff"/>
      <line id="선_290" data-name="선 290" y1="2.542" transform="translate(125.351 576.543)" fill="#fff"/>
      <path id="패스_1494" data-name="패스 1494" d="M144,644.263a.507.507,0,0,1-.506-.506v-2.542a.506.506,0,0,1,1.013,0v2.542A.506.506,0,0,1,144,644.263Z" transform="translate(-18.651 -64.671)" fill="#3e5672"/>
      <line id="선_291" data-name="선 291" x1="1.797" y1="1.797" transform="translate(121.74 578.036)" fill="#fff"/>
      <path id="패스_1495" data-name="패스 1495" d="M136.884,647.211a.5.5,0,0,1-.358-.148l-1.8-1.8a.506.506,0,0,1,.716-.716l1.8,1.8a.506.506,0,0,1-.358.864Z" transform="translate(-13.347 -66.872)" fill="#3e5672"/>
      <line id="선_292" data-name="선 292" x1="2.542" transform="translate(120.244 581.641)" fill="#fff"/>
      <path id="패스_1496" data-name="패스 1496" d="M133.936,654.33h-2.542a.506.506,0,1,1,0-1.013h2.542a.506.506,0,0,1,0,1.013Z" transform="translate(-11.15 -72.182)" fill="#3e5672"/>
      <line id="선_293" data-name="선 293" x1="1.797" y2="1.797" transform="translate(121.74 583.449)" fill="#fff"/>
      <path id="패스_1497" data-name="패스 1497" d="M135.087,660.6a.506.506,0,0,1-.358-.864l1.8-1.8a.506.506,0,0,1,.716.716l-1.8,1.8A.5.5,0,0,1,135.087,660.6Z" transform="translate(-13.347 -74.853)" fill="#3e5672"/>
      <line id="선_294" data-name="선 294" y2="2.542" transform="translate(125.351 584.197)" fill="#fff"/>
      <path id="패스_1498" data-name="패스 1498" d="M144,663.2a.507.507,0,0,1-.506-.506v-2.542a.506.506,0,0,1,1.013,0V662.7A.506.506,0,0,1,144,663.2Z" transform="translate(-18.651 -75.959)" fill="#3e5672"/>
      <line id="선_295" data-name="선 295" x2="1.797" y2="1.797" transform="translate(127.165 583.449)" fill="#fff"/>
      <path id="패스_1499" data-name="패스 1499" d="M150.278,660.6a.5.5,0,0,1-.358-.149l-1.8-1.8a.506.506,0,0,1,.716-.716l1.8,1.8a.506.506,0,0,1-.358.864Z" transform="translate(-21.316 -74.853)" fill="#3e5672"/>
      <line id="선_296" data-name="선 296" x2="2.542" transform="translate(127.916 581.641)" fill="#fff"/>
      <path id="패스_1500" data-name="패스 1500" d="M152.877,654.33h-2.541a.506.506,0,0,1,0-1.013h2.541a.506.506,0,1,1,0,1.013Z" transform="translate(-22.42 -72.182)" fill="#3e5672"/>
      <line id="선_297" data-name="선 297" y1="1.797" x2="1.797" transform="translate(127.165 578.036)" fill="#fff"/>
      <path id="패스_1501" data-name="패스 1501" d="M148.481,647.211a.506.506,0,0,1-.358-.864l1.8-1.8a.506.506,0,0,1,.716.716l-1.8,1.8A.5.5,0,0,1,148.481,647.211Z" transform="translate(-21.316 -66.872)" fill="#3e5672"/>
      <path id="패스_1502" data-name="패스 1502" d="M433.29,700.217a6.534,6.534,0,1,1-6.533-6.534,6.533,6.533,0,0,1,6.533,6.534" transform="translate(-183.297 -96.254)" fill="#fff"/>
      <line id="선_298" data-name="선 298" y1="2.256" transform="translate(243.459 599.441)" fill="#fff"/>
      <path id="패스_1503" data-name="패스 1503" d="M435.611,700.639a.506.506,0,0,1-.506-.506v-2.257a.506.506,0,1,1,1.013,0v2.257A.506.506,0,0,1,435.611,700.639Z" transform="translate(-192.152 -98.436)" fill="#3e5672"/>
      <line id="선_299" data-name="선 299" x1="2.256" transform="translate(238.926 603.967)" fill="#fff"/>
      <path id="패스_1504" data-name="패스 1504" d="M426.674,709.578h-2.256a.506.506,0,1,1,0-1.013h2.256a.506.506,0,1,1,0,1.013Z" transform="translate(-185.492 -105.104)" fill="#3e5672"/>
      <line id="선_300" data-name="선 300" y2="2.257" transform="translate(243.459 606.236)" fill="#fff"/>
      <path id="패스_1505" data-name="패스 1505" d="M435.611,717.456a.506.506,0,0,1-.506-.506v-2.257a.506.506,0,0,1,1.013,0v2.257A.506.506,0,0,1,435.611,717.456Z" transform="translate(-192.152 -108.458)" fill="#3e5672"/>
      <line id="선_301" data-name="선 301" x2="2.257" transform="translate(245.737 603.967)" fill="#fff"/>
      <path id="패스_1506" data-name="패스 1506" d="M443.491,709.578h-2.256a.506.506,0,1,1,0-1.013h2.256a.506.506,0,1,1,0,1.013Z" transform="translate(-195.497 -105.104)" fill="#3e5672"/>
      <path id="패스_1507" data-name="패스 1507" d="M121.654,760.926a4.753,4.753,0,1,1-4.753-4.753,4.753,4.753,0,0,1,4.753,4.753" transform="translate(0 -133.517)" fill="#fff"/>
      <line id="선_302" data-name="선 302" y1="1.642" transform="translate(116.901 624.111)" fill="#fff"/>
      <path id="패스_1508" data-name="패스 1508" d="M123.138,761.169a.506.506,0,0,1-.506-.506v-1.642a.506.506,0,1,1,1.013,0v1.642A.506.506,0,0,1,123.138,761.169Z" transform="translate(-6.238 -134.911)" fill="#3e5672"/>
      <line id="선_303" data-name="선 303" x1="1.642" transform="translate(113.603 627.409)" fill="#fff"/>
      <path id="패스_1509" data-name="패스 1509" d="M116.637,767.67H115a.506.506,0,1,1,0-1.012h1.642a.506.506,0,1,1,0,1.012Z" transform="translate(-1.393 -139.755)" fill="#3e5672"/>
      <line id="선_304" data-name="선 304" y2="1.642" transform="translate(116.901 629.065)" fill="#fff"/>
      <path id="패스_1510" data-name="패스 1510" d="M123.138,773.4a.506.506,0,0,1-.506-.506v-1.642a.506.506,0,1,1,1.013,0V772.9A.506.506,0,0,1,123.138,773.4Z" transform="translate(-6.238 -142.189)" fill="#3e5672"/>
      <line id="선_305" data-name="선 305" x2="1.642" transform="translate(118.557 627.409)" fill="#fff"/>
      <path id="패스_1511" data-name="패스 1511" d="M128.87,767.67h-1.641a.506.506,0,1,1,0-1.012h1.641a.506.506,0,1,1,0,1.012Z" transform="translate(-8.672 -139.755)" fill="#3e5672"/>
      <rect id="사각형_1157" data-name="사각형 1157" width="85.388" height="61.729" transform="translate(147.678 563.305)" fill="#fff"/>
      <path id="패스_1512" data-name="패스 1512" d="M284.517,670.9H199.128a.506.506,0,0,1-.506-.506V608.665a.507.507,0,0,1,.506-.506h85.388a.507.507,0,0,1,.506.506v61.729A.506.506,0,0,1,284.517,670.9Zm-84.882-1.013H284.01V609.172H199.635Z" transform="translate(-51.45 -45.361)" fill="#3e5672"/>
      <path id="패스_1513" data-name="패스 1513" d="M296.266,650.223a19.229,19.229,0,1,1-19.229-19.229,19.229,19.229,0,0,1,19.229,19.229" transform="translate(-86.664 -58.927)" fill="#cee6fe"/>
      <path id="패스_1514" data-name="패스 1514" d="M276.293,669.215a19.735,19.735,0,1,1,19.735-19.736A19.758,19.758,0,0,1,276.293,669.215Zm0-38.458a18.723,18.723,0,1,0,18.723,18.723A18.744,18.744,0,0,0,276.293,630.757Z" transform="translate(-85.921 -58.183)" fill="#3e5672"/>
      <path id="패스_1515" data-name="패스 1515" d="M291.185,674.31v-17.74l15.847,8.87Z" transform="translate(-106.523 -74.142)" fill="#fff"/>
      <path id="패스_1516" data-name="패스 1516" d="M290.441,674.073a.506.506,0,0,1-.506-.506V655.827a.506.506,0,0,1,.753-.442l15.847,8.87a.506.506,0,0,1,0,.884l-15.847,8.869A.5.5,0,0,1,290.441,674.073Zm.506-17.382V672.7l14.3-8.006Z" transform="translate(-105.779 -73.398)" fill="#fc5d5b"/>
      <line id="선_306" data-name="선 306" y2="3.971" transform="translate(225.023 615.997)" fill="#fff"/>
      <path id="패스_1517" data-name="패스 1517" d="M390.09,743.332a.506.506,0,0,1-.506-.506v-3.971a.506.506,0,1,1,1.013,0v3.971A.506.506,0,0,1,390.09,743.332Z" transform="translate(-165.068 -122.858)" fill="#3e5672"/>
      <line id="선_307" data-name="선 307" y1="3.971" transform="translate(155.723 615.997)" fill="#fff"/>
      <path id="패스_1518" data-name="패스 1518" d="M218.989,743.332a.506.506,0,0,1-.506-.506v-3.971a.506.506,0,1,1,1.013,0v3.971A.506.506,0,0,1,218.989,743.332Z" transform="translate(-63.267 -122.859)" fill="#3e5672"/>
      <line id="선_308" data-name="선 308" x2="69.3" transform="translate(155.723 617.985)" fill="#fff"/>
      <path id="패스_1519" data-name="패스 1519" d="M288.289,744.263h-69.3a.506.506,0,0,1,0-1.013h69.3a.506.506,0,0,1,0,1.013Z" transform="translate(-63.267 -125.772)" fill="#3e5672"/>
      <path id="패스_1520" data-name="패스 1520" d="M279.45,742.28a1.512,1.512,0,1,1-1.512-1.512,1.512,1.512,0,0,1,1.512,1.512" transform="translate(-97.742 -124.297)" fill="#fff"/>
      <path id="패스_1521" data-name="패스 1521" d="M277.195,743.555a2.018,2.018,0,1,1,2.018-2.019A2.021,2.021,0,0,1,277.195,743.555Zm0-3.024a1.006,1.006,0,1,0,1.006,1.005A1.007,1.007,0,0,0,277.195,740.531Z" transform="translate(-96.998 -123.554)" fill="#3e5672"/>
      <rect id="사각형_1158" data-name="사각형 1158" width="85.388" height="5.744" transform="translate(147.678 557.658)" fill="#cee6fe"/>
      <path id="패스_1522" data-name="패스 1522" d="M284.517,600.734H199.128a.506.506,0,0,1-.506-.506v-5.744a.506.506,0,0,1,.506-.506h85.388a.506.506,0,0,1,.506.506v5.744A.506.506,0,0,1,284.517,600.734Zm-84.882-1.013H284.01v-4.731H199.635Z" transform="translate(-51.45 -36.826)" fill="#3e5672"/>
      <path id="패스_1523" data-name="패스 1523" d="M154.581,697.344l-3.576-16.265L170.986,661.1l3.576,16.265Z" transform="translate(-23.119 -76.875)" fill="#fff"/>
      <path id="패스_1524" data-name="패스 1524" d="M153.838,697.107a.5.5,0,0,1-.494-.4l-3.576-16.265a.5.5,0,0,1,.136-.466L169.885,660a.506.506,0,0,1,.852.249l3.576,16.265a.505.505,0,0,1-.137.467L154.2,696.959A.506.506,0,0,1,153.838,697.107ZM150.816,680.5l3.318,15.091,19.131-19.131-3.318-15.09Z" transform="translate(-22.376 -76.132)" fill="#3e5672"/>
      <path id="패스_1525" data-name="패스 1525" d="M148.27,696.082,140.4,678.958l19.981-19.981,7.872,17.124Z" transform="translate(-16.808 -75.611)" fill="#fff"/>
      <path id="패스_1526" data-name="패스 1526" d="M147.527,695.845a.549.549,0,0,1-.089-.008.507.507,0,0,1-.371-.287l-7.872-17.124a.506.506,0,0,1,.1-.57l19.981-19.981a.506.506,0,0,1,.818.146l7.872,17.124a.506.506,0,0,1-.1.569L147.885,695.7A.507.507,0,0,1,147.527,695.845Zm-7.265-17.521,7.421,16.143L166.9,675.249l-7.421-16.143Z" transform="translate(-16.065 -74.869)" fill="#3e5672"/>
      <path id="패스_1527" data-name="패스 1527" d="M159.834,721.237l16.265,3.576,19.981-19.981-16.265-3.576Z" transform="translate(-28.372 -100.788)" fill="#fff"/>
      <path id="패스_1528" data-name="패스 1528" d="M175.355,724.575a.521.521,0,0,1-.109-.012l-16.265-3.576a.506.506,0,0,1-.249-.853l19.981-19.981a.51.51,0,0,1,.467-.136l16.265,3.576a.506.506,0,0,1,.249.852l-19.981,19.981A.506.506,0,0,1,175.355,724.575ZM160.1,720.2l15.09,3.318,19.131-19.131-15.091-3.318Z" transform="translate(-27.628 -100.045)" fill="#3e5672"/>
      <path id="패스_1529" data-name="패스 1529" d="M159.834,721.237l17.124,7.872,19.981-19.981-17.124-7.872Z" transform="translate(-28.372 -100.843)" fill="#fff"/>
      <path id="패스_1530" data-name="패스 1530" d="M176.215,728.871a.5.5,0,0,1-.211-.047l-17.124-7.872a.506.506,0,0,1-.146-.818l19.981-19.981a.507.507,0,0,1,.569-.1l17.124,7.872a.506.506,0,0,1,.147.818l-19.981,19.981A.506.506,0,0,1,176.215,728.871Zm-16.252-8.535,16.143,7.422,19.217-19.218-16.143-7.421Z" transform="translate(-27.629 -100.098)" fill="#3e5672"/>
      <path id="패스_1531" data-name="패스 1531" d="M140.2,693.9l-10.412-15.653,19.981-19.981,10.412,15.653Z" transform="translate(-10.497 -75.187)" fill="#cee6fe"/>
      <path id="패스_1532" data-name="패스 1532" d="M139.46,693.667l-.05,0a.507.507,0,0,1-.371-.223l-10.412-15.654a.507.507,0,0,1,.064-.638l19.981-19.981a.507.507,0,0,1,.78.077L159.862,672.9a.507.507,0,0,1-.064.638l-19.981,19.981A.506.506,0,0,1,139.46,693.667ZM129.7,677.572l9.84,14.793,19.251-19.251-9.84-14.794Z" transform="translate(-9.754 -74.443)" fill="#3e5672"/>
      <path id="패스_1533" data-name="패스 1533" d="M164.171,725.573l15.654,10.411L199.806,716l-15.653-10.411Z" transform="translate(-30.953 -103.423)" fill="#cee6fe"/>
      <path id="패스_1534" data-name="패스 1534" d="M179.082,735.747a.5.5,0,0,1-.28-.085l-15.654-10.411a.507.507,0,0,1-.077-.78l19.981-19.981a.507.507,0,0,1,.638-.063l15.653,10.411a.507.507,0,0,1,.077.78L179.44,735.6A.506.506,0,0,1,179.082,735.747Zm-14.858-11,14.793,9.839,19.25-19.251-14.793-9.84Z" transform="translate(-30.209 -102.679)" fill="#3e5672"/>
      <rect id="사각형_1159" data-name="사각형 1159" width="28.257" height="4.968" transform="translate(129.705 618.697) rotate(-45)" fill="#cee6fe"/>
      <path id="패스_1535" data-name="패스 1535" d="M158.266,720.175a.5.5,0,0,1-.358-.148l-3.514-3.513a.507.507,0,0,1,0-.716l19.981-19.981a.507.507,0,0,1,.716,0l3.513,3.513a.507.507,0,0,1,0,.716l-19.981,19.981A.505.505,0,0,1,158.266,720.175Zm-2.8-4.019,2.8,2.8,19.265-19.265-2.8-2.8Z" transform="translate(-25.048 -97.459)" fill="#3e5672"/>
      <path id="패스_1536" data-name="패스 1536" d="M176.61,547.486a1.62,1.62,0,0,1-2.291,0l-6.566-6.566a14.525,14.525,0,1,0-20.541,20.541l6.566,6.566a1.62,1.62,0,1,1-2.291,2.291l-6.566-6.566a17.765,17.765,0,1,1,25.124-25.124l6.566,6.566a1.62,1.62,0,0,1,0,2.291" transform="translate(-16.408 -0.744)" fill="#fff"/>
      <path id="패스_1537" data-name="패스 1537" d="M151.889,570.555a2.112,2.112,0,0,1-1.5-.623l-6.566-6.566a18.271,18.271,0,0,1,25.84-25.839l6.566,6.566a2.126,2.126,0,0,1,0,3.007h0a2.126,2.126,0,0,1-3.007,0l-6.565-6.566a14.019,14.019,0,0,0-19.826,19.826l6.566,6.566a2.126,2.126,0,0,1-1.5,3.63Zm4.85-37.359a17.259,17.259,0,0,0-12.2,29.455l6.566,6.565a1.14,1.14,0,0,0,1.576,0,1.114,1.114,0,0,0,0-1.575l-6.566-6.566a15.031,15.031,0,0,1,21.257-21.258l6.566,6.566a1.141,1.141,0,0,0,1.576,0h0a1.114,1.114,0,0,0,0-1.575l-6.566-6.566A17.143,17.143,0,0,0,156.739,533.2Z" transform="translate(-15.665)" fill="#3e5672"/>
      <path id="패스_1538" data-name="패스 1538" d="M162.094,625.034l-1.4,1.4a1.428,1.428,0,0,1-2.019,0l-4.056-4.056a1.429,1.429,0,0,1,0-2.02l1.4-1.4a1.428,1.428,0,0,1,2.019,0l4.056,4.056a1.428,1.428,0,0,1,0,2.019" transform="translate(-25.019 -51.465)" fill="#cee6fe"/>
      <path id="패스_1539" data-name="패스 1539" d="M158.941,626.617a1.92,1.92,0,0,1-1.368-.567L153.518,622a1.937,1.937,0,0,1,0-2.735l1.4-1.4a1.937,1.937,0,0,1,2.735,0l4.056,4.056a1.936,1.936,0,0,1,0,2.735l-1.4,1.4A1.92,1.92,0,0,1,158.941,626.617Zm-2.655-8.313a.918.918,0,0,0-.652.27l-1.4,1.4a.924.924,0,0,0,0,1.3l4.055,4.055a.943.943,0,0,0,1.3,0l1.4-1.4a.923.923,0,0,0,0-1.3l-4.056-4.056A.917.917,0,0,0,156.286,618.3Z" transform="translate(-24.278 -50.722)" fill="#3e5672"/>
      <path id="패스_1540" data-name="패스 1540" d="M167.7,615.484l-2.3,2.3a2.345,2.345,0,0,1-3.316,0l-6.66-6.66a2.345,2.345,0,0,1,0-3.316l2.3-2.3a2.345,2.345,0,0,1,3.316,0l6.66,6.659a2.345,2.345,0,0,1,0,3.316" transform="translate(-25.341 -43.293)" fill="#cee6fe"/>
      <path id="패스_1541" data-name="패스 1541" d="M163,618.233a2.842,2.842,0,0,1-2.016-.834l-6.66-6.659a2.851,2.851,0,0,1,0-4.032l2.3-2.3a2.85,2.85,0,0,1,4.032,0l6.66,6.659a2.856,2.856,0,0,1,0,4.033h0l-2.3,2.3A2.842,2.842,0,0,1,163,618.233Zm-4.358-13.649a1.825,1.825,0,0,0-1.3.539l-2.3,2.3a1.839,1.839,0,0,0,0,2.6l6.66,6.66a1.841,1.841,0,0,0,2.6,0l2.3-2.3a1.842,1.842,0,0,0,0-2.6l-6.659-6.659A1.827,1.827,0,0,0,158.642,604.584Zm8.318,10.156h0Z" transform="translate(-24.598 -42.549)" fill="#3e5672"/>
      <path id="패스_1542" data-name="패스 1542" d="M231.326,555.8l1.4-1.4a1.428,1.428,0,0,0,0-2.019l-4.055-4.056a1.428,1.428,0,0,0-2.019,0l-1.4,1.4a1.429,1.429,0,0,0,0,2.019l4.056,4.056a1.428,1.428,0,0,0,2.019,0" transform="translate(-67.045 -9.356)" fill="#cee6fe"/>
      <path id="패스_1543" data-name="패스 1543" d="M229.574,555.983a1.926,1.926,0,0,1-1.368-.566l-4.056-4.055a1.937,1.937,0,0,1,0-2.736l1.4-1.4a1.936,1.936,0,0,1,2.735,0l4.055,4.055a1.936,1.936,0,0,1,0,2.736l-1.4,1.4A1.927,1.927,0,0,1,229.574,555.983Zm-2.654-8.312a.919.919,0,0,0-.652.27l-1.4,1.4a.923.923,0,0,0,0,1.3l4.056,4.056a.945.945,0,0,0,1.3,0l1.4-1.4a.923.923,0,0,0,0-1.3l-4.056-4.055A.918.918,0,0,0,226.92,547.671Z" transform="translate(-66.302 -8.613)" fill="#3e5672"/>
      <path id="패스_1544" data-name="패스 1544" d="M221.776,561.411l2.3-2.3a2.345,2.345,0,0,0,0-3.316l-6.66-6.66a2.345,2.345,0,0,0-3.316,0l-2.3,2.3a2.345,2.345,0,0,0,0,3.316l6.66,6.66a2.345,2.345,0,0,0,3.316,0" transform="translate(-58.882 -9.677)" fill="#cee6fe"/>
      <path id="패스_1545" data-name="패스 1545" d="M219.374,561.862a2.842,2.842,0,0,1-2.016-.834l-6.66-6.66a2.85,2.85,0,0,1,0-4.032l2.3-2.3a2.855,2.855,0,0,1,4.032,0l6.66,6.66a2.855,2.855,0,0,1,0,4.032l-2.3,2.3h0A2.844,2.844,0,0,1,219.374,561.862Zm-4.358-13.649a1.833,1.833,0,0,0-1.3.538l-2.3,2.3a1.838,1.838,0,0,0,0,2.6l6.66,6.66a1.841,1.841,0,0,0,2.6,0l2.3-2.3a1.841,1.841,0,0,0,0-2.6l-6.66-6.66A1.833,1.833,0,0,0,215.015,548.213Zm6.017,12.457h0Z" transform="translate(-58.138 -8.935)" fill="#3e5672"/>
      <path id="패스_1546" data-name="패스 1546" d="M410.106,559.091H377.662a4.511,4.511,0,0,1,4.511,4.511v44.359h32.444V563.6a4.511,4.511,0,0,0-4.511-4.511" transform="translate(-157.975 -16.01)" fill="#fff"/>
      <path id="패스_1547" data-name="패스 1547" d="M413.873,607.723H381.429a.506.506,0,0,1-.506-.506V562.858a4.009,4.009,0,0,0-4-4.005.506.506,0,0,1,0-1.013h32.444a5.023,5.023,0,0,1,5.017,5.018v44.359A.506.506,0,0,1,413.873,607.723Zm-31.938-1.013h31.431V562.858a4.009,4.009,0,0,0-4-4.005H379.937a5.014,5.014,0,0,1,2,4.005Z" transform="translate(-157.231 -15.265)" fill="#97a7b7"/>
      <path id="패스_1548" data-name="패스 1548" d="M371.034,559.091a4.511,4.511,0,0,0-4.511,4.511v4.511h9.022V563.6a4.511,4.511,0,0,0-4.511-4.511" transform="translate(-151.347 -16.01)" fill="#eef7ff"/>
      <path id="패스_1549" data-name="패스 1549" d="M374.8,567.875h-9.022a.506.506,0,0,1-.506-.506v-4.51a5.017,5.017,0,1,1,10.035,0v4.51A.506.506,0,0,1,374.8,567.875Zm-8.516-1.013h8.01v-4a4,4,0,1,0-8.01,0Z" transform="translate(-150.603 -15.265)" fill="#97a7b7"/>
      <path id="패스_1550" data-name="패스 1550" d="M444.29,673.149l-1.721-1.129-1.721,1.129v-9.26h3.442Z" transform="translate(-195.569 -78.491)" fill="#cee6fe"/>
      <path id="패스_1551" data-name="패스 1551" d="M440.1,672.911a.506.506,0,0,1-.506-.506v-9.26a.506.506,0,0,1,.506-.506h3.442a.506.506,0,0,1,.506.506v9.26a.506.506,0,0,1-.784.423l-1.443-.947-1.444.947A.5.5,0,0,1,440.1,672.911Zm.506-9.26v7.817l.937-.615a.506.506,0,0,1,.555,0l.937.615v-7.817Z" transform="translate(-194.825 -77.748)" fill="#3e5672"/>
      <path id="패스_1552" data-name="패스 1552" d="M436.09,642.261l1.638,2.177,2.7-.381-.381,2.7,2.177,1.638-2.177,1.638.381,2.7-2.7-.381-1.638,2.177-1.638-2.177-2.7.381.381-2.7-2.177-1.638,2.177-1.638-.381-2.7,2.7.381Z" transform="translate(-189.089 -65.606)" fill="#cee6fe"/>
      <path id="패스_1553" data-name="패스 1553" d="M435.346,654.287a.506.506,0,0,1-.4-.2l-1.458-1.938-2.4.339a.506.506,0,0,1-.572-.572l.339-2.4-1.938-1.458a.507.507,0,0,1,0-.809l1.938-1.459-.339-2.4a.505.505,0,0,1,.143-.428.5.5,0,0,1,.428-.143l2.4.339,1.458-1.938a.507.507,0,0,1,.4-.2h0a.508.508,0,0,1,.4.2l1.458,1.938,2.4-.339a.5.5,0,0,1,.429.143.508.508,0,0,1,.143.428l-.339,2.4,1.938,1.459a.507.507,0,0,1,0,.809l-1.938,1.458.339,2.4a.506.506,0,0,1-.572.572l-2.4-.339-1.458,1.938A.506.506,0,0,1,435.346,654.287Zm-1.638-3.19a.507.507,0,0,1,.4.2l1.234,1.64,1.233-1.64a.5.5,0,0,1,.475-.2l2.032.287-.287-2.032a.505.505,0,0,1,.2-.475l1.639-1.233L439,646.416a.506.506,0,0,1-.2-.475l.287-2.032-2.032.287a.5.5,0,0,1-.475-.2l-1.233-1.64L434.113,644a.5.5,0,0,1-.475.2l-2.032-.287.287,2.032a.506.506,0,0,1-.2.475l-1.639,1.234,1.639,1.233a.505.505,0,0,1,.2.475l-.287,2.032,2.032-.287A.458.458,0,0,1,433.708,651.1Z" transform="translate(-188.346 -64.862)" fill="#3e5672"/>
      <line id="선_309" data-name="선 309" x2="13.106" transform="translate(238.471 549.237)" fill="#fff"/>
      <path id="패스_1554" data-name="패스 1554" d="M436.4,574.051H423.3a.506.506,0,1,1,0-1.013H436.4a.506.506,0,0,1,0,1.013Z" transform="translate(-184.825 -24.308)" fill="#97a7b7"/>
      <line id="선_310" data-name="선 310" x2="5.161" transform="translate(229.747 549.237)" fill="#fff"/>
      <path id="패스_1555" data-name="패스 1555" d="M406.915,574.051h-5.161a.506.506,0,0,1,0-1.013h5.161a.506.506,0,1,1,0,1.013Z" transform="translate(-172.008 -24.308)" fill="#97a7b7"/>
      <line id="선_311" data-name="선 311" x2="21.831" transform="translate(229.747 552.831)" fill="#fff"/>
      <path id="패스_1556" data-name="패스 1556" d="M423.585,582.925H401.754a.506.506,0,0,1,0-1.013h21.831a.506.506,0,0,1,0,1.013Z" transform="translate(-172.008 -29.588)" fill="#97a7b7"/>
      <line id="선_312" data-name="선 312" x2="3.414" transform="translate(248.164 556.371)" fill="#fff"/>
      <path id="패스_1557" data-name="패스 1557" d="M450.641,591.8h-3.414a.506.506,0,0,1,0-1.013h3.414a.506.506,0,0,1,0,1.013Z" transform="translate(-199.063 -34.921)" fill="#97a7b7"/>
      <line id="선_313" data-name="선 313" x2="14.76" transform="translate(229.747 556.371)" fill="#fff"/>
      <path id="패스_1558" data-name="패스 1558" d="M416.514,591.8h-14.76a.506.506,0,0,1,0-1.013h14.76a.506.506,0,0,1,0,1.013Z" transform="translate(-172.008 -34.921)" fill="#97a7b7"/>
      <line id="선_314" data-name="선 314" x2="21.831" transform="translate(229.747 559.958)" fill="#fff"/>
      <path id="패스_1559" data-name="패스 1559" d="M423.585,600.674H401.754a.506.506,0,0,1,0-1.013h21.831a.506.506,0,0,1,0,1.013Z" transform="translate(-172.008 -40.209)" fill="#97a7b7"/>
      <line id="선_315" data-name="선 315" x2="12.987" transform="translate(238.591 563.544)" fill="#fff"/>
      <path id="패스_1560" data-name="패스 1560" d="M436.578,609.549H423.591a.506.506,0,1,1,0-1.013h12.987a.506.506,0,1,1,0,1.013Z" transform="translate(-185 -45.498)" fill="#97a7b7"/>
      <line id="선_316" data-name="선 316" x2="5.31" transform="translate(229.747 563.544)" fill="#fff"/>
      <path id="패스_1561" data-name="패스 1561" d="M407.064,609.549h-5.31a.506.506,0,1,1,0-1.013h5.31a.506.506,0,1,1,0,1.013Z" transform="translate(-172.008 -45.498)" fill="#97a7b7"/>
      <line id="선_317" data-name="선 317" x2="21.831" transform="translate(229.747 567.13)" fill="#fff"/>
      <path id="패스_1562" data-name="패스 1562" d="M423.585,618.423H401.754a.506.506,0,0,1,0-1.013h21.831a.506.506,0,1,1,0,1.013Z" transform="translate(-172.008 -50.786)" fill="#97a7b7"/>
      <line id="선_318" data-name="선 318" x2="3.955" transform="translate(247.623 570.716)" fill="#fff"/>
      <path id="패스_1563" data-name="패스 1563" d="M449.846,627.3h-3.954a.506.506,0,0,1,0-1.013h3.954a.506.506,0,1,1,0,1.013Z" transform="translate(-198.268 -56.074)" fill="#97a7b7"/>
      <line id="선_319" data-name="선 319" x2="14.518" transform="translate(229.747 570.716)" fill="#fff"/>
      <path id="패스_1564" data-name="패스 1564" d="M416.272,627.3H401.754a.506.506,0,0,1,0-1.013h14.518a.506.506,0,0,1,0,1.013Z" transform="translate(-172.008 -56.074)" fill="#97a7b7"/>
      <line id="선_320" data-name="선 320" x2="9.68" transform="translate(229.747 574.303)" fill="#fff"/>
      <path id="패스_1565" data-name="패스 1565" d="M411.435,636.172h-9.68a.506.506,0,0,1,0-1.013h9.68a.506.506,0,0,1,0,1.013Z" transform="translate(-172.008 -61.362)" fill="#97a7b7"/>
      <line id="선_321" data-name="선 321" x2="8.06" transform="translate(229.747 585.062)" fill="#fff"/>
      <path id="패스_1566" data-name="패스 1566" d="M409.815,662.795h-8.06a.506.506,0,0,1,0-1.013h8.06a.506.506,0,1,1,0,1.013Z" transform="translate(-172.008 -77.227)" fill="#97a7b7"/>
      <path id="패스_1567" data-name="패스 1567" d="M343.178,684.171a2.48,2.48,0,0,0,0,3.507,2.48,2.48,0,0,0-3.507,3.507,2.48,2.48,0,0,0-3.508,3.508l-9.218-9.218a2.48,2.48,0,0,0-3.507,3.508l10.307,10.307,6.7,6.664H333.7a2.48,2.48,0,0,0,0,4.96h14.7l.011.008.008-.008H350.3v-1.887l9.1-9.1-11.652-14.645.019-.019-1.089-1.089a2.48,2.48,0,0,0-3.508,0" transform="translate(-125.28 -90.178)" fill="#fff"/>
      <path id="패스_1568" data-name="패스 1568" d="M347.659,710.681a.508.508,0,0,1-.071-.005h-14.63a2.986,2.986,0,0,1,0-5.973h5.518l-5.833-5.8L322.335,688.6a2.987,2.987,0,1,1,4.224-4.224l7.635,7.635a2.987,2.987,0,0,1,3.555-2.744,3.025,3.025,0,0,1-.055-.576,2.985,2.985,0,0,1,3.563-2.929,3.04,3.04,0,0,1-.055-.578,2.966,2.966,0,0,1,.875-2.112h0a2.986,2.986,0,0,1,4.224,0l1.089,1.089a.512.512,0,0,1,.119.188l11.551,14.519a.506.506,0,0,1-.038.673l-8.954,8.954v1.678a.506.506,0,0,1-.506.506H347.73A.518.518,0,0,1,347.659,710.681Zm-14.7-4.965a1.974,1.974,0,0,0,0,3.948h16.1v-1.381a.507.507,0,0,1,.148-.358l8.783-8.783-11.37-14.291a.518.518,0,0,1-.059-.093l-.972-.973a1.974,1.974,0,0,0-2.791,0h0a1.974,1.974,0,0,0,0,2.792.506.506,0,1,1-.716.716,1.974,1.974,0,1,0-2.791,2.792.506.506,0,1,1-.716.716,1.974,1.974,0,0,0-2.794,2.789l0,0h0a.506.506,0,0,1-.716.716h0l-9.218-9.218a1.974,1.974,0,1,0-2.791,2.792l10.307,10.307,6.7,6.663a.506.506,0,0,1-.357.865Zm9.475-22.289h0Z" transform="translate(-124.536 -89.435)" fill="#3e5672"/>
      <rect id="사각형_1160" data-name="사각형 1160" width="18.531" height="7.36" transform="translate(222.076 621.729) rotate(-45)" fill="#fff"/>
      <path id="패스_1569" data-name="패스 1569" d="M388.019,739.611a.5.5,0,0,1-.358-.149l-5.2-5.2a.507.507,0,0,1,0-.716l13.1-13.1a.521.521,0,0,1,.716,0l5.2,5.2a.506.506,0,0,1,0,.716l-13.1,13.1A.5.5,0,0,1,388.019,739.611Zm-4.488-5.71,4.488,4.488L400.407,726l-4.488-4.489Z" transform="translate(-160.74 -112.172)" fill="#3e5672"/>
      <rect id="사각형_1161" data-name="사각형 1161" width="22.576" height="13.318" transform="translate(225.849 628.363) rotate(-45)" fill="#cee6fe"/>
      <path id="패스_1570" data-name="패스 1570" d="M401.55,755.994a.507.507,0,0,1-.358-.148l-9.417-9.418a.506.506,0,0,1,0-.716l15.964-15.964a.506.506,0,0,1,.716,0l9.417,9.417a.506.506,0,0,1,0,.716l-15.964,15.964A.507.507,0,0,1,401.55,755.994Zm-8.7-9.924,8.7,8.7L416.8,739.524l-8.7-8.7Z" transform="translate(-166.283 -117.707)" fill="#3e5672"/>
      <path id="패스_1571" data-name="패스 1571" d="M412.672,732.107a1.267,1.267,0,1,1,0,1.791,1.267,1.267,0,0,1,0-1.791" transform="translate(-178.584 -118.914)" fill="#fff"/>
      <path id="패스_1572" data-name="패스 1572" d="M412.826,734.033a1.773,1.773,0,0,1-1.254-3.027h0a1.773,1.773,0,1,1,1.254,3.027Zm-.538-2.311a.763.763,0,0,0,0,1.076.778.778,0,0,0,1.075,0,.761.761,0,0,0-1.075-1.076Z" transform="translate(-177.842 -118.172)" fill="#3e5672"/>
      <path id="패스_1573" data-name="패스 1573" d="M255.893,788.274l1.766,1.766-1.766,1.765-5.829-1.765Z" transform="translate(-82.056 -152.617)" fill="#fff"/>
      <path id="패스_1574" data-name="패스 1574" d="M255.149,791.568a.509.509,0,0,1-.147-.021l-5.829-1.766a.506.506,0,0,1,0-.969L255,787.046a.508.508,0,0,1,.5.127l1.766,1.766a.506.506,0,0,1,0,.716l-1.766,1.766A.505.505,0,0,1,255.149,791.568Zm-4.083-2.272,3.939,1.193L256.2,789.3l-1.194-1.194Z" transform="translate(-81.312 -151.873)" fill="#97a7b7"/>
      <path id="패스_1575" data-name="패스 1575" d="M277.671,791.733l-10.977-.48v-2.882l10.977-.48Z" transform="translate(-91.951 -152.389)" fill="#cee6ff"/>
      <path id="패스_1576" data-name="패스 1576" d="M276.927,791.5H276.9l-10.977-.479a.507.507,0,0,1-.484-.506v-2.883a.507.507,0,0,1,.484-.506l10.977-.479a.5.5,0,0,1,.372.14.505.505,0,0,1,.156.366v3.841a.506.506,0,0,1-.506.506Zm-10.471-1.47,9.964.435v-2.783l-9.964.435Z" transform="translate(-91.208 -151.645)" fill="#97a7b7"/>
      <rect id="사각형_1162" data-name="사각형 1162" width="31.481" height="4.937" transform="translate(183.88 634.955)" fill="#cee6ff"/>
      <path id="패스_1577" data-name="패스 1577" d="M319.991,791.239H288.51a.506.506,0,0,1-.506-.506V785.8a.506.506,0,0,1,.506-.506h31.481a.506.506,0,0,1,.506.506v4.937A.506.506,0,0,1,319.991,791.239Zm-30.975-1.013h30.468V786.3H289.017Z" transform="translate(-104.63 -150.84)" fill="#97a7b7"/>
      <rect id="사각형_1163" data-name="사각형 1163" width="18.946" height="5.891" transform="translate(205.229 634.478)" fill="#cee6ff"/>
      <path id="패스_1578" data-name="패스 1578" d="M360.166,791.015H341.22a.506.506,0,0,1-.506-.506v-5.891a.506.506,0,0,1,.506-.506h18.946a.506.506,0,0,1,.506.506v5.891A.506.506,0,0,1,360.166,791.015ZM341.727,790H359.66v-4.878H341.727Z" transform="translate(-135.991 -150.14)" fill="#97a7b7"/>
      <path id="패스_1579" data-name="패스 1579" d="M358.206,801.976H341.22a.506.506,0,0,1,0-1.013H357.7v-1.3H341.22a.506.506,0,0,1,0-1.013h16.986a.506.506,0,0,1,.506.506v2.308A.506.506,0,0,1,358.206,801.976Z" transform="translate(-135.991 -158.793)" fill="#97a7b7"/>
      <path id="패스_1580" data-name="패스 1580" d="M335.87,802.021h.538a1.451,1.451,0,0,1,1.451,1.451h-3.44a1.451,1.451,0,0,1,1.451-1.451" transform="translate(-132.246 -160.796)" fill="#fff"/>
      <path id="패스_1581" data-name="패스 1581" d="M337.116,803.235h-3.44a.506.506,0,0,1-.506-.506,1.96,1.96,0,0,1,1.957-1.958h.538a1.96,1.96,0,0,1,1.957,1.958A.506.506,0,0,1,337.116,803.235Zm-2.787-1.013h2.133a.946.946,0,0,0-.8-.439h-.538A.944.944,0,0,0,334.329,802.222Z" transform="translate(-131.502 -160.052)" fill="#97a7b7"/>
    </g>
  </g>
</svg>
