<svg xmlns="http://www.w3.org/2000/svg" xmlns:xlink="http://www.w3.org/1999/xlink" width="1260" height="860" viewBox="0 0 1260 860">
  <defs>
    <filter id="bg" x="0" y="0" width="1260" height="860" filterUnits="userSpaceOnUse">
      <feOffset dx="10" dy="10" input="SourceAlpha"/>
      <feGaussianBlur stdDeviation="10" result="blur"/>
      <feFlood flood-color="#454545" flood-opacity="0.302"/>
      <feComposite operator="in" in2="blur"/>
      <feComposite in="SourceGraphic"/>
    </filter>
    <clipPath id="clip-path">
      <rect id="사각형_262" data-name="사각형 262" width="100" height="100" fill="#fc5d5b"/>
    </clipPath>
    <clipPath id="clip-path-2">
      <rect id="사각형_386" data-name="사각형 386" width="30" height="30" transform="translate(1248 137)" fill="#e0f4f1"/>
    </clipPath>
    <clipPath id="clip-path-3">
      <rect id="사각형_384" data-name="사각형 384" width="25" height="25" transform="translate(1175 142)" fill="#aeaeae"/>
    </clipPath>
    <clipPath id="clip-path-4">
      <rect id="사각형_383" data-name="사각형 383" width="30" height="30" transform="translate(1098 137)" fill="#aeaeae"/>
    </clipPath>
  </defs>
  <g id="라이브샷" transform="translate(-135 -82)">
    <g transform="matrix(1, 0, 0, 1, 135, 82)" filter="url(#bg)">
      <rect id="bg-2" data-name="bg" width="1200" height="800" rx="30" transform="translate(20 20)" fill="#303d53"/>
    </g>
    <g id="bg-3" data-name="bg" transform="translate(195 298)" fill="#fff" stroke="#707070" stroke-width="1">
      <rect width="1120" height="564" rx="23" stroke="none"/>
      <rect x="0.5" y="0.5" width="1119" height="563" rx="22.5" fill="none"/>
    </g>
    <g id="X">
      <g id="_7" data-name="7" transform="translate(0 130)">
        <rect id="bg-4" data-name="bg" width="130" height="45" rx="10" transform="translate(820 533)" fill="#db4c4b"/>
        <text id="O번_OOO" data-name="O번 OOO" transform="translate(847 563)" fill="#fff" font-size="18" font-family="NotoSansKR-Regular, Noto Sans KR"><tspan x="0" y="0">O번 OOO</tspan></text>
      </g>
      <g id="_6" data-name="6" transform="translate(300 65)">
        <rect id="bg-5" data-name="bg" width="130" height="45" rx="10" transform="translate(820 533)" fill="#db4c4b"/>
        <text id="O번_OOO-2" data-name="O번 OOO" transform="translate(847 563)" fill="#fff" font-size="18" font-family="NotoSansKR-Regular, Noto Sans KR"><tspan x="0" y="0">O번 OOO</tspan></text>
      </g>
      <g id="_5" data-name="5" transform="translate(150 65)">
        <rect id="bg-6" data-name="bg" width="130" height="45" rx="10" transform="translate(820 533)" fill="#db4c4b"/>
        <text id="O번_OOO-3" data-name="O번 OOO" transform="translate(847 563)" fill="#fff" font-size="18" font-family="NotoSansKR-Regular, Noto Sans KR"><tspan x="0" y="0">O번 OOO</tspan></text>
      </g>
      <g id="_4" data-name="4" transform="translate(0 65)">
        <rect id="bg-7" data-name="bg" width="130" height="45" rx="10" transform="translate(820 533)" fill="#db4c4b"/>
        <text id="O번_OOO-4" data-name="O번 OOO" transform="translate(847 563)" fill="#fff" font-size="18" font-family="NotoSansKR-Regular, Noto Sans KR"><tspan x="0" y="0">O번 OOO</tspan></text>
      </g>
      <g id="_3" data-name="3" transform="translate(300)">
        <rect id="bg-8" data-name="bg" width="130" height="45" rx="10" transform="translate(820 533)" fill="#db4c4b"/>
        <text id="O번_OOO-5" data-name="O번 OOO" transform="translate(847 563)" fill="#fff" font-size="18" font-family="NotoSansKR-Regular, Noto Sans KR"><tspan x="0" y="0">O번 OOO</tspan></text>
      </g>
      <g id="_2" data-name="2" transform="translate(150)">
        <rect id="bg-9" data-name="bg" width="130" height="45" rx="10" transform="translate(820 533)" fill="#db4c4b"/>
        <text id="O번_OOO-6" data-name="O번 OOO" transform="translate(847 563)" fill="#fff" font-size="18" font-family="NotoSansKR-Regular, Noto Sans KR"><tspan x="0" y="0">O번 OOO</tspan></text>
      </g>
      <g id="_1" data-name="1">
        <rect id="bg-10" data-name="bg" width="130" height="45" rx="10" transform="translate(820 533)" fill="#db4c4b"/>
        <text id="O번_OOO-7" data-name="O번 OOO" transform="translate(847 563)" fill="#fff" font-size="18" font-family="NotoSansKR-Regular, Noto Sans KR"><tspan x="0" y="0">O번 OOO</tspan></text>
      </g>
      <g id="bg-11" data-name="bg" transform="translate(820 463)" fill="#f2f3f7" stroke="#e5e5e5" stroke-width="1">
        <rect width="430" height="50" rx="25" stroke="none"/>
        <rect x="0.5" y="0.5" width="429" height="49" rx="24.5" fill="none"/>
      </g>
      <text id="_7명" data-name="7명" transform="translate(1035 498)" fill="#222" font-size="24" font-family="NotoSansKR-Medium, Noto Sans KR" font-weight="500"><tspan x="-17.88" y="0">7명</tspan></text>
      <g id="icon_close" transform="translate(985 333)">
        <g id="마스크_그룹_86" data-name="마스크 그룹 86" clip-path="url(#clip-path)">
          <path id="close" d="M59.162,50.008,98.1,11.069a6.478,6.478,0,0,0-9.161-9.161L50,40.847,11.061,1.908A6.478,6.478,0,0,0,1.9,11.069L40.838,50.008,1.9,88.947a6.478,6.478,0,1,0,9.161,9.161L50,59.169,88.939,98.108A6.478,6.478,0,0,0,98.1,88.947Zm0,0" transform="translate(0 -0.007)" fill="#fc5d5b"/>
        </g>
      </g>
    </g>
    <rect id="line" width="1" height="494" rx="0.5" transform="translate(755 333)" fill="#e5e5e5"/>
    <g id="O">
      <g id="_11" data-name="11" transform="translate(0 260)">
        <rect id="bg-12" data-name="bg" width="130" height="45" rx="10" transform="translate(260 533)" fill="#0b7dc8"/>
        <text id="O번_OOO-8" data-name="O번 OOO" transform="translate(287 563)" fill="#fff" font-size="18" font-family="NotoSansKR-Regular, Noto Sans KR"><tspan x="0" y="0">O번 OOO</tspan></text>
      </g>
      <g id="_10" data-name="10" transform="translate(300 195)">
        <rect id="bg-13" data-name="bg" width="130" height="45" rx="10" transform="translate(260 533)" fill="#0b7dc8"/>
        <text id="O번_OOO-9" data-name="O번 OOO" transform="translate(287 563)" fill="#fff" font-size="18" font-family="NotoSansKR-Regular, Noto Sans KR"><tspan x="0" y="0">O번 OOO</tspan></text>
      </g>
      <g id="_9" data-name="9" transform="translate(150 195)">
        <rect id="bg-14" data-name="bg" width="130" height="45" rx="10" transform="translate(260 533)" fill="#0b7dc8"/>
        <text id="O번_OOO-10" data-name="O번 OOO" transform="translate(287 563)" fill="#fff" font-size="18" font-family="NotoSansKR-Regular, Noto Sans KR"><tspan x="0" y="0">O번 OOO</tspan></text>
      </g>
      <g id="_8" data-name="8" transform="translate(0 195)">
        <rect id="bg-15" data-name="bg" width="130" height="45" rx="10" transform="translate(260 533)" fill="#0b7dc8"/>
        <text id="O번_OOO-11" data-name="O번 OOO" transform="translate(287 563)" fill="#fff" font-size="18" font-family="NotoSansKR-Regular, Noto Sans KR"><tspan x="0" y="0">O번 OOO</tspan></text>
      </g>
      <g id="_7-2" data-name="7" transform="translate(300 130)">
        <rect id="bg-16" data-name="bg" width="130" height="45" rx="10" transform="translate(260 533)" fill="#0b7dc8"/>
        <text id="O번_OOO-12" data-name="O번 OOO" transform="translate(287 563)" fill="#fff" font-size="18" font-family="NotoSansKR-Regular, Noto Sans KR"><tspan x="0" y="0">O번 OOO</tspan></text>
      </g>
      <g id="_6-2" data-name="6" transform="translate(150 130)">
        <rect id="bg-17" data-name="bg" width="130" height="45" rx="10" transform="translate(260 533)" fill="#0b7dc8"/>
        <text id="O번_OOO-13" data-name="O번 OOO" transform="translate(287 563)" fill="#fff" font-size="18" font-family="NotoSansKR-Regular, Noto Sans KR"><tspan x="0" y="0">O번 OOO</tspan></text>
      </g>
      <g id="_5-2" data-name="5" transform="translate(0 130)">
        <rect id="bg-18" data-name="bg" width="130" height="45" rx="10" transform="translate(260 533)" fill="#0b7dc8"/>
        <text id="O번_OOO-14" data-name="O번 OOO" transform="translate(287 563)" fill="#fff" font-size="18" font-family="NotoSansKR-Regular, Noto Sans KR"><tspan x="0" y="0">O번 OOO</tspan></text>
      </g>
      <g id="_5-3" data-name="5" transform="translate(300 65)">
        <rect id="bg-19" data-name="bg" width="130" height="45" rx="10" transform="translate(260 533)" fill="#0b7dc8"/>
        <text id="O번_OOO-15" data-name="O번 OOO" transform="translate(287 563)" fill="#fff" font-size="18" font-family="NotoSansKR-Regular, Noto Sans KR"><tspan x="0" y="0">O번 OOO</tspan></text>
      </g>
      <g id="_4-2" data-name="4" transform="translate(150 65)">
        <rect id="bg-20" data-name="bg" width="130" height="45" rx="10" transform="translate(260 533)" fill="#0b7dc8"/>
        <text id="O번_OOO-16" data-name="O번 OOO" transform="translate(287 563)" fill="#fff" font-size="18" font-family="NotoSansKR-Regular, Noto Sans KR"><tspan x="0" y="0">O번 OOO</tspan></text>
      </g>
      <g id="_3-2" data-name="3" transform="translate(0 65)">
        <rect id="bg-21" data-name="bg" width="130" height="45" rx="10" transform="translate(260 533)" fill="#0b7dc8"/>
        <text id="O번_OOO-17" data-name="O번 OOO" transform="translate(287 563)" fill="#fff" font-size="18" font-family="NotoSansKR-Regular, Noto Sans KR"><tspan x="0" y="0">O번 OOO</tspan></text>
      </g>
      <g id="_3-3" data-name="3" transform="translate(300)">
        <rect id="bg-22" data-name="bg" width="130" height="45" rx="10" transform="translate(260 533)" fill="#0b7dc8"/>
        <text id="O번_OOO-18" data-name="O번 OOO" transform="translate(287 563)" fill="#fff" font-size="18" font-family="NotoSansKR-Regular, Noto Sans KR"><tspan x="0" y="0">O번 OOO</tspan></text>
      </g>
      <g id="_2-2" data-name="2" transform="translate(150)">
        <rect id="bg-23" data-name="bg" width="130" height="45" rx="10" transform="translate(260 533)" fill="#0b7dc8"/>
        <text id="O번_OOO-19" data-name="O번 OOO" transform="translate(287 563)" fill="#fff" font-size="18" font-family="NotoSansKR-Regular, Noto Sans KR"><tspan x="0" y="0">O번 OOO</tspan></text>
      </g>
      <g id="_1-2" data-name="1">
        <rect id="bg-24" data-name="bg" width="130" height="45" rx="10" transform="translate(260 533)" fill="#0b7dc8"/>
        <text id="O번_OOO-20" data-name="O번 OOO" transform="translate(287 563)" fill="#fff" font-size="18" font-family="NotoSansKR-Regular, Noto Sans KR"><tspan x="0" y="0">O번 OOO</tspan></text>
      </g>
      <g id="bg-25" data-name="bg" transform="translate(260 463)" fill="#f2f3f7" stroke="#e5e5e5" stroke-width="1">
        <rect width="430" height="50" rx="25" stroke="none"/>
        <rect x="0.5" y="0.5" width="429" height="49" rx="24.5" fill="none"/>
      </g>
      <text id="_11명" data-name="11명" transform="translate(475 498)" fill="#222" font-size="24" font-family="NotoSansKR-Medium, Noto Sans KR" font-weight="500"><tspan x="-24.72" y="0">11명</tspan></text>
      <g id="타원_54" data-name="타원 54" transform="translate(425 333)" fill="#fff" stroke="#20a2f8" stroke-width="15">
        <circle cx="50" cy="50" r="50" stroke="none"/>
        <circle cx="50" cy="50" r="42.5" fill="none"/>
      </g>
    </g>
    <rect id="fild" width="340" height="45" rx="22.5" transform="translate(975 233)" fill="#fff" opacity="0.8"/>
    <text id="접속번호" transform="translate(894 263)" fill="#fff" font-size="18" font-family="NotoSansKR-Regular, Noto Sans KR"><tspan x="0" y="0">접속번호</tspan></text>
    <rect id="fild-2" data-name="fild" width="580" height="45" rx="22.5" transform="translate(281 233)" fill="#fff" opacity="0.8"/>
    <text id="접속_URL" data-name="접속 URL" transform="translate(195 263)" fill="#fff" font-size="18" font-family="NotoSansKR-Regular, Noto Sans KR"><tspan x="0" y="0">접속 URL</tspan></text>
    <rect id="line-2" data-name="line" width="1120" height="1" transform="translate(195 212)" fill="#fff" opacity="0.3"/>
    <g id="btn_입력형">
      <rect id="사각형_387" data-name="사각형 387" width="65" height="65" rx="10" transform="translate(1230 127)" fill="#fff"/>
      <text id="입력형" transform="translate(1263 184)" fill="#222" font-size="12" font-family="NotoSansKR-Regular, Noto Sans KR"><tspan x="-16.56" y="0">입력형</tspan></text>
      <g id="마스크_그룹_133" data-name="마스크 그룹 133" clip-path="url(#clip-path-2)">
        <g id="Layer_2" data-name="Layer 2" transform="translate(1248 137.005)">
          <g id="Layer_26" data-name="Layer 26">
            <path id="패스_357" data-name="패스 357" d="M19.341,11.577c5.542,0,10.035,3.859,10.035,8.62A7.75,7.75,0,0,1,27.7,24.968l1.489,4.4-4.7-1.766a11.25,11.25,0,0,1-5.143,1.217c-5.542,0-10.034-3.859-10.034-8.62S13.8,11.577,19.341,11.577Z" fill="#454545" stroke="#454545" stroke-linecap="round" stroke-linejoin="round" stroke-width="1.248"/>
            <path id="패스_358" data-name="패스 358" d="M10.658.624C5.116.624.624,4.483.624,9.244A7.75,7.75,0,0,0,2.3,14.015l-1.489,4.4,4.7-1.766a11.253,11.253,0,0,0,5.144,1.218c5.542,0,10.035-3.859,10.035-8.621S16.2.624,10.658.624Z" fill="#00a58a" stroke="#00a58a" stroke-linecap="round" stroke-linejoin="round" stroke-width="1.248"/>
            <path id="패스_359" data-name="패스 359" d="M7.387,9.014a4.249,4.249,0,0,1,.238-1.455A3.363,3.363,0,0,1,8.3,6.426a2.973,2.973,0,0,1,1.02-.73A3.17,3.17,0,0,1,10.6,5.439a3.135,3.135,0,0,1,1.277.258,2.986,2.986,0,0,1,1.013.73,3.342,3.342,0,0,1,.669,1.132A4.249,4.249,0,0,1,13.8,9.014a4.412,4.412,0,0,1-.131,1.1,3.681,3.681,0,0,1-.374.931l.552.487a.226.226,0,0,1,.062.29,1.677,1.677,0,0,1-.266.365,1.563,1.563,0,0,1-.323.3.208.208,0,0,1-.266-.028l-.552-.487a2.966,2.966,0,0,1-.873.459,3.236,3.236,0,0,1-1.029.159,3.169,3.169,0,0,1-1.282-.257A3,3,0,0,1,8.3,11.6a3.31,3.31,0,0,1-.673-1.123,4.28,4.28,0,0,1-.238-1.467Zm4.1.43.824.73a3.231,3.231,0,0,0,.2-1.16,3.6,3.6,0,0,0-.117-.927,2.4,2.4,0,0,0-.356-.777,1.768,1.768,0,0,0-.594-.533,1.7,1.7,0,0,0-.833-.2,1.769,1.769,0,0,0-.852.2,1.743,1.743,0,0,0-.6.533,2.469,2.469,0,0,0-.36.777,3.624,3.624,0,0,0,0,1.862,2.408,2.408,0,0,0,.36.772,1.721,1.721,0,0,0,1.456.725,1.69,1.69,0,0,0,.983-.29l-.9-.8Z" fill="#fff"/>
            <path id="패스_360" data-name="패스 360" d="M17.765,23.2h-1.31l2.536-6.9h.992l2.527,6.9H21.19l-.468-1.385H18.261Zm.88-2.527h1.685L19.505,18.3Z" fill="#fff"/>
          </g>
        </g>
      </g>
    </g>
    <g id="btn_선택형">
      <rect id="사각형_385" data-name="사각형 385" width="65" height="65" rx="10" transform="translate(1155 127)" fill="#fff"/>
      <text id="선택형" transform="translate(1188 184)" fill="#222" font-size="12" font-family="NotoSansKR-Regular, Noto Sans KR"><tspan x="-16.56" y="0">선택형</tspan></text>
      <g id="마스크_그룹_134" data-name="마스크 그룹 134" clip-path="url(#clip-path-3)">
        <g id="checked_3_" data-name="checked (3)" transform="translate(1175 142)">
          <g id="그룹_93" data-name="그룹 93">
            <g id="그룹_92" data-name="그룹 92">
              <path id="패스_361" data-name="패스 361" d="M24.285,3.418a.942.942,0,0,0-1.332,0L11.65,14.69,7.571,10.26a.942.942,0,1,0-1.386,1.276l4.742,5.15a.941.941,0,0,0,.673.3h.02a.943.943,0,0,0,.665-.275l12-11.966A.942.942,0,0,0,24.285,3.418Z" fill="#00a58a"/>
            </g>
          </g>
          <g id="그룹_95" data-name="그룹 95">
            <g id="그룹_94" data-name="그룹 94">
              <path id="패스_362" data-name="패스 362" d="M24.058,11.558a.942.942,0,0,0-.942.942A10.616,10.616,0,1,1,12.5,1.884.942.942,0,1,0,12.5,0,12.5,12.5,0,1,0,25,12.5.942.942,0,0,0,24.058,11.558Z" fill="#454545"/>
            </g>
          </g>
        </g>
      </g>
    </g>
    <g id="btn_OX형">
      <g id="사각형_379" data-name="사각형 379" transform="translate(1080 127)" fill="#fff" stroke="#fc5d5b" stroke-width="2">
        <rect width="65" height="65" rx="10" stroke="none"/>
        <rect x="1" y="1" width="63" height="63" rx="9" fill="none"/>
      </g>
      <text id="OX형" transform="translate(1113 184)" fill="#222" font-size="12" font-family="NotoSansKR-Regular, Noto Sans KR"><tspan x="-13.296" y="0">OX형</tspan></text>
      <g id="마스크_그룹_135" data-name="마스크 그룹 135" clip-path="url(#clip-path-4)">
        <g id="Layer_2-2" data-name="Layer 2" transform="translate(1098 141.019)">
          <g id="Layer_27" data-name="Layer 27">
            <rect id="사각형_501" data-name="사각형 501" width="28.8" height="12" rx="6" transform="translate(0.6 0.6)" fill="#fff" stroke="#454545" stroke-linecap="round" stroke-linejoin="round" stroke-width="1.2"/>
            <path id="패스_363" data-name="패스 363" d="M6.24,6.6a4.087,4.087,0,0,1,.229-1.4,3.233,3.233,0,0,1,.644-1.09,2.875,2.875,0,0,1,.981-.7,3.06,3.06,0,0,1,1.233-.247,3.025,3.025,0,0,1,1.228.247,2.888,2.888,0,0,1,.977.7,3.232,3.232,0,0,1,.643,1.09,4.087,4.087,0,0,1,.23,1.4,4.118,4.118,0,0,1-.23,1.409,3.18,3.18,0,0,1-.643,1.084,2.9,2.9,0,0,1-.977.7,3.025,3.025,0,0,1-1.228.247,3.06,3.06,0,0,1-1.233-.247,2.888,2.888,0,0,1-.981-.7,3.18,3.18,0,0,1-.644-1.084A4.118,4.118,0,0,1,6.24,6.6Zm4.923,0a3.453,3.453,0,0,0-.113-.891,2.3,2.3,0,0,0-.342-.747,1.7,1.7,0,0,0-.568-.513,1.63,1.63,0,0,0-.8-.189,1.7,1.7,0,0,0-.816.189,1.676,1.676,0,0,0-.581.513,2.3,2.3,0,0,0-.342.747,3.453,3.453,0,0,0-.115.891,3.49,3.49,0,0,0,.112.9,2.252,2.252,0,0,0,.342.743,1.655,1.655,0,0,0,1.4.7,1.63,1.63,0,0,0,.8-.189,1.718,1.718,0,0,0,.571-.508,2.252,2.252,0,0,0,.342-.743A3.489,3.489,0,0,0,11.163,6.6Z" fill="#454545"/>
            <path id="패스_364" data-name="패스 364" d="M17.82,9.916l2.259-3.41L17.946,3.284H19.4L20.784,5.5,22.17,3.284h1.446L21.474,6.506l2.286,3.41H22.284L20.784,7.5l-1.5,2.412Z" fill="#454545"/>
            <path id="패스_365" data-name="패스 365" d="M22.031,16.157,15.18,9.308a.391.391,0,0,0-.628.289V18.96a.379.379,0,0,0,.379.379.36.36,0,0,0,.248-.092l1.9-1.654,1.549,3.617a.254.254,0,0,0,.138.136.267.267,0,0,0,.094.017.251.251,0,0,0,.1-.021l1.628-.7a.253.253,0,0,0,.133-.332l-1.5-3.5H21.76a.379.379,0,0,0,.379-.379.42.42,0,0,0-.108-.269Z" fill="#00a58a" stroke="#00a58a" stroke-linecap="round" stroke-linejoin="round" stroke-width="1.2"/>
          </g>
        </g>
      </g>
    </g>
    <text id="라이브_샷_LIVE_Shot_" data-name="라이브 샷 (LIVE Shot)" transform="translate(195 170)" fill="#fff" font-size="24" font-family="NotoSansKR-Bold, Noto Sans KR" font-weight="700"><tspan x="0" y="0">라이브 샷</tspan><tspan y="0" font-family="Roboto-Medium, Roboto" font-weight="500"> </tspan><tspan y="0" font-family="Roboto-Bold, Roboto">(LIVE Shot)</tspan></text>
  </g>
</svg>
