<svg xmlns="http://www.w3.org/2000/svg" xmlns:xlink="http://www.w3.org/1999/xlink" width="50" height="50" viewBox="0 0 50 50">
  <defs>
    <clipPath id="clip-path">
      <circle id="타원_396" data-name="타원 396" cx="24" cy="24" r="24" transform="translate(0 0)" fill="none"/>
    </clipPath>
  </defs>
  <g id="여_학생" transform="translate(-30.218 -82.218)">
    <circle id="profile" cx="25" cy="25" r="25" transform="translate(30.218 82.218)" fill="#e8ebed"/>
    <g id="그룹_888" data-name="그룹 888" transform="translate(-1326.659 197.017)">
      <g id="그룹_887" data-name="그룹 887" transform="translate(1357.877 -113.799)" clip-path="url(#clip-path)">
        <g id="그룹_886" data-name="그룹 886" transform="translate(5.433 8.677)">
          <path id="패스_1857" data-name="패스 1857" d="M1390.367-56.554a9.3,9.3,0,0,0,5.567.344c1.549-.393,2.552-1.288,4.188-1.025,3.365.541,6.4.662,9.363-1.389a5.572,5.572,0,0,0,1.821-1.9,7.55,7.55,0,0,0,.565-3.665c-.086-6.384-.916-13.14-6.8-16.874-7.565-4.8-19.977-1.133-21.921,8.116-.551,2.623-.161,4.788-2.241,6.85-.813.806-2.121,1.258-2.782,2.193a2.655,2.655,0,0,0-.433,1.514,4.022,4.022,0,0,0,3.3,3.874,4.015,4.015,0,0,1,1.271.265,3.679,3.679,0,0,1,.788.671,4.815,4.815,0,0,0,4.891,1.013,3.925,3.925,0,0,1,1.088-.334,3.237,3.237,0,0,1,1.336.345" transform="translate(-1377.185 83.686)" fill="#893825"/>
          <path id="패스_1858" data-name="패스 1858" d="M1389.034-57.251a9.587,9.587,0,0,0,6.2.242,26.094,26.094,0,0,1,2.5-.892c.058-.012.118-.022.176-.033.093-.015-.026,0,.069-.008.115-.011.231-.018.347-.018a3.715,3.715,0,0,1,.667.061c.512.08,1.026.152,1.542.208a12.7,12.7,0,0,0,5.638-.466,10,10,0,0,0,2.673-1.43,5.57,5.57,0,0,0,1.953-2.42,8.335,8.335,0,0,0,.391-3.073c-.007-.859-.029-1.717-.072-2.575a33.842,33.842,0,0,0-.593-5.05,18.583,18.583,0,0,0-1.573-4.673,13.367,13.367,0,0,0-2.975-3.925,13.708,13.708,0,0,0-4-2.493,14.975,14.975,0,0,0-4.036-.991,16.837,16.837,0,0,0-4.2.091,16.567,16.567,0,0,0-3.965,1.074,15.74,15.74,0,0,0-3.671,2.105,13.21,13.21,0,0,0-2.808,2.963,11.949,11.949,0,0,0-1.72,3.794,20.235,20.235,0,0,0-.429,2.57c-.026.211-.051.421-.079.631-.013.1.007-.045-.007.055l-.02.142c-.016.11-.033.219-.052.329a8.821,8.821,0,0,1-.27,1.165c-.028.09-.058.179-.09.268-.016.044-.032.089-.05.133l-.026.066c-.034.088.01-.021-.013.032a5.777,5.777,0,0,1-.273.545,5.989,5.989,0,0,1-.366.558.564.564,0,0,1-.052.067l-.1.128c-.08.094-.162.185-.247.275s-.163.169-.25.248c-.036.033-.073.065-.11.1l-.057.047c-.007.005-.08.064-.045.037-.111.087-.345.247-.507.353-.364.238-.738.462-1.087.724a4.006,4.006,0,0,0-1,1.01,3.153,3.153,0,0,0-.45,1.53,4.268,4.268,0,0,0,.716,2.548,4.585,4.585,0,0,0,1.971,1.694,4.835,4.835,0,0,0,1.412.355c.07.008.139.015.208.024s.024,0,.011,0l.088.015a1.839,1.839,0,0,1,.369.1c-.031-.013.073.038.09.048a1.334,1.334,0,0,1,.144.094c-.023-.017.077.067.1.085.05.046.1.092.147.14a5.621,5.621,0,0,0,2.378,1.466,5.363,5.363,0,0,0,2.792.068c.452-.112.866-.339,1.319-.444a1.164,1.164,0,0,1,.557.04,7.4,7.4,0,0,1,.744.271.515.515,0,0,0,.631-.358.528.528,0,0,0-.359-.631,3.377,3.377,0,0,0-1.532-.358,7.881,7.881,0,0,0-1.458.444,3.569,3.569,0,0,1-1.184.164c-.1,0-.206,0-.309-.011-.051,0-.1-.008-.154-.013l-.077-.008c-.087-.009.07.011-.017,0a4.956,4.956,0,0,1-.63-.135q-.149-.042-.295-.094l-.145-.054-.072-.029c-.08-.033.059.027-.02-.009a5.006,5.006,0,0,1-.568-.3q-.131-.081-.256-.172c-.016-.011-.115-.086-.061-.044-.047-.037-.094-.076-.139-.115-.176-.152-.334-.322-.5-.481a2.4,2.4,0,0,0-.641-.464,2.952,2.952,0,0,0-.856-.223,5.1,5.1,0,0,1-1.2-.257c-.089-.033.03.017-.055-.023-.051-.024-.1-.048-.152-.073-.093-.047-.184-.1-.274-.153s-.163-.1-.241-.16c-.02-.014-.113-.085-.051-.036-.044-.035-.088-.071-.131-.108a4.158,4.158,0,0,1-.43-.427l-.094-.111c-.059-.071.015.025-.039-.05s-.121-.171-.177-.261a4.094,4.094,0,0,1-.283-.534c.033.075-.012-.032-.022-.056-.017-.045-.033-.09-.049-.136-.033-.1-.063-.2-.088-.3s-.043-.188-.059-.284c0-.024-.007-.047-.011-.071,0,.009.009.077,0,.017s-.011-.112-.015-.169c-.006-.1-.008-.2-.006-.3,0-.057,0-.115.008-.172,0-.028,0-.057.007-.086.009-.093-.01.059,0-.034a2.7,2.7,0,0,1,.072-.336,1.771,1.771,0,0,1,.1-.277,3,3,0,0,1,.173-.294c.05-.076-.022.02.038-.05.037-.043.073-.086.112-.128a3.774,3.774,0,0,1,.458-.413c-.059.045.04-.029.057-.041l.124-.088q.136-.095.276-.186c.356-.233.723-.452,1.065-.707a5.773,5.773,0,0,0,1.017-.963,6.447,6.447,0,0,0,1.226-2.319,15.306,15.306,0,0,0,.421-2.435c.025-.208.05-.415.078-.623.013-.1,0,.03.009-.066.007-.051.014-.1.022-.153q.025-.168.052-.335c.064-.391.142-.78.24-1.165q.127-.494.3-.976.084-.237.178-.47l.046-.111c-.034.083-.007.017.011-.025q.051-.119.106-.237a11.594,11.594,0,0,1,.984-1.727q.139-.2.286-.4l.07-.093-.02.026.036-.046c.052-.066.105-.132.159-.2q.31-.377.649-.729t.7-.677q.182-.163.371-.319.09-.075.182-.148l.092-.074c.033-.025.118-.09.036-.028a15.4,15.4,0,0,1,1.643-1.088q.431-.245.878-.462.224-.108.452-.21l.219-.1.055-.024s-.085.035-.03.013l.129-.053a16.325,16.325,0,0,1,1.9-.639,16.689,16.689,0,0,1,1.97-.407l.119-.017c-.091.013-.026,0,.024,0l.26-.031q.25-.028.5-.048.5-.04,1-.051a16.094,16.094,0,0,1,2.023.086l.238.027.119.015-.037,0,.079.011q.247.035.493.078.49.086.973.2a14.012,14.012,0,0,1,1.884.606l.109.045.055.023-.031-.014.235.1q.225.1.446.211.442.22.867.473.515.308,1,.663c.083.061.165.122.247.184.047.035.006,0,0,0l.06.047.138.111q.243.2.476.407.455.409.868.861.2.222.395.453c.061.074.121.148.18.223.016.02.087.111.037.046l.1.133a13.425,13.425,0,0,1,1.233,2q.132.262.254.529c.039.086.077.171.114.258.011.026.055.129.022.05l.063.152q.223.547.406,1.108a20.684,20.684,0,0,1,.611,2.332q.12.592.212,1.19.023.144.043.288l.02.144.01.073c.012.083-.01-.075,0,.008q.04.3.074.606a48.779,48.779,0,0,1,.266,4.923,7.739,7.739,0,0,1-.332,2.865,3.477,3.477,0,0,1-.29.583c-.059.1-.123.188-.189.28-.034.047-.012.018,0,.008-.017.022-.035.044-.053.066-.042.051-.084.1-.128.151a5.678,5.678,0,0,1-.5.5,5.776,5.776,0,0,1-.5.4,9.925,9.925,0,0,1-1.272.779,7.767,7.767,0,0,1-1.232.511,9.513,9.513,0,0,1-1.32.324q-.16.028-.32.05c.072-.01-.057.007-.078.01l-.188.021q-.337.035-.675.049a17.142,17.142,0,0,1-2.8-.134c-.254-.031-.378-.047-.637-.085s-.511-.081-.767-.116a4.2,4.2,0,0,0-1.464.067c-.852.186-1.623.621-2.452.881a8.124,8.124,0,0,1-2.882.347,8.764,8.764,0,0,1-2.771-.589.515.515,0,0,0-.631.358.527.527,0,0,0,.358.631" transform="translate(-1375.987 84.877)" fill="#24221e"/>
          <g id="그룹_884" data-name="그룹 884" transform="translate(25.715 26.547)">
            <path id="패스_1859" data-name="패스 1859" d="M1463.888,6.08s7.538,2.215,6.588,12.646c0,0-2.859.932-4.514-.176Z" transform="translate(-1463.232 -5.34)" fill="#597582"/>
            <path id="패스_1860" data-name="패스 1860" d="M1466.583,17.89a4.386,4.386,0,0,1-2.443-.63l-.189-.126L1461.7,3.614l.8.236c.08.023,7.941,2.461,6.963,13.2l-.031.344-.328.107A9.03,9.03,0,0,1,1466.583,17.89ZM1464.91,16.5a5.577,5.577,0,0,0,3.542.1c.553-7.555-3.6-10.481-5.42-11.39Z" transform="translate(-1461.703 -3.614)" fill="#24221e"/>
          </g>
          <path id="패스_1861" data-name="패스 1861" d="M1406.256,3.236a37.769,37.769,0,0,0-4.347,14.378c-.07.756-.745,2.114-.444,2.832.359.857,2.243,1.2,3.109,1.461a26.142,26.142,0,0,0,7.828,1.151,2.862,2.862,0,0,0,1.36-.246c.807-.438,1.085-1.52,1.88-1.98a16.389,16.389,0,0,0,1.01,2.18c.225.4,3.325-.962,3.67-1.1,2.063-.829,2.351-2.3,2.319-4.511a44.664,44.664,0,0,0-2.431-13.886" transform="translate(-1393.768 23.198)" fill="#597582"/>
          <path id="패스_1862" data-name="패스 1862" d="M1405.322,3.5a37.214,37.214,0,0,0-3.74,10.381q-.189.946-.327,1.9c-.1.658-.2,1.325-.239,1.989-.006.095.023-.115,0,.026-.008.041-.016.083-.025.124-.023.1-.05.209-.079.312-.061.22-.128.439-.189.658a3.779,3.779,0,0,0-.2,1.372c.1.986,1,1.436,1.84,1.734.385.136.78.241,1.175.346.474.127.942.276,1.417.4a26.485,26.485,0,0,0,3.77.706q.934.108,1.874.146a11.551,11.551,0,0,0,1.805-.012,2.435,2.435,0,0,0,1.565-.75,5.934,5.934,0,0,0,.471-.6l.19-.268c.029-.041.059-.081.089-.122.052-.07-.048.059.006-.008l.064-.077a2.614,2.614,0,0,1,.22-.233c.036-.033.073-.066.111-.1-.083.065.073-.041.092-.053l-.8-.327a17.7,17.7,0,0,0,.717,1.644c.176.353.329.814.753.923a1.725,1.725,0,0,0,.789-.046,7.473,7.473,0,0,0,.778-.228c.563-.19,1.115-.412,1.663-.64a8.384,8.384,0,0,0,1.482-.7,3.579,3.579,0,0,0,1.388-1.757,6.656,6.656,0,0,0,.319-2.262,41.019,41.019,0,0,0-.548-6.7,43.636,43.636,0,0,0-1.839-7.381.562.562,0,0,0-.674-.383.553.553,0,0,0-.382.674,42.987,42.987,0,0,1,2.329,12.608c.015.46.027.92.016,1.38,0,.177-.011.354-.025.53-.006.092-.015.183-.025.275,0,.023-.022.174,0,.032-.006.043-.012.086-.019.13a4.733,4.733,0,0,1-.107.495q-.027.1-.059.194c-.013.038-.026.076-.04.113s-.085.191-.019.052a3.584,3.584,0,0,1-.2.379c-.035.055-.073.108-.11.161-.077.11.078-.087-.011.014-.035.04-.069.081-.106.12a3.052,3.052,0,0,1-.334.307c.1-.084-.011.006-.029.019-.036.026-.073.051-.11.075-.077.051-.157.1-.238.143s-.173.092-.262.134c-.047.022-.093.043-.14.064.082-.036,0,0-.016.006l-.165.069c-.444.187-.888.371-1.338.543-.307.117-.617.23-.931.329-.138.044-.277.085-.418.121-.066.017-.132.032-.2.045l-.078.014c-.082.016-.037-.037.049-.006a.544.544,0,0,0-.145.009c-.141.008.13.033.034.007-.053-.015-.063-.046.084.037-.079-.044.226.151.151.154-.034,0-.172-.318-.2-.363a15.032,15.032,0,0,1-.732-1.627.556.556,0,0,0-.8-.327,3.52,3.52,0,0,0-1.019,1.044l-.19.268-.089.122c-.037.05,0,0,.009-.011l-.062.078a2.836,2.836,0,0,1-.217.235c-.035.033-.072.066-.109.1s.007-.006.014-.011c-.034.023-.067.046-.1.067a.753.753,0,0,1-.245.11c-.059.018-.118.032-.178.045a.768.768,0,0,1-.16.025,8.38,8.38,0,0,1-.842.022q-.905-.006-1.809-.076a24.2,24.2,0,0,1-3.535-.54c-.935-.213-1.856-.49-2.78-.749-.2-.057-.4-.117-.6-.184-.088-.03-.176-.062-.263-.1-.02-.008-.14-.056-.083-.032l-.018-.008-.1-.046c-.078-.037-.155-.076-.23-.119-.042-.024-.083-.049-.124-.074-.02-.013-.134-.091-.074-.048s-.032-.027-.047-.041-.054-.05-.079-.076c-.045-.047-.069-.1-.015-.009l-.063-.1c-.009-.014-.013-.03-.022-.044,0,.007.03.1.022.048a.848.848,0,0,0-.034-.131c.029.084,0,.053,0-.017,0-.05,0-.1,0-.151s.005-.091.009-.136c0-.017.014-.115,0-.044s0-.014,0-.023c.02-.107.041-.213.066-.319.1-.428.251-.844.348-1.274.122-.544.136-1.117.206-1.67.073-.577.168-1.176.274-1.76q.324-1.787.822-3.537a35.661,35.661,0,0,1,2.523-6.442q.2-.388.4-.772a.548.548,0,1,0-.946-.553" transform="translate(-1393.152 23.198)" fill="#24221e"/>
          <path id="패스_1863" data-name="패스 1863" d="M1429.272,12.474a13.763,13.763,0,0,1,1.119,2.435,15.98,15.98,0,0,0,3.507,5.213.986.986,0,0,0,.691.373c.314-.017.531-.31.7-.577A27.82,27.82,0,0,0,1439.1,9.765" transform="translate(-1413.287 18.628)" fill="#fff"/>
          <path id="패스_1864" data-name="패스 1864" d="M1427.47,11.459a10.265,10.265,0,0,1,.924,1.958,17.969,17.969,0,0,0,.942,2.031,16.6,16.6,0,0,0,2.578,3.5,2.859,2.859,0,0,0,.868.706,1.143,1.143,0,0,0,1.213-.188,3.129,3.129,0,0,0,.635-.848q.295-.487.569-.986a28.783,28.783,0,0,0,1.86-4.129,27.9,27.9,0,0,0,1.271-4.887.577.577,0,0,0-.393-.692.569.569,0,0,0-.692.393,27.465,27.465,0,0,1-2.61,7.978q-.479.94-1.029,1.841c-.078.127-.153.258-.242.378.052-.069-.07.072-.086.09-.035.036-.027.059-.007.009l-.043.026c.052-.017.058-.02.019-.008-.055.024.011.006.024,0-.083.02-.062,0-.018,0-.1-.01-.052-.022-.022-.006a.938.938,0,0,1-.1-.061c.055.039-.1-.089-.112-.1-.06-.058-.119-.117-.177-.176a15.068,15.068,0,0,1-2.4-3.159q-.278-.485-.521-.989c-.171-.354-.3-.656-.436-.993a12.236,12.236,0,0,0-1.049-2.257.575.575,0,0,0-.77-.2.568.568,0,0,0-.2.769" transform="translate(-1411.97 19.926)" fill="#24221e"/>
          <path id="패스_1865" data-name="패스 1865" d="M1441.612,14.595c.251-.986.787-2.045.2-2.981-.824-1.322-2.036-.313-3.065.327a.415.415,0,0,0-.2.213c-.213.759,1.129,2.327,1.5,2.962a1.165,1.165,0,0,1,.193.5,1.1,1.1,0,0,1-.086.426,10.666,10.666,0,0,1-1.012,2.1c-.5.8.963,1.783,1.464,2.318.052.056.12.116.193.1a.217.217,0,0,0,.106-.085c.478-.6.959-1.193,1.433-1.793.027-.034.945-1.39.319-1.39l-.958-1.81a.918.918,0,0,1-.088-.854l.007-.028" transform="translate(-1419.762 17.787)" fill="#24221e"/>
          <path id="패스_1866" data-name="패스 1866" d="M1440.818,13.441c.251-.965.721-1.991.349-2.99a2.152,2.152,0,0,0-.944-1.163,1.731,1.731,0,0,0-1.26-.118,4.205,4.205,0,0,0-1.126.53c-.165.1-.327.209-.49.314a1.619,1.619,0,0,0-.6.507c-.365.658.13,1.521.474,2.079s.776,1.053,1.077,1.628c.008.016.064.13.028.058l.016.057c0-.053,0-.043,0,.03.016-.1-.029.1-.027.095-.012.04-.026.08-.04.119-.086.249-.174.469-.276.694s-.215.456-.334.677-.267.436-.382.662c-.4.784.152,1.552.694,2.094.241.241.5.459.749.693a1.286,1.286,0,0,0,.534.387c.42.108.661-.173.892-.462.386-.481.773-.962,1.156-1.445a4.67,4.67,0,0,0,.43-.634,2.553,2.553,0,0,0,.358-.971.771.771,0,0,0-.774-.861l.486.278-.684-1.293c-.106-.2-.218-.4-.317-.6-.016-.035-.019-.038-.007-.008l-.019-.059c.014.06,0-.049,0-.07,0-.039,0-.043,0-.01,0-.021.009-.042.013-.064.012-.051.024-.1.037-.154a.563.563,0,0,0-1.085-.3,1.783,1.783,0,0,0-.052.866,3.549,3.549,0,0,0,.361.773l.787,1.487a.566.566,0,0,0,.486.279c.106,0-.139-.031-.052-.006a.419.419,0,0,1-.247-.189c0-.008-.055-.156-.032-.071.015.056-.02-.173-.014-.061s-.007-.052.01-.06a.749.749,0,0,0-.02.083c-.015.056-.04.109-.056.164s.055-.116.01-.026c-.015.031-.029.063-.044.094-.03.061-.062.122-.095.181-.052.095-.107.188-.164.279-.031.049-.064.1-.1.147,0,0,.107-.135-.009.009l-.115.145-.254.318-.509.636-.278.347-.139.173-.046.058c-.043.049-.041.048.008,0l.284-.077c.292,0,.242.126.182.044a.46.46,0,0,0-.047-.047l-.091-.088c-.079-.075-.161-.148-.242-.221-.179-.161-.358-.322-.526-.493-.077-.078-.152-.158-.223-.242-.02-.023-.038-.047-.058-.07.073.084.021.029.006.007-.037-.053-.074-.106-.107-.161s-.044-.084-.068-.126c.057.1.006.01-.012-.045a.335.335,0,0,0-.013-.054c-.031-.059-.006.108,0,.043a.185.185,0,0,0,0-.053c-.024-.085-.03.095,0,.009a.223.223,0,0,0,.014-.052c0-.054-.059.064-.014.031s.073-.122.1-.168q.143-.235.273-.477c.175-.324.33-.657.473-1a3.7,3.7,0,0,0,.352-1.1,1.621,1.621,0,0,0-.3-.966c-.217-.355-.473-.686-.7-1.03-.139-.206-.274-.415-.4-.631-.056-.1-.11-.2-.16-.3-.012-.025-.07-.156-.042-.09s0-.011-.01-.029-.023-.062-.034-.094c-.019-.056-.08-.191-.064-.25-.013.047.007.119.009.05,0-.02,0-.043,0-.064a.478.478,0,0,0,0-.062c.026.027-.05.139,0,.048.032-.064-.065.13-.061.111-.01.038-.047.031.01,0s.115-.073.173-.11l.354-.229a7.023,7.023,0,0,1,.677-.4c.022-.011.2-.089.091-.045.052-.02.1-.04.157-.057s.1-.031.155-.044l.088-.018c-.07.016-.067,0,0,0a1.87,1.87,0,0,1,.192,0c-.125-.008,0,.01.059.025.094.024.008,0-.013-.007l.1.056c.02.012.04.026.058.039-.1-.07.028.033.038.043s.128.152.093.1a1.75,1.75,0,0,1,.15.249,1.3,1.3,0,0,1,.065.189c.008.032.038.219.032.151a2.153,2.153,0,0,1,.006.274c0,.031,0,.061,0,.092,0,0-.015.144-.01.11-.016.113-.066.331-.106.482-.1.371-.226.735-.323,1.107a.563.563,0,1,0,1.085.3" transform="translate(-1418.426 19.09)" fill="#24221e"/>
          <path id="패스_1867" data-name="패스 1867" d="M1425.359,3.327a2.97,2.97,0,0,0,1.777,3.808,3.924,3.924,0,0,0,1.792-.028,3.727,3.727,0,0,0,1.016-.331,2.633,2.633,0,0,0,1.322-2.333,2.728,2.728,0,0,0,2.142,2.612,2.638,2.638,0,0,0,2.8-1.752,3.152,3.152,0,0,0-.93-3.373" transform="translate(-1410.418 24.112)" fill="#fff"/>
          <path id="패스_1868" data-name="패스 1868" d="M1423.5,1.88a3.6,3.6,0,0,0,1.031,3.879,3.136,3.136,0,0,0,2.252.727,4.444,4.444,0,0,0,2.641-.881,3.243,3.243,0,0,0,1.088-2.46h-1.125a3.219,3.219,0,0,0,3.269,3.2,3.314,3.314,0,0,0,2.951-3.559,3.693,3.693,0,0,0-1.247-2.547.578.578,0,0,0-.8,0,.567.567,0,0,0,0,.8,2.865,2.865,0,0,1,.34.331c-.007-.008.1.127.056.067s.027.039.035.05q.084.121.157.249c.035.062.068.126.1.191,0-.01.066.152.037.081s.034.095.031.084a3.269,3.269,0,0,1,.136.5c.008.045.016.089.023.134,0-.025-.009-.1,0,.012.006.072.012.144.014.217q0,.135,0,.271c0,.036-.005.072-.008.108-.014.171.022-.1-.008.064a2.93,2.93,0,0,1-.121.469c-.012.034-.025.069-.039.1.035-.083,0,0-.009.015-.046.088-.09.175-.143.26-.043.068-.088.135-.136.2.055-.071,0,0-.012.011-.03.032-.058.067-.089.1q-.082.087-.17.167l-.08.069c-.1.083.043-.023-.053.04a3.983,3.983,0,0,1-.405.239c-.1.049-.031.016-.008.006-.04.016-.08.031-.121.045a2.449,2.449,0,0,1-.273.078c-.037.008-.217.035-.1.023a2.36,2.36,0,0,1-.256.014c-.069,0-.137,0-.205-.009-.112-.009-.028,0,0,0-.05-.009-.1-.019-.151-.031-.083-.02-.163-.048-.245-.074-.018-.006-.1-.042-.008,0l-.093-.044a2.406,2.406,0,0,1-.225-.127c-.029-.018-.058-.038-.087-.057-.006,0-.136-.106-.053-.038a3.468,3.468,0,0,1-.375-.371c-.112-.125.032.047-.027-.033q-.047-.065-.091-.132a2.919,2.919,0,0,1-.148-.254c-.016-.032-.031-.064-.047-.1-.074-.15.029.094-.027-.063-.03-.085-.059-.169-.083-.256a2.68,2.68,0,0,1-.057-.263c.017.1,0-.012,0-.038-.005-.063-.008-.127-.009-.19a.563.563,0,0,0-1.125,0c0,.085,0,.169-.008.254,0,.013-.015.129-.006.065s-.01.051-.012.064a2.735,2.735,0,0,1-.14.483c-.034.087.031-.065-.009.02-.02.042-.04.084-.062.124q-.051.1-.111.192c-.02.031-.041.061-.061.092-.007.011-.062.086-.01.019a2.233,2.233,0,0,1-.18.2c-.051.052-.1.1-.159.147-.081.072-.033.027-.013.012-.029.021-.058.042-.088.062a1.846,1.846,0,0,1-.419.213,5.286,5.286,0,0,1-1.083.244,2.79,2.79,0,0,1-1.1-.058c-.059-.017-.117-.038-.175-.059.111.04-.038-.018-.076-.038a2.3,2.3,0,0,1-.352-.222c.095.073-.04-.038-.066-.061-.052-.047-.1-.1-.151-.148s-.085-.094-.126-.142c-.01-.012-.072-.092-.03-.037s-.045-.065-.054-.079a3.237,3.237,0,0,1-.208-.354c-.029-.058-.057-.117-.082-.176.009.021.036.1,0,0-.015-.046-.033-.092-.049-.138a3.611,3.611,0,0,1-.112-.449c0-.017-.018-.12-.008-.046s-.005-.055-.006-.07c-.007-.08-.011-.161-.011-.242s0-.161.01-.242c0-.032.006-.064.01-.1-.014.135.006-.022.009-.041a2.643,2.643,0,0,1,.136-.463.565.565,0,0,0-.393-.692.579.579,0,0,0-.692.393" transform="translate(-1409.1 25.41)" fill="#24221e"/>
          <g id="그룹_885" data-name="그룹 885" transform="translate(6.387 25.348)">
            <path id="패스_1869" data-name="패스 1869" d="M1405.662,1.616s-6.98,1.772-6.343,7.6c.825,7.551,4.838,8.6,4.838,8.6l3.528-3.248s-3.228-2.753-3.04-5.828" transform="translate(-1398.678 -1.016)" fill="#597582"/>
            <path id="패스_1870" data-name="패스 1870" d="M1402.756,17.018a.606.606,0,0,1-.151-.02c-.18-.047-4.422-1.245-5.282-9.116-.685-6.275,6.717-8.229,6.792-8.248a.6.6,0,0,1,.3,1.163h0c-.264.068-6.467,1.72-5.895,6.955.642,5.88,3.238,7.568,4.108,7.973l2.781-2.56c-.949-.955-2.917-3.265-2.759-5.859a.6.6,0,0,1,1.2.073c-.167,2.735,2.8,5.309,2.831,5.335a.6.6,0,0,1,.017.9l-3.528,3.248A.6.6,0,0,1,1402.756,17.018Z" transform="translate(-1397.278 0.384)" fill="#24221e"/>
          </g>
          <path id="패스_1871" data-name="패스 1871" d="M1412.871,47.283c1.119-3.4,6.05-3.308,6.493.451a1.4,1.4,0,0,1-.783,1.49c-.569.207-1.319-.309-1.187-.9a.845.845,0,1,1-1.647.379.934.934,0,0,1-.457,1.035.617.617,0,0,1-.856-.539,1.025,1.025,0,0,1-1.457-.291,1.9,1.9,0,0,1-.107-1.625" transform="translate(-1401.715 -5.911)" fill="#ffe3d4"/>
          <path id="패스_1872" data-name="패스 1872" d="M1411.039,45.782a4.2,4.2,0,0,1,1.819-2.282,4,4,0,0,1,2.556-.524,3.667,3.667,0,0,1,2.331,1.254,3.91,3.91,0,0,1,.713,1.349,2.768,2.768,0,0,1,.047,1.772,1.633,1.633,0,0,1-1.714,1.15,1.424,1.424,0,0,1-1.258-1.536.563.563,0,0,1,1.114-.056,1.407,1.407,0,1,1-2.754.581l1.107-.2a1.461,1.461,0,0,1-1,1.719,1.181,1.181,0,0,1-1.429-1.167l.931.469a1.583,1.583,0,0,1-2.153-.22,2.358,2.358,0,0,1-.311-2.305.562.562,0,1,1,1.062.371,1.9,1.9,0,0,0-.1.624,1.665,1.665,0,0,0,.059.339c-.029-.09.033.068.037.077s.1.156.036.073a1.189,1.189,0,0,0,.1.119c-.073-.073.044.029.056.038s.149.074.059.037a1.371,1.371,0,0,0,.15.052c-.1-.028.042,0,.064.006.111.02-.042.022.059,0a.915.915,0,0,0,.1-.02c-.055.019-.064.02-.025,0a.53.53,0,0,0,.068-.034c-.055.037-.055.035,0-.008a.569.569,0,0,1,.931.469c0-.045-.015-.072,0-.01-.037-.159.027.028-.019-.046s.053.03-.01-.008.041.027.054.036c-.056-.038-.044,0,0,0l.044.014c-.056-.01-.065-.012-.025-.007.017,0,.105.021.044,0-.034,0-.035,0,0,0s.031,0-.032.012c.038-.03.056-.032.009,0a.736.736,0,0,0,.078-.068c-.07.069,0-.012.016-.033.048-.068-.023.067.008-.012a.984.984,0,0,0,.043-.126c-.014.058,0,.017,0-.018,0-.013.006-.151.008-.088s-.014-.087-.014-.087a.563.563,0,0,1,1.107-.2c.034.138-.051-.08.019.043.03.053.029.037,0,0a1.34,1.34,0,0,0,.1.111c-.06-.055-.01-.016.027.01s-.07-.017.026.016c0,0,.137.041.071.027s.062,0,.076.005c-.106-.008.02-.006.05-.011-.076.013-.033.014.019-.012s.077-.06.02-.009c.01-.009.108-.1.059-.047s.034-.051.043-.062c.07-.089-.006.06.025-.048,0-.014.036-.14.024-.072s0-.077,0-.076c0,.1-.007-.011-.015-.05l1.114-.056c-.005.027-.011.171-.016.1-.007-.094.041.117.005.021-.029-.076.038.065.047.082-.057-.1.01-.017.039.027s-.016-.014-.027-.022c.025.017.048.036.072.053.042.028.117.052.03.023.049.017.1.033.15.052s-.019-.007-.03-.007a.746.746,0,0,1,.09.008c.042.005.08-.021-.011,0a.318.318,0,0,0,.067-.011c.052-.03-.025.013-.035.017.025-.009.049-.02.073-.031s.155-.1.075-.037c.02-.017.041-.032.06-.05s.083-.079.043-.037.026-.034.035-.046.031-.043.045-.065.07-.136.037-.059a1.743,1.743,0,0,0,.066-.176c.008-.026.015-.052.022-.078-.015.057,0,.015,0-.019.008-.063.015-.125.017-.189,0-.027,0-.054,0-.081,0,.026.012.092,0-.015s-.031-.226-.054-.338-.043-.2-.071-.294c-.006-.021-.049-.149-.023-.08s0,0-.006-.013c-.013-.034-.025-.068-.039-.1a3.663,3.663,0,0,0-.255-.509c-.056-.1.059.079-.006-.01-.027-.037-.054-.076-.083-.113q-.083-.11-.178-.211c-.057-.062-.119-.118-.178-.177.064.064.045.038-.007,0s-.079-.063-.12-.094c-.066-.048-.134-.094-.2-.137l-.1-.058c-.019-.01-.161-.083-.085-.046s-.056-.025-.072-.032l-.1-.043q-.122-.048-.248-.086l-.127-.035c-.02-.005-.139-.033-.058-.015s-.051-.009-.077-.014c-.043-.007-.087-.014-.13-.019a4.007,4.007,0,0,0-.509-.026c-.1,0,.1-.01-.025,0l-.114.01q-.133.014-.264.038t-.243.054c-.043.011-.087.024-.13.036-.128.037.07-.028-.022.007a4.038,4.038,0,0,0-.5.222c-.04.022-.08.045-.119.068l-.051.031c-.114.067.072-.053.01-.008-.081.059-.163.115-.24.178s-.154.131-.227.2c-.039.038-.077.078-.115.117-.09.094.033-.045-.027.03a4.065,4.065,0,0,0-.376.543c-.025.045-.049.09-.073.136.054-.107-.016.038-.032.075-.049.113-.093.229-.132.346a.562.562,0,1,1-1.062-.371" transform="translate(-1400.413 -4.595)" fill="#24221e"/>
          <path id="패스_1873" data-name="패스 1873" d="M1473.623,42.682c-1.119-3.4-6.049-3.308-6.493.451a1.4,1.4,0,0,0,.783,1.49c.569.207,1.318-.309,1.186-.9a.845.845,0,1,0,1.647.38.934.934,0,0,0,.457,1.035.617.617,0,0,0,.856-.539,1.025,1.025,0,0,0,1.457-.291,1.9,1.9,0,0,0,.107-1.625" transform="translate(-1439.78 -2.69)" fill="#ffe3d4"/>
          <path id="패스_1874" data-name="패스 1874" d="M1472.853,42.181a4.2,4.2,0,0,0-1.819-2.282,4,4,0,0,0-2.556-.524,3.667,3.667,0,0,0-2.331,1.254,3.906,3.906,0,0,0-.713,1.349,2.767,2.767,0,0,0-.047,1.772,1.633,1.633,0,0,0,1.714,1.15,1.425,1.425,0,0,0,1.259-1.536.563.563,0,0,0-1.115-.056,1.407,1.407,0,1,0,2.754.581l-1.107-.2a1.46,1.46,0,0,0,1,1.719,1.181,1.181,0,0,0,1.429-1.167l-.931.469a1.583,1.583,0,0,0,2.153-.221,2.357,2.357,0,0,0,.311-2.305.562.562,0,1,0-1.062.371,1.9,1.9,0,0,1,.1.624,1.687,1.687,0,0,1-.058.339c.028-.09-.033.068-.037.077s-.1.156-.036.073a1.282,1.282,0,0,1-.1.119c.073-.073-.044.029-.056.037s-.15.075-.059.037a1.335,1.335,0,0,1-.15.053c.1-.028-.042,0-.065.006-.111.02.042.022-.059,0a.847.847,0,0,1-.1-.02c.055.019.064.021.025,0a.593.593,0,0,1-.068-.034c.055.037.055.034,0-.008a.569.569,0,0,0-.931.469c0-.045.014-.071,0-.01.037-.159-.027.028.019-.046s-.053.031.01-.008-.041.027-.054.036c.056-.039.044,0,0,0l-.044.015c.056-.01.065-.012.025-.007-.017,0-.105.021-.044,0,.034,0,.035,0,0,0s-.031,0,.032.012c-.038-.03-.056-.032-.009,0a.769.769,0,0,1-.078-.068c.07.069,0-.012-.016-.033-.047-.069.024.067-.008-.012a.988.988,0,0,1-.043-.126c.014.058,0,.017,0-.018,0-.013-.006-.151-.008-.088s.014-.087.014-.087a.563.563,0,1,0-1.107-.2c-.034.138.051-.08-.019.043-.03.053-.029.037,0,0a1.386,1.386,0,0,1-.1.11c.06-.054.01-.016-.027.01s.07-.017-.026.015c0,0-.137.041-.071.027s-.062,0-.076.005c.106-.008-.02-.006-.05-.011.076.013.033.014-.019-.011s-.077-.06-.02-.009c-.01-.009-.108-.1-.059-.047s-.034-.051-.043-.062c-.07-.089.006.06-.025-.049,0-.013-.036-.14-.024-.072s0-.077,0-.076c0,.1.007-.011.015-.05l-1.114-.056c.005.028.011.172.016.1.007-.093-.041.117-.005.021.029-.077-.038.065-.047.082.057-.1-.009-.017-.039.028s.016-.014.027-.022c-.025.017-.048.036-.072.053-.042.028-.117.052-.03.022-.049.017-.1.033-.15.052s.019-.007.03-.007a.821.821,0,0,0-.09.008c-.042.005-.079-.021.011,0a.3.3,0,0,1-.067-.01c-.052-.03.025.013.035.016-.025-.009-.049-.019-.073-.03s-.154-.1-.075-.037l-.06-.05c-.008-.006-.083-.079-.043-.037s-.026-.034-.035-.046-.031-.043-.045-.065-.07-.136-.037-.058a1.771,1.771,0,0,1-.066-.176c-.008-.026-.015-.052-.022-.078.015.057,0,.015,0-.019-.008-.063-.015-.125-.017-.189,0-.027,0-.053,0-.081,0,.026-.012.092,0-.015s.031-.226.054-.338.043-.2.071-.294c.006-.021.049-.149.023-.079s0,0,.006-.013c.013-.034.025-.068.039-.1a3.67,3.67,0,0,1,.255-.509c.056-.1-.058.08.006-.01.027-.038.054-.076.083-.113.056-.073.115-.144.178-.211s.119-.118.178-.177c-.064.064-.045.038.007,0s.08-.063.12-.094c.066-.049.134-.095.2-.138l.1-.057c.019-.011.161-.083.085-.047s.056-.024.072-.031l.1-.043q.122-.048.248-.086c.042-.013.084-.024.126-.035.02-.005.139-.033.058-.015s.051-.009.077-.014l.13-.019a4.064,4.064,0,0,1,.509-.026c.1,0-.1-.01.025,0l.114.01q.133.014.264.038t.243.054l.13.037c.128.037-.07-.028.022.007a3.987,3.987,0,0,1,.5.222c.04.022.08.044.119.068l.051.031c.114.067-.072-.053-.01-.008.081.059.163.115.241.178s.154.131.227.2c.04.038.077.078.115.117.09.094-.033-.045.027.03a4.126,4.126,0,0,1,.376.543c.025.045.049.091.073.137-.055-.107.016.038.031.074.049.113.093.229.132.347a.562.562,0,1,0,1.062-.371" transform="translate(-1438.478 -2.074)" fill="#24221e"/>
          <path id="패스_1875" data-name="패스 1875" d="M1420.156-54.9a2.966,2.966,0,0,0-1.16.235c-.108-.386-.237-.764-.382-1.133a10.039,10.039,0,0,1-5.823-3.581,2.073,2.073,0,0,1-1.464,2.256,8.729,8.729,0,0,1-2.924.265,6.358,6.358,0,0,1-2.429-.2,1.651,1.651,0,0,1-1.112-1.917,18.45,18.45,0,0,1-8.8,3.241c-.136.354-.258.715-.361,1.084a2.965,2.965,0,0,0-1.19-.249,2.974,2.974,0,0,0-2.974,2.974,2.974,2.974,0,0,0,2.974,2.974,2.963,2.963,0,0,0,.962-.162,12.1,12.1,0,0,0,11.877,9.812,12.1,12.1,0,0,0,11.875-9.8,2.963,2.963,0,0,0,.93.15,2.974,2.974,0,0,0,2.974-2.974,2.974,2.974,0,0,0-2.974-2.974" transform="translate(-1386.873 67.028)" fill="#ffe3d4"/>
          <path id="패스_1876" data-name="패스 1876" d="M1406.154-39.984a12.616,12.616,0,0,1-12.268-9.7,3.477,3.477,0,0,1-.572.048,3.491,3.491,0,0,1-3.487-3.487,3.491,3.491,0,0,1,3.487-3.487,3.463,3.463,0,0,1,.854.106c.067-.2.14-.406.219-.611a.513.513,0,0,1,.444-.328,17.8,17.8,0,0,0,8.551-3.157.513.513,0,0,1,.6.025.513.513,0,0,1,.165.578c-.171.474.29,1.058.817,1.265a4.707,4.707,0,0,0,1.834.175c.134,0,.267-.008.4-.01.2,0,.4,0,.6,0a6.089,6.089,0,0,0,2.153-.232c.7-.259,1.324-.98,1.147-1.643a.513.513,0,0,1,.266-.591.513.513,0,0,1,.633.142,9.568,9.568,0,0,0,5.523,3.395.514.514,0,0,1,.374.316q.132.338.242.67a3.491,3.491,0,0,1,.823-.1,3.491,3.491,0,0,1,3.487,3.487,3.491,3.491,0,0,1-3.487,3.487,3.418,3.418,0,0,1-.539-.042,12.619,12.619,0,0,1-12.266,9.692m-11.877-10.838a.513.513,0,0,1,.257.069.513.513,0,0,1,.246.347,11.587,11.587,0,0,0,11.373,9.4,11.589,11.589,0,0,0,11.371-9.384.513.513,0,0,1,.244-.345.515.515,0,0,1,.421-.045,2.454,2.454,0,0,0,.77.125,2.464,2.464,0,0,0,2.461-2.461,2.464,2.464,0,0,0-2.461-2.461,2.434,2.434,0,0,0-.96.195.516.516,0,0,1-.423-.01.513.513,0,0,1-.272-.324c-.075-.27-.166-.548-.269-.831a10.7,10.7,0,0,1-5.056-2.816,2.974,2.974,0,0,1-1.671,1.531,6.938,6.938,0,0,1-2.517.3c-.193,0-.386,0-.578,0-.128,0-.257.006-.386.01a5.53,5.53,0,0,1-2.238-.245,2.461,2.461,0,0,1-1.418-1.472,18.488,18.488,0,0,1-7.938,2.8c-.089.25-.167.5-.234.736a.512.512,0,0,1-.274.326.511.511,0,0,1-.425.006,2.446,2.446,0,0,0-.985-.206,2.464,2.464,0,0,0-2.461,2.461,2.464,2.464,0,0,0,2.461,2.461,2.457,2.457,0,0,0,.8-.134.511.511,0,0,1,.166-.028" transform="translate(-1385.675 68.225)" fill="#24221e"/>
          <path id="패스_1877" data-name="패스 1877" d="M1435.669-40.679a.793.793,0,0,1-.793.793.793.793,0,0,1-.793-.793.793.793,0,0,1,.793-.793.793.793,0,0,1,.793.793" transform="translate(-1416.654 54.494)" fill="#24221e"/>
          <path id="패스_1878" data-name="패스 1878" d="M1460.785-40.679a.793.793,0,0,1-.793.793.793.793,0,0,1-.793-.793.793.793,0,0,1,.793-.793.793.793,0,0,1,.793.793" transform="translate(-1434.235 54.494)" fill="#24221e"/>
          <path id="패스_1879" data-name="패스 1879" d="M1445.837-38.416l.054-.023-.123.051a2.208,2.208,0,0,1,.516-.147l-.136.018a1.585,1.585,0,0,1,.409,0l-.136-.018a1.533,1.533,0,0,1,.369.1l-.122-.052c.054.023.107.049.158.077a.522.522,0,0,0,.7-.184.521.521,0,0,0-.184-.7,2.076,2.076,0,0,0-.977-.263,2.591,2.591,0,0,0-1.048.255.513.513,0,0,0-.235.307.524.524,0,0,0,.052.4.517.517,0,0,0,.306.236l.136.018a.509.509,0,0,0,.259-.07" transform="translate(-1424.343 53.153)" fill="#24221e"/>
          <path id="패스_1880" data-name="패스 1880" d="M1437.507-32.969a7.084,7.084,0,0,0,6.715.086.519.519,0,0,0,.184-.7.522.522,0,0,0-.7-.184,5.061,5.061,0,0,1-.65.293,6.385,6.385,0,0,1-.753.226c-.127.03-.256.056-.384.078l-.166.026c.067-.01-.121.014-.141.016a6.683,6.683,0,0,1-.755.033,5.952,5.952,0,0,1-2.83-.758.523.523,0,0,0-.7.184.519.519,0,0,0,.184.7" transform="translate(-1418.875 49.208)" fill="#24221e"/>
          <path id="패스_1881" data-name="패스 1881" d="M1421.508-33.343a2.387,2.387,0,0,1-2.238,2.512,2.386,2.386,0,0,1-2.237-2.512,2.386,2.386,0,0,1,2.237-2.511,2.386,2.386,0,0,1,2.238,2.511" transform="translate(-1404.719 50.561)" fill="#ffb18f"/>
          <path id="패스_1882" data-name="패스 1882" d="M1468.615-33.343a2.386,2.386,0,0,1-2.238,2.512,2.386,2.386,0,0,1-2.237-2.512,2.386,2.386,0,0,1,2.237-2.511,2.386,2.386,0,0,1,2.238,2.511" transform="translate(-1437.694 50.561)" fill="#ffb18f"/>
        </g>
      </g>
    </g>
    <g id="profile-2" data-name="profile" transform="translate(30.218 82.218)" fill="none" stroke="#157fce" stroke-width="1.5">
      <circle cx="25" cy="25" r="25" stroke="none"/>
      <circle cx="25" cy="25" r="24.25" fill="none"/>
    </g>
  </g>
</svg>
