<svg id="남_선생님" xmlns="http://www.w3.org/2000/svg" xmlns:xlink="http://www.w3.org/1999/xlink" width="50" height="50" viewBox="0 0 50 50">
  <defs>
    <clipPath id="clip-path">
      <circle id="SVGID" cx="25" cy="25" r="25" transform="translate(0 1)" fill="none"/>
    </clipPath>
  </defs>
  <circle id="profile" cx="25" cy="25" r="25" fill="#e8ebed"/>
  <g id="그룹_883" data-name="그룹 883" transform="translate(-3010.311 -986.955)">
    <g id="그룹_882" data-name="그룹 882" transform="translate(3010.311 985.955)" clip-path="url(#clip-path)">
      <g id="그룹_881" data-name="그룹 881" transform="translate(6.718 9.158)">
        <path id="패스_1823" data-name="패스 1823" d="M3102.169,1161.748a96.114,96.114,0,0,1,1.074,13.895,1.982,1.982,0,0,1-.152.944c-.324.616-1.25.854-1.356,1.541l6.18-.638a1.26,1.26,0,0,0,.724-.231,1.229,1.229,0,0,0,.308-.788q1.12-8.267,2.24-16.535c.023-.172-.215-.4-.238-.228" transform="translate(-3083.057 -1120.556)" fill="#24221e"/>
        <path id="패스_1824" data-name="패스 1824" d="M3100.338,1160.536q.525,3.491.789,7.029.134,1.789.2,3.583.033.888.05,1.777c.011.575.039,1.157.008,1.732a.477.477,0,0,1-.018.131,1.137,1.137,0,0,1-.057.193c0,.007-.046.071-.063.1-.005.009-.048.063-.01.014s-.018.02-.026.028a2.789,2.789,0,0,1-.234.22c-.039.033-.079.064-.119.1s.013-.01.019-.014l-.069.053a2.017,2.017,0,0,0-.9,1.161c-.054.3.136.7.5.659l5.287-.546c.434-.045.88-.065,1.309-.148a1.289,1.289,0,0,0,.979-.783,4.737,4.737,0,0,0,.222-1.18q.089-.651.177-1.3.714-5.266,1.427-10.532.2-1.475.4-2.95.049-.36.1-.72a1.955,1.955,0,0,0,.042-.8.809.809,0,0,0-.511-.541.578.578,0,0,0-.718.419.521.521,0,0,0,1,.277l-.033.076-.187.187.016-.011-.263.071a.439.439,0,0,1-.256-.1c-.013-.013-.063-.136-.052-.087.02.091.027-.213-.005-.085a1.492,1.492,0,0,0-.023.171q-.041.309-.084.618-.081.6-.162,1.2l-.33,2.436-.651,4.8q-.33,2.435-.66,4.871c-.108.794-.208,1.59-.323,2.384-.011.077-.023.153-.04.229-.007.034-.015.067-.025.1s-.043.124-.008.042a.789.789,0,0,1-.047.088c-.01.018-.06.068-.01.013-.005.006-.067.063-.018.019-.052.026-.064.033-.034.023l-.039.014a6.215,6.215,0,0,1-1.022.133l-5.458.564.5.659c.007-.04.019-.079.028-.119.018-.086,0-.007-.009.014.009-.017.017-.036.027-.052s.073-.116.036-.062,0,0,.009-.01c.023-.025.045-.051.069-.075a2.36,2.36,0,0,1,.186-.169c.039-.032.078-.063.118-.094-.078.062.023-.018.05-.038a2.36,2.36,0,0,0,.914-1.1,2.814,2.814,0,0,0,.1-.887c0-.3,0-.59-.008-.885q-.012-.906-.042-1.811-.117-3.622-.507-7.228-.224-2.075-.536-4.14a.524.524,0,0,0-.641-.364.533.533,0,0,0-.364.64" transform="translate(-3081.728 -1119.206)" fill="#24221e"/>
        <path id="패스_1825" data-name="패스 1825" d="M3080.953,1157.418a96.148,96.148,0,0,1,1.074,13.895,1.989,1.989,0,0,1-.153.944c-.324.616-1.249.854-1.356,1.541l6.18-.638a1.261,1.261,0,0,0,.724-.231,1.229,1.229,0,0,0,.308-.788q1.12-8.268,2.24-16.535c.023-.172-.215-.4-.238-.228" transform="translate(-3067.733 -1117.429)" fill="#24221e"/>
        <path id="패스_1826" data-name="패스 1826" d="M3079.122,1156.206q.525,3.491.789,7.029.134,1.789.2,3.583.033.888.05,1.777c.011.575.039,1.157.008,1.732a.482.482,0,0,1-.017.131,1.1,1.1,0,0,1-.058.193c0,.007-.046.071-.063.1,0,.009-.048.063-.009.014s-.019.019-.027.028a2.831,2.831,0,0,1-.234.22l-.119.1.019-.015-.069.053a2.014,2.014,0,0,0-.9,1.161c-.054.3.136.7.5.659l5.287-.546c.434-.045.88-.065,1.309-.148a1.29,1.29,0,0,0,.979-.783,4.726,4.726,0,0,0,.222-1.18q.089-.652.177-1.3l1.427-10.532q.2-1.475.4-2.95c.033-.24.065-.48.1-.72a1.953,1.953,0,0,0,.042-.8.808.808,0,0,0-.511-.541.578.578,0,0,0-.718.42.521.521,0,0,0,1,.277l-.033.076-.187.187.016-.01-.263.071a.441.441,0,0,1-.256-.1c-.013-.013-.063-.136-.052-.087.02.091.027-.213-.005-.085a1.442,1.442,0,0,0-.023.171l-.084.617q-.081.6-.162,1.2l-.33,2.436-.651,4.8-.66,4.871c-.108.794-.208,1.59-.323,2.383-.011.077-.023.154-.04.229-.008.034-.016.067-.025.1s-.043.124-.008.042a.769.769,0,0,1-.047.088c-.01.017-.06.068-.01.013-.006.006-.067.063-.018.019-.052.026-.064.033-.035.023l-.039.013a6.248,6.248,0,0,1-1.022.133l-5.458.564.5.659c.008-.04.019-.079.028-.119.018-.086,0-.007-.009.014.009-.017.017-.035.028-.052s.073-.116.036-.062,0,0,.009-.01c.023-.025.045-.051.069-.075a2.348,2.348,0,0,1,.186-.169c.039-.032.078-.063.117-.094-.078.061.023-.018.05-.038a2.361,2.361,0,0,0,.914-1.1,2.812,2.812,0,0,0,.1-.887q0-.443-.008-.885-.012-.906-.042-1.811-.117-3.622-.507-7.228-.224-2.075-.536-4.139a.524.524,0,0,0-.64-.364.534.534,0,0,0-.364.641" transform="translate(-3066.405 -1116.078)" fill="#24221e"/>
        <path id="패스_1827" data-name="패스 1827" d="M3100.581,1172.974c.339,1.459.631,2.928.839,4.411.008.057.012.09.025.189s.023.179.034.268q.033.27.063.54.059.548.1,1.1c.063.778.1,1.556.126,2.335q.049,1.411.1,2.823a.521.521,0,1,0,1.042,0c-.057-1.636-.085-3.276-.206-4.909a41.457,41.457,0,0,0-.58-4.469c-.159-.859-.342-1.712-.54-2.563a.521.521,0,0,0-1,.277" transform="translate(-3082.213 -1129.707)" fill="#fff"/>
        <path id="패스_1828" data-name="패스 1828" d="M3070.835,1108.674a39.794,39.794,0,0,0-1.779-12.229c-.456-1.471-.477-2.983-1.015-4.419a31.13,31.13,0,0,0-4.82,1.109,21.916,21.916,0,0,1-3.113.472,9.2,9.2,0,0,0-3.259,1.2c-.963.6-1.79,1.405-2.775,1.969s-2.662,1.218-3.785.782a6.668,6.668,0,0,1-1.918-1.239,12.7,12.7,0,0,1-2.965,5.546,13.8,13.8,0,0,0,3.644,2.973,9.79,9.79,0,0,0,6.35.938q-.194,3.231-.451,6.467a124.371,124.371,0,0,0,14.222.687c2.159.01,1.645-2.618,1.664-4.261" transform="translate(-3042.375 -1071.72)" fill="#ffcdcd"/>
        <path id="패스_1829" data-name="패스 1829" d="M3070.014,1107.341a40.824,40.824,0,0,0-.506-6.816q-.263-1.658-.664-3.29-.193-.781-.416-1.554c-.154-.53-.324-1.053-.441-1.593a25.659,25.659,0,0,0-.786-3.533.54.54,0,0,0-.641-.364,33.49,33.49,0,0,0-4.348.959c-.354.108-.7.232-1.065.306a9.023,9.023,0,0,1-1.006.136,15.162,15.162,0,0,0-2.2.326,9.837,9.837,0,0,0-2.051.751,10.918,10.918,0,0,0-1.752,1.149,14.805,14.805,0,0,1-1.7,1.2c-.235.133-.478.25-.724.362-.095.043-.039.018-.018.008l-.1.04c-.065.026-.131.052-.2.076-.151.056-.3.108-.458.153s-.328.09-.494.124l-.13.024c-.011,0-.144.024-.086.015s-.047.005-.06.007l-.128.012a3.191,3.191,0,0,1-.5,0l-.1-.01c.076.01.016,0-.026-.007a2.076,2.076,0,0,1-.2-.051,2.131,2.131,0,0,1-.417-.178c-.169-.086-.334-.181-.495-.283a6.625,6.625,0,0,1-.907-.689.526.526,0,0,0-.87.23,12.242,12.242,0,0,1-2.831,5.316.533.533,0,0,0,0,.736,14.8,14.8,0,0,0,3.461,2.895,10.238,10.238,0,0,0,4.429,1.317,10.561,10.561,0,0,0,2.611-.167l-.659-.5q-.194,3.236-.451,6.467c-.024.3.26.49.521.521,3.2.382,6.417.553,9.636.629q1.2.029,2.4.042c.769.009,1.55.051,2.319.015a2.053,2.053,0,0,0,1.381-.553,2.357,2.357,0,0,0,.6-1.182,15.082,15.082,0,0,0,.078-3.045.521.521,0,1,0-1.042,0c-.008.852.09,1.7,0,2.554-.01.094,0-.017,0-.03,0,.023-.007.047-.011.071-.009.052-.018.1-.029.156-.02.095-.044.188-.073.281-.013.042-.03.083-.043.125-.033.1.043-.083.009-.02-.01.019-.017.039-.027.058a2.557,2.557,0,0,1-.134.227c-.048.077.026-.031.026-.032a.24.24,0,0,1-.04.046c-.031.033-.062.066-.1.1-.015.014-.032.026-.046.04-.045.046.09-.054.032-.025-.042.02-.079.053-.12.075s-.127.055-.023.017c-.049.018-.1.036-.146.05s-.094.023-.141.034c-.019,0-.1.02-.025.006s-.031,0-.049,0c-.341.028-.69.006-1.032,0l-1.164-.01q-1.164-.012-2.328-.037c-1.552-.034-3.1-.089-4.655-.179-1.756-.1-3.509-.247-5.255-.456l.521.521q.26-3.231.451-6.467a.527.527,0,0,0-.659-.5,9.494,9.494,0,0,1-2.092.143,9.272,9.272,0,0,1-.977-.09,9.32,9.32,0,0,1-4.672-2.143,17.907,17.907,0,0,1-1.747-1.686v.736a13.326,13.326,0,0,0,3.1-5.776l-.87.23a7.256,7.256,0,0,0,1.819,1.234,3.219,3.219,0,0,0,.99.281,3.777,3.777,0,0,0,.966-.039,7.928,7.928,0,0,0,3.486-1.555c.581-.429,1.135-.9,1.744-1.288a7.788,7.788,0,0,1,1.841-.87,10.025,10.025,0,0,1,2.058-.436,13.017,13.017,0,0,0,2.266-.327c.826-.235,1.637-.5,2.476-.686s1.683-.341,2.53-.481l-.641-.364a19.328,19.328,0,0,1,.7,3.119c.2,1.076.57,2.111.842,3.171a38.953,38.953,0,0,1,1.1,6.462q.156,1.875.135,3.758a.521.521,0,0,0,1.042,0" transform="translate(-3041.034 -1070.387)" fill="#24221e"/>
        <path id="패스_1830" data-name="패스 1830" d="M3041.154,1098.271c-.7-.881-.794-2.5-2.191-2.555-.732-.028-1.429.864-1,1.457a.984.984,0,0,0-.967.677,1.034,1.034,0,0,0,.378,1.078.854.854,0,0,0-.474,1.627.822.822,0,0,0-.363.927,2.384,2.384,0,0,0,.537.921c.582.721,1.175,1.445,1.8,2.131a12.7,12.7,0,0,0,2.965-5.546,6.208,6.208,0,0,1-.69-.718" transform="translate(-3035.848 -1074.384)" fill="#ffe3d4"/>
        <path id="패스_1831" data-name="패스 1831" d="M3040.169,1096.58c.064.082.012.014-.017-.028s-.048-.073-.071-.109c-.054-.087-.1-.176-.149-.266-.09-.175-.17-.354-.252-.533a4.716,4.716,0,0,0-.623-1.073,1.781,1.781,0,0,0-2.639-.184,1.392,1.392,0,0,0-.257,1.727l.449-.784a1.517,1.517,0,0,0-1.435.968,1.538,1.538,0,0,0,.479,1.677l.368-.889a1.463,1.463,0,0,0-1.469,1.018,1.307,1.307,0,0,0,.732,1.579v-.9a1.3,1.3,0,0,0-.645,1.151,2.195,2.195,0,0,0,.572,1.336c.618.793,1.267,1.567,1.945,2.309a.526.526,0,0,0,.737,0,13.329,13.329,0,0,0,3.1-5.776.522.522,0,0,0-.134-.507,6.563,6.563,0,0,1-.689-.718.524.524,0,0,0-.737,0,.533.533,0,0,0,0,.736,6.5,6.5,0,0,0,.69.719q-.067-.254-.134-.507a12.242,12.242,0,0,1-2.831,5.316h.737c-.583-.639-1.135-1.3-1.679-1.976a2.512,2.512,0,0,1-.514-.791c0,.006-.028-.148-.02-.074s0-.052,0-.067.016-.136,0-.067.02-.064.019-.064c.01-.049.019-.046,0,0,0,0,.066-.115.028-.059s.034-.035.045-.046c-.061.06,0,.005.039-.016a.523.523,0,0,0,0-.9,1.216,1.216,0,0,1-.15-.076c-.022-.014-.044-.028-.065-.044.055.044.062.047.02.01-.094-.111.008.047-.03-.028-.01-.021-.05-.061-.049-.087.03.075.035.086.017.034-.007-.021-.012-.041-.017-.062q-.016-.084,0,.044c0-.021,0-.042,0-.064s0-.043,0-.064c0-.057,0-.042-.007.043-.01-.022.022-.086.028-.11.029-.119-.051.065,0-.011.024-.034.047-.076.069-.113-.072.123,0,.01.027-.022.016-.016.033-.031.05-.046-.057.042-.069.052-.038.03a.926.926,0,0,0,.1-.063c.051-.024.042-.021-.027.009.022-.009.045-.016.069-.023.042-.012.184-.015.046-.015.054,0,.106,0,.16,0a.526.526,0,0,0,.368-.889c-.034-.03-.066-.059-.1-.091-.016-.017-.078-.091-.037-.036a.873.873,0,0,1-.07-.111c-.014-.025-.046-.108-.023-.041a1.048,1.048,0,0,1-.034-.125c-.018-.087.006.116,0-.042,0-.089-.01.006,0-.046a.807.807,0,0,1,.035-.126c-.037.1.107-.136.04-.061.022-.024.045-.046.068-.07.095-.1-.036.017.028-.024.035-.022.07-.042.105-.062-.077.041.012,0,.034-.011a.785.785,0,0,1,.118-.028c-.093.013.026.007.055.008a.525.525,0,0,0,.45-.784c-.025-.036-.045-.072-.066-.109.042.075.019.016,0-.029,0,.011,0,.094.006.04a.291.291,0,0,0,0-.08c-.01-.049,0,.024-.008.039.006-.026.011-.053.018-.079.012-.044.045-.11,0-.031.02-.038.038-.076.061-.112s.077-.1.02-.035c.034-.039.07-.075.106-.112.016-.016.033-.03.05-.044-.071.063-.019.013,0,0l.114-.068c.078-.049-.051.006.037-.017.024-.007.158-.045.1-.032s.058,0,.083,0c.044,0,.088.007.132.008.061,0-.027,0-.034,0,.026.006.053.01.08.016.045.01.088.024.132.037.018.005.036.014.054.019,0,0-.087-.045-.039-.016.031.019.065.032.1.051s.062.038.092.058c.1.064-.038-.041.021.018s.111.108.164.166c.068.076-.007-.016.009.008s.051.07.075.106a6.222,6.222,0,0,1,.452.879,5.052,5.052,0,0,0,.611,1.057.523.523,0,0,0,.737,0,.534.534,0,0,0,0-.736" transform="translate(-3034.495 -1073.062)" fill="#24221e"/>
        <path id="패스_1832" data-name="패스 1832" d="M3088.631,1104.728a20.521,20.521,0,0,0,2.909,6.364,2.208,2.208,0,0,0,.968.909c.807.3,1.643-.355,2.177-1.029,1.639-2.064,2.343-4.7,3.006-7.248" transform="translate(-3073.593 -1080.169)" fill="#fff"/>
        <path id="패스_1833" data-name="패스 1833" d="M3086.778,1103.524a21.375,21.375,0,0,0,1.4,3.794q.428.889.939,1.735a8.419,8.419,0,0,0,1.139,1.619,1.839,1.839,0,0,0,1.855.5,3.342,3.342,0,0,0,1.552-1.129,12.765,12.765,0,0,0,1.921-3.411,35.164,35.164,0,0,0,1.254-4.109.521.521,0,1,0-1-.277c-.3,1.158-.606,2.317-1.006,3.445a14.85,14.85,0,0,1-.655,1.59,11.781,11.781,0,0,1-.875,1.521,4.318,4.318,0,0,1-1.052,1.158c-.062.041-.125.079-.19.115l-.073.038c-.009,0-.111.049-.061.029s-.038.012-.037.012c-.034.01-.067.022-.1.031s-.067.016-.1.023-.071.006-.015,0a1.32,1.32,0,0,1-.206,0c.09.009-.068-.018-.094-.025-.01,0-.114-.04-.064-.02s-.035-.019-.035-.018c-.031-.018-.062-.034-.092-.053-.011-.007-.111-.08-.077-.052a2.471,2.471,0,0,1-.45-.529q-.262-.379-.5-.771-.5-.8-.919-1.641a19.809,19.809,0,0,1-1.448-3.85.521.521,0,1,0-1,.277" transform="translate(-3072.242 -1078.826)" fill="#24221e"/>
        <path id="패스_1834" data-name="패스 1834" d="M3088.93,1125.047c-1.484,1-3.364,2.139-4.789,2.948a8.66,8.66,0,0,1-2.718,1.1l4.83,8.366a1.155,1.155,0,0,0,1.578.423l6.381-3.684Z" transform="translate(-3068.387 -1095.568)" fill="#ffcb48"/>
        <path id="패스_1835" data-name="패스 1835" d="M3085.9,1137.2a1.678,1.678,0,0,1-1.455-.838l-4.83-8.366a.521.521,0,0,1,.362-.774,8.205,8.205,0,0,0,2.55-1.037c1.246-.708,3.149-1.848,4.755-2.927a.521.521,0,0,1,.742.172l5.282,9.15a.52.52,0,0,1-.191.711l-6.381,3.684a1.666,1.666,0,0,1-.835.224m-5.033-9.12,4.481,7.762a.635.635,0,0,0,.867.232l5.93-3.424-4.745-8.218c-1.521,1-3.214,2.01-4.358,2.66a10.734,10.734,0,0,1-2.175.988" transform="translate(-3067.032 -1094.214)" fill="#24221e"/>
        <path id="패스_1836" data-name="패스 1836" d="M3087.435,1119.991l-1.123-1.945-6.381,3.685a1.155,1.155,0,0,0-.423,1.578l.42.727a8.663,8.663,0,0,0,2.718-1.1c1.425-.809,3.3-1.951,4.789-2.948" transform="translate(-3066.893 -1090.512)" fill="#fff"/>
        <path id="패스_1837" data-name="패스 1837" d="M3078.575,1123.2a.521.521,0,0,1-.451-.26l-.42-.727a1.678,1.678,0,0,1,.614-2.289l6.381-3.684a.52.52,0,0,1,.711.191l1.123,1.944a.521.521,0,0,1-.161.693c-1.63,1.1-3.56,2.252-4.822,2.969a9.144,9.144,0,0,1-2.886,1.157.548.548,0,0,1-.089.007m6.194-5.8-5.93,3.424a.634.634,0,0,0-.232.867l.231.4a9.094,9.094,0,0,0,2.2-.962c1.142-.649,2.838-1.662,4.351-2.658Z" transform="translate(-3065.54 -1089.158)" fill="#24221e"/>
        <path id="패스_1838" data-name="패스 1838" d="M3088.48,1101.219a3.763,3.763,0,0,0,.238,2.8,2.145,2.145,0,0,0,2.735.569,2.629,2.629,0,0,0,1.222-2.615c.34,1.044.793,2.211,1.814,2.613a2.519,2.519,0,0,0,2.877-1.186,6.286,6.286,0,0,0,.723-3.254" transform="translate(-3073.375 -1077.584)" fill="#fff"/>
        <path id="패스_1839" data-name="패스 1839" d="M3086.634,1099.726a6.048,6.048,0,0,0-.09,2.28,2.469,2.469,0,0,0,1.172,1.658,2.793,2.793,0,0,0,1.969.283,2.746,2.746,0,0,0,1.641-1.16,3.2,3.2,0,0,0,.526-2.169l-1.023.139c.416,1.271,1.062,2.827,2.554,3.079a2.856,2.856,0,0,0,2.068-.48,3.806,3.806,0,0,0,1.41-1.856,8.09,8.09,0,0,0,.405-2.709.526.526,0,0,0-.521-.521.531.531,0,0,0-.521.521,7.831,7.831,0,0,1-.232,2.013,4.653,4.653,0,0,1-.156.473c-.022.055-.037.088-.078.17s-.08.157-.125.233-.083.139-.13.2c-.012.017-.075.1-.023.036-.02.026-.042.052-.063.078a2.968,2.968,0,0,1-.319.323c-.025.022-.052.044-.077.065.062-.05,0,0-.014.011-.062.044-.123.087-.188.126s-.129.077-.2.111l-.09.044c-.1.048.053-.014-.058.025a2.9,2.9,0,0,1-.375.109l-.1.017c.1-.016,0,0-.029,0a1.967,1.967,0,0,1-.24,0l-.1-.006c-.09-.008.118.029-.029,0-.063-.015-.127-.027-.189-.046-.031-.009-.191-.073-.1-.033a1.981,1.981,0,0,1-.209-.11c-.027-.016-.053-.033-.079-.05,0,0-.119-.086-.061-.041s-.027-.024-.037-.032-.047-.041-.069-.062q-.077-.072-.147-.15l-.062-.071c-.005-.006-.1-.127-.036-.043a4.7,4.7,0,0,1-.477-.852c-.006-.014-.039-.092-.006-.014-.016-.038-.031-.077-.047-.116q-.046-.116-.088-.233c-.059-.162-.114-.325-.167-.489a.525.525,0,0,0-.572-.373.512.512,0,0,0-.451.511,2.85,2.85,0,0,1,.024.4c0,.066,0,.132-.01.2,0,.033-.006.066-.01.1.01-.077,0,0-.008.033a2.741,2.741,0,0,1-.093.36c-.006.017-.073.2-.035.107-.029.068-.062.135-.1.2s-.064.115-.1.17c-.018.028-.036.055-.055.082-.007.01-.067.093-.031.046s-.028.033-.036.043c-.021.025-.043.049-.065.073q-.074.081-.156.155l-.074.064c.017-.014.073-.051-.011.008-.054.038-.107.074-.165.108s-.1.054-.146.078c-.013.006-.1.045-.043.021s-.056.019-.068.023a2.215,2.215,0,0,1-.36.087c.111-.018-.065,0-.093,0-.07,0-.14,0-.209,0-.054,0-.108-.007-.162-.013.109.01-.056-.012-.09-.02-.06-.013-.12-.029-.179-.047l-.087-.029c-.012,0-.127-.052-.066-.025s-.029-.015-.042-.022-.054-.027-.081-.042c-.054-.03-.1-.062-.156-.1-.012-.008-.089-.065-.039-.027s-.014-.012-.019-.017c-.055-.052-.112-.1-.164-.159-.021-.023-.041-.046-.06-.07.015.019.048.076,0-.006-.034-.055-.07-.107-.1-.164-.018-.032-.033-.064-.05-.1-.04-.08.021.058-.012-.024a2.024,2.024,0,0,1-.076-.23c-.021-.079-.037-.158-.052-.238s.006.067,0-.024q-.008-.068-.013-.137a4.107,4.107,0,0,1,0-.5,6.627,6.627,0,0,1,.126-.983.533.533,0,0,0-.364-.641.528.528,0,0,0-.641.364" transform="translate(-3072.031 -1076.229)" fill="#24221e"/>
        <path id="패스_1840" data-name="패스 1840" d="M3040.273,1065.9a.521.521,0,0,1-.514-.441l-2.526-16.327a.521.521,0,1,1,1.03-.159l2.526,16.327a.521.521,0,0,1-.435.594.508.508,0,0,1-.08.006" transform="translate(-3036.469 -1040.306)" fill="#24221e"/>
        <path id="패스_1841" data-name="패스 1841" d="M3046.941,1103.207c-.234-.3-.5-.863-.9-.937-.928-.174-1.2,1.231-1.021,1.858a1.758,1.758,0,0,0,.945,1.108.413.413,0,0,1,.231.173" transform="translate(-3042.059 -1079.107)" fill="#ffe3d4"/>
        <path id="패스_1842" data-name="패스 1842" d="M3046.042,1101.6c-.294-.386-.522-.875-.984-1.092a1.234,1.234,0,0,0-1.4.26,2.036,2.036,0,0,0-.51,1.1,2.207,2.207,0,0,0,.621,2.066,2.4,2.4,0,0,0,.4.313,1.919,1.919,0,0,0,.186.1c.025.012.052.026.078.036.083.033-.012-.012-.034-.05a.521.521,0,1,0,.9-.526c-.147-.256-.392-.324-.623-.472-.024-.016-.113-.082-.047-.029q-.064-.052-.123-.109c-.033-.033-.066-.067-.1-.1-.009-.01-.07-.087-.033-.038s-.023-.035-.028-.043c-.03-.046-.058-.092-.085-.141-.014-.027-.062-.126-.027-.045a1.322,1.322,0,0,1-.078-.25c0-.02-.023-.135-.008-.037s0-.024,0-.045a2.1,2.1,0,0,1,0-.215c0-.032,0-.064.005-.1s.016-.152.005-.061.008-.044.012-.062c.008-.038.016-.076.025-.114a1.894,1.894,0,0,1,.062-.206.294.294,0,0,0,.023-.061s-.047.1-.021.051.037-.076.058-.112.033-.052.049-.078c.063-.1-.059.056,0,0,.021-.02.041-.042.061-.063,0,0,.044-.036.043-.038,0,.018-.1.062-.036.031.02-.009.126-.061.038-.026s.013,0,.033-.006c.109-.038-.089,0-.006,0a.629.629,0,0,0,.128,0s-.116-.009-.053,0c.013,0,.1.027.025,0s.109.079.048.03.066.066.082.083c.034.036.066.075.1.113-.067-.083.029.042.048.069.033.047.065.094.1.142.058.086.115.172.178.254a.535.535,0,0,0,.713.187.526.526,0,0,0,.187-.713" transform="translate(-3040.71 -1077.762)" fill="#24221e"/>
        <path id="패스_1843" data-name="패스 1843" d="M3106.595,1140.183c-1.145.235-2.476-.018-3.178,1.114a.893.893,0,0,0-.17.675c.061.231.359.4.549.255a.712.712,0,0,0,.678,1.221.506.506,0,0,0,.026.806,1.17,1.17,0,0,0,.921.124c-.117.343.3.62.646.719a6.237,6.237,0,0,0,2.624.145,6.894,6.894,0,0,0-.708-2.448,24.529,24.529,0,0,0-1.387-2.611" transform="translate(-3084.136 -1106.5)" fill="#ffe3d4"/>
        <path id="패스_1844" data-name="패스 1844" d="M3105.113,1138.333c-.061.012-.121.023-.182.033l-.092.014q.092-.012,0,0c-.109.013-.218.025-.327.035-.233.022-.466.04-.7.07a3.5,3.5,0,0,0-1.408.418,2.169,2.169,0,0,0-1.014,1.349,1,1,0,0,0,.388,1.031.842.842,0,0,0,.937.045l-.631-.818a1.232,1.232,0,0,0,1.185,2.092l-.4-.952a1.006,1.006,0,0,0-.259,1.419,1.514,1.514,0,0,0,1.606.463l-.641-.641a.969.969,0,0,0,.353,1.017,2.386,2.386,0,0,0,1.065.441,7.17,7.17,0,0,0,2.492.046.52.52,0,0,0,.383-.5,7.8,7.8,0,0,0-.821-2.8,24.807,24.807,0,0,0-1.345-2.521.521.521,0,0,0-.9.526,24.717,24.717,0,0,1,1.291,2.4,6.85,6.85,0,0,1,.734,2.394l.383-.5a6.113,6.113,0,0,1-1.685,0q-.223-.036-.443-.088c-.073-.017-.147-.036-.219-.057-.019-.005-.158-.058-.115-.038s-.093-.054-.109-.063c-.05-.035-.053-.035-.009,0a.517.517,0,0,1-.05-.046c-.026-.028-.023-.02.01.022a.535.535,0,0,1-.042-.072c.062.021,0,.234.034.121a.527.527,0,0,0-.64-.641c-.063.01-.071.012-.021.006-.035,0-.072.007-.107.01a1.237,1.237,0,0,1-.215,0c.089.011-.1-.028-.117-.037q.068.025-.015-.018.053.047.017.012c-.026-.027-.021-.018.017.029a.53.53,0,0,1-.041-.069c.024.063.027.066.009.011s-.013-.052,0,.02a.556.556,0,0,1,0-.078c-.011.075-.01.084,0,.027a.184.184,0,0,1-.06.1c.041-.039.035-.036-.016.01a.523.523,0,0,0-.4-.952.655.655,0,0,1-.09.022q.093-.014,0-.009c-.062,0-.062,0,0,0a.768.768,0,0,1-.089-.026c.124.045-.107-.09-.01-.006a.794.794,0,0,1-.066-.065c.034.045.034.042,0-.008q.027.082,0,0c-.013-.061-.016-.06-.008,0,0-.037.023-.2,0-.093a.716.716,0,0,1,.025-.09c-.024.053-.022.052,0,0s.033-.052,0-.007a.648.648,0,0,1,.067-.065.523.523,0,0,0-.631-.818c-.058.033-.045.033.04,0a.149.149,0,0,1,.135-.008c-.091-.011.049.045-.027-.014.034.027.075.11.046.029l.022.046c0,.032,0,.03,0-.007s0-.039,0-.007a.683.683,0,0,1,.024-.086.225.225,0,0,1,.032-.069c.029-.05.057-.1.089-.149,0,0,.1-.131.037-.056a1.744,1.744,0,0,1,.2-.2c.009-.009.106-.084.052-.045s.063-.04.075-.048c.069-.043.14-.079.212-.115.124-.061-.094.027.038-.015.042-.013.083-.029.125-.042a3.524,3.524,0,0,1,.482-.109c.037-.006.137-.019.043-.008l.138-.016c.093-.01.186-.019.28-.028a11.162,11.162,0,0,0,1.16-.145.526.526,0,0,0,.364-.64.531.531,0,0,0-.641-.364" transform="translate(-3082.794 -1105.151)" fill="#24221e"/>
        <path id="패스_1845" data-name="패스 1845" d="M3117.785,1106.981a6.489,6.489,0,0,1-.194,3.926,3.434,3.434,0,0,1-2.155,2.218l-.091.018a24.5,24.5,0,0,1,1.386,2.611,6.891,6.891,0,0,1,.708,2.448,7.046,7.046,0,0,0,4.9-3.148,8.433,8.433,0,0,0,.737-6.833,10.714,10.714,0,0,0-4.19-5.479" transform="translate(-3092.886 -1079.46)" fill="#ffcdcd"/>
        <path id="패스_1846" data-name="패스 1846" d="M3115.936,1105.756a6.558,6.558,0,0,1,.189,1.816,5.286,5.286,0,0,1-.372,1.8l-.03.074q.031-.073-.006.012c-.028.061-.055.121-.084.181-.059.121-.123.24-.192.357s-.143.232-.222.342l-.06.082c.03-.038.025-.033-.013.014s-.076.091-.115.135a1.959,1.959,0,0,1-1.172.7.525.525,0,0,0-.311.765,24.833,24.833,0,0,1,1.29,2.4,6.848,6.848,0,0,1,.734,2.394.531.531,0,0,0,.659.5,7.782,7.782,0,0,0,3.664-1.64,7.29,7.29,0,0,0,2.3-3.377,9.441,9.441,0,0,0-1.162-8.123,12.4,12.4,0,0,0-3.233-3.271.524.524,0,0,0-.712.187.532.532,0,0,0,.187.713c.282.2.455.33.7.534s.484.416.713.638.435.438.638.67c.219.249.38.45.546.678a8.81,8.81,0,0,1,1.545,3.372,7.373,7.373,0,0,1-1.9,6.933,5.2,5.2,0,0,1-.727.576,7.248,7.248,0,0,1-.9.518,5.988,5.988,0,0,1-.9.35,7.274,7.274,0,0,1-1.041.239l.66.5a7.8,7.8,0,0,0-.821-2.8,24.65,24.65,0,0,0-1.346-2.521l-.311.765a3.474,3.474,0,0,0,2.218-1.779,6.264,6.264,0,0,0,.816-3.085,8.064,8.064,0,0,0-.23-1.94.521.521,0,0,0-1,.277" transform="translate(-3091.54 -1078.096)" fill="#24221e"/>
        <path id="패스_1847" data-name="패스 1847" d="M3081.991,1026.915a9.4,9.4,0,0,1-2.873.007,3.177,3.177,0,0,1-2.277-1.6,12.339,12.339,0,0,1-4.811,3.168,11.9,11.9,0,0,1-3.91,1.115,5.286,5.286,0,0,1-2.672-.513,12.158,12.158,0,0,1,23.143.275,6.914,6.914,0,0,1-6.6-2.451" transform="translate(-3056.85 -1020.277)" fill="#7f5f42"/>
        <path id="패스_1848" data-name="패스 1848" d="M3066.42,1028.781a5.754,5.754,0,0,1-2.562-.579.521.521,0,0,1-.259-.631,12.679,12.679,0,0,1,24.134.287.521.521,0,0,1-.407.667,7.5,7.5,0,0,1-6.919-2.416,9.085,9.085,0,0,1-2.75-.03,3.959,3.959,0,0,1-2.238-1.263,13.992,13.992,0,0,1-4.54,2.8,12.375,12.375,0,0,1-4.083,1.156c-.126.008-.252.011-.377.011m9.066-5.334a.54.54,0,0,1,.064,0,.52.52,0,0,1,.406.293,2.651,2.651,0,0,0,1.912,1.314,8.993,8.993,0,0,0,2.714-.015.519.519,0,0,1,.469.2,6.356,6.356,0,0,0,5.488,2.33,11.637,11.637,0,0,0-21.791-.123,4.943,4.943,0,0,0,1.986.277,11.5,11.5,0,0,0,3.735-1.073,11.9,11.9,0,0,0,4.616-3.021.522.522,0,0,1,.4-.189" transform="translate(-3055.495 -1018.923)" fill="#24221e"/>
        <path id="패스_1849" data-name="패스 1849" d="M3052.82,1041.2a2.979,2.979,0,0,1,1.167.236c.055-.2.116-.39.181-.583a5.288,5.288,0,0,0,2.672.513,11.892,11.892,0,0,0,3.909-1.115,12.342,12.342,0,0,0,4.811-3.167,3.175,3.175,0,0,0,2.277,1.6,9.383,9.383,0,0,0,2.874-.007,6.914,6.914,0,0,0,6.6,2.451c.033.107.067.213.1.321a2.992,2.992,0,1,1,.229,5.567,12.16,12.16,0,0,1-23.881.011,2.99,2.99,0,1,1-.936-5.829" transform="translate(-3045.57 -1032.039)" fill="#ffe3d4"/>
        <path id="패스_1850" data-name="패스 1850" d="M3064.342,1056.048A12.694,12.694,0,0,1,3052,1046.3a3.511,3.511,0,1,1,.287-6.883l.03-.088a.52.52,0,0,1,.728-.3,4.779,4.779,0,0,0,2.406.458,11.5,11.5,0,0,0,3.735-1.073,11.9,11.9,0,0,0,4.616-3.021.521.521,0,0,1,.872.108,2.649,2.649,0,0,0,1.911,1.314,8.992,8.992,0,0,0,2.713-.015.523.523,0,0,1,.469.2,6.39,6.39,0,0,0,6.094,2.254.524.524,0,0,1,.49.179,3.512,3.512,0,1,1,.323,6.859,12.69,12.69,0,0,1-12.338,9.75m11.941-10.907a.516.516,0,0,1,.169.028,2.469,2.469,0,1,0-.189-4.6.521.521,0,0,1-.662-.221,7.478,7.478,0,0,1-6.472-2.481,9.081,9.081,0,0,1-2.75-.03,3.956,3.956,0,0,1-2.237-1.263,14,14,0,0,1-4.54,2.8,12.381,12.381,0,0,1-4.083,1.156,6.023,6.023,0,0,1-2.378-.328l-.005.018a.521.521,0,0,1-.705.339,2.47,2.47,0,1,0-.191,4.619.521.521,0,0,1,.674.4,11.639,11.639,0,0,0,22.858-.011.521.521,0,0,1,.512-.423" transform="translate(-3044.216 -1030.685)" fill="#24221e"/>
        <path id="패스_1851" data-name="패스 1851" d="M3111.156,1055.924a.8.8,0,1,0,.8-.8.8.8,0,0,0-.8.8" transform="translate(-3089.861 -1045.07)" fill="#24221e"/>
        <path id="패스_1852" data-name="패스 1852" d="M3083.883,1055.924a.8.8,0,1,0,.8-.8.8.8,0,0,0-.8.8" transform="translate(-3070.164 -1045.07)" fill="#24221e"/>
        <path id="패스_1853" data-name="패스 1853" d="M3096.905,1058.345a1.086,1.086,0,0,0-.232-.14l.125.052a.665.665,0,0,0-.147-.041l.138.019a.522.522,0,0,0-.13,0l.139-.019a.546.546,0,0,0-.127.035l.124-.052a.726.726,0,0,0-.147.088l.106-.081a.983.983,0,0,0-.078.068.542.542,0,0,1-.368.152.521.521,0,0,1-.368-.889,1.153,1.153,0,0,1,.772-.347,1.24,1.24,0,0,1,.24.027.645.645,0,0,1,.116.035,1.445,1.445,0,0,1,.363.2.585.585,0,0,1,.24.311.533.533,0,0,1-.052.4.526.526,0,0,1-.311.239l-.139.019a.516.516,0,0,1-.263-.071" transform="translate(-3078.76 -1046.559)" fill="#24221e"/>
        <path id="패스_1854" data-name="패스 1854" d="M3120.541,1063.753a2.274,2.274,0,1,0,2.26-2.525,2.4,2.4,0,0,0-2.26,2.525" transform="translate(-3096.639 -1049.477)" fill="#ffb18f"/>
        <path id="패스_1855" data-name="패스 1855" d="M3069.146,1063.753a2.274,2.274,0,1,0,2.261-2.525,2.4,2.4,0,0,0-2.261,2.525" transform="translate(-3059.52 -1049.477)" fill="#ffb18f"/>
        <path id="패스_1856" data-name="패스 1856" d="M3096.022,1063.919a5.3,5.3,0,0,1-4.406.2.538.538,0,0,1-.364-.641.524.524,0,0,1,.641-.364,4.707,4.707,0,0,0,.946.287,2.708,2.708,0,0,0,.41.053,4.848,4.848,0,0,0,.495.01,4.245,4.245,0,0,0,1.752-.445.533.533,0,0,1,.713.187.526.526,0,0,1-.187.713" transform="translate(-3075.472 -1050.724)" fill="#24221e"/>
      </g>
    </g>
  </g>
  <g id="profile-2" data-name="profile" fill="none" stroke="#ff5c5c" stroke-width="1.5">
    <circle cx="25" cy="25" r="25" stroke="none"/>
    <circle cx="25" cy="25" r="24.25" fill="none"/>
  </g>
</svg>
