<svg width="24" height="19" viewBox="0 0 24 19" fill="none" xmlns="http://www.w3.org/2000/svg">
<path d="M18.4167 1.56836H5.58333C3.05203 1.56836 1 3.62039 1 6.15169C1 8.683 3.05203 10.735 5.58333 10.735H18.4167C20.948 10.735 23 8.683 23 6.15169C23 3.62039 20.948 1.56836 18.4167 1.56836Z" fill="white" stroke="#454545" stroke-width="1.2" stroke-linecap="round" stroke-linejoin="round"/>
<path d="M5.30813 6.15002C5.30365 5.78606 5.36286 5.42413 5.48306 5.08057C5.59057 4.77332 5.75775 4.49035 5.97501 4.24793C6.18422 4.01875 6.43962 3.83651 6.72438 3.71321C7.02189 3.58579 7.34262 3.52154 7.66626 3.52453C7.98868 3.52129 8.30821 3.58556 8.60431 3.71321C8.88783 3.83714 9.14211 4.01933 9.35063 4.24793C9.56763 4.4904 9.73455 4.77337 9.84181 5.08057C9.96228 5.42408 10.0217 5.78602 10.0175 6.15002C10.0221 6.51628 9.96259 6.88053 9.84181 7.22634C9.73497 7.53236 9.56796 7.81391 9.35063 8.05439C9.14193 8.28279 8.8877 8.46495 8.60431 8.58911C8.30821 8.71677 7.98868 8.78104 7.66626 8.77779C7.34262 8.78078 7.02189 8.71654 6.72438 8.58911C6.43977 8.46555 6.18441 8.28335 5.97501 8.05439C5.7574 7.81398 5.59013 7.53242 5.48306 7.22634C5.36254 6.88048 5.30334 6.51624 5.30813 6.15002ZM9.06876 6.15002C9.06974 5.92035 9.04072 5.69154 8.98244 5.46939C8.93031 5.26505 8.84181 5.07175 8.72119 4.89877C8.60822 4.73686 8.45983 4.60284 8.2873 4.50689C8.09927 4.40735 7.88888 4.35764 7.67619 4.36252C7.45962 4.3579 7.24534 4.40753 7.05285 4.50689C6.87633 4.60105 6.72432 4.73526 6.60903 4.89877C6.48841 5.07175 6.39991 5.26505 6.34778 5.46939C6.28899 5.69147 6.25945 5.92028 6.25994 6.15002C6.25843 6.38193 6.28719 6.61305 6.34549 6.83752C6.3972 7.04107 6.48574 7.23343 6.60674 7.40509C6.72704 7.57554 6.88765 7.71357 7.07425 7.80687C7.26086 7.90017 7.46765 7.94584 7.67619 7.93981C7.88888 7.94468 8.09927 7.89498 8.2873 7.79543C8.45998 7.70047 8.60907 7.56784 8.72348 7.40738C8.84448 7.23572 8.93302 7.04336 8.98473 6.83981C9.04272 6.61453 9.07097 6.38263 9.06876 6.15002Z" fill="#454545"/>
<path d="M14.1539 8.67939L15.8796 6.07453L14.2502 3.61328H15.3609L16.4181 5.30606L17.4768 3.61328H18.5814L16.9452 6.07453L18.6914 8.67939H17.5639L16.4181 6.83384L15.2723 8.67634L14.1539 8.67939Z" fill="#454545"/>
<path d="M17.3716 13.4555L12.1382 8.22358C12.095 8.19057 12.0437 8.16996 11.9897 8.16394C11.9358 8.15793 11.8812 8.16675 11.8318 8.18946C11.7825 8.21217 11.7403 8.2479 11.7097 8.29281C11.6792 8.33772 11.6614 8.39011 11.6584 8.44434V15.5966C11.6584 15.6734 11.6889 15.7471 11.7432 15.8014C11.7975 15.8556 11.8712 15.8861 11.948 15.8861C12.0177 15.8876 12.0855 15.8625 12.1374 15.8159L13.5888 14.5524L14.7721 17.3154C14.7921 17.3626 14.83 17.3999 14.8775 17.4193C14.9004 17.4279 14.9248 17.4323 14.9493 17.4323C14.9756 17.4322 15.0016 17.4267 15.0257 17.4162L16.2693 16.8815C16.3164 16.8613 16.3535 16.8233 16.3726 16.7757C16.3916 16.7282 16.391 16.675 16.3709 16.6279L15.225 13.9543H17.1646C17.2413 13.9543 17.315 13.9238 17.3693 13.8695C17.4236 13.8152 17.4541 13.7415 17.4541 13.6648C17.4518 13.5886 17.4226 13.5158 17.3716 13.4593V13.4555Z" fill="#00A58A" stroke="#00A58A" stroke-width="1.2" stroke-linecap="round" stroke-linejoin="round"/>
</svg>
