<svg width="30" height="31" viewBox="0 0 30 31" fill="none" xmlns="http://www.w3.org/2000/svg">
<g clip-path="url(#clip0_12_633)">
<path d="M18.51 15.4571C18.4917 14.7882 18.2121 14.153 17.7312 13.6878C17.2502 13.2225 16.6062 12.9642 15.937 12.9681H14.121V8.4401H9.593V6.6241C9.59689 5.95427 9.33798 5.30962 8.87188 4.82856C8.40577 4.34749 7.76962 4.06836 7.1 4.0511C6.76414 4.04579 6.43059 4.10736 6.11876 4.23223C5.80693 4.3571 5.52306 4.54276 5.28369 4.77841C5.04432 5.01406 4.85423 5.29498 4.72449 5.60481C4.59475 5.91465 4.52796 6.2472 4.528 6.5831V8.4401H1.758C1.52697 8.4401 1.2982 8.48564 1.08478 8.57411C0.871361 8.66258 0.677471 8.79225 0.5142 8.95571C0.350928 9.11917 0.221477 9.3132 0.133246 9.52673C0.0450164 9.74025 -0.000261698 9.96907 1.13776e-06 10.2001V20.8001C-0.000261698 21.0311 0.0450164 21.2599 0.133246 21.4735C0.221477 21.687 0.350928 21.881 0.5142 22.0445C0.677471 22.2079 0.871361 22.3376 1.08478 22.4261C1.2982 22.5146 1.52697 22.5601 1.758 22.5601H4.528V18.7491C4.52409 18.0799 4.78244 17.4359 5.2477 16.9549C5.71295 16.474 6.34809 16.1944 7.017 16.1761C7.35311 16.1704 7.68699 16.2317 7.99917 16.3564C8.31134 16.481 8.59557 16.6666 8.83526 16.9023C9.07495 17.138 9.26531 17.4191 9.39524 17.7291C9.52516 18.0391 9.59205 18.3719 9.592 18.7081V22.5601H14.12V18.0321H15.977C16.3132 18.0321 16.646 17.9653 16.956 17.8353C17.266 17.7054 17.5471 17.515 17.7828 17.2754C18.0185 17.0357 18.2041 16.7514 18.3287 16.4393C18.4534 16.1271 18.5147 15.7932 18.509 15.4571H18.51Z" fill="#454545"/>
<path d="M28.242 8.44019H15.879V11.2102H15.936C17.0611 11.2078 18.1431 11.6432 18.953 12.4242C19.5681 13.0167 19.992 13.7797 20.1702 14.615C20.3484 15.4503 20.2726 16.3198 19.9528 17.1118C19.6329 17.9037 19.0836 18.5819 18.3752 19.0592C17.6669 19.5365 16.8321 19.7911 15.978 19.7902H15.878V22.5602H20.406V24.4172C20.4059 24.7533 20.4728 25.0861 20.6028 25.3962C20.7327 25.7062 20.923 25.9873 21.1627 26.223C21.4024 26.4586 21.6866 26.6442 21.9988 26.7689C22.311 26.8936 22.6449 26.9549 22.981 26.9492C23.6499 26.9309 24.285 26.6513 24.7503 26.1704C25.2155 25.6894 25.4739 25.0453 25.47 24.3762V22.5602H28.241C28.4721 22.5603 28.701 22.5149 28.9145 22.4265C29.1281 22.338 29.3221 22.2084 29.4854 22.0449C29.6488 21.8815 29.7784 21.6874 29.8666 21.4738C29.9549 21.2602 30.0003 21.0313 30 20.8002V10.2002C30.0003 9.96915 29.955 9.74034 29.8667 9.52681C29.7785 9.31329 29.6491 9.11926 29.4858 8.9558C29.3225 8.79234 29.1286 8.66267 28.9152 8.5742C28.7018 8.48572 28.473 8.44019 28.242 8.44019Z" fill="#00A58A"/>
</g>
<defs>
<clipPath id="clip0_12_633">
<rect width="30" height="30" fill="white" transform="translate(0 0.5)"/>
</clipPath>
</defs>
</svg>
