<svg width="26" height="27" viewBox="0 0 26 27" fill="none" xmlns="http://www.w3.org/2000/svg">
<path d="M25.1251 5.366L20.2351 0.479002C20.1701 0.413693 20.0928 0.361872 20.0077 0.326512C19.9225 0.291152 19.8313 0.272949 19.7391 0.272949C19.6469 0.272949 19.5557 0.291152 19.4706 0.326512C19.3855 0.361872 19.3082 0.413693 19.2431 0.479002L7.08612 12.634C6.98796 12.732 6.92114 12.857 6.89412 12.993L5.68212 19.093C5.66183 19.1947 5.66437 19.2996 5.68957 19.4001C5.71477 19.5007 5.76199 19.5944 5.82782 19.6745C5.89365 19.7546 5.97645 19.8191 6.07023 19.8632C6.16402 19.9074 6.26645 19.9302 6.37012 19.93C6.41609 19.9301 6.46197 19.9257 6.50712 19.917L12.6071 18.705C12.7432 18.678 12.8681 18.6112 12.9661 18.513L25.1251 6.357C25.1903 6.29198 25.242 6.21475 25.2772 6.12972C25.3125 6.0447 25.3307 5.95355 25.3307 5.8615C25.3307 5.76945 25.3125 5.67831 25.2772 5.59328C25.242 5.50826 25.1903 5.43102 25.1251 5.366ZM7.54212 16.915L8.17512 13.726L11.8751 17.426L8.68612 18.059L7.54212 16.915Z" fill="#454545"/>
<path d="M19.0131 21.4889C12.3131 18.6889 7.94712 23.3239 6.64312 24.0289C4.97612 24.9289 2.63112 25.9879 2.08512 24.1559C1.75712 23.0499 3.53512 21.8679 4.71612 21.5009C5.57612 21.2319 5.20912 19.8789 4.34312 20.1509C2.51312 20.7209 0.330118 22.2609 0.713118 24.4329C0.997118 26.0449 3.01912 27.5159 6.91312 25.4709C9.74712 23.9859 11.6671 20.9079 17.6361 22.5019C18.5962 22.7245 19.4854 23.1837 20.2227 23.8376C20.9601 24.4915 21.5223 25.3194 21.8581 26.2459C22.1581 27.0929 23.5081 26.7289 23.2081 25.8729C22.8685 24.8817 22.3174 23.9763 21.5931 23.2193C20.8687 22.4623 19.9884 21.8718 19.0131 21.4889Z" fill="#00A58A"/>
</svg>
