<svg width="71" height="70" viewBox="0 0 71 70" fill="none" xmlns="http://www.w3.org/2000/svg">
<path d="M15.8372 7.29175V11.7653H39.2578L49.9839 17.758V33.0368L55.5809 29.119V7.29175H15.8372Z" fill="#FFC960"/>
<path d="M49.7034 64.3877H8.83965C8.61697 64.3877 8.40341 64.2992 8.24595 64.1417C8.08848 63.9843 8 63.7707 8 63.548V12.0494C8 11.8267 8.08848 11.6131 8.24595 11.4557C8.40341 11.2982 8.61697 11.2097 8.83965 11.2097H39.2371C39.3758 11.2096 39.5123 11.244 39.6346 11.3095L50.1009 16.9203C50.2344 16.9923 50.346 17.0991 50.4239 17.2293C50.5017 17.3596 50.5429 17.5084 50.5431 17.6602V32.7617C50.5431 32.9844 50.4546 33.1979 50.2971 33.3554C50.1397 33.5129 49.9261 33.6014 49.7034 33.6014C49.4807 33.6014 49.2672 33.5129 49.1097 33.3554C48.9523 33.1979 48.8638 32.9844 48.8638 32.7617V18.1626L39.0255 12.889H9.67931V62.7084H48.8638V50.1137C48.8638 49.891 48.9523 49.6775 49.1097 49.52C49.2672 49.3626 49.4807 49.2741 49.7034 49.2741C49.9261 49.2741 50.1397 49.3626 50.2971 49.52C50.4546 49.6775 50.5431 49.891 50.5431 50.1137V63.548C50.5431 63.7707 50.4546 63.9843 50.2971 64.1417C50.1397 64.2992 49.9261 64.3877 49.7034 64.3877Z" fill="#303D53" stroke="#303D53" stroke-width="0.5"/>
<path d="M40.6635 22.2469C40.501 22.2469 40.342 22.1998 40.2058 22.1113C40.0696 22.0227 39.962 21.8965 39.8961 21.748L37.5027 16.3643C37.4115 16.1608 37.4048 15.9293 37.4842 15.7209C37.5636 15.5124 37.7225 15.3441 37.926 15.2528C38.1295 15.1616 38.361 15.1549 38.5694 15.2342C38.7779 15.3136 38.9462 15.4725 39.0375 15.676L41.1142 20.3475L48.7554 17.6186C48.9637 17.5492 49.1909 17.5642 49.3883 17.6603C49.5858 17.7565 49.7377 17.9262 49.8115 18.133C49.8853 18.3398 49.8752 18.5673 49.7832 18.7667C49.6913 18.9661 49.5249 19.1216 49.3197 19.1998L40.9456 22.1902C40.8555 22.2251 40.7601 22.2443 40.6635 22.2469Z" fill="#303D53" stroke="#303D53" stroke-width="0.5"/>
<path d="M55.3005 29.1226C55.0778 29.1226 54.8642 29.0341 54.7068 28.8766C54.5493 28.7191 54.4608 28.5056 54.4608 28.2829V7.29186H15.5568C15.3341 7.29186 15.1206 7.20337 14.9631 7.04591C14.8056 6.88845 14.7171 6.67489 14.7171 6.4522C14.7171 6.22952 14.8056 6.01596 14.9631 5.8585C15.1206 5.70103 15.3341 5.61255 15.5568 5.61255H55.3022C55.5249 5.61255 55.7385 5.70103 55.8959 5.8585C56.0534 6.01596 56.1418 6.22952 56.1418 6.4522V28.2829C56.1418 28.3933 56.1201 28.5026 56.0778 28.6046C56.0354 28.7066 55.9734 28.7992 55.8953 28.8772C55.8171 28.9552 55.7244 29.017 55.6223 29.0591C55.5202 29.1012 55.4109 29.1228 55.3005 29.1226Z" fill="#303D53" stroke="#303D53" stroke-width="0.5"/>
<path d="M33.5902 49.1915L37.0778 53.8078L58.6522 38.2761L55.6962 33.7699L33.5902 49.1915Z" fill="#00A58A"/>
<path d="M30.4071 55.8655C30.2649 55.8657 30.125 55.8297 30.0006 55.761C29.8761 55.6923 29.7711 55.5931 29.6954 55.4727C29.6198 55.3523 29.5759 55.2147 29.568 55.0728C29.5601 54.9308 29.5883 54.7892 29.65 54.6611L32.3789 48.9505C32.4404 48.8212 32.534 48.7099 32.6507 48.6271L55.2299 32.6085C55.4115 32.4802 55.6365 32.4289 55.8557 32.466C56.075 32.5031 56.2706 32.6254 56.3999 32.8063L59.9581 37.7857C60.0224 37.8756 60.0682 37.9774 60.0931 38.0851C60.1179 38.1929 60.1213 38.3044 60.1029 38.4135C60.0845 38.5225 60.0448 38.6269 59.986 38.7205C59.9271 38.8141 59.8504 38.8952 59.7602 38.9591L37.1828 54.9777C37.0677 55.0594 36.934 55.1109 36.7939 55.1274L30.5052 55.8604C30.4726 55.8641 30.4399 55.8658 30.4071 55.8655ZM33.8001 49.8727L31.8214 54.0159L36.3861 53.4842L58.1015 38.0782L55.5207 34.4649L33.8001 49.8727Z" fill="#303D53" stroke="#303D53" stroke-width="0.5"/>
<path d="M59.6656 38.7902C59.4763 38.7909 59.2924 38.7277 59.1436 38.6107C58.9948 38.4938 58.8899 38.33 58.8459 38.1459C58.8018 37.9619 58.8213 37.7683 58.901 37.5967C58.9808 37.4251 59.1163 37.2854 59.2853 37.2004C60.1489 36.7663 60.8407 36.0534 61.2485 35.177C61.3169 34.9482 61.3369 34.7077 61.3073 34.4707C61.2777 34.2337 61.1991 34.0055 61.0764 33.8005C60.9533 33.4953 60.7582 33.2243 60.5077 33.0107C60.2573 32.7971 59.9589 32.6472 59.638 32.5738C58.3719 32.6381 57.177 33.179 56.2932 34.0879C56.2153 34.1699 56.1216 34.2352 56.0177 34.28C55.9139 34.3249 55.8021 34.3482 55.689 34.3488C55.5759 34.3493 55.4639 34.327 55.3596 34.2832C55.2553 34.2394 55.161 34.1749 55.0822 34.0938C55.0035 34.0126 54.9419 33.9163 54.9013 33.8108C54.8607 33.7052 54.8418 33.5925 54.8458 33.4795C54.8498 33.3665 54.8766 33.2554 54.9246 33.153C54.9725 33.0506 55.0407 32.9589 55.125 32.8835C55.745 32.2477 56.4882 31.7453 57.3092 31.4068C58.1302 31.0684 59.0117 30.901 59.8996 30.9151C60.4796 31.0234 61.0246 31.2708 61.4879 31.6362C61.9513 32.0015 62.319 32.4738 62.5596 33.0126C62.7889 33.4155 62.9324 33.8614 62.9813 34.3224C63.0301 34.7834 62.9832 35.2495 62.8435 35.6915C62.2912 36.9933 61.2983 38.0592 60.0389 38.7025C59.923 38.7603 59.7951 38.7903 59.6656 38.7902Z" fill="#303D53" stroke="#303D53" stroke-width="0.5"/>
<path d="M25.0733 20.7263H15.5568C15.3341 20.7263 15.1206 20.6378 14.9631 20.4804C14.8056 20.3229 14.7171 20.1093 14.7171 19.8867C14.7171 19.664 14.8056 19.4504 14.9631 19.2929C15.1206 19.1355 15.3341 19.047 15.5568 19.047H25.0733C25.296 19.047 25.5096 19.1355 25.667 19.2929C25.8245 19.4504 25.9129 19.664 25.9129 19.8867C25.9129 20.1093 25.8245 20.3229 25.667 20.4804C25.5096 20.6378 25.296 20.7263 25.0733 20.7263Z" fill="#303D53" stroke="#303D53" stroke-width="0.5"/>
<path d="M25.0733 55.993H15.5568C15.3341 55.993 15.1206 55.9045 14.9631 55.7471C14.8056 55.5896 14.7171 55.3761 14.7171 55.1534C14.7171 54.9307 14.8056 54.7171 14.9631 54.5597C15.1206 54.4022 15.3341 54.3137 15.5568 54.3137H25.0733C25.296 54.3137 25.5096 54.4022 25.667 54.5597C25.8245 54.7171 25.9129 54.9307 25.9129 55.1534C25.9129 55.3761 25.8245 55.5896 25.667 55.7471C25.5096 55.9045 25.296 55.993 25.0733 55.993Z" fill="#303D53" stroke="#303D53" stroke-width="0.5"/>
<path d="M28.4319 49.8347H15.5568C15.3341 49.8347 15.1206 49.7462 14.9631 49.5888C14.8056 49.4313 14.7171 49.2177 14.7171 48.995C14.7171 48.7724 14.8056 48.5588 14.9631 48.4013C15.1206 48.2439 15.3341 48.1554 15.5568 48.1554H28.4319C28.6546 48.1554 28.8681 48.2439 29.0256 48.4013C29.1831 48.5588 29.2716 48.7724 29.2716 48.995C29.2716 49.2177 29.1831 49.4313 29.0256 49.5888C28.8681 49.7462 28.6546 49.8347 28.4319 49.8347Z" fill="#303D53" stroke="#303D53" stroke-width="0.5"/>
<path d="M42.9862 26.884H36.8937C36.671 26.884 36.4575 26.7955 36.3 26.6381C36.1425 26.4806 36.054 26.2671 36.054 26.0444C36.054 25.8217 36.1425 25.6081 36.3 25.4507C36.4575 25.2932 36.671 25.2047 36.8937 25.2047H42.9897C43.2124 25.2047 43.426 25.2932 43.5834 25.4507C43.7409 25.6081 43.8294 25.8217 43.8294 26.0444C43.8294 26.2671 43.7409 26.4806 43.5834 26.6381C43.426 26.7955 43.2124 26.884 42.9897 26.884H42.9862Z" fill="#303D53" stroke="#303D53" stroke-width="0.5"/>
<path d="M32.0812 26.884H15.5637C15.341 26.884 15.1274 26.7955 14.97 26.6381C14.8125 26.4806 14.724 26.2671 14.724 26.0444C14.724 25.8217 14.8125 25.6081 14.97 25.4507C15.1274 25.2932 15.341 25.2047 15.5637 25.2047H32.0812C32.3039 25.2047 32.5175 25.2932 32.675 25.4507C32.8324 25.6081 32.9209 25.8217 32.9209 26.0444C32.9209 26.2671 32.8324 26.4806 32.675 26.6381C32.5175 26.7955 32.3039 26.884 32.0812 26.884Z" fill="#303D53" stroke="#303D53" stroke-width="0.5"/>
<path d="M42.9863 33.0421H25.1388C24.9161 33.0421 24.7025 32.9536 24.5451 32.7962C24.3876 32.6387 24.2991 32.4251 24.2991 32.2024C24.2991 31.9798 24.3876 31.7662 24.5451 31.6087C24.7025 31.4513 24.9161 31.3628 25.1388 31.3628H42.9898C43.2125 31.3628 43.426 31.4513 43.5835 31.6087C43.741 31.7662 43.8294 31.9798 43.8294 32.2024C43.8294 32.4251 43.741 32.6387 43.5835 32.7962C43.426 32.9536 43.2125 33.0421 42.9898 33.0421H42.9863Z" fill="#303D53" stroke="#303D53" stroke-width="0.5"/>
<path d="M20.3263 33.0421H15.5568C15.3341 33.0421 15.1206 32.9536 14.9631 32.7962C14.8056 32.6387 14.7171 32.4251 14.7171 32.2024C14.7171 31.9798 14.8056 31.7662 14.9631 31.6087C15.1206 31.4513 15.3341 31.3628 15.5568 31.3628H20.3263C20.5489 31.3628 20.7625 31.4513 20.92 31.6087C21.0774 31.7662 21.1659 31.9798 21.1659 32.2024C21.1659 32.4251 21.0774 32.6387 20.92 32.7962C20.7625 32.9536 20.5489 33.0421 20.3263 33.0421Z" fill="#303D53" stroke="#303D53" stroke-width="0.5"/>
<path d="M42.9863 39.1985H15.5568C15.3341 39.1985 15.1206 39.11 14.9631 38.9525C14.8056 38.7951 14.7171 38.5815 14.7171 38.3588C14.7171 38.1361 14.8056 37.9226 14.9631 37.7651C15.1206 37.6076 15.3341 37.5192 15.5568 37.5192H42.9863C43.2089 37.5192 43.4225 37.6076 43.58 37.7651C43.7374 37.9226 43.8259 38.1361 43.8259 38.3588C43.8259 38.5815 43.7374 38.7951 43.58 38.9525C43.4225 39.11 43.2089 39.1985 42.9863 39.1985Z" fill="#303D53" stroke="#303D53" stroke-width="0.5"/>
</svg>
