<svg width="71" height="70" viewBox="0 0 71 70" fill="none" xmlns="http://www.w3.org/2000/svg">
<path d="M50.065 35.0011H20.9353C20.7034 35.0011 20.4812 34.909 20.3172 34.745C20.1532 34.5811 20.0611 34.3587 20.0611 34.1268C20.0611 33.895 20.1532 33.6726 20.3172 33.5086C20.4812 33.3447 20.7034 33.2526 20.9353 33.2526H50.065C50.2969 33.2526 50.5193 33.3447 50.6832 33.5086C50.8472 33.6726 50.9392 33.895 50.9392 34.1268C50.9392 34.3587 50.8472 34.5811 50.6832 34.745C50.5193 34.909 50.2969 35.0011 50.065 35.0011Z" fill="#303D53" stroke="#303D53" stroke-width="0.5"/>
<path d="M38.9963 42.5747H20.9353C20.7034 42.5747 20.4812 42.4826 20.3172 42.3186C20.1532 42.1547 20.0611 41.9323 20.0611 41.7004C20.0611 41.4686 20.1532 41.2462 20.3172 41.0822C20.4812 40.9183 20.7034 40.8262 20.9353 40.8262H38.9963C39.2281 40.8262 39.4505 40.9183 39.6145 41.0822C39.7784 41.2462 39.8705 41.4686 39.8705 41.7004C39.8705 41.9323 39.7784 42.1547 39.6145 42.3186C39.4505 42.4826 39.2281 42.5747 38.9963 42.5747Z" fill="#303D53" stroke="#303D53" stroke-width="0.5"/>
<path d="M39.5776 28.0089H20.9332C20.7014 28.0089 20.479 27.9168 20.315 27.7528C20.1511 27.5889 20.059 27.3665 20.059 27.1347C20.059 26.9028 20.1511 26.6804 20.315 26.5164C20.479 26.3525 20.7014 26.2604 20.9332 26.2604H39.5776C39.8095 26.2604 40.0319 26.3525 40.1958 26.5164C40.3598 26.6804 40.4518 26.9028 40.4518 27.1347C40.4518 27.3665 40.3598 27.5889 40.1958 27.7528C40.0319 27.9168 39.8095 28.0089 39.5776 28.0089Z" fill="#303D53" stroke="#303D53" stroke-width="0.5"/>
<path d="M50.0647 28.0089H44.2395C44.0076 28.0089 43.7853 27.9168 43.6213 27.7528C43.4574 27.5889 43.3652 27.3665 43.3652 27.1347C43.3652 26.9028 43.4574 26.6804 43.6213 26.5164C43.7853 26.3525 44.0076 26.2604 44.2395 26.2604H50.0647C50.2965 26.2604 50.5189 26.3525 50.6829 26.5164C50.8468 26.6804 50.9389 26.9028 50.9389 27.1347C50.9389 27.3665 50.8468 27.5889 50.6829 27.7528C50.5189 27.9168 50.2965 28.0089 50.0647 28.0089Z" fill="#303D53" stroke="#303D53" stroke-width="0.5"/>
<path d="M15.0966 7.84509H55.3316C55.8694 7.84509 56.3852 8.05873 56.7654 8.439C57.1457 8.81928 57.3593 9.33504 57.3593 9.87283V16.3566H13.0688V9.87283C13.0688 9.33504 13.2825 8.81928 13.6628 8.439C14.043 8.05873 14.5588 7.84509 15.0966 7.84509Z" fill="#FFC960" stroke="#303D53" stroke-width="0.5"/>
<path d="M57.055 18.1053H13.9431C13.7112 18.1053 13.4889 18.0132 13.325 17.8493C13.161 17.6853 13.0688 17.463 13.0688 17.2311C13.0688 16.9992 13.161 16.7768 13.325 16.6129C13.4889 16.4489 13.7112 16.3568 13.9431 16.3568H57.057C57.2889 16.3568 57.5112 16.4489 57.6751 16.6129C57.8391 16.7768 57.9312 16.9992 57.9312 17.2311C57.9312 17.463 57.8391 17.6853 57.6751 17.8493C57.5112 18.0132 57.2889 18.1053 57.057 18.1053H57.055Z" fill="#303D53" stroke="#303D53" stroke-width="0.5"/>
<path d="M3.16504 57.1387V57.5353C3.16504 58.8208 3.67564 60.0537 4.58461 60.9626C5.49359 61.8716 6.72653 62.3823 8.01201 62.3823H62.99C64.2754 62.3823 65.5083 61.8716 66.4173 60.9626C67.3262 60.0537 67.8368 58.8208 67.8368 57.5353V57.1387H3.16504Z" fill="#00A58A" stroke="#303D53" stroke-width="0.5"/>
<path d="M63.2807 62.9654H7.71919C6.20298 62.9634 4.74945 62.3602 3.67732 61.288C2.6052 60.2159 2.00204 58.7624 2 57.2462V56.8494C2 56.6176 2.09215 56.3952 2.25611 56.2313C2.42006 56.0673 2.64235 55.9752 2.87422 55.9752H68.1257C68.3575 55.9752 68.5799 56.0673 68.7439 56.2313C68.9078 56.3952 69 56.6176 69 56.8494V57.2462C68.998 58.7624 68.3947 60.2159 67.3226 61.288C66.2504 62.3602 64.7969 62.9634 63.2807 62.9654ZM3.77735 57.7218C3.89526 58.6851 4.36126 59.5722 5.08761 60.2159C5.81397 60.8596 6.75064 61.2156 7.72119 61.2169H63.2807C64.2512 61.2156 65.1878 60.8596 65.9142 60.2159C66.6405 59.5722 67.1065 58.6851 67.2244 57.7218H3.77735Z" fill="#303D53" stroke="#303D53" stroke-width="0.5"/>
<path d="M5.78755 54.2249C5.55568 54.2249 5.33339 54.1328 5.16944 53.9689C5.00548 53.8049 4.91333 53.5825 4.91333 53.3506V18.1359C4.91435 17.2005 5.28637 16.3038 5.94774 15.6424C6.60912 14.9811 7.50578 14.6091 8.44111 14.608H9.8662C10.0981 14.608 10.3204 14.7001 10.4843 14.8641C10.6483 15.028 10.7404 15.2504 10.7404 15.4823C10.7404 15.7142 10.6483 15.9365 10.4843 16.1005C10.3204 16.2644 10.0981 16.3565 9.8662 16.3565H8.44111C7.96936 16.357 7.51719 16.5447 7.18361 16.8783C6.85003 17.2118 6.66239 17.6641 6.66188 18.1359V53.3526C6.66137 53.5841 6.56897 53.806 6.40507 53.9695C6.24117 54.133 6.01908 54.2249 5.78755 54.2249Z" fill="#303D53" stroke="#303D53" stroke-width="0.5"/>
<path d="M65.2121 54.2249C64.9802 54.2249 64.7578 54.1328 64.5939 53.9689C64.4299 53.8049 64.3378 53.5825 64.3378 53.3506V18.1359C64.3373 17.6641 64.1496 17.2118 63.816 16.8783C63.4825 16.5447 63.0302 16.357 62.5584 16.3565H60.5519C60.32 16.3565 60.0977 16.2644 59.9338 16.1005C59.7698 15.9365 59.6777 15.7142 59.6777 15.4823C59.6777 15.2504 59.7698 15.028 59.9338 14.8641C60.0977 14.7001 60.32 14.608 60.5519 14.608H62.5662C63.5015 14.6091 64.3983 14.9811 65.0597 15.6424C65.721 16.3038 66.0929 17.2005 66.094 18.1359V53.3526C66.0937 53.4679 66.0707 53.582 66.0261 53.6884C65.9816 53.7947 65.9165 53.8912 65.8346 53.9723C65.7526 54.0533 65.6553 54.1174 65.5485 54.1608C65.4417 54.2041 65.3274 54.2259 65.2121 54.2249Z" fill="#303D53" stroke="#303D53" stroke-width="0.5"/>
<path d="M57.6382 54.225C57.4064 54.225 57.184 54.1328 57.02 53.9689C56.856 53.8049 56.7639 53.5826 56.7639 53.3507V9.18347C56.7639 9.07673 56.7215 8.97434 56.646 8.89886C56.5705 8.82339 56.4682 8.78103 56.3615 8.78103H14.636C14.5296 8.78154 14.4277 8.82415 14.3527 8.89957C14.2776 8.97499 14.2355 9.07706 14.2355 9.18347V53.3507C14.2355 53.5826 14.1433 53.8049 13.9794 53.9689C13.8154 54.1328 13.593 54.225 13.3612 54.225C13.1293 54.225 12.907 54.1328 12.743 53.9689C12.5791 53.8049 12.4869 53.5826 12.4869 53.3507V9.18347C12.4874 8.61366 12.714 8.06732 13.1169 7.6644C13.5198 7.26149 14.0662 7.03493 14.636 7.03442H56.3633C56.933 7.03544 57.4791 7.26219 57.8819 7.66499C58.2847 8.0678 58.5114 8.61382 58.5124 9.18347V53.3507C58.5124 53.5826 58.4203 53.8049 58.2563 53.9689C58.0924 54.1328 57.8701 54.225 57.6382 54.225Z" fill="#303D53" stroke="#303D53" stroke-width="0.5"/>
<path d="M32.5876 13.4433H30.2478C30.016 13.4433 29.7936 13.3512 29.6296 13.1873C29.4657 13.0233 29.3736 12.801 29.3736 12.5691C29.3736 12.3372 29.4657 12.1148 29.6296 11.9509C29.7936 11.7869 30.016 11.6948 30.2478 11.6948H32.5779C32.8098 11.6948 33.0321 11.7869 33.196 11.9509C33.36 12.1148 33.4522 12.3372 33.4522 12.5691C33.4522 12.801 33.36 13.0233 33.196 13.1873C33.0321 13.3512 32.8098 13.4433 32.5779 13.4433H32.5876ZM26.7605 13.4433H24.4304C24.1985 13.4433 23.9761 13.3512 23.8122 13.1873C23.6482 13.0233 23.5562 12.801 23.5562 12.5691C23.5562 12.3372 23.6482 12.1148 23.8122 11.9509C23.9761 11.7869 24.1985 11.6948 24.4304 11.6948H26.7605C26.9924 11.6948 27.2146 11.7869 27.3786 11.9509C27.5426 12.1148 27.6347 12.3372 27.6347 12.5691C27.6347 12.801 27.5426 13.0233 27.3786 13.1873C27.2146 13.3512 26.9924 13.4433 26.7605 13.4433ZM20.9353 13.4433H18.6052C18.3733 13.4433 18.151 13.3512 17.9871 13.1873C17.8231 13.0233 17.731 12.801 17.731 12.5691C17.731 12.3372 17.8231 12.1148 17.9871 11.9509C18.151 11.7869 18.3733 11.6948 18.6052 11.6948H20.9353C21.1671 11.6948 21.3896 11.7869 21.5535 11.9509C21.7175 12.1148 21.8095 12.3372 21.8095 12.5691C21.8095 12.801 21.7175 13.0233 21.5535 13.1873C21.3896 13.3512 21.1671 13.4433 20.9353 13.4433Z" fill="#303D53" stroke="#303D53" stroke-width="0.5"/>
</svg>
