<svg width="71" height="70" viewBox="0 0 71 70" fill="none" xmlns="http://www.w3.org/2000/svg">
<path d="M53.0533 51.233C52.8515 51.233 52.6579 51.1529 52.5152 51.0102C52.3725 50.8674 52.2923 50.6739 52.2923 50.4721V39.0605H49.2554V50.4721C49.2554 50.6739 49.1752 50.8674 49.0325 51.0102C48.8898 51.1529 48.6962 51.233 48.4944 51.233C48.2926 51.233 48.099 51.1529 47.9563 51.0102C47.8136 50.8674 47.7334 50.6739 47.7334 50.4721V38.2994C47.7334 38.1995 47.7531 38.1005 47.7913 38.0082C47.8296 37.9158 47.8856 37.832 47.9563 37.7613C48.027 37.6907 48.1108 37.6346 48.2032 37.5963C48.2955 37.5581 48.3945 37.5385 48.4944 37.5385H53.0587C53.1586 37.5385 53.2576 37.5581 53.3499 37.5963C53.4422 37.6346 53.5261 37.6907 53.5968 37.7613C53.6675 37.832 53.7235 37.9158 53.7618 38.0082C53.8 38.1005 53.8197 38.1995 53.8197 38.2994V50.4721C53.8197 50.5725 53.7998 50.6718 53.7613 50.7645C53.7227 50.8572 53.6661 50.9414 53.5949 51.0121C53.5237 51.0829 53.4391 51.1387 53.3462 51.1767C53.2532 51.2146 53.1537 51.2337 53.0533 51.233Z" fill="#00A58A" stroke="#00A58A" stroke-width="0.5"/>
<path d="M55.4524 39.062H53.055C52.8531 39.062 52.6596 38.9819 52.5169 38.8391C52.3741 38.6964 52.294 38.5029 52.294 38.3011V35.9162C52.2812 35.0749 52.5872 34.2599 53.1505 33.6349C53.7139 33.01 54.4928 32.6213 55.3309 32.547C55.8228 32.5137 56.3158 32.5923 56.773 32.7768C57.2302 32.9614 57.6396 33.2472 57.9705 33.6127C58.3015 33.9782 58.5453 34.4139 58.6837 34.8871C58.8221 35.3603 58.8515 35.8587 58.7697 36.3449C58.6231 37.1149 58.2106 37.8089 57.6042 38.3055C56.9978 38.8022 56.2361 39.07 55.4524 39.062ZM53.816 37.54H55.4524C55.8758 37.5506 56.2896 37.4123 56.6216 37.1492C56.9535 36.8861 57.1827 36.5148 57.2691 36.1001C57.3137 35.839 57.2984 35.5711 57.2245 35.3168C57.1505 35.0624 57.0198 34.8282 56.8422 34.6317C56.6658 34.4364 56.4471 34.2838 56.2029 34.1857C55.9586 34.0875 55.6952 34.0464 55.4327 34.0654C54.9812 34.1177 54.5654 34.3362 54.2662 34.6783C53.967 35.0204 53.8059 35.4617 53.8142 35.9162L53.816 37.54Z" fill="#00A58A" stroke="#00A58A" stroke-width="0.5"/>
<path d="M48.489 39.0602H46.0916C45.3078 39.0683 44.5461 38.8009 43.9395 38.3046C43.3328 37.8083 42.9198 37.1146 42.7724 36.3448C42.6857 35.8315 42.723 35.3048 42.8813 34.8088C43.0396 34.3129 43.3142 33.862 43.6822 33.4938C44.0502 33.1256 44.501 32.8507 44.9969 32.6922C45.4928 32.5337 46.0195 32.4961 46.5328 32.5826C47.303 32.7296 47.997 33.1425 48.4937 33.7491C48.9903 34.3558 49.258 35.1178 49.25 35.9018V38.2991C49.25 38.3991 49.2303 38.498 49.192 38.5904C49.1538 38.6827 49.0977 38.7666 49.0271 38.8372C48.9564 38.9079 48.8725 38.9639 48.7802 39.0022C48.6879 39.0404 48.5889 39.0602 48.489 39.0602ZM45.988 34.0583C45.734 34.0579 45.483 34.1131 45.2527 34.2201C45.0223 34.327 44.8182 34.483 44.6546 34.6772C44.491 34.8715 44.3719 35.0992 44.3057 35.3444C44.2395 35.5896 44.2277 35.8463 44.2712 36.0965C44.3577 36.5115 44.5871 36.883 44.9195 37.1461C45.2518 37.4092 45.666 37.5473 46.0898 37.5363H47.7262V35.9C47.7367 35.4765 47.5984 35.0628 47.3353 34.7308C47.0722 34.3988 46.701 34.1697 46.2863 34.0832C46.1883 34.0673 46.0891 34.0595 45.9898 34.06L45.988 34.0583Z" fill="#00A58A" stroke="#00A58A" stroke-width="0.5"/>
<path d="M46.7151 51.7404V54.9077C46.7162 55.1588 46.7703 55.4068 46.8737 55.6356C46.9772 55.8644 47.1277 56.0689 47.3155 56.2356C47.5033 56.4023 47.7241 56.5275 47.9635 56.6032C48.203 56.6788 48.4557 56.7031 48.7052 56.6745L54.2752 56.0099C54.7072 55.9568 55.105 55.7478 55.3938 55.4221C55.6826 55.0965 55.8426 54.6766 55.8437 54.2414V51.7404H46.7151Z" fill="#00A58A" stroke="#303C52" stroke-width="0.5"/>
<path d="M39.3765 35.1964C39.4944 32.5531 40.3653 29.9986 41.8866 27.8338C43.408 25.669 45.5165 23.9841 47.9635 22.9776C50.4106 21.9712 53.0943 21.6852 55.6985 22.1532C58.3027 22.6213 60.7189 23.8239 62.6624 25.6194C61.6317 23.9218 60.2488 22.4652 58.6069 21.3478C56.9651 20.2304 55.1026 19.4784 53.1452 19.1425C51.1878 18.8066 49.1811 18.8946 47.2607 19.4007C45.3402 19.9067 43.5507 20.819 42.013 22.0758C40.4754 23.3327 39.2253 24.9049 38.3472 26.6862C37.4692 28.4676 36.9836 30.4166 36.9234 32.4017C36.8631 34.3868 37.2295 36.3617 37.9979 38.193C38.7662 40.0244 39.9186 41.6695 41.3773 43.0173C39.947 40.6675 39.2504 37.9444 39.3765 35.1964Z" fill="#FFC960"/>
<path d="M55.7275 52.2477H45.8147C45.1119 52.2468 44.4382 51.9672 43.9412 51.4702C43.4442 50.9733 43.1646 50.2995 43.1637 49.5967V47.5298C43.1631 46.8666 43.0132 46.2121 42.7253 45.6146C42.4375 45.0172 42.0189 44.4922 41.5005 44.0785C38.9952 42.0572 37.2206 39.2712 36.448 36.1462C35.6754 33.0213 35.9472 29.7293 37.2221 26.7735C37.8884 25.1136 38.8772 23.6023 40.1313 22.327C41.3855 21.0518 42.88 20.0378 44.5285 19.3438C46.8431 18.3195 49.3776 17.892 51.9001 18.1001C54.4226 18.3083 56.8527 19.1455 58.9681 20.5353C60.59 21.6098 61.9807 22.9979 63.0582 24.6178C64.1357 26.2378 64.8783 28.0569 65.2423 29.9681C65.6063 31.8794 65.5844 33.8441 65.1779 35.7467C64.7713 37.6494 63.9883 39.4514 62.875 41.0469C62.8177 41.129 62.7449 41.1991 62.6606 41.2531C62.5763 41.307 62.4822 41.3438 62.3836 41.3613C62.2851 41.3789 62.1841 41.377 62.0863 41.3556C61.9885 41.3341 61.896 41.2935 61.8139 41.2363C61.7318 41.179 61.6617 41.1062 61.6078 41.0219C61.5538 40.9376 61.517 40.8435 61.4994 40.745C61.4818 40.6464 61.4838 40.5454 61.5053 40.4476C61.5267 40.3499 61.5673 40.2573 61.6245 40.1752C62.6215 38.7457 63.3226 37.1313 63.6864 35.4269C64.0503 33.7225 64.0695 31.9626 63.7431 30.2507C63.4167 28.5387 62.7512 26.9092 61.7858 25.4583C60.8203 24.0073 59.5744 22.7642 58.1213 21.8019C56.2134 20.5533 54.0229 19.8027 51.7501 19.6189C49.4773 19.435 47.1947 19.8238 45.1109 20.7496C43.6488 21.3651 42.3233 22.2645 41.2111 23.3957C40.0989 24.5269 39.2222 25.8675 38.6316 27.3398C37.4818 29.9941 37.2329 32.9521 37.9229 35.7612C38.613 38.5704 40.204 41.0763 42.4527 42.8959C43.1496 43.4528 43.7121 44.1595 44.0984 44.9636C44.4846 45.7677 44.6848 46.6484 44.6839 47.5405V49.6075C44.6844 49.9068 44.8035 50.1936 45.0151 50.4053C45.2267 50.6169 45.5137 50.7359 45.8129 50.7364H55.7258C56.025 50.7359 56.3119 50.6169 56.5236 50.4053C56.7352 50.1936 56.8543 49.9068 56.8548 49.6075V47.7335C56.8529 46.7939 57.0604 45.8656 57.4621 45.0162C57.8638 44.1667 58.4496 43.4174 59.1771 42.8226C59.2536 42.7541 59.3432 42.7018 59.4404 42.6689C59.5377 42.6359 59.6406 42.623 59.743 42.6308C59.8454 42.6387 59.9451 42.6672 60.0362 42.7147C60.1273 42.7621 60.2078 42.8275 60.273 42.9069C60.3381 42.9863 60.3865 43.078 60.4153 43.1765C60.444 43.2751 60.4525 43.3786 60.4403 43.4805C60.428 43.5825 60.3952 43.6808 60.3439 43.7698C60.2926 43.8587 60.2239 43.9364 60.1418 43.9981C59.5899 44.4515 59.1457 45.0218 58.841 45.6677C58.5364 46.3137 58.3791 47.0193 58.3804 47.7335V49.5967C58.3794 50.2998 58.0996 50.9739 57.6022 51.4709C57.1049 51.9679 56.4306 52.2473 55.7275 52.2477Z" fill="#303D53" stroke="#303C52" stroke-width="0.5"/>
<path d="M48.2425 57.555C47.9086 57.5552 47.5779 57.4896 47.2694 57.362C46.9609 57.2343 46.6806 57.047 46.4445 56.8109C46.2084 56.5748 46.0211 56.2945 45.8935 55.986C45.7658 55.6774 45.7002 55.3468 45.7004 55.0129V51.4847C45.7004 51.2829 45.7806 51.0893 45.9233 50.9466C46.0661 50.8039 46.2596 50.7238 46.4614 50.7238C46.6633 50.7238 46.8569 50.8039 46.9996 50.9466C47.1423 51.0893 47.2225 51.2829 47.2225 51.4847V55.0129C47.2222 55.1569 47.2525 55.2992 47.3113 55.4306C47.3702 55.562 47.4562 55.6795 47.5637 55.7752C47.6712 55.8709 47.7978 55.9428 47.9352 55.986C48.0725 56.0292 48.2174 56.0427 48.3604 56.0258L53.9304 55.3701C54.1772 55.3392 54.4042 55.2192 54.5687 55.0327C54.7332 54.8461 54.8238 54.606 54.8236 54.3573V51.4847C54.8236 51.2829 54.9038 51.0893 55.0465 50.9466C55.1893 50.8039 55.3828 50.7238 55.5847 50.7238C55.7865 50.7238 55.9801 50.8039 56.1228 50.9466C56.2655 51.0893 56.3457 51.2829 56.3457 51.4847V54.3573C56.3456 54.9796 56.117 55.5802 55.7034 56.0452C55.2899 56.5101 54.72 56.8071 54.102 56.8797L48.5319 57.5353C48.4359 57.5474 48.3393 57.554 48.2425 57.555Z" fill="#303D53" stroke="#303C52" stroke-width="0.5"/>
<path d="M52.4673 61.3761H49.5841C48.9577 61.3752 48.3573 61.1258 47.9145 60.6828C47.4718 60.2397 47.2229 59.6391 47.2224 59.0127V57.571C47.2224 57.3692 47.3026 57.1757 47.4453 57.033C47.588 56.8902 47.7816 56.8101 47.9834 56.8101C48.1852 56.8101 48.3788 56.8902 48.5216 57.033C48.6643 57.1757 48.7444 57.3692 48.7444 57.571V59.0127C48.7444 59.1232 48.7662 59.2326 48.8085 59.3347C48.8508 59.4368 48.9128 59.5296 48.9909 59.6077C49.069 59.6858 49.1618 59.7478 49.2639 59.7901C49.3659 59.8324 49.4753 59.8541 49.5858 59.8541H52.4691C52.6923 59.8541 52.9063 59.7655 53.0641 59.6077C53.2219 59.4499 53.3105 59.2358 53.3105 59.0127V56.049C53.3105 55.8472 53.3907 55.6537 53.5334 55.511C53.6761 55.3682 53.8697 55.2881 54.0715 55.2881C54.2734 55.2881 54.4669 55.3682 54.6096 55.511C54.7524 55.6537 54.8325 55.8472 54.8325 56.049V59.0127C54.8321 59.6397 54.5827 60.2409 54.1392 60.6841C53.6956 61.1272 53.0943 61.3761 52.4673 61.3761Z" fill="#303D53" stroke="#303C52" stroke-width="0.5"/>
<path d="M42.6581 59.8542H10.0346C8.94128 59.282 8.0423 58.3982 7.45145 57.3148C6.86061 56.2314 6.60446 54.997 6.71547 53.7679H42.6581V59.8542Z" fill="#FFC960"/>
<path d="M47.2297 15.3135C47.1792 15.3135 47.1289 15.308 47.0796 15.2974C46.9817 15.2779 46.8887 15.2394 46.8057 15.184C46.7228 15.1286 46.6516 15.0574 46.5962 14.9744C46.5408 14.8915 46.5022 14.7984 46.4828 14.7005C46.4634 14.6027 46.4634 14.502 46.4829 14.4042C47.3029 10.2954 48.766 8.63049 51.5331 8.63049C52.2515 8.63566 52.9603 8.79548 53.6113 9.09912C54.2624 9.40276 54.8404 9.84306 55.306 10.3901C55.7829 10.9673 56.1262 11.6429 56.3115 12.3683C56.4968 13.0937 56.5195 13.8512 56.3779 14.5864C56.3483 14.764 56.2567 14.9255 56.1193 15.0419C55.9819 15.1584 55.8077 15.2223 55.6276 15.2224H51.5313C51.3295 15.2224 51.1359 15.1422 50.9932 14.9995C50.8505 14.8568 50.7703 14.6631 50.7703 14.4613C50.7703 14.2595 50.8505 14.0659 50.9932 13.9232C51.1359 13.7805 51.3295 13.7004 51.5313 13.7004H54.938C54.972 12.8542 54.6885 12.0259 54.1431 11.378C53.8208 10.999 53.4208 10.6937 52.9702 10.4829C52.5195 10.272 52.0288 10.1606 51.5313 10.1561C49.8128 10.1561 48.7374 10.8814 47.9728 14.7061C47.9375 14.8773 47.8444 15.0311 47.709 15.1417C47.5737 15.2523 47.4044 15.313 47.2297 15.3135Z" fill="#303D53" stroke="#303C52" stroke-width="0.5"/>
<path d="M42.4027 60.3613H10.8225C10.0849 60.3264 9.36213 60.1418 8.69816 59.8188C8.03419 59.4957 7.44288 59.0408 6.96024 58.482C6.3754 57.7902 5.94984 56.9782 5.71368 56.1036C5.47752 55.2291 5.43652 54.3132 5.59363 53.4211C5.61668 53.2373 5.70596 53.0682 5.84474 52.9456C5.98352 52.8229 6.16227 52.7551 6.3475 52.7548H42.4027C42.6045 52.7548 42.7981 52.8349 42.9408 52.9776C43.0835 53.1203 43.1637 53.314 43.1637 53.5158C43.1637 53.7177 43.0835 53.9112 42.9408 54.0539C42.7981 54.1966 42.6045 54.2768 42.4027 54.2768H7.04957C6.96716 55.4394 7.34362 56.588 8.0982 57.4763C8.789 58.274 9.76821 58.7648 10.8207 58.841H42.4009C42.5009 58.841 42.5998 58.8608 42.6921 58.899C42.7845 58.9373 42.8684 58.9934 42.939 59.064C43.0097 59.1347 43.0658 59.2185 43.104 59.3109C43.1422 59.4032 43.1619 59.5022 43.1619 59.6021C43.1619 59.702 43.1422 59.801 43.104 59.8933C43.0658 59.9857 43.0097 60.0695 42.939 60.1402C42.8684 60.2108 42.7845 60.2669 42.6921 60.3052C42.5998 60.3434 42.5009 60.363 42.4009 60.363L42.4027 60.3613Z" fill="#303D53" stroke="#303C52" stroke-width="0.5"/>
<path d="M13.527 51.7974C13.4002 51.7973 13.2754 51.7655 13.164 51.7047C13.0526 51.644 12.9583 51.5564 12.8895 51.4498C12.8208 51.3432 12.7798 51.2211 12.7704 51.0946C12.761 50.9681 12.7834 50.8412 12.8357 50.7256C14.2469 47.6226 13.2359 35.8502 12.6338 28.8171C12.4266 26.3983 12.2462 24.3081 12.1979 23.0379C12.191 22.855 12.2499 22.6756 12.3641 22.5324L14.2148 20.2101L12.4194 17.141C12.3378 17.0014 12.3027 16.8392 12.3194 16.6783C13.0215 9.86313 16.0369 8.55019 18.4307 8.627H51.533C51.6329 8.627 51.7319 8.64666 51.8242 8.6849C51.9165 8.72315 52.0004 8.7792 52.0711 8.84987C52.1418 8.92054 52.1978 9.00439 52.2361 9.09672C52.2743 9.18905 52.294 9.28802 52.294 9.38795C52.294 9.48789 52.2743 9.58685 52.2361 9.67918C52.1978 9.77151 52.1418 9.85548 52.0711 9.92614C52.0004 9.99681 51.9165 10.0529 51.8242 10.0911C51.7319 10.1294 51.6329 10.149 51.533 10.149H18.4021C17.441 10.1115 14.606 10.0096 13.8593 16.589L15.7922 19.8921C15.8701 20.0248 15.9058 20.178 15.8946 20.3315C15.8835 20.4849 15.8259 20.6314 15.7297 20.7514L13.7307 23.2524C13.7914 24.5029 13.9576 26.4518 14.1505 28.6777C15.0187 38.796 15.6779 48.1496 14.2219 51.3473C14.1619 51.4814 14.0644 51.5953 13.9411 51.6752C13.8178 51.7551 13.674 51.7975 13.527 51.7974Z" fill="#303D53" stroke="#303C52" stroke-width="0.5"/>
<path d="M34.2888 25.8747H21.1033C20.9015 25.8747 20.7079 25.7945 20.5652 25.6518C20.4225 25.5091 20.3423 25.3156 20.3423 25.1137C20.3423 24.9119 20.4225 24.7182 20.5652 24.5755C20.7079 24.4328 20.9015 24.3527 21.1033 24.3527H34.2888C34.4907 24.3527 34.6842 24.4328 34.8269 24.5755C34.9697 24.7182 35.0498 24.9119 35.0498 25.1137C35.0498 25.3156 34.9697 25.5091 34.8269 25.6518C34.6842 25.7945 34.4907 25.8747 34.2888 25.8747Z" fill="#303D53" stroke="#303C52" stroke-width="0.5"/>
<path d="M32.2612 30.9463H21.1033C20.9015 30.9463 20.7079 30.8662 20.5652 30.7235C20.4225 30.5807 20.3423 30.3872 20.3423 30.1854C20.3423 29.9835 20.4225 29.7899 20.5652 29.6472C20.7079 29.5045 20.9015 29.4243 21.1033 29.4243H32.2612C32.4631 29.4243 32.6566 29.5045 32.7993 29.6472C32.9421 29.7899 33.0223 29.9835 33.0223 30.1854C33.0223 30.3872 32.9421 30.5807 32.7993 30.7235C32.6566 30.8662 32.4631 30.9463 32.2612 30.9463Z" fill="#303D53" stroke="#303C52" stroke-width="0.5"/>
<path d="M39.8678 20.2957H21.1105C20.9087 20.2957 20.7151 20.2155 20.5724 20.0728C20.4297 19.9301 20.3495 19.7366 20.3495 19.5347C20.3495 19.3329 20.4297 19.1393 20.5724 18.9965C20.7151 18.8538 20.9087 18.7737 21.1105 18.7737H39.8678C40.0697 18.7737 40.2633 18.8538 40.406 18.9965C40.5487 19.1393 40.6289 19.3329 40.6289 19.5347C40.6289 19.7366 40.5487 19.9301 40.406 20.0728C40.2633 20.2155 40.0697 20.2957 39.8678 20.2957Z" fill="#303D53" stroke="#303C52" stroke-width="0.5"/>
<path d="M37.8402 46.1612H21.1033C20.9015 46.1612 20.7079 46.081 20.5652 45.9383C20.4225 45.7956 20.3423 45.6021 20.3423 45.4002C20.3423 45.1984 20.4225 45.0047 20.5652 44.862C20.7079 44.7193 20.9015 44.6392 21.1033 44.6392H37.8402C38.042 44.6392 38.2356 44.7193 38.3783 44.862C38.521 45.0047 38.6012 45.1984 38.6012 45.4002C38.6012 45.6021 38.521 45.7956 38.3783 45.9383C38.2356 46.081 38.042 46.1612 37.8402 46.1612Z" fill="#303D53" stroke="#303C52" stroke-width="0.5"/>
<path d="M33.7815 41.0898H21.0979C20.998 41.0898 20.899 41.0701 20.8067 41.0319C20.7144 40.9936 20.6305 40.9376 20.5598 40.8669C20.4891 40.7962 20.4331 40.7124 20.3949 40.62C20.3566 40.5277 20.3369 40.4287 20.3369 40.3288C20.3369 40.2289 20.3566 40.1299 20.3949 40.0376C20.4331 39.9452 20.4891 39.8613 20.5598 39.7906C20.6305 39.7199 20.7144 39.6639 20.8067 39.6256C20.899 39.5874 20.998 39.5677 21.0979 39.5677H33.7815C33.8814 39.5677 33.9804 39.5874 34.0727 39.6256C34.165 39.6639 34.2489 39.7199 34.3196 39.7906C34.3903 39.8613 34.4463 39.9452 34.4846 40.0376C34.5228 40.1299 34.5425 40.2289 34.5425 40.3288C34.5425 40.4287 34.5228 40.5277 34.4846 40.62C34.4463 40.7124 34.3903 40.7962 34.3196 40.8669C34.2489 40.9376 34.165 40.9936 34.0727 41.0319C33.9804 41.0701 33.8814 41.0898 33.7815 41.0898Z" fill="#303D53" stroke="#303C52" stroke-width="0.5"/>
</svg>
