<svg width="41" height="27" viewBox="0 0 41 27" fill="none" xmlns="http://www.w3.org/2000/svg">
<path fill-rule="evenodd" clip-rule="evenodd" d="M7.74076 19.5524H26.1928C26.9033 19.5524 27.5846 19.2702 28.0869 18.7679C28.5892 18.2655 28.8715 17.5842 28.8715 16.8738V3.18252C28.8715 2.47211 28.5892 1.79079 28.0869 1.28845C27.5846 0.786117 26.9033 0.503906 26.1928 0.503906H7.74076C7.03034 0.503906 6.34903 0.786117 5.84669 1.28845C5.34435 1.79079 5.06214 2.47211 5.06214 3.18252V16.8738C5.06214 17.0174 5.07366 17.1597 5.0962 17.2996C5.06805 17.465 5.08703 17.6352 5.15125 17.7905C5.19795 17.9035 5.26711 18.0051 5.35393 18.0896C5.4804 18.3379 5.64598 18.5672 5.84669 18.7679C6.34903 19.2702 7.03034 19.5524 7.74076 19.5524ZM7.14729 17.5409C7.3103 17.6859 7.52137 17.7667 7.74076 17.7667H26.1928C26.4296 17.7667 26.6568 17.6726 26.8242 17.5052C26.9916 17.3377 27.0857 17.1106 27.0857 16.8738V15.3768L21.3693 8.70825C21.3084 8.64655 21.2272 8.60911 21.1408 8.60289C21.097 8.60316 21.0538 8.61306 21.0143 8.63189C20.9748 8.65071 20.94 8.678 20.9122 8.71182L15.8639 14.7708C15.7845 14.8659 15.6862 14.9435 15.5752 14.9985C15.4642 15.0535 15.343 15.0848 15.2192 15.0905C15.0952 15.0972 14.9712 15.0774 14.8554 15.0324C14.7397 14.9875 14.6348 14.9184 14.5478 14.8298L12.4156 12.6994C12.3918 12.6648 12.36 12.6364 12.3228 12.6169C12.2856 12.5973 12.2442 12.5871 12.2022 12.5871C12.1602 12.5871 12.1188 12.5973 12.0816 12.6169C12.0445 12.6364 12.0126 12.6648 11.9888 12.6994L7.14729 17.5409ZM6.84789 15.3148L10.7263 11.4351C11.118 11.0441 11.6488 10.8246 12.2022 10.8246C12.7556 10.8246 13.2864 11.0441 13.6781 11.4351L15.1174 12.8744L19.5389 7.56716C19.7332 7.33328 19.9763 7.14479 20.2512 7.01491C20.526 6.88503 20.826 6.81691 21.13 6.81536C21.4353 6.80113 21.7395 6.86017 22.0172 6.98754C22.2949 7.11492 22.5381 7.30692 22.7265 7.54751L27.0857 12.6331V3.18252C27.0857 2.94572 26.9916 2.71861 26.8242 2.55117C26.6568 2.38372 26.4296 2.28965 26.1928 2.28965H7.74076C7.50395 2.28965 7.27685 2.38372 7.1094 2.55117C6.94196 2.71861 6.84789 2.94572 6.84789 3.18252V15.3148ZM20.6891 26.6073C20.9118 26.6654 21.1411 26.6948 21.3713 26.6948C21.9629 26.6939 22.5376 26.4973 23.0057 26.1355C23.4738 25.7737 23.8089 25.267 23.9588 24.6947L24.5892 22.1465C24.646 21.9165 24.6092 21.6734 24.4868 21.4707C24.3644 21.2679 24.1664 21.122 23.9365 21.0652C23.7066 21.0084 23.4635 21.0452 23.2607 21.1676C23.0579 21.29 22.9121 21.488 22.8552 21.7179L22.2267 24.2536C22.1643 24.4794 22.0157 24.6716 21.813 24.7889C21.6102 24.9061 21.3695 24.939 21.1427 24.8804L2.74954 19.9536C2.52012 19.8896 2.32497 19.7381 2.20608 19.5317C2.08719 19.3254 2.05406 19.0805 2.11382 18.85L4.13707 11.0874C4.18906 10.8611 4.15088 10.6235 4.03061 10.4249C3.91035 10.2263 3.71747 10.0824 3.49287 10.0236C3.26827 9.96485 3.02961 9.99588 2.82751 10.1101C2.6254 10.2244 2.47574 10.4128 2.41025 10.6356L0.387006 18.391C0.208451 19.0778 0.307038 19.8072 0.661496 20.4219C1.01595 21.0366 1.59787 21.4873 2.28168 21.6768L20.6891 26.6073ZM11.014 8.83658C10.5432 8.83658 10.0829 8.69697 9.69149 8.43541C9.30004 8.17384 8.99494 7.80208 8.81477 7.36712C8.6346 6.93216 8.58746 6.45354 8.67931 5.99179C8.77116 5.53003 8.99787 5.10589 9.33078 4.77298C9.66368 4.44008 10.0878 4.21337 10.5496 4.12152C11.0113 4.02967 11.4899 4.07681 11.9249 4.25698C12.3599 4.43715 12.7316 4.74225 12.9932 5.1337C13.2548 5.52516 13.3944 5.98538 13.3944 6.45618C13.3934 7.08721 13.1423 7.69212 12.6961 8.13833C12.2499 8.58454 11.645 8.83563 11.014 8.83658ZM11.014 5.85974C10.8964 5.85974 10.7814 5.89462 10.6836 5.95996C10.5858 6.0253 10.5096 6.11817 10.4646 6.22683C10.4196 6.33549 10.4078 6.45505 10.4307 6.5704C10.4537 6.68576 10.5103 6.79171 10.5935 6.87488C10.6767 6.95804 10.7826 7.01467 10.898 7.03762C11.0133 7.06056 11.1329 7.04879 11.2415 7.00378C11.3502 6.95877 11.4431 6.88255 11.5084 6.78476C11.5737 6.68697 11.6086 6.572 11.6086 6.45439C11.6082 6.29683 11.5453 6.14585 11.4339 6.03443C11.3225 5.92301 11.1715 5.86021 11.014 5.85974Z" fill="#72787F"/>
<path d="M40.3 17.5999C40.3 12.5504 36.2066 8.45703 31.1571 8.45703C26.1077 8.45703 22.0143 12.5504 22.0143 17.5999C22.0143 22.6494 26.1077 26.7427 31.1571 26.7427C36.2066 26.7427 40.3 22.6494 40.3 17.5999Z" fill="#72787F"/>
<path d="M35.0756 16.9381H31.8102V13.6726C31.8102 13.4994 31.7414 13.3333 31.6189 13.2108C31.4964 13.0883 31.3303 13.0195 31.1571 13.0195C30.9839 13.0195 30.8178 13.0883 30.6953 13.2108C30.5728 13.3333 30.504 13.4994 30.504 13.6726V16.9381H27.2387C27.0674 16.9409 26.9041 17.011 26.784 17.1332C26.6638 17.2553 26.5965 17.4198 26.5965 17.5911C26.5965 17.7625 26.6638 17.927 26.784 18.0491C26.9041 18.1713 27.0674 18.2414 27.2387 18.2442H30.5042V21.5095C30.5071 21.6808 30.5771 21.8441 30.6993 21.9643C30.8215 22.0844 30.9859 22.1517 31.1573 22.1517C31.3286 22.1517 31.4931 22.0844 31.6153 21.9643C31.7374 21.8441 31.8075 21.6808 31.8104 21.5095V18.244H35.0756C35.2488 18.244 35.415 18.1752 35.5374 18.0528C35.6599 17.9303 35.7287 17.7642 35.7287 17.591C35.7287 17.4178 35.6599 17.2516 35.5374 17.1292C35.415 17.0067 35.2488 16.9379 35.0756 16.9379V16.9381Z" fill="white"/>
</svg>
