<svg width="71" height="70" viewBox="0 0 71 70" fill="none" xmlns="http://www.w3.org/2000/svg">
<path d="M3.12561 56.9594V57.3416C3.12536 57.9567 3.24631 58.5657 3.48151 59.134C3.7167 59.7023 4.06153 60.2187 4.49635 60.6537C4.93117 61.0887 5.44748 61.4338 6.0157 61.6693C6.58392 61.9047 7.19295 62.0259 7.80801 62.0259H63.1899C63.805 62.0259 64.414 61.9047 64.9822 61.6693C65.5504 61.4338 66.0667 61.0887 66.5016 60.6537C66.9364 60.2187 67.2812 59.7023 67.5164 59.134C67.7516 58.5657 67.8726 57.9567 67.8723 57.3416V56.9594H3.12561Z" fill="#FFC960" stroke="#303D53" stroke-width="0.5"/>
<path d="M63.4728 62.5879H7.52717C6.06253 62.5839 4.65895 62.0003 3.62328 60.9647C2.58762 59.929 2.00403 58.5255 2 57.0609V56.6786C2 56.4546 2.08899 56.2397 2.24741 56.0813C2.40583 55.9229 2.62073 55.8339 2.84477 55.8339H68.1552C68.3793 55.8339 68.5942 55.9229 68.7526 56.0813C68.911 56.2397 69 56.4546 69 56.6786V57.0609C68.996 58.5255 68.4124 59.929 67.3767 60.9647C66.3411 62.0003 64.9375 62.5839 63.4728 62.5879ZM3.7201 57.5214C3.83386 58.4525 4.28398 59.31 4.98586 59.9323C5.68773 60.5546 6.59286 60.8989 7.5309 60.9004H63.4748C64.4129 60.8989 65.318 60.5546 66.0199 59.9323C66.7217 59.31 67.1719 58.4525 67.2856 57.5214H3.7201Z" fill="#303D53" stroke="#303D53" stroke-width="0.5"/>
<path d="M5.65989 54.1443C5.43586 54.1443 5.22096 54.0553 5.06254 53.8969C4.90412 53.7384 4.81512 53.5235 4.81512 53.2995V18.134C4.81816 17.2314 5.17863 16.3666 5.8176 15.7291C6.45658 15.0915 7.32202 14.7331 8.22465 14.7321H9.60076C9.82479 14.7321 10.0396 14.821 10.198 14.9795C10.3564 15.1379 10.4454 15.3528 10.4454 15.5768C10.4454 15.8009 10.3564 16.0156 10.198 16.1741C10.0396 16.3325 9.82479 16.4215 9.60076 16.4215H8.22465C7.76846 16.4215 7.33093 16.6027 7.00835 16.9253C6.68578 17.2479 6.50455 17.6854 6.50455 18.1416V53.3072C6.50253 53.5299 6.41265 53.7428 6.25445 53.8996C6.09625 54.0563 5.88261 54.1443 5.65989 54.1443Z" fill="#303D53" stroke="#303D53" stroke-width="0.5"/>
<path d="M65.3438 54.1443C65.1198 54.1443 64.905 54.0553 64.7466 53.8969C64.5882 53.7385 64.4991 53.5236 64.4991 53.2995V18.134C64.4991 17.6778 64.318 17.2403 63.9954 16.9177C63.6728 16.5951 63.2353 16.4139 62.7791 16.4139H60.8392C60.6152 16.4139 60.4003 16.3249 60.2419 16.1665C60.0834 16.0081 59.9944 15.7932 59.9944 15.5691C59.9944 15.3451 60.0834 15.1303 60.2419 14.9719C60.4003 14.8135 60.6152 14.7244 60.8392 14.7244H62.7791C63.683 14.7254 64.5496 15.085 65.1888 15.7242C65.828 16.3634 66.1876 17.2301 66.1886 18.134V53.2995C66.1886 53.5236 66.0996 53.7385 65.9412 53.8969C65.7828 54.0553 65.5679 54.1443 65.3438 54.1443Z" fill="#303D53" stroke="#303D53" stroke-width="0.5"/>
<path d="M58.0223 54.1443C57.7983 54.1443 57.5834 54.0553 57.4249 53.8969C57.2665 53.7384 57.1775 53.5235 57.1775 53.2995V9.10166H13.8244V53.2995C13.8244 53.5235 13.7354 53.7384 13.577 53.8969C13.4186 54.0553 13.2038 54.1443 12.9798 54.1443C12.7557 54.1443 12.5408 54.0553 12.3824 53.8969C12.224 53.7384 12.135 53.5235 12.135 53.2995V8.257C12.135 8.03296 12.224 7.81806 12.3824 7.65964C12.5408 7.50122 12.7557 7.41223 12.9798 7.41223H58.0223C58.2463 7.41223 58.4612 7.50122 58.6196 7.65964C58.7781 7.81806 58.8671 8.03296 58.8671 8.257V53.2995C58.8671 53.5235 58.7781 53.7384 58.6196 53.8969C58.4612 54.0553 58.2463 54.1443 58.0223 54.1443Z" fill="#00A58A" stroke="#00A58A" stroke-width="0.5"/>
<path d="M52.3919 42.3197H18.6101C18.3861 42.3197 18.1712 42.2307 18.0127 42.0723C17.8543 41.9138 17.7653 41.6991 17.7653 41.475C17.7653 41.251 17.8543 41.0361 18.0127 40.8777C18.1712 40.7192 18.3861 40.6302 18.6101 40.6302H52.3919C52.616 40.6302 52.8309 40.7192 52.9893 40.8777C53.1477 41.0361 53.2367 41.251 53.2367 41.475C53.2367 41.6991 53.1477 41.9138 52.9893 42.0723C52.8309 42.2307 52.616 42.3197 52.3919 42.3197Z" fill="#303D53" stroke="#303D53" stroke-width="0.5"/>
<path d="M52.39 48.5139H44.5084C44.2844 48.5139 44.0695 48.4249 43.911 48.2665C43.7526 48.1081 43.6636 47.8933 43.6636 47.6692C43.6636 47.4452 43.7526 47.2303 43.911 47.0719C44.0695 46.9135 44.2844 46.8245 44.5084 46.8245H52.39C52.614 46.8245 52.8289 46.9135 52.9874 47.0719C53.1458 47.2303 53.2348 47.4452 53.2348 47.6692C53.2348 47.8933 53.1458 48.1081 52.9874 48.2665C52.8289 48.4249 52.614 48.5139 52.39 48.5139Z" fill="#303D53" stroke="#303D53" stroke-width="0.5"/>
<path d="M37.7524 48.5139H18.6101C18.3861 48.5139 18.1712 48.4249 18.0127 48.2665C17.8543 48.1081 17.7653 47.8933 17.7653 47.6692C17.7653 47.4452 17.8543 47.2303 18.0127 47.0719C18.1712 46.9135 18.3861 46.8245 18.6101 46.8245H37.7524C37.9764 46.8245 38.1913 46.9135 38.3497 47.0719C38.5082 47.2303 38.5972 47.4452 38.5972 47.6692C38.5972 47.8933 38.5082 48.1081 38.3497 48.2665C38.1913 48.4249 37.9764 48.5139 37.7524 48.5139Z" fill="#303D53" stroke="#303D53" stroke-width="0.5"/>
<path d="M32.352 31.933L31.2771 33.2136L29.015 31.4282C27.9992 32.0452 26.8526 32.3536 25.5751 32.3536C23.6495 32.3536 22.0729 31.7055 20.8453 30.4094C19.6177 29.1069 19.0038 27.3932 19.0038 25.2682C19.0038 23.137 19.6177 21.4233 20.8453 20.1271C22.0729 18.831 23.6495 18.1829 25.5751 18.1829C27.4945 18.1829 29.0648 18.831 30.2863 20.1271C31.5077 21.4233 32.1184 23.137 32.1184 25.2682C32.1184 27.3372 31.5263 29.0353 30.3423 30.3626L32.352 31.933ZM28.9776 29.2877C29.8189 28.2906 30.2395 26.9508 30.2395 25.2682C30.2395 23.5234 29.8033 22.1649 28.9309 21.1927C28.0584 20.2206 26.9461 19.7345 25.5938 19.7345C24.2166 19.7345 23.0856 20.2206 22.2007 21.1927C21.322 22.1649 20.8827 23.5234 20.8827 25.2682C20.8827 27.0069 21.322 28.3654 22.2007 29.3437C23.0793 30.3159 24.1979 30.802 25.5564 30.802C26.2793 30.802 26.9679 30.6493 27.6222 30.3439L26.2575 29.269L27.3324 27.9884L28.9776 29.2877Z" fill="#303D53"/>
<path fill-rule="evenodd" clip-rule="evenodd" d="M25.5751 18.7811C23.7994 18.7811 22.3847 19.3717 21.2796 20.5385C20.1771 21.7026 19.6021 23.2585 19.6021 25.2682C19.6021 27.2707 20.1765 28.8274 21.28 29.9984C22.3851 31.1649 23.7996 31.7554 25.5751 31.7554C26.7516 31.7554 27.7893 31.4727 28.7044 30.9169L29.0595 30.7012L31.192 32.3844L31.4955 32.0229L29.4708 30.4408L29.8959 29.9644C30.9664 28.7642 31.5201 27.2157 31.5201 25.2682C31.5201 23.2577 30.9477 21.7014 29.8508 20.5374C28.7519 19.3712 27.3439 18.7811 25.5751 18.7811ZM20.4109 19.7157C21.7611 18.2902 23.4996 17.5846 25.5751 17.5846C27.645 17.5846 29.3777 18.2907 30.7216 19.7168C32.0676 21.1452 32.7166 23.0163 32.7166 25.2682C32.7166 27.218 32.2171 28.8963 31.1921 30.2674L33.2086 31.8431L31.3621 34.0428L28.9598 32.1468C27.9371 32.6857 26.805 32.9518 25.5751 32.9518C23.4996 32.9518 21.7611 32.2462 20.4109 30.8207C19.0595 29.387 18.4056 27.5154 18.4056 25.2682C18.4056 23.0155 19.0582 21.144 20.4109 19.7157ZM21.7582 20.79C22.7625 19.6868 24.0572 19.1363 25.5938 19.1363C27.1091 19.1363 28.3857 19.6896 29.3761 20.7932C30.3761 21.9075 30.8377 23.4262 30.8377 25.2682C30.8377 27.0503 30.3908 28.5403 29.4348 29.6734L29.0613 30.1161L27.4173 28.8177L27.1125 29.1809L28.7556 30.4751L27.8752 30.886C27.1415 31.2284 26.3666 31.4002 25.5564 31.4002C24.0358 31.4002 22.7536 30.8476 21.7568 29.7449C20.7514 28.6253 20.2844 27.1059 20.2844 25.2682C20.2844 23.4252 20.7511 21.9043 21.7582 20.79ZM22.6438 21.5946C21.8941 22.4246 21.4809 23.622 21.4809 25.2682C21.4809 26.9073 21.8936 28.1061 22.6451 28.9432C23.4056 29.7843 24.3603 30.2037 25.5564 30.2037C25.8367 30.2037 26.1105 30.1777 26.3783 30.1257L25.4025 29.357L27.2475 27.159L28.8618 28.4339C29.3696 27.625 29.6412 26.5821 29.6412 25.2682C29.6412 23.6205 29.2304 22.4222 28.4856 21.5923C27.7311 20.7516 26.783 20.3328 25.5938 20.3328C24.3763 20.3328 23.4092 20.7541 22.6438 21.5946Z" fill="#303D53"/>
<path d="M46.8863 26.3874L44.4746 20.0311L42.1751 26.3874H46.8863ZM51.0552 31.9959H49.0082L47.4191 27.8269H41.6797L40.1654 31.9959H38.2492L43.5118 18.2925H45.4655L51.0552 31.9959Z" fill="#303D53"/>
<path fill-rule="evenodd" clip-rule="evenodd" d="M43.1007 17.6942H45.8675L51.9454 32.5941H48.5959L47.0069 28.4251H42.0989L40.5846 32.5941H37.3786L43.1007 17.6942ZM43.9229 18.8907L39.1198 31.3976H39.7462L41.2605 27.2286H47.8313L49.4203 31.3976H50.1651L45.0634 18.8907H44.6818L47.7531 26.9856H41.3225L44.251 18.8907H43.9229ZM44.488 21.7527L43.0277 25.7891H46.0194L44.488 21.7527Z" fill="#303D53"/>
</svg>
