<svg width="30" height="31" viewBox="0 0 30 31" fill="none" xmlns="http://www.w3.org/2000/svg">
<path d="M13.5 15.5C13.5 11.9101 10.5899 9 7 9C3.41015 9 0.5 11.9101 0.5 15.5C0.5 19.0899 3.41015 22 7 22C10.5899 22 13.5 19.0899 13.5 15.5Z" stroke="#454545"/>
<path d="M30 15.5C30 11.634 26.866 8.5 23 8.5C19.134 8.5 16 11.634 16 15.5C16 19.366 19.134 22.5 23 22.5C26.866 22.5 30 19.366 30 15.5Z" fill="#00A58A"/>
<path d="M28 15.5C28 12.7386 25.7614 10.5 23 10.5C20.2386 10.5 18 12.7386 18 15.5C18 18.2614 20.2386 20.5 23 20.5C25.7614 20.5 28 18.2614 28 15.5Z" fill="#00A58A"/>
<path d="M27.5 15.5C27.5 13.0147 25.4853 11 23 11C20.5147 11 18.5 13.0147 18.5 15.5C18.5 17.9853 20.5147 20 23 20C25.4853 20 27.5 17.9853 27.5 15.5Z" stroke="white"/>
</svg>
