<svg width="30" height="31" viewBox="0 0 30 31" fill="none" xmlns="http://www.w3.org/2000/svg">
<path d="M29.169 6.13803L24.716 1.68703C24.5963 1.56832 24.4346 1.50171 24.266 1.50171C24.0974 1.50171 23.9357 1.56832 23.816 1.68703L12.74 12.758C12.6511 12.8476 12.5906 12.9613 12.566 13.085L11.466 18.642C11.4475 18.7347 11.4498 18.8303 11.4727 18.922C11.4957 19.0137 11.5387 19.0991 11.5987 19.1721C11.6587 19.2451 11.7342 19.3039 11.8197 19.3442C11.9051 19.3844 11.9985 19.4052 12.093 19.405C12.1346 19.405 12.1761 19.401 12.217 19.393L17.773 18.293C17.8968 18.2687 18.0107 18.2081 18.1 18.119L29.169 7.04103C29.288 6.92148 29.3547 6.75969 29.3547 6.59103C29.3547 6.42238 29.288 6.26059 29.169 6.14103V6.13803ZM13.158 16.657L13.735 13.757L17.102 17.125L14.202 17.702L13.158 16.657Z" fill="#454545"/>
<path d="M9.39993 12.3359H4.16897C3.5174 12.3633 2.89551 12.6158 2.40921 13.0503C1.9229 13.4848 1.60227 14.0746 1.50198 14.719C1.50198 14.719 1.50198 23.0109 1.50198 24.7539C1.48437 25.1215 1.53955 25.4891 1.66409 25.8354C1.78864 26.1818 1.98011 26.5002 2.22781 26.7725C2.47552 27.0447 2.77461 27.2653 3.1077 27.4219C3.44078 27.5785 3.80131 27.668 4.16897 27.6851C5.53797 27.6851 21.8161 27.7109 23.0381 27.7109C24.2601 27.7109 26.387 27.1831 26.387 24.7271V16.127" stroke="#00A58A" stroke-width="1.5" stroke-linecap="round" stroke-linejoin="round"/>
</svg>
