<svg id="ico_bell_no" xmlns="http://www.w3.org/2000/svg" xmlns:xlink="http://www.w3.org/1999/xlink" width="22" height="22" viewBox="0 0 22 22">
  <defs>
    <clipPath id="clip-path">
      <rect id="사각형_321" data-name="사각형 321" width="22" height="22" fill="#72787f" stroke="#707070" stroke-width="1"/>
    </clipPath>
  </defs>
  <g id="icon_bell" clip-path="url(#clip-path)">
    <g id="bell_1_" data-name="bell (1)" transform="translate(0 0)">
      <path id="패스_701" data-name="패스 701" d="M13.75,28.5a3.441,3.441,0,0,1-3.437-3.437.687.687,0,1,1,1.375,0,2.062,2.062,0,0,0,4.125,0,.687.687,0,1,1,1.375,0A3.441,3.441,0,0,1,13.75,28.5Zm0,0" transform="translate(-2.75 -6.5)" fill="#72787f"/>
      <path id="패스_702" data-name="패스 702" d="M20.546,20.25a.687.687,0,1,1,0-1.375.232.232,0,0,0,.229-.229.218.218,0,0,0-.05-.143l-.038-.029a7.536,7.536,0,0,1-2.662-5.748V10.167A5.037,5.037,0,0,0,8.709,7.505a.688.688,0,1,1-1.168-.726A6.413,6.413,0,0,1,19.4,10.167v2.558a6.165,6.165,0,0,0,2.12,4.652.617.617,0,0,1,.068.05,1.6,1.6,0,0,1-1.042,2.823Zm0,0" transform="translate(-1.984 -1)" fill="#72787f"/>
      <path id="패스_703" data-name="패스 703" d="M16.02,22.1H4.1a1.6,1.6,0,0,1-1.043-2.823.58.58,0,0,1,.07-.052,6.163,6.163,0,0,0,2.118-4.65V12.014a5.783,5.783,0,0,1,.042-.741.687.687,0,0,1,1.363.179,4.364,4.364,0,0,0-.03.562v2.558A7.537,7.537,0,0,1,3.963,20.32l-.038.029a.227.227,0,0,0-.051.144.232.232,0,0,0,.229.229H16.02a.687.687,0,1,1,0,1.375Zm0,0" transform="translate(-0.667 -2.847)" fill="#72787f"/>
      <path id="패스_704" data-name="패스 704" d="M14.75,4.126a.688.688,0,0,1-.687-.687V.688a.687.687,0,0,1,1.375,0v2.75A.688.688,0,0,1,14.75,4.126Zm0,0" transform="translate(-3.75 0)" fill="#72787f"/>
      <path id="패스_705" data-name="패스 705" d="M21.312,22a.683.683,0,0,1-.486-.2L.2,1.174A.688.688,0,0,1,1.175.2L21.8,20.826A.688.688,0,0,1,21.312,22Zm0,0" transform="translate(0 0)" fill="#72787f"/>
    </g>
  </g>
</svg>
