<svg xmlns="http://www.w3.org/2000/svg" xmlns:xlink="http://www.w3.org/1999/xlink" width="30" height="30" viewBox="0 0 30 30">
  <defs>
    <clipPath id="clip-path">
      <rect id="사각형_882" data-name="사각형 882" width="30" height="30" transform="translate(243 213)" fill="#2c93e8"/>
    </clipPath>
  </defs>
  <g id="ico_" transform="translate(-243 -213)" clip-path="url(#clip-path)">
    <g id="bell_4_" data-name="bell (4)" transform="translate(244.25 213)">
      <path id="패스_1066" data-name="패스 1066" d="M22.993,13.2a.938.938,0,0,1-.937-.937,13.352,13.352,0,0,0-3.935-9.5.938.938,0,0,1,1.326-1.326,15.218,15.218,0,0,1,4.484,10.829.938.938,0,0,1-.937.938Zm0,0" transform="translate(3.569 0.233)" fill="#2c93e8"/>
      <path id="패스_1067" data-name="패스 1067" d="M.938,13.2A.938.938,0,0,1,0,12.267,15.21,15.21,0,0,1,4.485,1.439.938.938,0,0,1,5.811,2.766a13.343,13.343,0,0,0-3.936,9.5.938.938,0,0,1-.938.938Zm0,0" transform="translate(0 0.233)" fill="#2c93e8"/>
      <path id="패스_1068" data-name="패스 1068" d="M12.24,25.938A4.692,4.692,0,0,1,7.552,21.25a.938.938,0,0,1,1.875,0,2.813,2.813,0,0,0,5.625,0,.938.938,0,0,1,1.875,0A4.692,4.692,0,0,1,12.24,25.938Zm0,0" transform="translate(1.51 4.062)" fill="#2c93e8"/>
      <path id="패스_1069" data-name="패스 1069" d="M23.854,25.625H3.229a2.188,2.188,0,0,1-1.422-3.85A8.377,8.377,0,0,0,4.792,15.36V11.875a8.75,8.75,0,0,1,17.5,0V15.36a8.375,8.375,0,0,0,2.972,6.406,2.187,2.187,0,0,1-1.41,3.859ZM13.542,5a6.882,6.882,0,0,0-6.875,6.875V15.36A10.245,10.245,0,0,1,3.029,23.2a.312.312,0,0,0-.113.24.316.316,0,0,0,.313.312H23.854a.316.316,0,0,0,.312-.312.308.308,0,0,0-.11-.238,10.248,10.248,0,0,1-3.64-7.84V11.875A6.882,6.882,0,0,0,13.542,5Zm0,0" transform="translate(0.208 0.625)" fill="#2c93e8"/>
      <path id="패스_1070" data-name="패스 1070" d="M11.615,5.625a.938.938,0,0,1-.937-.937V.938a.938.938,0,1,1,1.875,0v3.75A.938.938,0,0,1,11.615,5.625Zm0,0" transform="translate(2.135)" fill="#2c93e8"/>
    </g>
  </g>
</svg>
