<svg xmlns="http://www.w3.org/2000/svg" width="16.439" height="22.644" viewBox="0 0 16.439 22.644">
  <g id="medal_3_" data-name="medal (3)" transform="translate(74.713 -47.488)">
    <g id="그룹_681" data-name="그룹 681" transform="translate(-74.713 47.488)">
      <path id="패스_1003" data-name="패스 1003" d="M268.3,353.26l.536.126,1.74,5a.23.23,0,0,1-.241.3l-2.44-.255a.23.23,0,0,0-.185.064l-1.754,1.715a.23.23,0,0,1-.378-.089l-1.752-5.033.253-.371Z" transform="translate(-255.264 -337.637)" fill="#ff4755"/>
      <path id="패스_1004" data-name="패스 1004" d="M256.18,335.9l-.354-1.017,5.01-1.7.353,1.014A9.2,9.2,0,0,1,256.18,335.9Z" transform="translate(-247.614 -318.443)" fill="#fc2b3a"/>
      <path id="패스_1005" data-name="패스 1005" d="M97.371,353.26l-.536.126-1.74,5a.23.23,0,0,0,.241.3l2.44-.255a.23.23,0,0,1,.185.064l1.754,1.715a.23.23,0,0,0,.378-.089l1.752-5.033-.253-.371Z" transform="translate(-93.978 -337.637)" fill="#ff4755"/>
      <path id="패스_1006" data-name="패스 1006" d="M139.739,335.9l.354-1.017-5.01-1.7-.353,1.014A9.2,9.2,0,0,0,139.739,335.9Z" transform="translate(-131.874 -318.443)" fill="#fc2b3a"/>
      <path id="패스_1007" data-name="패스 1007" d="M78.581,15.86c-8.209,0-8.216-7.917-8.209-8.055a8.22,8.22,0,0,1,16.419,0C86.8,7.943,86.8,15.86,78.581,15.86Z" transform="translate(-70.362)" fill="#ffcb5b"/>
      <path id="패스_1008" data-name="패스 1008" d="M78.368,184.29a8.22,8.22,0,0,1-8.209-7.805q-.01.206-.01.414a8.22,8.22,0,0,0,16.439,0q0-.208-.01-.414A8.22,8.22,0,0,1,78.368,184.29Z" transform="translate(-70.148 -168.68)" fill="#f7b737"/>
      <path id="패스_1009" data-name="패스 1009" d="M116.333,51.849c-6.462,0-6.471-6.211-6.462-6.348a6.475,6.475,0,0,1,12.924,0C122.8,45.638,122.808,51.849,116.333,51.849Z" transform="translate(-108.113 -37.696)" fill="#ff9838"/>
      <path id="패스_1010" data-name="패스 1010" d="M116.063,182.546a6.475,6.475,0,0,1-6.462-6.061c-.009.137-.014.275-.014.414a6.475,6.475,0,1,0,12.951,0c0-.139,0-.277-.014-.414A6.475,6.475,0,0,1,116.063,182.546Z" transform="translate(-107.844 -168.68)" fill="#ff8709"/>
      <path id="패스_1011" data-name="패스 1011" d="M178.545,106.57l.6,1.224a.661.661,0,0,0,.5.362l1.35.2a.661.661,0,0,1,.366,1.128l-.977.952a.661.661,0,0,0-.19.585l.231,1.345a1.152,1.152,0,0,1-.035.354h-.924l-1.515-.852-1.515.852-.917.018a1.145,1.145,0,0,1-.043-.373l.231-1.345a.661.661,0,0,0-.19-.585l-.977-.952a.661.661,0,0,1,.366-1.128l1.35-.2a.661.661,0,0,0,.5-.362l.6-1.224A.661.661,0,0,1,178.545,106.57Z" transform="translate(-169.733 -101.504)" fill="#fff5f5"/>
      <g id="그룹_680" data-name="그룹 680" transform="translate(5.78 9.958)">
        <path id="패스_1012" data-name="패스 1012" d="M203.179,225.195l-2.332,1.226a.662.662,0,0,0,.924.343l1.208-.635a.661.661,0,0,1,.615,0l1.208.635a.662.662,0,0,0,.924-.343l-2.332-1.226A.23.23,0,0,0,203.179,225.195Z" transform="translate(-200.847 -225.168)" fill="#efe2dd"/>
      </g>
    </g>
  </g>
</svg>
