<svg xmlns="http://www.w3.org/2000/svg" width="15" height="15" viewBox="0 0 15 15">
  <g id="사각형_1018" data-name="사각형 1018" fill="#fff">
    <path d="M 7.5 12.5 C 4.742990016937256 12.5 2.5 10.2570104598999 2.5 7.5 C 2.5 4.742990016937256 4.742990016937256 2.5 7.5 2.5 C 10.2570104598999 2.5 12.5 4.742990016937256 12.5 7.5 C 12.5 10.2570104598999 10.2570104598999 12.5 7.5 12.5 Z" stroke="none"/>
    <path d="M 7.5 5 C 6.121500015258789 5 5 6.121500015258789 5 7.5 C 5 8.878499984741211 6.121500015258789 10 7.5 10 C 8.878499984741211 10 10 8.878499984741211 10 7.5 C 10 6.121500015258789 8.878499984741211 5 7.5 5 M 7.5 0 C 11.64213943481445 0 15 3.35785961151123 15 7.5 C 15 11.64213943481445 11.64213943481445 15 7.5 15 C 3.35785961151123 15 0 11.64213943481445 0 7.5 C 0 3.35785961151123 3.35785961151123 0 7.5 0 Z" stroke="none" fill="#2c93e8"/>
  </g>
</svg>
