<svg xmlns="http://www.w3.org/2000/svg" xmlns:xlink="http://www.w3.org/1999/xlink" width="20" height="20" viewBox="0 0 20 20">
  <defs>
    <clipPath id="clip-path">
      <rect id="사각형_811" data-name="사각형 811" width="20" height="20" transform="translate(1510 521)" fill="#454c53"/>
    </clipPath>
  </defs>
  <g id="ico_list" transform="translate(-1510 -521)" clip-path="url(#clip-path)">
    <g id="list" transform="translate(1510 521)">
      <path id="패스_971" data-name="패스 971" d="M19,17.262H5.628a1,1,0,1,1,0-2H19a1,1,0,0,1,0,2Z" fill="#454c53"/>
      <path id="패스_972" data-name="패스 972" d="M19,11H5.628a1,1,0,0,1,0-2H19a1,1,0,0,1,0,2Z" fill="#454c53"/>
      <path id="패스_973" data-name="패스 973" d="M19,4.734H5.628a1,1,0,1,1,0-2H19a1,1,0,0,1,0,2Z" fill="#454c53"/>
      <circle id="타원_386" data-name="타원 386" cx="1.34" cy="1.34" r="1.34" transform="translate(0 2.473)" fill="#454c53"/>
      <circle id="타원_387" data-name="타원 387" cx="1.34" cy="1.34" r="1.34" transform="translate(0 8.66)" fill="#454c53"/>
      <circle id="타원_388" data-name="타원 388" cx="1.34" cy="1.34" r="1.34" transform="translate(0 14.847)" fill="#454c53"/>
    </g>
  </g>
</svg>
