<svg id="ico_link" xmlns="http://www.w3.org/2000/svg" xmlns:xlink="http://www.w3.org/1999/xlink" width="30" height="30" viewBox="0 0 30 30">
  <defs>
    <clipPath id="clip-path">
      <rect id="사각형_549" data-name="사각형 549" width="15" height="15" transform="translate(403 3049)" fill="#fff"/>
    </clipPath>
  </defs>
  <rect id="사각형_548" data-name="사각형 548" width="30" height="30" rx="5" fill="#666"/>
  <g id="마스크_그룹_145" data-name="마스크 그룹 145" transform="translate(-395 -3041)" clip-path="url(#clip-path)">
    <path id="link" d="M3.639,15a3.6,3.6,0,0,1-2.561-1.078A3.594,3.594,0,0,1,0,11.225a4.321,4.321,0,0,1,1.36-2.893L2.9,6.794a.586.586,0,0,1,.83.827L2.192,9.16C.95,10.4.833,12.02,1.906,13.093a2.68,2.68,0,0,0,3.933-.285L7.945,10.7A3.175,3.175,0,0,0,8.963,8.595,2.434,2.434,0,0,0,8.23,6.77a2.593,2.593,0,0,0-.549-.421.586.586,0,0,1,.58-1.018,3.766,3.766,0,0,1,.8.61,3.594,3.594,0,0,1,1.075,2.7,4.321,4.321,0,0,1-1.36,2.893L6.668,13.637A4.321,4.321,0,0,1,3.775,15Zm3.9-5.55a.586.586,0,0,0-.219-.8A2.593,2.593,0,0,1,6.77,8.23,2.68,2.68,0,0,1,7.055,4.3L9.161,2.192a2.68,2.68,0,0,1,3.933-.285c1.074,1.074.957,2.691-.286,3.933L11.274,7.38a.586.586,0,1,0,.83.827l1.532-1.539A4.321,4.321,0,0,0,15,3.775a3.594,3.594,0,0,0-1.075-2.7A3.6,3.6,0,0,0,11.225,0a4.321,4.321,0,0,0-2.893,1.36L6.226,3.469a4.321,4.321,0,0,0-1.36,2.893,3.594,3.594,0,0,0,1.075,2.7,3.766,3.766,0,0,0,.8.61.586.586,0,0,0,.8-.219Z" transform="translate(403 3049)" fill="#fff"/>
  </g>
</svg>
