<svg id="ico_chat" xmlns="http://www.w3.org/2000/svg" xmlns:xlink="http://www.w3.org/1999/xlink" width="18" height="18" viewBox="0 0 18 18">
  <defs>
    <clipPath id="clip-path">
      <rect id="사각형_165" data-name="사각형 165" width="18" height="18" fill="#ff5c5c" stroke="#707070" stroke-width="1"/>
    </clipPath>
  </defs>
  <g id="icon_chat" clip-path="url(#clip-path)">
    <g id="chat" transform="translate(0 0.598)">
      <path id="패스_127" data-name="패스 127" d="M11.714,4.277A6.174,6.174,0,0,0,0,6.982,6.086,6.086,0,0,0,.589,9.611L.011,12.5a.528.528,0,0,0,.619.621l2.928-.579a6.066,6.066,0,0,0,1.221.427A7.215,7.215,0,0,1,11.714,4.277Z" transform="translate(0 -0.83)" fill="#ffadad"/>
      <path id="패스_128" data-name="패스 128" d="M19.619,15.861a6.125,6.125,0,0,0,.264-.651h-.019a6.159,6.159,0,0,0-5.539-8.123h0a6.152,6.152,0,1,0-.3,12.3,6.085,6.085,0,0,0,2.621-.589c3.206.634,2.956.589,3.03.589a.528.528,0,0,0,.517-.631Z" transform="translate(-2.208 -2.58)" fill="#ff5c5c"/>
    </g>
  </g>
</svg>
