<svg xmlns="http://www.w3.org/2000/svg" xmlns:xlink="http://www.w3.org/1999/xlink" width="30" height="30" viewBox="0 0 30 30">
  <defs>
    <clipPath id="clip-path">
      <rect id="사각형_661" data-name="사각형 661" width="30" height="30" transform="translate(1528.227 561.227)" fill="#fff"/>
    </clipPath>
  </defs>
  <g id="그룹_97" data-name="그룹 97" transform="translate(-1371 -130)">
    <g id="icon_그리기" transform="translate(-157.227 -431.227)" clip-path="url(#clip-path)">
      <g id="그리기" transform="translate(1530.896 563)">
        <path id="패스_796" data-name="패스 796" d="M24.183,5.095,19.293.208a.7.7,0,0,0-.992,0L6.144,12.363a.7.7,0,0,0-.192.359l-1.212,6.1a.7.7,0,0,0,.688.837.72.72,0,0,0,.137-.013l6.1-1.212a.7.7,0,0,0,.359-.192L24.183,6.086a.7.7,0,0,0,0-.991ZM6.6,16.644l.633-3.189,3.7,3.7-3.189.633Z" transform="translate(0.273 -0.002)" fill="#454545"/>
        <path id="패스_797" data-name="패스 797" d="M18.346,20.128c-6.7-2.8-11.066,1.835-12.37,2.54-1.667.9-4.012,1.959-4.558.127-.328-1.106,1.45-2.288,2.631-2.655.86-.269.493-1.622-.373-1.35C1.846,19.36-.337,20.9.046,23.072c.284,1.612,2.306,3.083,6.2,1.038C9.08,22.625,11,19.547,16.969,21.141a5.911,5.911,0,0,1,4.222,3.744c.3.847,1.65.483,1.35-.373A7.226,7.226,0,0,0,18.346,20.128Z" transform="translate(-0.002 1.088)" fill="#00a58a"/>
      </g>
    </g>
  </g>
</svg>
