<svg xmlns="http://www.w3.org/2000/svg" xmlns:xlink="http://www.w3.org/1999/xlink" width="20" height="20" viewBox="0 0 20 20">
  <defs>
    <clipPath id="clip-path">
      <rect id="사각형_352" data-name="사각형 352" width="20" height="20" fill="#f75e5e"/>
    </clipPath>
  </defs>
  <g id="ico_notice_memo" clip-path="url(#clip-path)">
    <g id="megaphone_1_" data-name="megaphone (1)" transform="translate(0 2.383)">
      <g id="그룹_145" data-name="그룹 145" transform="translate(17.07 7.031)">
        <g id="그룹_144" data-name="그룹 144">
          <path id="패스_770" data-name="패스 770" d="M19.414,9.414H17.656a.586.586,0,0,0,0,1.172h1.758a.586.586,0,0,0,0-1.172Z" transform="translate(-17.07 -9.414)" fill="#f75e5e"/>
        </g>
      </g>
      <g id="그룹_147" data-name="그룹 147" transform="translate(16.484 9.375)">
        <g id="그룹_146" data-name="그룹 146">
          <path id="패스_771" data-name="패스 771" d="M18.657,13.1l-1.172-1.172a.586.586,0,0,0-.829.829l1.172,1.172a.586.586,0,1,0,.829-.829Z" transform="translate(-16.484 -11.758)" fill="#f75e5e"/>
        </g>
      </g>
      <g id="그룹_149" data-name="그룹 149" transform="translate(16.484 3.516)">
        <g id="그룹_148" data-name="그룹 148">
          <path id="패스_772" data-name="패스 772" d="M18.656,6.07a.586.586,0,0,0-.829,0L16.656,7.242a.586.586,0,0,0,.829.829L18.656,6.9A.586.586,0,0,0,18.656,6.07Z" transform="translate(-16.484 -5.898)" fill="#f75e5e"/>
        </g>
      </g>
      <g id="그룹_151" data-name="그룹 151">
        <g id="그룹_150" data-name="그룹 150">
          <path id="패스_773" data-name="패스 773" d="M13.555,2.383a1.76,1.76,0,0,0-1.738,1.5l-.534.534A5.276,5.276,0,0,1,7.617,5.9H4.1A1.761,1.761,0,0,0,2.445,7.07h-.1a2.344,2.344,0,0,0,0,4.688h.1a1.766,1.766,0,0,0,1.071,1.071v3.03a1.758,1.758,0,1,0,3.516,0V12.93h.586a5.276,5.276,0,0,1,3.665,1.486l.534.534a1.758,1.758,0,0,0,3.5-.262V4.141A1.76,1.76,0,0,0,13.555,2.383Zm-11.211,8.2a1.172,1.172,0,0,1,0-2.344Zm3.516,5.273a.586.586,0,0,1-1.172,0V12.93H5.859Zm1.172-4.1H4.1a.587.587,0,0,1-.586-.586V7.656A.587.587,0,0,1,4.1,7.07h2.93ZM11.8,13.295a6.4,6.4,0,0,0-3.6-1.51V7.044a6.4,6.4,0,0,0,3.6-1.51Zm2.344,1.393a.587.587,0,0,1-.586.586h0a.587.587,0,0,1-.586-.586V4.141a.586.586,0,1,1,1.172,0Z" transform="translate(0 -2.383)" fill="#f75e5e"/>
        </g>
      </g>
    </g>
  </g>
</svg>
