<svg xmlns="http://www.w3.org/2000/svg" xmlns:xlink="http://www.w3.org/1999/xlink" width="15" height="15" viewBox="0 0 15 15">
  <defs>
    <clipPath id="clip-path">
      <rect id="사각형_1347" data-name="사각형 1347" width="15" height="15" transform="translate(1045 924)" fill="#454545"/>
    </clipPath>
  </defs>
  <g id="icon_plus" transform="translate(-1045 -924)" clip-path="url(#clip-path)">
    <g id="add_2_" data-name="add (2)" transform="translate(1045 924)">
      <g id="그룹_1063" data-name="그룹 1063">
        <g id="그룹_1062" data-name="그룹 1062">
          <path id="패스_2181" data-name="패스 2181" d="M7.5,0A7.5,7.5,0,1,0,15,7.5,7.508,7.508,0,0,0,7.5,0Zm0,13.838A6.338,6.338,0,1,1,13.838,7.5,6.346,6.346,0,0,1,7.5,13.838Z" fill="#454545"/>
        </g>
      </g>
      <g id="그룹_1065" data-name="그룹 1065" transform="translate(4.014 3.962)">
        <g id="그룹_1064" data-name="그룹 1064">
          <path id="패스_2182" data-name="패스 2182" d="M14.419,10.829H12.1V8.505a.581.581,0,1,0-1.162,0v2.324H8.61a.581.581,0,1,0,0,1.162h2.324v2.324a.581.581,0,1,0,1.162,0V11.991h2.324a.581.581,0,0,0,0-1.162Z" transform="translate(-8.029 -7.924)" fill="#454545"/>
        </g>
      </g>
    </g>
  </g>
</svg>
