<svg id="icon_수업결과" xmlns="http://www.w3.org/2000/svg" xmlns:xlink="http://www.w3.org/1999/xlink" width="25" height="25" viewBox="0 0 25 25">
  <defs>
    <clipPath id="clip-path">
      <rect id="사각형_396" data-name="사각형 396" width="25" height="25" fill="#72787f" stroke="#707070" stroke-width="1"/>
    </clipPath>
  </defs>
  <g id="icon_수업결과-2" data-name="icon_수업결과" clip-path="url(#clip-path)">
    <g id="table_1_" data-name="table (1)" transform="translate(3.125)">
      <path id="패스_786" data-name="패스 786" d="M15.885,6.25H9.115A1.825,1.825,0,0,1,7.292,4.427V2.865a.782.782,0,0,1,.781-.781H9.744a2.865,2.865,0,0,1,5.512,0h1.671a.782.782,0,0,1,.781.781V4.427A1.825,1.825,0,0,1,15.885,6.25Z" transform="translate(-3.125)" fill="#72787f"/>
      <path id="패스_787" data-name="패스 787" d="M19.01,3.125h-.26v1.3a2.867,2.867,0,0,1-2.865,2.865H9.115A2.867,2.867,0,0,1,6.25,4.427v-1.3H5.99A2.867,2.867,0,0,0,3.125,5.99V22.135A2.867,2.867,0,0,0,5.99,25H19.01a2.867,2.867,0,0,0,2.865-2.865V5.99A2.867,2.867,0,0,0,19.01,3.125ZM9.9,22.4H7.031a.782.782,0,0,1-.781-.781V18.75H9.9Zm0-5.208H6.25V14.062H9.9Zm0-4.687H6.25V9.635a.782.782,0,0,1,.781-.781H9.9Zm8.854,9.115a.782.782,0,0,1-.781.781h-6.51V18.75H18.75Zm0-4.427H11.458V14.062H18.75Zm0-4.687H11.458V8.854h6.51a.782.782,0,0,1,.781.781Z" transform="translate(-3.125)" fill="#72787f"/>
    </g>
  </g>
</svg>
