<svg xmlns="http://www.w3.org/2000/svg" xmlns:xlink="http://www.w3.org/1999/xlink" width="25" height="25" viewBox="0 0 25 25">
  <defs>
    <clipPath id="clip-path">
      <rect id="사각형_539" data-name="사각형 539" width="25" height="25" fill="#fff" stroke="#707070" stroke-width="1"/>
    </clipPath>
  </defs>
  <g id="icon_Refresh" clip-path="url(#clip-path)">
    <g id="refresh_1_" data-name="refresh (1)" transform="translate(0)">
      <path id="패스_785" data-name="패스 785" d="M24.52,12.02a1.039,1.039,0,0,0-1.041,1.041,10.414,10.414,0,1,1-2.4-6.658h-3.6a1.041,1.041,0,1,0,0,2.082h5.847a1.039,1.039,0,0,0,1.041-1.041V1.6a1.041,1.041,0,1,0-2.082,0v3.01a12.51,12.51,0,1,0,3.276,8.449A1.039,1.039,0,0,0,24.52,12.02Z" transform="translate(-0.561 -0.561)" fill="#fff"/>
    </g>
  </g>
</svg>
