<svg xmlns="http://www.w3.org/2000/svg" xmlns:xlink="http://www.w3.org/1999/xlink" width="20" height="20" viewBox="0 0 20 20">
  <defs>
    <clipPath id="clip-path">
      <rect id="사각형_531" data-name="사각형 531" width="20" height="20" transform="translate(-0.381)" fill="#fff" stroke="#707070" stroke-width="1"/>
    </clipPath>
  </defs>
  <g id="ico_dm" transform="translate(0.381)" clip-path="url(#clip-path)">
    <g id="email_1_" data-name="email (1)" transform="translate(0 2.383)">
      <g id="그룹_174" data-name="그룹 174">
        <path id="패스_776" data-name="패스 776" d="M18.242,3.574H1.758A1.761,1.761,0,0,0,0,5.332V17.051a1.761,1.761,0,0,0,1.758,1.758H18.242A1.761,1.761,0,0,0,20,17.051V5.332A1.761,1.761,0,0,0,18.242,3.574ZM18,4.746l-7.962,7.962L2.006,4.746ZM1.172,16.808V5.569l5.644,5.6ZM2,17.637l5.647-5.647,1.979,1.962a.586.586,0,0,0,.827,0l1.929-1.929L18,17.637Zm16.828-.829-5.617-5.617,5.617-5.617Z" transform="translate(0 -3.574)" fill="#72787f"/>
      </g>
    </g>
  </g>
</svg>
