<svg xmlns="http://www.w3.org/2000/svg" width="69.877" height="16.023" viewBox="0 0 69.877 16.023">
  <g id="ico_y_cloud_logo" transform="translate(-1018.561 -534.217)">
    <path id="Path_936" data-name="Path 936" d="M1023.234,550.149h-.468v-6.2l-4.205-8.116h.493l4.18,8.116Zm.935,0h-.467v-6.2l-4.128-8.116h.494l4.1,8.116Zm.936,0h-.468v-6.2l-4.075-8.116h.494l4.05,8.116Zm.935,0h-.468v-6.2l-4.05-8.116h.494l4.023,8.116Zm.468-6.2-4-8.116H1023l1.867,3.725,2.675-5.345h.494l-2.935,5.864.234.468,3.2-6.332h.493l-3.455,6.826.234.494,3.689-7.32h.494l-3.949,7.813.234.468,4.209-8.281h.493l-4.468,8.775.234.468,4.754-9.242h.494l-5.014,9.736v6.2h-.468Z" transform="translate(0)" fill="#fff"/>
    <path id="Path_937" data-name="Path 937" d="M1025.1,545.939l.234.468m.234.494.234.494m.234.493.234.468m.234.493.234.468m-3.508,6.69h-.468v-6.2l-4.205-8.116h.493l4.18,8.116Zm.935,0h-.468v-6.2l-4.127-8.116h.494l4.1,8.116Zm.936,0h-.468v-6.2l-4.076-8.116h.494l4.05,8.116Zm.935,0h-.468v-6.2l-4.05-8.116h.494l4.023,8.116Zm.935-6.2v6.2h-.468v-6.2l-4-8.116H1023l1.867,3.725" transform="translate(0 -5.858)" fill="#fff"/>
    <g id="Group_293" data-name="Group 293" transform="translate(1034.871 536.129)">
      <path id="Path_938" data-name="Path 938" d="M1105.394,546.628c0-.682-.121-.879-.909-.879h-6.28v-1.288h6.2c1.97,0,2.44.394,2.44,2.2v3.349h1.137v1.227h-11.311v-1.227h8.719v-1.47h-7.206v-1.258h7.206Zm1.455,5.879v3.47h-7.606v.546c0,.439.091.515.5.515h6.693v1.227h-7.314c-.848-.015-1.349-.333-1.349-1.3v-2.212h7.606v-1h-7.194v-1.242Z" transform="translate(-1096.061 -544.154)" fill="#fff"/>
      <path id="Path_939" data-name="Path 939" d="M1166.19,546.279v5.242h-5.076v2.091c0,.606.076.727.727.727h4.7v1.288h-5.059c-1.409,0-1.833-.394-1.833-1.909v-3.485h5.091v-2.667h-4.472v-1.288Zm2.621.033h1.47v3.816h1.879v1.3h-1.879v5.53h-1.47Z" transform="translate(-1145.386 -545.578)" fill="#fff"/>
      <path id="Path_940" data-name="Path 940" d="M1234.727,551.179v1.288h-4.921v4.045h-1.47v-4.045h-4.966v-1.288Zm-5.649-1.121a3.389,3.389,0,0,1-3.636-3.258,3.644,3.644,0,0,1,7.258,0A3.393,3.393,0,0,1,1229.078,550.058Zm-2.2-3.258a1.98,1.98,0,0,0,2.2,1.985,2.016,2.016,0,0,0,2.182-1.985,2.194,2.194,0,0,0-4.379,0Z" transform="translate(-1195.305 -543.387)" fill="#fff"/>
      <path id="Path_941" data-name="Path 941" d="M1297.353,555.66v1.288h-11.27V555.66Zm-8.756-5.106c0,.712.167.849.819.849h6.461v1.3h-6.583c-1.606,0-2.167-.455-2.167-2.076v-4h8.747v1.288H1288.6Z" transform="translate(-1244.43 -545.852)" fill="#fff"/>
      <path id="Path_942" data-name="Path 942" d="M1102.223,545.105a.645.645,0,1,1-.645-.645A.645.645,0,0,1,1102.223,545.105Z" transform="translate(-1099.396 -544.153)" fill="#fff"/>
      <path id="Path_943" data-name="Path 943" d="M1095.068,570.669a.615.615,0,1,1-.615-.615A.614.614,0,0,1,1095.068,570.669Z" transform="translate(-1093.839 -564.201)" fill="#fff"/>
      <path id="Path_944" data-name="Path 944" d="M1147.219,570.667a.613.613,0,1,1-.613-.613A.612.612,0,0,1,1147.219,570.667Z" transform="translate(-1134.694 -564.201)" fill="#fff"/>
      <circle id="Ellipse_379" data-name="Ellipse 379" cx="0.645" cy="0.645" r="0.645" transform="translate(27.42 7.793)" fill="#fff"/>
      <circle id="Ellipse_380" data-name="Ellipse 380" cx="0.645" cy="0.645" r="0.645" transform="translate(38.781 7.793)" fill="#fff"/>
      <path id="Path_945" data-name="Path 945" d="M1284.415,588.95a.644.644,0,1,1-.644-.644A.644.644,0,0,1,1284.415,588.95Z" transform="translate(-1242.114 -578.499)" fill="#fff"/>
      <circle id="Ellipse_381" data-name="Ellipse 381" cx="0.644" cy="0.644" r="0.644" transform="translate(52.278 9.807)" fill="#fff"/>
      <path id="Path_946" data-name="Path 946" d="M1329.565,547.28a.645.645,0,1,1-.645-.645A.644.644,0,0,1,1329.565,547.28Z" transform="translate(-1277.481 -545.857)" fill="#fff"/>
      <path id="Path_947" data-name="Path 947" d="M1329.579,569.316a.651.651,0,1,1-.651-.651A.651.651,0,0,1,1329.579,569.316Z" transform="translate(-1277.481 -563.113)" fill="#fff"/>
      <path id="Path_948" data-name="Path 948" d="M1160.863,546.917a.645.645,0,1,1-.645-.645A.645.645,0,0,1,1160.863,546.917Z" transform="translate(-1145.331 -545.572)" fill="#fff"/>
      <path id="Path_949" data-name="Path 949" d="M1102.159,582.22a.621.621,0,1,1-.621-.621A.621.621,0,0,1,1102.159,582.22Z" transform="translate(-1099.383 -573.245)" fill="#fff"/>
      <path id="Path_950" data-name="Path 950" d="M1140.131,603.113a.614.614,0,1,1-.615-.614A.615.615,0,0,1,1140.131,603.113Z" transform="translate(-1129.138 -589.617)" fill="#fff"/>
      <path id="Path_951" data-name="Path 951" d="M1189.776,584.124a.645.645,0,1,1-.645-.645A.645.645,0,0,1,1189.776,584.124Z" transform="translate(-1167.98 -574.718)" fill="#fff"/>
      <path id="Path_952" data-name="Path 952" d="M1203.415,543.776a.734.734,0,1,1-.734-.734A.734.734,0,0,1,1203.415,543.776Z" transform="translate(-1178.523 -543.042)" fill="#fff"/>
      <path id="Path_953" data-name="Path 953" d="M1102.192,558.09a.63.63,0,1,1-.63-.63A.63.63,0,0,1,1102.192,558.09Z" transform="translate(-1099.396 -554.336)" fill="#fff"/>
    </g>
  </g>
</svg>
