<svg xmlns="http://www.w3.org/2000/svg" width="23" height="23" viewBox="0 0 23 23">
  <g id="그룹_976" data-name="그룹 976" transform="translate(-40.26 -13.408)">
    <g id="그룹_969" data-name="그룹 969" transform="translate(40.26 13.408)">
      <g id="그룹_968" data-name="그룹 968">
        <circle id="타원_446" data-name="타원 446" cx="11.5" cy="11.5" r="11.5" transform="translate(0 23) rotate(-90)" fill="#fdc42d"/>
        <g id="그룹_967" data-name="그룹 967" transform="translate(2.071 3.527)">
          <path id="패스_2311" data-name="패스 2311" d="M59.816,16.56A11.492,11.492,0,0,1,42.111,31.106,11.494,11.494,0,1,0,59.816,16.56Z" transform="translate(-42.111 -16.56)" fill="#fdb431"/>
        </g>
        <path id="패스_2312" data-name="패스 2312" d="M42.681,19.264a8.633,8.633,0,0,1,4.1-3.966" transform="translate(-39.972 -13.183)" fill="none" stroke="#fff" stroke-linecap="round" stroke-linejoin="round" stroke-width="0.5"/>
      </g>
    </g>
    <g id="그룹_974" data-name="그룹 974" transform="translate(46.009 21.317)">
      <g id="그룹_971" data-name="그룹 971">
        <g id="그룹_970" data-name="그룹 970" transform="translate(0.032 2.897)">
          <path id="패스_2313" data-name="패스 2313" d="M48.272,23.984a1.369,1.369,0,0,0-.073-.145,1.265,1.265,0,0,0-.253-.327,1.555,1.555,0,0,0-.773-.413,2.246,2.246,0,0,0-.326-.034,1.619,1.619,0,0,0-1.094.443,1.235,1.235,0,0,0-.326.476A4.122,4.122,0,0,1,48.272,23.984Z" transform="translate(-45.427 -23.065)" fill="#403d3c"/>
        </g>
        <path id="패스_2314" data-name="패스 2314" d="M46.853,23.852h0A1.458,1.458,0,0,1,45.4,22.4v-.468a1.459,1.459,0,0,1,1.455-1.455h0a1.458,1.458,0,0,1,1.454,1.455V22.4A1.457,1.457,0,0,1,46.853,23.852Z" transform="translate(-45.398 -20.476)" fill="#403d3c"/>
        <path id="패스_2315" data-name="패스 2315" d="M45.4,22.181V24.1l.863-.321,1.692.04.316.267.028.018,0-1.807Z" transform="translate(-45.397 -20.273)" fill="#403d3c"/>
      </g>
      <g id="그룹_973" data-name="그룹 973" transform="translate(8.593)">
        <g id="그룹_972" data-name="그룹 972" transform="translate(0.031 2.897)">
          <path id="패스_2316" data-name="패스 2316" d="M55.95,23.984a1.37,1.37,0,0,0-.073-.145,1.265,1.265,0,0,0-.253-.327,1.439,1.439,0,0,0-.47-.317,1.411,1.411,0,0,0-.3-.1,2.23,2.23,0,0,0-.325-.034,1.624,1.624,0,0,0-1.1.443,1.235,1.235,0,0,0-.326.476A4.123,4.123,0,0,1,55.95,23.984Z" transform="translate(-53.105 -23.065)" fill="#403d3c"/>
        </g>
        <path id="패스_2317" data-name="패스 2317" d="M54.531,23.852h0A1.457,1.457,0,0,1,53.077,22.4v-.468a1.458,1.458,0,0,1,1.454-1.455h0a1.458,1.458,0,0,1,1.454,1.455V22.4A1.457,1.457,0,0,1,54.531,23.852Z" transform="translate(-53.077 -20.476)" fill="#403d3c"/>
        <path id="패스_2318" data-name="패스 2318" d="M53.081,22.181V24.1l.863-.321,1.692.04.316.267.028.018,0-1.807Z" transform="translate(-53.076 -20.273)" fill="#403d3c"/>
      </g>
    </g>
    <g id="그룹_975" data-name="그룹 975" transform="translate(47.035 26.409)">
      <path id="패스_2319" data-name="패스 2319" d="M51.072,25.029v0h-.066v0a16.484,16.484,0,0,0-4.692.7s.4,4.957,4.692,4.957h.066c4.3,0,4.693-4.957,4.693-4.957A16.486,16.486,0,0,0,51.072,25.029Z" transform="translate(-46.314 -25.026)" fill="#403d3c"/>
      <path id="패스_2320" data-name="패스 2320" d="M47.7,28.627a6.53,6.53,0,0,1,6.377,0,3.714,3.714,0,0,1-3.2,1.454S48.561,30.015,47.7,28.627Z" transform="translate(-46.149 -24.697)" fill="#ee3555"/>
      <path id="패스_2321" data-name="패스 2321" d="M51.84,25.262l0-.011a15.2,15.2,0,0,0-1.592,0l0,.006a16.349,16.349,0,0,0-3.7.6l.3.957s.023.269.667.074a19.063,19.063,0,0,1,3.232-.469h.584a19.041,19.041,0,0,1,3.232.469c.643.195.668-.074.668-.074l.3-.957A16.342,16.342,0,0,0,51.84,25.262Z" transform="translate(-46.285 -25.002)" fill="#fff"/>
    </g>
  </g>
</svg>
