<svg xmlns="http://www.w3.org/2000/svg" xmlns:xlink="http://www.w3.org/1999/xlink" width="30" height="30" viewBox="0 0 30 30">
  <defs>
    <clipPath id="clip-path">
      <rect id="사각형_886" data-name="사각형 886" width="30" height="30" transform="translate(253 211)" fill="#2c93e8"/>
    </clipPath>
  </defs>
  <g id="ico_" transform="translate(-253 -211)" clip-path="url(#clip-path)">
    <path id="create" d="M25.607,4.393A15,15,0,0,0,4.393,25.607a.877.877,0,0,0,.772.244h0l7.1-1.244a.879.879,0,0,0,.47-.244L24.159,12.942a.879.879,0,0,0,0-1.243L18.3,5.84a.879.879,0,0,0-1.243,0L5.636,17.261a.879.879,0,0,0-.244.47l-.927,5.295A13.243,13.243,0,1,1,15,28.242.879.879,0,0,0,15,30,15,15,0,0,0,25.607,4.393ZM6.832,19.7,10.3,23.167,6.1,23.9Zm5.284,2.8L10.43,20.813,20.608,10.634l1.686,1.686ZM17.679,7.7l1.687,1.687L9.187,19.57,7.5,17.883Z" transform="translate(253 211)" fill="#2c93e8"/>
  </g>
</svg>
