<svg xmlns="http://www.w3.org/2000/svg" width="18" height="18" viewBox="0 0 18 18">
  <g id="그룹_1152" data-name="그룹 1152" transform="translate(-1170 -219)">
    <g id="타원_471" data-name="타원 471" transform="translate(1170 219)" fill="#e8ebed" stroke="#c9cdd2" stroke-width="1">
      <circle cx="9" cy="9" r="9" stroke="none"/>
      <circle cx="9" cy="9" r="8.5" fill="none"/>
    </g>
    <path id="합치기_8" data-name="합치기 8" d="M-808.636,5275.778l-2.121-2.121-2.121,2.121a1,1,0,0,1-1.414,0,1,1,0,0,1,0-1.414l2.121-2.122-2.121-2.121a1,1,0,0,1,0-1.414,1,1,0,0,1,1.414,0l2.121,2.121,2.121-2.121a1,1,0,0,1,1.414,0,1,1,0,0,1,0,1.414l-2.121,2.121,2.121,2.122a1,1,0,0,1,0,1.414,1,1,0,0,1-.707.293A1,1,0,0,1-808.636,5275.778Z" transform="translate(1989.757 -5044.414)" fill="#72787f"/>
  </g>
</svg>
