<svg width="31" height="23" viewBox="0 0 31 23" fill="none" xmlns="http://www.w3.org/2000/svg">
<rect width="30" height="22" transform="translate(0.484375 0.867859)" fill="url(#paint0_linear_4_18)"/>
<g clip-path="url(#clip0_4_18)">
<path d="M6.4827 9.83829V6.70392H8.30512V11.4568C8.30512 11.5279 8.19742 11.5595 8.14312 11.5049L6.4827 9.83829Z" fill="white"/>
<path d="M11.0381 15.276V6.70392H9.21625V16.8949C9.21625 16.9657 9.32424 16.9979 9.37854 16.9433L11.0381 15.276Z" fill="white"/>
<path d="M14.0742 6.70392H12.2526V16.971H14.0742V6.70392Z" fill="white"/>
<path d="M15.1474 6.73194C15.0925 6.67705 14.9848 6.70922 14.9848 6.78004V11.4515C14.9848 11.5226 15.0925 11.5542 15.1474 11.4996L16.8069 9.83265V8.39827L15.1474 6.73194Z" fill="white"/>
<path d="M15.1474 12.1751C15.0925 12.1202 14.9848 12.1523 14.9848 12.2231V16.8949C14.9848 16.966 15.0925 16.9979 15.1474 16.9433L16.8069 15.2764V13.8417L15.1474 12.1751Z" fill="white"/>
<path d="M19.6214 8.39858V16.971H17.7996V6.77975C17.7996 6.70893 17.9073 6.67677 17.9616 6.73136L19.6214 8.39858Z" fill="white"/>
<path d="M22.0508 8.39858L22.0688 16.9719H20.2293V6.77975C20.2293 6.70893 20.337 6.67677 20.3913 6.73136L22.0508 8.39858Z" fill="white"/>
<path d="M24.4791 8.39858V16.971H22.6575V6.77975C22.6575 6.70893 22.7652 6.67677 22.8198 6.73136L24.4791 8.39858Z" fill="white"/>
</g>
<defs>
<linearGradient id="paint0_linear_4_18" x1="0" y1="0" x2="33.1336" y2="15.1441" gradientUnits="userSpaceOnUse">
<stop stop-color="#F85C55"/>
<stop offset="1" stop-color="#126BCA"/>
</linearGradient>
<clipPath id="clip0_4_18">
<rect width="18" height="10.3279" fill="white" transform="translate(6.48438 6.70392)"/>
</clipPath>
</defs>
</svg>
