<svg xmlns="http://www.w3.org/2000/svg" xmlns:xlink="http://www.w3.org/1999/xlink" width="25" height="25" viewBox="0 0 25 25">
  <defs>
    <clipPath id="clip-path">
      <rect id="사각형_165" data-name="사각형 165" width="25" height="25" fill="#222" stroke="#707070" stroke-width="1"/>
    </clipPath>
  </defs>
  <g id="ico_chat" clip-path="url(#clip-path)">
    <g id="chat" transform="translate(0 0.823)">
      <path id="패스_127" data-name="패스 127" d="M16.125,5.575A8.5,8.5,0,0,0,0,9.3a8.378,8.378,0,0,0,.81,3.62L.014,16.9a.726.726,0,0,0,.853.854l4.03-.8a8.35,8.35,0,0,0,1.681.588A9.931,9.931,0,0,1,16.125,5.575Z" transform="translate(0 -0.83)" fill="#ff5c5c"/>
      <path id="패스_128" data-name="패스 128" d="M24.038,19.168a8.444,8.444,0,0,0,.363-.9h-.027A8.478,8.478,0,0,0,16.749,7.09h0a8.469,8.469,0,1,0-.407,16.928,8.376,8.376,0,0,0,3.609-.81c4.414.873,4.07.811,4.171.811a.726.726,0,0,0,.712-.868Z" transform="translate(-0.07 -0.885)" fill="#0f3653"/>
    </g>
  </g>
</svg>
