<svg xmlns="http://www.w3.org/2000/svg" xmlns:xlink="http://www.w3.org/1999/xlink" width="50" height="50" viewBox="0 0 50 50">
  <defs>
    <clipPath id="clip-path">
      <circle id="SVGID" cx="24" cy="24" r="24" transform="translate(0.001)" fill="none"/>
    </clipPath>
  </defs>
  <g id="profile." transform="translate(0.001)">
    <circle id="profile" cx="25" cy="25" r="25" transform="translate(-0.001)" fill="#e8ebed"/>
    <g id="그룹_679" data-name="그룹 679" transform="translate(1 1)">
      <g id="그룹_678" data-name="그룹 678" transform="translate(0 0)" clip-path="url(#clip-path)">
        <g id="그룹_677" data-name="그룹 677" transform="translate(5.706 8.764)">
          <g id="그룹_674" data-name="그룹 674" transform="translate(24.086 26.347)">
            <path id="패스_977" data-name="패스 977" d="M1886.751-50.765s7.866,2.312,6.875,13.2c0,0-2.984.973-4.711-.184Z" transform="translate(-1885.969 51.647)" fill="#597582"/>
            <path id="패스_978" data-name="패스 978" d="M1889.831-38.061a4.659,4.659,0,0,1-2.594-.67l-.225-.15-2.372-14.265.958.282c.083.024,8.348,2.588,7.322,13.854l-.037.411-.392.128A9.5,9.5,0,0,1,1889.831-38.061Zm-1.676-1.582a5.775,5.775,0,0,0,3.553.09c.535-7.615-3.543-10.672-5.48-11.684Z" transform="translate(-1884.641 53.147)" fill="#24221e"/>
          </g>
          <path id="패스_979" data-name="패스 979" d="M1839.01-54.014a39.254,39.254,0,0,0-3.676,9.718,39.189,39.189,0,0,0-.86,5.286c-.074.789-.777,2.205-.463,2.955.374.894,2.341,1.248,3.244,1.525a27.279,27.279,0,0,0,8.169,1.2,2.987,2.987,0,0,0,1.42-.257c.842-.457,1.132-1.586,1.962-2.066a17.031,17.031,0,0,0,1.054,2.275c.234.422,3.469-1,3.829-1.148,2.152-.865,2.453-2.4,2.42-4.708a46.613,46.613,0,0,0-2.537-14.491" transform="translate(-1828.63 80.04)" fill="#597582"/>
          <path id="패스_980" data-name="패스 980" d="M1837.5-55.3a40.1,40.1,0,0,0-3.033,7.257,39.675,39.675,0,0,0-.977,3.873q-.2,1.014-.35,2.037c-.1.706-.211,1.421-.256,2.133-.007.1.025-.123-.005.028-.009.044-.017.089-.026.133-.025.112-.054.224-.085.335-.065.236-.137.47-.2.706a4.044,4.044,0,0,0-.214,1.471c.111,1.057,1.069,1.54,1.972,1.859.413.146.836.258,1.259.371.509.136,1.01.3,1.519.431a28.4,28.4,0,0,0,4.041.756q1,.116,2.01.157a12.365,12.365,0,0,0,1.936-.013,2.612,2.612,0,0,0,1.678-.8,6.318,6.318,0,0,0,.5-.646c.068-.1.136-.192.2-.288.031-.044.063-.087.1-.131.056-.074-.051.063.007-.009l.068-.083a2.777,2.777,0,0,1,.236-.25c.038-.036.078-.071.119-.1-.089.069.078-.044.1-.057l-.862-.351a18.842,18.842,0,0,0,.768,1.762c.189.378.353.873.808.99a1.85,1.85,0,0,0,.846-.049,7.977,7.977,0,0,0,.835-.244c.6-.2,1.2-.441,1.782-.686a8.991,8.991,0,0,0,1.589-.754,3.838,3.838,0,0,0,1.488-1.884,7.145,7.145,0,0,0,.342-2.426,43.965,43.965,0,0,0-.588-7.18,46.733,46.733,0,0,0-1.972-7.913.6.6,0,0,0-.722-.41.593.593,0,0,0-.41.722,46.083,46.083,0,0,1,2.5,13.518c.016.493.029.987.018,1.48,0,.19-.012.38-.026.569q-.011.148-.027.294c0,.025-.024.187,0,.034-.006.046-.013.093-.02.139a5.061,5.061,0,0,1-.114.531q-.028.1-.063.209c-.014.041-.028.081-.043.121s-.091.2-.021.056a3.789,3.789,0,0,1-.216.406c-.038.059-.078.116-.119.173-.082.117.084-.093-.012.014-.038.043-.074.087-.113.129a3.253,3.253,0,0,1-.359.33c.112-.09-.012.007-.031.02-.039.028-.078.054-.119.081-.083.054-.168.105-.255.154s-.186.1-.28.143l-.15.068c.088-.038,0,0-.017.007l-.177.074c-.476.2-.953.4-1.435.582-.33.126-.661.246-1,.352-.148.047-.3.091-.448.129-.071.017-.141.034-.213.048l-.083.016c-.088.017-.04-.04.053-.006a.586.586,0,0,0-.155.01c-.151.009.14.036.037.007-.057-.016-.068-.049.09.04-.084-.047.242.162.162.165-.036,0-.185-.341-.21-.39a16.064,16.064,0,0,1-.784-1.744.6.6,0,0,0-.863-.35,3.771,3.771,0,0,0-1.092,1.119c-.069.1-.135.192-.2.288l-.1.131c-.04.054,0,0,.01-.012l-.067.083a3.028,3.028,0,0,1-.232.252q-.057.054-.117.1c-.051.043.007-.006.016-.011-.036.025-.072.049-.11.072a.81.81,0,0,1-.262.118c-.063.019-.127.035-.191.048a.832.832,0,0,1-.172.027c-.3.029-.6.025-.9.023q-.97-.006-1.939-.081a25.929,25.929,0,0,1-3.79-.579c-1-.228-1.99-.526-2.981-.8-.216-.06-.432-.125-.645-.2-.095-.032-.189-.066-.282-.1-.021-.008-.15-.06-.089-.034s-.01,0-.02-.009l-.109-.05c-.084-.04-.166-.081-.246-.127-.045-.025-.089-.052-.133-.08-.021-.014-.144-.1-.08-.051s-.034-.029-.051-.044-.058-.053-.084-.081c-.048-.051-.074-.1-.016-.01l-.067-.106c-.009-.015-.015-.033-.024-.047,0,.007.032.111.024.051a.915.915,0,0,0-.037-.14c.031.089.005.056,0-.019,0-.054,0-.108,0-.163s.005-.1.01-.146c0-.019.016-.123,0-.047s0-.015,0-.024c.021-.115.043-.228.071-.342.11-.459.269-.906.373-1.367.131-.583.146-1.2.221-1.79.079-.619.181-1.261.294-1.887q.347-1.916.881-3.792a38.231,38.231,0,0,1,2.7-6.907q.212-.416.434-.827a.6.6,0,0,0-.211-.8.594.594,0,0,0-.8.211" transform="translate(-1827.629 81.032)" fill="#24221e"/>
          <path id="패스_981" data-name="패스 981" d="M1857.5-45.669a14.375,14.375,0,0,1,1.168,2.541,16.675,16.675,0,0,0,3.66,5.44,1.028,1.028,0,0,0,.721.389c.327-.018.554-.323.727-.6a29.034,29.034,0,0,0,3.986-10.595" transform="translate(-1843.465 76.566)" fill="#fff"/>
          <path id="패스_982" data-name="패스 982" d="M1855.988-46.36a10.7,10.7,0,0,1,.964,2.043,18.752,18.752,0,0,0,.984,2.119,17.3,17.3,0,0,0,2.691,3.653,2.977,2.977,0,0,0,.905.737,1.193,1.193,0,0,0,1.265-.2,3.27,3.27,0,0,0,.663-.885q.307-.509.594-1.029A30.018,30.018,0,0,0,1866-44.227a29.108,29.108,0,0,0,1.326-5.1.6.6,0,0,0-.41-.722.594.594,0,0,0-.722.41,28.663,28.663,0,0,1-2.724,8.326q-.5.98-1.074,1.921c-.081.133-.159.27-.252.395.054-.072-.073.076-.09.094-.036.038-.028.061-.007.009l-.045.027c.054-.018.06-.021.02-.008-.057.025.011.006.025,0-.086.02-.064,0-.019,0-.1-.011-.054-.023-.023-.006a.966.966,0,0,1-.1-.064c.057.041-.1-.093-.117-.107-.063-.06-.124-.122-.185-.184a15.714,15.714,0,0,1-2.5-3.3q-.29-.506-.544-1.032c-.179-.37-.315-.685-.455-1.036A12.789,12.789,0,0,0,1857-46.952a.6.6,0,0,0-.8-.21.593.593,0,0,0-.21.8" transform="translate(-1842.464 77.553)" fill="#24221e"/>
          <path id="패스_983" data-name="패스 983" d="M1868.537-43.694c.262-1.029.822-2.134.212-3.111-.86-1.38-2.125-.327-3.2.341a.435.435,0,0,0-.213.222c-.223.792,1.178,2.428,1.561,3.091a1.217,1.217,0,0,1,.2.52,1.153,1.153,0,0,1-.09.444A11.16,11.16,0,0,1,1865.953-40c-.519.83,1,1.861,1.527,2.419.054.058.125.122.2.1a.225.225,0,0,0,.11-.089c.5-.623,1-1.244,1.5-1.871.029-.036.987-1.451.333-1.451l-1-1.889a1.264,1.264,0,0,1-.146-.36,1.263,1.263,0,0,1,.054-.53q0-.014.007-.029" transform="translate(-1848.387 75.927)" fill="#24221e"/>
          <path id="패스_984" data-name="패스 984" d="M1868.088-44.529c.262-1.007.752-2.077.364-3.121a2.245,2.245,0,0,0-.986-1.214,1.807,1.807,0,0,0-1.315-.123,4.4,4.4,0,0,0-1.175.553c-.172.106-.341.218-.511.328a1.686,1.686,0,0,0-.63.529c-.381.687.135,1.587.494,2.17s.81,1.1,1.124,1.7c.009.017.066.135.029.06.005.02.011.04.017.06,0-.056,0-.045,0,.031.018-.1-.03.105-.028.1-.013.042-.027.083-.041.124-.09.26-.182.489-.288.725s-.224.475-.349.707-.279.455-.4.691c-.417.818.159,1.62.724,2.185.251.252.524.479.782.723a1.34,1.34,0,0,0,.557.4c.438.113.69-.181.93-.482.4-.5.807-1,1.207-1.508a4.842,4.842,0,0,0,.448-.662,2.657,2.657,0,0,0,.373-1.013.8.8,0,0,0-.808-.9l.507.291-.714-1.349c-.11-.209-.228-.415-.331-.627-.017-.036-.019-.039-.007-.009-.006-.02-.013-.041-.02-.061.014.062,0-.052,0-.073,0-.041,0-.044,0-.011l.013-.066c.013-.054.025-.107.039-.16a.6.6,0,0,0-.41-.722.6.6,0,0,0-.722.41,1.859,1.859,0,0,0-.054.9,3.7,3.7,0,0,0,.376.806l.821,1.551a.59.59,0,0,0,.507.291c.111,0-.146-.032-.055-.006a.438.438,0,0,1-.257-.2c-.005-.009-.058-.163-.034-.074.016.059-.021-.181-.015-.063s-.008-.054.01-.063a.752.752,0,0,0-.021.087c-.016.059-.041.114-.058.172s.057-.121.01-.027c-.016.032-.03.066-.046.1-.032.064-.064.127-.1.189-.054.1-.112.2-.172.292-.033.052-.067.1-.1.153,0,0,.112-.141-.009.009l-.12.151-.265.332q-.264.332-.532.663l-.29.362-.145.18-.049.06c-.044.051-.042.05.009,0l.3-.08c.305,0,.252.132.19.046a.472.472,0,0,0-.049-.049l-.1-.091c-.083-.078-.168-.154-.253-.231-.187-.168-.374-.336-.549-.515-.08-.081-.159-.165-.233-.253-.021-.024-.04-.049-.061-.073.077.087.022.03.007.007-.039-.056-.077-.11-.112-.169-.025-.043-.046-.087-.07-.132.059.109.006.01-.012-.047a.308.308,0,0,0-.014-.056c-.033-.061-.007.113.005.044a.2.2,0,0,0,0-.056c-.025-.089-.031.1,0,.01a.255.255,0,0,0,.015-.054c0-.057-.062.067-.014.033s.076-.127.1-.175q.149-.245.285-.5c.182-.339.344-.686.493-1.04a3.849,3.849,0,0,0,.368-1.143,1.692,1.692,0,0,0-.313-1.008c-.227-.37-.493-.715-.736-1.075-.145-.214-.286-.433-.413-.658-.059-.1-.115-.209-.167-.317-.013-.026-.073-.163-.045-.094s0-.011-.011-.03-.024-.065-.036-.1c-.019-.059-.084-.2-.066-.261-.014.049.007.125.009.052,0-.021,0-.045,0-.066a.535.535,0,0,0,0-.064c.026.028-.052.145,0,.05.034-.066-.068.135-.063.116-.01.039-.049.032.011,0s.121-.076.18-.114l.369-.239a7.378,7.378,0,0,1,.707-.412c.023-.011.212-.093.1-.047.054-.021.108-.041.164-.06s.107-.033.162-.046l.092-.019c-.074.016-.071,0,0,0a1.9,1.9,0,0,1,.2,0c-.13-.008,0,.011.062.026.1.024.008,0-.014-.008l.1.058c.021.013.041.027.061.041-.1-.074.03.034.04.044s.134.158.1.107a1.841,1.841,0,0,1,.157.26,1.332,1.332,0,0,1,.068.2c.009.033.041.228.034.157a2.3,2.3,0,0,1,.007.286c0,.032,0,.064-.005.1,0,0-.016.15-.011.114-.016.118-.069.345-.111.5-.1.387-.235.767-.336,1.155a.6.6,0,0,0,.41.722.6.6,0,0,0,.722-.41" transform="translate(-1847.372 76.917)" fill="#24221e"/>
          <path id="패스_985" data-name="패스 985" d="M1854.226-53.659a3.1,3.1,0,0,0,1.855,3.974,4.1,4.1,0,0,0,1.87-.029,3.885,3.885,0,0,0,1.06-.345,2.748,2.748,0,0,0,1.379-2.435,2.847,2.847,0,0,0,2.236,2.726,2.754,2.754,0,0,0,2.923-1.829,3.288,3.288,0,0,0-.971-3.52" transform="translate(-1841.285 80.734)" fill="#fff"/>
          <path id="패스_986" data-name="패스 986" d="M1852.658-54.8a3.755,3.755,0,0,0,1.076,4.048,3.273,3.273,0,0,0,2.35.759,4.638,4.638,0,0,0,2.756-.92,3.385,3.385,0,0,0,1.135-2.567H1858.8a3.359,3.359,0,0,0,3.412,3.334,3.458,3.458,0,0,0,3.079-3.713,3.854,3.854,0,0,0-1.3-2.658.6.6,0,0,0-.83,0,.592.592,0,0,0,0,.831,2.943,2.943,0,0,1,.354.346c-.007-.008.106.132.058.07s.029.041.037.052c.059.084.113.171.163.26q.055.1.1.2c0-.01.069.158.039.084s.036.1.032.088a3.353,3.353,0,0,1,.142.519c.009.047.017.093.024.14,0-.026-.01-.105,0,.013.006.075.012.151.014.226,0,.094,0,.188,0,.282,0,.037-.006.075-.009.113-.014.179.024-.109-.009.067a3.027,3.027,0,0,1-.127.489c-.013.036-.026.071-.041.107.037-.087,0,0-.01.016-.048.092-.094.183-.149.271-.044.071-.092.141-.143.207.057-.074,0,0-.013.012-.031.034-.061.07-.092.1q-.085.091-.178.174l-.084.072c-.1.087.045-.024-.055.042a4.139,4.139,0,0,1-.423.249c-.1.051-.033.016-.009.006-.042.017-.084.033-.126.047a2.626,2.626,0,0,1-.284.082c-.039.009-.227.037-.108.024a2.49,2.49,0,0,1-.268.015c-.071,0-.143,0-.214-.01-.117-.009-.029,0,0,0-.052-.01-.1-.02-.157-.032-.087-.021-.171-.05-.256-.078-.02-.006-.1-.043-.009,0l-.1-.046a2.563,2.563,0,0,1-.235-.133c-.031-.019-.061-.039-.091-.06-.006,0-.142-.111-.056-.04a3.627,3.627,0,0,1-.392-.387c-.117-.131.033.049-.028-.034-.033-.045-.065-.091-.1-.137-.056-.086-.108-.174-.155-.266-.017-.033-.033-.067-.049-.1-.077-.156.03.1-.028-.066-.031-.089-.062-.177-.086-.267s-.044-.182-.059-.275c.018.109,0-.013,0-.04-.006-.066-.008-.132-.009-.2a.6.6,0,0,0-.587-.587.6.6,0,0,0-.587.587c0,.089,0,.177-.009.265,0,.014-.016.135-.006.068s-.01.053-.013.067a2.843,2.843,0,0,1-.146.5c-.035.091.033-.067-.009.02-.021.044-.042.087-.064.13q-.054.1-.116.2c-.021.032-.042.064-.064.1-.008.011-.065.09-.011.019a2.338,2.338,0,0,1-.188.213c-.053.054-.109.1-.166.154-.085.075-.035.029-.013.013q-.045.033-.092.064a1.932,1.932,0,0,1-.437.223,5.515,5.515,0,0,1-1.13.255,2.9,2.9,0,0,1-1.15-.061c-.062-.018-.122-.04-.183-.062.116.042-.039-.019-.079-.039a2.4,2.4,0,0,1-.367-.232c.1.076-.042-.039-.068-.064-.055-.05-.108-.1-.158-.155s-.089-.1-.131-.149c-.011-.013-.075-.1-.031-.039s-.047-.068-.056-.082a3.443,3.443,0,0,1-.217-.369c-.031-.06-.06-.122-.086-.184.01.022.038.1,0,0-.016-.048-.035-.1-.051-.144a3.8,3.8,0,0,1-.117-.468c0-.018-.019-.125-.009-.047s-.005-.057-.006-.073c-.008-.084-.011-.168-.012-.252s0-.168.01-.252c0-.034.007-.067.01-.1-.014.141.006-.023.01-.043a2.745,2.745,0,0,1,.142-.483.589.589,0,0,0-.41-.722.6.6,0,0,0-.722.41" transform="translate(-1840.283 81.721)" fill="#24221e"/>
          <g id="그룹_675" data-name="그룹 675" transform="translate(4.014 24.892)">
            <path id="패스_987" data-name="패스 987" d="M1838.81-55.383s-7.284,1.849-6.62,7.932c.861,7.88,5.048,8.975,5.048,8.975l3.681-3.389s-3.368-2.872-3.173-6.081" transform="translate(-1831.521 56.009)" fill="#597582"/>
            <path id="패스_988" data-name="패스 988" d="M1836.174-38.913a.623.623,0,0,1-.158-.02c-.188-.049-4.615-1.3-5.513-9.513-.715-6.548,7.01-8.587,7.088-8.607a.626.626,0,0,1,.761.453.626.626,0,0,1-.452.761h0c-.276.071-6.749,1.795-6.151,7.257.671,6.136,3.379,7.9,4.287,8.32l2.9-2.672c-.99-1-3.044-3.407-2.879-6.114a.624.624,0,0,1,.663-.587.626.626,0,0,1,.586.663c-.174,2.854,2.923,5.54,2.954,5.567a.627.627,0,0,1,.219.465.626.626,0,0,1-.2.472l-3.681,3.389A.626.626,0,0,1,1836.174-38.913Z" transform="translate(-1830.457 57.073)" fill="#24221e"/>
          </g>
          <path id="패스_989" data-name="패스 989" d="M1843.661-16.3c1.168-3.549,6.313-3.452,6.776.47a1.46,1.46,0,0,1-.817,1.555c-.594.216-1.376-.322-1.238-.939a.916.916,0,0,1-.656,1.075.917.917,0,0,1-1.062-.679.976.976,0,0,1-.477,1.08.644.644,0,0,1-.894-.563,1.07,1.07,0,0,1-1.52-.3,1.979,1.979,0,0,1-.112-1.7" transform="translate(-1834.669 57.915)" fill="#ffe3d4"/>
          <path id="패스_990" data-name="패스 990" d="M1842.118-17.494a4.383,4.383,0,0,1,1.9-2.382,4.172,4.172,0,0,1,2.668-.547,3.827,3.827,0,0,1,2.432,1.308,4.071,4.071,0,0,1,.744,1.407,2.887,2.887,0,0,1,.049,1.849,1.7,1.7,0,0,1-1.789,1.2,1.486,1.486,0,0,1-1.313-1.6.6.6,0,0,1,.556-.535.591.591,0,0,1,.607.476,1.513,1.513,0,0,1-1.13,1.758,1.518,1.518,0,0,1-1.745-1.152l1.156-.21a1.524,1.524,0,0,1-1.042,1.794,1.232,1.232,0,0,1-1.491-1.218l.972.489a1.652,1.652,0,0,1-2.247-.23,2.46,2.46,0,0,1-.325-2.406.6.6,0,0,1,.748-.36.6.6,0,0,1,.36.748,1.979,1.979,0,0,0-.107.651,1.741,1.741,0,0,0,.062.354c-.03-.094.034.071.039.08s.1.163.037.076a1.272,1.272,0,0,0,.109.124c-.076-.076.046.031.058.039s.156.078.061.038a1.382,1.382,0,0,0,.156.055c-.1-.029.044,0,.068.006.116.021-.045.023.061,0a.9.9,0,0,0,.1-.021c-.058.02-.067.021-.026,0a.7.7,0,0,0,.071-.036c-.057.038-.057.036,0-.009a.594.594,0,0,1,.971.489c0-.047-.015-.074,0-.011-.039-.166.028.029-.019-.048s.055.032-.01-.009.043.029.057.038c-.059-.04-.046,0,0,0l.047.015c-.059-.01-.068-.013-.026-.007.017,0,.11.022.046,0-.036,0-.037,0,0,0s.032,0-.034.013c.04-.031.059-.033.01,0a.883.883,0,0,0,.081-.071c-.073.071,0-.013.017-.034.05-.071-.025.069.008-.013a1.027,1.027,0,0,0,.044-.132c-.015.06,0,.018,0-.019,0-.013.006-.157.008-.092s-.014-.091-.015-.091a.6.6,0,0,1,.473-.682.6.6,0,0,1,.682.472c.036.144-.053-.084.02.045.031.055.029.038-.005,0a1.33,1.33,0,0,0,.1.115c-.063-.057-.01-.016.028.01s-.073-.018.026.016c0,0,.143.043.074.029s.065,0,.079.005c-.11-.009.02-.006.053-.012-.08.014-.035.015.02-.012s.08-.063.02-.009c.011-.01.113-.1.062-.049s.036-.053.045-.065c.073-.093-.006.062.026-.051,0-.014.038-.146.025-.075s0-.08,0-.08c0,.1-.007-.011-.016-.052l1.163-.059c-.005.029-.011.179-.017.106-.007-.1.043.122.005.022-.03-.08.04.068.049.086-.059-.106.01-.018.041.029s-.017-.015-.029-.023c.026.017.05.038.076.055.043.029.122.054.031.024.052.017.106.034.157.054s-.02-.007-.031-.007a.879.879,0,0,1,.094.009c.043.006.083-.021-.011,0,.02-.005.051,0,.069-.011.054-.031-.026.013-.036.017.026-.01.051-.02.077-.032s.161-.109.078-.039c.021-.018.042-.034.063-.052s.086-.082.045-.039.027-.036.036-.048.032-.045.046-.068.074-.142.038-.061a1.861,1.861,0,0,0,.069-.184c.008-.027.016-.054.023-.082-.016.059,0,.016,0-.02.008-.066.016-.131.018-.2,0-.028,0-.056,0-.084,0,.027.012.1,0-.016s-.033-.235-.056-.352-.046-.206-.075-.307c-.006-.022-.051-.156-.024-.083s0,0-.006-.013c-.014-.035-.027-.071-.041-.107a3.91,3.91,0,0,0-.266-.531c-.059-.1.061.083-.007-.01-.028-.039-.056-.08-.086-.118-.058-.076-.12-.15-.185-.22s-.124-.123-.186-.185c.066.067.047.04-.007,0s-.083-.066-.125-.1c-.069-.051-.14-.1-.213-.144l-.1-.06c-.019-.011-.167-.086-.089-.049s-.058-.026-.075-.033l-.109-.044c-.085-.034-.171-.063-.258-.09-.044-.013-.088-.025-.132-.037-.021-.005-.145-.034-.06-.016s-.054-.01-.08-.014l-.136-.02a4.175,4.175,0,0,0-.532-.027c-.1,0,.109-.011-.026,0l-.119.011q-.139.014-.276.04t-.254.056l-.135.038c-.134.039.073-.029-.023.007a4.193,4.193,0,0,0-.519.232c-.042.023-.083.046-.125.071l-.053.032c-.118.07.076-.055.01-.008-.084.061-.17.12-.251.186s-.161.137-.237.21c-.041.04-.08.081-.12.122-.094.1.034-.047-.029.031a4.241,4.241,0,0,0-.392.567c-.026.047-.052.094-.076.142.057-.112-.017.04-.033.078-.052.119-.1.239-.138.362a.6.6,0,0,1-.748.36.594.594,0,0,1-.36-.748" transform="translate(-1833.68 58.915)" fill="#24221e"/>
          <path id="패스_991" data-name="패스 991" d="M1896.269-19.343c-1.167-3.549-6.312-3.452-6.776.47a1.459,1.459,0,0,0,.817,1.555c.594.216,1.376-.322,1.238-.939a.917.917,0,0,0,.657,1.075.917.917,0,0,0,1.062-.679.974.974,0,0,0,.477,1.08.644.644,0,0,0,.894-.563,1.07,1.07,0,0,0,1.52-.3,1.979,1.979,0,0,0,.111-1.7" transform="translate(-1863.602 59.83)" fill="#ffe3d4"/>
          <path id="패스_992" data-name="패스 992" d="M1895.833-20.537a4.384,4.384,0,0,0-1.9-2.382,4.171,4.171,0,0,0-2.668-.547,3.826,3.826,0,0,0-2.432,1.308,4.07,4.07,0,0,0-.744,1.407,2.889,2.889,0,0,0-.049,1.849,1.7,1.7,0,0,0,1.789,1.2,1.486,1.486,0,0,0,1.313-1.6.6.6,0,0,0-.556-.535.591.591,0,0,0-.607.476,1.514,1.514,0,0,0,1.13,1.758,1.517,1.517,0,0,0,1.744-1.152l-1.156-.21a1.524,1.524,0,0,0,1.043,1.794,1.232,1.232,0,0,0,1.491-1.218l-.972.489a1.652,1.652,0,0,0,2.247-.23,2.46,2.46,0,0,0,.325-2.406.6.6,0,0,0-.748-.36.6.6,0,0,0-.36.748,1.982,1.982,0,0,1,.107.651,1.759,1.759,0,0,1-.061.354c.03-.094-.034.071-.039.08s-.1.163-.037.076a1.321,1.321,0,0,1-.109.124c.076-.076-.046.031-.059.039s-.156.078-.061.038a1.319,1.319,0,0,1-.156.055c.1-.029-.044,0-.067.006-.115.021.044.023-.061,0a.881.881,0,0,1-.1-.021c.058.02.066.021.026,0a.665.665,0,0,1-.071-.036c.057.038.057.036,0-.009a.594.594,0,0,0-.971.49c0-.047.015-.075,0-.011.039-.166-.028.029.019-.047s-.056.031.01-.009-.043.029-.057.038c.059-.04.046,0,0,0l-.046.015c.059-.01.068-.013.026-.007-.017,0-.11.022-.046,0,.035,0,.037,0,0,0s-.032-.005.033.013c-.04-.031-.059-.033-.009,0a.772.772,0,0,1-.082-.071c.073.071,0-.013-.017-.034-.05-.071.024.069-.008-.013a1.01,1.01,0,0,1-.045-.132c.015.06,0,.018,0-.019,0-.013-.007-.157-.008-.092s.014-.091.014-.09a.6.6,0,0,0-.473-.683.6.6,0,0,0-.683.472c-.035.144.053-.084-.019.045-.031.055-.03.038.005,0a1.414,1.414,0,0,1-.1.115c.063-.057.01-.016-.029.01s.073-.018-.027.016c0,0-.143.043-.075.029s-.064,0-.079.005c.11-.009-.02-.006-.052-.012.08.014.035.015-.02-.012s-.081-.063-.021-.009c-.011-.01-.113-.1-.062-.049s-.036-.053-.045-.065c-.073-.093.006.062-.026-.05,0-.014-.038-.147-.025-.076s0-.08,0-.08c0,.1.007-.011.016-.052l-1.163-.059c.006.029.011.179.017.106.007-.1-.043.122-.005.022.03-.08-.04.068-.05.086.059-.106-.01-.018-.041.029s.017-.015.028-.023c-.026.017-.05.038-.076.055-.043.029-.122.054-.031.024-.052.017-.106.034-.157.054s.02-.007.031-.007a.879.879,0,0,0-.093.009c-.043.006-.083-.021.011,0a.318.318,0,0,1-.069-.011c-.054-.032.026.013.036.017-.026-.01-.051-.02-.077-.032s-.161-.109-.078-.039c-.021-.018-.042-.034-.062-.052s-.086-.082-.045-.039-.027-.036-.036-.048-.032-.044-.047-.068-.073-.142-.038-.061a1.888,1.888,0,0,1-.069-.184c-.008-.027-.016-.054-.023-.082.016.059,0,.016,0-.02-.008-.066-.016-.131-.018-.2,0-.028,0-.056,0-.084,0,.027-.013.1,0-.016s.032-.235.056-.352.045-.206.074-.307c.006-.023.051-.156.024-.083s0,0,.006-.013c.014-.036.026-.071.041-.107a3.87,3.87,0,0,1,.266-.531c.058-.1-.061.083.006-.01.029-.039.056-.08.086-.118.058-.076.12-.15.186-.22s.125-.123.186-.185c-.067.067-.047.04.007,0s.083-.066.125-.1c.069-.051.14-.1.213-.144l.1-.06c.02-.011.168-.086.089-.049s.058-.026.075-.033l.109-.045q.127-.05.259-.09c.044-.013.088-.025.132-.037.021-.005.145-.034.06-.016s.054-.01.08-.014c.045-.007.09-.014.136-.02a4.174,4.174,0,0,1,.532-.027c.1,0-.109-.011.026,0l.119.011q.139.014.276.04c.086.016.17.034.254.056l.135.038c.134.039-.073-.029.023.007a4.17,4.17,0,0,1,.519.232c.042.023.084.046.124.071l.053.032c.119.07-.075-.055-.01-.008.085.061.17.12.251.186s.161.137.236.21c.041.04.081.081.12.122.094.1-.034-.047.029.031a4.22,4.22,0,0,1,.392.567c.026.047.052.094.076.142-.057-.112.017.04.033.078.052.119.1.239.138.362a.6.6,0,0,0,.748.36.6.6,0,0,0,.36-.748" transform="translate(-1862.613 60.83)" fill="#24221e"/>
          <g id="그룹_676" data-name="그룹 676">
            <path id="패스_993" data-name="패스 993" d="M1841.676-115.791a10.584,10.584,0,0,0,3.238.008,3.58,3.58,0,0,0,2.567-1.8,13.9,13.9,0,0,0,5.422,3.57,13.407,13.407,0,0,0,4.406,1.256,5.96,5.96,0,0,0,3.012-.578,13.706,13.706,0,0,0-12.992-9.346,13.707,13.707,0,0,0-13.091,9.656,7.792,7.792,0,0,0,7.438-2.762" transform="translate(-1828.823 123.272)" fill="#893825"/>
            <path id="패스_994" data-name="패스 994" d="M1856.7-113.16c-.141,0-.283,0-.425-.013a13.954,13.954,0,0,1-4.6-1.3,15.774,15.774,0,0,1-5.117-3.154,4.461,4.461,0,0,1-2.521,1.424,10.25,10.25,0,0,1-3.1.034,8.446,8.446,0,0,1-7.8,2.723.585.585,0,0,1-.4-.272.587.587,0,0,1-.061-.479,14.221,14.221,0,0,1,13.653-10.07,14.276,14.276,0,0,1,13.548,9.746.587.587,0,0,1-.292.711,6.486,6.486,0,0,1-2.887.653m-10.218-6.012a.587.587,0,0,1,.452.213,13.412,13.412,0,0,0,5.2,3.4,12.96,12.96,0,0,0,4.21,1.209,5.567,5.567,0,0,0,2.238-.312,13.1,13.1,0,0,0-12.253-8.44,13.048,13.048,0,0,0-12.307,8.578,7.163,7.163,0,0,0,6.186-2.626.585.585,0,0,1,.528-.228,10.124,10.124,0,0,0,3.059.017,2.986,2.986,0,0,0,2.154-1.481.586.586,0,0,1,.458-.33.589.589,0,0,1,.072,0" transform="translate(-1827.825 124.27)" fill="#24221e"/>
            <path id="패스_995" data-name="패스 995" d="M1853.635-104.284a3.351,3.351,0,0,0-1.315.267c-.062-.222-.131-.44-.2-.657a5.961,5.961,0,0,1-3.012.578,13.4,13.4,0,0,1-4.406-1.256,13.91,13.91,0,0,1-5.422-3.57,3.579,3.579,0,0,1-2.566,1.8,10.6,10.6,0,0,1-3.238-.008,7.793,7.793,0,0,1-7.438,2.762c-.037.12-.075.24-.109.362a3.356,3.356,0,0,0-1.349-.283,3.371,3.371,0,0,0-3.37,3.371,3.37,3.37,0,0,0,3.37,3.37,3.363,3.363,0,0,0,1.09-.184,13.708,13.708,0,0,0,13.459,11.118,13.708,13.708,0,0,0,13.457-11.105,3.363,3.363,0,0,0,1.054.171,3.371,3.371,0,0,0,3.371-3.37,3.371,3.371,0,0,0-3.371-3.371" transform="translate(-1820.617 114.608)" fill="#ffe3d4"/>
            <path id="패스_996" data-name="패스 996" d="M1838.127-87.019a14.3,14.3,0,0,1-13.906-10.988,3.947,3.947,0,0,1-.643.053,3.962,3.962,0,0,1-3.957-3.957,3.962,3.962,0,0,1,3.957-3.957,3.931,3.931,0,0,1,1.008.13.591.591,0,0,1,.552-.2,7.2,7.2,0,0,0,6.869-2.54.588.588,0,0,1,.529-.228,10.131,10.131,0,0,0,3.058.017,2.987,2.987,0,0,0,2.154-1.481.588.588,0,0,1,.458-.33.587.587,0,0,1,.524.209,13.411,13.411,0,0,0,5.2,3.4,12.954,12.954,0,0,0,4.21,1.209,5.387,5.387,0,0,0,2.712-.516.586.586,0,0,1,.487-.019.587.587,0,0,1,.333.357l.033.1a3.957,3.957,0,0,1,.93-.11,3.962,3.962,0,0,1,3.957,3.957,3.962,3.962,0,0,1-3.957,3.957,3.956,3.956,0,0,1-.606-.047,14.306,14.306,0,0,1-13.9,10.982m-13.459-12.293a.584.584,0,0,1,.294.079.586.586,0,0,1,.282.4,13.125,13.125,0,0,0,12.882,10.642,13.128,13.128,0,0,0,12.88-10.629.586.586,0,0,1,.279-.4.589.589,0,0,1,.481-.051,2.786,2.786,0,0,0,.871.141,2.786,2.786,0,0,0,2.783-2.783,2.786,2.786,0,0,0-2.783-2.783,2.761,2.761,0,0,0-1.086.22.588.588,0,0,1-.484-.011.588.588,0,0,1-.311-.371l-.006-.021a6.783,6.783,0,0,1-2.68.37,13.954,13.954,0,0,1-4.6-1.3,15.768,15.768,0,0,1-5.116-3.154,4.462,4.462,0,0,1-2.522,1.424,10.235,10.235,0,0,1-3.1.034,8.429,8.429,0,0,1-7.294,2.8.588.588,0,0,1-.259.242.585.585,0,0,1-.487.007,2.769,2.769,0,0,0-1.114-.233,2.787,2.787,0,0,0-2.784,2.783,2.787,2.787,0,0,0,2.784,2.783,2.779,2.779,0,0,0,.9-.152.588.588,0,0,1,.19-.031" transform="translate(-1819.62 115.605)" fill="#24221e"/>
            <path id="패스_997" data-name="패스 997" d="M1862.965-92.774a.9.9,0,0,1-.9.9.9.9,0,0,1-.9-.9.9.9,0,0,1,.9-.9.9.9,0,0,1,.9.9" transform="translate(-1845.776 105.007)" fill="#24221e"/>
            <path id="패스_998" data-name="패스 998" d="M1886.014-92.774a.9.9,0,0,1-.9.9.9.9,0,0,1-.9-.9.9.9,0,0,1,.9-.9.9.9,0,0,1,.9.9" transform="translate(-1860.287 105.007)" fill="#24221e"/>
            <path id="패스_999" data-name="패스 999" d="M1874.1-90.627a1.228,1.228,0,0,1,.262-.158l-.14.059a.712.712,0,0,1,.166-.046l-.156.021a.571.571,0,0,1,.147,0l-.156-.021a.6.6,0,0,1,.143.039l-.141-.059a.791.791,0,0,1,.165.1l-.119-.092a1.118,1.118,0,0,1,.088.077.612.612,0,0,0,.415.172.6.6,0,0,0,.415-.172.593.593,0,0,0,.172-.415.6.6,0,0,0-.172-.415,1.3,1.3,0,0,0-.871-.39,1.355,1.355,0,0,0-.271.03.705.705,0,0,0-.131.039,1.635,1.635,0,0,0-.409.22.446.446,0,0,0-.165.152.446.446,0,0,0-.105.2.6.6,0,0,0,.059.452.593.593,0,0,0,.351.27l.156.021a.582.582,0,0,0,.3-.08" transform="translate(-1853.366 103.91)" fill="#24221e"/>
            <path id="패스_1000" data-name="패스 1000" d="M1849.429-85.671a2.709,2.709,0,0,1-2.548,2.846,2.709,2.709,0,0,1-2.548-2.846,2.709,2.709,0,0,1,2.548-2.846,2.709,2.709,0,0,1,2.548,2.846" transform="translate(-1835.179 101.761)" fill="#ffb18f"/>
            <path id="패스_1001" data-name="패스 1001" d="M1892.864-85.671a2.709,2.709,0,0,1-2.548,2.846,2.709,2.709,0,0,1-2.547-2.846,2.709,2.709,0,0,1,2.547-2.846,2.709,2.709,0,0,1,2.548,2.846" transform="translate(-1862.524 101.761)" fill="#ffb18f"/>
            <path id="패스_1002" data-name="패스 1002" d="M1867.8-85.971a5.97,5.97,0,0,0,4.966.225.606.606,0,0,0,.41-.722.59.59,0,0,0-.722-.41,5.3,5.3,0,0,1-1.066.323,3.113,3.113,0,0,1-.463.06,5.49,5.49,0,0,1-.558.011,4.783,4.783,0,0,1-1.975-.5.6.6,0,0,0-.8.211.592.592,0,0,0,.21.8" transform="translate(-1849.771 100.842)" fill="#24221e"/>
          </g>
        </g>
      </g>
    </g>
    <g id="profile-2" data-name="profile" transform="translate(-0.001)" fill="none" stroke="#157fce" stroke-width="1.5">
      <circle cx="25" cy="25" r="25" stroke="none"/>
      <circle cx="25" cy="25" r="24.25" fill="none"/>
    </g>
  </g>
</svg>
