<svg id="profile." xmlns="http://www.w3.org/2000/svg" xmlns:xlink="http://www.w3.org/1999/xlink" width="50" height="50" viewBox="0 0 50 50">
  <defs>
    <clipPath id="clip-path">
      <circle id="SVGID" cx="24" cy="24" r="24" fill="none"/>
    </clipPath>
  </defs>
  <circle id="profile" cx="25" cy="25" r="25" fill="#e8ebed"/>
  <g id="그룹_878" data-name="그룹 878" transform="translate(1 1)">
    <g id="그룹_877" data-name="그룹 877" clip-path="url(#clip-path)">
      <g id="그룹_876" data-name="그룹 876" transform="translate(4.414 7.829)">
        <path id="패스_1786" data-name="패스 1786" d="M2873.747,1189.57a92.262,92.262,0,0,1,1.031,13.339,1.908,1.908,0,0,1-.146.907c-.311.592-1.2.82-1.3,1.479l5.932-.613a1.211,1.211,0,0,0,.7-.222,1.179,1.179,0,0,0,.3-.757l2.15-15.873c.022-.165-.206-.385-.229-.219" transform="translate(-2855.399 -1149.016)" fill="#24221e"/>
        <path id="패스_1787" data-name="패스 1787" d="M2871.915,1188.331q.5,3.351.757,6.748.129,1.718.193,3.44.032.853.048,1.706c.01.552.037,1.111.008,1.663a.463.463,0,0,1-.017.126,1.073,1.073,0,0,1-.055.185c0,.007-.044.069-.061.1,0,.008-.046.06-.009.014s-.018.019-.026.027a2.662,2.662,0,0,1-.224.211c-.037.031-.076.062-.115.092s.013-.01.018-.014l-.066.051a1.937,1.937,0,0,0-.869,1.115c-.052.286.131.669.482.633l5.075-.524c.417-.043.845-.063,1.257-.142a1.238,1.238,0,0,0,.94-.751,4.544,4.544,0,0,0,.213-1.133q.085-.625.17-1.251.685-5.055,1.37-10.11.192-1.416.384-2.832.047-.346.094-.691a1.876,1.876,0,0,0,.041-.763.777.777,0,0,0-.491-.52.555.555,0,0,0-.689.4.5.5,0,0,0,.965.266l-.032.073-.179.18.016-.01-.252.068a.421.421,0,0,1-.246-.093c-.013-.013-.061-.131-.05-.084.019.088.026-.2-.005-.082a1.384,1.384,0,0,0-.022.165q-.04.3-.081.593-.078.576-.156,1.153l-.317,2.338-.625,4.611q-.316,2.338-.634,4.676c-.1.763-.2,1.526-.31,2.288-.011.074-.022.147-.038.22-.007.032-.015.064-.024.1s-.042.119-.008.041a.786.786,0,0,1-.045.084c-.01.017-.058.065-.009.012-.005.006-.064.061-.018.018-.05.025-.061.032-.033.022l-.038.013a5.969,5.969,0,0,1-.981.127l-5.24.541.482.633c.007-.039.019-.076.026-.114.018-.083,0-.007-.008.014.009-.017.016-.034.026-.05s.07-.112.034-.06,0,0,.008-.009c.022-.024.043-.049.066-.072a2.261,2.261,0,0,1,.178-.162c.037-.031.075-.061.113-.091-.075.059.022-.017.048-.036a2.265,2.265,0,0,0,.877-1.057,2.7,2.7,0,0,0,.1-.852c0-.283,0-.566-.008-.849q-.011-.87-.04-1.739-.113-3.477-.487-6.939-.215-1.992-.515-3.974a.5.5,0,0,0-.615-.349.512.512,0,0,0-.349.615" transform="translate(-2854.049 -1147.645)" fill="#24221e"/>
        <path id="패스_1788" data-name="패스 1788" d="M2852.53,1185.24a92.263,92.263,0,0,1,1.031,13.339,1.909,1.909,0,0,1-.146.907c-.311.592-1.2.82-1.3,1.479l5.933-.613a1.212,1.212,0,0,0,.7-.222,1.177,1.177,0,0,0,.295-.756l2.15-15.874c.022-.165-.206-.384-.229-.219" transform="translate(-2839.84 -1145.841)" fill="#24221e"/>
        <path id="패스_1789" data-name="패스 1789" d="M2850.7,1184q.5,3.351.757,6.748.128,1.718.193,3.44.032.853.048,1.706c.01.552.037,1.111.008,1.663a.459.459,0,0,1-.017.126,1.079,1.079,0,0,1-.055.186c0,.007-.044.068-.061.1,0,.008-.046.061-.009.014s-.018.019-.026.027a2.705,2.705,0,0,1-.225.211c-.038.031-.076.061-.114.092l.018-.014-.067.051a1.935,1.935,0,0,0-.869,1.115c-.052.286.131.669.482.633l5.075-.524c.417-.043.845-.063,1.257-.142a1.237,1.237,0,0,0,.94-.751,4.534,4.534,0,0,0,.214-1.133l.17-1.251,1.37-10.11.384-2.832q.047-.346.094-.692a1.871,1.871,0,0,0,.041-.763.776.776,0,0,0-.491-.52.555.555,0,0,0-.689.4.5.5,0,0,0,.964.266l-.032.073-.179.179.016-.01-.253.068a.423.423,0,0,1-.245-.093c-.013-.013-.061-.131-.051-.084.019.088.026-.2-.005-.082a1.429,1.429,0,0,0-.022.165l-.08.593-.156,1.153-.317,2.338-.625,4.61-.634,4.677c-.1.763-.2,1.526-.31,2.288-.01.074-.022.147-.038.22-.007.032-.015.064-.024.1s-.042.119-.008.041a.756.756,0,0,1-.045.085c-.01.017-.058.065-.01.013-.005.006-.064.061-.018.018-.05.025-.061.032-.033.022l-.037.013a5.988,5.988,0,0,1-.981.128l-5.24.541.482.633c.007-.039.019-.076.027-.114.018-.083,0-.007-.009.013.009-.016.017-.034.026-.05s.07-.111.034-.06,0,0,.009-.009c.022-.024.043-.049.066-.072a2.226,2.226,0,0,1,.178-.162c.037-.031.075-.061.113-.09-.075.059.023-.017.048-.037a2.268,2.268,0,0,0,.877-1.057,2.7,2.7,0,0,0,.1-.852c0-.283,0-.566-.007-.849q-.012-.87-.04-1.739-.112-3.477-.487-6.939-.215-1.992-.515-3.974a.5.5,0,0,0-.615-.349.513.513,0,0,0-.349.615" transform="translate(-2838.491 -1144.469)" fill="#24221e"/>
        <path id="패스_1790" data-name="패스 1790" d="M2872.677,1060.455c2.3,3.156,4.828,6.487,8.522,7.75,1.626.556,3.433.689,4.863,1.642s2.185,3.248.871,4.356c-.473.4-1.168.615-1.374,1.2a3.16,3.16,0,0,0,.1,1.408c.232,1.938-1.983,3.253-3.914,3.54a3.279,3.279,0,0,0-1.262.341c-.546.337-.8.985-1.219,1.472a5.371,5.371,0,0,1-2.665,1.386,20.152,20.152,0,0,1-7.463,1.229,10.271,10.271,0,0,1-8.538-6.584" transform="translate(-2846.064 -1055.812)" fill="#7a6a59"/>
        <path id="패스_1791" data-name="패스 1791" d="M2870.855,1059.336a41.326,41.326,0,0,0,3.6,4.461,13.972,13.972,0,0,0,4.594,3.278,19.957,19.957,0,0,0,2.836.835,7.741,7.741,0,0,1,2.643,1.07c.077.053-.038-.036.034.026.038.033.077.064.114.1.075.068.147.138.216.211s.125.141.185.213-.025-.04.028.038c.029.042.059.083.088.125a3.829,3.829,0,0,1,.288.512l.027.059c.032.07-.028-.071,0,0,.015.04.031.08.046.121.033.093.063.188.089.284s.043.176.059.266c.008.044.014.121.006.031,0,.054.011.108.014.163,0,.081.006.161,0,.242,0,.046-.005.093-.009.139,0,.02,0,.039-.006.059,0-.039.013-.076,0-.016-.016.083-.033.165-.058.247-.013.044-.029.086-.043.129-.026.079.033-.061-.018.041a2.044,2.044,0,0,1-.126.22c-.022.034-.07.093-.015.027-.034.042-.069.082-.106.121s-.058.059-.088.087l-.063.055s-.062.05-.021.018-.061.043-.079.056c-.051.035-.1.069-.155.1-.169.109-.343.21-.506.328a1.761,1.761,0,0,0-.814,1.3,3.043,3.043,0,0,0,.1.869,2.4,2.4,0,0,1,.073.584q0,.073-.006.146c0,.02-.017.139-.007.077s-.014.069-.019.094c-.01.046-.022.092-.034.138a2.524,2.524,0,0,1-.085.248c.033-.082,0-.009-.016.028s-.049.1-.076.144c-.044.077-.092.152-.143.225-.011.016-.08.108-.047.066s-.008.009-.013.015l-.068.08a3.66,3.66,0,0,1-.4.39c-.039.033-.079.066-.119.1.066-.051-.017.011-.041.028q-.127.092-.261.176a5.515,5.515,0,0,1-.541.3l-.125.059c-.023.011-.156.067-.072.033q-.15.062-.3.116-.282.1-.572.174c-.446.114-.908.139-1.353.253a2.3,2.3,0,0,0-1.257.822c-.155.2-.294.4-.433.611a3,3,0,0,1-.362.478,3.247,3.247,0,0,1-1.074.72l-.1.043c.011,0,.051-.021,0,0l-.148.058q-.174.066-.351.125c-.226.076-.455.145-.684.214a21.642,21.642,0,0,1-6.629,1.25q-.4-.009-.8-.048l-.169-.019-.072-.009.012,0q-.168-.023-.335-.053a9.6,9.6,0,0,1-1.269-.316q-.3-.1-.594-.212l-.157-.063a.5.5,0,0,1-.059-.025c-.1-.046-.207-.092-.309-.141a10.44,10.44,0,0,1-1.146-.636q-.266-.17-.522-.357l-.137-.1-.058-.044c.008.006.05.039.005,0q-.134-.1-.265-.214a10.491,10.491,0,0,1-.952-.9q-.215-.231-.416-.474l-.107-.132c-.013-.016-.086-.11-.041-.052-.069-.09-.136-.181-.2-.273a9.8,9.8,0,0,1-.688-1.113q-.142-.268-.266-.545c-.023-.052-.046-.1-.068-.156.03.07-.016-.039-.024-.06-.042-.1-.083-.211-.122-.318a.513.513,0,0,0-.615-.349.5.5,0,0,0-.349.615,10.543,10.543,0,0,0,3.105,4.433,10.752,10.752,0,0,0,4.869,2.372,15.129,15.129,0,0,0,6.759-.558c.569-.153,1.134-.319,1.7-.487a14.323,14.323,0,0,0,1.416-.472,4.865,4.865,0,0,0,1.36-.8,5.575,5.575,0,0,0,.891-1.127c.032-.048.065-.1.1-.142l.044-.06c-.006.009-.039.049,0,0a2.331,2.331,0,0,1,.249-.266c.016-.015.109-.085.05-.044a1.581,1.581,0,0,1,.156-.1,1.33,1.33,0,0,1,.3-.112c.452-.121.926-.144,1.38-.26a6.309,6.309,0,0,0,2.372-1.155,3.3,3.3,0,0,0,1.279-2.085,5.238,5.238,0,0,0-.136-1.5c0,.012,0,.044,0-.015q0-.044-.007-.088c0-.048,0-.148,0-.166s.027-.1.032-.133c.01-.061,0-.011-.008.008.015-.034.034-.064.051-.1s.023-.037.035-.055c-.01.017-.063.069,0,0,.029-.032.058-.064.09-.095s.077-.069.117-.1-.005,0-.012.009l.074-.053a6.232,6.232,0,0,0,1.073-.778,2.4,2.4,0,0,0,.587-1.1,3.541,3.541,0,0,0-.416-2.446,4.323,4.323,0,0,0-1.961-1.812,15.055,15.055,0,0,0-2.976-.937c-.5-.124-.994-.255-1.478-.427a8.637,8.637,0,0,1-1.226-.544,12.1,12.1,0,0,1-2.242-1.544,20.1,20.1,0,0,1-2.029-2.045q-.479-.55-.932-1.123c-.3-.372-.528-.677-.827-1.077-.284-.379-.564-.762-.843-1.145a.515.515,0,0,0-.684-.179.5.5,0,0,0-.179.684" transform="translate(-2844.674 -1054.44)" fill="#24221e"/>
        <path id="패스_1792" data-name="패스 1792" d="M2872.175,1200.853c.325,1.4.606,2.811.805,4.235.008.055.012.086.024.181s.022.172.032.257q.032.259.06.518.057.526.1,1.054c.06.746.095,1.494.121,2.242q.047,1.355.095,2.71a.5.5,0,0,0,1,0c-.055-1.571-.082-3.145-.2-4.713a39.889,39.889,0,0,0-.556-4.291c-.152-.824-.329-1.644-.518-2.46a.5.5,0,0,0-.964.266" transform="translate(-2854.542 -1158.307)" fill="#fff"/>
        <path id="패스_1793" data-name="패스 1793" d="M2841.413,1135.914a38.2,38.2,0,0,0-1.708-11.74c-.438-1.412-.458-2.864-.975-4.242A29.9,29.9,0,0,0,2834.1,1121a21.042,21.042,0,0,1-2.988.453,8.827,8.827,0,0,0-3.128,1.156c-.925.576-1.718,1.349-2.664,1.891s-2.556,1.17-3.634.751a6.4,6.4,0,0,1-1.842-1.189,12.189,12.189,0,0,1-2.846,5.324,13.254,13.254,0,0,0,3.5,2.854,9.4,9.4,0,0,0,6.1.9q-.186,3.1-.433,6.208a119.388,119.388,0,0,0,13.653.66c2.073.01,1.579-2.513,1.6-4.091" transform="translate(-2814.091 -1099.428)" fill="#ffcdcd"/>
        <path id="패스_1794" data-name="패스 1794" d="M2840.551,1134.561a39.2,39.2,0,0,0-.485-6.543q-.252-1.592-.637-3.159-.185-.75-.4-1.492c-.147-.509-.311-1.011-.423-1.529a24.631,24.631,0,0,0-.755-3.391.519.519,0,0,0-.615-.349,32.127,32.127,0,0,0-4.174.921c-.34.1-.673.222-1.022.293a8.639,8.639,0,0,1-.966.131,14.541,14.541,0,0,0-2.116.313,9.451,9.451,0,0,0-1.969.721,10.472,10.472,0,0,0-1.682,1.1,14.242,14.242,0,0,1-1.635,1.153c-.226.128-.459.24-.7.348-.091.041-.037.017-.017.008l-.093.038c-.062.025-.126.05-.189.073-.145.054-.291.1-.439.147s-.314.086-.474.119l-.125.023c-.011,0-.138.023-.083.014s-.045.005-.057.007l-.123.011a3.025,3.025,0,0,1-.479,0l-.092-.01c.073.01.015,0-.025-.007a1.955,1.955,0,0,1-.2-.049,2.058,2.058,0,0,1-.4-.171c-.163-.083-.321-.174-.475-.272a6.365,6.365,0,0,1-.87-.661.505.505,0,0,0-.836.22,11.752,11.752,0,0,1-2.718,5.1.512.512,0,0,0,0,.707,14.21,14.21,0,0,0,3.323,2.779,9.825,9.825,0,0,0,4.252,1.264,10.141,10.141,0,0,0,2.506-.161l-.633-.482q-.187,3.106-.433,6.208c-.023.292.25.47.5.5,3.07.366,6.16.53,9.25.6q1.15.027,2.3.04c.739.009,1.488.049,2.226.014a1.971,1.971,0,0,0,1.326-.531,2.262,2.262,0,0,0,.573-1.134,14.467,14.467,0,0,0,.074-2.923.5.5,0,0,0-1,0c-.008.818.086,1.635,0,2.452-.01.091,0-.016,0-.029,0,.023-.007.045-.01.068-.008.05-.018.1-.028.15-.019.091-.042.181-.07.269-.013.04-.029.079-.042.119-.032.1.042-.08.009-.019-.01.018-.017.037-.025.055a2.489,2.489,0,0,1-.129.218c-.046.074.025-.029.025-.031a.23.23,0,0,1-.038.045c-.03.032-.06.064-.093.093-.014.013-.031.025-.044.038-.043.044.086-.051.031-.024-.04.019-.076.051-.115.072s-.123.052-.022.016c-.047.017-.093.034-.14.048s-.09.022-.135.032c-.018,0-.1.019-.024.006s-.03,0-.047,0c-.327.027-.663.006-.99,0l-1.117-.01q-1.118-.012-2.235-.036c-1.49-.033-2.98-.086-4.469-.172-1.685-.1-3.368-.238-5.045-.438l.5.5q.249-3.1.433-6.208a.506.506,0,0,0-.633-.482,9.12,9.12,0,0,1-2.008.137,8.849,8.849,0,0,1-.937-.087,8.947,8.947,0,0,1-4.485-2.057,17.207,17.207,0,0,1-1.677-1.618v.707a12.8,12.8,0,0,0,2.975-5.545l-.836.221a6.97,6.97,0,0,0,1.747,1.185,3.1,3.1,0,0,0,.95.27,3.632,3.632,0,0,0,.927-.037,7.614,7.614,0,0,0,3.347-1.493c.558-.412,1.09-.86,1.674-1.236a7.473,7.473,0,0,1,1.768-.836,9.634,9.634,0,0,1,1.975-.418,12.5,12.5,0,0,0,2.176-.314c.793-.226,1.572-.477,2.377-.658s1.616-.327,2.429-.462l-.615-.349a18.53,18.53,0,0,1,.675,2.994c.2,1.033.548,2.026.809,3.044a37.379,37.379,0,0,1,1.052,6.2q.15,1.8.129,3.608a.5.5,0,0,0,1,0" transform="translate(-2812.729 -1098.075)" fill="#24221e"/>
        <path id="패스_1795" data-name="패스 1795" d="M2812.558,1126.075c-.676-.846-.762-2.4-2.1-2.453-.7-.027-1.372.83-.958,1.4a.945.945,0,0,0-.928.65.993.993,0,0,0,.362,1.035.82.82,0,0,0-.455,1.562.788.788,0,0,0-.349.89,2.289,2.289,0,0,0,.515.885c.558.692,1.128,1.387,1.731,2.046a12.192,12.192,0,0,0,2.846-5.324,5.987,5.987,0,0,1-.662-.689" transform="translate(-2807.464 -1102.134)" fill="#ffe3d4"/>
        <path id="패스_1796" data-name="패스 1796" d="M2811.537,1124.378c.062.078.011.013-.016-.026s-.046-.07-.069-.105c-.051-.083-.1-.169-.143-.256-.087-.168-.164-.34-.242-.512a4.54,4.54,0,0,0-.6-1.03,1.71,1.71,0,0,0-2.534-.177,1.337,1.337,0,0,0-.247,1.658l.432-.752a1.456,1.456,0,0,0-1.378.929,1.476,1.476,0,0,0,.459,1.61l.353-.854a1.4,1.4,0,0,0-1.41.978,1.255,1.255,0,0,0,.7,1.516v-.863a1.245,1.245,0,0,0-.619,1.105,2.107,2.107,0,0,0,.549,1.283c.593.761,1.217,1.5,1.867,2.217a.5.5,0,0,0,.707,0,12.8,12.8,0,0,0,2.975-5.545.5.5,0,0,0-.129-.486,6.273,6.273,0,0,1-.662-.69.5.5,0,0,0-.707,0,.511.511,0,0,0,0,.707,6.268,6.268,0,0,0,.662.69l-.128-.486a11.752,11.752,0,0,1-2.718,5.1h.707c-.56-.613-1.089-1.252-1.612-1.9a2.411,2.411,0,0,1-.493-.76c0,.005-.027-.142-.019-.071s0-.05,0-.064.015-.131,0-.064.019-.062.018-.061c.01-.047.018-.044,0,0,0,0,.064-.111.027-.057s.032-.033.043-.044c-.058.058,0,0,.038-.016a.5.5,0,0,0,0-.863,1.188,1.188,0,0,1-.144-.073c-.021-.013-.042-.027-.062-.042.053.042.059.045.019.01-.09-.106.008.045-.029-.027-.01-.02-.048-.059-.047-.083q.043.108.016.033c-.006-.02-.012-.039-.016-.06-.01-.054-.009-.04,0,.042,0-.02,0-.041,0-.061s0-.041,0-.062q.007-.082-.007.041c-.01-.021.021-.083.026-.105.027-.114-.049.062,0-.011.023-.033.045-.073.066-.109-.069.118,0,.01.026-.021.015-.015.032-.03.048-.044-.054.04-.066.05-.036.028a.911.911,0,0,0,.1-.06c.049-.023.04-.02-.026.009.021-.008.044-.015.066-.022.04-.012.177-.015.045-.014.052,0,.1,0,.154,0a.5.5,0,0,0,.354-.853c-.032-.028-.063-.056-.094-.087s-.075-.087-.036-.035a.831.831,0,0,1-.067-.107c-.013-.024-.044-.1-.022-.04a.93.93,0,0,1-.033-.12c-.018-.083.005.111,0-.04,0-.086-.01.006,0-.044a.77.77,0,0,1,.034-.121c-.035.095.1-.131.038-.059.021-.023.043-.045.065-.067.091-.1-.034.016.027-.023.033-.022.067-.041.1-.059-.074.039.011,0,.032-.01a.757.757,0,0,1,.113-.027c-.089.012.025.006.053.007a.5.5,0,0,0,.432-.753c-.023-.034-.043-.069-.063-.1.041.072.018.015,0-.028,0,.01,0,.09.005.038a.268.268,0,0,0,0-.077c-.01-.047,0,.023-.008.037.006-.025.01-.051.017-.076.011-.043.044-.105,0-.03.019-.036.037-.073.058-.108s.074-.1.019-.034c.032-.038.067-.072.1-.108.015-.015.031-.028.048-.043-.068.06-.019.012,0,0l.11-.066c.074-.047-.049.006.036-.017.023-.006.151-.043.1-.031s.056,0,.08,0c.042,0,.084.007.126.008.058,0-.026,0-.033,0,.025.006.051.009.077.015.043.01.084.023.127.036.018.005.034.013.052.018,0,0-.083-.043-.037-.015.03.018.063.031.093.049s.059.037.088.055c.093.062-.037-.04.02.017s.107.1.157.159c.066.073-.007-.015.009.008s.049.067.072.1a5.939,5.939,0,0,1,.434.844,4.842,4.842,0,0,0,.587,1.015.5.5,0,0,0,.707,0,.513.513,0,0,0,0-.707" transform="translate(-2806.09 -1100.791)" fill="#24221e"/>
        <path id="패스_1797" data-name="패스 1797" d="M2860.226,1132.594a19.7,19.7,0,0,0,2.792,6.11,2.119,2.119,0,0,0,.929.873c.775.285,1.577-.341,2.09-.988,1.573-1.982,2.249-4.509,2.886-6.958" transform="translate(-2845.79 -1108.007)" fill="#fff"/>
        <path id="패스_1798" data-name="패스 1798" d="M2858.372,1131.364a20.514,20.514,0,0,0,1.348,3.643q.411.854.9,1.666a8.083,8.083,0,0,0,1.094,1.554,1.765,1.765,0,0,0,1.781.478,3.21,3.21,0,0,0,1.49-1.084,12.256,12.256,0,0,0,1.844-3.275,33.794,33.794,0,0,0,1.2-3.945.5.5,0,1,0-.964-.266c-.289,1.111-.582,2.224-.966,3.307a14.28,14.28,0,0,1-.628,1.526,11.306,11.306,0,0,1-.84,1.46,4.143,4.143,0,0,1-1.01,1.111c-.059.039-.12.076-.182.11l-.07.036c-.009,0-.106.047-.058.028s-.037.011-.036.011c-.032.01-.064.021-.1.03s-.065.016-.1.023-.068.006-.014,0a1.292,1.292,0,0,1-.2,0c.086.008-.066-.017-.09-.025s-.11-.039-.062-.019-.034-.018-.033-.018c-.03-.017-.06-.033-.088-.051-.01-.006-.107-.076-.073-.05a2.376,2.376,0,0,1-.432-.508q-.251-.364-.484-.74-.477-.767-.882-1.575a19.029,19.029,0,0,1-1.391-3.7.5.5,0,1,0-.964.266" transform="translate(-2844.417 -1106.644)" fill="#24221e"/>
        <path id="패스_1799" data-name="패스 1799" d="M2860.224,1152.953c-1.425.957-3.229,2.053-4.6,2.83a8.316,8.316,0,0,1-2.609,1.053l4.637,8.031a1.109,1.109,0,0,0,1.515.406l6.126-3.537Z" transform="translate(-2840.503 -1123.643)" fill="#ffcb48"/>
        <path id="패스_1800" data-name="패스 1800" d="M2857.242,1164.547a1.61,1.61,0,0,1-1.4-.8l-4.637-8.031a.5.5,0,0,1,.348-.743,7.882,7.882,0,0,0,2.448-1c1.2-.679,3.023-1.774,4.565-2.81a.5.5,0,0,1,.712.165l5.071,8.784a.5.5,0,0,1-.183.683l-6.126,3.537a1.6,1.6,0,0,1-.8.215m-4.832-8.756,4.3,7.451a.609.609,0,0,0,.832.223l5.693-3.287-4.555-7.89c-1.46.959-3.085,1.93-4.183,2.554a10.305,10.305,0,0,1-2.089.948" transform="translate(-2839.128 -1122.269)" fill="#24221e"/>
        <path id="패스_1801" data-name="패스 1801" d="M2858.706,1147.82l-1.078-1.867-6.125,3.537a1.109,1.109,0,0,0-.406,1.515l.4.7a8.316,8.316,0,0,0,2.609-1.053c1.368-.777,3.172-1.873,4.6-2.83" transform="translate(-2838.985 -1118.51)" fill="#fff"/>
        <path id="패스_1802" data-name="패스 1802" d="M2850.126,1150.828a.5.5,0,0,1-.433-.25l-.4-.7a1.611,1.611,0,0,1,.589-2.2l6.126-3.537a.5.5,0,0,1,.683.183l1.078,1.866a.5.5,0,0,1-.154.665c-1.565,1.052-3.417,2.162-4.629,2.85a8.78,8.78,0,0,1-2.771,1.111.519.519,0,0,1-.085.007m5.946-5.567-5.693,3.287a.609.609,0,0,0-.223.832l.221.383a8.732,8.732,0,0,0,2.111-.923c1.1-.623,2.724-1.6,4.177-2.551Z" transform="translate(-2837.612 -1117.135)" fill="#24221e"/>
        <path id="패스_1803" data-name="패스 1803" d="M2860.068,1129.083a3.612,3.612,0,0,0,.229,2.688,2.059,2.059,0,0,0,2.626.546,2.523,2.523,0,0,0,1.173-2.511,3.661,3.661,0,0,0,1.742,2.508,2.418,2.418,0,0,0,2.761-1.138,6.032,6.032,0,0,0,.695-3.124" transform="translate(-2845.568 -1105.383)" fill="#fff"/>
        <path id="패스_1804" data-name="패스 1804" d="M2858.221,1127.574a5.808,5.808,0,0,0-.086,2.189,2.37,2.37,0,0,0,1.125,1.592,2.681,2.681,0,0,0,1.891.272,2.635,2.635,0,0,0,1.575-1.114,3.069,3.069,0,0,0,.5-2.083l-.982.133c.4,1.22,1.019,2.714,2.452,2.956a2.741,2.741,0,0,0,1.986-.461,3.653,3.653,0,0,0,1.354-1.782,7.772,7.772,0,0,0,.389-2.6.5.5,0,0,0-.5-.5.51.51,0,0,0-.5.5,7.528,7.528,0,0,1-.223,1.933,4.435,4.435,0,0,1-.151.454,1.792,1.792,0,0,1-.074.163c-.037.076-.077.151-.12.224s-.08.133-.125.2c-.012.017-.072.1-.022.034-.02.025-.04.05-.061.075a2.853,2.853,0,0,1-.306.31c-.024.021-.049.042-.074.063.059-.048,0,0-.014.011-.059.042-.118.083-.18.121s-.124.074-.188.106l-.086.042c-.094.046.052-.014-.055.024a2.774,2.774,0,0,1-.361.1l-.091.016c.1-.015,0,0-.028,0a1.889,1.889,0,0,1-.231,0l-.092-.006c-.086-.007.114.028-.028,0-.061-.014-.122-.026-.181-.044-.03-.009-.183-.07-.1-.032a1.9,1.9,0,0,1-.2-.106l-.076-.048s-.114-.083-.058-.04-.026-.023-.036-.031l-.066-.06c-.049-.046-.1-.094-.142-.144-.021-.022-.04-.045-.06-.068-.005-.006-.093-.122-.034-.042a4.507,4.507,0,0,1-.458-.818c-.006-.013-.037-.088-.006-.013-.016-.037-.03-.074-.045-.111q-.044-.112-.085-.224c-.057-.155-.109-.312-.161-.47a.5.5,0,0,0-.549-.358.492.492,0,0,0-.433.491,2.737,2.737,0,0,1,.023.379c0,.064,0,.127-.01.19,0,.031-.006.063-.01.095.01-.074,0,0-.008.032a2.682,2.682,0,0,1-.089.346c-.006.017-.07.188-.034.1-.027.066-.06.129-.093.192s-.062.11-.1.163l-.052.079c-.007.01-.064.089-.03.044s-.027.032-.034.041c-.021.024-.041.047-.062.07q-.072.078-.15.149l-.071.061c.016-.014.07-.048-.011.008-.052.036-.1.071-.158.1s-.092.052-.14.075c-.013.006-.1.043-.042.02s-.054.018-.065.022a2.145,2.145,0,0,1-.346.084c.107-.017-.062,0-.089,0-.067,0-.134,0-.2,0s-.1-.007-.156-.012c.1.01-.054-.012-.087-.019-.058-.013-.115-.028-.172-.045l-.084-.028c-.011,0-.122-.05-.063-.024s-.028-.014-.041-.021l-.078-.041c-.052-.029-.1-.06-.149-.092-.011-.008-.085-.063-.038-.026s-.013-.012-.018-.016c-.053-.05-.108-.1-.157-.153-.02-.022-.039-.044-.057-.067.014.018.046.073,0-.006-.032-.052-.067-.1-.1-.157-.017-.03-.032-.061-.048-.093-.039-.077.021.056-.012-.023a1.965,1.965,0,0,1-.073-.221c-.021-.075-.036-.152-.05-.229s.006.064,0-.023q-.008-.066-.012-.131a3.976,3.976,0,0,1,0-.482,6.363,6.363,0,0,1,.121-.943.5.5,0,1,0-.964-.266" transform="translate(-2844.203 -1104.007)" fill="#24221e"/>
        <path id="패스_1805" data-name="패스 1805" d="M2811.747,1093.11a.5.5,0,0,1-.494-.424l-2.425-15.674a.5.5,0,1,1,.988-.153l2.425,15.674a.5.5,0,0,1-.495.576" transform="translate(-2808.094 -1067.531)" fill="#24221e"/>
        <path id="패스_1806" data-name="패스 1806" d="M2818.458,1131.074c-.224-.289-.484-.828-.866-.9-.891-.167-1.148,1.182-.98,1.784a1.686,1.686,0,0,0,.907,1.064.4.4,0,0,1,.221.166" transform="translate(-2813.771 -1106.929)" fill="#ffe3d4"/>
        <path id="패스_1807" data-name="패스 1807" d="M2817.519,1129.456c-.282-.371-.5-.84-.944-1.048a1.185,1.185,0,0,0-1.347.25,1.955,1.955,0,0,0-.49,1.051,2.247,2.247,0,0,0,.071,1.167,2.272,2.272,0,0,0,.525.816,2.3,2.3,0,0,0,.384.3,1.817,1.817,0,0,0,.178.1c.024.012.05.025.075.035.079.032-.011-.011-.032-.048a.5.5,0,1,0,.864-.5c-.141-.246-.377-.311-.6-.453-.024-.015-.108-.079-.045-.027-.041-.033-.08-.068-.118-.1s-.063-.064-.093-.1c-.009-.01-.067-.083-.032-.037s-.022-.033-.027-.041c-.029-.044-.056-.089-.081-.135-.014-.026-.06-.121-.026-.043a1.275,1.275,0,0,1-.075-.24c0-.019-.022-.13-.008-.035s0-.023,0-.043a2,2,0,0,1,0-.206c0-.031,0-.062.005-.092s.016-.146,0-.058.008-.042.011-.059c.007-.037.015-.073.024-.109a1.911,1.911,0,0,1,.06-.2.278.278,0,0,0,.022-.058s-.045.093-.02.049.035-.073.055-.108.031-.05.047-.075c.061-.1-.056.053,0,0,.02-.019.039-.041.059-.06,0,0,.042-.035.042-.036,0,.017-.1.059-.035.03.019-.009.121-.059.037-.025s.012,0,.031-.006c.1-.037-.086,0-.006,0a.6.6,0,0,0,.123,0s-.112-.009-.051,0c.012,0,.093.026.024,0s.1.076.046.029.063.063.078.08c.032.035.063.072.093.108-.065-.08.028.04.046.066.031.045.062.091.093.136.055.082.11.165.171.244a.513.513,0,0,0,.684.179.505.505,0,0,0,.179-.684" transform="translate(-2812.4 -1105.563)" fill="#24221e"/>
        <path id="패스_1808" data-name="패스 1808" d="M2878.054,1168.089c-1.1.225-2.377-.017-3.051,1.069a.859.859,0,0,0-.163.648c.058.222.345.384.527.245a.683.683,0,0,0,.651,1.173.486.486,0,0,0,.025.773,1.123,1.123,0,0,0,.884.12c-.112.329.285.6.62.69a5.988,5.988,0,0,0,2.519.14,6.618,6.618,0,0,0-.68-2.35,23.493,23.493,0,0,0-1.332-2.506" transform="translate(-2856.494 -1134.743)" fill="#ffe3d4"/>
        <path id="패스_1809" data-name="패스 1809" d="M2876.559,1166.238c-.058.011-.116.022-.175.032l-.088.014q.088-.011,0,0c-.1.012-.209.024-.314.033-.223.021-.447.039-.67.067a3.356,3.356,0,0,0-1.352.4,2.081,2.081,0,0,0-.973,1.3.957.957,0,0,0,.373.99.808.808,0,0,0,.9.043l-.606-.785a1.182,1.182,0,0,0,1.137,2.008l-.385-.914a.966.966,0,0,0-.248,1.362,1.453,1.453,0,0,0,1.542.445l-.615-.615a.93.93,0,0,0,.339.977,2.292,2.292,0,0,0,1.022.423,6.887,6.887,0,0,0,2.393.045.5.5,0,0,0,.367-.482,7.488,7.488,0,0,0-.788-2.689,23.872,23.872,0,0,0-1.292-2.42.5.5,0,0,0-.864.5,23.785,23.785,0,0,1,1.239,2.306,6.573,6.573,0,0,1,.7,2.3l.367-.482a5.867,5.867,0,0,1-1.617,0q-.215-.034-.425-.085c-.071-.017-.141-.034-.21-.055-.018-.005-.151-.056-.11-.036s-.089-.052-.1-.061c-.048-.033-.051-.034-.009,0a.574.574,0,0,1-.048-.044q-.037-.04.01.021a.469.469,0,0,1-.041-.069c.06.02,0,.224.033.116a.506.506,0,0,0-.615-.615c-.061.01-.067.011-.02.005-.034,0-.069.007-.1.009a1.191,1.191,0,0,1-.207,0c.086.01-.092-.027-.112-.036q.066.024-.014-.017.051.045.017.011t.016.028a.545.545,0,0,1-.039-.067q.036.09.009.01t0,.019a.478.478,0,0,1,0-.075c-.011.071-.009.08,0,.026a.175.175,0,0,1-.058.1q.058-.056-.015.01a.5.5,0,0,0-.385-.914.647.647,0,0,1-.086.021q.089-.014,0-.009c-.06,0-.059,0,0,0a.783.783,0,0,1-.086-.025c.119.043-.1-.087-.01-.006a.713.713,0,0,1-.063-.063c.032.043.033.04,0-.008q.026.079,0,0c-.012-.058-.015-.058-.008,0,0-.036.022-.192,0-.089a.7.7,0,0,1,.024-.086q-.034.076,0,0c.032-.048.031-.05,0-.007a.619.619,0,0,1,.064-.062.5.5,0,0,0-.606-.785c-.056.031-.043.032.039,0a.143.143,0,0,1,.129-.007c-.088-.011.047.043-.026-.013.033.026.072.106.044.028l.021.044c0,.031,0,.028,0-.006s0-.037,0-.006a.676.676,0,0,1,.024-.083.218.218,0,0,1,.031-.067c.027-.048.055-.1.085-.143,0,0,.094-.126.036-.054a1.674,1.674,0,0,1,.188-.2c.009-.008.1-.081.05-.043s.06-.038.072-.046a2.313,2.313,0,0,1,.2-.11c.119-.059-.091.026.036-.014.04-.013.08-.028.121-.041a3.384,3.384,0,0,1,.463-.1c.036-.006.132-.018.042-.007l.133-.016c.089-.01.178-.018.268-.027a10.691,10.691,0,0,0,1.113-.14.5.5,0,0,0,.349-.615.51.51,0,0,0-.615-.349" transform="translate(-2855.132 -1133.374)" fill="#24221e"/>
        <path id="패스_1810" data-name="패스 1810" d="M2889.282,1134.717a6.231,6.231,0,0,1-.186,3.769,3.3,3.3,0,0,1-2.069,2.13l-.087.017a23.524,23.524,0,0,1,1.331,2.506,6.624,6.624,0,0,1,.68,2.35,6.763,6.763,0,0,0,4.7-3.022,8.094,8.094,0,0,0,.708-6.559,10.285,10.285,0,0,0-4.022-5.259" transform="translate(-2865.38 -1107.287)" fill="#ffcdcd"/>
        <path id="패스_1811" data-name="패스 1811" d="M2887.432,1133.466a6.318,6.318,0,0,1,.182,1.743,5.073,5.073,0,0,1-.357,1.732l-.029.071q.03-.07-.006.011c-.027.058-.053.116-.081.174q-.085.175-.184.343c-.066.113-.137.222-.213.328l-.058.079c.029-.037.025-.032-.012.014s-.073.087-.111.129a1.881,1.881,0,0,1-1.125.676.5.5,0,0,0-.3.734,23.836,23.836,0,0,1,1.239,2.306,6.568,6.568,0,0,1,.7,2.3.51.51,0,0,0,.633.482,7.473,7.473,0,0,0,3.517-1.574,7,7,0,0,0,2.207-3.242,9.064,9.064,0,0,0-1.116-7.8,11.907,11.907,0,0,0-3.1-3.14.5.5,0,0,0-.684.179.511.511,0,0,0,.179.684c.271.191.437.317.673.513s.464.4.684.612.417.421.613.643c.21.239.365.432.524.651a8.452,8.452,0,0,1,1.483,3.237,7.079,7.079,0,0,1-1.82,6.656,5.007,5.007,0,0,1-.7.553,6.988,6.988,0,0,1-.866.5,5.755,5.755,0,0,1-.86.335,7.012,7.012,0,0,1-1,.229l.633.482a7.491,7.491,0,0,0-.788-2.688A23.823,23.823,0,0,0,2886,1139l-.3.734a3.334,3.334,0,0,0,2.129-1.707,6.021,6.021,0,0,0,.783-2.962,7.767,7.767,0,0,0-.221-1.862.5.5,0,0,0-.964.266" transform="translate(-2864.012 -1105.903)" fill="#24221e"/>
        <path id="패스_1812" data-name="패스 1812" d="M2858.171,1061.575a2.994,2.994,0,0,0-1.173.238q-.066-.237-.142-.47a19.011,19.011,0,0,1-10.582-5.56,35.339,35.339,0,0,1-13.035,6.853,12.234,12.234,0,1,0,23.991,4.8,3.008,3.008,0,1,0,.941-5.864" transform="translate(-2825.815 -1052.385)" fill="#ffe3d4"/>
        <path id="패스_1813" data-name="패스 1813" d="M2843.845,1076.476a12.743,12.743,0,0,1-12.47-15.316.5.5,0,0,1,.354-.38,34.976,34.976,0,0,0,12.85-6.756.5.5,0,0,1,.683.039,18.464,18.464,0,0,0,10.3,5.412.5.5,0,0,1,.389.327,3.509,3.509,0,1,1,.284,6.869,12.745,12.745,0,0,1-12.392,9.8m-11.548-14.819a11.734,11.734,0,0,0,23.067,4.312.5.5,0,0,1,.648-.38,2.507,2.507,0,1,0-.194-4.691.5.5,0,0,1-.677-.325c-.015-.055-.031-.11-.047-.165a19.5,19.5,0,0,1-10.231-5.322,36.016,36.016,0,0,1-12.566,6.572" transform="translate(-2824.44 -1051.01)" fill="#24221e"/>
        <path id="패스_1814" data-name="패스 1814" d="M2845.914,1044.917a12.237,12.237,0,0,0-11.98,9.751,35.345,35.345,0,0,0,13.035-6.854,19.006,19.006,0,0,0,10.582,5.56,12.236,12.236,0,0,0-11.636-8.458" transform="translate(-2826.508 -1044.417)" fill="#7a6a59"/>
        <path id="패스_1815" data-name="패스 1815" d="M2832.558,1053.793a.5.5,0,0,1-.49-.6,12.735,12.735,0,0,1,24.583-1.346.5.5,0,0,1-.558.647,19.507,19.507,0,0,1-10.537-5.375,36.012,36.012,0,0,1-12.863,6.657.5.5,0,0,1-.135.019m11.98-9.751a11.777,11.777,0,0,0-11.289,8.526,34.978,34.978,0,0,0,12.023-6.512.5.5,0,0,1,.683.039,18.428,18.428,0,0,0,9.449,5.249,11.7,11.7,0,0,0-10.866-7.3" transform="translate(-2825.133 -1043.042)" fill="#24221e"/>
        <path id="패스_1816" data-name="패스 1816" d="M2860.454,1081.691a.8.8,0,1,1-.8-.8.8.8,0,0,1,.8.8" transform="translate(-2844.781 -1070.797)" fill="#24221e"/>
        <path id="패스_1817" data-name="패스 1817" d="M2889.031,1081.691a.8.8,0,1,1-.8-.8.8.8,0,0,1,.8.8" transform="translate(-2865.737 -1070.797)" fill="#24221e"/>
        <path id="패스_1818" data-name="패스 1818" d="M2843.924,1089.821a2.344,2.344,0,1,1-2.335-2.54,2.444,2.444,0,0,1,2.335,2.54" transform="translate(-2830.409 -1075.484)" fill="#ffb18f"/>
        <path id="패스_1819" data-name="패스 1819" d="M2899.232,1089.821a2.343,2.343,0,1,1-2.335-2.54,2.444,2.444,0,0,1,2.335,2.54" transform="translate(-2870.969 -1075.484)" fill="#ffb18f"/>
        <path id="패스_1820" data-name="패스 1820" d="M2872.227,1082.11a1.243,1.243,0,0,0-.371-.222,1.147,1.147,0,0,0-.306-.066,1.125,1.125,0,0,0-.62.122,1.044,1.044,0,0,0-.438.428,1,1,0,0,0-.108.28,1.315,1.315,0,0,0-.027.216,1.411,1.411,0,0,0,.023.217.5.5,0,0,0,.23.3.5.5,0,0,0,.684-.179l.05-.119a.506.506,0,0,0,0-.266.132.132,0,0,0,0-.014c.006.044.012.089.018.133a.529.529,0,0,1,0-.126c-.006.044-.012.089-.018.133a.58.58,0,0,1,.037-.136l-.051.119a.63.63,0,0,1,.08-.136l-.078.1a.645.645,0,0,1,.1-.1l-.1.079a.652.652,0,0,1,.128-.075l-.12.051a.676.676,0,0,1,.159-.042l-.133.018a.737.737,0,0,1,.181,0l-.133-.018a.7.7,0,0,1,.174.048l-.119-.05a.66.66,0,0,1,.127.075l-.1-.078.023.019a.537.537,0,0,0,.354.146.511.511,0,0,0,.354-.146.5.5,0,0,0,.146-.354.493.493,0,0,0-.146-.354" transform="translate(-2853.218 -1071.476)" fill="#24221e"/>
        <path id="패스_1821" data-name="패스 1821" d="M2867.731,1091.683h4.647s.256,3.837-1.833,3.837-2.814-3.837-2.814-3.837" transform="translate(-2851.293 -1078.712)" fill="#fff"/>
        <path id="패스_1822" data-name="패스 1822" d="M2869.169,1094.645c-2.475,0-3.272-4.071-3.305-4.244a.5.5,0,0,1,.491-.593H2871a.5.5,0,0,1,.5.467c.018.265.142,2.622-.924,3.762a1.884,1.884,0,0,1-1.408.609m-2.18-3.837c.317,1.126,1.042,2.837,2.18,2.837a.872.872,0,0,0,.678-.292,4.28,4.28,0,0,0,.667-2.545Z" transform="translate(-2849.918 -1077.337)" fill="#24221e"/>
      </g>
    </g>
  </g>
  <g id="profile-2" data-name="profile" fill="none" stroke="#ff5c5c" stroke-width="1.5">
    <circle cx="25" cy="25" r="25" stroke="none"/>
    <circle cx="25" cy="25" r="24.25" fill="none"/>
  </g>
</svg>
