<svg xmlns="http://www.w3.org/2000/svg" width="23.002" height="23.002" viewBox="0 0 23.002 23.002">
  <g id="그룹_1003" data-name="그룹 1003" transform="translate(-141.376 -13.408)">
    <g id="그룹_999" data-name="그룹 999" transform="translate(141.376 13.408)">
      <g id="그룹_998" data-name="그룹 998">
        <circle id="타원_452" data-name="타원 452" cx="11.501" cy="11.501" r="11.501" transform="translate(0 23.002) rotate(-90)" fill="#fdc42d"/>
        <g id="그룹_997" data-name="그룹 997" transform="translate(2.071 3.527)">
          <path id="패스_2341" data-name="패스 2341" d="M160.934,16.56a11.493,11.493,0,0,1-17.707,14.547A11.495,11.495,0,1,0,160.934,16.56Z" transform="translate(-143.227 -16.56)" fill="#fdb431"/>
        </g>
        <path id="패스_2342" data-name="패스 2342" d="M143.8,19.264a8.628,8.628,0,0,1,4.1-3.966" transform="translate(-141.088 -13.183)" fill="none" stroke="#fff" stroke-linecap="round" stroke-linejoin="round" stroke-width="0.5"/>
      </g>
    </g>
    <g id="그룹_1002" data-name="그룹 1002" transform="translate(146.741 22.939)">
      <g id="그룹_1000" data-name="그룹 1000">
        <path id="패스_2343" data-name="패스 2343" d="M149.386,23.077a1.832,1.832,0,0,0-.083-.182,1.538,1.538,0,0,0-.284-.41,1.655,1.655,0,0,0-.532-.4,1.505,1.505,0,0,0-.344-.12,2.249,2.249,0,0,0-.368-.043,1.743,1.743,0,0,0-1.238.555,1.566,1.566,0,0,0-.368.6A4.237,4.237,0,0,1,149.386,23.077Z" transform="translate(-146.17 -21.925)" fill="#403d3c"/>
      </g>
      <g id="그룹_1001" data-name="그룹 1001" transform="translate(9.055)">
        <path id="패스_2344" data-name="패스 2344" d="M157.478,23.077a1.823,1.823,0,0,0-.083-.182,1.572,1.572,0,0,0-.285-.41,1.643,1.643,0,0,0-.532-.4,1.5,1.5,0,0,0-.342-.12,2.249,2.249,0,0,0-.368-.043,1.746,1.746,0,0,0-1.239.555,1.566,1.566,0,0,0-.368.6A4.239,4.239,0,0,1,157.478,23.077Z" transform="translate(-154.261 -21.925)" fill="#403d3c"/>
      </g>
    </g>
    <path id="패스_2345" data-name="패스 2345" d="M159.1,26.1a22.144,22.144,0,0,0-6.522-.9h-.055a22.144,22.144,0,0,0-6.522.9,7.372,7.372,0,0,0,6.522,3.238h.055A7.372,7.372,0,0,0,159.1,26.1Z" transform="translate(0.551 1.404)" fill="#403d3c"/>
    <path id="패스_2346" data-name="패스 2346" d="M147.341,25.823a29.023,29.023,0,0,1,10.08,0V26.7a.225.225,0,0,1-.232.219h-9.6a.226.226,0,0,1-.232-.216Z" transform="translate(0.71 1.425)" fill="#fff"/>
    <path id="패스_2347" data-name="패스 2347" d="M147.341,27.317a7.142,7.142,0,0,0,4.924,1.635,8.035,8.035,0,0,0,5.156-1.619v-.148a.231.231,0,0,0-.232-.232h-9.6a.232.232,0,0,0-.232.228Z" transform="translate(0.71 1.613)" fill="#fff"/>
  </g>
</svg>
