<svg xmlns="http://www.w3.org/2000/svg" xmlns:xlink="http://www.w3.org/1999/xlink" width="30" height="30" viewBox="0 0 30 30">
  <defs>
    <clipPath id="clip-path">
      <rect id="사각형_1342" data-name="사각형 1342" width="30" height="30" transform="translate(1247 137)" fill="#fff" stroke="#707070" stroke-width="1"/>
    </clipPath>
  </defs>
  <g id="마스크_그룹_180" data-name="마스크 그룹 180" transform="translate(-1247 -137)" clip-path="url(#clip-path)">
    <path id="패스_971" data-name="패스 971" d="M1379.859,357.329c-.545-.166-1.084-.335-1.625-.5a.581.581,0,0,1-.379-.353,8.428,8.428,0,0,0-.474-1.02.587.587,0,0,1-.022-.558c.266-.522.527-1.05.789-1.572a.576.576,0,0,0-.113-.679c-.4-.4-.8-.8-1.189-1.2a.593.593,0,0,0-.7-.1q-.915.49-1.838.976a.56.56,0,0,1-.505.026c-.209-.087-.423-.17-.636-.235a.584.584,0,0,1-.387-.374c-.222-.676-.449-1.342-.667-2.013a.585.585,0,0,0-.562-.4h-1.69a.582.582,0,0,0-.571.418c-.2.674-.414,1.346-.614,2.021a.584.584,0,0,1-.379.388,5.533,5.533,0,0,0-.536.2.559.559,0,0,1-.505-.026c-.614-.323-1.224-.649-1.838-.976a.575.575,0,0,0-.7.1c-.4.4-.8.8-1.194,1.2a.575.575,0,0,0-.113.679c.261.522.527,1.05.789,1.572a.555.555,0,0,1-.022.558,7.762,7.762,0,0,0-.475,1.02.58.58,0,0,1-.379.353l-1.625.5a.582.582,0,0,0-.422.561v1.69a.593.593,0,0,0,.409.566c.536.175,1.067.353,1.6.536a.584.584,0,0,1,.375.361,6.566,6.566,0,0,0,.462,1.028.571.571,0,0,1,0,.566c-.274.514-.549,1.028-.823,1.546a.59.59,0,0,0,.109.692c.4.4.793.8,1.194,1.2a.588.588,0,0,0,.684.113c.619-.313,1.241-.623,1.856-.932a.579.579,0,0,1,.5-.013c.213.087.427.174.649.248a.573.573,0,0,1,.379.388c.2.666.41,1.341.614,2.017a.581.581,0,0,0,.571.422h1.69a.584.584,0,0,0,.562-.41c.218-.666.445-1.341.667-2.008a.558.558,0,0,1,.387-.374c.253-.083.5-.183.749-.283a.578.578,0,0,1,.5.013l1.856.932a.589.589,0,0,0,.684-.113c.4-.4.8-.8,1.193-1.2a.589.589,0,0,0,.109-.692c-.275-.518-.549-1.032-.823-1.546a.57.57,0,0,1,0-.566,6.624,6.624,0,0,0,.462-1.028.582.582,0,0,1,.375-.361c.531-.183,1.067-.362,1.6-.536a.589.589,0,0,0,.405-.566v-1.69A.578.578,0,0,0,1379.859,357.329Zm-9.082,5.994a4.512,4.512,0,1,1,4.778-4.5A4.648,4.648,0,0,1,1370.777,363.323Z" transform="translate(-113.277 -202.319)" fill="#454545"/>
    <path id="패스_2170" data-name="패스 2170" d="M1373.991,354.8c-.373-.114-.742-.23-1.112-.343a.4.4,0,0,1-.259-.241,5.783,5.783,0,0,0-.325-.7.4.4,0,0,1-.015-.381c.182-.357.361-.718.54-1.076a.394.394,0,0,0-.077-.465l-.814-.82a.406.406,0,0,0-.48-.071c-.417.223-.838.447-1.258.668a.383.383,0,0,1-.346.018c-.143-.06-.289-.116-.435-.161a.4.4,0,0,1-.265-.256c-.152-.462-.307-.918-.456-1.377a.4.4,0,0,0-.384-.277h-1.156a.4.4,0,0,0-.39.286c-.14.461-.283.921-.42,1.382a.4.4,0,0,1-.259.265,3.783,3.783,0,0,0-.366.137.382.382,0,0,1-.346-.018c-.42-.221-.838-.444-1.258-.668a.393.393,0,0,0-.477.071c-.274.271-.548.546-.817.82a.394.394,0,0,0-.078.465l.54,1.076a.38.38,0,0,1-.015.381,5.315,5.315,0,0,0-.325.7.4.4,0,0,1-.259.241l-1.112.343a.4.4,0,0,0-.289.384v1.156a.406.406,0,0,0,.281.387c.366.12.73.241,1.1.367a.4.4,0,0,1,.256.247,4.479,4.479,0,0,0,.316.7.392.392,0,0,1,0,.387q-.282.528-.563,1.058a.4.4,0,0,0,.074.474c.274.274.543.548.817.82a.4.4,0,0,0,.468.077c.423-.214.849-.426,1.27-.638a.4.4,0,0,1,.343-.009c.146.06.292.119.444.17a.393.393,0,0,1,.259.265c.137.456.28.918.42,1.38a.4.4,0,0,0,.39.289h1.156a.4.4,0,0,0,.384-.28c.149-.456.3-.918.456-1.374a.382.382,0,0,1,.265-.256c.173-.057.343-.125.513-.194a.4.4,0,0,1,.343.009l1.27.638a.4.4,0,0,0,.468-.077c.274-.271.548-.546.817-.82a.4.4,0,0,0,.074-.474q-.282-.532-.563-1.058a.389.389,0,0,1,0-.387,4.547,4.547,0,0,0,.316-.7.4.4,0,0,1,.256-.247c.364-.125.73-.247,1.1-.367a.4.4,0,0,0,.277-.387v-1.156A.4.4,0,0,0,1373.991,354.8Zm-6.214,4.1a3.087,3.087,0,1,1,3.269-3.082A3.18,3.18,0,0,1,1367.777,358.9Z" transform="translate(-98.277 -211.319)" fill="#00a58a"/>
  </g>
</svg>
