<svg xmlns="http://www.w3.org/2000/svg" xmlns:xlink="http://www.w3.org/1999/xlink" width="19" height="19" viewBox="0 0 19 19">
  <defs>
    <clipPath id="clip-path">
      <rect id="사각형_331" data-name="사각형 331" width="19" height="19" transform="translate(1314 686)" fill="#0f3653"/>
    </clipPath>
  </defs>
  <g id="icon_휴지통" transform="translate(-1314 -686)" clip-path="url(#clip-path)">
    <g id="delete_1_" data-name="delete (1)" transform="translate(1316.255 686)">
      <path id="패스_283" data-name="패스 283" d="M4.164,1.727A.973.973,0,0,1,5.173.747H9.318a.973.973,0,0,1,1.008.98V2.8h.747V1.727A1.721,1.721,0,0,0,9.318,0H5.173A1.721,1.721,0,0,0,3.417,1.727V2.8h.747Zm0,0" fill="#0f3653"/>
      <path id="패스_284" data-name="패스 284" d="M2.829,19h8.832a1.59,1.59,0,0,0,1.512-1.681V5.789H1.316V17.319A1.591,1.591,0,0,0,2.829,19Zm6.8-11.428a.373.373,0,1,1,.747,0V16.4a.373.373,0,0,1-.747,0Zm-2.754,0a.373.373,0,1,1,.747,0V16.4a.373.373,0,0,1-.747,0Zm-2.754,0a.373.373,0,1,1,.747,0V16.4a.373.373,0,0,1-.747,0Zm0,0" fill="#0f3653"/>
      <path id="패스_285" data-name="패스 285" d="M.934,5.042H13.557a.934.934,0,1,0,0-1.867H.934a.934.934,0,1,0,0,1.867Zm0,0" fill="#0f3653"/>
    </g>
  </g>
</svg>
