<svg xmlns="http://www.w3.org/2000/svg" xmlns:xlink="http://www.w3.org/1999/xlink" width="20" height="20" viewBox="0 0 20 20">
  <defs>
    <clipPath id="clip-path">
      <rect id="사각형_882" data-name="사각형 882" width="20" height="20" transform="translate(276 63)" fill="#fff" stroke="#707070" stroke-width="1"/>
    </clipPath>
  </defs>
  <g id="마스크_그룹_151" data-name="마스크 그룹 151" transform="translate(-276 -63)" clip-path="url(#clip-path)">
    <g id="like_2_" data-name="like (2)" transform="translate(276 63)">
      <g id="그룹_832" data-name="그룹 832">
        <g id="그룹_831" data-name="그룹 831">
          <path id="패스_1653" data-name="패스 1653" d="M18.34,12.383a1.757,1.757,0,0,0-1.309-2.93H13.62A11.361,11.361,0,0,0,14.1,6.484V5.9a2.347,2.347,0,0,0-2.344-2.344h-.586A.586.586,0,0,0,10.6,4l-.319,1.277C9.837,7.064,8.417,9.037,6.948,9.4A1.76,1.76,0,0,0,5.313,8.281H1.8a.586.586,0,0,0-.586.586V19.414A.586.586,0,0,0,1.8,20H5.313A1.76,1.76,0,0,0,6.9,19l2.013.671A6.431,6.431,0,0,0,10.951,20h4.909a1.758,1.758,0,0,0,1.634-2.405,1.757,1.757,0,0,0,.846-2.868,1.754,1.754,0,0,0,0-2.344ZM5.9,18.242a.587.587,0,0,1-.586.586H2.383V9.453h2.93a.587.587,0,0,1,.586.586Zm9.961-5.273h1.172a.586.586,0,0,1,0,1.172H15.859a.586.586,0,0,0,0,1.172h1.172a.586.586,0,0,1,0,1.172H15.859a.586.586,0,0,0,0,1.172.586.586,0,0,1,0,1.172H10.951a5.262,5.262,0,0,1-1.668-.271L7.07,17.82V10.57A4.722,4.722,0,0,0,9.7,8.86a8.55,8.55,0,0,0,1.72-3.3l.208-.833h.129A1.173,1.173,0,0,1,12.93,5.9v.586a9.272,9.272,0,0,1-.561,2.969h-1.2a.586.586,0,0,0,0,1.172h5.859a.586.586,0,0,1,0,1.172H15.859a.586.586,0,0,0,0,1.172Z" fill="#fff"/>
        </g>
      </g>
      <g id="그룹_834" data-name="그룹 834">
        <g id="그룹_833" data-name="그룹 833">
          <circle id="타원_405" data-name="타원 405" cx="0.586" cy="0.586" r="0.586" transform="translate(3.555 16.484)" fill="#fff"/>
        </g>
      </g>
      <g id="그룹_836" data-name="그룹 836">
        <g id="그룹_835" data-name="그룹 835">
          <path id="패스_1654" data-name="패스 1654" d="M12.344,0a.586.586,0,0,0-.586.586V1.8a.586.586,0,0,0,1.172,0V.586A.586.586,0,0,0,12.344,0Z" fill="#fff"/>
        </g>
      </g>
      <g id="그룹_838" data-name="그룹 838">
        <g id="그룹_837" data-name="그룹 837">
          <path id="패스_1655" data-name="패스 1655" d="M9.858,2.584l-.829-.829a.586.586,0,0,0-.829.829l.829.829a.586.586,0,0,0,.829-.829Z" fill="#fff"/>
        </g>
      </g>
      <g id="그룹_840" data-name="그룹 840">
        <g id="그룹_839" data-name="그룹 839">
          <path id="패스_1656" data-name="패스 1656" d="M16.487,1.755a.586.586,0,0,0-.829,0l-.829.829a.586.586,0,0,0,.829.829l.829-.829A.586.586,0,0,0,16.487,1.755Z" fill="#fff"/>
        </g>
      </g>
    </g>
  </g>
</svg>
