<svg xmlns="http://www.w3.org/2000/svg" width="59" height="59" viewBox="0 0 59 59">
  <g id="ico_11" transform="translate(-712 -992)">
    <rect id="bg_" width="59" height="59" rx="5" transform="translate(712 992)" fill="#fee"/>
    <g id="그룹_1223" data-name="그룹 1223" transform="translate(726.75 1006.762)">
      <path id="패스_2541" data-name="패스 2541" d="M3012.045,111.8A8.246,8.246,0,0,0,2999,121.613l-1.476,4.229a.437.437,0,0,0,.558.556l4.252-1.5a8.246,8.246,0,0,0,9.714-13.1Zm-.618,11.042a7.373,7.373,0,0,1-8.841,1.2.437.437,0,0,0-.361-.032l-3.58,1.261,1.242-3.558a.438.438,0,0,0-.036-.365,7.372,7.372,0,1,1,11.575,1.489Z" transform="translate(-2984.961 -109.38)" fill="#0f3653" stroke="#0f3653" stroke-width="0.5"/>
      <g id="그룹_1222" data-name="그룹 1222" transform="translate(16.977 7.425)">
        <path id="패스_2542" data-name="패스 2542" d="M3038.219,176.1a.82.82,0,1,0,.82.82A.821.821,0,0,0,3038.219,176.1Z" transform="translate(-3037.399 -176.1)" fill="#0f3653" stroke="#0f3653" stroke-width="0.5"/>
        <path id="패스_2543" data-name="패스 2543" d="M3069.289,176.1a.82.82,0,1,0,.82.82A.821.821,0,0,0,3069.289,176.1Z" transform="translate(-3065.01 -176.1)" fill="#0f3653" stroke="#0f3653" stroke-width="0.5"/>
        <path id="패스_2544" data-name="패스 2544" d="M3100.359,176.1a.82.82,0,1,0,.82.82A.821.821,0,0,0,3100.359,176.1Z" transform="translate(-3092.623 -176.1)" fill="#0f3653" stroke="#0f3653" stroke-width="0.5"/>
      </g>
      <path id="패스_2545" data-name="패스 2545" d="M2908.819,172.643l-3.784-2.163a2.956,2.956,0,0,0-3.576.5l-1.492,1.522a1.971,1.971,0,0,1-2.318.357,15.387,15.387,0,0,1-5.83-5.717,1.97,1.97,0,0,1,.312-2.324l1.492-1.522a2.956,2.956,0,0,0,.426-3.585l-2.237-3.741a2.358,2.358,0,0,0-3.406-.7l-.2.144a8.077,8.077,0,0,0-3.2,8.077,22.075,22.075,0,0,0,1.716,5.286,18.837,18.837,0,0,0,9.393,9.211,22.075,22.075,0,0,0,5.319,1.612,8.079,8.079,0,0,0,8.013-3.359l.141-.2a2.358,2.358,0,0,0-.768-3.392Zm.049,2.893-.141.2a7.2,7.2,0,0,1-7.146,3,21.194,21.194,0,0,1-5.108-1.547,17.967,17.967,0,0,1-8.964-8.789,21.194,21.194,0,0,1-1.647-5.077,7.2,7.2,0,0,1,2.855-7.2l.2-.144a1.484,1.484,0,0,1,2.144.441l2.236,3.741a2.082,2.082,0,0,1-.3,2.524l-1.493,1.522a2.833,2.833,0,0,0-.451,3.361,16.255,16.255,0,0,0,6.184,6.064,2.834,2.834,0,0,0,3.352-.518l1.492-1.522a2.082,2.082,0,0,1,2.519-.35l3.784,2.163a1.484,1.484,0,0,1,.483,2.135Z" transform="translate(-2884.858 -149.762)" fill="#0f3653" stroke="#0f3653" stroke-width="0.5"/>
    </g>
  </g>
</svg>
