<svg id="icon_homework_sub" xmlns="http://www.w3.org/2000/svg" xmlns:xlink="http://www.w3.org/1999/xlink" width="30" height="30" viewBox="0 0 30 30">
  <defs>
    <clipPath id="clip-path">
      <rect id="사각형_118" data-name="사각형 118" width="30" height="30" fill="#2c93e8"/>
    </clipPath>
  </defs>
  <g id="icon_과제제출" clip-path="url(#clip-path)">
    <g id="book_1_" data-name="book (1)" transform="translate(0 2.002)">
      <path id="패스_86" data-name="패스 86" d="M29.121,6.131H27.848L26.36,3.155a.879.879,0,0,0-.833-.485A40.383,40.383,0,0,0,15,4.721,38.688,38.688,0,0,0,4.473,2.67a.88.88,0,0,0-.833.485L2.152,6.131H.879A.879.879,0,0,0,0,7.01V24.588a.879.879,0,0,0,.879.879H2.41a33.311,33.311,0,0,1,10.128,1.574,2.678,2.678,0,0,0,4.924,0A33.311,33.311,0,0,1,27.59,25.467h1.531A.879.879,0,0,0,30,24.588V7.01a.879.879,0,0,0-.879-.879ZM4.953,4.46a37.21,37.21,0,0,1,9.769,2.021.879.879,0,0,0,.556,0A37.362,37.362,0,0,1,25.047,4.46L25.9,6.171a35.06,35.06,0,0,0-9.4,1.756h0a.873.873,0,0,0-.6.667.914.914,0,0,1-1.792,0,.875.875,0,0,0-.6-.667h0A35.061,35.061,0,0,0,4.1,6.171ZM1.758,23.709V7.889H2.41a33.309,33.309,0,0,1,9.953,1.519V25.148A35.061,35.061,0,0,0,2.41,23.709ZM15,26.908a.872.872,0,0,1-.879-.665V10.948a2.836,2.836,0,0,0,1.758,0V26.243A.872.872,0,0,1,15,26.908Zm13.242-3.2H27.59a35.061,35.061,0,0,0-9.953,1.439V9.407A33.307,33.307,0,0,1,27.59,7.889h.652Z" transform="translate(0 -2.669)" fill="#2c93e8"/>
    </g>
  </g>
</svg>
