<svg id="ico_draw" xmlns="http://www.w3.org/2000/svg" xmlns:xlink="http://www.w3.org/1999/xlink" width="18" height="18" viewBox="0 0 18 18">
  <defs>
    <clipPath id="clip-path">
      <rect id="사각형_229" data-name="사각형 229" width="18" height="18" fill="#72787f"/>
    </clipPath>
  </defs>
  <g id="마스크_그룹_4" data-name="마스크 그룹 4" clip-path="url(#clip-path)">
    <g id="Layer_2" data-name="Layer 2" transform="translate(0.426 0)">
      <g id="그리기" transform="translate(0)">
        <path id="패스_180" data-name="패스 180" d="M21.514,4.4,17.3.179a.605.605,0,0,0-.856,0L5.95,10.668a.608.608,0,0,0-.165.31L4.739,16.242a.6.6,0,0,0,.594.723.621.621,0,0,0,.118-.012l5.264-1.046a.6.6,0,0,0,.31-.165L21.514,5.251a.6.6,0,0,0,0-.855ZM6.346,14.361l.546-2.752,3.19,3.19-2.751.546Z" transform="translate(-4.727 -0.002)" fill="#72787f"/>
      </g>
    </g>
  </g>
</svg>
