<svg xmlns="http://www.w3.org/2000/svg" width="23" height="23" viewBox="0 0 23 23">
  <g id="O" transform="translate(-23605.998 -14242.349)" fill="#f03a17">
    <path d="M 23617.498046875 14264.8486328125 C 23614.5625 14264.8486328125 23611.798828125 14263.705078125 23609.720703125 14261.6279296875 C 23607.642578125 14259.55078125 23606.498046875 14256.7880859375 23606.498046875 14253.8486328125 C 23606.498046875 14247.783203125 23611.43359375 14242.8486328125 23617.498046875 14242.8486328125 C 23623.5625 14242.8486328125 23628.498046875 14247.783203125 23628.498046875 14253.8486328125 C 23628.498046875 14256.7900390625 23627.353515625 14259.552734375 23625.275390625 14261.6279296875 C 23623.19921875 14263.705078125 23620.435546875 14264.8486328125 23617.498046875 14264.8486328125 Z M 23617.498046875 14247.0810546875 C 23613.763671875 14247.0810546875 23610.724609375 14250.1171875 23610.724609375 14253.8486328125 C 23610.724609375 14257.583984375 23613.763671875 14260.6220703125 23617.498046875 14260.6220703125 C 23621.232421875 14260.6220703125 23624.271484375 14257.583984375 23624.271484375 14253.8486328125 C 23624.271484375 14250.1171875 23621.232421875 14247.0810546875 23617.498046875 14247.0810546875 Z" stroke="none"/>
    <path d="M 23617.498046875 14264.3486328125 C 23620.302734375 14264.3486328125 23622.939453125 14263.2568359375 23624.921875 14261.2734375 C 23626.90625 14259.29296875 23627.998046875 14256.65625 23627.998046875 14253.8486328125 C 23627.998046875 14248.05859375 23623.287109375 14243.3486328125 23617.498046875 14243.3486328125 C 23611.708984375 14243.3486328125 23606.998046875 14248.05859375 23606.998046875 14253.8486328125 C 23606.998046875 14256.654296875 23608.08984375 14259.291015625 23610.07421875 14261.2744140625 C 23612.05859375 14263.2568359375 23614.6953125 14264.3486328125 23617.498046875 14264.3486328125 M 23617.498046875 14246.5810546875 C 23621.5078125 14246.5810546875 23624.771484375 14249.8408203125 23624.771484375 14253.8486328125 C 23624.771484375 14257.859375 23621.5078125 14261.1220703125 23617.498046875 14261.1220703125 C 23613.48828125 14261.1220703125 23610.224609375 14257.859375 23610.224609375 14253.8486328125 C 23610.224609375 14249.8408203125 23613.48828125 14246.5810546875 23617.498046875 14246.5810546875 M 23617.498046875 14265.3486328125 C 23614.427734375 14265.3486328125 23611.541015625 14264.1533203125 23609.3671875 14261.9814453125 C 23607.1953125 14259.810546875 23605.998046875 14256.9228515625 23605.998046875 14253.8486328125 C 23605.998046875 14247.5078125 23611.158203125 14242.3486328125 23617.498046875 14242.3486328125 C 23623.83984375 14242.3486328125 23628.998046875 14247.5078125 23628.998046875 14253.8486328125 C 23628.998046875 14256.9228515625 23627.802734375 14259.810546875 23625.62890625 14261.9814453125 C 23623.45703125 14264.1533203125 23620.5703125 14265.3486328125 23617.498046875 14265.3486328125 Z M 23617.498046875 14247.5810546875 C 23614.037109375 14247.5810546875 23611.224609375 14250.392578125 23611.224609375 14253.8486328125 C 23611.224609375 14257.3076171875 23614.037109375 14260.1220703125 23617.498046875 14260.1220703125 C 23620.95703125 14260.1220703125 23623.771484375 14257.3076171875 23623.771484375 14253.8486328125 C 23623.771484375 14250.392578125 23620.95703125 14247.5810546875 23617.498046875 14247.5810546875 Z" stroke="none" fill="#000"/>
  </g>
</svg>
