<svg xmlns="http://www.w3.org/2000/svg" width="20.165" height="22.996" viewBox="0 0 20.165 22.996">
  <g id="그룹_1089" data-name="그룹 1089" transform="translate(-516.189 -230.288)">
    <g id="그룹_1087" data-name="그룹 1087" transform="translate(516.189 240.726)">
      <rect id="사각형_1047" data-name="사각형 1047" width="3.966" height="9.58" transform="translate(0.464 0.464)" fill="#fdc42d"/>
      <path id="패스_2433" data-name="패스 2433" d="M520.619,263.321h-3.967a.464.464,0,0,1-.463-.463v-9.581a.464.464,0,0,1,.463-.463h3.967a.463.463,0,0,1,.463.463v9.581A.463.463,0,0,1,520.619,263.321Zm-3.5-.927h3.04v-8.654h-3.04Z" transform="translate(-516.189 -252.814)"/>
    </g>
    <g id="그룹_1088" data-name="그룹 1088" transform="translate(520.156 230.288)">
      <path id="패스_2434" data-name="패스 2434" d="M541.022,244.805a1.71,1.71,0,0,0-1.711-1.71,1.71,1.71,0,1,0,0-3.421h-5.377l2.728-5.243c.546-1.33.473-1.887-.147-2.576a1.711,1.711,0,0,0-2.482-.067s-3.084,4.174-4.409,5.037c-3.845,2.5-3.874,3.846-3.874,6.195v7.945a4.066,4.066,0,0,0,3.7,2.393h9.856a1.71,1.71,0,1,0,0-3.421,1.71,1.71,0,1,0,0-3.42A1.711,1.711,0,0,0,541.022,244.805Z" transform="translate(-525.287 -230.825)" fill="#fdc42d"/>
      <path id="패스_2435" data-name="패스 2435" d="M538.775,253.284h-9.856a4.543,4.543,0,0,1-4.127-2.665.46.46,0,0,1-.041-.191v-7.945c0-2.579.182-4.042,4.084-6.583,1.029-.67,3.445-3.781,4.289-4.924a.545.545,0,0,1,.045-.052,2.193,2.193,0,0,1,1.594-.636,2.157,2.157,0,0,1,1.561.72c.774.86.83,1.6.231,3.062l-2.393,4.6h4.615a2.173,2.173,0,0,1,1.34,3.884,2.171,2.171,0,0,1,0,3.421,2.172,2.172,0,0,1,0,3.421,2.173,2.173,0,0,1-1.34,3.884Zm-13.1-2.959a3.613,3.613,0,0,0,3.242,2.033h9.856a1.247,1.247,0,0,0,0-2.494.463.463,0,1,1,0-.927,1.247,1.247,0,0,0,0-2.495.463.463,0,1,1,0-.927,1.247,1.247,0,0,0,0-2.494.463.463,0,1,1,0-.927,1.247,1.247,0,0,0,0-2.494H533.4a.464.464,0,0,1-.411-.677l2.728-5.242c.5-1.219.36-1.564-.08-2.052a1.238,1.238,0,0,0-.9-.414,1.263,1.263,0,0,0-.892.342c-.305.412-3.174,4.252-4.506,5.12-3.663,2.385-3.663,3.528-3.663,5.806Z" transform="translate(-524.75 -230.288)"/>
    </g>
  </g>
</svg>
