<svg xmlns="http://www.w3.org/2000/svg" width="59" height="59" viewBox="0 0 59 59">
  <g id="ico_02" transform="translate(-712 -216)">
    <rect id="bg_" width="59" height="59" rx="5" transform="translate(712 216)" fill="#fee"/>
    <g id="그룹_1180" data-name="그룹 1180" transform="translate(726.751 233.7)">
      <path id="패스_2477" data-name="패스 2477" d="M-203.542,436.7a.578.578,0,0,1-.508-.629,2.3,2.3,0,0,0-2.021-2.5h-9.508a.578.578,0,0,1-.508-.629V413.726a.578.578,0,0,1,.508-.629h9.508c1.674,0,3.037,1.688,3.037,3.763v19.209A.578.578,0,0,1-203.542,436.7Zm-11.53-4.391h9a2.727,2.727,0,0,1,2.021.957v-16.4a2.3,2.3,0,0,0-2.021-2.5h-9Z" transform="translate(218.666 -413.097)" fill="#0f3653" stroke="#0f3653" stroke-width="0.5"/>
      <path id="패스_2478" data-name="패스 2478" d="M-185.936,436.7a.578.578,0,0,1-.508-.629V416.86c0-2.075,1.362-3.763,3.037-3.763h9.508a.578.578,0,0,1,.508.629v19.209a.578.578,0,0,1-.508.629h-9.508a2.3,2.3,0,0,0-2.021,2.5A.578.578,0,0,1-185.936,436.7Zm2.529-22.342a2.3,2.3,0,0,0-2.021,2.5v16.4a2.727,2.727,0,0,1,2.021-.957h9V414.355Z" transform="translate(200.246 -413.097)" fill="#0f3653" stroke="#0f3653" stroke-width="0.5"/>
      <path id="패스_2479" data-name="패스 2479" d="M-202.656,421.309H-208.7a.579.579,0,0,1-.508-.63.579.579,0,0,1,.508-.63h6.042a.579.579,0,0,1,.508.63A.579.579,0,0,1-202.656,421.309Z" transform="translate(214.391 -416.449)" fill="#0f3653" stroke="#0f3653" stroke-width="0.5"/>
      <path id="패스_2480" data-name="패스 2480" d="M-202.656,427.518H-208.7a.579.579,0,0,1-.508-.63.579.579,0,0,1,.508-.63h6.042a.579.579,0,0,1,.508.63A.579.579,0,0,1-202.656,427.518Z" transform="translate(214.391 -419.637)" fill="#0f3653" stroke="#0f3653" stroke-width="0.5"/>
      <path id="패스_2481" data-name="패스 2481" d="M-202.656,433.728H-208.7a.579.579,0,0,1-.508-.63.579.579,0,0,1,.508-.63h6.042a.579.579,0,0,1,.508.63A.579.579,0,0,1-202.656,433.728Z" transform="translate(214.391 -422.722)" fill="#0f3653" stroke="#0f3653" stroke-width="0.5"/>
      <path id="패스_2482" data-name="패스 2482" d="M-202.656,439.937H-208.7a.579.579,0,0,1-.508-.63.579.579,0,0,1,.508-.63h6.042a.579.579,0,0,1,.508.63A.579.579,0,0,1-202.656,439.937Z" transform="translate(214.391 -425.808)" fill="#0f3653" stroke="#0f3653" stroke-width="0.5"/>
      <path id="패스_2483" data-name="패스 2483" d="M-202.656,446.146H-208.7a.579.579,0,0,1-.508-.63.579.579,0,0,1,.508-.63h6.042a.579.579,0,0,1,.508.63A.579.579,0,0,1-202.656,446.146Z" transform="translate(214.391 -428.893)" fill="#0f3653" stroke="#0f3653" stroke-width="0.5"/>
      <path id="패스_2484" data-name="패스 2484" d="M-172.012,421.309h-6.042a.578.578,0,0,1-.508-.63.579.579,0,0,1,.508-.63h6.042a.579.579,0,0,1,.508.63A.579.579,0,0,1-172.012,421.309Z" transform="translate(195.756 -416.449)" fill="#0f3653" stroke="#0f3653" stroke-width="0.5"/>
      <path id="패스_2485" data-name="패스 2485" d="M-172.012,427.518h-6.042a.578.578,0,0,1-.508-.63.579.579,0,0,1,.508-.63h6.042a.579.579,0,0,1,.508.63A.579.579,0,0,1-172.012,427.518Z" transform="translate(195.756 -419.637)" fill="#0f3653" stroke="#0f3653" stroke-width="0.5"/>
      <path id="패스_2486" data-name="패스 2486" d="M-172.012,433.728h-6.042a.579.579,0,0,1-.508-.63.578.578,0,0,1,.508-.63h6.042a.579.579,0,0,1,.508.63A.579.579,0,0,1-172.012,433.728Z" transform="translate(195.756 -422.722)" fill="#0f3653" stroke="#0f3653" stroke-width="0.5"/>
      <path id="패스_2487" data-name="패스 2487" d="M-172.012,439.937h-6.042a.579.579,0,0,1-.508-.63.578.578,0,0,1,.508-.63h6.042a.579.579,0,0,1,.508.63A.579.579,0,0,1-172.012,439.937Z" transform="translate(195.756 -425.808)" fill="#0f3653" stroke="#0f3653" stroke-width="0.5"/>
      <path id="패스_2488" data-name="패스 2488" d="M-172.012,446.146h-6.042a.578.578,0,0,1-.508-.63.579.579,0,0,1,.508-.63h6.042a.579.579,0,0,1,.508.63A.579.579,0,0,1-172.012,446.146Z" transform="translate(195.756 -428.893)" fill="#0f3653" stroke="#0f3653" stroke-width="0.5"/>
      <path id="패스_2489" data-name="패스 2489" d="M-193.432,438.89h-28.512a.574.574,0,0,1-.494-.629V418.146a.573.573,0,0,1,.494-.629h.855a.573.573,0,0,1,.494.629.574.574,0,0,1-.494.629h-.361v18.857h27.524V418.775h-.536a.574.574,0,0,1-.494-.629.574.574,0,0,1,.494-.629h1.03a.573.573,0,0,1,.494.629v20.115A.574.574,0,0,1-193.432,438.89Z" transform="translate(222.438 -415.29)" fill="#0f3653" stroke="#0f3653" stroke-width="0.5"/>
    </g>
  </g>
</svg>
