<svg xmlns="http://www.w3.org/2000/svg" width="17.298" height="15.002" viewBox="0 0 17.298 15.002">
  <g id="그룹_978" data-name="그룹 978" transform="translate(-480.002 -148.999)">
    <g id="빼기_1" data-name="빼기 1" transform="translate(1124.002 -16074)" fill="#fff">
      <path d="M-636.5,16238a7.509,7.509,0,0,1-7.5-7.5,7.506,7.506,0,0,1,7.5-7.5c.158,0,.327.006.5.017v2.008c-.16-.016-.329-.023-.5-.023a5.505,5.505,0,0,0-5.5,5.5,5.508,5.508,0,0,0,5.5,5.5,5.508,5.508,0,0,0,5.5-5.5c0-.163-.008-.33-.023-.5h2.007c.011.171.016.338.016.5A7.511,7.511,0,0,1-636.5,16238Z" stroke="none"/>
      <path d="M -636.501708984375 16238.0009765625 C -640.6363525390625 16238.0009765625 -644.0000610351562 16234.634765625 -644.0000610351562 16230.498046875 C -644.0000610351562 16226.36328125 -640.6363525390625 16223 -636.501708984375 16223 C -636.3433837890625 16223 -636.1747436523438 16223.005859375 -636.00048828125 16223.0166015625 L -636.00048828125 16225.0244140625 C -636.1608276367188 16225.0087890625 -636.3291015625 16225.0009765625 -636.501708984375 16225.0009765625 C -639.5352783203125 16225.0009765625 -642.0032348632812 16227.466796875 -642.0032348632812 16230.498046875 C -642.0032348632812 16233.5322265625 -639.5352783203125 16236 -636.501708984375 16236 C -633.4682006835938 16236 -631.0001831054688 16233.5322265625 -631.0001831054688 16230.498046875 C -631.0001831054688 16230.3349609375 -631.0078735351562 16230.16796875 -631.02294921875 16230.0009765625 L -629.0156860351562 16230.0009765625 C -629.0044555664062 16230.171875 -628.999267578125 16230.3388671875 -628.999267578125 16230.498046875 C -628.999267578125 16234.634765625 -632.3648071289062 16238.0009765625 -636.501708984375 16238.0009765625 Z" stroke="none" fill="#fc5d5b"/>
    </g>
    <g id="checked_3_" data-name="checked (3)" transform="translate(481 146.668)">
      <path id="패스_361" data-name="패스 361" d="M19.553,3.346a.7.7,0,0,0-.989,0l-8.388,8.366L7.15,8.424a.7.7,0,1,0-1.029.947L9.64,13.194a.7.7,0,0,0,.5.225h.015a.7.7,0,0,0,.494-.2l8.9-8.88A.7.7,0,0,0,19.553,3.346Z" transform="translate(-3.531 -0.81)" fill="#ff5c5c"/>
    </g>
    <rect id="사각형_1207" data-name="사각형 1207" width="3.3" height="1" transform="translate(494 156)" fill="#fc5d5b"/>
  </g>
</svg>
