<svg xmlns="http://www.w3.org/2000/svg" width="59" height="59" viewBox="0 0 59 59">
  <g id="ico_10" transform="translate(-712 -907)">
    <rect id="bg_" width="59" height="59" rx="5" transform="translate(712 907)" fill="#fee"/>
    <g id="그룹_1221" data-name="그룹 1221" transform="translate(726.75 922.693)">
      <path id="패스_2516" data-name="패스 2516" d="M6724.614,1238.791a.7.7,0,0,1-.5-.206l-1.873-1.873a.7.7,0,0,1,.993-.993l1.874,1.873a.7.7,0,0,1-.5,1.2Z" transform="translate(-6718.292 -1224.275)" fill="#0f3653"/>
      <path id="패스_2517" data-name="패스 2517" d="M6740.741,1230.727a.7.7,0,0,1-.5-1.2l2.81-2.81a.7.7,0,0,1,.994.993l-2.81,2.81A.7.7,0,0,1,6740.741,1230.727Z" transform="translate(-6734.42 -1216.211)" fill="#0f3653"/>
      <path id="패스_2518" data-name="패스 2518" d="M6816.487,1236.918h-3.746a.7.7,0,1,1,0-1.4h3.746a.7.7,0,1,1,0,1.4Z" transform="translate(-6798.928 -1224.275)" fill="#0f3653"/>
      <path id="패스_2519" data-name="패스 2519" d="M6816.487,1308.918h-3.746a.7.7,0,1,1,0-1.4h3.746a.7.7,0,1,1,0,1.4Z" transform="translate(-6798.928 -1288.783)" fill="#0f3653"/>
      <path id="패스_2520" data-name="패스 2520" d="M6722.741,1294.664a.7.7,0,0,1-.7-.7v-3.746a.7.7,0,1,1,1.4,0v3.746A.7.7,0,0,1,6722.741,1294.664Z" transform="translate(-6718.293 -1272.656)" fill="#0f3653"/>
      <path id="패스_2521" data-name="패스 2521" d="M6726.486,1326.918h-3.745a.7.7,0,0,1,0-1.4h3.745a.7.7,0,1,1,0,1.4Z" transform="translate(-6718.293 -1304.91)" fill="#0f3653"/>
      <path id="패스_2522" data-name="패스 2522" d="M6758.741,1294.664a.7.7,0,0,1-.7-.7v-3.746a.7.7,0,1,1,1.4,0v3.746A.7.7,0,0,1,6758.741,1294.664Z" transform="translate(-6750.547 -1272.656)" fill="#0f3653"/>
      <path id="패스_2523" data-name="패스 2523" d="M6726.486,1290.918h-3.745a.7.7,0,0,1,0-1.4h3.745a.7.7,0,1,1,0,1.4Z" transform="translate(-6718.293 -1272.656)" fill="#0f3653"/>
      <path id="패스_2524" data-name="패스 2524" d="M6816.487,1272.918h-3.746a.7.7,0,1,1,0-1.4h3.746a.7.7,0,1,1,0,1.4Z" transform="translate(-6798.928 -1256.529)" fill="#0f3653"/>
      <path id="패스_2525" data-name="패스 2525" d="M6724.614,1184.791a.7.7,0,0,1-.5-.206l-1.873-1.873a.7.7,0,0,1,.993-.993l1.874,1.873a.7.7,0,0,1-.5,1.2Z" transform="translate(-6718.292 -1175.894)" fill="#0f3653"/>
      <path id="패스_2526" data-name="패스 2526" d="M6740.741,1176.727a.7.7,0,0,1-.5-1.2l2.81-2.81a.7.7,0,0,1,.994.993l-2.81,2.81A.7.7,0,0,1,6740.741,1176.727Z" transform="translate(-6734.42 -1167.83)" fill="#0f3653"/>
      <path id="패스_2527" data-name="패스 2527" d="M6686.741,1155.14a.7.7,0,0,1-.7-.7v-26.222a.7.7,0,1,1,1.4,0v26.222A.7.7,0,0,1,6686.741,1155.14Z" transform="translate(-6686.039 -1127.513)" fill="#0f3653"/>
      <path id="패스_2528" data-name="패스 2528" d="M6884.742,1203.521a.7.7,0,0,1-.7-.7v-20.6a.7.7,0,1,1,1.4,0v20.6A.7.7,0,0,1,6884.742,1203.521Z" transform="translate(-6863.436 -1175.894)" fill="#0f3653"/>
      <path id="패스_2529" data-name="패스 2529" d="M6707.345,1380.918h-20.6a.7.7,0,0,1,0-1.4h20.6a.7.7,0,0,1,0,1.4Z" transform="translate(-6686.039 -1353.291)" fill="#0f3653"/>
      <path id="패스_2530" data-name="패스 2530" d="M6701.725,1128.917h-14.983a.7.7,0,0,1,0-1.4h14.983a.7.7,0,1,1,0,1.4Z" transform="translate(-6686.039 -1127.513)" fill="#0f3653"/>
      <path id="패스_2531" data-name="패스 2531" d="M6916.424,1380.918h-4.683a.7.7,0,0,1,0-1.4h4.683a.7.7,0,0,1,0,1.4Z" transform="translate(-6887.626 -1353.291)" fill="#0f3653"/>
      <path id="패스_2532" data-name="패스 2532" d="M6911.741,1219.648a.7.7,0,0,1-.7-.7v-18.73a.7.7,0,1,1,1.4,0v18.73A.7.7,0,0,1,6911.741,1219.648Z" transform="translate(-6887.626 -1192.021)" fill="#0f3653"/>
      <path id="패스_2533" data-name="패스 2533" d="M6956.741,1219.648a.7.7,0,0,1-.7-.7v-18.73a.7.7,0,1,1,1.4,0v18.73A.7.7,0,0,1,6956.741,1219.648Z" transform="translate(-6927.944 -1192.021)" fill="#0f3653"/>
      <path id="패스_2534" data-name="패스 2534" d="M6911.74,1152.535a.7.7,0,0,1-.648-.973l2.341-5.619a.7.7,0,1,1,1.3.54l-2.341,5.619A.7.7,0,0,1,6911.74,1152.535Z" transform="translate(-6887.625 -1143.638)" fill="#0f3653"/>
      <path id="패스_2535" data-name="패스 2535" d="M6936.581,1152.536a.7.7,0,0,1-.648-.432l-2.341-5.619a.7.7,0,1,1,1.3-.54l2.342,5.619a.7.7,0,0,1-.648.973Z" transform="translate(-6907.784 -1143.639)" fill="#0f3653"/>
      <path id="패스_2536" data-name="패스 2536" d="M6916.424,1344.917h-4.683a.7.7,0,0,1,0-1.4h4.683a.7.7,0,0,1,0,1.4Z" transform="translate(-6887.626 -1321.037)" fill="#0f3653"/>
      <path id="패스_2537" data-name="패스 2537" d="M6916.424,1200.918h-4.683a.7.7,0,0,1,0-1.4h4.683a.7.7,0,0,1,0,1.4Z" transform="translate(-6887.626 -1192.021)" fill="#0f3653"/>
      <path id="패스_2538" data-name="패스 2538" d="M6836.36,1134.537a.7.7,0,0,1-.5-.206l-5.62-5.619a.7.7,0,0,1,.993-.993l5.62,5.619a.7.7,0,0,1-.5,1.2Z" transform="translate(-6815.054 -1127.513)" fill="#0f3653"/>
      <path id="패스_2539" data-name="패스 2539" d="M6830.741,1134.537a.7.7,0,0,1-.7-.7v-5.619a.7.7,0,1,1,1.4,0v5.619A.7.7,0,0,1,6830.741,1134.537Z" transform="translate(-6815.055 -1127.513)" fill="#0f3653"/>
      <path id="패스_2540" data-name="패스 2540" d="M6836.36,1182.918h-5.619a.7.7,0,0,1,0-1.4h5.619a.7.7,0,0,1,0,1.4Z" transform="translate(-6815.055 -1175.894)" fill="#0f3653"/>
    </g>
  </g>
</svg>
