<svg xmlns="http://www.w3.org/2000/svg" xmlns:xlink="http://www.w3.org/1999/xlink" width="256.317" height="161.182" viewBox="0 0 256.317 161.182">
  <defs>
    <filter id="패스_1090" x="0" y="0" width="256.317" height="161.182" filterUnits="userSpaceOnUse">
      <feOffset dy="3" input="SourceAlpha"/>
      <feGaussianBlur stdDeviation="10" result="blur"/>
      <feFlood flood-color="#454c53" flood-opacity="0.302"/>
      <feComposite operator="in" in2="blur"/>
      <feComposite in="SourceGraphic"/>
    </filter>
    <clipPath id="clip-path">
      <rect id="사각형_891" data-name="사각형 891" width="25" height="25" transform="translate(0 0)" fill="#fff"/>
    </clipPath>
  </defs>
  <g id="그룹_838" data-name="그룹 838" transform="translate(-499.998 -720.818)">
    <path id="패스_1091" data-name="패스 1091" d="M-.161,55.388-12.146,41.311l.032,101.18H184.172L99.409,115.877" transform="translate(542.145 706.509)" fill="#ff5c5c"/>
    <g transform="matrix(1, 0, 0, 1, 500, 720.82)" filter="url(#패스_1090)">
      <path id="패스_1090-2" data-name="패스 1090" d="M500.454,667.418c-87.077-20.591-148.009-29.786-196.317-101.182,40.688,49.5,74.515,0,74.515,0S397.437,627.488,500.454,667.418Z" transform="translate(-274.14 -539.24)" fill="#fff"/>
    </g>
    <g id="ico_" transform="translate(545.033 809)" clip-path="url(#clip-path)">
      <path id="right-arrow_1_" data-name="right-arrow (1)" d="M13.032,5.287A1.042,1.042,0,0,1,14.468,6.8L6.478,14.375H27.292a1.042,1.042,0,0,1,0,2.083H6.511l7.957,7.579a1.041,1.041,0,1,1-1.436,1.508L3.944,16.89a2.082,2.082,0,0,1,.018-2.964Z" transform="translate(-3.334 -2.916)" fill="#fff"/>
    </g>
  </g>
</svg>
