<svg xmlns="http://www.w3.org/2000/svg" width="550" height="301" viewBox="0 0 550 301">
  <g id="그룹_765" data-name="그룹 765" transform="translate(-93 -851)">
    <text id="_2단원_문장_받아쓰기" data-name="2단원 문장 받아쓰기" transform="translate(293 1147)" fill="#1b1d1f" font-size="18" font-family="NotoSansCJKkr-Bold, Noto Sans CJK KR" font-weight="700"><tspan x="0" y="0">2단원 문장 받아쓰기</tspan></text>
    <text id="_온라인_워크시트_" data-name="[ 온라인 워크시트 ]" transform="translate(306 1116)" fill="#1b1d1f" font-size="16" font-family="NotoSansCJKkr-Regular, Noto Sans CJK KR"><tspan x="0" y="0">[ 온라인 워크시트 ]</tspan></text>
    <g id="graph" transform="translate(-592 413)">
      <text id="_40_49" data-name="40~49" transform="translate(909 661)" fill="#72787f" font-size="13" font-family="Roboto-Regular, Roboto"><tspan x="-19.021" y="0">40~49</tspan></text>
      <text id="_30_39" data-name="30~39" transform="translate(858 661)" fill="#72787f" font-size="13" font-family="Roboto-Regular, Roboto"><tspan x="-19.021" y="0">30~39</tspan></text>
      <text id="_20_29" data-name="20~29" transform="translate(806 661)" fill="#72787f" font-size="13" font-family="Roboto-Regular, Roboto"><tspan x="-19.021" y="0">20~29</tspan></text>
      <g id="line">
        <rect id="line-2" data-name="line" width="550" height="1" transform="translate(685 643)" fill="#e8ebed"/>
        <rect id="line-3" data-name="line" width="550" height="1" transform="translate(685 609)" fill="#e8ebed"/>
        <rect id="line-4" data-name="line" width="550" height="1" transform="translate(685 575)" fill="#e8ebed"/>
        <rect id="line-5" data-name="line" width="550" height="1" transform="translate(685 541)" fill="#e8ebed"/>
        <rect id="line-6" data-name="line" width="550" height="1" transform="translate(685 506)" fill="#e8ebed"/>
        <rect id="line-7" data-name="line" width="550" height="1" transform="translate(685 472)" fill="#e8ebed"/>
        <rect id="line-8" data-name="line" width="550" height="1" transform="translate(685 438)" fill="#e8ebed"/>
      </g>
      <text id="_100" data-name="100" transform="translate(1218 661)" fill="#72787f" font-size="13" font-family="Roboto-Regular, Roboto"><tspan x="-10.95" y="0">100</tspan></text>
      <path id="graph-2" data-name="graph" d="M7.5,0h0A7.5,7.5,0,0,1,15,7.5V67H0V7.5A7.5,7.5,0,0,1,7.5,0Z" transform="translate(1210 576)" fill="#ffb643"/>
      <text id="_2" data-name="2" transform="translate(1214 567)" fill="#1b1d1f" font-size="14" font-family="Roboto-Regular, Roboto"><tspan x="0" y="0">2</tspan></text>
      <text id="_90_99" data-name="90~99" transform="translate(1167 661)" fill="#72787f" font-size="13" font-family="Roboto-Regular, Roboto"><tspan x="-19.021" y="0">90~99</tspan></text>
      <path id="graph-3" data-name="graph" d="M7.5,0h0A7.5,7.5,0,0,1,15,7.5V67H0V7.5A7.5,7.5,0,0,1,7.5,0Z" transform="translate(1159 576)" fill="#ffb643"/>
      <text id="_2-2" data-name="2" transform="translate(1163 567)" fill="#1b1d1f" font-size="14" font-family="Roboto-Regular, Roboto"><tspan x="0" y="0">2</tspan></text>
      <text id="_80_89" data-name="80~89" transform="translate(1115 661)" fill="#72787f" font-size="13" font-family="Roboto-Regular, Roboto"><tspan x="-19.021" y="0">80~89</tspan></text>
      <path id="graph-4" data-name="graph" d="M7.5,0h0A7.5,7.5,0,0,1,15,7.5V170H0V7.5A7.5,7.5,0,0,1,7.5,0Z" transform="translate(1107 473)" fill="#ffb643"/>
      <text id="_5" data-name="5" transform="translate(1111 463)" fill="#1b1d1f" font-size="14" font-family="Roboto-Regular, Roboto"><tspan x="0" y="0">5</tspan></text>
      <text id="_70_79" data-name="70~79" transform="translate(1064 661)" fill="#72787f" font-size="13" font-family="Roboto-Regular, Roboto"><tspan x="-19.021" y="0">70~79</tspan></text>
      <path id="graph-5" data-name="graph" d="M7.5,0h0A7.5,7.5,0,0,1,15,7.5V137H0V7.5A7.5,7.5,0,0,1,7.5,0Z" transform="translate(1056 506)" fill="#ff5c5c"/>
      <text id="_4" data-name="4" transform="translate(1060 497)" fill="#1b1d1f" font-size="14" font-family="Roboto-Regular, Roboto"><tspan x="0" y="0">4</tspan></text>
      <text id="_60_69" data-name="60~69" transform="translate(1012 661)" fill="#72787f" font-size="13" font-family="Roboto-Regular, Roboto"><tspan x="-19.021" y="0">60~69</tspan></text>
      <path id="graph-6" data-name="graph" d="M7.5,0h0A7.5,7.5,0,0,1,15,7.5V68H0V7.5A7.5,7.5,0,0,1,7.5,0Z" transform="translate(1004 575)" fill="#ffb643"/>
      <text id="_2-3" data-name="2" transform="translate(1008 566)" fill="#1b1d1f" font-size="14" font-family="Roboto-Regular, Roboto"><tspan x="0" y="0">2</tspan></text>
      <text id="_50_59" data-name="50~59" transform="translate(960 661)" fill="#72787f" font-size="13" font-family="Roboto-Regular, Roboto"><tspan x="-19.021" y="0">50~59</tspan></text>
      <path id="graph-7" data-name="graph" d="M7.5,0h0A7.5,7.5,0,0,1,15,7.5V102H0V7.5A7.5,7.5,0,0,1,7.5,0Z" transform="translate(953 541)" fill="#ffb643"/>
      <text id="_3" data-name="3" transform="translate(956 532)" fill="#1b1d1f" font-size="14" font-family="Roboto-Regular, Roboto"><tspan x="0" y="0">3</tspan></text>
      <path id="graph-8" data-name="graph" d="M7.5,0h0A7.5,7.5,0,0,1,15,7.5V34H0V7.5A7.5,7.5,0,0,1,7.5,0Z" transform="translate(901 609)" fill="#ffb643"/>
      <text id="_1" data-name="1" transform="translate(905 600)" fill="#1b1d1f" font-size="14" font-family="Roboto-Regular, Roboto"><tspan x="0" y="0">1</tspan></text>
      <path id="graph-9" data-name="graph" d="M7.5,0h0A7.5,7.5,0,0,1,15,7.5V68H0V7.5A7.5,7.5,0,0,1,7.5,0Z" transform="translate(850 575)" fill="#ffb643"/>
      <text id="_2-4" data-name="2" transform="translate(854 566)" fill="#1b1d1f" font-size="14" font-family="Roboto-Regular, Roboto"><tspan x="0" y="0">2</tspan></text>
      <path id="graph-10" data-name="graph" d="M5,0h5a5,5,0,0,1,5,5H0A5,5,0,0,1,5,0Z" transform="translate(798 638)" fill="#ffb643"/>
      <text id="_0" data-name="0" transform="translate(802 629)" fill="#1b1d1f" font-size="14" font-family="Roboto-Regular, Roboto"><tspan x="0" y="0">0</tspan></text>
      <text id="_10_19" data-name="10~19" transform="translate(755 661)" fill="#72787f" font-size="13" font-family="Roboto-Regular, Roboto"><tspan x="-19.021" y="0">10~19</tspan></text>
      <path id="graph-11" data-name="graph" d="M5,0h5a5,5,0,0,1,5,5H0A5,5,0,0,1,5,0Z" transform="translate(747 638)" fill="#ffb643"/>
      <text id="_0-2" data-name="0" transform="translate(751 629)" fill="#1b1d1f" font-size="14" font-family="Roboto-Regular, Roboto"><tspan x="0" y="0">0</tspan></text>
      <text id="_0_9" data-name="0~9" transform="translate(703 661)" fill="#72787f" font-size="13" font-family="Roboto-Regular, Roboto"><tspan x="-11.721" y="0">0~9</tspan></text>
      <path id="graph-12" data-name="graph" d="M5,0h5a5,5,0,0,1,5,5H0A5,5,0,0,1,5,0Z" transform="translate(695 638)" fill="#ffb643"/>
      <text id="_0-3" data-name="0" transform="translate(699 629)" fill="#1b1d1f" font-size="14" font-family="Roboto-Regular, Roboto"><tspan x="0" y="0">0</tspan></text>
    </g>
  </g>
</svg>
