<svg xmlns="http://www.w3.org/2000/svg" xmlns:xlink="http://www.w3.org/1999/xlink" width="100" height="100" viewBox="0 0 100 100">
  <defs>
    <clipPath id="clip-path">
      <circle id="SVGID" cx="48" cy="48" r="48" fill="none"/>
    </clipPath>
  </defs>
  <g id="그룹_680" data-name="그룹 680" transform="translate(-39 -105)">
    <g id="profile" transform="translate(39 105)" fill="#e8ebed" stroke="#0f3653" stroke-width="2">
      <circle cx="50" cy="50" r="50" stroke="none"/>
      <circle cx="50" cy="50" r="49" fill="none"/>
    </g>
    <g id="그룹_679" data-name="그룹 679" transform="translate(-1762.785 255.361)">
      <g id="그룹_678" data-name="그룹 678" transform="translate(1803.785 -148.361)" clip-path="url(#clip-path)">
        <g id="그룹_677" data-name="그룹 677" transform="translate(11.694 17.791)">
          <g id="그룹_674" data-name="그룹 674" transform="translate(48.016 52.522)">
            <path id="패스_977" data-name="패스 977" d="M1886.751-50.765s15.681,4.609,13.7,26.307c0,0-5.948,1.939-9.391-.366Z" transform="translate(-1885.193 52.524)" fill="#597582"/>
            <path id="패스_978" data-name="패스 978" d="M1894.988-23.074a9.286,9.286,0,0,1-5.17-1.336l-.448-.3-4.728-28.437,1.91.561c.166.049,16.641,5.158,14.6,27.618l-.075.819-.781.255A18.939,18.939,0,0,1,1894.988-23.074Zm-3.34-3.153c2.1,1.06,5.305.616,7.082.179,1.066-15.181-7.064-21.274-10.925-23.292Z" transform="translate(-1884.641 53.147)" fill="#24221e"/>
          </g>
          <path id="패스_979" data-name="패스 979" d="M1844.057-54.014a78.249,78.249,0,0,0-7.327,19.372,78.067,78.067,0,0,0-1.715,10.538c-.147,1.572-1.549,4.4-.923,5.891.746,1.783,4.667,2.487,6.468,3.04a54.377,54.377,0,0,0,16.284,2.394,5.953,5.953,0,0,0,2.83-.512c1.679-.911,2.257-3.161,3.911-4.119a33.95,33.95,0,0,0,2.1,4.534c.467.842,6.916-2,7.633-2.288,4.291-1.725,4.89-4.789,4.824-9.385a92.928,92.928,0,0,0-5.057-28.886" transform="translate(-1823.363 105.895)" fill="#597582"/>
          <path id="패스_980" data-name="패스 980" d="M1842.63-55.017a79.933,79.933,0,0,0-6.046,14.466,79.093,79.093,0,0,0-1.947,7.721q-.4,2.022-.7,4.062c-.2,1.407-.42,2.832-.51,4.252-.013.2.05-.245-.01.056-.017.089-.033.177-.052.265-.05.224-.109.446-.169.667-.129.47-.274.937-.4,1.408a8.068,8.068,0,0,0-.427,2.932c.221,2.108,2.132,3.07,3.932,3.706.823.291,1.667.515,2.511.739,1.014.271,2.013.59,3.028.859a56.608,56.608,0,0,0,8.056,1.508q2,.23,4.006.312a24.649,24.649,0,0,0,3.858-.025,5.206,5.206,0,0,0,3.345-1.6,12.621,12.621,0,0,0,1.007-1.287c.136-.191.27-.383.407-.574.062-.088.126-.174.19-.261.111-.148-.1.126.013-.017.045-.056.09-.111.136-.165a5.51,5.51,0,0,1,.47-.5c.077-.071.155-.141.238-.205-.178.138.155-.089.2-.114l-1.718-.7A37.525,37.525,0,0,0,1863.572-14c.377.754.7,1.741,1.61,1.973a3.688,3.688,0,0,0,1.687-.1,15.9,15.9,0,0,0,1.664-.487c1.2-.408,2.382-.88,3.553-1.367a17.919,17.919,0,0,0,3.167-1.5,7.652,7.652,0,0,0,2.966-3.756,14.243,14.243,0,0,0,.681-4.835,87.643,87.643,0,0,0-1.173-14.314,93.175,93.175,0,0,0-3.93-15.775,1.2,1.2,0,0,0-1.44-.817,1.181,1.181,0,0,0-.817,1.44,91.872,91.872,0,0,1,4.977,26.947c.032.983.057,1.967.036,2.95-.008.378-.025.757-.052,1.134q-.021.295-.053.587c-.006.049-.047.372-.006.069-.012.092-.026.185-.04.278a10.088,10.088,0,0,1-.227,1.058q-.057.208-.126.416c-.027.081-.055.162-.085.241-.024.062-.182.408-.041.112a7.556,7.556,0,0,1-.431.81c-.076.118-.156.231-.236.345-.164.234.167-.186-.024.029-.075.085-.147.173-.225.256a6.486,6.486,0,0,1-.715.657c.224-.179-.024.013-.061.04-.078.055-.157.109-.236.161-.165.109-.336.21-.509.306s-.37.2-.559.286c-.1.047-.2.092-.3.136.175-.076,0,0-.033.013q-.177.072-.352.147c-.949.4-1.9.793-2.861,1.16-.657.25-1.318.491-1.99.7-.3.094-.593.182-.894.258-.141.035-.282.068-.425.1l-.166.031c-.176.033-.081-.079.105-.013a1.168,1.168,0,0,0-.309.02c-.3.017.279.072.074.015-.114-.031-.136-.1.18.08-.168-.095.483.323.323.329-.072,0-.368-.679-.419-.777a32.027,32.027,0,0,1-1.563-3.477,1.189,1.189,0,0,0-1.72-.7A7.517,7.517,0,0,0,1860.4-16.6c-.137.191-.27.383-.407.574-.063.088-.126.174-.19.261-.08.107.007-.007.02-.024-.044.055-.088.111-.134.166a6.046,6.046,0,0,1-.463.5c-.075.072-.154.141-.234.208-.1.086.015-.013.031-.023-.073.049-.144.1-.22.144a1.617,1.617,0,0,1-.523.235q-.188.056-.38.1a1.656,1.656,0,0,1-.343.055c-.6.057-1.2.049-1.8.047q-1.934-.012-3.866-.162a51.7,51.7,0,0,1-7.556-1.154c-2-.455-3.967-1.048-5.942-1.6-.431-.12-.862-.249-1.286-.393-.188-.064-.377-.131-.563-.2-.042-.016-.3-.119-.178-.069s-.02-.008-.039-.017c-.072-.033-.145-.065-.216-.1-.167-.079-.331-.162-.491-.254-.089-.05-.178-.1-.265-.159-.043-.027-.287-.2-.159-.1s-.069-.058-.1-.087c-.058-.052-.115-.106-.168-.162-.1-.1-.148-.206-.032-.02-.044-.071-.09-.141-.134-.212-.018-.03-.03-.065-.048-.094.01.015.063.221.048.1a1.817,1.817,0,0,0-.073-.279c.062.178.01.112,0-.037-.006-.107-.006-.216,0-.324s.011-.193.019-.29c0-.037.032-.246.009-.094s.007-.03.01-.048c.041-.229.086-.455.141-.682.219-.916.537-1.806.744-2.724.261-1.162.29-2.388.44-3.569.157-1.233.36-2.513.586-3.762q.693-3.819,1.757-7.56a76.2,76.2,0,0,1,5.391-13.769q.423-.83.866-1.649a1.2,1.2,0,0,0-.42-1.6,1.185,1.185,0,0,0-1.6.42" transform="translate(-1822.947 106.308)" fill="#24221e"/>
          <path id="패스_981" data-name="패스 981" d="M1857.5-42.861a28.66,28.66,0,0,1,2.328,5.065,33.249,33.249,0,0,0,7.3,10.844,2.049,2.049,0,0,0,1.436.775c.653-.035,1.105-.645,1.45-1.2a57.873,57.873,0,0,0,7.945-21.12" transform="translate(-1829.526 104.452)" fill="#fff"/>
          <path id="패스_982" data-name="패스 982" d="M1856.069-42.68a21.318,21.318,0,0,1,1.922,4.073,37.43,37.43,0,0,0,1.961,4.224,34.488,34.488,0,0,0,5.364,7.281,5.936,5.936,0,0,0,1.8,1.47,2.378,2.378,0,0,0,2.523-.391,6.52,6.52,0,0,0,1.322-1.765q.612-1.015,1.184-2.051a59.823,59.823,0,0,0,3.87-8.588,58.01,58.01,0,0,0,2.644-10.167,1.2,1.2,0,0,0-.817-1.439,1.184,1.184,0,0,0-1.439.817,57.139,57.139,0,0,1-5.43,16.6q-1,1.954-2.142,3.829c-.161.265-.317.538-.5.786.107-.144-.145.151-.179.187-.073.075-.056.122-.015.018l-.089.055c.107-.036.12-.042.041-.016-.114.05.021.013.05.006-.172.04-.128-.005-.038,0-.2-.021-.108-.046-.047-.013a1.938,1.938,0,0,1-.205-.128c.114.081-.2-.185-.233-.213-.125-.12-.247-.244-.368-.367a31.332,31.332,0,0,1-4.984-6.572q-.578-1.009-1.085-2.057c-.357-.737-.628-1.365-.907-2.065a25.514,25.514,0,0,0-2.183-4.7,1.2,1.2,0,0,0-1.6-.419,1.182,1.182,0,0,0-.419,1.6" transform="translate(-1829.11 104.862)" fill="#24221e"/>
          <path id="패스_983" data-name="패스 983" d="M1871.739-39.932c.522-2.052,1.639-4.254.423-6.2-1.715-2.75-4.236-.651-6.376.68a.867.867,0,0,0-.425.443c-.444,1.579,2.349,4.841,3.112,6.162a2.425,2.425,0,0,1,.4,1.036,2.294,2.294,0,0,1-.18.885,22.237,22.237,0,0,1-2.105,4.369c-1.035,1.654,2,3.709,3.045,4.821.108.116.249.242.4.2a.447.447,0,0,0,.219-.178c.995-1.243,2-2.48,2.982-3.729.057-.071,1.967-2.892.664-2.892l-1.993-3.765a2.52,2.52,0,0,1-.29-.719,2.522,2.522,0,0,1,.108-1.057c0-.019.009-.038.014-.058" transform="translate(-1831.571 104.187)" fill="#24221e"/>
          <path id="패스_984" data-name="패스 984" d="M1872.446-40.032c.521-2.007,1.5-4.141.726-6.221a4.474,4.474,0,0,0-1.965-2.419,3.6,3.6,0,0,0-2.621-.245,8.769,8.769,0,0,0-2.342,1.1c-.343.212-.679.434-1.019.654a3.362,3.362,0,0,0-1.257,1.054c-.759,1.37.27,3.164.985,4.326s1.615,2.19,2.24,3.386c.018.033.132.27.059.12.011.04.022.079.034.119-.005-.111-.007-.09,0,.063.035-.2-.06.21-.056.2-.025.083-.054.165-.083.247-.18.518-.362.975-.574,1.445s-.448.947-.7,1.409-.556.907-.8,1.376c-.832,1.631.317,3.229,1.444,4.355.5.5,1.045.955,1.558,1.442a2.671,2.671,0,0,0,1.111.806c.873.225,1.375-.36,1.855-.961.8-1,1.609-2,2.406-3.006a9.665,9.665,0,0,0,.893-1.319,5.3,5.3,0,0,0,.744-2.02,1.6,1.6,0,0,0-1.611-1.792l1.011.58-1.424-2.689c-.22-.416-.454-.827-.659-1.249-.033-.072-.038-.078-.014-.018-.013-.041-.026-.081-.04-.122.028.124-.009-.1-.007-.146,0-.082,0-.089,0-.021.009-.044.018-.088.026-.132.026-.107.05-.213.077-.32a1.187,1.187,0,0,0-.817-1.439,1.19,1.19,0,0,0-1.439.817,3.707,3.707,0,0,0-.108,1.8,7.386,7.386,0,0,0,.75,1.608l1.637,3.093a1.176,1.176,0,0,0,1.01.58c.221.007-.29-.064-.109-.012a.874.874,0,0,1-.513-.393c-.01-.017-.116-.324-.067-.148.032.117-.041-.361-.029-.126.011.208-.016-.108.021-.125a1.547,1.547,0,0,0-.041.174c-.032.117-.082.227-.116.342-.041.135.113-.241.021-.054-.031.064-.06.131-.091.195-.063.127-.128.253-.2.377-.108.2-.223.391-.342.581-.065.1-.133.2-.2.306,0,0,.223-.281-.018.018l-.239.3q-.264.331-.529.662-.527.661-1.06,1.322l-.578.721c-.1.12-.192.241-.288.36l-.1.12c-.089.1-.084.1.017,0l.591-.16c.609-.006.5.262.38.092a.918.918,0,0,0-.1-.1c-.062-.062-.126-.123-.19-.182-.165-.156-.335-.308-.5-.46-.372-.335-.744-.669-1.1-1.026-.16-.162-.316-.329-.465-.5-.041-.048-.079-.1-.121-.145.153.174.044.06.013.014-.077-.111-.154-.219-.223-.336-.05-.085-.092-.174-.14-.262.119.216.012.021-.025-.094a.623.623,0,0,0-.027-.112c-.065-.123-.013.224.01.089a.383.383,0,0,0,0-.111c-.05-.176-.062.2-.008.019a.493.493,0,0,0,.03-.108c0-.113-.123.133-.029.066s.152-.254.209-.349q.3-.488.569-.992c.363-.675.686-1.368.983-2.074a7.685,7.685,0,0,0,.733-2.278,3.374,3.374,0,0,0-.624-2.01c-.452-.738-.984-1.426-1.467-2.144-.289-.428-.569-.863-.824-1.312-.117-.208-.23-.417-.334-.631-.025-.052-.146-.324-.089-.187s-.008-.022-.022-.06c-.024-.065-.048-.13-.071-.2-.038-.117-.167-.4-.132-.52-.027.1.014.249.018.1,0-.041,0-.09-.005-.132a1.082,1.082,0,0,0,.006-.128c.053.056-.1.289-.008.1.068-.132-.136.27-.126.232-.02.078-.1.063.021,0s.241-.151.36-.228c.246-.158.49-.318.736-.476a14.713,14.713,0,0,1,1.41-.822c.046-.023.423-.186.19-.094.108-.043.216-.083.326-.119s.214-.065.323-.091c.061-.014.122-.024.183-.038-.147.032-.14.01.006,0a3.8,3.8,0,0,1,.4.007c-.259-.016,0,.021.123.052.2.049.016.008-.027-.016l.206.116c.041.025.082.053.121.082-.2-.147.059.068.08.089.043.043.266.315.194.214a3.684,3.684,0,0,1,.312.518,2.636,2.636,0,0,1,.135.393c.018.066.081.455.067.313a4.544,4.544,0,0,1,.014.569c0,.064-.006.128-.011.191,0,0-.032.3-.022.228-.032.236-.137.688-.221,1-.205.772-.469,1.529-.671,2.3a1.186,1.186,0,0,0,.817,1.439,1.19,1.19,0,0,0,1.439-.817" transform="translate(-1831.149 104.598)" fill="#24221e"/>
          <path id="패스_985" data-name="패스 985" d="M1854.417-52.21c-1.237,3.06.652,7.106,3.7,7.921a8.165,8.165,0,0,0,3.728-.058,7.746,7.746,0,0,0,2.113-.688,5.479,5.479,0,0,0,2.75-4.855,5.675,5.675,0,0,0,4.457,5.435,5.49,5.49,0,0,0,5.827-3.646,6.555,6.555,0,0,0-1.936-7.017" transform="translate(-1828.62 106.184)" fill="#fff"/>
          <path id="패스_986" data-name="패스 986" d="M1852.873-52.931a7.485,7.485,0,0,0,2.145,8.07,6.525,6.525,0,0,0,4.685,1.512,9.246,9.246,0,0,0,5.493-1.834,6.748,6.748,0,0,0,2.263-5.117h-2.341c.071,3.511,3.109,6.983,6.8,6.646a6.893,6.893,0,0,0,6.139-7.4,7.683,7.683,0,0,0-2.595-5.3,1.2,1.2,0,0,0-1.655,0,1.18,1.18,0,0,0,0,1.656,5.866,5.866,0,0,1,.706.689c-.013-.016.212.264.117.14-.078-.1.057.082.073.1q.175.253.326.518.111.195.207.4c-.01-.02.138.315.077.168s.071.2.063.175a6.745,6.745,0,0,1,.283,1.034c.018.093.034.186.047.279-.008-.052-.019-.21,0,.025.013.15.025.3.029.451.006.188,0,.375-.007.563,0,.075-.011.149-.017.224-.028.357.047-.218-.017.134a6.029,6.029,0,0,1-.252.976c-.026.071-.052.143-.081.213.073-.174,0,0-.019.031-.1.182-.187.364-.3.54-.089.141-.182.281-.284.414.114-.148,0,0-.026.024-.062.067-.121.139-.184.206-.114.12-.231.236-.354.348-.055.049-.111.1-.167.144-.2.173.089-.049-.11.084a8.253,8.253,0,0,1-.843.5c-.2.1-.065.032-.017.013-.083.035-.167.065-.252.095a5.233,5.233,0,0,1-.567.163c-.078.017-.452.073-.215.047a4.961,4.961,0,0,1-.534.03c-.143,0-.285-.008-.427-.019-.233-.018-.058-.008-.01,0-.1-.019-.21-.039-.313-.064-.174-.043-.34-.1-.509-.155-.039-.013-.205-.086-.017,0-.066-.03-.13-.06-.194-.092a5.1,5.1,0,0,1-.468-.265c-.061-.038-.121-.078-.181-.119-.012-.01-.282-.221-.111-.079a7.205,7.205,0,0,1-.78-.771c-.233-.261.066.1-.056-.068-.066-.09-.129-.181-.19-.274-.112-.172-.215-.348-.309-.529-.034-.066-.065-.134-.1-.2-.154-.312.061.2-.055-.131-.063-.176-.123-.352-.172-.533s-.087-.363-.118-.548c.036.217,0-.025-.006-.08-.011-.132-.016-.264-.018-.4a1.187,1.187,0,0,0-1.171-1.17,1.191,1.191,0,0,0-1.17,1.17c0,.176,0,.352-.017.529,0,.028-.031.269-.012.135s-.021.106-.026.134a5.682,5.682,0,0,1-.291,1.005c-.07.182.066-.134-.019.041-.041.088-.083.174-.128.259-.072.136-.149.269-.231.4-.041.064-.085.127-.127.191-.016.023-.129.179-.022.038a4.744,4.744,0,0,1-.375.425c-.106.107-.218.207-.331.306-.169.15-.069.057-.027.025-.06.044-.121.087-.183.128a3.855,3.855,0,0,1-.871.444,10.984,10.984,0,0,1-2.252.508,5.788,5.788,0,0,1-2.292-.122c-.124-.035-.244-.08-.364-.123.231.083-.078-.038-.158-.078a4.784,4.784,0,0,1-.733-.462c.2.151-.083-.078-.136-.127-.109-.1-.214-.2-.315-.309s-.177-.2-.261-.3c-.022-.026-.149-.192-.063-.077s-.093-.136-.112-.164a6.869,6.869,0,0,1-.432-.736c-.061-.12-.119-.242-.171-.366.019.044.075.207,0,0-.032-.1-.069-.191-.1-.287a7.515,7.515,0,0,1-.234-.933c-.006-.036-.037-.249-.017-.095s-.01-.114-.013-.146c-.015-.167-.023-.335-.024-.5s.007-.335.02-.5c.005-.067.013-.133.02-.2-.028.281.012-.046.02-.085a5.444,5.444,0,0,1,.283-.963,1.175,1.175,0,0,0-.818-1.44,1.2,1.2,0,0,0-1.439.817" transform="translate(-1828.204 106.594)" fill="#24221e"/>
          <g id="그룹_675" data-name="그룹 675" transform="translate(8.003 49.622)">
            <path id="패스_987" data-name="패스 987" d="M1845.428-55.383s-14.52,3.686-13.2,15.813c1.717,15.708,10.064,17.892,10.064,17.892l7.339-6.756s-6.715-5.726-6.325-12.123" transform="translate(-1830.899 56.631)" fill="#597582"/>
            <path id="패스_988" data-name="패스 988" d="M1841.854-20.872a1.239,1.239,0,0,1-.315-.041c-.375-.1-9.2-2.59-10.989-18.964-1.426-13.054,13.974-17.118,14.129-17.158a1.248,1.248,0,0,1,1.518.9,1.248,1.248,0,0,1-.9,1.516h0c-.549.141-13.453,3.578-12.263,14.467,1.337,12.233,6.736,15.744,8.545,16.587l5.784-5.326c-1.974-1.987-6.068-6.792-5.739-12.188a1.244,1.244,0,0,1,1.323-1.17,1.247,1.247,0,0,1,1.169,1.322c-.346,5.688,5.827,11.044,5.889,11.1a1.249,1.249,0,0,1,.437.926,1.247,1.247,0,0,1-.4.941L1842.7-21.2A1.248,1.248,0,0,1,1841.854-20.872Z" transform="translate(-1830.457 57.073)" fill="#24221e"/>
          </g>
          <path id="패스_989" data-name="패스 989" d="M1843.8-13.746c2.328-7.074,12.585-6.882,13.508.938a2.91,2.91,0,0,1-1.629,3.1c-1.184.431-2.743-.642-2.469-1.872a1.827,1.827,0,0,1-1.308,2.144,1.828,1.828,0,0,1-2.117-1.354,1.945,1.945,0,0,1-.951,2.153,1.284,1.284,0,0,1-1.782-1.122,2.133,2.133,0,0,1-3.03-.606,3.944,3.944,0,0,1-.222-3.381" transform="translate(-1825.872 96.704)" fill="#ffe3d4"/>
          <path id="패스_990" data-name="패스 990" d="M1842.281-14.548a8.736,8.736,0,0,1,3.785-4.748,8.317,8.317,0,0,1,5.318-1.091,7.628,7.628,0,0,1,4.849,2.608,8.115,8.115,0,0,1,1.483,2.805,5.756,5.756,0,0,1,.1,3.686,3.4,3.4,0,0,1-3.567,2.392c-1.471-.248-2.919-1.584-2.617-3.195a1.185,1.185,0,0,1,1.108-1.066,1.177,1.177,0,0,1,1.21.95A3.016,3.016,0,0,1,1851.7-8.7a3.025,3.025,0,0,1-3.478-2.3l2.3-.419a3.038,3.038,0,0,1-2.077,3.576,2.456,2.456,0,0,1-2.973-2.428l1.937.975a3.294,3.294,0,0,1-4.479-.459,4.9,4.9,0,0,1-.648-4.8,1.185,1.185,0,0,1,1.491-.719,1.189,1.189,0,0,1,.718,1.491,3.938,3.938,0,0,0-.213,1.3,3.456,3.456,0,0,0,.123.705c-.06-.187.068.141.077.16.021.045.208.325.075.151a2.547,2.547,0,0,0,.217.247c-.151-.151.092.061.116.078s.311.155.123.076a2.751,2.751,0,0,0,.312.109c-.208-.058.088,0,.135.013.231.042-.089.045.121,0a1.777,1.777,0,0,0,.206-.042c-.116.04-.133.043-.052.01a1.4,1.4,0,0,0,.141-.071c-.114.076-.114.071,0-.017a1.184,1.184,0,0,1,1.937.976c0-.093-.03-.148,0-.021-.078-.332.056.058-.038-.1s.11.064-.02-.017.086.057.113.075c-.118-.08-.091,0,0-.009l.093.03c-.117-.02-.135-.025-.053-.015.034,0,.219.044.091.009-.071,0-.074,0-.008-.01.086-.018.063-.01-.067.026.08-.062.117-.066.019.008a1.775,1.775,0,0,0,.162-.141c-.146.143,0-.026.033-.068.1-.143-.049.138.016-.025a2,2,0,0,0,.089-.262c-.03.12,0,.035,0-.037,0-.027.012-.314.016-.184s-.028-.182-.029-.181a1.192,1.192,0,0,1,.943-1.36,1.191,1.191,0,0,1,1.36.942c.071.288-.106-.167.039.089.063.11.058.076-.011,0a2.646,2.646,0,0,0,.206.23c-.125-.113-.021-.032.057.021.1.069-.145-.036.052.032,0,0,.285.086.148.057s.129.008.158.01c-.219-.017.04-.013.1-.024-.159.027-.069.03.04-.024s.16-.126.04-.018c.021-.019.225-.207.123-.1s.071-.106.09-.129c.146-.185-.013.124.052-.1.008-.028.076-.292.05-.15s0-.16,0-.159c-.005.2-.014-.022-.032-.1l2.318-.117c-.01.058-.023.357-.034.211-.015-.194.085.244.011.044-.061-.16.079.135.1.171-.118-.21.02-.035.082.057s-.033-.03-.057-.045c.052.035.1.075.151.11.087.058.244.109.063.047.1.034.212.069.312.109.117.046-.04-.015-.062-.015a1.761,1.761,0,0,1,.187.018c.086.011.165-.043-.023.006.04-.01.1,0,.138-.023.108-.063-.052.027-.072.035.053-.019.1-.041.154-.064.075-.035.321-.217.155-.078.042-.035.083-.067.125-.1.016-.013.171-.163.09-.077s.054-.071.073-.1c.032-.044.063-.089.092-.135s.147-.282.076-.121a3.729,3.729,0,0,0,.138-.367c.016-.055.032-.109.046-.163-.031.118,0,.031.005-.039.016-.131.032-.261.036-.393,0-.056,0-.112,0-.168,0,.054.024.191-.007-.031s-.065-.469-.111-.7c-.042-.205-.091-.41-.149-.612-.013-.044-.1-.31-.048-.165s0,0-.012-.027c-.027-.07-.053-.142-.081-.213a7.8,7.8,0,0,0-.53-1.058c-.117-.2.121.165-.013-.02-.057-.078-.112-.159-.172-.235-.116-.152-.239-.3-.369-.439s-.248-.245-.371-.369c.132.133.093.08-.014-.008-.081-.067-.165-.131-.25-.194-.137-.1-.279-.2-.424-.287-.066-.041-.134-.08-.2-.119-.039-.022-.334-.172-.177-.1s-.116-.051-.149-.066c-.071-.03-.144-.061-.216-.089-.169-.067-.341-.126-.515-.179-.088-.027-.176-.05-.264-.073-.041-.01-.289-.069-.119-.031s-.107-.019-.16-.028c-.091-.015-.181-.028-.271-.039a8.325,8.325,0,0,0-1.06-.053c-.207,0,.216-.021-.052,0-.078.007-.158.013-.236.021q-.277.029-.55.08-.254.047-.506.112c-.091.024-.18.05-.27.076-.267.077.146-.058-.046.015a8.362,8.362,0,0,0-1.035.462c-.083.046-.166.092-.248.141l-.106.064c-.236.139.151-.11.021-.016-.168.123-.338.24-.5.371s-.321.273-.472.419c-.082.08-.16.162-.239.243-.188.2.068-.093-.057.062a8.45,8.45,0,0,0-.782,1.131c-.052.093-.1.188-.151.284.113-.223-.034.08-.067.155-.1.236-.193.477-.275.721a1.186,1.186,0,0,1-1.491.718,1.185,1.185,0,0,1-.718-1.49" transform="translate(-1825.461 97.119)" fill="#24221e"/>
          <path id="패스_991" data-name="패스 991" d="M1903.011-16.789c-2.328-7.074-12.584-6.882-13.507.938a2.909,2.909,0,0,0,1.629,3.1c1.184.431,2.743-.642,2.468-1.872a1.827,1.827,0,0,0,1.309,2.144,1.828,1.828,0,0,0,2.116-1.354,1.943,1.943,0,0,0,.951,2.153,1.283,1.283,0,0,0,1.781-1.122,2.133,2.133,0,0,0,3.03-.606,3.945,3.945,0,0,0,.222-3.381" transform="translate(-1837.892 97.5)" fill="#ffe3d4"/>
          <path id="패스_992" data-name="패스 992" d="M1903.7-17.591a8.739,8.739,0,0,0-3.785-4.748,8.315,8.315,0,0,0-5.318-1.091,7.627,7.627,0,0,0-4.849,2.608,8.114,8.114,0,0,0-1.483,2.805,5.76,5.76,0,0,0-.1,3.686,3.4,3.4,0,0,0,3.567,2.392c1.471-.248,2.92-1.584,2.618-3.195a1.187,1.187,0,0,0-1.109-1.066,1.178,1.178,0,0,0-1.21.95,3.017,3.017,0,0,0,2.252,3.505,3.024,3.024,0,0,0,3.477-2.3l-2.3-.419a3.038,3.038,0,0,0,2.078,3.576,2.456,2.456,0,0,0,2.973-2.428l-1.937.975a3.293,3.293,0,0,0,4.479-.459,4.9,4.9,0,0,0,.648-4.8,1.186,1.186,0,0,0-1.491-.719,1.189,1.189,0,0,0-.719,1.491,3.951,3.951,0,0,1,.213,1.3,3.508,3.508,0,0,1-.122.705c.059-.187-.068.141-.078.16-.021.045-.208.325-.075.151a2.631,2.631,0,0,1-.217.247c.151-.151-.092.061-.117.078s-.311.155-.123.076a2.626,2.626,0,0,1-.312.109c.208-.058-.088,0-.134.013-.23.042.089.045-.122,0a1.766,1.766,0,0,1-.205-.042c.115.04.132.043.052.01a1.329,1.329,0,0,1-.141-.071c.114.076.114.071,0-.017a1.184,1.184,0,0,0-1.937.976c-.005-.094.03-.149,0-.022.078-.332-.057.058.039-.095s-.111.063.02-.018-.086.057-.113.075c.118-.08.091,0,0-.009l-.092.03c.117-.02.135-.025.052-.015-.034,0-.219.044-.091.009.071,0,.074,0,.008-.009-.086-.019-.064-.01.066.025-.08-.062-.117-.066-.018.008a1.537,1.537,0,0,1-.163-.141c.145.143,0-.026-.033-.068-.1-.143.049.138-.016-.025a2.009,2.009,0,0,1-.09-.262c.031.12,0,.035,0-.037,0-.027-.013-.314-.017-.184s.029-.182.029-.18a1.192,1.192,0,0,0-.942-1.361,1.193,1.193,0,0,0-1.361.942c-.07.288.106-.167-.038.089-.063.11-.059.076.01,0a2.813,2.813,0,0,1-.206.23c.125-.113.021-.032-.057.021-.1.069.145-.035-.053.032,0,0-.285.086-.148.057s-.129.009-.157.01c.219-.017-.041-.013-.1-.024.159.027.069.03-.04-.024s-.161-.126-.041-.018c-.021-.019-.225-.207-.123-.1s-.072-.106-.09-.129c-.146-.185.012.124-.052-.1-.008-.028-.075-.292-.05-.151s0-.16,0-.159c0,.2.014-.022.032-.1l-2.318-.117c.011.058.023.357.034.211.015-.194-.085.244-.01.044.06-.16-.079.135-.1.171.118-.21-.019-.035-.081.057s.033-.03.057-.045c-.052.035-.1.075-.151.11-.086.058-.243.109-.063.047-.1.035-.212.069-.312.109-.117.046.041-.015.062-.015a1.748,1.748,0,0,0-.186.018c-.086.011-.166-.043.023.006a.631.631,0,0,1-.138-.022c-.108-.064.052.026.072.034-.052-.019-.1-.041-.153-.064-.075-.035-.321-.217-.155-.078-.041-.035-.084-.067-.125-.1-.016-.013-.172-.164-.09-.078s-.054-.071-.073-.1c-.031-.044-.063-.089-.093-.135s-.146-.282-.075-.121a3.752,3.752,0,0,1-.138-.367c-.016-.055-.032-.109-.046-.163.031.118,0,.031-.005-.039-.017-.131-.031-.261-.036-.393,0-.056,0-.112,0-.168,0,.054-.025.191.007-.031s.064-.469.112-.7c.041-.205.091-.41.148-.611.012-.045.1-.311.049-.165s0,0,.012-.026c.028-.071.052-.143.081-.213a7.692,7.692,0,0,1,.53-1.058c.117-.2-.122.165.012-.02.058-.078.113-.159.172-.235.116-.152.24-.3.37-.439s.248-.245.372-.369c-.133.133-.093.08.013-.008.082-.067.165-.131.25-.194.137-.1.279-.2.424-.287.067-.041.135-.08.2-.119.039-.022.334-.172.178-.1s.116-.051.149-.065c.072-.031.144-.061.216-.089q.254-.1.515-.179c.087-.027.175-.05.263-.073.042-.01.29-.069.12-.031s.107-.019.16-.028c.09-.015.18-.028.271-.039a8.324,8.324,0,0,1,1.06-.053c.207,0-.216-.021.051,0,.079.007.158.013.236.021q.277.029.55.08c.171.031.339.068.507.112.09.024.18.05.27.076.267.077-.146-.058.045.015a8.312,8.312,0,0,1,1.036.462c.084.046.167.092.248.142.036.021.07.043.106.064.237.139-.15-.11-.021-.016.169.123.338.24.5.371s.321.273.471.419c.083.08.161.162.24.243.188.2-.068-.093.057.062a8.439,8.439,0,0,1,.782,1.131c.052.093.1.188.151.284-.113-.223.033.08.066.155.1.236.194.477.275.721a1.188,1.188,0,0,0,1.491.719,1.187,1.187,0,0,0,.718-1.491" transform="translate(-1837.481 97.915)" fill="#24221e"/>
          <g id="그룹_676" data-name="그룹 676">
            <path id="패스_993" data-name="패스 993" d="M1849.065-108.941a21.1,21.1,0,0,0,6.456.016,7.136,7.136,0,0,0,5.116-3.6c2.776,3.357,6.807,5.4,10.81,7.117a26.727,26.727,0,0,0,8.783,2.5,11.883,11.883,0,0,0,6-1.153,27.323,27.323,0,0,0-25.9-18.631,27.325,27.325,0,0,0-26.1,19.249,15.533,15.533,0,0,0,14.827-5.506" transform="translate(-1823.443 123.855)" fill="#893825"/>
            <path id="패스_994" data-name="패스 994" d="M1880.591-102.122c-.281,0-.564-.009-.847-.026a27.819,27.819,0,0,1-9.173-2.6c-3.636-1.562-7.351-3.406-10.2-6.288a8.893,8.893,0,0,1-5.027,2.839,20.433,20.433,0,0,1-6.178.068,16.837,16.837,0,0,1-15.545,5.428,1.165,1.165,0,0,1-.795-.543,1.168,1.168,0,0,1-.12-.956,28.348,28.348,0,0,1,27.216-20.074,28.458,28.458,0,0,1,27.007,19.429,1.17,1.17,0,0,1-.582,1.418,12.931,12.931,0,0,1-5.755,1.3m-20.368-11.984a1.171,1.171,0,0,1,.9.425c2.63,3.18,6.538,5.142,10.37,6.787a25.839,25.839,0,0,0,8.392,2.411,11.1,11.1,0,0,0,4.462-.622,26.119,26.119,0,0,0-24.427-16.824,26.01,26.01,0,0,0-24.532,17.1,14.28,14.28,0,0,0,12.331-5.236,1.167,1.167,0,0,1,1.054-.455,20.18,20.18,0,0,0,6.1.033,5.953,5.953,0,0,0,4.295-2.952,1.167,1.167,0,0,1,.913-.659,1.176,1.176,0,0,1,.144-.009" transform="translate(-1823.029 124.27)" fill="#24221e"/>
            <path id="패스_995" data-name="패스 995" d="M1885.854-99.676a6.681,6.681,0,0,0-2.622.532c-.124-.442-.262-.877-.407-1.309a11.884,11.884,0,0,1-6,1.152,26.709,26.709,0,0,1-8.783-2.5c-4-1.719-8.033-3.76-10.81-7.117a7.135,7.135,0,0,1-5.116,3.6,21.122,21.122,0,0,1-6.456-.016,15.536,15.536,0,0,1-14.828,5.507c-.074.239-.15.479-.217.722a6.69,6.69,0,0,0-2.689-.563,6.719,6.719,0,0,0-6.719,6.719,6.719,6.719,0,0,0,6.719,6.719,6.7,6.7,0,0,0,2.173-.366,27.327,27.327,0,0,0,26.83,22.164,27.327,27.327,0,0,0,26.825-22.138,6.7,6.7,0,0,0,2.1.34,6.719,6.719,0,0,0,6.719-6.719,6.719,6.719,0,0,0-6.719-6.719" transform="translate(-1820.034 120.256)" fill="#ffe3d4"/>
            <path id="패스_996" data-name="패스 996" d="M1856.512-63.685a28.511,28.511,0,0,1-27.721-21.9,7.857,7.857,0,0,1-1.282.106,7.9,7.9,0,0,1-7.889-7.888,7.9,7.9,0,0,1,7.889-7.889,7.834,7.834,0,0,1,2.009.26,1.179,1.179,0,0,1,1.1-.4,14.358,14.358,0,0,0,13.693-5.063,1.172,1.172,0,0,1,1.054-.455,20.2,20.2,0,0,0,6.1.034,5.954,5.954,0,0,0,4.295-2.953,1.173,1.173,0,0,1,.913-.659,1.17,1.17,0,0,1,1.045.416c2.631,3.181,6.54,5.142,10.371,6.787a25.825,25.825,0,0,0,8.392,2.411,10.737,10.737,0,0,0,5.407-1.029,1.168,1.168,0,0,1,.971-.038,1.171,1.171,0,0,1,.665.711c.022.066.044.132.066.2a7.886,7.886,0,0,1,1.853-.219,7.9,7.9,0,0,1,7.889,7.889,7.9,7.9,0,0,1-7.889,7.888,7.89,7.89,0,0,1-1.209-.094,28.518,28.518,0,0,1-27.718,21.892m-26.83-24.505a1.165,1.165,0,0,1,.587.158,1.168,1.168,0,0,1,.563.792,26.164,26.164,0,0,0,25.68,21.215,26.169,26.169,0,0,0,25.676-21.189,1.168,1.168,0,0,1,.556-.788,1.174,1.174,0,0,1,.959-.1,5.554,5.554,0,0,0,1.736.281,5.554,5.554,0,0,0,5.548-5.548,5.554,5.554,0,0,0-5.548-5.549,5.505,5.505,0,0,0-2.164.438,1.171,1.171,0,0,1-.964-.022,1.172,1.172,0,0,1-.62-.739c0-.014-.007-.027-.012-.041a13.52,13.52,0,0,1-5.343.737,27.816,27.816,0,0,1-9.175-2.6c-3.635-1.562-7.351-3.406-10.2-6.288a8.9,8.9,0,0,1-5.028,2.839,20.4,20.4,0,0,1-6.177.068,16.8,16.8,0,0,1-14.54,5.574,1.173,1.173,0,0,1-.517.481,1.167,1.167,0,0,1-.971.015,5.519,5.519,0,0,0-2.22-.465,5.555,5.555,0,0,0-5.549,5.549,5.555,5.555,0,0,0,5.549,5.548,5.542,5.542,0,0,0,1.795-.3,1.171,1.171,0,0,1,.379-.063" transform="translate(-1819.62 120.67)" fill="#24221e"/>
            <path id="패스_997" data-name="패스 997" d="M1864.751-91.881a1.791,1.791,0,0,1-1.791,1.792,1.792,1.792,0,0,1-1.792-1.792,1.793,1.793,0,0,1,1.792-1.792,1.792,1.792,0,0,1,1.791,1.792" transform="translate(-1830.486 116.268)" fill="#24221e"/>
            <path id="패스_998" data-name="패스 998" d="M1887.8-91.881a1.791,1.791,0,0,1-1.792,1.792,1.791,1.791,0,0,1-1.792-1.792,1.792,1.792,0,0,1,1.792-1.792,1.792,1.792,0,0,1,1.792,1.792" transform="translate(-1836.514 116.268)" fill="#24221e"/>
            <path id="패스_999" data-name="패스 999" d="M1874.981-89.332a2.448,2.448,0,0,1,.522-.315l-.279.118a1.423,1.423,0,0,1,.33-.092l-.311.041a1.139,1.139,0,0,1,.292,0l-.312-.042a1.2,1.2,0,0,1,.286.078l-.28-.118a1.573,1.573,0,0,1,.329.2l-.237-.183a2.2,2.2,0,0,1,.176.153,1.22,1.22,0,0,0,.827.343,1.192,1.192,0,0,0,.828-.343,1.181,1.181,0,0,0,.343-.828,1.2,1.2,0,0,0-.343-.828,2.586,2.586,0,0,0-1.735-.778,2.7,2.7,0,0,0-.54.061,1.408,1.408,0,0,0-.262.078,3.263,3.263,0,0,0-.816.438.89.89,0,0,0-.328.3.886.886,0,0,0-.21.4,1.2,1.2,0,0,0,.118.9,1.184,1.184,0,0,0,.7.538l.311.041a1.161,1.161,0,0,0,.591-.16" transform="translate(-1833.639 115.812)" fill="#24221e"/>
            <path id="패스_1000" data-name="패스 1000" d="M1854.491-82.843c0,3.134-2.274,5.674-5.079,5.674s-5.078-2.54-5.078-5.674,2.274-5.674,5.078-5.674,5.079,2.54,5.079,5.674" transform="translate(-1826.084 114.919)" fill="#ffb18f"/>
            <path id="패스_1001" data-name="패스 1001" d="M1897.926-82.843c0,3.134-2.274,5.674-5.079,5.674s-5.078-2.54-5.078-5.674,2.274-5.674,5.078-5.674,5.079,2.54,5.079,5.674" transform="translate(-1837.444 114.919)" fill="#ffb18f"/>
            <path id="패스_1002" data-name="패스 1002" d="M1868.084-84.892a11.9,11.9,0,0,0,9.9.449,1.209,1.209,0,0,0,.817-1.439,1.176,1.176,0,0,0-1.439-.817,10.576,10.576,0,0,1-2.125.644,6.2,6.2,0,0,1-.922.119,10.944,10.944,0,0,1-1.112.023,9.535,9.535,0,0,1-3.937-1,1.2,1.2,0,0,0-1.6.42,1.18,1.18,0,0,0,.419,1.6" transform="translate(-1832.146 114.537)" fill="#24221e"/>
          </g>
        </g>
      </g>
    </g>
  </g>
</svg>
