<svg xmlns="http://www.w3.org/2000/svg" width="49.522" height="23.151" viewBox="0 0 49.522 23.151">
  <g id="그룹_1079" data-name="그룹 1079" transform="translate(-1096 -561)">
    <g id="그룹_1069" data-name="그룹 1069" transform="translate(1096 561)">
      <path id="패스_2183" data-name="패스 2183" d="M1087.627,209.128c-1.352.023-1.552.676-.445,1.452L1089.2,212a3.616,3.616,0,0,1,1.292,3.761l-.723,2.358c-.4,1.292.164,1.685,1.244.872l1.969-1.482a3.617,3.617,0,0,1,3.977-.066l2.018,1.416c1.107.776,1.653.366,1.214-.914l-.8-2.331a3.615,3.615,0,0,1,1.166-3.8l1.969-1.482c1.081-.813.859-1.46-.493-1.437l-2.465.041a3.616,3.616,0,0,1-3.256-2.284l-.8-2.331c-.439-1.279-1.123-1.267-1.519.025l-.722,2.357a3.616,3.616,0,0,1-3.178,2.391Z" transform="translate(-1086.467 -203.362)" fill="#ff6e83"/>
      <g id="그룹_1066" data-name="그룹 1066" transform="translate(16.26 8.638)">
        <path id="패스_2184" data-name="패스 2184" d="M985.377,230.418c18.333-1.674,29.973,12.748,31.133,14.25-4.389-4.121-14.309-11.1-31.889-12.286Z" transform="translate(-983.345 -230.283)" fill="#ff6e83"/>
        <path id="패스_2185" data-name="패스 2185" d="M985.593,236.824c17.58,1.183,27.5,8.166,31.889,12.286l.1.128c-12.842-11.937-33.263-9.1-33.263-9.1Z" transform="translate(-984.317 -234.725)" fill="#ffbe4d"/>
      </g>
    </g>
    <g id="그룹_1070" data-name="그룹 1070" transform="translate(1131.254 563.611)">
      <path id="패스_2186" data-name="패스 2186" d="M976.474,174.088l-1.628,1.289s6.987,2.917,8.819,9.09C983.665,184.467,982.919,177.141,976.474,174.088Z" transform="translate(-970.398 -169.424)" fill="#00b5cc"/>
      <path id="패스_2187" data-name="패스 2187" d="M1036.763,135.022c-.432-.245-.617-.076-.412.376l.374.825a1.327,1.327,0,0,1-.294,1.431l-.669.611c-.367.335-.263.563.231.508l.9-.1a1.328,1.328,0,0,1,1.27.722l.374.825c.2.452.454.424.554-.062l.182-.887a1.328,1.328,0,0,1,1.079-.985l.9-.1c.494-.055.544-.3.113-.546l-.787-.447a1.328,1.328,0,0,1-.6-1.33l.182-.887c.1-.486-.119-.61-.485-.276l-.669.61a1.328,1.328,0,0,1-1.452.163Z" transform="translate(-1035.542 -134.508)" fill="#00b5cc"/>
    </g>
  </g>
</svg>
