<svg width="124" height="130" viewBox="0 0 124 130" fill="none" xmlns="http://www.w3.org/2000/svg">
<g clip-path="url(#clip0_2_42)">
<path d="M39 43.8066C39 43.3611 39.3611 43 39.8066 43H77.4472C77.8927 43 78.2538 43.3611 78.2538 43.8066V43.8066C78.2538 44.252 77.8927 44.6132 77.4472 44.6132H39.8066C39.3611 44.6132 39 44.252 39 43.8066V43.8066Z" fill="#6B6B6B"/>
<path d="M39 86.8244C39 86.379 39.3611 86.0179 39.8066 86.0179H77.4472C77.8927 86.0179 78.2538 86.379 78.2538 86.8244V86.8244C78.2538 87.2699 77.8927 87.631 77.4472 87.631H39.8066C39.3611 87.631 39 87.2699 39 86.8244V86.8244Z" fill="#6B6B6B"/>
<path fill-rule="evenodd" clip-rule="evenodd" d="M69.9191 44.6132H47.3347V54.561C47.3347 59.6096 51.4274 63.7023 56.476 63.7023H60.7778C65.8264 63.7023 69.9191 59.6096 69.9191 54.561V44.6132ZM45.7215 43V54.561C45.7215 60.5006 50.5365 65.3155 56.476 65.3155H60.7778C66.7173 65.3155 71.5322 60.5006 71.5322 54.561V43H45.7215Z" fill="#6B6B6B"/>
<path d="M39 86.8244C39 87.2699 39.3611 87.631 39.8066 87.631H77.4472C77.8927 87.631 78.2538 87.2699 78.2538 86.8244V86.8244C78.2538 86.379 77.8927 86.0178 77.4472 86.0178H39.8066C39.3611 86.0178 39 86.379 39 86.8244V86.8244Z" fill="#6B6B6B"/>
<path fill-rule="evenodd" clip-rule="evenodd" d="M69.9191 86.0178H47.3347V76.07C47.3347 71.0214 51.4274 66.9287 56.476 66.9287H60.7778C65.8264 66.9287 69.9191 71.0214 69.9191 76.07V86.0178ZM45.7215 87.631V76.07C45.7215 70.1304 50.5365 65.3155 56.476 65.3155H60.7778C66.7173 65.3155 71.5322 70.1304 71.5322 76.07V87.631H45.7215Z" fill="#6B6B6B"/>
<path d="M58.9036 61.2826C66.1091 61.2826 67.3728 54.7403 67.1039 51.4691C64.5497 49.4527 61.8611 51.4691 60.3824 52.4102C58.9036 53.3512 58.9036 53.8889 56.215 54.1578C54.0641 54.3728 51.3755 52.455 50.3001 51.4691C50.1656 54.7403 51.6982 61.2826 58.9036 61.2826Z" fill="#EC6A64"/>
<path d="M50.2922 80.3718C50.2922 78.1444 52.0978 76.3388 54.3251 76.3388H62.9287C65.156 76.3388 66.9616 78.1444 66.9616 80.3718V84.1358H50.2922V80.3718Z" fill="#EC6A64"/>
<path d="M61.0466 69.0768C61.0466 69.5747 60.7714 70.0319 60.3313 70.2649L58.7613 71.096L57.1913 70.2649C56.7512 70.0319 56.476 69.5747 56.476 69.0768L56.476 66.9287L61.0466 66.9287L61.0466 69.0768Z" fill="#EC6A64"/>
<path d="M60.2401 73.7846C60.2401 74.5271 59.5178 75.129 58.6269 75.129C57.736 75.129 57.0137 74.5271 57.0137 73.7846C57.0137 73.0422 57.736 72.037 58.6269 72.037C59.5178 72.037 60.2401 73.0422 60.2401 73.7846Z" fill="#EC6A64"/>
<mask id="mask0_2_42" style="mask-type:alpha" maskUnits="userSpaceOnUse" x="-7" y="-3" width="112" height="133">
<path d="M87.1503 44.6342L101.124 35.6289C102.78 27.8657 105.658 11.6561 103.919 8.92345C101.745 5.50763 93.9819 1.16023 81.5608 -1.94505C69.1397 -5.05034 55.4764 -0.39241 49.5764 1.16023C43.6763 2.71287 20.0762 10.7866 12.934 14.8235C5.79185 18.8604 -6.31876 42.15 -6.93981 55.1922C-7.56087 68.2344 -3.21347 89.6608 -1.3503 102.703C0.512868 115.745 15.4182 122.577 20.0762 127.856C23.8025 132.079 48.7483 127.545 60.7554 124.751L101.124 102.703L87.1503 89.6608L49.5764 97.1135L39.0184 78.4818V49.9132L87.1503 44.6342Z" fill="#D9D9D9"/>
</mask>
<g mask="url(#mask0_2_42)">
<path fill-rule="evenodd" clip-rule="evenodd" d="M58.8922 104.329C80.542 104.329 98.0926 86.7788 98.0926 65.1291C98.0926 43.4794 80.542 25.9288 58.8922 25.9288C37.2425 25.9288 19.6919 43.4794 19.6919 65.1291C19.6919 86.7788 37.2425 104.329 58.8922 104.329ZM58.8922 112.329C84.9603 112.329 106.093 91.1971 106.093 65.1291C106.093 39.0611 84.9603 17.9288 58.8922 17.9288C32.8242 17.9288 11.6919 39.0611 11.6919 65.1291C11.6919 91.1971 32.8242 112.329 58.8922 112.329Z" fill="#EC6A64"/>
</g>
<mask id="mask1_2_42" style="mask-type:alpha" maskUnits="userSpaceOnUse" x="-7" y="-14" width="180" height="201">
<path d="M7.65504 39.0447L-2.90293 34.3868C-3.73101 31.0745 -5.38716 23.2078 -5.38716 18.2393C-5.38716 12.0287 4.23922 3.64446 7.65504 -1.324C10.3877 -5.29876 25.7692 -8.15562 33.1184 -9.08721C39.95 -10.0188 56.2838 -12.2546 66.966 -13.7451C80.3187 -15.6083 101.124 -6.9135 111.061 1.16024C120.998 9.23398 150.809 14.8235 162.919 39.0447C175.03 63.2659 172.546 98.0451 170.682 122.266C168.819 146.488 152.672 161.082 142.424 174.746C132.177 188.409 117.893 190.272 79.0766 182.198C40.2605 174.125 -2.90293 132.824 -5.38716 128.787C-7.37454 125.558 -4.55908 104.67 -2.90293 94.6293L7.65504 91.2135C13.8656 91.8346 26.6594 93.3872 28.1499 94.6293C30.0131 96.182 39.95 104.566 42.4342 109.535C44.9184 114.503 71.9344 106.74 79.0766 104.566C86.2187 102.393 93.3609 85.0029 93.6714 80.6555C93.9819 76.3081 84.6661 44.0132 81.2503 39.0447C78.5176 35.0699 57.9606 34.2833 48.0237 34.3868L7.65504 39.0447Z" fill="#D9D9D9"/>
</mask>
<g mask="url(#mask1_2_42)">
<path fill-rule="evenodd" clip-rule="evenodd" d="M58.8922 122.34C90.489 122.34 116.103 96.7259 116.103 65.1291C116.103 33.5324 90.489 7.91812 58.8922 7.91812C27.2955 7.91812 1.68125 33.5324 1.68125 65.1291C1.68125 96.7259 27.2955 122.34 58.8922 122.34ZM58.8922 130.34C94.9073 130.34 124.103 101.144 124.103 65.1291C124.103 29.1141 94.9073 -0.0818787 58.8922 -0.0818787C22.8772 -0.0818787 -6.31875 29.1141 -6.31875 65.1291C-6.31875 101.144 22.8772 130.34 58.8922 130.34Z" fill="#C8C8C8"/>
</g>
</g>
<defs>
<clipPath id="clip0_2_42">
<rect width="124" height="130" fill="white"/>
</clipPath>
</defs>
</svg>
