<svg xmlns="http://www.w3.org/2000/svg" xmlns:xlink="http://www.w3.org/1999/xlink" width="28" height="28" viewBox="0 0 28 28">
  <defs>
    <clipPath id="clip-path">
      <rect id="사각형_640" data-name="사각형 640" width="28" height="28" transform="translate(-0.037 -0.133)" fill="#454c53"/>
    </clipPath>
  </defs>
  <g id="ico_front" transform="translate(0.037 0.133)" clip-path="url(#clip-path)">
    <path id="refresh_4_" data-name="refresh (4)" d="M12.147,1.159A12.2,12.2,0,0,1,18.412,2.93,13.476,13.476,0,0,1,21.275,5.24l-.1-4.584A.643.643,0,0,1,21.807,0h.014a.643.643,0,0,1,.643.63L22.6,6.94a.643.643,0,0,1-.833.835l-6.312-.134a.643.643,0,1,1,.014-1.287h.014l5.167.11a12.152,12.152,0,0,0-2.9-2.431,10.912,10.912,0,0,0-5.6-1.588A10.686,10.686,0,0,0,4.117,6.039a11.443,11.443,0,0,0-2.97,7.407,11.443,11.443,0,0,0,2.97,7.407,10.685,10.685,0,0,0,8.031,3.594,10.571,10.571,0,0,0,5.187-1.319,11.275,11.275,0,0,0,3.678-3.316.643.643,0,0,1,1.056.735l-.008.011a12.572,12.572,0,0,1-4.1,3.695,11.842,11.842,0,0,1-5.81,1.48,11.956,11.956,0,0,1-8.987-4.02,12.762,12.762,0,0,1-3.3-8.267,12.762,12.762,0,0,1,3.3-8.268,11.956,11.956,0,0,1,8.987-4.019Zm0,0" transform="translate(2.541 0.926)" fill="#454c53" stroke="#454c53" stroke-width="2"/>
  </g>
</svg>
