<svg id="X" xmlns="http://www.w3.org/2000/svg" width="30" height="30.001" viewBox="0 0 30 30.001">
  <path id="패스_799" data-name="패스 799" d="M2.334,0a2.484,2.484,0,0,1,2.424,2.41l.614,32.323a2.266,2.266,0,0,1-2.334,2.32,2.484,2.484,0,0,1-2.424-2.41L0,2.32A2.266,2.266,0,0,1,2.334,0Z" transform="translate(26.201 0.001) rotate(45)" fill="#fc5d5b"/>
  <path id="패스_800" data-name="패스 800" d="M3.038,0A2.266,2.266,0,0,1,5.372,2.32L4.758,34.643a2.484,2.484,0,0,1-2.424,2.41A2.266,2.266,0,0,1,0,34.733L.615,2.411A2.484,2.484,0,0,1,3.038,0Z" transform="translate(30 26.201) rotate(135)" fill="#fc5d5b"/>
</svg>
