<svg xmlns="http://www.w3.org/2000/svg" width="252" height="252" viewBox="0 0 252 252">
  <g id="그룹_214" data-name="그룹 214" transform="translate(-62 -208)">
    <rect id="사각형_650" data-name="사각형 650" width="252" height="252" rx="126" transform="translate(62 208)" fill="#fff"/>
    <g id="합치기_1" data-name="합치기 1" transform="translate(1981.893 1152.893)" fill="none">
      <path d="M-1762.45-776.844l-31.82-31.82-31.82,31.82a7.5,7.5,0,0,1-10.607,0,7.5,7.5,0,0,1,0-10.607l31.82-31.82-31.82-31.82a7.5,7.5,0,0,1,0-10.607,7.5,7.5,0,0,1,10.607,0l31.82,31.82,31.82-31.82a7.5,7.5,0,0,1,10.606,0,7.5,7.5,0,0,1,0,10.607l-31.82,31.82,31.82,31.82a7.5,7.5,0,0,1,0,10.607,7.477,7.477,0,0,1-5.3,2.2A7.475,7.475,0,0,1-1762.45-776.844Z" stroke="none"/>
      <path d="M -1757.147338867188 -774.6469116210938 C -1759.066650390625 -774.6469116210938 -1760.985961914062 -775.3792724609375 -1762.4501953125 -776.843994140625 L -1794.270141601562 -808.6639404296875 L -1826.090087890625 -776.843994140625 C -1829.018676757812 -773.9144287109375 -1833.76806640625 -773.9154052734375 -1836.696655273438 -776.843994140625 C -1839.625244140625 -779.7726440429688 -1839.625244140625 -784.5219116210938 -1836.696655273438 -787.4505004882812 L -1804.876708984375 -819.2704467773438 L -1836.696655273438 -851.0903930664062 C -1839.625244140625 -854.01904296875 -1839.625244140625 -858.7673950195312 -1836.696655273438 -861.6968994140625 C -1833.767822265625 -864.6256103515625 -1829.018676757812 -864.6253662109375 -1826.090087890625 -861.6968994140625 L -1794.270141601562 -829.876953125 L -1762.4501953125 -861.6968994140625 C -1759.521240234375 -864.6255493164062 -1754.77294921875 -864.6253662109375 -1751.84375 -861.6968994140625 C -1748.915161132812 -858.7673950195312 -1748.915161132812 -854.01904296875 -1751.84375 -851.0903930664062 L -1783.663696289062 -819.2704467773438 L -1751.84375 -787.4505004882812 C -1748.915161132812 -784.5219116210938 -1748.915161132812 -779.7726440429688 -1751.84375 -776.843994140625 C -1753.308471679688 -775.3792724609375 -1755.22802734375 -774.6469116210938 -1757.147338867188 -774.6469116210938 Z" stroke="none" fill="#ff5c5d"/>
    </g>
  </g>
</svg>
