<svg xmlns="http://www.w3.org/2000/svg" xmlns:xlink="http://www.w3.org/1999/xlink" width="110" height="110" viewBox="0 0 110 110">
  <defs>
    <clipPath id="clip-path">
      <rect id="사각형_847" data-name="사각형 847" width="110" height="110" transform="translate(1355 2992)" fill="#9ea4aa" stroke="#26282b" stroke-width="1.5"/>
    </clipPath>
  </defs>
  <g id="img_" transform="translate(-1355 -2992)" clip-path="url(#clip-path)">
    <g id="calendar_8_" data-name="calendar (8)" transform="translate(1356 2993)">
      <g id="그룹_5209" data-name="그룹 5209" transform="translate(0 6.934)">
        <path id="패스_5394" data-name="패스 5394" d="M99.611,7.067H8.274A8.274,8.274,0,0,0,0,15.341v7.377L7.318,33.483h95.058l5.508-10.765V15.341a8.274,8.274,0,0,0-8.274-8.274Z" transform="translate(0 -7.067)" fill="#feb31e" stroke="#26282b" stroke-width="1.5"/>
        <path id="패스_5395" data-name="패스 5395" d="M9.763,7.067H8.274A8.274,8.274,0,0,0,0,15.341v7.377L7.318,33.483H9.763Z" transform="translate(0 -7.067)" fill="#f97107" stroke="#26282b" stroke-width="1.5"/>
        <g id="XMLID_269_" transform="translate(0 15.651)">
          <g id="그룹_5206" data-name="그룹 5206">
            <path id="패스_5396" data-name="패스 5396" d="M107.885,23.025V88.911a8.274,8.274,0,0,1-8.274,8.274H8.274A8.274,8.274,0,0,1,0,88.911V23.025Z" transform="translate(0 -23.025)" fill="#f7f8f9" stroke="#26282b" stroke-width="1.5"/>
          </g>
        </g>
        <path id="패스_5397" data-name="패스 5397" d="M94.749,41.2H13.657a2.525,2.525,0,0,1-2.524-2.524V32.9a2.525,2.525,0,0,1,2.524-2.524H94.749A2.525,2.525,0,0,1,97.273,32.9V38.68A2.525,2.525,0,0,1,94.749,41.2Z" transform="translate(-0.214 -7.515)" fill="#7ebaff" stroke="#26282b" stroke-width="1.5"/>
        <g id="그룹_5207" data-name="그룹 5207" transform="translate(17.215 41.501)">
          <path id="패스_5398" data-name="패스 5398" d="M57.8,57.048H52.116A1.717,1.717,0,0,1,50.4,55.332V51.1a1.716,1.716,0,0,1,1.717-1.717H57.8A1.717,1.717,0,0,1,59.516,51.1v4.233A1.716,1.716,0,0,1,57.8,57.048Z" transform="translate(-18.185 -49.382)" fill="#fff" stroke="#26282b" stroke-width="1.5"/>
          <path id="패스_5399" data-name="패스 5399" d="M41.376,57.048H35.693a1.716,1.716,0,0,1-1.717-1.717V51.1a1.716,1.716,0,0,1,1.717-1.717h5.683A1.716,1.716,0,0,1,43.092,51.1v4.233A1.716,1.716,0,0,1,41.376,57.048Z" transform="translate(-17.869 -49.382)" fill="#fff" stroke="#26282b" stroke-width="1.5"/>
          <path id="패스_5400" data-name="패스 5400" d="M24.953,57.048H19.27a1.717,1.717,0,0,1-1.717-1.717V51.1a1.716,1.716,0,0,1,1.717-1.717h5.683A1.717,1.717,0,0,1,26.669,51.1v4.233A1.717,1.717,0,0,1,24.953,57.048Z" transform="translate(-17.553 -49.382)" fill="#fff" stroke="#26282b" stroke-width="1.5"/>
          <path id="패스_5401" data-name="패스 5401" d="M68.54,57.048h5.683a1.716,1.716,0,0,0,1.717-1.717V51.1a1.716,1.716,0,0,0-1.717-1.717H68.54A1.717,1.717,0,0,0,66.824,51.1v4.233A1.716,1.716,0,0,0,68.54,57.048Z" transform="translate(-18.501 -49.382)" fill="#fff" stroke="#26282b" stroke-width="1.5"/>
          <path id="패스_5402" data-name="패스 5402" d="M84.963,57.048h5.683a1.717,1.717,0,0,0,1.717-1.717V51.1a1.716,1.716,0,0,0-1.717-1.717H84.963A1.717,1.717,0,0,0,83.247,51.1v4.233A1.717,1.717,0,0,0,84.963,57.048Z" transform="translate(-18.816 -49.382)" fill="#fff" stroke="#26282b" stroke-width="1.5"/>
          <path id="패스_5403" data-name="패스 5403" d="M57.8,72.167H52.116A1.717,1.717,0,0,1,50.4,70.451V66.218A1.717,1.717,0,0,1,52.116,64.5H57.8a1.717,1.717,0,0,1,1.717,1.717v4.233A1.716,1.716,0,0,1,57.8,72.167Z" transform="translate(-18.185 -49.673)" fill="#fff" stroke="#26282b" stroke-width="1.5"/>
          <path id="패스_5404" data-name="패스 5404" d="M41.376,72.167H35.693a1.716,1.716,0,0,1-1.717-1.717V66.218A1.717,1.717,0,0,1,35.693,64.5h5.683a1.716,1.716,0,0,1,1.717,1.717v4.233A1.716,1.716,0,0,1,41.376,72.167Z" transform="translate(-17.869 -49.673)" fill="#fff" stroke="#26282b" stroke-width="1.5"/>
          <path id="패스_5405" data-name="패스 5405" d="M24.953,72.167H19.27a1.717,1.717,0,0,1-1.717-1.717V66.218A1.717,1.717,0,0,1,19.27,64.5h5.683a1.717,1.717,0,0,1,1.717,1.717v4.233A1.717,1.717,0,0,1,24.953,72.167Z" transform="translate(-17.553 -49.673)" fill="#fff" stroke="#26282b" stroke-width="1.5"/>
          <path id="패스_5406" data-name="패스 5406" d="M57.8,87.287H52.116A1.717,1.717,0,0,1,50.4,85.571V81.337a1.717,1.717,0,0,1,1.717-1.717H57.8a1.717,1.717,0,0,1,1.717,1.717v4.233A1.716,1.716,0,0,1,57.8,87.287Z" transform="translate(-18.185 -49.963)" fill="#fff" stroke="#26282b" stroke-width="1.5"/>
          <path id="패스_5407" data-name="패스 5407" d="M41.376,87.287H35.693a1.716,1.716,0,0,1-1.717-1.717V81.337a1.717,1.717,0,0,1,1.717-1.717h5.683a1.716,1.716,0,0,1,1.717,1.717v4.233A1.716,1.716,0,0,1,41.376,87.287Z" transform="translate(-17.869 -49.963)" fill="#fff" stroke="#26282b" stroke-width="1.5"/>
          <path id="패스_5408" data-name="패스 5408" d="M24.953,87.287H19.27a1.717,1.717,0,0,1-1.717-1.717V81.337a1.717,1.717,0,0,1,1.717-1.717h5.683a1.717,1.717,0,0,1,1.717,1.717v4.233A1.717,1.717,0,0,1,24.953,87.287Z" transform="translate(-17.553 -49.963)" fill="#fff" stroke="#26282b" stroke-width="1.5"/>
        </g>
        <path id="패스_5409" data-name="패스 5409" d="M85.824,62.012a24.122,24.122,0,0,0-24.25,23.936v.008a.837.837,0,0,1-.84.838H21.807A12.132,12.132,0,0,1,9.6,74.742V23.025H0V86.958a8.082,8.082,0,0,0,8.134,8.029H97.923a8.108,8.108,0,0,0,7.982-6.487c.008-.039.014-.078.021-.117q.031-.168.054-.338c.007-.048.013-.1.019-.145.013-.111.023-.222.032-.334,0-.046.008-.091.01-.137.009-.156.015-.312.015-.47V72.77A24.328,24.328,0,0,0,85.824,62.012Z" transform="translate(0.749 -5.954)" fill="#e8ebed"/>
        <circle id="타원_62" data-name="타원 62" cx="20.335" cy="20.335" r="20.335" transform="translate(66.968 60.162)" fill="#feb31e" stroke="#26282b" stroke-width="1.5"/>
        <path id="패스_5410" data-name="패스 5410" d="M75.756,87.995A19.646,19.646,0,0,1,91.8,68.757a20.079,20.079,0,0,0-3.739-.349,19.587,19.587,0,1,0,0,39.173,20.093,20.093,0,0,0,3.74-.35A19.646,19.646,0,0,1,75.756,87.995Z" transform="translate(-0.649 -7.522)" fill="#fea41e"/>
        <g id="그룹_5208" data-name="그룹 5208" transform="translate(77.006 71.466)">
          <path id="패스_5411" data-name="패스 5411" d="M86.423,98.883a3.239,3.239,0,0,1-2.235-.891l-5.384-5.1a.924.924,0,0,1-.035-1.306l3.2-3.377a.924.924,0,0,1,1.306-.035l2.4,2.276a.923.923,0,0,0,1.3-.025l9.986-10.212a.924.924,0,0,1,1.306-.015l3.326,3.253a.923.923,0,0,1,.015,1.306L88.746,97.905a3.24,3.24,0,0,1-2.324.978Z" transform="translate(-78.516 -79.935)" fill="#f3f1f3" stroke="#26282b" stroke-width="1.5"/>
        </g>
      </g>
      <path id="패스_5412" data-name="패스 5412" d="M17.962,17.128a6.4,6.4,0,0,0,6.392-6.392V7.067H11.57v3.669A6.4,6.4,0,0,0,17.962,17.128Z" transform="translate(-0.222 0.866)" fill="#fea41e"/>
      <path id="패스_5413" data-name="패스 5413" d="M18.026,13.745A3.142,3.142,0,0,1,14.883,10.6V3.266a3.142,3.142,0,0,1,6.284,0V10.6A3.142,3.142,0,0,1,18.026,13.745Z" transform="translate(-0.286)" fill="#72787f" stroke="#26282b" stroke-width="1.5"/>
      <path id="패스_5414" data-name="패스 5414" d="M32.718,17.128a6.4,6.4,0,0,0,6.392-6.392V7.067H26.326v3.669A6.4,6.4,0,0,0,32.718,17.128Z" transform="translate(-0.506 0.866)" fill="#fea41e"/>
      <path id="패스_5415" data-name="패스 5415" d="M32.782,13.745A3.142,3.142,0,0,1,29.639,10.6V3.266a3.142,3.142,0,1,1,6.284,0V10.6A3.142,3.142,0,0,1,32.782,13.745Z" transform="translate(-0.57)" fill="#72787f" stroke="#26282b" stroke-width="1.5"/>
      <path id="패스_5416" data-name="패스 5416" d="M47.474,17.128a6.4,6.4,0,0,0,6.392-6.392V7.067H41.081v3.669A6.4,6.4,0,0,0,47.474,17.128Z" transform="translate(-0.79 0.866)" fill="#fea41e"/>
      <path id="패스_5417" data-name="패스 5417" d="M47.537,13.745A3.142,3.142,0,0,1,44.4,10.6V3.266a3.142,3.142,0,0,1,6.284,0V10.6A3.142,3.142,0,0,1,47.537,13.745Z" transform="translate(-0.854)" fill="#72787f" stroke="#26282b" stroke-width="1.5"/>
      <path id="패스_5418" data-name="패스 5418" d="M62.229,17.128a6.4,6.4,0,0,0,6.392-6.392V7.067H55.837v3.669A6.4,6.4,0,0,0,62.229,17.128Z" transform="translate(-1.074 0.866)" fill="#fea41e"/>
      <path id="패스_5419" data-name="패스 5419" d="M62.293,13.745A3.142,3.142,0,0,1,59.151,10.6V3.266a3.142,3.142,0,1,1,6.284,0V10.6A3.142,3.142,0,0,1,62.293,13.745Z" transform="translate(-1.138)" fill="#72787f" stroke="#26282b" stroke-width="1.5"/>
      <path id="패스_5420" data-name="패스 5420" d="M76.985,17.128a6.4,6.4,0,0,0,6.392-6.392V7.067H70.593v3.669a6.4,6.4,0,0,0,6.392,6.392Z" transform="translate(-1.358 0.866)" fill="#fea41e"/>
      <path id="패스_5421" data-name="패스 5421" d="M77.049,13.745A3.142,3.142,0,0,1,73.907,10.6V3.266a3.142,3.142,0,1,1,6.284,0V10.6A3.142,3.142,0,0,1,77.049,13.745Z" transform="translate(-1.421)" fill="#72787f" stroke="#26282b" stroke-width="1.5"/>
      <path id="패스_5422" data-name="패스 5422" d="M91.741,17.128a6.4,6.4,0,0,0,6.392-6.392V7.067H85.349v3.669A6.4,6.4,0,0,0,91.741,17.128Z" transform="translate(-1.641 0.866)" fill="#fea41e"/>
      <path id="패스_5423" data-name="패스 5423" d="M91.8,13.745A3.142,3.142,0,0,1,88.663,10.6V3.266a3.142,3.142,0,0,1,6.284,0V10.6A3.142,3.142,0,0,1,91.8,13.745Z" transform="translate(-1.705)" fill="#72787f" stroke="#26282b" stroke-width="1.5"/>
    </g>
  </g>
</svg>
