<svg xmlns="http://www.w3.org/2000/svg" xmlns:xlink="http://www.w3.org/1999/xlink" width="110" height="110" viewBox="0 0 110 110">
  <defs>
    <clipPath id="clip-path">
      <rect id="사각형_854" data-name="사각형 854" width="110" height="110" transform="translate(455 2992)" fill="#9ea4aa" stroke="#26282b" stroke-width="1"/>
    </clipPath>
  </defs>
  <g id="img_" transform="translate(-455 -2992)" clip-path="url(#clip-path)">
    <g id="school_2_" data-name="school (2)" transform="translate(456 2993)">
      <g id="그룹_5167" data-name="그룹 5167" transform="translate(6.308 54.704)">
        <path id="패스_5287" data-name="패스 5287" d="M6.308,56.881h95.26v48.692H6.308Z" transform="translate(-6.308 -56.881)" fill="#fae0bd" stroke="#26282b" stroke-width="1.5"/>
      </g>
      <g id="그룹_5168" data-name="그룹 5168" transform="translate(20.739 54.704)">
        <path id="패스_5288" data-name="패스 5288" d="M21.8,56.881H88.2v48.692H21.8Z" transform="translate(-21.801 -56.881)" fill="#f8c7a5"/>
      </g>
      <g id="그룹_5169" data-name="그룹 5169" transform="translate(15.161 74.128)">
        <path id="패스_5289" data-name="패스 5289" d="M19.469,89.116H88.406a4.369,4.369,0,0,0,4.309-4.427V80.262a4.369,4.369,0,0,0-4.309-4.427H19.469a4.369,4.369,0,0,0-4.309,4.427v4.427a4.369,4.369,0,0,0,4.309,4.427Z" transform="translate(-15.161 -75.836)" fill="#7ebaff" stroke="#26282b" stroke-width="1.5"/>
      </g>
      <g id="그룹_5170" data-name="그룹 5170" transform="translate(20.739 74.129)">
        <path id="패스_5290" data-name="패스 5290" d="M21.8,75.836H88.2v13.28H21.8Z" transform="translate(-21.801 -75.836)" fill="#67aaf8" stroke="#26282b" stroke-width="1.5"/>
      </g>
      <g id="그룹_5171" data-name="그룹 5171" transform="translate(0 27.564)">
        <path id="패스_5291" data-name="패스 5291" d="M95.636,28.393h-83.4a4.352,4.352,0,0,0-4.154,3.143L.19,58.094a4.412,4.412,0,0,0,4.154,5.711h99.187a4.412,4.412,0,0,0,4.154-5.711l-7.9-26.559a4.353,4.353,0,0,0-4.154-3.142Z" transform="translate(0 -28.393)" fill="#ff7307" stroke="#26282b" stroke-width="1.5"/>
      </g>
      <g id="그룹_5172" data-name="그룹 5172" transform="translate(53.734)">
        <path id="패스_5292" data-name="패스 5292" d="M70.493,13.28H55V0H70.493a2.213,2.213,0,0,1,2.213,2.213v8.853a2.213,2.213,0,0,1-2.213,2.213Z" transform="translate(-55)" fill="#ffe571" stroke="#26282b" stroke-width="1.5"/>
      </g>
      <g id="그룹_5173" data-name="그룹 5173" transform="translate(53.819 0)">
        <path id="패스_5293" data-name="패스 5293" d="M63.853,11.066V2.213A2.213,2.213,0,0,1,66.066,0H55V13.28H66.066a2.213,2.213,0,0,1-2.213-2.213Z" transform="translate(-55 0)" fill="#ffcb71" stroke="#26282b" stroke-width="1.5"/>
      </g>
      <g id="그룹_5174" data-name="그룹 5174" transform="translate(52.326 0.049)">
        <path id="패스_5294" data-name="패스 5294" d="M55,19.318a1.611,1.611,0,0,1-1.611-1.611V1.66a1.611,1.611,0,1,1,3.223,0V17.706A1.611,1.611,0,0,1,55,19.318Z" transform="translate(-53.389 -0.049)" fill="#fbf1cf" stroke="#26282b" stroke-width="1.5"/>
      </g>
      <g id="그룹_5175" data-name="그룹 5175" transform="translate(29.592 20.89)">
        <path id="패스_5295" data-name="패스 5295" d="M79.346,47.413,55,23.067,30.654,47.413v58.16H79.346Z" transform="translate(-30.654 -23.067)" fill="#fbf1cf" stroke="#26282b" stroke-width="1.5"/>
      </g>
      <g id="그룹_5176" data-name="그룹 5176" transform="translate(29.981 31.956)">
        <path id="패스_5296" data-name="패스 5296" d="M30.654,47.413v58.16h13.28V34.134Z" transform="translate(-30.654 -34.134)" fill="#fae0bd"/>
      </g>
      <g id="그룹_5177" data-name="그룹 5177" transform="translate(38.445 73.659)">
        <path id="패스_5297" data-name="패스 5297" d="M70.493,105.573H39.507V80.263a4.427,4.427,0,0,1,4.427-4.427H66.066a4.427,4.427,0,0,1,4.427,4.427Z" transform="translate(-39.507 -75.836)" fill="#6e768f" stroke="#26282b" stroke-width="1.5"/>
      </g>
      <g id="그룹_5178" data-name="그룹 5178" transform="translate(52.326 73.659)">
        <path id="패스_5298" data-name="패스 5298" d="M53.389,75.836h3.223v29.737H53.389Z" transform="translate(-53.389 -75.836)" fill="#404656"/>
      </g>
      <g id="그룹_5179" data-name="그룹 5179" transform="translate(38.639 73.659)">
        <path id="패스_5299" data-name="패스 5299" d="M52.787,75.836H43.934a4.427,4.427,0,0,0-4.427,4.427v25.31H48.36V80.263A4.427,4.427,0,0,1,52.787,75.836Z" transform="translate(-39.507 -75.836)" fill="#565e75" stroke="#26282b" stroke-width="1.5"/>
      </g>
      <g id="그룹_5181" data-name="그룹 5181" transform="translate(22.952 17.189)">
        <g id="그룹_5180" data-name="그룹 5180">
          <path id="패스_5300" data-name="패스 5300" d="M81.559,53.119a4.413,4.413,0,0,1-3.13-1.3L55,28.393,31.571,51.822a4.427,4.427,0,0,1-6.26-6.26L51.87,19a4.427,4.427,0,0,1,6.26,0L84.69,45.562a4.426,4.426,0,0,1-3.13,7.556Z" transform="translate(-24.014 -17.706)" fill="#feb31e" stroke="#26282b" stroke-width="1.5"/>
        </g>
      </g>
      <g id="그룹_5182" data-name="그룹 5182" transform="translate(23.368 20.063)">
        <path id="패스_5301" data-name="패스 5301" d="M49.657,23.049a5.317,5.317,0,0,1,.573-2.407L25.31,45.562a4.427,4.427,0,0,0,6.26,6.26L55,28.393A5.343,5.343,0,0,1,49.657,23.049Z" transform="translate(-24.014 -20.643)" fill="#ff7307" stroke="#26282b" stroke-width="1.5"/>
      </g>
      <g id="그룹_5183" data-name="그룹 5183" transform="translate(42.871 44.957)">
        <circle id="타원_61" data-name="타원 61" cx="11.066" cy="11.066" r="11.066" fill="#7ebaff" stroke="#26282b" stroke-width="1.5"/>
      </g>
      <g id="그룹_5184" data-name="그룹 5184" transform="translate(43.457 45.74)">
        <path id="패스_5302" data-name="패스 5302" d="M50.108,56.389a10.294,10.294,0,0,1,7.2-9.818,10.29,10.29,0,1,0,0,19.637A10.294,10.294,0,0,1,50.108,56.389Z" transform="translate(-43.934 -46.099)" fill="#67aaf8"/>
      </g>
      <g id="그룹_5185" data-name="그룹 5185" transform="translate(0 98.969)">
        <path id="패스_5303" data-name="패스 5303" d="M103.534,110H4.341a4.427,4.427,0,0,1,0-8.853h99.193a4.427,4.427,0,0,1,0,8.853Z" transform="translate(0 -101.147)" fill="#feb31e" stroke="#26282b" stroke-width="1.5"/>
      </g>
      <g id="그룹_5186" data-name="그룹 5186" transform="translate(0 98.969)">
        <path id="패스_5304" data-name="패스 5304" d="M17.706,105.573a4.427,4.427,0,0,1,4.427-4.427H4.427a4.427,4.427,0,1,0,0,8.853H22.133A4.427,4.427,0,0,1,17.706,105.573Z" transform="translate(0 -101.147)" fill="#ff7307" stroke="#26282b" stroke-width="1.5"/>
      </g>
      <g id="그룹_5187" data-name="그룹 5187" transform="translate(52.28 50.04)">
        <path id="패스_5305" data-name="패스 5305" d="M59.427,58.777H55a1.611,1.611,0,0,1-1.611-1.611V52.739a1.611,1.611,0,0,1,3.223,0v2.815h2.815a1.611,1.611,0,1,1,0,3.223Z" transform="translate(-53.389 -51.128)" fill="#fff" stroke="#26282b" stroke-width="1.5"/>
      </g>
    </g>
  </g>
</svg>
