<svg xmlns="http://www.w3.org/2000/svg" xmlns:xlink="http://www.w3.org/1999/xlink" width="110" height="110" viewBox="0 0 110 110">
  <defs>
    <clipPath id="clip-path">
      <rect id="사각형_853" data-name="사각형 853" width="110" height="110" transform="translate(755 2992)" fill="#9ea4aa" stroke="#26282b" stroke-width="1.5"/>
    </clipPath>
  </defs>
  <g id="img_" transform="translate(-755 -2992)" clip-path="url(#clip-path)">
    <g id="calendar_7_" data-name="calendar (7)" transform="translate(757 2993)">
      <path id="패스_5306" data-name="패스 5306" d="M91.677,9.921H14.517A12.385,12.385,0,0,0,2.189,22.362v72.48a12.385,12.385,0,0,0,12.328,12.441h77.16A12.385,12.385,0,0,0,104,94.842V22.362A12.385,12.385,0,0,0,91.677,9.921Z" transform="translate(0 0)" fill="#f7f8f9" stroke="#26282b" stroke-width="1.5"/>
      <path id="패스_5307" data-name="패스 5307" d="M104,33.949v-15.5A12.565,12.565,0,0,0,91.677,5.665H14.517A12.565,12.565,0,0,0,2.189,18.454v15.5Z" fill="#ff7307" stroke="#26282b" stroke-width="1.5"/>
      <path id="패스_5308" data-name="패스 5308" d="M104,36.84V22.709A12.565,12.565,0,0,0,91.677,9.921H14.517A12.565,12.565,0,0,0,2.189,22.709V36.84Z" fill="#feb31e" stroke="#26282b" stroke-width="1.5"/>
      <path id="패스_5309" data-name="패스 5309" d="M23.136,16.789A4.463,4.463,0,1,0,27.6,21.252a4.463,4.463,0,0,0-4.463-4.463Z" transform="translate(-0.649 -0.451)" fill="#ff7307" stroke="#26282b" stroke-width="1.5"/>
      <path id="패스_5310" data-name="패스 5310" d="M23.136,0a2.388,2.388,0,0,0-2.388,2.388v18.6a2.388,2.388,0,1,0,4.776,0V2.388A2.388,2.388,0,0,0,23.136,0Z" transform="translate(-0.701)" fill="#72787f" stroke="#26282b" stroke-width="1.5"/>
      <path id="패스_5311" data-name="패스 5311" d="M44.379,16.789a4.463,4.463,0,1,0,4.463,4.463,4.463,4.463,0,0,0-4.463-4.463Z" transform="translate(-1.485 -0.451)" fill="#ff7307" stroke="#26282b" stroke-width="1.5"/>
      <path id="패스_5312" data-name="패스 5312" d="M44.379,0a2.388,2.388,0,0,0-2.388,2.388v18.6a2.388,2.388,0,1,0,4.776,0V2.388A2.388,2.388,0,0,0,44.379,0Z" transform="translate(-1.502)" fill="#72787f" stroke="#26282b" stroke-width="1.5"/>
      <path id="패스_5313" data-name="패스 5313" d="M65.621,16.789a4.463,4.463,0,1,0,4.463,4.463,4.463,4.463,0,0,0-4.463-4.463Z" transform="translate(-2.321 -0.451)" fill="#ff7307" stroke="#26282b" stroke-width="1.5"/>
      <path id="패스_5314" data-name="패스 5314" d="M65.621,0a2.388,2.388,0,0,0-2.388,2.388v18.6a2.388,2.388,0,0,0,4.776,0V2.388A2.388,2.388,0,0,0,65.621,0Z" transform="translate(-2.304)" fill="#72787f" stroke="#26282b" stroke-width="1.5"/>
      <path id="패스_5315" data-name="패스 5315" d="M86.864,16.789a4.463,4.463,0,1,0,4.463,4.463,4.463,4.463,0,0,0-4.463-4.463Z" transform="translate(-3.157 -0.451)" fill="#ff7307" stroke="#26282b" stroke-width="1.5"/>
      <path id="패스_5316" data-name="패스 5316" d="M86.863,0a2.388,2.388,0,0,0-2.388,2.388v18.6a2.388,2.388,0,1,0,4.776,0V2.388A2.388,2.388,0,0,0,86.863,0Z" transform="translate(-3.106)" fill="#72787f" stroke="#26282b" stroke-width="1.5"/>
      <g id="그룹_5188" data-name="그룹 5188" transform="translate(21.233 51.792)">
        <path id="패스_5317" data-name="패스 5317" d="M41.161,54.509h9.653v9.653H41.161Z" transform="translate(-23.136 -54.509)" fill="#feb31e" stroke="#26282b" stroke-width="1.5"/>
        <path id="패스_5318" data-name="패스 5318" d="M59.186,54.509h9.653v9.653H59.186Z" transform="translate(-23.136 -54.509)" fill="#feb31e" stroke="#26282b" stroke-width="1.5"/>
        <path id="패스_5319" data-name="패스 5319" d="M77.21,54.509h9.653v9.653H77.21Z" transform="translate(-23.136 -54.509)" fill="#feb31e" stroke="#26282b" stroke-width="1.5"/>
        <path id="패스_5320" data-name="패스 5320" d="M23.136,69.642H32.79V79.3H23.136Z" transform="translate(-23.136 -54.509)" fill="#feb31e" stroke="#26282b" stroke-width="1.5"/>
        <path id="패스_5321" data-name="패스 5321" d="M41.161,69.642h9.653V79.3H41.161Z" transform="translate(-23.136 -54.509)" fill="#feb31e" stroke="#26282b" stroke-width="1.5"/>
        <path id="패스_5322" data-name="패스 5322" d="M59.186,69.642h9.653V79.3H59.186Z" transform="translate(-23.136 -54.509)" fill="#feb31e" stroke="#26282b" stroke-width="1.5"/>
        <path id="패스_5323" data-name="패스 5323" d="M77.21,69.642h9.653V79.3H77.21Z" transform="translate(-23.136 -54.509)" fill="#feb31e" stroke="#26282b" stroke-width="1.5"/>
        <path id="패스_5324" data-name="패스 5324" d="M23.136,84.775H32.79v9.653H23.136Z" transform="translate(-23.136 -54.509)" fill="#feb31e" stroke="#26282b" stroke-width="1.5"/>
        <path id="패스_5325" data-name="패스 5325" d="M41.161,84.775h9.653v9.653H41.161Z" transform="translate(-23.136 -54.509)" fill="#feb31e" stroke="#26282b" stroke-width="1.5"/>
        <path id="패스_5326" data-name="패스 5326" d="M59.186,84.775h9.653v9.653H59.186Z" transform="translate(-23.136 -54.509)" fill="#feb31e" stroke="#26282b" stroke-width="1.5"/>
      </g>
    </g>
  </g>
</svg>
