<svg xmlns="http://www.w3.org/2000/svg" xmlns:xlink="http://www.w3.org/1999/xlink" width="110" height="110" viewBox="0 0 110 110">
  <defs>
    <clipPath id="clip-path">
      <rect id="사각형_857" data-name="사각형 857" width="110" height="110" transform="translate(1055 2408)" fill="#9ea4aa" stroke="#26282b" stroke-width="1.5"/>
    </clipPath>
  </defs>
  <g id="img_" transform="translate(-1055 -2408)" clip-path="url(#clip-path)">
    <g id="open-book_6_" data-name="open-book (6)" transform="translate(1056 2409)">
      <path id="패스_5349" data-name="패스 5349" d="M102.177,32.772l-.042,0H52.257V107.85a.851.851,0,0,0,.732-.43,5.333,5.333,0,0,1,4.6-2.64h44.541l.042,0Z" transform="translate(-1.145 -0.708)" fill="#7ebaff" stroke="#26282b" stroke-width="1.5"/>
      <g id="그룹_5191" data-name="그룹 5191" transform="translate(91.808 32.062)">
        <path id="패스_5350" data-name="패스 5350" d="M103.046,32.769H93.864A1.234,1.234,0,0,1,95.1,34v69.543a1.234,1.234,0,0,1-1.234,1.234h9.182a1.234,1.234,0,0,0,1.234-1.234V34A1.234,1.234,0,0,0,103.046,32.769Z" transform="translate(-93.864 -32.769)" fill="#7ebaff" stroke="#26282b" stroke-width="1.5"/>
      </g>
      <path id="패스_5351" data-name="패스 5351" d="M94.727,28.6H55.342a3.085,3.085,0,0,0-3.085,3.085v66.38h.5a3.081,3.081,0,0,1,2.585-1.4H94.727Z" transform="translate(-1.145 -0.616)" fill="#fff" stroke="#26282b" stroke-width="1.5"/>
      <path id="패스_5352" data-name="패스 5352" d="M51.112,107.85V32.769H1.234A1.234,1.234,0,0,0,0,34v69.543a1.234,1.234,0,0,0,1.234,1.234H45.775a5.333,5.333,0,0,1,4.6,2.64.852.852,0,0,0,.732.43Z" transform="translate(0 -0.708)" fill="#7ebaff" stroke="#26282b" stroke-width="1.5"/>
      <g id="그룹_5192" data-name="그룹 5192" transform="translate(58.588 35.945)">
        <path id="패스_5353" data-name="패스 5353" d="M87.476,40.331H61.7a1.8,1.8,0,0,1,0-3.592h25.78a1.8,1.8,0,0,1,0,3.592Z" transform="translate(-59.901 -36.739)" fill="#3e5959" stroke="#26282b" stroke-width="1.5"/>
      </g>
      <g id="그룹_5193" data-name="그룹 5193" transform="translate(58.588 44.089)">
        <path id="패스_5354" data-name="패스 5354" d="M87.476,48.658H61.7a1.8,1.8,0,0,1,0-3.592h25.78a1.8,1.8,0,0,1,0,3.592Z" transform="translate(-59.901 -45.066)" fill="#3e5959" stroke="#26282b" stroke-width="1.5"/>
      </g>
      <g id="그룹_5194" data-name="그룹 5194" transform="translate(58.588 60.379)">
        <path id="패스_5355" data-name="패스 5355" d="M87.476,65.312H61.7a1.8,1.8,0,0,1,0-3.592h25.78a1.8,1.8,0,1,1,0,3.592Z" transform="translate(-59.901 -61.721)" fill="#3e5959" stroke="#26282b" stroke-width="1.5"/>
      </g>
      <path id="패스_5356" data-name="패스 5356" d="M85.489,91.176H63.78A1.676,1.676,0,0,1,62.1,89.5V73.218a1.676,1.676,0,0,1,1.676-1.676H85.489a1.676,1.676,0,0,1,1.676,1.676V89.5A1.676,1.676,0,0,1,85.489,91.176Z" transform="translate(-1.361 -1.557)" fill="#febe40" stroke="#26282b" stroke-width="1.5"/>
      <path id="패스_5357" data-name="패스 5357" d="M50.764,98.062h.5V31.682A3.085,3.085,0,0,0,48.179,28.6H8.379a1.44,1.44,0,0,0-1.44,1.44V95.219a1.44,1.44,0,0,0,1.44,1.44h39.8A3.08,3.08,0,0,1,50.764,98.062Z" transform="translate(-0.152 -0.616)" fill="#dceeff" stroke="#26282b" stroke-width="1.5"/>
      <g id="그룹_5195" data-name="그룹 5195" transform="translate(14.264 35.945)">
        <path id="패스_5359" data-name="패스 5359" d="M42.159,40.331H16.379a1.8,1.8,0,0,1,0-3.592h25.78a1.8,1.8,0,1,1,0,3.592Z" transform="translate(-14.584 -36.739)" fill="#3e5959" stroke="#26282b" stroke-width="1.5"/>
      </g>
      <g id="그룹_5196" data-name="그룹 5196" transform="translate(14.264 44.089)">
        <path id="패스_5360" data-name="패스 5360" d="M42.159,48.658H16.379a1.8,1.8,0,0,1,0-3.592h25.78a1.8,1.8,0,1,1,0,3.592Z" transform="translate(-14.584 -45.066)" fill="#3e5959" stroke="#26282b" stroke-width="1.5"/>
      </g>
      <g id="그룹_5197" data-name="그룹 5197" transform="translate(14.264 52.234)">
        <path id="패스_5361" data-name="패스 5361" d="M42.159,56.985H16.379a1.8,1.8,0,1,1,0-3.592h25.78a1.8,1.8,0,1,1,0,3.592Z" transform="translate(-14.584 -53.394)" fill="#3e5959" stroke="#26282b" stroke-width="1.5"/>
      </g>
      <g id="그룹_5198" data-name="그룹 5198" transform="translate(14.264 82.777)">
        <path id="패스_5362" data-name="패스 5362" d="M42.159,88.212H16.379a1.8,1.8,0,1,1,0-3.592h25.78a1.8,1.8,0,1,1,0,3.592Z" transform="translate(-14.584 -84.62)" fill="#3e5959" stroke="#26282b" stroke-width="1.5"/>
      </g>
      <path id="패스_5363" data-name="패스 5363" d="M83.666,53.394H61.7a1.8,1.8,0,0,0,0,3.592h21.97Z" transform="translate(-1.312 -1.16)" fill="#3e5959" stroke="#26282b" stroke-width="1.5"/>
      <g id="그룹_5199" data-name="그룹 5199" transform="translate(80.735 0.468)">
        <path id="패스_5364" data-name="패스 5364" d="M84.162,8.491a1.62,1.62,0,0,1-1.62-1.62V2.087a1.62,1.62,0,0,1,3.239,0V6.871A1.619,1.619,0,0,1,84.162,8.491Z" transform="translate(-82.543 -0.468)" fill="#ffe571" stroke="#26282b" stroke-width="1.5"/>
      </g>
      <g id="그룹_5200" data-name="그룹 5200" transform="translate(66.126 5.054)">
        <path id="패스_5365" data-name="패스 5365" d="M72.609,11.778a1.615,1.615,0,0,1-1.145-.474L68.081,7.921a1.619,1.619,0,0,1,2.29-2.29l3.383,3.383a1.619,1.619,0,0,1-1.145,2.765Z" transform="translate(-67.607 -5.157)" fill="#ffe571" stroke="#26282b" stroke-width="1.5"/>
      </g>
      <g id="그룹_5201" data-name="그룹 5201" transform="translate(91.961 5.054)">
        <path id="패스_5366" data-name="패스 5366" d="M95.64,11.778a1.619,1.619,0,0,1-1.145-2.765l3.383-3.383a1.619,1.619,0,0,1,2.29,2.29L96.785,11.3a1.614,1.614,0,0,1-1.145.474Z" transform="translate(-94.02 -5.157)" fill="#ffe571" stroke="#26282b" stroke-width="1.5"/>
      </g>
      <g id="그룹_5202" data-name="그룹 5202" transform="translate(99.567 17.894)">
        <path id="패스_5367" data-name="패스 5367" d="M108.2,21.523h-4.784a1.62,1.62,0,0,1,0-3.239H108.2a1.62,1.62,0,0,1,0,3.239Z" transform="translate(-101.797 -18.284)" fill="#ffe571" stroke="#26282b" stroke-width="1.5"/>
      </g>
      <g id="그룹_5203" data-name="그룹 5203" transform="translate(57.118 17.894)">
        <path id="패스_5368" data-name="패스 5368" d="M64.8,21.523H60.017a1.62,1.62,0,0,1,0-3.239H64.8a1.62,1.62,0,0,1,0,3.239Z" transform="translate(-58.398 -18.284)" fill="#ffe571" stroke="#26282b" stroke-width="1.5"/>
      </g>
      <g id="그룹_5204" data-name="그룹 5204" transform="translate(86.651 27.98)">
        <path id="패스_5369" data-name="패스 5369" d="M95.937,28.6H88.592a1.44,1.44,0,0,1,1.44,1.44V95.219a1.44,1.44,0,0,1-1.44,1.44h7.345a1.44,1.44,0,0,0,1.44-1.44V30.037A1.44,1.44,0,0,0,95.937,28.6Z" transform="translate(-88.592 -28.597)" fill="#e1f0ff" stroke="#26282b" stroke-width="1.5"/>
      </g>
      <path id="패스_5370" data-name="패스 5370" d="M77.86,45.108H89.923a16.479,16.479,0,0,1,3.81-6.241,13.727,13.727,0,1,0-19.681,0,16.466,16.466,0,0,1,3.808,6.24Z" transform="translate(-1.537 -0.331)" fill="#ffe571" stroke="#26282b" stroke-width="1.5"/>
      <path id="패스_5371" data-name="패스 5371" d="M78.032,45.77H90.1v4.94a6.032,6.032,0,1,1-12.063,0V45.77Z" transform="translate(-1.71 -0.993)" fill="#678d98" stroke="#26282b" stroke-width="1.5"/>
      <path id="패스_5372" data-name="패스 5372" d="M97.2,28.011A13.155,13.155,0,0,0,84.531,15.584a13.465,13.465,0,0,0-3.468.317,13.124,13.124,0,0,1,10.251,12.11,12.852,12.852,0,0,1-3.724,9.627,15.566,15.566,0,0,0-3.663,5.912h5.886a15.569,15.569,0,0,1,3.664-5.912A12.852,12.852,0,0,0,97.2,28.011Z" transform="translate(-1.776 0.539)" fill="#fea95c"/>
      <path id="패스_5373" data-name="패스 5373" d="M83.9,45.77v4.246a5.109,5.109,0,0,1-2.832,4.467,6.2,6.2,0,0,0,2.917.717,5.489,5.489,0,0,0,5.749-5.184V45.77Z" transform="translate(-1.776 -0.329)" fill="#537983"/>
      <path id="패스_5374" data-name="패스 5374" d="M32.775,64.647V76.619l7.11-5.007a1.2,1.2,0,0,0,0-1.958Z" transform="translate(-0.275 -1.406)" fill="#f9c6c6" stroke="#26282b" stroke-linecap="round" stroke-linejoin="round" stroke-width="1.5"/>
      <path id="패스_5375" data-name="패스 5375" d="M39.885,71.612a1.2,1.2,0,0,0,0-1.958l-7.11-5.007v5.509l4.589,3.231Z" transform="translate(-0.275 -1.406)" fill="#f9b1b1" stroke="#26282b" stroke-linecap="round" stroke-linejoin="round" stroke-width="1.5"/>
      <path id="패스_5376" data-name="패스 5376" d="M1.916,64.638A1.916,1.916,0,0,0,0,66.553v5.518a1.916,1.916,0,0,1,1.916-1.916H9.55V64.638Z" transform="translate(0 -1.406)" fill="#e94444" stroke="#26282b" stroke-width="1.5"/>
      <path id="패스_5377" data-name="패스 5377" d="M9.764,65.9H32.271V76.646H9.764Z" transform="translate(-0.214 -1.434)" fill="#febe40" stroke="#26282b" stroke-linejoin="round" stroke-width="1.5"/>
      <path id="패스_5378" data-name="패스 5378" d="M0,67.814v6.917a1.916,1.916,0,0,0,1.916,1.916H9.55V65.9H1.916A1.916,1.916,0,0,0,0,67.814Z" transform="translate(0 -1.434)" fill="#ff7307" stroke="#26282b" stroke-width="1.5"/>
      <path id="패스_5379" data-name="패스 5379" d="M9.764,64.647H32.271v5.509H9.764Z" transform="translate(-0.214 -1.406)" fill="#febe40" stroke="#26282b" stroke-linecap="round" stroke-linejoin="round" stroke-width="1.5"/>
      <path id="패스_5380" data-name="패스 5380" d="M0,66.562v5.509a1.916,1.916,0,0,1,1.916-1.916H9.55V64.647H1.916A1.916,1.916,0,0,0,0,66.562Z" transform="translate(0 -1.406)" fill="#ff7307" stroke="#26282b" stroke-width="1.5"/>
    </g>
  </g>
</svg>
