<svg xmlns="http://www.w3.org/2000/svg" xmlns:xlink="http://www.w3.org/1999/xlink" width="110" height="110" viewBox="0 0 110 110">
  <defs>
    <clipPath id="clip-path">
      <rect id="사각형_852" data-name="사각형 852" width="110" height="110" transform="translate(1055 2992)" fill="#9ea4aa" stroke="#26282b" stroke-width="1.5"/>
    </clipPath>
  </defs>
  <g id="img_" transform="translate(-1055 -2992)" clip-path="url(#clip-path)">
    <g id="bell_6_" data-name="bell (6)" transform="translate(1056 2993)">
      <g id="그룹_5189" data-name="그룹 5189" transform="translate(0 35.032)">
        <path id="패스_5327" data-name="패스 5327" d="M100.8,73.824a1.716,1.716,0,0,1-1.123-.449,1.763,1.763,0,0,1,0-2.471,22.779,22.779,0,0,0,0-32.349,1.747,1.747,0,0,1,2.471-2.471,26.577,26.577,0,0,1,0,37.291A3.191,3.191,0,0,1,100.8,73.824Z" transform="translate(-1.957 -35.578)" fill="#feb31e" stroke="#26282b" stroke-width="1.5"/>
        <path id="패스_5328" data-name="패스 5328" d="M94.155,67.44a1.716,1.716,0,0,1-1.123-.449,1.763,1.763,0,0,1,0-2.471,13.575,13.575,0,0,0,4.044-9.66,13.428,13.428,0,0,0-4.044-9.66A1.747,1.747,0,0,1,95.5,42.73a16.968,16.968,0,0,1,4.942,12.131A17.359,17.359,0,0,1,95.5,66.991,3.2,3.2,0,0,1,94.155,67.44Z" transform="translate(-1.826 -35.709)" fill="#feb31e" stroke="#26282b" stroke-width="1.5"/>
        <path id="패스_5329" data-name="패스 5329" d="M8.986,35.635a1.716,1.716,0,0,1,1.123.449,1.763,1.763,0,0,1,0,2.471,22.779,22.779,0,0,0,0,32.349,1.747,1.747,0,0,1-2.471,2.471,26.577,26.577,0,0,1,0-37.291A3.191,3.191,0,0,1,8.986,35.635Z" transform="translate(0 -35.579)" fill="#feb31e" stroke="#26282b" stroke-width="1.5"/>
        <path id="패스_5330" data-name="패스 5330" d="M15.69,42.281a1.716,1.716,0,0,1,1.123.449,1.763,1.763,0,0,1,0,2.471,13.575,13.575,0,0,0-4.044,9.66,13.064,13.064,0,0,0,4.044,9.66,1.747,1.747,0,0,1-2.471,2.471A17.542,17.542,0,0,1,9.625,54.861,17.767,17.767,0,0,1,14.567,42.73,1.716,1.716,0,0,1,15.69,42.281Z" transform="translate(-0.19 -35.711)" fill="#feb31e" stroke="#26282b" stroke-width="1.5"/>
      </g>
      <path id="패스_5331" data-name="패스 5331" d="M54.787,29.023A10.558,10.558,0,1,1,65.346,18.464,10.546,10.546,0,0,1,54.787,29.023Zm0-14.377a4.044,4.044,0,1,0,4.044,4.044A4.027,4.027,0,0,0,54.787,14.646Z" transform="translate(-0.873)" fill="#ffcb71" stroke="#26282b" stroke-width="1.5"/>
      <path id="패스_5332" data-name="패스 5332" d="M73.49,89.031a22.191,22.191,0,0,1-4.718,7.189,19.663,19.663,0,0,1-14.153,5.616A21.067,21.067,0,0,1,40.468,96.22a19.075,19.075,0,0,1-4.718-7.189H73.49Z" transform="translate(-0.705 -1.601)" fill="#ff7307" stroke="#26282b" stroke-width="1.5"/>
      <path id="패스_5333" data-name="패스 5333" d="M73.49,89.031a22.191,22.191,0,0,1-4.718,7.189H40.468a19.075,19.075,0,0,1-4.718-7.189Z" transform="translate(-0.705 -1.601)" fill="#231f20" stroke="#26282b" stroke-width="1.5" opacity="0.1"/>
      <path id="패스_5334" data-name="패스 5334" d="M86.7,81.357H22v-30.1A32.214,32.214,0,0,1,54.349,18.906h0A32.214,32.214,0,0,1,86.7,51.255Z" transform="translate(-0.434 -0.217)" fill="#ffe571" stroke="#26282b" stroke-width="1.5"/>
      <path id="패스_5335" data-name="패스 5335" d="M83.2,79.406H25.243a9.588,9.588,0,0,0-9.66,9.66v2.022a2.013,2.013,0,0,0,2.022,2.022H90.839a2.013,2.013,0,0,0,2.022-2.022V89.066A9.883,9.883,0,0,0,83.2,79.406Z" transform="translate(-0.308 -1.411)" fill="#ffcb71" stroke="#26282b" stroke-width="1.5"/>
    </g>
  </g>
</svg>
