<svg xmlns="http://www.w3.org/2000/svg" xmlns:xlink="http://www.w3.org/1999/xlink" width="110" height="110" viewBox="0 0 110 110">
  <defs>
    <clipPath id="clip-path">
      <rect id="사각형_855" data-name="사각형 855" width="110" height="110" transform="translate(455 2408)" fill="#9ea4aa" stroke="#26282b" stroke-width="1.5"/>
    </clipPath>
  </defs>
  <g id="img_" transform="translate(-455 -2408)" clip-path="url(#clip-path)">
    <g id="goal_1_" data-name="goal (1)" transform="translate(460.864 2408)">
      <g id="그룹_5205" data-name="그룹 5205">
        <path id="패스_5381" data-name="패스 5381" d="M86.94,61.326H73.791A3.889,3.889,0,0,0,69.9,65.215V80.947a3.889,3.889,0,0,0-3.889-3.889H52.864a3.888,3.888,0,0,0-3.889,3.889V91.319a3.889,3.889,0,0,0-3.889-3.889H31.937a3.889,3.889,0,0,0-3.889,3.889v9.655a3.889,3.889,0,0,0-3.89-3.889H11.01a3.889,3.889,0,0,0-3.889,3.889v7.383H90.829V65.215a3.89,3.89,0,0,0-3.89-3.889Zm0,0" fill="#a7c7d3" stroke="#26282b" stroke-width="1.5"/>
        <path id="패스_5382" data-name="패스 5382" d="M75.583,62.969a1.642,1.642,0,0,1-1.643-1.642V1.642a1.643,1.643,0,0,1,3.286,0V61.326A1.643,1.643,0,0,1,75.583,62.969Zm0,0" fill="#a7c7d3" stroke="#26282b" stroke-width="1.5"/>
        <path id="패스_5383" data-name="패스 5383" d="M28.048,108.358H7.121v-7.383a3.889,3.889,0,0,1,3.889-3.889H24.159a3.889,3.889,0,0,1,3.889,3.889Zm0,0" fill="#deedff" stroke="#26282b" stroke-width="1.5"/>
      </g>
      <path id="패스_5384" data-name="패스 5384" d="M48.975,108.358H28.048V91.319a3.889,3.889,0,0,1,3.889-3.889H45.086a3.889,3.889,0,0,1,3.889,3.889Zm0,0" fill="#b7d8ff" stroke="#26282b" stroke-width="1.5"/>
      <path id="패스_5385" data-name="패스 5385" d="M69.9,108.358H48.975V80.947a3.889,3.889,0,0,1,3.889-3.889H66.013A3.889,3.889,0,0,1,69.9,80.947Zm0,0" fill="#98c8ff" stroke="#26282b" stroke-width="1.5"/>
      <path id="패스_5386" data-name="패스 5386" d="M90.829,108.358H69.9V65.215a3.889,3.889,0,0,1,3.889-3.889H86.94a3.889,3.889,0,0,1,3.89,3.889Zm0,0" fill="#7ebaff" stroke="#26282b" stroke-width="1.5"/>
      <path id="패스_5387" data-name="패스 5387" d="M96.629,110H1.642a1.642,1.642,0,0,1,0-3.285H96.629a1.642,1.642,0,0,1,0,3.285Zm0,0" fill="#2f5066" stroke="#26282b" stroke-width="1.5"/>
      <path id="패스_5388" data-name="패스 5388" d="M75.583,17.258H96.632A.707.707,0,0,0,97.1,16.02L91.632,11.2a.706.706,0,0,1,0-1.062L97.1,5.328a.708.708,0,0,0-.467-1.239H75.583Zm0,0" fill="#febe40" stroke="#26282b" stroke-width="1.5"/>
      <path id="패스_5389" data-name="패스 5389" d="M77.259,23.421l-22.8,12.385c-2.034,1.105-2.591,3.047-3.3,5.549L46.622,57.391l5.989,2.057,5.124-6.611L62.047,39.8l11.475-6.972a8.4,8.4,0,0,0,3.737-9.4Zm0,0" fill="#7ebaff" stroke="#26282b" stroke-width="1.5"/>
      <path id="패스_5390" data-name="패스 5390" d="M77.259,23.421,74.628,24.85a8.394,8.394,0,0,1-3.88,5.567L60.292,36.769A3.246,3.246,0,0,0,58.9,38.522L57.4,43.036A16.923,16.923,0,0,1,47.756,53.38l-1.134,4.011,11.112-4.554L62.047,39.8l11.475-6.973a8.4,8.4,0,0,0,3.737-9.4Zm0,0" fill="#7ebaff" stroke="#26282b" stroke-width="1.5"/>
      <path id="패스_5391" data-name="패스 5391" d="M57.734,52.837,64.3,60.6c1.088,1.441,2.035,2.454,1.839,4.039L64.6,77.052H60.6L59.549,66.379a1.782,1.782,0,0,0-1.068-1.463L46.622,57.391Zm0,0" fill="#38627c" stroke="#26282b" stroke-width="1.5"/>
      <path id="패스_5392" data-name="패스 5392" d="M46.622,57.391l-.64,11.767a5.18,5.18,0,0,1-.287,2.362L38.133,87.43h4.251l11.369-15.1a6.154,6.154,0,0,0,.966-2.791l3.015-16.7Zm0,0" fill="#4f7693" stroke="#26282b" stroke-width="1.5"/>
      <path id="패스_5393" data-name="패스 5393" d="M56.919,25.961,58.784,29.6a3.481,3.481,0,0,1-1.511,4.685l-1.441.738a3.48,3.48,0,0,1-4.685-1.511l-1.865-3.641a3.48,3.48,0,0,1,1.511-4.685l1.441-.738A3.481,3.481,0,0,1,56.919,25.961Zm0,0" fill="#fecbaa" stroke="#26282b" stroke-width="1.5"/>
    </g>
  </g>
</svg>
