<svg id="그룹_5210" data-name="그룹 5210" xmlns="http://www.w3.org/2000/svg" width="89.08" height="113.531" viewBox="0 0 89.08 113.531">
  <path id="패스_5424" data-name="패스 5424" d="M551.542,204.442c-2.152-.877-4.315.1-4.74,2.143a1.853,1.853,0,0,1-.193.64c-.2.3-.6.353-.959.442a3.437,3.437,0,0,0-2.4,2.316l-.237-.189-60.976-77.922c-1.322-1.689-1.391-3.842-.155-4.809l7.492-5.863c1.236-.967,3.309-.381,4.631,1.307l60.723,77.6a5.279,5.279,0,0,0-1.165.435,3.825,3.825,0,0,0-2.016,3.9" transform="translate(-477.709 -119.817)" fill="#cbffe5"/>
  <path id="패스_5425" data-name="패스 5425" d="M542.4,210.038a.907.907,0,0,0,.858-.614,2.546,2.546,0,0,1,1.765-1.729l.133-.032a2.03,2.03,0,0,0,1.364-.79,2.262,2.262,0,0,0,.3-.854l.02-.1a2.08,2.08,0,0,1,1.078-1.461,2.871,2.871,0,0,1,2.432-.027.907.907,0,0,0,1.243-.943,2.931,2.931,0,0,1,1.538-3,4.332,4.332,0,0,1,.965-.359.907.907,0,0,0,.49-1.438l-60.723-77.6c-1.656-2.116-4.249-2.758-5.9-1.463l-7.492,5.863a3.436,3.436,0,0,0-1.229,2.878,5.58,5.58,0,0,0,1.229,3.2L541.452,209.5a.926.926,0,0,0,.148.15l.237.189a.906.906,0,0,0,.566.2m2.612-4.209c-.073.023-.182.048-.261.066l-.164.039a4.164,4.164,0,0,0-2.372,1.6L481.9,130.461a3.81,3.81,0,0,1-.845-2.146,1.684,1.684,0,0,1,.534-1.391l7.492-5.863c.827-.647,2.364-.119,3.358,1.152L552.4,198.832l-.107.055a4.662,4.662,0,0,0-2.481,3.526,4.442,4.442,0,0,0-2.737.444,3.889,3.889,0,0,0-2,2.691l-.025.125c-.009.046-.021.107-.032.155" transform="translate(-476.867 -118.965)" fill="#24221e"/>
  <path id="패스_5426" data-name="패스 5426" d="M464.687,307.047l2.87,6.234c.989,2.15-.888,3.619-2.737,2.141l-5.361-4.284Z" transform="translate(-379.657 -209.571)" fill="#24221e"/>
  <path id="패스_5427" data-name="패스 5427" d="M465.489,316.086a2.372,2.372,0,0,0,1.481-.5,2.825,2.825,0,0,0,.57-3.525l-2.87-6.234a.908.908,0,0,0-1.383-.335l-5.228,4.091a.908.908,0,0,0-.008,1.423l5.361,4.285a3.37,3.37,0,0,0,2.077.8m-1.989-8.462,2.391,5.193c.268.584.253,1.109-.039,1.338s-.806.117-1.308-.284l-4.465-3.568Z" transform="translate(-378.815 -208.728)" fill="#24221e"/>
  <path id="패스_5428" data-name="패스 5428" d="M465.526,283.76a3.439,3.439,0,0,1,2.4-2.317c.357-.088.76-.14.959-.442a1.849,1.849,0,0,0,.193-.64c.426-2.042,2.588-3.019,4.74-2.143a3.824,3.824,0,0,1,2.016-3.9,5.281,5.281,0,0,1,1.165-.436l.252.323,7.764,16.865-5.228,4.091Z" transform="translate(-399.99 -193.594)" fill="#ffe3d4"/>
  <path id="패스_5429" data-name="패스 5429" d="M478.949,295.225a.906.906,0,0,0,.559-.193l5.228-4.091a.908.908,0,0,0,.265-1.094l-7.764-16.865a.93.93,0,0,0-.109-.179l-.252-.323a.905.905,0,0,0-.939-.32,6.112,6.112,0,0,0-1.365.512,4.664,4.664,0,0,0-2.481,3.526,4.441,4.441,0,0,0-2.737.444,3.892,3.892,0,0,0-2,2.691l-.025.125c-.009.046-.021.107-.032.155-.072.023-.182.049-.261.067l-.164.038a4.328,4.328,0,0,0-3.045,2.9.908.908,0,0,0,.292,1l14.266,11.4a.907.907,0,0,0,.566.2m4.1-5.27-4.1,3.207L465.8,282.647a2.424,2.424,0,0,1,1.508-1.166l.134-.032a2.03,2.03,0,0,0,1.364-.79,2.257,2.257,0,0,0,.3-.854l.02-.1a2.081,2.081,0,0,1,1.078-1.461,2.875,2.875,0,0,1,2.432-.027.907.907,0,0,0,1.243-.943,2.933,2.933,0,0,1,1.538-3,3.686,3.686,0,0,1,.344-.159Z" transform="translate(-399.147 -192.751)" fill="#24221e"/>
  <path id="패스_5430" data-name="패스 5430" d="M594.575,280.076l-6.561,4.461a33.538,33.538,0,0,1-7.261,4.1,11.3,11.3,0,0,1-8.166.123c-2.294-.973-4.022-2.9-5.671-4.767-1.378-1.56-3.141-5.507-4.81-6.409-.975-.528-2.469.2-3.169-.962a1.006,1.006,0,0,1-.034-1.016,1.652,1.652,0,0,1,.589-.5,84.766,84.766,0,0,1,10.772-5.564,19.082,19.082,0,0,0,1.932,3.608,7.954,7.954,0,0,0,1.6,1.813,6.811,6.811,0,0,0,5.992.871,20.143,20.143,0,0,0,5.549-2.893" transform="translate(-557.876 -191.501)" fill="#fff"/>
  <path id="패스_5431" data-name="패스 5431" d="M594.189,280.033l-5.714,3.885a61.624,61.624,0,0,1-5.435,3.465c-3.708,1.989-8.231,3.078-12.191,1.134a15.8,15.8,0,0,1-4.526-3.71,19.745,19.745,0,0,1-1.586-1.893c-.44-.625-.836-1.28-1.238-1.93-.425-.686-.85-1.374-1.322-2.031-.057-.08-.116-.159-.175-.238l-.075-.1c.01.012.081.1.017.023-.115-.141-.23-.281-.351-.417-.1-.116-.212-.229-.326-.336-.049-.046-.1-.092-.15-.136-.033-.028-.067-.054-.1-.083.042.037.129.087.034.029-.051-.032-.1-.068-.15-.1-.027-.016-.222-.112-.128-.074s-.108-.028-.143-.036-.1-.021-.15-.031c-.134-.027.148.011.01,0-.358-.023-.719-.017-1.077-.047a2.446,2.446,0,0,1-2.282-1.551,1.839,1.839,0,0,1,.268-1.712,4.431,4.431,0,0,1,1.312-.976q1.392-.836,2.816-1.619,2.9-1.6,5.918-2.96.754-.341,1.514-.667a.93.93,0,0,1,1.333.542,18.267,18.267,0,0,0,1.742,3.246,5.925,5.925,0,0,0,2.3,2.216,3.839,3.839,0,0,0,.62.233,6.45,6.45,0,0,0,.834.19c.164.026-.106-.011.06.009l.152.016q.2.019.406.026a7.972,7.972,0,0,0,.869-.017,7.535,7.535,0,0,0,1.527-.291,10.491,10.491,0,0,0,1.586-.6,30,30,0,0,0,3.636-2.166.907.907,0,0,1,.915,1.566c-2.26,1.5-4.606,2.972-7.358,3.281a7.576,7.576,0,0,1-3.673-.461,7.177,7.177,0,0,1-3.093-2.574,19.765,19.765,0,0,1-2.277-4.185l1.332.542q-2.9,1.247-5.7,2.7-1.413.735-2.8,1.523-.665.379-1.325.77-.343.2-.683.41c-.1.061-.2.122-.3.185-.042.026-.084.052-.125.079-.017.011-.121.09-.051.036-.089.069-.089.031-.033,0-.013.008-.019.145-.017.068,0,0,0-.079-.008-.073-.037.035.033.121.071.185.053.09,0,.008-.012-.009a1.586,1.586,0,0,0,.114.116c-.1-.1.011,0,.067.034.127.083-.09-.008.06.022.074.015.148.036.221.053.017,0,.143.02.032.006-.129-.016.089.005.113.007a5.145,5.145,0,0,1,2.249.384,5.077,5.077,0,0,1,1.434,1.307,21.157,21.157,0,0,1,1.357,1.925c.417.655.816,1.321,1.234,1.975.18.282.364.562.558.836.049.07.1.14.151.208s.131.16.028.038c.1.123.207.248.314.368a20.792,20.792,0,0,0,3.892,3.7,8.506,8.506,0,0,0,5.151,1.381,13.845,13.845,0,0,0,5.426-1.482,42.2,42.2,0,0,0,5.182-3.152q2.715-1.845,5.429-3.692l1.375-.935a.907.907,0,1,1,.916,1.566" transform="translate(-557.032 -190.675)" fill="#24221e"/>
  <path id="패스_5432" data-name="패스 5432" d="M514.306,275.341c2.914,2.9,4.88,6.958,7.076,10.437l7.734,12.256a4.568,4.568,0,0,0,1.98,2.025c.492.186,1.025.176,1.518.361s.971.7.847,1.2a1.241,1.241,0,0,1-.707.7,77.5,77.5,0,0,1-9.434,4.33,2.361,2.361,0,0,1-1.694.181,2.8,2.8,0,0,1-1.04-.905q-8.626-10.488-16.849-21.31" transform="translate(-468.253 -194.297)" fill="#fff"/>
  <path id="패스_5433" data-name="패스 5433" d="M514.135,273.854a29.772,29.772,0,0,1,4.152,5.514c1.222,1.985,2.373,4.01,3.617,5.982l4.316,6.839,2.14,3.393c.332.526.655,1.057,1,1.574.076.113.153.225.233.335,0,0,.1.133.043.059.041.053.085.1.129.155.076.088.155.173.238.254.047.046.095.091.143.134.125.111-.156-.1.084.068a1.3,1.3,0,0,0,.56.262c.288.074.585.105.875.17a2.574,2.574,0,0,1,1.6,1.043,1.676,1.676,0,0,1-.095,2.031,4.621,4.621,0,0,1-1.473.969q-3.425,1.814-7.017,3.281-.877.361-1.763.7a3.784,3.784,0,0,1-2.008.333c-1.245-.212-2.007-1.5-2.746-2.4q-2.513-3.069-4.991-6.166-4.991-6.237-9.84-12.585-.6-.782-1.194-1.566a.913.913,0,0,1,.325-1.241.93.93,0,0,1,1.241.325q4.578,6.023,9.285,11.947,2.369,2.981,4.771,5.937,1.2,1.478,2.409,2.949c.166.2.329.408.5.6a1.149,1.149,0,0,0,.505.416,1.132,1.132,0,0,0,.417-.018,6.177,6.177,0,0,0,.9-.3q3.344-1.283,6.552-2.884.819-.407,1.629-.835c.27-.143.541-.285.807-.432a2.424,2.424,0,0,0,.284-.17c.087-.064.015-.015,0,0,.165-.144.018-.044.017-.009a.768.768,0,0,0,.012.2c-.006-.033-.064-.129-.012-.052a.906.906,0,0,0-.134-.14c.088.079-.193-.116-.112-.076s-.088-.031-.084-.03c-.089-.028-.179-.051-.27-.071a5.793,5.793,0,0,1-1.664-.487,6.74,6.74,0,0,1-2.172-2.481l-2.072-3.283-4.143-6.566q-1.836-2.91-3.584-5.868a38.9,38.9,0,0,0-3.611-5.34q-.518-.612-1.085-1.18a.908.908,0,0,1,1.283-1.283" transform="translate(-467.441 -193.452)" fill="#24221e"/>
  <path id="패스_5434" data-name="패스 5434" d="M533.053,274.578c.153-.333.619.08.709.435q1.356,5.341,2.712,10.682a1.6,1.6,0,0,1,.038.984c-.19.473-.757.646-1.253.761l-8.846,2.054q-1.1-7.363-2.2-14.728" transform="translate(-481.963 -193.87)" fill="#5b5b5b"/>
  <path id="패스_5435" data-name="패스 5435" d="M531.432,273.294c.583-.96,1.768-.546,2.221.292a5.3,5.3,0,0,1,.366,1.23q.173.682.347,1.366l1.324,5.217q.323,1.273.646,2.546a3.041,3.041,0,0,1,0,2.578,3.139,3.139,0,0,1-2.045,1.053l-2.617.607-5.855,1.36a.915.915,0,0,1-1.116-.633q-1.1-7.363-2.2-14.728a.936.936,0,0,1,.633-1.116.914.914,0,0,1,1.116.633q1.1,7.365,2.2,14.729l-1.115-.634c2.975-.691,5.964-1.339,8.929-2.074q.192-.047.378-.109c.146-.049-.161.1.063-.026.049-.028.1-.052.146-.085-.089.061-.005.05.005-.014-.035.221-.029-.06,0-.013-.013-.02-.024.055-.025.061a.366.366,0,0,0-.018-.2c-.151-.741-.371-1.473-.557-2.207l-1.136-4.471-.631-2.485q-.165-.652-.331-1.3l-.063-.248-.048-.187c.044.085.05.1.018.038-.009-.062.056,0,0-.012q-.072-.071.04.02a.827.827,0,0,0,.233.067l.458-.124.2-.208a.907.907,0,0,1-1.566-.916" transform="translate(-481.125 -193.044)" fill="#24221e"/>
  <path id="패스_5436" data-name="패스 5436" d="M552.878,274.914l.566,14.469a26.256,26.256,0,0,1-10.127-1.2.677.677,0,0,1-.312-.167.691.691,0,0,1-.118-.454,86.127,86.127,0,0,1,.73-12.862" transform="translate(-508.501 -193.991)" fill="#5b5b5b"/>
  <path id="패스_5437" data-name="패스 5437" d="M552.955,274.071l.566,14.469a.925.925,0,0,1-.907.907,27.155,27.155,0,0,1-9.551-.977,7.936,7.936,0,0,1-1.1-.36,1.391,1.391,0,0,1-.811-1.241c-.062-.807-.025-1.635-.019-2.444q.021-2.489.187-4.975.186-2.8.555-5.589a.937.937,0,0,1,.907-.907c.44,0,.972.418.907.907a86.842,86.842,0,0,0-.723,9.351q-.026,1.181-.021,2.362c0,.362,0,.724.012,1.085,0,.021,0,.042,0,.064.005.114.005.13,0,.048l-.16-.165q-.3-.234-.075-.135a2.411,2.411,0,0,1,.583.181,24.848,24.848,0,0,0,4.242.887,26.511,26.511,0,0,0,5.061.094l-.907.907q-.283-7.235-.566-14.469a.907.907,0,1,1,1.814,0" transform="translate(-507.67 -193.148)" fill="#24221e"/>
  <path id="패스_5438" data-name="패스 5438" d="M572.426,273.176q-.848,6.815-1.831,13.611-4.561-1.446-9.05-3.107a1.479,1.479,0,0,1-.845-.57,1.451,1.451,0,0,1-.1-.811,44.052,44.052,0,0,1,2.7-12.222" transform="translate(-536.664 -191.762)" fill="#5b5b5b"/>
  <path id="패스_5439" data-name="패스 5439" d="M572.474,272.332q-.864,6.935-1.864,13.852a.913.913,0,0,1-1.116.634q-2.432-.772-4.845-1.6-1.176-.406-2.347-.826c-.779-.279-1.592-.526-2.344-.875a1.961,1.961,0,0,1-1.124-2.056c.055-.81.144-1.62.249-2.425a46.176,46.176,0,0,1,.873-4.8,44.388,44.388,0,0,1,1.607-5.242.932.932,0,0,1,1.115-.633.914.914,0,0,1,.634,1.116,44.279,44.279,0,0,0-2.3,8.77q-.163,1.055-.268,2.117c-.036.364-.07.729-.095,1.093,0,.069-.011.139-.012.209,0-.02-.023.276,0,.19.006-.019-.033-.084-.051-.078l.065.065q-.09-.072.047.02c.2.095.51.206.824.321q.539.2,1.079.392,1.14.41,2.286.807,2.532.878,5.086,1.687l-1.116.633q.966-6.676,1.8-13.37a.936.936,0,0,1,.907-.907.912.912,0,0,1,.907.907" transform="translate(-535.805 -190.918)" fill="#24221e"/>
  <path id="패스_5440" data-name="패스 5440" d="M576.831,263.8l-8.217,6.5a2.194,2.194,0,0,0-.766.87,2.157,2.157,0,0,0,.556,1.9,35.246,35.246,0,0,0,6.136,6.623.871.871,0,0,0,.318.194c.336.09.633-.224.841-.5l8.246-11.148" transform="translate(-551.906 -188.736)" fill="#5b5b5b"/>
  <path id="패스_5441" data-name="패스 5441" d="M576.6,263.6l-5.985,4.734-1.471,1.164a7.678,7.678,0,0,0-1.273,1.063c.076-.1-.074.157-.064.123.033-.1,0,.105.006.16-.013-.1.023.066.024.07.018.051.031.1.051.154a3.056,3.056,0,0,0,.181.331,15.111,15.111,0,0,0,.961,1.338,34.578,34.578,0,0,0,4.5,4.8q.3.266.607.524a1.7,1.7,0,0,1,.176.148c0-.01-.05-.036-.059-.033a.5.5,0,0,1-.267-.008c-.035-.019-.159.143.013-.042-.007.007.1-.114.056-.059-.064.075.1-.128.1-.14l.267-.361.573-.774,2.252-3.045,5.04-6.813a.935.935,0,0,1,1.241-.325.914.914,0,0,1,.325,1.241l-4.887,6.606-2.444,3.3c-.7.948-1.757,2.927-3.2,1.962a13.05,13.05,0,0,1-1.461-1.246q-.677-.617-1.322-1.27a35.162,35.162,0,0,1-2.438-2.737q-.592-.739-1.151-1.5a4.679,4.679,0,0,1-.887-1.671,2.228,2.228,0,0,1,.525-2.014,10.738,10.738,0,0,1,1.425-1.183l7.3-5.777a.936.936,0,0,1,1.283,0,.914.914,0,0,1,0,1.283" transform="translate(-551.037 -187.902)" fill="#24221e"/>
  <path id="패스_5442" data-name="패스 5442" d="M492.68,142.965c2.123-1.683,4.812-2.152,7.32-2.963,5.627-1.818,10.589-5.483,15.9-8.213a28.5,28.5,0,0,1,9.689-3.2,26.957,26.957,0,0,1,6.184.408c2.02.237,3.954.022,5.954.441a27.838,27.838,0,0,1,11.628,5.516,16.607,16.607,0,0,1,4.743,5.574c1.375,2.827,1.635,6.134,1.768,9.339.255,6.133-.139,13.084-5.8,16.933-2.483,1.69-5.475,2.426-8.4,3.086-9.106,2.05-18.366,3.661-27.7,3.7-3.936.016-8.157-.352-11.219-2.824a13.407,13.407,0,0,1-2.875-3.414c-.552-.886-.926-2.741-1.551-3.422-1.575-1.718-4.009-1.462-5.139-4.166a7.044,7.044,0,0,1,.935-6.89,7.249,7.249,0,0,1-3.332-2.4c-1.513-2.35-.229-5.815,1.894-7.5" transform="translate(-483.646 -123.566)" fill="#24221e"/>
  <path id="패스_5443" data-name="패스 5443" d="M491.207,141.5c2.3-1.8,5.115-2.342,7.829-3.231a42.863,42.863,0,0,0,7.794-3.666c5.216-2.973,10.381-6.456,16.4-7.527a17.2,17.2,0,0,1,4.943-.162c1.593.174,3.162.432,4.766.477a23.866,23.866,0,0,1,4.738.464,27.2,27.2,0,0,1,4.068,1.285,29.671,29.671,0,0,1,7.587,4.479,16.712,16.712,0,0,1,5.2,6.723,26.67,26.67,0,0,1,1.415,8.786,39.852,39.852,0,0,1-.252,7.089,17.055,17.055,0,0,1-2.191,6.562,13.307,13.307,0,0,1-5.706,5.055,39.341,39.341,0,0,1-8.579,2.51c-3.16.688-6.335,1.312-9.528,1.829-3.226.522-6.472.939-9.73,1.2a70.183,70.183,0,0,1-9.254.24,17.743,17.743,0,0,1-7.884-1.967,11.35,11.35,0,0,1-3.236-2.786,18.3,18.3,0,0,1-1.3-1.834,8.735,8.735,0,0,1-.714-1.621c-.094-.257-.185-.515-.282-.771-.021-.055-.042-.11-.065-.166.006.015-.1-.249-.053-.131s-.061-.13-.056-.119c-.034-.071-.068-.141-.106-.21-.05-.092-.127-.181-.167-.276s.14.133,0,.008c-.04-.036-.076-.081-.114-.119-.095-.1-.2-.182-.3-.272-.025-.022-.135-.106,0,0-.062-.047-.125-.092-.19-.136-.8-.548-1.729-.862-2.549-1.376-2.339-1.466-3.055-4.328-2.63-6.931a7.589,7.589,0,0,1,1.578-3.5q.092.712.184,1.425c-1.779-.814-3.464-1.832-4.154-3.769a6.658,6.658,0,0,1,.656-5.27,7.58,7.58,0,0,1,1.877-2.286.935.935,0,0,1,1.283,0,.914.914,0,0,1,0,1.283,6.533,6.533,0,0,0-.8.759c-.06.068-.118.136-.175.206-.029.035-.058.07-.085.106.012-.016.065-.086,0,0-.116.16-.229.323-.332.492s-.188.317-.272.48c-.042.081-.083.164-.122.247l-.058.125c-.063.14.041-.105-.017.037a6.7,6.7,0,0,0-.335,1.088c-.019.088-.034.177-.051.265-.032.168,0-.055-.017.114-.019.191-.031.382-.032.575a5.077,5.077,0,0,0,.032.568c-.017-.152.011.053.02.1q.028.149.068.3c.022.084.047.167.074.249.013.04.084.231.062.176s.063.131.082.169c.047.092.1.182.151.27a2.123,2.123,0,0,0,.271.376,4.661,4.661,0,0,0,.457.454,6.217,6.217,0,0,0,1.041.692c.419.231.853.432,1.287.63a.92.92,0,0,1,.183,1.425c.078-.1-.045.06-.061.083-.047.065-.092.131-.136.2-.071.108-.138.217-.2.329s-.139.255-.2.386c-.035.074-.07.147-.1.221.053-.125-.057.15-.055.146a7.043,7.043,0,0,0-.256.849c-.03.129-.056.258-.08.388-.011.065-.023.131-.032.2.02-.138-.013.127-.016.153a7.363,7.363,0,0,0-.03.895q.007.248.031.5c.007.066.013.132.022.2-.019-.135.029.156.028.151a5.247,5.247,0,0,0,.536,1.6q.1.181.217.354c.033.048.067.1.1.144-.086-.115,0,0,.019.018a5.367,5.367,0,0,0,.58.564c-.141-.116.117.082.161.111.1.064.193.125.292.184.207.123.421.235.637.343a10.045,10.045,0,0,1,2.549,1.564,7.582,7.582,0,0,1,1.519,3.009c.041.109.083.217.128.325-.066-.16.073.155.091.19a7.306,7.306,0,0,0,.46.759,13.186,13.186,0,0,0,1.215,1.6A11.06,11.06,0,0,0,507.9,171.5a25.119,25.119,0,0,0,3.76.342c1.461.039,2.925.009,4.385-.047,3.12-.118,6.234-.4,9.33-.8s6.151-.929,9.2-1.529c2.967-.583,5.957-1.168,8.873-1.972a20.428,20.428,0,0,0,3.785-1.391,13.653,13.653,0,0,0,1.709-1.018,11,11,0,0,0,3.218-3.6q.2-.347.369-.7.077-.159.15-.32c.031-.067.06-.134.09-.2s.023-.054,0,.013l.05-.123a15.736,15.736,0,0,0,.535-1.551c.154-.531.281-1.069.388-1.611q.078-.4.141-.8c.059-.373.054-.336.1-.7a32.406,32.406,0,0,0,.205-3.37,45.27,45.27,0,0,0-.438-7.641,16.019,16.019,0,0,0-1.09-3.951,12.95,12.95,0,0,0-2.139-3.288,24.061,24.061,0,0,0-6.39-4.963,25.9,25.9,0,0,0-7.592-2.807,31.881,31.881,0,0,0-4.46-.29c-1.56-.083-3.1-.391-4.654-.516a19.41,19.41,0,0,0-8.614,1.593,56.315,56.315,0,0,0-7.689,3.959c-2.486,1.452-4.956,2.943-7.56,4.176a34.771,34.771,0,0,1-4.037,1.636c-1.262.414-2.554.73-3.813,1.155a10.841,10.841,0,0,0-3.216,1.61.937.937,0,0,1-1.283,0,.913.913,0,0,1,0-1.283" transform="translate(-482.814 -122.744)" fill="#24221e"/>
  <path id="패스_5444" data-name="패스 5444" d="M555.383,219.147a34.434,34.434,0,0,1,1.258,11.666c-.28,5.494-.593,10.986-.889,16.479a32.8,32.8,0,0,1-28.537-5.728,3.123,3.123,0,0,1-1.126-1.294,3.466,3.466,0,0,1-.012-1.8,73.213,73.213,0,0,1,4.017-14.287c1.557-3.946,3.664-6.515,6.383-9.618,1.869-2.133,4.711-5.284,7.268-2.554" transform="translate(-502.984 -163.279)" fill="#9b9b9b"/>
  <path id="패스_5445" data-name="패스 5445" d="M555.4,218.079a24.975,24.975,0,0,1,1.043,4.927,40.224,40.224,0,0,1,.3,5.013c0,1.815-.135,3.631-.231,5.443q-.164,3.09-.335,6.179-.187,3.412-.373,6.823a.934.934,0,0,1-.666.875,33.167,33.167,0,0,1-13.757.769,33.842,33.842,0,0,1-12.787-4.718,32.952,32.952,0,0,1-2.957-2.075A3.8,3.8,0,0,1,524.49,240a3.742,3.742,0,0,1-.207-2.194,60.736,60.736,0,0,1,1.763-7.831,64.935,64.935,0,0,1,2.623-7.593,26.476,26.476,0,0,1,3.4-5.777c.722-.943,1.481-1.856,2.259-2.755.689-.8,1.376-1.6,2.128-2.344,1.493-1.471,3.557-2.915,5.711-1.957a4.419,4.419,0,0,1,1.361,1,.907.907,0,0,1-1.283,1.283,3.315,3.315,0,0,0-.481-.435,3.059,3.059,0,0,0-.276-.169c-.052-.027-.1-.055-.159-.079.141.064-.03-.009-.061-.018-.106-.032-.21-.059-.318-.082s.029,0,.043,0c-.053-.006-.106-.01-.159-.012-.107-.005-.211,0-.317.005-.04,0-.175.026,0,0-.053.009-.106.019-.158.03-.106.023-.211.052-.315.085-.053.017-.1.037-.157.054-.008,0-.136.053-.048.017s-.065.031-.086.041c-.052.025-.1.05-.154.077-.117.061-.232.126-.345.2-.181.111-.356.233-.526.359-.147.109-.069.054-.038.03l-.146.119c-.1.081-.193.164-.288.248a23.689,23.689,0,0,0-2.04,2.134c-.724.827-1.442,1.658-2.132,2.515-.609.757-1.2,1.55-1.767,2.419a24.487,24.487,0,0,0-1.576,2.784,49.151,49.151,0,0,0-2.541,6.9,73.6,73.6,0,0,0-1.848,7.4c-.115.588-.251,1.213-.323,1.786a3.779,3.779,0,0,0-.021.657,1.644,1.644,0,0,0,.084.31c-.033-.07.065.109.072.119s.116.165.067.1a5.329,5.329,0,0,0,1.124.959q.66.487,1.344.942a32.188,32.188,0,0,0,11.821,4.82,31.363,31.363,0,0,0,6.314.56,29.549,29.549,0,0,0,6.244-.71q.788-.175,1.566-.391l-.666.874q.326-6.05.66-12.1a67.734,67.734,0,0,0,.067-10.606,24.056,24.056,0,0,0-1.063-5.2.907.907,0,1,1,1.749-.483" transform="translate(-502.128 -162.452)" fill="#24221e"/>
  <path id="패스_5446" data-name="패스 5446" d="M540.445,220.978a2.917,2.917,0,0,1,1.338,2.136,3.721,3.721,0,0,1-1.379,3.858c-1.307.766-3.023.079-3.991-1.133a10.929,10.929,0,0,1-1.733-4.354,4.681,4.681,0,0,1-1.762,4.631,4.024,4.024,0,0,1-4.679-.081,6.739,6.739,0,0,1-2.234-4.381,7.984,7.984,0,0,1,.778-5.364" transform="translate(-488.1 -165.85)" fill="#fff"/>
  <path id="패스_5447" data-name="패스 5447" d="M540.054,219.355a4.078,4.078,0,0,1,1.847,3.368,4.861,4.861,0,0,1-1.005,3.437,3.4,3.4,0,0,1-3.352,1.113,4.946,4.946,0,0,1-3.041-2.2,12.823,12.823,0,0,1-1.544-4.188l1.749-.482a5.694,5.694,0,0,1-.9,4.38,4.925,4.925,0,0,1-4.035,2.108,5.061,5.061,0,0,1-4.051-2.145,9.079,9.079,0,0,1-1.527-4.367,8.554,8.554,0,0,1,.963-5.389.907.907,0,1,1,1.566.916,6.4,6.4,0,0,0-.784,3.653,8.632,8.632,0,0,0,.87,3.516,3.458,3.458,0,0,0,2.43,1.956c-.029-.006.284.043.168.029s.2.012.17.011c.13.007.26.008.39,0,.081,0,.162-.009.243-.018.176-.019-.2.049.1-.016.159-.035.317-.069.473-.119a2.877,2.877,0,0,0,1.279-.839,3.892,3.892,0,0,0,.8-1.445,3.269,3.269,0,0,0,.156-.845,4.631,4.631,0,0,0,0-.481c0-.08-.01-.16-.018-.24-.007-.064-.006-.064,0,0-.01-.064-.022-.126-.034-.19a.931.931,0,0,1,.633-1.116.919.919,0,0,1,1.116.634,15.24,15.24,0,0,0,.919,2.974,4.968,4.968,0,0,0,.765,1.2,3.14,3.14,0,0,0,1.026.761c.016.008.158.068.039.021.042.017.086.033.13.048.1.035.2.066.307.091.044.01.357.053.2.042a3.119,3.119,0,0,0,.355.009c.059,0,.118-.006.176-.013-.019,0-.127.021-.023,0s.2-.05.3-.082c.173-.055.068-.029.033-.012.055-.026.109-.056.162-.087s.276-.2.163-.105c.075-.065.144-.135.214-.206.015-.015.131-.148.067-.07s.029-.039.032-.045c.064-.1.126-.192.182-.294.023-.041.148-.317.094-.181a3.908,3.908,0,0,0,.181-.6c.008-.037.06-.357.042-.208.014-.122.023-.244.027-.366s0-.245,0-.367c0-.061-.006-.122-.011-.182,0-.021-.03-.251-.015-.15s-.011-.053-.012-.058c-.018-.08-.033-.162-.052-.242-.035-.146-.08-.287-.127-.43a1.091,1.091,0,0,0-.106-.236,2.717,2.717,0,0,0-.2-.331c.066.092-.025-.03-.035-.04-.053-.057-.107-.113-.165-.166-.075-.068-.015-.018,0,0a1.778,1.778,0,0,0-.239-.145.907.907,0,1,1,.916-1.566" transform="translate(-487.252 -165.011)" fill="#24221e"/>
  <path id="패스_5448" data-name="패스 5448" d="M497.514,146.335a33.367,33.367,0,0,1-9.273.274,16.336,16.336,0,0,1-4.4-1.259,25.842,25.842,0,0,1,49.791,4.377,38.564,38.564,0,0,1-21.2-9.1c-3.951,3.7-9.558,4.971-14.922,5.707" transform="translate(-458.099 -123.436)" fill="#24221e"/>
  <path id="패스_5449" data-name="패스 5449" d="M496.951,146.372a41.507,41.507,0,0,1-7.327.5,19.025,19.025,0,0,1-7.042-1.582.907.907,0,0,1-.417-1.024,26.752,26.752,0,0,1,51.208,2.745q.193.811.332,1.633c.09.519-.234,1.214-.874,1.147a39.191,39.191,0,0,1-21.841-9.363h1.283c-3.22,3-7.451,4.5-11.7,5.343-1.2.239-2.412.43-3.625.6a.938.938,0,0,1-1.116-.633.914.914,0,0,1,.633-1.116,49.519,49.519,0,0,0,6.189-1.194,22.276,22.276,0,0,0,5.628-2.276,14.944,14.944,0,0,0,2.7-2,.932.932,0,0,1,1.283,0,37.577,37.577,0,0,0,15.671,7.988,36.968,36.968,0,0,0,4.887.844l-.875,1.148a25.992,25.992,0,0,0-.766-3.226q-.234-.763-.515-1.51-.139-.371-.291-.739c-.022-.054-.045-.108-.068-.163.057.134,0,0-.012-.026-.059-.134-.118-.269-.178-.4a25.788,25.788,0,0,0-1.516-2.857q-.41-.668-.859-1.31-.225-.32-.459-.634-.1-.139-.209-.277c.087.114,0,0-.018-.022l-.162-.2a26.03,26.03,0,0,0-2.153-2.376q-.559-.545-1.15-1.056-.3-.255-.6-.5c-.09-.073-.18-.145-.271-.217l-.136-.107c.129.1-.066-.05-.092-.07a25.7,25.7,0,0,0-5.5-3.191c.133.056,0,0-.026-.011l-.2-.083q-.184-.075-.369-.146-.392-.152-.789-.289-.755-.263-1.526-.479a25.667,25.667,0,0,0-3.21-.68l-.18-.026c.158.022-.037,0-.075-.009q-.2-.026-.408-.048-.41-.045-.822-.077-.854-.067-1.711-.077a26.166,26.166,0,0,0-3.466.187c-.275.033-.345.043-.689.1q-.415.066-.828.145-.842.162-1.671.379a25.607,25.607,0,0,0-3.169,1.056l-.168.069c-.27.111.082-.036-.076.033l-.374.164q-.372.167-.738.346-.75.366-1.476.781a25.81,25.81,0,0,0-2.737,1.8l-.143.108c-.229.174.069-.055-.064.05q-.159.124-.316.251-.313.254-.619.517-.627.54-1.219,1.12a26,26,0,0,0-2.185,2.427l-.111.141c-.178.226.053-.07-.05.065-.082.107-.162.215-.243.323q-.239.325-.469.657-.473.684-.9,1.4a25.777,25.777,0,0,0-1.512,2.929c-.111.254-.134.309-.258.622-.1.254-.2.51-.29.768l-.417-1.024c4.06,1.819,8.679,1.481,12.971.895a.939.939,0,0,1,1.116.634.913.913,0,0,1-.633,1.115" transform="translate(-457.294 -122.598)" fill="#24221e"/>
  <path id="패스_5450" data-name="패스 5450" d="M489.477,158.117a6.341,6.341,0,0,1,2.48.5c.167-.6.359-1.182.566-1.76a16.337,16.337,0,0,0,4.4,1.26,33.363,33.363,0,0,0,9.273-.274c5.364-.736,10.971-2.007,14.922-5.708a38.563,38.563,0,0,0,21.2,9.1,25.845,25.845,0,0,1-50.85,9.271,6.355,6.355,0,1,1-1.988-12.39" transform="translate(-466.778 -134.946)" fill="#ffe3d4"/>
  <path id="패스_5451" data-name="패스 5451" d="M488.659,156.376a7.292,7.292,0,0,1,2.721.535l-1.115.633c.168-.593.359-1.179.566-1.76a.926.926,0,0,1,1.332-.542c3.844,1.723,8.2,1.5,12.276.986,1.795-.226,3.586-.51,5.352-.907.871-.2,1.736-.421,2.589-.684q.648-.2,1.285-.432c.195-.072.389-.145.583-.221s.381-.153.5-.2a19.857,19.857,0,0,0,2.642-1.38,14.409,14.409,0,0,0,2.266-1.737.931.931,0,0,1,1.283,0,37.572,37.572,0,0,0,15.671,7.988,36.953,36.953,0,0,0,4.887.844.931.931,0,0,1,.874.666,26.751,26.751,0,0,1-52.149,11.684q-.261-.957-.449-1.932l1.116.633a7.261,7.261,0,1,1-2.23-14.171.907.907,0,1,1,0,1.814c-.181,0-.363.008-.544.023-.012,0-.306.033-.115.008-.059.008-.117.018-.175.027a6.291,6.291,0,0,0-1.016.262c-.082.028-.163.059-.244.09-.26.1.149-.078-.1.044-.129.063-.258.124-.384.192q-.225.123-.439.263l-.142.095c-.026.018-.292.219-.158.112a6.386,6.386,0,0,0-.686.633c-.1.1-.188.212-.279.32-.178.208.092-.138-.067.085-.065.093-.132.185-.194.28a7.754,7.754,0,0,0-.455.823c-.012.023-.07.159-.012.02-.033.08-.064.161-.093.242-.064.177-.121.357-.169.539q-.062.234-.106.472c-.016.087-.032.175-.043.263.02-.154,0,0,0,.025a7.923,7.923,0,0,0-.015,1.087,4.1,4.1,0,0,0,.131.811c.041.169.089.337.145.5.018.055.037.109.057.164.011.03.14.342.069.183a6.527,6.527,0,0,0,.444.829c.076.12.158.235.24.351.159.224-.111-.123.067.086.074.086.145.173.222.257a7.544,7.544,0,0,0,.677.642c.133.114.048.039.017.016.067.052.137.1.207.15q.228.158.469.3c.162.092.328.173.495.254.248.122-.16-.055.1.044.081.031.162.062.244.091a6.677,6.677,0,0,0,1.1.276c.281.047-.174-.007.112.012.09.006.18.016.269.021a6.465,6.465,0,0,0,.729,0,5.592,5.592,0,0,0,1.382-.279.913.913,0,0,1,1.116.633,24.581,24.581,0,0,0,2.549,7.173,25.907,25.907,0,0,0,2.053,3.2l.158.209c-.023-.031-.092-.117.019.023.1.125.2.251.3.375q.316.389.647.765.632.721,1.317,1.393.652.641,1.35,1.235.365.312.741.608c-.016-.012.209.164.115.091s.132.1.116.088c.139.106.279.209.42.313a25.866,25.866,0,0,0,3.274,2.026,22.086,22.086,0,0,0,3.358,1.436,25.647,25.647,0,0,0,3.828.981,24.37,24.37,0,0,0,3.791.355q1.007.017,2.013-.041.494-.029.987-.077c.148-.015.3-.031.445-.047l.222-.027c.035,0,.334-.045.156-.02a25.827,25.827,0,0,0,3.737-.806,23.986,23.986,0,0,0,3.376-1.27,25.8,25.8,0,0,0,3.279-1.833,22.055,22.055,0,0,0,2.779-2.133,26.058,26.058,0,0,0,2.6-2.671q.274-.325.536-.658c.007-.009.179-.231.067-.084l.129-.169q.166-.221.328-.445.523-.725,1-1.484a25.8,25.8,0,0,0,1.749-3.331c-.006.014.1-.244.056-.129s.06-.145.054-.13c.054-.133.108-.266.16-.4q.19-.483.359-.973.306-.884.546-1.789a24.224,24.224,0,0,0,.781-8.065,24.726,24.726,0,0,0-.289-2.479l.875.665a39.191,39.191,0,0,1-21.841-9.363h1.283a22.133,22.133,0,0,1-10,4.969,53.785,53.785,0,0,1-5.51,1,41.888,41.888,0,0,1-6.827.49,19.2,19.2,0,0,1-7.355-1.593l1.332-.542c-.207.58-.4,1.166-.566,1.759a.912.912,0,0,1-1.116.633,5.883,5.883,0,0,0-2.239-.47.907.907,0,1,1,0-1.814" transform="translate(-465.96 -134.112)" fill="#24221e"/>
  <path id="패스_5452" data-name="패스 5452" d="M505.507,173.234a1.695,1.695,0,1,0,1.695-1.7,1.695,1.695,0,0,0-1.695,1.7" transform="translate(-444.588 -144.292)" fill="#24221e"/>
  <path id="패스_5453" data-name="패스 5453" d="M534.838,173.234a1.695,1.695,0,1,0,1.695-1.7,1.695,1.695,0,0,0-1.695,1.7" transform="translate(-489.12 -144.292)" fill="#24221e"/>
  <path id="패스_5454" data-name="패스 5454" d="M519.426,176.359c-.2-.088.188.07-.013,0l-.114-.043c-.1-.037-.2-.07-.307-.1a4.258,4.258,0,0,0-.567-.123l.241.033a3.344,3.344,0,0,0-.875,0l.241-.033a3.279,3.279,0,0,0-.545.128l-.122.044c-.136.051-.019-.005.046-.022a1.419,1.419,0,0,0-.291.144.907.907,0,0,1-.915-1.566,4.226,4.226,0,0,1,1.993-.536,5.308,5.308,0,0,1,2.145.519.91.91,0,0,1,.417.542.93.93,0,0,1-.091.7.917.917,0,0,1-.542.417,1.056,1.056,0,0,1-.7-.091" transform="translate(-461.796 -145.609)" fill="#24221e"/>
  <path id="패스_5455" data-name="패스 5455" d="M523.278,185.478c-3.972,8.5-7.547,8.326-9.524-.484a1.118,1.118,0,0,1,1.128-1.356l7.425.242a1.119,1.119,0,0,1,.972,1.6" transform="translate(-463.337 -150.12)" fill="#fff"/>
  <path id="패스_5456" data-name="패스 5456" d="M523.219,185.1a22.9,22.9,0,0,1-2.386,4.139,6.89,6.89,0,0,1-2.457,2.233,2.989,2.989,0,0,1-2.76-.049,5.377,5.377,0,0,1-2.007-2.334,19.161,19.161,0,0,1-1.49-4.341,2.714,2.714,0,0,1-.062-1.386,2.036,2.036,0,0,1,.808-1.112,2.089,2.089,0,0,1,1.278-.352c1.574.04,3.148.1,4.721.154l2.4.078a2.424,2.424,0,0,1,1.215.3,2.05,2.05,0,0,1,.889,1.162,2.175,2.175,0,0,1-.149,1.509.912.912,0,0,1-1.241.325.931.931,0,0,1-.325-1.241c-.075.176,0-.186-.018.047a1.007,1.007,0,0,0,0-.163c.025.25-.073-.142.021.074a1.206,1.206,0,0,0-.077-.138c.1.155-.033-.026-.067-.054.1.078.025,0-.015.006l.066.025a1.158,1.158,0,0,0-.163-.044c-.016,0,.092.015.064.013-.118-.006-.237-.007-.356-.011l-1.938-.063-4.676-.152c-.142,0-.284-.005-.427-.014h-.025c-.09-.007-.138.011-.023-.01a.793.793,0,0,0-.164.047c.193-.084-.111.121.046-.018a.794.794,0,0,0-.115.118c.126-.168-.038.164.032-.042-.013.039-.067.277-.025.091-.047.2-.021-.066.008.081.02.1.045.194.067.291.044.187.09.375.137.561.1.384.2.765.319,1.145.091.3.188.594.293.887q.077.216.16.43l.082.205c.08.2-.037-.077.042.1a9.315,9.315,0,0,0,.741,1.382c.06.089.125.174.187.262-.146-.207.045.049.087.1.1.113.285.371.433.417,0,0-.191-.13-.062-.05.034.021.067.047.1.069.067.044.137.08.206.12a.916.916,0,0,1,.1.05c0-.058-.228-.075-.069-.032.078.021.156.046.235.068.225.063-.212,0,.019.005.074,0,.147.007.22,0a.5.5,0,0,1,.134-.01c-.013-.007-.241.049-.106.012.09-.024.182-.039.272-.067l.092-.031c.23-.072-.122.073.015,0,.084-.047.173-.086.257-.134s.176-.107.26-.166c.048-.034.094-.07.143-.1-.2.137-.031.023.009-.011a8.466,8.466,0,0,0,1.132-1.2c-.119.152.05-.068.06-.081.051-.069.1-.139.152-.209q.157-.221.305-.447c.2-.3.386-.606.567-.916.461-.79.874-1.606,1.262-2.434a.915.915,0,0,1,1.241-.325.928.928,0,0,1,.325,1.241" transform="translate(-462.495 -149.28)" fill="#24221e"/>
  <path id="패스_5457" data-name="패스 5457" d="M487.676,179.669a5.367,5.367,0,1,0,5.367-5.367,5.367,5.367,0,0,0-5.367,5.367" transform="translate(-424.86 -145.623)" fill="#ffb18f"/>
  <path id="패스_5458" data-name="패스 5458" d="M547.922,179.669a5.367,5.367,0,1,0,5.367-5.367,5.367,5.367,0,0,0-5.367,5.367" transform="translate(-516.33 -145.623)" fill="#ffb18f"/>
  <path id="패스_5459" data-name="패스 5459" d="M508.88,231.135a6.166,6.166,0,0,1,4.766-.563,2.024,2.024,0,0,1,1.251,1.107,1.027,1.027,0,0,1-.686,1.323,1.567,1.567,0,0,1,1.586,1.17,1.443,1.443,0,0,1-1.076,1.576,1.557,1.557,0,0,1,1.8.755,1.323,1.323,0,0,1-.694,1.7c.762-.252,1.34.852.911,1.481a3.75,3.75,0,0,1-2.059,1.091,17.489,17.489,0,0,0-3.907,1.955,74.347,74.347,0,0,0-5.166-9.788c1.113-.556,2.147-1.256,3.27-1.8" transform="translate(-452.633 -172.599)" fill="#ffe3d4"/>
  <path id="패스_5460" data-name="패스 5460" d="M507.584,229.5a7.048,7.048,0,0,1,5.511-.636,2.749,2.749,0,0,1,1.894,2,1.938,1.938,0,0,1-1.374,2.165l-.241-1.782a2.479,2.479,0,0,1,2.467,1.878,2.365,2.365,0,0,1-1.716,2.65q-.241-.875-.482-1.749a2.476,2.476,0,0,1,2.828,1.171,2.233,2.233,0,0,1-1.02,2.936l-.7-1.657a1.767,1.767,0,0,1,2.146,1.371,2.119,2.119,0,0,1-1.225,2.352c-.8.429-1.74.6-2.559.964a21.093,21.093,0,0,0-2.718,1.5.921.921,0,0,1-1.332-.542,73.464,73.464,0,0,0-5.074-9.571.915.915,0,0,1,.325-1.241c1.112-.561,2.152-1.252,3.27-1.8a.93.93,0,0,1,1.241.325.916.916,0,0,1-.325,1.241c-1.118.55-2.158,1.241-3.27,1.8l.325-1.241a76.322,76.322,0,0,1,5.257,10.005l-1.332-.542a19.163,19.163,0,0,1,4.4-2.135c.156-.05.314-.1.469-.154a2.07,2.07,0,0,0,.321-.13c.083-.045.164-.091.246-.136l.077-.051c-.049.043-.05.044,0,0s.1-.109.161-.159c-.069.061,0-.06-.011.024-.011.125.01-.06.019-.09-.052.193-.016.039-.022-.039.009.128.027.092-.019,0s.084.136-.008-.009c-.121-.191.127.127-.024-.034-.075-.081-.027-.016.028.018-.118-.074.09.016.152.021-.182-.013.17-.055-.035,0a.908.908,0,0,1-.7-1.658,1.474,1.474,0,0,0,.192-.108c.065-.045-.034.092.047-.053.028-.051.065-.1.015-.017.011-.019.108-.215.068-.116s.03-.132.03-.13c-.02.09-.026.073-.006-.005,0-.027,0-.055,0-.082.016.091.016.1,0,.037a.611.611,0,0,0-.022-.08c-.021-.062-.017-.053.011.027,0-.036-.072-.116,0-.018a1.079,1.079,0,0,0-.145-.147c-.1-.09.162.1-.054-.03-.055-.032-.1-.058-.014-.02a1.352,1.352,0,0,0-.206-.064c-.044-.011-.216-.018-.057-.013-.058,0-.115,0-.173,0,.169,0-.059.017-.1.027a.907.907,0,0,1-.482-1.749l.088-.026c-.062.03-.065.031-.009,0a1.215,1.215,0,0,0,.153-.092c.052-.035.049-.033-.009.005l.063-.061c.035-.044.078-.1.024-.019,0,0,.12-.205.079-.118s.039-.131.039-.132c.033-.106.04-.055,0-.009v-.084c.017.087.019.1,0,.032,0-.018-.054-.175-.021-.093s-.073-.117-.074-.119c.084.123-.177-.153-.134-.122a.624.624,0,0,0-.171-.086c-.059-.017-.117-.034-.177-.047.154.032-.1,0-.125,0a.911.911,0,0,1-.241-1.781c.11-.031.065.017.013,0,.078-.05.091-.056.038-.021s-.04.028,0-.007c.086-.1-.094.09,0-.005.031-.057.029-.045-.007.038l.024-.075s.011-.149.007.007a1.139,1.139,0,0,0,0-.158c.023.2-.042-.005-.007.034s-.049-.077-.06-.094c-.034-.051-.033-.052,0,0l-.064-.069c-.047-.042-.09-.089-.14-.129.071.057-.032-.018-.052-.03-.071-.042-.14-.085-.214-.123a1.274,1.274,0,0,0-.3-.122,3.976,3.976,0,0,0-.472-.12,5.875,5.875,0,0,0-3.391.663.931.931,0,0,1-1.241-.325.915.915,0,0,1,.325-1.241" transform="translate(-451.794 -171.751)" fill="#24221e"/>
  <path id="패스_5461" data-name="패스 5461" d="M517.545,225.006c.494-3.018,3.09-8.266,7.3-5.83a7.647,7.647,0,0,1,1.673,1.452c1.879,1.984,3.174,4.9,5.619,6.279a10.119,10.119,0,0,0,8.323.826,10.7,10.7,0,0,0,1.032-.456,74.45,74.45,0,0,1,5.166,9.788,29.69,29.69,0,0,1-5.757,3.228,16.277,16.277,0,0,1-5.461.814,20.527,20.527,0,0,1-13.458-4.68,12.8,12.8,0,0,1-4.44-11.42" transform="translate(-488.519 -166.939)" fill="#fff"/>
  <path id="패스_5462" data-name="패스 5462" d="M515.783,223.934c.54-3.223,2.877-7.609,6.735-7.064,2.4.339,4.046,2.474,5.383,4.306a30.6,30.6,0,0,0,1.974,2.576,7.344,7.344,0,0,0,2.583,1.923,8.942,8.942,0,0,0,7.693-.013.929.929,0,0,1,1.241.325,76.455,76.455,0,0,1,5.257,10.005.912.912,0,0,1-.417,1.024c-2.43,1.536-4.779,3.187-7.647,3.783a22.245,22.245,0,0,1-8.559-.051c-5.125-.962-10.125-3.754-12.707-8.424a13.069,13.069,0,0,1-1.537-8.391.913.913,0,0,1,1.116-.633.929.929,0,0,1,.633,1.116,10.885,10.885,0,0,0-.109,1.6,10.63,10.63,0,0,0,.131,1.593,12.2,12.2,0,0,0,.418,1.7,10.352,10.352,0,0,0,.609,1.513,13.607,13.607,0,0,0,4.528,5.2,18.637,18.637,0,0,0,6.61,2.813,21.124,21.124,0,0,0,7.5.371,12.854,12.854,0,0,0,4.275-1.392c1.326-.7,2.561-1.564,3.828-2.365l-.417,1.024a73.482,73.482,0,0,0-5.074-9.571l1.241.325a10.491,10.491,0,0,1-3.824,1.1,11.022,11.022,0,0,1-3.788-.373,10.167,10.167,0,0,1-3.329-1.528,12.543,12.543,0,0,1-2.471-2.534c-.335-.436-.657-.882-.978-1.327q-.226-.314-.455-.626c-.085-.116-.171-.231-.258-.346s-.068-.093-.178-.231a8.5,8.5,0,0,0-2.482-2.342c-.116-.061-.235-.121-.356-.172.16.067-.135-.045-.169-.056a3.89,3.89,0,0,0-.669-.16c.206.03-.047,0-.117,0-.092,0-.185,0-.278,0s-.306.034-.1,0c-.11.018-.219.038-.328.066q-.129.033-.255.076c-.074.025-.274.118-.092.03a4.95,4.95,0,0,0-.528.288c-.041.027-.275.192-.185.125s-.123.1-.149.124a5.763,5.763,0,0,0-.453.44q-.109.118-.212.242c-.031.037-.061.075-.091.111-.133.16.075-.109-.036.047-.143.2-.283.4-.411.611a11.48,11.48,0,0,0-.65,1.251c-.016.036-.067.161.005-.014-.028.067-.055.135-.082.2-.04.1-.078.2-.115.3q-.114.314-.21.634a10.334,10.334,0,0,0-.293,1.25.914.914,0,0,1-1.116.633.928.928,0,0,1-.633-1.116" transform="translate(-487.631 -166.107)" fill="#24221e"/>
  <path id="패스_5463" data-name="패스 5463" d="M495.895,248.444a7.647,7.647,0,0,0-4.957-5.49c-1.694-.641-4.545-1.14-4.462,1.523a1.662,1.662,0,0,0,1.456,1.585,3.53,3.53,0,0,0-1.005,1.526,1.214,1.214,0,0,0,.754,1.481c.332.073.749-.023.959.243a1.362,1.362,0,0,0,1.181,2.453A2.675,2.675,0,0,0,492.43,254a3.552,3.552,0,0,0,3.034-1.9,5.37,5.37,0,0,0,.43-3.658" transform="translate(-421.858 -178.45)" fill="#ffe3d4"/>
  <path id="패스_5464" data-name="패스 5464" d="M494.223,247.84a6.13,6.13,0,0,0-.5-1.473,7.112,7.112,0,0,0-.39-.68c-.075-.116-.155-.229-.235-.341-.01-.014-.1-.135-.025-.036-.057-.072-.116-.143-.175-.212a7.067,7.067,0,0,0-2.485-1.891l-.17-.08c-.029-.013-.21-.093-.084-.04-.105-.045-.212-.086-.319-.125q-.267-.1-.538-.181-.288-.087-.58-.153c-.088-.02-.176-.038-.265-.055-.068-.013-.413-.051-.158-.029-.186-.016-.371-.036-.558-.037-.1,0-.19.006-.286.009-.041,0-.083.011-.124.011.227,0,.079-.015,0,0s-.153.034-.228.057c-.036.011-.073.026-.109.036-.178.049.124-.084.035-.015a1,1,0,0,1-.192.11c-.1.036.15-.153.031-.025-.031.033-.066.066-.1.1-.054.049-.095.154.016-.031-.025.041-.054.081-.078.123s-.046.089-.069.134c.049-.1.043-.127.013-.008-.014.054-.032.108-.044.164-.006.026-.036.224-.02.094.019-.149,0,.11,0,.111,0,.07,0,.14,0,.21a.852.852,0,0,0,.192.491c-.072-.086.131.121.115.106-.088-.079.027.019.069.045s.2.09.065.041c.037.013.279.056.11.039a.92.92,0,0,1,.642,1.549,3.919,3.919,0,0,0-.684.869c-.066.121-.028.015-.062.159-.006.024-.045.255-.035.138.014-.163.021.245,0,.085-.012-.106.036.13.044.159.021.062.017.052-.014-.03l.038.07q.086.131,0,0l.054.055c-.075-.053-.085-.062-.03-.027s.043.028-.041-.011c.089.02.1.025.042.017s-.046-.006.054,0a1.836,1.836,0,0,1,1.34.478.917.917,0,0,1-.183,1.424c-.006,0-.183.13-.114.069s-.073.086-.086.1c.079-.1.006,0-.019.058-.056.121.031-.183-.02.053-.011.054-.029.107-.039.162.03-.174.008.007.01.049,0,.067,0,.055-.012-.036l.017.081.023.08c-.037-.075-.04-.083-.01-.025.012.037.123.175.022.056a1.376,1.376,0,0,0,.117.117c-.125-.113.268.108.1.056.022.007.239.063.123.041s.124,0,.127,0c.086.006.094-.018.005,0a1.707,1.707,0,0,0,.237-.076.855.855,0,0,1,.791.162.95.95,0,0,1,.358.712c-.021-.165.038.124.048.159s.027.086.043.128c-.03-.064-.03-.068,0-.01.047.1.1.183.157.273.086.145-.048-.029.078.1a1.831,1.831,0,0,0,.771.558c-.131-.055.14.041.172.05a2.656,2.656,0,0,0,.268.062c.065.011.06.01-.014,0,.061.005.122.008.183.009a2.814,2.814,0,0,0,.288-.011c-.149.013.13-.024.136-.025q.14-.03.276-.074s.27-.1.14-.045a2.852,2.852,0,0,0,.3-.153,2.909,2.909,0,0,0,1.311-1.58,4.825,4.825,0,0,0,.14-2.522.93.93,0,0,1,.633-1.116.916.916,0,0,1,1.116.634c.472,2.362-.173,5.176-2.54,6.283a3.851,3.851,0,0,1-3.407.017,3.478,3.478,0,0,1-1.909-2.738l1.148.875a2.266,2.266,0,0,1-1.879-4.11q-.092.712-.184,1.424a.758.758,0,0,0,.132.068c-.1-.022-.108-.023-.011,0-.118-.01-.236-.013-.353-.026a1.911,1.911,0,0,1-.828-.26,2.064,2.064,0,0,1-.889-1.294,3.373,3.373,0,0,1,1.242-3.017l.642,1.548a2.552,2.552,0,0,1-2.033-1.3,3.02,3.02,0,0,1-.233-2.167,2.631,2.631,0,0,1,2.465-1.944,6.8,6.8,0,0,1,2.877.458,9.634,9.634,0,0,1,3.469,2.109,8.063,8.063,0,0,1,2.292,4.077.928.928,0,0,1-.633,1.115.916.916,0,0,1-1.116-.633" transform="translate(-421.061 -177.605)" fill="#24221e"/>
</svg>
