<svg xmlns="http://www.w3.org/2000/svg" width="84.851" height="145.431" viewBox="0 0 84.851 145.431">
  <g id="img_" transform="translate(-543.607 -739.114)">
    <path id="패스_5023" data-name="패스 5023" d="M600.131,906.364a37.145,37.145,0,0,0,4.5,34.521c2.07,2.942,4.673,5.968,4.434,9.428,1.87.114,2.794.261,3.782-1.374l5.883-9.737a3.209,3.209,0,0,0,.591-1.5,3.627,3.627,0,0,0-.62-1.721c-2.5-4.669-1.953-10.146-.809-15.213s2.839-10.137,2.466-15.294" transform="translate(-21.768 -66.874)" fill="#5b5b5b"/>
    <path id="패스_5024" data-name="패스 5024" d="M598.42,905.382a37.28,37.28,0,0,0-2.092,18.038,38.894,38.894,0,0,0,6.692,17.289c1.013,1.441,2.107,2.832,2.991,4.359a8,8,0,0,1,1.3,4.541,1.065,1.065,0,0,0,1.047,1.047,5.182,5.182,0,0,0,3.474-.523,5.606,5.606,0,0,0,1.442-1.749l1.452-2.4,2.9-4.806c.477-.789.967-1.572,1.43-2.369a3.311,3.311,0,0,0,.465-2.723c-.267-.84-.793-1.578-1.133-2.39a14.734,14.734,0,0,1-.692-2.175,17.716,17.716,0,0,1-.419-4.663A46.693,46.693,0,0,1,619,916.993c.991-3.991,1.98-8.08,1.7-12.224a1.072,1.072,0,0,0-1.047-1.047,1.055,1.055,0,0,0-1.047,1.047c.475,6.915-2.623,13.416-3.3,20.216a19.518,19.518,0,0,0,1.12,9.4c.167.4.343.8.542,1.191a8.229,8.229,0,0,1,.535,1.067.751.751,0,0,1-.019.67,8.106,8.106,0,0,1-.6,1.039l-2.827,4.679-1.566,2.592c-.491.813-.943,1.674-1.5,2.446.1-.145-.013.016-.044.05-.059.065-.116.129-.179.19-.039.038-.085.071-.122.109s.158-.084-.037.017c-.053.028-.109.059-.16.09-.165.1.188-.031-.017,0-.117.02-.239.06-.356.087.267-.062-.087,0-.19.008-.143.005-.286,0-.43,0-.37-.01-.739-.038-1.107-.06l1.047,1.046c.194-3.232-1.746-6.033-3.55-8.528a43.522,43.522,0,0,1-4.714-7.966,36.346,36.346,0,0,1-2.925-17.423,32.929,32.929,0,0,1,.734-4.831,36.031,36.031,0,0,1,1.489-4.923,1.055,1.055,0,0,0-.731-1.287,1.07,1.07,0,0,0-1.287.731" transform="translate(-21.067 -66.171)" fill="#24221e"/>
    <path id="패스_5025" data-name="패스 5025" d="M588.194,904.848a31.507,31.507,0,0,0-20.155,2.884c-5.519,2.864-11.026,5.121-14.818,9.989a21.666,21.666,0,0,0-4.213,17.855,2.739,2.739,0,0,1,.047,1.607c-.631,1.565-3.982,1.787-3.662,3.424,1.075.848,2.711.688,4.131.477l13.3-1.979a3.318,3.318,0,0,0,1.512-.482,2.628,2.628,0,0,0,.815-1.674c.949-4.491,2.555-9.177,6.462-12.158,3.314-2.528,7.844-3.48,11.284-5.871" transform="translate(-0.71 -66.402)" fill="#5b5b5b"/>
    <path id="패스_5026" data-name="패스 5026" d="M587.762,903.143a32.849,32.849,0,0,0-12.338.013,31.227,31.227,0,0,0-5.724,1.662c-1.881.749-3.659,1.71-5.465,2.619a46.1,46.1,0,0,0-9.69,5.947,22.784,22.784,0,0,0-6.484,9.641,22.363,22.363,0,0,0-.914,11.421c.069.379.2.895.244,1.185a1.5,1.5,0,0,1,.012.374c.019-.148-.08.254.013.018-.016.041-.048.078-.062.12s-.047.077-.072.114q.145-.179.038-.049c-.1.1-.211.2-.309.3.188-.19-.08.051-.156.1-.268.172-.55.32-.833.466-1.171.6-2.732,1.466-2.357,3.057.248,1.049,1.824,1.364,2.73,1.453a11.727,11.727,0,0,0,2.847-.2l6.946-1.033,3.4-.507c1.117-.166,2.262-.278,3.367-.513a2.988,2.988,0,0,0,2.318-2.074c.268-.8.382-1.659.589-2.475.862-3.385,2.172-6.613,4.707-9.019a11.85,11.85,0,0,1,2.048-1.566,24.131,24.131,0,0,1,2.564-1.356c1.706-.792,3.464-1.468,5.146-2.31a19.866,19.866,0,0,0,2.393-1.4,1.073,1.073,0,0,0,.375-1.432,1.055,1.055,0,0,0-1.432-.375c-2.523,1.738-5.468,2.679-8.2,4.02a18.286,18.286,0,0,0-3.852,2.463,15.188,15.188,0,0,0-2.9,3.386,25.222,25.222,0,0,0-3.1,8.017c-.074.324-.14.649-.213.974-.04.173-.09.341-.138.512-.007.023-.074.185-.01.045a1.744,1.744,0,0,1-.153.274c.1-.147-.2.159-.087.081a.954.954,0,0,1-.423.17,11.962,11.962,0,0,1-1.259.215l-5.542.825-6.207.924a17.327,17.327,0,0,1-2.433.283,4.291,4.291,0,0,1-1.014-.074c-.07-.016-.141-.034-.211-.054-.014,0-.31-.107-.153-.042a2.48,2.48,0,0,1-.548-.33l.481.625c.025.151,0,.17.016.028.022-.178-.063.243.007.023.019-.062-.108.222-.013.043s-.149.133.014-.025c.045-.043.09-.088.135-.132.144-.139-.056.026,0,0,.146-.08.282-.187.427-.27a20.613,20.613,0,0,0,1.822-1.017,2.891,2.891,0,0,0,1.4-2.464,11.926,11.926,0,0,0-.309-1.809c-.1-.536-.157-.916-.206-1.4a20.626,20.626,0,0,1,2.538-12.195,20.075,20.075,0,0,1,3.925-5.031,27.4,27.4,0,0,1,5.032-3.6c1.878-1.086,3.827-2.041,5.762-3.018a40.932,40.932,0,0,1,6-2.643,30.508,30.508,0,0,1,13.458-1.216c.417.057,1.023.16,1.508.253a1.075,1.075,0,0,0,1.287-.731,1.056,1.056,0,0,0-.731-1.288" transform="translate(0 -65.705)" fill="#24221e"/>
    <path id="패스_5027" data-name="패스 5027" d="M621.267,842.487l7.492,14.795c8.751-3.569,15.27-10.933,21.4-18.149a63.721,63.721,0,0,0-7.227-14.059,57.686,57.686,0,0,1-21.67,17.414" transform="translate(-31.218 -34.555)" fill="#fff"/>
    <path id="패스_5028" data-name="패스 5028" d="M619.664,842.324l2.534,5,4.036,7.97.923,1.822a1.048,1.048,0,0,0,1.182.481,44.013,44.013,0,0,0,14.026-9.766c2.02-2,3.924-4.107,5.783-6.252q.711-.82,1.415-1.647c.213-.251.434-.5.642-.753.448-.552.259-1.064.047-1.659-.539-1.513-1.165-3-1.85-4.45a79.084,79.084,0,0,0-5.261-9.218,1.064,1.064,0,0,0-1.807,0,57.1,57.1,0,0,1-15.881,14.184,56.084,56.084,0,0,1-5.413,2.854,1.055,1.055,0,0,0-.376,1.432,1.072,1.072,0,0,0,1.432.376,58.253,58.253,0,0,0,17.96-12.958,61.417,61.417,0,0,0,4.084-4.831h-1.807a63.014,63.014,0,0,1,7.122,13.809l.269-1.018c-4.7,5.524-9.588,11.17-15.68,15.094a33.607,33.607,0,0,1-5.262,2.786l1.182.481-2.534-5-4.037-7.969-.922-1.822a1.047,1.047,0,1,0-1.807,1.057" transform="translate(-30.52 -33.862)" fill="#24221e"/>
    <path id="패스_5029" data-name="패스 5029" d="M673.177,819.293c-.21-1.662-1-2.749-2.782-1.771a2,2,0,0,0-1.741-3.6,2.04,2.04,0,1,0-1.788-3.665,7.664,7.664,0,0,0,.424-6.334,1.714,1.714,0,0,0-.472-.749c-.925-.743-2.087.573-2.568,1.657a56.585,56.585,0,0,1-6.747,11.35,63.765,63.765,0,0,1,7.227,14.059l.481-.565c1.924-2.268,8.37-7.2,7.966-10.386" transform="translate(-45.785 -25.666)" fill="#ffe3d4"/>
    <path id="패스_5030" data-name="패스 5030" d="M673.479,818.313a3.529,3.529,0,0,0-1.309-2.522,2.87,2.87,0,0,0-3.01.126l1.057,1.807a3.044,3.044,0,0,0-2.548-5.508l.806,1.912a3.084,3.084,0,1,0-2.844-5.472l1.432,1.432a8.715,8.715,0,0,0,1-5.129,6.906,6.906,0,0,0-.764-2.67,2.066,2.066,0,0,0-2.353-.991c-1.683.507-2.3,2.362-2.985,3.779q-1.168,2.435-2.57,4.748a58.377,58.377,0,0,1-3.5,5.13,1.017,1.017,0,0,0,0,1.057,63.066,63.066,0,0,1,7.122,13.809,1.056,1.056,0,0,0,1.749.462c1.239-1.456,2.652-2.727,4.014-4.066a21.824,21.824,0,0,0,3.985-4.776,4.958,4.958,0,0,0,.755-2.848,1.077,1.077,0,0,0-1.046-1.047,1.054,1.054,0,0,0-1.047,1.047,3.164,3.164,0,0,1,.012.482c-.01.259.035-.1,0,.034-.023.083-.034.171-.056.255-.046.179-.11.35-.172.524-.02.058-.088.163.021-.049-.023.044-.04.091-.062.135-.044.092-.089.183-.136.272a9.958,9.958,0,0,1-.7,1.116c-.068.1-.137.19-.207.284l-.108.142c.12-.156.021-.028,0,0-.164.2-.329.407-.5.607-1.3,1.519-2.775,2.875-4.211,4.26-.712.687-1.381,1.393-2.022,2.148l1.75.461a65.177,65.177,0,0,0-7.333-14.309v1.057a57.6,57.6,0,0,0,5.19-8.128q.548-1.047,1.052-2.116a11.587,11.587,0,0,1,.98-1.926c-.08.111.025-.031.036-.044.047-.054.093-.108.142-.159s.124-.121.187-.181c.122-.116-.112.071.021-.021.065-.045.132-.083.2-.123-.084.05-.127-.012,0,0,.051.007.187.021-.032-.008.1,0,.109,0,.025-.01s-.077-.011.023.013l-.045-.018c-.072-.032-.061-.022.034.03-.037.016-.061-.053-.075-.072a2.008,2.008,0,0,1,.113.193c.164.3-.024-.078.051.118a6.969,6.969,0,0,1,.309,1.066,6.652,6.652,0,0,1-.649,4.4,1.056,1.056,0,0,0,1.432,1.432c-.191.091.149-.041.195-.054.223-.065-.136-.025.1-.008.053,0,.42.054.194,0,.093.021.184.048.276.072.114.042.12.043.014,0,.057.028.113.057.168.09s.246.191.1.057c.029.026.236.244.176.168s.1.176.121.213c-.092-.187.007.062.023.106.024.123.027.123.011,0,.006.063.009.126.009.189,0,.035-.034.324.005.1a2.525,2.525,0,0,1-.1.368c.065-.192-.035.066-.052.1-.031.055-.064.109-.1.161.07-.084.066-.08-.012.011a2.441,2.441,0,0,1-.2.2c.165-.13-.149.069-.188.089a1.048,1.048,0,0,0,.806,1.913,2.36,2.36,0,0,1,.325-.1c.076-.015.063-.014-.038,0a1.347,1.347,0,0,1,.145-.006c.049,0,.1,0,.146,0q-.175-.032.012,0c.1.024.189.047.282.078-.183-.06.078.041.106.057s.256.183.107.059a1.855,1.855,0,0,1,.208.2c-.126-.143.06.105.083.149q.049.1-.008-.026a2.014,2.014,0,0,1,.075.282c-.014-.118-.016-.115-.007.011,0,.1,0,.194-.011.291.025-.188-.022.047-.039.1-.01.033-.128.28-.038.113a2.6,2.6,0,0,1-.149.251c.111-.161-.059.051-.087.084-.092.08-.1.087-.012.021a1.725,1.725,0,0,1-.166.1,1.047,1.047,0,1,0,1.057,1.807c-.01,0,.305-.154.167-.094.063-.027.129-.049.194-.07.09-.029.181-.049.273-.07-.131.029-.106.014.014.007.149-.008.112.014-.012-.017a1.05,1.05,0,0,0,.173.045c.112,0-.186-.094-.029,0s-.087-.149.011,0c.017.026.169.176.064.056s.03.048.049.079c.034.056.062.117.1.175.059.1-.052-.169.01.02a5.619,5.619,0,0,1,.234,1.016,1.053,1.053,0,0,0,1.288.731,1.075,1.075,0,0,0,.731-1.288" transform="translate(-45.078 -24.964)" fill="#24221e"/>
    <path id="패스_5031" data-name="패스 5031" d="M610.341,780.689a31.131,31.131,0,1,1-31.131-31.131,31.132,31.132,0,0,1,31.131,31.131" transform="translate(-1.798 -4.198)" fill="#ffe3d4"/>
    <path id="패스_5032" data-name="패스 5032" d="M608.591,779.986q0,1.258-.1,2.512-.046.568-.111,1.134c-.012.1-.025.2-.038.307a.718.718,0,0,1-.017.13c-.032.22-.064.44-.1.659a30.972,30.972,0,0,1-1.134,4.668q-.357,1.092-.795,2.155c-.005.013-.133.315-.048.117-.039.091-.078.182-.118.274q-.1.227-.2.453-.268.586-.56,1.16a31.166,31.166,0,0,1-2.4,3.956c-.486.682-.739,1.009-1.274,1.652q-.753.9-1.572,1.749-.784.809-1.625,1.56-.421.376-.854.736-.208.172-.418.341l-.23.183-.154.121q.123-.1-.022.016a32.388,32.388,0,0,1-3.873,2.519q-1,.547-2.033,1.022c-.18.083-.362.163-.544.242-.012.005-.314.134-.116.051l-.276.114q-.554.226-1.116.431a30.881,30.881,0,0,1-4.559,1.271q-.551.109-1.106.2c-.2.033-.405.063-.609.092a.782.782,0,0,1-.13.017l-.307.038q-1.24.144-2.488.19a31.563,31.563,0,0,1-4.9-.2c-.316-.038-.5-.063-.943-.134q-.63-.1-1.255-.228-1.165-.237-2.311-.561t-2.286-.748q-.514-.19-1.021-.4c-.013-.005-.315-.133-.117-.048l-.183-.079q-.318-.139-.634-.284a31.081,31.081,0,0,1-4.053-2.25q-.451-.3-.893-.61c-.16-.113-.319-.229-.477-.344l-.236-.176c-.029-.021-.335-.255-.178-.134q-.892-.69-1.729-1.445a31.223,31.223,0,0,1-3.187-3.319,29.963,29.963,0,0,1-2.558-3.633q-.61-1.016-1.141-2.076-.244-.487-.471-.983-.124-.271-.242-.544c.007.017-.121-.282-.065-.149.033.078-.085-.2-.1-.242a30.943,30.943,0,0,1-1.441-4.486q-.284-1.189-.474-2.4c-.029-.185-.057-.372-.083-.558s.03.249-.01-.079c-.013-.1-.026-.2-.038-.307q-.072-.618-.119-1.237a31.507,31.507,0,0,1,.008-4.92,27.9,27.9,0,0,1,.751-4.623,31.521,31.521,0,0,1,1.481-4.522c.011-.028.078-.185.01-.025.039-.091.078-.182.118-.273q.119-.273.245-.543.248-.54.518-1.07.537-1.056,1.154-2.068.589-.966,1.245-1.887.314-.439.642-.868c-.129.168.069-.087.077-.1l.183-.231q.215-.267.435-.53a31.29,31.29,0,0,1,3.207-3.3q.4-.358.818-.7.227-.187.457-.371l.154-.122.155-.121q-.124.1.021-.016c.629-.472,1.268-.928,1.927-1.356a30.983,30.983,0,0,1,4.069-2.226c.66-.3,1.171-.509,1.961-.8q1.132-.411,2.293-.733,1.123-.312,2.266-.538.6-.119,1.207-.214c.169-.027.338-.051.508-.075a.718.718,0,0,1,.129-.017l.41-.049a31.536,31.536,0,0,1,4.91-.17q1.193.051,2.38.194l.307.038c-.22-.028.115.016.129.018.2.029.406.06.608.093q.6.1,1.2.222a30.943,30.943,0,0,1,4.547,1.3q.515.191,1.021.4c.013.005.315.133.117.048l.273.118q.3.129.589.265,1.054.488,2.07,1.055,1.032.575,2.019,1.228.45.3.891.612c.147.1.292.21.437.318l.2.146c.028.021.335.255.178.134a31.086,31.086,0,0,1,3.417,3.082q.814.85,1.561,1.759c.1.126.207.253.309.381l.182.231a.749.749,0,0,1,.076.1c.236.314.47.63.7.951a31.2,31.2,0,0,1,2.374,3.972q.266.532.512,1.073.1.226.2.454c.005.013.134.314.05.115q.077.184.152.368.43,1.066.781,2.161a30.956,30.956,0,0,1,1.1,4.629c.032.2.062.405.09.609-.03-.221.014.116.016.13.013.1.024.205.036.307q.064.566.108,1.134.092,1.2.091,2.408a1.047,1.047,0,0,0,2.093,0,32.232,32.232,0,0,0-5.908-18.58,32.177,32.177,0,0,0-58.355,16.171,32.159,32.159,0,0,0,18.8,31.719,32.556,32.556,0,0,0,19.736,2.217,32.183,32.183,0,0,0,25.325-26.483,33.608,33.608,0,0,0,.4-5.045,1.047,1.047,0,0,0-2.093,0" transform="translate(-1.094 -3.496)" fill="#24221e"/>
    <path id="패스_5033" data-name="패스 5033" d="M570.921,796.751a2.041,2.041,0,1,1-2.311-1.73,2.042,2.042,0,0,1,2.311,1.73" transform="translate(-9.347 -22.465)" fill="#24221e"/>
    <path id="패스_5034" data-name="패스 5034" d="M554.182,802.421a3.552,3.552,0,0,1,.3-.272l-.212.163a2.135,2.135,0,0,1,.453-.271l-.25.106a1.5,1.5,0,0,1,.363-.1l-.278.038a1.4,1.4,0,0,1,.335,0l-.278-.038a1.65,1.65,0,0,1,.373.1l-.25-.105a2.345,2.345,0,0,1,.414.233,1.047,1.047,0,0,0,1.538-1.182,1.177,1.177,0,0,0-.481-.626,2.948,2.948,0,0,0-.835-.4,2.5,2.5,0,0,0-1.094-.047,2.359,2.359,0,0,0-.794.292,3.753,3.753,0,0,0-.788.618,1.08,1.08,0,0,0-.306.74,1.063,1.063,0,0,0,.306.74,1.053,1.053,0,0,0,.74.307,1.091,1.091,0,0,0,.74-.307" transform="translate(-3.533 -24.472)" fill="#24221e"/>
    <path id="패스_5035" data-name="패스 5035" d="M591.975,805.123a6.464,6.464,0,1,1-7.319-5.478,6.464,6.464,0,0,1,7.319,5.478" transform="translate(-14.273 -24.306)" fill="#ffb18f"/>
    <path id="패스_5036" data-name="패스 5036" d="M560.007,818.778c-1.28-.693-2.072-2.478-3.025-3.616a6.6,6.6,0,0,1-1.711-3.253,52.79,52.79,0,0,1,9.367-3.048c.649-.163,1.446-.279,1.891.221a1.773,1.773,0,0,1,.325.67,9.673,9.673,0,0,1,.112,6.4,5.031,5.031,0,0,1-5.064,3.314,5.827,5.827,0,0,1-1.9-.69" transform="translate(-4.689 -27.982)" fill="#fff"/>
    <path id="패스_5037" data-name="패스 5037" d="M559.845,817.182c-.071-.04-.14-.082-.209-.125-.015-.01-.169-.121-.094-.063s-.13-.115-.125-.111c-.051-.046-.1-.093-.148-.142-.111-.111-.217-.227-.319-.347-.047-.055-.091-.109-.136-.166s-.045-.056,0,0l-.065-.087c-.386-.533-.734-1.09-1.115-1.627-.834-1.177-1.831-2.121-2.041-3.575l-.481,1.182a36.655,36.655,0,0,1,4.948-1.816c.89-.267,1.786-.513,2.685-.747q.614-.161,1.228-.315c.19-.048.382-.091.572-.136a1.52,1.52,0,0,1,.427-.028c.158,0-.176-.086.08.014.238.091.04.019.026.008-.138-.108.016.065,0,.022s-.027-.171.039.1c.112.452.267.892.369,1.349a9.478,9.478,0,0,1,.234,2.51,5.7,5.7,0,0,1-.141,1.094c-.049.215-.107.428-.176.636-.027.084-.058.167-.088.251-.056.141-.065.165-.027.075-.022.05-.045.1-.069.149a4.718,4.718,0,0,1-1.275,1.642,5.74,5.74,0,0,1-.875.548c-.178.1-.091.045-.044.024a3.679,3.679,0,0,1-.352.125,4.027,4.027,0,0,1-.568.133c.178-.028-.047,0-.091,0q-.187.013-.373.007a1.588,1.588,0,0,1-.417-.049,6.075,6.075,0,0,1-1.38-.536,1.07,1.07,0,0,0-1.432.376,1.058,1.058,0,0,0,.376,1.432,6.156,6.156,0,0,0,3.173.867,5.527,5.527,0,0,0,2.635-.838,6.863,6.863,0,0,0,3.077-4.677,10.709,10.709,0,0,0,.01-3.337,13.376,13.376,0,0,0-.289-1.45,5.394,5.394,0,0,0-.575-1.595,2.644,2.644,0,0,0-2.993-.838c-1.011.228-2.015.508-3.013.786a43.84,43.84,0,0,0-6.76,2.4,1.07,1.07,0,0,0-.481,1.182,5.936,5.936,0,0,0,.95,2.354c.243.372.516.725.794,1.072.12.15.246.294.364.445-.089-.114.021.032.053.076.052.071.1.144.153.215.839,1.2,1.584,2.589,2.9,3.333a1.047,1.047,0,0,0,1.057-1.807" transform="translate(-3.999 -27.289)" fill="#24221e"/>
    <path id="패스_5038" data-name="패스 5038" d="M602.606,790.9c2.732.833,4.98.161,6.482-2.191,3.578-5.6,5.892-12.077,5.584-18.6a21.29,21.29,0,0,0-9.112-16.766c-5.008-3.3-7.84-8.12-13.74-10.506a26.285,26.285,0,0,0-17.916-.744c-4.219,1.4-8.344,3.936-12.762,3.367-2.659-.342-5.115-1.807-7.8-1.737-3.542.093-6.664,3.326-6.447,6.678s3.728,6.159,7.253,5.8c-2.442.1-3.682,3.245-2.623,5.326s3.483,3.182,5.811,3.87c5.223,1.543,11.625,1.512,15.426-2.258a10.246,10.246,0,0,0,7.809,4.2,4.736,4.736,0,0,1,2.16.366,3.538,3.538,0,0,1,1.079,1.16c3.807,5.609,8.626,10.9,12.125,16.639,1.812,2.231,3.84,4.532,6.67,5.395" transform="translate(-1.318 -0.703)" fill="#24221e"/>
    <path id="패스_5039" data-name="패스 5039" d="M601.638,791.206a6.685,6.685,0,0,0,5.615-.542,7.2,7.2,0,0,0,2.085-2.186q.95-1.484,1.766-3.049a33.18,33.18,0,0,0,3.912-13.418,24.156,24.156,0,0,0-2.48-12.164,21.7,21.7,0,0,0-3.473-5.014,19.169,19.169,0,0,0-2.185-2.018c-.847-.667-1.758-1.237-2.62-1.881a52.669,52.669,0,0,1-4.254-3.76,41.366,41.366,0,0,0-4.575-3.873,25.08,25.08,0,0,0-12.785-4.137,26.647,26.647,0,0,0-7.033.5,38.026,38.026,0,0,0-6.53,2.2c-1.072.433-2.148.859-3.251,1.206a15.316,15.316,0,0,1-3.086.676,9.694,9.694,0,0,1-3.159-.211c-1.119-.263-2.2-.657-3.3-.981a12.316,12.316,0,0,0-3.434-.583,7.638,7.638,0,0,0-3.11.69,7.981,7.981,0,0,0-4.051,4.141,6.525,6.525,0,0,0,.319,5.75,8.1,8.1,0,0,0,4.584,3.67,7.306,7.306,0,0,0,2.868.319,1.075,1.075,0,0,0,1.047-1.047,1.056,1.056,0,0,0-1.047-1.047,4.459,4.459,0,0,0-4.017,4.191c-.276,2.333,1.277,4.274,3.155,5.454a18.052,18.052,0,0,0,6.52,2.246,20.966,20.966,0,0,0,7.029.091,12.4,12.4,0,0,0,6.668-3.258l-1.644-.212a11.266,11.266,0,0,0,6.537,4.412,11.8,11.8,0,0,0,2.059.3c.33.019.66.02.99.044a2.134,2.134,0,0,1,.705.157.64.64,0,0,1,.249.176c.079.075.227.24.257.278.153.195.378.548.555.8q.655.949,1.337,1.879c1.782,2.439,3.668,4.8,5.5,7.2.913,1.2,1.814,2.4,2.681,3.63q.663.939,1.3,1.9c.411.625.772,1.305,1.242,1.887,1.906,2.359,4.084,4.642,7.058,5.573a1.047,1.047,0,1,0,.556-2.018,9.177,9.177,0,0,1-3.077-1.761,22.492,22.492,0,0,1-2.61-2.731,15.632,15.632,0,0,1-1.1-1.613q-.605-.935-1.242-1.849c-.844-1.215-1.724-2.4-2.618-3.583-1.8-2.372-3.659-4.7-5.431-7.089-.878-1.184-1.666-2.45-2.58-3.6a3.314,3.314,0,0,0-1.768-1.185,12.331,12.331,0,0,0-2.171-.2,9.615,9.615,0,0,1-3.708-1.13,8.906,8.906,0,0,1-1.563-1.077,9.687,9.687,0,0,1-.768-.75c-.114-.125-.223-.254-.332-.383-.076-.091-.117-.147-.244-.325a1.063,1.063,0,0,0-1.643-.212,8.5,8.5,0,0,1-2.211,1.595,7.6,7.6,0,0,1-1.148.507,13.035,13.035,0,0,1-1.38.413,14.291,14.291,0,0,1-1.436.271c.148-.02-.161.017-.211.023-.127.014-.255.026-.383.037-.257.022-.514.038-.771.048a20.176,20.176,0,0,1-3.012-.109q-.2-.021-.39-.046c-.124-.016-.025,0,0,0l-.222-.032q-.387-.057-.773-.129-.738-.135-1.467-.318t-1.436-.405c-.234-.074-.468-.153-.7-.236-.125-.045-.25-.091-.374-.14l-.159-.063c-.02-.008-.23-.1-.118-.047a10.989,10.989,0,0,1-1.352-.689c-.2-.124-.4-.257-.6-.395a.686.686,0,0,1-.133-.1c-.111-.091-.219-.185-.325-.283a6.01,6.01,0,0,1-.48-.5c-.034-.04-.069-.081-.1-.123.09.114-.018-.026-.029-.042-.071-.1-.14-.205-.2-.312s-.127-.216-.183-.327c-.02-.039-.038-.079-.057-.118-.068-.141.053.156.006.007a5.3,5.3,0,0,1-.161-.59c-.009-.043-.016-.087-.021-.13.013.094.01.132.008.016s-.013-.234-.012-.352.011-.236.018-.353c0-.02.021-.167,0-.036s.011-.056.016-.079a5.246,5.246,0,0,1,.188-.679c.014-.041.031-.082.047-.123-.036.088-.05.1,0,.01s.1-.206.164-.305.124-.193.19-.287c-.115.163.028-.029.079-.084.077-.084.158-.16.24-.237.031-.029.064-.055.1-.082-.068.057-.1.07-.01.013s.188-.12.288-.173l.114-.056c.106-.053-.164.044.025-.005.1-.026.193-.056.291-.081.033-.008.217-.04.078-.019s.128-.006.13-.006v-2.093a6.365,6.365,0,0,1-1.341-.011c-.124-.016-.008,0,.014,0l-.158-.027c-.1-.02-.209-.041-.313-.066a6.759,6.759,0,0,1-.665-.192c-.1-.035-.2-.072-.3-.111.133.053-.1-.046-.141-.063-.208-.1-.411-.206-.609-.323a4.939,4.939,0,0,1-.936-.679q-.233-.211-.447-.441c-.071-.077-.141-.154-.208-.234-.033-.039-.066-.08-.1-.12-.109-.135.075.105-.026-.035a6.591,6.591,0,0,1-.648-1.107c.066.144-.032-.083-.049-.127-.035-.1-.068-.192-.1-.289a5.428,5.428,0,0,1-.154-.643c-.009-.05-.018-.1-.024-.151,0,.021.016.148.007.024-.008-.1-.016-.205-.02-.308a6.285,6.285,0,0,1,.02-.663c.014-.2-.022.069.016-.126.019-.1.037-.2.059-.3a5.877,5.877,0,0,1,.184-.637c.017-.048.1-.264.077-.21s.072-.157.1-.2a6.673,6.673,0,0,1,.326-.588,6.417,6.417,0,0,1,1.571-1.67,7.09,7.09,0,0,1,1.153-.657c.11-.05.017-.008,0,0,.049-.02.1-.04.149-.058q.15-.056.3-.105a6.47,6.47,0,0,1,.672-.176c.1-.021.211-.041.316-.056-.156.023.1-.009.149-.012a6.725,6.725,0,0,1,.776-.015,7.218,7.218,0,0,1,1.435.194c2.167.477,4.189,1.423,6.425,1.592a15.751,15.751,0,0,0,6.4-1.1c2.061-.734,4.045-1.668,6.122-2.359a23.2,23.2,0,0,1,6.316-1.168,25.577,25.577,0,0,1,6.406.506,23.19,23.19,0,0,1,5.933,2.013c3.338,1.735,5.791,4.459,8.615,6.985q1.112,1,2.3,1.9c.74.562,1.616,1.1,2.3,1.634a19.128,19.128,0,0,1,2.06,1.877,17.542,17.542,0,0,1,1.705,2.077,20.877,20.877,0,0,1,2.537,4.881,22.658,22.658,0,0,1,.786,2.722q.153.691.264,1.39c.07.442.1.711.151,1.235a27.414,27.414,0,0,1-2,12.5,37.374,37.374,0,0,1-2.917,5.8q-.208.34-.423.677c-.062.1-.126.2-.193.291-.028.04-.207.276-.132.183a6.1,6.1,0,0,1-.42.468q-.108.107-.221.208c-.047.042-.244.2-.2.169.085-.064-.045.031-.051.035-.04.026-.08.055-.12.081-.08.053-.161.1-.245.151s-.166.09-.251.134c-.042.022-.085.041-.127.062.094-.045.073-.026-.011,0a5.317,5.317,0,0,1-.541.171c-.092.023-.185.044-.279.062l-.142.025c-.165.028.158-.013-.01,0a6.875,6.875,0,0,1-1.21-.008c-.123-.012-.008,0,.015,0-.053-.007-.107-.016-.16-.025q-.162-.028-.324-.062c-.242-.051-.481-.116-.718-.187a1.047,1.047,0,0,0-.556,2.018" transform="translate(-0.628 0)" fill="#24221e"/>
    <path id="패스_5040" data-name="패스 5040" d="M606.414,800.606a7.655,7.655,0,1,0-.182-12.7" transform="translate(-25.175 -19.064)" fill="#ffe3d4"/>
    <path id="패스_5041" data-name="패스 5041" d="M605.185,800.819a8.7,8.7,0,1,0-.183-14.51,1.073,1.073,0,0,0-.376,1.432,1.056,1.056,0,0,0,1.432.375,6.671,6.671,0,0,1,3.057-1.183,8.1,8.1,0,0,1,1.664.012c.125.014,0,0-.023,0l.2.033q.15.026.3.059a7.482,7.482,0,0,1,.777.214c.094.032.189.065.283.1.062.023.124.047.185.072-.019-.007-.131-.057-.022-.007.225.1.447.212.662.334q.3.17.582.367c.056.039.255.185.211.151-.093-.072.067.055.086.071.05.042.1.084.149.126a7.647,7.647,0,0,1,.981,1.026c-.112-.142.072.1.1.142q.1.141.192.286c.133.208.255.422.367.642.053.1.1.208.151.312,0,.007.069.156.027.057s.032.082.041.105c.089.234.169.472.235.714s.115.459.156.693c.01.052.044.3.023.128.019.154.033.309.042.465a6.084,6.084,0,0,1-.371,2.708c-.038.11-.08.219-.123.327-.062.158.06-.129-.01.025l-.062.135q-.158.336-.347.655c-.117.2-.246.387-.378.575-.028.04-.058.08-.087.118.1-.136,0,0-.018.02-.084.1-.167.2-.255.3q-.231.255-.482.488c-.084.078-.169.153-.257.227-.038.032-.076.062-.113.094-.237.2.084-.059-.059.047a7.733,7.733,0,0,1-1.219.74c-.049.024-.371.166-.2.1-.123.051-.248.1-.374.141a7.742,7.742,0,0,1-.773.224c-.132.03-.265.058-.4.081l-.2.033c.113-.017.046,0-.028,0-.278.025-.555.045-.834.045a6.659,6.659,0,0,1-3.654-1.1,1.047,1.047,0,1,0-1.056,1.807" transform="translate(-24.473 -18.373)" fill="#24221e"/>
    <path id="패스_5042" data-name="패스 5042" d="M615.134,876.583c0-6.75.123-13.77-1.784-20.279a15.67,15.67,0,0,0-4.32-7.629c-5.161-4.531-15.988-2.564-20.831,1.434-3.226,2.664-4.584,7.577-5.726,11.3a113.221,113.221,0,0,0-4.326,20.938,2.144,2.144,0,0,0,.126,1.28c.373.681,1.329.859,2.158.947a117.885,117.885,0,0,0,30-.63c1.551-.233,3.272-.6,4.117-1.811a4.914,4.914,0,0,0,.594-2.94c-.008-.863-.01-1.733-.01-2.607" transform="translate(-13.87 -42.995)" fill="#9b9b9b"/>
    <path id="패스_5043" data-name="패스 5043" d="M615.485,875.879a108.879,108.879,0,0,0-.628-14.831,37.321,37.321,0,0,0-1.554-6.876,17.361,17.361,0,0,0-3.143-5.842c-2.374-2.769-5.9-3.877-9.456-4a23.321,23.321,0,0,0-10.47,2.175,14.427,14.427,0,0,0-4.062,2.693,15.461,15.461,0,0,0-3.193,4.879A50.016,50.016,0,0,0,581,859.652c-.7,2.3-1.369,4.612-1.945,6.949a114.735,114.735,0,0,0-2.639,14.9,3.306,3.306,0,0,0,.2,1.843,2.407,2.407,0,0,0,1.193,1.122,10.9,10.9,0,0,0,3.446.6q3.818.359,7.654.468a118.031,118.031,0,0,0,15.248-.551q1.924-.2,3.841-.453a33.078,33.078,0,0,0,3.436-.552,6.141,6.141,0,0,0,2.752-1.353,4.557,4.557,0,0,0,1.292-3.22c.06-1.17,0-2.354,0-3.526a1.047,1.047,0,1,0-2.093,0c0,1.152.053,2.314,0,3.466a3.31,3.31,0,0,1-.226,1.183,2.96,2.96,0,0,1-.182.319c-.071.113-.013.028.006,0-.032.04-.066.078-.1.115a2.931,2.931,0,0,1-.216.215c-.038.034-.076.068-.116.1.087-.069.013-.011-.035.019a3.786,3.786,0,0,1-1.051.5,10.79,10.79,0,0,1-1.357.324c-1.082.2-2.178.331-3.269.467a117.848,117.848,0,0,1-14.571.9q-3.653,0-7.3-.226-1.822-.114-3.64-.284c-.585-.054-1.172-.105-1.755-.178-.123-.016-.009,0,.014,0l-.16-.026c-.106-.019-.211-.041-.315-.066s-.2-.057-.3-.089-.011,0,.011.012c-.061-.026-.117-.065-.178-.09-.177-.075.06.032-.1-.065-.007,0-.117-.121-.042-.037s-.022-.034-.026-.052c.025.113-.035-.179-.014-.036a1.99,1.99,0,0,1,0-.418c.039-.575.123-1.15.193-1.722q.209-1.712.476-3.415.554-3.548,1.332-7.054a111.015,111.015,0,0,1,3.5-12.512,20.788,20.788,0,0,1,2.336-4.937,8.8,8.8,0,0,1,.718-.954,10.105,10.105,0,0,1,.931-.956c.142-.127.289-.249.438-.37l.1-.075c-.008.007-.145.109-.049.04.078-.057.154-.115.233-.172q.434-.311.891-.587a17.626,17.626,0,0,1,2.018-1.047c.039-.018.262-.114.179-.079s.143-.058.184-.075q.291-.118.585-.226.574-.213,1.16-.393a23.411,23.411,0,0,1,2.43-.611q.622-.121,1.249-.209c-.173.024.069-.008.124-.015l.3-.035c.218-.023.436-.044.654-.06a20.1,20.1,0,0,1,2.5-.041c.407.019.813.052,1.218.1.065.008.288.039.105.013l.285.043q.306.05.609.111a13.419,13.419,0,0,1,2.216.66c.112.044-.028-.012-.041-.018l.124.054.245.112c.174.083.346.171.516.264a9.218,9.218,0,0,1,.932.585c.032.023.227.169.139.1s.1.084.133.11c.184.152.361.313.533.479a11.2,11.2,0,0,1,.983,1.082,13.8,13.8,0,0,1,1.523,2.539,20.609,20.609,0,0,1,1.021,2.692c.337,1.081.615,2.18.846,3.289a68.65,68.65,0,0,1,1.058,13.813c0,1.139,0,2.278,0,3.417a1.047,1.047,0,1,0,2.093,0" transform="translate(-13.174 -42.291)" fill="#24221e"/>
    <path id="패스_5044" data-name="패스 5044" d="M584.378,860.967a21.624,21.624,0,0,1,.642-3.956c1.218-4.422,5.68-3.222,9.4-3.324a3.652,3.652,0,0,0,1.4-.252c1.637-.733,1.628-3.309.326-4.543s-3.29-1.39-5.071-1.182c-12.2,1.427-15.867,22.437-8.455,30.63a13.816,13.816,0,0,0,11.641,4.273,5.476,5.476,0,0,0,3.176-1.237,2.283,2.283,0,0,0,.4-3.016c-.932-1.112-2.73-.808-4.224-.77a8.756,8.756,0,0,1-7.235-3.536,11.954,11.954,0,0,1-1.893-5.822,42.627,42.627,0,0,1-.1-7.266" transform="translate(-14.147 -43.623)" fill="#cbffe5"/>
    <path id="패스_5045" data-name="패스 5045" d="M584.718,860.27a19.334,19.334,0,0,1,.6-3.678,5.6,5.6,0,0,1,.231-.682c-.067.158.025-.044.051-.1.054-.107.111-.213.173-.316s.126-.192.191-.287c-.1.147-.014.017.042-.048.131-.152.288-.275.426-.419.1-.1-.149.1-.027.02.032-.02.063-.045.094-.067.075-.051.151-.1.228-.145s.157-.088.238-.128.318-.121.1-.052a8.171,8.171,0,0,1,1.116-.3c.089-.016.307-.045.09-.019.1-.012.2-.023.294-.032.214-.021.429-.034.644-.043.415-.017.83-.016,1.244-.007.878.018,1.755.071,2.632.076a4.532,4.532,0,0,0,3.311-.933c1.514-1.436,1.231-4.039-.075-5.5-1.606-1.793-4.333-1.888-6.539-1.568a11.61,11.61,0,0,0-4.09,1.439,15.7,15.7,0,0,0-5.917,6.53,25.618,25.618,0,0,0-2.616,9.249,24.155,24.155,0,0,0,.813,9.24,14.5,14.5,0,0,0,5.6,7.959,14.809,14.809,0,0,0,6.32,2.434,14.334,14.334,0,0,0,3.483.089,7.2,7.2,0,0,0,3.564-1.135,3.691,3.691,0,0,0,1.63-3.208,3.027,3.027,0,0,0-2.219-2.653,9.8,9.8,0,0,0-3.242-.147,7.563,7.563,0,0,1-3.059-.459,7.457,7.457,0,0,1-4.344-4.074,19.017,19.017,0,0,1-1.09-7.139c-.029-1.3,0-2.6.1-3.9a1.056,1.056,0,0,0-1.047-1.047,1.067,1.067,0,0,0-1.047,1.047,40.629,40.629,0,0,0,.122,7.454,12.56,12.56,0,0,0,2.487,6.776,9.633,9.633,0,0,0,5.658,3.27,14.853,14.853,0,0,0,3.251.115c.236-.009.472-.014.709-.009.124,0,.249.008.373.018l.157.014c-.112-.011-.045-.009.028.005.115.023.228.047.341.078.056.017.328.13.159.047.087.042.168.091.251.141.036.021.14.122.019.011.048.044.094.09.141.137,0,0,.1.129.047.054s.047.092.058.111c.057.1,0,0,0-.018.017.047.031.1.044.145.007.027.041.232.026.109s0,.054,0,.063c0,.051,0,.1,0,.154,0,.109.035-.1-.007.081-.023.1-.051.2-.081.3-.008.024-.078.179-.014.045-.023.048-.048.1-.074.142s-.181.286-.1.187a2.226,2.226,0,0,1-.261.274,3.285,3.285,0,0,1-1.187.628,7.683,7.683,0,0,1-1.5.294,12.79,12.79,0,0,1-6.13-.892,13.488,13.488,0,0,1-2.642-1.456,10.132,10.132,0,0,1-1.119-.92,11.842,11.842,0,0,1-.944-.987c-.1-.113-.186-.231-.281-.344-.04-.047.12.161,0-.007-.054-.074-.109-.148-.163-.223q-.283-.4-.535-.816a18.16,18.16,0,0,1-.894-1.752c.086.185.023.056-.021-.053-.028-.068-.055-.136-.081-.205q-.1-.257-.193-.52-.169-.477-.309-.963a20.131,20.131,0,0,1-.48-2.055c-.032-.179-.062-.359-.09-.54-.012-.078-.023-.155-.034-.233-.008-.052-.015-.1-.022-.156.01.073.022.176.007.043-.043-.368-.084-.737-.113-1.107-.057-.737-.081-1.477-.073-2.215s.048-1.5.121-2.24q.028-.285.062-.57c.01-.081.02-.163.03-.244.007-.052.029-.205,0,.035.008-.055.015-.108.023-.163q.082-.568.188-1.131a24.67,24.67,0,0,1,1.206-4.282c.062-.161.127-.321.191-.481.1-.247-.043.094.033-.079.042-.1.084-.193.127-.289q.216-.483.458-.955a18.7,18.7,0,0,1,1.065-1.826c.195-.293.4-.578.611-.86.111-.148-.109.133.042-.054l.14-.174c.117-.143.237-.284.359-.423a13.684,13.684,0,0,1,1.426-1.4c.119-.1.241-.2.362-.3-.161.129-.039.031.045-.032s.154-.113.231-.168q.394-.278.808-.523.431-.253.882-.467l.194-.09c.043-.02.088-.037.131-.058,0,0-.195.078-.086.036.168-.064.333-.133.5-.193a11.367,11.367,0,0,1,1.948-.492c.215-.037-.045,0,.019,0,.114-.012.227-.027.341-.038q.4-.04.812-.05c.272-.006.544,0,.816.017a3.463,3.463,0,0,1,.638.082,5.679,5.679,0,0,1,.713.189,2.481,2.481,0,0,1,.616.286,2.37,2.37,0,0,1,.466.337c.078.072.148.149.222.227.012.012.1.127.027.03s.033.053.044.071c.054.087.108.174.154.264.036.07.1.24.039.07a4.88,4.88,0,0,1,.176.635c.026.12,0-.048-.006-.061.007.058.012.116.016.174q.007.13.005.26c0,.045-.023.34-.007.2s-.029.144-.042.194c-.023.1-.054.186-.085.279-.038.112.022-.051.027-.06-.024.048-.047.1-.074.145-.039.071-.084.138-.129.206.13-.2-.053.039-.1.094-.106.124.126-.059-.079.064-.036.021-.2.116-.158.094a2.373,2.373,0,0,1-.712.145c-.851.052-1.709,0-2.56-.029a12.278,12.278,0,0,0-4.9.452,4.939,4.939,0,0,0-2.067,1.424,6.653,6.653,0,0,0-1.271,2.739,24.818,24.818,0,0,0-.555,3.753,1.055,1.055,0,0,0,1.047,1.046,1.068,1.068,0,0,0,1.047-1.046" transform="translate(-13.441 -42.927)" fill="#24221e"/>
    <path id="패스_5046" data-name="패스 5046" d="M554.131,892.692a1.916,1.916,0,0,1-2.386-1.5,2.272,2.272,0,0,1,1.618-2.554,1.935,1.935,0,0,1-1.263-2.211,1.971,1.971,0,0,1,2-1.6c-1.346-.588-1.3-3.111.066-3.759a16.38,16.38,0,0,0,1.841-.584,14.016,14.016,0,0,0,1.161-1.107c1.361-1.1,3.174-.122,4.763.349a6.475,6.475,0,0,0,.707.161,69.813,69.813,0,0,0,.336,17.148,22.59,22.59,0,0,1-6.265-.019q-.342-.055-.682-.124a3.8,3.8,0,0,1-2.614-1.455c-.564-.9-.281-2.459.716-2.742" transform="translate(-3.258 -56.181)" fill="#ffe3d4"/>
    <path id="패스_5047" data-name="패스 5047" d="M553.156,890.994a1.653,1.653,0,0,1-.185.05q.183-.019,0-.005c-.056,0-.318-.041-.1.006a2.261,2.261,0,0,1-.272-.074c.2.069-.129-.08-.173-.107-.166-.1.048.086-.086-.077-.029-.035-.184-.228-.085-.084-.027-.038-.187-.367-.12-.186a1.7,1.7,0,0,1-.08-.291c.037.2.005-.106,0-.127.011-.127.007-.136-.01-.026q.013-.076.03-.151a.939.939,0,0,1,.184-.46c.035-.059.073-.115.113-.17-.05.065-.051.071,0,.016.027-.029.268-.256.12-.138a2,2,0,0,1,.248-.155c.11-.054.115-.056.016-.007a1.651,1.651,0,0,1,.185-.048,1.055,1.055,0,0,0,0-2.018c-.295-.089.163.088-.113-.045l-.084-.052c.065.055.071.059.016.01a1.565,1.565,0,0,1-.176-.181c.111.141-.063-.121-.066-.127l-.047-.093q.046.11.009.007a2.4,2.4,0,0,1-.067-.255c.034.184,0-.129,0-.145l.005-.107c-.013.083-.012.086,0,.012a1.682,1.682,0,0,1,.077-.258c-.054.129.033-.043.059-.085s.146-.188.056-.087a1.868,1.868,0,0,1,.225-.22c-.138.111.353-.151.158-.087.024-.008.324-.073.11-.047a1.5,1.5,0,0,1,.3,0,1.054,1.054,0,0,0,.528-1.95,1.866,1.866,0,0,1-.258-.148c.229.155-.007-.034-.056-.088.187.2,0-.039-.042-.1-.05-.1-.046-.09.011.041-.019-.048-.036-.1-.051-.147-.031-.1-.051-.2-.072-.308.057.282,0-.056,0-.123,0-.109.007-.216.016-.324-.022.266,0,.023.017-.042.024-.105.059-.206.093-.307-.083.253.029-.048.063-.107s.055-.088.085-.13c-.087.108-.094.118-.019.032.058-.054.3-.212.076-.087a13.651,13.651,0,0,1,1.521-.457,4.715,4.715,0,0,0,1.641-1.281,1.29,1.29,0,0,1,1.13-.425,6.616,6.616,0,0,1,1.616.393,14.206,14.206,0,0,0,1.96.578l-.768-1.009a70.832,70.832,0,0,0,.373,17.426l1.009-1.325a19.5,19.5,0,0,1-7.151-.216,4.985,4.985,0,0,1-.685-.222c.149.064-.144-.076-.149-.078-.1-.051-.188-.108-.28-.166-.169-.105,0,.028-.131-.1-.049-.049-.218-.225-.213-.218.02.027-.105-.179-.13-.223.086.154.01.025-.017-.071-.011-.038-.062-.319-.03-.065a2.18,2.18,0,0,1-.015-.266c0-.035.033-.352.01-.213s.052-.171.059-.2c.046-.2-.092.12.025-.062.028-.043.177-.242.017-.059a1.6,1.6,0,0,1,.168-.169q-.162.125-.016.032c-.13.048-.139.053-.027.016a1.07,1.07,0,0,0,.731-1.287,1.058,1.058,0,0,0-1.288-.731,2.718,2.718,0,0,0-1.769,2.763,3.4,3.4,0,0,0,2.1,2.949,12.107,12.107,0,0,0,4.19.849,25.262,25.262,0,0,0,4.6-.166,1.07,1.07,0,0,0,1.009-1.325,68.78,68.78,0,0,1-.3-16.869,1.047,1.047,0,0,0-.768-1.01c-1.164-.214-2.232-.777-3.4-.964a3.691,3.691,0,0,0-3.5,1.125c-.092.1-.181.2-.275.3-.032.033-.239.236-.169.179a1.541,1.541,0,0,1-.693.264,3.927,3.927,0,0,0-1.717.707,3.271,3.271,0,0,0-1.093,2.524,2.956,2.956,0,0,0,1.5,2.719l.528-1.949a3.012,3.012,0,0,0-1.017,5.869V886.94a3.326,3.326,0,0,0-2.349,3.841,2.981,2.981,0,0,0,3.674,2.231,1.047,1.047,0,1,0-.557-2.018" transform="translate(-2.562 -55.492)" fill="#24221e"/>
    <path id="패스_5048" data-name="패스 5048" d="M576.211,868.012c1.9-2.052,3.125-5.052,4.159-7.5,1.074-2.54,2.934-5.151,5.673-5.475a5.867,5.867,0,0,1,5.146,2.428,10.992,10.992,0,0,1,1.963,5.542c.642,5.88-1.809,11.329-4.748,16.251-2.777,4.651-8.85,6.356-13.868,7.415-1.474.311-2.965.584-4.457.762a69.813,69.813,0,0,1-.336-17.148,6.736,6.736,0,0,0,6.468-2.278" transform="translate(-10.362 -46.588)" fill="#fff"/>
    <path id="패스_5049" data-name="패스 5049" d="M576.252,868.065a20.555,20.555,0,0,0,3.43-5.63c.411-.923.771-1.871,1.209-2.781a13.763,13.763,0,0,1,.725-1.323,8.139,8.139,0,0,1,.787-1.088q.231-.268.485-.516c.151-.148.4-.371.5-.447.07-.054.347-.244.5-.337.09-.053.182-.1.275-.154l.14-.071c.016-.008.193-.089.114-.054a6,6,0,0,1,.571-.185c.121-.032.242-.056.365-.079s.013-.005-.011,0c.077-.01.154-.016.231-.022a4.906,4.906,0,0,1,.75.011c.123.011.034,0,.007,0,.057.008.114.019.17.03q.227.043.449.105a5.231,5.231,0,0,1,2.342,1.466,7.27,7.27,0,0,1,1.521,2.634c1.444,4.264.526,9.031-1.228,13.092-.459,1.062-.973,2.1-1.522,3.118a27.842,27.842,0,0,1-1.691,2.875c-.06.085-.121.169-.184.252s-.008.011.005-.007l-.1.121q-.229.281-.475.545a11.826,11.826,0,0,1-1.009.96,9.129,9.129,0,0,1-.99.743c-.392.264-.8.51-1.21.739A18.955,18.955,0,0,1,580,883.179c-.886.341-1.789.634-2.7.894a57.871,57.871,0,0,1-6.1,1.362c-.6.1-1.207.2-1.814.269l1.009.768a68.779,68.779,0,0,1-.3-16.87l-1.325,1.009a7.983,7.983,0,0,0,4.25-.309,8.812,8.812,0,0,0,3.236-2.238,1.047,1.047,0,0,0-1.48-1.48c-.19.2-.385.4-.59.585-.1.093-.207.179-.311.269s-.106.086-.029.026c-.054.041-.109.081-.164.121a7.029,7.029,0,0,1-.685.435c-.118.066-.239.127-.361.186-.061.029-.123.057-.185.084.078-.032.082-.035.014-.008a5.705,5.705,0,0,1-3.136.309A1.067,1.067,0,0,0,568,869.6a70.828,70.828,0,0,0,.373,17.426,1.043,1.043,0,0,0,1.009.768,58.2,58.2,0,0,0,7.194-1.363,31.522,31.522,0,0,0,5.857-2.038,15.182,15.182,0,0,0,4.845-3.492,16.149,16.149,0,0,0,1.895-2.76c.609-1.06,1.185-2.139,1.71-3.244,2.16-4.554,3.437-9.659,2.28-14.675a9.236,9.236,0,0,0-3.967-5.988,6.13,6.13,0,0,0-6.537.011,11.071,11.071,0,0,0-3.91,5.1,33.616,33.616,0,0,1-3.034,6.055,9.977,9.977,0,0,1-.94,1.181,1.069,1.069,0,0,0,0,1.48,1.058,1.058,0,0,0,1.48,0" transform="translate(-9.663 -45.901)" fill="#24221e"/>
    <path id="패스_5050" data-name="패스 5050" d="M602.644,878.64c-1.788-3.83-.258-9.514-.711-13.373-.778-6.636-4.218-15.007,1.331-20.72a10.284,10.284,0,0,1,2.166-1.674,12.752,12.752,0,0,1,11.842-.466c6.356,3.1,7.908,11.039,8.641,17.425a4.21,4.21,0,0,0,.462,1.771,5.873,5.873,0,0,0,1.659,1.419c3.94,2.922,4.395,10.979,2.7,15.154-2.606,6.433-15.627,5.2-21.257,4.451a9.7,9.7,0,0,1-5.413-2.022,6.187,6.187,0,0,1-1.424-1.965" transform="translate(-22.736 -41.026)" fill="#cbffe5"/>
    <path id="패스_5051" data-name="패스 5051" d="M602.839,877.407a4.419,4.419,0,0,1-.21-.539c-.092-.273-.17-.552-.236-.832-.059-.251-.108-.5-.149-.759-.006-.038-.044-.3-.026-.166q-.032-.254-.054-.508a25.334,25.334,0,0,1-.035-3.4,42.933,42.933,0,0,0,.148-6.589c-.234-2.106-.688-4.179-1.075-6.26-.1-.523-.191-1.046-.277-1.57q-.062-.38-.119-.761c-.05-.336-.059-.4-.09-.645a25.035,25.035,0,0,1-.211-3.181c0-.511.025-1.023.073-1.531.013-.139.029-.277.045-.417-.02.166.013-.087.02-.136q.064-.411.154-.819a9.226,9.226,0,0,1,.994-2.684,8.873,8.873,0,0,1,2.027-2.518,9.377,9.377,0,0,1,1.433-1.016,10.925,10.925,0,0,1,1.489-.736,12.246,12.246,0,0,1,3.242-.776,13.028,13.028,0,0,1,1.813-.029,9.707,9.707,0,0,1,1.579.2,12.287,12.287,0,0,1,1.686.468,9.179,9.179,0,0,1,1.387.62,11.391,11.391,0,0,1,1.275.8c.039.028.279.21.143.1.09.07.179.142.267.216q.282.234.547.486a12.493,12.493,0,0,1,.965,1.023c.073.087.143.175.215.262.129.157.043.052.016.017l.088.116q.232.312.448.635a17.074,17.074,0,0,1,1.367,2.5c.047.106.094.212.139.319-.068-.161.048.121.066.166q.14.348.269.7.259.71.474,1.436c.28.939.512,1.891.709,2.85s.36,1.931.5,2.9c.017.113.032.226.048.34.005.037.028.206,0,.011.007.048.013.1.019.145.03.238.061.477.09.715a16.482,16.482,0,0,0,.253,1.821,3.518,3.518,0,0,0,.983,1.737,13.272,13.272,0,0,0,1.47,1.1c-.2-.141.032.027.077.065q.11.092.216.19c.163.151.318.31.464.475.065.074.128.149.191.224.027.033.053.066.079.1-.023-.03-.12-.168-.009-.009.124.178.248.353.362.536a10,10,0,0,1,.6,1.138l.074.166c-.006-.014-.062-.151-.016-.039s.08.2.118.3q.133.349.245.706c.139.44.255.886.352,1.337q.071.332.129.666c.019.112.038.224.054.336.01.064.019.129.029.193-.016-.108-.01-.078,0,.012a19.731,19.731,0,0,1,.138,2.862q-.018.684-.087,1.365c-.011.107-.023.214-.035.321-.031.266.013-.06-.017.128-.034.22-.069.44-.11.659-.079.417-.175.831-.293,1.238-.051.179-.108.357-.169.534-.03.085-.06.17-.092.255s-.133.314-.032.093a6.237,6.237,0,0,1-.483.887c-.045.067-.094.131-.138.2-.1.151.129-.15-.025.034-.118.142-.239.281-.368.413q-.17.174-.352.335c-.062.054-.124.106-.187.16-.027.023-.057.042-.083.066-.094.086.173-.123.016-.013a10.171,10.171,0,0,1-.88.57c-.318.179-.646.333-.978.483.255-.115-.054.021-.107.042l-.219.084q-.3.11-.6.207a17.931,17.931,0,0,1-2.338.566q-.3.052-.594.1c-.051.008-.413.057-.152.023q-.173.023-.347.044-.636.075-1.275.123a42.591,42.591,0,0,1-5.177.045c-1.544-.072-3.085-.208-4.62-.388q-.472-.055-.943-.115l-.213-.027-.126-.017-.069-.01-.239-.035c-.16-.024-.319-.05-.478-.077a9.391,9.391,0,0,1-3.208-1.036,5.125,5.125,0,0,1-2.049-2.326,1.056,1.056,0,0,0-1.432-.376,1.07,1.07,0,0,0-.375,1.432,7.164,7.164,0,0,0,2.6,2.954,10.155,10.155,0,0,0,3.55,1.3,49.619,49.619,0,0,0,4.966.627,40.864,40.864,0,0,0,10.738-.225c3.086-.546,6.578-1.874,7.964-4.929a14.685,14.685,0,0,0,1.142-5.477,18.566,18.566,0,0,0-.715-6.021,10.175,10.175,0,0,0-2.89-4.865c-.44-.376-.937-.668-1.391-1.024.073.057-.157-.139-.187-.168-.055-.053-.109-.106-.159-.164-.077-.087-.031-.032-.015-.011a1.652,1.652,0,0,1-.3-.759c-.191-.92-.263-2.079-.413-3.106-.588-4.016-1.579-8.231-3.982-11.583a13.133,13.133,0,0,0-4.711-4.151,13.611,13.611,0,0,0-7.429-1.383,13.384,13.384,0,0,0-7.265,2.954,11.433,11.433,0,0,0-3.674,5.941c-1.119,4.4.048,9,.859,13.352.1.517.189,1.034.273,1.553q.062.379.117.76c.01.066.019.133.028.2,0-.02-.02-.152,0-.029.018.148.038.3.053.444a20.666,20.666,0,0,1,.034,3.2,43.512,43.512,0,0,0-.111,7.143,11.357,11.357,0,0,0,.92,3.465,1.054,1.054,0,0,0,1.432.375,1.071,1.071,0,0,0,.376-1.432" transform="translate(-22.026 -40.321)" fill="#24221e"/>
    <path id="패스_5052" data-name="패스 5052" d="M627.293,874.981a9.622,9.622,0,0,0-12.023,4.471,9.979,9.979,0,0,0-1.1,3.76,1.055,1.055,0,0,0,1.047,1.046l18.539-.224a1.047,1.047,0,0,0,0-2.093l-18.539.224,1.047,1.047c0-.038.031-.307.014-.172.014-.112.034-.224.054-.335.045-.24.1-.48.165-.716q.091-.327.207-.646a4.3,4.3,0,0,1,.247-.583A7.6,7.6,0,0,1,626.737,877a1.053,1.053,0,0,0,1.287-.731,1.072,1.072,0,0,0-.731-1.287" transform="translate(-28.364 -54.352)" fill="#24221e"/>
    <path id="패스_5053" data-name="패스 5053" d="M611.726,847.015c-2.738,1.03-3.727,4.255-4.112,6.894a59.5,59.5,0,0,0-.273,9.153q.028,2.676.089,5.352a1.047,1.047,0,0,0,2.093,0q-.1-4.459-.11-8.919a22.744,22.744,0,0,1,.918-7.9,6.84,6.84,0,0,1,.857-1.659,4.537,4.537,0,0,1,.512-.542,1.319,1.319,0,0,1,.279-.2c.047-.029.1-.054.145-.083.246-.148-.112.026.159-.075a1.076,1.076,0,0,0,.731-1.288,1.055,1.055,0,0,0-1.288-.731" transform="translate(-25.603 -43.355)" fill="#24221e"/>
  </g>
</svg>
