<svg xmlns="http://www.w3.org/2000/svg" xmlns:xlink="http://www.w3.org/1999/xlink" width="110" height="110" viewBox="0 0 110 110">
  <defs>
    <clipPath id="clip-path">
      <rect id="사각형_1003" data-name="사각형 1003" width="110" height="110" transform="translate(1355 2408)" fill="#fff" stroke="#707070" stroke-width="1"/>
    </clipPath>
  </defs>
  <g id="마스크_그룹_11" data-name="마스크 그룹 11" transform="translate(-1355 -2408)" clip-path="url(#clip-path)">
    <g id="rubber-stamp" transform="translate(1334.287 2471.997) rotate(-45)">
      <path id="패스_5471" data-name="패스 5471" d="M45.27,46.226c9.531-6.306,18.247-18.481,21.644-35.34A13.271,13.271,0,0,1,82.485.419L82.9.5a32.386,32.386,0,0,1,25.032,25.032q.044.208.085.414a13.271,13.271,0,0,1-10.467,15.57c-16.858,3.4-29.033,12.114-35.34,21.644L49.951,58.174Z" transform="translate(-1.206 0)" fill="#feb31e"/>
      <path id="패스_5472" data-name="패스 5472" d="M91.12,9.076c-4.258,1.481-10.449,6.962-13.841,12.2a153.617,153.617,0,0,1-26.288,30.7l-6.532-.923.787-4.821C54.779,39.92,63.5,27.743,66.893,10.887A13.271,13.271,0,0,1,82.463.419L82.876.5A32.35,32.35,0,0,1,99.115,9.3c-1.4-1.4-4.044-1.563-7.752-.306l-.243.084Z" transform="translate(-1.184 0)" fill="#fe8e1e"/>
      <path id="패스_5473" data-name="패스 5473" d="M65.42,68.246Q53.221,55.4,40.378,43.2a8.851,8.851,0,0,0-12.464.229,25.988,25.988,0,0,0-4.491,6.427Q40.453,68.171,58.764,85.2a25.988,25.988,0,0,0,6.427-4.491,8.851,8.851,0,0,0,.229-12.464Z" transform="translate(-0.624 -1.081)" fill="#f6e266"/>
      <path id="패스_5474" data-name="패스 5474" d="M35.652,51.228a27.957,27.957,0,0,0-4.685,6.611q-3.8-3.958-7.543-7.979a25.944,25.944,0,0,1,4.491-6.427A8.85,8.85,0,0,1,40.378,43.2q3.191,3.032,6.343,6.1A9.536,9.536,0,0,0,35.652,51.228Z" transform="translate(-0.624 -1.081)" fill="#eab14d"/>
      <path id="패스_5475" data-name="패스 5475" d="M55.021,103.24a33.734,33.734,0,0,1-4.125,3.368c-.471.327-.952.647-1.445.952a4.525,4.525,0,0,1-5.478-.553Q27.686,91.753,12.16,75.733,6.645,70.046,1.229,64.263a4.527,4.527,0,0,1-.553-5.478A34.063,34.063,0,0,1,5,53.215a11.878,11.878,0,0,1,16.727-.307Q38.956,69.281,55.328,86.513a11.877,11.877,0,0,1-.307,16.727Z" transform="translate(0 -1.318)" fill="#4d5961"/>
      <path id="패스_5476" data-name="패스 5476" d="M55.021,103.24a33.733,33.733,0,0,1-4.125,3.368c-11.619-9.325-26.631-24.69-33.079-31.434a3.61,3.61,0,0,0-5.656.559Q6.645,70.046,1.229,64.263a4.527,4.527,0,0,1-.553-5.478A34.063,34.063,0,0,1,5,53.215a11.878,11.878,0,0,1,16.727-.307Q38.956,69.282,55.328,86.513A11.877,11.877,0,0,1,55.021,103.24Z" transform="translate(0 -1.318)" fill="#454545"/>
      <path id="패스_5477" data-name="패스 5477" d="M65.7,81.031Q46.812,61.144,26.925,42.253a13.706,13.706,0,0,0-19.3.355A40.24,40.24,0,0,0,.669,52.56Q27.041,80.916,55.4,107.288a40.247,40.247,0,0,0,9.953-6.955A13.706,13.706,0,0,0,65.7,81.031Z" transform="translate(-0.018 -1.02)" fill="#feb31e"/>
      <path id="패스_5478" data-name="패스 5478" d="M26.5,61.554a42.514,42.514,0,0,0-7.311,10.428Q9.812,62.39.669,52.56a40.226,40.226,0,0,1,6.954-9.952,13.709,13.709,0,0,1,19.3-.355q8.822,8.383,17.45,16.961A14.5,14.5,0,0,0,26.5,61.554Z" transform="translate(-0.018 -1.02)" fill="#fe8e1e"/>
    </g>
  </g>
</svg>
