<svg id="img" xmlns="http://www.w3.org/2000/svg" width="80" height="80" viewBox="0 0 80 80">
  <rect id="사각형_1062" data-name="사각형 1062" width="80" height="80" fill="#fff" opacity="0"/>
  <g id="그룹_5577" data-name="그룹 5577" transform="translate(157.85 -406.673)">
    <g id="그룹_5574" data-name="그룹 5574">
      <g id="그룹_5573" data-name="그룹 5573">
        <g id="그룹_5525" data-name="그룹 5525">
          <rect id="사각형_1060" data-name="사각형 1060" width="21.83" height="13.684" transform="translate(-127.215 464.721)" fill="#c9caca"/>
          <path id="패스_5840" data-name="패스 5840" d="M-105.385,479.24h-21.83a.834.834,0,0,1-.834-.834V464.721a.835.835,0,0,1,.834-.834h21.83a.835.835,0,0,1,.835.834v13.685A.834.834,0,0,1-105.385,479.24Zm-20.995-1.668h20.161V465.556H-126.38Z" fill="#3e3a39"/>
        </g>
        <g id="그룹_5526" data-name="그룹 5526">
          <path id="패스_5841" data-name="패스 5841" d="M-127.215,471.889V458.205h21.83v13.684" fill="#b5b5b6"/>
          <path id="패스_5842" data-name="패스 5842" d="M-105.385,472.724a.835.835,0,0,1-.834-.834V459.039H-126.38V471.89a.835.835,0,0,1-.835.834.835.835,0,0,1-.834-.834V458.2a.834.834,0,0,1,.834-.834h21.83a.834.834,0,0,1,.835.834V471.89A.835.835,0,0,1-105.385,472.724Z" fill="#3e3a39"/>
        </g>
        <g id="그룹_5527" data-name="그룹 5527">
          <rect id="사각형_1061" data-name="사각형 1061" width="68.748" height="50.828" rx="4.772" transform="translate(-150.674 417.152)" fill="#7ebaff"/>
          <path id="패스_5843" data-name="패스 5843" d="M-86.7,468.814h-59.2a5.613,5.613,0,0,1-5.606-5.607V421.924a5.613,5.613,0,0,1,5.606-5.606h59.2a5.613,5.613,0,0,1,5.606,5.606v41.283A5.613,5.613,0,0,1-86.7,468.814Zm-59.2-50.828a3.942,3.942,0,0,0-3.937,3.938v41.283a3.942,3.942,0,0,0,3.937,3.938h59.2a3.942,3.942,0,0,0,3.938-3.938V421.924a3.943,3.943,0,0,0-3.938-3.938Z" fill="#3e3a39"/>
        </g>
        <g id="그룹_5528" data-name="그룹 5528">
          <path id="패스_5844" data-name="패스 5844" d="M-100.66,483.619h-31.279a3.1,3.1,0,0,1-3.1-3.1h0a3.1,3.1,0,0,1,3.1-3.1h31.279a3.1,3.1,0,0,1,3.1,3.1h0A3.1,3.1,0,0,1-100.66,483.619Z" fill="#fff"/>
          <path id="패스_5845" data-name="패스 5845" d="M-100.66,484.453h-31.279a3.934,3.934,0,0,1-3.93-3.929,3.934,3.934,0,0,1,3.93-3.93h31.279a3.934,3.934,0,0,1,3.929,3.93A3.934,3.934,0,0,1-100.66,484.453Zm-31.279-6.19a2.263,2.263,0,0,0-2.261,2.261,2.264,2.264,0,0,0,2.261,2.261h31.279a2.264,2.264,0,0,0,2.261-2.261,2.264,2.264,0,0,0-2.261-2.261Z" fill="#3e3a39"/>
        </g>
        <g id="그룹_5551" data-name="그룹 5551">
          <g id="그룹_5529" data-name="그룹 5529">
            <path id="패스_5846" data-name="패스 5846" d="M-114.732,456.272v-4.015a7.392,7.392,0,0,1,7.391-7.392h9.954A7.392,7.392,0,0,1-90,452.257v4.015" fill="#ff7657"/>
            <path id="패스_5847" data-name="패스 5847" d="M-90,456.928a.656.656,0,0,1-.656-.656v-4.016a6.743,6.743,0,0,0-6.735-6.735h-9.954a6.743,6.743,0,0,0-6.735,6.735v4.016a.656.656,0,0,1-.656.656.656.656,0,0,1-.656-.656v-4.016a8.055,8.055,0,0,1,8.047-8.046h9.954a8.055,8.055,0,0,1,8.047,8.046v4.016A.656.656,0,0,1-90,456.928Z" fill="#323232"/>
          </g>
          <g id="그룹_5550" data-name="그룹 5550">
            <g id="그룹_5546" data-name="그룹 5546">
              <g id="그룹_5530" data-name="그룹 5530">
                <path id="패스_5848" data-name="패스 5848" d="M-106.221,437v8.043l3.857,4.022,3.857-4.022V437" fill="#e8b2a6"/>
                <path id="패스_5849" data-name="패스 5849" d="M-102.364,449.717a.657.657,0,0,1-.474-.2l-3.856-4.022a.657.657,0,0,1-.183-.454V437a.656.656,0,0,1,.656-.656.656.656,0,0,1,.656.656v7.78l3.2,3.337,3.2-3.337V437a.656.656,0,0,1,.656-.656.656.656,0,0,1,.656.656v8.043a.657.657,0,0,1-.183.454l-3.856,4.022A.657.657,0,0,1-102.364,449.717Z" fill="#323232"/>
              </g>
              <g id="그룹_5545" data-name="그룹 5545">
                <g id="그룹_5531" data-name="그룹 5531">
                  <circle id="타원_97" data-name="타원 97" cx="3.766" cy="3.766" r="3.766" transform="translate(-106.13 420.332)" fill="#7f4f21"/>
                  <path id="패스_5850" data-name="패스 5850" d="M-102.364,428.52a4.427,4.427,0,0,1-4.422-4.422,4.427,4.427,0,0,1,4.422-4.422,4.427,4.427,0,0,1,4.422,4.422A4.427,4.427,0,0,1-102.364,428.52Zm0-7.532a3.113,3.113,0,0,0-3.11,3.11,3.114,3.114,0,0,0,3.11,3.111,3.114,3.114,0,0,0,3.11-3.111A3.113,3.113,0,0,0-102.364,420.988Z" fill="#323232"/>
                </g>
                <g id="그룹_5544" data-name="그룹 5544">
                  <g id="그룹_5542" data-name="그룹 5542">
                    <g id="그룹_5541" data-name="그룹 5541">
                      <g id="그룹_5540" data-name="그룹 5540">
                        <g id="그룹_5538" data-name="그룹 5538">
                          <g id="그룹_5536" data-name="그룹 5536">
                            <g id="그룹_5534" data-name="그룹 5534">
                              <g id="그룹_5532" data-name="그룹 5532">
                                <path id="패스_5851" data-name="패스 5851" d="M-107.994,435.441a2.075,2.075,0,0,0-2.076-2.076,2.075,2.075,0,0,0-2.076,2.076,2.075,2.075,0,0,0,2.076,2.076A2.075,2.075,0,0,0-107.994,435.441Z" fill="#e8b2a6"/>
                                <path id="패스_5852" data-name="패스 5852" d="M-110.07,438.173a2.735,2.735,0,0,1-2.732-2.732,2.736,2.736,0,0,1,2.732-2.732,2.735,2.735,0,0,1,2.732,2.732A2.734,2.734,0,0,1-110.07,438.173Zm0-4.153a1.422,1.422,0,0,0-1.42,1.421,1.422,1.422,0,0,0,1.42,1.42,1.422,1.422,0,0,0,1.421-1.42A1.423,1.423,0,0,0-110.07,434.02Z" fill="#323232"/>
                              </g>
                              <g id="그룹_5533" data-name="그룹 5533">
                                <path id="패스_5853" data-name="패스 5853" d="M-92.582,435.441a2.076,2.076,0,0,0-2.076-2.076,2.075,2.075,0,0,0-2.076,2.076,2.075,2.075,0,0,0,2.076,2.076A2.076,2.076,0,0,0-92.582,435.441Z" fill="#e8b2a6"/>
                                <path id="패스_5854" data-name="패스 5854" d="M-94.658,438.173a2.734,2.734,0,0,1-2.732-2.732,2.735,2.735,0,0,1,2.732-2.732,2.736,2.736,0,0,1,2.732,2.732A2.735,2.735,0,0,1-94.658,438.173Zm0-4.153a1.423,1.423,0,0,0-1.421,1.421,1.422,1.422,0,0,0,1.421,1.42,1.422,1.422,0,0,0,1.42-1.42A1.422,1.422,0,0,0-94.658,434.02Z" fill="#323232"/>
                              </g>
                            </g>
                            <g id="그룹_5535" data-name="그룹 5535">
                              <path id="패스_5855" data-name="패스 5855" d="M-94.627,430.311v5.821a7.737,7.737,0,0,1-7.737,7.737h0a7.737,7.737,0,0,1-7.737-7.737v-5.821l6.17-3.105" fill="#ffe5d9"/>
                              <path id="패스_5856" data-name="패스 5856" d="M-102.364,444.525a8.4,8.4,0,0,1-8.393-8.393v-5.821a.657.657,0,0,1,.362-.586l6.169-3.1a.655.655,0,0,1,.881.291.656.656,0,0,1-.292.88l-5.808,2.924v5.416a7.09,7.09,0,0,0,7.081,7.081,7.09,7.09,0,0,0,7.081-7.081v-5.821a.656.656,0,0,1,.656-.656.656.656,0,0,1,.656.656v5.821A8.4,8.4,0,0,1-102.364,444.525Z" fill="#323232"/>
                            </g>
                          </g>
                          <g id="그룹_5537" data-name="그룹 5537">
                            <path id="패스_5857" data-name="패스 5857" d="M-104.549,436.709a2.193,2.193,0,0,0-2.192-2.192,2.193,2.193,0,0,0-2.192,2.192,2.192,2.192,0,0,0,2.192,2.192A2.192,2.192,0,0,0-104.549,436.709Z" fill="#ffcfcf"/>
                            <path id="패스_5858" data-name="패스 5858" d="M-95.794,436.709a2.192,2.192,0,0,0-2.192-2.192,2.193,2.193,0,0,0-2.192,2.192,2.192,2.192,0,0,0,2.192,2.192A2.191,2.191,0,0,0-95.794,436.709Z" fill="#ffcfcf"/>
                          </g>
                        </g>
                        <g id="그룹_5539" data-name="그룹 5539">
                          <ellipse id="타원_98" data-name="타원 98" cx="0.771" cy="1.008" rx="0.771" ry="1.008" transform="translate(-106.195 433.577)" fill="#323232"/>
                          <ellipse id="타원_99" data-name="타원 99" cx="0.771" cy="1.008" rx="0.771" ry="1.008" transform="translate(-100.074 433.577)" fill="#323232"/>
                        </g>
                      </g>
                      <path id="패스_5859" data-name="패스 5859" d="M-102.364,435.653a.733.733,0,0,0-.733.733h1.466A.733.733,0,0,0-102.364,435.653Z" fill="#e8b2a6"/>
                    </g>
                    <path id="패스_5860" data-name="패스 5860" d="M-102.364,439.748a4.079,4.079,0,0,1-2.892-1.2.657.657,0,0,1,0-.928.655.655,0,0,1,.927,0,2.783,2.783,0,0,0,3.93,0,.655.655,0,0,1,.927,0,.657.657,0,0,1,0,.928A4.079,4.079,0,0,1-102.364,439.748Z" fill="#323232"/>
                  </g>
                  <g id="그룹_5543" data-name="그룹 5543">
                    <path id="패스_5861" data-name="패스 5861" d="M-109.967,432.222a4.168,4.168,0,0,0,3.741-2.72,2.472,2.472,0,0,1,3.485-.68c2.295,1.275,5.369,3.645,8.083,4.543,0,0,2.289-5.393-2.132-7.774s-8.586-2.21-10.456.17C-107.246,425.761-111.837,426.016-109.967,432.222Z" fill="#7f4f21"/>
                    <path id="패스_5862" data-name="패스 5862" d="M-94.658,434.02a.638.638,0,0,1-.206-.033,28.17,28.17,0,0,1-5.788-3.113c-.864-.553-1.68-1.075-2.407-1.479a1.8,1.8,0,0,0-2.579.4,4.8,4.8,0,0,1-4.329,3.079.656.656,0,0,1-.628-.467c-.725-2.4-.622-4.292.3-5.614a4.168,4.168,0,0,1,2.706-1.653c2.188-2.491,6.6-2.556,11.107-.13,3.913,2.107,3.3,6.551,2.424,8.607A.655.655,0,0,1-94.658,434.02Zm-9.583-6.289a3.733,3.733,0,0,1,1.819.517c.763.424,1.595.957,2.477,1.521a32.117,32.117,0,0,0,4.888,2.75c.41-1.358,1.031-4.7-2.044-6.35-4.048-2.179-7.917-2.181-9.63,0a.653.653,0,0,1-.479.249,2.923,2.923,0,0,0-2.016,1.147c-.614.888-.7,2.214-.259,3.946a3.444,3.444,0,0,0,2.645-2.238.7.7,0,0,1,.053-.111A3.055,3.055,0,0,1-104.241,427.731Z" fill="#323232"/>
                  </g>
                </g>
              </g>
            </g>
            <g id="그룹_5549" data-name="그룹 5549">
              <g id="그룹_5547" data-name="그룹 5547">
                <path id="패스_5863" data-name="패스 5863" d="M-102.272,449.061l-4.281-5.3-3.1,1.55,3.211,4.873Z" fill="#fff"/>
                <path id="패스_5864" data-name="패스 5864" d="M-106.443,450.837a.658.658,0,0,1-.548-.3l-3.211-4.873a.659.659,0,0,1-.086-.531.657.657,0,0,1,.341-.416l3.1-1.551a.657.657,0,0,1,.8.175l4.281,5.3a.656.656,0,0,1,.114.615.656.656,0,0,1-.454.43l-4.171,1.12A.622.622,0,0,1-106.443,450.837Zm-2.257-5.272,2.544,3.86,2.74-.736-3.316-4.108Z" fill="#323232"/>
              </g>
              <g id="그룹_5548" data-name="그룹 5548">
                <path id="패스_5865" data-name="패스 5865" d="M-102.456,449.061l4.281-5.3,3.1,1.55-3.212,4.873Z" fill="#fff"/>
                <path id="패스_5866" data-name="패스 5866" d="M-98.285,450.837a.622.622,0,0,1-.17-.023l-4.171-1.12a.654.654,0,0,1-.454-.43.658.658,0,0,1,.113-.615l4.282-5.3a.657.657,0,0,1,.8-.175l3.1,1.551a.659.659,0,0,1,.34.416.659.659,0,0,1-.086.531l-3.211,4.873A.658.658,0,0,1-98.285,450.837Zm-3.028-2.148,2.741.736,2.544-3.86L-98,444.581Z" fill="#323232"/>
              </g>
            </g>
          </g>
        </g>
        <g id="그룹_5571" data-name="그룹 5571">
          <g id="그룹_5552" data-name="그룹 5552">
            <path id="패스_5867" data-name="패스 5867" d="M-143.979,456.24v-4.209a7.748,7.748,0,0,1,7.748-7.748H-125.8a7.748,7.748,0,0,1,7.748,7.748v4.209" fill="#ffe571"/>
            <path id="패스_5868" data-name="패스 5868" d="M-118.048,456.928a.688.688,0,0,1-.688-.688v-4.209a7.068,7.068,0,0,0-7.061-7.06h-10.434a7.068,7.068,0,0,0-7.06,7.06v4.209a.688.688,0,0,1-.688.688.688.688,0,0,1-.688-.688v-4.209a8.446,8.446,0,0,1,8.436-8.435H-125.8a8.445,8.445,0,0,1,8.436,8.435v4.209A.688.688,0,0,1-118.048,456.928Z" fill="#323232"/>
          </g>
          <g id="그룹_5570" data-name="그룹 5570">
            <g id="그룹_5566" data-name="그룹 5566">
              <g id="그룹_5553" data-name="그룹 5553">
                <path id="패스_5869" data-name="패스 5869" d="M-135.057,436.034v8.432l4.043,4.216,4.043-4.216v-8.432" fill="#ffe2ca"/>
                <path id="패스_5870" data-name="패스 5870" d="M-131.014,449.369a.689.689,0,0,1-.5-.212l-4.043-4.216a.685.685,0,0,1-.191-.476v-8.431a.688.688,0,0,1,.687-.687.688.688,0,0,1,.688.687v8.155l3.355,3.5,3.356-3.5v-8.155a.688.688,0,0,1,.687-.687.688.688,0,0,1,.688.687v8.431a.69.69,0,0,1-.191.476l-4.043,4.216A.69.69,0,0,1-131.014,449.369Z" fill="#323232"/>
              </g>
              <g id="그룹_5564" data-name="그룹 5564">
                <g id="그룹_5563" data-name="그룹 5563">
                  <g id="그룹_5562" data-name="그룹 5562">
                    <g id="그룹_5560" data-name="그룹 5560">
                      <g id="그룹_5558" data-name="그룹 5558">
                        <g id="그룹_5556" data-name="그룹 5556">
                          <g id="그룹_5554" data-name="그룹 5554">
                            <circle id="타원_100" data-name="타원 100" cx="2.225" cy="2.225" r="2.225" transform="translate(-141.182 433.305) rotate(-10.154)" fill="#ffe2ca"/>
                            <path id="패스_5871" data-name="패스 5871" d="M-138.6,437.927a2.828,2.828,0,0,1-2.825-2.824,2.828,2.828,0,0,1,2.825-2.825,2.828,2.828,0,0,1,2.824,2.825A2.827,2.827,0,0,1-138.6,437.927Zm0-4.449a1.627,1.627,0,0,0-1.625,1.625,1.627,1.627,0,0,0,1.625,1.625,1.627,1.627,0,0,0,1.625-1.625A1.627,1.627,0,0,0-138.6,433.478Z" fill="#393939"/>
                          </g>
                          <g id="그룹_5555" data-name="그룹 5555">
                            <circle id="타원_101" data-name="타원 101" cx="2.225" cy="2.225" r="2.225" transform="translate(-125.686 433.208) rotate(-7.968)" fill="#ffe2ca"/>
                            <path id="패스_5872" data-name="패스 5872" d="M-123.175,437.927A2.827,2.827,0,0,1-126,435.1a2.828,2.828,0,0,1,2.824-2.825,2.828,2.828,0,0,1,2.825,2.825A2.828,2.828,0,0,1-123.175,437.927Zm0-4.449A1.627,1.627,0,0,0-124.8,435.1a1.627,1.627,0,0,0,1.625,1.625,1.627,1.627,0,0,0,1.625-1.625A1.627,1.627,0,0,0-123.175,433.478Z" fill="#393939"/>
                          </g>
                        </g>
                        <g id="그룹_5557" data-name="그룹 5557">
                          <path id="패스_5873" data-name="패스 5873" d="M-130.887,443.925h0a7.862,7.862,0,0,1-7.862-7.861v-5.043a7.861,7.861,0,0,1,7.862-7.861h0a7.861,7.861,0,0,1,7.861,7.861v5.043A7.862,7.862,0,0,1-130.887,443.925Z" fill="#ffe2ca"/>
                          <path id="패스_5874" data-name="패스 5874" d="M-130.887,444.525a8.47,8.47,0,0,1-8.461-8.461v-5.043a8.47,8.47,0,0,1,8.461-8.461,8.47,8.47,0,0,1,8.461,8.461v5.043A8.471,8.471,0,0,1-130.887,444.525Zm0-20.766a7.271,7.271,0,0,0-7.262,7.262v5.043a7.27,7.27,0,0,0,7.262,7.261,7.27,7.27,0,0,0,7.261-7.261v-5.043A7.27,7.27,0,0,0-130.887,423.759Z" fill="#393939"/>
                        </g>
                      </g>
                      <g id="그룹_5559" data-name="그룹 5559">
                        <circle id="타원_102" data-name="타원 102" cx="2.612" cy="2.612" r="2.612" transform="translate(-137.875 434.568)" fill="#ffcebd"/>
                        <circle id="타원_103" data-name="타원 103" cx="2.612" cy="2.612" r="2.612" transform="translate(-129.124 434.568)" fill="#ffcebd"/>
                      </g>
                    </g>
                    <g id="그룹_5561" data-name="그룹 5561">
                      <path id="패스_5875" data-name="패스 5875" d="M-133.261,434.139c0,.573-.332,1.038-.741,1.038s-.742-.465-.742-1.038.332-1.039.742-1.039S-133.261,433.565-133.261,434.139Z" fill="#493b39"/>
                      <path id="패스_5876" data-name="패스 5876" d="M-127.031,434.139c0,.573-.332,1.038-.742,1.038s-.741-.465-.741-1.038.332-1.039.741-1.039S-127.031,433.565-127.031,434.139Z" fill="#493b39"/>
                    </g>
                  </g>
                  <path id="패스_5877" data-name="패스 5877" d="M-130.887,439.768a4.572,4.572,0,0,1-3.256-1.349.6.6,0,0,1,0-.848.6.6,0,0,1,.848,0,3.383,3.383,0,0,0,2.408,1,3.386,3.386,0,0,0,2.408-1,.6.6,0,0,1,.848,0,.6.6,0,0,1,0,.848A4.574,4.574,0,0,1-130.887,439.768Z" fill="#393939"/>
                </g>
              </g>
              <g id="그룹_5565" data-name="그룹 5565">
                <path id="패스_5878" data-name="패스 5878" d="M-138.6,432.878a4.943,4.943,0,0,0,2.522-3.041,1.934,1.934,0,0,1,1.928-1.26s.667-1.632,2.151-1.409,3.337,1.038,5.488,1.038a8.634,8.634,0,0,0,3.336,4.672s2.671-7.342-3.485-9.789-8.38-1.187-9.344.964C-136,424.053-141.27,425.758-138.6,432.878Z" fill="#7a6a56"/>
                <path id="패스_5879" data-name="패스 5879" d="M-123.175,433.478a.6.6,0,0,1-.315-.09,8.961,8.961,0,0,1-3.465-4.593,16.124,16.124,0,0,1-3.481-.649,15.852,15.852,0,0,0-1.652-.385c-.988-.148-1.488,1-1.508,1.046a.608.608,0,0,1-.617.366,1.347,1.347,0,0,0-1.3.872,5.518,5.518,0,0,1-2.866,3.392.6.6,0,0,1-.463-.011.6.6,0,0,1-.317-.338c-.995-2.653-1.056-4.915-.184-6.725a5.845,5.845,0,0,1,2.9-2.782c1.43-2.859,4.62-3.191,10.006-1.05,6.62,2.632,3.856,10.473,3.827,10.552a.6.6,0,0,1-.367.362A.6.6,0,0,1-123.175,433.478ZM-132.2,422.34a3.147,3.147,0,0,0-3.26,1.958.6.6,0,0,1-.362.325,4.655,4.655,0,0,0-2.455,2.279,6.875,6.875,0,0,0,0,5.088,4.815,4.815,0,0,0,1.628-2.348,2.568,2.568,0,0,1,2.132-1.671,2.615,2.615,0,0,1,2.6-1.4,16.679,16.679,0,0,1,1.785.413,13.867,13.867,0,0,0,3.613.619.6.6,0,0,1,.581.448,8.486,8.486,0,0,0,2.421,3.843c.463-1.853,1.1-6.472-3.371-8.251A15.08,15.08,0,0,0-132.2,422.34Z" fill="#393939"/>
              </g>
              <path id="패스_5880" data-name="패스 5880" d="M-134.15,429.177a.6.6,0,0,1-.555-.373l-1.854-4.524a.6.6,0,0,1,.328-.782.6.6,0,0,1,.782.327l1.854,4.524a.6.6,0,0,1-.328.783A.6.6,0,0,1-134.15,429.177Z" fill="#393939"/>
            </g>
            <g id="그룹_5569" data-name="그룹 5569">
              <g id="그룹_5567" data-name="그룹 5567">
                <path id="패스_5881" data-name="패스 5881" d="M-130.917,448.681l-4.488-5.559-3.25,1.625,3.367,5.108Z" fill="#fff"/>
                <path id="패스_5882" data-name="패스 5882" d="M-135.29,450.543a.689.689,0,0,1-.574-.309l-3.366-5.108a.689.689,0,0,1-.09-.557.693.693,0,0,1,.357-.437l3.25-1.625a.688.688,0,0,1,.842.183l4.488,5.559a.689.689,0,0,1,.12.645.691.691,0,0,1-.476.451l-4.372,1.174A.683.683,0,0,1-135.29,450.543Zm-2.365-5.527,2.666,4.047,2.873-.772-3.477-4.306Z" fill="#323232"/>
              </g>
              <g id="그룹_5568" data-name="그룹 5568">
                <path id="패스_5883" data-name="패스 5883" d="M-131.11,448.681l4.488-5.559,3.25,1.625-3.367,5.108Z" fill="#fff"/>
                <path id="패스_5884" data-name="패스 5884" d="M-126.738,450.543a.681.681,0,0,1-.178-.024l-4.373-1.174a.687.687,0,0,1-.475-.451.689.689,0,0,1,.119-.645l4.488-5.559a.689.689,0,0,1,.843-.183l3.25,1.625a.693.693,0,0,1,.357.437.7.7,0,0,1-.09.557l-3.367,5.108A.688.688,0,0,1-126.738,450.543Zm-3.174-2.252,2.873.772,2.667-4.047-2.062-1.031Z" fill="#323232"/>
              </g>
            </g>
          </g>
        </g>
        <g id="그룹_5572" data-name="그룹 5572">
          <path id="패스_5885" data-name="패스 5885" d="M-143.861,455.273h-6.813v7.935a4.773,4.773,0,0,0,4.773,4.772h59.2a4.772,4.772,0,0,0,4.772-4.772v-7.935h-57.547" fill="#fff"/>
          <path id="패스_5886" data-name="패스 5886" d="M-86.7,468.814h-59.2a5.613,5.613,0,0,1-5.606-5.607v-7.934a.835.835,0,0,1,.835-.835h6.812a.835.835,0,0,1,.835.835.835.835,0,0,1-.835.834h-5.978v7.1a3.942,3.942,0,0,0,3.937,3.938h59.2a3.942,3.942,0,0,0,3.938-3.938v-7.1h-56.714a.835.835,0,0,1-.834-.834.835.835,0,0,1,.834-.835h57.548a.834.834,0,0,1,.834.835v7.934A5.613,5.613,0,0,1-86.7,468.814Z" fill="#3e3a39"/>
        </g>
      </g>
    </g>
    <g id="그룹_5575" data-name="그룹 5575">
      <path id="패스_5887" data-name="패스 5887" d="M-145.139,422.906h.87a2.245,2.245,0,0,0,2.245-2.244v-4.584a2.245,2.245,0,0,0-2.245-2.244h-10.6a2.245,2.245,0,0,0-2.245,2.244v4.584a2.245,2.245,0,0,0,2.245,2.244h6.258c2,4.367,6.91,3.389,6.91,3.389A4.454,4.454,0,0,1-145.139,422.906Z" fill="#fff"/>
      <path id="패스_5888" data-name="패스 5888" d="M-142.876,427.143a6.818,6.818,0,0,1-6.189-3.5h-5.8a2.989,2.989,0,0,1-2.986-2.985v-4.584a2.989,2.989,0,0,1,2.986-2.986h10.6a2.989,2.989,0,0,1,2.986,2.986v4.584a2.99,2.99,0,0,1-2.767,2.978,3.343,3.343,0,0,0,2.472,1.923.742.742,0,0,1,.623.718.741.741,0,0,1-.6.74A6.85,6.85,0,0,1-142.876,427.143Zm-11.988-12.568a1.5,1.5,0,0,0-1.5,1.5v4.584a1.5,1.5,0,0,0,1.5,1.5h6.258a.739.739,0,0,1,.673.432,4.954,4.954,0,0,0,3.284,2.814,6.449,6.449,0,0,1-1.2-2.288.74.74,0,0,1,.113-.658.741.741,0,0,1,.6-.3h.87a1.505,1.505,0,0,0,1.5-1.5v-4.584a1.505,1.505,0,0,0-1.5-1.5Z" fill="#323232"/>
    </g>
    <g id="그룹_5576" data-name="그룹 5576">
      <path id="패스_5889" data-name="패스 5889" d="M-90.56,418.487h-.871a2.244,2.244,0,0,1-2.244-2.244v-4.584a2.244,2.244,0,0,1,2.244-2.244h10.6a2.244,2.244,0,0,1,2.244,2.244v4.584a2.244,2.244,0,0,1-2.244,2.244h-6.258c-2,4.367-6.91,3.389-6.91,3.389A4.454,4.454,0,0,0-90.56,418.487Z" fill="#fff"/>
      <path id="패스_5890" data-name="패스 5890" d="M-94.148,422.6a.739.739,0,0,1-.6-.74.74.74,0,0,1,.623-.718,3.346,3.346,0,0,0,2.472-1.924,2.989,2.989,0,0,1-2.768-2.978v-4.583a2.989,2.989,0,0,1,2.986-2.986h10.6a2.989,2.989,0,0,1,2.985,2.986v4.583a2.989,2.989,0,0,1-2.985,2.986h-5.8a6.819,6.819,0,0,1-6.189,3.5A6.858,6.858,0,0,1-94.148,422.6Zm2.717-12.446a1.5,1.5,0,0,0-1.5,1.5v4.583a1.505,1.505,0,0,0,1.5,1.5h.871a.741.741,0,0,1,.6.3.743.743,0,0,1,.113.658,6.452,6.452,0,0,1-1.2,2.287,4.946,4.946,0,0,0,3.283-2.813.742.742,0,0,1,.674-.432h6.258a1.505,1.505,0,0,0,1.5-1.5v-4.583a1.5,1.5,0,0,0-1.5-1.5Z" fill="#323232"/>
    </g>
  </g>
</svg>
