<svg xmlns="http://www.w3.org/2000/svg" xmlns:xlink="http://www.w3.org/1999/xlink" width="25" height="25" viewBox="0 0 25 25">
  <defs>
    <clipPath id="clip-path">
      <rect id="사각형_229" data-name="사각형 229" width="25" height="25" transform="translate(1528 1001)" fill="#fff"/>
    </clipPath>
  </defs>
  <g id="icon_화상수업" transform="translate(-1528 -1001)" opacity="0.8" clip-path="url(#clip-path)">
    <g id="Layer_2" data-name="Layer 2" transform="translate(1528 1002.611)">
      <g id="Layer_13" data-name="Layer 13">
        <path id="패스_191" data-name="패스 191" d="M23,11.221a2.2,2.2,0,0,0,2-2.188V2.2A2.2,2.2,0,0,0,22.8,0H15.527a2.2,2.2,0,0,0-2.2,2.2V5.078H4.2A2.2,2.2,0,0,0,2,7.275v8.789a2.179,2.179,0,0,0,.126.732h-.81A1.318,1.318,0,0,0,0,18.115a3.667,3.667,0,0,0,3.662,3.662H21.338A3.666,3.666,0,0,0,25,18.115,1.318,1.318,0,0,0,23.682,16.8h-.81A2.179,2.179,0,0,0,23,16.064ZM14.795,2.2a.732.732,0,0,1,.732-.732H22.8a.732.732,0,0,1,.732.732V9.033a.732.732,0,0,1-.732.732H16.016a.732.732,0,0,0-.388.111l-1.477.923.613-2.044a.732.732,0,0,0,.031-.21Zm6.543,18.115H3.662A2.2,2.2,0,0,1,1.47,18.262H23.53a2.2,2.2,0,0,1-2.192,2.051ZM6.982,11.279a.83.83,0,1,1,.83.83A.83.83,0,0,1,6.982,11.279ZM6.592,14.4c0-.442.57-.83,1.221-.83a1.5,1.5,0,0,1,.922.3.721.721,0,0,1,.3.532V16.8H6.592ZM10.5,16.8V14.4a2.157,2.157,0,0,0-.849-1.675L9.612,12.7a2.295,2.295,0,1,0-3.6,0,2.16,2.16,0,0,0-.887,1.7V16.8H4.2a.732.732,0,0,1-.732-.732V7.275A.732.732,0,0,1,4.2,6.543H13.33V8.438l-.583,1.941a1.465,1.465,0,0,0,2.179,1.663l1.3-.812h5.308v4.834a.732.732,0,0,1-.732.732Z" fill="#fff"/>
        <path id="패스_192" data-name="패스 192" d="M18.75,6.641H17.188a.732.732,0,0,0,0,1.465H18.75a.732.732,0,1,0,0-1.465Z" fill="#fff"/>
        <path id="패스_193" data-name="패스 193" d="M17.188,4.59h3.906a.732.732,0,1,0,0-1.465H17.188a.732.732,0,0,0,0,1.465Z" fill="#fff"/>
      </g>
    </g>
  </g>
</svg>
