<svg xmlns="http://www.w3.org/2000/svg" xmlns:xlink="http://www.w3.org/1999/xlink" width="20" height="20" viewBox="0 0 20 20">
  <defs>
    <clipPath id="clip-path">
      <rect id="사각형_1310" data-name="사각형 1310" width="20" height="20" transform="translate(1528 561)" fill="#222"/>
    </clipPath>
  </defs>
  <g id="icon_그리기" transform="translate(-1528 -561)" clip-path="url(#clip-path)">
    <g id="Layer_2" data-name="Layer 2" transform="translate(1528.678 561)">
      <g id="그리기" transform="translate(0 0)">
        <path id="패스_1671" data-name="패스 1671" d="M19.437,3.852,15.74.157a.53.53,0,0,0-.75,0L5.8,9.347a.533.533,0,0,0-.145.272l-.916,4.613a.53.53,0,0,0,.52.633.544.544,0,0,0,.1-.01l4.612-.916a.529.529,0,0,0,.271-.145L19.437,4.6A.53.53,0,0,0,19.437,3.852ZM6.145,12.584l.479-2.411,2.795,2.8-2.411.479Z" transform="translate(-0.947 -0.002)" fill="#222"/>
        <path id="패스_1672" data-name="패스 1672" d="M13.871,19.792C8.8,17.673,5.5,21.18,4.519,21.713c-1.261.682-3.034,1.481-3.446.1-.248-.836,1.1-1.73,1.989-2.008.65-.2.372-1.227-.282-1.02-1.384.432-3.034,1.6-2.745,3.239.215,1.219,1.743,2.331,4.689.785,2.141-1.123,3.6-3.45,8.106-2.245a4.469,4.469,0,0,1,3.192,2.83c.224.641,1.248.365,1.021-.282A5.463,5.463,0,0,0,13.871,19.792Z" transform="translate(-0.002 -3.752)" fill="#222"/>
      </g>
    </g>
  </g>
</svg>
