<svg xmlns="http://www.w3.org/2000/svg" xmlns:xlink="http://www.w3.org/1999/xlink" width="19" height="19" viewBox="0 0 19 19">
  <defs>
    <clipPath id="clip-path">
      <rect id="사각형_372" data-name="사각형 372" width="19" height="19" transform="translate(1183 725)" fill="#fff"/>
    </clipPath>
  </defs>
  <g id="icon_스마일" transform="translate(-1183 -725)" clip-path="url(#clip-path)">
    <g id="smile_1_" data-name="smile (1)" transform="translate(1183 725)">
      <circle id="타원_41" data-name="타원 41" cx="9.5" cy="9.5" r="9.5" fill="#ffd54f"/>
      <g id="그룹_37" data-name="그룹 37">
        <circle id="타원_42" data-name="타원 42" cx="1.583" cy="1.583" r="1.583" transform="translate(3.958 5.542)" fill="#6d4c41"/>
        <circle id="타원_43" data-name="타원 43" cx="1.583" cy="1.583" r="1.583" transform="translate(11.875 5.542)" fill="#6d4c41"/>
        <path id="패스_297" data-name="패스 297" d="M9.5,15.862a6.148,6.148,0,0,1-4.378-1.814.594.594,0,1,1,.84-.84,5,5,0,0,0,7.077,0,.594.594,0,0,1,.84.84A6.158,6.158,0,0,1,9.5,15.862Z" fill="#6d4c41"/>
      </g>
    </g>
  </g>
</svg>
