<svg xmlns="http://www.w3.org/2000/svg" xmlns:xlink="http://www.w3.org/1999/xlink" width="19" height="19" viewBox="0 0 19 19">
  <defs>
    <clipPath id="clip-path">
      <rect id="사각형_274" data-name="사각형 274" width="19" height="19" transform="translate(1351 565)" fill="#fff"/>
    </clipPath>
  </defs>
  <g id="icon_깜깜이" transform="translate(-1351 -565)" clip-path="url(#clip-path)">
    <g id="Layer_2" data-name="Layer 2" transform="translate(1351 566.354)">
      <g id="Layer_17" data-name="Layer 17">
        <path id="패스_241" data-name="패스 241" d="M9.5,3.181c-4.707,0-8.522,4.97-8.522,4.97S4.8,13.121,9.5,13.121s8.522-4.97,8.522-4.97S14.207,3.181,9.5,3.181Zm0,8.151a3.181,3.181,0,1,1,3.181-3.181A3.181,3.181,0,0,1,9.5,11.332Z" fill="#b0b0b0"/>
        <path id="패스_242" data-name="패스 242" d="M18.871,7.753a18.015,18.015,0,0,0-4.1-3.909l2.677-2.678A.679.679,0,0,0,16.5.19l-.017.017L13.558,3.13A8.773,8.773,0,0,0,9.5,2.044C4.343,2.044.3,7.519.13,7.753a.678.678,0,0,0,0,.8,18.009,18.009,0,0,0,4.1,3.908L1.556,15.136a.679.679,0,0,0,.943.976l.017-.017,2.925-2.923A8.773,8.773,0,0,0,9.5,14.258c5.157,0,9.2-5.475,9.371-5.708a.678.678,0,0,0,0-.8ZM5.22,11.474A16.893,16.893,0,0,1,1.543,8.151c1-1.21,4.238-4.75,7.957-4.75a7.181,7.181,0,0,1,3.046.747L11.368,5.325a3.388,3.388,0,0,0-4.7,4.694Zm6.111-4.194a2,2,0,0,1,.2.872A2.036,2.036,0,0,1,9.5,10.187a2,2,0,0,1-.872-.2ZM7.667,9.023a2,2,0,0,1-.2-.872A2.036,2.036,0,0,1,9.5,6.115a2,2,0,0,1,.872.2ZM9.5,12.9a7.183,7.183,0,0,1-3.046-.747l1.181-1.178a3.388,3.388,0,0,0,4.694-4.694L13.78,4.83a16.9,16.9,0,0,1,3.677,3.321c-1,1.21-4.238,4.751-7.957,4.751Z" fill="#222"/>
      </g>
    </g>
  </g>
</svg>
