<svg xmlns="http://www.w3.org/2000/svg" xmlns:xlink="http://www.w3.org/1999/xlink" width="25" height="25" viewBox="0 0 25 25">
  <defs>
    <clipPath id="clip-path">
      <rect id="사각형_507" data-name="사각형 507" width="25" height="25" transform="translate(971 158)" fill="#303d53"/>
    </clipPath>
  </defs>
  <g id="마스크_그룹_136" data-name="마스크 그룹 136" transform="translate(-971 -158)" clip-path="url(#clip-path)">
    <g id="web-browser_1_" data-name="web-browser (1)" transform="translate(971 158)">
      <g id="그룹_98" data-name="그룹 98">
        <path id="패스_367" data-name="패스 367" d="M11.979,15.365H7.031a.781.781,0,0,1,0-1.562h4.948a.781.781,0,0,1,0,1.563Z"/>
      </g>
      <g id="그룹_99" data-name="그룹 99">
        <path id="패스_368" data-name="패스 368" d="M9.115,17.708a.782.782,0,0,1-.584-.263L6.447,15.1a.78.78,0,0,1,0-1.038L8.53,11.721A.781.781,0,0,1,9.7,12.759L8.077,14.583,9.7,16.408a.781.781,0,0,1-.584,1.3Z"/>
      </g>
      <g id="그룹_100" data-name="그룹 100">
        <path id="패스_369" data-name="패스 369" d="M17.969,15.365h-5.99a.781.781,0,0,1,0-1.562h5.99a.781.781,0,0,1,0,1.563Z"/>
      </g>
      <g id="그룹_101" data-name="그룹 101">
        <path id="패스_370" data-name="패스 370" d="M15.885,17.708a.781.781,0,0,1-.583-1.3l1.621-1.825L15.3,12.758a.781.781,0,1,1,1.168-1.039l2.083,2.344a.78.78,0,0,1,0,1.038l-2.083,2.344a.775.775,0,0,1-.583.264Z"/>
      </g>
      <g id="그룹_102" data-name="그룹 102">
        <path id="패스_371" data-name="패스 371" d="M22.135,23.958H2.865A2.867,2.867,0,0,1,0,21.094V3.906A2.867,2.867,0,0,1,2.865,1.042H22.135A2.867,2.867,0,0,1,25,3.906V21.094A2.867,2.867,0,0,1,22.135,23.958ZM2.865,2.6a1.3,1.3,0,0,0-1.3,1.3V21.094a1.3,1.3,0,0,0,1.3,1.3H22.135a1.3,1.3,0,0,0,1.3-1.3V3.906a1.3,1.3,0,0,0-1.3-1.3Z"/>
      </g>
      <g id="그룹_103" data-name="그룹 103">
        <path id="패스_372" data-name="패스 372" d="M24.219,6.25H.781a.781.781,0,0,1,0-1.562H24.219a.781.781,0,0,1,0,1.563Z"/>
      </g>
    </g>
  </g>
</svg>
