<svg xmlns="http://www.w3.org/2000/svg" xmlns:xlink="http://www.w3.org/1999/xlink" width="18" height="18" viewBox="0 0 18 18">
  <defs>
    <clipPath id="clip-path">
      <rect id="사각형_538" data-name="사각형 538" width="18" height="18" fill="#fff" stroke="#707070" stroke-width="1"/>
    </clipPath>
  </defs>
  <g id="icon_heart" clip-path="url(#clip-path)">
    <g id="like" transform="translate(0 1.055)">
      <g id="그룹_181" data-name="그룹 181">
        <path id="패스_784" data-name="패스 784" d="M13.219,1.465a4.262,4.262,0,0,0-2.662.92A6.063,6.063,0,0,0,9,4.258,6.062,6.062,0,0,0,7.443,2.385a4.262,4.262,0,0,0-2.662-.92A4.886,4.886,0,0,0,0,6.651c0,3.194,2.564,5.379,6.447,8.688.659.562,1.406,1.2,2.183,1.878a.563.563,0,0,0,.741,0c.777-.679,1.524-1.316,2.184-1.878C15.436,12.03,18,9.845,18,6.651A4.886,4.886,0,0,0,13.219,1.465Z" transform="translate(0 -1.465)" fill="#ff6370"/>
      </g>
    </g>
  </g>
</svg>
