<svg xmlns="http://www.w3.org/2000/svg" xmlns:xlink="http://www.w3.org/1999/xlink" width="25" height="25" viewBox="0 0 25 25">
  <defs>
    <clipPath id="clip-path">
      <rect id="사각형_221" data-name="사각형 221" width="25" height="25" transform="translate(1525 163)" fill="#00a58a"/>
    </clipPath>
  </defs>
  <g id="icon_수업" transform="translate(-1525 -163)" clip-path="url(#clip-path)">
    <g id="Layer_2" data-name="Layer 2" transform="translate(1525 165.837)">
      <g id="수업">
        <path id="패스_163" data-name="패스 163" d="M22.536,12.3a.5.5,0,0,1-.107-.012,14.629,14.629,0,0,0-2.507-.333,14.637,14.637,0,0,0-2.507.333.488.488,0,1,1-.213-.953,15.329,15.329,0,0,1,2.72-.356,15.378,15.378,0,0,1,2.72.356.488.488,0,0,1-.106.965Z" transform="translate(-2.803 -1.829)" fill="#00a58a"/>
        <path id="패스_164" data-name="패스 164" d="M22.536,15.561a.5.5,0,0,1-.107-.012,14.629,14.629,0,0,0-2.507-.333,14.637,14.637,0,0,0-2.507.333A.488.488,0,0,1,17.2,14.6a15.329,15.329,0,0,1,2.72-.356,15.378,15.378,0,0,1,2.72.356.488.488,0,0,1-.106.965Z" transform="translate(-2.803 -2.373)" fill="#00a58a"/>
        <path id="패스_165" data-name="패스 165" d="M22.536,9.033a.5.5,0,0,1-.107-.012,14.648,14.648,0,0,0-2.507-.332,14.657,14.657,0,0,0-2.507.332.488.488,0,1,1-.213-.953,15.346,15.346,0,0,1,2.72-.356,15.445,15.445,0,0,1,2.72.356.488.488,0,0,1-.106.965Z" transform="translate(-2.803 -1.285)" fill="#00a58a"/>
        <path id="패스_166" data-name="패스 166" d="M22.536,5.769a.472.472,0,0,1-.107-.012,14.648,14.648,0,0,0-2.507-.332,14.657,14.657,0,0,0-2.507.332A.488.488,0,1,1,17.2,4.8a15.4,15.4,0,0,1,2.72-.356,15.445,15.445,0,0,1,2.72.356.488.488,0,0,1-.106.965Z" transform="translate(-2.803 -0.741)" fill="#00a58a"/>
        <path id="패스_167" data-name="패스 167" d="M11.329,12.3a.5.5,0,0,1-.107-.012,14.62,14.62,0,0,0-2.507-.333,14.637,14.637,0,0,0-2.507.333A.488.488,0,1,1,6,11.333a15.336,15.336,0,0,1,2.72-.356,15.385,15.385,0,0,1,2.72.356.488.488,0,0,1-.106.965Z" transform="translate(-0.936 -1.829)" fill="#00a58a"/>
        <path id="패스_168" data-name="패스 168" d="M11.329,15.561a.5.5,0,0,1-.107-.012,14.62,14.62,0,0,0-2.507-.333,14.637,14.637,0,0,0-2.507.333A.488.488,0,1,1,6,14.6a15.336,15.336,0,0,1,2.72-.356,15.385,15.385,0,0,1,2.72.356.488.488,0,0,1-.106.965Z" transform="translate(-0.936 -2.373)" fill="#00a58a"/>
        <path id="패스_169" data-name="패스 169" d="M6.1,9.033A.488.488,0,0,1,6,8.068a15.354,15.354,0,0,1,2.72-.356,15.453,15.453,0,0,1,2.72.356.488.488,0,0,1-.213.953,14.64,14.64,0,0,0-2.507-.332,14.657,14.657,0,0,0-2.507.332A.505.505,0,0,1,6.1,9.033Z" transform="translate(-0.936 -1.285)" fill="#00a58a"/>
        <path id="패스_170" data-name="패스 170" d="M6.1,5.769A.488.488,0,0,1,6,4.8a15.4,15.4,0,0,1,2.72-.356,15.453,15.453,0,0,1,2.72.356.488.488,0,1,1-.213.953,14.64,14.64,0,0,0-2.507-.332,14.657,14.657,0,0,0-2.507.332A.475.475,0,0,1,6.1,5.769Z" transform="translate(-0.936 -0.741)" fill="#00a58a"/>
        <path id="패스_171" data-name="패스 171" d="M24.267,2.825H22.492V1.465a.733.733,0,0,0-.543-.708A23.022,23.022,0,0,0,17.172,0a24.8,24.8,0,0,0-4.689.71A22.028,22.028,0,0,0,7.891,0a25.973,25.973,0,0,0-4.87.755.733.733,0,0,0-.555.711v1.36H.733A.733.733,0,0,0,0,3.558V18.593a.733.733,0,0,0,.733.733H24.267A.733.733,0,0,0,25,18.593V3.558a.733.733,0,0,0-.733-.733ZM13.212,4.29V2.046a21.722,21.722,0,0,1,3.96-.581,19.457,19.457,0,0,1,3.855.573V15.187a19.792,19.792,0,0,0-3.907-.534,19.792,19.792,0,0,0-3.907.534Zm-9.28,0V2.046a21.722,21.722,0,0,1,3.96-.581,19.457,19.457,0,0,1,3.855.573V15.187a19.792,19.792,0,0,0-3.907-.534,19.792,19.792,0,0,0-3.907.534Zm19.6,13.57H1.465V4.29h1V16.118a.733.733,0,0,0,.922.708,21.953,21.953,0,0,1,4.451-.708,21.9,21.9,0,0,1,4.451.708l.045.011h0a.734.734,0,0,0,.074.011h.012a.663.663,0,0,0,.07,0h.021a.409.409,0,0,0,.059-.005h.017c.024,0,.049-.009.073-.015h0a21.953,21.953,0,0,1,4.451-.708,21.9,21.9,0,0,1,4.451.708.733.733,0,0,0,.924-.709V4.29h1.043Z" fill="#00a58a"/>
      </g>
    </g>
  </g>
</svg>
