<svg xmlns="http://www.w3.org/2000/svg" xmlns:xlink="http://www.w3.org/1999/xlink" width="20" height="20" viewBox="0 0 20 20">
  <defs>
    <clipPath id="clip-path">
      <rect id="사각형_287" data-name="사각형 287" width="20" height="20" transform="translate(1279 511)" fill="#fff"/>
    </clipPath>
  </defs>
  <g id="icon_텍스트" transform="translate(-1279 -511)" clip-path="url(#clip-path)">
    <g id="text_1_" data-name="text (1)" transform="translate(1279 511)">
      <path id="패스_271" data-name="패스 271" d="M.586,4.462a.586.586,0,0,0,.586-.586v-2.7h2.7A.586.586,0,1,0,3.876,0H.586A.586.586,0,0,0,0,.586v3.29A.586.586,0,0,0,.586,4.462Z" fill="#222"/>
      <path id="패스_272" data-name="패스 272" d="M18.637,0h-3.29a.586.586,0,1,0,0,1.172h2.7v2.7a.586.586,0,1,0,1.172,0V.586A.586.586,0,0,0,18.637,0Z" transform="translate(0.777)" fill="#222"/>
      <path id="패스_273" data-name="패스 273" d="M18.637,14.761a.586.586,0,0,0-.586.586v2.7h-2.7a.586.586,0,1,0,0,1.172h3.29a.586.586,0,0,0,.586-.586v-3.29A.586.586,0,0,0,18.637,14.761Z" transform="translate(0.777 0.777)" fill="#222"/>
      <path id="패스_274" data-name="패스 274" d="M3.876,18.051h-2.7v-2.7a.586.586,0,1,0-1.172,0v3.29a.586.586,0,0,0,.586.586h3.29a.586.586,0,1,0,0-1.172Z" transform="translate(0 0.777)" fill="#222"/>
      <path id="패스_275" data-name="패스 275" d="M16.213,7.3V3.6a.333.333,0,0,0-.333-.332H3.759a.333.333,0,0,0-.333.332V7.3a.333.333,0,0,0,.333.333H5.527A.333.333,0,0,0,5.859,7.3V6.036A.333.333,0,0,1,6.192,5.7H8.27a.333.333,0,0,1,.333.333v9.146a.333.333,0,0,1-.333.333H7.361a.333.333,0,0,0-.333.333v1.767a.333.333,0,0,0,.333.332h4.916a.333.333,0,0,0,.333-.332V15.848a.333.333,0,0,0-.333-.333h-.909a.333.333,0,0,1-.333-.333V6.036a.333.333,0,0,1,.333-.333h2.079a.333.333,0,0,1,.333.333V7.3a.333.333,0,0,0,.332.333H15.88A.333.333,0,0,0,16.213,7.3Z" transform="translate(0.18 0.172)" fill="#222"/>
    </g>
  </g>
</svg>
