<svg xmlns="http://www.w3.org/2000/svg" xmlns:xlink="http://www.w3.org/1999/xlink" width="19" height="19" viewBox="0 0 19 19">
  <defs>
    <clipPath id="clip-path">
      <rect id="사각형_373" data-name="사각형 373" width="19" height="19" transform="translate(1183 770)" fill="#fff"/>
    </clipPath>
  </defs>
  <g id="icon_하트" transform="translate(-1183 -770)" clip-path="url(#clip-path)">
    <g id="in-love" transform="translate(1183 770)">
      <circle id="타원_44" data-name="타원 44" cx="9.5" cy="9.5" r="9.5" fill="#ffd54f"/>
      <g id="그룹_38" data-name="그룹 38">
        <path id="패스_298" data-name="패스 298" d="M15.327,11.333a.593.593,0,0,0-.484-.25H4.156a.595.595,0,0,0-.561.79,6.259,6.259,0,0,0,11.809,0,.6.6,0,0,0-.077-.54Z" fill="#e53935"/>
        <path id="패스_299" data-name="패스 299" d="M14.1,4.75a1.8,1.8,0,0,0-1.041.328,1.8,1.8,0,0,0-1.041-.328,1.682,1.682,0,0,0-1.73,1.626c0,1.364,2.03,2.811,2.438,3.088a.595.595,0,0,0,.667,0c.408-.276,2.438-1.723,2.438-3.087A1.682,1.682,0,0,0,14.1,4.75Z" fill="#e53935"/>
        <path id="패스_300" data-name="패스 300" d="M6.979,4.75a1.8,1.8,0,0,0-1.041.328A1.8,1.8,0,0,0,4.9,4.75a1.682,1.682,0,0,0-1.73,1.626C3.167,7.74,5.2,9.187,5.6,9.464a.595.595,0,0,0,.667,0c.408-.276,2.438-1.723,2.438-3.087A1.682,1.682,0,0,0,6.979,4.75Z" fill="#e53935"/>
      </g>
    </g>
  </g>
</svg>
