<svg xmlns="http://www.w3.org/2000/svg" xmlns:xlink="http://www.w3.org/1999/xlink" width="19" height="19" viewBox="0 0 19 19">
  <defs>
    <clipPath id="clip-path">
      <rect id="사각형_363" data-name="사각형 363" width="19" height="19" transform="translate(1177 646)" fill="#fff"/>
    </clipPath>
  </defs>
  <g id="icon_별" transform="translate(-1177 -646)" clip-path="url(#clip-path)">
    <g id="star-of-favorites-outline" transform="translate(1177 646)">
      <g id="그룹_34" data-name="그룹 34">
        <path id="패스_287" data-name="패스 287" d="M18.36,6.4a1.829,1.829,0,0,0-.948-.436l-4.331-.629L11.145,1.413a1.833,1.833,0,0,0-3.29,0L5.918,5.337l-4.331.629A1.833,1.833,0,0,0,.57,9.1L3.7,12.151l-.74,4.313A1.833,1.833,0,0,0,5.626,18.4L9.5,16.361,13.374,18.4a1.834,1.834,0,0,0,2.662-1.934l-.74-4.313L18.43,9.1A1.837,1.837,0,0,0,18.36,6.4Zm-.874,1.725L14.025,11.5a.483.483,0,0,0-.139.427l.817,4.764a.481.481,0,0,1-.7.509L9.725,14.952a.483.483,0,0,0-.449,0L5,17.2a.481.481,0,0,1-.7-.509l.817-4.764a.483.483,0,0,0-.139-.427L1.514,8.128A.483.483,0,0,1,1.781,7.3l4.783-.7a.483.483,0,0,0,.364-.264L9.067,2.011a.483.483,0,0,1,.866,0l2.139,4.334a.483.483,0,0,0,.364.264l4.783.7A.483.483,0,0,1,17.486,8.128Z"/>
        <path id="패스_288" data-name="패스 288" d="M14.227,18.626a1.858,1.858,0,0,1-.861-.214L9.5,16.379,5.634,18.412a1.85,1.85,0,0,1-2.685-1.951l.738-4.305L.559,9.107A1.849,1.849,0,0,1,1.585,5.951l4.323-.628L7.841,1.406a1.849,1.849,0,0,1,3.319,0l1.933,3.917,4.323.628a1.849,1.849,0,0,1,1.025,3.156l-3.128,3.049.738,4.305a1.851,1.851,0,0,1-1.824,2.164ZM9.5,16.344l.007,0,3.874,2.037a1.818,1.818,0,0,0,2.639-1.917l-.741-4.322,3.14-3.061a1.818,1.818,0,0,0-1.008-3.1l-4.339-.63,0-.007L11.131,1.42a1.818,1.818,0,0,0-3.262,0L5.928,5.352H5.92l-4.331.629a1.818,1.818,0,0,0-1.008,3.1l3.14,3.061v.008l-.74,4.313a1.818,1.818,0,0,0,2.639,1.917Zm4.728.93A.494.494,0,0,1,14,17.215L9.717,14.966a.475.475,0,0,0-.435,0L5,17.215a.494.494,0,0,1-.232.058.5.5,0,0,1-.383-.18.489.489,0,0,1-.108-.4L5.1,11.926a.467.467,0,0,0-.134-.413L1.5,8.139a.5.5,0,0,1,.276-.85l4.783-.7a.467.467,0,0,0,.352-.255L9.053,2a.5.5,0,0,1,.894,0l2.139,4.334a.467.467,0,0,0,.352.255l4.783.7a.5.5,0,0,1,.276.85l-3.461,3.374a.467.467,0,0,0-.134.413l.817,4.764a.489.489,0,0,1-.108.4A.5.5,0,0,1,14.227,17.274ZM9.5,14.881a.5.5,0,0,1,.232.057l4.278,2.249a.464.464,0,0,0,.217.055.469.469,0,0,0,.359-.169.457.457,0,0,0,.1-.378l-.817-4.764a.5.5,0,0,1,.143-.441l3.461-3.374a.467.467,0,0,0-.259-.8l-4.783-.7a.5.5,0,0,1-.375-.273L9.919,2.018a.467.467,0,0,0-.838,0L6.942,6.352a.5.5,0,0,1-.375.273l-4.783.7a.467.467,0,0,0-.259.8L4.986,11.49a.5.5,0,0,1,.143.441L4.312,16.7a.458.458,0,0,0,.1.378.469.469,0,0,0,.359.169.463.463,0,0,0,.217-.055l4.278-2.249A.5.5,0,0,1,9.5,14.881Z"/>
      </g>
    </g>
  </g>
</svg>
