<svg xmlns="http://www.w3.org/2000/svg" xmlns:xlink="http://www.w3.org/1999/xlink" width="20" height="20" viewBox="0 0 20 20">
  <defs>
    <clipPath id="clip-path">
      <rect id="사각형_363" data-name="사각형 363" width="20" height="20" transform="translate(1177 646)" fill="#fff"/>
    </clipPath>
  </defs>
  <g id="icon_별" transform="translate(-1177 -646)" clip-path="url(#clip-path)">
    <g id="star-of-favorites-outline" transform="translate(1177 646.394)">
      <g id="그룹_34" data-name="그룹 34" transform="translate(0 0)">
        <path id="패스_287" data-name="패스 287" d="M19.326,6.719a1.925,1.925,0,0,0-1-.459L13.77,5.6,11.731,1.467a1.93,1.93,0,0,0-3.463,0L6.229,5.6,1.67,6.26A1.93,1.93,0,0,0,.6,9.554L3.9,12.77,3.12,17.31a1.93,1.93,0,0,0,2.8,2.036L10,17.2l4.078,2.144a1.931,1.931,0,0,0,2.8-2.036L16.1,12.77l3.3-3.216a1.933,1.933,0,0,0-.073-2.835Zm-.92,1.816-3.643,3.551a.508.508,0,0,0-.146.45l.86,5.014a.507.507,0,0,1-.737.536l-4.5-2.367a.508.508,0,0,0-.473,0l-4.5,2.367a.507.507,0,0,1-.737-.536l.86-5.014a.508.508,0,0,0-.146-.45L1.593,8.535a.508.508,0,0,1,.282-.867l5.035-.732a.508.508,0,0,0,.383-.278L9.543,2.1a.508.508,0,0,1,.911,0l2.252,4.562a.508.508,0,0,0,.383.278l5.035.732A.508.508,0,0,1,18.406,8.535Z" transform="translate(0.001 -0.374)"/>
        <path id="패스_288" data-name="패스 288" d="M14.976,19.586a1.955,1.955,0,0,1-.906-.225L10,17.222l-4.07,2.14A1.947,1.947,0,0,1,3.1,17.308l.777-4.532L.589,9.567a1.947,1.947,0,0,1,1.08-3.322l4.55-.661L8.253,1.46a1.947,1.947,0,0,1,3.493,0l2.035,4.123,4.55.661a1.947,1.947,0,0,1,1.079,3.322l-3.293,3.209.777,4.532a1.949,1.949,0,0,1-1.92,2.278ZM10,17.184l.008,0,4.078,2.144a1.914,1.914,0,0,0,2.778-2.018l-.78-4.549,3.305-3.222a1.913,1.913,0,0,0-1.061-3.266l-4.568-.664,0-.008L11.717,1.475a1.913,1.913,0,0,0-3.434,0L6.24,5.614H6.232l-4.559.662A1.913,1.913,0,0,0,.612,9.543l3.305,3.222v.009l-.779,4.54a1.913,1.913,0,0,0,2.778,2.018Zm4.976.979a.52.52,0,0,1-.244-.061l-4.5-2.367a.5.5,0,0,0-.458,0L5.268,18.1a.52.52,0,0,1-.244.061.527.527,0,0,1-.4-.189.514.514,0,0,1-.114-.425l.86-5.014a.491.491,0,0,0-.141-.435L1.582,8.548a.525.525,0,0,1,.291-.9l5.035-.732a.492.492,0,0,0,.37-.269L9.529,2.09a.525.525,0,0,1,.941,0l2.252,4.562a.491.491,0,0,0,.37.269l5.035.732a.525.525,0,0,1,.291.9L14.775,12.1a.491.491,0,0,0-.141.435l.86,5.014a.514.514,0,0,1-.114.425A.527.527,0,0,1,14.976,18.163ZM10,15.645a.527.527,0,0,1,.244.06l4.5,2.367a.488.488,0,0,0,.229.058.494.494,0,0,0,.378-.178.481.481,0,0,0,.107-.4L14.6,12.54a.525.525,0,0,1,.151-.465l3.643-3.551a.492.492,0,0,0-.272-.838l-5.035-.732a.525.525,0,0,1-.4-.287L10.441,2.1a.492.492,0,0,0-.882,0L7.307,6.667a.525.525,0,0,1-.4.287l-5.035.732a.492.492,0,0,0-.272.838l3.643,3.551a.525.525,0,0,1,.151.465l-.86,5.014a.482.482,0,0,0,.107.4.494.494,0,0,0,.378.178.488.488,0,0,0,.229-.058l4.5-2.367A.527.527,0,0,1,10,15.645Z" transform="translate(0 -0.374)"/>
      </g>
    </g>
  </g>
</svg>
