<svg xmlns="http://www.w3.org/2000/svg" xmlns:xlink="http://www.w3.org/1999/xlink" width="19" height="19" viewBox="0 0 19 19">
  <defs>
    <clipPath id="clip-path">
      <rect id="사각형_271" data-name="사각형 271" width="19" height="19" transform="translate(1391 441)" fill="#fff"/>
    </clipPath>
  </defs>
  <g id="icon_타이머" transform="translate(-1391 -441)" clip-path="url(#clip-path)">
    <path id="hourglass_1_" data-name="hourglass (1)" d="M16.18,17.887H14.51V15.2a6.426,6.426,0,0,0-3.452-5.7A6.426,6.426,0,0,0,14.51,3.8V1.113h1.67A.557.557,0,0,0,16.18,0H2.82a.557.557,0,0,0,0,1.113H4.49V3.8A6.426,6.426,0,0,0,7.942,9.5,6.426,6.426,0,0,0,4.49,15.2v2.683H2.82A.557.557,0,0,0,2.82,19H16.18a.557.557,0,0,0,0-1.113ZM13.4,15.2v2.683H12.283V16.18c0-1.715-1.11-2.022-2.227-2.571V10.264A5.314,5.314,0,0,1,13.4,15.2Zm-3.9-.628c1.27.633,1.67.634,1.67,1.6v1.707H7.83V16.18C7.83,15.209,8.23,15.209,9.5,14.575Zm0-5.651a5.328,5.328,0,0,1-2.049-1.1h4.1A5.328,5.328,0,0,1,9.5,8.924ZM5.6,1.113H13.4V3.8a5.313,5.313,0,0,1-.87,2.92H6.474A5.313,5.313,0,0,1,5.6,3.8Zm0,14.09a5.314,5.314,0,0,1,3.34-4.94v3.345c-1.112.547-2.227.853-2.227,2.571v1.707H5.6Z" transform="translate(1391 441)" fill="#222"/>
  </g>
</svg>
