<svg xmlns="http://www.w3.org/2000/svg" xmlns:xlink="http://www.w3.org/1999/xlink" width="22" height="22" viewBox="0 0 22 22">
  <defs>
    <clipPath id="clip-path">
      <rect id="사각형_511" data-name="사각형 511" width="22" height="22" transform="translate(1051 158)" fill="#515355"/>
    </clipPath>
  </defs>
  <g id="마스크_그룹_139" data-name="마스크 그룹 139" transform="translate(-1051 -158)" clip-path="url(#clip-path)">
    <g id="그룹_110" data-name="그룹 110" transform="translate(1051 161.52)">
      <path id="files" d="M1.473,15.874H9.861A1.475,1.475,0,0,0,11.334,14.4c0-10.749.063-10.087-.153-10.3A39.218,39.218,0,0,0,8.13,1.086c-.157-.079.273-.055-6.657-.055A1.475,1.475,0,0,0,0,2.5V14.4A1.475,1.475,0,0,0,1.473,15.874ZM8.419,2.811,9.553,3.945H8.419ZM1.043,2.5a.431.431,0,0,1,.43-.43h5.9V4.467a.522.522,0,0,0,.522.522h2.393V14.4a.431.431,0,0,1-.43.43H1.473a.431.431,0,0,1-.43-.43Z" transform="translate(10.56 -1.027)" fill="#515355"/>
      <g id="사각형_512" data-name="사각형 512" transform="translate(0 0)" fill="none" stroke="#515355" stroke-width="1">
        <rect width="11.44" height="14.96" rx="2" stroke="none"/>
        <rect x="0.5" y="0.5" width="10.44" height="13.96" rx="1.5" fill="none"/>
      </g>
    </g>
  </g>
</svg>
