<svg xmlns="http://www.w3.org/2000/svg" width="22" height="7" viewBox="0 0 22 7">
  <g id="이동" transform="translate(-1447 -466)">
    <rect id="사각형_327" data-name="사각형 327" width="2" height="1" rx="0.5" transform="translate(1447 466)" fill="#fff" opacity="0.5"/>
    <rect id="사각형_313" data-name="사각형 313" width="2" height="1" rx="0.5" transform="translate(1451 466)" fill="#fff" opacity="0.5"/>
    <rect id="사각형_314" data-name="사각형 314" width="2" height="1" rx="0.5" transform="translate(1455 466)" fill="#fff" opacity="0.5"/>
    <rect id="사각형_315" data-name="사각형 315" width="2" height="1" rx="0.5" transform="translate(1459 466)" fill="#fff" opacity="0.5"/>
    <rect id="사각형_316" data-name="사각형 316" width="2" height="1" rx="0.5" transform="translate(1463 466)" fill="#fff" opacity="0.5"/>
    <rect id="사각형_312" data-name="사각형 312" width="2" height="1" rx="0.5" transform="translate(1467 466)" fill="#fff" opacity="0.5"/>
    <rect id="사각형_328" data-name="사각형 328" width="2" height="1" rx="0.5" transform="translate(1447 469)" fill="#fff" opacity="0.5"/>
    <rect id="사각형_317" data-name="사각형 317" width="2" height="1" rx="0.5" transform="translate(1451 469)" fill="#fff" opacity="0.5"/>
    <rect id="사각형_318" data-name="사각형 318" width="2" height="1" rx="0.5" transform="translate(1455 469)" fill="#fff" opacity="0.5"/>
    <rect id="사각형_319" data-name="사각형 319" width="2" height="1" rx="0.5" transform="translate(1459 469)" fill="#fff" opacity="0.5"/>
    <rect id="사각형_320" data-name="사각형 320" width="2" height="1" rx="0.5" transform="translate(1463 469)" fill="#fff" opacity="0.5"/>
    <rect id="사각형_321" data-name="사각형 321" width="2" height="1" rx="0.5" transform="translate(1467 469)" fill="#fff" opacity="0.5"/>
    <rect id="사각형_329" data-name="사각형 329" width="2" height="1" rx="0.5" transform="translate(1447 472)" fill="#fff" opacity="0.5"/>
    <rect id="사각형_322" data-name="사각형 322" width="2" height="1" rx="0.5" transform="translate(1451 472)" fill="#fff" opacity="0.5"/>
    <rect id="사각형_323" data-name="사각형 323" width="2" height="1" rx="0.5" transform="translate(1455 472)" fill="#fff" opacity="0.5"/>
    <rect id="사각형_324" data-name="사각형 324" width="2" height="1" rx="0.5" transform="translate(1459 472)" fill="#fff" opacity="0.5"/>
    <rect id="사각형_325" data-name="사각형 325" width="2" height="1" rx="0.5" transform="translate(1463 472)" fill="#fff" opacity="0.5"/>
    <rect id="사각형_326" data-name="사각형 326" width="2" height="1" rx="0.5" transform="translate(1467 472)" fill="#fff" opacity="0.5"/>
  </g>
</svg>
