<svg xmlns="http://www.w3.org/2000/svg" width="50" height="50" viewBox="0 0 50 50">
  <g id="그룹_1334" data-name="그룹 1334" transform="translate(8864 16923)">
    <g id="bg" transform="translate(-8864 -16923)" fill="#fff" stroke="#4587de" stroke-width="1">
      <circle cx="25" cy="25" r="25" stroke="none"/>
      <circle cx="25" cy="25" r="24.5" fill="none"/>
    </g>
    <path id="패스_2317" data-name="패스 2317" d="M13.591,11.417H6.99A.763.763,0,0,1,6.6,10c2.876-1.7,4.37-3.682,4.567-6.06a1.64,1.64,0,0,1,1.639-1.474A3.225,3.225,0,0,1,15.981,5.69h0v.256a8.437,8.437,0,0,1-1.755,5.131.763.763,0,0,1-.635.34Z" transform="translate(-8848.109 -16911.84)" fill="#ffc380"/>
    <path id="패스_2318" data-name="패스 2318" d="M22.9,9.425a2.394,2.394,0,0,0-2.391-2.391H8.208a.763.763,0,0,0-.388.106c-.863.51-1.735.931-2.435,1.268-.244.118-.475.229-.685.334a.763.763,0,0,0-.422.683v9.768a.763.763,0,0,0,.422.683A17.578,17.578,0,0,0,13.335,21.6c.463,0,.936,0,1.423-.009.538,0,1.1-.01,1.679-.01H18.85a2.39,2.39,0,0,0,2.059-3.606,2.389,2.389,0,0,0,.814-3.256,2.389,2.389,0,0,0,.521-3.652A2.375,2.375,0,0,0,22.9,9.425Z" transform="translate(-8849.327 -16908.982)" fill="#ffcf99"/>
    <path id="SVGCleanerId_0" d="M3.794,13.814v4.019H2.267V13.814a.763.763,0,0,1,1.526,0Z" transform="translate(-8850.583 -16905.223)" fill="#73c3ff"/>
    <g id="그룹_1032" data-name="그룹 1032" transform="translate(-8848.316 -16892.172)">
      <path id="SVGCleanerId_0_1_" d="M3.794,13.814v4.019H2.267V13.814a.763.763,0,0,1,1.526,0Z" transform="translate(-2.267 -13.051)" fill="#73c3ff"/>
    </g>
    <path id="패스_2319" data-name="패스 2319" d="M7.539,7.034H1.027A.763.763,0,0,0,.264,7.8V20.821a.778.778,0,0,0,.763.773H5.911A2.419,2.419,0,0,0,8.05,20.26a2.371,2.371,0,0,0,.25-1.067V7.8a.763.763,0,0,0-.761-.766Z" transform="translate(-8851.836 -16908.982)" fill="#4587de"/>
    <path id="패스_2320" data-name="패스 2320" d="M3.794,13.783v4.07H2.267v-4.07a.763.763,0,0,1,1.526,0Z" transform="translate(-8850.583 -16905.242)" fill="#ffc964"/>
  </g>
</svg>
