<svg xmlns="http://www.w3.org/2000/svg" xmlns:xlink="http://www.w3.org/1999/xlink" width="30" height="30" viewBox="0 0 30 30">
  <defs>
    <clipPath id="clip-path">
      <rect id="사각형_1191" data-name="사각형 1191" width="30" height="30" fill="#fff" stroke="#707070" stroke-width="1"/>
    </clipPath>
  </defs>
  <g id="icon_calender" clip-path="url(#clip-path)">
    <g id="calendar">
      <path id="패스_2566" data-name="패스 2566" d="M26.133,2.344h-2.7V.938a.938.938,0,0,0-1.875,0V2.344H8.438V.938a.938.938,0,0,0-1.875,0V2.344h-2.7A3.872,3.872,0,0,0,0,6.211V26.133A3.872,3.872,0,0,0,3.867,30H26.133A3.872,3.872,0,0,0,30,26.133V6.211A3.872,3.872,0,0,0,26.133,2.344Zm1.992,23.789a1.992,1.992,0,0,1-1.992,1.992H3.867a1.992,1.992,0,0,1-1.992-1.992V10.605a.293.293,0,0,1,.293-.293H27.832a.293.293,0,0,1,.293.293Z" fill="#fff"/>
    </g>
  </g>
</svg>
