<svg xmlns="http://www.w3.org/2000/svg" xmlns:xlink="http://www.w3.org/1999/xlink" width="38" height="38" viewBox="0 0 38 38">
  <defs>
    <clipPath id="clip-path">
      <rect id="bg_" width="18" height="18" rx="3" fill="#fff"/>
    </clipPath>
  </defs>
  <g id="fillter" transform="translate(-955 -196)">
    <rect id="bg_2" data-name="bg_" width="38" height="38" rx="5" transform="translate(955 196)" fill="#454c53"/>
    <g id="ico_fillter" transform="translate(965 224) rotate(-90)" clip-path="url(#clip-path)">
      <path id="settings_4_" data-name="settings (4)" d="M.7,4.043H11.4a3.34,3.34,0,1,0,0-1.406H.7a.7.7,0,0,0,0,1.406ZM14.66,1.406A1.934,1.934,0,1,1,12.727,3.34,1.936,1.936,0,0,1,14.66,1.406ZM17.3,10.371H6.6a3.34,3.34,0,1,0,0,1.406H17.3a.7.7,0,0,0,0-1.406ZM3.34,13.008a1.934,1.934,0,1,1,1.934-1.934A1.936,1.936,0,0,1,3.34,13.008Zm0,0" transform="translate(0 1.793)" fill="#fff"/>
    </g>
  </g>
</svg>
