<svg xmlns="http://www.w3.org/2000/svg" xmlns:xlink="http://www.w3.org/1999/xlink" width="50" height="50" viewBox="0 0 50 50">
  <defs>
    <clipPath id="clip-path">
      <rect id="사각형_991" data-name="사각형 991" width="50" height="50" transform="translate(414 185)" fill="#fc5d5d" stroke="#707070" stroke-width="1"/>
    </clipPath>
  </defs>
  <g id="ico_clock" transform="translate(-414 -185)" clip-path="url(#clip-path)">
    <g id="alarm-clock" transform="translate(414 185)">
      <g id="그룹_897" data-name="그룹 897">
        <g id="그룹_896" data-name="그룹 896">
          <path id="패스_2278" data-name="패스 2278" d="M48.634,9.552A14.706,14.706,0,0,0,40.745.137a1.814,1.814,0,1,0-1.381,3.354,11.05,11.05,0,0,1,5.776,7.03,1.814,1.814,0,1,0,3.5-.97Z" fill="#fc5d5d"/>
        </g>
      </g>
      <g id="그룹_899" data-name="그룹 899">
        <g id="그룹_898" data-name="그룹 898">
          <path id="패스_2279" data-name="패스 2279" d="M11.623,1.124A1.814,1.814,0,0,0,9.255.137,14.7,14.7,0,0,0,1.366,9.552a1.814,1.814,0,1,0,3.5.969,11.03,11.03,0,0,1,5.782-7.033A1.814,1.814,0,0,0,11.623,1.124Z" fill="#fc5d5d"/>
        </g>
      </g>
      <g id="그룹_901" data-name="그룹 901">
        <g id="그룹_900" data-name="그룹 900">
          <path id="패스_2280" data-name="패스 2280" d="M44.629,46.932l-4.111-4.293a1.814,1.814,0,0,0-2.62,2.509l4.111,4.293a1.814,1.814,0,0,0,2.62-2.509Z" fill="#ffadad"/>
        </g>
      </g>
      <g id="그룹_903" data-name="그룹 903">
        <g id="그룹_902" data-name="그룹 902">
          <path id="패스_2281" data-name="패스 2281" d="M12.047,42.583a1.814,1.814,0,0,0-2.565.056L5.371,46.932a1.814,1.814,0,1,0,2.62,2.509L12.1,45.148A1.814,1.814,0,0,0,12.047,42.583Z" fill="#ffadad"/>
        </g>
      </g>
      <g id="그룹_905" data-name="그룹 905">
        <g id="그룹_904" data-name="그룹 904">
          <path id="패스_2282" data-name="패스 2282" d="M31.772,22.853H26.149V14.208a1.814,1.814,0,1,0-3.628,0V24.667a1.814,1.814,0,0,0,1.814,1.814h7.436a1.814,1.814,0,0,0,0-3.628Z" fill="#fc5d5d"/>
        </g>
      </g>
      <g id="그룹_907" data-name="그룹 907">
        <g id="그룹_906" data-name="그룹 906">
          <path id="패스_2283" data-name="패스 2283" d="M25,2.479A21.221,21.221,0,1,0,46.221,23.7,21.245,21.245,0,0,0,25,2.479Zm0,38.815A17.594,17.594,0,1,1,42.593,23.7,17.613,17.613,0,0,1,25,41.294Z" fill="#ffadad"/>
        </g>
      </g>
    </g>
  </g>
</svg>
