<svg id="그룹_908" data-name="그룹 908" xmlns="http://www.w3.org/2000/svg" width="16.137" height="15.089" viewBox="0 0 16.137 15.089">
  <path id="패스_2284" data-name="패스 2284" d="M289.323,110.724a.512.512,0,0,0-.516-.509h-3.671v-.742h.318a.516.516,0,0,0,.477-.314.5.5,0,0,0-.112-.555l-4.049-3.993v-.572l1.768-.618a.507.507,0,0,0,0-.96l-2.112-.738a.532.532,0,0,0-.156-.025c-.006,0-.01,0-.016,0s-.013,0-.02,0a.52.52,0,0,0-.176.035c-.007,0-.012.007-.019.01a.332.332,0,0,0-.132.088l-.026.023a.506.506,0,0,0-.1.139c0,.011-.008.021-.012.032a.5.5,0,0,0-.036.178v2.408L276.69,108.6a.5.5,0,0,0-.112.555.516.516,0,0,0,.477.314h.318v.742H273.7a.512.512,0,0,0-.516.509.5.5,0,0,0,.372.48v5.072a.512.512,0,0,0,.516.509h14.361a.513.513,0,0,0,.516-.509V111.2A.5.5,0,0,0,289.323,110.724Zm-14.733.509h2.783v4.534H274.59Zm3.814-.509v-1.759a.506.506,0,0,0-.207-.408l3.057-3.016,3.057,3.016a.506.506,0,0,0-.207.408v6.8h-1.436V113.7a.512.512,0,0,0-.516-.509h-1.8a.512.512,0,0,0-.516.509v2.067H278.4Zm2.467,5.043v-1.558h.766v1.558Zm7.048,0h-2.783v-4.534h2.783Z" transform="translate(-273.186 -101.695)" fill="#fff"/>
  <path id="패스_2285" data-name="패스 2285" d="M287.745,117.081a1.966,1.966,0,1,0-1.967-1.966A1.968,1.968,0,0,0,287.745,117.081Zm0-2.643a.677.677,0,1,1-.677.677A.677.677,0,0,1,287.745,114.438Z" transform="translate(-279.676 -107.724)" fill="#fff"/>
</svg>
