<svg id="ico_academy" xmlns="http://www.w3.org/2000/svg" width="20" height="20" viewBox="0 0 20 20">
  <g id="사각형_993" data-name="사각형 993" fill="#fafbfc" stroke="#707070" stroke-width="1" opacity="0">
    <rect width="20" height="20" stroke="none"/>
    <rect x="0.5" y="0.5" width="19" height="19" fill="none"/>
  </g>
  <g id="그룹_910" data-name="그룹 910" transform="translate(1.836)">
    <path id="패스_2287" data-name="패스 2287" d="M205.195,187.75H190.356a.725.725,0,0,0-.745.7v17.2a.725.725,0,0,0,.745.7h11.567v.694a.746.746,0,0,0,1.49,0v-.694h1.783a.725.725,0,0,0,.745-.7v-17.2A.725.725,0,0,0,205.195,187.75ZM191.1,189.156h1.021v15.791H191.1Zm13.349,15.791H193.611V189.156H204.45Z" transform="translate(-189.611 -187.75)" fill="#fafbfc"/>
    <path id="패스_2288" data-name="패스 2288" d="M197.159,196.9H202.4a.562.562,0,0,0,.562-.562v-2.036a.562.562,0,0,0-.562-.562h-5.241a.562.562,0,0,0-.562.562v2.036A.562.562,0,0,0,197.159,196.9Zm.562-2.036h4.116v.911h-4.116Z" transform="translate(-190.032 -189.322)" fill="#fafbfc"/>
  </g>
</svg>
