<svg id="ico_school" xmlns="http://www.w3.org/2000/svg" width="20" height="20" viewBox="0 0 20 20">
  <rect id="ico" width="20" height="20" fill="#26282b" opacity="0"/>
  <g id="그룹_908" data-name="그룹 908" transform="translate(-273.186 -100.695)">
    <path id="패스_2284" data-name="패스 2284" d="M293.186,113.04a.639.639,0,0,0-.639-.639H288v-.932h.394a.639.639,0,0,0,.452-1.091l-5.018-5.018v-.719l2.192-.776a.64.64,0,0,0,0-1.206l-2.617-.927a.651.651,0,0,0-.194-.032c-.007,0-.013,0-.02,0s-.016,0-.024.005a.637.637,0,0,0-.218.044c-.009,0-.015.009-.024.013a.411.411,0,0,0-.164.11c-.011.01-.022.019-.032.029a.636.636,0,0,0-.118.175c-.006.013-.01.026-.015.04a.634.634,0,0,0-.045.224v3.025l-5.019,5.018a.639.639,0,0,0,.452,1.091h.394v.932h-4.549a.639.639,0,0,0-.639.639.631.631,0,0,0,.462.6v6.373a.639.639,0,0,0,.639.639h17.8a.64.64,0,0,0,.639-.639v-6.373A.63.63,0,0,0,293.186,113.04Zm-18.259.639h3.448v5.7h-3.448Zm4.727-.639v-2.211a.639.639,0,0,0-.256-.512l3.789-3.789,3.789,3.789a.639.639,0,0,0-.256.512v8.548h-1.779v-2.6a.639.639,0,0,0-.639-.639h-2.228a.639.639,0,0,0-.639.639v2.6h-1.779Zm3.058,6.337v-1.958h.949v1.958Zm8.735,0H288v-5.7h3.449Z" transform="translate(0 0)" fill="#26282b"/>
    <path id="패스_2285" data-name="패스 2285" d="M287.728,117.047a1.95,1.95,0,1,0-1.95-1.949A1.952,1.952,0,0,0,287.728,117.047Zm0-2.621a.671.671,0,1,1-.671.671A.671.671,0,0,1,287.728,114.427Z" transform="translate(-4.542 -4.131)" fill="#26282b"/>
  </g>
</svg>
