<svg xmlns="http://www.w3.org/2000/svg" width="20.773" height="23" viewBox="0 0 20.773 23">
  <g id="그룹_1101" data-name="그룹 1101" transform="translate(-506.699 -646.92)">
    <g id="그룹_1095" data-name="그룹 1095" transform="translate(506.699 646.92)">
      <g id="그룹_1090" data-name="그룹 1090">
        <path id="패스_2436" data-name="패스 2436" d="M521.552,649.126a1.206,1.206,0,1,0-2.411,0h0a2.7,2.7,0,0,1-3.617-1.206,1.206,1.206,0,0,1-2.411,0h0a1.205,1.205,0,0,0-1.205,1.206V658.7l-2.1-2.1a1.252,1.252,0,0,0-1.706-.093,1.206,1.206,0,0,0-.047,1.75,25.082,25.082,0,0,1,2.133,2.994c2.014,4.014,2.426,3.22,4.081,3.22h5.6a2.867,2.867,0,0,0,1.687-2.612v-5.475c0-.023,0-.045-.006-.068h.006Z" transform="translate(-507.372 -647.593)" fill="#fdc42d"/>
        <path id="패스_2437" data-name="패스 2437" d="M512.438,664.185c-1.023,0-1.718-.469-3.219-3.461a24.541,24.541,0,0,0-2.084-2.922,1.54,1.54,0,0,1-.436-1.111,1.52,1.52,0,0,1,.508-1.1,1.568,1.568,0,0,1,2.156.1l1.545,1.545v-8.789a17.479,17.479,0,0,0,3.943-1.532,1.531,1.531,0,0,0,2.411,0,1.531,1.531,0,0,0,2.411,0,1.534,1.534,0,0,1,1.532,1.532v7.191c0,.01,0,.021,0,.031s0,.025,0,.037v5.475a3.2,3.2,0,0,1-1.878,2.909.331.331,0,0,1-.135.029h-5.6c-.241,0-.453.017-.658.035C512.759,664.174,512.594,664.185,512.438,664.185Zm-4.23-8.317a.834.834,0,0,0-.563.209.879.879,0,0,0-.035,1.276l.022.024a24.867,24.867,0,0,1,2.171,3.054c1.606,3.2,2.066,3.16,3.078,3.078.208-.017.444-.037.712-.037h5.527a2.548,2.548,0,0,0,1.433-2.285v-5.475c0-.008-.005-.042-.006-.05a.328.328,0,0,1,.006-.082v-7.127a.879.879,0,0,0-1.758,0,.327.327,0,0,1-.653,0,.879.879,0,0,0-1.758,0,.327.327,0,0,1-.653,0,.879.879,0,0,0-1.758,0,.327.327,0,0,1-.653,0,.879.879,0,0,0-1.758,0v9.577a.327.327,0,0,1-.557.231l-2.1-2.1A.987.987,0,0,0,508.207,655.868Z" transform="translate(-506.699 -646.92)" fill="#2d3036"/>
      </g>
      <g id="그룹_1091" data-name="그룹 1091" transform="translate(6.62 1.532)">
        <line id="선_5" data-name="선 5" y2="7.34" transform="translate(0.327)" fill="#fdc42d"/>
        <rect id="사각형_1048" data-name="사각형 1048" width="0.653" height="7.339" transform="translate(0 0)" fill="#2d3036"/>
      </g>
      <g id="그룹_1092" data-name="그룹 1092" transform="translate(9.031 1.532)">
        <line id="선_6" data-name="선 6" y2="7.34" transform="translate(0.327 0)" fill="#fdc42d"/>
        <rect id="사각형_1049" data-name="사각형 1049" width="0.653" height="7.339" fill="#2d3036"/>
      </g>
      <g id="그룹_1093" data-name="그룹 1093" transform="translate(11.441 1.532)">
        <line id="선_7" data-name="선 7" y2="7.34" transform="translate(0.326 0)" fill="#fdc42d"/>
        <rect id="사각형_1050" data-name="사각형 1050" width="0.653" height="7.339" fill="#2d3036"/>
      </g>
      <g id="그룹_1094" data-name="그룹 1094" transform="translate(5.655 16.552)">
        <rect id="사각형_1051" data-name="사각형 1051" width="6.753" height="2.796" transform="translate(0.326 0.326)" fill="#fdc42d"/>
        <path id="패스_2438" data-name="패스 2438" d="M531.093,701.048h-6.752a.326.326,0,0,1-.327-.327v-2.8a.326.326,0,0,1,.327-.327h6.752a.326.326,0,0,1,.327.327v2.8A.326.326,0,0,1,531.093,701.048Zm-6.426-.653h6.1v-2.142h-6.1Z" transform="translate(-524.014 -697.599)"/>
      </g>
    </g>
    <g id="그룹_1096" data-name="그룹 1096" transform="translate(512.965 649.92)">
      <path id="패스_2439" data-name="패스 2439" d="M540.738,658.311a1.206,1.206,0,1,0-2.411,0h0a2.7,2.7,0,0,1-3.617-1.206,1.205,1.205,0,1,1-2.411,0h0a1.206,1.206,0,0,0-1.206,1.206v9.577l-2.1-2.1a1.252,1.252,0,0,0-1.706-.093,1.206,1.206,0,0,0-.047,1.75,25.081,25.081,0,0,1,2.133,2.994c2.014,4.014,2.426,3.221,4.082,3.221h5.6a2.867,2.867,0,0,0,1.687-2.612V665.57c0-.023-.005-.045-.007-.068h.007Z" transform="translate(-526.557 -656.778)" fill="#fdc42d"/>
      <path id="패스_2440" data-name="패스 2440" d="M531.623,673.37c-1.023,0-1.718-.47-3.218-3.461a24.5,24.5,0,0,0-2.084-2.922,1.539,1.539,0,0,1-.436-1.111,1.521,1.521,0,0,1,.508-1.1,1.569,1.569,0,0,1,2.156.1l1.545,1.545v-8.789a17.516,17.516,0,0,0,3.944-1.532,1.531,1.531,0,0,0,2.411,0,1.531,1.531,0,0,0,2.411,0,1.534,1.534,0,0,1,1.532,1.532v7.191a.307.307,0,0,1,0,.031c0,.012,0,.024,0,.037v5.475a3.2,3.2,0,0,1-1.878,2.909.326.326,0,0,1-.135.029h-5.6c-.241,0-.453.018-.658.035C531.944,673.359,531.78,673.37,531.623,673.37Zm-4.23-8.316a.835.835,0,0,0-.564.209.879.879,0,0,0-.034,1.276l.022.024a24.883,24.883,0,0,1,2.172,3.054c1.605,3.2,2.066,3.16,3.078,3.077.208-.017.444-.037.712-.037h5.527a2.548,2.548,0,0,0,1.433-2.285V664.9c0-.008-.006-.042-.006-.05a.314.314,0,0,1,.006-.082v-7.127a.879.879,0,1,0-1.758,0,.327.327,0,0,1-.653,0,.879.879,0,1,0-1.758,0,.327.327,0,0,1-.653,0,.879.879,0,1,0-1.758,0,.327.327,0,1,1-.653,0,.879.879,0,1,0-1.758,0v9.577a.327.327,0,0,1-.557.231l-2.1-2.1A.987.987,0,0,0,527.393,665.053Z" transform="translate(-525.884 -656.105)"/>
    </g>
    <g id="그룹_1097" data-name="그룹 1097" transform="translate(519.585 651.452)">
      <line id="선_8" data-name="선 8" y2="7.34" transform="translate(0.326 0)" fill="#fff"/>
      <rect id="사각형_1052" data-name="사각형 1052" width="0.653" height="7.339" transform="translate(0 0)" fill="#2d3036"/>
    </g>
    <g id="그룹_1098" data-name="그룹 1098" transform="translate(521.996 651.452)">
      <line id="선_9" data-name="선 9" y2="7.34" transform="translate(0.326 0)" fill="#fff"/>
      <rect id="사각형_1053" data-name="사각형 1053" width="0.653" height="7.339" transform="translate(0 0)" fill="#2d3036"/>
    </g>
    <g id="그룹_1099" data-name="그룹 1099" transform="translate(524.405 651.452)">
      <line id="선_10" data-name="선 10" y2="7.34" transform="translate(0.327 0)" fill="#fff"/>
      <rect id="사각형_1054" data-name="사각형 1054" width="0.653" height="7.339" transform="translate(0 0)" fill="#2d3036"/>
    </g>
    <g id="그룹_1100" data-name="그룹 1100" transform="translate(518.619 666.471)">
      <rect id="사각형_1055" data-name="사각형 1055" width="6.753" height="2.796" transform="translate(0.327 0.327)" fill="#fdc42d"/>
      <path id="패스_2441" data-name="패스 2441" d="M550.278,710.232h-6.753a.327.327,0,0,1-.327-.327v-2.8a.327.327,0,0,1,.327-.327h6.753a.326.326,0,0,1,.327.327v2.8A.327.327,0,0,1,550.278,710.232Zm-6.426-.653h6.1v-2.143h-6.1Z" transform="translate(-543.198 -706.783)"/>
    </g>
  </g>
</svg>
