<svg xmlns="http://www.w3.org/2000/svg" width="337" height="16" viewBox="0 0 337 16">
  <g id="graphic" transform="translate(-738 -684)">
    <rect id="사각형_894" data-name="사각형 894" width="2" height="4" transform="translate(738 690)" fill="#fff" opacity="0.4"/>
    <rect id="사각형_899" data-name="사각형 899" width="2" height="4" transform="translate(763 690)" fill="#fff" opacity="0.4"/>
    <rect id="사각형_900" data-name="사각형 900" width="2" height="4" transform="translate(768 690)" fill="#fff" opacity="0.4"/>
    <rect id="사각형_903" data-name="사각형 903" width="2" height="4" transform="translate(783 690)" fill="#fff" opacity="0.4"/>
    <rect id="사각형_917" data-name="사각형 917" width="2" height="4" transform="translate(853 690)" fill="#fff" opacity="0.4"/>
    <rect id="사각형_919" data-name="사각형 919" width="2" height="4" transform="translate(863 690)" fill="#fff" opacity="0.4"/>
    <rect id="사각형_904" data-name="사각형 904" width="2" height="4" transform="translate(788 690)" fill="#fff" opacity="0.4"/>
    <rect id="사각형_916" data-name="사각형 916" width="2" height="4" transform="translate(848 690)" fill="#fff" opacity="0.4"/>
    <rect id="사각형_920" data-name="사각형 920" width="2" height="4" transform="translate(868 690)" fill="#fff" opacity="0.4"/>
    <rect id="사각형_922" data-name="사각형 922" width="2" height="4" transform="translate(878 690)" fill="#fff" opacity="0.4"/>
    <rect id="사각형_931" data-name="사각형 931" width="2" height="4" transform="translate(923 690)" fill="#fff" opacity="0.4"/>
    <rect id="사각형_937" data-name="사각형 937" width="2" height="4" transform="translate(953 690)" fill="#fff" opacity="0.5"/>
    <rect id="사각형_941" data-name="사각형 941" width="2" height="4" transform="translate(973 690)" fill="#fff" opacity="0.5"/>
    <rect id="사각형_942" data-name="사각형 942" width="2" height="4" transform="translate(978 690)" fill="#fff" opacity="0.5"/>
    <rect id="사각형_943" data-name="사각형 943" width="2" height="4" transform="translate(983 690)" fill="#fff" opacity="0.5"/>
    <rect id="사각형_946" data-name="사각형 946" width="2" height="4" transform="translate(998 690)" fill="#fff" opacity="0.4"/>
    <rect id="사각형_925" data-name="사각형 925" width="2" height="4" transform="translate(893 690)" fill="#fff" opacity="0.4"/>
    <rect id="사각형_929" data-name="사각형 929" width="2" height="4" transform="translate(913 690)" fill="#fff" opacity="0.4"/>
    <rect id="사각형_930" data-name="사각형 930" width="2" height="4" transform="translate(918 690)" fill="#fff" opacity="0.4"/>
    <rect id="사각형_901" data-name="사각형 901" width="2" height="2" transform="translate(773 691)" fill="#fff" opacity="0.3"/>
    <rect id="사각형_902" data-name="사각형 902" width="2" height="2" transform="translate(778 691)" fill="#fff" opacity="0.3"/>
    <rect id="사각형_918" data-name="사각형 918" width="2" height="2" transform="translate(858 691)" fill="#fff" opacity="0.3"/>
    <rect id="사각형_923" data-name="사각형 923" width="2" height="2" transform="translate(883 691)" fill="#fff" opacity="0.3"/>
    <rect id="사각형_924" data-name="사각형 924" width="2" height="2" transform="translate(888 691)" fill="#fff" opacity="0.3"/>
    <rect id="사각형_926" data-name="사각형 926" width="2" height="2" transform="translate(898 691)" fill="#fff" opacity="0.3"/>
    <rect id="사각형_927" data-name="사각형 927" width="2" height="2" transform="translate(903 691)" fill="#fff" opacity="0.3"/>
    <rect id="사각형_928" data-name="사각형 928" width="2" height="2" transform="translate(908 691)" fill="#fff" opacity="0.3"/>
    <rect id="사각형_938" data-name="사각형 938" width="2" height="2" transform="translate(958 691)" fill="#fff" opacity="0.3"/>
    <rect id="사각형_939" data-name="사각형 939" width="2" height="2" transform="translate(963 691)" fill="#fff" opacity="0.3"/>
    <rect id="사각형_940" data-name="사각형 940" width="2" height="2" transform="translate(968 691)" fill="#fff" opacity="0.3"/>
    <rect id="사각형_944" data-name="사각형 944" width="2" height="2" transform="translate(988 691)" fill="#fff" opacity="0.3"/>
    <rect id="사각형_945" data-name="사각형 945" width="2" height="2" transform="translate(993 691)" fill="#fff" opacity="0.3"/>
    <rect id="사각형_960" data-name="사각형 960" width="2" height="2" transform="translate(1068 691)" fill="#fff" opacity="0.3"/>
    <rect id="사각형_961" data-name="사각형 961" width="2" height="2" transform="translate(1073 691)" fill="#fff" opacity="0.3"/>
    <rect id="사각형_895" data-name="사각형 895" width="2" height="6" transform="translate(743 689)" fill="#fff" opacity="0.5"/>
    <rect id="사각형_897" data-name="사각형 897" width="2" height="6" transform="translate(753 689)" fill="#fff" opacity="0.5"/>
    <rect id="사각형_898" data-name="사각형 898" width="2" height="6" transform="translate(758 689)" fill="#fff" opacity="0.5"/>
    <rect id="사각형_905" data-name="사각형 905" width="2" height="6" transform="translate(793 689)" fill="#fff" opacity="0.5"/>
    <rect id="사각형_912" data-name="사각형 912" width="2" height="6" transform="translate(828 689)" fill="#fff" opacity="0.4"/>
    <rect id="사각형_915" data-name="사각형 915" width="2" height="6" transform="translate(843 689)" fill="#fff" opacity="0.5"/>
    <rect id="사각형_921" data-name="사각형 921" width="2" height="6" transform="translate(873 689)" fill="#fff" opacity="0.5"/>
    <rect id="사각형_932" data-name="사각형 932" width="2" height="6" transform="translate(928 689)" fill="#fff" opacity="0.5"/>
    <rect id="사각형_947" data-name="사각형 947" width="2" height="6" transform="translate(1003 689)" fill="#fff" opacity="0.5"/>
    <rect id="사각형_958" data-name="사각형 958" width="2" height="6" transform="translate(1058 689)" fill="#fff" opacity="0.5"/>
    <rect id="사각형_959" data-name="사각형 959" width="2" height="6" transform="translate(1063 689)" fill="#fff" opacity="0.5"/>
    <rect id="사각형_896" data-name="사각형 896" width="2" height="8" transform="translate(748 688)" fill="#fff" opacity="0.6"/>
    <rect id="사각형_906" data-name="사각형 906" width="2" height="8" transform="translate(798 688)" fill="#fff" opacity="0.6"/>
    <rect id="사각형_913" data-name="사각형 913" width="2" height="8" transform="translate(833 688)" fill="#fff" opacity="0.5"/>
    <rect id="사각형_933" data-name="사각형 933" width="2" height="8" transform="translate(933 688)" fill="#fff" opacity="0.6"/>
    <rect id="사각형_934" data-name="사각형 934" width="2" height="8" transform="translate(938 688)" fill="#fff" opacity="0.6"/>
    <rect id="사각형_936" data-name="사각형 936" width="2" height="8" transform="translate(948 688)" fill="#fff" opacity="0.6"/>
    <rect id="사각형_911" data-name="사각형 911" width="2" height="8" transform="translate(823 688)" fill="#fff" opacity="0.6"/>
    <rect id="사각형_907" data-name="사각형 907" width="2" height="10" transform="translate(803 687)" fill="#fff" opacity="0.6"/>
    <rect id="사각형_914" data-name="사각형 914" width="2" height="10" transform="translate(838 687)" fill="#fff" opacity="0.6"/>
    <rect id="사각형_935" data-name="사각형 935" width="2" height="10" transform="translate(943 687)" fill="#fff" opacity="0.9"/>
    <rect id="사각형_948" data-name="사각형 948" width="2" height="10" transform="translate(1008 687)" fill="#fff" opacity="0.6"/>
    <rect id="사각형_949" data-name="사각형 949" width="2" height="10" transform="translate(1013 687)" fill="#fff" opacity="0.6"/>
    <rect id="사각형_951" data-name="사각형 951" width="2" height="10" transform="translate(1023 687)" fill="#fff" opacity="0.6"/>
    <rect id="사각형_952" data-name="사각형 952" width="2" height="10" transform="translate(1028 687)" fill="#fff" opacity="0.6"/>
    <rect id="사각형_953" data-name="사각형 953" width="2" height="10" transform="translate(1033 687)" fill="#fff" opacity="0.6"/>
    <rect id="사각형_910" data-name="사각형 910" width="2" height="10" transform="translate(818 687)" fill="#fff" opacity="0.7"/>
    <rect id="사각형_908" data-name="사각형 908" width="2" height="12" transform="translate(808 686)" fill="#fff" opacity="0.7"/>
    <rect id="사각형_950" data-name="사각형 950" width="2" height="12" transform="translate(1018 686)" fill="#fff" opacity="0.7"/>
    <rect id="사각형_954" data-name="사각형 954" width="2" height="12" transform="translate(1038 686)" fill="#fff" opacity="0.7"/>
    <rect id="사각형_957" data-name="사각형 957" width="2" height="12" transform="translate(1053 686)" fill="#fff" opacity="0.7"/>
    <rect id="사각형_909" data-name="사각형 909" width="2" height="14" transform="translate(813 685)" fill="#fff" opacity="0.9"/>
    <rect id="사각형_955" data-name="사각형 955" width="2" height="14" transform="translate(1043 685)" fill="#fff" opacity="0.7"/>
    <rect id="사각형_956" data-name="사각형 956" width="2" height="16" transform="translate(1048 684)" fill="#fff" opacity="0.8"/>
  </g>
</svg>
