<svg xmlns="http://www.w3.org/2000/svg" width="15.999" height="14.941" viewBox="0 0 15.999 14.941">
  <g id="그룹_1339" data-name="그룹 1339" transform="translate(8808 16935.471)">
    <path id="패스_2334" data-name="패스 2334" d="M10.412,3.6A5.488,5.488,0,0,0,0,6,5.41,5.41,0,0,0,.523,8.337L.009,10.908a.469.469,0,0,0,.551.552l2.6-.515a5.392,5.392,0,0,0,1.085.38,6.413,6.413,0,0,1,6.165-7.73Z" transform="translate(-8808 -16936)" fill="#b7bec7"/>
    <path id="패스_2335" data-name="패스 2335" d="M15.477,12.337a5.452,5.452,0,0,0,.235-.579h-.017a5.475,5.475,0,0,0-4.925-7.22h0a5.468,5.468,0,1,0-.263,10.932,5.409,5.409,0,0,0,2.33-.524c2.85.563,2.628.523,2.693.523a.469.469,0,0,0,.46-.561Z" transform="translate(-8808 -16936)" fill="#4587de"/>
  </g>
</svg>
