<svg xmlns="http://www.w3.org/2000/svg" xmlns:xlink="http://www.w3.org/1999/xlink" width="35" height="35" viewBox="0 0 35 35">
  <defs>
    <clipPath id="clip-path">
      <rect id="사각형_310" data-name="사각형 310" width="12" height="12" fill="#417ccb"/>
    </clipPath>
  </defs>
  <g id="그룹_1334" data-name="그룹 1334" transform="translate(-695 -483)">
    <g id="ico_arw_left" transform="translate(5)">
      <circle id="타원_433" data-name="타원 433" cx="17.5" cy="17.5" r="17.5" transform="translate(690 483)" fill="#417ccb" opacity="0.1"/>
      <g id="right_arrow" transform="translate(713 507) rotate(180)">
        <g id="right_arrow-2" data-name="right_arrow" transform="translate(0 12) rotate(-90)" clip-path="url(#clip-path)">
          <g id="arrow-down-sign-to-navigate" transform="translate(0 2.58)">
            <path id="패스_695" data-name="패스 695" d="M6,6.84a.838.838,0,0,1-.594-.246L.246,1.435A.84.84,0,1,1,1.435.246L6,4.812,10.565.246a.84.84,0,1,1,1.188,1.188l-5.16,5.16A.838.838,0,0,1,6,6.84Z" transform="translate(0 0)" fill="#417ccb"/>
          </g>
        </g>
      </g>
    </g>
  </g>
</svg>
