<svg xmlns="http://www.w3.org/2000/svg" width="23" height="22.999" viewBox="0 0 23 22.999">
  <g id="X" transform="translate(-23605.838 -14242.041)" fill="#f03a17">
    <path d="M 23610.44140625 14264.3330078125 L 23606.544921875 14260.4384765625 L 23613.08984375 14253.89453125 L 23613.443359375 14253.541015625 L 23613.08984375 14253.1875 L 23606.544921875 14246.6435546875 L 23610.44140625 14242.748046875 L 23616.986328125 14249.2919921875 L 23617.33984375 14249.6455078125 L 23617.693359375 14249.2919921875 L 23624.234375 14242.748046875 L 23628.130859375 14246.6435546875 L 23621.5859375 14253.1875 L 23621.232421875 14253.541015625 L 23621.5859375 14253.89453125 L 23628.130859375 14260.4384765625 L 23624.234375 14264.3330078125 L 23617.693359375 14257.7900390625 L 23617.33984375 14257.4365234375 L 23616.986328125 14257.7900390625 L 23610.44140625 14264.3330078125 Z" stroke="none"/>
    <path d="M 23610.44140625 14263.6259765625 L 23617.33984375 14256.7294921875 L 23624.234375 14263.6259765625 L 23627.423828125 14260.4384765625 L 23620.525390625 14253.541015625 L 23627.423828125 14246.6435546875 L 23624.234375 14243.455078125 L 23617.33984375 14250.3525390625 L 23610.44140625 14243.455078125 L 23607.251953125 14246.6435546875 L 23614.150390625 14253.541015625 L 23607.251953125 14260.4384765625 L 23610.44140625 14263.6259765625 M 23624.234375 14265.0400390625 L 23617.33984375 14258.1435546875 L 23610.44140625 14265.0400390625 L 23605.837890625 14260.4384765625 L 23612.736328125 14253.541015625 L 23605.837890625 14246.6435546875 L 23610.44140625 14242.041015625 L 23617.33984375 14248.9384765625 L 23624.234375 14242.041015625 L 23628.837890625 14246.6435546875 L 23621.939453125 14253.541015625 L 23628.837890625 14260.4384765625 L 23624.234375 14265.0400390625 Z" stroke="none" fill="#000"/>
  </g>
</svg>
