<svg xmlns="http://www.w3.org/2000/svg" width="7" height="12" viewBox="0 0 7 12">
  <g id="그룹_912" data-name="그룹 912" transform="translate(-1558 -713)">
    <path id="다각형_4" data-name="다각형 4" d="M3.09.585a.5.5,0,0,1,.819,0l2.54,3.628A.5.5,0,0,1,6.04,5H.96a.5.5,0,0,1-.41-.787Z" transform="translate(1565 725) rotate(180)" fill="#b7bec7"/>
    <path id="다각형_5" data-name="다각형 5" d="M3.09.585a.5.5,0,0,1,.819,0l2.54,3.628A.5.5,0,0,1,6.04,5H.96a.5.5,0,0,1-.41-.787Z" transform="translate(1558 713)" fill="#b7bec7"/>
  </g>
</svg>
