<svg xmlns="http://www.w3.org/2000/svg" xmlns:xlink="http://www.w3.org/1999/xlink" width="44" height="40" viewBox="0 0 44 40">
  <defs>
    <clipPath id="clip-path">
      <rect id="사각형_591" data-name="사각형 591" width="44" height="40" transform="translate(626 668)" fill="#1b1d1f" stroke="#707070" stroke-width="1"/>
    </clipPath>
  </defs>
  <g id="ico_과제평가" transform="translate(-626 -668)" clip-path="url(#clip-path)">
    <g id="free-icon-book-1032701" transform="translate(626 669.412)">
      <g id="그룹_222" data-name="그룹 222">
        <g id="그룹_221" data-name="그룹 221">
          <path id="패스_898" data-name="패스 898" d="M43.748,7.612,40.382,4.169a.846.846,0,0,0-1.215,0L36.925,6.462a.863.863,0,0,0-.817-.6H24.047A4.8,4.8,0,0,0,20.07,7.992a4.8,4.8,0,0,0-3.977-2.134H4.032a.871.871,0,0,0-.86.88V8.205H.859A.869.869,0,0,0,0,9.084V40.209a.869.869,0,0,0,.859.879H39.28a.869.869,0,0,0,.859-.879V12.547l3.609-3.691A.893.893,0,0,0,43.748,7.612ZM19.21,39.33H1.719V9.963H3.172V35.707a.869.869,0,0,0,.859.879H19.21Zm0-4.5H4.89V32.336h11.2a4.508,4.508,0,0,1,3.117,1.23Zm-3.117-4.25H4.89V7.615h11.2A3.157,3.157,0,0,1,19.211,10.8v14.72a.86.86,0,1,0,1.719,0V10.8a3.157,3.157,0,0,1,3.117-3.188h11.2v.56l-9.7,9.916a.885.885,0,0,0-.233.439L24.412,22.9a.892.892,0,0,0,.233.8.963.963,0,0,0,.786.238l4.275-.929a.854.854,0,0,0,.429-.238l5.114-5.23v13.03h-11.2a6.28,6.28,0,0,0-3.977,1.429A6.28,6.28,0,0,0,16.094,30.578ZM26.949,19.341a2.639,2.639,0,0,0,1.268.721,2.662,2.662,0,0,0,.7,1.289l.033.034-2.579.56.548-2.638Zm8.3,12.995v2.492H20.929V33.567a4.509,4.509,0,0,1,3.118-1.231Zm3.172,6.995H20.929V36.586H36.108a.869.869,0,0,0,.859-.879V15.82c0-.01,0-.02,0-.029L38.421,14.3ZM30.229,20.2a.9.9,0,0,1-.351-.83.892.892,0,0,0-.225-.7.851.851,0,0,0-.628-.279h-.042a1.044,1.044,0,0,1-.819-.286.906.906,0,0,1-.086-.1l9.037-9.242,2.151,2.2ZM40.482,9.71,38.33,7.51l1.444-1.476,2.151,2.2Z" transform="translate(0 -3.912)" fill="#1b1d1f"/>
        </g>
      </g>
      <g id="그룹_224" data-name="그룹 224" transform="translate(19.21 24.132)">
        <g id="그룹_223" data-name="그룹 223">
          <path id="패스_899" data-name="패스 899" d="M21.349,28.751a.928.928,0,0,0-.049-.165.892.892,0,0,0-.186-.285.98.98,0,0,0-.131-.11.9.9,0,0,0-.149-.08.794.794,0,0,0-.161-.05.832.832,0,0,0-.336,0,.794.794,0,0,0-.161.05.9.9,0,0,0-.149.08.929.929,0,0,0-.131.11.838.838,0,0,0-.107.134.89.89,0,0,0-.079.151.929.929,0,0,0-.049.165.863.863,0,0,0,0,.343.894.894,0,0,0,.049.164.874.874,0,0,0,.079.152.838.838,0,0,0,.107.134.867.867,0,0,0,.131.109.908.908,0,0,0,.149.081.854.854,0,0,0,.161.05.816.816,0,0,0,.336,0,.854.854,0,0,0,.161-.05.862.862,0,0,0,.279-.19.9.9,0,0,0,.252-.621A.885.885,0,0,0,21.349,28.751Z" transform="translate(-19.647 -28.044)" fill="#1b1d1f"/>
        </g>
      </g>
    </g>
  </g>
</svg>
