<svg xmlns="http://www.w3.org/2000/svg" width="65" height="65" viewBox="0 0 65 65">
  <g id="그룹_1277" data-name="그룹 1277" transform="translate(-398 -2599.502)">
    <g id="ico_01" transform="translate(-314 2465.502)">
      <rect id="bg_" width="65" height="65" rx="10" transform="translate(712 134)" fill="#f0eefa"/>
    </g>
    <path id="패스_2547" data-name="패스 2547" d="M378.426-380.666l6.809,7.12a.8.8,0,0,0,.58.252.8.8,0,0,0,.577-.25l2.784-2.911a.885.885,0,0,0,0-1.212L388-378.9a5.154,5.154,0,0,0-.492-6.336l12.384-10.759a.853.853,0,0,0,.319-.622.866.866,0,0,0-.236-.662l-6.818-7.129a.787.787,0,0,0-.633-.247.8.8,0,0,0-.6.333l-10.289,12.95a4.622,4.622,0,0,0-3.328-1.42,4.592,4.592,0,0,0-2.735.9l-1.174-1.228a.794.794,0,0,0-1.159,0l-2.784,2.911a.877.877,0,0,0-.239.6.875.875,0,0,0,.241.606l6.809,7.12Zm-.116-10.412a3.035,3.035,0,0,1,2.207.956l.308.322.316.331,4.547,4.754.151.158.475.5a3.379,3.379,0,0,1,.5,3.927l-10.054-10.513A2.976,2.976,0,0,1,378.31-391.078Zm7.5,15.721-6.8-7.114-.006-.008-.007-.006-6.8-7.114,1.629-1.7.876.916.252.263,11.364,11.883.2.205.932.974Zm.526-11.1-3.532-3.694,9.852-12.358,5.5,5.749Zm-20.216,16.8H385.25a.884.884,0,0,0,.911-.855.884.884,0,0,0-.911-.855H366.122a.884.884,0,0,0-.911.855A.884.884,0,0,0,366.122-369.655Z" transform="translate(48.289 3019.656)" fill="#6f57cf" stroke="#6f57cf" stroke-width="0.5"/>
  </g>
</svg>
