<svg width="27" height="28" viewBox="0 0 27 28" fill="none" xmlns="http://www.w3.org/2000/svg">
<path d="M4.2178 27.5C3.04619 27.5 2.05032 27.0899 1.23019 26.2698C0.410063 25.4497 0 24.4538 0 23.2822V4.7178C0 3.54619 0.410063 2.55032 1.23019 1.73019C2.05032 0.910063 3.04619 0.5 4.2178 0.5H25.7419C26.2942 0.5 26.7419 0.947715 26.7419 1.5V20.8763C26.7419 21.4286 26.2942 21.8763 25.7419 21.8763H4.2178C3.81945 21.8763 3.48554 22.011 3.21607 22.2805C2.9466 22.5499 2.81186 22.8839 2.81186 23.2822C2.81186 23.6806 2.9466 24.0145 3.21607 24.2839C3.48554 24.5534 3.81945 24.6881 4.2178 24.6881H23.4949H25.7419C26.2942 24.6881 26.7419 25.1359 26.7419 25.6881V27.0648C26.7419 27.3052 26.5471 27.5 26.3068 27.5H4.2178Z" fill="#4DCC80"/>
<path d="M6.87 15.94C6.87 16.3133 6.68333 16.5 6.31 16.5H5.4C5.02667 16.5 4.84 16.3133 4.84 15.94V7.4C4.84 7.02667 5.02667 6.84 5.4 6.84H6.31C6.43133 6.84 6.52933 6.854 6.604 6.882C6.67867 6.90067 6.744 6.952 6.8 7.036L9.446 10.984L11.854 7.456C11.9193 7.35333 11.9847 7.274 12.05 7.218C12.1247 7.15267 12.2367 7.12 12.386 7.12H13.296C13.6693 7.12 13.856 7.30667 13.856 7.68V16.22C13.856 16.5933 13.6693 16.78 13.296 16.78H12.386C12.0127 16.78 11.826 16.5933 11.826 16.22V10.816L10.104 13.35C10.0387 13.4433 9.978 13.504 9.922 13.532C9.866 13.5507 9.80533 13.56 9.74 13.56H9.026C8.96067 13.56 8.89533 13.546 8.83 13.518C8.774 13.49 8.718 13.4293 8.662 13.336L6.87 10.648V15.94ZM19.9974 15.94C19.9974 16.3133 19.8107 16.5 19.4374 16.5H18.5274C18.2754 16.5 18.1074 16.416 18.0234 16.248C18.0047 16.2107 17.9907 16.1687 17.9814 16.122C17.9721 16.066 17.9674 16.0053 17.9674 15.94V13.252L15.0834 7.946C14.9527 7.694 14.9201 7.512 14.9854 7.4C15.0507 7.27867 15.2141 7.19 15.4754 7.134L16.1614 6.994C16.3201 6.95667 16.4414 6.94733 16.5254 6.966C16.6187 6.97533 16.7027 7.02667 16.7774 7.12C16.8147 7.16667 16.8521 7.22733 16.8894 7.302C16.9361 7.36733 16.9874 7.45133 17.0434 7.554L18.7094 10.508L18.8914 10.83L20.5154 7.274C20.5621 7.18067 20.5994 7.10133 20.6274 7.036C20.6647 6.97067 20.7067 6.91467 20.7534 6.868C20.8281 6.76533 20.9121 6.70467 21.0054 6.686C21.1081 6.66733 21.2387 6.67667 21.3974 6.714L22.1534 6.882C22.4147 6.938 22.5734 7.02667 22.6294 7.148C22.6854 7.26 22.6574 7.442 22.5454 7.694L19.9974 13.434V15.94Z" fill="white"/>
</svg>
