<svg xmlns="http://www.w3.org/2000/svg" xmlns:xlink="http://www.w3.org/1999/xlink" width="65" height="65" viewBox="0 0 65 65">
  <defs>
    <clipPath id="clip-path">
      <rect id="사각형_118" data-name="사각형 118" width="35" height="35" fill="#6f57cf"/>
    </clipPath>
  </defs>
  <g id="그룹_1281" data-name="그룹 1281" transform="translate(-398 -2959.502)">
    <rect id="bg_" width="65" height="65" rx="10" transform="translate(398 2959.502)" fill="#f0eefa"/>
    <g id="icon_과제제출" transform="translate(413 2974.502)" clip-path="url(#clip-path)">
      <g id="book_1_" data-name="book (1)" transform="translate(0 2.335)">
        <path id="패스_86" data-name="패스 86" d="M33.975,6.708H32.489L30.753,3.236a1.026,1.026,0,0,0-.972-.565A47.113,47.113,0,0,0,17.5,5.063,45.137,45.137,0,0,0,5.219,2.67a1.026,1.026,0,0,0-.972.565L2.511,6.708H1.025A1.025,1.025,0,0,0,0,7.733V28.241a1.025,1.025,0,0,0,1.025,1.025H2.812A38.863,38.863,0,0,1,14.628,31.1a3.124,3.124,0,0,0,5.745,0,38.863,38.863,0,0,1,11.816-1.837h1.786A1.025,1.025,0,0,0,35,28.241V7.733a1.025,1.025,0,0,0-1.025-1.025ZM5.778,4.759a43.412,43.412,0,0,1,11.4,2.358,1.025,1.025,0,0,0,.649,0,43.589,43.589,0,0,1,11.4-2.358l1,2A40.9,40.9,0,0,0,19.249,8.8h0a1.019,1.019,0,0,0-.7.778,1.066,1.066,0,0,1-2.091,0,1.021,1.021,0,0,0-.7-.778h0A40.9,40.9,0,0,0,4.78,6.755ZM2.051,27.216V8.759h.761A38.86,38.86,0,0,1,14.424,10.53V28.895A40.9,40.9,0,0,0,2.812,27.216ZM17.5,30.948a1.018,1.018,0,0,1-1.025-.776V12.328a3.309,3.309,0,0,0,2.051,0V30.172A1.018,1.018,0,0,1,17.5,30.948Zm15.449-3.732h-.761a40.9,40.9,0,0,0-11.612,1.679V10.53A38.858,38.858,0,0,1,32.188,8.759h.761Z" transform="translate(0 -2.669)" fill="#6f57cf"/>
      </g>
    </g>
  </g>
</svg>
