<svg xmlns="http://www.w3.org/2000/svg" xmlns:xlink="http://www.w3.org/1999/xlink" width="1920" height="230" viewBox="0 0 1920 230">
  <defs>
    <clipPath id="clip-path">
      <rect id="bg" width="1920" height="230" transform="translate(0 103)" fill="#fff"/>
    </clipPath>
  </defs>
  <g id="그룹_1334" data-name="그룹 1334" transform="translate(0 -103)">
    <g id="마스크_그룹_123" data-name="마스크 그룹 123" clip-path="url(#clip-path)">
      <path id="다각형_12" data-name="다각형 12" d="M27.43,15a10,10,0,0,1,17.321,0L63.52,47.51a10,10,0,0,1-8.66,15H17.321a10,10,0,0,1-8.66-15Z" transform="matrix(0.966, 0.259, -0.259, 0.966, 415.683, 180.203)" fill="#71bfe5" opacity="0.3"/>
    </g>
    <g id="마스크_그룹_122" data-name="마스크 그룹 122" clip-path="url(#clip-path)">
      <path id="다각형_11" data-name="다각형 11" d="M52.053,14.973a10,10,0,0,1,17.314,0l43.377,75.022A10,10,0,0,1,104.087,105H17.333A10,10,0,0,1,8.676,89.995Z" transform="matrix(0.966, 0.259, -0.259, 0.966, 1631.969, 52.783)" fill="#ffc964" opacity="0.3"/>
    </g>
    <g id="마스크_그룹_121" data-name="마스크 그룹 121" clip-path="url(#clip-path)">
      <path id="다각형_10" data-name="다각형 10" d="M63.628,4.26a10,10,0,0,1,11.744,0l57.74,41.888a10,10,0,0,1,3.637,11.189L114.7,125.094A10,10,0,0,1,105.191,132H33.809a10,10,0,0,1-9.509-6.906L2.251,57.337A10,10,0,0,1,5.888,46.148Z" transform="translate(1404.74 261.943) rotate(-17)" fill="#717ae5" opacity="0.3"/>
    </g>
    <g id="마스크_그룹_120" data-name="마스크 그룹 120" clip-path="url(#clip-path)">
      <circle id="타원_535" data-name="타원 535" cx="80" cy="80" r="80" transform="translate(203 40)" fill="#ff9a80" opacity="0.3"/>
    </g>
  </g>
</svg>
