<svg xmlns="http://www.w3.org/2000/svg" xmlns:xlink="http://www.w3.org/1999/xlink" width="70.963" height="59" viewBox="0 0 70.963 59">
  <defs>
    <clipPath id="clip-path">
      <rect id="사각형_936" data-name="사각형 936" width="59.252" height="50.561" fill="none"/>
    </clipPath>
    <clipPath id="clip-path-2">
      <rect id="사각형_939" data-name="사각형 939" width="13.89" height="13.89" transform="translate(0 0)" fill="#26282b"/>
    </clipPath>
  </defs>
  <g id="img" transform="translate(-345.598 -352.354)">
    <g id="img-2" data-name="img" transform="translate(356.1 360.794)">
      <g id="그룹_821" data-name="그룹 821" transform="translate(0 0)" clip-path="url(#clip-path)">
        <path id="패스_2195" data-name="패스 2195" d="M1841.642,887.763a35.8,35.8,0,0,1-2.6,4.154,7.579,7.579,0,0,1-1.9,1.9,7.855,7.855,0,0,1-4.212,1.045c-4.246.05-14.27-2.541-9.915-8.521a8.123,8.123,0,0,1,2.876-2.333,13.026,13.026,0,0,1,11.656-.062" transform="translate(-1791.757 -848.136)" fill="#fff"/>
        <path id="패스_2196" data-name="패스 2196" d="M1840.859,886.742q-.736,1.36-1.575,2.664a18.916,18.916,0,0,1-1.771,2.427,6.467,6.467,0,0,1-2.393,1.709,8.955,8.955,0,0,1-2.881.568,18.4,18.4,0,0,1-6.873-1.109,11.848,11.848,0,0,1-3.142-1.595,5,5,0,0,1-1.866-2.383,4.224,4.224,0,0,1,.384-3.252,8.472,8.472,0,0,1,3.878-3.563,13.582,13.582,0,0,1,10.7-.49,12.4,12.4,0,0,1,1.2.525.515.515,0,0,1,.246.677.526.526,0,0,1-.687.242,12.538,12.538,0,0,0-9.842-.544,8.547,8.547,0,0,0-4.13,2.883,5.356,5.356,0,0,0-.459.758q-.09.178-.167.361c-.026.064-.052.129-.076.195-.011.029-.02.058-.031.087q-.027.08.007-.021l-.021.069a4.145,4.145,0,0,0-.141.7c0,.032,0,.065-.008.1-.013.11,0-.1,0-.024,0,.058,0,.116,0,.174a3.14,3.14,0,0,0,.024.34c.006.05.014.1.023.15.005.03.012.06.017.089.018.1-.027-.1-.007-.03.033.11.061.222.1.331s.073.187.116.278c.012.025.09.18.051.1s.006.01.013.022l.054.092a4.221,4.221,0,0,0,.4.543c.038.045.079.087.117.132s-.09-.091-.012-.013l.069.07c.086.086.175.169.266.25a6.966,6.966,0,0,0,.6.469c.1.068.2.134.3.2s-.1-.057.012.007l.062.038c.068.042.136.082.206.122a12.2,12.2,0,0,0,1.5.721q.4.163.816.3l.189.064c.025.008.229.073.1.033.14.044.28.086.421.127.556.161,1.12.3,1.687.41q.785.156,1.58.252.374.044.75.073c.113.008.226.016.339.022a.44.44,0,0,0,.079,0c-.137.019-.063,0-.015,0l.182.005a7.326,7.326,0,0,0,4.671-1.167,8.82,8.82,0,0,0,1.761-1.964c.566-.794,1.088-1.618,1.58-2.459q.352-.6.681-1.212a.532.532,0,0,1,.687-.242.51.51,0,0,1,.246.677" transform="translate(-1790.508 -846.898)" fill="#24221e"/>
        <path id="패스_2197" data-name="패스 2197" d="M1811.365,778.618l41.768,40.288a1.267,1.267,0,0,1-1.051,2.165l-50.755-5.858a1.27,1.27,0,0,1-1.1-1.575l8.987-34.43a1.294,1.294,0,0,1,2.148-.59m-1.214,18.86a8.714,8.714,0,0,0,.13,12.458,9.047,9.047,0,0,0,12.653-.128,8.714,8.714,0,0,0-.129-12.458,9.047,9.047,0,0,0-12.654.128" transform="translate(-1797.224 -774.085)" fill="#ff8464"/>
        <path id="패스_2198" data-name="패스 2198" d="M1851.166,820.338a1.776,1.776,0,0,0,1.457-1,1.733,1.733,0,0,0-.365-2.034l-41.768-40.288h0a1.808,1.808,0,0,0-1.747-.442,1.77,1.77,0,0,0-1.262,1.268l-8.987,34.43a1.753,1.753,0,0,0,.259,1.446,1.807,1.807,0,0,0,1.278.759l50.755,5.858a1.912,1.912,0,0,0,.38.006m-41.4-42.6,41.768,40.288a.734.734,0,0,1,.156.87.754.754,0,0,1-.786.427l-50.755-5.858a.762.762,0,0,1-.546-.324.741.741,0,0,1-.111-.619l8.986-34.43a.758.758,0,0,1,.54-.543.774.774,0,0,1,.747.189m6.38,33.944a9.452,9.452,0,0,0,5.919-2.761,9.227,9.227,0,0,0-.137-13.177,9.568,9.568,0,0,0-13.383.135,9.216,9.216,0,0,0,.137,13.177,9.482,9.482,0,0,0,6.72,2.661c.25,0,.5-.015.744-.036m-1.591-17.551q.329-.028.663-.032a8.444,8.444,0,0,1,5.987,2.371,8.221,8.221,0,0,1,.123,11.74,8.525,8.525,0,0,1-11.924.12,8.211,8.211,0,0,1-.123-11.74,8.425,8.425,0,0,1,5.274-2.46" transform="translate(-1795.988 -772.843)" fill="#24221e"/>
        <path id="패스_2199" data-name="패스 2199" d="M1828.5,894.9a.516.516,0,0,0,.323-.151l1.946-1.955a.5.5,0,0,0-.007-.718.521.521,0,0,0-.73.007l-1.945,1.955a.5.5,0,0,0,.007.718.52.52,0,0,0,.406.143" transform="translate(-1782.804 -854.765)" fill="#24221e"/>
        <path id="패스_2200" data-name="패스 2200" d="M1839.869,883.77a.516.516,0,0,0,.323-.15l1.946-1.955a.5.5,0,0,0-.007-.718.521.521,0,0,0-.73.007l-1.946,1.955a.5.5,0,0,0,.008.718.52.52,0,0,0,.406.143" transform="translate(-1797.52 -846.863)" fill="#24221e"/>
        <path id="패스_2201" data-name="패스 2201" d="M1851.235,872.636a.516.516,0,0,0,.323-.151l1.945-1.955a.5.5,0,0,0-.007-.718.522.522,0,0,0-.73.008l-1.945,1.955a.5.5,0,0,0,.007.718.52.52,0,0,0,.407.143" transform="translate(-1812.237 -838.961)" fill="#24221e"/>
        <path id="패스_2202" data-name="패스 2202" d="M1862.6,861.5a.515.515,0,0,0,.323-.151l1.946-1.955a.5.5,0,0,0-.008-.718.522.522,0,0,0-.73.007l-1.945,1.955a.5.5,0,0,0,.007.718.519.519,0,0,0,.406.143" transform="translate(-1826.952 -831.059)" fill="#24221e"/>
        <path id="패스_2203" data-name="패스 2203" d="M1873.964,850.368a.517.517,0,0,0,.323-.151l1.945-1.955a.5.5,0,0,0-.007-.719.522.522,0,0,0-.73.008l-1.945,1.955a.5.5,0,0,0,.007.719.521.521,0,0,0,.407.143" transform="translate(-1841.668 -823.157)" fill="#24221e"/>
        <path id="패스_2204" data-name="패스 2204" d="M1885.329,839.234a.514.514,0,0,0,.323-.151l1.946-1.955a.5.5,0,0,0-.007-.718.522.522,0,0,0-.73.007l-1.945,1.955a.5.5,0,0,0,.007.718.52.52,0,0,0,.407.143" transform="translate(-1856.384 -815.255)" fill="#24221e"/>
        <path id="패스_2205" data-name="패스 2205" d="M1896.694,828.1a.515.515,0,0,0,.323-.15l1.946-1.955a.5.5,0,0,0-.008-.718.521.521,0,0,0-.73.007l-1.945,1.955a.5.5,0,0,0,.007.718.518.518,0,0,0,.406.143" transform="translate(-1871.1 -807.353)" fill="#24221e"/>
        <path id="패스_2206" data-name="패스 2206" d="M1908.06,816.965a.516.516,0,0,0,.323-.15l1.945-1.955a.5.5,0,0,0-.007-.718.521.521,0,0,0-.73.007l-1.945,1.955a.5.5,0,0,0,.007.718.519.519,0,0,0,.406.143" transform="translate(-1885.817 -799.451)" fill="#24221e"/>
        <path id="패스_2207" data-name="패스 2207" d="M1919.425,805.831a.514.514,0,0,0,.323-.151l1.945-1.955a.5.5,0,0,0-.007-.719.521.521,0,0,0-.729.008l-1.945,1.955a.5.5,0,0,0,.007.719.52.52,0,0,0,.406.143" transform="translate(-1900.533 -791.549)" fill="#24221e"/>
        <path id="패스_2208" data-name="패스 2208" d="M1930.79,794.7a.515.515,0,0,0,.323-.151l1.946-1.955a.5.5,0,0,0-.008-.718.522.522,0,0,0-.73.007l-1.945,1.955a.5.5,0,0,0,.007.718.518.518,0,0,0,.406.143" transform="translate(-1915.249 -783.648)" fill="#24221e"/>
        <path id="패스_2209" data-name="패스 2209" d="M1885.365,941.017l-1.962,4.957a22.38,22.38,0,0,1-2.495,5.024,7.69,7.69,0,0,1-4.536,3.17,11.647,11.647,0,0,1-5.023-.481c-1.375-.339-3.887-1.85-5.173-1.715-.751.079-1.307,1.05-2.15.672a.677.677,0,0,1-.411-.549,1.089,1.089,0,0,1,.136-.5,56.541,56.541,0,0,1,3.9-7.167,13.087,13.087,0,0,0,2.476,1.26,5.5,5.5,0,0,0,1.6.4,4.667,4.667,0,0,0,3.7-1.795,13.442,13.442,0,0,0,2-3.707" transform="translate(-1847.767 -889.289)" fill="#5b5b5b"/>
        <path id="패스_2210" data-name="패스 2210" d="M1884.619,940l-1.7,4.288c-.521,1.314-1.021,2.643-1.67,3.9-1.175,2.28-3.027,4.51-5.656,5.163a9.761,9.761,0,0,1-4.5-.147,14.189,14.189,0,0,1-1.769-.476c-.5-.181-.977-.4-1.46-.605-.5-.217-1-.435-1.521-.617l-.159-.055c-.013,0-.108-.035-.049-.017s-.035-.01-.048-.014c-.121-.036-.242-.07-.365-.1-.1-.023-.2-.044-.3-.06-.05-.008-.1-.015-.153-.02l-.056,0c-.123-.015.115,0-.006,0a2.164,2.164,0,0,0-.267.018c-.078.012.079-.026.006,0-.027.01-.056.018-.084.029s-.193.09-.107.044c-.22.119-.419.269-.637.391a1.562,1.562,0,0,1-1.815-.03,1.138,1.138,0,0,1-.407-1.035,3.8,3.8,0,0,1,.4-1.007q.459-.986.957-1.955.995-1.937,2.137-3.795.285-.464.58-.923a.533.533,0,0,1,.8-.172,12.634,12.634,0,0,0,2.241,1.142,6.14,6.14,0,0,0,1.134.345,3.085,3.085,0,0,0,1.573-.1,4.87,4.87,0,0,0,.546-.221c.055-.026.113-.057.2-.105s.136-.081.2-.124a5.546,5.546,0,0,0,.507-.369,6.447,6.447,0,0,0,1.4-1.718,20.35,20.35,0,0,0,1.171-2.52.525.525,0,0,1,.687-.242.514.514,0,0,1,.246.677,11.516,11.516,0,0,1-2.748,4.5,5.188,5.188,0,0,1-2.243,1.185,4.836,4.836,0,0,1-2.741-.244,13.4,13.4,0,0,1-2.836-1.422l.8-.172q-1.14,1.778-2.146,3.634-.5.928-.969,1.873-.226.458-.443.919a7.942,7.942,0,0,0-.411.9c.012-.04-.016.071-.017.078-.012.085-.009-.044,0,.034.006.06,0,0,0-.01.01.069.017.055.005.02,0,.007.059.078.01.023a.489.489,0,0,0,.079.067c-.071-.049.14.052.042.021.036.011.2.03.093.027a1.153,1.153,0,0,0,.154-.011c.078-.008-.079.026-.006,0l.063-.02c.028-.01.056-.02.083-.032.011,0,.122-.056.063-.027-.042.021.08-.046.1-.059.053-.032.106-.065.159-.1.105-.067.21-.137.317-.2a2.17,2.17,0,0,1,.816-.309,3.223,3.223,0,0,1,1.273.154,13.711,13.711,0,0,1,1.518.549c.489.2.971.422,1.46.625.219.092.439.181.664.261l.139.049.078.026c-.016,0-.1-.031-.015,0,.116.034.233.064.35.093a12.334,12.334,0,0,0,4.166.528,5.414,5.414,0,0,0,1.747-.478,6.95,6.95,0,0,0,1.459-.922,9.828,9.828,0,0,0,2.259-2.764,28.57,28.57,0,0,0,1.656-3.648q.812-2.049,1.622-4.1l.411-1.039a.525.525,0,0,1,.687-.242.515.515,0,0,1,.246.677" transform="translate(-1846.555 -888.054)" fill="#24221e"/>
        <path id="패스_2211" data-name="패스 2211" d="M1855.9,929.92c1.958,1.639,3.418,4.015,4.978,6.033l5.5,7.107a2.952,2.952,0,0,0,1.333,1.146c.311.093.633.065.944.157s.634.383.593.692a.708.708,0,0,1-.382.453,44.789,44.789,0,0,1-5.431,3,1.414,1.414,0,0,1-1.015.178,1.812,1.812,0,0,1-.69-.507q-3.341-3.386-6.611-6.841c-2.072-2.19-4.606-3.978-6.125-6.61a6.908,6.908,0,0,1-1.033-3.848,4.225,4.225,0,0,1,1.948-3.373" transform="translate(-1827.031 -880.011)" fill="#5b5b5b"/>
        <path id="패스_2212" data-name="패스 2212" d="M1855,928.3a22.632,22.632,0,0,1,3.568,4.1c1.144,1.567,2.329,3.1,3.517,4.637l1.929,2.493c.608.787,1.193,1.6,1.837,2.362a2.554,2.554,0,0,0,.347.349,1.194,1.194,0,0,0,.436.252,5.348,5.348,0,0,0,.631.087,1.738,1.738,0,0,1,.743.282,1.043,1.043,0,0,1,.4,1.366,3.168,3.168,0,0,1-1.145.888q-1.272.792-2.6,1.5-.668.356-1.348.692a8.466,8.466,0,0,1-1.363.617,1.587,1.587,0,0,1-1.535-.34c-.36-.31-.68-.675-1.012-1.013q-1.111-1.132-2.214-2.271-1.077-1.113-2.148-2.234c-.678-.709-1.342-1.435-2.038-2.128-1.258-1.251-2.617-2.4-3.823-3.7a11.028,11.028,0,0,1-2.759-4.606,5.371,5.371,0,0,1,1.024-5,4.153,4.153,0,0,1,.93-.765.534.534,0,0,1,.72.121.507.507,0,0,1-.123.708,3.349,3.349,0,0,0-1.372,1.557,4.356,4.356,0,0,0-.354,2.135,8.418,8.418,0,0,0,2.144,4.542,40.761,40.761,0,0,0,3.494,3.477c1.363,1.287,2.62,2.679,3.918,4.029,1.365,1.419,2.719,2.855,4.127,4.233a1.222,1.222,0,0,0,.4.3.7.7,0,0,0,.453-.061c.445-.172.873-.4,1.3-.615q1.239-.617,2.434-1.313.625-.364,1.239-.747c.195-.122.39-.243.581-.369.036-.024.072-.047.107-.073.016-.012.107-.07.041-.028.036-.023.051-.048.019-.011.027-.054.029-.06.006-.019a.094.094,0,0,0,0,.067c0-.011-.044-.085-.011-.024-.049-.089.017,0-.062-.068,0,0-.075-.058-.03-.028a.614.614,0,0,0-.153-.072,5.4,5.4,0,0,0-.586-.076,2.243,2.243,0,0,1-1.175-.549,6.66,6.66,0,0,1-.858-.975l-.909-1.175-1.84-2.379c-1.173-1.516-2.371-3.017-3.5-4.564a35.188,35.188,0,0,0-3.156-3.988q-.426-.432-.891-.825a.512.512,0,0,1,.663-.779" transform="translate(-1825.796 -878.786)" fill="#24221e"/>
        <path id="패스_2213" data-name="패스 2213" d="M1878.637,878.413a19.035,19.035,0,0,1,1.292,6.448c.114,3.079.21,6.159.315,9.239a18.911,18.911,0,0,1-16.458-1.8,1.768,1.768,0,0,1-.7-.667,1.916,1.916,0,0,1-.1-1,40.443,40.443,0,0,1,1.567-8.168,17.412,17.412,0,0,1,3.14-5.679c.954-1.282,2.407-3.179,3.992-1.781" transform="translate(-1842.454 -842.399)" fill="#5b5b5b"/>
        <path id="패스_2214" data-name="패스 2214" d="M1877.886,877.015a13.839,13.839,0,0,1,.835,2.7,22.191,22.191,0,0,1,.418,2.783c.089,1.013.1,2.032.14,3.048q.061,1.733.117,3.464.063,1.913.128,3.826a.524.524,0,0,1-.334.521,19.139,19.139,0,0,1-7.758,1.1,19.491,19.491,0,0,1-7.481-2.007,18.743,18.743,0,0,1-1.779-1.014,2.145,2.145,0,0,1-.716-.68,2.072,2.072,0,0,1-.227-1.214,33.6,33.6,0,0,1,.61-4.457,35.987,35.987,0,0,1,1.109-4.365,14.74,14.74,0,0,1,1.642-3.389c.363-.561.747-1.108,1.143-1.647.351-.479.7-.962,1.09-1.412.773-.894,1.871-1.8,3.139-1.371a2.514,2.514,0,0,1,.822.493.511.511,0,0,1,.064.715.528.528,0,0,1-.727.063,1.845,1.845,0,0,0-.294-.219,1.785,1.785,0,0,0-.164-.081c-.031-.013-.062-.025-.094-.036.083.029-.018,0-.035-.007-.062-.012-.122-.023-.184-.031s.016,0,.024,0h-.091c-.061,0-.12.012-.179.018-.023,0-.1.023,0,0l-.088.025c-.059.018-.117.039-.174.063l-.086.038s-.074.037-.026.012-.035.02-.046.027c-.028.016-.056.033-.084.051-.063.039-.125.082-.185.126-.1.071-.19.147-.28.226s-.037.033-.02.018l-.077.074c-.051.05-.1.1-.151.152a13.262,13.262,0,0,0-1.051,1.29c-.369.5-.735,1-1.083,1.507a16.821,16.821,0,0,0-.881,1.436,13.6,13.6,0,0,0-.755,1.631,27.213,27.213,0,0,0-1.1,3.972,40.7,40.7,0,0,0-.68,4.217c-.036.333-.082.689-.094,1.012a2.056,2.056,0,0,0,.021.367.976.976,0,0,0,.063.169c-.021-.038.042.057.047.063s.074.086.044.055a3.034,3.034,0,0,0,.685.48q.4.24.808.459a18.516,18.516,0,0,0,6.938,2.112,18.093,18.093,0,0,0,3.607,0,17.011,17.011,0,0,0,3.5-.7q.438-.136.868-.294l-.334.52c-.077-2.261-.149-4.523-.227-6.785a37.355,37.355,0,0,0-.489-5.921,13.31,13.31,0,0,0-.861-2.848.511.511,0,0,1,.3-.653.529.529,0,0,1,.664.3" transform="translate(-1841.22 -841.177)" fill="#24221e"/>
        <path id="패스_2215" data-name="패스 2215" d="M1873.729,881.779a1.637,1.637,0,0,1,.864,1.126,2.063,2.063,0,0,1-.59,2.221,1.867,1.867,0,0,1-2.318-.437,6.085,6.085,0,0,1-1.2-2.345,2.6,2.6,0,0,1-.769,2.67,2.317,2.317,0,0,1-2.656.183,3.768,3.768,0,0,1-1.484-2.335,4.409,4.409,0,0,1,.175-3.031" transform="translate(-1837.614 -846.174)" fill="#fff"/>
        <path id="패스_2216" data-name="패스 2216" d="M1872.708,880.082a2.283,2.283,0,0,1,1.214,1.789,2.689,2.689,0,0,1-.4,1.967,1.945,1.945,0,0,1-1.844.785,2.821,2.821,0,0,1-1.833-1.078,7.137,7.137,0,0,1-1.084-2.261l.967-.355a3.145,3.145,0,0,1-.294,2.488,2.807,2.807,0,0,1-2.182,1.374,2.9,2.9,0,0,1-2.4-1,5.058,5.058,0,0,1-1.082-2.362,4.724,4.724,0,0,1,.278-3.054.529.529,0,0,1,.687-.242.512.512,0,0,1,.246.677,3.535,3.535,0,0,0-.263,2.077,4.778,4.778,0,0,0,.667,1.92,1.969,1.969,0,0,0,1.474.973c-.017,0,.163.01.1.008s.114,0,.1,0q.11,0,.221-.018c.046-.006.092-.013.137-.022.1-.018-.111.037.054-.013.088-.027.176-.054.262-.089a1.641,1.641,0,0,0,.684-.531,2.158,2.158,0,0,0,.379-.845,1.806,1.806,0,0,0,.047-.479,2.623,2.623,0,0,0-.023-.269c-.006-.044-.013-.089-.022-.133s-.007-.035,0,0c-.009-.035-.018-.069-.029-.1a.519.519,0,0,1,.3-.654.524.524,0,0,1,.664.3,8.5,8.5,0,0,0,.669,1.615,2.811,2.811,0,0,0,.493.63,1.794,1.794,0,0,0,.62.374c.009,0,.093.031.023.01l.076.02c.059.015.118.027.178.036.025,0,.2.012.117.014a1.785,1.785,0,0,0,.2-.012c.033,0,.067-.009.1-.016-.011,0-.071.018-.013,0s.111-.038.165-.06c.1-.04.038-.02.018-.009.03-.017.059-.036.087-.056s.146-.128.087-.066c.039-.04.075-.083.111-.125.008-.009.067-.089.034-.042s.014-.024.016-.027c.032-.057.062-.113.089-.173.011-.024.068-.184.044-.106a2.172,2.172,0,0,0,.073-.345c0-.021.016-.2.013-.118,0-.069,0-.137,0-.206s-.01-.137-.019-.2c0-.034-.01-.068-.016-.1,0-.011-.03-.139-.016-.083s-.009-.029-.01-.032c-.014-.044-.026-.089-.041-.133-.027-.079-.06-.156-.094-.233a.575.575,0,0,0-.072-.127,1.482,1.482,0,0,0-.13-.175c.042.048-.016-.015-.021-.021-.033-.029-.066-.058-.1-.084s-.009-.009,0,0a1.035,1.035,0,0,0-.142-.069.511.511,0,0,1-.246-.676.529.529,0,0,1,.687-.242" transform="translate(-1836.373 -844.937)" fill="#24221e"/>
        <path id="패스_2217" data-name="패스 2217" d="M1836.723,800.683a19.263,19.263,0,0,1-5.242.606,9.427,9.427,0,0,1-2.554-.488,14.762,14.762,0,0,1,28.437.007,22.176,22.176,0,0,1-12.467-4.04c-2.056,2.258-5.17,3.241-8.173,3.914" transform="translate(-1809.536 -782.429)" fill="#24221e"/>
        <path id="패스_2218" data-name="패스 2218" d="M1835.715,799.923a23.946,23.946,0,0,1-4.128.64,10.974,10.974,0,0,1-4.069-.538.506.506,0,0,1-.287-.551,15.052,15.052,0,0,1,3.807-6.655,15.265,15.265,0,0,1,6.7-3.965,15.56,15.56,0,0,1,7.939-.133,15.373,15.373,0,0,1,6.616,3.539,15.01,15.01,0,0,1,4.095,6.241q.149.442.27.894c.076.285-.073.689-.439.683a22.926,22.926,0,0,1-10.272-2.578,22.456,22.456,0,0,1-2.57-1.578l.727-.063a13.482,13.482,0,0,1-6.363,3.553c-.669.192-1.346.358-2.025.511a.536.536,0,0,1-.663-.3.509.509,0,0,1,.3-.654A28.382,28.382,0,0,0,1838.8,798a12.74,12.74,0,0,0,3.077-1.545,8.449,8.449,0,0,0,1.433-1.251.536.536,0,0,1,.727-.063,21.776,21.776,0,0,0,12.09,3.923l-.438.684a14.447,14.447,0,0,0-.594-1.762q-.17-.414-.367-.817c-.065-.134-.132-.266-.2-.4-.015-.029-.031-.059-.047-.087.039.071,0,0-.008-.014-.04-.072-.08-.144-.121-.216a14.385,14.385,0,0,0-1-1.52q-.266-.353-.552-.689-.142-.168-.291-.332l-.133-.144c.055.059,0,0-.011-.012l-.1-.106a14.727,14.727,0,0,0-1.339-1.221q-.344-.277-.7-.533-.18-.128-.364-.25l-.164-.108-.083-.053c.078.05-.04-.025-.056-.035a14.7,14.7,0,0,0-3.275-1.512l-.016,0-.12-.037-.216-.063q-.229-.065-.461-.123-.441-.11-.888-.192a14.765,14.765,0,0,0-1.853-.222l-.1-.006c.09,0-.021,0-.043,0l-.233-.007q-.235-.005-.47,0-.487,0-.974.041a15.129,15.129,0,0,0-1.955.273c-.154.032-.193.041-.385.089q-.232.056-.462.121-.469.132-.928.293a14.617,14.617,0,0,0-1.743.744l-.092.047c-.147.076.045-.024-.042.022l-.2.11c-.135.074-.269.151-.4.229q-.407.241-.8.508a14.678,14.678,0,0,0-1.462,1.14l-.076.068c-.121.108.037-.034-.034.031l-.166.156q-.165.157-.325.318-.329.332-.635.685a14.565,14.565,0,0,0-1.118,1.461l-.056.084c-.089.135.026-.042-.025.039l-.121.192q-.12.193-.234.39-.233.4-.441.824a14.361,14.361,0,0,0-.711,1.708c-.05.148-.061.18-.115.36q-.066.22-.126.442l-.287-.551c2.391.817,4.992.4,7.4-.135a.537.537,0,0,1,.664.3.509.509,0,0,1-.3.653" transform="translate(-1808.349 -781.193)" fill="#24221e"/>
        <path id="패스_2219" data-name="패스 2219" d="M1830.578,818.171a3.654,3.654,0,0,1,1.43.159c.065-.341.145-.677.233-1.009a9.44,9.44,0,0,0,2.555.488,19.274,19.274,0,0,0,5.242-.606c3-.673,6.118-1.656,8.174-3.914a22.174,22.174,0,0,0,12.466,4.04,14.356,14.356,0,0,1,.429,2.418,14.545,14.545,0,0,1-13.365,15.687,14.7,14.7,0,0,1-15.422-10.445,3.653,3.653,0,0,1-1.111.277,3.561,3.561,0,1,1-.632-7.093" transform="translate(-1812.852 -798.949)" fill="#ffe3d4"/>
        <path id="패스_2220" data-name="패스 2220" d="M1829.331,816.438a4.214,4.214,0,0,1,1.569.165l-.6.408c.066-.339.145-.675.234-1.009a.528.528,0,0,1,.728-.368,13.222,13.222,0,0,0,7.006-.05c1.006-.214,2.007-.46,2.988-.768.484-.152.963-.32,1.434-.508q.357-.144.707-.3.16-.074.319-.152c.1-.051.209-.1.274-.138a11.285,11.285,0,0,0,1.428-.9,8.159,8.159,0,0,0,1.2-1.08.536.536,0,0,1,.727-.063,21.771,21.771,0,0,0,12.09,3.923.53.53,0,0,1,.529.329,14.93,14.93,0,0,1-.644,9.608,15.132,15.132,0,0,1-5.5,6.646,15.423,15.423,0,0,1-17.369-.176,15.056,15.056,0,0,1-5.464-7.008q-.2-.521-.35-1.056l.663.3a4.206,4.206,0,0,1-5.056-1.506,4.059,4.059,0,0,1,.379-4.962,4.216,4.216,0,0,1,2.709-1.331.522.522,0,0,1,.559.462.517.517,0,0,1-.469.55c-.1.01-.205.022-.307.039-.007,0-.171.033-.064.01l-.1.023a3.652,3.652,0,0,0-.563.2c-.046.02-.089.041-.134.062-.142.068.08-.051-.054.029-.07.042-.14.082-.208.126s-.16.109-.236.168l-.075.06c-.014.011-.155.136-.084.07a3.591,3.591,0,0,0-.357.387c-.05.063-.1.127-.142.192-.091.125.045-.082-.034.05-.032.055-.065.11-.1.166a4.28,4.28,0,0,0-.217.482c-.006.013-.032.092-.006.012-.015.046-.028.093-.041.139-.028.1-.051.205-.069.31q-.023.133-.037.268c0,.049-.009.1-.011.149,0-.087,0,0,0,.013a4.42,4.42,0,0,0,.046.608,2.253,2.253,0,0,0,.115.446c.031.093.067.184.107.273l.041.089c.007.016.1.184.048.1a3.653,3.653,0,0,0,.293.441c.049.063.1.124.153.185.1.117-.069-.063.042.044.046.044.091.089.139.133a4.233,4.233,0,0,0,.416.325c.081.057.029.02.01.008.041.025.083.05.125.073.092.051.185.1.281.142s.195.08.293.118c.147.056-.094-.023.058.019.047.013.094.027.143.039a3.828,3.828,0,0,0,.639.1c.162.012-.1,0,.065,0l.154,0a3.657,3.657,0,0,0,.413-.036,3.208,3.208,0,0,0,.769-.223.521.521,0,0,1,.664.3,13.671,13.671,0,0,0,1.8,3.878,14.518,14.518,0,0,0,1.323,1.686l.1.109c-.015-.016-.058-.061.011.012s.125.131.188.195q.2.2.4.4.394.371.816.712.4.326.826.623.222.156.45.3l.069.045.07.044c.084.052.169.1.254.154a14.746,14.746,0,0,0,1.956.97,12.7,12.7,0,0,0,1.974.637,14.773,14.773,0,0,0,2.218.36,14.043,14.043,0,0,0,2.166.013q.571-.039,1.139-.122c.185-.027.371-.057.556-.091l.25-.048.124-.026.088-.019a14.923,14.923,0,0,0,2.078-.633,13.744,13.744,0,0,0,1.85-.873,14.68,14.68,0,0,0,1.767-1.184,12.432,12.432,0,0,0,1.469-1.326,14.68,14.68,0,0,0,1.342-1.617c.093-.13.183-.261.271-.393,0-.005.09-.137.034-.05l.064-.1q.084-.131.164-.264.261-.43.49-.877a14.243,14.243,0,0,0,.825-1.944c0,.009.047-.141.025-.074s.027-.084.024-.075q.037-.116.071-.231.083-.279.155-.561.129-.508.221-1.024a13.359,13.359,0,0,0,.041-4.538,13.636,13.636,0,0,0-.286-1.37l.529.329a22.93,22.93,0,0,1-10.272-2.578,22.54,22.54,0,0,1-2.571-1.579l.727-.063a12.626,12.626,0,0,1-5.42,3.261,30.93,30.93,0,0,1-3.073.826,24.159,24.159,0,0,1-3.845.607,11.076,11.076,0,0,1-4.248-.529l.729-.367c-.089.334-.168.67-.233,1.009a.519.519,0,0,1-.6.408,3.4,3.4,0,0,0-1.292-.153.522.522,0,0,1-.559-.461.517.517,0,0,1,.469-.551" transform="translate(-1811.651 -797.721)" fill="#24221e"/>
        <path id="패스_2221" data-name="패스 2221" d="M1850.052,832.24a.964.964,0,1,0,.877-1.029.96.96,0,0,0-.877,1.029" transform="translate(-1810.379 -811.666)" fill="#24221e"/>
        <path id="패스_2222" data-name="패스 2222" d="M1879.271,834.8a.964.964,0,1,0,.877-1.029.96.96,0,0,0-.877,1.029" transform="translate(-1848.213 -813.484)" fill="#24221e"/>
        <path id="패스_2223" data-name="패스 2223" d="M1862.216,836.073c-.118-.039.11.03-.008,0l-.067-.019c-.059-.016-.119-.03-.179-.041a2.458,2.458,0,0,0-.328-.041l.138.006a1.945,1.945,0,0,0-.5.041l.135-.03a1.885,1.885,0,0,0-.3.1l-.067.03c-.075.035-.011,0,.025-.014a.817.817,0,0,0-.158.094.529.529,0,0,1-.719-.121.51.51,0,0,1,.123-.708,2.432,2.432,0,0,1,1.1-.4,3.063,3.063,0,0,1,1.242.185.5.5,0,0,1,.246.676.518.518,0,0,1-.286.259.613.613,0,0,1-.4-.017" transform="translate(-1824.317 -814.329)" fill="#24221e"/>
        <path id="패스_2224" data-name="패스 2224" d="M1831.409,836.264a3.054,3.054,0,1,0,2.776-3.257,3.041,3.041,0,0,0-2.776,3.257" transform="translate(-1790.407 -812.935)" fill="#ffb18f"/>
        <path id="패스_2225" data-name="패스 2225" d="M1891.426,841.524a3.053,3.053,0,1,0,2.775-3.257,3.04,3.04,0,0,0-2.775,3.257" transform="translate(-1868.119 -816.667)" fill="#ffb18f"/>
        <path id="패스_2226" data-name="패스 2226" d="M1845.579,890.884a3.55,3.55,0,0,1,2.673-.547,1.15,1.15,0,0,1,.764.556.573.573,0,0,1-.323.772.892.892,0,0,1,.957.575.807.807,0,0,1-.531.932.892.892,0,0,1,1.059.333.735.735,0,0,1-.309.98c.419-.178.8.41.59.782a2.137,2.137,0,0,1-1.113.709,9.994,9.994,0,0,0-2.117,1.282,41.676,41.676,0,0,0-3.414-5.209c.6-.365,1.155-.806,1.764-1.165" transform="translate(-1807.083 -853.568)" fill="#ffe3d4"/>
        <path id="패스_2227" data-name="패스 2227" d="M1844.059,889.219a4.06,4.06,0,0,1,3.092-.624,1.555,1.555,0,0,1,1.172,1.02,1.082,1.082,0,0,1-.671,1.276l-.225-.982a1.412,1.412,0,0,1,1.491.927,1.321,1.321,0,0,1-.841,1.562l-.36-.953a1.42,1.42,0,0,1,1.661.515,1.239,1.239,0,0,1-.432,1.688l-.478-.891a1.008,1.008,0,0,1,1.284.66,1.179,1.179,0,0,1-.578,1.372c-.434.279-.956.423-1.4.663a12.046,12.046,0,0,0-1.466.969.527.527,0,0,1-.782-.237,41.128,41.128,0,0,0-3.351-5.093.507.507,0,0,1,.122-.708c.6-.367,1.158-.8,1.764-1.166a.534.534,0,0,1,.719.121.508.508,0,0,1-.122.708c-.607.362-1.162.8-1.764,1.165q.062-.354.123-.708a42.776,42.776,0,0,1,3.476,5.326l-.782-.237a10.935,10.935,0,0,1,2.389-1.407c.087-.035.173-.07.258-.109a1.178,1.178,0,0,0,.175-.088l.133-.088.041-.032q-.039.039,0,0c.03-.03.054-.066.083-.1-.036.037,0-.033,0,.014,0,.07,0-.034.006-.051-.02.11-.007.022-.014-.021.012.07.02.05-.01,0s.054.072-.005,0c-.078-.1.079.065-.015-.018-.046-.042-.016-.008.017.009-.07-.035.052,0,.088,0-.1,0,.093-.039-.02,0a.519.519,0,0,1-.632-.241.5.5,0,0,1,.154-.65.87.87,0,0,0,.1-.07c.035-.028-.015.053.024-.031.014-.03.032-.059.008-.011.006-.011.051-.125.033-.068s.011-.075.011-.074c-.007.051-.011.042,0,0,0-.015,0-.031-.005-.046.013.05.014.057,0,.021a.333.333,0,0,0-.017-.044c-.015-.033-.012-.029.007.014,0-.02-.046-.061,0-.01a.6.6,0,0,0-.09-.075c-.063-.045.1.045-.032-.014-.033-.015-.061-.027-.009-.01a.853.853,0,0,0-.12-.026c-.025,0-.123,0-.033,0l-.1.008c.1-.011-.033.012-.054.02a.528.528,0,0,1-.664-.3.514.514,0,0,1,.3-.653l.048-.019c-.034.02-.036.02-.005,0a.771.771,0,0,0,.082-.059c.028-.022.026-.021-.006,0l.033-.037c.017-.026.039-.058.012-.012,0,0,.057-.121.039-.069s.016-.075.016-.076c.013-.061.02-.032,0,0l0-.047c.014.048.015.053,0,.017,0-.009-.039-.095-.016-.051s-.047-.062-.048-.063c.054.065-.108-.076-.082-.062a.376.376,0,0,0-.1-.04c-.034-.007-.068-.013-.1-.017.089.01-.059.007-.071.008a.51.51,0,0,1-.225-.982c.061-.023.037.006.007,0,.042-.032.048-.036.021-.014s-.021.018,0,0c.044-.062-.049.055,0,0,.015-.034.014-.026,0,.021,0-.015.006-.029.01-.044s0-.083,0,0a.622.622,0,0,0-.009-.088c.023.11-.024,0,0,.02s-.031-.041-.039-.05q-.032-.04,0,0l-.04-.035c-.028-.021-.055-.046-.086-.065.044.028-.019-.009-.031-.014-.042-.02-.084-.041-.127-.058a.718.718,0,0,0-.179-.054,2.331,2.331,0,0,0-.273-.044,3.383,3.383,0,0,0-1.888.536.536.536,0,0,1-.72-.121.508.508,0,0,1,.123-.709" transform="translate(-1805.861 -852.319)" fill="#24221e"/>
        <path id="패스_2228" data-name="패스 2228" d="M1854.991,886.673c.13-1.708,1.341-4.764,3.85-3.611a4.34,4.34,0,0,1,1.02.728c1.164,1.016,2.043,2.578,3.5,3.229a5.839,5.839,0,0,0,4.758.054,6.081,6.081,0,0,0,.562-.3,41.7,41.7,0,0,1,3.414,5.209,16.89,16.89,0,0,1-3.1,2.083,9.382,9.382,0,0,1-3.055.721,11.818,11.818,0,0,1-7.86-1.953,7.135,7.135,0,0,1-3.084-6.155" transform="translate(-1831.946 -848.288)" fill="#fff"/>
        <path id="패스_2229" data-name="패스 2229" d="M1853.218,885.354c.146-1.825,1.253-4.386,3.467-4.271,1.378.072,2.416,1.182,3.265,2.139a17.229,17.229,0,0,0,1.246,1.341,4.2,4.2,0,0,0,1.56.947,5.159,5.159,0,0,0,4.359-.384.533.533,0,0,1,.719.121,42.664,42.664,0,0,1,3.476,5.326.506.506,0,0,1-.185.592,13.469,13.469,0,0,1-4.146,2.485,12.83,12.83,0,0,1-4.853.39,10.326,10.326,0,0,1-7.62-4.079,7.235,7.235,0,0,1-1.288-4.607.516.516,0,0,1,1.015.183,6,6,0,0,0,.018.9,5.8,5.8,0,0,0,.153.882,6.737,6.737,0,0,0,.321.928,5.751,5.751,0,0,0,.42.815,7.685,7.685,0,0,0,2.824,2.68,10.717,10.717,0,0,0,3.886,1.247,12.2,12.2,0,0,0,4.266-.159,7.377,7.377,0,0,0,2.354-.986c.717-.458,1.374-1,2.052-1.507l-.186.592a40.993,40.993,0,0,0-3.351-5.093l.719.121a6.009,6.009,0,0,1-2.113.8,6.361,6.361,0,0,1-2.166-.023,5.85,5.85,0,0,1-1.962-.69,7.113,7.113,0,0,1-1.527-1.293c-.212-.227-.416-.46-.62-.693-.1-.109-.192-.219-.289-.327l-.164-.181c-.058-.063-.043-.048-.112-.12a4.828,4.828,0,0,0-1.523-1.186c-.069-.028-.139-.056-.21-.078.094.03-.078-.019-.1-.023a2.257,2.257,0,0,0-.387-.056c.118.006-.027,0-.066.005s-.105.007-.157.014-.172.034-.055,0c-.062.015-.122.032-.182.053s-.095.035-.14.055-.15.079-.051.021a2.664,2.664,0,0,0-.284.187c-.022.017-.146.12-.1.079s-.065.062-.078.076a3.28,3.28,0,0,0-.235.268c-.037.048-.073.1-.108.145l-.047.067c-.067.1.037-.065-.018.028-.071.119-.14.237-.2.361a6.418,6.418,0,0,0-.306.73c-.007.021-.03.093,0-.008-.013.039-.025.078-.037.117-.018.058-.034.117-.05.175q-.049.182-.088.365a5.821,5.821,0,0,0-.1.712.516.516,0,0,1-1.015-.183" transform="translate(-1830.68 -847.06)" fill="#24221e"/>
        <path id="패스_2230" data-name="패스 2230" d="M1821.159,883.526a4.325,4.325,0,0,0-3.082-2.821c-.992-.274-2.633-.414-2.453,1.068a.939.939,0,0,0,.9.813,1.968,1.968,0,0,0-.494.9.68.68,0,0,0,.5.789c.192.024.423-.05.555.089a.784.784,0,0,0-.248,1.032.811.811,0,0,0,1.039.279,1.521,1.521,0,0,0,1.591,1.12,2.019,2.019,0,0,0,1.625-1.209,2.964,2.964,0,0,0,.062-2.062" transform="translate(-1769.561 -846.67)" fill="#ffe3d4"/>
        <path id="패스_2231" data-name="패스 2231" d="M1819.5,882.452a3.415,3.415,0,0,0-.354-.8,3.916,3.916,0,0,0-.255-.36c-.048-.061-.1-.12-.15-.179-.006-.008-.066-.071-.016-.019-.036-.037-.073-.074-.11-.11a4.022,4.022,0,0,0-1.5-.933l-.1-.036c-.017-.006-.124-.042-.05-.018-.062-.019-.124-.037-.187-.054-.1-.028-.209-.053-.315-.075s-.223-.042-.336-.057l-.153-.018c-.039,0-.236-.008-.091-.008-.107,0-.212,0-.318.007-.054,0-.108.013-.161.019-.023,0-.046.01-.07.012.129-.01.044-.012,0,0s-.085.026-.127.043c-.02.008-.04.018-.06.025-.1.036.066-.053.019-.01a.563.563,0,0,1-.1.071c-.054.025.078-.093.016-.015-.016.02-.034.04-.052.059s-.046.091.008-.018c-.012.024-.027.048-.038.073s-.022.052-.032.078c.023-.056.018-.073.007,0-.006.031-.013.062-.017.093,0,.015-.009.127-.007.054s0,.062,0,.062c0,.039.005.078.009.117a.475.475,0,0,0,.133.265c-.046-.045.08.061.07.053-.054-.04.016.01.041.022s.12.04.039.019c.022.006.161.018.064.016a.515.515,0,0,1,.44.833,2.225,2.225,0,0,0-.345.518c-.031.071-.015.01-.027.091,0,.014-.012.145-.012.079,0-.091.024.136.005.047-.011-.059.027.071.033.087.015.033.012.028-.01-.016l.025.037q.056.069,0,0l.034.028c-.045-.025-.051-.03-.019-.014s.026.014-.024,0c.051.007.06.009.025.007s-.027,0,.031,0a1.056,1.056,0,0,1,.783.2.509.509,0,0,1-.033.8s-.1.082-.061.044-.037.051-.043.061c.04-.061,0,0-.008.034-.026.07.008-.1-.009.03,0,.031-.012.061-.014.092.009-.1,0,0,.008.027s0,.031-.009-.019l.014.044.016.044q-.037-.06-.007-.013c.009.019.079.091.015.03a.721.721,0,0,0,.072.06c-.076-.057.158.048.06.027.013,0,.138.024.072.017s.07,0,.072,0c.049,0,.052-.015,0,0a.985.985,0,0,0,.13-.054.494.494,0,0,1,.456.052.532.532,0,0,1,.238.38c-.02-.091.028.067.035.086s.019.047.03.069c-.019-.035-.02-.036,0-.006.031.051.067.1.1.145.056.076-.029-.014.05.054a1.047,1.047,0,0,0,.465.273c-.077-.025.082.016.1.019a1.545,1.545,0,0,0,.155.022h-.008c.035,0,.07,0,.1,0a1.577,1.577,0,0,0,.163-.02c-.083.015.073-.02.076-.021.052-.016.1-.034.153-.055,0,0,.148-.069.077-.032a1.612,1.612,0,0,0,.162-.1,1.629,1.629,0,0,0,.664-.946,2.662,2.662,0,0,0-.046-1.414.515.515,0,0,1,.968-.355,3.062,3.062,0,0,1-1.128,3.63,2.221,2.221,0,0,1-1.93.176,1.958,1.958,0,0,1-1.218-1.434l.694.432a1.327,1.327,0,0,1-1.651-.482,1.292,1.292,0,0,1,.382-1.72q-.016.4-.033.8a.442.442,0,0,0,.078.031c-.06-.007-.062-.007-.006,0-.068,0-.135,0-.2,0a1.1,1.1,0,0,1-.482-.1,1.159,1.159,0,0,1-.568-.678,1.87,1.87,0,0,1,.554-1.744l.44.832a1.458,1.458,0,0,1-1.216-.626,1.673,1.673,0,0,1-.24-1.2,1.488,1.488,0,0,1,1.3-1.205,3.928,3.928,0,0,1,1.653.115,5.515,5.515,0,0,1,2.071,1.007,4.513,4.513,0,0,1,1.5,2.163.518.518,0,0,1-.3.654.525.525,0,0,1-.664-.3" transform="translate(-1768.384 -845.419)" fill="#24221e"/>
        <path id="패스_2232" data-name="패스 2232" d="M1860.693,842.836a4.929,4.929,0,0,1-4.964.314.516.516,0,0,1-.246-.677.525.525,0,0,1,.687-.242,3.857,3.857,0,0,0,3.927-.224.53.53,0,0,1,.719.121.51.51,0,0,1-.123.708" transform="translate(-1820.897 -819.266)" fill="#24221e"/>
      </g>
    </g>
    <g id="마스크_그룹_112" data-name="마스크 그룹 112" transform="translate(403.026 352.354) rotate(13)" clip-path="url(#clip-path-2)">
      <path id="XMLID_1006_" d="M3.925,1.3v7.53a2.314,2.314,0,0,0-.881-.17,3.051,3.051,0,0,0-2.12.928,2.634,2.634,0,0,0-.307,3.682,2.184,2.184,0,0,0,1.562.621,3.051,3.051,0,0,0,2.12-.928,3.107,3.107,0,0,0,.912-1.833,2.569,2.569,0,0,0,.015-.284h0V3.686l5.208-.866V7.53a2.314,2.314,0,0,0-.881-.17,3.051,3.051,0,0,0-2.12.928,2.634,2.634,0,0,0-.307,3.682,2.184,2.184,0,0,0,1.562.621,3.051,3.051,0,0,0,2.12-.928,3.107,3.107,0,0,0,.912-1.833,2.569,2.569,0,0,0,.015-.284h0V0Z" transform="translate(1.077 0)"/>
    </g>
    <path id="패스_2237" data-name="패스 2237" d="M2.165,0A11.279,11.279,0,0,0,.741,10.828" transform="translate(352.002 395.045) rotate(-18)" fill="none" stroke="#000" stroke-linecap="round" stroke-width="1.5"/>
    <path id="패스_2238" data-name="패스 2238" d="M2.165,0A11.279,11.279,0,0,0,.741,10.828" transform="translate(346.561 392.011) rotate(-12)" fill="none" stroke="#000" stroke-linecap="round" stroke-width="1.5"/>
  </g>
</svg>
