<svg xmlns="http://www.w3.org/2000/svg" xmlns:xlink="http://www.w3.org/1999/xlink" width="70.823" height="59" viewBox="0 0 70.823 59">
  <defs>
    <clipPath id="clip-path">
      <rect id="사각형_1069" data-name="사각형 1069" width="61.136" height="54" fill="#fff" stroke="#707070" stroke-width="1"/>
    </clipPath>
    <clipPath id="clip-path-2">
      <rect id="사각형_937" data-name="사각형 937" width="9.321" height="9.321" fill="#26282b"/>
    </clipPath>
  </defs>
  <g id="img" transform="translate(9.001 -0.942)">
    <g id="그룹_1296" data-name="그룹 1296" transform="translate(-2.001 5.942)">
      <g id="마스크_그룹_114" data-name="마스크 그룹 114" clip-path="url(#clip-path)">
        <g id="그룹_1295" data-name="그룹 1295" transform="translate(1.695 2.264)">
          <path id="패스_2293" data-name="패스 2293" d="M993.873,689.441q.04,2.831.081,5.663c.038,2.673.127,5.516,1.622,7.735,1.532,2.273,4.195,3.353,6.783,3.91.9.194,2.78.818,3.582.151.892-.743.618-3.015.7-4.029a2.132,2.132,0,0,0-.3-1.582,3.721,3.721,0,0,0-1.193-.672,3.939,3.939,0,0,1-1.549-1.747,9.533,9.533,0,0,1-1.069-4.249c-.021-1.418.638-2.33-.95-2.95a18.9,18.9,0,0,0-3.551-1" transform="translate(-968.291 -618.471)" fill="#ffd8c7"/>
          <path id="패스_2294" data-name="패스 2294" d="M992.373,688.448c.029,2.018.052,4.037.087,6.055a19.957,19.957,0,0,0,.574,5.133,8.163,8.163,0,0,0,2.637,4.13,11.881,11.881,0,0,0,4.26,2.125c.661.191,1.336.333,2,.5a7.161,7.161,0,0,0,2.086.288,1.837,1.837,0,0,0,1.621-.941,4.661,4.661,0,0,0,.41-1.943c.028-.591,0-1.184.023-1.775a2.462,2.462,0,0,0-.6-2.216,6.278,6.278,0,0,0-1.117-.584,2.683,2.683,0,0,1-.844-.723,7.059,7.059,0,0,1-1.114-2.256,8.98,8.98,0,0,1-.425-2.662c0-.563.147-1.125.115-1.687a1.716,1.716,0,0,0-.94-1.453,7.754,7.754,0,0,0-1.236-.492q-.7-.239-1.416-.423c-.454-.116-.911-.214-1.372-.3a.487.487,0,0,0-.582.33.476.476,0,0,0,.33.581,19.162,19.162,0,0,1,2.683.685,6.9,6.9,0,0,1,1.115.433c.063.035.124.073.184.113s-.075-.069.025.018l.06.054c.021.021.118.136.088.093-.043-.06.021.037.023.041l.049.091c-.048-.09,0,0,.011.046.008.03.037.212.023.076a2.332,2.332,0,0,1,.009.345c-.011.258-.05.514-.076.77a8.561,8.561,0,0,0,.118,2.343,9.919,9.919,0,0,0,.833,2.586,5.172,5.172,0,0,0,1.5,1.971,5.479,5.479,0,0,0,1,.519.916.916,0,0,1,.6.615,3.434,3.434,0,0,1,.019,1.013c-.015.252-.012.5-.011.757,0,.3,0,.606-.008.909,0,.153-.012.306-.024.458-.006.076-.013.151-.02.226,0,.042-.009.083-.015.124.01-.079-.01.06-.011.069a4,4,0,0,1-.083.393c-.017.065-.037.13-.059.194-.009.028-.02.055-.03.082-.037.1.027-.044-.019.043-.032.06-.063.12-.1.178-.014.022-.029.043-.044.065.05-.075.018-.02,0,0a1.618,1.618,0,0,1-.134.133c.071-.059-.084.045-.113.061-.077.043-.024.01,0,0-.034.013-.069.024-.1.034a1.725,1.725,0,0,1-.2.046c-.013,0-.091.011-.015,0l-.1.008c-.092.006-.184.008-.276.006a4.668,4.668,0,0,1-.913-.109c-.615-.121-1.225-.279-1.834-.424a12.6,12.6,0,0,1-4.06-1.65,7.113,7.113,0,0,1-2.741-3.344,14.325,14.325,0,0,1-.791-4.716c-.065-1.861-.064-3.726-.091-5.588q-.011-.728-.021-1.455a.474.474,0,0,0-.947,0" transform="translate(-967.264 -617.478)" fill="#161616"/>
          <path id="패스_2295" data-name="패스 2295" d="M1028.14,724.313a2.28,2.28,0,0,0-1.782.936,2.733,2.733,0,0,0-.006,1.792,3.378,3.378,0,0,1,.112,1.8,5.865,5.865,0,0,1-.971,1.458,1.48,1.48,0,0,0-.255,1.608,1.7,1.7,0,0,0,1.052.618c.6.15,1.227.188,1.811.378,1.381.449,1.914,2.108,2.98,2.954a1.619,1.619,0,0,0,1.769.368c.681-.428.592-1.526.4-2.4a56.846,56.846,0,0,0-2.021-7.066c-.345-.966-.833-2.044-1.741-2.363a3.135,3.135,0,0,0-1.352-.086" transform="translate(-989.655 -642.339)" fill="#fff"/>
          <path id="패스_2296" data-name="패스 2296" d="M1027,722.834a3.33,3.33,0,0,0-1.634.636,1.906,1.906,0,0,0-.652,1.572,17.655,17.655,0,0,0,.329,1.879,1.667,1.667,0,0,1-.092.886,2.939,2.939,0,0,1-.4.607,3.884,3.884,0,0,0-.906,1.536,1.534,1.534,0,0,0,.662,1.662,4.434,4.434,0,0,0,1.75.519,6.186,6.186,0,0,1,.9.2,2.012,2.012,0,0,1,.54.287c.068.048-.041-.034.024.017l.058.048q.058.049.113.1c.088.081.171.166.251.253.154.168.288.339.4.489.295.393.574.8.9,1.169.7.8,2.012,1.59,3,.782.836-.683.624-2,.423-2.912q-.438-2-1.019-3.962a33.613,33.613,0,0,0-1.256-3.7,3.037,3.037,0,0,0-2.271-2.085,3.974,3.974,0,0,0-1,0,.488.488,0,0,0-.474.472.476.476,0,0,0,.474.472,2.3,2.3,0,0,1,1.445.182,1.745,1.745,0,0,1,.421.389,3.648,3.648,0,0,1,.361.57,9.526,9.526,0,0,1,.535,1.321q.313.9.6,1.8.555,1.773.993,3.579c.133.546.273,1.1.368,1.65a2.814,2.814,0,0,1-.012,1.19.654.654,0,0,1-.218.341c.069-.056-.072.042-.068.039-.1.051.012.007-.1.035a.867.867,0,0,1-.257.01,2.049,2.049,0,0,1-1.086-.635,7.63,7.63,0,0,1-.768-.949,9.324,9.324,0,0,0-.827-1.024,3.317,3.317,0,0,0-1.153-.784,8.963,8.963,0,0,0-1.609-.355c-.4-.077-1.022-.183-1.176-.584-.133-.348.159-.822.389-1.126a4.763,4.763,0,0,0,.966-1.539,4.182,4.182,0,0,0-.149-2.046,3.6,3.6,0,0,1-.118-.886,1.4,1.4,0,0,1,.065-.4.714.714,0,0,1,.117-.226,2.3,2.3,0,0,1,1.408-.569.475.475,0,0,0,.331-.581.487.487,0,0,0-.582-.33" transform="translate(-988.643 -641.316)" fill="#161616"/>
          <path id="패스_2297" data-name="패스 2297" d="M1032.134,744.343a2.7,2.7,0,0,0-1.092.975,1.86,1.86,0,0,0-.369,1.44,1.288,1.288,0,0,0,.913.97,1.438,1.438,0,0,0,1.317-.394,1.618,1.618,0,0,0,.479-1.35,5.294,5.294,0,0,0-.515-1.563l-.3-.707a2.292,2.292,0,0,1-.239-.693.6.6,0,0,1,0-.077s.063-.177.029-.11a.44.44,0,0,1,.074-.1.482.482,0,0,1,.177-.09.694.694,0,0,1,.105-.024c-.08.008.151.019.071,0a.387.387,0,0,1,.3.228c0,.006.041.08.016.023a.961.961,0,0,1,.056.194c0-.019-.005-.08,0,.025a.981.981,0,0,1,0,.2c0-.025.013-.066-.009.023a1.219,1.219,0,0,1-.06.188,1.808,1.808,0,0,1-.18.309,4.688,4.688,0,0,1-.515.588c-.424.437.245,1.106.669.668.634-.654,1.312-1.507.942-2.47a1.4,1.4,0,0,0-.971-.888,1.423,1.423,0,0,0-1.3.379,1.383,1.383,0,0,0-.25,1.443c.17.51.419,1,.631,1.5a2.26,2.26,0,0,1,.315,1.317.593.593,0,0,1-.212.329.528.528,0,0,1-.345.136c-.112-.009.024.026-.083-.018.028.012-.078-.047-.083-.05.046.032-.052-.066-.019-.019a.65.65,0,0,1-.08-.138c.021.053-.01-.052-.012-.063a.3.3,0,0,1-.007-.11.847.847,0,0,1,.067-.274,1.911,1.911,0,0,1,.96-.99.475.475,0,0,0,.17-.646.486.486,0,0,0-.648-.169" transform="translate(-993.454 -654.265)" fill="#161616"/>
          <path id="패스_2298" data-name="패스 2298" d="M1052.18,716.283c-.608-1.938-.215-7.448-.292-8.552a70.184,70.184,0,0,0-1.375-9.786c-.467-2.191-.682-5.047,1.5-6.474a3.111,3.111,0,0,1,1.746-.331c1.569.012,3.36.125,4.34,1.348a5.016,5.016,0,0,1,.844,2.2c1.465,7.3.5,14.68-.086,22.03a.97.97,0,0,1-.216.646.813.813,0,0,1-.628.144q-2.681-.151-5.33-.555c-.217-.033-.382-.28-.5-.673" transform="translate(-1006.846 -619.635)" fill="#ffd8c7"/>
          <path id="패스_2299" data-name="패스 2299" d="M1051.6,715.131a5.754,5.754,0,0,1-.176-.822c0-.019-.02-.148,0-.028,0-.04-.01-.079-.015-.119-.01-.082-.019-.164-.027-.246q-.026-.261-.044-.522c-.054-.79-.066-1.584-.064-2.376,0-1.33.076-2.661.065-3.99-.008-.947-.131-1.9-.23-2.842q-.2-1.893-.5-3.773c-.2-1.228-.427-2.449-.683-3.666a11.028,11.028,0,0,1-.279-2.389,5.834,5.834,0,0,1,.111-1.215,4.028,4.028,0,0,1,.369-1.075,2.5,2.5,0,0,1,1.884-1.461,11.438,11.438,0,0,1,1.467,0,8.071,8.071,0,0,1,1.376.155,2.887,2.887,0,0,1,2.063,1.323,5.185,5.185,0,0,1,.5,1.513c.125.6.231,1.2.323,1.8.189,1.226.31,2.463.383,3.7a64.375,64.375,0,0,1-.046,7.449c-.143,2.516-.377,5.026-.59,7.537-.048.565-.057,1.189-.143,1.724a.534.534,0,0,1-.067.2c.022-.028.054.01-.033,0,.074.005-.108.007-.094.007-.286,0-.579-.029-.865-.049-1.249-.086-2.5-.211-3.738-.383l-.461-.065-.23-.034-.077-.012c-.051-.014-.048-.009.009.014-.057-.1.028.093-.03-.023.043.085-.036-.056-.038-.058a1.277,1.277,0,0,1-.115-.275.484.484,0,0,0-.582-.33.478.478,0,0,0-.331.581,1.88,1.88,0,0,0,.4.749,1.114,1.114,0,0,0,.708.293q1,.148,2.011.263.985.112,1.973.188.5.039,1.009.069a1.944,1.944,0,0,0,.809-.059c.7-.264.688-1.027.739-1.654q.079-.981.165-1.96c.113-1.307.228-2.614.329-3.922.2-2.608.352-5.223.321-7.84a43.166,43.166,0,0,0-.768-7.9,4.69,4.69,0,0,0-1.453-2.95,5.291,5.291,0,0,0-2.868-.968c-.5-.045-1-.056-1.5-.055a3.534,3.534,0,0,0-1.714.331,4.146,4.146,0,0,0-1.8,2.189c-.684,1.8-.252,3.778.116,5.6a68.982,68.982,0,0,1,1.111,7.686,20.471,20.471,0,0,1,.105,2.116c-.011.711-.034,1.421-.047,2.131a29.775,29.775,0,0,0,.173,4.87,5.541,5.541,0,0,0,.175.822c.179.579,1.093.332.913-.251" transform="translate(-1005.807 -618.608)" fill="#161616"/>
          <path id="패스_2300" data-name="패스 2300" d="M1054.8,770.006a2.372,2.372,0,0,1,.861-1.85,2.863,2.863,0,0,1,1.812-.191,3.511,3.511,0,0,0,1.825-.076,6.431,6.431,0,0,0,1.428-1.107,1.256,1.256,0,0,1,2.289.554c.18.573.249,1.188.468,1.743.52,1.313,2.223,1.665,3.13,2.626a1.517,1.517,0,0,1,.456,1.7c-.4.714-1.514.741-2.4.645a56.847,56.847,0,0,1-7.242-1.257c-.993-.239-2.108-.608-2.473-1.468a2.966,2.966,0,0,1-.151-1.321" transform="translate(-1009.983 -671.104)" fill="#fff"/>
          <path id="패스_2301" data-name="패스 2301" d="M1054.251,768.978a2.393,2.393,0,0,1,.428-1.273c-.042.053.069-.07.061-.062s.12-.1.056-.055a1.049,1.049,0,0,1,.274-.141,2.077,2.077,0,0,1,.787-.092c.555.02,1.1.156,1.658.134a2.777,2.777,0,0,0,1.69-.664,8.622,8.622,0,0,1,1.158-.951,1.091,1.091,0,0,1,.568-.163.522.522,0,0,1,.386.244,4.2,4.2,0,0,1,.464,1.462,3.652,3.652,0,0,0,.645,1.487,7.567,7.567,0,0,0,2.064,1.508,3.064,3.064,0,0,1,.9.746,1.548,1.548,0,0,1,.285.552.557.557,0,0,1-.083.511c.044-.062-.153.142-.09.095a1.187,1.187,0,0,1-.248.141c.078-.033-.075.024-.072.023-.049.016-.1.029-.147.042a2.349,2.349,0,0,1-.293.052,6.819,6.819,0,0,1-1.4-.056q-1.842-.208-3.667-.542-1.054-.192-2.1-.423c-.592-.131-1.191-.255-1.769-.442a2.865,2.865,0,0,1-1.229-.679,1.144,1.144,0,0,1-.276-.534,2.985,2.985,0,0,1-.046-.92.477.477,0,0,0-.474-.472.482.482,0,0,0-.473.472,2.939,2.939,0,0,0,.336,1.786,2.778,2.778,0,0,0,1.2.983,8.46,8.46,0,0,0,1.581.511q1,.24,2.017.442,2.036.408,4.1.666a5.5,5.5,0,0,0,3.3-.147,1.516,1.516,0,0,0,.807-1.374,2.46,2.46,0,0,0-.8-1.589,6.086,6.086,0,0,0-1.14-.822c-.2-.12-.4-.237-.6-.361-.1-.059-.189-.119-.282-.182-.05-.033-.1-.068-.146-.1a.916.916,0,0,1-.085-.064,3.148,3.148,0,0,1-.453-.442,1.913,1.913,0,0,1-.287-.56c-.2-.6-.256-1.236-.5-1.82a1.638,1.638,0,0,0-1.359-1.132,2.42,2.42,0,0,0-1.668.691,4.429,4.429,0,0,1-1.3.994,4.3,4.3,0,0,1-1.793-.018,2.94,2.94,0,0,0-1.843.295,2.3,2.3,0,0,0-.919,1.357,4.639,4.639,0,0,0-.156.888.476.476,0,0,0,.473.472.483.483,0,0,0,.474-.472" transform="translate(-1008.956 -670.076)" fill="#161616"/>
          <path id="패스_2302" data-name="패스 2302" d="M1075.979,772.7a2.017,2.017,0,0,1,.818-.9,1.042,1.042,0,0,1,.462-.175.309.309,0,0,1,.188.032c-.064-.024.081.048.075.044-.051-.03.05.056.017.011.083.115.082.141.034.3a.84.84,0,0,1-.243.339.732.732,0,0,1-.463.154,2.409,2.409,0,0,1-.736-.114c-.51-.143-1.013-.313-1.519-.468a1.774,1.774,0,0,0-1.566.072,1.349,1.349,0,0,0,.07,2.277,1.669,1.669,0,0,0,1.449.033,3.944,3.944,0,0,0,1.3-1.049.473.473,0,0,0-.67-.668,3.223,3.223,0,0,1-1,.854.97.97,0,0,1-.258.071c.084-.011-.081,0-.078,0s-.162-.015-.076,0a.466.466,0,0,1-.343-.173c.05.061-.035-.066-.036-.067.01.021.018.058-.007-.03a.379.379,0,0,1-.005-.178c-.012.081.028-.081.027-.078.045-.13-.031.042.038-.077,0,0,.046-.075.014-.031a.934.934,0,0,1,.069-.076c.043-.038.05-.045.023-.02a.6.6,0,0,1,.461-.04c.273.064.54.156.807.239.989.306,2.2.827,3.118.075a1.573,1.573,0,0,0,.593-1.2,1.2,1.2,0,0,0-.846-1.112,1.745,1.745,0,0,0-1.543.351,3.028,3.028,0,0,0-1.09,1.352.476.476,0,0,0,.331.581.485.485,0,0,0,.582-.33" transform="translate(-1022.073 -674.132)" fill="#161616"/>
          <path id="패스_2303" data-name="패스 2303" d="M1017.047,658.144q.471-.181.94-.367c.437-.174-1.575-5.969-1.725-6.446-1.089-3.457-1.794-6.706-3.794-9.811a4.507,4.507,0,0,0-1.206-1.376c-2.565-1.71-7.407,1.053-10.111,1.56-2.885.541-5.776,1.081-8.612,1.848-1.392.376-2.762.607-3.269,2.095-.543,1.594-.2,3.98-.173,5.648.058,3.668.219,7.484.362,11.068a1.1,1.1,0,0,0,.291.859,1.094,1.094,0,0,0,.756.137q5.022-.316,10.043-.637a1.856,1.856,0,0,0,.837-.187c.533-.315.613-1.04.634-1.66.036-1.086-.42-4.579,1.047-3.914.964.437,1.843,3.247,2.3,4.165a.862.862,0,0,0,.31.371.748.748,0,0,0,.52,0,85.376,85.376,0,0,0,10.849-3.357" transform="translate(-964.932 -584.32)" fill="#c08adb"/>
          <path id="패스_2304" data-name="패스 2304" d="M1016.146,657.581q.381-.146.76-.3a.857.857,0,0,0,.49-.31.819.819,0,0,0,.1-.444,5.35,5.35,0,0,0-.2-1.142c-.258-1.059-.59-2.1-.925-3.139-.222-.689-.46-1.374-.682-2.063-.6-1.856-1.081-3.747-1.748-5.58a24.529,24.529,0,0,0-1.147-2.686,13.307,13.307,0,0,0-1.557-2.507,4.263,4.263,0,0,0-3.964-1.256,21.745,21.745,0,0,0-4.482,1.222c-.656.23-1.312.464-1.981.653-.814.231-1.656.354-2.485.512-2.125.4-4.248.833-6.344,1.375-1.491.386-3.365.679-4.065,2.251a6.612,6.612,0,0,0-.451,2.552c-.018.883.047,1.765.094,2.647.051.958.052,1.919.075,2.878q.039,1.606.1,3.212t.12,3.235q.032.806.064,1.613a11.456,11.456,0,0,0,.088,1.5,1.149,1.149,0,0,0,.919.982,6.781,6.781,0,0,0,1.574-.042l3.3-.208,3.3-.209,1.648-.105a6.108,6.108,0,0,0,1.568-.171c1.438-.494,1.156-2.391,1.127-3.588-.007-.283-.009-.567,0-.85,0-.131.011-.262.022-.392.005-.063.013-.125.018-.187.01-.12-.012.073,0,0,.006-.041.012-.082.019-.122a2.842,2.842,0,0,1,.074-.319c.015-.047.033-.093.048-.14-.045.137.014-.02.034-.057.008-.016.03-.036.033-.053.01-.044-.084.076-.023.029s.115-.069,0-.017c.019-.009.035-.025.055-.034.058-.026-.053.008-.054.021a.263.263,0,0,1,.063-.018c.08-.017-.123.024-.035.006.019,0,.043.007.061,0,.045-.012-.116-.035-.036,0,.044.017.094.028.139.043-.123-.04.015.012.048.032s.05.034.075.052c-.06-.042-.04-.034,0,.009a2.745,2.745,0,0,1,.246.267c-.062-.078.05.072.07.1.049.072.1.145.141.219a12.961,12.961,0,0,1,.86,1.789c.122.295.239.592.362.886a4.213,4.213,0,0,0,.387.8.979.979,0,0,0,.728.459,2.539,2.539,0,0,0,.815-.125q.772-.187,1.54-.387,3.078-.8,6.089-1.836,1.473-.5,2.926-1.062a.487.487,0,0,0,.331-.581.477.477,0,0,0-.582-.33q-2.9,1.113-5.884,2.017-1.485.449-2.986.844-.768.2-1.539.39l-.367.088a.769.769,0,0,1-.278.045c.088.014.031.008-.01-.05a1.379,1.379,0,0,1-.117-.212c-.048-.1-.092-.2-.136-.305.046.109-.031-.074-.043-.1l-.1-.235c-.119-.293-.238-.586-.36-.877a11.309,11.309,0,0,0-.917-1.844,2.046,2.046,0,0,0-1.248-1.018,1.075,1.075,0,0,0-1.2.767,4.432,4.432,0,0,0-.228,1.52c-.013.53.012,1.06.029,1.59.007.208.013.415.005.623a2.383,2.383,0,0,1-.163.92.561.561,0,0,1-.234.278,1.4,1.4,0,0,1-.6.122c-.523.035-1.046.067-1.569.1l-6.434.408-1.648.1a4.659,4.659,0,0,1-.7.031.311.311,0,0,1-.134-.03c-.045-.025,0,.01-.057-.049.037.042-.025-.074-.008-.023a5.368,5.368,0,0,1-.1-1.315q-.03-.749-.06-1.5c-.082-2.084-.16-4.168-.215-6.252-.026-.975-.026-1.952-.067-2.927-.036-.849-.105-1.7-.115-2.547a7.6,7.6,0,0,1,.253-2.376,2.082,2.082,0,0,1,1.254-1.35c.077-.035.271-.108.413-.156.185-.061.373-.115.561-.166.4-.108.794-.212,1.191-.316,1.022-.267,2.051-.507,3.083-.729s2.069-.428,3.107-.626c.857-.164,1.731-.288,2.576-.511,1.359-.361,2.664-.9,4.006-1.323a16.21,16.21,0,0,1,2.14-.536c.2-.034.24-.039.429-.059s.359-.032.539-.037c.15,0,.3,0,.451,0,.077,0,.154.009.231.017l.114.012c-.1-.012.046.008.053.009a3.757,3.757,0,0,1,.432.1c.07.02.139.042.207.067l.081.03c.051.02.054.021.007,0l.079.036a2.592,2.592,0,0,1,.821.611,7.273,7.273,0,0,1,.783,1.112q.37.6.692,1.229c1.422,2.763,2.076,5.818,3.057,8.746.315.941.624,1.884.912,2.833.154.506.3,1.014.435,1.526.056.215.109.432.154.649.017.082.033.164.047.247.006.035.01.07.017.1.017.088-.012-.126-.005-.04,0,.02,0,.04.007.06.006.057.007.113.009.17a.279.279,0,0,0,0,.066c-.03-.069.03-.143,0-.063a.382.382,0,0,1,.1-.162c-.016.016.111-.1.081-.062l.035-.017-.145.057q-.361.143-.724.281a.486.486,0,0,0-.331.581.477.477,0,0,0,.582.33" transform="translate(-963.905 -583.301)" fill="#161616"/>
          <path id="패스_2305" data-name="패스 2305" d="M950.208,480.57c-2.49-.3-4.2-2.689-5.024-5.053a10.434,10.434,0,0,1-.625-4.658,6.187,6.187,0,0,1,2.147-4.1,5.906,5.906,0,0,1,7.817.962,7.586,7.586,0,0,1,.8,8.157" transform="translate(-934.5 -465.177)" fill="#66423b"/>
          <path id="패스_2306" data-name="패스 2306" d="M949.2,479.082a4.536,4.536,0,0,1-2.487-1.289,8.334,8.334,0,0,1-1.742-2.567,9.068,9.068,0,0,1-.5-7.048,5.042,5.042,0,0,1,1.988-2.384,4.808,4.808,0,0,1,2.624-.646,5.32,5.32,0,0,1,1.372.207,5.436,5.436,0,0,1,1.294.529,5.363,5.363,0,0,1,2.034,2.011,7.247,7.247,0,0,1,.407,6.062,6.627,6.627,0,0,1-.287.671.484.484,0,0,0,.17.646.478.478,0,0,0,.648-.169,8.413,8.413,0,0,0,.243-6.962,6.512,6.512,0,0,0-5.066-3.865,6.134,6.134,0,0,0-3.2.348,5.609,5.609,0,0,0-2.637,2.284c-1.475,2.4-1.207,5.418-.257,7.959.791,2.118,2.254,4.294,4.528,4.985a5.251,5.251,0,0,0,.865.173.475.475,0,0,0,.473-.472.485.485,0,0,0-.473-.472" transform="translate(-933.488 -464.161)" fill="#161616"/>
          <path id="패스_2307" data-name="패스 2307" d="M1017.316,472.807a2.6,2.6,0,0,1-.059-2.048,7.118,7.118,0,0,1,1.509-3.175,5.728,5.728,0,0,1,1.806-1.219,7.8,7.8,0,0,1,6.911.029,5.479,5.479,0,0,1,2.745,6.034,6.31,6.31,0,0,1-1.234,2.206,10,10,0,0,1-5.85,3.452" transform="translate(-984.171 -465.096)" fill="#66423b"/>
          <path id="패스_2308" data-name="패스 2308" d="M1016.7,471.533a1.77,1.77,0,0,1-.1-1.305,11.918,11.918,0,0,1,.427-1.5,4.694,4.694,0,0,1,1.66-2.373,7.769,7.769,0,0,1,5.771-1.222,5.485,5.485,0,0,1,4.08,3.235,4.6,4.6,0,0,1,.331,2.353,5.434,5.434,0,0,1-1.312,2.64,9.626,9.626,0,0,1-5.562,3.234.477.477,0,0,0-.33.581.484.484,0,0,0,.582.33,10.476,10.476,0,0,0,5.626-3.082,7.26,7.26,0,0,0,1.8-2.961,5.224,5.224,0,0,0-.087-2.961,6.373,6.373,0,0,0-4.316-4.143,8.719,8.719,0,0,0-6.645.912,5.362,5.362,0,0,0-2.255,2.549,11.739,11.739,0,0,0-.555,1.621,4.57,4.57,0,0,0-.222,1.687,2.133,2.133,0,0,0,.288.882c.315.519,1.134.045.817-.477" transform="translate(-983.144 -464.061)" fill="#161616"/>
          <path id="패스_2309" data-name="패스 2309" d="M966.225,516.354a7.567,7.567,0,0,0-5.092,1.543,9.177,9.177,0,0,0-2.3,3.985,12.626,12.626,0,0,1-3.294,4.953c-1.48,1.306-3.655,1.921-5.472,2.717-.517.226-1.265-.131-1.858-.066a54.518,54.518,0,0,0-7.676,1.957,12.117,12.117,0,0,1-4.834.221,15.187,15.187,0,0,1-9.456-5.208,9.19,9.19,0,0,0-3.424-3.077,7.569,7.569,0,0,0-5.32.109c-2.631,1.252-3.262,4.878-2.179,7.344a25.015,25.015,0,0,0,3.37,5.332,55.215,55.215,0,0,0,7.17,7.521,49,49,0,0,1,7.587,7.642c2.4,3.249,3.151,7.136,4.093,10.97a2.756,2.756,0,0,0,.794,1.594,2.668,2.668,0,0,0,1.8.358c5.584-.278,10.991-1.953,16.328-3.614a16,16,0,0,0,5.11-2.277,2.4,2.4,0,0,0,.852-1.008,2.577,2.577,0,0,0,.047-1.265c-.216-1.5-.619-2.991-.9-4.47-.327-1.7-1.274-3.254-1.3-5.025-.038-3.211,2.779-5.94,4.283-8.447a55.13,55.13,0,0,0,4.477-9.37,24.978,24.978,0,0,0,1.545-6.113c.263-2.679-1.464-5.932-4.355-6.307" transform="translate(-914.183 -499.86)" fill="#fff"/>
          <path id="패스_2310" data-name="패스 2310" d="M965.2,514.856a7.676,7.676,0,0,0-4.647,1.119,6.807,6.807,0,0,0-2.638,3.323c-.28.656-.5,1.335-.782,1.99a13.128,13.128,0,0,1-1.057,1.964,9.167,9.167,0,0,1-2.927,2.958,31.057,31.057,0,0,1-3.911,1.724,1.523,1.523,0,0,1-.8.187c-.366-.034-.724-.142-1.094-.141a10.909,10.909,0,0,0-2.323.382c-1.554.357-3.069.86-4.6,1.307a15.5,15.5,0,0,1-2.31.546,12.1,12.1,0,0,1-2.49.054,15.034,15.034,0,0,1-7.969-3.105,12.8,12.8,0,0,1-1.5-1.369c-.472-.506-.88-1.067-1.327-1.594a7.22,7.22,0,0,0-3.483-2.5,8.185,8.185,0,0,0-2.422-.246,6.861,6.861,0,0,0-2.309.435,4.943,4.943,0,0,0-2.535,2.266,6.674,6.674,0,0,0-.76,3.325,8.079,8.079,0,0,0,1.035,3.543,26.149,26.149,0,0,0,2.537,3.885q1.479,1.926,3.121,3.718t3.431,3.426c1.176,1.075,2.4,2.1,3.58,3.167a28.472,28.472,0,0,1,6.066,7.009,33.433,33.433,0,0,1,2.789,8.432,6.847,6.847,0,0,0,.649,2.018,2.228,2.228,0,0,0,1.8,1.015,12.987,12.987,0,0,0,2.355-.112c.845-.081,1.687-.19,2.525-.322a72.3,72.3,0,0,0,9.729-2.384c1.545-.469,3.108-.914,4.625-1.47a14.947,14.947,0,0,0,2.111-.94,6.082,6.082,0,0,0,1.794-1.349,2.68,2.68,0,0,0,.425-2.234c-.121-.823-.3-1.637-.476-2.449s-.319-1.628-.523-2.429c-.187-.735-.464-1.443-.7-2.161a7.668,7.668,0,0,1-.469-2.182,5.66,5.66,0,0,1,.282-1.888,12.926,12.926,0,0,1,1.853-3.411c.757-1.085,1.564-2.132,2.239-3.272q1.259-2.127,2.324-4.36t1.936-4.567a30.378,30.378,0,0,0,1.392-4.663,9.244,9.244,0,0,0,.111-4,6.828,6.828,0,0,0-1.639-3.083,4.97,4.97,0,0,0-2.9-1.543.49.49,0,0,0-.582.33.475.475,0,0,0,.331.581c2.239.31,3.683,2.4,3.982,4.524a10.6,10.6,0,0,1-.445,3.951,37.016,37.016,0,0,1-1.534,4.614q-.865,2.194-1.923,4.305a43.5,43.5,0,0,1-2.272,4.088c-1.382,2.149-3.254,4.108-3.9,6.645a7.265,7.265,0,0,0,.3,4.182c.23.688.495,1.367.681,2.069.2.761.33,1.544.5,2.313.184.829.367,1.66.5,2.5a2.891,2.891,0,0,1,.041,1.036,1.552,1.552,0,0,1-.576.818,11.35,11.35,0,0,1-3.834,1.917c-3.089,1.033-6.234,1.978-9.4,2.745-1.569.38-3.152.7-4.75.935q-1.212.175-2.435.268a5.131,5.131,0,0,1-2.128-.048c-.583-.225-.747-.875-.884-1.421-.176-.7-.339-1.4-.51-2.106-.349-1.432-.718-2.863-1.206-4.255a19.221,19.221,0,0,0-1.874-3.97,24.669,24.669,0,0,0-2.869-3.579c-2.115-2.254-4.532-4.172-6.79-6.275a53.412,53.412,0,0,1-6.272-6.925,24.392,24.392,0,0,1-2.475-3.922,6.465,6.465,0,0,1-.724-3.2,5.4,5.4,0,0,1,.949-2.879,4.246,4.246,0,0,1,3.023-1.662,6.165,6.165,0,0,1,4.228.809,15.942,15.942,0,0,1,2.788,2.955,15.329,15.329,0,0,0,6.993,4.361,14.831,14.831,0,0,0,4.52.677,16.49,16.49,0,0,0,4.574-.872c1.525-.458,3.046-.946,4.61-1.254.344-.067.689-.128,1.036-.171a3.3,3.3,0,0,1,.981.048,2.867,2.867,0,0,0,.982.04,5.141,5.141,0,0,0,.94-.365,25.073,25.073,0,0,0,3.88-1.744,10.157,10.157,0,0,0,3.013-3.048,13.417,13.417,0,0,0,1.048-1.871c.292-.634.516-1.294.774-1.942a6.367,6.367,0,0,1,2.339-3.233A6.819,6.819,0,0,1,965.2,515.8a.475.475,0,0,0,.473-.472.484.484,0,0,0-.473-.472" transform="translate(-913.156 -498.835)" fill="#161616"/>
          <path id="패스_2311" data-name="패스 2311" d="M981.482,562.672c-.72-.809-1.615.187-1.645,1.016a68.695,68.695,0,0,0,1.757,16.868c1.107,5.134,2.3,10.761,4.466,15.487a.546.546,0,0,0,.208.278.452.452,0,0,0,.281.016l.881-.138c1.044-.164-.837-5.741-1.09-6.779-.7-2.863-1.379-5.732-2-8.619a118.521,118.521,0,0,1-2.561-17.155,1.632,1.632,0,0,0-.232-.891c-.022-.03-.045-.057-.068-.083" transform="translate(-958.662 -531.415)" fill="#7fa1db"/>
          <path id="패스_2312" data-name="패스 2312" d="M980.789,561.33a1.217,1.217,0,0,0-1.539-.259,1.962,1.962,0,0,0-.878,1.312,6.683,6.683,0,0,0-.055.988q-.012.538-.013,1.075,0,1.054.039,2.109a68.486,68.486,0,0,0,.881,8.467c.436,2.67,1.015,5.314,1.606,7.953.572,2.554,1.193,5.1,1.991,7.593.389,1.215.822,2.417,1.316,3.594q.2.465.4.926c.145.322.3.633.685.71a3.168,3.168,0,0,0,1.048-.112,1.2,1.2,0,0,0,.487-.137c.477-.3.455-1,.412-1.487a14.478,14.478,0,0,0-.4-2.162c-.3-1.228-.714-2.425-1.016-3.652-.682-2.775-1.337-5.559-1.938-8.353-.595-2.763-1.135-5.54-1.577-8.332s-.781-5.578-.98-8.387a2.937,2.937,0,0,0-.476-1.846.473.473,0,1,0-.67.668,1.02,1.02,0,0,1,.158.578c.025.341.046.682.072,1.023q.078,1.016.178,2.031.2,2.052.493,4.095c.373,2.674.846,5.334,1.38,7.981.54,2.679,1.144,5.345,1.776,8,.246,1.034.467,2.08.755,3.1.154.546.32,1.089.476,1.634.2.714.4,1.431.563,2.155.077.339.146.681.2,1.024l.019.125c.008.052.013.1,0,.014.01.077.019.155.027.233.013.13.021.26.023.39,0,.057,0,.115,0,.172,0,.025,0,.049,0,.074s-.021.133,0,.04-.009.042-.017.07-.013.042-.018.063c-.018.079.019-.041.019-.041-.045.033-.083.107.013,0-.073.081.106-.055.011-.008.127-.065.061-.027-.038-.011l-.514.081-.22.034c-.084.013-.086,0,0,.056.108.068.01-.033-.019-.094s-.065-.142-.1-.213c-.119-.264-.235-.528-.346-.8q-.352-.846-.665-1.708a66.047,66.047,0,0,1-2.091-7.173c-.591-2.46-1.138-4.935-1.624-7.418a75.816,75.816,0,0,1-1.154-7.979c-.116-1.337-.191-2.677-.216-4.019q-.019-1.016,0-2.033,0-.25.012-.5c0-.077,0-.154.007-.231,0-.042,0-.083.005-.125,0-.023.012-.073,0-.023a1.1,1.1,0,0,1,.239-.544c-.027.035.058-.061.072-.076s.094-.084.08-.074.067-.04.088-.052c.047-.026,0,0-.011,0,.028-.011.056-.016.084-.026.009,0,.075-.009.023-.005s.022,0,.024,0,.078,0,.025,0,.016,0,.025.011c-.062-.052.068.036.059.03a1.356,1.356,0,0,1,.124.119c.417.446,1.085-.224.67-.668" transform="translate(-957.635 -530.407)" fill="#161616"/>
          <path id="패스_2313" data-name="패스 2313" d="M1025.121,553.666c.331-1.03,1.553-.481,1.916.266a68.736,68.736,0,0,1,5.228,16.137c1.068,5.142,2.258,10.769,2.19,15.967a.547.547,0,0,1-.078.339.458.458,0,0,1-.25.127l-.863.229c-1.021.271-1.561-5.588-1.75-6.639-.522-2.9-1.061-5.8-1.666-8.688a118.589,118.589,0,0,0-4.608-16.724,1.636,1.636,0,0,1-.149-.909c.009-.036.018-.071.029-.1" transform="translate(-989.642 -525.062)" fill="#7fa1db"/>
          <path id="패스_2314" data-name="패스 2314" d="M1024.568,552.763c.026-.074-.007-.006.028-.07.014-.026.029-.052.046-.077,0,.007-.046.051-.01.013.014-.015.094-.086.052-.055s.006,0,.014-.005c.1-.056-.057.013,0-.005.018-.005.125-.031.061-.02s.06,0,.085,0c.083-.008-.056-.02.027,0,.052.013.1.027.154.042.081.024-.036-.025.039.017.038.02.075.039.112.061a1.441,1.441,0,0,1,.126.084l-.01-.007.065.057c.037.035.072.071.107.108.015.016.029.032.042.048-.005-.006-.04-.055-.009-.011a1.957,1.957,0,0,1,.166.3q.849,1.754,1.562,3.569a67.556,67.556,0,0,1,2.43,7.493c.664,2.512,1.19,5.055,1.7,7.6.521,2.578,1.007,5.168,1.307,7.783.149,1.293.254,2.591.29,3.891q.014.483.014.966c0,.154,0,.308,0,.462,0,.027,0,.118-.01.113-.06-.03.218-.154-.007-.093-.076.02-.851.233-.853.225s.158-.014.066-.014c-.029,0,.143.027.074.008s.091.041.062.028a.275.275,0,0,1-.05-.03c-.016-.012.089.092.046.035a.382.382,0,0,0-.042-.042c-.091-.086.051.09-.021-.027a2.5,2.5,0,0,1-.146-.269c-.009-.02-.049-.115-.02-.042s-.007-.018-.013-.036c-.025-.066-.049-.132-.073-.2-.049-.143-.092-.287-.133-.432a19.837,19.837,0,0,1-.436-2.1q-.089-.543-.165-1.089l-.036-.254c-.005-.038-.01-.077-.016-.115s-.022-.163-.015-.106-.006-.047-.009-.065l-.016-.125c-.011-.08-.021-.159-.032-.239-.08-.609-.169-1.211-.279-1.815-.5-2.746-1.012-5.489-1.586-8.22-.555-2.643-1.162-5.276-1.856-7.886s-1.48-5.209-2.385-7.76q-.159-.448-.323-.894a1.265,1.265,0,0,1-.133-.8.474.474,0,0,0-.913-.251,3.381,3.381,0,0,0,.4,2.05q.357,1,.69,2.012.66,2,1.233,4.027c.77,2.709,1.435,5.447,2.036,8.2.62,2.836,1.17,5.686,1.694,8.541.116.633.238,1.265.344,1.9.015.09.028.181.041.271.008.057.016.114.024.171.013.094-.007-.052,0-.018s.01.075.015.113c.095.715.187,1.43.3,2.143.115.752.243,1.5.425,2.244a4.226,4.226,0,0,0,.684,1.683.851.851,0,0,0,.648.336,3.234,3.234,0,0,0,.768-.179c.347-.092.711-.165.875-.525a2.463,2.463,0,0,0,.091-1.006q0-.5-.017-1-.032-1.015-.115-2.028a74.964,74.964,0,0,0-1.2-8.232c-.516-2.67-1.054-5.342-1.711-7.982a70.69,70.69,0,0,0-2.414-7.844q-.736-1.955-1.612-3.854a4.043,4.043,0,0,0-.85-1.429,1.787,1.787,0,0,0-1.262-.5,1.236,1.236,0,0,0-1.08.91.477.477,0,0,0,.331.581.482.482,0,0,0,.582-.33" transform="translate(-988.632 -524.033)" fill="#161616"/>
          <path id="패스_2315" data-name="패스 2315" d="M1000.917,554q.008,1.948.016,3.9a4.354,4.354,0,0,1-.334,2.075,3.477,3.477,0,0,1-1.881,1.46,8.3,8.3,0,0,1-3.773.541,2.377,2.377,0,0,1-1.687-.7,2.734,2.734,0,0,1-.441-1.052l-.964-3.685" transform="translate(-966.909 -525.679)" fill="#ffd8c7"/>
          <path id="패스_2316" data-name="패스 2316" d="M999.415,553.007q.009,1.982.016,3.965a4.192,4.192,0,0,1-.206,1.639,2.254,2.254,0,0,1-.947,1.015,6.941,6.941,0,0,1-3.273.907,5.54,5.54,0,0,1-1.666-.128,1.247,1.247,0,0,1-.937-.783c-.239-.652-.373-1.356-.549-2.028l-.571-2.181a.474.474,0,0,0-.913.251l.551,2.106c.172.659.317,1.333.527,1.981a2.178,2.178,0,0,0,1.139,1.379,4.653,4.653,0,0,0,1.838.35,8.572,8.572,0,0,0,3.9-.806,3.837,3.837,0,0,0,1.389-1.059,3.329,3.329,0,0,0,.645-1.851c.06-.763.018-1.539.016-2.3q-.006-1.228-.01-2.455a.474.474,0,0,0-.947,0" transform="translate(-965.881 -524.686)" fill="#161616"/>
          <path id="패스_2317" data-name="패스 2317" d="M1034.138,523.924a3.6,3.6,0,1,0-1.579-6.127" transform="translate(-994.767 -500.218)" fill="#ffd8c7"/>
          <path id="패스_2318" data-name="패스 2318" d="M1032.991,523.363a4.07,4.07,0,1,0-1.788-6.916.477.477,0,0,0,0,.668.482.482,0,0,0,.669,0,3.158,3.158,0,0,1,2.546-.8c-.077-.01.1.016.086.015.052.009.1.02.157.032.1.024.205.051.306.084a2.537,2.537,0,0,1,.513.221,3.1,3.1,0,0,1,.948.783,3.125,3.125,0,0,1-1.468,4.937,3.19,3.19,0,0,1-1.717.063c-.593-.141-.845.769-.252.911" transform="translate(-993.746 -499.202)" fill="#161616"/>
          <path id="패스_2319" data-name="패스 2319" d="M958.269,535.385a3.6,3.6,0,1,1-.369-6.315" transform="translate(-940.155 -508.366)" fill="#ffd8c7"/>
          <path id="패스_2320" data-name="패스 2320" d="M957,533.973a3.243,3.243,0,0,1-1.436.467,2.991,2.991,0,0,1-1.2-.148,3.127,3.127,0,1,1,2.268-5.819.488.488,0,0,0,.648-.169.476.476,0,0,0-.17-.646,4.173,4.173,0,0,0-3.58.02,4.071,4.071,0,1,0,3.949,7.112.473.473,0,0,0-.478-.816" transform="translate(-939.128 -507.362)" fill="#161616"/>
          <path id="패스_2321" data-name="패스 2321" d="M961.226,502.845a12.6,12.6,0,1,0,10.506-14.363,12.6,12.6,0,0,0-10.506,14.363" transform="translate(-945.842 -480.687)" fill="#ffd8c7"/>
          <path id="패스_2322" data-name="패스 2322" d="M959.743,501.947a13.053,13.053,0,0,0,10.376,10.736,13.27,13.27,0,0,0,8.069-.982,13.051,13.051,0,1,0-18.615-11.81,13.689,13.689,0,0,0,.17,2.057.477.477,0,0,0,.582.33.484.484,0,0,0,.331-.581,12.1,12.1,0,0,1,6.146-12.42,12.131,12.131,0,0,1,13.918,1.57,12.1,12.1,0,0,1,3.134,13.683,12.149,12.149,0,0,1-18.6,4.945c-.182-.138-.46-.37-.67-.557q-.352-.314-.679-.653a11.714,11.714,0,0,1-1.133-1.359,12.016,12.016,0,0,1-1.675-3.349,12.864,12.864,0,0,1-.436-1.86.477.477,0,0,0-.582-.33.484.484,0,0,0-.331.581" transform="translate(-944.815 -479.664)" fill="#161616"/>
          <path id="패스_2323" data-name="패스 2323" d="M1017,528.557a2.631,2.631,0,1,0,2.194-3,2.631,2.631,0,0,0-2.194,3" transform="translate(-984.098 -506.171)" fill="#ffb9a1"/>
          <path id="패스_2324" data-name="패스 2324" d="M970.244,535.861a2.631,2.631,0,1,0,2.194-3,2.63,2.63,0,0,0-2.194,3" transform="translate(-952.097 -511.175)" fill="#ffb9a1"/>
          <path id="패스_2325" data-name="패스 2325" d="M998.36,525.08a.756.756,0,0,0-.81.231,1.248,1.248,0,0,0-.26.786,2.015,2.015,0,0,0,.385,1.249.518.518,0,0,0,.283.217.486.486,0,0,0,.365-.048.476.476,0,0,0,.217-.282.458.458,0,0,0-.048-.364,1.653,1.653,0,0,1-.193-.333l.048.113a1.7,1.7,0,0,1-.115-.421l.017.126a1.629,1.629,0,0,1,0-.409l-.017.126a.9.9,0,0,1,.049-.193l-.048.113c.01-.023.021-.044.033-.066.035-.067-.06.06-.024.028s.015.008-.037.024a.584.584,0,0,0,.058-.031l-.113.048a.415.415,0,0,1,.084-.022l-.126.017a.341.341,0,0,1,.064,0l-.126-.017a.3.3,0,0,1,.061.019.474.474,0,0,0,.365-.048.472.472,0,0,0,.17-.646.562.562,0,0,0-.283-.217" transform="translate(-970.629 -505.837)" fill="#161616"/>
          <path id="패스_2326" data-name="패스 2326" d="M983.98,527.22A4.26,4.26,0,0,1,985,527.5l-.113-.048.018.008-.1-.742-.763.8a.491.491,0,0,0-.139.334.474.474,0,0,0,.808.334l.763-.8a.466.466,0,0,0,.13-.4.35.35,0,0,0-.056-.176.476.476,0,0,0-.17-.169,4.708,4.708,0,0,0-1.152-.334.36.36,0,0,0-.189-.009.352.352,0,0,0-.176.056.472.472,0,0,0-.17.646.457.457,0,0,0,.283.217" transform="translate(-961.283 -506.696)" fill="#161616"/>
          <path id="패스_2327" data-name="패스 2327" d="M1010.87,522.826a4.706,4.706,0,0,0-1.02.627.443.443,0,0,0-.13.4.464.464,0,0,0,.226.345l.949.566a.491.491,0,0,0,.365.047.472.472,0,0,0,.113-.863l-.949-.565q.048.371.1.742l.046-.036-.1.074a4.27,4.27,0,0,1,.878-.517.474.474,0,0,0,.218-.282.473.473,0,0,0-.331-.581l-.126-.017a.472.472,0,0,0-.239.065" transform="translate(-979.133 -504.277)" fill="#161616"/>
          <path id="패스_2328" data-name="패스 2328" d="M980.35,483.561c-2.931-5.212-10.228-6.668-15.7-5.948a15.623,15.623,0,0,0-7.521,3.4,13.4,13.4,0,0,0-4.88,6.256c-.753,2.4-1.348,6.838,1.6,8.011,3.151,1.255,5.867-5.37,6.417-7.634.447.708.177,1.821.868,2.295a1.809,1.809,0,0,0,1.25.148l6.332-.775a8.009,8.009,0,0,0,2.763-.68,2.71,2.71,0,0,0,1.565-2.226,11.523,11.523,0,0,0,3.389,3.557c.928.567,2.836,1.34,3.908.73s.873-2.672.9-3.72a6.665,6.665,0,0,0-.89-3.409" transform="translate(-939.38 -473.228)" fill="#66423b"/>
          <path id="패스_2329" data-name="패스 2329" d="M979.72,482.293a11.065,11.065,0,0,0-3.947-3.967,16.412,16.412,0,0,0-5.346-1.989,21.539,21.539,0,0,0-5.642-.344,14.327,14.327,0,0,0-6.441,1.91,21.755,21.755,0,0,0-2.937,2.012,17.679,17.679,0,0,0-2.475,2.376,11.59,11.59,0,0,0-1.839,2.9,12.078,12.078,0,0,0-.736,2.487,8.628,8.628,0,0,0,.276,5.064,3.276,3.276,0,0,0,3.713,2.022c1.457-.429,2.485-1.835,3.233-3.07a19.556,19.556,0,0,0,1.887-4.21c.079-.248.151-.5.213-.75l-.865.113a3.672,3.672,0,0,1,.3,1.173,1.944,1.944,0,0,0,.579,1.173,2,2,0,0,0,1.583.338c.646-.075,1.292-.158,1.937-.237l3.831-.469a11.076,11.076,0,0,0,3.5-.758,3.216,3.216,0,0,0,1.924-2.7l-.882.238a13.789,13.789,0,0,0,2.607,3.042,7.7,7.7,0,0,0,3.076,1.566,2.534,2.534,0,0,0,2.921-.814,5.572,5.572,0,0,0,.476-2.883,10.989,10.989,0,0,0-.114-1.959,7.5,7.5,0,0,0-.839-2.271c-.3-.532-1.114-.056-.817.477a6.731,6.731,0,0,1,.678,1.737,6.982,6.982,0,0,1,.144,1.659c0,.419.008.838-.011,1.257-.005.107-.012.214-.021.321q-.008.086-.017.172c0,.025-.005.049-.008.073.007-.052,0-.006,0,.019a3.637,3.637,0,0,1-.152.639c-.008.025-.054.139-.041.109s-.032.063-.041.081c-.023.044-.047.087-.074.129-.016.025-.107.139-.048.072-.027.031-.054.061-.083.09s-.11.1-.075.07-.055.034-.072.044-.053.03-.08.044c-.008,0-.087.039-.051.025a1.553,1.553,0,0,1-.542.1,2.922,2.922,0,0,1-.685-.059,6.484,6.484,0,0,1-2.69-1.236,12.212,12.212,0,0,1-2.621-2.98.478.478,0,0,0-.882.238,2.286,2.286,0,0,1-1.362,1.834,9.036,9.036,0,0,1-3.041.667l-3.518.431-1.72.21c-.264.032-.529.071-.795.094a1.355,1.355,0,0,1-.663-.048.331.331,0,0,1-.153-.113c-.1-.1.032.062-.043-.051a1.1,1.1,0,0,1-.09-.165c.009.021.025.068-.005-.021-.021-.062-.04-.125-.056-.189-.025-.1-.044-.2-.062-.3a3.754,3.754,0,0,0-.39-1.348.479.479,0,0,0-.865.113,14.425,14.425,0,0,1-.512,1.616q-.092.248-.191.494c-.034.085-.069.17-.1.254l-.019.046-.06.14q-.233.536-.5,1.058a14.414,14.414,0,0,1-1.206,2.007l-.078.106c-.014.02-.078.1-.032.043-.061.079-.124.157-.188.234-.111.134-.227.263-.347.389s-.244.244-.374.358c-.062.054-.127.107-.192.159.064-.051.007-.005-.024.017l-.105.075a3.511,3.511,0,0,1-.4.238l-.094.045c-.085.042.012,0-.012.007-.073.028-.147.056-.222.078s-.128.036-.192.049l-.1.019c-.112.02.081,0-.036,0a3.083,3.083,0,0,1-.411,0c.093.007.034.005-.024-.005l-.1-.021a2.223,2.223,0,0,1-.218-.063l-.1-.037c.072.028-.059-.026-.078-.036-.088-.041-.174-.086-.258-.135s-.149-.092-.22-.142l-.069-.051c.007.005.053.043.012.009s-.076-.063-.113-.1a3.015,3.015,0,0,1-.371-.4c.049.063-.009-.014-.025-.037s-.047-.068-.07-.1c-.049-.076-.1-.153-.139-.233s-.085-.162-.123-.245c-.011-.025-.05-.117-.02-.043-.019-.047-.037-.093-.055-.14a5.566,5.566,0,0,1-.276-1.113c-.008-.056,0,0,0,.013l-.009-.068c-.005-.045-.01-.091-.015-.136-.011-.107-.019-.215-.025-.322-.012-.2-.015-.4-.013-.607a11.113,11.113,0,0,1,.081-1.2c.005-.046.011-.092.017-.139-.011.085.009-.058.012-.081.014-.1.03-.2.047-.295q.049-.288.109-.573.11-.519.259-1.03a9.567,9.567,0,0,1,1.33-2.749,17.224,17.224,0,0,1,4.726-4.41,14.447,14.447,0,0,1,6.1-2.4,21.027,21.027,0,0,1,5.287.023c.139.018.41.059.611.092q.341.057.681.126.678.138,1.346.325a15.339,15.339,0,0,1,2.476.921q.608.292,1.185.643c.342.209.757.492,1.024.7a10.517,10.517,0,0,1,1,.876q.235.234.454.483.1.115.2.234l.1.119.048.06c.052.066-.031-.041.02.026a9.648,9.648,0,0,1,.726,1.1.474.474,0,0,0,.817-.477" transform="translate(-938.341 -472.199)" fill="#161616"/>
          <path id="패스_2330" data-name="패스 2330" d="M985.566,534.667a7.731,7.731,0,0,0,8.957-1.076.477.477,0,0,0,0-.668.482.482,0,0,0-.669,0,6.808,6.808,0,0,1-6.016,1.6,6.88,6.88,0,0,1-1.794-.672c-.535-.292-1.013.524-.478.816" transform="translate(-962.445 -511.146)" fill="#161616"/>
          <path id="패스_2331" data-name="패스 2331" d="M926.318,531.382c-.1-.158.029-.357.165-.483a2.209,2.209,0,0,1,2.572-.232,2.454,2.454,0,0,1,1.111,2.368,2.784,2.784,0,0,1-1.6,2.116" transform="translate(-922.032 -509.483)" fill="#ffd8c7"/>
          <path id="패스_2332" data-name="패스 2332" d="M925.727,530.128s.025.168.023.167.014-.033.028-.043.07-.064.1-.09a1.792,1.792,0,0,1,.277-.173,1.926,1.926,0,0,1,.568-.163,1.734,1.734,0,0,1,1.251.343,2,2,0,0,1,.513,2.457,2.437,2.437,0,0,1-1.16,1.1.476.476,0,0,0-.17.646.485.485,0,0,0,.648.169,3.162,3.162,0,0,0,1.773-3.479,2.907,2.907,0,0,0-1.144-1.725,2.71,2.71,0,0,0-2.033-.416c-.743.128-1.905.781-1.495,1.682a.478.478,0,0,0,.648.169.483.483,0,0,0,.17-.646" transform="translate(-921.033 -508.468)" fill="#161616"/>
          <path id="패스_2333" data-name="패스 2333" d="M921.964,534.888c-1.383,3.229-5.545,2.5-7.1-.178-1.342-2.3.017-9.16,3.82-6.918a1.5,1.5,0,0,1,.619,1.876,1.176,1.176,0,0,1,.894,1.661.9.9,0,0,1,1.018,1.055c-.041.15-.119.326-.02.447a.482.482,0,0,0,.222.117,1.453,1.453,0,0,1,.552,1.941" transform="translate(-913.868 -507.419)" fill="#ffd8c7"/>
          <path id="패스_2334" data-name="패스 2334" d="M920.5,533.626a4.292,4.292,0,0,1-.289.557c-.05.08-.1.159-.159.236-.032.044,0,0,0,0l-.043.054c-.034.041-.068.081-.1.12a3.084,3.084,0,0,1-.415.388c.062-.047-.02.013-.041.028l-.105.071q-.115.073-.235.136c-.036.019-.074.038-.111.056-.017.008-.118.054-.076.035s-.06.023-.078.03c-.045.017-.091.032-.136.047a3.6,3.6,0,0,1-.5.12l-.061.009c.007,0,.079-.009.023,0l-.124.012c-.1.008-.194.012-.291.012a3.95,3.95,0,0,1-.525-.033c.085.011-.01,0-.042-.008l-.126-.023q-.136-.027-.271-.063c-.175-.047-.345-.106-.515-.17-.083-.031.033.017-.048-.019l-.12-.055c-.086-.041-.171-.084-.255-.13a4.881,4.881,0,0,1-.489-.307c-.017-.013-.1-.075-.078-.056s-.058-.047-.075-.06c-.075-.061-.149-.125-.221-.191a4.7,4.7,0,0,1-.391-.408c-.029-.034-.058-.07-.086-.105s0,0,0,.006l-.041-.055c-.059-.081-.115-.162-.169-.246a3.539,3.539,0,0,1-.21-.378c-.028-.058-.022-.055,0,.008-.01-.027-.022-.055-.032-.082-.023-.061-.045-.122-.065-.185-.04-.126-.074-.254-.1-.383s-.054-.275-.075-.413c0-.027.009.085,0-.012,0-.035-.008-.07-.011-.1-.008-.077-.015-.155-.02-.232a7.658,7.658,0,0,1-.006-.949q.012-.24.039-.478c0-.038.009-.077.013-.115.01-.095-.011.066,0-.028s.025-.166.039-.248a7.885,7.885,0,0,1,.224-.95c.045-.149.1-.3.151-.441l.04-.1.021-.051-.012.029c.032-.071.063-.142.1-.212.063-.131.132-.259.207-.384.035-.058.071-.115.109-.172.022-.032.044-.064.067-.1.012-.016.082-.11.042-.058s.022-.028.034-.041.041-.049.063-.073c.044-.051.091-.1.14-.15s.089-.086.136-.126l.07-.059c.058-.051-.075.049.013-.008a3.522,3.522,0,0,1,.318-.189c.056-.028.06-.025-.005,0l.082-.032a1.875,1.875,0,0,1,.184-.055c.05-.013.234-.034.095-.024.067,0,.132-.013.2-.015s.127,0,.19,0l.1.009c.054,0-.044-.006-.044-.006l.066.011a2.946,2.946,0,0,1,.43.118l.107.041c.05.02-.017-.008-.022-.009l.055.025c.081.039.162.078.241.122a1.137,1.137,0,0,1,.621.834.891.891,0,0,1-.058.46.48.48,0,0,0,.409.711c-.079-.009.021.005.037.01a.888.888,0,0,1,.11.036c-.089-.039.14.1.071.043a.691.691,0,0,1,.237.284c.007.012.049.1.022.037a.9.9,0,0,1,.03.089c.012.038.02.076.028.114s0-.048,0,.036c0,.039,0,.077,0,.116,0,.074.029-.094,0,.035-.008.03-.014.06-.023.089-.04.128.037-.062-.027.06a.479.479,0,0,0,.534.694c-.055.011.074,0,.083,0-.062-.007.032.01.051.017l.131.072a.5.5,0,0,1,.127.148c.032.055.013.019.028.053.008.018.031.113.021.051,0,0,0,.145.007.081a.876.876,0,0,1-.038.139,1.16,1.16,0,0,0-.056.385.74.74,0,0,0,.541.646c.013,0,.113.047.047.016a.983.983,0,0,1,.1.057c.041.026-.029-.032.03.023a.949.949,0,0,1,.093.1c-.041-.052,0,.01.017.034s.038.066.055.1c-.036-.074.019.056.021.061q.018.057.032.115c.009.039.018.079.023.118-.012-.083,0,.067,0,.069a2.111,2.111,0,0,1,0,.248c-.006.08,0,0-.006.047s-.015.081-.025.121a2.048,2.048,0,0,1-.091.277.475.475,0,0,0,.33.581.485.485,0,0,0,.582-.33,1.932,1.932,0,0,0-.7-2.447c-.034-.016-.156-.1-.2-.084-.03-.012-.032-.011-.006,0a.277.277,0,0,1,.109.2c.059-.047.082-.341.088-.4a1.279,1.279,0,0,0-.192-.759,1.377,1.377,0,0,0-1.446-.648l.534.694a1.653,1.653,0,0,0-1.3-2.371l.408.71a1.912,1.912,0,0,0-.012-1.667,2.164,2.164,0,0,0-1.077-1.016,2.832,2.832,0,0,0-2.071-.243A4.112,4.112,0,0,0,913.132,529a7.677,7.677,0,0,0-.057,4.172,4.983,4.983,0,0,0,3.444,3.133,4.354,4.354,0,0,0,2.443-.018,3.8,3.8,0,0,0,2.025-1.57,4.158,4.158,0,0,0,.328-.618.487.487,0,0,0-.17-.646.477.477,0,0,0-.647.17" transform="translate(-912.811 -506.396)" fill="#161616"/>
          <path id="패스_2335" data-name="패스 2335" d="M1065.77,510.9c.041-.18-.139-.331-.307-.408a2.209,2.209,0,0,0-2.517.575,2.452,2.452,0,0,0-.32,2.6,2.788,2.788,0,0,0,2.176,1.518" transform="translate(-1015.187 -495.748)" fill="#ffd8c7"/>
          <path id="패스_2336" data-name="패스 2336" d="M1065.234,509.871c.052-.467-.377-.761-.758-.908a2.4,2.4,0,0,0-.979-.148,2.732,2.732,0,0,0-1.858.847,2.944,2.944,0,0,0,.059,3.922,3.375,3.375,0,0,0,2.094,1.039.475.475,0,0,0,.474-.472.485.485,0,0,0-.474-.472,2.254,2.254,0,0,1-1.9-1.728,1.831,1.831,0,0,1,1.206-2.115,1.683,1.683,0,0,1,.737-.068,2.02,2.02,0,0,1,.338.087c.017.007.14.074.144.071-.012.009-.01-.213-.028-.055a.476.476,0,0,0,.474.472.484.484,0,0,0,.473-.472" transform="translate(-1014.178 -494.72)" fill="#161616"/>
          <path id="패스_2337" data-name="패스 2337" d="M1066.117,513.759c2.318,2.642,6.048.659,6.7-2.368.56-2.6-2.865-8.7-5.783-5.394a1.5,1.5,0,0,0-.005,1.975,1.176,1.176,0,0,0-.333,1.856.9.9,0,0,0-.64,1.317c.086.13.214.273.158.418a.478.478,0,0,1-.174.18,1.452,1.452,0,0,0,.079,2.016" transform="translate(-1017.425 -492.134)" fill="#ffd8c7"/>
          <path id="패스_2338" data-name="패스 2338" d="M1064.755,513.081a3.943,3.943,0,0,0,2.243,1.31,4.152,4.152,0,0,0,2.475-.37,5.1,5.1,0,0,0,2.83-3.9,5.233,5.233,0,0,0-.206-1.906,8.721,8.721,0,0,0-.857-2.057,4.746,4.746,0,0,0-3.017-2.568,2.558,2.558,0,0,0-1.944.5,2.876,2.876,0,0,0-.9.993,2.051,2.051,0,0,0-.122,1.524,1.85,1.85,0,0,0,.412.683q.048-.371.1-.742a1.651,1.651,0,0,0-.429,2.6l.334-.806a1.366,1.366,0,0,0-1.154.925,1.343,1.343,0,0,0-.045.741,1.2,1.2,0,0,0,.139.343,1.042,1.042,0,0,0,.115.171l.03.052q.152-.395.007-.241c.028-.01-.095.073-.121.1a1.134,1.134,0,0,0-.1.107,1.382,1.382,0,0,0-.221.344,1.676,1.676,0,0,0-.147.771,2.388,2.388,0,0,0,.59,1.43.473.473,0,0,0,.669-.668,1.391,1.391,0,0,1-.314-.838.569.569,0,0,1,.188-.472,1.381,1.381,0,0,0,.272-.269.754.754,0,0,0-.049-.813c-.028-.043-.059-.082-.086-.125-.007-.011-.059-.128-.032-.05,0-.011-.031-.126-.021-.068s0-.06,0-.071c-.008-.1-.023.047.005-.054.01-.037.019-.074.032-.11s-.024.037.017-.034c0,0,.079-.123.028-.056a.805.805,0,0,1,.077-.083c.021-.021.081-.059.027-.025.009-.006.128-.063.047-.033.02-.007.144-.033.052-.022a.483.483,0,0,0,.433-.291.472.472,0,0,0-.1-.516s-.1-.108-.046-.039a.863.863,0,0,1-.049-.075c0-.007-.063-.131-.029-.047-.013-.035-.024-.07-.034-.106a1.071,1.071,0,0,1-.024-.11c.014.088,0-.013,0-.031,0-.038,0-.076,0-.113,0-.122-.022.065.006-.054a1.5,1.5,0,0,1,.063-.217c-.026.062,0,0,.019-.03s.037-.065.058-.1a.905.905,0,0,1,.088-.1c-.035.03.061-.04.061-.04a1.143,1.143,0,0,1,.122-.061.475.475,0,0,0,.1-.742.961.961,0,0,1-.2-.894,1.075,1.075,0,0,1,.2-.413,3.179,3.179,0,0,1,.4-.39c.008-.006.12-.094.037-.032l.067-.049c.065-.046.132-.089.2-.129s.111-.059.167-.088c.02-.01.134-.053.021-.011.039-.014.078-.03.117-.042.06-.02.122-.037.184-.051.045-.01.2-.028.073-.017a2.454,2.454,0,0,1,.4,0c.03,0,.136.026.005,0l.1.018q.081.017.162.04c.065.019.128.044.192.065.022.007.083.036-.018-.009.042.019.084.038.125.058a3.045,3.045,0,0,1,.339.2c.051.034.1.07.151.105.1.07-.073-.064.023.017.039.033.079.064.117.1a5.163,5.163,0,0,1,.609.626l.078.1c.087.106-.054-.075.028.036.042.056.084.112.124.17q.148.209.281.428a7.217,7.217,0,0,1,.779,1.7,6.934,6.934,0,0,1,.22.881c.006.036.04.262.024.138q.012.092.021.184c.013.141.021.282.02.424,0,.121-.011.241-.021.361s.023-.108,0,0c0,.02-.007.04-.011.06-.019.1-.044.2-.072.305a3.679,3.679,0,0,1-.391.945,4.272,4.272,0,0,1-1.414,1.5,4.831,4.831,0,0,1-.514.28c-.017.008-.109.048-.036.017-.057.024-.114.045-.172.066-.087.031-.174.059-.262.083s-.206.053-.311.073l-.09.016c-.057.008-.06.009-.009,0l-.09.01a3.33,3.33,0,0,1-.588,0l-.09-.008c-.057-.007-.06-.007-.01,0l-.09-.015c-.09-.017-.181-.037-.269-.061a3.266,3.266,0,0,1-.31-.1c-.036-.014-.1-.043-.193-.09a3.273,3.273,0,0,1-1.008-.8.473.473,0,0,0-.669.668" transform="translate(-1016.398 -491.122)" fill="#161616"/>
          <path id="패스_2339" data-name="패스 2339" d="M996.955,666.784c-.385-.9-.909-2.045.105-2.679.306-.191,2.212-.433,2.4-.135a4.108,4.108,0,0,1,.629,2.2.75.75,0,0,1-.107.448.781.781,0,0,1-.352.229,6.973,6.973,0,0,1-1.877.466.84.84,0,0,1-.39-.025.852.852,0,0,1-.407-.5" transform="translate(-970.069 -600.925)" fill="#686867"/>
          <path id="패스_2340" data-name="패스 2340" d="M996.344,665.52c-.034-.08-.069-.159-.1-.239.038.091-.018-.044-.021-.051l-.05-.125A4.911,4.911,0,0,1,996,664.6c-.021-.077-.037-.155-.054-.233-.005-.024-.017-.119-.006-.021,0-.041-.009-.083-.011-.124a1.791,1.791,0,0,1,0-.243c-.009.116,0-.01.009-.031.009-.039.022-.076.033-.114.032-.114-.048.069.015-.034l.062-.105c.062-.1-.059.048.031-.038.032-.031.064-.064.1-.095.006-.006.067-.053.017-.015.03-.023.066-.04.1-.063a.132.132,0,0,1,.041-.02c-.045-.01-.121.043-.022.014a5.047,5.047,0,0,1,.679-.142c.122-.019-.106.012.019,0l.111-.013.186-.018c.155-.013.31-.022.466-.022.081,0,.269-.028.337.016-.057-.037-.1-.019-.025,0l.066.015a.4.4,0,0,0,.039.012c.071.006-.114-.065-.034-.012.021.014-.159-.135-.121-.124s.076.126.09.149c.048.084.093.169.134.256a3.566,3.566,0,0,1,.229.649,3.272,3.272,0,0,1,.1.559c.008.1.012.193.013.289,0,.054,0,.109,0,.163,0,.031-.02.082-.012.061s.094-.059-.016.011a.53.53,0,0,1-.139.067q-.175.068-.353.128a6.908,6.908,0,0,1-.786.21,3.714,3.714,0,0,1-.724.1c-.165,0-.016.008-.024.009q-.071-.044-.017-.006c-.036-.041-.043-.045-.018-.01a1.205,1.205,0,0,1-.159-.3.477.477,0,0,0-.648-.169.483.483,0,0,0-.17.646,1.117,1.117,0,0,0,1.393.739,7.3,7.3,0,0,0,1.787-.449,1.186,1.186,0,0,0,.739-.6,1.848,1.848,0,0,0,.086-.86,4.748,4.748,0,0,0-.459-1.713,1.391,1.391,0,0,0-.431-.613.963.963,0,0,0-.358-.127,4.1,4.1,0,0,0-1.018-.014,7.079,7.079,0,0,0-1.041.159,1.592,1.592,0,0,0-.906.582c-.686.881-.177,2.006.207,2.9a.477.477,0,0,0,.648.169.484.484,0,0,0,.17-.646" transform="translate(-969.049 -599.899)" fill="#161616"/>
          <path id="패스_2341" data-name="패스 2341" d="M1047.205,655.1c-.385-.9-.909-2.045.105-2.679.306-.191,2.212-.433,2.4-.136a4.11,4.11,0,0,1,.629,2.2.749.749,0,0,1-.108.448.778.778,0,0,1-.351.228,6.973,6.973,0,0,1-1.877.467.836.836,0,0,1-.39-.025.852.852,0,0,1-.407-.5" transform="translate(-1004.461 -592.922)" fill="#686867"/>
          <path id="패스_2342" data-name="패스 2342" d="M1046.594,653.839c-.034-.079-.069-.159-.1-.239.038.091-.018-.045-.021-.051l-.05-.125a4.965,4.965,0,0,1-.172-.509c-.021-.077-.036-.155-.053-.233-.005-.024-.017-.119-.006-.021-.005-.042-.009-.083-.011-.125a1.728,1.728,0,0,1,.005-.242c-.01.116,0-.01.009-.031.009-.038.022-.076.032-.114.032-.114-.048.069.015-.034.021-.034.041-.07.062-.105.062-.1-.059.048.031-.038.033-.031.064-.063.1-.094.007-.006.068-.053.017-.015.03-.023.066-.04.1-.063a.126.126,0,0,1,.041-.02c-.045-.01-.121.043-.022.014a5.026,5.026,0,0,1,.679-.142c.123-.019-.106.012.019,0l.11-.013.186-.018c.155-.013.31-.022.466-.022.081,0,.269-.028.337.016-.057-.037-.1-.019-.025,0l.066.015a.367.367,0,0,0,.039.012c.071.007-.114-.065-.034-.012.022.014-.159-.135-.121-.123s.076.126.089.149c.048.083.093.169.135.256a3.593,3.593,0,0,1,.229.648,3.24,3.24,0,0,1,.1.559c.008.1.012.193.013.289,0,.055,0,.109,0,.163,0,.031-.02.082-.011.061s.093-.059-.017.011a.519.519,0,0,1-.138.067c-.117.046-.235.088-.353.128a6.849,6.849,0,0,1-.786.21,3.723,3.723,0,0,1-.724.1c-.166,0-.016.008-.024.009-.047-.03-.053-.031-.017-.006-.037-.041-.043-.045-.019-.01a1.218,1.218,0,0,1-.159-.3.477.477,0,0,0-.648-.169.484.484,0,0,0-.17.646,1.117,1.117,0,0,0,1.393.739,7.317,7.317,0,0,0,1.787-.449,1.186,1.186,0,0,0,.739-.6,1.849,1.849,0,0,0,.086-.859,4.751,4.751,0,0,0-.459-1.713,1.388,1.388,0,0,0-.43-.613.961.961,0,0,0-.359-.127,4.094,4.094,0,0,0-1.018-.014,7.124,7.124,0,0,0-1.041.159,1.593,1.593,0,0,0-.906.582c-.686.881-.177,2.006.207,2.9a.477.477,0,0,0,.648.169.485.485,0,0,0,.17-.646" transform="translate(-1003.441 -591.896)" fill="#161616"/>
        </g>
      </g>
    </g>
    <g id="마스크_그룹_113" data-name="마스크 그룹 113" transform="translate(-9.001 3.511) rotate(-16)" clip-path="url(#clip-path-2)">
      <path id="free-icon-musical-note-727218" d="M5.934,5.928a3.872,3.872,0,0,0,.519-1.7A2.38,2.38,0,0,0,6.2,3.041,3.342,3.342,0,0,0,4.912,1.77,3.647,3.647,0,0,1,3.958.965L3.915.906a1.587,1.587,0,0,1-.333-.6A.363.363,0,0,0,3.2,0a.358.358,0,0,0-.333.357V6.747a2.074,2.074,0,0,0-1.076-.294A1.646,1.646,0,0,0,0,7.887,1.646,1.646,0,0,0,1.793,9.321,1.646,1.646,0,0,0,3.585,7.887V3.708A2.581,2.581,0,0,1,5.248,5.662a2.022,2.022,0,0,1-.138.2.358.358,0,1,0,.538.473,2.666,2.666,0,0,0,.263-.37A.226.226,0,0,0,5.934,5.928Z" transform="translate(1.432 0)"/>
    </g>
    <g id="마스크_그룹_111" data-name="마스크 그룹 111" transform="matrix(0.966, 0.259, -0.259, 0.966, 0.647, 7.293)" clip-path="url(#clip-path-2)">
      <path id="free-icon-musical-note-727218-2" data-name="free-icon-musical-note-727218" d="M5.934,5.928a3.872,3.872,0,0,0,.519-1.7A2.38,2.38,0,0,0,6.2,3.041,3.342,3.342,0,0,0,4.912,1.77,3.647,3.647,0,0,1,3.958.965L3.915.906a1.587,1.587,0,0,1-.333-.6A.363.363,0,0,0,3.2,0a.358.358,0,0,0-.333.357V6.747a2.074,2.074,0,0,0-1.076-.294A1.646,1.646,0,0,0,0,7.887,1.646,1.646,0,0,0,1.793,9.321,1.646,1.646,0,0,0,3.585,7.887V3.708A2.581,2.581,0,0,1,5.248,5.662a2.022,2.022,0,0,1-.138.2.358.358,0,1,0,.538.473,2.666,2.666,0,0,0,.263-.37A.226.226,0,0,0,5.934,5.928Z" transform="translate(1.432 0)"/>
    </g>
    <path id="패스_2242" data-name="패스 2242" d="M1.115,0A4.77,4.77,0,0,0,.382,4.979" transform="translate(-3.646 31.104) rotate(-9)" fill="none" stroke="#000" stroke-linecap="round" stroke-width="1"/>
    <path id="패스_2244" data-name="패스 2244" d="M1.115,4.979A4.77,4.77,0,0,1,.382,0" transform="matrix(-0.788, 0.616, -0.616, -0.788, 57.773, 19.957)" fill="none" stroke="#000" stroke-linecap="round" stroke-width="1"/>
    <path id="패스_2241" data-name="패스 2241" d="M1.453,0A7.568,7.568,0,0,0,.5,7.265" transform="matrix(0.951, -0.309, 0.309, 0.951, -7.385, 31.028)" fill="none" stroke="#000" stroke-linecap="round" stroke-width="1"/>
    <path id="패스_2243" data-name="패스 2243" d="M1.453,7.265A7.568,7.568,0,0,1,.5,0" transform="translate(60.999 19.355) rotate(151)" fill="none" stroke="#000" stroke-linecap="round" stroke-width="1"/>
  </g>
</svg>
