<svg id="_x34__stroke" xmlns="http://www.w3.org/2000/svg" width="40" height="40" viewBox="0 0 40 40">
  <g id="Google_Chrome">
    <rect id="사각형_1066" data-name="사각형 1066" width="40" height="40" fill="none"/>
    <g id="Google_Chrome_1_" transform="translate(0 0)">
      <path id="패스_2293" data-name="패스 2293" d="M15.454,6.891A19.773,19.773,0,0,1,48.07,10.8c-4.486,0-11.512,0-15.317,0-2.76,0-4.541-.062-6.471.954a9.126,9.126,0,0,0-4.578,6.007Z" transform="translate(-10.678 0)" fill="#ea4335" fill-rule="evenodd"/>
      <path id="패스_2294" data-name="패스 2294" d="M42.708,49.292a6.573,6.573,0,1,0,6.574-6.577A6.583,6.583,0,0,0,42.708,49.292Z" transform="translate(-29.51 -29.514)" fill="#4285f4" fill-rule="evenodd"/>
      <path id="패스_2295" data-name="패스 2295" d="M22.324,48.466a8.86,8.86,0,0,1-10.372-4.2c-1.805-3.116-6.576-11.426-8.743-15.2a19.8,19.8,0,0,0,12.736,30.2Z" transform="translate(0 -20.079)" fill="#34a853" fill-rule="evenodd"/>
      <path id="패스_2296" data-name="패스 2296" d="M67.329,42.715A9.006,9.006,0,0,1,68.99,53.79c-1.568,2.7-6.574,11.152-9,15.243A19.793,19.793,0,0,0,79.87,42.715Z" transform="translate(-41.451 -29.514)" fill="#fbbc05" fill-rule="evenodd"/>
    </g>
  </g>
</svg>
