<svg xmlns="http://www.w3.org/2000/svg" width="39.833" height="40" viewBox="0 0 39.833 40">
  <g id="edge" transform="translate(-4.121 -4.074)">
    <path id="패스_2297" data-name="패스 2297" d="M40.759,35.466c-9.167,11.9-21.451,8.817-26.28,6.112C7.116,37.46,1.956,27.872,5.022,18.284A20.775,20.775,0,0,1,9.009,11.04,40.454,40.454,0,0,0,15.021,11c14.027-1,18.034,11.021,17.032,14.027-.511,1.533-2.324,2.024-3.978,2.134.16-.22.361-.541.641-1.022a4.751,4.751,0,0,0-1.733-6.282,5.028,5.028,0,0,0-6.893,1.282c-1.453,1.924-.882,4.819-.371,6.1,2.2,5.53,6.272,6.963,9.037,7.795a16.01,16.01,0,0,0,9.067-.19c2.184-.912,2.805-1.433,3.226-.972S41.18,34.865,40.759,35.466Z" transform="translate(0 0.013)" fill="#1e88e5"/>
    <path id="패스_2298" data-name="패스 2298" d="M40.781,35.449a21.151,21.151,0,0,1-11.231,7.925c-.03.01-.06.01-.08.02a14.388,14.388,0,0,1-5.861-.291c-3.1-.6-7.364-4.018-8.4-10.2a12.53,12.53,0,0,1,5.6-12.564,5.75,5.75,0,0,0-.7.781c-1.453,1.924-.882,4.819-.371,6.1,2.2,5.53,6.272,6.963,9.037,7.795a16.01,16.01,0,0,0,9.067-.19c2.184-.912,2.805-1.433,3.226-.972S41.2,34.847,40.781,35.449Z" transform="translate(0.021 0.031)" fill="#0d47a1"/>
    <path id="패스_2299" data-name="패스 2299" d="M26.983,4.25c.02.26.03.541.03.812A11.913,11.913,0,0,1,22.525,14.4a13.725,13.725,0,0,0-3.657-1.222c-4.078-.781-10.65,1.1-13.325,5.781A11.513,11.513,0,0,0,4.13,23.517a18.533,18.533,0,0,1,.892-5.22A20.082,20.082,0,0,1,26.983,4.25Z" transform="translate(0 0)" fill="#00e5ff"/>
    <path id="패스_2300" data-name="패스 2300" d="M41.427,27.924c-2.765,2.785-6.282,2.865-8.686,2.735a8.635,8.635,0,0,1-4.7-1.5c-1.112-.691-.481-1.373-.371-1.523a9.16,9.16,0,0,0,1-1.493,4.423,4.423,0,0,0,.541-1.914A23.891,23.891,0,0,0,38.391,9.86a21.156,21.156,0,0,1,4.8,7.624C44.072,20.009,44.743,24.588,41.427,27.924Z" transform="translate(0.044 0.011)" fill="#00e676"/>
    <path id="패스_2301" data-name="패스 2301" d="M38.4,9.861v.01a23.891,23.891,0,0,1-9.177,14.367,4.617,4.617,0,0,0-.1-1.323.434.434,0,0,0-.01-.05,10.4,10.4,0,0,0-2.224-4.779,13.959,13.959,0,0,0-4.4-3.687,11.913,11.913,0,0,0,4.489-9.338c0-.271-.01-.551-.03-.812.4.05.792.11,1.192.19A19.252,19.252,0,0,1,38.4,9.861Z" transform="translate(0.035 0)" fill="#1de9b6"/>
  </g>
</svg>
