<svg xmlns="http://www.w3.org/2000/svg" width="157.674" height="212.929" viewBox="0 0 157.674 212.929">
  <g id="img_평가" transform="translate(-158.858 -110.481)">
    <path id="패스_1415" data-name="패스 1415" d="M227.662,262.559a346.06,346.06,0,0,1,3.867,50.02,7.151,7.151,0,0,1-.548,3.4c-1.168,2.219-4.5,3.075-4.883,5.547l22.246-2.3a4.54,4.54,0,0,0,2.608-.831,4.421,4.421,0,0,0,1.107-2.838l8.064-59.525c.084-.62-.774-1.442-.857-.822" fill="#24221e"/>
    <path id="패스_1416" data-name="패스 1416" d="M225.854,263.057q1.89,12.567,2.839,25.3.482,6.443.723,12.9.12,3.2.18,6.4c.039,2.07.139,4.166.029,6.235a1.748,1.748,0,0,1-.063.472,4.083,4.083,0,0,1-.206.7c-.013.026-.166.257-.228.358-.018.031-.172.227-.033.052s-.067.07-.1.1a10.02,10.02,0,0,1-.842.793c-.14.117-.285.231-.428.344-.168.133.047-.036.067-.051l-.25.191c-1.422,1.094-2.917,2.3-3.257,4.18-.2,1.073.492,2.509,1.808,2.374l19.032-1.966c1.562-.161,3.169-.236,4.712-.533a4.643,4.643,0,0,0,3.526-2.818,17.086,17.086,0,0,0,.8-4.249l.636-4.693q2.569-18.957,5.136-37.914.72-5.31,1.439-10.62.177-1.3.352-2.593a7.029,7.029,0,0,0,.152-2.863,2.912,2.912,0,0,0-1.841-1.948,2.082,2.082,0,0,0-2.584,1.51,1.876,1.876,0,0,0,3.617,1l-.119.273-.672.673.058-.038-.946.256a1.581,1.581,0,0,1-.922-.348c-.048-.048-.227-.49-.189-.314.071.329.1-.767-.019-.307a5.315,5.315,0,0,0-.084.617q-.15,1.113-.3,2.223-.291,2.162-.585,4.323l-1.188,8.768-2.342,17.29-2.376,17.536c-.388,2.86-.75,5.724-1.163,8.581-.039.276-.083.552-.144.825-.026.121-.056.241-.089.361-.023.075-.158.446-.031.152a2.9,2.9,0,0,1-.169.316c-.035.064-.216.245-.035.047-.019.021-.241.228-.066.067-.188.093-.229.12-.123.082s.061-.019-.141.049a22.427,22.427,0,0,1-3.679.478l-19.651,2.03,1.808,2.373c.026-.145.07-.284.1-.428.066-.31.009-.026-.031.051.034-.063.062-.128.1-.188s.262-.418.128-.225,0,0,.031-.035c.083-.089.163-.182.249-.269a8.179,8.179,0,0,1,.668-.607c.139-.116.282-.227.424-.34-.281.222.084-.064.18-.137a8.493,8.493,0,0,0,3.289-3.964,10.135,10.135,0,0,0,.364-3.194c0-1.062-.014-2.123-.029-3.185q-.044-3.261-.149-6.52-.421-13.038-1.826-26.02-.807-7.47-1.931-14.9a1.887,1.887,0,0,0-2.306-1.309,1.92,1.92,0,0,0-1.309,2.306" fill="#24221e"/>
    <path id="패스_1417" data-name="패스 1417" d="M206.445,258.229a346.063,346.063,0,0,1,3.867,50.021,7.168,7.168,0,0,1-.549,3.4c-1.167,2.218-4.5,3.074-4.883,5.546l22.247-2.3a4.54,4.54,0,0,0,2.608-.831,4.42,4.42,0,0,0,1.107-2.837l8.064-59.526c.084-.62-.774-1.441-.857-.821" fill="#24221e"/>
    <path id="패스_1418" data-name="패스 1418" d="M204.637,258.727q1.892,12.567,2.84,25.3.481,6.442.723,12.9.12,3.2.18,6.4c.038,2.071.139,4.167.028,6.236a1.692,1.692,0,0,1-.062.471,4,4,0,0,1-.207.7c-.012.026-.166.256-.227.358-.018.031-.172.227-.033.052s-.067.07-.1.1a10.183,10.183,0,0,1-.842.793c-.141.117-.285.23-.429.344-.167.132.048-.037.068-.052l-.25.192c-1.423,1.094-2.917,2.3-3.257,4.18-.195,1.073.492,2.509,1.807,2.373l19.033-1.966c1.562-.161,3.168-.235,4.712-.532a4.64,4.64,0,0,0,3.525-2.818,17.041,17.041,0,0,0,.8-4.249l.636-4.693,5.136-37.914q.72-5.31,1.439-10.621.177-1.3.351-2.593a7.006,7.006,0,0,0,.152-2.862,2.908,2.908,0,0,0-1.84-1.949,2.082,2.082,0,0,0-2.584,1.511,1.875,1.875,0,0,0,3.616,1l-.118.272-.673.673.059-.037-.947.256a1.59,1.59,0,0,1-.921-.348c-.048-.048-.227-.49-.189-.314.071.329.1-.767-.02-.307a5.316,5.316,0,0,0-.083.617q-.151,1.112-.3,2.223l-.585,4.322-1.188,8.769L232.548,284.8l-2.376,17.537c-.388,2.86-.75,5.724-1.163,8.58-.04.277-.083.553-.144.826-.027.121-.056.241-.09.36-.022.076-.157.446-.03.152a2.826,2.826,0,0,1-.169.317c-.037.063-.217.245-.035.047-.019.021-.242.228-.066.067-.188.092-.229.12-.124.082s.061-.02-.14.048a22.432,22.432,0,0,1-3.679.479L204.88,315.32l1.808,2.374c.027-.145.07-.285.1-.428.066-.31.009-.026-.032.05.033-.062.062-.127.1-.187s.262-.418.127-.225,0,0,.032-.035c.083-.09.163-.182.248-.269a8.568,8.568,0,0,1,.669-.608c.139-.116.281-.227.423-.339-.28.221.085-.064.181-.138a8.5,8.5,0,0,0,3.289-3.964,10.129,10.129,0,0,0,.363-3.193q0-1.593-.028-3.185-.043-3.261-.149-6.52-.421-13.04-1.826-26.021-.807-7.47-1.931-14.9a1.888,1.888,0,0,0-2.306-1.31,1.923,1.923,0,0,0-1.31,2.307" fill="#24221e"/>
    <path id="패스_1419" data-name="패스 1419" d="M258.657,127.894c8.62,11.834,18.1,24.326,31.958,29.063,6.1,2.084,12.873,2.583,18.235,6.158s8.194,12.18,3.266,16.334c-1.773,1.5-4.38,2.3-5.153,4.493-.6,1.684.171,3.507.382,5.28.87,7.268-7.436,12.2-14.676,13.275a12.285,12.285,0,0,0-4.732,1.278c-2.048,1.262-3.005,3.694-4.571,5.519-2.481,2.892-6.342,4.111-9.994,5.2-9.118,2.715-18.508,5.461-27.985,4.607a38.516,38.516,0,0,1-32.019-24.689" fill="#7a6a59"/>
    <path id="패스_1420" data-name="패스 1420" d="M257.038,128.841a154.893,154.893,0,0,0,13.482,16.73,52.4,52.4,0,0,0,17.228,12.293,74.868,74.868,0,0,0,10.637,3.13,29.028,29.028,0,0,1,9.909,4.014c.29.2-.142-.133.127.1.142.122.287.24.428.365.281.253.552.517.81.793.243.258.471.527.7.8s-.094-.149.105.141c.109.158.222.311.329.47a14.261,14.261,0,0,1,1.081,1.921c.034.074.066.148.1.222.12.262-.1-.268,0,0,.058.15.117.3.172.452q.189.525.334,1.066c.086.329.161.661.219,1,.029.163.053.454.024.114.018.2.042.407.054.611.018.3.023.6.013.907-.006.174-.02.348-.033.522-.006.073-.017.147-.023.221.012-.145.048-.285,0-.06-.062.312-.125.62-.216.925-.049.164-.109.322-.162.483-.1.3.125-.229-.069.154a7.831,7.831,0,0,1-.472.826c-.085.128-.264.349-.058.1-.129.156-.259.309-.4.455-.107.112-.217.221-.331.325-.077.071-.158.138-.236.208-.012.011-.231.188-.077.067.115-.09-.229.163-.3.21-.191.132-.385.259-.582.384-.634.407-1.287.787-1.9,1.23a6.6,6.6,0,0,0-3.053,4.889,11.442,11.442,0,0,0,.373,3.258,9.006,9.006,0,0,1,.275,2.189q0,.274-.024.549c-.005.074-.064.521-.025.289s-.052.258-.073.354c-.037.173-.081.346-.129.516a9.468,9.468,0,0,1-.32.931c.122-.307.008-.032-.059.1q-.134.274-.284.539c-.165.29-.345.572-.536.844-.041.058-.3.4-.178.248.134-.172-.029.033-.048.055-.087.1-.169.2-.256.3a13.774,13.774,0,0,1-1.5,1.461c-.147.124-.3.246-.447.364.248-.192-.064.043-.152.107q-.479.345-.978.659a20.706,20.706,0,0,1-2.027,1.118c-.156.075-.313.149-.471.22-.088.04-.583.253-.268.123q-.561.232-1.135.436-1.058.376-2.146.653c-1.672.427-3.4.52-5.074.948a8.637,8.637,0,0,0-4.714,3.081c-.581.738-1.1,1.51-1.623,2.291a11.232,11.232,0,0,1-1.358,1.791,12.183,12.183,0,0,1-4.029,2.7c-.121.055-.241.109-.363.16.041-.017.19-.079-.01,0-.184.076-.37.148-.556.219q-.652.249-1.316.47c-.848.286-1.706.545-2.564.8-8.114,2.419-16.356,4.886-24.86,4.687q-1.5-.034-2.989-.181c-.211-.022-.423-.045-.634-.071l-.271-.033c.036,0,.269.038.047.006q-.63-.089-1.258-.2a36.11,36.11,0,0,1-4.76-1.186q-1.125-.361-2.225-.795c-.2-.077-.394-.157-.591-.238a1.8,1.8,0,0,1-.222-.094c-.388-.173-.776-.345-1.159-.528a39.116,39.116,0,0,1-4.3-2.384q-1-.639-1.956-1.337-.258-.187-.513-.379l-.217-.165c.03.023.187.146.019.014q-.5-.393-.992-.8a39.312,39.312,0,0,1-3.57-3.38q-.805-.865-1.559-1.779-.2-.247-.4-.5c-.05-.061-.323-.412-.155-.193q-.387-.506-.756-1.024a36.722,36.722,0,0,1-2.579-4.173q-.531-1-1-2.042c-.086-.194-.172-.388-.255-.583.112.263-.06-.147-.091-.225-.159-.394-.31-.792-.456-1.192a1.924,1.924,0,0,0-2.306-1.309,1.89,1.89,0,0,0-1.31,2.306A39.535,39.535,0,0,0,223.2,211.533a40.322,40.322,0,0,0,18.26,8.894c8.487,1.621,17.11.126,25.345-2.094,2.133-.575,4.253-1.2,6.371-1.827a53.726,53.726,0,0,0,5.31-1.77,18.249,18.249,0,0,0,5.1-3.01,20.9,20.9,0,0,0,3.341-4.225q.183-.27.373-.534c.054-.075.109-.149.165-.224-.024.032-.145.182-.012.016a8.712,8.712,0,0,1,.932-1c.061-.056.408-.318.187-.163a5.868,5.868,0,0,1,.585-.362,5.023,5.023,0,0,1,1.139-.421c1.7-.454,3.471-.541,5.177-.975a23.65,23.65,0,0,0,8.9-4.332,12.36,12.36,0,0,0,4.8-7.82,19.7,19.7,0,0,0-.509-5.637c.007.046.018.165-.007-.055q-.018-.165-.027-.33c-.01-.179-.015-.556-.009-.621,0-.027.1-.359.12-.5.035-.227,0-.04-.029.031.055-.126.127-.241.192-.362.039-.071.088-.137.131-.206-.039.063-.237.258,0,0,.11-.121.219-.241.337-.355.14-.135.287-.26.437-.383s-.02.017-.046.035c.092-.066.184-.133.277-.2a23.346,23.346,0,0,0,4.022-2.917,9.016,9.016,0,0,0,2.2-4.113A13.279,13.279,0,0,0,314.7,166.9a16.206,16.206,0,0,0-7.353-6.795,56.445,56.445,0,0,0-11.158-3.516c-1.867-.463-3.729-.957-5.542-1.6a32.423,32.423,0,0,1-4.6-2.04,45.37,45.37,0,0,1-8.408-5.789,75.452,75.452,0,0,1-7.61-7.667q-1.8-2.064-3.494-4.212c-1.109-1.4-1.98-2.537-3.1-4.039q-1.6-2.133-3.161-4.293a1.931,1.931,0,0,0-2.566-.672,1.889,1.889,0,0,0-.672,2.565" fill="#24221e"/>
    <path id="패스_1421" data-name="패스 1421" d="M224.982,270.03c1.22,5.252,2.272,10.54,3.02,15.881.029.206.044.323.09.68.042.321.083.644.122.965q.12.972.224,1.944.213,1.974.371,3.954c.224,2.8.356,5.6.454,8.407q.177,5.08.355,10.162a1.875,1.875,0,1,0,3.75,0c-.206-5.89-.3-11.8-.74-17.673a149.392,149.392,0,0,0-2.087-16.09c-.571-3.091-1.232-6.165-1.943-9.227a1.875,1.875,0,0,0-3.616,1" fill="#fff"/>
    <path id="패스_1422" data-name="패스 1422" d="M261.312,247.3a143.257,143.257,0,0,0-6.4-44.023c-1.642-5.3-1.717-10.74-3.655-15.909a112.114,112.114,0,0,0-17.351,3.994c-3.635,1.2-7.466,1.032-11.206,1.7a33.119,33.119,0,0,0-11.732,4.336c-3.468,2.159-6.443,5.059-9.987,7.09-3.51,2.012-9.584,4.386-13.629,2.815a24.012,24.012,0,0,1-6.906-4.46,45.7,45.7,0,0,1-10.674,19.965,49.694,49.694,0,0,0,13.119,10.7,35.249,35.249,0,0,0,22.859,3.375q-.7,11.631-1.623,23.282c16.986,2.036,34.128,2.394,51.2,2.474,7.773.036,5.921-9.424,5.99-15.34" fill="#afd1dd"/>
    <path id="패스_1423" data-name="패스 1423" d="M263.187,247.3a147.069,147.069,0,0,0-1.82-24.538q-.945-5.969-2.389-11.845-.693-2.812-1.5-5.6c-.553-1.908-1.167-3.79-1.587-5.734-.919-4.249-1.315-8.615-2.83-12.718a1.945,1.945,0,0,0-2.307-1.309,120.441,120.441,0,0,0-15.651,3.454c-1.275.39-2.526.834-3.834,1.1a32.42,32.42,0,0,1-3.623.491,54.54,54.54,0,0,0-7.933,1.174,35.436,35.436,0,0,0-7.383,2.705,39.338,39.338,0,0,0-6.307,4.137,53.429,53.429,0,0,1-6.129,4.324c-.847.48-1.722.9-2.609,1.3-.339.154-.14.063-.063.03-.117.049-.233.1-.349.143q-.352.143-.71.275c-.542.2-1.092.387-1.646.551-.586.173-1.179.323-1.778.445-.157.031-.313.061-.47.088-.041.007-.517.085-.31.054s-.17.02-.215.025c-.154.016-.308.031-.462.042a11.419,11.419,0,0,1-1.793,0c-.116-.01-.232-.021-.347-.036.276.036.058,0-.093-.027a7.353,7.353,0,0,1-.734-.182,7.723,7.723,0,0,1-1.5-.64c-.61-.31-1.2-.653-1.78-1.019a23.793,23.793,0,0,1-3.265-2.48,1.9,1.9,0,0,0-3.134.827,44.058,44.058,0,0,1-10.192,19.138,1.92,1.92,0,0,0,0,2.651,53.306,53.306,0,0,0,12.46,10.421,36.854,36.854,0,0,0,15.944,4.74,38.03,38.03,0,0,0,9.4-.6l-2.374-1.808q-.7,11.649-1.623,23.282c-.088,1.094.938,1.763,1.875,1.875,11.513,1.374,23.1,1.989,34.688,2.263q4.314.1,8.628.149c2.77.032,5.58.183,8.347.053a7.39,7.39,0,0,0,4.972-1.992,8.48,8.48,0,0,0,2.15-4.253c.773-3.612.245-7.309.279-10.961a1.875,1.875,0,0,0-3.75,0c-.029,3.068.322,6.131-.005,9.194-.037.34.008-.062.016-.109-.014.085-.026.17-.039.255-.031.189-.065.376-.1.563a10.318,10.318,0,0,1-.262,1.01c-.047.15-.107.3-.155.448-.121.378.156-.3.033-.073-.036.067-.063.139-.1.208a9.2,9.2,0,0,1-.483.818c-.172.277.093-.11.094-.117a.848.848,0,0,1-.142.167c-.113.12-.225.239-.347.349-.054.05-.116.093-.167.144-.161.166.324-.193.115-.091-.149.073-.285.19-.432.27-.187.1-.459.2-.083.062-.175.063-.347.129-.526.18s-.338.083-.508.121c-.067.015-.36.072-.089.022.294-.055-.112.01-.175.015-1.227.1-2.485.021-3.715.012q-2.1-.015-4.189-.037-4.191-.045-8.38-.134c-5.59-.124-11.177-.322-16.758-.644-6.32-.364-12.63-.891-18.917-1.642L206,260.17q.933-11.633,1.623-23.282a1.9,1.9,0,0,0-2.373-1.808,34.187,34.187,0,0,1-7.531.514,33.232,33.232,0,0,1-3.515-.325,33.563,33.563,0,0,1-16.82-7.714,64.465,64.465,0,0,1-6.288-6.069v2.651a47.989,47.989,0,0,0,11.157-20.792l-3.134.828a26.107,26.107,0,0,0,6.549,4.443,11.576,11.576,0,0,0,3.563,1.013,13.6,13.6,0,0,0,3.478-.139,28.547,28.547,0,0,0,12.55-5.6c2.092-1.545,4.087-3.225,6.278-4.635a27.99,27.99,0,0,1,6.628-3.134,36.112,36.112,0,0,1,7.408-1.568,46.892,46.892,0,0,0,8.16-1.176c2.974-.847,5.894-1.787,8.914-2.469s6.058-1.228,9.107-1.731l-2.307-1.31c1.34,3.623,1.81,7.456,2.53,11.229.738,3.873,2.054,7.6,3.033,11.414a140.275,140.275,0,0,1,3.944,23.262q.563,6.749.485,13.529a1.875,1.875,0,0,0,3.75,0" fill="#24221e"/>
    <path id="패스_1424" data-name="패스 1424" d="M177.96,200.261c-2.537-3.173-2.858-9.006-7.888-9.2-2.636-.1-5.147,3.112-3.593,5.245A3.543,3.543,0,0,0,163,198.748a3.724,3.724,0,0,0,1.359,3.882c-3.522-.265-5.188,4.417-1.706,5.858a2.956,2.956,0,0,0-1.307,3.336,8.58,8.58,0,0,0,1.932,3.317c2.093,2.594,4.229,5.2,6.492,7.671a45.708,45.708,0,0,0,10.674-19.965,22.4,22.4,0,0,1-2.482-2.586" fill="#ffe3d4"/>
    <path id="패스_1425" data-name="패스 1425" d="M179.286,198.935c.231.294.042.049-.06-.1-.089-.13-.174-.261-.257-.394-.193-.312-.37-.633-.537-.96-.325-.629-.614-1.276-.907-1.92a17.026,17.026,0,0,0-2.241-3.861,6.413,6.413,0,0,0-9.5-.662c-1.571,1.633-2.285,4.225-.924,6.216l1.619-2.821a5.459,5.459,0,0,0-5.167,3.485,5.536,5.536,0,0,0,1.722,6.036l1.325-3.2a5.267,5.267,0,0,0-5.287,3.666,4.706,4.706,0,0,0,2.635,5.686v-3.237a4.668,4.668,0,0,0-2.323,4.145,7.9,7.9,0,0,0,2.058,4.81c2.224,2.855,4.562,5.642,7,8.314a1.892,1.892,0,0,0,2.652,0,47.986,47.986,0,0,0,11.156-20.793,1.881,1.881,0,0,0-.483-1.824,23.592,23.592,0,0,1-2.482-2.586,1.887,1.887,0,0,0-2.652,0,1.918,1.918,0,0,0,0,2.651,23.52,23.52,0,0,0,2.483,2.587q-.242-.914-.482-1.824a44.06,44.06,0,0,1-10.192,19.137H171.1c-2.1-2.3-4.085-4.7-6.043-7.115a9.046,9.046,0,0,1-1.849-2.849c0,.02-.1-.532-.07-.268s0-.189,0-.24.057-.491.008-.241.07-.232.069-.229c.035-.175.068-.165-.015,0,0,0,.239-.415.1-.213s.122-.125.161-.164c-.218.216,0,.018.142-.059a1.885,1.885,0,0,0,0-3.237,4.408,4.408,0,0,1-.54-.273c-.08-.05-.158-.1-.234-.158.2.157.223.168.071.036-.339-.4.029.169-.109-.1-.038-.075-.179-.22-.176-.312.108.27.127.31.059.122-.023-.074-.044-.148-.061-.224q-.059-.3.012.158c-.007-.076-.012-.153-.013-.229s0-.154.006-.231c.018-.2.01-.153-.025.155-.036-.08.079-.311.1-.395.1-.427-.183.233.012-.041.088-.124.169-.275.246-.407-.259.442,0,.036.1-.079.058-.057.119-.112.181-.164-.2.151-.249.187-.135.106a3.422,3.422,0,0,0,.375-.226c.183-.088.151-.076-.1.034.081-.031.164-.058.248-.082.15-.043.664-.055.167-.053.194,0,.383-.011.577,0a1.892,1.892,0,0,0,1.326-3.2c-.121-.106-.238-.211-.35-.326-.059-.061-.282-.326-.134-.131a3.192,3.192,0,0,1-.251-.4c-.05-.089-.166-.388-.082-.149a3.512,3.512,0,0,1-.124-.449c-.066-.313.02.417,0-.151-.015-.322-.038.022,0-.166a2.836,2.836,0,0,1,.127-.452c-.132.356.386-.49.143-.221.079-.087.163-.167.244-.252.343-.359-.128.061.1-.088.124-.081.25-.153.379-.222-.277.147.043-.015.122-.039a2.826,2.826,0,0,1,.425-.1c-.336.046.093.024.2.027a1.889,1.889,0,0,0,1.62-2.822c-.088-.128-.161-.259-.237-.394.152.27.068.056,0-.1.016.038,0,.339.02.143a1.022,1.022,0,0,0,0-.287c-.038-.177-.016.087-.029.139.023-.1.039-.192.064-.286.043-.16.164-.4.017-.114.071-.136.138-.273.219-.4s.279-.367.072-.127c.122-.141.252-.27.382-.4.056-.057.118-.107.179-.16-.256.225-.069.047,0,.005.136-.083.276-.162.411-.246.279-.178-.183.023.134-.063.088-.024.567-.162.363-.114s.211-.009.3-.009c.159,0,.316.026.474.029.219,0-.1-.01-.122-.016.094.023.192.035.287.057.161.037.317.086.475.134.066.019.128.049.194.068-.016,0-.312-.161-.14-.057.112.068.236.117.35.182s.22.137.329.208c.35.231-.138-.149.076.063s.4.389.59.6c.246.273-.025-.058.034.03.087.129.182.252.268.381a22.29,22.29,0,0,1,1.626,3.165,18.194,18.194,0,0,0,2.2,3.807,1.885,1.885,0,0,0,2.652,0,1.922,1.922,0,0,0,0-2.651" fill="#24221e"/>
    <path id="패스_1426" data-name="패스 1426" d="M212.993,202.683a73.884,73.884,0,0,0,10.472,22.911,7.946,7.946,0,0,0,3.483,3.272c2.9,1.07,5.914-1.279,7.838-3.7,5.9-7.431,8.434-16.909,10.823-26.092" fill="#fff"/>
    <path id="패스_1427" data-name="패스 1427" d="M211.185,203.181a76.951,76.951,0,0,0,5.054,13.66q1.541,3.2,3.383,6.246a30.259,30.259,0,0,0,4.1,5.828,6.618,6.618,0,0,0,6.679,1.794,12.043,12.043,0,0,0,5.586-4.066,45.976,45.976,0,0,0,6.914-12.28,126.688,126.688,0,0,0,4.515-14.794,1.875,1.875,0,0,0-3.616-1c-1.085,4.167-2.182,8.339-3.621,12.4a53.455,53.455,0,0,1-2.357,5.723,42.387,42.387,0,0,1-3.149,5.474,15.533,15.533,0,0,1-3.788,4.169c-.222.147-.45.285-.684.412-.087.047-.174.092-.263.135-.033.018-.4.177-.218.1.157-.062-.138.043-.135.043-.121.036-.24.078-.362.111s-.243.06-.365.086-.256.021-.054.01a4.969,4.969,0,0,1-.742,0c.323.031-.246-.065-.338-.092-.037-.01-.411-.145-.232-.07.155.063-.127-.068-.126-.067-.111-.063-.223-.123-.33-.192-.039-.024-.4-.287-.276-.189a8.872,8.872,0,0,1-1.621-1.9q-.942-1.364-1.816-2.776-1.788-2.876-3.308-5.907a71.319,71.319,0,0,1-5.215-13.859,1.875,1.875,0,0,0-3.616,1" fill="#24221e"/>
    <path id="패스_1428" data-name="패스 1428" d="M232.809,220.393c-5.343,3.59-12.109,7.7-17.239,10.613a31.179,31.179,0,0,1-9.785,3.949l17.388,30.118a4.159,4.159,0,0,0,5.681,1.522l22.972-13.263Z" fill="#ffcb48"/>
    <path id="패스_1429" data-name="패스 1429" d="M226.785,269.026a6.038,6.038,0,0,1-5.236-3.016l-17.388-30.117a1.875,1.875,0,0,1,1.3-2.785,29.547,29.547,0,0,0,9.179-3.732c4.484-2.547,11.335-6.653,17.12-10.539a1.876,1.876,0,0,1,2.67.619L253.451,252.4a1.875,1.875,0,0,1-.687,2.561l-22.972,13.263a6,6,0,0,1-3.007.807m-18.121-32.834L224.8,264.135a2.285,2.285,0,0,0,3.12.836l21.348-12.325L232.184,223.06c-5.477,3.6-11.57,7.237-15.688,9.576a38.653,38.653,0,0,1-7.832,3.556" fill="#24221e"/>
    <path id="패스_1430" data-name="패스 1430" d="M232.809,220.393l-4.042-7L205.8,226.657a4.159,4.159,0,0,0-1.523,5.681l1.512,2.617a31.179,31.179,0,0,0,9.785-3.949c5.13-2.914,11.9-7.023,17.239-10.613" fill="#fff"/>
    <path id="패스_1431" data-name="패스 1431" d="M205.784,236.83a1.873,1.873,0,0,1-1.623-.938l-1.512-2.617a6.041,6.041,0,0,1,2.209-8.242L227.83,211.77a1.874,1.874,0,0,1,2.561.686l4.041,7a1.875,1.875,0,0,1-.578,2.494c-5.87,3.945-12.816,8.107-17.359,10.687A32.918,32.918,0,0,1,206.1,236.8a1.928,1.928,0,0,1-.32.027m22.3-20.875L206.733,228.28a2.282,2.282,0,0,0-.836,3.12l.83,1.438a32.757,32.757,0,0,0,7.916-3.463c4.112-2.335,10.216-5.982,15.662-9.568Z" fill="#24221e"/>
    <path id="패스_1432" data-name="패스 1432" d="M213.233,199.356c-.616,3.41-1.1,7.223.858,10.081,2.08,3.036,6.638,3.847,9.847,2.047a9.463,9.463,0,0,0,4.4-9.415c1.225,3.757,2.854,7.961,6.532,9.406,3.771,1.481,8.2-.835,10.356-4.268s2.528-7.664,2.6-11.715" fill="#fff"/>
    <path id="패스_1433" data-name="패스 1433" d="M211.425,198.857a21.78,21.78,0,0,0-.323,8.208,8.886,8.886,0,0,0,4.22,5.97,10.051,10.051,0,0,0,7.09,1.019,9.883,9.883,0,0,0,5.908-4.176,11.5,11.5,0,0,0,1.892-7.81l-3.683.5c1.5,4.574,3.821,10.176,9.195,11.085a10.279,10.279,0,0,0,7.446-1.727,13.7,13.7,0,0,0,5.076-6.681,29.145,29.145,0,0,0,1.458-9.752,1.892,1.892,0,0,0-1.875-1.875,1.911,1.911,0,0,0-1.875,1.875,28.235,28.235,0,0,1-.836,7.248,16.721,16.721,0,0,1-.564,1.7c-.078.2-.133.315-.279.613s-.289.566-.449.84c-.147.252-.3.5-.467.738-.043.062-.27.376-.081.128-.073.1-.151.188-.228.28A10.667,10.667,0,0,1,241.9,208.2c-.091.08-.185.157-.278.234.221-.181-.013.012-.052.04-.221.159-.444.312-.676.455s-.465.276-.705.4c-.106.055-.215.1-.322.158-.351.173.193-.051-.208.089a10.393,10.393,0,0,1-1.352.391c-.114.023-.228.043-.343.061.367-.057-.011-.005-.1,0a7.131,7.131,0,0,1-.865.013c-.115,0-.23-.014-.344-.023-.324-.028.426.1-.1-.018-.228-.053-.456-.1-.68-.166-.113-.033-.687-.261-.374-.119a7.1,7.1,0,0,1-.753-.4c-.1-.058-.191-.118-.284-.181.016.011-.428-.31-.218-.148.175.134-.1-.085-.135-.117-.085-.073-.168-.147-.25-.224q-.277-.26-.531-.54c-.076-.084-.15-.169-.223-.256-.019-.022-.347-.456-.129-.156a16.92,16.92,0,0,1-1.718-3.066c-.022-.049-.139-.331-.022-.049-.058-.138-.113-.277-.168-.417q-.165-.419-.318-.84c-.212-.583-.409-1.171-.6-1.761a1.889,1.889,0,0,0-2.058-1.343,1.845,1.845,0,0,0-1.625,1.841,10.254,10.254,0,0,1,.086,1.422c0,.239-.016.476-.036.714-.01.118-.022.237-.038.355.037-.276-.005-.013-.029.119a9.99,9.99,0,0,1-.334,1.3c-.021.063-.263.7-.128.384-.1.246-.223.485-.348.72-.112.209-.231.412-.357.612-.064.1-.129.2-.2.295-.025.037-.24.333-.114.166s-.1.12-.128.154c-.077.09-.154.178-.234.264q-.269.292-.562.558c-.087.079-.177.154-.266.23.059-.051.263-.182-.04.03-.193.136-.388.267-.592.388q-.256.151-.525.281c-.047.023-.368.161-.157.075s-.2.069-.244.083a8.039,8.039,0,0,1-1.3.314c.4-.064-.233.012-.334.017-.251.012-.5.012-.754,0-.2-.008-.389-.026-.584-.045.394.038-.2-.044-.325-.071-.216-.048-.431-.1-.644-.17-.1-.032-.211-.067-.315-.1-.042-.015-.456-.186-.237-.089s-.1-.053-.152-.078c-.1-.05-.2-.1-.291-.153-.193-.107-.377-.224-.56-.345-.043-.029-.319-.235-.141-.1s-.049-.044-.066-.06c-.2-.188-.4-.369-.589-.574-.074-.081-.146-.165-.215-.251.054.067.173.274-.005-.021-.12-.2-.251-.387-.363-.59-.063-.114-.12-.23-.179-.347-.145-.288.076.21-.044-.087a7.366,7.366,0,0,1-.272-.829c-.077-.283-.135-.57-.188-.857-.061-.322.023.241-.017-.086-.02-.164-.035-.328-.047-.493a14.958,14.958,0,0,1-.013-1.809,23.827,23.827,0,0,1,.453-3.538,1.919,1.919,0,0,0-1.31-2.307,1.9,1.9,0,0,0-2.306,1.31" fill="#24221e"/>
    <path id="패스_1434" data-name="패스 1434" d="M172.555,206.4a1.877,1.877,0,0,1-1.851-1.589l-9.092-58.778a1.875,1.875,0,1,1,3.706-.573l9.092,58.778a1.875,1.875,0,0,1-1.855,2.162" fill="#24221e"/>
    <path id="패스_1435" data-name="패스 1435" d="M176.434,201.027c-.841-1.083-1.817-3.1-3.247-3.373-3.341-.626-4.3,4.433-3.674,6.69a6.323,6.323,0,0,0,3.4,3.989,1.489,1.489,0,0,1,.831.622" fill="#ffe3d4"/>
    <path id="패스_1436" data-name="패스 1436" d="M178.053,200.081c-1.058-1.39-1.88-3.152-3.541-3.931a4.443,4.443,0,0,0-5.051.936,7.33,7.33,0,0,0-1.836,3.942,7.947,7.947,0,0,0,2.235,7.437,8.617,8.617,0,0,0,1.44,1.126,6.845,6.845,0,0,0,.669.361c.091.044.187.094.28.131.3.12-.042-.042-.122-.181a1.875,1.875,0,1,0,3.238-1.893c-.528-.921-1.413-1.167-2.244-1.7-.088-.057-.406-.295-.168-.1q-.229-.186-.442-.393-.182-.177-.349-.367c-.032-.037-.251-.313-.119-.138.116.155-.082-.125-.1-.153q-.164-.246-.305-.507c-.052-.1-.223-.453-.1-.163a4.8,4.8,0,0,1-.282-.9c-.015-.071-.082-.487-.029-.132s0-.087-.007-.161a7.381,7.381,0,0,1-.009-.773c0-.116.011-.231.02-.346.006-.065.059-.547.018-.219s.03-.158.042-.223c.027-.137.057-.274.091-.409a7.078,7.078,0,0,1,.223-.74,1.028,1.028,0,0,0,.084-.219c0,.01-.169.349-.073.183.075-.131.133-.273.208-.4.056-.1.118-.188.176-.282.227-.365-.212.2,0,0,.076-.072.146-.152.22-.226-.009.008.157-.13.156-.136.01.064-.375.222-.13.113.071-.032.452-.22.137-.094s.046,0,.118-.023c.391-.137-.322-.013-.021-.008a2.269,2.269,0,0,0,.46.013c.015-.012-.419-.033-.191-.016.047,0,.348.1.09.009-.3-.1.391.285.171.109-.172-.138.237.238.294.3.122.13.236.268.349.406-.243-.3.1.15.171.249.118.169.232.34.347.51.208.309.414.618.64.915a1.925,1.925,0,0,0,2.565.672,1.894,1.894,0,0,0,.673-2.565" fill="#24221e"/>
    <path id="패스_1437" data-name="패스 1437" d="M239.707,235.529c-4.122.845-8.914-.065-11.441,4.009a3.222,3.222,0,0,0-.611,2.429c.218.832,1.294,1.439,1.977.918a2.562,2.562,0,0,0,2.441,4.4c-1.005.555-.823,2.207.093,2.9a4.209,4.209,0,0,0,3.314.448c-.422,1.234,1.069,2.233,2.324,2.588a22.453,22.453,0,0,0,9.446.523,24.829,24.829,0,0,0-2.55-8.813,88.092,88.092,0,0,0-4.993-9.4" fill="#ffe3d4"/>
    <path id="패스_1438" data-name="패스 1438" d="M239.208,233.72c-.218.043-.437.085-.656.121l-.331.05q.332-.042,0,0-.588.07-1.178.125c-.838.08-1.678.146-2.514.252a12.6,12.6,0,0,0-5.07,1.5,7.809,7.809,0,0,0-3.65,4.858,3.587,3.587,0,0,0,1.4,3.711,3.031,3.031,0,0,0,3.374.163q-1.136-1.475-2.272-2.945a4.434,4.434,0,0,0,4.265,7.529q-.723-1.712-1.445-3.427a3.621,3.621,0,0,0-.931,5.107c1.3,1.927,3.709,2.033,5.783,1.669q-1.153-1.153-2.307-2.307a3.489,3.489,0,0,0,1.27,3.663,8.6,8.6,0,0,0,3.834,1.589,25.834,25.834,0,0,0,8.973.166,1.873,1.873,0,0,0,1.377-1.807,28.081,28.081,0,0,0-2.955-10.083,89.182,89.182,0,0,0-4.844-9.076,1.875,1.875,0,1,0-3.239,1.891,89.276,89.276,0,0,1,4.646,8.648,24.669,24.669,0,0,1,2.642,8.62q.687-.906,1.376-1.809a22,22,0,0,1-6.065,0q-.8-.128-1.6-.317c-.264-.063-.529-.127-.789-.206-.067-.02-.568-.208-.413-.137s-.333-.2-.393-.228q-.271-.187-.034-.007a1.9,1.9,0,0,1-.181-.167q-.14-.148.036.081a1.752,1.752,0,0,1-.153-.258c.224.075.009.841.123.435a1.9,1.9,0,0,0-2.306-2.307c-.228.036-.253.044-.076.021-.129.016-.259.028-.388.036a4.546,4.546,0,0,1-.774-.008c.321.037-.344-.1-.421-.136q.246.09-.054-.062c.128.112.149.125.062.042s-.074-.063.06.1a1.949,1.949,0,0,1-.147-.25q.134.339.034.039c-.045-.211-.046-.188,0,.073a1.9,1.9,0,0,1,0-.282c-.041.269-.035.3.016.1a.662.662,0,0,1-.217.368c.146-.141.127-.129-.057.038a1.884,1.884,0,0,0-1.445-3.427,2.429,2.429,0,0,1-.324.079q.333-.051,0-.034c-.223-.016-.222-.014,0,0a2.752,2.752,0,0,1-.322-.093c.448.163-.384-.324-.035-.022a2.619,2.619,0,0,1-.237-.234c.121.161.122.151.005-.031.066.2.064.193-.006-.013q-.071-.327-.029.007c-.016-.132.083-.718-.017-.333a2.657,2.657,0,0,1,.091-.323q-.129.282.018-.009c.119-.18.118-.188,0-.025a2.21,2.21,0,0,1,.24-.234c1.566-1.422-.479-4.1-2.272-2.945-.209.117-.161.119.145.008a.538.538,0,0,1,.484-.028c-.329-.04.177.163-.1-.048.125.1.27.4.165.1l.078.166q.009.173.006-.024c0-.132,0-.14-.006-.025a2.552,2.552,0,0,1,.089-.31.823.823,0,0,1,.116-.25c.1-.18.2-.36.318-.534.01-.015.352-.472.134-.2a6.25,6.25,0,0,1,.7-.734c.034-.031.382-.305.189-.163-.176.132.225-.142.271-.172a8.528,8.528,0,0,1,.765-.412c.446-.221-.339.1.136-.052.151-.049.3-.106.452-.153a12.7,12.7,0,0,1,1.736-.391c.135-.022.495-.068.156-.027l.5-.059c.335-.037.67-.068,1.006-.1a39.842,39.842,0,0,0,4.175-.523,1.893,1.893,0,0,0,1.31-2.3,1.915,1.915,0,0,0-2.307-1.311" fill="#24221e"/>
    <path id="패스_1439" data-name="패스 1439" d="M248.49,213.345a23.366,23.366,0,0,1-.7,14.133c-1.4,3.471-3.955,7.108-7.758,7.986-.107.025-.218.043-.327.065a88.181,88.181,0,0,1,4.992,9.4,24.851,24.851,0,0,1,2.551,8.813,25.364,25.364,0,0,0,17.625-11.332c4.444-7.248,5.181-16.48,2.653-24.6s-8.13-14.832-15.084-19.723" fill="#afd1dd"/>
    <path id="패스_1440" data-name="패스 1440" d="M246.682,213.843a23.676,23.676,0,0,1,.682,6.538,19.035,19.035,0,0,1-1.339,6.5c-.035.089-.071.177-.107.265q.112-.264-.021.042c-.1.218-.2.436-.3.651q-.319.655-.689,1.285c-.248.422-.514.834-.8,1.232-.071.1-.143.2-.217.3.107-.138.092-.12-.046.052s-.273.327-.415.485a7.054,7.054,0,0,1-4.22,2.536,1.889,1.889,0,0,0-1.12,2.754,89.366,89.366,0,0,1,4.645,8.648,24.638,24.638,0,0,1,2.642,8.618,1.912,1.912,0,0,0,2.373,1.809,28.021,28.021,0,0,0,13.189-5.9,26.239,26.239,0,0,0,8.277-12.157c3.309-9.742,1.429-20.736-4.184-29.244a44.646,44.646,0,0,0-11.64-11.776,1.89,1.89,0,0,0-2.564.672,1.915,1.915,0,0,0,.672,2.566c1.016.717,1.638,1.189,2.524,1.922s1.741,1.5,2.565,2.3q1.2,1.16,2.3,2.412c.787.9,1.369,1.621,1.964,2.44a31.7,31.7,0,0,1,5.563,12.14c1.921,8.718-.134,18.775-6.826,24.958a18.749,18.749,0,0,1-2.617,2.074,26.221,26.221,0,0,1-3.249,1.867,21.614,21.614,0,0,1-3.224,1.258,26.245,26.245,0,0,1-3.745.859l2.374,1.807a28.082,28.082,0,0,0-2.955-10.082,89.089,89.089,0,0,0-4.844-9.076q-.56,1.377-1.121,2.754c3.523-.684,6.238-3.4,7.984-6.4a22.571,22.571,0,0,0,2.937-11.106,29.081,29.081,0,0,0-.828-6.982,1.875,1.875,0,0,0-3.616,1" fill="#24221e"/>
    <path id="패스_1441" data-name="패스 1441" d="M280.2,144.944a11.227,11.227,0,0,0-4.4.891q-.249-.888-.531-1.762a71.284,71.284,0,0,1-39.682-20.851,132.526,132.526,0,0,1-48.883,25.7,45.877,45.877,0,1,0,89.966,18.011,11.278,11.278,0,1,0,3.529-21.99" fill="#ffe3d4"/>
    <path id="패스_1442" data-name="패스 1442" d="M231.628,205.979a47.782,47.782,0,0,1-46.763-57.434,1.873,1.873,0,0,1,1.328-1.427,131.151,131.151,0,0,0,48.189-25.335,1.876,1.876,0,0,1,2.561.147,69.241,69.241,0,0,0,38.631,20.294,1.876,1.876,0,0,1,1.46,1.227A13.159,13.159,0,1,1,278.1,169.21a47.792,47.792,0,0,1-46.47,36.769m-43.3-55.57a44,44,0,0,0,86.5,16.171,1.876,1.876,0,0,1,2.429-1.427,9.4,9.4,0,1,0-.726-17.592,1.874,1.874,0,0,1-2.537-1.22q-.087-.309-.178-.618a73.116,73.116,0,0,1-38.368-19.958,135.055,135.055,0,0,1-47.121,24.644" fill="#24221e"/>
    <path id="패스_1443" data-name="패스 1443" d="M231.628,112.356A45.888,45.888,0,0,0,186.7,148.923a132.541,132.541,0,0,0,48.883-25.7,71.278,71.278,0,0,0,39.681,20.851,45.885,45.885,0,0,0-43.637-31.717" fill="#7a6a59"/>
    <path id="패스_1444" data-name="패스 1444" d="M186.7,150.8a1.876,1.876,0,0,1-1.837-2.254,47.756,47.756,0,0,1,92.185-5.049,1.875,1.875,0,0,1-2.092,2.428,73.15,73.15,0,0,1-39.512-20.158,135.041,135.041,0,0,1-48.236,24.963,1.886,1.886,0,0,1-.508.07m44.927-36.567A44.165,44.165,0,0,0,189.295,146.2a131.158,131.158,0,0,0,45.087-24.42,1.873,1.873,0,0,1,2.56.147,69.106,69.106,0,0,0,35.432,19.683,43.873,43.873,0,0,0-40.746-27.382" fill="#24221e"/>
    <path id="패스_1445" data-name="패스 1445" d="M217.633,151.336a3.008,3.008,0,1,1-3.008-3.008,3.008,3.008,0,0,1,3.008,3.008" fill="#24221e"/>
    <path id="패스_1446" data-name="패스 1446" d="M246.21,151.336a3.008,3.008,0,1,1-3.008-3.008,3.008,3.008,0,0,1,3.008,3.008" fill="#24221e"/>
    <path id="패스_1447" data-name="패스 1447" d="M209.536,164.246c0,5.261-3.921,9.525-8.757,9.525s-8.758-4.264-8.758-9.525,3.921-9.526,8.758-9.526,8.757,4.265,8.757,9.526" fill="#ffb18f"/>
    <path id="패스_1448" data-name="패스 1448" d="M264.844,164.246c0,5.261-3.921,9.525-8.757,9.525s-8.757-4.264-8.757-9.525,3.92-9.526,8.757-9.526,8.757,4.265,8.757,9.526" fill="#ffb18f"/>
    <path id="패스_1449" data-name="패스 1449" d="M230.138,150.358a4.651,4.651,0,0,0-1.391-.833,4.3,4.3,0,0,0-1.149-.247,4.216,4.216,0,0,0-2.325.459,3.914,3.914,0,0,0-1.643,1.606,3.782,3.782,0,0,0-.4,1.048,4.924,4.924,0,0,0-.1.813,5.18,5.18,0,0,0,.086.814,1.868,1.868,0,0,0,.862,1.121,1.875,1.875,0,0,0,2.565-.673l.189-.448a1.9,1.9,0,0,0,0-1c0-.017,0-.035-.007-.052.022.166.045.332.067.5a2.023,2.023,0,0,1,.005-.473c-.023.166-.045.332-.067.5a2.2,2.2,0,0,1,.14-.51l-.189.447a2.329,2.329,0,0,1,.3-.509c-.1.127-.2.253-.293.38a2.383,2.383,0,0,1,.386-.385l-.38.294a2.4,2.4,0,0,1,.48-.281l-.448.19a2.475,2.475,0,0,1,.6-.16l-.5.067a2.755,2.755,0,0,1,.679,0l-.5-.067a2.666,2.666,0,0,1,.651.18l-.447-.189a2.467,2.467,0,0,1,.478.281l-.38-.293c.029.022.058.046.085.07a2.007,2.007,0,0,0,1.326.549,1.907,1.907,0,0,0,1.326-.549,1.886,1.886,0,0,0,.549-1.326,1.845,1.845,0,0,0-.549-1.326" fill="#24221e"/>
    <path id="패스_1450" data-name="패스 1450" d="M220.5,159.122h17.425s.959,14.389-6.874,14.389S220.5,159.122,220.5,159.122" fill="#fff"/>
    <path id="패스_1451" data-name="패스 1451" d="M231.05,175.386c-9.281,0-12.271-15.266-12.394-15.916a1.876,1.876,0,0,1,1.843-2.223h17.426A1.875,1.875,0,0,1,239.8,159c.066.994.532,9.834-3.465,14.106a7.063,7.063,0,0,1-5.281,2.283M222.874,161c1.187,4.221,3.907,10.639,8.176,10.639a3.27,3.27,0,0,0,2.542-1.1c1.978-2.113,2.463-6.668,2.5-9.544Z" fill="#24221e"/>
  </g>
</svg>
