<svg width="22" height="27" viewBox="0 0 22 27" fill="none" xmlns="http://www.w3.org/2000/svg">
<path fill-rule="evenodd" clip-rule="evenodd" d="M9.77779 3.648C9.77779 2.97299 10.325 2.42578 11 2.42578C11.675 2.42578 12.2222 2.97299 12.2222 3.648V4.87021H18.7778C19.8823 4.87021 20.7778 5.76564 20.7778 6.87021V19.7369C20.7778 20.8414 19.8823 21.7369 18.7778 21.7369H3.22222C2.11765 21.7369 1.22221 20.8414 1.22221 19.7369V15.0177C1.22057 15.3538 0.947597 15.6258 0.611111 15.6258C0.273604 15.6258 0 15.3522 0 15.0147V10.1258C0 9.78827 0.273604 9.51467 0.611111 9.51467C0.947597 9.51467 1.22057 9.78662 1.22221 10.1227V6.87021C1.22221 5.76564 2.11765 4.87021 3.22221 4.87021H9.77779V3.648ZM20.7778 10.1258C20.7778 9.78827 21.0514 9.51467 21.3889 9.51467C21.7264 9.51467 22 9.78827 22 10.1258V15.0147C22 15.3522 21.7264 15.6258 21.3889 15.6258C21.0514 15.6258 20.7778 15.3522 20.7778 15.0147V10.1258ZM6.11111 25.205V21.7369H11L6.43549 25.3617C6.30442 25.4657 6.11111 25.3724 6.11111 25.205Z" fill="url(#paint0_linear_431_5480)"/>
<path fill-rule="evenodd" clip-rule="evenodd" d="M9.77779 3.648C9.77779 2.97299 10.325 2.42578 11 2.42578C11.675 2.42578 12.2222 2.97299 12.2222 3.648V4.87021H18.7778C19.8823 4.87021 20.7778 5.76564 20.7778 6.87021V19.7369C20.7778 20.8414 19.8823 21.7369 18.7778 21.7369H3.22222C2.11765 21.7369 1.22221 20.8414 1.22221 19.7369V15.0177C1.22057 15.3538 0.947597 15.6258 0.611111 15.6258C0.273604 15.6258 0 15.3522 0 15.0147V10.1258C0 9.78827 0.273604 9.51467 0.611111 9.51467C0.947597 9.51467 1.22057 9.78662 1.22221 10.1227V6.87021C1.22221 5.76564 2.11765 4.87021 3.22221 4.87021H9.77779V3.648ZM20.7778 10.1258C20.7778 9.78827 21.0514 9.51467 21.3889 9.51467C21.7264 9.51467 22 9.78827 22 10.1258V15.0147C22 15.3522 21.7264 15.6258 21.3889 15.6258C21.0514 15.6258 20.7778 15.3522 20.7778 15.0147V10.1258ZM6.11111 25.205V21.7369H11L6.43549 25.3617C6.30442 25.4657 6.11111 25.3724 6.11111 25.205Z" fill="white"/>
<path d="M9.52757 10.4112L7.38925 17.1163H5.41016L8.47547 8.83594H9.72662L9.52757 10.4112ZM11.3019 17.1163L9.15792 10.4112L8.93612 8.83594H10.2043L13.281 17.1163H11.3019ZM11.2109 14.0339V15.467H6.89447V14.0339H11.2109Z" fill="white"/>
<path d="M9.52757 10.4112L7.38925 17.1163H5.41016L8.47547 8.83594H9.72662L9.52757 10.4112ZM11.3019 17.1163L9.15792 10.4112L8.93612 8.83594H10.2043L13.281 17.1163H11.3019ZM11.2109 14.0339V15.467H6.89447V14.0339H11.2109Z" fill="url(#paint1_linear_431_5480)"/>
<path d="M16.5896 8.83594V17.1163H14.7413V8.83594H16.5896Z" fill="white"/>
<path d="M16.5896 8.83594V17.1163H14.7413V8.83594H16.5896Z" fill="url(#paint2_linear_431_5480)"/>
<defs>
<linearGradient id="paint0_linear_431_5480" x1="9.72641e-07" y1="0.962431" x2="21.943" y2="26.4135" gradientUnits="userSpaceOnUse">
<stop stop-color="#4089F8"/>
<stop offset="1" stop-color="#A73BE9"/>
</linearGradient>
<linearGradient id="paint1_linear_431_5480" x1="5.41016" y1="8.83594" x2="20.0158" y2="8.96153" gradientUnits="userSpaceOnUse">
<stop offset="0.0001" stop-color="#FF00A1"/>
<stop offset="0.53125" stop-color="#9C00FF"/>
<stop offset="1" stop-color="#0258FF"/>
</linearGradient>
<linearGradient id="paint2_linear_431_5480" x1="5.41016" y1="8.83594" x2="20.0158" y2="8.96153" gradientUnits="userSpaceOnUse">
<stop offset="0.0001" stop-color="#FF00A1"/>
<stop offset="0.53125" stop-color="#9C00FF"/>
<stop offset="1" stop-color="#0258FF"/>
</linearGradient>
</defs>
</svg>
