<svg id="ico_academy" xmlns="http://www.w3.org/2000/svg" width="25" height="25" viewBox="0 0 25 25">
  <g id="사각형_993" data-name="사각형 993" fill="#1b1d1f" stroke="#707070" stroke-width="1" opacity="0">
    <rect width="25" height="25" stroke="none"/>
    <rect x="0.5" y="0.5" width="24" height="24" fill="none"/>
  </g>
  <g id="그룹_910" data-name="그룹 910" transform="translate(1.836)">
    <path id="패스_2287" data-name="패스 2287" d="M209.967,187.75H190.584a.93.93,0,0,0-.973.879v21.5a.93.93,0,0,0,.973.879h15.108v.867a.978.978,0,0,0,1.946,0V211h2.328a.93.93,0,0,0,.973-.879v-21.5A.93.93,0,0,0,209.967,187.75Zm-18.41,1.758h1.333v19.739h-1.333Zm17.437,19.739H194.836V189.508h14.158Z" transform="translate(-189.611 -187.75)" fill="#1b1d1f"/>
    <path id="패스_2288" data-name="패스 2288" d="M197.389,198.194h7.381a.792.792,0,0,0,.792-.792v-2.867a.791.791,0,0,0-.792-.792h-7.381a.791.791,0,0,0-.792.792V197.4A.792.792,0,0,0,197.389,198.194Zm.792-2.867h5.8v1.283h-5.8Z" transform="translate(-188.037 -188.655)" fill="#1b1d1f"/>
  </g>
</svg>
