<svg id="icon_온라인_공부방" data-name="icon_온라인 공부방" xmlns="http://www.w3.org/2000/svg" xmlns:xlink="http://www.w3.org/1999/xlink" width="40" height="40" viewBox="0 0 40 40">
  <defs>
    <clipPath id="clip-path">
      <rect id="사각형_6" data-name="사각형 6" width="40" height="40" fill="#fff"/>
    </clipPath>
  </defs>
  <g id="icon_온라인_공부방-2" data-name="icon_온라인 공부방" clip-path="url(#clip-path)">
    <g id="browser" transform="translate(1.338 4.402)">
      <path id="패스_173" data-name="패스 173" d="M22.873,14.935l-4.38-2.407a2.122,2.122,0,0,0-2.149.049,2.213,2.213,0,0,0-1.061,1.908v5.5a2.222,2.222,0,0,0,1.167,1.968,2.135,2.135,0,0,0,2.25-.141l4.38-3.094a2.246,2.246,0,0,0-.207-3.784Zm-5.412,5.05v-5.5l4.379,2.407Z" transform="translate(7.437 3.302)" fill="#fff" stroke="#fff" stroke-width="1"/>
      <path id="패스_174" data-name="패스 174" d="M11.231,11.768H4.263a1.111,1.111,0,0,0,0,2.222h6.969a1.111,1.111,0,0,0,0-2.222Z" transform="translate(1.544 3.047)" fill="#fff" stroke="#fff" stroke-width="1"/>
      <path id="패스_175" data-name="패스 175" d="M11.231,14.893H4.263a1.111,1.111,0,0,0,0,2.222h6.969a1.111,1.111,0,0,0,0-2.222Z" transform="translate(1.544 4.663)" fill="#fff" stroke="#fff" stroke-width="1"/>
      <path id="패스_176" data-name="패스 176" d="M11.231,18.018H4.263a1.111,1.111,0,0,0,0,2.222h6.969a1.111,1.111,0,0,0,0-2.222Z" transform="translate(1.544 6.279)" fill="#fff" stroke="#fff" stroke-width="1"/>
      <path id="패스_177" data-name="패스 177" d="M33.9,2H3.267A3.3,3.3,0,0,0,0,5.335V30.521a3.3,3.3,0,0,0,3.267,3.333H33.9a3.3,3.3,0,0,0,3.267-3.333V5.335A3.3,3.3,0,0,0,33.9,2ZM3.267,4.224H33.9a1.1,1.1,0,0,1,1.089,1.111v6.148H2.178V5.335A1.1,1.1,0,0,1,3.267,4.224ZM33.9,31.632H3.267a1.1,1.1,0,0,1-1.089-1.111V13.706h32.81V30.521A1.1,1.1,0,0,1,33.9,31.632Z" transform="translate(0 -2.002)" fill="#fff" stroke="#fff" stroke-width="1"/>
      <ellipse id="타원_9" data-name="타원 9" cx="1.089" cy="1.111" rx="1.089" ry="1.111" transform="translate(4.718 4.741)" fill="#fff" stroke="#fff" stroke-width="1"/>
      <ellipse id="타원_10" data-name="타원 10" cx="1.089" cy="1.111" rx="1.089" ry="1.111" transform="translate(9.364 4.741)" fill="#fff" stroke="#fff" stroke-width="1"/>
      <ellipse id="타원_11" data-name="타원 11" cx="1.089" cy="1.111" rx="1.089" ry="1.111" transform="translate(14.01 4.741)" fill="#fff" stroke="#fff" stroke-width="1"/>
    </g>
  </g>
</svg>
