<svg xmlns="http://www.w3.org/2000/svg" width="17.407" height="15.254" viewBox="0 0 17.407 15.254">
  <g id="그룹_1344" data-name="그룹 1344" transform="translate(16323 20394)">
    <path id="패스_2553" data-name="패스 2553" d="M11.325,8.662H6.755a.528.528,0,0,1-.269-.983C8.477,6.5,9.511,5.13,9.648,3.483a1.136,1.136,0,0,1,1.134-1.02,2.233,2.233,0,0,1,2.2,2.232h0v.178a5.841,5.841,0,0,1-1.215,3.552.528.528,0,0,1-.442.237Z" transform="translate(-16322.518 -20396.463)" fill="#ffc380"/>
    <path id="패스_2554" data-name="패스 2554" d="M17.169,8.689a1.657,1.657,0,0,0-1.655-1.655H7a.528.528,0,0,0-.269.074c-.6.353-1.2.644-1.686.878-.169.082-.329.159-.474.231a.528.528,0,0,0-.292.473v6.763a.528.528,0,0,0,.292.473,12.169,12.169,0,0,0,5.979,1.2c.32,0,.648,0,.985-.006.373,0,.758-.007,1.162-.007h1.67a1.655,1.655,0,0,0,1.425-2.5,1.654,1.654,0,0,0,.564-2.254,1.654,1.654,0,0,0,.36-2.528,1.644,1.644,0,0,0,.453-1.142Z" transform="translate(-16322.762 -20395.891)" fill="#ffcf99"/>
    <path id="SVGCleanerId_0" d="M3.324,13.579v2.783H2.267V13.579a.528.528,0,0,1,1.057,0Z" transform="translate(-16323.013 -20395.139)" fill="#73c3ff"/>
    <g id="그룹_1226" data-name="그룹 1226" transform="translate(-16320.746 -20382.088)">
      <path id="SVGCleanerId_0_1_" d="M3.324,13.579v2.783H2.267V13.579a.528.528,0,0,1,1.057,0Z" transform="translate(-2.267 -13.051)" fill="#73c3ff"/>
    </g>
    <g id="그룹_1343" data-name="그룹 1343">
      <path id="패스_2555" data-name="패스 2555" d="M5.3,7.034H.792a.529.529,0,0,0-.528.528v9.017a.538.538,0,0,0,.528.535H4.173a1.675,1.675,0,0,0,1.481-.924,1.641,1.641,0,0,0,.174-.739V7.562A.529.529,0,0,0,5.3,7.034Z" transform="translate(-16323.264 -20395.891)" fill="#15bf91"/>
    </g>
    <path id="패스_2556" data-name="패스 2556" d="M3.324,13.548v2.818H2.267V13.548a.528.528,0,0,1,1.057,0Z" transform="translate(-16323.013 -20395.143)" fill="#ffc964"/>
  </g>
</svg>
