<svg xmlns="http://www.w3.org/2000/svg" width="23.004" height="23" viewBox="0 0 23.004 23">
  <g id="그룹_1050" data-name="그룹 1050" transform="translate(-14.981 -142.554)">
    <g id="그룹_1047" data-name="그룹 1047" transform="translate(14.981 142.559)">
      <g id="그룹_1046" data-name="그룹 1046" transform="translate(0 0)">
        <circle id="타원_457" data-name="타원 457" cx="11.5" cy="11.5" r="11.5" transform="translate(0.004 22.996) rotate(-90)" fill="#fdc42d"/>
        <g id="그룹_1045" data-name="그룹 1045" transform="translate(2.071 3.526)">
          <path id="패스_2391" data-name="패스 2391" d="M34.534,145.711a11.49,11.49,0,0,1-17.7,14.543,11.491,11.491,0,1,0,17.7-14.543Z" transform="translate(-16.832 -145.711)" fill="#fdb431"/>
        </g>
        <path id="패스_2392" data-name="패스 2392" d="M17.4,148.414a8.619,8.619,0,0,1,4.1-3.965" transform="translate(-14.693 -142.334)" fill="none" stroke="#fff" stroke-linecap="round" stroke-linejoin="round" stroke-width="0.5"/>
      </g>
    </g>
    <g id="그룹_1048" data-name="그룹 1048" transform="translate(27.404 157.119)">
      <path id="패스_2393" data-name="패스 2393" d="M26.085,159.589s3.172.242,4.786-3.519" transform="translate(-26.085 -155.514)" fill="none" stroke="#403d3c" stroke-linecap="round" stroke-linejoin="round" stroke-width="0.75"/>
      <path id="패스_2394" data-name="패스 2394" d="M28.976,156a1.507,1.507,0,0,1,2.447.534" transform="translate(-25.742 -155.573)" fill="none" stroke="#403d3c" stroke-linecap="round" stroke-linejoin="round" stroke-width="0.75"/>
    </g>
    <g id="그룹_1049" data-name="그룹 1049" transform="translate(14.981 148.48)">
      <path id="패스_2395" data-name="패스 2395" d="M15.412,148.124c.943-.488,2.4-.2,3.391-.07,1.488.192,6.991.974,6.614,2.341-.923,3.343-1.967,5.21-4.608,5.06,0,0-4.672-.265-4.493-5.55.01.285-1.074-.415-1.168-.564a.958.958,0,0,1-.125-.8A.749.749,0,0,1,15.412,148.124Z" transform="translate(-14.981 -147.851)" fill="#403d3c"/>
      <path id="패스_2396" data-name="패스 2396" d="M36.214,148.124c-.943-.488-2.4-.2-3.391-.07-1.488.192-6.992.974-6.614,2.341.923,3.343,1.967,5.21,4.607,5.06,0,0,4.673-.265,4.493-5.55-.009.285,1.075-.415,1.169-.564a.962.962,0,0,0,.125-.8A.753.753,0,0,0,36.214,148.124Z" transform="translate(-13.649 -147.851)" fill="#403d3c"/>
    </g>
    <path id="패스_2397" data-name="패스 2397" d="M23.722,150.61a3.061,3.061,0,0,1,3.524,0" transform="translate(1.038 0.891)" fill="none" stroke="#403d3c" stroke-linecap="round" stroke-linejoin="round" stroke-width="1"/>
  </g>
</svg>
