<svg id="ico_academy" xmlns="http://www.w3.org/2000/svg" width="16" height="16" viewBox="0 0 16 16">
  <g id="사각형_993" data-name="사각형 993" fill="#72787f" stroke="#707070" stroke-width="1" opacity="0">
    <rect width="16" height="16" stroke="none"/>
    <rect x="0.5" y="0.5" width="15" height="15" fill="none"/>
  </g>
  <g id="그룹_910" data-name="그룹 910" transform="translate(-187.775 -187.75)">
    <path id="패스_2287" data-name="패스 2287" d="M201.377,187.75h-11.2a.563.563,0,0,0-.562.562V202.07a.563.563,0,0,0,.562.562h8.733v.555a.562.562,0,0,0,1.125,0v-.555h1.346a.563.563,0,0,0,.562-.562V188.312A.563.563,0,0,0,201.377,187.75Zm-10.641,1.125h.771v12.633h-.771Zm10.079,12.633h-8.184V188.875h8.184Z" fill="#72787f"/>
    <path id="패스_2288" data-name="패스 2288" d="M197.159,196.9H202.4a.562.562,0,0,0,.562-.562v-2.036a.562.562,0,0,0-.562-.562h-5.241a.562.562,0,0,0-.562.562v2.036A.562.562,0,0,0,197.159,196.9Zm.562-2.036h4.116v.911h-4.116Z" transform="translate(-3.057 -2.622)" fill="#72787f"/>
  </g>
</svg>
