<svg xmlns="http://www.w3.org/2000/svg" width="22.996" height="22.996" viewBox="0 0 22.996 22.996">
  <g id="그룹_1021" data-name="그룹 1021" transform="translate(-166.655 -65.068)">
    <g id="그룹_1015" data-name="그룹 1015" transform="translate(166.655 65.068)">
      <g id="그룹_1014" data-name="그룹 1014">
        <circle id="타원_454" data-name="타원 454" cx="11.498" cy="11.498" r="11.498" fill="#fdc42d"/>
        <g id="그룹_1013" data-name="그룹 1013" transform="translate(2.071 3.526)">
          <path id="패스_2358" data-name="패스 2358" d="M186.208,68.22a11.49,11.49,0,0,1-17.7,14.545,11.492,11.492,0,1,0,17.7-14.545Z" transform="translate(-168.506 -68.22)" fill="#fdb431"/>
        </g>
        <path id="패스_2359" data-name="패스 2359" d="M169.076,70.923a8.625,8.625,0,0,1,4.1-3.965" transform="translate(-166.367 -64.844)" fill="none" stroke="#fff" stroke-linecap="round" stroke-linejoin="round" stroke-width="0.5"/>
      </g>
    </g>
    <g id="그룹_1018" data-name="그룹 1018" transform="translate(172.019 74.244)">
      <g id="그룹_1016" data-name="그룹 1016">
        <path id="패스_2360" data-name="패스 2360" d="M174.664,74.421a1.973,1.973,0,0,0-.083-.182,1.555,1.555,0,0,0-.284-.41,1.655,1.655,0,0,0-.531-.4,1.562,1.562,0,0,0-.344-.12,2.249,2.249,0,0,0-.368-.043,1.744,1.744,0,0,0-1.237.556,1.566,1.566,0,0,0-.368.6A4.242,4.242,0,0,1,174.664,74.421Z" transform="translate(-171.449 -73.27)" fill="#403d3c"/>
      </g>
      <g id="그룹_1017" data-name="그룹 1017" transform="translate(9.052)">
        <path id="패스_2361" data-name="패스 2361" d="M182.757,74.421a1.975,1.975,0,0,0-.083-.182,1.591,1.591,0,0,0-.285-.41,1.643,1.643,0,0,0-.531-.4,1.553,1.553,0,0,0-.342-.12,2.249,2.249,0,0,0-.368-.043,1.746,1.746,0,0,0-1.239.556,1.567,1.567,0,0,0-.368.6A4.244,4.244,0,0,1,182.757,74.421Z" transform="translate(-179.54 -73.27)" fill="#403d3c"/>
      </g>
    </g>
    <g id="그룹_1019" data-name="그룹 1019" transform="translate(173.428 77.715)">
      <path id="패스_2362" data-name="패스 2362" d="M177.466,76.374v0H177.4v0a16.485,16.485,0,0,0-4.691.7s.4,4.956,4.691,4.956h.066c4.3,0,4.692-4.956,4.692-4.956A16.492,16.492,0,0,0,177.466,76.374Z" transform="translate(-172.709 -76.372)" fill="#403d3c"/>
      <path id="패스_2363" data-name="패스 2363" d="M174.1,79.972a6.533,6.533,0,0,1,6.376,0,3.713,3.713,0,0,1-3.2,1.453S174.956,81.359,174.1,79.972Z" transform="translate(-172.544 -76.044)" fill="#ee3555"/>
      <path id="패스_2364" data-name="패스 2364" d="M178.234,76.607l0-.01a15,15,0,0,0-1.592,0l0,.007a16.346,16.346,0,0,0-3.7.6l.3.957s.023.269.667.073a19.059,19.059,0,0,1,3.231-.469h.584a19.038,19.038,0,0,1,3.231.469c.643.2.668-.073.668-.073l.3-.957A16.347,16.347,0,0,0,178.234,76.607Z" transform="translate(-172.68 -76.348)" fill="#fff"/>
    </g>
    <g id="그룹_1020" data-name="그룹 1020" transform="translate(169.164 76.182)">
      <path id="패스_2365" data-name="패스 2365" d="M170.774,77.691A.991.991,0,1,1,169,76.8a11.853,11.853,0,0,1,2.013-1.8A11.923,11.923,0,0,1,170.774,77.691Z" transform="translate(-168.897 -75.002)" fill="#15a3cb"/>
      <path id="패스_2366" data-name="패스 2366" d="M183.315,77.691a.991.991,0,1,0,1.771-.891,11.9,11.9,0,0,0-2.014-1.8A11.872,11.872,0,0,0,183.315,77.691Z" transform="translate(-167.213 -75.002)" fill="#15a3cb"/>
    </g>
  </g>
</svg>
