<svg xmlns="http://www.w3.org/2000/svg" xmlns:xlink="http://www.w3.org/1999/xlink" width="18" height="18" viewBox="0 0 18 18">
  <defs>
    <clipPath id="clip-path">
      <rect id="사각형_1345" data-name="사각형 1345" width="18" height="18" transform="translate(950 73.999)" fill="#fff" stroke="#707070" stroke-width="1"/>
    </clipPath>
  </defs>
  <g id="ico_good" transform="translate(-950 -73.999)" clip-path="url(#clip-path)">
    <g id="like_7_" data-name="like (7)" transform="translate(950.297 75.124)">
      <path id="패스_2549" data-name="패스 2549" d="M11.325,8.662H6.755a.528.528,0,0,1-.269-.983C8.477,6.5,9.511,5.13,9.648,3.483a1.136,1.136,0,0,1,1.134-1.02,2.233,2.233,0,0,1,2.2,2.232h0v.178a5.841,5.841,0,0,1-1.215,3.552A.528.528,0,0,1,11.325,8.662Z" transform="translate(0.482 -2.463)" fill="#c9cdd2"/>
      <path id="패스_2550" data-name="패스 2550" d="M17.169,8.689a1.657,1.657,0,0,0-1.655-1.655H7a.528.528,0,0,0-.269.074c-.6.353-1.2.644-1.686.878-.169.082-.329.159-.474.231a.528.528,0,0,0-.292.473v6.763a.528.528,0,0,0,.292.473,12.169,12.169,0,0,0,5.979,1.2c.32,0,.648,0,.985-.006.373,0,.758-.007,1.162-.007h1.67a1.655,1.655,0,0,0,1.425-2.5,1.654,1.654,0,0,0,.564-2.254,1.654,1.654,0,0,0,.36-2.528A1.644,1.644,0,0,0,17.169,8.689Z" transform="translate(0.238 -1.891)" fill="#dae1e6"/>
      <path id="SVGCleanerId_0" d="M3.324,13.579v2.783H2.267V13.579a.528.528,0,0,1,1.057,0Z" transform="translate(-0.013 -1.139)" fill="#73c3ff"/>
      <g id="그룹_1225" data-name="그룹 1225" transform="translate(2.254 11.912)">
        <path id="SVGCleanerId_0_1_" d="M3.324,13.579v2.783H2.267V13.579a.528.528,0,0,1,1.057,0Z" transform="translate(-2.267 -13.051)" fill="#73c3ff"/>
      </g>
      <path id="패스_2551" data-name="패스 2551" d="M5.3,7.034H.792a.529.529,0,0,0-.528.528v9.017a.538.538,0,0,0,.528.535H4.173a1.675,1.675,0,0,0,1.481-.924,1.641,1.641,0,0,0,.174-.739V7.562A.529.529,0,0,0,5.3,7.034Z" transform="translate(-0.264 -1.891)" fill="#9ea4aa"/>
      <path id="패스_2552" data-name="패스 2552" d="M3.324,13.548v2.818H2.267V13.548a.528.528,0,1,1,1.057,0Z" transform="translate(-0.013 -1.143)" fill="#dae1e6"/>
    </g>
  </g>
</svg>
