<svg xmlns="http://www.w3.org/2000/svg" width="65" height="65" viewBox="0 0 65 65">
  <g id="그룹_1282" data-name="그룹 1282" transform="translate(-398 -3049.502)">
    <rect id="bg_" width="65" height="65" rx="10" transform="translate(398 3049.502)" fill="#f0eefa"/>
    <g id="그룹_1228" data-name="그룹 1228" transform="translate(416 3064.502)">
      <g id="그룹_1182" data-name="그룹 1182" transform="translate(0 0)">
        <g id="그룹_1181" data-name="그룹 1181">
          <path id="패스_2492" data-name="패스 2492" d="M3030.2,341.181h-24.965a2.5,2.5,0,0,1-2.517-2.486V308.667a2.5,2.5,0,0,1,2.517-2.486H3030.2a2.505,2.505,0,0,1,2.518,2.486v30.028A2.5,2.5,0,0,1,3030.2,341.181Zm-24.965-32.739a.229.229,0,0,0-.228.225v30.028a.229.229,0,0,0,.228.225H3030.2a.229.229,0,0,0,.228-.225V308.667a.23.23,0,0,0-.228-.225Z" transform="translate(-3002.717 -306.181)" fill="#6f57cf"/>
        </g>
      </g>
      <g id="그룹_1195" data-name="그룹 1195" transform="translate(6.986 1.125)">
        <g id="그룹_1186" data-name="그룹 1186">
          <g id="그룹_1185" data-name="그룹 1185">
            <g id="그룹_1183" data-name="그룹 1183" transform="translate(0 2.863)">
              <path id="패스_2493" data-name="패스 2493" d="M3027.106,320.3a1.724,1.724,0,0,1-1.723,1.724h0a1.723,1.723,0,0,1-1.723-1.724h0a1.723,1.723,0,0,1,1.723-1.723h0a1.723,1.723,0,0,1,1.723,1.723Z" transform="translate(-3023.66 -318.581)" fill="#6f57cf"/>
            </g>
            <g id="그룹_1184" data-name="그룹 1184" transform="translate(1.062)">
              <path id="패스_2494" data-name="패스 2494" d="M3027.622,314.926a.661.661,0,0,1-.661-.662V310.34a.662.662,0,1,1,1.323,0v3.924A.662.662,0,0,1,3027.622,314.926Z" transform="translate(-3026.961 -309.678)" fill="#6f57cf"/>
            </g>
          </g>
        </g>
        <g id="그룹_1190" data-name="그룹 1190" transform="translate(6.291)">
          <g id="그룹_1189" data-name="그룹 1189">
            <g id="그룹_1187" data-name="그룹 1187" transform="translate(0 2.863)">
              <path id="패스_2495" data-name="패스 2495" d="M3046.667,320.3a1.723,1.723,0,0,1-1.723,1.724h0a1.723,1.723,0,0,1-1.723-1.724h0a1.723,1.723,0,0,1,1.723-1.723h0a1.723,1.723,0,0,1,1.723,1.723Z" transform="translate(-3043.222 -318.581)" fill="#6f57cf"/>
            </g>
            <g id="그룹_1188" data-name="그룹 1188" transform="translate(1.061)">
              <path id="패스_2496" data-name="패스 2496" d="M3047.183,314.926a.661.661,0,0,1-.662-.662V310.34a.662.662,0,0,1,1.324,0v3.924A.662.662,0,0,1,3047.183,314.926Z" transform="translate(-3046.521 -309.678)" fill="#6f57cf"/>
            </g>
          </g>
        </g>
        <g id="그룹_1194" data-name="그룹 1194" transform="translate(12.583)">
          <g id="그룹_1193" data-name="그룹 1193">
            <g id="그룹_1191" data-name="그룹 1191" transform="translate(0 2.863)">
              <path id="패스_2497" data-name="패스 2497" d="M3066.229,320.3a1.724,1.724,0,0,1-1.724,1.724h0a1.723,1.723,0,0,1-1.722-1.724h0a1.723,1.723,0,0,1,1.722-1.723h0a1.723,1.723,0,0,1,1.724,1.723Z" transform="translate(-3062.783 -318.581)" fill="#6f57cf"/>
            </g>
            <g id="그룹_1192" data-name="그룹 1192" transform="translate(1.061)">
              <path id="패스_2498" data-name="패스 2498" d="M3066.743,314.926a.661.661,0,0,1-.661-.662V310.34a.662.662,0,1,1,1.323,0v3.924A.662.662,0,0,1,3066.743,314.926Z" transform="translate(-3066.082 -309.678)" fill="#6f57cf"/>
            </g>
          </g>
        </g>
      </g>
      <g id="그룹_1196" data-name="그룹 1196" transform="translate(7.691 25.413)">
        <line id="선_404" data-name="선 404" x2="12.689" transform="translate(0.965 0.965)" fill="#fff"/>
        <path id="패스_2499" data-name="패스 2499" d="M3039.505,386.78h-12.689a.965.965,0,0,1,0-1.93h12.689a.965.965,0,0,1,0,1.93Z" transform="translate(-3025.851 -384.85)" fill="#6f57cf"/>
      </g>
      <g id="그룹_1197" data-name="그룹 1197" transform="translate(10.112 13.16)">
        <path id="패스_2500" data-name="패스 2500" d="M3037.758,356.441h-.009a1.123,1.123,0,0,1-.9-.458l-3.308-4.489a1.125,1.125,0,1,1,1.812-1.336l2.418,3.281,4.681-6.131a1.126,1.126,0,0,1,1.789,1.366L3038.653,356A1.125,1.125,0,0,1,3037.758,356.441Z" transform="translate(-3033.324 -346.866)" fill="#6f57cf"/>
      </g>
    </g>
  </g>
</svg>
