<svg xmlns="http://www.w3.org/2000/svg" xmlns:xlink="http://www.w3.org/1999/xlink" width="50" height="50" viewBox="0 0 50 50">
  <defs>
    <clipPath id="clip-path">
      <circle id="SVGID" cx="24" cy="24" r="24" transform="translate(0)" fill="none"/>
    </clipPath>
  </defs>
  <g id="여_학부모" transform="translate(-30.218 -82.218)">
    <circle id="profile" cx="25" cy="25" r="25" transform="translate(30.218 82.218)" fill="#e8ebed"/>
    <g id="그룹_869" data-name="그룹 869" transform="translate(-1940.032 -859.389)">
      <g id="그룹_868" data-name="그룹 868" transform="translate(1971.25 942.607)" clip-path="url(#clip-path)">
        <g id="그룹_867" data-name="그룹 867" transform="translate(4.732 8.729)">
          <path id="패스_1709" data-name="패스 1709" d="M2035.568,1060.456c-.062-3.206-1.734-7.357-4.628-9.3-.068-.261-.135-.522-.206-.782l-2.123-.177a4.283,4.283,0,0,0-.435-.036l-9.907-.827q-.175.566-.339,1.134c-3.7,1.432-5.87,6.328-5.941,9.992a6.1,6.1,0,0,0,.32,2.277,4.727,4.727,0,0,0,2.7,2.633,3.755,3.755,0,0,0,.431.138q-.053,1.128-.066,2.258c6,.108,12.01-.256,17.979-.075a26.37,26.37,0,0,0-.169-2.633,4.6,4.6,0,0,0,2.063-2.32,6.093,6.093,0,0,0,.32-2.277" transform="translate(-2003.682 -1023.908)" fill="#b6deae"/>
          <path id="패스_1710" data-name="패스 1710" d="M2034.886,1059.182a13.367,13.367,0,0,0-3.068-8.148,9.142,9.142,0,0,0-1.858-1.674l.276.359c-.068-.261-.135-.522-.206-.782a.619.619,0,0,0-.578-.441l-4.1-.342-6.581-.549-1.786-.149a.606.606,0,0,0-.578.441q-.174.566-.339,1.134l.419-.419a9.809,9.809,0,0,0-5.072,5.2,14.148,14.148,0,0,0-1.126,3.556,8.372,8.372,0,0,0,.145,4.22,5.325,5.325,0,0,0,3.565,3.224l-.44-.579q-.052,1.128-.066,2.258a.609.609,0,0,0,.6.6c4.672.083,9.342-.118,14.013-.126,1.323,0,2.645.011,3.967.051a.607.607,0,0,0,.6-.6c-.009-.88-.075-1.758-.169-2.633l-.3.518a5.38,5.38,0,0,0,2.03-2,6.119,6.119,0,0,0,.65-3.113.6.6,0,1,0-1.2,0,7.019,7.019,0,0,1-.086,1.354,4.634,4.634,0,0,1-.175.661c-.019.054-.038.107-.059.16.029-.073-.014.032-.025.056q-.065.141-.14.276a4.106,4.106,0,0,1-1.6,1.572.588.588,0,0,0-.3.518c.094.875.161,1.753.169,2.633l.6-.6c-4.665-.139-9.33.049-14,.089-1.328.011-2.656.01-3.984-.013l.6.6q.013-1.129.066-2.258a.608.608,0,0,0-.441-.579,3.328,3.328,0,0,1-.935-.388q-.208-.118-.405-.256l-.1-.07c-.01-.007-.089-.069-.021-.015-.07-.056-.139-.114-.206-.173a4.742,4.742,0,0,1-.341-.334c-.054-.059-.106-.118-.157-.179-.008-.01-.085-.105-.046-.055s-.052-.072-.06-.082a4.224,4.224,0,0,1-.269-.428c-.038-.069-.074-.14-.108-.212-.006-.011-.057-.123-.031-.064a1,1,0,0,0-.037-.094,5.581,5.581,0,0,1-.3-2.237q.013-.4.057-.807c.007-.067.015-.133.023-.2.014-.116,0-.013,0,.009,0-.034.01-.068.015-.1q.034-.229.076-.458a13.415,13.415,0,0,1,.434-1.7q.144-.442.316-.874.041-.1.083-.2c-.042.1.034-.075.048-.109q.1-.227.209-.449a12.239,12.239,0,0,1,.909-1.565q.123-.179.253-.354l.065-.087c-.063.083-.007.009.005-.007.056-.07.112-.141.17-.21q.281-.339.593-.651a8.548,8.548,0,0,1,.746-.663c.072-.057-.071.053,0,0l.1-.077c.07-.051.141-.1.212-.148q.193-.13.394-.247t.431-.231c.069-.034.14-.065.21-.1.1-.049.02-.01,0,0l.143-.058a.67.67,0,0,0,.43-.457c.037-.112.066-.228.1-.341q.112-.378.228-.756l-.579.441,4.655.388c1.735.145,3.469.306,5.206.434.869.064,1.737.145,2.605.217l-.578-.441c.064.236.118.477.187.711a.744.744,0,0,0,.294.43c.09.065.182.125.271.191l.088.066c-.085-.065.011.009.032.026.065.052.129.106.193.16.142.121.28.248.413.378a9.529,9.529,0,0,1,.763.842c.021.026.142.182.083.1q.087.115.172.232.17.235.327.48.309.479.572.986.129.247.247.5.056.119.109.24l.059.134a.4.4,0,0,1,.03.072,14.171,14.171,0,0,1,.683,2.139q.069.3.124.6.025.135.046.271c.007.045.014.09.021.135,0,.027.008.054.011.081-.009-.07-.009-.07,0,0,.047.381.078.763.086,1.147a.6.6,0,1,0,1.2,0" transform="translate(-2002.395 -1022.632)" fill="#24221e"/>
          <path id="패스_1711" data-name="패스 1711" d="M2039.538,1081.789a3.393,3.393,0,0,1-1.534.242c-.281-.017-.614-.094-.71-.358a.781.781,0,0,1-.032-.259q-.023-1.914.015-3.828a2.221,2.221,0,0,1,.193-1.043c.58-1.047,3.053-2,3.968-.869a.767.767,0,0,1-.194,1.149.763.763,0,0,1-.23,1.441.926.926,0,0,1,.468.712.57.57,0,0,1-.519.6c.263.286.544.689.353,1.027a.9.9,0,0,1-.269.264,7.332,7.332,0,0,1-1.507.922" transform="translate(-2020.864 -1041.474)" fill="#ffe3d4"/>
          <path id="패스_1712" data-name="패스 1712" d="M2038.1,1079.942a3.5,3.5,0,0,1-.618.186c-.052.01-.1.021-.157.027.09-.011-.049,0-.069,0a3.738,3.738,0,0,1-.382.01c-.067,0-.134-.006-.2-.01-.119-.007-.026-.006,0,0a1.385,1.385,0,0,1-.158-.041c.142.05-.054-.043.021.012s-.094-.1.023.021c.041.043.008.078.029.029a.661.661,0,0,0,0-.192l0-.239q-.015-1.675.018-3.349c0-.128,0-.255.012-.383a.918.918,0,0,1,.033-.239.589.589,0,0,1,.076-.213c.03-.054.144-.194.043-.077a2.7,2.7,0,0,1,.3-.307l.085-.07c-.108.086-.023.019.005,0,.072-.047.141-.1.214-.14.146-.088.3-.155.451-.234.085-.044-.133.048.016-.006l.115-.043q.14-.05.282-.09c.079-.021.157-.041.238-.057l.119-.022c.151-.03-.089,0,.006,0,.171-.006.335-.018.507-.011.04,0,.142.024-.006,0,.042.008.085.015.128.024a1.869,1.869,0,0,1,.243.075c-.159-.059.07.05.113.073.117.068-.087-.09.009.007.029.029.059.06.09.088.1.09-.046-.074,0,0,.08.122,0-.062.03.046.007.03.016.061.024.091-.041-.143-.006.026-.005.074,0-.024.033-.125,0-.022-.007.029-.016.059-.026.087q.049-.11,0-.022c-.016.035-.068.069.015-.016q-.072.067.019-.009a.542.542,0,0,1-.081.043.6.6,0,0,0,0,1.036c.02.011.146.1.063.037q.071.078.015.01l.03.048c.033.063.035.068.007.013l.015.055c.039-.154-.022.135,0,.043,0-.042,0-.032-.014.031.022-.047.023-.051,0-.014a.546.546,0,0,1-.045.072c.029-.04.029-.044,0-.013s-.027.027.012,0a.63.63,0,0,1-.073.044c-.038.02-.034.018.013,0a.717.717,0,0,1-.111.025.594.594,0,0,0-.43.5.608.608,0,0,0,.286.6c.127.084-.039-.06.067.052a1.12,1.12,0,0,1,.082.087c-.06-.078.031.072.033.076-.037-.095.012.07-.007,0s.011.139,0-.016c-.006.018-.012.035-.017.053.02-.049.02-.055,0-.018-.056.054.036-.027.046-.038-.061.062-.025,0,.049,0a.607.607,0,0,0-.424,1.024,1.123,1.123,0,0,1,.146.179,1.266,1.266,0,0,1,.094.165c-.036-.086.028.076,0,0,0-.042,0-.03,0,.034,0-.016,0-.032,0-.048.025-.044.049-.053.011-.033-.079.043-.127.1-.238.184-.2.142-.4.281-.6.41-.107.067-.214.13-.325.189-.049.026-.1.052-.149.077-.014.007-.169.078-.1.048a.62.62,0,0,0-.42.738.6.6,0,0,0,.738.419,7.087,7.087,0,0,0,1.873-1.153,1.139,1.139,0,0,0,.378-1.1,2.109,2.109,0,0,0-.563-.957l-.424,1.024a1.179,1.179,0,0,0,1.115-1.116,1.508,1.508,0,0,0-.76-1.313q-.071.548-.143,1.1a1.37,1.37,0,0,0,1.077-1.134,1.389,1.389,0,0,0-.7-1.4v1.036a1.322,1.322,0,0,0,.629-1.467,1.587,1.587,0,0,0-.891-1.071,3.329,3.329,0,0,0-2.725.134,2.839,2.839,0,0,0-1.817,1.885,11.823,11.823,0,0,0-.084,2.039q-.01,1.017,0,2.034a2.238,2.238,0,0,0,.153,1.149,1.238,1.238,0,0,0,.874.548,3.863,3.863,0,0,0,2.014-.225.619.619,0,0,0,.419-.738.6.6,0,0,0-.738-.419" transform="translate(-2019.588 -1040.206)" fill="#24221e"/>
          <path id="패스_1713" data-name="패스 1713" d="M2047.476,1081.789a3.393,3.393,0,0,0,1.534.242c.281-.017.614-.094.71-.358a.781.781,0,0,0,.033-.259q.023-1.914-.015-3.828a2.221,2.221,0,0,0-.193-1.043c-.58-1.047-3.053-2-3.968-.869a.767.767,0,0,0,.194,1.149.763.763,0,0,0,.23,1.441.927.927,0,0,0-.468.712.57.57,0,0,0,.519.6c-.264.286-.545.689-.353,1.027a.9.9,0,0,0,.269.264,7.332,7.332,0,0,0,1.507.922" transform="translate(-2026.367 -1041.474)" fill="#ffe3d4"/>
          <path id="패스_1714" data-name="패스 1714" d="M2046.057,1081.082c1,.4,3,.576,3.036-.954.032-1.339.036-2.692-.021-4.03a2.357,2.357,0,0,0-.571-1.553,3.534,3.534,0,0,0-1-.748,3.716,3.716,0,0,0-2.676-.421,1.784,1.784,0,0,0-1.206,1.055,1.333,1.333,0,0,0,.585,1.625v-1.036a1.39,1.39,0,0,0-.7,1.4,1.371,1.371,0,0,0,1.077,1.134q-.071-.548-.143-1.1a1.507,1.507,0,0,0-.761,1.314,1.181,1.181,0,0,0,1.115,1.116l-.424-1.024a2.106,2.106,0,0,0-.563.958,1.138,1.138,0,0,0,.378,1.1,7.091,7.091,0,0,0,1.873,1.153.6.6,0,0,0,.738-.419.619.619,0,0,0-.419-.738c.065.028-.1-.051-.1-.048l-.119-.061c-.11-.058-.219-.121-.325-.187-.217-.134-.425-.28-.632-.428l-.157-.114c-.038-.029-.042-.031-.012-.006l-.048-.042c-.057-.052-.019-.052-.018-.007,0,.105-.007.03.012.008-.007.055-.005.061.005.017s.011-.038-.006,0a.9.9,0,0,1,.077-.138c.006-.01.078-.115.039-.062.038-.051.082-.1.124-.143a.608.608,0,0,0-.424-1.024c.072,0,.11.067.049,0,.021.022.04.038.061.061-.03-.055-.037-.064-.023-.026s.009.028-.01-.032c-.007.112.014-.047,0,.016-.018.081.039-.121-.008,0,0-.013.078-.137.045-.09s.06-.063.069-.074c.075-.082-.033.013.067-.052a.606.606,0,0,0,.286-.6.591.591,0,0,0-.43-.5c-.025,0-.166-.047-.073-.006-.02-.009-.157-.07-.066-.034-.047-.052-.053-.054-.02-.006l-.031-.048c-.033-.063-.036-.067-.011-.011-.014-.063-.019-.073-.014-.031.018.082.018-.149,0-.067,0,.042,0,.032.013-.031-.023.045-.025.05-.006.012a.6.6,0,0,1,.043-.074c-.031.038-.033.041,0,.011s.026-.028-.015,0a.716.716,0,0,1,.1-.059.6.6,0,0,0,0-1.036l-.042-.02c-.056-.036-.052-.03.012.017-.04-.084-.008,0,.007.022-.023-.035-.063-.15-.021-.015a.822.822,0,0,0-.03-.11c-.03-.058-.01.124,0,0,0-.01.023-.153,0-.06s.019-.052.02-.058c.033-.135-.026.091.017-.026s-.071.06.015-.019c.02-.019.039-.041.059-.06s.135-.094.006-.011c.029-.019.057-.039.086-.057s.061-.032.09-.05c.114-.067-.09.021-.01,0s.147-.05.223-.067c.042-.01.085-.016.128-.025-.136.029-.064.007-.028.005.083,0,.165-.01.249-.009s.155.008.233.013c.037,0,.144.023.006,0l.143.025a3.777,3.777,0,0,1,.5.135l.116.042s.151.061.066.025.063.029.063.029c.044.02.088.042.132.064a3.749,3.749,0,0,1,.428.254l.093.066c-.111-.077-.026-.021,0,0,.059.051.119.1.175.157s.1.112.15.163-.077-.122-.013-.015c.016.026.034.051.05.077a.981.981,0,0,1,.125.449c.041.547.027,1.1.032,1.653s.006,1.116,0,1.675q0,.219,0,.438a2.165,2.165,0,0,0-.005.465c-.021-.012.067-.1.067-.1l-.035.036c.056-.042.054-.045,0-.009l.046-.02a1.02,1.02,0,0,1-.1.03c-.117.04.075,0-.057.012a2.929,2.929,0,0,1-1.428-.217.6.6,0,0,0-.738.419.618.618,0,0,0,.419.738" transform="translate(-2025.107 -1040.189)" fill="#24221e"/>
          <path id="패스_1715" data-name="패스 1715" d="M2026.959,1063.07a3.9,3.9,0,0,0,3.062,5.149.616.616,0,0,0,.738-.419.607.607,0,0,0-.419-.738,3.4,3.4,0,0,1-.639-.16s-.173-.071-.079-.029c-.046-.02-.091-.042-.136-.064q-.148-.074-.288-.162a2.014,2.014,0,0,1-.444-.35q-.118-.115-.224-.242c-.019-.022-.083-.108-.036-.043q-.053-.073-.1-.148a2.645,2.645,0,0,1-.279-.549,3.237,3.237,0,0,1-.093-.313c-.016-.064-.027-.128-.041-.192-.024-.114,0,.027-.016-.1a3.664,3.664,0,0,1,0-.686c0-.042,0-.043,0,0l.01-.065c.011-.064.024-.128.038-.192a3.5,3.5,0,0,1,.111-.376.6.6,0,0,0-.419-.738.615.615,0,0,0-.738.419" transform="translate(-2013.717 -1032.954)" fill="#24221e"/>
          <path id="패스_1716" data-name="패스 1716" d="M2060.687,1063.357a14.247,14.247,0,0,1,.336,1.72,4.467,4.467,0,0,1,.051.86.832.832,0,0,1-.207.466,2.685,2.685,0,0,1-1.1.7,3.386,3.386,0,0,1-.363.095c-.051.01-.1.02-.154.027s-.041.006,0,0l-.094.009a3.247,3.247,0,0,1-.375.008c-.062,0-.125-.007-.187-.012q-.064-.007,0,0l-.123-.021a.614.614,0,0,0-.738.419.608.608,0,0,0,.419.738,3.9,3.9,0,0,0,3.551-1.119,2.039,2.039,0,0,0,.511-.948,3.45,3.45,0,0,0,.015-1.074,16.209,16.209,0,0,0-.4-2.191.6.6,0,1,0-1.157.319" transform="translate(-2034.788 -1032.931)" fill="#24221e"/>
          <path id="패스_1717" data-name="패스 1717" d="M2001.04,1007.431a4.821,4.821,0,0,1-9.318-2.306,3.526,3.526,0,0,1-1.682-6.764,4.385,4.385,0,1,1,7.28-4.874" transform="translate(-1987.294 -984.535)" fill="#24221e"/>
          <path id="패스_1718" data-name="패스 1718" d="M2000.362,1006.314a5.649,5.649,0,0,1-4.667,3.612,5.3,5.3,0,0,1-5.153-2.772,5.467,5.467,0,0,1-.655-3.464l.579.76a4.272,4.272,0,0,1-3.849-2,4.175,4.175,0,0,1,1.865-5.879l-.215.82a5.182,5.182,0,0,1,.028-5.81,4.615,4.615,0,0,1,2.488-1.825,5.252,5.252,0,0,1,3.049.052,4.98,4.98,0,0,1,2.751,2.1.6.6,0,1,1-1.036.606c-.054-.089-.114-.174-.172-.26s.04.044-.032-.043c-.038-.047-.077-.093-.116-.138a4.247,4.247,0,0,0-.483-.462l-.06-.049c.007.006.075.055.019.016s-.083-.06-.126-.089q-.139-.095-.284-.179c-.09-.052-.181-.1-.274-.146l-.14-.066c-.008,0-.087-.038-.023-.011s-.037-.015-.048-.019a5.154,5.154,0,0,0-.644-.2q-.152-.036-.306-.063c-.023,0-.167-.026-.1-.016s-.1-.01-.127-.013a4.654,4.654,0,0,0-.647-.014c-.112.005-.223.016-.335.028.108-.012,0,0-.045.008s-.118.021-.177.034a4.205,4.205,0,0,0-.617.181c-.039.015-.142.06-.047.018-.047.021-.094.042-.14.065q-.151.074-.3.161c-.1.058-.189.122-.282.187s.043-.04-.042.033c-.046.039-.093.077-.138.118a4.46,4.46,0,0,0-.442.467c-.072.087.033-.051-.032.042-.029.043-.06.084-.088.127-.063.092-.122.188-.177.284s-.107.2-.155.3c-.022.046-.043.094-.064.141.045-.1-.014.037-.027.073a4.857,4.857,0,0,0-.187.621q-.035.152-.06.306c-.007.046-.017.155-.007.047-.005.06-.013.12-.018.181a4.8,4.8,0,0,0,0,.751c0,.06.014.12.018.18s0-.023,0-.031c.005.034.01.068.016.1q.03.178.075.353t.1.345c.023.065.047.129.073.193-.043-.106.016.034.033.069a4.029,4.029,0,0,0,.385.643.6.6,0,0,1-.215.821,3.409,3.409,0,0,0-.4.2q-.095.057-.186.119l-.09.064c.069-.05,0,0-.03.025a3.5,3.5,0,0,0-.321.3q-.066.07-.129.144c-.024.028-.047.057-.07.086.073-.093-.035.05-.039.056a3.834,3.834,0,0,0-.233.377c-.03.057-.06.115-.087.173-.016.034-.031.067-.046.1-.027.061.023-.068-.013.036-.05.139-.1.278-.133.422q-.027.108-.047.216c-.007.036-.013.073-.019.109.015-.087,0-.017,0,.032a3.422,3.422,0,0,0-.016.44c0,.064.005.128.011.192,0,.036.007.074.011.11-.017-.132.01.047.013.059a3.2,3.2,0,0,0,.116.434c.009.027.019.053.029.08s.05.122.023.059.021.043.028.057q.03.064.063.126c.071.133.154.257.237.383.063.1.024.036.008.014.023.03.047.059.071.088q.082.1.17.189a4.231,4.231,0,0,0,.333.307c.074.062-.065-.047.013.01l.069.051q.116.082.237.155a3.525,3.525,0,0,0,.453.234c-.093-.04,0,0,.014,0l.133.048c.08.027.161.051.244.072s.183.041.276.059c.021,0,.118.017.008,0l.14.014a3.38,3.38,0,0,0,.537,0,.57.57,0,0,1,.471.236.631.631,0,0,1,.107.523c.019-.135,0,.048-.005.062-.005.055-.009.111-.012.167q-.009.166-.006.333c0,.111.009.222.019.332,0,.037.008.073.012.11-.015-.135.016.091.02.115a4.865,4.865,0,0,0,.163.646q.043.132.094.262c0,.01.076.178.025.063q.045.1.094.2a5.193,5.193,0,0,0,.333.581c.052.078.106.153.161.228.106.147-.074-.084.043.055.048.057.095.115.144.171a5.084,5.084,0,0,0,.433.434c.041.037.083.073.126.109.007.006.151.119.053.044.1.079.21.153.319.222a4.675,4.675,0,0,0,.534.293c.01,0,.178.076.06.028.052.021.1.041.156.059.122.044.247.083.372.116.089.023.178.044.268.061.053.01.107.019.161.028.176.029-.121-.007.056.006a5.725,5.725,0,0,0,.65.02c.109,0,.216-.015.324-.025.178-.016-.12.023.056-.007l.16-.028a5.059,5.059,0,0,0,.632-.163c.1-.034.206-.073.307-.112.167-.064-.1.052.058-.025l.148-.069a5.247,5.247,0,0,0,.569-.323c.106-.069.211-.142.312-.22-.1.077.04-.035.049-.042q.063-.052.124-.106a5.02,5.02,0,0,0,.528-.546c.008-.009.117-.151.04-.049.038-.051.075-.1.111-.154q.1-.145.188-.3t.177-.336c.005-.012.077-.176.027-.056.028-.067.053-.136.078-.2a.616.616,0,0,1,.738-.419.605.605,0,0,1,.419.738" transform="translate(-1986.038 -983.258)" fill="#24221e"/>
          <path id="패스_1719" data-name="패스 1719" d="M2032.13,982.039a19.48,19.48,0,0,1-4.585-.928,26.181,26.181,0,0,1-8.938-4.233,13.117,13.117,0,0,1-3.7,3.233,7.757,7.757,0,0,1-4.749,1.007,6.932,6.932,0,0,1-.825-.171,14,14,0,0,1,26.472.518,8.564,8.564,0,0,1-3.681.573" transform="translate(-2001.882 -971.159)" fill="#24221e"/>
          <path id="패스_1720" data-name="패스 1720" d="M2031.361,981.378c-.178,0-.357,0-.536-.013a20.166,20.166,0,0,1-4.727-.953,28.111,28.111,0,0,1-8.676-3.982,13.065,13.065,0,0,1-3.493,2.932,8.377,8.377,0,0,1-5.121,1.078,7.431,7.431,0,0,1-.9-.185.6.6,0,0,1-.411-.787,14.6,14.6,0,0,1,27.606.541.6.6,0,0,1-.342.739,8.969,8.969,0,0,1-3.4.631m-.509-.613h0Zm2.924-.936a13.4,13.4,0,0,0-24.893-.592l.086.012a7.177,7.177,0,0,0,4.377-.937,12.386,12.386,0,0,0,3.522-3.088.6.6,0,0,1,.838-.09,26.04,26.04,0,0,0,8.736,4.128,19.113,19.113,0,0,0,4.443.9,8.3,8.3,0,0,0,2.891-.336" transform="translate(-2000.607 -969.885)" fill="#24221e"/>
          <path id="패스_1721" data-name="패스 1721" d="M1996.766,992.587a3.434,3.434,0,0,1,1.344.272c.066-.235.14-.466.217-.695.038-.114.08-.225.121-.337a6.793,6.793,0,0,0,.825.171,7.758,7.758,0,0,0,4.749-1.007,13.113,13.113,0,0,0,3.7-3.233,26.179,26.179,0,0,0,8.938,4.233,19.508,19.508,0,0,0,4.585.928,8.572,8.572,0,0,0,3.681-.573c0,.011.008.021.011.032.053.164.1.331.15.5a3.445,3.445,0,1,1,.264,6.411,14,14,0,0,1-27.5.013,3.443,3.443,0,1,1-1.077-6.713" transform="translate(-1990.991 -982.039)" fill="#ffe3d4"/>
          <path id="패스_1722" data-name="패스 1722" d="M2010.317,1009.973a14.616,14.616,0,0,1-14.207-11.221,4.043,4.043,0,1,1,.33-7.927c.014-.042.028-.084.042-.126.035-.1.071-.2.108-.3l.019-.051a.6.6,0,0,1,.716-.373,6.136,6.136,0,0,0,.752.156,7.179,7.179,0,0,0,4.377-.937,12.384,12.384,0,0,0,3.522-3.088.6.6,0,0,1,.838-.09,26.028,26.028,0,0,0,8.736,4.127,19.106,19.106,0,0,0,4.442.9,7.954,7.954,0,0,0,3.422-.528.606.606,0,0,1,.476.015.615.615,0,0,1,.3.3,4.044,4.044,0,1,1,.989,7.965,3.968,3.968,0,0,1-.657-.055,14.615,14.615,0,0,1-14.209,11.228m13.752-12.561a.6.6,0,0,1,.194.032,2.843,2.843,0,1,0-.218-5.293.6.6,0,0,1-.787-.3,9.6,9.6,0,0,1-3.325.4,20.172,20.172,0,0,1-4.727-.953,28.114,28.114,0,0,1-8.676-3.982,13.063,13.063,0,0,1-3.493,2.932,8.38,8.38,0,0,1-5.121,1.078c-.115-.016-.232-.035-.355-.06-.052.161-.1.323-.149.488a.6.6,0,0,1-.812.391,2.845,2.845,0,1,0-.22,5.319.6.6,0,0,1,.777.456,13.4,13.4,0,0,0,26.322-.013.6.6,0,0,1,.589-.487" transform="translate(-1989.716 -980.764)" fill="#24221e"/>
          <path id="패스_1723" data-name="패스 1723" d="M2061.179,1007a.918.918,0,1,0,.918-.918.918.918,0,0,0-.918.918" transform="translate(-2037.134 -994.496)" fill="#24221e"/>
          <path id="패스_1724" data-name="패스 1724" d="M2033.916,1007a.918.918,0,1,0,.918-.918.918.918,0,0,0-.918.918" transform="translate(-2018.595 -994.496)" fill="#24221e"/>
          <path id="패스_1725" data-name="패스 1725" d="M2047.872,1009.469l-.063-.027.143.06a2.553,2.553,0,0,0-.6-.17l.16.022a1.806,1.806,0,0,0-.474,0l.159-.022a1.838,1.838,0,0,0-.428.119l.143-.06c-.063.027-.124.057-.184.089a.6.6,0,1,1-.606-1.036,2.412,2.412,0,0,1,1.134-.306,3,3,0,0,1,1.217.3.6.6,0,0,1,.275.359.612.612,0,0,1-.061.462.6.6,0,0,1-.358.276l-.16.021a.6.6,0,0,1-.3-.082" transform="translate(-2026.7 -995.896)" fill="#24221e"/>
          <path id="패스_1726" data-name="패스 1726" d="M2045.417,1015.37a8.21,8.21,0,0,1-7.78.1.6.6,0,1,1,.605-1.036,6.879,6.879,0,0,0,3.3.777,6.383,6.383,0,0,0,1.652-.223,6.351,6.351,0,0,0,1.621-.653.6.6,0,1,1,.606,1.036" transform="translate(-2020.926 -1000.057)" fill="#24221e"/>
          <path id="패스_1727" data-name="패스 1727" d="M2070.027,1015.083a2.908,2.908,0,1,0,2.908-2.908,2.908,2.908,0,0,0-2.908,2.908" transform="translate(-2043.151 -998.642)" fill="#ffb18f"/>
          <path id="패스_1728" data-name="패스 1728" d="M2012.633,1015.083a2.908,2.908,0,1,0,2.908-2.908,2.908,2.908,0,0,0-2.908,2.908" transform="translate(-2004.123 -998.642)" fill="#ffb18f"/>
        </g>
      </g>
    </g>
    <g id="profile-2" data-name="profile" transform="translate(30.218 82.218)" fill="none" stroke="#5ab448" stroke-width="1.5">
      <circle cx="25" cy="25" r="25" stroke="none"/>
      <circle cx="25" cy="25" r="24.25" fill="none"/>
    </g>
  </g>
</svg>
