<svg xmlns="http://www.w3.org/2000/svg" xmlns:xlink="http://www.w3.org/1999/xlink" width="65" height="65" viewBox="0 0 65 65">
  <defs>
    <clipPath id="clip-path">
      <rect id="bg_" width="35" height="35" transform="translate(727 149)" fill="#454c53"/>
    </clipPath>
  </defs>
  <g id="그룹_1285" data-name="그룹 1285" transform="translate(-398 -3319.502)">
    <rect id="bg_2" data-name="bg_" width="65" height="65" rx="10" transform="translate(398 3319.502)" fill="#f0eefa"/>
    <g id="마스크_그룹_110" data-name="마스크 그룹 110" transform="translate(-314 3185.502)" clip-path="url(#clip-path)">
      <g id="web-browser_1_" data-name="web-browser (1)" transform="translate(727 150.743)">
        <g id="그룹_1275" data-name="그룹 1275">
          <path id="패스_2575" data-name="패스 2575" d="M30.99,30.056H4.01A3.815,3.815,0,0,1,0,26.481V5.033A3.815,3.815,0,0,1,4.01,1.458H30.99A3.815,3.815,0,0,1,35,5.033V26.481A3.815,3.815,0,0,1,30.99,30.056ZM4.01,3.408A1.735,1.735,0,0,0,2.188,5.033V26.481A1.735,1.735,0,0,0,4.01,28.106H30.99a1.735,1.735,0,0,0,1.823-1.625V5.033A1.735,1.735,0,0,0,30.99,3.408Z" fill="#6f57cf"/>
        </g>
        <g id="그룹_1276" data-name="그룹 1276">
          <path id="패스_2576" data-name="패스 2576" d="M33.906,8.75H1.094a1.094,1.094,0,0,1,0-2.187H33.906a1.094,1.094,0,0,1,0,2.188Z" fill="#6f57cf"/>
        </g>
        <path id="패스_2577" data-name="패스 2577" d="M383.3,147.3c3.27,0,6.044-2.829,7.02-3.957a.73.73,0,0,0,0-.911c-.976-1.127-3.75-3.957-7.02-3.957s-6.044,2.829-7.02,3.957a.73.73,0,0,0,0,.911C377.251,144.467,380.026,147.3,383.3,147.3Zm.007-7.539a3.126,3.126,0,1,1-3.127,3.127A3.126,3.126,0,0,1,383.3,139.757Z" transform="translate(-366.116 -124.488)" fill="#6f57cf"/>
        <path id="패스_2578" data-name="패스 2578" d="M395.829,150.723a1.947,1.947,0,1,0-1.947-1.946A1.948,1.948,0,0,0,395.829,150.723Zm.59-3.126a.59.59,0,1,1-.59.591A.59.59,0,0,1,396.419,147.6Z" transform="translate(-377.882 -130.382)" fill="#6f57cf"/>
      </g>
    </g>
  </g>
</svg>
