<svg xmlns="http://www.w3.org/2000/svg" xmlns:xlink="http://www.w3.org/1999/xlink" width="23" height="23" viewBox="0 0 23 23">
  <defs>
    <clipPath id="clip-path">
      <rect id="사각형_1062" data-name="사각형 1062" width="23" height="23" transform="translate(1397 1060.352)" fill="#fff" stroke="#707070" stroke-width="1"/>
    </clipPath>
  </defs>
  <g id="마스크_그룹_156" data-name="마스크 그룹 156" transform="translate(-1397 -1060.352)" clip-path="url(#clip-path)">
    <g id="그룹_1128" data-name="그룹 1128" transform="translate(1896.799 753.479) rotate(30)">
      <g id="그룹_1121" data-name="그룹 1121" transform="translate(-271.178 507.859)">
        <rect id="사각형_1056" data-name="사각형 1056" width="0.764" height="19.784" transform="translate(6.647 5.279)" fill="#191919"/>
        <g id="그룹_1120" data-name="그룹 1120" transform="translate(0 0)">
          <g id="그룹_1109" data-name="그룹 1109" transform="translate(3.369)">
            <g id="그룹_1103" data-name="그룹 1103" transform="translate(2.769)">
              <rect id="사각형_1057" data-name="사각형 1057" width="0.764" height="5.088" transform="translate(0.509 0.857)" fill="#191919"/>
              <g id="그룹_1102" data-name="그룹 1102">
                <path id="패스_2445" data-name="패스 2445" d="M-242.065,509.868a.509.509,0,0,1-.509.509.509.509,0,0,1-.509-.509.509.509,0,0,1,.509-.509A.509.509,0,0,1-242.065,509.868Z" transform="translate(243.465 -508.977)" fill="#fff3d4"/>
                <path id="패스_2446" data-name="패스 2446" d="M-243.693,509.64a.891.891,0,0,1-.89-.891.891.891,0,0,1,.89-.89.892.892,0,0,1,.891.89A.892.892,0,0,1-243.693,509.64Zm0-1.018a.127.127,0,0,0-.127.127.127.127,0,0,0,.127.127.127.127,0,0,0,.127-.127A.127.127,0,0,0-243.693,508.623Z" transform="translate(244.583 -507.859)" fill="#191919"/>
              </g>
            </g>
            <g id="그룹_1108" data-name="그룹 1108" transform="translate(0 1.023)">
              <g id="그룹_1105" data-name="그룹 1105">
                <rect id="사각형_1058" data-name="사각형 1058" width="0.764" height="5.088" transform="translate(0.521 0.992) rotate(-20.298)" fill="#191919"/>
                <g id="그룹_1104" data-name="그룹 1104">
                  <path id="패스_2447" data-name="패스 2447" d="M-252.973,513.709a.508.508,0,0,1-.3.653.508.508,0,0,1-.654-.3.508.508,0,0,1,.3-.654A.509.509,0,0,1-252.973,513.709Z" transform="translate(254.341 -512.994)" fill="#fff3d4"/>
                  <path id="패스_2448" data-name="패스 2448" d="M-254.57,513.658a.887.887,0,0,1-.37-.081.884.884,0,0,1-.465-.5.884.884,0,0,1,.026-.68.884.884,0,0,1,.5-.464.885.885,0,0,1,.681.026.885.885,0,0,1,.463.5h0a.884.884,0,0,1-.026.681.884.884,0,0,1-.5.462A.884.884,0,0,1-254.57,513.658Zm0-1.018a.126.126,0,0,0-.044.008.126.126,0,0,0-.071.066.123.123,0,0,0,0,.1.128.128,0,0,0,.066.072.123.123,0,0,0,.1,0,.127.127,0,0,0,.073-.066.127.127,0,0,0,0-.1h0a.127.127,0,0,0-.066-.071A.122.122,0,0,0-254.569,512.64Z" transform="translate(255.46 -511.876)" fill="#191919"/>
                </g>
              </g>
              <g id="그룹_1107" data-name="그룹 1107" transform="translate(4.316 0)">
                <rect id="사각형_1059" data-name="사각형 1059" width="5.088" height="0.764" transform="translate(0 5.498) rotate(-69.695)" fill="#191919"/>
                <g id="그룹_1106" data-name="그룹 1106" transform="translate(1.22)">
                  <path id="패스_2449" data-name="패스 2449" d="M-232.178,513.709a.508.508,0,0,0,.3.653.508.508,0,0,0,.654-.3.509.509,0,0,0-.3-.654A.509.509,0,0,0-232.178,513.709Z" transform="translate(232.592 -512.995)" fill="#fff3d4"/>
                  <path id="패스_2450" data-name="패스 2450" d="M-232.818,513.659a.888.888,0,0,1-.312-.057.882.882,0,0,1-.5-.462.885.885,0,0,1-.026-.681h0a.891.891,0,0,1,1.144-.526.892.892,0,0,1,.526,1.144.887.887,0,0,1-.465.5A.884.884,0,0,1-232.818,513.659Zm-.12-.935a.127.127,0,0,0,0,.1.126.126,0,0,0,.071.065.123.123,0,0,0,.1,0,.128.128,0,0,0,.066-.072.127.127,0,0,0-.075-.163.127.127,0,0,0-.163.075Z" transform="translate(233.711 -511.877)" fill="#191919"/>
                </g>
              </g>
            </g>
          </g>
          <g id="그룹_1119" data-name="그룹 1119" transform="translate(0 2.834)">
            <g id="그룹_1115" data-name="그룹 1115" transform="translate(0 2.42)">
              <g id="그룹_1112" data-name="그룹 1112">
                <g id="그룹_1111" data-name="그룹 1111">
                  <g id="그룹_1110" data-name="그룹 1110">
                    <path id="패스_2451" data-name="패스 2451" d="M-261.725,531.494a5.057,5.057,0,0,0-5.191-1.217,5.057,5.057,0,0,0,1.217,5.191,5.059,5.059,0,0,0,5.191,1.217A5.057,5.057,0,0,0-261.725,531.494Z" transform="translate(267.566 -529.628)" fill="#fdc42d"/>
                    <path id="패스_2452" data-name="패스 2452" d="M-263.265,536.2a5.408,5.408,0,0,1-3.834-1.6,5.412,5.412,0,0,1-1.309-5.582l.06-.18.18-.06a5.412,5.412,0,0,1,5.583,1.309h0a5.412,5.412,0,0,1,1.309,5.582l-.061.18-.18.061A5.5,5.5,0,0,1-263.265,536.2Zm-4.476-6.752a4.651,4.651,0,0,0,1.182,4.616,4.653,4.653,0,0,0,4.617,1.182,4.651,4.651,0,0,0-1.182-4.616h0A4.649,4.649,0,0,0-267.742,529.452Z" transform="translate(268.696 -528.498)" fill="#191919"/>
                  </g>
                </g>
              </g>
              <g id="그룹_1114" data-name="그룹 1114" transform="translate(6.351 0)">
                <g id="그룹_1113" data-name="그룹 1113">
                  <path id="패스_2453" data-name="패스 2453" d="M-240.753,531.494a5.057,5.057,0,0,1,5.191-1.217,5.056,5.056,0,0,1-1.217,5.191,5.058,5.058,0,0,1-5.191,1.217A5.057,5.057,0,0,1-240.753,531.494Z" transform="translate(242.619 -529.628)" fill="#fdc42d"/>
                  <path id="패스_2454" data-name="패스 2454" d="M-241.473,536.2a5.5,5.5,0,0,1-1.748-.287l-.18-.061-.06-.18a5.412,5.412,0,0,1,1.309-5.582h0a5.412,5.412,0,0,1,5.582-1.309l.18.06.061.18a5.412,5.412,0,0,1-1.309,5.582A5.41,5.41,0,0,1-241.473,536.2Zm-1.322-.954a4.652,4.652,0,0,0,4.617-1.182A4.65,4.65,0,0,0-237,529.452a4.648,4.648,0,0,0-4.616,1.182h0A4.651,4.651,0,0,0-242.8,535.251Z" transform="translate(243.749 -528.498)" fill="#191919"/>
                </g>
              </g>
            </g>
            <g id="그룹_1118" data-name="그룹 1118" transform="translate(3.837)">
              <g id="그룹_1117" data-name="그룹 1117">
                <g id="그룹_1116" data-name="그룹 1116">
                  <path id="패스_2455" data-name="패스 2455" d="M-246.5,525.2a5.057,5.057,0,0,0-2.81-4.531,5.057,5.057,0,0,0-2.81,4.531,5.055,5.055,0,0,0,2.81,4.53A5.056,5.056,0,0,0-246.5,525.2Z" transform="translate(252.506 -520.239)" fill="#fdc42d"/>
                  <path id="패스_2456" data-name="패스 2456" d="M-250.432,528.9l-.17-.084a5.41,5.41,0,0,1-3.022-4.872,5.412,5.412,0,0,1,3.022-4.873l.17-.085.17.085a5.413,5.413,0,0,1,3.022,4.873,5.41,5.41,0,0,1-3.022,4.872Zm0-9.057a4.65,4.65,0,0,0-2.428,4.1,4.649,4.649,0,0,0,2.428,4.1,4.649,4.649,0,0,0,2.428-4.1A4.65,4.65,0,0,0-250.432,519.847Z" transform="translate(253.624 -518.99)" fill="#191919"/>
                </g>
              </g>
            </g>
          </g>
        </g>
      </g>
      <g id="그룹_1124" data-name="그룹 1124" transform="translate(-264.357 520.886)">
        <rect id="사각형_1060" data-name="사각형 1060" width="6.385" height="0.764" transform="translate(0 7.544) rotate(-45)" fill="#191919"/>
        <g id="그룹_1123" data-name="그룹 1123" transform="translate(2.336 0)">
          <g id="그룹_1122" data-name="그룹 1122">
            <path id="패스_2457" data-name="패스 2457" d="M-230.215,561.541a3.42,3.42,0,0,0-.743,3.721,3.419,3.419,0,0,0,3.722-.743,3.42,3.42,0,0,0,.743-3.722A3.419,3.419,0,0,0-230.215,561.541Z" transform="translate(231.6 -560.156)" fill="#98aa5e"/>
            <path id="패스_2458" data-name="패스 2458" d="M-230.775,564.779a3.81,3.81,0,0,1-1.453-.289l-.147-.061-.061-.147a3.792,3.792,0,0,1,.826-4.137h0a3.791,3.791,0,0,1,4.137-.826l.147.06.061.147a3.792,3.792,0,0,1-.826,4.137A3.79,3.79,0,0,1-230.775,564.779Zm-1.012-.937a3.029,3.029,0,0,0,3.156-.718,3.03,3.03,0,0,0,.717-3.156,3.03,3.03,0,0,0-3.156.717A3.03,3.03,0,0,0-231.787,563.842Z" transform="translate(232.724 -559.031)" fill="#191919"/>
          </g>
        </g>
      </g>
      <g id="그룹_1127" data-name="그룹 1127" transform="translate(-272.025 523.103)">
        <rect id="사각형_1061" data-name="사각형 1061" width="0.764" height="6.385" transform="matrix(0.707, -0.707, 0.707, 0.707, 3.029, 3.569)" fill="#191919"/>
        <g id="그룹_1126" data-name="그룹 1126">
          <g id="그룹_1125" data-name="그룹 1125">
            <path id="패스_2459" data-name="패스 2459" d="M-266.537,570.249a3.419,3.419,0,0,1,.743,3.721,3.419,3.419,0,0,1-3.721-.743,3.42,3.42,0,0,1-.743-3.722A3.419,3.419,0,0,1-266.537,570.249Z" transform="translate(270.901 -568.864)" fill="#98aa5e"/>
            <path id="패스_2460" data-name="패스 2460" d="M-268.226,573.487a3.79,3.79,0,0,1-2.684-1.115,3.792,3.792,0,0,1-.826-4.137l.061-.147.147-.06a3.791,3.791,0,0,1,4.137.827h0a3.791,3.791,0,0,1,.826,4.137l-.061.147-.147.061A3.815,3.815,0,0,1-268.226,573.487Zm-2.862-4.811a3.03,3.03,0,0,0,.718,3.156,3.03,3.03,0,0,0,3.156.718,3.03,3.03,0,0,0-.718-3.156h0A3.03,3.03,0,0,0-271.088,568.676Z" transform="translate(272.025 -567.739)" fill="#191919"/>
          </g>
        </g>
      </g>
    </g>
  </g>
</svg>
