<svg xmlns="http://www.w3.org/2000/svg" xmlns:xlink="http://www.w3.org/1999/xlink" width="25" height="25" viewBox="0 0 25 25">
  <defs>
    <clipPath id="clip-path">
      <rect id="사각형_719" data-name="사각형 719" width="25" height="25" transform="translate(975 2905)" fill="#1b1d1f" stroke="#707070" stroke-width="0.5"/>
    </clipPath>
  </defs>
  <g id="ico_arlam" transform="translate(-975 -2905)" clip-path="url(#clip-path)">
    <g id="bell_2_" data-name="bell (2)" transform="translate(976.794 2905.821)">
      <path id="패스_1403" data-name="패스 1403" d="M36.13,11.47a.73.73,0,0,1-.73-.73,10.4,10.4,0,0,0-3.064-7.4A.73.73,0,0,1,33.37,2.309,11.849,11.849,0,0,1,36.86,10.74a.73.73,0,0,1-.73.73Zm0,0" transform="translate(-15.449 -1.008)" fill="#1b1d1f" stroke="#1b1d1f" stroke-width="0.5"/>
      <path id="패스_1404" data-name="패스 1404" d="M.73,11.471a.73.73,0,0,1-.73-.73,11.842,11.842,0,0,1,3.492-8.43A.73.73,0,0,1,4.525,3.343a10.389,10.389,0,0,0-3.065,7.4.73.73,0,0,1-.73.73Zm0,0" transform="translate(0 -1.008)" fill="#1b1d1f" stroke="#1b1d1f" stroke-width="0.5"/>
      <path id="패스_1405" data-name="패스 1405" d="M17.244,40.942a3.653,3.653,0,0,1-3.65-3.65.73.73,0,0,1,1.46,0,2.19,2.19,0,1,0,4.38,0,.73.73,0,0,1,1.46,0A3.653,3.653,0,0,1,17.244,40.942Zm0,0" transform="translate(-6.538 -17.584)" fill="#1b1d1f" stroke="#1b1d1f" stroke-width="0.5"/>
      <path id="패스_1406" data-name="패스 1406" d="M19.637,23.143H3.578a1.7,1.7,0,0,1-1.108-3,6.523,6.523,0,0,0,2.324-4.995V12.438a6.813,6.813,0,0,1,13.625,0v2.714a6.521,6.521,0,0,0,2.314,4.988,1.7,1.7,0,0,1-1.1,3ZM11.607,7.085a5.359,5.359,0,0,0-5.353,5.353v2.714a7.976,7.976,0,0,1-2.832,6.1.243.243,0,0,0-.088.187.246.246,0,0,0,.243.243H19.637a.246.246,0,0,0,.243-.243.24.24,0,0,0-.086-.185,7.979,7.979,0,0,1-2.834-6.1V12.438a5.358,5.358,0,0,0-5.353-5.353Zm0,0" transform="translate(-0.902 -2.705)" fill="#1b1d1f" stroke="#1b1d1f" stroke-width="0.5"/>
      <path id="패스_1407" data-name="패스 1407" d="M19.949,4.38a.73.73,0,0,1-.73-.73V.73a.73.73,0,1,1,1.46,0V3.65A.73.73,0,0,1,19.949,4.38Zm0,0" transform="translate(-9.243 0)" fill="#1b1d1f" stroke="#1b1d1f" stroke-width="0.5"/>
    </g>
  </g>
</svg>
