<svg xmlns="http://www.w3.org/2000/svg" xmlns:xlink="http://www.w3.org/1999/xlink" width="21" height="30" viewBox="0 0 21 30">
  <defs>
    <clipPath id="clip-path">
      <rect id="사각형_1188" data-name="사각형 1188" width="21" height="30" fill="#fff" stroke="#707070" stroke-width="1"/>
    </clipPath>
  </defs>
  <g id="마스크_그룹_165" data-name="마스크 그룹 165" clip-path="url(#clip-path)">
    <g id="그룹_986" data-name="그룹 986" transform="translate(-1.58 -1.386)">
      <g id="그룹_981" data-name="그룹 981" transform="translate(5.241 8.738)">
        <path id="패스_1823" data-name="패스 1823" d="M3806.528,1238.373l-.063,22.485-6.682-5.76-6.714,5.722.063-22.485Z" transform="translate(-3793.07 -1238.336)" fill="#08a1e5"/>
        <g id="그룹_980" data-name="그룹 980" transform="translate(0.948 0.003)">
          <path id="패스_1824" data-name="패스 1824" d="M3984.4,1260.2l.394.34.062-21.675h-.4Z" transform="translate(-3973.286 -1238.838)" fill="#ccd3e5"/>
          <path id="패스_1825" data-name="패스 1825" d="M3808.118,1260.05l.4-.339.059-21.333h-.4Z" transform="translate(-3808.118 -1238.377)" fill="#ccd3e5"/>
        </g>
      </g>
      <path id="패스_1826" data-name="패스 1826" d="M3793.738,1281.526v10.46a11.381,11.381,0,0,0,13.374-.027v-10.433Z" transform="translate(-3788.455 -1270.066)" fill="#0578c5" opacity="0.46" style="mix-blend-mode: multiply;isolation: isolate"/>
      <g id="그룹_984" data-name="그룹 984">
        <g id="그룹_982" data-name="그룹 982">
          <circle id="타원_406" data-name="타원 406" cx="10.478" cy="10.478" r="10.478" transform="translate(0 20.706) rotate(-81.12)" fill="#ccd3e5"/>
        </g>
        <path id="패스_1827" data-name="패스 1827" d="M3778.911,1129.031a10.454,10.454,0,0,1-10.985,16.482,10.471,10.471,0,1,0,10.985-16.482Z" transform="translate(-3764.27 -1127.182)" fill="#dce5f7"/>
        <g id="그룹_983" data-name="그룹 983" transform="translate(3.507 3.507)">
          <path id="패스_1828" data-name="패스 1828" d="M3774.017,1172.269a8.463,8.463,0,1,1,8.463-8.463A8.473,8.473,0,0,1,3774.017,1172.269Zm0-16.389a7.926,7.926,0,1,0,7.926,7.926A7.935,7.935,0,0,0,3774.017,1155.879Z" transform="translate(-3765.554 -1155.342)" fill="#aab5ce"/>
        </g>
      </g>
      <g id="그룹_985" data-name="그룹 985" transform="translate(7.929 6.338)">
        <path id="패스_1829" data-name="패스 1829" d="M3835.83,1202.12a5.052,5.052,0,0,1,3.892-1.856,3.287,3.287,0,0,1,3.563,3.278c0,1.721-.808,2.32-2.4,3.353a8.691,8.691,0,0,0-2.246,2.006h2.635v-1.2h2.515v3.188h-8.083v-2.17a7.812,7.812,0,0,1,2.186-2.545c1.063-.943,2.649-1.572,2.649-2.5,0-.763-.569-.988-1.257-.988a2.729,2.729,0,0,0-1.841,1.138Z" transform="translate(-3835.71 -1200.264)" fill="#95a4c4"/>
      </g>
    </g>
  </g>
</svg>
