<svg xmlns="http://www.w3.org/2000/svg" width="6.082" height="11.258" viewBox="0 0 6.082 11.258">
  <g id="그룹_911" data-name="그룹 911" transform="translate(-1558.459 -673.371)">
    <path id="다각형_2" data-name="다각형 2" d="M3.09.585a.5.5,0,0,1,.819,0l2.54,3.628A.5.5,0,0,1,6.04,5H.96a.5.5,0,0,1-.41-.787Z" transform="translate(1558 673)" fill="#15bf91"/>
    <path id="다각형_3" data-name="다각형 3" d="M3.09.585a.5.5,0,0,1,.819,0l2.54,3.628A.5.5,0,0,1,6.04,5H.96a.5.5,0,0,1-.41-.787Z" transform="translate(1565 685) rotate(180)" fill="#15bf91"/>
  </g>
</svg>
