<svg xmlns="http://www.w3.org/2000/svg" xmlns:xlink="http://www.w3.org/1999/xlink" width="35" height="35" viewBox="0 0 35 35">
  <defs>
    <clipPath id="clip-path">
      <rect id="Rectangle_584" data-name="Rectangle 584" width="35" height="35" transform="translate(1147 996) rotate(180)" fill="#15bf91"/>
    </clipPath>
  </defs>
  <g id="icon_사진" transform="translate(-1112 -961)" clip-path="url(#clip-path)">
    <g id="image" transform="translate(1111.999 962.458)">
      <path id="Path_880" data-name="Path 880" d="M25.816,25.462a3.306,3.306,0,0,1-.836-.109L2.429,19.314A3.311,3.311,0,0,1,.107,15.289l2.48-9.5A1.094,1.094,0,0,1,4.7,6.343L2.22,15.851A1.113,1.113,0,0,0,3,17.2l22.54,6.038a1.087,1.087,0,0,0,1.328-.766l.77-3.106a1.094,1.094,0,0,1,2.123.525l-.774,3.12a3.285,3.285,0,0,1-3.173,2.45Zm0,0" transform="translate(0 6.623)" fill="#15bf91"/>
      <path id="Path_881" data-name="Path 881" d="M28.386,23.348H5.781A3.285,3.285,0,0,1,2.5,20.067V3.3A3.285,3.285,0,0,1,5.781.014h22.6A3.285,3.285,0,0,1,31.667,3.3V20.067a3.285,3.285,0,0,1-3.281,3.281ZM5.781,2.2A1.094,1.094,0,0,0,4.688,3.3V20.067a1.094,1.094,0,0,0,1.094,1.094h22.6a1.094,1.094,0,0,0,1.094-1.094V3.3a1.094,1.094,0,0,0-1.09-1.1Zm0,0" transform="translate(3.333 -0.014)" fill="#15bf91"/>
      <path id="Path_882" data-name="Path 882" d="M7.291,7.724a2.917,2.917,0,1,1,2.917-2.917A2.917,2.917,0,0,1,7.291,7.724Zm0-3.645a.727.727,0,1,0,.517.213A.727.727,0,0,0,7.291,4.079Zm0,0" transform="translate(5.833 2.486)" fill="#15bf91"/>
      <path id="Path_883" data-name="Path 883" d="M3.6,17.447a1.094,1.094,0,0,1-.765-1.869L9.422,8.986a2.56,2.56,0,0,1,3.617,0L14.8,10.75l5.425-6.5a2.551,2.551,0,0,1,1.948-.921,2.345,2.345,0,0,1,1.955.9l7.259,8.47a1.094,1.094,0,1,1-1.661,1.424L22.464,5.647a.438.438,0,0,0-.28-.129.366.366,0,0,0-.28.133l-6.19,7.431a1.092,1.092,0,0,1-.791.392,1.073,1.073,0,0,1-.823-.319l-2.609-2.62a.317.317,0,0,0-.525,0l-6.591,6.59a1.087,1.087,0,0,1-.773.32Zm0,0" transform="translate(3.352 4.4)" fill="#15bf91"/>
    </g>
  </g>
</svg>
