<svg xmlns="http://www.w3.org/2000/svg" xmlns:xlink="http://www.w3.org/1999/xlink" width="35" height="35" viewBox="0 0 35 35">
  <defs>
    <clipPath id="clip-path">
      <rect id="사각형_229" data-name="사각형 229" width="35" height="35" fill="#15bf91"/>
    </clipPath>
  </defs>
  <g id="마스크_그룹_78" data-name="마스크 그룹 78" clip-path="url(#clip-path)">
    <g id="Layer_2" data-name="Layer 2" transform="translate(0 6.868)">
      <g id="Layer_15" data-name="Layer 15">
        <path id="패스_201" data-name="패스 201" d="M27.3,21.264H1.029A1.029,1.029,0,0,1,0,20.235V1.029A1.029,1.029,0,0,1,1.029,0H27.3a1.029,1.029,0,0,1,1.029,1.029V20.235A1.029,1.029,0,0,1,27.3,21.264ZM2.058,19.206H26.271V2.058H2.058Z" fill="#15bf91"/>
        <path id="패스_202" data-name="패스 202" d="M26.465,18.619a1.029,1.029,0,0,1-.375-.069l-6.671-2.607a1.029,1.029,0,0,1-.654-.96V5.106a1.029,1.029,0,0,1,.654-.96L26.09,1.539a1.029,1.029,0,0,1,1.4.96V17.59a1.029,1.029,0,0,1-1.025,1.029Zm-5.642-4.338,4.614,1.8V4.008l-4.614,1.8Z" transform="translate(7.506 0.587)" fill="#15bf91"/>
        <path id="패스_203" data-name="패스 203" d="M8.259,13.493A1.029,1.029,0,0,1,7.23,12.464V5.346a1.029,1.029,0,0,1,1.543-.892l6.164,3.559a1.029,1.029,0,0,1,0,1.783L8.773,13.355a1.029,1.029,0,0,1-.514.137ZM9.288,7.129v3.553l3.077-1.777Z" transform="translate(2.892 1.727)" fill="#15bf91"/>
      </g>
    </g>
  </g>
</svg>
