<svg xmlns="http://www.w3.org/2000/svg" width="47.586" height="53.041" viewBox="0 0 47.586 53.041">
  <g id="그룹_1021" data-name="그룹 1021" transform="translate(-394.166 590.982) rotate(-30)">
    <path id="패스_2292" data-name="패스 2292" d="M644.191-257.719A14.708,14.708,0,0,1,629.5-272.411v-14.9A14.708,14.708,0,0,1,644.191-302a14.708,14.708,0,0,1,14.691,14.691v14.9A14.708,14.708,0,0,1,644.191-257.719Zm0-41.522a11.946,11.946,0,0,0-11.932,11.932v14.9a11.946,11.946,0,0,0,11.932,11.932,11.946,11.946,0,0,0,11.932-11.932v-14.9A11.946,11.946,0,0,0,644.191-299.241Z" fill="#15bf91"/>
    <rect id="사각형_1064" data-name="사각형 1064" width="3.271" height="11.262" rx="1.635" transform="translate(642.556 -292.671)" fill="#15bf91"/>
  </g>
</svg>
