<svg width="123" height="123" viewBox="0 0 123 123" fill="none" xmlns="http://www.w3.org/2000/svg">
<path d="M63.8981 70.0823H36.4717V64.168H63.8981C63.2603 66.1394 63.2603 68.1109 63.8981 70.0823Z" fill="url(#paint0_linear_431_5383)"/>
<path d="M64.9998 63.181C64.9998 63.7029 64.6519 64.1668 64.188 64.1668H36.4717V62.1953H64.188C64.6519 62.1953 64.9998 62.6592 64.9998 63.181ZM36.4717 70.0811V72.0526H64.188C64.6519 72.0526 64.9998 71.5887 64.9998 71.0669C64.9998 70.545 64.6519 70.0811 64.188 70.0811H36.4717Z" fill="url(#paint1_linear_431_5383)"/>
<path d="M38.8496 70.0778H3.71132C2.66761 70.0778 1.79785 68.8022 1.79785 67.1786V67.0047C1.79785 65.4391 2.66761 64.1055 3.71132 64.1055H38.8496C38.1538 65.845 38.0378 67.7585 38.8496 70.0778Z" fill="white"/>
<path d="M3.76896 70.0811C2.66726 70.0811 1.7975 68.7475 1.7975 67.1239C1.7975 65.5004 2.66726 64.1668 3.76896 64.1668H39.3711C39.719 64.1668 40.0089 63.7029 40.0089 63.181C40.0089 62.6592 39.719 62.1953 39.3711 62.1953H3.2471C1.4496 62.1953 0 64.3987 0 67.1239C0 69.8492 1.4496 72.0526 3.2471 72.0526H39.3711C39.719 72.0526 40.0089 71.5887 40.0089 71.0669C40.0089 70.545 39.719 70.0811 39.3711 70.0811H3.76896Z" fill="url(#paint2_linear_431_5383)"/>
<path d="M32.2969 65.6172H34.6162V68.9223L33.4566 67.8206L32.2969 68.9223V65.6172Z" fill="url(#paint3_linear_431_5383)"/>
<path d="M7.24805 67.8203H9.5674V71.1254L8.40773 70.0237L7.24805 71.1254V67.8203Z" fill="url(#paint4_linear_431_5383)"/>
<path d="M63.8981 60.344H36.4717V54.4297H63.8981C63.2603 56.4011 63.2603 58.3726 63.8981 60.344Z" fill="url(#paint5_linear_431_5383)"/>
<path d="M64.9998 53.4428C64.9998 53.9646 64.6519 54.4285 64.188 54.4285H36.4717V52.457H64.188C64.6519 52.457 64.9998 52.9209 64.9998 53.4428ZM36.4717 60.3428V62.3143H64.188C64.6519 62.3143 64.9998 61.8504 64.9998 61.3286C64.9998 60.8067 64.6519 60.3428 64.188 60.3428H36.4717Z" fill="url(#paint6_linear_431_5383)"/>
<path d="M38.8496 60.3395H3.71132C2.66761 60.3395 1.79785 59.0639 1.79785 57.4403V57.2664C1.79785 55.7008 2.66761 54.3672 3.71132 54.3672H38.8496C38.1538 56.1067 38.0378 58.0202 38.8496 60.3395Z" fill="white"/>
<path d="M3.76896 60.3428C2.66726 60.3428 1.7975 59.0092 1.7975 57.3857C1.7975 55.7621 2.66726 54.4285 3.76896 54.4285H39.3711C39.719 54.4285 40.0089 53.9646 40.0089 53.4428C40.0089 52.9209 39.719 52.457 39.3711 52.457H3.2471C1.4496 52.457 0 54.6604 0 57.3857C0 60.1109 1.4496 62.3143 3.2471 62.3143H39.3711C39.719 62.3143 40.0089 61.8504 40.0089 61.3286C40.0089 60.8067 39.719 60.3428 39.3711 60.3428H3.76896Z" fill="url(#paint7_linear_431_5383)"/>
<path d="M28.6436 57.5625H30.9629V60.8096L29.8032 59.7079L28.6436 60.8096V57.5625Z" fill="url(#paint8_linear_431_5383)"/>
<path d="M14.3804 55.7617H16.6997V59.0088L15.54 57.9651L14.3804 59.0088V55.7617Z" fill="url(#paint9_linear_431_5383)"/>
<path d="M63.8981 50.4847H36.4717V44.5703H63.8981C63.2603 46.5418 63.2603 48.5132 63.8981 50.4847Z" fill="url(#paint10_linear_431_5383)"/>
<path d="M64.9998 43.5834C64.9998 44.1052 64.6519 44.5691 64.188 44.5691H36.4717V42.5977H64.188C64.6519 42.5977 64.9998 43.0615 64.9998 43.5834ZM36.4717 50.4835V52.4549H64.188C64.6519 52.4549 64.9998 51.9911 64.9998 51.4692C64.9998 50.9473 64.6519 50.4835 64.188 50.4835H36.4717Z" fill="url(#paint11_linear_431_5383)"/>
<path d="M38.8496 50.4847H3.71132C2.66761 50.4847 1.79785 49.209 1.79785 47.5855V47.4695C1.79785 45.9039 2.66761 44.5703 3.71132 44.5703H38.8496C38.1538 46.2518 38.0378 48.1653 38.8496 50.4847Z" fill="white"/>
<path d="M3.76896 50.4835C2.66726 50.4835 1.7975 49.1498 1.7975 47.5263C1.7975 45.9027 2.66726 44.5691 3.76896 44.5691H39.3711C39.719 44.5691 40.0089 44.1052 40.0089 43.5834C40.0089 43.0615 39.719 42.5977 39.3711 42.5977H3.2471C1.4496 42.5977 0 44.801 0 47.5263C0 50.2515 1.4496 52.4549 3.2471 52.4549H39.3711C39.719 52.4549 40.0089 51.9911 40.0089 51.4692C40.0089 50.9473 39.719 50.4835 39.3711 50.4835H3.76896Z" fill="url(#paint12_linear_431_5383)"/>
<path d="M9.56738 46.0195H11.8867V49.3246L10.7271 48.2229L9.56738 49.3246V46.0195Z" fill="url(#paint13_linear_431_5383)"/>
<path d="M112.926 68.0709C107.214 69.583 76.3 72.1032 69.9156 66.2228C63.5312 60.3424 67.8154 58.0743 77.6441 58.0743C87.3887 58.0743 111.414 51.1858 112.926 68.0709Z" fill="url(#paint14_linear_431_5383)"/>
<path d="M83.8607 31.4446L83.6927 18.8438C68.4037 24.0521 71.7639 38.837 70.8398 47.9096C69.4958 60.0904 63.0273 68.4909 63.0273 68.4909H76.0482C76.0482 68.4909 82.7686 55.0501 83.6087 49.9257C84.4487 44.8854 83.8607 31.4446 83.8607 31.4446Z" fill="url(#paint15_linear_431_5383)"/>
<path d="M93.6057 68.5771C89.2374 72.3573 79.0728 72.1893 79.0728 72.1893L82.433 110.832L63.0278 111.336C63.0278 111.336 59.4995 73.8694 61.0956 64.9648C62.6917 56.0603 73.2764 56.9843 73.2764 56.9843L81.0049 57.4044L90.8336 57.1523L93.6057 68.5771Z" fill="url(#paint16_linear_431_5383)"/>
<path d="M108.138 56.6461C108.138 56.6461 109.399 62.7785 108.474 67.8188C107.55 72.8592 100.242 71.8511 100.242 71.8511L104.442 110.662H85.373C85.373 110.662 82.8528 91.9284 82.0128 81.6797C81.0887 71.4311 79.8286 63.1145 82.6848 59.5863C85.541 56.0581 94.8656 56.6461 94.8656 56.6461H108.138Z" fill="url(#paint17_linear_431_5383)"/>
<path d="M81.0889 72.1871C80.6689 66.3908 80.6689 61.9385 82.601 59.5863C85.4572 56.0581 94.7818 56.6461 94.7818 56.6461H108.055" stroke="black" stroke-width="0.5" stroke-miterlimit="10" stroke-linecap="round" stroke-linejoin="round"/>
<path d="M122.923 46.482C121.411 33.8811 114.103 22.3724 100.83 18.8442C93.3534 17.8361 86.633 17.2481 83.6088 18.8442C75.7123 22.8764 77.9804 29.1768 77.9804 29.1768C77.7284 40.2656 77.1404 49.5062 74.2842 56.8146C76.3003 57.4867 78.7365 57.3187 83.1047 57.2346C93.2694 57.0666 97.8897 57.0666 103.518 57.9907C108.642 58.9148 107.298 69.0794 112.927 68.0713C113.767 66.2232 113.683 61.6869 113.179 56.1426C118.723 55.4705 123.679 53.0344 122.923 46.482Z" fill="url(#paint18_linear_431_5383)"/>
<path d="M98.5619 44.1289C83.0209 44.1289 82.2648 48.0772 82.4328 51.1854C82.6008 53.9575 82.8528 55.3856 83.6929 55.3856C84.533 55.3856 85.037 52.5294 85.037 52.5294C85.037 52.5294 85.037 55.7217 86.2971 55.5536C87.5571 55.3856 87.5571 52.7815 87.5571 52.7815C87.5571 52.7815 87.3891 55.3016 88.9012 55.3016C90.4133 55.3016 90.3293 52.5294 90.3293 52.5294C90.3293 52.5294 90.3293 55.5536 91.6734 55.5536C93.6055 55.5536 92.9335 53.2015 92.9335 52.5294C92.9335 51.8574 98.1418 54.2096 98.5619 51.2694C98.8139 49.5893 98.5619 44.1289 98.5619 44.1289Z" fill="url(#paint19_linear_431_5383)"/>
<path d="M65.7993 111.246V115.194H79.6602L79.4082 110.91L65.7993 111.246Z" fill="url(#paint20_linear_431_5383)"/>
<path d="M60.6753 120.322C61.9353 118.894 63.9515 120.07 64.9595 118.39C65.9676 116.71 65.7996 115.198 65.7996 115.198L79.6605 114.105L80.3325 120.49L60.5913 122.506C60.5913 122.506 59.8352 121.33 60.6753 120.322Z" fill="url(#paint21_linear_431_5383)"/>
<path d="M88.397 110.66V115.028H102.258L102.006 110.66H88.397Z" fill="url(#paint22_linear_431_5383)"/>
<path d="M83.3567 120.072C84.6168 118.644 86.633 119.82 87.641 118.14C88.6491 116.46 88.4811 114.948 88.4811 114.948L102.342 113.855L103.014 120.24L83.1887 122.256C83.1887 122.256 82.4327 121.08 83.3567 120.072Z" fill="url(#paint23_linear_431_5383)"/>
<path d="M96.0417 17.4154L95.7897 12.0391L86.8851 14.3912L86.5491 18.0875L83.6929 18.9275C83.6929 18.9275 84.1129 23.4638 90.4973 23.4638C97.4698 23.5478 100.914 18.9275 100.914 18.9275L96.0417 17.4154Z" fill="url(#paint24_linear_431_5383)"/>
<path opacity="0.5" d="M93.5213 17.3334C94.1093 17.0814 95.2014 16.5773 96.0414 16.0733L95.8734 11.957L86.9688 14.3092L86.6328 17.9214C86.6328 17.9214 86.6328 17.9214 86.7168 17.9214C88.901 18.0054 91.2531 18.1734 93.5213 17.3334Z" fill="url(#paint25_linear_431_5383)"/>
<path d="M85.5406 5.5696C85.3726 6.24164 85.3726 6.91368 85.3726 7.58573C85.4566 9.43384 85.2886 11.366 85.7926 13.1301C86.4646 15.5662 88.7328 17.3304 91.4209 16.6583C93.6051 16.1543 95.7892 13.2141 95.8732 11.198C95.9572 9.43385 96.2933 7.50172 95.7052 5.82161C95.4532 5.23357 95.1172 4.64554 94.5292 4.30951C93.2691 3.72148 91.925 3.63747 90.5809 3.55347C89.3208 3.55347 87.8927 3.38546 86.8007 3.97349C86.0446 4.30951 85.7086 4.89755 85.5406 5.5696Z" fill="url(#paint26_linear_431_5383)"/>
<path d="M95.8736 13.3827L93.6895 9.0144L92.5134 5.65419C92.5134 5.65419 85.877 8.00634 83.0208 6.32623C81.9287 5.65419 81.0887 4.22609 81.7607 2.29397C82.5168 0.361845 84.4489 0.44585 85.289 0.44585C86.8011 0.44585 87.2211 1.03389 87.8931 1.2019C89.3212 1.53792 92.2614 0.44585 93.7735 1.2019C95.2856 1.95795 95.2016 3.89007 95.2016 3.89007C95.2016 3.89007 97.8898 4.89814 97.8898 7.75432C97.9738 11.6186 95.8736 13.3827 95.8736 13.3827Z" fill="url(#paint27_linear_431_5383)"/>
<path d="M93.6895 9.0993C93.6895 9.0993 94.9495 7.92322 95.4536 8.67927C96.6296 10.1914 94.9495 12.6275 93.6895 11.7035" fill="url(#paint28_linear_431_5383)"/>
<path d="M101.838 58.0748H87.3895C86.8014 58.0748 86.2134 57.5708 86.2134 56.8987C86.2134 56.3107 86.7174 55.7227 87.3895 55.7227H101.838C102.426 55.7227 103.014 56.2267 103.014 56.8987C103.014 57.5708 102.426 58.0748 101.838 58.0748Z" fill="url(#paint29_linear_431_5383)"/>
<path d="M87.9772 58.0756H57.3992C57.0632 58.0756 56.8112 57.9076 56.6432 57.5715L48.0746 38.2503C47.8226 37.7463 48.2426 37.0742 48.8307 37.0742H79.4086C79.7447 37.0742 79.9967 37.2422 80.1647 37.5783L88.7332 56.8995C88.9012 57.4875 88.5652 58.0756 87.9772 58.0756Z" fill="url(#paint30_linear_431_5383)"/>
<path d="M88.7329 57.9911C88.3968 58.1591 88.0608 57.9911 87.8928 57.655L79.1562 37.9138C78.9882 37.5778 79.1562 37.2417 79.4923 37.0737C79.8283 36.9057 80.1643 37.0737 80.3323 37.4097L89.1529 57.151C89.2369 57.487 89.0689 57.8231 88.7329 57.9911Z" fill="url(#paint31_linear_431_5383)"/>
<path d="M70.9241 48.165C71.9322 50.2651 71.0922 51.8612 69.076 51.8612C67.0599 51.8612 64.5397 50.1811 63.4477 48.165C62.4396 46.0649 63.2796 44.4688 65.2958 44.4688C67.3119 44.4688 69.9161 46.0649 70.9241 48.165Z" fill="url(#paint32_linear_431_5383)"/>
<path d="M98.562 44.1289H113.179" stroke="black" stroke-width="0.5" stroke-miterlimit="10" stroke-linecap="round" stroke-linejoin="round"/>
<path d="M104.358 28.5898C106.29 33.6302 107.214 38.7545 107.13 43.7948" stroke="black" stroke-width="0.5" stroke-miterlimit="10" stroke-linecap="round" stroke-linejoin="round"/>
<path d="M77.9805 27.6641C77.8125 33.2924 77.8125 32.0323 77.7285 37.1567" stroke="black" stroke-width="0.5" stroke-miterlimit="10" stroke-linecap="round" stroke-linejoin="round"/>
<path d="M105.114 59.2461C105.366 61.2622 105.03 62.4383 103.602 63.7824C101.166 66.1345 96.4614 64.9585 94.3613 67.6466C93.1012 69.2427 93.2692 71.5949 93.6052 73.611C94.4453 79.3234 95.2853 84.9518 96.1254 90.6641C97.0494 96.8805 97.9735 103.097 98.8976 109.397" stroke="black" stroke-width="0.5" stroke-miterlimit="10" stroke-linecap="round" stroke-linejoin="round"/>
<path d="M80.9209 64.0391C79.0728 64.3751 76.5526 64.5431 74.8725 65.4672C72.1003 67.0633 74.9565 78.824 75.4606 84.6204C76.2166 93.777 77.3927 101.253 77.2247 109.654" stroke="black" stroke-width="0.5" stroke-miterlimit="10" stroke-linecap="round" stroke-linejoin="round"/>
<defs>
<linearGradient id="paint0_linear_431_5383" x1="36.4727" y1="67.1326" x2="63.8896" y2="67.1326" gradientUnits="userSpaceOnUse">
<stop offset="0.00546875" stop-color="#D2E7FF"/>
<stop offset="1" stop-color="#F7F7F7"/>
</linearGradient>
<linearGradient id="paint1_linear_431_5383" x1="36.4727" y1="67.1314" x2="64.9775" y2="67.1314" gradientUnits="userSpaceOnUse">
<stop stop-color="#492B97"/>
<stop offset="1" stop-color="#87007A"/>
</linearGradient>
<linearGradient id="paint2_linear_431_5383" x1="0" y1="67.1314" x2="40.0224" y2="67.1314" gradientUnits="userSpaceOnUse">
<stop stop-color="#8724AD"/>
<stop offset="1" stop-color="#495BCA"/>
</linearGradient>
<linearGradient id="paint3_linear_431_5383" x1="33.4693" y1="66.1874" x2="33.4693" y2="72.1809" gradientUnits="userSpaceOnUse">
<stop stop-color="#FFAAC6"/>
<stop offset="1" stop-color="#FF7CD8"/>
</linearGradient>
<linearGradient id="paint4_linear_431_5383" x1="8.42489" y1="66.1871" x2="8.42489" y2="72.1805" gradientUnits="userSpaceOnUse">
<stop stop-color="#FFAAC6"/>
<stop offset="1" stop-color="#FF7CD8"/>
</linearGradient>
<linearGradient id="paint5_linear_431_5383" x1="36.4727" y1="57.4012" x2="63.8896" y2="57.4012" gradientUnits="userSpaceOnUse">
<stop offset="0.00546875" stop-color="#D2E7FF"/>
<stop offset="1" stop-color="#F7F7F7"/>
</linearGradient>
<linearGradient id="paint6_linear_431_5383" x1="36.4727" y1="57.4" x2="64.9775" y2="57.4" gradientUnits="userSpaceOnUse">
<stop stop-color="#8434F8"/>
<stop offset="1" stop-color="#C200DB"/>
</linearGradient>
<linearGradient id="paint7_linear_431_5383" x1="0" y1="57.4" x2="40.0224" y2="57.4" gradientUnits="userSpaceOnUse">
<stop stop-color="#C238DB"/>
<stop offset="1" stop-color="#846FF8"/>
</linearGradient>
<linearGradient id="paint8_linear_431_5383" x1="29.7018" y1="55.8668" x2="29.8717" y2="61.6414" gradientUnits="userSpaceOnUse">
<stop stop-color="#FFD452"/>
<stop offset="1" stop-color="#FFAB20"/>
</linearGradient>
<linearGradient id="paint9_linear_431_5383" x1="15.5494" y1="54.9796" x2="15.5494" y2="59.9051" gradientUnits="userSpaceOnUse">
<stop stop-color="#FFD452"/>
<stop offset="1" stop-color="#FFAB20"/>
</linearGradient>
<linearGradient id="paint10_linear_431_5383" x1="36.4727" y1="47.5323" x2="63.8896" y2="47.5323" gradientUnits="userSpaceOnUse">
<stop offset="0.00546875" stop-color="#D2E7FF"/>
<stop offset="1" stop-color="#F7F7F7"/>
</linearGradient>
<linearGradient id="paint11_linear_431_5383" x1="36.4727" y1="47.5311" x2="64.9775" y2="47.5311" gradientUnits="userSpaceOnUse">
<stop stop-color="#CF58C3"/>
<stop offset="1" stop-color="#CF2AD5"/>
</linearGradient>
<linearGradient id="paint12_linear_431_5383" x1="0" y1="47.5311" x2="40.0224" y2="47.5311" gradientUnits="userSpaceOnUse">
<stop stop-color="#FFAAC6"/>
<stop offset="1" stop-color="#FF7CD8"/>
</linearGradient>
<linearGradient id="paint13_linear_431_5383" x1="10.7373" y1="45.8921" x2="10.7373" y2="51.592" gradientUnits="userSpaceOnUse">
<stop stop-color="#C238DB"/>
<stop offset="1" stop-color="#846FF8"/>
</linearGradient>
<linearGradient id="paint14_linear_431_5383" x1="66.8814" y1="63.3094" x2="112.887" y2="63.3094" gradientUnits="userSpaceOnUse">
<stop offset="0.005274" stop-color="#605ADE"/>
<stop offset="0.9974" stop-color="#7742C6"/>
</linearGradient>
<linearGradient id="paint15_linear_431_5383" x1="73.0533" y1="25.5737" x2="73.4613" y2="48.8266" gradientUnits="userSpaceOnUse">
<stop stop-color="#60DCFA"/>
<stop offset="0.9947" stop-color="#608AFA"/>
</linearGradient>
<linearGradient id="paint16_linear_431_5383" x1="77.1661" y1="111.302" x2="77.1661" y2="56.8768" gradientUnits="userSpaceOnUse">
<stop stop-color="#232CA2"/>
<stop offset="0.9973" stop-color="#3B4EDF"/>
</linearGradient>
<linearGradient id="paint17_linear_431_5383" x1="94.8494" y1="110.689" x2="94.8494" y2="56.5982" gradientUnits="userSpaceOnUse">
<stop stop-color="#232CA2"/>
<stop offset="0.9973" stop-color="#3B4EDF"/>
</linearGradient>
<linearGradient id="paint18_linear_431_5383" x1="83.2302" y1="21.0977" x2="108.506" y2="66.5937" gradientUnits="userSpaceOnUse">
<stop stop-color="#60DCFA"/>
<stop offset="0.9947" stop-color="#608AFA"/>
</linearGradient>
<linearGradient id="paint19_linear_431_5383" x1="82.4169" y1="49.8428" x2="98.6453" y2="49.8428" gradientUnits="userSpaceOnUse">
<stop stop-color="#F1CEBD"/>
<stop offset="1" stop-color="#EBB28F"/>
</linearGradient>
<linearGradient id="paint20_linear_431_5383" x1="65.8183" y1="113.084" x2="79.6808" y2="113.084" gradientUnits="userSpaceOnUse">
<stop stop-color="#F1CEBD"/>
<stop offset="1" stop-color="#EBB28F"/>
</linearGradient>
<linearGradient id="paint21_linear_431_5383" x1="60.2847" y1="118.329" x2="80.3625" y2="118.329" gradientUnits="userSpaceOnUse">
<stop stop-color="#5E4BE6"/>
<stop offset="0.9993" stop-color="#9348C9"/>
</linearGradient>
<linearGradient id="paint22_linear_431_5383" x1="88.4314" y1="112.837" x2="102.294" y2="112.837" gradientUnits="userSpaceOnUse">
<stop stop-color="#F1CEBD"/>
<stop offset="1" stop-color="#EBB28F"/>
</linearGradient>
<linearGradient id="paint23_linear_431_5383" x1="82.8977" y1="118.082" x2="102.976" y2="118.082" gradientUnits="userSpaceOnUse">
<stop stop-color="#5E4BE6"/>
<stop offset="0.9993" stop-color="#9348C9"/>
</linearGradient>
<linearGradient id="paint24_linear_431_5383" x1="92.243" y1="13.3621" x2="92.243" y2="21.5554" gradientUnits="userSpaceOnUse">
<stop stop-color="#F1CEBD"/>
<stop offset="1" stop-color="#EBB28F"/>
</linearGradient>
<linearGradient id="paint25_linear_431_5383" x1="91.2461" y1="13.3659" x2="91.2461" y2="21.57" gradientUnits="userSpaceOnUse">
<stop stop-color="#F1CEBD"/>
<stop offset="1" stop-color="#EBB28F"/>
</linearGradient>
<linearGradient id="paint26_linear_431_5383" x1="90.72" y1="4.64234" x2="90.72" y2="19.4894" gradientUnits="userSpaceOnUse">
<stop stop-color="#F1CEBD"/>
<stop offset="1" stop-color="#EBB28F"/>
</linearGradient>
<linearGradient id="paint27_linear_431_5383" x1="89.7401" y1="-0.756939" x2="89.7401" y2="9.11286" gradientUnits="userSpaceOnUse">
<stop offset="0.001377" stop-color="#3B22B8"/>
<stop offset="1" stop-color="#232C59"/>
</linearGradient>
<linearGradient id="paint28_linear_431_5383" x1="94.8022" y1="7.70531" x2="94.8022" y2="14.7539" gradientUnits="userSpaceOnUse">
<stop stop-color="#F1CEBD"/>
<stop offset="1" stop-color="#EBB28F"/>
</linearGradient>
<linearGradient id="paint29_linear_431_5383" x1="82.9288" y1="56.9178" x2="103.324" y2="56.9178" gradientUnits="userSpaceOnUse">
<stop stop-color="#E9A834"/>
<stop offset="1" stop-color="#F2D25D"/>
</linearGradient>
<linearGradient id="paint30_linear_431_5383" x1="88.0013" y1="61.97" x2="56.4927" y2="38.8955" gradientUnits="userSpaceOnUse">
<stop stop-color="#F2D25D"/>
<stop offset="1" stop-color="#E9A834"/>
</linearGradient>
<linearGradient id="paint31_linear_431_5383" x1="89.6627" y1="59.9828" x2="79.1632" y2="36.5665" gradientUnits="userSpaceOnUse">
<stop stop-color="#F27D5D"/>
<stop offset="1" stop-color="#E9A834"/>
</linearGradient>
<linearGradient id="paint32_linear_431_5383" x1="72.1439" y1="53.374" x2="63.6573" y2="44.3216" gradientUnits="userSpaceOnUse">
<stop stop-color="#F27D5D"/>
<stop offset="1" stop-color="#E9A834"/>
</linearGradient>
</defs>
</svg>
