<svg xmlns="http://www.w3.org/2000/svg" width="168" height="56" viewBox="0 0 168 56">
  <g id="그룹_4505" data-name="그룹 4505" transform="translate(6925 21900)">
    <g id="그룹_4504" data-name="그룹 4504" transform="translate(-6918.104 -22679.93)">
      <g id="그룹_4492" data-name="그룹 4492" transform="translate(-6.896 779.93)">
        <path id="패스_4931" data-name="패스 4931" d="M-6.9,790.552V779.93H-.724v16.107c0,.241-.365.348-.549.163Z" transform="translate(6.896 -779.93)" fill="#e8473f"/>
        <path id="패스_4932" data-name="패스 4932" d="M26.534,808.98V779.93H20.36v34.536c0,.24.366.349.55.164Z" transform="translate(-11.102 -779.93)" fill="#e8473f"/>
        <rect id="사각형_999" data-name="사각형 999" width="6.173" height="34.794" transform="translate(19.548 0)" fill="#e8473f"/>
        <path id="패스_4933" data-name="패스 4933" d="M78.463,780.027c-.186-.186-.551-.077-.551.163v15.831c0,.241.365.348.551.163l5.624-5.649v-4.861Z" transform="translate(-49.105 -779.932)" fill="#e8473f"/>
        <path id="패스_4934" data-name="패스 4934" d="M78.463,834.333c-.186-.186-.551-.077-.551.163v15.832c0,.241.365.349.551.164l5.624-5.649v-4.862Z" transform="translate(-49.105 -815.792)" fill="#e8473f"/>
        <path id="패스_4935" data-name="패스 4935" d="M112.174,785.674v29.051H106V780.188c0-.24.365-.349.549-.164Z" transform="translate(-67.654 -779.931)" fill="#004ea1"/>
        <path id="패스_4936" data-name="패스 4936" d="M136.408,785.674l.061,29.054-6.234,0V780.188c0-.24.365-.349.549-.164Z" transform="translate(-83.655 -779.931)" fill="#004ea1"/>
        <path id="패스_4937" data-name="패스 4937" d="M160.637,785.674v29.051h-6.173V780.188c0-.24.365-.349.55-.164Z" transform="translate(-99.655 -779.931)" fill="#004ea1"/>
      </g>
      <g id="그룹_4493" data-name="그룹 4493" transform="translate(61.615 794.052)">
        <path id="패스_4938" data-name="패스 4938" d="M213.693,840.322v1.963H194.8v-1.963Zm-1.848-4.064a10.921,10.921,0,0,1-7.691-5.728,10.922,10.922,0,0,1-7.691,5.728l-1.016-1.964c4.111-.762,7.46-3.972,7.46-7.275v-1.571h2.517v1.571c0,3.326,3.349,6.536,7.46,7.275Z" transform="translate(-194.801 -824.109)" fill="#004ea1"/>
        <path id="패스_4939" data-name="패스 4939" d="M256.068,823.537h9.77v13.626h-9.77Zm2.356,11.732h5.058v-9.839h-5.058Zm16.328-3.649H271.5v10.763h-2.379V821.505H271.5v8.152h3.256Z" transform="translate(-235.257 -821.505)" fill="#004ea1"/>
        <path id="패스_4940" data-name="패스 4940" d="M332.035,841.134v1.94H313.12v-1.94Zm-2.125-3.418H315.453V826.468h14.3v1.917H317.878v2.679h11.409v1.871H317.878V835.8H329.91Z" transform="translate(-272.93 -824.782)" fill="#004ea1"/>
        <path id="패스_4941" data-name="패스 4941" d="M391.172,840.322v1.963H372.28v-1.963Zm-1.848-4.064a10.922,10.922,0,0,1-7.691-5.728,10.92,10.92,0,0,1-7.691,5.728l-1.016-1.964c4.111-.762,7.46-3.972,7.46-7.275v-1.571H382.9v1.571c0,3.326,3.349,6.536,7.46,7.275Z" transform="translate(-311.995 -824.109)" fill="#004ea1"/>
        <path id="패스_4942" data-name="패스 4942" d="M442.086,833.054v1.824h6.1v5.15H436.012v1.755H448.9v1.847h-15.22V838.3h12.148v-1.571H433.633v-1.847h6.074v-1.824h-8.2V831.16h13.7a17.031,17.031,0,0,0,.346-2.194l-11.963.508-.277-1.824,12.356-.347c.023-.554.023-1.085.023-1.616H433.864v-1.871h14.158V825.5a27.464,27.464,0,0,1-.439,5.658h2.725v1.894Z" transform="translate(-351.105 -823.031)" fill="#004ea1"/>
      </g>
    </g>
    <g id="beta_version" data-name="beta version" transform="translate(-7169 -25488)">
      <rect id="사각형_1199" data-name="사각형 1199" width="12" height="14" transform="translate(361 3628)" fill="#004ea1"/>
      <text id="B" transform="translate(367 3640)" fill="#fff" font-size="14" font-family="Roboto-Bold, Roboto" font-weight="700"><tspan x="-4.467" y="0">B</tspan></text>
      <rect id="사각형_1200" data-name="사각형 1200" width="12" height="14" transform="translate(374 3628)" fill="#004ea1"/>
      <text id="E" transform="translate(380 3640)" fill="#fff" font-size="14" font-family="Roboto-Bold, Roboto" font-weight="700"><tspan x="-3.938" y="0">E</tspan></text>
      <rect id="사각형_1201" data-name="사각형 1201" width="12" height="14" transform="translate(387 3628)" fill="#004ea1"/>
      <text id="T" transform="translate(393 3640)" fill="#fff" font-size="14" font-family="Roboto-Bold, Roboto" font-weight="700"><tspan x="-4.331" y="0">T</tspan></text>
      <rect id="사각형_1202" data-name="사각형 1202" width="12" height="14" transform="translate(400 3628)" fill="#004ea1"/>
      <text id="A" transform="translate(406 3640)" fill="#fff" font-size="14" font-family="Roboto-Bold, Roboto" font-weight="700"><tspan x="-4.71" y="0">A</tspan></text>
    </g>
  </g>
</svg>
