<svg xmlns="http://www.w3.org/2000/svg" xmlns:xlink="http://www.w3.org/1999/xlink" width="95" height="87" viewBox="0 0 95 87">
  <defs>
    <clipPath id="clip-path">
      <rect id="사각형_1327" data-name="사각형 1327" width="95" height="87" transform="translate(31 812)" fill="#fff" stroke="#707070" stroke-width="1"/>
    </clipPath>
  </defs>
  <g id="마스크_그룹_111" data-name="마스크 그룹 111" transform="translate(-31 -812)" clip-path="url(#clip-path)">
    <g id="img_" transform="translate(-2259.684 534.176)">
      <path id="패스_1925" data-name="패스 1925" d="M2410,349.519a4.583,4.583,0,0,0-.639-2.716,1.756,1.756,0,0,0-2.467-.467,1.96,1.96,0,0,0-3.656-1.256,2.377,2.377,0,0,0-4.278-1.542,5.919,5.919,0,0,0-.676-3.966c-1.126-1.968-2.766-1.44-3.4.3-.8,2.187-.342,5.274-.537,7.584a18.411,18.411,0,0,1-1.611,6.578,45.086,45.086,0,0,0,16.3,3.422,33.074,33.074,0,0,0,.96-7.936" transform="translate(-25.683 -15.104)" fill="#ffe3d4"/>
      <path id="패스_1926" data-name="패스 1926" d="M2410.932,349.059c-.015-1.432-.225-3.058-1.379-4.052a3.112,3.112,0,0,0-4.123-.123l2.4.992a3.417,3.417,0,0,0-2.386-3.547,3.46,3.46,0,0,0-3.885,1.583l2.615.708a3.879,3.879,0,0,0-2.537-3.683,3.815,3.815,0,0,0-4.136,1.15l2.345,1.365a7.213,7.213,0,0,0-1.262-5.685,2.95,2.95,0,0,0-4.481-.441c-1.257,1.2-1.478,3.195-1.557,4.837-.08,1.665.066,3.336-.083,5a17.123,17.123,0,0,1-1.4,5.7,1.434,1.434,0,0,0,.839,2.062,46.571,46.571,0,0,0,16.676,3.472,1.421,1.421,0,0,0,1.353-1.03,35.288,35.288,0,0,0,1.01-8.309,1.4,1.4,0,1,0-2.806,0,31.62,31.62,0,0,1-.91,7.563l1.353-1.03a44.275,44.275,0,0,1-15.93-3.372l.839,2.061a21.31,21.31,0,0,0,1.852-9.514c0-.742-.019-1.482,0-2.224.011-.352.029-.7.061-1.055.009-.1.019-.2.03-.294,0,0,.034-.239.013-.1-.023.153.026-.138.031-.17.016-.093.035-.186.055-.278.034-.159.072-.317.117-.472.025-.088.055-.173.081-.26,0-.011.076-.222.023-.079s.041-.087.059-.12c.03-.053.057-.107.088-.159s.085-.129.127-.195c-.064.1-.121.125-.009.028.05-.044.1-.1.15-.145-.043.042-.245.141-.043.042.035-.017.178-.106,0-.016s-.034,0,.006,0c.211.022-.046-.009-.1,0a.683.683,0,0,1,.182,0c.006,0-.3-.049-.142-.016.131.026.2.126-.01-.024.033.023.117.043.138.079.07.115-.144-.161.035.025.044.046.088.091.133.135.061.07.06.063,0-.022l.084.12a3.866,3.866,0,0,1,.476.935,6.156,6.156,0,0,1,.171.608,2.022,2.022,0,0,1,.079.486,5.846,5.846,0,0,1,.013.631,3.023,3.023,0,0,1-.04.49,1.459,1.459,0,0,0,.645,1.584,1.4,1.4,0,0,0,1.7-.219,2.783,2.783,0,0,1,.217-.246c.021-.02.214-.175.108-.1-.128.091.163-.085.19-.1-.124.068-.077.021.029-.01a3.056,3.056,0,0,1,.318-.082c.219-.041-.31.007.084.006.119,0,.164,0,.018-.019a2.105,2.105,0,0,1,.318.079c.2.06-.153-.092.026.013.041.025.283.184.1.037.069.054.127.12.192.178.175.159-.005-.04.069.074.047.074.091.15.134.226.07.123-.024-.148.034.089.022.085.047.168.063.254-.055-.279-.011.1-.013.149a1.414,1.414,0,0,0,2.615.709c.06-.1.079-.132-.008-.023a2.008,2.008,0,0,1,.174-.178c-.1.094-.093.055.014,0,.073-.04.144-.085.22-.117-.263.114.334,0,.013.005.083,0,.165,0,.249,0-.2,0-.078-.02.054.026.192.067-.158-.1.021.012.025.016.222.162.123.076s.079.1.094.114c.135.153-.081-.151.012.032.012.025.12.255.071.126s.023.118.029.142c.051.2.007-.191,0,.014,0,.11-.008.214-.022.325a1.382,1.382,0,0,0,.862,1.282,1.443,1.443,0,0,0,1.532-.29c-.094.08-.1.117,0,.024l-.126.058.108-.027c-.109.1-.209-.029.023.022.081.005.076,0-.014,0s-.095-.01-.013.007c0-.005.287.1.113.026-.15-.061.075.046.1.063s.218.165.1.065.118.14.117.138c-.174-.222.149.325.061.121a3.453,3.453,0,0,1,.164.569c.013.057.044.224.021.072.018.124.025.251.033.376.014.227.019.453.022.679a1.4,1.4,0,1,0,2.806,0" transform="translate(-25.216 -14.644)" fill="#24221e"/>
      <path id="패스_1927" data-name="패스 1927" d="M2369.593,357.844a10.558,10.558,0,0,1-1.011,1.675c-1.751,2.342-4.866,3.859-7.666,3.013-3.532-1.067-5.643-4.379-8.917-6.066-.377-1.009-.77-2.012-1.185-3.006l-27.116,4.147c-.1.326-.178.656-.272.983-14.167,4.039-28.868,20.043-19.891,35.014a15.2,15.2,0,0,0,4.436,4.893c2.112,1.416,6.406,1.485,7.253,4.224a6.4,6.4,0,0,0,1.1,2.734,4.341,4.341,0,0,0,3.089.909,306.71,306.71,0,0,0,32.818.4,6.333,6.333,0,0,0,3.3-.808c1.667-1.149,1.851-3.5,1.872-5.52.047-4.306.2-8.625.2-12.925a25.291,25.291,0,0,0,16.483-6.317,39.149,39.149,0,0,0,11.81-19.93,45.093,45.093,0,0,1-16.3-3.422" transform="translate(-2.543 -18.916)" fill="#597582"/>
      <path id="패스_1928" data-name="패스 1928" d="M2367.916,356.673c-.171.34-.35.675-.551,1-.1.162-.207.321-.316.477-.047.067-.094.134-.145.2.115-.15-.04.046-.085.1a8.642,8.642,0,0,1-.625.664c-.119.114-.242.224-.367.33-.021.019-.246.2-.132.113.083-.066-.12.088-.139.1a8.293,8.293,0,0,1-.833.525c-.143.079-.29.149-.436.224,0,0-.21.1-.087.043s-.189.075-.219.085a7.076,7.076,0,0,1-.926.271q-.2.044-.4.076c.238-.037-.222.014-.305.018a5.4,5.4,0,0,1-.953-.034c.256.034-.165-.041-.234-.057-.182-.043-.361-.1-.537-.154q-.233-.076-.46-.168c.212.084-.18-.083-.235-.109a10.161,10.161,0,0,1-.9-.495,21.353,21.353,0,0,1-2.931-2.285,21.06,21.06,0,0,0-3.851-2.8l.644.839c-.379-1.009-.771-2.012-1.185-3.007a1.465,1.465,0,0,0-1.726-.98l-9.192,1.406L2326.2,355.28l-3.341.511a1.38,1.38,0,0,0-.98.98c-.094.327-.179.656-.272.983l.98-.98a36.207,36.207,0,0,0-18.652,12.917,24.81,24.81,0,0,0-4.6,9.887,19.469,19.469,0,0,0,1.015,11.226c1.551,3.778,4.184,7.715,8.128,9.25.73.284,1.483.506,2.223.76.179.061.357.124.534.19.1.035.6.245.287.106a7.666,7.666,0,0,1,1,.513c.072.045.142.1.215.141.274.171-.137-.15,0-.006.109.117.243.228.361.338.064.061.2.254,0-.021.049.067.1.134.139.2s.079.145.123.215c.152.251-.054-.23.018.038a8.966,8.966,0,0,0,1.09,2.954c1.51,2.11,4.406,1.815,6.7,1.928,2.546.124,5.091.241,7.637.337,5.115.194,10.234.3,15.352.223,2.564-.04,5.127-.123,7.686-.272a8.994,8.994,0,0,0,3.418-.7,4.811,4.811,0,0,0,2.2-2.212c.953-1.955.866-4.169.9-6.288.04-2.556.108-5.11.149-7.667q.031-1.89.035-3.782l-1.4,1.4a26.352,26.352,0,0,0,15.911-5.468,37.116,37.116,0,0,0,10.426-12.88,41.92,41.92,0,0,0,3.309-8.928,1.421,1.421,0,0,0-1.354-1.776,44.285,44.285,0,0,1-15.931-3.373,1.406,1.406,0,0,0-1.725.98,1.447,1.447,0,0,0,.98,1.726,46.554,46.554,0,0,0,16.676,3.473l-1.352-1.777a38.6,38.6,0,0,1-2.581,7.345,40.046,40.046,0,0,1-4.061,6.789c-.347.467-.667.871-1.1,1.395q-.606.723-1.25,1.414a31.18,31.18,0,0,1-2.812,2.674,26.106,26.106,0,0,1-6.5,3.9,24.764,24.764,0,0,1-4.347,1.3q-.536.108-1.077.19l-.232.034a.458.458,0,0,1-.091.011q-.271.033-.543.06a22.766,22.766,0,0,1-2.337.1,1.423,1.423,0,0,0-1.4,1.4c0,2.523-.055,5.047-.108,7.569q-.04,1.848-.072,3.695c-.017,1.038,0,2.081-.082,3.116-.011.134-.026.267-.039.4-.005.049-.042.275,0,.024-.034.217-.073.433-.123.647a6.107,6.107,0,0,1-.176.621c-.027.08-.056.16-.087.239.107-.274-.067.122-.095.176a3.473,3.473,0,0,1-.3.469c.186-.243-.075.067-.1.092-.06.06-.121.114-.183.171-.259.242.22-.092-.142.1-.087.046-.172.1-.258.146-.391.213.1-.025-.139.061-.163.058-.33.105-.5.147a18.506,18.506,0,0,1-3.063.258q-1.855.089-3.714.139c-4.97.137-9.943.082-14.912-.073-2.511-.078-5.022-.181-7.533-.3q-1.844-.084-3.688-.177c-.585-.028-1.17-.058-1.756-.082q-.316-.012-.632-.041c-.263-.023.319.069-.115-.013-.136-.026-.272-.052-.406-.088a2.721,2.721,0,0,1-.387-.126c.082.036.153.1-.028-.031.02.014-.327-.236-.188-.12s-.175-.2-.156-.174c.156.195-.233-.472-.125-.221a5.6,5.6,0,0,1-.238-.748,6.538,6.538,0,0,0-1.155-2.629,8.644,8.644,0,0,0-4.116-2.3c-.357-.119-.717-.233-1.075-.355-.174-.059-.348-.119-.521-.182l-.2-.076c-.036-.013-.424-.171-.227-.087s-.1-.046-.116-.054l-.182-.087c-.145-.073-.288-.15-.426-.235a6.8,6.8,0,0,1-1.1-.824,15.546,15.546,0,0,1-3.573-4.7c-.222-.423-.427-.855-.623-1.292-.116-.259-.047-.111-.023-.053-.054-.129-.1-.257-.156-.388q-.137-.353-.26-.712a18.068,18.068,0,0,1-.688-2.649c-.034-.193-.065-.387-.094-.58-.037-.25.035.335-.01-.077-.01-.086-.02-.171-.028-.257q-.074-.7-.09-1.408a19.553,19.553,0,0,1,.121-2.536c.042-.4-.029.18.007-.066.015-.1.031-.209.047-.313q.049-.313.11-.623.12-.623.281-1.236a20.967,20.967,0,0,1,.84-2.544c.031-.08.064-.159.1-.239-.1.242.01-.019.035-.079q.117-.266.24-.53.3-.646.641-1.276c.417-.771.873-1.52,1.362-2.246q.371-.551.77-1.084l.16-.213c.263-.351-.166.2.107-.139.14-.175.279-.35.421-.522q.9-1.1,1.9-2.108.953-.972,1.982-1.866c.725-.631,1.324-1.111,1.952-1.575a36.384,36.384,0,0,1,4.643-2.923c.8-.424,1.625-.813,2.458-1.177.254-.112.082-.036.028-.013.121-.051.243-.1.364-.15q.274-.109.547-.214.634-.242,1.279-.456c.4-.134.818-.237,1.219-.376.905-.315,1.021-1.158,1.252-1.963l-.98.98,9.192-1.406,14.585-2.231,3.341-.511-1.726-.98c.415,1,.786,2.006,1.185,3.007.258.644.711.852,1.26,1.182.362.216.711.452,1.051.7l.224.167c.36.269-.1-.084.1.08q.219.174.435.352c.342.281.678.57,1.014.858.652.562,1.309,1.117,1.991,1.643a10.619,10.619,0,0,0,4.49,2.221,8.205,8.205,0,0,0,5.328-.941,10.35,10.35,0,0,0,4.262-4.548,1.438,1.438,0,0,0-.5-1.92,1.417,1.417,0,0,0-1.919.5" transform="translate(-2.077 -18.452)" fill="#24221e"/>
      <path id="패스_1929" data-name="패스 1929" d="M2313.95,406.721c.2-5.27,4.781-11.851,10.9-8.95a2.979,2.979,0,0,1,1.569,1.482,1.559,1.559,0,0,1-.583,1.93c-.282.147-.681.257-.7.575a.794.794,0,0,0,.224.474,2.47,2.47,0,0,1-.5,3.313,1.5,1.5,0,0,0-.427.379,1.219,1.219,0,0,0-.043.851c.141.783.076,1.792-.657,2.1-.244.1-.524.1-.773.2-.579.217-.85.861-1.147,1.4-1.07,1.94-3.658,3.16-5.6,2.1s-2.344-3.649-2.258-5.855" transform="translate(-5.853 -29.889)" fill="#ffe3d4"/>
      <path id="패스_1930" data-name="패스 1930" d="M2336.193,369.789a34.4,34.4,0,0,1,2.351,6.257,39.858,39.858,0,0,0,7.8,13.593,2.459,2.459,0,0,0,1.652,1.051c.783.013,1.377-.677,1.837-1.312a69.4,69.4,0,0,0,11.3-24.582" transform="translate(-11.453 -21.768)" fill="#fff"/>
      <path id="패스_1931" data-name="패스 1931" d="M2334.46,369.944a25.532,25.532,0,0,1,1.951,5.034,44.916,44.916,0,0,0,1.984,5.22,41.411,41.411,0,0,0,5.794,9.166,7.127,7.127,0,0,0,2.033,1.912,2.851,2.851,0,0,0,3.051-.253,7.783,7.783,0,0,0,1.731-2q.822-1.161,1.593-2.352a71.853,71.853,0,0,0,5.361-9.942,69.511,69.511,0,0,0,4.031-11.934,1.438,1.438,0,0,0-.854-1.791,1.421,1.421,0,0,0-1.792.855,68.509,68.509,0,0,1-7.911,19.386q-1.359,2.253-2.888,4.4c-.215.3-.426.616-.668.9.14-.164-.187.167-.231.207-.093.085-.078.141-.019.022l-.112.057c.131-.034.147-.04.05-.016-.14.051.025.017.06.011-.209.034-.153-.017-.046,0-.238-.043-.125-.064-.054-.019a2.383,2.383,0,0,1-.234-.17c.13.107-.229-.239-.26-.275-.14-.153-.275-.312-.409-.47a37.594,37.594,0,0,1-5.4-8.286q-.6-1.256-1.121-2.553c-.364-.912-.635-1.687-.909-2.547a30.491,30.491,0,0,0-2.21-5.8,1.435,1.435,0,0,0-1.88-.638,1.417,1.417,0,0,0-.638,1.879" transform="translate(-10.979 -21.303)" fill="#24221e"/>
      <path id="패스_1932" data-name="패스 1932" d="M2352.935,374.03c.8-2.41,2.323-4.949,1.036-7.382-1.816-3.435-5.011-1.14-7.684.269a1.04,1.04,0,0,0-.547.494c-.665,1.851,2.4,5.99,3.2,7.635a2.92,2.92,0,0,1,.39,1.274,2.741,2.741,0,0,1-.29,1.043,26.616,26.616,0,0,1-2.891,5.046c-1.378,1.891,2.08,4.608,3.23,6.027.119.147.277.311.464.277a.539.539,0,0,0,.278-.194c1.3-1.4,2.6-2.8,3.885-4.206.073-.079,2.6-3.29,1.04-3.4l-2.062-4.674a2.286,2.286,0,0,1-.067-2.139c.007-.022.014-.046.022-.068" transform="translate(-13.832 -21.783)" fill="#24221e"/>
      <path id="패스_1933" data-name="패스 1933" d="M2353.777,374.029c.8-2.356,2.147-4.825,1.4-7.379a5.367,5.367,0,0,0-2.144-3.061,4.317,4.317,0,0,0-3.114-.516,10.484,10.484,0,0,0-2.895,1.118c-.428.224-.85.462-1.275.694a4.041,4.041,0,0,0-1.593,1.154c-1.025,1.574.053,3.807.809,5.258.747,1.433,1.745,2.758,2.389,4.241.019.041.135.334.059.148.01.049.021.1.031.145,0-.133,0-.109-.008.074.058-.236-.09.247-.085.231-.036.1-.078.194-.12.29-.26.6-.516,1.134-.81,1.679s-.616,1.1-.952,1.626-.742,1.037-1.069,1.579c-1.133,1.879.1,3.889,1.355,5.333.555.642,1.167,1.231,1.74,1.858a3.206,3.206,0,0,0,1.259,1.058c1.025.344,1.676-.314,2.3-.991,1.046-1.129,2.094-2.255,3.135-3.391a11.62,11.62,0,0,0,1.181-1.5,6.352,6.352,0,0,0,1.063-2.352,1.923,1.923,0,0,0-1.773-2.281l1.159.779q-.736-1.668-1.474-3.338c-.227-.516-.472-1.028-.682-1.551-.034-.09-.04-.1-.016-.022-.011-.049-.024-.1-.037-.15.023.151,0-.124,0-.175.013-.1.013-.105,0-.026.015-.052.029-.1.043-.156.04-.126.079-.251.119-.376a1.4,1.4,0,0,0-2.646-.937,4.447,4.447,0,0,0-.283,2.144,8.9,8.9,0,0,0,.76,1.988l1.694,3.839a1.412,1.412,0,0,0,1.159.78c.262.027-.342-.1-.13-.024a1.038,1.038,0,0,1-.58-.514c-.011-.021-.111-.4-.069-.183.028.143-.018-.435-.023-.153-.005.248-.01-.131.034-.148a1.965,1.965,0,0,0-.063.2c-.049.137-.118.265-.169.4-.06.158.156-.278.031-.062-.043.074-.083.151-.126.225q-.128.22-.268.435-.22.34-.459.665c-.086.118-.176.234-.265.349,0,0,.29-.317-.024.02l-.311.34c-.23.249-.459.5-.689.747q-.687.746-1.38,1.491c-.252.271-.5.543-.754.813-.125.135-.25.272-.375.406-.042.046-.084.091-.125.136-.116.113-.11.112.02,0l.72-.141c.728.045.579.356.446.143a1.061,1.061,0,0,0-.107-.126c-.069-.079-.14-.157-.211-.234-.184-.2-.375-.4-.563-.593-.417-.432-.834-.864-1.223-1.319-.177-.209-.349-.421-.512-.642-.045-.061-.087-.125-.133-.186.168.222.048.076.015.019-.083-.139-.165-.276-.238-.421-.053-.106-.1-.217-.146-.326.124.269.012.025-.021-.115a.812.812,0,0,0-.023-.136c-.068-.152-.034.267,0,.107a.477.477,0,0,0,0-.133c-.046-.216-.092.231-.012.022a.544.544,0,0,0,.045-.126c.005-.135-.158.149-.04.076s.2-.291.28-.4q.4-.559.765-1.138c.492-.776.937-1.577,1.353-2.4a9.24,9.24,0,0,0,1.072-2.663,4.045,4.045,0,0,0-.576-2.457c-.477-.92-1.054-1.789-1.57-2.689-.309-.537-.607-1.081-.874-1.64-.123-.258-.239-.519-.345-.783-.027-.066-.147-.4-.09-.232s-.008-.028-.021-.073c-.023-.079-.046-.159-.068-.239-.036-.144-.166-.49-.114-.633-.041.113,0,.3.012.124,0-.049.005-.108.005-.159a1.149,1.149,0,0,0,.018-.153c.058.071-.149.337-.016.12.09-.153-.187.311-.171.266-.031.092-.122.067.026,0s.3-.161.45-.242c.308-.168.614-.338.921-.506a17.808,17.808,0,0,1,1.756-.863c.057-.022.521-.186.235-.1.132-.041.265-.081.4-.114s.261-.06.394-.082c.074-.011.148-.018.223-.029-.178.026-.169,0,.006.006a4.446,4.446,0,0,1,.478.043c-.309-.042,0,.025.142.071.231.076.018.011-.031-.021l.237.156c.048.034.094.071.138.109-.228-.192.064.086.087.113.048.055.293.4.214.273a4.4,4.4,0,0,1,.329.646,3.233,3.233,0,0,1,.129.482c.015.081.057.551.053.381a5.357,5.357,0,0,1-.033.682c-.008.076-.018.152-.029.227,0,0-.063.355-.045.271-.058.279-.223.811-.35,1.182-.313.906-.692,1.788-1,2.7a1.4,1.4,0,1,0,2.646.937" transform="translate(-13.352 -21.313)" fill="#24221e"/>
      <path id="패스_1934" data-name="패스 1934" d="M2314.881,406.248c.007-.147.015-.293.027-.439.007-.093.018-.185.026-.277.005-.048.039-.287.011-.092s.046-.263.054-.317c.031-.17.066-.338.1-.505.074-.321.161-.639.261-.953.047-.149.1-.3.15-.444q.05-.139.1-.276c.013-.034.134-.336.061-.16-.054.13.119-.261.145-.317.067-.142.136-.284.209-.423.163-.314.338-.619.528-.917q.126-.2.26-.388c.047-.067.355-.469.162-.228.2-.253.415-.5.642-.732s.463-.439.7-.649c.047-.041.211-.159-.022.012.059-.043.118-.088.179-.131.149-.106.3-.207.461-.3a7,7,0,0,1,.775-.4c-.279.125.062-.018.171-.055.173-.058.348-.109.525-.151.144-.034.287-.058.432-.087-.311.061.052,0,.179-.013a7.1,7.1,0,0,1,1.032.022c-.306-.025.111.02.221.041.162.033.323.072.484.117s.33.1.491.156c.084.03.166.061.249.094-.241-.094.122.055.168.077.168.082.325.178.487.269.212.117.118.073.055.025a2.355,2.355,0,0,1,.206.184,1.936,1.936,0,0,1,.186.2c-.136-.184.019.064.045.113.085.162.015-.138,0,.027s-.01-.212.01.056c.019.248,0,.073.017,0a1.564,1.564,0,0,1-.066.236c.1-.248.017-.059-.021-.014.055-.067.235-.161.117-.136a2.284,2.284,0,0,0-.973.641,1.8,1.8,0,0,0-.24,2.074,5.184,5.184,0,0,0,.283.439c.022.034.134.266.065.107s.045.211.062.24c.083.15.021-.18,0-.008a2.44,2.44,0,0,0,0,.246c0,.047-.041.3,0,.12s-.026.075-.038.115-.094.284-.031.123c.074-.19-.094.169-.091.162-.023.05-.156.21.006.015a2.6,2.6,0,0,1-.214.219c-.155.146.155-.12-.035.025a3.665,3.665,0,0,0-.395.311,2.24,2.24,0,0,0-.562.908,2.2,2.2,0,0,0-.079.8c.014.172.042.35.071.52.05.294.008-.076.016.076.011.189.019.372.011.563.016-.382-.049.24-.071.215-.037-.044.135-.233.135-.234-.049.067-.1.2.027-.009.03-.049.293-.065-.077,0a3.124,3.124,0,0,0-.467.109,3.773,3.773,0,0,0-1.985,2.048c-.084.15-.177.293-.273.434-.027.04-.168.2-.016.022-.057.066-.113.131-.171.194-.119.127-.25.24-.373.362-.184.179-.072.067-.018.026-.1.079-.211.151-.32.221a5.733,5.733,0,0,1-.564.311c.235-.115-.245.085-.317.107a4.217,4.217,0,0,1-.55.125c.279-.043.062-.01,0-.01-.124,0-.246.008-.37,0-.081,0-.164-.008-.245-.019.327.042-.067-.03-.11-.041-.079-.022-.157-.049-.236-.073-.244-.076.067.045-.068-.034-.09-.052-.181-.109-.274-.158-.221-.117.047.057-.063-.037-.141-.119-.263-.251-.391-.381-.178-.181-.045-.052-.008,0q-.108-.148-.2-.305a4.672,4.672,0,0,1-.283-.549c.11.257-.077-.251-.1-.317q-.094-.31-.159-.626c-.015-.067-.1-.618-.068-.339-.028-.219-.047-.438-.061-.658a13.012,13.012,0,0,1-.012-1.3,1.415,1.415,0,0,0-1.4-1.4,1.432,1.432,0,0,0-1.4,1.4,9.314,9.314,0,0,0,1.129,5.312,4.929,4.929,0,0,0,5.189,2.219,6.468,6.468,0,0,0,4.349-3.427c.043-.08.087-.16.133-.239.031-.051.152-.383.086-.152,0,0,.2-.248,0-.034.147-.164.125-.046.047-.022a3.125,3.125,0,0,0,1.637-.816,3.694,3.694,0,0,0,.62-3.16c-.059-.411-.022-.07,0-.067.3.05-.529.715-.17.421a4.642,4.642,0,0,0,.717-.651,3.856,3.856,0,0,0,.805-1.623,4.1,4.1,0,0,0-.006-1.786,3.819,3.819,0,0,0-.321-.855c-.116-.232-.294-.424-.4-.661.064.236.128.472.192.708l-.3.605c-.148.113-.152.128-.014.046a1.616,1.616,0,0,0,.205-.1,2.615,2.615,0,0,0,.67-.481,2.806,2.806,0,0,0,.759-1.482,3.367,3.367,0,0,0-1.1-3.1,7.515,7.515,0,0,0-5.333-1.708c-3.389.257-6.055,2.74-7.5,5.692a13.563,13.563,0,0,0-1.4,5.355,1.413,1.413,0,0,0,1.4,1.4,1.434,1.434,0,0,0,1.4-1.4" transform="translate(-5.381 -29.416)" fill="#24221e"/>
      <path id="패스_1935" data-name="패스 1935" d="M2400.389,353.033a2.868,2.868,0,0,1,.33-.171l-.335.142a2.706,2.706,0,0,1,.664-.177l-.373.05a2.94,2.94,0,0,1,.688,0l-.373-.05a2.9,2.9,0,0,1,.716.192l-.335-.141a2.7,2.7,0,0,1,.547.319l-.284-.219a2.607,2.607,0,0,1,.408.406l-.219-.284a2.717,2.717,0,0,1,.344.582l-.141-.335a2.942,2.942,0,0,1,.194.7c-.016-.124-.033-.248-.05-.373a2.834,2.834,0,0,1,0,.729l.049-.373a2.69,2.69,0,0,1-.162.6c.046-.112.094-.224.14-.335-.013.032-.027.064-.042.1a1.523,1.523,0,0,0-.142,1.081,1.436,1.436,0,0,0,.645.838,1.418,1.418,0,0,0,1.082.141,1.365,1.365,0,0,0,.838-.645,4.024,4.024,0,0,0,.415-1.952,4.275,4.275,0,0,0-.558-1.9,4.01,4.01,0,0,0-5.463-1.35,1.464,1.464,0,0,0-.645.838,1.4,1.4,0,0,0,2.061,1.585" transform="translate(-27.079 -18.057)" fill="#24221e"/>
      <path id="패스_1936" data-name="패스 1936" d="M2328.623,356.844a36.313,36.313,0,0,0,.226,9.325,4.92,4.92,0,0,0,.767,2.256,4.375,4.375,0,0,0,3.348,1.4,12.267,12.267,0,0,0,11.569-7.086,18.56,18.56,0,0,0,6.939,6.479,6.411,6.411,0,0,0,2.968.915c2.385,0,4.2-2.149,5.243-4.3a18.905,18.905,0,0,0,1.813-6.575c.163-1.875-.527-3.159-.664-4.926" transform="translate(-9.498 -19.136)" fill="#fff"/>
      <path id="패스_1937" data-name="패스 1937" d="M2326.748,356.371a36.794,36.794,0,0,0-.008,7.506c.241,2.339.466,5.054,2.865,6.2a9.849,9.849,0,0,0,6.12.408,13.768,13.768,0,0,0,9.549-7.516h-2.423a19.833,19.833,0,0,0,4.423,4.968c1.839,1.455,4.107,3.025,6.531,3.118,2.317.089,4.219-1.413,5.53-3.182a16.781,16.781,0,0,0,2.684-6.345,12.934,12.934,0,0,0,.383-4.167,18.736,18.736,0,0,0-.353-1.946c-.065-.286-.13-.572-.185-.859a4.714,4.714,0,0,1-.1-.7,1.4,1.4,0,0,0-2.806,0,28.25,28.25,0,0,0,.554,3.079c.024.119.044.239.067.358.006.028.042.271.015.066a6.868,6.868,0,0,1,.052.766,10.4,10.4,0,0,1-.1,1.39,16.549,16.549,0,0,1-1.933,5.874,6.778,6.778,0,0,1-1.507,1.928c-.085.077-.171.152-.259.224-.194.159.26-.161-.094.067-.151.1-.3.2-.455.284-.1.054-.194.1-.3.15-.219.1.3-.085-.092.033a5.671,5.671,0,0,1-.64.166c.263-.047-.025,0-.094,0-.123.006-.246,0-.369,0,0,0-.272-.016-.117,0a3.192,3.192,0,0,1-.4-.082,5.644,5.644,0,0,1-1.358-.525,17.943,17.943,0,0,1-2.47-1.54c-.187-.138-.259-.194-.5-.391q-.294-.241-.578-.5-.626-.559-1.2-1.173a15.3,15.3,0,0,1-1.913-2.49,1.416,1.416,0,0,0-2.423,0,11.505,11.505,0,0,1-1.283,2.179c-.155.206.206-.239-.075.093-.059.07-.116.141-.176.21q-.2.235-.412.458a12.168,12.168,0,0,1-.943.9,11.106,11.106,0,0,1-1.918,1.29c-.181.1-.365.192-.55.281-.072.035-.5.227-.291.138a11.464,11.464,0,0,1-1.293.452q-.559.162-1.132.268l-.337.058c-.043.007-.275.032-.033.005-.226.026-.454.047-.682.061a10.93,10.93,0,0,1-1.232,0c-.093-.005-.186-.011-.279-.02.029,0-.426-.054-.234-.024.158.025-.13-.026-.163-.032-.137-.028-.275-.059-.412-.1-.113-.031-.222-.069-.334-.1-.036-.011-.244-.1-.05-.014a3.4,3.4,0,0,1-.531-.305c-.181-.131.125.124-.031-.036a2.693,2.693,0,0,1-.236-.247c.136.179-.22-.452-.148-.275a10.185,10.185,0,0,1-.509-2.733,36.719,36.719,0,0,1-.012-7.688,1.407,1.407,0,0,0-1.4-1.4,1.441,1.441,0,0,0-1.4,1.4" transform="translate(-9.027 -18.663)" fill="#24221e"/>
      <path id="패스_1938" data-name="패스 1938" d="M2359.712,331.517a11.31,11.31,0,0,1-2.7,3.48c-.061.051-.121.1-.182.149.041-.032.224-.156.011-.012-.121.083-.241.17-.366.248-.239.15-.488.269-.739.4.317-.162-.031.007-.13.04-.124.041-.248.078-.374.109s-.25.047-.375.075c.394-.085-.018-.006-.144,0s-.251,0-.376,0c-.063,0-.126-.014-.188-.015-.191,0,.277.059.092.012a8.191,8.191,0,0,1-.8-.209c-.063-.023-.124-.047-.186-.072.042.016.276.136.057.018-.123-.066-.249-.124-.37-.193s-.249-.148-.368-.228c-.062-.041-.121-.085-.183-.126-.218-.144.091.088-.034-.023a12.569,12.569,0,0,1-1.469-1.5c-.017-.021-.158-.207-.04-.051-.058-.078-.115-.156-.171-.234-.1-.142-.2-.286-.3-.431-.251-.376-.485-.762-.707-1.156-.03-.054-.312-.625-.2-.338-.026-.07-.037-.163-.07-.231.083.179,0,.158,0,.026,0-.077,0-.152.007-.229-.005.073-.071.263.012.04.031-.085.108-.192-.021.022.019-.032.174-.3.066-.142s.3-.245.143-.143c-.17.113.085-.05.1-.042l.051-.026q-.209.086-.063.04c-.007-.013.319-.047.108-.031-.173.014.04.008.061.009h.03c.471.017.944.014,1.416.022l5.71.087c.718.01,1.435.019,2.152.033l.157,0c.066,0,.223.026.069,0-.206-.037.1.04.1.039q.147.049-.067-.033l.1.055c.214.105.039.026-.011-.022.061.058.234.3.077.047.04.063.077.127.117.189.142.221-.1-.1.005.025.029.034.028.122.041.163-.087-.272-.02-.049-.019.077,0-.04.027-.312,0-.029-.028.264.1-.149-.039.116a1.436,1.436,0,0,0,.5,1.919,1.416,1.416,0,0,0,1.919-.5,3.35,3.35,0,0,0,.062-3.085,3.171,3.171,0,0,0-2.231-1.695,12.233,12.233,0,0,0-1.83-.088l-6.42-.1c-.6-.01-1.207-.032-1.809-.028a3.284,3.284,0,0,0-3.3,3.309,5.867,5.867,0,0,0,1.19,2.858,14.829,14.829,0,0,0,1.732,2.248,7.5,7.5,0,0,0,3.926,2.337c3.987.713,6.921-2.611,8.684-5.759a1.4,1.4,0,0,0-2.423-1.417" transform="translate(-14.072 -12.493)" fill="#24221e"/>
      <path id="패스_1939" data-name="패스 1939" d="M2325.76,296.652a25.282,25.282,0,0,0,7.74.019,8.558,8.558,0,0,0,6.135-4.313c3.329,4.026,8.162,6.472,12.961,8.534a32.033,32.033,0,0,0,10.532,3,14.233,14.233,0,0,0,7.2-1.382,32.753,32.753,0,0,0-62.346.742c6.52,1.15,13.736-1.293,17.779-6.6" transform="translate(-4.354 -0.472)" fill="#7f5f42"/>
      <path id="패스_1940" data-name="패스 1940" d="M2363.586,304.855c-.337,0-.677-.01-1.015-.031a33.346,33.346,0,0,1-11-3.114c-4.36-1.872-8.814-4.084-12.231-7.539a10.661,10.661,0,0,1-6.028,3.4,24.471,24.471,0,0,1-7.408.082,20.19,20.19,0,0,1-18.638,6.51,1.4,1.4,0,0,1-1.1-1.8,34.156,34.156,0,0,1,65.017-.774,1.4,1.4,0,0,1-.7,1.7,15.5,15.5,0,0,1-6.9,1.56m-24.423-14.37a1.405,1.405,0,0,1,1.081.509c3.154,3.814,7.84,6.166,12.434,8.139a30.981,30.981,0,0,0,10.063,2.891,13.314,13.314,0,0,0,5.35-.745,31.351,31.351,0,0,0-58.706.331,17.125,17.125,0,0,0,14.786-6.279,1.4,1.4,0,0,1,1.263-.545,24.229,24.229,0,0,0,7.311.04,7.141,7.141,0,0,0,5.15-3.54,1.4,1.4,0,0,1,1.094-.79,1.483,1.483,0,0,1,.173-.01" transform="translate(-3.881)" fill="#24221e"/>
      <path id="패스_1941" data-name="패스 1941" d="M2370.078,307.545a8.025,8.025,0,0,0-3.144.637c-.148-.53-.314-1.051-.488-1.57a14.24,14.24,0,0,1-7.2,1.382,32.029,32.029,0,0,1-10.531-3c-4.8-2.062-9.632-4.509-12.961-8.533a8.554,8.554,0,0,1-6.135,4.312,25.283,25.283,0,0,1-7.741-.019c-4.044,5.311-11.26,7.753-17.779,6.6-.088.287-.18.575-.26.866a8.059,8.059,0,1,0-.617,15,32.76,32.76,0,0,0,64.336.031,8.055,8.055,0,1,0,2.521-15.7" transform="translate(-0.472 -4.57)" fill="#ffe3d4"/>
      <path id="패스_1942" data-name="패스 1942" d="M2334.92,350.727a34.188,34.188,0,0,1-33.24-26.266,9.371,9.371,0,0,1-1.537.128,9.459,9.459,0,1,1,2.408-18.607,1.413,1.413,0,0,1,1.32-.482,17.216,17.216,0,0,0,16.419-6.07,1.405,1.405,0,0,1,1.264-.546,24.225,24.225,0,0,0,7.311.04,7.14,7.14,0,0,0,5.15-3.54,1.4,1.4,0,0,1,2.348-.292c3.155,3.813,7.841,6.165,12.435,8.139a30.974,30.974,0,0,0,10.063,2.891,12.875,12.875,0,0,0,6.483-1.235,1.4,1.4,0,0,1,1.962.807l.079.238a9.461,9.461,0,1,1,.772,18.543,34.2,34.2,0,0,1-33.236,26.252m-32.171-29.384a1.4,1.4,0,0,1,1.378,1.14,31.357,31.357,0,0,0,61.58.03,1.4,1.4,0,0,1,1.817-1.067,6.651,6.651,0,1,0-.514-12.444,1.4,1.4,0,0,1-1.9-.913c0-.016-.009-.033-.014-.049a16.221,16.221,0,0,1-6.407.884,33.352,33.352,0,0,1-11-3.114c-4.359-1.872-8.814-4.084-12.231-7.539a10.664,10.664,0,0,1-6.029,3.4,24.468,24.468,0,0,1-7.407.082,20.146,20.146,0,0,1-17.435,6.683,1.4,1.4,0,0,1-1.784.6,6.656,6.656,0,1,0-.51,12.385,1.388,1.388,0,0,1,.454-.076" transform="translate(0 -4.098)" fill="#24221e"/>
      <path id="패스_1943" data-name="패스 1943" d="M2344.141,316.65a2.148,2.148,0,1,1-2.148-2.148,2.148,2.148,0,0,1,2.148,2.148" transform="translate(-12.372 -9.111)" fill="#24221e"/>
      <path id="패스_1944" data-name="패스 1944" d="M2371.414,316.65a2.148,2.148,0,1,1-2.148-2.148,2.148,2.148,0,0,1,2.148,2.148" transform="translate(-19.236 -9.111)" fill="#24221e"/>
      <path id="패스_1945" data-name="패스 1945" d="M2356.218,319.679a2.935,2.935,0,0,1,.626-.377l-.335.141a1.778,1.778,0,0,1,.4-.111l-.373.05a1.409,1.409,0,0,1,.351,0l-.374-.05a1.458,1.458,0,0,1,.342.094l-.335-.141a1.951,1.951,0,0,1,.4.236l-.285-.219a2.552,2.552,0,0,1,.21.183,1.462,1.462,0,0,0,.992.411,1.4,1.4,0,0,0,.992-2.4,3.105,3.105,0,0,0-2.081-.934,3.3,3.3,0,0,0-.647.073,1.689,1.689,0,0,0-.314.094,3.922,3.922,0,0,0-.979.525,1.064,1.064,0,0,0-.393.361,1.046,1.046,0,0,0-.251.477,1.4,1.4,0,0,0,.979,1.726l.373.05a1.392,1.392,0,0,0,.708-.192" transform="translate(-15.962 -9.63)" fill="#24221e"/>
      <path id="패스_1946" data-name="패스 1946" d="M2332.106,327.406c0,3.757-2.726,6.8-6.09,6.8s-6.089-3.046-6.089-6.8,2.726-6.8,6.089-6.8,6.09,3.046,6.09,6.8" transform="translate(-7.359 -10.647)" fill="#ffb18f"/>
      <path id="패스_1947" data-name="패스 1947" d="M2383.5,327.406c0,3.757-2.727,6.8-6.09,6.8s-6.089-3.046-6.089-6.8,2.726-6.8,6.089-6.8,6.09,3.046,6.09,6.8" transform="translate(-20.294 -10.647)" fill="#ffb18f"/>
      <path id="패스_1948" data-name="패스 1948" d="M2361.4,330.7c-3.8,6.854-8.892,7.019-12.7-.17a1.844,1.844,0,0,1,1.647-2.713l9.476.144a1.843,1.843,0,0,1,1.577,2.738" transform="translate(-14.544 -12.462)" fill="#fff"/>
      <path id="패스_1949" data-name="패스 1949" d="M2359.712,329.517a11.309,11.309,0,0,1-2.7,3.48c-.061.051-.121.1-.182.149.041-.032.224-.156.011-.012-.121.083-.241.17-.366.248-.239.15-.488.269-.739.4.317-.162-.031.008-.13.04-.124.041-.248.078-.374.108s-.25.047-.375.075c.394-.085-.018-.006-.144,0s-.251,0-.376,0c-.063,0-.126-.014-.188-.015-.191,0,.277.059.092.012a8.191,8.191,0,0,1-.8-.209c-.063-.023-.124-.047-.186-.072.042.016.276.136.057.018-.123-.066-.249-.124-.37-.193s-.249-.148-.368-.228c-.062-.041-.121-.085-.183-.126-.218-.144.091.088-.034-.023a12.566,12.566,0,0,1-1.469-1.5c-.017-.021-.158-.207-.04-.051-.058-.078-.115-.156-.171-.234-.1-.142-.2-.286-.3-.431-.251-.376-.485-.762-.707-1.156-.03-.054-.312-.625-.2-.338-.026-.07-.037-.163-.07-.231.083.179,0,.158,0,.026,0-.077,0-.152.007-.229-.005.073-.071.263.012.04.031-.085.108-.192-.021.022.019-.032.174-.3.066-.142s.3-.245.143-.143c-.17.113.085-.05.1-.042l.051-.026q-.209.086-.063.04c-.007-.013.319-.047.108-.031-.173.013.04.008.061.009h.03c.471.017.944.014,1.416.022l5.71.087c.718.01,1.435.019,2.152.033l.157,0c.066,0,.223.026.069,0-.206-.037.1.04.1.039.1.033.076.022-.067-.033l.1.055c.214.105.039.026-.011-.022.061.058.234.3.077.047.04.063.077.127.117.189.142.221-.1-.1.005.025.029.034.028.122.041.163-.087-.272-.02-.049-.019.077,0-.04.027-.312,0-.029-.028.264.1-.149-.039.116a1.436,1.436,0,0,0,.5,1.919,1.416,1.416,0,0,0,1.919-.5,3.35,3.35,0,0,0,.062-3.085,3.171,3.171,0,0,0-2.231-1.695,12.246,12.246,0,0,0-1.83-.088l-6.42-.1c-.6-.01-1.207-.032-1.809-.028a3.284,3.284,0,0,0-3.3,3.309,5.868,5.868,0,0,0,1.19,2.858,14.825,14.825,0,0,0,1.732,2.248,7.5,7.5,0,0,0,3.926,2.337c3.987.713,6.921-2.611,8.684-5.759a1.4,1.4,0,0,0-2.423-1.417" transform="translate(-14.072 -11.99)" fill="#24221e"/>
    </g>
  </g>
</svg>
