<svg width="117" height="9" viewBox="0 0 117 9" fill="none" xmlns="http://www.w3.org/2000/svg">
<path d="M112.225 5.15143V8.64458H109.896V0.493896H112.225V3.40486H114.554V0.493896H116.883V8.64458H114.554V5.15143H112.225Z" fill="white"/>
<path d="M104.22 2.24047H101.892V0.493896H108.878V2.24047H106.549V8.64458H104.22V2.24047Z" fill="white"/>
<path d="M95.3652 6.89801L94.8995 8.64458H93.0889L95.2779 0.493896H99.1204L101.304 8.64458H98.8933L98.4276 6.89801H95.3652ZM97.956 5.15143L97.1759 2.24047H96.6169L95.8368 5.15143H97.956Z" fill="white"/>
<path d="M87.9938 2.24047V4.56924H89.1582C89.4784 4.56924 89.7578 4.4528 89.9849 4.22575C90.212 3.99869 90.3226 3.72506 90.3226 3.40486C90.3226 3.08465 90.212 2.8052 89.9849 2.57814C89.7578 2.35109 89.4784 2.24047 89.1582 2.24047H87.9938ZM89.1582 6.31581H87.9938V8.64458H85.665V0.493896H89.1582C90.3226 0.493896 91.1959 0.77917 91.7781 1.3439C92.3602 1.91444 92.6513 2.60143 92.6513 3.40486C92.6513 4.20828 92.3602 4.89527 91.7781 5.46581C91.1959 6.03054 90.3226 6.31581 89.1582 6.31581Z" fill="white"/>
<path d="M82.1721 3.81249V7.77139C81.1998 8.47002 80.0354 8.81934 78.6789 8.81934C77.3574 8.81934 76.3036 8.4118 75.506 7.59673C74.7084 6.78166 74.3125 5.77447 74.3125 4.56934C74.3125 3.3642 74.7084 2.35701 75.506 1.54194C76.3036 0.72687 77.3574 0.319336 78.6789 0.319336C79.8433 0.319336 80.8156 0.610432 81.5899 1.19262L80.7166 2.6481C80.1344 2.25803 79.5522 2.06591 78.97 2.06591C78.2307 2.06591 77.6601 2.29297 77.2526 2.74708C76.845 3.20119 76.6413 3.80666 76.6413 4.56934C76.6413 5.33201 76.845 5.93749 77.2526 6.3916C77.6601 6.84571 78.2307 7.07276 78.97 7.07276C79.3368 7.07276 79.6687 6.98543 79.9598 6.81077V5.44262H78.3878V3.81249H82.1721Z" fill="white"/>
<path d="M67.6177 4.17917V8.64458H65.8711V0.493896H67.2276L71.693 4.95931V0.493896H73.4396V8.64458H72.0831L67.6177 4.17917Z" fill="white"/>
<path d="M64.5612 8.64458H62.2324V0.493896H64.5612V8.64458Z" fill="white"/>
<path d="M55.1011 4.17917V8.64458H53.3545V0.493896H54.711L59.1764 4.95931V0.493896H60.923V8.64458H59.5665L55.1011 4.17917Z" fill="white"/>
<path d="M47.5319 2.24047V4.56924H48.6963C49.0165 4.56924 49.2959 4.4528 49.523 4.22575C49.75 3.99869 49.8607 3.72506 49.8607 3.40486C49.8607 3.08465 49.75 2.8052 49.523 2.57814C49.2959 2.35109 49.0165 2.24047 48.6963 2.24047H47.5319ZM48.3644 6.31581H47.5319V8.64458H45.2031V0.493896H48.6963C49.8607 0.493896 50.7339 0.77917 51.3161 1.3439C51.8983 1.91444 52.1894 2.60143 52.1894 3.40486C52.1894 4.20828 51.8983 4.89527 51.3161 5.45999C51.1415 5.63465 50.9435 5.7802 50.7165 5.89664L52.4805 8.64458H49.7442L48.3644 6.31581Z" fill="white"/>
<path d="M38.5313 6.89801L38.0655 8.64458H36.2549L38.4439 0.493896H42.2864L44.4696 8.64458H42.0593L41.5936 6.89801H38.5313ZM41.122 5.15143L40.3419 2.24047H39.783L39.0028 5.15143H41.122Z" fill="white"/>
<path d="M35.6658 0.493896V2.24047H31.5905V3.40486H34.5014V5.15143H31.5905V6.89801H35.6658V8.64458H29.2617V0.493896H35.6658Z" fill="white"/>
<path d="M24.7448 0.493896V6.89801H28.2379V8.64458H22.416V0.493896H24.7448Z" fill="white"/>
<path d="M13.5892 5.86753L10.1484 0.493896H12.9546L14.9865 4.04527L17.2279 0.493896H19.3587L15.918 5.86753V8.64458H13.5892V5.86753Z" fill="white"/>
<path d="M6.99385 0.493896H9.43323V8.64458H7.10447V3.79492L4.46131 8.37095L1.86474 3.87643V8.64458H0.118164V0.493896H2.5983L4.79899 4.29561L6.99385 0.493896Z" fill="white"/>
</svg>
