<svg width="264" height="65" viewBox="0 0 264 65" fill="none" xmlns="http://www.w3.org/2000/svg">
<path d="M8.57618 64C6.19391 64 4.16898 63.1662 2.50139 61.4986C0.833795 59.831 0 57.8061 0 55.4238V11.5762C0 9.19391 0.833795 7.16898 2.50139 5.50139C4.16898 3.8338 6.19391 3 8.57618 3H51.3419C51.8942 3 52.3419 3.44772 52.3419 4V51.5651C52.3419 52.1174 51.8942 52.5651 51.3419 52.5651H8.57618C7.76621 52.5651 7.08726 52.839 6.53934 53.387C5.99142 53.9349 5.71746 54.6138 5.71746 55.4238C5.71746 56.2338 5.99142 56.9127 6.53934 57.4607C7.08726 58.0086 7.76621 58.2825 8.57618 58.2825H45.7397H51.3419C51.8942 58.2825 52.3419 58.7303 52.3419 59.2825V63.1152C52.3419 63.6039 51.9458 64 51.4571 64H8.57618Z" fill="white"/>
<path d="M12.15 38.8C12.15 39.6 11.75 40 10.95 40H9C8.2 40 7.8 39.6 7.8 38.8V20.5C7.8 19.7 8.2 19.3 9 19.3H10.95C11.21 19.3 11.42 19.33 11.58 19.39C11.74 19.43 11.88 19.54 12 19.72L17.67 28.18L22.83 20.62C22.97 20.4 23.11 20.23 23.25 20.11C23.41 19.97 23.65 19.9 23.97 19.9H25.92C26.72 19.9 27.12 20.3 27.12 21.1V39.4C27.12 40.2 26.72 40.6 25.92 40.6H23.97C23.17 40.6 22.77 40.2 22.77 39.4V27.82L19.08 33.25C18.94 33.45 18.81 33.58 18.69 33.64C18.57 33.68 18.44 33.7 18.3 33.7H16.77C16.63 33.7 16.49 33.67 16.35 33.61C16.23 33.55 16.11 33.42 15.99 33.22L12.15 27.46V38.8ZM40.2802 38.8C40.2802 39.6 39.8802 40 39.0802 40H37.1302C36.5902 40 36.2302 39.82 36.0502 39.46C36.0102 39.38 35.9802 39.29 35.9602 39.19C35.9402 39.07 35.9302 38.94 35.9302 38.8V33.04L29.7502 21.67C29.4702 21.13 29.4002 20.74 29.5402 20.5C29.6802 20.24 30.0302 20.05 30.5902 19.93L32.0602 19.63C32.4002 19.55 32.6602 19.53 32.8402 19.57C33.0402 19.59 33.2202 19.7 33.3802 19.9C33.4602 20 33.5402 20.13 33.6202 20.29C33.7202 20.43 33.8302 20.61 33.9502 20.83L37.5202 27.16L37.9102 27.85L41.3902 20.23C41.4902 20.03 41.5702 19.86 41.6302 19.72C41.7102 19.58 41.8002 19.46 41.9002 19.36C42.0602 19.14 42.2402 19.01 42.4402 18.97C42.6602 18.93 42.9402 18.95 43.2802 19.03L44.9002 19.39C45.4602 19.51 45.8002 19.7 45.9202 19.96C46.0402 20.2 45.9802 20.59 45.7402 21.13L40.2802 33.43V38.8Z" fill="url(#paint0_linear_648_4802)"/>
<path d="M72.27 63.76H69.8C68.7867 63.76 68.28 63.2533 68.28 62.24V39.06C68.28 38.0467 68.7867 37.54 69.8 37.54H75.804C77.9573 37.54 79.8827 37.8567 81.58 38.49C83.2773 39.1233 84.6073 40.1493 85.57 41.568C86.558 42.9867 87.052 44.8867 87.052 47.268C87.052 49.4213 86.5327 51.182 85.494 52.55C84.4553 53.918 83.0747 54.9693 81.352 55.704C79.6293 56.4133 77.7547 56.8693 75.728 57.072L73.79 57.262V62.24C73.79 63.2533 73.2833 63.76 72.27 63.76ZM75.956 43.24H73.79V51.562L75.88 51.372C76.868 51.2707 77.7927 51.068 78.654 50.764C79.5153 50.4347 80.212 49.9787 80.744 49.396C81.276 48.8133 81.542 48.104 81.542 47.268C81.542 46.2293 81.276 45.4187 80.744 44.836C80.2373 44.2533 79.5533 43.848 78.692 43.62C77.856 43.3667 76.944 43.24 75.956 43.24ZM102.727 53.424L99.0033 45.292L96.4953 53.424H102.727ZM93.6833 62.582C93.43 63.3673 93.126 63.8487 92.7713 64.026C92.442 64.2033 91.948 64.2287 91.2893 64.102L89.0473 63.646C88.338 63.494 87.92 63.266 87.7933 62.962C87.692 62.6327 87.7553 62.126 87.9833 61.442L95.3173 39.06C95.5453 38.4013 95.786 37.9833 96.0393 37.806C96.2926 37.6287 96.66 37.54 97.1413 37.54H100.409C100.739 37.54 100.967 37.578 101.093 37.654C101.22 37.7047 101.321 37.844 101.397 38.072C101.499 38.2747 101.651 38.604 101.853 39.06L112.265 60.758C112.595 61.442 112.671 61.9487 112.493 62.278C112.341 62.6073 111.911 62.8353 111.201 62.962L109.149 63.342C108.44 63.4687 107.921 63.4433 107.591 63.266C107.287 63.114 106.945 62.6327 106.565 61.822L104.893 58.174H95.0513L93.6833 62.582ZM124.481 61.48C124.481 62.4933 123.975 63 122.961 63H120.491C119.478 63 118.971 62.4933 118.971 61.48V43.24H112.245C111.257 43.24 110.763 42.746 110.763 41.758V39.06C110.763 38.0467 111.27 37.54 112.283 37.54H131.131C132.145 37.54 132.651 38.0467 132.651 39.06V41.758C132.651 42.746 132.157 43.24 131.169 43.24H124.481V61.48ZM156.117 63.76H153.647C152.634 63.76 152.127 63.2533 152.127 62.24V52.626L142.475 53.31V61.48C142.475 62.4933 141.968 63 140.955 63H138.485C137.472 63 136.965 62.4933 136.965 61.48V38.3C136.965 37.2867 137.472 36.78 138.485 36.78H140.955C141.968 36.78 142.475 37.2867 142.475 38.3V47.8L152.127 47.116V39.06C152.127 38.0467 152.634 37.54 153.647 37.54H156.117C157.13 37.54 157.637 38.0467 157.637 39.06V62.24C157.637 63.2533 157.13 63.76 156.117 63.76Z" fill="white"/>
<path d="M81.568 29.962L68.8 29.24C67.7867 29.24 67.28 28.746 67.28 27.758V6.06C67.28 5.04667 67.7867 4.54 68.8 4.54H71.27C72.2833 4.54 72.79 5.04667 72.79 6.06V24.148L81.53 24.642C82.0367 24.6673 82.4167 24.8067 82.67 25.06C82.9233 25.288 83.05 25.6553 83.05 26.162V28.48C83.05 29.4933 82.556 29.9873 81.568 29.962ZM88.5318 30C87.4931 30 86.9865 29.4933 87.0118 28.48L87.7718 6.06C87.7971 5.04667 88.3038 4.54 89.2918 4.54H102.402C103.415 4.54 103.922 5.04667 103.922 6.06V8.378C103.922 9.366 103.428 9.86 102.44 9.86H92.9778L92.7878 14.724L100.882 14.192C101.895 14.116 102.402 14.6227 102.402 15.712V18.03C102.402 18.942 101.908 19.436 100.92 19.512L92.6358 20.082L92.4458 24.68H102.402C103.415 24.68 103.922 25.1867 103.922 26.2V28.518C103.922 29.506 103.428 30 102.44 30H88.5318ZM122.062 20.424L118.338 12.292L115.83 20.424H122.062ZM113.018 29.582C112.764 30.3673 112.46 30.8487 112.106 31.026C111.776 31.2033 111.282 31.2287 110.624 31.102L108.382 30.646C107.672 30.494 107.254 30.266 107.128 29.962C107.026 29.6327 107.09 29.126 107.318 28.442L114.652 6.06C114.88 5.40133 115.12 4.98333 115.374 4.806C115.627 4.62867 115.994 4.54 116.476 4.54H119.744C120.073 4.54 120.301 4.578 120.428 4.654C120.554 4.70467 120.656 4.844 120.732 5.072C120.833 5.27467 120.985 5.604 121.188 6.06L131.6 27.758C131.929 28.442 132.005 28.9487 131.828 29.278C131.676 29.6073 131.245 29.8353 130.536 29.962L128.484 30.342C127.774 30.4687 127.255 30.4433 126.926 30.266C126.622 30.114 126.28 29.6327 125.9 28.822L124.228 25.174H114.386L113.018 29.582ZM152.567 31.102C152.137 31.2033 151.795 31.2287 151.541 31.178C151.313 31.1527 151.098 31.0133 150.895 30.76C150.718 30.5067 150.477 30.114 150.173 29.582L146.183 22.704C145.778 22.7547 145.36 22.7927 144.929 22.818C144.524 22.8433 144.093 22.856 143.637 22.856H141.623V28.48C141.623 29.4933 141.117 30 140.103 30H137.633C136.62 30 136.113 29.4933 136.113 28.48V6.06C136.113 5.04667 136.62 4.54 137.633 4.54H143.637C147.235 4.54 150.009 5.3 151.959 6.82C153.91 8.31467 154.885 10.6073 154.885 13.698C154.885 17.0927 153.669 19.5627 151.237 21.108L155.303 28.518C155.937 29.7087 155.582 30.4433 154.239 30.722L152.567 31.102ZM143.789 10.24H141.623V17.156H143.789C145.74 17.156 147.159 16.852 148.045 16.244C148.932 15.636 149.375 14.7873 149.375 13.698C149.375 12.6087 148.932 11.76 148.045 11.152C147.159 10.544 145.74 10.24 143.789 10.24ZM165.706 29.24C165.706 30.2533 165.199 30.76 164.186 30.76H161.716C160.703 30.76 160.196 30.2533 160.196 29.24V6.82C160.196 5.80667 160.703 5.3 161.716 5.3H164.186C164.566 5.3 164.845 5.35067 165.022 5.452C165.047 5.452 165.06 5.46467 165.06 5.49C165.085 5.49 165.098 5.50266 165.098 5.528C165.123 5.528 165.149 5.528 165.174 5.528C165.174 5.55333 165.174 5.566 165.174 5.566C165.199 5.566 165.212 5.566 165.212 5.566C165.237 5.59133 165.263 5.61667 165.288 5.642C165.313 5.642 165.339 5.66733 165.364 5.718C165.415 5.76867 165.453 5.80667 165.478 5.832L165.516 5.908L175.662 21.07L176.688 6.06C176.739 5.55333 176.878 5.17333 177.106 4.92C177.334 4.66667 177.701 4.54 178.208 4.54H180.678C181.767 4.54 182.274 5.04667 182.198 6.06L180.678 28.48C180.653 28.9867 180.513 29.3667 180.26 29.62C180.032 29.8733 179.665 30 179.158 30H176.688C176.156 30 175.751 29.8607 175.472 29.582C175.447 29.5313 175.421 29.4933 175.396 29.468C175.371 29.4173 175.333 29.3793 175.282 29.354L165.706 15.066V29.24ZM193.017 29.24C193.017 30.2533 192.51 30.76 191.497 30.76H189.027C188.014 30.76 187.507 30.2533 187.507 29.24V5.3C187.507 4.28666 188.014 3.78 189.027 3.78H191.497C192.51 3.78 193.017 4.28666 193.017 5.3V29.24ZM204.594 29.24C204.594 30.2533 204.087 30.76 203.074 30.76H200.604C199.59 30.76 199.084 30.2533 199.084 29.24V6.82C199.084 5.80667 199.59 5.3 200.604 5.3H203.074C203.454 5.3 203.732 5.35067 203.91 5.452C203.935 5.452 203.948 5.46467 203.948 5.49C203.973 5.49 203.986 5.50266 203.986 5.528C204.011 5.528 204.036 5.528 204.062 5.528C204.062 5.55333 204.062 5.566 204.062 5.566C204.087 5.566 204.1 5.566 204.1 5.566C204.125 5.59133 204.15 5.61667 204.176 5.642C204.201 5.642 204.226 5.66733 204.252 5.718C204.302 5.76867 204.34 5.80667 204.366 5.832L204.404 5.908L214.55 21.07L215.576 6.06C215.626 5.55333 215.766 5.17333 215.994 4.92C216.222 4.66667 216.589 4.54 217.096 4.54H219.566C220.655 4.54 221.162 5.04667 221.086 6.06L219.566 28.48C219.54 28.9867 219.401 29.3667 219.148 29.62C218.92 29.8733 218.552 30 218.046 30H215.576C215.044 30 214.638 29.8607 214.36 29.582C214.334 29.5313 214.309 29.4933 214.284 29.468C214.258 29.4173 214.22 29.3793 214.17 29.354L204.594 15.066V29.24ZM247.333 30.76C247.333 31.7227 246.813 32.204 245.775 32.204H243.305C242.317 32.204 241.823 31.6847 241.823 30.646V29.012C241.189 29.3413 240.48 29.5947 239.695 29.772C238.909 29.924 238.162 30 237.453 30C234.945 30 232.766 29.468 230.917 28.404C229.093 27.3147 227.674 25.7947 226.661 23.844C225.673 21.868 225.179 19.55 225.179 16.89C225.179 14.306 225.711 12.064 226.775 10.164C227.839 8.23867 229.321 6.744 231.221 5.68C233.146 4.616 235.401 4.084 237.985 4.084C239.353 4.084 240.759 4.274 242.203 4.654C243.672 5.034 245.027 5.604 246.269 6.364C246.699 6.64267 246.775 7.11133 246.497 7.77L245.357 10.582C245.205 10.962 245.002 11.2027 244.749 11.304C244.495 11.38 244.153 11.3293 243.723 11.152C243.292 10.9493 242.747 10.7467 242.089 10.544C241.455 10.3413 240.771 10.164 240.037 10.012C239.327 9.86 238.643 9.784 237.985 9.784C236.389 9.784 235.046 10.1007 233.957 10.734C232.893 11.342 232.082 12.1907 231.525 13.28C230.967 14.344 230.689 15.5473 230.689 16.89C230.689 18.3847 230.967 19.7273 231.525 20.918C232.107 22.0833 232.969 23.008 234.109 23.692C235.249 24.3507 236.693 24.68 238.441 24.68C238.846 24.68 239.353 24.6547 239.961 24.604C240.569 24.528 241.189 24.376 241.823 24.148V20.842L237.833 21.032C237.706 21.032 237.592 21.032 237.491 21.032C237.389 21.0067 237.288 20.9813 237.187 20.956C236.629 20.7787 236.351 20.31 236.351 19.55V18.904V17.042C236.351 16.054 236.857 15.5473 237.871 15.522L245.813 15.142C245.939 15.142 246.053 15.1547 246.155 15.18C246.281 15.18 246.395 15.1927 246.497 15.218C247.054 15.3953 247.333 15.8767 247.333 16.662V18.22C247.333 18.3467 247.333 18.486 247.333 18.638C247.333 18.7647 247.333 18.8913 247.333 19.018V30.76Z" fill="white"/>
<defs>
<linearGradient id="paint0_linear_648_4802" x1="54.4347" y1="3.17391" x2="0.310058" y2="36.4372" gradientUnits="userSpaceOnUse">
<stop stop-color="#50CE61"/>
<stop offset="0.5" stop-color="#36AC9B"/>
<stop offset="0.755" stop-color="#8390C8"/>
<stop offset="1" stop-color="#736CC4"/>
</linearGradient>
</defs>
</svg>
