<svg width="177" height="28" viewBox="0 0 177 28" fill="none" xmlns="http://www.w3.org/2000/svg">
<path d="M4.2178 27.5C3.04619 27.5 2.05032 27.0899 1.23019 26.2698C0.410063 25.4497 0 24.4538 0 23.2822V4.7178C0 3.54619 0.410063 2.55032 1.23019 1.73019C2.05032 0.910063 3.04619 0.5 4.2178 0.5H25.7419C26.2942 0.5 26.7419 0.947715 26.7419 1.5V20.8763C26.7419 21.4286 26.2942 21.8763 25.7419 21.8763H4.2178C3.81945 21.8763 3.48554 22.011 3.21607 22.2805C2.9466 22.5499 2.81186 22.8839 2.81186 23.2822C2.81186 23.6806 2.9466 24.0145 3.21607 24.2839C3.48554 24.5534 3.81945 24.6881 4.2178 24.6881H23.4949H25.7419C26.2942 24.6881 26.7419 25.1359 26.7419 25.6881V27.0648C26.7419 27.3052 26.5471 27.5 26.3068 27.5H4.2178Z" fill="#4DCC80"/>
<path d="M6.87 15.94C6.87 16.3133 6.68333 16.5 6.31 16.5H5.4C5.02667 16.5 4.84 16.3133 4.84 15.94V7.4C4.84 7.02667 5.02667 6.84 5.4 6.84H6.31C6.43133 6.84 6.52933 6.854 6.604 6.882C6.67867 6.90067 6.744 6.952 6.8 7.036L9.446 10.984L11.854 7.456C11.9193 7.35333 11.9847 7.274 12.05 7.218C12.1247 7.15267 12.2367 7.12 12.386 7.12H13.296C13.6693 7.12 13.856 7.30667 13.856 7.68V16.22C13.856 16.5933 13.6693 16.78 13.296 16.78H12.386C12.0127 16.78 11.826 16.5933 11.826 16.22V10.816L10.104 13.35C10.0387 13.4433 9.978 13.504 9.922 13.532C9.866 13.5507 9.80533 13.56 9.74 13.56H9.026C8.96067 13.56 8.89533 13.546 8.83 13.518C8.774 13.49 8.718 13.4293 8.662 13.336L6.87 10.648V15.94ZM19.9974 15.94C19.9974 16.3133 19.8107 16.5 19.4374 16.5H18.5274C18.2754 16.5 18.1074 16.416 18.0234 16.248C18.0047 16.2107 17.9907 16.1687 17.9814 16.122C17.9721 16.066 17.9674 16.0053 17.9674 15.94V13.252L15.0834 7.946C14.9527 7.694 14.9201 7.512 14.9854 7.4C15.0507 7.27867 15.2141 7.19 15.4754 7.134L16.1614 6.994C16.3201 6.95667 16.4414 6.94733 16.5254 6.966C16.6187 6.97533 16.7027 7.02667 16.7774 7.12C16.8147 7.16667 16.8521 7.22733 16.8894 7.302C16.9361 7.36733 16.9874 7.45133 17.0434 7.554L18.7094 10.508L18.8914 10.83L20.5154 7.274C20.5621 7.18067 20.5994 7.10133 20.6274 7.036C20.6647 6.97067 20.7067 6.91467 20.7534 6.868C20.8281 6.76533 20.9121 6.70467 21.0054 6.686C21.1081 6.66733 21.2387 6.67667 21.3974 6.714L22.1534 6.882C22.4147 6.938 22.5734 7.02667 22.6294 7.148C22.6854 7.26 22.6574 7.442 22.5454 7.694L19.9974 13.434V15.94Z" fill="white"/>
<path d="M40.0262 20.481L33.6422 20.12C33.1355 20.12 32.8822 19.873 32.8822 19.379V8.53C32.8822 8.02333 33.1355 7.77 33.6422 7.77H34.8772C35.3839 7.77 35.6372 8.02333 35.6372 8.53V17.574L40.0072 17.821C40.2605 17.8337 40.4505 17.9033 40.5772 18.03C40.7039 18.144 40.7672 18.3277 40.7672 18.581V19.74C40.7672 20.2467 40.5202 20.4937 40.0262 20.481ZM43.5081 20.5C42.9888 20.5 42.7354 20.2467 42.7481 19.74L43.1281 8.53C43.1408 8.02333 43.3941 7.77 43.8881 7.77H50.4431C50.9498 7.77 51.2031 8.02333 51.2031 8.53V9.689C51.2031 10.183 50.9561 10.43 50.4621 10.43H45.7311L45.6361 12.862L49.6831 12.596C50.1898 12.558 50.4431 12.8113 50.4431 13.356V14.515C50.4431 14.971 50.1961 15.218 49.7021 15.256L45.5601 15.541L45.4651 17.84H50.4431C50.9498 17.84 51.2031 18.0933 51.2031 18.6V19.759C51.2031 20.253 50.9561 20.5 50.4621 20.5H43.5081ZM60.2731 15.712L58.4111 11.646L57.1571 15.712H60.2731ZM55.7511 20.291C55.6244 20.6837 55.4724 20.9243 55.2951 21.013C55.1304 21.1017 54.8834 21.1143 54.5541 21.051L53.4331 20.823C53.0784 20.747 52.8694 20.633 52.8061 20.481C52.7554 20.3163 52.7871 20.063 52.9011 19.721L56.5681 8.53C56.6821 8.20067 56.8024 7.99167 56.9291 7.903C57.0557 7.81433 57.2394 7.77 57.4801 7.77H59.1141C59.2787 7.77 59.3927 7.789 59.4561 7.827C59.5194 7.85233 59.5701 7.922 59.6081 8.036C59.6587 8.13733 59.7347 8.302 59.8361 8.53L65.0421 19.379C65.2067 19.721 65.2447 19.9743 65.1561 20.139C65.0801 20.3037 64.8647 20.4177 64.5101 20.481L63.4841 20.671C63.1294 20.7343 62.8697 20.7217 62.7051 20.633C62.5531 20.557 62.3821 20.3163 62.1921 19.911L61.3561 18.087H56.4351L55.7511 20.291ZM75.5259 21.051C75.3106 21.1017 75.1396 21.1143 75.0129 21.089C74.8989 21.0763 74.7912 21.0067 74.6899 20.88C74.6012 20.7533 74.4809 20.557 74.3289 20.291L72.3339 16.852C72.1312 16.8773 71.9222 16.8963 71.7069 16.909C71.5042 16.9217 71.2889 16.928 71.0609 16.928H70.0539V19.74C70.0539 20.2467 69.8006 20.5 69.2939 20.5H68.0589C67.5522 20.5 67.2989 20.2467 67.2989 19.74V8.53C67.2989 8.02333 67.5522 7.77 68.0589 7.77H71.0609C72.8596 7.77 74.2466 8.15 75.2219 8.91C76.1972 9.65733 76.6849 10.8037 76.6849 12.349C76.6849 14.0463 76.0769 15.2813 74.8609 16.054L76.8939 19.759C77.2106 20.3543 77.0332 20.7217 76.3619 20.861L75.5259 21.051ZM71.1369 10.62H70.0539V14.078H71.1369C72.1122 14.078 72.8216 13.926 73.2649 13.622C73.7082 13.318 73.9299 12.8937 73.9299 12.349C73.9299 11.8043 73.7082 11.38 73.2649 11.076C72.8216 10.772 72.1122 10.62 71.1369 10.62ZM82.0952 20.12C82.0952 20.6267 81.8418 20.88 81.3352 20.88H80.1002C79.5935 20.88 79.3402 20.6267 79.3402 20.12V8.91C79.3402 8.40333 79.5935 8.15 80.1002 8.15H81.3352C81.5252 8.15 81.6645 8.17533 81.7532 8.226C81.7658 8.226 81.7722 8.23233 81.7722 8.245C81.7848 8.245 81.7912 8.25133 81.7912 8.264C81.8038 8.264 81.8165 8.264 81.8292 8.264C81.8292 8.27667 81.8292 8.283 81.8292 8.283C81.8418 8.283 81.8482 8.283 81.8482 8.283C81.8608 8.29567 81.8735 8.30833 81.8862 8.321C81.8988 8.321 81.9115 8.33367 81.9242 8.359C81.9495 8.38433 81.9685 8.40333 81.9812 8.416L82.0002 8.454L87.0732 16.035L87.5862 8.53C87.6115 8.27667 87.6812 8.08667 87.7952 7.96C87.9092 7.83333 88.0928 7.77 88.3462 7.77H89.5812C90.1258 7.77 90.3792 8.02333 90.3412 8.53L89.5812 19.74C89.5685 19.9933 89.4988 20.1833 89.3722 20.31C89.2582 20.4367 89.0745 20.5 88.8212 20.5H87.5862C87.3202 20.5 87.1175 20.4303 86.9782 20.291C86.9655 20.2657 86.9528 20.2467 86.9402 20.234C86.9275 20.2087 86.9085 20.1897 86.8832 20.177L82.0952 13.033V20.12ZM95.7507 20.12C95.7507 20.6267 95.4973 20.88 94.9907 20.88H93.7557C93.249 20.88 92.9957 20.6267 92.9957 20.12V8.15C92.9957 7.64333 93.249 7.39 93.7557 7.39H94.9907C95.4973 7.39 95.7507 7.64333 95.7507 8.15V20.12ZM101.539 20.12C101.539 20.6267 101.286 20.88 100.779 20.88H99.544C99.0373 20.88 98.784 20.6267 98.784 20.12V8.91C98.784 8.40333 99.0373 8.15 99.544 8.15H100.779C100.969 8.15 101.108 8.17533 101.197 8.226C101.21 8.226 101.216 8.23233 101.216 8.245C101.229 8.245 101.235 8.25133 101.235 8.264C101.248 8.264 101.26 8.264 101.273 8.264C101.273 8.27667 101.273 8.283 101.273 8.283C101.286 8.283 101.292 8.283 101.292 8.283C101.305 8.29567 101.317 8.30833 101.33 8.321C101.343 8.321 101.355 8.33367 101.368 8.359C101.393 8.38433 101.412 8.40333 101.425 8.416L101.444 8.454L106.517 16.035L107.03 8.53C107.055 8.27667 107.125 8.08667 107.239 7.96C107.353 7.83333 107.537 7.77 107.79 7.77H109.025C109.57 7.77 109.823 8.02333 109.785 8.53L109.025 19.74C109.012 19.9933 108.943 20.1833 108.816 20.31C108.702 20.4367 108.518 20.5 108.265 20.5H107.03C106.764 20.5 106.561 20.4303 106.422 20.291C106.409 20.2657 106.397 20.2467 106.384 20.234C106.371 20.2087 106.352 20.1897 106.327 20.177L101.539 13.033V20.12ZM122.908 20.88C122.908 21.3613 122.649 21.602 122.129 21.602H120.894C120.4 21.602 120.153 21.3423 120.153 20.823V20.006C119.837 20.1707 119.482 20.2973 119.089 20.386C118.697 20.462 118.323 20.5 117.968 20.5C116.714 20.5 115.625 20.234 114.7 19.702C113.788 19.1573 113.079 18.3973 112.572 17.422C112.078 16.434 111.831 15.275 111.831 13.945C111.831 12.653 112.097 11.532 112.629 10.582C113.161 9.61933 113.902 8.872 114.852 8.34C115.815 7.808 116.942 7.542 118.234 7.542C118.918 7.542 119.621 7.637 120.343 7.827C121.078 8.017 121.756 8.302 122.376 8.682C122.592 8.82133 122.63 9.05567 122.49 9.385L121.92 10.791C121.844 10.981 121.743 11.1013 121.616 11.152C121.49 11.19 121.319 11.1647 121.103 11.076C120.888 10.9747 120.616 10.8733 120.286 10.772C119.97 10.6707 119.628 10.582 119.26 10.506C118.906 10.43 118.564 10.392 118.234 10.392C117.436 10.392 116.765 10.5503 116.22 10.867C115.688 11.171 115.283 11.5953 115.004 12.14C114.726 12.672 114.586 13.2737 114.586 13.945C114.586 14.6923 114.726 15.3637 115.004 15.959C115.296 16.5417 115.726 17.004 116.296 17.346C116.866 17.6753 117.588 17.84 118.462 17.84C118.665 17.84 118.918 17.8273 119.222 17.802C119.526 17.764 119.837 17.688 120.153 17.574V15.921L118.158 16.016C118.095 16.016 118.038 16.016 117.987 16.016C117.937 16.0033 117.886 15.9907 117.835 15.978C117.557 15.8893 117.417 15.655 117.417 15.275V14.952V14.021C117.417 13.527 117.671 13.2737 118.177 13.261L122.148 13.071C122.212 13.071 122.269 13.0773 122.319 13.09C122.383 13.09 122.44 13.0963 122.49 13.109C122.769 13.1977 122.908 13.4383 122.908 13.831V14.61C122.908 14.6733 122.908 14.743 122.908 14.819C122.908 14.8823 122.908 14.9457 122.908 15.009V20.88Z" fill="#62C3CE"/>
<path d="M132.877 20.88H131.642C131.136 20.88 130.882 20.6267 130.882 20.12V8.53C130.882 8.02333 131.136 7.77 131.642 7.77H134.644C135.721 7.77 136.684 7.92833 137.532 8.245C138.381 8.56167 139.046 9.07467 139.527 9.784C140.021 10.4933 140.268 11.4433 140.268 12.634C140.268 13.7107 140.009 14.591 139.489 15.275C138.97 15.959 138.28 16.4847 137.418 16.852C136.557 17.2067 135.62 17.4347 134.606 17.536L133.637 17.631V20.12C133.637 20.6267 133.384 20.88 132.877 20.88ZM134.72 10.62H133.637V14.781L134.682 14.686C135.176 14.6353 135.639 14.534 136.069 14.382C136.5 14.2173 136.848 13.9893 137.114 13.698C137.38 13.4067 137.513 13.052 137.513 12.634C137.513 12.1147 137.38 11.7093 137.114 11.418C136.861 11.1267 136.519 10.924 136.088 10.81C135.67 10.6833 135.214 10.62 134.72 10.62ZM148.106 15.712L146.244 11.646L144.99 15.712H148.106ZM143.584 20.291C143.457 20.6837 143.305 20.9243 143.128 21.013C142.963 21.1017 142.716 21.1143 142.387 21.051L141.266 20.823C140.911 20.747 140.702 20.633 140.639 20.481C140.588 20.3163 140.62 20.063 140.734 19.721L144.401 8.53C144.515 8.20067 144.635 7.99167 144.762 7.903C144.889 7.81433 145.072 7.77 145.313 7.77H146.947C147.112 7.77 147.226 7.789 147.289 7.827C147.352 7.85233 147.403 7.922 147.441 8.036C147.492 8.13733 147.568 8.302 147.669 8.53L152.875 19.379C153.04 19.721 153.078 19.9743 152.989 20.139C152.913 20.3037 152.698 20.4177 152.343 20.481L151.317 20.671C150.962 20.7343 150.703 20.7217 150.538 20.633C150.386 20.557 150.215 20.3163 150.025 19.911L149.189 18.087H144.268L143.584 20.291ZM158.983 19.74C158.983 20.2467 158.73 20.5 158.223 20.5H156.988C156.481 20.5 156.228 20.2467 156.228 19.74V10.62H152.865C152.371 10.62 152.124 10.373 152.124 9.879V8.53C152.124 8.02333 152.377 7.77 152.884 7.77H162.308C162.815 7.77 163.068 8.02333 163.068 8.53V9.879C163.068 10.373 162.821 10.62 162.327 10.62H158.983V19.74ZM174.801 20.88H173.566C173.059 20.88 172.806 20.6267 172.806 20.12V15.313L167.98 15.655V19.74C167.98 20.2467 167.726 20.5 167.22 20.5H165.985C165.478 20.5 165.225 20.2467 165.225 19.74V8.15C165.225 7.64333 165.478 7.39 165.985 7.39H167.22C167.726 7.39 167.98 7.64333 167.98 8.15V12.9L172.806 12.558V8.53C172.806 8.02333 173.059 7.77 173.566 7.77H174.801C175.307 7.77 175.561 8.02333 175.561 8.53V20.12C175.561 20.6267 175.307 20.88 174.801 20.88Z" fill="#0055A7"/>
</svg>
