<svg width="90" height="17" viewBox="0 0 90 17" fill="none" xmlns="http://www.w3.org/2000/svg">
<g clip-path="url(#clip0_55_8516)">
<path d="M42.7244 12.8772C43.7484 12.8207 44.8293 12.7078 45.7964 12.5948L46.024 14.628C43.9191 14.9104 41.3021 15.0799 39.4248 15.0799H37.4336L37.3198 12.9902H39.6523C39.8799 12.9902 40.1643 12.9902 40.4488 12.9902V11.4088C38.8559 11.0699 37.7181 9.82738 37.7181 7.6812V7.51176C37.7181 4.85728 39.4248 3.67123 41.5297 3.67123C43.6346 3.67123 45.3413 4.85728 45.3413 7.51176V7.6812C45.3413 9.7709 44.2604 10.9569 42.7244 11.3523V12.8772ZM39.9937 7.62472C39.9937 8.86724 40.7332 9.43203 41.5297 9.43203C42.3261 9.43203 43.0657 8.92372 43.0657 7.62472V7.45528C43.0657 6.21276 42.3261 5.64797 41.5297 5.64797C40.7332 5.64797 39.9937 6.15628 39.9937 7.45528V7.62472ZM50.6321 8.07655V10.1662H48.9254V17.0001H46.6498V3.10645H48.9254V8.07655H50.6321Z" fill="white"/>
<path d="M51.3149 10.5051V8.35894C51.3149 4.91375 53.0216 3.61475 55.1835 3.61475C57.2884 3.61475 58.9951 4.91375 58.9951 8.35894V10.5051C58.9951 13.9503 57.2884 15.2493 55.1835 15.2493C53.0216 15.2493 51.3149 13.9503 51.3149 10.5051ZM56.7195 10.5051V8.35894C56.7195 6.26924 55.9799 5.70445 55.1835 5.70445C54.387 5.70445 53.5905 6.26924 53.5905 8.35894V10.5051C53.5905 12.5948 54.3301 13.1596 55.1835 13.1596C56.0368 13.1596 56.7195 12.5948 56.7195 10.5051ZM60.7018 3.10645H62.9774V17.0001H60.7018V3.10645Z" fill="white"/>
<path d="M69.8039 7.28585V3.84066H72.0226V14.854H64.8545V3.84066H67.0732V7.28585H69.8039ZM67.0732 12.7643H69.8039V9.37555H67.0732V12.7643ZM74.0707 3.10645H76.3463V17.0001H74.0707V3.10645Z" fill="white"/>
<path d="M83.856 7.79415C83.5716 9.43203 82.3769 10.2792 80.8977 10.2792C79.1342 10.2792 77.8257 9.14963 77.8257 6.83402V6.66458C77.8257 4.34897 79.1342 3.2194 80.8977 3.2194C82.4338 3.2194 83.5716 4.06658 83.856 5.76093H84.88V3.2194H86.9281V10.5616H84.88V7.79415H83.856ZM79.9306 6.83402C79.9306 7.79415 80.3857 8.30246 80.8977 8.30246C81.4098 8.30246 81.8649 7.79415 81.8649 6.83402V6.72106C81.8649 5.76093 81.4098 5.25262 80.8977 5.25262C80.3857 5.25262 79.9306 5.76093 79.9306 6.72106V6.83402ZM80.272 11.2393H89.9433V17.0001H80.272V11.2393ZM82.5476 14.9104H87.6677V13.2161H82.5476V14.9104ZM87.8383 3.10645H90.0001V10.5616H87.8383V3.10645Z" fill="white"/>
<path d="M27.421 2.99354V17.0002H24.0645V0.113141C24.0645 0.000184091 24.292 -0.0562943 24.3489 0.000184093L27.421 2.99354Z" fill="white"/>
<path d="M0 5.25249V0H3.35651V8.07641C3.35651 8.18937 3.18584 8.24585 3.07206 8.13289L0 5.25249Z" fill="white"/>
<path d="M8.19221 14.0066V0H4.77881V16.8306C4.77881 16.9435 5.00637 17 5.12015 16.9435L8.19221 14.0066Z" fill="white"/>
<path d="M12.9708 0H9.61426V17H12.9708V0Z" fill="white"/>
<path d="M14.7346 0.0566882C14.6209 -0.0562686 14.4502 0.00020984 14.4502 0.113167V8.07662C14.4502 8.18958 14.6778 8.24606 14.7346 8.1331L17.8067 5.19622V2.93709L14.7346 0.0566882Z" fill="white"/>
<path d="M14.7346 8.81072C14.6209 8.69776 14.4502 8.75424 14.4502 8.92368V16.8871C14.4502 17.0001 14.6778 17.0566 14.7346 16.9436L17.8067 14.0067V11.7476L14.7346 8.81072Z" fill="white"/>
<path d="M22.5855 2.99354V17.0002H19.229V0.113141C19.229 0.000184091 19.3997 -0.0562943 19.5135 0.000184093L22.5855 2.99354Z" fill="white"/>
<path d="M32.1998 2.99354V17.0002H28.8433V0.113141C28.8433 0.000184091 29.0708 -0.0562943 29.1277 0.000184093L32.1998 2.99354Z" fill="white"/>
</g>
<defs>
<clipPath id="clip0_55_8516">
<rect width="90" height="17" fill="white"/>
</clipPath>
</defs>
</svg>
