<svg width="97" height="19" viewBox="0 0 97 19" fill="none" xmlns="http://www.w3.org/2000/svg">
<g clip-path="url(#clip0_163_1421)">
<path d="M46.1882 13.8357C47.2805 13.7751 48.4334 13.6537 49.4651 13.5323L49.7078 15.7169C47.4625 16.0203 44.6711 16.2024 42.6686 16.2024H40.5447L40.4233 13.9571H42.9113C43.1541 13.9571 43.4575 13.9571 43.7609 13.9571V12.258C42.0618 11.8939 40.8481 10.5589 40.8481 8.25294V8.07089C40.8481 5.21881 42.6686 3.94447 44.9139 3.94447C47.1591 3.94447 48.9796 5.21881 48.9796 8.07089V8.25294C48.9796 10.4982 47.8266 11.7725 46.1882 12.1973V13.8357ZM43.2754 8.19226C43.2754 9.52728 44.0643 10.1341 44.9139 10.1341C45.7634 10.1341 46.5523 9.58796 46.5523 8.19226V8.01021C46.5523 6.67519 45.7634 6.06837 44.9139 6.06837C44.0643 6.06837 43.2754 6.61451 43.2754 8.01021V8.19226ZM54.6231 8.67772V10.923H52.8026V18.2656H50.3753V3.33765H52.8026V8.67772H54.6231Z" fill="#0055A7"/>
<path d="M55.3516 11.2871V8.98113C55.3516 5.27949 57.172 3.88379 59.478 3.88379C61.7232 3.88379 63.5437 5.27949 63.5437 8.98113V11.2871C63.5437 14.9887 61.7232 16.3844 59.478 16.3844C57.172 16.3844 55.3516 14.9887 55.3516 11.2871ZM61.1164 11.2871V8.98113C61.1164 6.73587 60.3275 6.12905 59.478 6.12905C58.6284 6.12905 57.7789 6.73587 57.7789 8.98113V11.2871C57.7789 13.5323 58.5677 14.1392 59.478 14.1392C60.3882 14.1392 61.1164 13.5323 61.1164 11.2871ZM65.3642 3.33765H67.7915V18.2656H65.3642V3.33765Z" fill="#0055A7"/>
<path d="M75.0733 7.82816V4.12652H77.44V15.9596H69.7939V4.12652H72.1606V7.82816H75.0733ZM72.1606 13.7144H75.0733V10.0734H72.1606V13.7144ZM79.6245 3.33765H82.0519V18.2656H79.6245V3.33765Z" fill="#0055A7"/>
<path d="M90.0618 8.37431C89.7583 10.1341 88.484 11.0443 86.9063 11.0443C85.0251 11.0443 83.6294 9.83069 83.6294 7.3427V7.16065C83.6294 4.67266 85.0251 3.45901 86.9063 3.45901C88.5447 3.45901 89.7583 4.36925 90.0618 6.18973H91.1541V3.45901H93.3386V11.3478H91.1541V8.37431H90.0618ZM85.8747 7.3427C85.8747 8.37431 86.3601 8.92045 86.9063 8.92045C87.4524 8.92045 87.9379 8.37431 87.9379 7.3427V7.22134C87.9379 6.18973 87.4524 5.64359 86.9063 5.64359C86.3601 5.64359 85.8747 6.18973 85.8747 7.22134V7.3427ZM86.2388 12.0759H96.5548V18.2656H86.2388V12.0759ZM88.6661 16.0203H94.1275V14.1998H88.6661V16.0203ZM94.3096 3.33765H96.6155V11.3478H94.3096V3.33765Z" fill="#0055A7"/>
<path d="M29.865 3.21606V18.2654H26.2847V0.121246C26.2847 -0.000119682 26.5274 -0.0608023 26.5881 -0.000119679L29.865 3.21606Z" fill="#0055A7"/>
<path d="M0.615723 5.64349V0H4.19601V8.67763C4.19601 8.799 4.01396 8.85968 3.89259 8.73831L0.615723 5.64349Z" fill="#E83844"/>
<path d="M9.35385 15.0493V0H5.71289V18.0834C5.71289 18.2048 5.95562 18.2655 6.07699 18.2048L9.35385 15.0493Z" fill="#E83844"/>
<path d="M14.4514 0H10.8711V18.2655H14.4514V0Z" fill="#E83844"/>
<path d="M16.3327 0.0607833C16.2113 -0.060582 16.0293 0.000100657 16.0293 0.121466V8.67772C16.0293 8.79909 16.272 8.85977 16.3327 8.73841L19.6096 5.58291V3.1556L16.3327 0.0607833Z" fill="#E83844"/>
<path d="M16.3327 9.46646C16.2113 9.3451 16.0293 9.40578 16.0293 9.58783V18.1441C16.0293 18.2654 16.272 18.3261 16.3327 18.2048L19.6096 15.0493V12.622L16.3327 9.46646Z" fill="#E83844"/>
<path d="M24.7067 3.21606V18.2654H21.1265V0.121246C21.1265 -0.000119682 21.3085 -0.0608023 21.4299 -0.000119679L24.7067 3.21606Z" fill="#0055A7"/>
<path d="M34.9621 3.21606V18.2654H31.3818V0.121246C31.3818 -0.000119682 31.6246 -0.0608023 31.6852 -0.000119679L34.9621 3.21606Z" fill="#0055A7"/>
</g>
<defs>
<clipPath id="clip0_163_1421">
<rect width="96" height="18.2655" fill="white" transform="translate(0.615723)"/>
</clipPath>
</defs>
</svg>
