<svg xmlns="http://www.w3.org/2000/svg" width="354.063" height="349.479" viewBox="0 0 354.063 349.479">
  <g id="ico_" transform="translate(0 131.889) rotate(-30)" fill="none">
    <path d="M114.237,12.844a30,30,0,0,1,35.3,0l96.635,70.317a30,30,0,0,1,10.885,33.515L220.13,230.509a30,30,0,0,1-28.536,20.742H72.184a30,30,0,0,1-28.536-20.742L6.718,116.676A30,30,0,0,1,17.6,83.161Z" stroke="none"/>
    <path d="M 131.8885803222656 61.83613586425781 L 58.75605773925781 115.0514984130859 L 86.72128295898438 201.2514343261719 L 177.0559387207031 201.2514343261719 L 205.0211486816406 115.0514831542969 L 131.8885803222656 61.83613586425781 M 131.8885955810547 7.101699829101562 C 138.0837097167969 7.101699829101562 144.27880859375 9.01580810546875 149.5398559570312 12.84400939941406 L 246.1747589111328 83.1610107421875 C 256.67333984375 90.80033874511719 261.0661010742188 104.3262634277344 257.0594177246094 116.6763458251953 L 220.1295166015625 230.5090942382812 C 216.1172637939453 242.8763427734375 204.5954284667969 251.2514343261719 191.5936889648438 251.2514343261719 L 72.18359375 251.2514343261719 C 59.1817626953125 251.2514343261719 47.65992736816406 242.8763427734375 43.64767456054688 230.5090942382812 L 6.7177734375 116.6763458251953 C 2.711090087890625 104.3262634277344 7.103851318359375 90.80033874511719 17.60243225097656 83.1610107421875 L 114.2373504638672 12.84400939941406 C 119.4983825683594 9.01580810546875 125.6934967041016 7.101699829101562 131.8885955810547 7.101699829101562 Z" stroke="none" fill="#ff5c5c"/>
  </g>
</svg>
