<svg xmlns="http://www.w3.org/2000/svg" xmlns:xlink="http://www.w3.org/1999/xlink" width="40" height="40" viewBox="0 0 40 40">
  <defs>
    <clipPath id="clip-path">
      <rect id="사각형_867" data-name="사각형 867" width="40" height="40" transform="translate(1060 3634)" fill="#945400"/>
    </clipPath>
  </defs>
  <g id="ico_학습콘텐츠" transform="translate(-1060 -3634)" clip-path="url(#clip-path)">
    <path id="idea_7_" data-name="idea (7)" d="M35.312,15.1A15.122,15.122,0,0,0,20.188,0h-.1A15.159,15.159,0,0,0,9.229,4.44,14.928,14.928,0,0,0,4.766,15.1c0,6.043,3.469,9.3,6,11.676,1.752,1.644,2.826,2.714,2.826,3.928v4.609A4.693,4.693,0,0,0,18.281,40H21.8a4.693,4.693,0,0,0,4.687-4.687V30.547a1.566,1.566,0,0,0-.011-.179c.152-.923.931-1.823,2.25-3.077a1.562,1.562,0,1,0-2.154-2.264,10.3,10.3,0,0,0-2.99,4.035H16.46c-.575-1.77-2.031-3.138-3.553-4.566-2.466-2.314-5.016-4.707-5.016-9.4A11.825,11.825,0,0,1,11.43,6.658a12.054,12.054,0,0,1,8.643-3.532h.114a12,12,0,0,1,12,11.645,1.556,1.556,0,0,0-.035.329,10.075,10.075,0,0,1-1.11,4.8,1.563,1.563,0,0,0,2.767,1.453,13,13,0,0,0,1.464-5.887,1.574,1.574,0,0,0,.043-.366ZM21.8,36.875H18.281a1.564,1.564,0,0,1-1.562-1.562V32.187h6.641v3.125A1.564,1.564,0,0,1,21.8,36.875ZM40,15a1.562,1.562,0,1,1-1.562-1.562A1.562,1.562,0,0,1,40,15Zm-1.953,8.516a1.562,1.562,0,1,1-1.562-1.562A1.562,1.562,0,0,1,38.047,23.516Zm-3.2-17.109a1.562,1.562,0,1,1,1.563,1.562A1.562,1.562,0,0,1,34.844,6.406ZM1.562,16.562A1.562,1.562,0,1,1,3.125,15,1.562,1.562,0,0,1,1.562,16.562Zm3.516,6.953a1.562,1.562,0,1,1-1.562-1.562A1.562,1.562,0,0,1,5.078,23.516ZM2.031,6.406A1.562,1.562,0,1,1,3.594,7.969,1.562,1.562,0,0,1,2.031,6.406Z" transform="translate(1060 3634)" fill="#945400"/>
  </g>
</svg>
