<svg xmlns="http://www.w3.org/2000/svg" xmlns:xlink="http://www.w3.org/1999/xlink" width="40" height="40" viewBox="0 0 40 40">
  <defs>
    <clipPath id="clip-path">
      <rect id="사각형_852" data-name="사각형 852" width="40" height="40" transform="translate(1060 3574)" fill="#febe2a"/>
    </clipPath>
  </defs>
  <g id="ico_온라인콘텐츠" transform="translate(-1060 -3574)" clip-path="url(#clip-path)">
    <path id="free-icon-video-marketing-1294269" d="M19.192,8.7a3.052,3.052,0,0,0-4.582,2.647v7.784a3.045,3.045,0,0,0,4.582,2.647L25.9,17.881a3.062,3.062,0,0,0,0-5.294ZM17.734,19.006V11.463l6.5,3.772Zm19.141-2.678V6.25A3.129,3.129,0,0,0,33.75,3.125H6.25A3.129,3.129,0,0,0,3.125,6.25V24.219A3.129,3.129,0,0,0,6.25,27.344h27.5a3.129,3.129,0,0,0,3.125-3.125,1.563,1.563,0,0,1,3.125,0,6.257,6.257,0,0,1-6.25,6.25H6.25A6.257,6.257,0,0,1,0,24.219V6.25A6.257,6.257,0,0,1,6.25,0h27.5A6.257,6.257,0,0,1,40,6.25V16.328a1.563,1.563,0,1,1-3.125,0ZM40,36.8a1.562,1.562,0,0,1-1.562,1.563H18.359a1.563,1.563,0,0,1,0-3.125H38.437A1.562,1.562,0,0,1,40,36.8Zm-26.328.078A3.125,3.125,0,0,1,7.8,38.359H1.562a1.563,1.563,0,1,1,0-3.125H7.887a3.125,3.125,0,0,1,5.785,1.641Zm0,0" transform="translate(1060 3574)" fill="#febe2a"/>
  </g>
</svg>
