<svg xmlns="http://www.w3.org/2000/svg" width="186.655" height="179.348" viewBox="0 0 186.655 179.348">
  <g id="ico_" transform="translate(0 71.974) rotate(-30)" fill="none">
    <path d="M36.515,61.083c15.8-27.222,55.115-27.222,70.917,0L108.2,62.4c15.867,27.333-3.854,61.584-35.459,61.584H71.208c-31.6,0-51.326-34.251-35.459-61.584Z" stroke="none"/>
    <path d="M 71.97371673583984 60.66634368896484 C 68.33821868896484 60.66634368896484 59.29088592529297 61.68531036376953 53.81201934814453 71.12344360351562 L 53.04631805419922 72.44248199462891 C 47.54498291015625 81.91934967041016 51.18765258789062 90.30044555664062 53.00911712646484 93.46394348144531 C 54.83058166503906 96.62744140625 60.25015258789062 103.9854125976562 71.20801544189453 103.9854125976562 L 72.73941802978516 103.9854125976562 C 83.69728088378906 103.9854125976562 89.11685180664062 96.62744140625 90.93831634521484 93.46394348144531 C 92.75978088378906 90.30044555664062 96.40245056152344 81.91934967041016 90.90111541748047 72.44248199462891 L 90.13545227050781 71.12348175048828 C 84.65655517578125 61.68531036376953 75.60921478271484 60.66634368896484 71.97371673583984 60.66634368896484 M 71.97371673583984 40.66636657714844 C 85.75244140625 40.66636657714844 99.53116607666016 47.47177886962891 107.4322814941406 61.08261108398438 L 108.1979827880859 62.40164947509766 C 124.0649490356445 89.73487854003906 104.3442535400391 123.9854125976562 72.73941802978516 123.9854125976562 L 71.20801544189453 123.9854125976562 C 39.60317993164062 123.9854125976562 19.88248443603516 89.73487854003906 35.74945068359375 62.40164947509766 L 36.51515197753906 61.08261108398438 C 44.41626739501953 47.47177886962891 58.19499206542969 40.66636657714844 71.97371673583984 40.66636657714844 Z" stroke="none" fill="#ffbbe6"/>
  </g>
</svg>
