<svg xmlns="http://www.w3.org/2000/svg" xmlns:xlink="http://www.w3.org/1999/xlink" width="19" height="19" viewBox="0 0 19 19">
  <defs>
    <clipPath id="clip-path">
      <circle id="타원_23" data-name="타원 23" cx="9.5" cy="9.5" r="9.5" transform="translate(1331 528)" fill="#f5f5f5"/>
    </clipPath>
  </defs>
  <g id="icon_스티커" transform="translate(-1331 -528)" clip-path="url(#clip-path)">
    <path id="smile" d="M9.5,19A9.5,9.5,0,0,1,2.782,2.782,9.5,9.5,0,0,1,16.218,16.218,9.438,9.438,0,0,1,9.5,19Zm0-17.516A8.016,8.016,0,1,0,17.516,9.5,8.025,8.025,0,0,0,9.5,1.484Zm3.479,9.655a.742.742,0,0,0-1.025.228A3.266,3.266,0,0,1,9.463,12.8a3.266,3.266,0,0,1-2.491-1.438.742.742,0,0,0-1.252.8,4.772,4.772,0,0,0,3.743,2.125,4.772,4.772,0,0,0,3.743-2.125.742.742,0,0,0-.228-1.025ZM6.234,6.123a.928.928,0,1,1-.928.928A.928.928,0,0,1,6.234,6.123Zm5.566.928a.928.928,0,1,0,.928-.928A.928.928,0,0,0,11.8,7.051Z" transform="translate(1331 528)" fill="#454545"/>
  </g>
</svg>
