<svg xmlns="http://www.w3.org/2000/svg" xmlns:xlink="http://www.w3.org/1999/xlink" width="19" height="19" viewBox="0 0 19 19">
  <defs>
    <clipPath id="clip-path">
      <rect id="사각형_276" data-name="사각형 276" width="19" height="19" transform="translate(1370 690)" fill="#fff"/>
    </clipPath>
  </defs>
  <g id="icon_모둠점수판" transform="translate(-1370 -690)" clip-path="url(#clip-path)">
    <g id="Layer_2" data-name="Layer 2" transform="translate(1372.234 690)">
      <g id="Layer_20" data-name="Layer 20">
        <path id="패스_251" data-name="패스 251" d="M13.8,2.5H11.067V2.214a.745.745,0,0,0-.745-.745H9.344a2.2,2.2,0,0,0-4.156,0H4.211a.745.745,0,0,0-.745.745V2.5H.737A.738.738,0,0,0,0,3.234v15.03A.738.738,0,0,0,.737,19H13.8a.738.738,0,0,0,.737-.737V3.234A.738.738,0,0,0,13.8,2.5ZM7.266,1.118a1.084,1.084,0,0,1,.8.352h-1.6a1.084,1.084,0,0,1,.8-.351ZM4.583,2.587H9.949V3.614H4.583Zm8.831,15.3H1.118V3.614H3.465v.373a.745.745,0,0,0,.745.745h6.111a.745.745,0,0,0,.745-.745V3.614h2.348Z" fill="#222"/>
        <path id="패스_252" data-name="패스 252" d="M3.609,6.186a.268.268,0,0,1-.007.073.066.066,0,0,1-.022.037.057.057,0,0,1-.037.011.247.247,0,0,1-.043,0l-.171-.019L3.119,6.26c-.075-.007-.145-.014-.214-.019s-.13-.007-.183-.007a.529.529,0,0,0-.274.047.164.164,0,0,0-.063.143.112.112,0,0,0,.02.069.162.162,0,0,0,.071.048.817.817,0,0,0,.14.037q.089.019.224.041a2.264,2.264,0,0,1,.4.1.767.767,0,0,1,.261.147.5.5,0,0,1,.142.22,1,1,0,0,1,.045.313.878.878,0,0,1-.067.361A.613.613,0,0,1,3.428,8a.823.823,0,0,1-.309.138,1.791,1.791,0,0,1-.41.043c-.064,0-.135,0-.211-.011s-.149-.016-.224-.026-.145-.02-.211-.032l-.173-.028a.228.228,0,0,1-.082-.032c-.02-.014-.029-.05-.026-.112l.011-.309c0-.077.035-.112.1-.1l.168.019.207.02.207.017c.067,0,.124.007.171.007a.763.763,0,0,0,.315-.043.149.149,0,0,0,.08-.14.144.144,0,0,0-.015-.069.134.134,0,0,0-.056-.05.555.555,0,0,0-.119-.043q-.078-.021-.2-.043a3.1,3.1,0,0,1-.406-.089.884.884,0,0,1-.283-.138.518.518,0,0,1-.166-.214.847.847,0,0,1-.054-.324.8.8,0,0,1,.075-.361.671.671,0,0,1,.2-.244.866.866,0,0,1,.3-.14,1.427,1.427,0,0,1,.361-.045q.1,0,.214.011t.233.026c.077.01.149.021.22.034l.171.03a.158.158,0,0,1,.075.03c.019.015.027.053.024.116Z" fill="#222"/>
        <path id="패스_253" data-name="패스 253" d="M5.107,5.649a1.667,1.667,0,0,1,.168.009l.186.02c.061.007.123.016.179.026l.143.026a.142.142,0,0,1,.071.03c.018.015.025.047.022.1L5.865,6.2c0,.072-.037.1-.1.1l-.237-.019q-.14-.011-.237-.011A1.01,1.01,0,0,0,5.01,6.3a.335.335,0,0,0-.168.106A.41.41,0,0,0,4.76,6.6a1.735,1.735,0,0,0-.02.291,1.93,1.93,0,0,0,.022.322.456.456,0,0,0,.084.207.326.326,0,0,0,.17.112,1.03,1.03,0,0,0,.283.032c.032,0,.069,0,.11,0l.127-.007.129-.009.108-.009a.128.128,0,0,1,.065.007c.016.007.025.037.028.093l.011.339a.12.12,0,0,1-.022.1.134.134,0,0,1-.071.032l-.151.026c-.059.01-.119.019-.183.028s-.127.016-.19.022-.12.009-.17.009a1.285,1.285,0,0,1-.464-.075.715.715,0,0,1-.313-.231,1.015,1.015,0,0,1-.177-.4,2.666,2.666,0,0,1-.056-.587,2.348,2.348,0,0,1,.058-.559.969.969,0,0,1,.184-.386.736.736,0,0,1,.319-.224A1.329,1.329,0,0,1,5.107,5.649Z" fill="#222"/>
        <path id="패스_254" data-name="패스 254" d="M7.309,5.649a1.332,1.332,0,0,1,.531.093A.857.857,0,0,1,8.183,6a1.036,1.036,0,0,1,.186.4,2.376,2.376,0,0,1,0,1.025,1.069,1.069,0,0,1-.186.4.844.844,0,0,1-.343.261,1.332,1.332,0,0,1-.531.093A1.317,1.317,0,0,1,6.78,8.09a.857.857,0,0,1-.343-.261,1.055,1.055,0,0,1-.186-.4,2.376,2.376,0,0,1,0-1.025A1.022,1.022,0,0,1,6.437,6a.872.872,0,0,1,.343-.261A1.317,1.317,0,0,1,7.309,5.649Zm0,1.945a.515.515,0,0,0,.224-.043.327.327,0,0,0,.142-.13.61.61,0,0,0,.075-.214,2.124,2.124,0,0,0,0-.589.589.589,0,0,0-.075-.212.332.332,0,0,0-.142-.129.515.515,0,0,0-.224-.043.373.373,0,0,0-.361.171,1.076,1.076,0,0,0-.091.507,1.1,1.1,0,0,0,.093.509A.37.37,0,0,0,7.309,7.594Z" fill="#222"/>
        <path id="패스_255" data-name="패스 255" d="M9.017,8.123A.117.117,0,0,1,8.943,8.1a.1.1,0,0,1-.022-.075V5.8a.1.1,0,0,1,.022-.075A.117.117,0,0,1,9.017,5.7h.473a.118.118,0,0,1,.075.019.1.1,0,0,1,.022.075v.119l.123-.048.175-.063c.063-.022.133-.045.207-.069s.147-.044.222-.061a.2.2,0,0,1,.035-.006.064.064,0,0,1,.037.007.081.081,0,0,1,.03.037.173.173,0,0,1,.013.075v.432a.186.186,0,0,1-.013.075.131.131,0,0,1-.034.045.115.115,0,0,1-.041.022l-.035.009c-.075.015-.149.031-.222.048l-.2.05-.171.045-.121.032V8.03a.1.1,0,0,1-.022.075.118.118,0,0,1-.075.019Z" fill="#222"/>
        <path id="패스_256" data-name="패스 256" d="M11.881,7.587q.108,0,.224,0l.224-.009.2-.013.155-.011a.126.126,0,0,1,.069.009c.016.009.025.042.028.1l0,.287c0,.05-.008.081-.024.093a.2.2,0,0,1-.073.03l-.17.035c-.068.014-.143.026-.224.037s-.165.021-.253.03-.175.013-.261.013a1.386,1.386,0,0,1-.471-.071.756.756,0,0,1-.324-.222.938.938,0,0,1-.188-.384,2.282,2.282,0,0,1-.06-.559,1.492,1.492,0,0,1,.27-.973,1,1,0,0,1,.807-.326,1.06,1.06,0,0,1,.8.268,1.141,1.141,0,0,1,.259.82v.306a.174.174,0,0,1-.03.117.152.152,0,0,1-.112.032h-1.33a.379.379,0,0,0,.116.3A.588.588,0,0,0,11.881,7.587Zm.347-.891a.56.56,0,0,0-.093-.367.412.412,0,0,0-.322-.106.394.394,0,0,0-.326.116.589.589,0,0,0-.1.358Z" fill="#222"/>
        <path id="패스_257" data-name="패스 257" d="M11.98,9.443H2.552A.559.559,0,0,0,1.994,10V16.15a.559.559,0,0,0,.559.559H11.98a.559.559,0,0,0,.559-.559V10A.559.559,0,0,0,11.98,9.443Zm-.186,3.26H5.751V10.188h6.043ZM5.005,10.188V12.7H2.739V10.188Zm-2.267,3.26H5.005v2.515H2.739Zm3.012,2.515V13.449h6.043v2.515Z" fill="#222"/>
      </g>
    </g>
  </g>
</svg>
