<svg id="icon_office" xmlns="http://www.w3.org/2000/svg" xmlns:xlink="http://www.w3.org/1999/xlink" width="30" height="30" viewBox="0 0 30 30">
  <defs>
    <clipPath id="clip-path">
      <rect id="사각형_485" data-name="사각형 485" width="16" height="16" transform="translate(1153 977) rotate(180)" fill="#fff"/>
    </clipPath>
  </defs>
  <g id="그룹_779" data-name="그룹 779">
    <rect id="사각형_558" data-name="사각형 558" width="30" height="30" rx="5" fill="#209ddf"/>
    <g id="icon_첨부파일" transform="translate(-1130 -954)" clip-path="url(#clip-path)">
      <path id="XMLID_236_" d="M14.937,2.67a3.636,3.636,0,0,0-5.142,0L4.062,8.4a2.182,2.182,0,1,0,3.086,3.085l3.774-3.774A.727.727,0,0,0,9.894,6.684L6.119,10.459A.727.727,0,0,1,5.091,9.43L10.823,3.7a2.182,2.182,0,0,1,3.086,3.085L7.662,13.03A3.636,3.636,0,1,1,2.52,7.887L8.766,1.641A.727.727,0,0,0,7.737.613L1.491,6.859a5.091,5.091,0,0,0,7.2,7.2l6.246-6.246A3.64,3.64,0,0,0,14.937,2.67Z" transform="translate(1137 961.027)" fill="#fff"/>
    </g>
  </g>
</svg>
