<svg xmlns="http://www.w3.org/2000/svg" xmlns:xlink="http://www.w3.org/1999/xlink" width="19" height="19" viewBox="0 0 19 19">
  <defs>
    <clipPath id="clip-path">
      <rect id="사각형_371" data-name="사각형 371" width="19" height="19" transform="translate(1183 680)" fill="#fff"/>
    </clipPath>
  </defs>
  <g id="icon_느낌표" transform="translate(-1183 -680)" clip-path="url(#clip-path)">
    <g id="Layer_2" data-name="Layer 2" transform="translate(1189.107 680)">
      <g id="Layer_2-2" data-name="Layer 2">
        <path id="패스_294" data-name="패스 294" d="M1.735,14.263c.386-1.055.561-2.21.863-3.3s.661-2.187,1.055-3.259a38.314,38.314,0,0,1,3-6.245C7.284.38,5.549-.625,4.962.481A40.233,40.233,0,0,0,2.2,7.144c-.357,1.138-.65,2.3-.895,3.464a14.194,14.194,0,0,0-.46,3.533.458.458,0,0,0,.895.12Z" fill="#fc5d5b"/>
        <path id="패스_295" data-name="패스 295" d="M1.931,18.5V18.48c.036-.084.072-.167.106-.249l.038-.279a.994.994,0,0,0-.224-.633.511.511,0,0,0-.188-.186A.509.509,0,0,0,1.433,17a1,1,0,0,0-.678-.053,1.089,1.089,0,0,0-.718.73L0,17.953a.8.8,0,0,0,.091.409.958.958,0,0,0,.422.5H.534a.741.741,0,0,0,.378.12.758.758,0,0,0,.405-.017l.245-.1a1.026,1.026,0,0,0,.365-.365Z" fill="#fc5d5b"/>
      </g>
    </g>
  </g>
</svg>
