<svg xmlns="http://www.w3.org/2000/svg" xmlns:xlink="http://www.w3.org/1999/xlink" width="15" height="15" viewBox="0 0 15 15">
  <defs>
    <clipPath id="clip-path">
      <rect id="사각형_160" data-name="사각형 160" width="15" height="15" transform="translate(945 924)" fill="#454545"/>
    </clipPath>
  </defs>
  <g id="icon_minus" transform="translate(-945 -924)" clip-path="url(#clip-path)">
    <g id="minus" transform="translate(945 924)">
      <g id="그룹_9" data-name="그룹 9">
        <g id="그룹_8" data-name="그룹 8">
          <path id="패스_122" data-name="패스 122" d="M7.5,0A7.5,7.5,0,1,0,15,7.5,7.509,7.509,0,0,0,7.5,0Zm0,13.838A6.338,6.338,0,1,1,13.838,7.5,6.345,6.345,0,0,1,7.5,13.838Z" fill="#454545"/>
        </g>
      </g>
      <g id="그룹_11" data-name="그룹 11" transform="translate(4.014 6.867)">
        <g id="그룹_10" data-name="그룹 10">
          <path id="패스_123" data-name="패스 123" d="M14.419,13.734H8.61a.581.581,0,1,0,0,1.162h5.809a.581.581,0,0,0,0-1.162Z" transform="translate(-8.029 -13.734)" fill="#454545"/>
        </g>
      </g>
    </g>
  </g>
</svg>
