<svg xmlns="http://www.w3.org/2000/svg" xmlns:xlink="http://www.w3.org/1999/xlink" width="16" height="16" viewBox="0 0 16 16">
  <defs>
    <clipPath id="clip-path">
      <rect id="사각형_584" data-name="사각형 584" width="16" height="16" transform="translate(16 16) rotate(180)" fill="#72787f"/>
    </clipPath>
  </defs>
  <g id="icon_사진" clip-path="url(#clip-path)">
    <g id="image" transform="translate(0 0.666)">
      <path id="패스_880" data-name="패스 880" d="M11.8,14.35a1.511,1.511,0,0,1-.382-.049L1.11,11.54A1.514,1.514,0,0,1,.049,9.7L1.182,5.357a.5.5,0,0,1,.967.253L1.016,9.957a.509.509,0,0,0,.356.618l10.3,2.759a.5.5,0,0,0,.607-.351l.352-1.42a.5.5,0,0,1,.971.24l-.353,1.427A1.5,1.5,0,0,1,11.8,14.35Zm0,0" transform="translate(0 0.317)" fill="#72787f"/>
      <path id="패스_881" data-name="패스 881" d="M14.333,10.681H4a1.5,1.5,0,0,1-1.5-1.5V1.514A1.5,1.5,0,0,1,4,.014H14.333a1.5,1.5,0,0,1,1.5,1.5V9.181A1.5,1.5,0,0,1,14.333,10.681ZM4,1.014a.5.5,0,0,0-.5.5V9.181a.5.5,0,0,0,.5.5H14.333a.5.5,0,0,0,.5-.5V1.514a.5.5,0,0,0-.5-.5Zm0,0" transform="translate(0.167 -0.014)" fill="#72787f"/>
      <path id="패스_882" data-name="패스 882" d="M5.708,4.556A1.333,1.333,0,1,1,7.041,3.223,1.335,1.335,0,0,1,5.708,4.556Zm0-1.667a.333.333,0,1,0,.333.333A.334.334,0,0,0,5.708,2.889Zm0,0" transform="translate(0.292 0.111)" fill="#72787f"/>
      <path id="패스_883" data-name="패스 883" d="M3.012,9.781a.5.5,0,0,1-.353-.854L5.672,5.913a1.17,1.17,0,0,1,1.653,0l.806.806,2.476-2.972a1.166,1.166,0,0,1,.891-.421,1.072,1.072,0,0,1,.894.41l3.319,3.872a.5.5,0,0,1-.759.651l-3.32-3.873a.2.2,0,0,0-.128-.059.167.167,0,0,0-.128.061L8.549,7.781a.5.5,0,0,1-.361.179.49.49,0,0,1-.376-.146L6.618,6.621a.145.145,0,0,0-.239,0L3.366,9.634a.5.5,0,0,1-.353.147Zm0,0" transform="translate(0.167 0.206)" fill="#72787f"/>
    </g>
  </g>
</svg>
