<svg xmlns="http://www.w3.org/2000/svg" xmlns:xlink="http://www.w3.org/1999/xlink" width="25" height="25" viewBox="0 0 25 25">
  <defs>
    <clipPath id="clip-path">
      <rect id="사각형_229" data-name="사각형 229" width="25" height="25" transform="translate(1528 938)" fill="#fff"/>
    </clipPath>
  </defs>
  <g id="icon_퀴즈나우" transform="translate(-1528 -938)" opacity="0.8" clip-path="url(#clip-path)">
    <g id="Layer_2" data-name="Layer 2" transform="translate(1528.01 938)">
      <g id="Layer_12" data-name="Layer 12">
        <path id="패스_194" data-name="패스 194" d="M14.052,9.872H8.817v3.317A6.639,6.639,0,0,0,14.052,9.872Z" fill="none"/>
        <path id="패스_195" data-name="패스 195" d="M24.01,8.4H16.08a6.71,6.71,0,0,0,.084-1.056C16.164,3.3,12.539,0,8.082,0S0,3.3,0,7.347A7.044,7.044,0,0,0,2.32,12.5L2.3,15.056a.735.735,0,0,0,1.205.569L5.2,14.213a8.675,8.675,0,0,0,2.149.452v6.482a.972.972,0,0,0,.971.971h8.46l3.25,2.712a.735.735,0,0,0,1.205-.57l-.018-2.141h2.792a.972.972,0,0,0,.973-.971V9.374A.972.972,0,0,0,24.01,8.4ZM8.082,13.225q-.371,0-.735-.036a7.177,7.177,0,0,1-2.014-.495.735.735,0,0,0-.748.116l-.8.671.011-1.3a.735.735,0,0,0-.261-.569A5.542,5.542,0,0,1,1.469,7.347c0-3.241,2.966-5.878,6.613-5.878s6.613,2.637,6.613,5.878A5.224,5.224,0,0,1,14.587,8.4a5.375,5.375,0,0,1-.535,1.469,6.643,6.643,0,0,1-5.236,3.317C8.575,13.212,8.33,13.225,8.082,13.225Zm15.429,7.423H20.474a.735.735,0,0,0-.735.741l.011,1.3-2.236-1.867a.735.735,0,0,0-.471-.171H8.817V14.664a8.028,8.028,0,0,0,6.857-4.791h7.837Z" fill="#fff"/>
        <path id="패스_196" data-name="패스 196" d="M21.65,13.348H14.905a.49.49,0,1,1,0-.98H21.65a.49.49,0,1,1,0,.98Z" fill="#fff"/>
        <path id="패스_197" data-name="패스 197" d="M21.624,16.091H11.142a.49.49,0,1,1,0-.98H21.624a.49.49,0,1,1,0,.98Z" fill="#fff"/>
        <path id="패스_198" data-name="패스 198" d="M21.624,18.834H11.142a.49.49,0,1,1,0-.98H21.624a.49.49,0,1,1,0,.98Z" fill="#fff"/>
        <path id="패스_199" data-name="패스 199" d="M10.151,5.576A2.078,2.078,0,0,0,8.229,3.654a2.054,2.054,0,0,0-1.561.553,2.081,2.081,0,0,0-.659,1.516.49.49,0,1,0,.98,0A1.094,1.094,0,1,1,8.323,6.79a.927.927,0,0,0-.73.909V8.874a.49.49,0,1,0,.98,0V7.739a2.063,2.063,0,0,0,1.579-2.163Z" fill="#fff"/>
        <path id="패스_200" data-name="패스 200" d="M8.428,10.466a.49.49,0,1,0,.144.346.49.49,0,0,0-.144-.346Z" fill="#fff"/>
      </g>
    </g>
  </g>
</svg>
