<svg xmlns="http://www.w3.org/2000/svg" xmlns:xlink="http://www.w3.org/1999/xlink" width="25" height="25" viewBox="0 0 25 25">
  <defs>
    <clipPath id="clip-path">
      <rect id="사각형_238" data-name="사각형 238" width="25" height="25" fill="#fff"/>
    </clipPath>
  </defs>
  <g id="icon_리모컨" opacity="0.8" clip-path="url(#clip-path)">
    <g id="remote" transform="translate(0 0)">
      <path id="패스_204" data-name="패스 204" d="M6.375,2.626a1.409,1.409,0,0,1,1.99,0l13.9,13.9a5.264,5.264,0,1,1-7.445,7.445L.92,10.071a1.407,1.407,0,0,1,0-1.99Zm8.872,20.909a4.654,4.654,0,1,0,6.582-6.582l-.5-.5-6.582,6.582ZM1.351,9.64,14.315,22.6,20.9,16.021,7.934,3.057a.8.8,0,0,0-1.127,0L1.351,8.512a.8.8,0,0,0,0,1.127Z" transform="translate(1.198 -0.508)" fill="#fff"/>
      <path id="패스_205" data-name="패스 205" d="M11.97,14.046a3.282,3.282,0,1,1-2.336-.977A3.3,3.3,0,0,1,11.97,14.046Zm-4.014.228.635.635a1.809,1.809,0,0,1,2.084,0l.635-.635a2.7,2.7,0,0,0-3.354,0Zm.832,2.953a1.194,1.194,0,1,0,0-1.69,1.194,1.194,0,0,0,0,1.69Zm3.538-.845a2.675,2.675,0,0,0-.585-1.677l-.635.635a1.809,1.809,0,0,1,0,2.084l.635.635a2.675,2.675,0,0,0,.585-1.677ZM11.31,18.491l-.635-.635a1.807,1.807,0,0,1-2.084,0l-.635.635a2.7,2.7,0,0,0,3.354,0ZM7.525,18.06l.635-.635a1.808,1.808,0,0,1,0-2.084l-.635-.635a2.7,2.7,0,0,0,0,3.354Z" transform="translate(6.242 -0.508)" fill="#fff"/>
      <path id="패스_206" data-name="패스 206" d="M10.2,15.814a.8.8,0,1,1-1.138,0A.8.8,0,0,1,10.2,15.814Zm-.707.707a.2.2,0,0,0,.276,0,.2.2,0,1,0-.276,0Z" transform="translate(6.241 -0.508)" fill="#fff"/>
      <path id="패스_207" data-name="패스 207" d="M13.4,14.142a.953.953,0,1,1,.673.278A.953.953,0,0,1,13.4,14.142Zm.431-.431a.342.342,0,1,0-.1-.242.342.342,0,0,0,.1.242Z" transform="translate(-2.631 -0.508)" fill="#fff"/>
      <path id="패스_208" data-name="패스 208" d="M11.025,11.376a.953.953,0,1,1,.935-.767A.949.949,0,0,1,11.025,11.376Zm.242-1.193a.342.342,0,1,0,0,.484.342.342,0,0,0,0-.484Z" transform="translate(3.458 -0.508)" fill="#fff"/>
      <path id="패스_209" data-name="패스 209" d="M15.592,14.039a.952.952,0,1,1-.879.588A.952.952,0,0,1,15.592,14.039Zm-.242,1.194a.342.342,0,1,0-.1-.242A.342.342,0,0,0,15.35,15.233Z" transform="translate(-5.676 -0.508)" fill="#fff"/>
      <path id="패스_210" data-name="패스 210" d="M12.548,10.995a.952.952,0,1,1-.879.588.952.952,0,0,1,.879-.588Zm-.242,1.194a.342.342,0,1,0-.1-.242.342.342,0,0,0,.1.242Z" transform="translate(0.413 -0.508)" fill="#fff"/>
      <path id="패스_211" data-name="패스 211" d="M15.861,12.629a.952.952,0,1,1,.673-.279A.952.952,0,0,1,15.861,12.629Zm.242-1.194a.342.342,0,1,0,.1.242.342.342,0,0,0-.1-.242Z" transform="translate(-6.214 -0.508)" fill="#fff"/>
      <path id="패스_212" data-name="패스 212" d="M12.817,9.585a.952.952,0,1,1,.673-.279A.952.952,0,0,1,12.817,9.585Zm.242-1.194a.342.342,0,1,0,0,.484.342.342,0,0,0,0-.484Z" transform="translate(-0.125 -0.508)" fill="#fff"/>
      <path id="패스_213" data-name="패스 213" d="M17.383,12.248a.952.952,0,1,1-.673.279.952.952,0,0,1,.673-.279Zm-.242,1.194a.342.342,0,1,0-.1-.242.342.342,0,0,0,.1.242Z" transform="translate(-9.258 -0.508)" fill="#fff"/>
      <path id="패스_214" data-name="패스 214" d="M14.339,11.107a.952.952,0,1,1,.673-.279.952.952,0,0,1-.673.279Zm.242-1.194a.342.342,0,1,0,0,.484A.342.342,0,0,0,14.581,9.913Z" transform="translate(-3.169 -0.508)" fill="#fff"/>
      <path id="패스_215" data-name="패스 215" d="M18.6,9.886a.952.952,0,1,1-.279-.673.952.952,0,0,1,.279.673Zm-.71-.242a.342.342,0,1,0,0,.484.342.342,0,0,0,0-.484Z" transform="translate(-9.796 -0.508)" fill="#fff"/>
      <path id="패스_216" data-name="패스 216" d="M14.608,7.794a.952.952,0,1,1,.673-.279A.952.952,0,0,1,14.608,7.794ZM14.85,6.6a.342.342,0,1,0,0,.484.342.342,0,0,0,0-.484Z" transform="translate(-3.708 -0.508)" fill="#fff"/>
      <path id="패스_217" data-name="패스 217" d="M19.174,10.456a.952.952,0,1,1-.673.279A.952.952,0,0,1,19.174,10.456Zm-.242,1.194a.342.342,0,1,0-.1-.242.342.342,0,0,0,.1.242Z" transform="translate(-12.841 -0.508)" fill="#fff"/>
      <path id="패스_218" data-name="패스 218" d="M16.13,9.316a.952.952,0,1,1,.673-.279A.952.952,0,0,1,16.13,9.316Zm.242-1.194a.342.342,0,1,0,0,.484.342.342,0,0,0,0-.484Z" transform="translate(-6.752 -0.508)" fill="#fff"/>
      <path id="패스_219" data-name="패스 219" d="M16.4,6a.953.953,0,1,1,.935-.767A.949.949,0,0,1,16.4,6Zm.242-1.193a.341.341,0,1,0,.1.242.342.342,0,0,0-.1-.242Z" transform="translate(-7.29 -0.508)" fill="#fff"/>
      <path id="패스_220" data-name="패스 220" d="M9.393,11.523a.3.3,0,0,1-.216-.089l-.111-.111a.3.3,0,0,1,.431-.431L9.608,11a.3.3,0,0,1-.216.52Z" transform="translate(6.833 -0.508)" fill="#fff"/>
      <path id="패스_221" data-name="패스 221" d="M8.3,14.367,6.133,12.2a.3.3,0,1,1,.431-.431l2.17,2.17a.3.3,0,0,1-.431.431Z" transform="translate(10.642 -0.508)" fill="#fff"/>
      <path id="패스_222" data-name="패스 222" d="M21.522,4.337a1.122,1.122,0,0,0-.333.8.3.3,0,0,1-.3.3h0a.3.3,0,0,1-.3-.3A1.734,1.734,0,0,1,22.322,3.4h0a.3.3,0,1,1,0,.6,1.127,1.127,0,0,0-.8.331Z" transform="translate(-17.695 -0.508)" fill="#fff"/>
      <path id="패스_223" data-name="패스 223" d="M23.761,1.931a.313.313,0,0,1,.3.314.309.309,0,0,1-.3.31,2.583,2.583,0,0,0-2.576,2.578.3.3,0,0,1-.61,0,3.2,3.2,0,0,1,3.186-3.2Z" transform="translate(-19.133 -0.508)" fill="#fff"/>
      <path id="패스_224" data-name="패스 224" d="M25.2.508a.3.3,0,1,1,0,.61,4.02,4.02,0,0,0-4.018,4.016.3.3,0,0,1-.61,0A4.628,4.628,0,0,1,25.2.508Z" transform="translate(-20.575 -0.508)" fill="#fff"/>
    </g>
  </g>
</svg>
