<svg xmlns="http://www.w3.org/2000/svg" width="25" height="22.917" viewBox="0 0 25 22.917">
  <g id="web-browser_1_" data-name="web-browser (1)" transform="translate(0 -1.042)">
    <g id="그룹_1305" data-name="그룹 1305" transform="translate(27.083 3.083) rotate(90)">
      <path id="패스_2684" data-name="패스 2684" d="M11.979,15.365H7.031a.781.781,0,0,1,0-1.562h4.948a.781.781,0,0,1,0,1.563Z"/>
    </g>
    <g id="그룹_1306" data-name="그룹 1306" transform="translate(27.083 3.083) rotate(90)">
      <path id="패스_2685" data-name="패스 2685" d="M9.115,17.708a.782.782,0,0,1-.584-.263L6.447,15.1a.78.78,0,0,1,0-1.038L8.53,11.721A.781.781,0,0,1,9.7,12.759L8.077,14.583,9.7,16.408a.781.781,0,0,1-.584,1.3Z"/>
    </g>
    <g id="그룹_1307" data-name="그룹 1307" transform="translate(27.083 3.083) rotate(90)">
      <path id="패스_2686" data-name="패스 2686" d="M15.675,15.365h-3.96c-.285,0-.517-.35-.517-.781s.231-.781.517-.781h3.96c.285,0,.517.35.517.781S15.96,15.365,15.675,15.365Z"/>
    </g>
    <g id="그룹_1308" data-name="그룹 1308" transform="translate(27.083 1.083) rotate(90)">
      <path id="패스_2687" data-name="패스 2687" d="M15.885,17.708a.781.781,0,0,1-.583-1.3l1.621-1.825L15.3,12.758a.781.781,0,1,1,1.168-1.039l2.083,2.344a.78.78,0,0,1,0,1.038l-2.083,2.344a.775.775,0,0,1-.583.264Z"/>
    </g>
    <g id="그룹_1309" data-name="그룹 1309">
      <path id="패스_2688" data-name="패스 2688" d="M22.135,23.958H2.865A2.867,2.867,0,0,1,0,21.094V3.906A2.867,2.867,0,0,1,2.865,1.042H22.135A2.867,2.867,0,0,1,25,3.906V21.094A2.867,2.867,0,0,1,22.135,23.958ZM2.865,2.6a1.3,1.3,0,0,0-1.3,1.3V21.094a1.3,1.3,0,0,0,1.3,1.3H22.135a1.3,1.3,0,0,0,1.3-1.3V3.906a1.3,1.3,0,0,0-1.3-1.3Z"/>
    </g>
    <g id="그룹_1310" data-name="그룹 1310">
      <path id="패스_2689" data-name="패스 2689" d="M24.219,6.25H.781a.781.781,0,0,1,0-1.562H24.219a.781.781,0,0,1,0,1.563Z"/>
    </g>
  </g>
</svg>
