<svg xmlns="http://www.w3.org/2000/svg" xmlns:xlink="http://www.w3.org/1999/xlink" width="25" height="25" viewBox="0 0 25 25">
  <defs>
    <clipPath id="clip-path">
      <rect id="사각형_1270" data-name="사각형 1270" width="25" height="25" transform="translate(1562 385)" fill="#ff0" stroke="#707070" stroke-width="1"/>
    </clipPath>
  </defs>
  <g id="ico_link" transform="translate(-1562 -385)" clip-path="url(#clip-path)">
    <path id="link_2_" data-name="link (2)" d="M6.065,25A6,6,0,0,1,1.8,23.2,5.99,5.99,0,0,1,0,18.708a7.2,7.2,0,0,1,2.267-4.821l2.554-2.564A.977.977,0,0,1,6.21,12.7L3.654,15.267c-2.071,2.071-2.266,4.766-.477,6.556s4.485,1.594,6.554-.475l3.51-3.51a5.292,5.292,0,0,0,1.7-3.513,4.057,4.057,0,0,0-1.221-3.041,4.322,4.322,0,0,0-.914-.7.977.977,0,0,1,.967-1.7A6.276,6.276,0,0,1,15.1,9.9a5.99,5.99,0,0,1,1.792,4.5,7.2,7.2,0,0,1-2.267,4.821l-3.51,3.51A7.2,7.2,0,0,1,6.292,25C6.216,25,6.14,25,6.065,25Zm6.5-9.25a.977.977,0,0,0-.365-1.332,4.322,4.322,0,0,1-.914-.7c-1.79-1.79-1.594-4.485.475-6.554l3.51-3.51c2.069-2.069,4.765-2.265,6.554-.475s1.594,4.485-.477,6.556L18.79,12.3a.977.977,0,0,0,1.384,1.378l2.554-2.565A7.2,7.2,0,0,0,25,6.292,5.99,5.99,0,0,0,23.2,1.8,5.992,5.992,0,0,0,18.708,0a7.2,7.2,0,0,0-4.821,2.267l-3.51,3.51A7.2,7.2,0,0,0,8.11,10.6,5.991,5.991,0,0,0,9.9,15.1a6.277,6.277,0,0,0,1.329,1.017.976.976,0,0,0,1.332-.365Z" transform="translate(1562 385)" fill="#ff0"/>
  </g>
</svg>
