<svg width="25" height="25" viewBox="0 0 25 25" fill="none" xmlns="http://www.w3.org/2000/svg">
<path d="M17.3436 1.30841H2.50143C1.71166 1.30841 1.07143 1.94864 1.07143 2.73841V5.66875H18.7736V2.73841C18.7736 1.94864 18.1334 1.30841 17.3436 1.30841Z" fill="#4566BB" fill-opacity="0.75" stroke="#111111" stroke-width="1.5"/>
<path d="M18.7736 5.6687H1.07143V21.7666C1.07143 22.4508 1.65542 23.0054 2.37581 23.0054H17.4693C18.1897 23.0054 18.7736 22.4508 18.7736 21.7666V5.6687Z" fill="#EAF2FF"/>
<path fill-rule="evenodd" clip-rule="evenodd" d="M0.372662 5.005H19.4724V21.7666C19.4724 22.8173 18.5756 23.669 17.4693 23.669H2.37581C1.2695 23.669 0.372662 22.8173 0.372662 21.7666V5.005ZM1.7702 6.3323V21.7666C1.7702 22.0842 2.04134 22.3417 2.37581 22.3417H17.4693C17.8037 22.3417 18.0749 22.0842 18.0749 21.7666V6.3323H1.7702Z" fill="#111111"/>
<path fill-rule="evenodd" clip-rule="evenodd" d="M4 8.5H10.7561V9.89754H4V8.5Z" fill="#111111"/>
<path fill-rule="evenodd" clip-rule="evenodd" d="M4 11.7463H10.7561V13.1439H4V11.7463Z" fill="#111111"/>
<path fill-rule="evenodd" clip-rule="evenodd" d="M4 14.9927H10.7561V16.3902H4V14.9927Z" fill="#111111"/>
<path fill-rule="evenodd" clip-rule="evenodd" d="M12.5597 21.7906C12.3414 22.0089 11.9874 22.0089 11.7691 21.7906L9.73445 19.7559C9.51614 19.5376 9.51614 19.1836 9.73445 18.9653L18.7625 9.93732C18.9808 9.71901 19.3347 9.71901 19.553 9.93732L21.5877 11.972C21.806 12.1903 21.806 12.5443 21.5877 12.7626L12.5597 21.7906ZM12.1644 20.6047L20.4018 12.3673L19.1577 11.1232L10.9203 19.3606L12.1644 20.6047Z" fill="#111111"/>
<path d="M10.1297 19.3606L20.377 9.11341C20.9394 8.55098 21.8658 8.55098 22.4282 9.11341C22.9906 9.67584 22.9906 10.6022 22.4282 11.1646L12.181 21.4119L10.1297 19.3606Z" fill="#FF6652"/>
<path fill-rule="evenodd" clip-rule="evenodd" d="M12.5762 21.8071C12.3579 22.0254 12.004 22.0254 11.7857 21.8071L9.73446 19.7559C9.51615 19.5376 9.51615 19.1836 9.73446 18.9653L19.9817 8.71809C20.7624 7.93735 22.0427 7.93735 22.8235 8.71809C23.6042 9.49883 23.6042 10.7791 22.8235 11.5599L12.5762 21.8071ZM12.181 20.6213L22.0329 10.7693C22.377 10.4252 22.377 9.85278 22.0329 9.50866C21.6888 9.16454 21.1164 9.16454 20.7723 9.50866L10.9203 19.3606L12.181 20.6213Z" fill="#111111"/>
<path d="M21.0512 12.5086L22.54 11.0198C23.1024 10.4574 23.1024 9.53103 22.54 8.9686C21.9776 8.40617 21.0512 8.40617 20.4888 8.9686L19 10.4574L21.0512 12.5086Z" fill="#2AABC8"/>
<path fill-rule="evenodd" clip-rule="evenodd" d="M21.4465 12.9039C21.2282 13.1222 20.8742 13.1222 20.6559 12.9039L18.6047 10.8527C18.3864 10.6344 18.3864 10.2804 18.6047 10.0621L20.0935 8.57334C20.8742 7.7926 22.1545 7.79259 22.9353 8.57334C23.716 9.35408 23.716 10.6344 22.9353 11.4151L21.4465 12.9039ZM21.0512 11.7181L22.1447 10.6246C22.4888 10.2804 22.4888 9.70803 22.1447 9.36391C21.8006 9.01979 21.2282 9.01979 20.884 9.36391L19.7905 10.4574L21.0512 11.7181Z" fill="#111111"/>
<path d="M10.1298 19.3606L12.1644 21.3953L8.93383 22.6791L10.1298 19.3606Z" fill="#E8A887"/>
<path fill-rule="evenodd" clip-rule="evenodd" d="M8.54499 23.0808C8.38701 22.9279 8.33337 22.6965 8.40792 22.4897L9.60385 19.1712C9.66872 18.9912 9.82115 18.8569 10.0079 18.8151C10.1946 18.7734 10.3897 18.8301 10.525 18.9654L12.5597 21.0001C12.6927 21.1331 12.7499 21.3242 12.7119 21.5084C12.6739 21.6927 12.5457 21.8454 12.3709 21.9149L9.14027 23.1987C8.93593 23.2799 8.70296 23.2338 8.54499 23.0808ZM9.88038 21.7015L11.1682 21.1897L10.3571 20.3787L9.88038 21.7015Z" fill="#111111"/>
</svg>
