<svg width="30" height="30" viewBox="0 0 30 30" fill="none" xmlns="http://www.w3.org/2000/svg">
<path d="M4.6875 2.81438L10.3125 2.82C10.5611 2.82 10.7996 2.91877 10.9754 3.09459C11.1512 3.2704 11.25 3.50886 11.25 3.7575C11.25 4.00614 11.1512 4.2446 10.9754 4.42041C10.7996 4.59623 10.5611 4.695 10.3125 4.695L4.6875 4.68937V10.3125C4.6875 10.5611 4.58873 10.7996 4.41291 10.9754C4.2371 11.1512 3.99864 11.25 3.75 11.25C3.50136 11.25 3.2629 11.1512 3.08709 10.9754C2.91127 10.7996 2.8125 10.5611 2.8125 10.3125V2.8125H4.6875V2.81438ZM4.6875 27.1856V27.1875H2.8125V19.6875C2.8125 19.4389 2.91127 19.2004 3.08709 19.0246C3.2629 18.8488 3.50136 18.75 3.75 18.75C3.99864 18.75 4.2371 18.8488 4.41291 19.0246C4.58873 19.2004 4.6875 19.4389 4.6875 19.6875V25.3106L10.3125 25.305C10.5611 25.305 10.7996 25.4038 10.9754 25.5796C11.1512 25.7554 11.25 25.9939 11.25 26.2425C11.25 26.4911 11.1512 26.7296 10.9754 26.9054C10.7996 27.0812 10.5611 27.18 10.3125 27.18L4.6875 27.1856ZM25.3125 2.81438V2.8125H27.1875V10.3125C27.1875 10.5611 27.0887 10.7996 26.9129 10.9754C26.7371 11.1512 26.4986 11.25 26.25 11.25C26.0014 11.25 25.7629 11.1512 25.5871 10.9754C25.4113 10.7996 25.3125 10.5611 25.3125 10.3125V4.68937L19.6875 4.695C19.4389 4.695 19.2004 4.59623 19.0246 4.42041C18.8488 4.2446 18.75 4.00614 18.75 3.7575C18.75 3.50886 18.8488 3.2704 19.0246 3.09459C19.2004 2.91877 19.4389 2.82 19.6875 2.82L25.3125 2.81438ZM25.3125 27.1856L19.6875 27.18C19.4389 27.18 19.2004 27.0812 19.0246 26.9054C18.8488 26.7296 18.75 26.4911 18.75 26.2425C18.75 25.9939 18.8488 25.7554 19.0246 25.5796C19.2004 25.4038 19.4389 25.305 19.6875 25.305L25.3125 25.3106V19.6875C25.3125 19.4389 25.4113 19.2004 25.5871 19.0246C25.7629 18.8488 26.0014 18.75 26.25 18.75C26.4986 18.75 26.7371 18.8488 26.9129 19.0246C27.0887 19.2004 27.1875 19.4389 27.1875 19.6875V27.1875H25.3125V27.1856Z" fill="white"/>
</svg>
