<svg xmlns="http://www.w3.org/2000/svg" xmlns:xlink="http://www.w3.org/1999/xlink" width="19" height="19" viewBox="0 0 19 19">
  <defs>
    <clipPath id="clip-path">
      <rect id="사각형_287" data-name="사각형 287" width="19" height="19" transform="translate(1279 511)" fill="#fff"/>
    </clipPath>
  </defs>
  <g id="icon_텍스트" transform="translate(-1279 -511)" clip-path="url(#clip-path)">
    <g id="text_1_" data-name="text (1)" transform="translate(1279 511)">
      <path id="패스_271" data-name="패스 271" d="M.557,4.239a.557.557,0,0,0,.557-.557V1.113H3.683A.557.557,0,1,0,3.683,0H.557A.557.557,0,0,0,0,.557V3.683A.557.557,0,0,0,.557,4.239Z" fill="#222"/>
      <path id="패스_272" data-name="패스 272" d="M18.443,0H15.317a.557.557,0,0,0,0,1.113h2.569V3.683a.557.557,0,1,0,1.113,0V.557A.557.557,0,0,0,18.443,0Z" fill="#222"/>
      <path id="패스_273" data-name="패스 273" d="M18.443,14.761a.557.557,0,0,0-.557.557v2.569H15.317a.557.557,0,0,0,0,1.113h3.126A.557.557,0,0,0,19,18.443V15.317A.557.557,0,0,0,18.443,14.761Z" fill="#222"/>
      <path id="패스_274" data-name="패스 274" d="M3.683,17.887H1.113V15.317a.557.557,0,0,0-1.113,0v3.126A.557.557,0,0,0,.557,19H3.683a.557.557,0,1,0,0-1.113Z" fill="#222"/>
      <path id="패스_275" data-name="패스 275" d="M15.573,7.1V3.587a.316.316,0,0,0-.316-.316H3.743a.316.316,0,0,0-.316.316V7.1a.316.316,0,0,0,.316.316H5.422A.316.316,0,0,0,5.737,7.1V5.9a.316.316,0,0,1,.316-.316H8.028a.316.316,0,0,1,.316.316v8.689a.316.316,0,0,1-.316.316H7.165a.316.316,0,0,0-.316.316V16.9a.316.316,0,0,0,.316.316h4.671a.316.316,0,0,0,.316-.316V15.219a.316.316,0,0,0-.316-.316h-.864a.316.316,0,0,1-.316-.316V5.9a.316.316,0,0,1,.316-.316h1.975a.316.316,0,0,1,.316.316V7.1a.316.316,0,0,0,.316.316h1.679a.316.316,0,0,0,.316-.316Z" fill="#222"/>
    </g>
  </g>
</svg>
