<svg xmlns="http://www.w3.org/2000/svg" xmlns:xlink="http://www.w3.org/1999/xlink" width="19" height="19" viewBox="0 0 19 19">
  <defs>
    <clipPath id="clip-path">
      <rect id="사각형_370" data-name="사각형 370" width="19" height="19" transform="translate(1183 635)" fill="#fff"/>
    </clipPath>
  </defs>
  <g id="icon_물음표" transform="translate(-1183 -635)" clip-path="url(#clip-path)">
    <g id="Layer_2" data-name="Layer 2" transform="translate(1188.652 635)">
      <g id="Layer_2-2" data-name="Layer 2">
        <path id="패스_292" data-name="패스 292" d="M1.774,14.061c-.344-2.139,1.148-3.72,2.608-5.039A9.48,9.48,0,0,0,7.512,4.8,3.867,3.867,0,0,0,6.214.43c-1.832-1.171-3.57.313-5.043,1.3C.108,2.439,1.1,4.173,2.178,3.451c.97-.645,3.09-2.569,3.583-.4.344,1.515-.776,2.944-1.74,3.964C2.3,8.832-.378,11.591,1.252,14.28a.286.286,0,0,0,.52-.209Z" fill="#fc5d5b"/>
        <path id="패스_293" data-name="패스 293" d="M1.782,18.088a.8.8,0,0,0,0-.14.227.227,0,0,1-.044.146l.035-.058c-.067.079-.077.1-.035.048s.031-.035-.061.04a.342.342,0,0,1,.061-.033.561.561,0,0,1-.255.063l-.77-.584A.52.52,0,0,0,.8,17.79c-.056-.152-.073-.192-.054-.113-.01-.075-.019-.148-.029-.223a.373.373,0,0,1,0,.083l.031-.219a.482.482,0,0,1-.031.111c.029-.071.058-.142.09-.209a.937.937,0,0,1-.079.129l.144-.184a.849.849,0,0,1-.086.088l.188-.146a.522.522,0,0,1-.1.061l.227-.1a.573.573,0,0,1-.086.023l.257-.035a.417.417,0,0,1-.088,0l.259.035a.273.273,0,0,1-.058-.019l.236.1-.054-.029.209.154-.021-.021.156.209-.029-.04.1.238v-.029a1.922,1.922,0,0,0,.035.265v-.029c-.013.088-.023.177-.035.267v-.029c-.033.079-.067.161-.1.24l.013-.027-.159.209.019-.023-.209.159.025-.017-.242.106h.029l-.273.035H1.11l-.275-.048H.864l-.238-.1.027.015-.209-.163.023.021L.3,18.334a.121.121,0,0,1,.031.052l-.127-.255v-.5a1.068,1.068,0,0,0,0,.561l.106.255a1.016,1.016,0,0,0,.772.5,1.006,1.006,0,0,0,.782-.209,1,1,0,0,0,.417-.835,1.229,1.229,0,0,0-.175-.613,1.21,1.21,0,0,0-.674-.513,1.139,1.139,0,0,0-1.294.507,1.158,1.158,0,0,0,.167,1.365,1.191,1.191,0,0,0,1.129.313,1.354,1.354,0,0,0,.976-.958,1.216,1.216,0,0,0-.054-.793.979.979,0,0,0-.668-.626.849.849,0,0,0-.613.081.9.9,0,0,0-.367.482c-.025.067-.013.035.042-.094a1.721,1.721,0,0,0-.079.194.878.878,0,0,0-.025.1,1.212,1.212,0,0,0,0,.5,1,1,0,0,0,.307.572.488.488,0,0,0,.528.1A.48.48,0,0,0,1.782,18.088Z" fill="#fc5d5b"/>
      </g>
    </g>
  </g>
</svg>
