<svg xmlns="http://www.w3.org/2000/svg" xmlns:xlink="http://www.w3.org/1999/xlink" width="30" height="30" viewBox="0 0 30 30">
  <defs>
    <clipPath id="clip-path">
      <rect id="사각형_386" data-name="사각형 386" width="30" height="30" transform="translate(1248 137)" fill="#e0f4f1"/>
    </clipPath>
  </defs>
  <g id="마스크_그룹_133" data-name="마스크 그룹 133" transform="translate(-1248 -137)" clip-path="url(#clip-path)">
    <g id="Layer_2" data-name="Layer 2" transform="translate(1248 137.005)">
      <g id="Layer_26" data-name="Layer 26">
        <path id="패스_357" data-name="패스 357" d="M19.341,11.577c5.542,0,10.035,3.859,10.035,8.62A7.75,7.75,0,0,1,27.7,24.968l1.489,4.4-4.7-1.766a11.25,11.25,0,0,1-5.143,1.217c-5.542,0-10.034-3.859-10.034-8.62S13.8,11.577,19.341,11.577Z" fill="#454545" stroke="#454545" stroke-linecap="round" stroke-linejoin="round" stroke-width="1.248"/>
        <path id="패스_358" data-name="패스 358" d="M10.658.624C5.116.624.624,4.483.624,9.244A7.75,7.75,0,0,0,2.3,14.015l-1.489,4.4,4.7-1.766a11.253,11.253,0,0,0,5.144,1.218c5.542,0,10.035-3.859,10.035-8.621S16.2.624,10.658.624Z" fill="#00a58a" stroke="#00a58a" stroke-linecap="round" stroke-linejoin="round" stroke-width="1.248"/>
        <path id="패스_359" data-name="패스 359" d="M7.387,9.014a4.249,4.249,0,0,1,.238-1.455A3.363,3.363,0,0,1,8.3,6.426a2.973,2.973,0,0,1,1.02-.73A3.17,3.17,0,0,1,10.6,5.439a3.135,3.135,0,0,1,1.277.258,2.986,2.986,0,0,1,1.013.73,3.342,3.342,0,0,1,.669,1.132A4.249,4.249,0,0,1,13.8,9.014a4.412,4.412,0,0,1-.131,1.1,3.681,3.681,0,0,1-.374.931l.552.487a.226.226,0,0,1,.062.29,1.677,1.677,0,0,1-.266.365,1.563,1.563,0,0,1-.323.3.208.208,0,0,1-.266-.028l-.552-.487a2.966,2.966,0,0,1-.873.459,3.236,3.236,0,0,1-1.029.159,3.169,3.169,0,0,1-1.282-.257A3,3,0,0,1,8.3,11.6a3.31,3.31,0,0,1-.673-1.123,4.28,4.28,0,0,1-.238-1.467Zm4.1.43.824.73a3.231,3.231,0,0,0,.2-1.16,3.6,3.6,0,0,0-.117-.927,2.4,2.4,0,0,0-.356-.777,1.768,1.768,0,0,0-.594-.533,1.7,1.7,0,0,0-.833-.2,1.769,1.769,0,0,0-.852.2,1.743,1.743,0,0,0-.6.533,2.469,2.469,0,0,0-.36.777,3.624,3.624,0,0,0,0,1.862,2.408,2.408,0,0,0,.36.772,1.721,1.721,0,0,0,1.456.725,1.69,1.69,0,0,0,.983-.29l-.9-.8Z" fill="#fff"/>
        <path id="패스_360" data-name="패스 360" d="M17.765,23.2h-1.31l2.536-6.9h.992l2.527,6.9H21.19l-.468-1.385H18.261Zm.88-2.527h1.685L19.505,18.3Z" fill="#fff"/>
      </g>
    </g>
  </g>
</svg>
