<svg id="구성_요소_24_1" data-name="구성 요소 24 – 1" xmlns="http://www.w3.org/2000/svg" width="60" height="60" viewBox="0 0 60 60">
  <rect id="사각형_1352" data-name="사각형 1352" width="60" height="60" fill="none"/>
  <g id="그룹_1304" data-name="그룹 1304" transform="translate(-245.068 -47.604)">
    <g id="그룹_1296" data-name="그룹 1296">
      <path id="패스_2678" data-name="패스 2678" d="M292.215,104.849h-34.43a3.72,3.72,0,0,1-3.717-3.716V56.483a3.72,3.72,0,0,1,3.717-3.716h6.177v2.5h-6.177a1.218,1.218,0,0,0-1.217,1.216v44.65a1.218,1.218,0,0,0,1.217,1.216h34.43a1.218,1.218,0,0,0,1.217-1.216V56.483a1.218,1.218,0,0,0-1.217-1.216h-6.177v-2.5h6.177a3.72,3.72,0,0,1,3.717,3.716v44.65A3.72,3.72,0,0,1,292.215,104.849Z" fill="#454545"/>
    </g>
    <g id="그룹_1297" data-name="그룹 1297">
      <path id="패스_2679" data-name="패스 2679" d="M284.174,59.035H265.827V50.6h18.347Zm-15.847-2.5h13.347V53.1H268.327Z" fill="#454545"/>
    </g>
    <g id="그룹_1298" data-name="그룹 1298">
      <path id="패스_2680" data-name="패스 2680" d="M265.434,73.916a4.957,4.957,0,1,1,4.957-4.957A4.963,4.963,0,0,1,265.434,73.916Zm0-7.414a2.457,2.457,0,1,0,2.457,2.457A2.46,2.46,0,0,0,265.434,66.5Z" fill="#00a58a"/>
    </g>
    <g id="그룹_1299" data-name="그룹 1299">
      <path id="패스_2681" data-name="패스 2681" d="M265.434,86.381a4.957,4.957,0,1,1,4.957-4.957A4.963,4.963,0,0,1,265.434,86.381Zm0-7.414a2.457,2.457,0,1,0,2.457,2.457A2.46,2.46,0,0,0,265.434,78.967Z" fill="#00a58a"/>
    </g>
    <g id="그룹_1300" data-name="그룹 1300">
      <path id="패스_2682" data-name="패스 2682" d="M265.434,98.846a4.957,4.957,0,1,1,4.957-4.957A4.963,4.963,0,0,1,265.434,98.846Zm0-7.414a2.457,2.457,0,1,0,2.457,2.457A2.46,2.46,0,0,0,265.434,91.432Z" fill="#00a58a"/>
    </g>
    <g id="그룹_1301" data-name="그룹 1301">
      <rect id="사각형_1349" data-name="사각형 1349" width="15.058" height="2.5" transform="translate(273.197 67.709)" fill="#454545"/>
    </g>
    <g id="그룹_1302" data-name="그룹 1302">
      <rect id="사각형_1350" data-name="사각형 1350" width="15.058" height="2.5" transform="translate(273.197 80.174)" fill="#454545"/>
    </g>
    <g id="그룹_1303" data-name="그룹 1303">
      <rect id="사각형_1351" data-name="사각형 1351" width="15.058" height="2.5" transform="translate(273.197 92.639)" fill="#454545"/>
    </g>
  </g>
</svg>
