<svg width="50" height="51" viewBox="0 0 50 51" fill="none" xmlns="http://www.w3.org/2000/svg">
<rect y="0.196106" width="50" height="50" rx="25" fill="#C8F2F8"/>
<path d="M32.8103 31.6358C32.8103 32.9289 31.7759 33.9633 30.4828 33.9633H19.2759L12.9655 36.5495L14.569 33.9633H13.3276C12.0345 34.0151 11 32.9289 11 31.6358V25.8944C11 24.6013 12.0345 23.5668 13.3276 23.5668C13.3793 23.5668 29.8103 23.5668 30.4828 23.5668C31.7759 23.5668 32.8103 24.6013 32.8103 25.8944C32.8103 26.6185 32.8103 30.9633 32.8103 31.6358Z" fill="#07CC9D"/>
<path d="M40.0001 17.4633V23.2047C40.0001 24.4978 38.9656 25.5323 37.6725 25.5323H36.3794L37.9829 28.1185L32.7587 25.9978V25.9461C32.7587 24.653 31.7242 23.6185 30.4311 23.6185H20.707C20.707 23.5151 20.6553 23.3599 20.6553 23.2047V17.4633C20.6553 16.1702 21.6898 15.1358 22.9829 15.1358H37.5691C38.9139 15.1358 40.0001 16.1702 40.0001 17.4633Z" fill="#FF5856"/>
<path d="M26.5172 25.167L29 31.9946H27.3448L26.8276 30.4946H24.7069L24.1896 31.9946H22.6379L22.5862 31.9429L25.0689 25.167H26.5172ZM26.5689 29.4601L25.7931 27.0291L24.9655 29.4084H26.5689V29.4601Z" fill="white"/>
<path d="M21.6379 31.9978L21.6896 32.0496H21.5862L21.6379 31.9978Z" fill="#94D4FF"/>
<path d="M22.6379 31.9976V32.0493H21.2413L20.8793 31.6872C20.6206 31.8424 20.362 31.9458 20.1034 31.9976C19.8448 32.0493 19.5344 32.101 19.2241 32.101C18.7069 32.101 18.2413 31.9976 17.8275 31.7907C17.4138 31.5838 17.0517 31.3251 16.7413 31.0148C16.431 30.7045 16.2241 30.3424 16.0689 29.9286C15.9138 29.5148 15.8103 29.101 15.8103 28.6355C15.8103 28.17 15.9138 27.7562 16.0689 27.3424C16.2241 26.9286 16.4827 26.5665 16.7931 26.2562C17.1034 25.9458 17.4655 25.6872 17.8793 25.4803C18.2931 25.2734 18.7586 25.2217 19.2241 25.2217C19.7413 25.2217 20.2069 25.3251 20.6206 25.532C21.0344 25.7389 21.3965 25.9976 21.7069 26.3079C22.0172 26.6182 22.2241 26.9803 22.3793 27.3941C22.5344 27.8079 22.6379 28.2217 22.6379 28.6355C22.6379 29.0493 22.5862 29.4631 22.431 29.8769C22.2758 30.2907 22.0689 30.601 21.7586 30.9631L22.6379 31.9976ZM20.8793 29.2562C20.931 29.0493 20.931 28.8424 20.931 28.6355C20.931 28.3769 20.8793 28.1182 20.8275 27.8596C20.7758 27.601 20.6206 27.3941 20.4655 27.1872C20.3103 26.9803 20.1034 26.8251 19.8965 26.7217C19.6896 26.6182 19.431 26.5665 19.1206 26.5665C18.8103 26.5665 18.5517 26.6182 18.3448 26.7217C18.1379 26.8251 17.931 26.9803 17.7758 27.1872C17.6206 27.3941 17.5172 27.601 17.4655 27.8596C17.4138 28.1182 17.362 28.3769 17.362 28.6355C17.362 28.8941 17.4138 29.1527 17.4655 29.4114C17.5172 29.67 17.6724 29.8769 17.8275 30.0838C17.9827 30.2907 18.1379 30.4458 18.3965 30.5493C18.6034 30.6527 18.862 30.7045 19.1724 30.7045C19.431 30.7045 19.6379 30.6527 19.8448 30.601L18.7586 29.3596H20.2069L20.6206 29.8251C20.7758 29.67 20.8275 29.4631 20.8793 29.2562Z" fill="white"/>
<path d="M28.8794 19.0118H24.2759C23.9139 19.0118 23.6035 18.7015 23.6035 18.3394C23.6035 17.9774 23.9139 17.667 24.2759 17.667H28.8794C29.2414 17.667 29.5518 17.9774 29.5518 18.3394C29.5518 18.7015 29.2414 19.0118 28.8794 19.0118Z" fill="white"/>
<path d="M34.776 21.6525H24.3277C23.9656 21.6525 23.6553 21.3421 23.6553 20.98C23.6553 20.618 23.9656 20.3076 24.3277 20.3076H34.776C35.138 20.3076 35.4484 20.618 35.4484 20.98C35.3967 21.3421 35.0863 21.6525 34.776 21.6525Z" fill="white"/>
</svg>
