<svg width="50" height="51" viewBox="0 0 50 51" fill="none" xmlns="http://www.w3.org/2000/svg">
<rect y="0.196106" width="50" height="50" rx="25" fill="#DCEBFE"/>
<path d="M40 22.4847V35.7705H38.1143H11.8857H10V22.4847V18.6276H14.2V31.4847H25H35.9714V18.6276H40V22.4847Z" fill="#7D89AA"/>
<path d="M28.6491 14.7153C26.5906 14.7153 25 16.3995 25 18.458V32.2123H36.883V18.1773V14.6217C36.9765 14.7153 28.6491 14.7153 28.6491 14.7153Z" fill="#BEC3C7"/>
<path d="M13.3669 18.2711V14.9656H21.3508C23.263 14.9656 24.7499 16.5295 24.7499 18.4582V32.0561H13.3669V18.2711Z" fill="#ECF0F1" stroke="#BEC3C7" stroke-width="0.5"/>
<path d="M34.3566 26.4077H27.3391V28.7469H34.3566V26.4077Z" fill="#5A5A5A"/>
<path d="M34.3566 22.8515H27.3391V25.1906H34.3566V22.8515Z" fill="#5A5A5A"/>
<path d="M34.4503 19.3976H30.8948V21.7367H34.4503V19.3976Z" fill="#5A5A5A"/>
<path d="M22.6608 26.4077H15.6433V28.7469H22.6608V26.4077Z" fill="#FC974D"/>
<path d="M22.6608 22.8515H15.6433V25.1906H22.6608V22.8515Z" fill="#07CC9D"/>
<path d="M19.1988 19.3976H15.6433V21.7367H19.1988V19.3976Z" fill="#FF5856"/>
</svg>
