<svg width="51" height="50" viewBox="0 0 51 50" fill="none" xmlns="http://www.w3.org/2000/svg">
<rect x="0.333374" width="50" height="50" rx="25" fill="white"/>
<path d="M34.8621 36.5643H15.8046V25.8993C15.8046 24.8418 16.6371 24.0093 17.6946 24.0093H32.8971C33.9546 24.0093 34.7871 24.8418 34.7871 25.8993C34.8621 27.1818 34.8621 35.4993 34.8621 36.5643Z" fill="#7D89AA"/>
<path d="M38.2672 33.5425C39.0997 33.5425 39.7822 34.225 39.7822 35.0575C39.7822 35.89 39.0997 36.5725 38.2672 36.5725H34.8622V33.55H38.2672V33.5425Z" fill="#40B8E7"/>
<path d="M15.8045 33.5412V36.5637H12.3995C11.567 36.5637 10.8845 35.8812 10.8845 35.0487C10.8845 34.2162 11.567 33.5337 12.3995 33.5337H15.8045V33.5412Z" fill="#40B8E7"/>
<path d="M37.4347 29.9872C38.2672 31.5022 38.2672 32.9347 38.2672 33.5422H34.8622V27.4897C35.3122 27.7147 36.5272 28.4722 37.4347 29.9872Z" fill="#95E6F9"/>
<path d="M15.8045 27.4136V33.4661H12.3995C12.3995 32.8586 12.3995 31.4261 13.232 29.9111C14.1395 28.4711 15.347 27.7211 15.8045 27.4136Z" fill="#95E6F9"/>
<path d="M25.337 13.4272C28.2845 13.4272 30.632 15.7747 30.632 18.7222C30.632 21.6697 28.292 24.0172 25.337 24.0172C22.382 24.0172 20.042 21.6697 20.042 18.7222C20.042 15.7747 22.382 13.4272 25.337 13.4272Z" fill="#F8C7AB"/>
<path d="M25.337 27.7886C26.6195 27.7886 27.6095 28.7711 27.6095 30.0536C27.6095 31.3361 26.627 32.3186 25.337 32.3186C24.047 32.3186 23.072 31.3361 23.072 30.0536C23.072 28.8461 24.0545 27.7886 25.337 27.7886Z" fill="white"/>
</svg>
