<svg width="24" height="25" viewBox="0 0 24 25" fill="none" xmlns="http://www.w3.org/2000/svg">
<rect y="0.5" width="24" height="24" rx="5" fill="#EF3C36"/>
<path d="M14.7191 13.2247C14.2727 12.8814 13.8454 12.5139 13.4391 12.124C13.033 11.7178 12.6712 11.3245 12.3563 10.949C12.6989 10.0753 12.9371 9.16427 13.0663 8.23475C13.0663 6.4642 12.4263 6.10156 11.4664 6.10156C10.7368 6.10156 9.86648 6.48042 9.86648 8.28595C9.98372 9.36081 10.4387 10.3708 11.166 11.1709C10.9544 11.816 10.7061 12.56 10.4271 13.3996C10.2923 13.8024 10.1475 14.1758 9.99276 14.52C9.86762 14.5769 9.74588 14.6338 9.62756 14.6906C9.20092 14.9023 8.80074 15.0934 8.42786 15.27C6.7213 16.0764 5.6001 16.6097 5.6001 17.6592C5.6001 18.4271 6.43119 18.9007 7.19999 18.9007C8.1915 18.9007 9.689 17.5764 10.7838 15.3451C11.972 14.9075 13.1971 14.5771 14.4443 14.3579C15.1193 14.976 15.9244 15.435 16.8002 15.7009C18.1228 15.7009 18.4001 14.933 18.4001 14.2956C18.4001 13.0344 16.9598 13.0344 16.2669 13.0344C15.7475 13.0658 15.2306 13.1293 14.7191 13.2247ZM7.19999 17.8324C7.00799 17.8378 6.81989 17.7776 6.66669 17.6618C6.66669 17.2838 7.79387 16.7496 8.88521 16.2325L9.09597 16.1327C8.29474 17.2957 7.5029 17.8341 7.19999 17.8341V17.8324ZM10.9331 8.28595C10.9331 7.16816 11.2804 7.16816 11.4664 7.16816C11.8435 7.16816 11.9997 7.16816 11.9997 8.23475C11.9138 8.80287 11.7708 9.36089 11.573 9.90035C11.2182 9.4297 10.9971 8.87191 10.9331 8.28595ZM11.3418 14.0183C11.3748 13.9255 11.4072 13.8317 11.4391 13.7367C11.637 13.1394 11.8154 12.6095 11.9741 12.1291C12.1948 12.372 12.4334 12.6217 12.69 12.8783C12.7898 12.9781 13.0381 13.2034 13.3726 13.485C12.7139 13.6283 12.015 13.8058 11.3461 14.0174L11.3418 14.0183ZM17.3326 14.2956C17.3326 14.5353 17.3327 14.6369 16.8377 14.6369C16.5179 14.5063 16.2167 14.3342 15.9418 14.1249C16.092 14.1079 16.2029 14.1002 16.2661 14.1002C17.0536 14.1002 17.2772 14.1778 17.3326 14.293V14.2956Z" fill="white"/>
</svg>
