<svg width="17" height="20" viewBox="0 0 17 20" fill="none" xmlns="http://www.w3.org/2000/svg">
<path d="M14.7341 2.875H11.4683V2.28178C11.468 1.80949 11.2803 1.35661 10.9465 1.02255C10.6126 0.688495 10.1598 0.500559 9.68754 0.5H7.31254C6.84007 0.50028 6.38703 0.688092 6.05294 1.02218C5.71885 1.35627 5.53104 1.80931 5.53076 2.28178V2.875H2.26593C1.87231 2.87528 1.49487 3.0317 1.21644 3.30993C0.938006 3.58816 0.781321 3.96549 0.780762 4.35911V6.4375C0.780762 6.59511 0.843373 6.74627 0.954822 6.85772C1.06627 6.96917 1.21743 7.03178 1.37504 7.03178H1.69909L2.2121 17.7984C2.23197 18.2569 2.42825 18.6899 2.7599 19.007C3.09155 19.324 3.53291 19.5007 3.99176 19.5H13.0083C13.4663 19.5008 13.9069 19.3248 14.2384 19.0089C14.5699 18.6929 14.7668 18.2612 14.788 17.8037L15.301 7.03706H15.625C15.7825 7.03706 15.9335 6.97459 16.0449 6.86337C16.1563 6.75215 16.219 6.60126 16.2193 6.44383V4.35911C16.2188 3.96549 16.0621 3.58816 15.7836 3.30993C15.5052 3.0317 15.1278 2.87528 14.7341 2.875ZM6.71826 2.28178C6.71854 2.12435 6.78128 1.97346 6.89269 1.86224C7.00411 1.75102 7.15511 1.68856 7.31254 1.68856H9.68754C9.76558 1.68856 9.84286 1.70393 9.91496 1.73379C9.98706 1.76366 10.0526 1.80743 10.1078 1.86262C10.1629 1.9178 10.2067 1.98331 10.2366 2.05541C10.2664 2.12751 10.2818 2.20479 10.2818 2.28283V2.875H6.71826V2.28178ZM1.96826 4.36017C1.96854 4.28159 1.99988 4.2063 2.05544 4.15074C2.11101 4.09517 2.18629 4.06383 2.26487 4.06356H14.7341C14.8127 4.06383 14.888 4.09517 14.9436 4.15074C14.9991 4.2063 15.0305 4.28159 15.0308 4.36017V5.84428H1.96826V4.36017ZM13.6005 17.7478C13.5934 17.9003 13.5278 18.0442 13.4173 18.1496C13.3068 18.255 13.16 18.3137 13.0073 18.3136H3.99176C3.83907 18.3137 3.6922 18.255 3.5817 18.1496C3.47121 18.0442 3.4056 17.9003 3.39854 17.7478L2.88554 7.03178H14.1114L13.6005 17.7478Z" fill="#7C7C7C"/>
<path d="M8.49996 17.1249C8.65739 17.1249 8.80839 17.0624 8.91981 16.9512C9.03122 16.84 9.09396 16.6891 9.09424 16.5317V8.8124C9.08778 8.65926 9.0224 8.51454 8.91176 8.40846C8.80111 8.30239 8.65377 8.24316 8.50049 8.24316C8.34721 8.24316 8.19986 8.30239 8.08922 8.40846C7.97858 8.51454 7.9132 8.65926 7.90674 8.8124V16.5317C7.90702 16.6889 7.96961 16.8397 8.0808 16.9508C8.19199 17.062 8.34271 17.1246 8.49996 17.1249Z" fill="#7C7C7C"/>
<path d="M11.4692 17.1249C11.6266 17.1249 11.7776 17.0624 11.889 16.9512C12.0005 16.84 12.0632 16.6891 12.0635 16.5317V8.8124C12.057 8.65926 11.9916 8.51454 11.881 8.40846C11.7704 8.30239 11.623 8.24316 11.4697 8.24316C11.3164 8.24316 11.1691 8.30239 11.0585 8.40846C10.9478 8.51454 10.8824 8.65926 10.876 8.8124V16.5317C10.8763 16.6889 10.9388 16.8397 11.05 16.9508C11.1612 17.062 11.312 17.1246 11.4692 17.1249Z" fill="#7C7C7C"/>
<path d="M5.53072 17.1249C5.68815 17.1249 5.83915 17.0624 5.95057 16.9512C6.06199 16.84 6.12472 16.6891 6.125 16.5317V8.8124C6.11854 8.65926 6.05316 8.51454 5.94252 8.40846C5.83188 8.30239 5.68453 8.24316 5.53125 8.24316C5.37797 8.24316 5.23062 8.30239 5.11998 8.40846C5.00934 8.51454 4.94396 8.65926 4.9375 8.8124V16.5317C4.93778 16.6889 5.00037 16.8397 5.11156 16.9508C5.22275 17.062 5.37348 17.1246 5.53072 17.1249Z" fill="#7C7C7C"/>
</svg>
