<svg width="50" height="51" viewBox="0 0 50 51" fill="none" xmlns="http://www.w3.org/2000/svg">
<rect y="0.196106" width="50" height="50" rx="25" fill="#F0EAFF"/>
<path d="M37.7311 32.281H34.3278H32.0588V30.2642C32.0588 28.2474 33.6975 26.6087 35.7143 26.6087H36.0294H36.3446C38.3614 26.6087 40 28.2474 40 30.2642V32.281H37.7311Z" fill="#FC974D"/>
<path d="M15.6723 32.281H12.2689H10V30.2642C10 28.2474 11.6387 26.6087 13.6555 26.6087H13.9706H14.2857C16.3025 26.6087 17.9412 28.2474 17.9412 30.2642V32.281H15.6723Z" fill="#07CC9D"/>
<path d="M28.0252 33.8541H21.9748H17.9412V32.2785V30.2617V29.5684C17.9412 26.7953 20.2101 24.5264 22.9832 24.5264H25H27.0168C29.7899 24.5264 32.0589 26.7953 32.0589 29.5684V30.2617V32.2785V33.8541H28.0252Z" fill="#FF5856"/>
<path d="M13.9703 22.0113C15.2308 22.0113 16.2392 23.0197 16.2392 24.2802C16.2392 25.5407 15.2308 26.5492 13.9703 26.5492C12.7098 26.5492 11.7014 25.5407 11.7014 24.2802C11.7014 23.0197 12.7098 22.0113 13.9703 22.0113Z" fill="#F2CEB9"/>
<path d="M36.0297 22.0113C37.2902 22.0113 38.2986 23.0197 38.2986 24.2802C38.2986 25.5407 37.2902 26.5492 36.0297 26.5492C34.7691 26.5492 33.7607 25.5407 33.7607 24.2802C33.7607 23.0197 34.7691 22.0113 36.0297 22.0113Z" fill="#F2CEB9"/>
<path d="M24.9999 16.5305C27.2058 16.5305 29.0336 18.3583 29.0336 20.5642C29.0336 22.77 27.2058 24.5978 24.9999 24.5978C22.794 24.5978 20.9663 22.77 20.9663 20.5642C20.9663 18.2952 22.794 16.5305 24.9999 16.5305Z" fill="#F2CEB9"/>
<path d="M13.0251 30.52C13.0251 30.0788 12.647 29.7007 12.2058 29.7007C11.7646 29.7007 11.3865 30.0788 11.3865 30.52V32.2217H12.9621V30.52H13.0251Z" fill="#04AC84"/>
<path d="M16.4914 30.52C16.4914 30.0788 16.1133 29.7007 15.6721 29.7007C15.2309 29.7007 14.8528 30.0788 14.8528 30.52V32.2217H16.4284V30.52H16.4914Z" fill="#04AC84"/>
<path d="M35.0837 30.52C35.0837 30.0788 34.7056 29.7007 34.2644 29.7007C33.8232 29.7007 33.4451 30.0788 33.4451 30.52V32.2217H35.0207V30.52H35.0837Z" fill="#F47F31"/>
<path d="M38.5505 30.52C38.5505 30.0788 38.1724 29.7007 37.7312 29.7007C37.29 29.7007 36.9119 30.0788 36.9119 30.52V32.2217H38.4875V30.52H38.5505Z" fill="#F47F31"/>
<path d="M22.7939 31.5927C22.7939 31.1515 22.4158 30.7734 21.9746 30.7734C21.5334 30.7734 21.1553 31.1515 21.1553 31.5927V33.7986H22.7309V31.5927H22.7939Z" fill="#DB4040"/>
<path d="M28.0251 30.8365C27.584 30.8365 27.2058 31.2146 27.2058 31.6558V33.8617H28.7814V31.6558C28.7814 31.1516 28.4663 30.8365 28.0251 30.8365Z" fill="#DB4040"/>
</svg>
