<svg width="26" height="26" viewBox="0 0 26 26" fill="none" xmlns="http://www.w3.org/2000/svg">
<g clip-path="url(#clip0_91_2839)">
<path d="M13 26C20.1797 26 26 20.1797 26 13C26 5.8203 20.1797 0 13 0C5.8203 0 0 5.8203 0 13C0 20.1797 5.8203 26 13 26Z" fill="#FF0000"/>
<path d="M19.9774 11.1629C19.9774 9.47361 18.5819 8.07812 16.8926 8.07812H8.88699C7.19773 8.07812 5.80225 9.47361 5.80225 11.1629V14.9086C5.80225 16.5979 7.19773 17.9934 8.88699 17.9934H16.8926C18.5819 17.9934 19.9774 16.5979 19.9774 14.9086V11.1629ZM15.2768 13.2928L11.678 15.0555C11.5311 15.129 11.0904 15.0555 11.0904 14.8352V11.2363C11.0904 11.0894 11.6045 10.9425 11.678 11.0894L15.1299 12.9256C15.2768 12.999 15.4237 13.2194 15.2768 13.2928Z" fill="white"/>
</g>
<defs>
<clipPath id="clip0_91_2839">
<rect width="26" height="26" fill="white"/>
</clipPath>
</defs>
</svg>
