<svg width="16" height="16" viewBox="0 0 16 16" fill="none" xmlns="http://www.w3.org/2000/svg">
<path d="M15.5181 13.3832L10.1314 7.99646L15.5146 2.61326C15.7881 2.32532 15.9384 1.9419 15.9333 1.54477C15.9282 1.14764 15.7682 0.768198 15.4874 0.487358C15.2065 0.206519 14.8271 0.046495 14.4299 0.0414068C14.0328 0.0363185 13.6494 0.186567 13.3615 0.460119L7.97825 5.84332L2.59434 0.459411C2.30639 0.18586 1.92298 0.0356118 1.52585 0.0407001C1.12871 0.0457883 0.749274 0.205811 0.468435 0.486651C0.187595 0.767491 0.0275715 1.14693 0.0224833 1.54406C0.017395 1.9412 0.167644 2.32461 0.441195 2.61255L5.8244 7.99576L0.436953 13.3832C0.163401 13.6711 0.0131524 14.0546 0.0182411 14.4517C0.0233297 14.8488 0.183352 15.2283 0.464192 15.5091C0.745031 15.7899 1.12447 15.95 1.5216 15.9551C1.91874 15.9601 2.30215 15.8099 2.59009 15.5363L7.97683 10.1496L13.3643 15.537C13.6522 15.8106 14.0356 15.9608 14.4328 15.9558C14.8299 15.9507 15.2093 15.7906 15.4902 15.5098C15.771 15.229 15.931 14.8495 15.9361 14.4524C15.9412 14.0553 15.791 13.6719 15.5174 13.3839L15.5181 13.3832Z" fill="white"/>
</svg>
