<svg width="30" height="30" viewBox="0 0 30 30" fill="none" xmlns="http://www.w3.org/2000/svg">
<path d="M15 0C12.0333 0 9.13319 0.879734 6.66645 2.52796C4.19972 4.17618 2.27713 6.51886 1.14181 9.25975C0.00649926 12.0006 -0.290551 15.0166 0.288228 17.9263C0.867006 20.8361 2.29562 23.5088 4.3934 25.6066C6.49119 27.7044 9.16394 29.133 12.0737 29.7118C14.9834 30.2905 17.9994 29.9935 20.7403 28.8582C23.4811 27.7229 25.8238 25.8003 27.472 23.3335C29.1203 20.8668 30 17.9667 30 15C30 11.0217 28.4196 7.20644 25.6066 4.3934C22.7936 1.58035 18.9783 0 15 0ZM15 23.628C14.6989 23.628 14.4045 23.5387 14.1541 23.3714C13.9038 23.2041 13.7086 22.9663 13.5934 22.6881C13.4782 22.4099 13.448 22.1038 13.5068 21.8085C13.5655 21.5131 13.7105 21.2418 13.9234 21.0289C14.1364 20.816 14.4076 20.671 14.703 20.6122C14.9983 20.5535 15.3044 20.5837 15.5826 20.6989C15.8608 20.8141 16.0986 21.0093 16.2659 21.2596C16.4332 21.51 16.5225 21.8044 16.5225 22.1055C16.5225 22.5093 16.3621 22.8965 16.0766 23.1821C15.7911 23.4676 15.4038 23.628 15 23.628ZM16.5225 15.8085C16.5289 16.0126 16.4942 16.2158 16.4206 16.4062C16.3469 16.5966 16.2357 16.7703 16.0937 16.9169C15.9516 17.0635 15.7815 17.1801 15.5935 17.2597C15.4055 17.3393 15.2034 17.3803 14.9993 17.3803C14.7951 17.3803 14.593 17.3393 14.405 17.2597C14.217 17.1801 14.0469 17.0635 13.9049 16.9169C13.7628 16.7703 13.6516 16.5966 13.5779 16.4062C13.5043 16.2158 13.4696 16.0126 13.476 15.8085V7.7865C13.4696 7.58244 13.5043 7.37918 13.5779 7.18877C13.6516 6.99837 13.7628 6.82471 13.9049 6.6781C14.0469 6.53149 14.217 6.41492 14.405 6.33532C14.593 6.25571 14.7951 6.21469 14.9993 6.21469C15.2034 6.21469 15.4055 6.25571 15.5935 6.33532C15.7815 6.41492 15.9516 6.53149 16.0937 6.6781C16.2357 6.82471 16.3469 6.99837 16.4206 7.18877C16.4942 7.37918 16.5289 7.58244 16.5225 7.7865V15.8085Z" fill="#F9BA48"/>
</svg>
