<svg width="18" height="21" viewBox="0 0 18 21" fill="none" xmlns="http://www.w3.org/2000/svg">
<path d="M3.857 0C3.14986 0 2.57129 0.578571 2.57129 1.28571V19.2857C2.57129 19.9929 3.14986 20.5714 3.857 20.5714H16.7141C17.4213 20.5714 17.9999 19.9929 17.9999 19.2857V5.14286L12.857 0H3.857Z" fill="#E2E5E7"/>
<path d="M14.1426 5.14286H17.9998L12.8569 0V3.85714C12.8569 4.56429 13.4355 5.14286 14.1426 5.14286Z" fill="#B0B7BD"/>
<path d="M18.0002 9.00167L14.1431 5.14453H18.0002V9.00167Z" fill="#CAD1D8"/>
<path d="M15.4286 16.716C15.4286 17.0695 15.1393 17.3588 14.7857 17.3588H0.642857C0.289286 17.3588 0 17.0695 0 16.716V10.2874C0 9.93382 0.289286 9.64453 0.642857 9.64453H14.7857C15.1393 9.64453 15.4286 9.93382 15.4286 10.2874V16.716Z" fill="#84BD5A"/>
<path d="M4.51329 13.1109L5.4075 11.9904C5.67493 11.6407 6.19436 12.0875 5.90122 12.4218C5.59329 12.7869 5.26929 13.1829 4.96072 13.5885L6.00922 14.8942C6.29207 15.2799 5.727 15.6495 5.44929 15.269L4.503 14.0559L3.57279 15.2953C3.3105 15.6701 2.72936 15.249 3.0225 14.8993L4.05557 13.5885C3.73157 13.1823 3.41786 12.7869 3.10479 12.4218C2.78143 12.036 3.3825 11.6407 3.61907 12.0013L4.51329 13.1109Z" fill="white"/>
<path d="M6.64355 12.1809C6.64355 12.0112 6.78755 11.8672 6.96755 11.8672C7.13212 11.8672 7.27098 12.0118 7.27098 12.1809V14.7562H8.66919C9.17255 14.7562 9.18348 15.4293 8.66919 15.4293H6.9682C6.7882 15.4293 6.6442 15.3013 6.6442 15.1162V12.1809H6.64355Z" fill="white"/>
<path d="M9.64367 12.6457C9.76195 11.648 11.2675 11.4686 11.9772 12.0138C12.327 12.296 11.9567 12.7434 11.6481 12.5171C11.2675 12.276 10.4042 12.1629 10.2962 12.6965C10.1573 13.5399 12.3932 13.0571 12.3572 14.4245C12.3212 15.7301 10.4299 15.7603 9.72017 15.1747C9.54981 15.0358 9.5556 14.8102 9.64817 14.6707C9.78188 14.5376 9.93038 14.4913 10.1059 14.6353C10.527 14.9227 11.6121 15.1387 11.6886 14.4084C11.6224 13.6485 9.48424 14.1056 9.64367 12.6457Z" fill="white"/>
<path d="M14.7856 17.3577H2.57129V18.0006H14.7856C15.1391 18.0006 15.4284 17.7113 15.4284 17.3577V16.7148C15.4284 17.0684 15.1391 17.3577 14.7856 17.3577Z" fill="#CAD1D8"/>
</svg>
