<svg width="7" height="11" viewBox="0 0 7 11" fill="none" xmlns="http://www.w3.org/2000/svg">
<path d="M1.18072 10.9967C1.08189 10.9966 0.985302 10.9673 0.903159 10.9123C0.821015 10.8574 0.756996 10.7793 0.719188 10.688C0.681381 10.5967 0.67148 10.4962 0.690736 10.3993C0.709992 10.3024 0.757546 10.2133 0.827383 10.1434L5.47405 5.49671L0.827383 0.850876C0.734818 0.756905 0.683137 0.63017 0.683595 0.498266C0.684053 0.366362 0.736609 0.239978 0.829825 0.146653C0.923041 0.0533269 1.04936 0.000618833 1.18127 5.41447e-06C1.31317 -0.000608004 1.43997 0.0509223 1.53405 0.143377L6.53405 5.14338C6.58054 5.18981 6.61742 5.24496 6.64258 5.30566C6.66774 5.36636 6.6807 5.43142 6.6807 5.49713C6.6807 5.56283 6.66774 5.6279 6.64258 5.6886C6.61742 5.7493 6.58054 5.80444 6.53405 5.85088L1.53405 10.8509C1.44023 10.9444 1.31316 10.9968 1.18072 10.9967Z" fill="#949494"/>
</svg>
