<svg width="50" height="50" viewBox="0 0 50 50" fill="none" xmlns="http://www.w3.org/2000/svg">
<rect x="6.10352e-05" width="50" height="50" rx="25" fill="white"/>
<path d="M16.9856 24.6978C12.9449 24.6978 9.84384 28.0551 10.0062 31.9335C10.177 35.7264 13.1926 38.6481 16.9856 38.6481C20.7786 38.6481 23.965 35.547 23.965 31.6686C23.965 27.7902 20.864 24.6978 16.9856 24.6978Z" fill="#57606F"/>
<path d="M22.6755 35.7234C21.3855 37.5344 19.3182 38.6535 16.9946 38.6535C14.8418 38.6535 12.8599 37.7053 11.5699 36.1591C11.4845 35.9882 11.3136 35.9028 11.2282 35.7319C12.5182 33.9209 14.5855 32.8018 16.9091 32.8018C19.2328 32.8018 21.3855 33.9209 22.684 35.7319L22.6755 35.7234Z" fill="#59D9A4"/>
<path d="M16.9856 27.4551C18.4635 27.4551 19.6595 28.6511 19.6595 30.129C19.6595 31.6069 18.4635 32.7943 16.9856 32.7943C15.5077 32.7943 14.3117 31.5983 14.3117 30.129C14.3117 28.6596 15.5077 27.4551 16.9856 27.4551Z" fill="#FFE2B6"/>
<path d="M24.9642 11.2593C21.0858 11.2593 17.9848 14.3603 17.9848 18.2387C17.9848 21.0834 19.7104 23.6634 22.2903 24.697C23.9306 25.389 25.9039 25.4744 27.715 24.697C30.2949 23.5779 32.0205 21.0834 32.0205 18.2387C31.9351 14.3603 28.8341 11.2593 24.9557 11.2593L24.9642 11.2593Z" fill="#32438C"/>
<path d="M30.6449 22.2861C29.8675 23.3198 28.8338 24.1826 27.6293 24.6952C26.7665 25.0369 25.9036 25.2163 24.9554 25.2163C24.0072 25.2163 23.0589 25.0454 22.2815 24.6952C21.077 24.1826 20.0433 23.3198 19.2659 22.2861C20.5559 20.4751 22.6232 19.356 24.9469 19.356C27.2705 19.356 29.4233 20.4751 30.6278 22.2861H30.6449Z" fill="#FF5987"/>
<path d="M24.9643 13.9326C26.4422 13.9326 27.6382 15.1286 27.6382 16.598C27.6382 18.0673 26.4422 19.2718 24.9643 19.2718C23.4864 19.2718 22.2904 18.0759 22.2904 16.598C22.2904 15.1201 23.4864 13.9326 24.9643 13.9326Z" fill="#FFE2B6"/>
<path d="M33.0207 38.6566C36.8753 38.6566 40.0001 35.5318 40.0001 31.6772C40.0001 27.8225 36.8753 24.6978 33.0207 24.6978C29.1661 24.6978 26.0413 27.8225 26.0413 31.6772C26.0413 35.5318 29.1661 38.6566 33.0207 38.6566Z" fill="#57606F"/>
<path d="M33.0207 32.7944C35.3443 32.7944 37.4971 33.999 38.7016 35.7246C38.6162 35.81 38.5308 35.8955 38.4453 36.0663C37.1554 37.7065 35.1735 38.7402 32.9353 38.7402C30.6971 38.7402 28.4589 37.5357 27.2543 35.81C28.5443 33.9135 30.6116 32.7944 33.0207 32.7944Z" fill="#95E6F9"/>
<path d="M33.0209 27.4551C34.4988 27.4551 35.6947 28.6511 35.6947 30.129C35.6947 31.6069 34.4988 32.7943 33.0209 32.7943C31.543 32.7943 30.347 31.5983 30.347 30.129C30.347 28.6596 31.543 27.4551 33.0209 27.4551Z" fill="#FFE2B6"/>
</svg>
