<svg width="15" height="10" viewBox="0 0 15 10" fill="none" xmlns="http://www.w3.org/2000/svg">
<path d="M14.4271 0.549099C14.3358 0.460622 14.2274 0.390437 14.1081 0.342552C13.9887 0.294666 13.8608 0.27002 13.7316 0.27002C13.6025 0.27002 13.4746 0.294666 13.3552 0.342552C13.2359 0.390437 13.1275 0.460622 13.0361 0.549099L6.24951 7.40404L1.99251 2.92611C1.90502 2.83408 1.79966 2.75963 1.68246 2.70703C1.56525 2.65443 1.4385 2.62469 1.30943 2.61953C1.18036 2.61437 1.05151 2.63387 0.930225 2.67694C0.808941 2.72 0.697604 2.78577 0.602569 2.87051C0.507534 2.95524 0.430663 3.05727 0.376345 3.17077C0.322027 3.28428 0.291326 3.40703 0.285994 3.53202C0.280663 3.65701 0.300806 3.7818 0.345273 3.89926C0.389739 4.01671 0.457659 4.12453 0.545155 4.21656L5.49582 9.42287C5.58552 9.51724 5.69399 9.59307 5.81472 9.64579C5.93546 9.69852 6.06595 9.72706 6.19836 9.72969H6.21924C6.47949 9.72953 6.72908 9.62958 6.91343 9.45169L14.4271 1.89516C14.6113 1.71659 14.7148 1.47452 14.7148 1.22213C14.7148 0.969733 14.6113 0.727661 14.4271 0.549099Z" fill="#333333"/>
</svg>
