<svg width="40" height="41" viewBox="0 0 40 41" fill="none" xmlns="http://www.w3.org/2000/svg">
<rect width="40" height="40" rx="20" transform="matrix(-1 0 0 1 40 0.787354)" fill="#CDD3D8"/>
<path fill-rule="evenodd" clip-rule="evenodd" d="M23.5726 29.43C23.8549 29.4297 24.1309 29.3451 24.3657 29.1868C24.6004 29.0284 24.7833 28.8035 24.8913 28.5404C24.9993 28.2772 25.0276 27.9877 24.9726 27.7084C24.9176 27.4291 24.7817 27.1725 24.5822 26.971L21.5153 23.878L18.4485 20.785L24.5857 14.5966C24.8502 14.3258 24.9978 13.9606 24.9965 13.5805C24.9952 13.2004 24.845 12.8362 24.5787 12.5673C24.3123 12.2983 23.9514 12.1464 23.5745 12.1447C23.1976 12.1429 22.8353 12.2914 22.5665 12.5578L22.562 12.5622L15.419 19.7662C15.2863 19.8999 15.1808 20.059 15.1089 20.2338C15.037 20.4087 15 20.5962 15 20.7856C15 20.9749 15.037 21.1624 15.1089 21.3373C15.1808 21.5121 15.2861 21.6709 15.4187 21.8047L22.5621 29.0089C22.8301 29.2783 23.1941 29.4303 23.5726 29.43Z" fill="white"/>
</svg>
