<svg width="21" height="21" viewBox="0 0 21 21" fill="none" xmlns="http://www.w3.org/2000/svg">
<path d="M10.0044 0.679321C4.48439 0.679321 0.00439453 5.15932 0.00439453 10.6793C0.00439453 16.1993 4.48439 20.6793 10.0044 20.6793C15.5244 20.6793 20.0044 16.1993 20.0044 10.6793C20.0044 5.15932 15.5244 0.679321 10.0044 0.679321ZM11.0044 17.6793H9.00439V15.6793H11.0044V17.6793ZM13.0744 9.92932L12.1744 10.8493C11.6744 11.3593 11.3144 11.8193 11.1344 12.5393C11.0544 12.8593 11.0044 13.2193 11.0044 13.6793H9.00439V13.1793C9.00439 12.7193 9.08439 12.2793 9.22439 11.8693C9.42439 11.2893 9.75439 10.7693 10.1744 10.3493L11.4144 9.08932C11.8744 8.64932 12.0944 7.98932 11.9644 7.28932C11.8344 6.56932 11.2744 5.95932 10.5744 5.75932C9.46439 5.44932 8.43439 6.07932 8.10439 7.02932C7.9844 7.39932 7.67439 7.67932 7.28439 7.67932H6.98439C6.40439 7.67932 6.00439 7.11932 6.16439 6.55932C6.59439 5.08932 7.84439 3.96932 9.39439 3.72932C10.9144 3.48932 12.3644 4.27932 13.2644 5.52932C14.4444 7.15932 14.0944 8.90932 13.0744 9.92932Z" fill="#D1D1D1"/>
</svg>
