<svg width="51" height="50" viewBox="0 0 51 50" fill="none" xmlns="http://www.w3.org/2000/svg">
<rect x="0.666687" width="50" height="50" rx="25" fill="white"/>
<path d="M39.7116 11.0767H11.6189C10.5249 11.0767 9.66669 11.9289 9.66669 13.0289V33.8687C9.66669 34.9688 10.5189 35.821 11.6189 35.821H39.7116C40.8056 35.821 41.6638 34.9688 41.6638 33.8687V13.0289C41.7243 11.9954 40.8116 11.0767 39.7116 11.0767Z" fill="#7D89AA"/>
<path d="M39.4698 13.3926V31.3071H11.9876V13.3926H39.4698Z" fill="white"/>
<path d="M35.6258 25.5757H30.2647V28.2592H35.6258V25.5757Z" fill="#FF5987"/>
<path d="M35.6258 21.0083H30.2647V23.6919H35.6258V21.0083Z" fill="#FFCC66"/>
<path d="M35.6258 16.4375H30.2647V19.1211H35.6258V16.4375Z" fill="#59D9A4"/>
<path d="M33.6192 36.3061C33.9214 36.6083 34.0483 36.977 34.0483 37.4001C34.0483 38.2523 33.3774 38.9232 32.5252 38.9232H18.8777C18.4486 38.9232 18.086 38.7418 17.7838 38.5001C17.4816 38.2583 17.3546 37.8292 17.3546 37.4001C17.3546 36.5478 18.0255 35.877 18.8777 35.877H32.5856C32.9543 35.877 33.3774 35.9978 33.6192 36.3061Z" fill="#5C6887"/>
<path d="M22.4076 22.3493L19.3614 24.0538V20.5845L22.4076 22.3493Z" fill="white"/>
<path d="M20.395 17.3496C23.139 17.3496 25.333 19.5436 25.333 22.2876C25.333 25.0316 23.139 27.2256 20.395 27.2256C17.651 27.2256 15.457 25.0316 15.457 22.2876C15.457 19.5436 17.651 17.3496 20.395 17.3496ZM19.3615 24.0525L22.3472 22.2876L19.3615 20.5227V24.0585V24.0525Z" fill="#FF5987"/>
<path d="M26.2452 33.0093C26.3661 33.1302 26.487 33.3115 26.487 33.5593C26.487 33.7407 26.4266 33.9885 26.2452 34.1094C26.1244 34.2302 25.943 34.3511 25.6952 34.3511C25.2661 34.3511 24.9035 33.9885 24.9035 33.5593C24.9035 33.378 24.9639 33.1302 25.1452 33.0093C25.3266 32.8885 25.4474 32.7676 25.6952 32.7676C25.943 32.7676 26.1244 32.8885 26.2452 33.0093Z" fill="#D0DCE7"/>
</svg>
