<svg width="26" height="27" viewBox="0 0 26 27" fill="none" xmlns="http://www.w3.org/2000/svg">
<path d="M10.2727 18.7869L6.63635 23.7878V18.7869" fill="white"/>
<path d="M10.2727 18.7869L6.63635 23.7878V18.7869" stroke="black" stroke-width="1.5" stroke-miterlimit="10" stroke-linecap="round" stroke-linejoin="round"/>
<path d="M6.63636 18.7898H3.90909C3.36364 18.7898 3 18.2897 3 17.7896V4.78706C3 4.28696 3.36364 3.78687 3.90909 3.78687H22.0909C22.6364 3.78687 23 4.28696 23 4.78706V17.7896C23 18.2897 22.6364 18.7898 22.0909 18.7898H10.2727" fill="white"/>
<path d="M6.63636 18.7898H3.90909C3.36364 18.7898 3 18.2897 3 17.7896V4.78706C3 4.28696 3.36364 3.78687 3.90909 3.78687H22.0909C22.6364 3.78687 23 4.28696 23 4.78706V17.7896C23 18.2897 22.6364 18.7898 22.0909 18.7898H10.2727" stroke="black" stroke-width="1.5" stroke-miterlimit="10" stroke-linecap="round" stroke-linejoin="round"/>
<path d="M7.54541 8.68567H18.4545" stroke="#0EA1DB" stroke-width="1.5" stroke-miterlimit="10" stroke-linecap="round" stroke-linejoin="round"/>
<path d="M7.54541 12.7837H14.8181" stroke="#0EA1DB" stroke-width="1.5" stroke-miterlimit="10" stroke-linecap="round" stroke-linejoin="round"/>
</svg>
