<svg width="21" height="21" viewBox="0 0 21 21" fill="none" xmlns="http://www.w3.org/2000/svg">
<path d="M20.798 7.88564L13.5647 0.648311C13.5027 0.585624 13.4289 0.535858 13.3475 0.501893C13.2662 0.467928 13.1789 0.450439 13.0907 0.450439C13.0025 0.450439 12.9153 0.467928 12.8339 0.501893C12.7525 0.535858 12.6787 0.585624 12.6167 0.648311C12.034 1.5652 11.6271 2.58252 11.4167 3.64831L8.51004 6.55498C7.95906 6.37003 7.36175 6.37663 6.81499 6.57372C6.26823 6.77081 5.80408 7.14683 5.49782 7.64079C5.19157 8.13475 5.06116 8.71769 5.12776 9.29506C5.19435 9.87243 5.45404 10.4104 5.86471 10.8216L7.76871 12.7296L1.09404 19.4056C1.0318 19.4679 0.982419 19.5418 0.948731 19.6231C0.915044 19.7044 0.897705 19.7916 0.897705 19.8796C0.897705 19.9677 0.915044 20.0548 0.948731 20.1362C0.982419 20.2175 1.0318 20.2914 1.09404 20.3536C1.15629 20.4159 1.23019 20.4653 1.31152 20.499C1.39284 20.5326 1.48001 20.55 1.56804 20.55C1.65607 20.55 1.74324 20.5326 1.82457 20.499C1.9059 20.4653 1.9798 20.4159 2.04204 20.3536L8.71671 13.6776L10.6314 15.5856C11.0426 15.9963 11.5806 16.256 12.158 16.3226C12.7353 16.3892 13.3183 16.2588 13.8122 15.9525C14.3062 15.6463 14.6822 15.1821 14.8793 14.6354C15.0764 14.0886 15.083 13.4913 14.898 12.9403L17.8034 10.035C18.8697 9.82494 19.8875 9.418 20.8047 8.83498C20.8672 8.77252 20.9166 8.69827 20.9501 8.61654C20.9836 8.53482 21.0005 8.44724 20.9999 8.35892C20.9993 8.27059 20.9811 8.18327 20.9465 8.10202C20.9118 8.02077 20.8614 7.94722 20.798 7.88564Z" fill="#FF6652"/>
</svg>
