<svg width="33" height="32" viewBox="0 0 33 32" fill="none" xmlns="http://www.w3.org/2000/svg">
<rect x="0.5" width="32" height="32" rx="16" fill="#333333"/>
<path d="M26.4656 10.5438C26.3795 10.1982 26.2108 9.87863 25.974 9.61248C25.7373 9.34634 25.4395 9.14157 25.1063 9.01572C21.9 7.77822 16.7812 7.7876 16.5 7.7876C16.2188 7.7876 11.1 7.77822 7.89375 9.01572C7.56051 9.14157 7.26275 9.34634 7.02599 9.61248C6.78923 9.87863 6.62054 10.1982 6.53438 10.5438C6.29063 11.472 6 13.1782 6 16.0001C6 18.822 6.29063 20.5282 6.53438 21.4563C6.62054 21.802 6.78923 22.1216 7.02599 22.3877C7.26275 22.6539 7.56051 22.8586 7.89375 22.9845C10.9688 24.1751 15.7875 24.2126 16.4344 24.2126H16.5656C17.2125 24.2126 22.0313 24.1751 25.1063 22.9845C25.4395 22.8586 25.7373 22.6539 25.974 22.3877C26.2108 22.1216 26.3795 21.802 26.4656 21.4563C26.7094 20.5282 27 18.822 27 16.0001C27 13.1782 26.7094 11.472 26.4656 10.5438ZM19.7062 16.3095L15.2062 19.3095C15.1466 19.3534 15.0741 19.3765 15 19.3751C14.9379 19.3728 14.8771 19.3568 14.8219 19.3282C14.762 19.2971 14.7118 19.2499 14.6771 19.192C14.6423 19.1341 14.6243 19.0676 14.625 19.0001V13.0001C14.6243 12.9326 14.6423 12.8661 14.6771 12.8082C14.7118 12.7503 14.762 12.7031 14.8219 12.672C14.8817 12.6401 14.949 12.625 15.0167 12.6283C15.0843 12.6316 15.1499 12.6532 15.2062 12.6907L19.7062 15.6907C19.7585 15.7237 19.8016 15.7693 19.8315 15.8234C19.8614 15.8775 19.877 15.9383 19.877 16.0001C19.877 16.0619 19.8614 16.1227 19.8315 16.1768C19.8016 16.2309 19.7585 16.2765 19.7062 16.3095Z" fill="#FAFBFF"/>
</svg>
