<svg width="16" height="16" viewBox="0 0 16 16" fill="none" xmlns="http://www.w3.org/2000/svg">
<g clip-path="url(#clip0_258_1276)">
<path d="M12.0165 15.8981C11.7675 15.8981 11.5316 15.8457 11.322 15.7278L8.03287 13.998C8.01976 13.998 8.01976 13.9849 8.00666 13.9849C7.99355 13.9849 7.98045 13.9849 7.98045 13.998L4.69134 15.7278C4.46858 15.8457 4.2327 15.8981 3.99683 15.8981C3.55129 15.8981 3.13197 15.7015 2.84368 15.3608C2.55539 15.0201 2.43745 14.5746 2.51608 14.1422L3.14507 10.4862C3.14507 10.4599 3.14507 10.4468 3.13197 10.4337L0.458747 7.82604C0.039419 7.43292 -0.104725 6.83013 0.078731 6.29287C0.262187 5.7425 0.720828 5.34938 1.2974 5.27075L4.96653 4.73349C4.99274 4.73349 5.00584 4.72038 5.01894 4.69418L6.65695 1.36576C6.90592 0.8547 7.43008 0.5271 8.00666 0.5271C8.58323 0.5271 9.09429 0.8547 9.35637 1.36576L10.9944 4.69418C11.0075 4.70728 11.0206 4.72038 11.0468 4.73349L14.7159 5.27075C15.2925 5.34938 15.7511 5.7425 15.9346 6.29287C16.118 6.84323 15.9608 7.43291 15.5546 7.83914L12.8945 10.4206C12.8814 10.4337 12.8682 10.4599 12.8814 10.473L13.5103 14.1291C13.589 14.5615 13.471 15.007 13.1827 15.3477C12.8814 15.7015 12.462 15.8981 12.0165 15.8981Z" fill="#F1B114"/>
<path d="M14.0476 5.16592C13.5234 9.62129 8.88463 13.369 3.44646 12.8842C3.21059 12.858 2.96161 12.8318 2.72574 12.8056L3.11886 10.4862C3.11886 10.4599 3.11886 10.4468 3.10576 10.4337L0.458747 7.82604C0.039419 7.43292 -0.104725 6.83013 0.078731 6.29287C0.262187 5.7425 0.720828 5.34938 1.2974 5.27075L4.96653 4.73349C4.99274 4.73349 5.00584 4.72038 5.01894 4.69418L6.65695 1.36576C6.90592 0.841596 7.43008 0.5271 8.00666 0.5271C8.58324 0.5271 9.1074 0.8547 9.35637 1.36576L10.9944 4.69418C11.0075 4.70728 11.0206 4.72038 11.0468 4.73349L14.0476 5.16592Z" fill="#F4C90F"/>
<path d="M12.0164 15.374C11.8591 15.374 11.7019 15.3346 11.5577 15.256L8.26864 13.5394C8.19001 13.5001 8.08518 13.4739 7.99345 13.4739C7.90172 13.4739 7.81 13.5001 7.71827 13.5394L4.42916 15.2691C4.28502 15.3477 4.12777 15.3871 3.97052 15.3871C3.68223 15.3871 3.40705 15.256 3.21049 15.0333C3.02703 14.8105 2.94841 14.5222 3.00082 14.2339L3.62982 10.5779C3.65602 10.3944 3.60361 10.1979 3.45946 10.0668L0.812452 7.45913C0.537268 7.19705 0.44554 6.80393 0.563476 6.45012C0.681412 6.09631 0.982804 5.83423 1.36282 5.78182L5.03194 5.24455C5.2154 5.21835 5.38575 5.10041 5.47748 4.93006L7.11548 1.60164C7.28584 1.26093 7.62654 1.05127 8.00656 1.05127C8.38657 1.05127 8.72728 1.26093 8.89763 1.60164L10.5356 4.93006C10.6143 5.10041 10.7846 5.21835 10.9812 5.24455L14.6503 5.78182C15.0303 5.83423 15.3317 6.09631 15.4496 6.45012C15.5676 6.80393 15.4758 7.19705 15.2007 7.45913L12.5274 10.0537C12.3964 10.1848 12.3309 10.3813 12.3571 10.5648L12.9861 14.2208C13.0385 14.5091 12.9599 14.7974 12.7764 15.0201C12.5799 15.2429 12.3047 15.374 12.0164 15.374Z" fill="#F0841D"/>
<path d="M8.70109 1.68024L10.3522 5.00865C10.4701 5.24453 10.6929 5.40178 10.9419 5.44109L14.611 5.97835C15.2531 6.07008 15.5152 6.86942 15.0434 7.31496L12.3964 9.90956C12.213 10.093 12.1212 10.3551 12.1736 10.6041L12.8026 14.2601C12.9075 14.9022 12.2392 15.387 11.6626 15.0856L8.37349 13.3559C8.15072 13.238 7.87553 13.238 7.63966 13.3559L4.35055 15.0856C3.77398 15.387 3.10567 14.9022 3.2105 14.2601L3.8395 10.6041C3.87881 10.3551 3.80018 10.093 3.61673 9.90956L0.956613 7.31496C0.484868 6.85632 0.746949 6.07008 1.38905 5.97835L5.05817 5.44109C5.32025 5.40178 5.52991 5.24453 5.64785 5.00865L7.29896 1.68024C7.58724 1.10366 8.4128 1.10366 8.70109 1.68024Z" fill="#F9CE1B"/>
<path d="M13.9034 5.87358C12.9206 9.90962 9.05489 12.9235 4.42918 12.9235C4.10158 12.9235 3.77398 12.9104 3.44638 12.8842L3.8395 10.6041C3.87881 10.3552 3.80018 10.0931 3.61673 9.90962L0.956613 7.31502C0.484868 6.85638 0.746949 6.07014 1.38905 5.97841L5.05817 5.44115C5.30714 5.40184 5.52991 5.24459 5.64785 5.00872L7.29895 1.6803C7.58724 1.09062 8.4128 1.09062 8.70108 1.6803L10.3522 5.00872C10.4701 5.24459 10.6929 5.40184 10.9419 5.44115L13.9034 5.87358Z" fill="#FADB1B"/>
<path d="M6.64376 5.38878C6.60445 5.38878 6.56514 5.37568 6.52582 5.36257C6.36858 5.29705 6.30305 5.1136 6.36857 4.95635L6.60445 4.40598C6.66997 4.24873 6.85342 4.18321 7.01067 4.24873C7.16792 4.31425 7.23344 4.49771 7.16792 4.65496L6.93205 5.20533C6.86653 5.31016 6.7617 5.38878 6.64376 5.38878Z" fill="#F6E879"/>
<path d="M7.23345 3.97349C7.19414 3.97349 7.15483 3.96039 7.11551 3.94729C6.95827 3.88177 6.89275 3.69831 6.95827 3.54106L7.43001 2.42722C7.49553 2.26997 7.67899 2.20445 7.83624 2.26997C7.99348 2.33549 8.059 2.51895 7.99348 2.6762L7.52174 3.79004C7.46932 3.89487 7.35139 3.97349 7.23345 3.97349Z" fill="#F6E879"/>
<path d="M2.14907 6.84322C2.00493 6.84322 1.87389 6.73838 1.84768 6.58114C1.82147 6.41078 1.93941 6.25354 2.09666 6.22733L3.89191 5.95214C4.06226 5.92594 4.21951 6.04387 4.24572 6.20112C4.27192 6.37147 4.15399 6.52872 3.99674 6.55493L2.20149 6.83011C2.18839 6.84322 2.17528 6.84322 2.14907 6.84322Z" fill="#F6E879"/>
</g>
<defs>
<clipPath id="clip0_258_1276">
<rect width="16" height="15.371" fill="white" transform="translate(0 0.5271)"/>
</clipPath>
</defs>
</svg>
