<svg width="33" height="32" viewBox="0 0 33 32" fill="none" xmlns="http://www.w3.org/2000/svg">
<rect x="0.5" width="32" height="32" rx="16" fill="#333333"/>
<path d="M16.5 19C18.1569 19 19.5 17.6569 19.5 16C19.5 14.3431 18.1569 13 16.5 13C14.8431 13 13.5 14.3431 13.5 16C13.5 17.6569 14.8431 19 16.5 19Z" fill="#FAFBFF"/>
<path d="M20.625 6.625H12.375C10.9826 6.625 9.64726 7.17812 8.66269 8.16269C7.67812 9.14726 7.125 10.4826 7.125 11.875V20.125C7.125 21.5174 7.67812 22.8527 8.66269 23.8373C9.64726 24.8219 10.9826 25.375 12.375 25.375H20.625C22.0174 25.375 23.3527 24.8219 24.3373 23.8373C25.3219 22.8527 25.875 21.5174 25.875 20.125V11.875C25.875 10.4826 25.3219 9.14726 24.3373 8.16269C23.3527 7.17812 22.0174 6.625 20.625 6.625ZM16.5 20.5C15.61 20.5 14.74 20.2361 13.9999 19.7416C13.2599 19.2471 12.6831 18.5443 12.3425 17.7221C12.0019 16.8998 11.9128 15.995 12.0865 15.1221C12.2601 14.2492 12.6887 13.4474 13.318 12.818C13.9474 12.1887 14.7492 11.7601 15.6221 11.5865C16.495 11.4128 17.3998 11.5019 18.2221 11.8425C19.0443 12.1831 19.7471 12.7599 20.2416 13.4999C20.7361 14.24 21 15.11 21 16C21 17.1935 20.5259 18.3381 19.682 19.182C18.8381 20.0259 17.6935 20.5 16.5 20.5ZM21.375 12.25C21.1525 12.25 20.935 12.184 20.75 12.0604C20.565 11.9368 20.4208 11.7611 20.3356 11.5555C20.2505 11.35 20.2282 11.1238 20.2716 10.9055C20.315 10.6873 20.4222 10.4868 20.5795 10.3295C20.7368 10.1722 20.9373 10.065 21.1555 10.0216C21.3738 9.97821 21.6 10.0005 21.8055 10.0856C22.0111 10.1708 22.1868 10.315 22.3104 10.5C22.434 10.685 22.5 10.9025 22.5 11.125C22.5 11.4234 22.3815 11.7095 22.1705 11.9205C21.9595 12.1315 21.6734 12.25 21.375 12.25Z" fill="#FAFBFF"/>
</svg>
