<svg width="13" height="12" viewBox="0 0 13 12" fill="none" xmlns="http://www.w3.org/2000/svg">
<path d="M6.5 0C5.31331 0 4.15328 0.351894 3.16658 1.01118C2.17989 1.67047 1.41085 2.60754 0.956725 3.7039C0.5026 4.80025 0.38378 6.00666 0.615291 7.17054C0.846802 8.33443 1.41825 9.40352 2.25736 10.2426C3.09648 11.0818 4.16557 11.6532 5.32946 11.8847C6.49335 12.1162 7.69975 11.9974 8.7961 11.5433C9.89246 11.0891 10.8295 10.3201 11.4888 9.33342C12.1481 8.34672 12.5 7.18669 12.5 6C12.497 4.40964 11.8638 2.88529 10.7393 1.76073C9.61471 0.63617 8.09036 0.0030496 6.5 0ZM8.91731 5.61923L6.84039 7.92692C6.79715 7.97414 6.74455 8.01185 6.68595 8.03764C6.62735 8.06344 6.56403 8.07676 6.5 8.07676C6.43598 8.07676 6.37265 8.06344 6.31405 8.03764C6.25545 8.01185 6.20286 7.97414 6.15962 7.92692L4.08269 5.61923C4.00316 5.52847 3.96235 5.41016 3.96899 5.28967C3.97563 5.16918 4.02919 5.05607 4.11821 4.9746C4.20723 4.89312 4.32462 4.84975 4.44523 4.85378C4.56584 4.85781 4.68008 4.90892 4.76346 4.99615L6.5 6.92308L8.23654 4.99615C8.27704 4.94993 8.32636 4.91227 8.38161 4.88537C8.43685 4.85846 8.49692 4.84286 8.55828 4.83948C8.61964 4.8361 8.68105 4.84501 8.73892 4.86568C8.79679 4.88635 8.84995 4.91837 8.89528 4.95986C8.94061 5.00134 8.9772 5.05147 9.0029 5.10729C9.0286 5.16311 9.0429 5.22349 9.04495 5.28491C9.047 5.34633 9.03677 5.40754 9.01485 5.46494C8.99293 5.52235 8.95977 5.57481 8.91731 5.61923Z" fill="#B8B8B8"/>
</svg>
