<svg width="20" height="22" viewBox="0 0 20 22" fill="none" xmlns="http://www.w3.org/2000/svg">
<path d="M3.95721 0.195435V16.8621H18.6631H20V7.71262V5.56485V0.195435" fill="url(#paint0_linear_240_1096)"/>
<path d="M16.5107 0.195435V5.54303L14.4786 3.56442L12.5 5.54303V0.195435H16.5107Z" fill="#FF5856"/>
<path d="M3.95722 0.195435V16.8934H2.29947C1.65775 16.8934 1.06952 17.1086 0.641711 17.4529C0.26738 17.7541 0.0534759 18.0984 0 18.5288V3.29403C0 1.61562 1.71123 0.238471 3.79679 0.238471H3.95722V0.195435Z" fill="#5A5A5A"/>
<path d="M3.88702 19.7528C4.22356 19.7528 4.51202 20.0413 4.51202 20.3778C4.51202 20.7143 4.22356 21.0028 3.88702 21.0028C3.55049 21.0028 3.26202 20.7143 3.26202 20.3778C3.26202 20.0413 3.55049 19.7528 3.88702 19.7528Z" fill="#5A5A5A"/>
<rect x="6.70151" y="7.08997" width="10" height="4.16667" rx="1" fill="white"/>
<path d="M4.22857 16.6732H2.45714C1.77143 16.6732 1.14286 16.9406 0.685714 17.3684C0.285714 17.7427 0.0571429 18.1705 0 18.7053C0 18.8123 0 18.9192 0 19.0262C0 20.3096 1.14286 21.3791 2.51429 21.3791H20V18.7053V16.6732H4.22857Z" fill="#BEC3C7"/>
<defs>
<linearGradient id="paint0_linear_240_1096" x1="3.95721" y1="16.8621" x2="20" y2="0.195436" gradientUnits="userSpaceOnUse">
<stop stop-color="#0092FC"/>
<stop offset="1" stop-color="#7DEFFF"/>
</linearGradient>
</defs>
</svg>
