<svg width="27" height="22" viewBox="0 0 27 22" fill="none" xmlns="http://www.w3.org/2000/svg">
<path d="M6.08115 22C8.80366 22 10.7094 20.189 10.7094 17.2378C10.7094 14.4207 8.53141 12.811 6.08115 12.811C5.87696 12.811 5.60471 12.811 5.40052 12.878C5.40052 8.65244 7.44241 5.90244 11.5262 3.48781L9.55236 0C3.56283 3.15244 0.5 7.84756 0.5 14.2195C0.5 19.1829 2.47382 22 6.08115 22ZM20.9869 22C23.7094 22 25.6832 20.189 25.6832 17.2378C25.6832 14.4207 23.5052 12.811 20.9869 12.811C20.7827 12.811 20.5785 12.811 20.3743 12.878C20.3743 8.65244 22.4162 5.90244 26.5 3.48781L24.4581 0C18.5366 3.15244 15.4738 7.84756 15.4738 14.2195C15.4738 19.1829 17.4476 22 20.9869 22Z" fill="#373737"/>
</svg>
