<svg width="27" height="22" viewBox="0 0 27 22" fill="none" xmlns="http://www.w3.org/2000/svg">
<path d="M20.9188 0C18.1963 0 16.2906 1.81098 16.2906 4.7622C16.2906 7.57927 18.4686 9.18902 20.9188 9.18902C21.123 9.18902 21.3953 9.18902 21.5995 9.12195C21.5995 13.3476 19.5576 16.0976 15.4738 18.5122L17.4476 22C23.4372 18.8476 26.5 14.1524 26.5 7.78049C26.5 2.81707 24.5262 0 20.9188 0ZM6.01309 0C3.29058 0 1.31675 1.81098 1.31675 4.7622C1.31675 7.57927 3.49476 9.18902 6.01309 9.18902C6.21728 9.18902 6.42147 9.18902 6.62565 9.12195C6.62565 13.3476 4.58377 16.0976 0.5 18.5122L2.54189 22C8.46335 18.8476 11.5262 14.1524 11.5262 7.78049C11.5262 2.81707 9.55236 0 6.01309 0Z" fill="#373737"/>
</svg>
