<svg width="33" height="32" viewBox="0 0 33 32" fill="none" xmlns="http://www.w3.org/2000/svg">
<rect x="0.5" width="32" height="32" rx="16" fill="#333333"/>
<path d="M26.2499 15.9997C26.245 18.3818 25.3708 20.6802 23.7913 22.4633C22.2119 24.2465 20.0358 25.3918 17.6717 25.6841C17.619 25.6893 17.5657 25.6835 17.5153 25.6671C17.4649 25.6507 17.4184 25.6241 17.3788 25.5888C17.3392 25.5536 17.3073 25.5106 17.2851 25.4624C17.2629 25.4143 17.2509 25.3621 17.2499 25.3091V18.2497H19.4999C19.6024 18.2499 19.7039 18.2291 19.7981 18.1885C19.8923 18.1479 19.9772 18.0884 20.0475 18.0137C20.1178 17.9391 20.172 17.8507 20.2068 17.7543C20.2416 17.6578 20.2563 17.5552 20.2499 17.4528C20.2333 17.2589 20.1437 17.0785 19.9993 16.948C19.8549 16.8175 19.6663 16.7466 19.4717 16.7497H17.2499V14.4997C17.2499 14.1019 17.4079 13.7204 17.6892 13.4391C17.9705 13.1578 18.352 12.9997 18.7499 12.9997H20.2499C20.3524 12.9999 20.4539 12.9791 20.5481 12.9385C20.6423 12.8979 20.7272 12.8384 20.7975 12.7637C20.8678 12.6891 20.922 12.6007 20.9568 12.5043C20.9916 12.4078 21.0063 12.3052 20.9999 12.2028C20.9833 12.0089 20.8937 11.8285 20.7493 11.698C20.6049 11.5675 20.4163 11.4966 20.2217 11.4997H18.7499C17.9542 11.4997 17.1911 11.8158 16.6285 12.3784C16.0659 12.941 15.7499 13.7041 15.7499 14.4997V16.7497H13.4998C13.3973 16.7495 13.2958 16.7704 13.2016 16.8109C13.1074 16.8515 13.0225 16.911 12.9522 16.9857C12.8819 17.0604 12.8277 17.1487 12.7929 17.2452C12.7581 17.3416 12.7434 17.4442 12.7499 17.5466C12.7664 17.7405 12.856 17.9209 13.0004 18.0514C13.1448 18.1819 13.3334 18.2528 13.528 18.2497H15.7499V25.3091C15.7501 25.3617 15.7393 25.4137 15.7182 25.4618C15.697 25.5099 15.666 25.5531 15.6271 25.5884C15.5882 25.6238 15.5423 25.6506 15.4924 25.6671C15.4425 25.6836 15.3897 25.6894 15.3373 25.6841C10.3873 25.0841 6.56235 20.781 6.75922 15.6341C6.86974 13.0923 7.9694 10.6944 9.82347 8.95225C11.6776 7.21007 14.1392 6.26162 16.6829 6.30933C19.2266 6.35705 21.6509 7.39716 23.4384 9.20766C25.2258 11.0181 26.2347 13.4556 26.2499 15.9997Z" fill="#FAFBFF"/>
</svg>
