<svg width="18" height="18" viewBox="0 0 18 18" fill="none" xmlns="http://www.w3.org/2000/svg">
<g clip-path="url(#clip0_50_4373)">
<path fill-rule="evenodd" clip-rule="evenodd" d="M13.8 3.25C13.1096 3.25 12.55 3.80964 12.55 4.5C12.55 5.19036 13.1096 5.75 13.8 5.75C14.4904 5.75 15.05 5.19036 15.05 4.5C15.05 3.80964 14.4904 3.25 13.8 3.25ZM11.05 4.5C11.05 2.98122 12.2812 1.75 13.8 1.75C15.3188 1.75 16.55 2.98122 16.55 4.5C16.55 6.01878 15.3188 7.25 13.8 7.25C12.8277 7.25 11.9732 6.74536 11.4842 5.98369L6.19635 8.62761C6.23154 8.8035 6.25 8.9855 6.25 9.17188C6.25 9.22675 6.2484 9.28124 6.24524 9.33532L11.65 12.086C12.1539 11.455 12.9297 11.0508 13.8 11.0508C15.3188 11.0508 16.55 12.282 16.55 13.8008C16.55 15.3196 15.3188 16.5508 13.8 16.5508C12.2812 16.5508 11.05 15.3196 11.05 13.8008C11.05 13.69 11.0565 13.5808 11.0693 13.4735L5.74417 10.7634C5.24627 11.4649 4.42738 11.9219 3.5 11.9219C1.97912 11.9219 0.75 10.6928 0.75 9.17188C0.75 7.65099 1.97912 6.42188 3.5 6.42188C4.29407 6.42188 5.0086 6.75693 5.51019 7.29364L11.0501 4.52368L11.05 4.5ZM13.8 12.5508C13.1096 12.5508 12.55 13.1104 12.55 13.8008C12.55 14.4911 13.1096 15.0508 13.8 15.0508C14.4904 15.0508 15.05 14.4911 15.05 13.8008C15.05 13.1104 14.4904 12.5508 13.8 12.5508ZM2.25 9.17188C2.25 8.47942 2.80755 7.92188 3.5 7.92188C4.19245 7.92188 4.75 8.47942 4.75 9.17188C4.75 9.86433 4.19245 10.4219 3.5 10.4219C2.80755 10.4219 2.25 9.86433 2.25 9.17188Z" fill="black"/>
</g>
<defs>
<clipPath id="clip0_50_4373">
<rect width="18" height="18" fill="white"/>
</clipPath>
</defs>
</svg>
