<svg width="33" height="32" viewBox="0 0 33 32" fill="none" xmlns="http://www.w3.org/2000/svg">
<rect x="0.5" width="32" height="32" rx="16" fill="#333333"/>
<path d="M9.21281 16.2559H7.02141L7.00969 15.0488H8.84953C9.17375 15.0488 9.43937 15.0078 9.64641 14.9258C9.85344 14.8398 10.0077 14.7168 10.1093 14.5566C10.2148 14.3926 10.2675 14.1934 10.2675 13.959C10.2675 13.6934 10.2167 13.4785 10.1152 13.3145C10.0175 13.1504 9.8632 13.0312 9.65227 12.957C9.44523 12.8828 9.17766 12.8457 8.84953 12.8457H7.63078V20H5.87297V11.4688H8.84953C9.34562 11.4688 9.78898 11.5156 10.1796 11.6094C10.5741 11.7031 10.9081 11.8457 11.1816 12.0371C11.455 12.2285 11.664 12.4707 11.8085 12.7637C11.953 13.0527 12.0253 13.3965 12.0253 13.7949C12.0253 14.1465 11.9452 14.4707 11.7851 14.7676C11.6288 15.0645 11.3808 15.3066 11.0409 15.4941C10.705 15.6816 10.2655 15.7852 9.72258 15.8047L9.21281 16.2559ZM9.13664 20H6.54094L7.22648 18.6289H9.13664C9.44523 18.6289 9.69719 18.5801 9.8925 18.4824C10.0878 18.3809 10.2323 18.2441 10.3261 18.0723C10.4198 17.9004 10.4667 17.7031 10.4667 17.4805C10.4667 17.2305 10.4237 17.0137 10.3378 16.8301C10.2558 16.6465 10.123 16.5059 9.93937 16.4082C9.75578 16.3066 9.51359 16.2559 9.21281 16.2559H7.51945L7.53117 15.0488H9.64055L10.0448 15.5234C10.5644 15.5156 10.9823 15.6074 11.2987 15.7988C11.6191 15.9863 11.8515 16.2305 11.996 16.5312C12.1445 16.832 12.2187 17.1543 12.2187 17.498C12.2187 18.0449 12.0995 18.5059 11.8612 18.8809C11.623 19.252 11.2734 19.5312 10.8124 19.7188C10.3554 19.9062 9.7968 20 9.13664 20ZM14.8528 11V20H13.1595V11H14.8528ZM15.6178 16.8945V16.7715C15.6178 16.3066 15.6842 15.8789 15.817 15.4883C15.9498 15.0938 16.1432 14.752 16.3971 14.4629C16.651 14.1738 16.9635 13.9492 17.3346 13.7891C17.7057 13.625 18.1315 13.543 18.612 13.543C19.0924 13.543 19.5202 13.625 19.8952 13.7891C20.2702 13.9492 20.5846 14.1738 20.8385 14.4629C21.0963 14.752 21.2916 15.0938 21.4245 15.4883C21.5573 15.8789 21.6237 16.3066 21.6237 16.7715V16.8945C21.6237 17.3555 21.5573 17.7832 21.4245 18.1777C21.2916 18.5684 21.0963 18.9102 20.8385 19.2031C20.5846 19.4922 20.2721 19.7168 19.901 19.877C19.5299 20.0371 19.1041 20.1172 18.6237 20.1172C18.1432 20.1172 17.7155 20.0371 17.3405 19.877C16.9694 19.7168 16.6549 19.4922 16.3971 19.2031C16.1432 18.9102 15.9498 18.5684 15.817 18.1777C15.6842 17.7832 15.6178 17.3555 15.6178 16.8945ZM17.3053 16.7715V16.8945C17.3053 17.1602 17.3287 17.4082 17.3756 17.6387C17.4225 17.8691 17.4967 18.0723 17.5983 18.248C17.7037 18.4199 17.8405 18.5547 18.0084 18.6523C18.1764 18.75 18.3815 18.7988 18.6237 18.7988C18.858 18.7988 19.0592 18.75 19.2272 18.6523C19.3952 18.5547 19.5299 18.4199 19.6315 18.248C19.733 18.0723 19.8073 17.8691 19.8541 17.6387C19.9049 17.4082 19.9303 17.1602 19.9303 16.8945V16.7715C19.9303 16.5137 19.9049 16.2715 19.8541 16.0449C19.8073 15.8145 19.7311 15.6113 19.6256 15.4355C19.5241 15.2559 19.3893 15.1152 19.2213 15.0137C19.0534 14.9121 18.8502 14.8613 18.612 14.8613C18.3737 14.8613 18.1705 14.9121 18.0026 15.0137C17.8385 15.1152 17.7037 15.2559 17.5983 15.4355C17.4967 15.6113 17.4225 15.8145 17.3756 16.0449C17.3287 16.2715 17.3053 16.5137 17.3053 16.7715ZM26.3145 13.6602H27.8438V19.7891C27.8438 20.3672 27.7148 20.8574 27.457 21.2598C27.2031 21.666 26.8477 21.9727 26.3906 22.1797C25.9336 22.3906 25.4023 22.4961 24.7969 22.4961C24.5312 22.4961 24.25 22.4609 23.9531 22.3906C23.6602 22.3203 23.3789 22.2109 23.1094 22.0625C22.8438 21.9141 22.6211 21.7266 22.4414 21.5L23.1855 20.5039C23.3809 20.7305 23.6074 20.9062 23.8652 21.0312C24.123 21.1602 24.4082 21.2246 24.7207 21.2246C25.0254 21.2246 25.2832 21.168 25.4941 21.0547C25.7051 20.9453 25.8672 20.7832 25.9805 20.5684C26.0938 20.3574 26.1504 20.1016 26.1504 19.8008V15.125L26.3145 13.6602ZM22.0488 16.9062V16.7832C22.0488 16.2988 22.1074 15.8594 22.2246 15.4648C22.3457 15.0664 22.5156 14.7246 22.7344 14.4395C22.957 14.1543 23.2266 13.9336 23.543 13.7773C23.8594 13.6211 24.2168 13.543 24.6152 13.543C25.0371 13.543 25.3906 13.6211 25.6758 13.7773C25.9609 13.9336 26.1953 14.1562 26.3789 14.4453C26.5625 14.7305 26.7051 15.0684 26.8066 15.459C26.9121 15.8457 26.9941 16.2695 27.0527 16.7305V17C26.9941 17.4414 26.9062 17.8516 26.7891 18.2305C26.6719 18.6094 26.5176 18.9414 26.3262 19.2266C26.1348 19.5078 25.8965 19.7266 25.6113 19.8828C25.3301 20.0391 24.9941 20.1172 24.6035 20.1172C24.2129 20.1172 23.8594 20.0371 23.543 19.877C23.2305 19.7168 22.9629 19.4922 22.7402 19.2031C22.5176 18.9141 22.3457 18.5742 22.2246 18.1836C22.1074 17.793 22.0488 17.3672 22.0488 16.9062ZM23.7363 16.7832V16.9062C23.7363 17.168 23.7617 17.4121 23.8125 17.6387C23.8633 17.8652 23.9414 18.0664 24.0469 18.2422C24.1562 18.4141 24.291 18.5488 24.4512 18.6465C24.6152 18.7402 24.8086 18.7871 25.0312 18.7871C25.3398 18.7871 25.5918 18.7227 25.7871 18.5938C25.9824 18.4609 26.1289 18.2793 26.2266 18.0488C26.3242 17.8184 26.3809 17.5527 26.3965 17.252V16.4844C26.3887 16.2383 26.3555 16.0176 26.2969 15.8223C26.2383 15.623 26.1562 15.4531 26.0508 15.3125C25.9453 15.1719 25.8086 15.0625 25.6406 14.9844C25.4727 14.9062 25.2734 14.8672 25.043 14.8672C24.8203 14.8672 24.627 14.918 24.4629 15.0195C24.3027 15.1172 24.168 15.252 24.0586 15.4238C23.9531 15.5957 23.873 15.7988 23.8184 16.0332C23.7637 16.2637 23.7363 16.5137 23.7363 16.7832Z" fill="white"/>
</svg>
