<svg width="40" height="41" viewBox="0 0 40 41" fill="none" xmlns="http://www.w3.org/2000/svg">
<rect y="0.787354" width="40" height="40" rx="20" fill="#0EA1DB"/>
<path fill-rule="evenodd" clip-rule="evenodd" d="M16.4274 29.43C16.1451 29.4297 15.8691 29.3451 15.6343 29.1868C15.3996 29.0284 15.2167 28.8035 15.1087 28.5404C15.0007 28.2772 14.9724 27.9877 15.0274 27.7084C15.0824 27.4291 15.2183 27.1725 15.4178 26.971L18.4847 23.878L21.5515 20.785L15.4143 14.5966C15.1498 14.3258 15.0022 13.9606 15.0035 13.5805C15.0048 13.2004 15.155 12.8362 15.4213 12.5673C15.6877 12.2983 16.0486 12.1464 16.4255 12.1447C16.8024 12.1429 17.1647 12.2914 17.4335 12.5578L17.438 12.5622L24.581 19.7662C24.7137 19.8999 24.8192 20.059 24.8911 20.2338C24.963 20.4087 25 20.5962 25 20.7856C25 20.9749 24.963 21.1624 24.8911 21.3373C24.8192 21.5121 24.7139 21.6709 24.5813 21.8047L17.4379 29.0089C17.1699 29.2783 16.8059 29.4303 16.4274 29.43Z" fill="white"/>
</svg>
