<svg width="15" height="13" viewBox="0 0 15 13" fill="none" xmlns="http://www.w3.org/2000/svg">
<path d="M5.70337 12.319C5.4793 12.3185 5.2582 12.2678 5.05631 12.1706C4.85442 12.0734 4.67687 11.9322 4.53671 11.7574L1.14504 7.38071C0.976042 7.18117 0.864568 6.93938 0.82258 6.68129C0.780592 6.42319 0.809674 6.15853 0.906706 5.91571C1.00829 5.67339 1.17174 5.462 1.3807 5.3027C1.58967 5.14341 1.83681 5.04179 2.09739 5.00804C2.35797 4.97429 2.62284 5.00957 2.86549 5.11037C3.10815 5.21117 3.32007 5.37393 3.48004 5.58238L5.70337 8.48571L11.52 1.20405C11.68 0.995602 11.8919 0.832833 12.1346 0.732037C12.3772 0.631241 12.6421 0.595954 12.9027 0.629708C13.1633 0.663461 13.4104 0.765072 13.6194 0.924368C13.8283 1.08366 13.9918 1.29506 14.0934 1.53738C14.1904 1.7802 14.2195 2.04486 14.1775 2.30295C14.1355 2.56105 14.024 2.80284 13.855 3.00238L6.87171 11.7574C6.73136 11.9324 6.55354 12.0737 6.35135 12.1709C6.14915 12.2681 5.92772 12.3188 5.70337 12.319Z" fill="white"/>
</svg>
