<svg width="21" height="21" viewBox="0 0 21 21" fill="none" xmlns="http://www.w3.org/2000/svg">
<g opacity="0.4">
<path d="M19.9003 8.25338L12.667 1.01605C12.605 0.953361 12.5312 0.903595 12.4498 0.86963C12.3685 0.835665 12.2812 0.818176 12.193 0.818176C12.1048 0.818176 12.0175 0.835665 11.9362 0.86963C11.8548 0.903595 11.781 0.953361 11.719 1.01605C11.1363 1.93293 10.7294 2.95026 10.519 4.01605L7.61234 6.92272C7.06135 6.73776 6.46404 6.74437 5.91728 6.94146C5.37052 7.13855 4.90638 7.51456 4.60012 8.00853C4.29386 8.50249 4.16346 9.08543 4.23005 9.6628C4.29665 10.2402 4.55634 10.7781 4.967 11.1894L6.871 13.0974L0.196337 19.7734C0.134091 19.8356 0.084714 19.9095 0.0510264 19.9909C0.0173388 20.0722 0 20.1594 0 20.2474C0 20.3354 0.0173388 20.4226 0.0510264 20.5039C0.084714 20.5852 0.134091 20.6591 0.196337 20.7214C0.258584 20.7836 0.332481 20.833 0.41381 20.8667C0.495139 20.9004 0.582307 20.9177 0.670337 20.9177C0.758367 20.9177 0.845535 20.9004 0.926864 20.8667C1.00819 20.833 1.08209 20.7836 1.14434 20.7214L7.819 14.0454L9.73367 15.9534C10.1449 16.364 10.6829 16.6237 11.2603 16.6903C11.8376 16.7569 12.4206 16.6265 12.9145 16.3203C13.4085 16.014 13.7845 15.5499 13.9816 15.0031C14.1787 14.4563 14.1853 13.859 14.0003 13.308L16.9057 10.4027C17.972 10.1927 18.9898 9.78573 19.907 9.20271C19.9695 9.14025 20.0189 9.066 20.0524 8.98428C20.0859 8.90255 20.1028 8.81498 20.1022 8.72665C20.1016 8.63833 20.0834 8.551 20.0488 8.46976C20.0141 8.38851 19.9637 8.31496 19.9003 8.25338ZM16.4177 9.14138C16.276 9.16959 16.1473 9.24305 16.051 9.35071C16.015 9.39071 15.983 9.42538 15.9523 9.45605L12.7203 12.6867C12.6148 12.7916 12.5473 12.9287 12.5287 13.0764C12.5101 13.224 12.5414 13.3736 12.6177 13.5014C12.7709 13.7611 12.8241 14.0677 12.7674 14.3639C12.7107 14.66 12.5479 14.9253 12.3096 15.1099C12.0712 15.2946 11.7737 15.386 11.4728 15.367C11.1719 15.348 10.8882 15.2199 10.675 15.0067L8.29367 12.6254L5.90967 10.2427C5.69647 10.0295 5.56836 9.74585 5.54935 9.44494C5.53035 9.14402 5.62176 8.8465 5.80644 8.60816C5.99112 8.36983 6.2564 8.20704 6.55253 8.15031C6.84866 8.09359 7.15532 8.14683 7.415 8.30005C7.54278 8.37631 7.69239 8.40763 7.84002 8.38902C7.98765 8.37042 8.12481 8.30296 8.22967 8.19738L11.467 4.96538C11.499 4.93338 11.535 4.90005 11.571 4.86805C11.6794 4.77158 11.7534 4.64237 11.7817 4.50005C11.9285 3.85388 12.1209 3.21895 12.3577 2.60005L18.3243 8.56671C17.7034 8.80366 17.0662 8.99571 16.4177 9.14138Z" fill="#838383"/>
</g>
</svg>
