<svg width="20" height="21" viewBox="0 0 20 21" fill="none" xmlns="http://www.w3.org/2000/svg">
<path d="M19.5708 18.8637L15.517 14.8112C16.9482 13.1069 17.6662 10.9158 17.5213 8.695C17.3763 6.4742 16.3796 4.39508 14.7391 2.89123C13.0985 1.38738 10.9407 0.574911 8.71574 0.623256C6.49073 0.671601 4.37028 1.57703 2.79659 3.15072C1.2229 4.72441 0.317475 6.84486 0.26913 9.06987C0.220785 11.2949 1.03326 13.4527 2.5371 15.0932C4.04095 16.7338 6.12008 17.7304 8.34088 17.8754C10.5617 18.0203 12.7527 17.3024 14.457 15.8712L18.5095 19.9249C18.5792 19.9946 18.662 20.0499 18.753 20.0876C18.844 20.1253 18.9416 20.1447 19.0402 20.1447C19.1387 20.1447 19.2363 20.1253 19.3274 20.0876C19.4184 20.0499 19.5011 19.9946 19.5708 19.9249C19.6405 19.8552 19.6958 19.7725 19.7335 19.6815C19.7712 19.5904 19.7906 19.4928 19.7906 19.3943C19.7906 19.2958 19.7712 19.1982 19.7335 19.1071C19.6958 19.0161 19.6405 18.9334 19.5708 18.8637ZM1.78955 9.26867C1.78955 7.85948 2.20742 6.48194 2.99033 5.31024C3.77323 4.13854 4.88601 3.22531 6.18793 2.68603C7.48985 2.14676 8.92245 2.00567 10.3046 2.28059C11.6867 2.55551 12.9562 3.23409 13.9527 4.23054C14.9491 5.22699 15.6277 6.49654 15.9026 7.87866C16.1776 9.26077 16.0365 10.6934 15.4972 11.9953C14.9579 13.2972 14.0447 14.41 12.873 15.1929C11.7013 15.9758 10.3237 16.3937 8.91455 16.3937C7.0255 16.3917 5.21437 15.6404 3.8786 14.3046C2.54284 12.9689 1.79154 11.1577 1.78955 9.26867Z" fill="black"/>
</svg>
