<svg width="1200" height="715" viewBox="0 0 1200 715" fill="none" xmlns="http://www.w3.org/2000/svg">
<rect opacity="0.35" width="1200" height="715" fill="url(#paint0_linear_91_6964)"/>
<path d="M264.528 -76.1201C264.528 -106.912 297.861 -126.157 324.528 -110.761L400.945 -66.6415C427.612 -51.2455 427.612 -12.7555 400.945 2.64049L324.528 46.7601C297.861 62.1561 264.528 42.9111 264.528 12.1191L264.528 -76.1201Z" fill="url(#paint1_linear_91_6964)"/>
<g opacity="0.7" clip-path="url(#clip0_91_6964)">
<mask id="mask0_91_6964" style="mask-type:luminance" maskUnits="userSpaceOnUse" x="1123" y="131" width="131" height="76">
<path d="M1231.33 152.801C1231.33 152.801 1223.79 152.497 1218.74 147.252C1212.1 137.904 1201.17 131.747 1188.8 131.747C1176.59 131.747 1165.81 137.752 1159.09 146.948C1153.51 152.573 1146.73 152.725 1146.73 152.725C1133.76 153.941 1123.65 164.962 1123.65 178.339C1123.65 192.552 1135.12 204.105 1149.22 204.105C1152.16 204.105 1155.02 203.573 1157.66 202.661C1157.66 202.661 1157.74 202.661 1157.81 202.585C1158.42 202.357 1159.09 202.129 1159.7 201.825C1162.34 200.913 1167.31 199.925 1172.82 202.281C1177.64 204.637 1183.07 206.005 1188.88 206.005C1194.31 206.005 1199.44 204.789 1204.11 202.661C1204.11 202.661 1204.11 202.661 1204.19 202.585C1204.64 202.357 1205.09 202.129 1205.62 201.901C1207.73 200.989 1212.1 199.849 1217.46 201.673C1218.14 201.977 1218.89 202.281 1219.65 202.585H1219.72C1222.36 203.497 1225.15 204.029 1228.09 204.029C1242.19 204.029 1253.65 192.476 1253.65 178.263C1253.5 165.266 1243.85 154.473 1231.33 152.801Z" fill="white"/>
</mask>
<g mask="url(#mask0_91_6964)">
<path d="M1231.33 152.801C1231.33 152.801 1223.79 152.497 1218.74 147.252C1212.1 137.904 1201.17 131.747 1188.8 131.747C1176.59 131.747 1165.81 137.752 1159.09 146.948C1153.51 152.573 1146.73 152.725 1146.73 152.725C1133.76 153.941 1123.65 164.962 1123.65 178.339C1123.65 192.552 1135.12 204.105 1149.22 204.105C1152.16 204.105 1155.02 203.573 1157.66 202.661C1157.66 202.661 1157.74 202.661 1157.81 202.585C1158.42 202.357 1159.09 202.129 1159.7 201.825C1162.34 200.913 1167.31 199.925 1172.82 202.281C1177.64 204.637 1183.07 206.005 1188.88 206.005C1194.31 206.005 1199.44 204.789 1204.11 202.661C1204.11 202.661 1204.11 202.661 1204.19 202.585C1204.64 202.357 1205.09 202.129 1205.62 201.901C1207.73 200.989 1212.1 199.849 1217.46 201.673C1218.14 201.977 1218.89 202.281 1219.65 202.585H1219.72C1222.36 203.497 1225.15 204.029 1228.09 204.029C1242.19 204.029 1253.65 192.476 1253.65 178.263C1253.5 165.266 1243.85 154.473 1231.33 152.801Z" fill="#F5F8FF"/>
</g>
</g>
<path d="M1119.08 127.686L1109.16 114.49L1115.54 99.4453L1125.42 112.642L1119.08 127.686Z" fill="#00E7DF"/>
<path d="M1125.42 112.642L1115.54 99.4453L1131.8 97.4922L1141.67 110.689L1125.42 112.642Z" fill="#03F9F7"/>
<path d="M1141.67 110.688L1135.34 125.732L1119.08 127.685L1125.42 112.641L1141.67 110.688Z" fill="#01B2A9"/>
<g opacity="0.5" clip-path="url(#clip1_91_6964)">
<mask id="mask1_91_6964" style="mask-type:luminance" maskUnits="userSpaceOnUse" x="124" y="55" width="105" height="60">
<path d="M210.867 72.0033C210.867 72.0033 204.834 71.7633 200.792 67.623C195.484 60.2424 186.737 55.382 176.843 55.382C167.071 55.382 158.444 60.1224 153.075 67.383C148.611 71.8233 143.182 71.9433 143.182 71.9433C132.806 72.9034 124.723 81.6041 124.723 92.1649C124.723 103.386 133.892 112.507 145.173 112.507C147.525 112.507 149.818 112.087 151.929 111.366C151.929 111.366 151.989 111.366 152.05 111.306C152.532 111.126 153.075 110.946 153.558 110.706C155.669 109.986 159.651 109.206 164.054 111.066C167.915 112.927 172.259 114.007 176.904 114.007C181.247 114.007 185.349 113.047 189.089 111.366C189.089 111.366 189.089 111.366 189.15 111.306C189.512 111.126 189.873 110.946 190.296 110.766C191.985 110.046 195.484 109.146 199.767 110.586C200.31 110.826 200.913 111.066 201.516 111.306H201.576C203.688 112.027 205.92 112.447 208.273 112.447C219.553 112.447 228.723 103.326 228.723 92.1049C228.602 81.8441 220.88 73.3234 210.867 72.0033Z" fill="white"/>
</mask>
<g mask="url(#mask1_91_6964)">
<path d="M210.867 72.0033C210.867 72.0033 204.834 71.7633 200.792 67.623C195.484 60.2424 186.737 55.382 176.843 55.382C167.071 55.382 158.444 60.1224 153.075 67.383C148.611 71.8233 143.182 71.9433 143.182 71.9433C132.806 72.9034 124.723 81.6041 124.723 92.1649C124.723 103.386 133.892 112.507 145.173 112.507C147.525 112.507 149.818 112.087 151.929 111.366C151.929 111.366 151.989 111.366 152.05 111.306C152.532 111.126 153.075 110.946 153.558 110.706C155.669 109.986 159.651 109.206 164.054 111.066C167.915 112.927 172.259 114.007 176.904 114.007C181.247 114.007 185.349 113.047 189.089 111.366C189.089 111.366 189.089 111.366 189.15 111.306C189.512 111.126 189.873 110.946 190.296 110.766C191.985 110.046 195.484 109.146 199.767 110.586C200.31 110.826 200.913 111.066 201.516 111.306H201.576C203.688 112.027 205.92 112.447 208.273 112.447C219.553 112.447 228.723 103.326 228.723 92.1049C228.602 81.8441 220.88 73.3234 210.867 72.0033Z" fill="white"/>
</g>
</g>
<path d="M34.849 149.632L23.9326 134.88L30.9586 118.062L41.8169 132.815L34.849 149.632Z" fill="#F7C158"/>
<path d="M41.8168 132.818L30.9585 118.066L48.8428 115.883L59.7011 130.635L41.8168 132.818Z" fill="#F9B953"/>
<path d="M59.7013 130.633L52.7334 147.45L34.8491 149.634L41.817 132.816L59.7013 130.633Z" fill="#FF9500"/>
<defs>
<linearGradient id="paint0_linear_91_6964" x1="7.36707e-06" y1="298.199" x2="1200" y2="298.199" gradientUnits="userSpaceOnUse">
<stop stop-color="#F0E1F2"/>
<stop offset="0.421875" stop-color="#F0E0F3"/>
<stop offset="0.635417" stop-color="#97CDED"/>
<stop offset="1" stop-color="#CDD0F3"/>
</linearGradient>
<linearGradient id="paint1_linear_91_6964" x1="272" y1="-18" x2="388" y2="-8" gradientUnits="userSpaceOnUse">
<stop stop-color="#C5D4F2"/>
<stop offset="1" stop-color="#D0DBF3"/>
</linearGradient>
<clipPath id="clip0_91_6964">
<rect width="130" height="76" fill="white" transform="translate(1124 130)"/>
</clipPath>
<clipPath id="clip1_91_6964">
<rect width="104" height="60" fill="white" transform="translate(125 54)"/>
</clipPath>
</defs>
</svg>
