<svg width="320" height="112" viewBox="0 0 320 112" fill="none" xmlns="http://www.w3.org/2000/svg">
<path d="M17.9768 86.7506C13.174 86.7506 10.7726 84.4165 10.7726 79.7484V60.627H50.0254C49.3072 61.0309 48.9482 61.9062 48.9482 63.2528V79.7484C48.9482 84.4165 46.5468 86.7506 41.744 86.7506H17.9768ZM4.37638 45.5453C5.63319 44.0192 6.48602 42.4257 6.93488 40.7649C7.38374 39.1041 7.60817 36.6803 7.60817 33.4934H1.00993V25.9525H16.3609V33.4934C16.316 36.2763 16.1814 38.5206 15.957 40.2263C15.7325 41.8871 15.3061 43.3683 14.6777 44.67C14.0942 45.9717 13.2189 47.408 12.0519 48.9791L7.47351 54.9713L0 50.9316L4.37638 45.5453ZM22.2186 46.8245C23.3407 45.074 24.1038 43.301 24.5077 41.5055C24.9566 39.7101 25.181 37.0618 25.181 33.5607V33.4261H19.4581V25.8852H35.0784C34.3153 26.3341 33.9338 27.2094 33.9338 28.511V33.5607C33.9338 37.1965 33.6869 40.1365 33.1932 42.3808C32.6994 44.6251 31.8242 46.8245 30.5673 48.9791L25.9216 56.8565L18.3135 52.8841L22.2186 46.8245ZM20.266 78.1325C20.266 78.8507 20.6251 79.2098 21.3433 79.2098H38.3775C39.0957 79.2098 39.4548 78.8507 39.4548 78.1325V68.1678H20.266V78.1325ZM39.7914 24H49.2848V36.2539H57.9702C57.2521 36.6578 56.893 37.5331 56.893 38.8797V44.064H49.2848V56.7892H39.7914V24Z" fill="black"/>
<path d="M106.111 24H115.604V35.9846H123.818C123.1 36.3885 122.741 37.2638 122.741 38.6104V43.7947H115.604V58.0685H106.111V24ZM69.2819 44.9393C70.404 42.9194 71.0997 41.3709 71.3691 40.2936C71.6833 39.2164 71.8404 37.4882 71.8404 35.1093V33.4261H66.3194V25.8852H102.946C102.228 26.2892 101.869 27.1645 101.869 28.511V33.4261H96.4827V35.7826C96.4827 37.5331 96.595 38.7899 96.8194 39.553C97.0438 40.2712 97.6498 41.4382 98.6373 43.0541L104.562 52.3455L98.166 56.3179L92.3084 47.2285L86.1141 57.5972L79.5159 53.8941L80.4585 52.2782L76.688 47.3632L71.4364 56.9239L64.4342 53.6248L69.2819 44.9393ZM75.8801 62.1755H116.345C115.627 62.5795 115.268 63.4548 115.268 64.8014V87.0873H105.774V69.7164H75.8801V62.1755ZM80.6604 35.1093C80.6604 36.815 80.6829 38.0269 80.7278 38.7451C80.8176 39.4632 80.9746 40.0916 81.1991 40.6303C81.4684 41.124 81.9173 41.8197 82.5457 42.7175L84.4982 45.4779L85.7101 43.4581C86.563 41.9768 87.1016 40.8771 87.326 40.159C87.5504 39.3959 87.6627 38.1615 87.6627 36.4559V33.4261H80.6604V35.1093Z" fill="black"/>
<path fill-rule="evenodd" clip-rule="evenodd" d="M159.319 10.2897C150.934 10.8884 144.442 17.8739 144.459 26.2803L144.562 79.03C144.578 87.412 151.06 94.3606 159.421 94.9581L167.088 95.506C166.949 95.6777 166.866 95.8963 166.866 96.1343V110.071C166.866 110.939 167.896 111.395 168.539 110.811L176.324 103.733L183.869 96.8743C183.924 96.8244 183.971 96.7711 184.012 96.7154L302.859 105.208C312.121 105.87 320 98.5348 320 89.2491V16.0008C320 6.71556 312.122 -0.619799 302.86 0.041447L159.319 10.2897Z" fill="#333333"/>
<g filter="url(#filter0_d_91_7044)">
<path d="M238.819 74.0135C233.939 74.0135 230.05 72.5643 227.152 69.6661C224.291 66.7311 222.86 62.2737 222.86 56.2937V31.475H230.619V56.2937C230.619 60.4026 231.28 63.3376 232.6 65.0986C233.921 66.8595 235.994 67.74 238.819 67.74C241.644 67.74 243.716 66.8595 245.037 65.0986C246.358 63.3376 247.018 60.4026 247.018 56.2937V31.475H254.777V56.2937C254.777 62.2737 253.328 66.7311 250.43 69.6661C247.532 72.5643 243.661 74.0135 238.819 74.0135Z" fill="white"/>
<path d="M263.595 31.475H271.355V73.4632H263.595V31.475Z" fill="white"/>
<path d="M278.496 67.3548L298.252 37.8585H278.882V31.475H307.828C307.241 31.8052 306.947 32.5206 306.947 33.6212V37.5834L287.466 67.0797H308.213C307.626 67.4098 307.332 68.1252 307.332 69.2258V73.4632H278.496V67.3548Z" fill="white"/>
</g>
<g filter="url(#filter1_d_91_7044)">
<path fill-rule="evenodd" clip-rule="evenodd" d="M204.005 47.4535C204.005 57.1204 196.168 64.957 186.501 64.957C176.834 64.957 168.998 57.1204 168.998 47.4535C168.998 37.7866 176.834 29.95 186.501 29.95C196.168 29.95 204.005 37.7866 204.005 47.4535ZM198.894 72.0134C195.17 73.8963 190.959 74.957 186.501 74.957C171.311 74.957 158.998 62.6433 158.998 47.4535C158.998 32.2637 171.311 19.95 186.501 19.95C201.691 19.95 214.005 32.2637 214.005 47.4535C214.005 55.2334 210.774 62.2587 205.582 67.2617L219.722 81.4017C221.302 82.9812 221.302 85.5421 219.722 87.1216C218.143 88.7012 215.582 88.7012 214.002 87.1216L198.894 72.0134Z" fill="white"/>
</g>
<path fill-rule="evenodd" clip-rule="evenodd" d="M199.306 42.9857L185.211 57.5872L175.44 47.4644L180.389 42.687L185.211 47.6826L194.357 38.2083L199.306 42.9857Z" fill="#F7C158"/>
<defs>
<filter id="filter0_d_91_7044" x="218.86" y="27.475" width="93.353" height="50.5385" filterUnits="userSpaceOnUse" color-interpolation-filters="sRGB">
<feFlood flood-opacity="0" result="BackgroundImageFix"/>
<feColorMatrix in="SourceAlpha" type="matrix" values="0 0 0 0 0 0 0 0 0 0 0 0 0 0 0 0 0 0 127 0" result="hardAlpha"/>
<feOffset/>
<feGaussianBlur stdDeviation="2"/>
<feComposite in2="hardAlpha" operator="out"/>
<feColorMatrix type="matrix" values="0 0 0 0 0 0 0 0 0 0 0 0 0 0 0 0 0 0 0.25 0"/>
<feBlend mode="normal" in2="BackgroundImageFix" result="effect1_dropShadow_91_7044"/>
<feBlend mode="normal" in="SourceGraphic" in2="effect1_dropShadow_91_7044" result="shape"/>
</filter>
<filter id="filter1_d_91_7044" x="154.998" y="15.95" width="69.9092" height="76.3563" filterUnits="userSpaceOnUse" color-interpolation-filters="sRGB">
<feFlood flood-opacity="0" result="BackgroundImageFix"/>
<feColorMatrix in="SourceAlpha" type="matrix" values="0 0 0 0 0 0 0 0 0 0 0 0 0 0 0 0 0 0 127 0" result="hardAlpha"/>
<feOffset/>
<feGaussianBlur stdDeviation="2"/>
<feComposite in2="hardAlpha" operator="out"/>
<feColorMatrix type="matrix" values="0 0 0 0 0 0 0 0 0 0 0 0 0 0 0 0 0 0 0.25 0"/>
<feBlend mode="normal" in2="BackgroundImageFix" result="effect1_dropShadow_91_7044"/>
<feBlend mode="normal" in="SourceGraphic" in2="effect1_dropShadow_91_7044" result="shape"/>
</filter>
</defs>
</svg>
