<svg xmlns="http://www.w3.org/2000/svg" xmlns:xlink="http://www.w3.org/1999/xlink" width="400" height="300" viewBox="0 0 400 300">
  <defs>
    <clipPath id="clip-path">
      <rect id="사각형_791" data-name="사각형 791" width="400" height="300" transform="translate(1150 1221)" fill="#9ea4aa"/>
    </clipPath>
  </defs>
  <g id="img_" transform="translate(-1150 -1221)" clip-path="url(#clip-path)">
    <g id="Layer_2" transform="translate(1150 1221.038)">
      <g id="그룹_4588" data-name="그룹 4588">
        <g id="그룹_4489" data-name="그룹 4489">
          <path id="패스_4175" data-name="패스 4175" d="M281,127.2H250.4a9.494,9.494,0,0,1-1.3-18.9,14.394,14.394,0,0,1,26.8-7,6.026,6.026,0,0,1,2.9-.8,5.9,5.9,0,0,1,4.2,1.7,6.028,6.028,0,0,1,1.3,6.5,9.41,9.41,0,0,1,6.3,9A9.646,9.646,0,0,1,281,127.2ZM263.4,95.9a12.611,12.611,0,0,0-12.6,12.6v.5a.817.817,0,0,1-.8.9,7.805,7.805,0,0,0,.4,15.6H281a7.806,7.806,0,0,0,1.8-15.4,1.024,1.024,0,0,1-.6-.5.755.755,0,0,1,.1-.8,4.114,4.114,0,0,0-.6-5.3,4.234,4.234,0,0,0-3-1.2,4.388,4.388,0,0,0-2.7.9.952.952,0,0,1-.7.2c-.3-.1-.5-.2-.6-.5A12.663,12.663,0,0,0,263.4,95.9Z" fill="#c9cdd2"/>
          <path id="패스_4176" data-name="패스 4176" d="M253.8,109.4a.9.9,0,0,1-.9-.9,10.392,10.392,0,0,1,10.4-10.4.9.9,0,0,1,0,1.8,8.706,8.706,0,0,0-8.7,8.7C254.7,109,254.3,109.4,253.8,109.4Z" fill="#c9cdd2"/>
        </g>
        <g id="그룹_4490" data-name="그룹 4490">
          <path id="패스_4177" data-name="패스 4177" d="M380.7,105.4H340.9a12.1,12.1,0,0,1-1.5-24.1,18.48,18.48,0,0,1,18.4-18.4,18.216,18.216,0,0,1,16,9.4,7.655,7.655,0,0,1,3.9-1.1,7.48,7.48,0,0,1,6.8,10.6,12.107,12.107,0,0,1-3.8,23.6ZM357.8,64.6a16.73,16.73,0,0,0-16.7,16.7v.6a.817.817,0,0,1-.8.9,10.409,10.409,0,0,0,.6,20.8h39.8a10.457,10.457,0,0,0,10.4-10.4,10.289,10.289,0,0,0-8-10.1,1.024,1.024,0,0,1-.6-.5.755.755,0,0,1,.1-.8,5.8,5.8,0,0,0-4.9-8.9,5.876,5.876,0,0,0-3.6,1.3.952.952,0,0,1-.7.2c-.3-.1-.5-.2-.6-.5A16.89,16.89,0,0,0,357.8,64.6Z" fill="#c9cdd2"/>
          <path id="패스_4178" data-name="패스 4178" d="M346.9,82.2a.9.9,0,0,1-.9-.9,11.715,11.715,0,0,1,11.7-11.7.9.9,0,0,1,0,1.8,10.029,10.029,0,0,0-10,10A.789.789,0,0,1,346.9,82.2Z" fill="#c9cdd2"/>
        </g>
        <path id="패스_4179" data-name="패스 4179" d="M294.6,95.4a.713.713,0,0,1-.6-.3l-1.2-1.2a.851.851,0,1,1,1.1-1.3,7.993,7.993,0,0,1,1.3,1.3.913.913,0,0,1,0,1.2A.6.6,0,0,1,294.6,95.4Zm-4.3-3.7c-.2,0-.3-.1-.5-.2-.4-.3-.9-.6-1.4-.9a.875.875,0,0,1,.9-1.5c.5.3,1,.7,1.5,1a.83.83,0,0,1,.2,1.2A.867.867,0,0,1,290.3,91.7Zm-4.9-3a.6.6,0,0,1-.4-.1c-.5-.3-1-.5-1.5-.8a.894.894,0,0,1,.8-1.6c.5.3,1,.5,1.5.8a.837.837,0,0,1,.3,1.2A.752.752,0,0,1,285.4,88.7Zm-5.1-2.6a.756.756,0,0,1-.4-.1c-.5-.2-1-.5-1.6-.7a.828.828,0,0,1,.7-1.5c.5.2,1.1.5,1.6.7a.841.841,0,0,1,.4,1.1A.752.752,0,0,1,280.3,86.1ZM275,83.9a.367.367,0,0,1-.3-.1c-.5-.2-1.1-.4-1.6-.6a.854.854,0,1,1,.6-1.6c.5.2,1.1.4,1.6.6a.891.891,0,0,1,.5,1.1A.838.838,0,0,1,275,83.9Zm-5.4-2h-.3a9.83,9.83,0,0,0-1.6-.5.886.886,0,1,1,.5-1.7,14.242,14.242,0,0,0,1.6.5.782.782,0,0,1,.5,1.1C270.3,81.7,270,81.9,269.6,81.9Zm-5.5-1.7h-.2c-.5-.2-1.1-.3-1.6-.5a.886.886,0,1,1,.5-1.7c.6.2,1.1.3,1.7.5a.863.863,0,0,1,.6,1.1A1.217,1.217,0,0,1,264.1,80.2Zm-5.5-1.4h-.2c-.6-.1-1.1-.3-1.7-.4a.863.863,0,1,1,.3-1.7c.6.1,1.1.3,1.7.4a.8.8,0,0,1,.6,1A.684.684,0,0,1,258.6,78.8ZM253,77.6h-.2c-.6-.1-1.1-.2-1.7-.3a.863.863,0,1,1,.3-1.7c.6.1,1.1.2,1.7.3a.824.824,0,0,1,.7,1A.849.849,0,0,1,253,77.6Zm-5.7-1h-.1a9.853,9.853,0,0,0-1.7-.2.863.863,0,1,1,.3-1.7,9.853,9.853,0,0,0,1.7.2.824.824,0,0,1,.7,1A.96.96,0,0,1,247.3,76.6ZM217,76a.9.9,0,0,1,0-1.8h1.7a.851.851,0,0,1,.1,1.7,10.869,10.869,0,0,1-1.8.1Zm24.6-.1h0c-.7-.1-1.2-.1-1.8-.2a.851.851,0,0,1,.1-1.7,8.807,8.807,0,0,1,1.7.2.876.876,0,0,1,.8.9A.789.789,0,0,1,241.6,75.9Zm-28.6,0h0c-.6,0-1.2-.1-1.8-.1a.817.817,0,0,1-.8-.9.876.876,0,0,1,.9-.8c.6,0,1.1.1,1.7.1a.817.817,0,0,1,.8.9A.789.789,0,0,1,213,75.9Zm9.7-.2a.948.948,0,0,1-.9-.8.817.817,0,0,1,.8-.9c.6,0,1.2-.1,1.7-.1a.851.851,0,0,1,.1,1.7,10.9,10.9,0,0,0-1.7.1Zm13.2-.2h0c-.6,0-1.2-.1-1.7-.1a.851.851,0,0,1,.1-1.7,9.15,9.15,0,0,1,1.7.1.817.817,0,0,1,.8.9A1.063,1.063,0,0,1,235.9,75.5Zm-28.6-.1h-.1c-.6-.1-1.1-.1-1.7-.2a.863.863,0,0,1,.3-1.7c.6.1,1.1.1,1.7.2a.974.974,0,0,1,.8,1A1.2,1.2,0,0,1,207.3,75.4Zm21.1,0a.961.961,0,0,1-.9-.8.882.882,0,0,1,.8-.9H230a.9.9,0,0,1,0,1.8,7.589,7.589,0,0,0-1.6-.1Zm-26.8-.8h-.1c-.6-.1-1.1-.2-1.7-.3a.863.863,0,0,1,.3-1.7c.6.1,1.1.2,1.7.3a.824.824,0,0,1,.7,1A.961.961,0,0,1,201.6,74.6ZM196,73.5h-.2a10.461,10.461,0,0,1-1.7-.4.863.863,0,0,1,.3-1.7,10.461,10.461,0,0,1,1.7.4.871.871,0,0,1,.7,1A.761.761,0,0,1,196,73.5Zm-5.6-1.2h-.2c-.6-.1-1.1-.3-1.7-.4a.825.825,0,1,1,.4-1.6c.6.1,1.1.3,1.7.4a.8.8,0,0,1,.6,1A.993.993,0,0,1,190.4,72.3Zm-5.6-1.5h-.2c-.6-.2-1.1-.3-1.7-.5a.886.886,0,1,1,.5-1.7c.5.2,1.1.3,1.6.5a.863.863,0,0,1,.6,1.1A.76.76,0,0,1,184.8,70.8Zm-5.5-1.6h-.2c-.6-.2-1.1-.3-1.7-.5a.886.886,0,1,1,.5-1.7c.5.2,1.1.3,1.6.5a.863.863,0,0,1,.6,1.1A.76.76,0,0,1,179.3,69.2Zm-5.5-1.7h-.3a9.83,9.83,0,0,0-1.6-.5.854.854,0,1,1,.6-1.6,9.83,9.83,0,0,0,1.6.5.756.756,0,0,1,.5,1.1A.792.792,0,0,1,173.8,67.5Zm-5.4-1.8h-.3c-.5-.2-1.1-.4-1.6-.6a.854.854,0,1,1,.6-1.6c.5.2,1.1.4,1.6.6a.852.852,0,0,1,.5,1.1A1.126,1.126,0,0,1,168.4,65.7Zm-5.4-2a.367.367,0,0,1-.3-.1c-.5-.2-1.1-.4-1.6-.6a.854.854,0,1,1,.6-1.6c.5.2,1.1.4,1.6.6a.891.891,0,0,1,.5,1.1A.838.838,0,0,1,163,63.7Zm-5.4-2a.367.367,0,0,1-.3-.1c-.5-.2-1.1-.4-1.6-.6a.854.854,0,1,1,.6-1.6c.5.2,1.1.4,1.6.6a.891.891,0,0,1,.5,1.1A.76.76,0,0,1,157.6,61.7Zm-5.3-2.1a.367.367,0,0,1-.3-.1,11.111,11.111,0,0,1-1.6-.7.854.854,0,1,1,.6-1.6c.5.2,1,.4,1.6.7a.891.891,0,0,1,.5,1.1A.938.938,0,0,1,152.3,59.6ZM147,57.4a.367.367,0,0,1-.3-.1c-.6-.2-1.1-.5-1.6-.7a.828.828,0,0,1,.7-1.5c.5.2,1,.4,1.6.7a1,1,0,0,1,.5,1.1A1.382,1.382,0,0,1,147,57.4ZM141.7,55a.756.756,0,0,1-.4-.1,13.69,13.69,0,0,0-1.6-.7.828.828,0,0,1,.7-1.5s.6.3,1.6.7a.841.841,0,0,1,.4,1.1A.64.64,0,0,1,141.7,55Z" fill="#c9cdd2"/>
        <g id="그룹_4499" data-name="그룹 4499">
          <g id="그룹_4491" data-name="그룹 4491">
            <rect id="사각형_792" data-name="사각형 792" width="8.6" height="19.8" transform="matrix(0.88, -0.476, 0.476, 0.88, 349.505, 194.419)" fill="#7ebaff"/>
            <path id="패스_4180" data-name="패스 4180" d="M358.9,212.8h-.2a1,1,0,0,1-.5-.4l-9.4-17.5a.954.954,0,0,1,.3-1.2l7.5-4.1a1.483,1.483,0,0,1,.7-.1,1,1,0,0,1,.5.4l9.4,17.5a.954.954,0,0,1-.3,1.2l-7.5,4.1A4.332,4.332,0,0,0,358.9,212.8Zm-8.3-18,8.6,15.9,6-3.3-8.6-15.9Z" fill="#3d3736"/>
          </g>
          <g id="그룹_4493" data-name="그룹 4493">
            <g id="그룹_4492" data-name="그룹 4492">
              <path id="패스_4181" data-name="패스 4181" d="M374.8,121.3c-14-25.9-46.2-35.7-71.9-21.8s-35.1,46.2-21.1,72.1,46.2,35.7,71.9,21.8S388.8,147.2,374.8,121.3Z" fill="#fff"/>
              <path id="패스_4182" data-name="패스 4182" d="M328.8,200.5h0a54.271,54.271,0,0,1-47.7-28.6c-14.2-26.3-4.6-59.2,21.4-73.2a53.4,53.4,0,0,1,25.3-6.4,54.561,54.561,0,0,1,52.1,69.8,53.2,53.2,0,0,1-51.1,38.4ZM327.8,94a51.24,51.24,0,0,0-24.5,6.2c-25.2,13.6-34.5,45.4-20.7,70.9a52.428,52.428,0,0,0,46.2,27.7h0a51.547,51.547,0,0,0,49.5-37.2A52.895,52.895,0,0,0,327.8,94Z" fill="#3d3736"/>
            </g>
            <path id="패스_4183" data-name="패스 4183" d="M364,127.1c-10.8-19.9-35.5-27.4-55.2-16.7a40.8,40.8,0,0,0-16.2,55.3c10.8,19.9,35.5,27.4,55.2,16.7A40.692,40.692,0,0,0,364,127.1Z" fill="#7ebaff"/>
            <path id="패스_4184" data-name="패스 4184" d="M328.7,188.2a39.96,39.96,0,0,1-12.3-1.9,41.522,41.522,0,0,1-24.6-20.4c-10.9-20.4-3.3-45.7,16.9-56.4a41.564,41.564,0,0,1,47.3,5.9.851.851,0,1,1-1.1,1.3,39.807,39.807,0,1,0-37.9,68,39.446,39.446,0,0,0,30.3-2.8,38.961,38.961,0,0,0,19.2-23.6,39.615,39.615,0,0,0-3.1-30.5.894.894,0,1,1,1.6-.8,41.528,41.528,0,0,1,3.2,31.8,40.767,40.767,0,0,1-20.1,24.6A42.809,42.809,0,0,1,328.7,188.2Z" fill="#3d3736"/>
          </g>
          <g id="그룹_4498" data-name="그룹 4498">
            <g id="그룹_4496" data-name="그룹 4496">
              <g id="그룹_4494" data-name="그룹 4494">
                <path id="패스_4185" data-name="패스 4185" d="M398.3,251.3a7.391,7.391,0,0,1-3,10l-7.4,4a7.391,7.391,0,0,1-10-3l-24.1-44.6a7.391,7.391,0,0,1,3-10l7.4-4a7.391,7.391,0,0,1,10,3Z" fill="#fff"/>
                <path id="패스_4186" data-name="패스 4186" d="M384.3,267a8.534,8.534,0,0,1-7.3-4.3l-24-44.5a8.249,8.249,0,0,1,3.3-11.2l7.4-4a7.818,7.818,0,0,1,3.9-1,8.534,8.534,0,0,1,7.3,4.3L399,250.9a8.249,8.249,0,0,1-3.3,11.2l-7.4,4A9.021,9.021,0,0,1,384.3,267Zm-16.7-63.3a6.806,6.806,0,0,0-3.1.8l-7.4,4a6.468,6.468,0,0,0-2.6,8.9L378.6,262a6.451,6.451,0,0,0,5.8,3.4,6.806,6.806,0,0,0,3.1-.8l7.4-4a6.468,6.468,0,0,0,2.6-8.9l-24.1-44.6A6.565,6.565,0,0,0,367.6,203.7Z" fill="#3d3736"/>
              </g>
              <g id="그룹_4495" data-name="그룹 4495">
                <path id="패스_4187" data-name="패스 4187" d="M395.3,261.3l-7.4,4a7.391,7.391,0,0,1-10-3l-24.1-44.6a7.391,7.391,0,0,1,3-10l7.4-4" fill="#e8ebed"/>
                <path id="패스_4188" data-name="패스 4188" d="M384.4,267a8.447,8.447,0,0,1-7.3-4.3L353,218.2a8.249,8.249,0,0,1,3.3-11.2l7.4-4a.875.875,0,0,1,.9,1.5l-7.4,4a6.468,6.468,0,0,0-2.6,8.9L378.7,262a6.468,6.468,0,0,0,8.9,2.6l7.4-4a.875.875,0,0,1,.9,1.5l-7.4,4A10.88,10.88,0,0,1,384.4,267Z" fill="#3d3736"/>
              </g>
            </g>
            <g id="그룹_4497" data-name="그룹 4497">
              <path id="패스_4189" data-name="패스 4189" d="M358.5,216.9a1.02,1.02,0,0,1-.8-.5.954.954,0,0,1,.3-1.2l16-8.7a.875.875,0,0,1,.9,1.5l-16,8.7A.4.4,0,0,1,358.5,216.9Z" fill="#3d3736"/>
              <path id="패스_4190" data-name="패스 4190" d="M381.8,260.1a1.02,1.02,0,0,1-.8-.5.954.954,0,0,1,.3-1.2l16-8.7a.875.875,0,0,1,.9,1.5l-16,8.7C382.1,260.1,382,260.1,381.8,260.1Z" fill="#3d3736"/>
            </g>
          </g>
        </g>
        <g id="그룹_4505" data-name="그룹 4505">
          <g id="그룹_4502" data-name="그룹 4502">
            <g id="그룹_4500" data-name="그룹 4500">
              <path id="패스_4191" data-name="패스 4191" d="M217.4,157.7H151.8V266.2h82.4V174.5A16.772,16.772,0,0,0,217.4,157.7Z" fill="#fff"/>
              <path id="패스_4192" data-name="패스 4192" d="M234.2,267H151.8a.9.9,0,0,1-.9-.9V157.7a.9.9,0,0,1,.9-.9h65.6a17.733,17.733,0,0,1,17.7,17.7v91.7A.817.817,0,0,1,234.2,267Zm-81.5-1.7h80.7V174.5a15.94,15.94,0,0,0-15.9-15.9H152.8V265.3Z" fill="#3d3736"/>
            </g>
            <g id="그룹_4501" data-name="그룹 4501">
              <path id="패스_4193" data-name="패스 4193" d="M251,157.7h65.6V266.2H234.2V174.5A16.772,16.772,0,0,1,251,157.7Z" fill="#fff"/>
              <path id="패스_4194" data-name="패스 4194" d="M316.6,267H234.2a.9.9,0,0,1-.9-.9V174.4A17.733,17.733,0,0,1,251,156.7h65.6a.9.9,0,0,1,.9.9V266.1A.839.839,0,0,1,316.6,267Zm-81.5-1.7h80.7V158.6H251a15.94,15.94,0,0,0-15.9,15.9Z" fill="#3d3736"/>
            </g>
          </g>
          <g id="그룹_4504" data-name="그룹 4504">
            <g id="그룹_4503" data-name="그룹 4503">
              <path id="패스_4195" data-name="패스 4195" d="M215.3,266.2h18.9V174.5a16.772,16.772,0,0,0-16.8-16.8h-2.1" fill="#e8ebed"/>
              <path id="패스_4196" data-name="패스 4196" d="M234.2,267H215.3a.9.9,0,1,1,0-1.8h18V174.4a15.94,15.94,0,0,0-15.9-15.9h-2.1a.9.9,0,0,1,0-1.8h2.1a17.733,17.733,0,0,1,17.7,17.7v91.7A.839.839,0,0,1,234.2,267Z" fill="#3d3736"/>
            </g>
          </g>
        </g>
        <g id="그룹_4506" data-name="그룹 4506">
          <path id="패스_4197" data-name="패스 4197" d="M273.1,236.4s-5-.9-5.2,1.8,3.8,3.6,3.8,3.6,5.5,3.2,7.3-.5" fill="#fff"/>
          <path id="패스_4198" data-name="패스 4198" d="M276,243.9a12.207,12.207,0,0,1-4.6-1.3c-.8-.2-4.5-1.3-4.3-4.4a2.748,2.748,0,0,1,1-1.9c1.7-1.3,4.9-.8,5.2-.7a.863.863,0,1,1-.3,1.7c-1.1-.2-3.1-.3-3.9.4a.864.864,0,0,0-.3.6c-.1,1.9,3.1,2.7,3.1,2.7a.349.349,0,0,1,.2.1c.8.5,3.2,1.5,4.8,1a2.19,2.19,0,0,0,1.3-1.2.828.828,0,0,1,1.5.7,3.586,3.586,0,0,1-2.4,2.1A4.44,4.44,0,0,1,276,243.9Z" fill="#3d3736"/>
        </g>
        <g id="그룹_4509" data-name="그룹 4509">
          <g id="그룹_4507" data-name="그룹 4507">
            <path id="패스_4199" data-name="패스 4199" d="M252.6,266.2h-4.3l9.3-39.7h4.3Z" fill="#fff"/>
            <path id="패스_4200" data-name="패스 4200" d="M252.6,267h-4.3a.908.908,0,0,1-.7-.3.952.952,0,0,1-.2-.7l9.3-39.7a.849.849,0,0,1,.8-.7h4.3a.908.908,0,0,1,.7.3.952.952,0,0,1,.2.7l-9.3,39.7A.761.761,0,0,1,252.6,267Zm-3.2-1.7h2.5l8.9-38h-2.5Z" fill="#3d3736"/>
          </g>
          <g id="그룹_4508" data-name="그룹 4508">
            <path id="패스_4201" data-name="패스 4201" d="M289.1,266.2h4.3l-9.3-39.7h-4.3Z" fill="#fff"/>
            <path id="패스_4202" data-name="패스 4202" d="M293.4,267h-4.3a.849.849,0,0,1-.8-.7L279,226.6a.618.618,0,0,1,.2-.7.908.908,0,0,1,.7-.3h4.3a.849.849,0,0,1,.8.7l9.3,39.7a.618.618,0,0,1-.2.7A1.08,1.08,0,0,1,293.4,267Zm-3.7-1.7h2.5l-8.9-38h-2.5Z" fill="#3d3736"/>
          </g>
        </g>
        <g id="그룹_4511" data-name="그룹 4511">
          <g id="그룹_4510" data-name="그룹 4510">
            <path id="패스_4203" data-name="패스 4203" d="M209.6,68.6a6.08,6.08,0,0,0-.8-7.6,6,6,0,0,0-8.1-.4,15.976,15.976,0,0,0-30.3,7.1v.6a10.309,10.309,0,0,0,.6,20.6h36.3a10.278,10.278,0,0,0,2.3-20.3Z" fill="#7ebaff"/>
            <path id="패스_4204" data-name="패스 4204" d="M207.3,89.8H171a11.094,11.094,0,0,1-1.4-22.1A16.9,16.9,0,0,1,186.5,51a16.646,16.646,0,0,1,14.6,8.5,7.42,7.42,0,0,1,3.5-1,6.966,6.966,0,0,1,4.9,2,6.881,6.881,0,0,1,1.4,7.7,10.993,10.993,0,0,1,7.5,10.5A11.139,11.139,0,0,1,207.3,89.8ZM186.4,52.6a15.193,15.193,0,0,0-15.2,15.2v.6a.817.817,0,0,1-.8.9,9.407,9.407,0,0,0,.5,18.8h36.3a9.421,9.421,0,0,0,2.1-18.6,1.024,1.024,0,0,1-.6-.5.755.755,0,0,1,.1-.8,5.291,5.291,0,0,0-.7-6.5,5.23,5.23,0,0,0-7-.3.952.952,0,0,1-.7.2c-.3-.1-.5-.2-.6-.5A14.511,14.511,0,0,0,186.4,52.6Z" fill="#3d3736"/>
          </g>
          <path id="패스_4205" data-name="패스 4205" d="M174.2,68.6a.9.9,0,0,1-.9-.9,13.145,13.145,0,0,1,13.1-13.1.9.9,0,0,1,0,1.8A11.4,11.4,0,0,0,175,67.8.86.86,0,0,1,174.2,68.6Z" fill="#fff"/>
        </g>
        <g id="그룹_4513" data-name="그룹 4513">
          <g id="그룹_4512" data-name="그룹 4512">
            <path id="패스_4206" data-name="패스 4206" d="M391.7,75a4.065,4.065,0,0,0-.5-5,4.006,4.006,0,0,0-5.4-.3,10.6,10.6,0,0,0-20.1,4.7v.4a6.806,6.806,0,0,0,.4,13.6h24.1a6.807,6.807,0,0,0,6.8-6.8A6.958,6.958,0,0,0,391.7,75Z" fill="#7ebaff"/>
            <path id="패스_4207" data-name="패스 4207" d="M390.1,89.3H366A7.706,7.706,0,0,1,364.7,74a11.573,11.573,0,0,1,11.5-11.2,11.171,11.171,0,0,1,9.8,5.6,5.45,5.45,0,0,1,2.2-.5,4.762,4.762,0,0,1,3.4,1.4,4.683,4.683,0,0,1,1.1,5.1,7.635,7.635,0,0,1,4.9,7.2A7.414,7.414,0,0,1,390.1,89.3ZM376.2,64.6a9.816,9.816,0,0,0-9.8,9.8v.4a.817.817,0,0,1-.8.9,5.918,5.918,0,0,0-5.6,5.9,6.018,6.018,0,0,0,6,6h24.1a6.018,6.018,0,0,0,6-6,5.9,5.9,0,0,0-4.6-5.8,1.024,1.024,0,0,1-.6-.5.755.755,0,0,1,.1-.8,3.328,3.328,0,0,0-.4-4,3.1,3.1,0,0,0-2.2-.9,3.057,3.057,0,0,0-2,.7.952.952,0,0,1-.7.2c-.3-.1-.5-.2-.6-.5A10.085,10.085,0,0,0,376.2,64.6Z" fill="#3d3736"/>
          </g>
          <path id="패스_4208" data-name="패스 4208" d="M369.7,75.2a.9.9,0,0,1-.9-.9,7.383,7.383,0,0,1,7.4-7.4.9.9,0,0,1,0,1.8,5.7,5.7,0,0,0-5.7,5.7C370.6,74.9,370.2,75.2,369.7,75.2Z" fill="#fff"/>
        </g>
        <g id="그룹_4514" data-name="그룹 4514">
          <line id="선_51" data-name="선 51" x2="366" transform="translate(17.4 266.2)" fill="#fff"/>
          <path id="패스_4209" data-name="패스 4209" d="M383.4,267H17.4a.9.9,0,1,1,0-1.8h366a.9.9,0,0,1,.9.9A.839.839,0,0,1,383.4,267Z" fill="#3d3736"/>
        </g>
        <g id="그룹_4522" data-name="그룹 4522">
          <g id="그룹_4520" data-name="그룹 4520">
            <g id="그룹_4515" data-name="그룹 4515">
              <rect id="사각형_793" data-name="사각형 793" width="52.1" height="35" transform="translate(61.8 226.9)" fill="#fff"/>
              <path id="패스_4210" data-name="패스 4210" d="M113.9,262.8H61.8a.9.9,0,0,1-.9-.9v-35a.9.9,0,0,1,.9-.9h52.1a.9.9,0,0,1,.9.9v35A.9.9,0,0,1,113.9,262.8Zm-51.2-1.7H113V227.8H62.7Z" fill="#3d3736"/>
            </g>
            <g id="그룹_4516" data-name="그룹 4516">
              <path id="패스_4211" data-name="패스 4211" d="M61.8,238.2V224h52.1v14.2" fill="#7ebaff"/>
              <path id="패스_4212" data-name="패스 4212" d="M113.9,239a.9.9,0,0,1-.9-.9V224.8H62.7v13.3a.9.9,0,0,1-1.8,0V224a.9.9,0,0,1,.9-.9h52.1a.9.9,0,0,1,.9.9v14.2A.817.817,0,0,1,113.9,239Z" fill="#3d3736"/>
            </g>
            <g id="그룹_4519" data-name="그룹 4519">
              <g id="그룹_4517" data-name="그룹 4517">
                <rect id="사각형_794" data-name="사각형 794" width="174" height="148.7" transform="translate(0.9 83.1)" fill="#fff"/>
                <path id="패스_4213" data-name="패스 4213" d="M174.9,232.6H.9a.9.9,0,0,1-.9-.9V83.1a.9.9,0,0,1,.9-.9h174a.9.9,0,0,1,.9.9V231.8A.882.882,0,0,1,174.9,232.6ZM1.7,230.9H174V83.9H1.7Z" fill="#3d3736"/>
              </g>
              <g id="그룹_4518" data-name="그룹 4518">
                <path id="패스_4214" data-name="패스 4214" d="M23.2,205.8H.9v25.9h174V205.8H32" fill="#e8ebed"/>
                <path id="패스_4215" data-name="패스 4215" d="M174.9,232.6H.9a.9.9,0,0,1-.9-.9v-26a.9.9,0,0,1,.9-.9H23.2a.9.9,0,1,1,0,1.8H1.7v24.2H174V206.6H32a.9.9,0,1,1,0-1.8H174.9a.9.9,0,0,1,.9.9v26A.9.9,0,0,1,174.9,232.6Z" fill="#3d3736"/>
              </g>
            </g>
          </g>
          <g id="그룹_4521" data-name="그룹 4521">
            <path id="패스_4216" data-name="패스 4216" d="M138.2,260.8a5.378,5.378,0,0,1-5.4,5.4H43a5.378,5.378,0,0,1-5.4-5.4h0a5.378,5.378,0,0,1,5.4-5.4h89.8a5.442,5.442,0,0,1,5.4,5.4Z" fill="#fff"/>
            <path id="패스_4217" data-name="패스 4217" d="M132.8,267H43a6.3,6.3,0,1,1,0-12.6h89.8a6.274,6.274,0,0,1,6.3,6.3A6.4,6.4,0,0,1,132.8,267ZM43,256.2a4.5,4.5,0,0,0,0,9h89.8a4.5,4.5,0,0,0,0-9Z" fill="#3d3736"/>
          </g>
        </g>
        <path id="패스_4218" data-name="패스 4218" d="M73.7,103.4h-53a.9.9,0,0,1,0-1.8h53a.9.9,0,0,1,.9.9A.839.839,0,0,1,73.7,103.4Z" fill="#3d3736"/>
        <path id="패스_4219" data-name="패스 4219" d="M73.7,112.8H17.3a.9.9,0,0,1,0-1.8H73.8a.9.9,0,0,1,.9.9A1.063,1.063,0,0,1,73.7,112.8Z" fill="#3d3736"/>
        <path id="패스_4220" data-name="패스 4220" d="M73.7,122.1H17.3a.9.9,0,0,1,0-1.8H73.8a.9.9,0,0,1,.9.9A1.063,1.063,0,0,1,73.7,122.1Z" fill="#3d3736"/>
        <path id="패스_4221" data-name="패스 4221" d="M73.7,131.4H17.3a.9.9,0,1,1,0-1.8H73.8a.9.9,0,0,1,.9.9A.987.987,0,0,1,73.7,131.4Z" fill="#3d3736"/>
        <path id="패스_4222" data-name="패스 4222" d="M63.8,140.7H17.3a.9.9,0,1,1,0-1.8H63.9a.9.9,0,0,1,.9.9A1.063,1.063,0,0,1,63.8,140.7Z" fill="#3d3736"/>
        <path id="패스_4223" data-name="패스 4223" d="M73.7,162.8H17.3a.9.9,0,1,1,0-1.8H73.8a.9.9,0,0,1,.9.9A.977.977,0,0,1,73.7,162.8Z" fill="#3d3736"/>
        <path id="패스_4224" data-name="패스 4224" d="M60.4,172.2H17.3a.9.9,0,1,1,0-1.8H60.4a.9.9,0,0,1,.9.9A.967.967,0,0,1,60.4,172.2Z" fill="#3d3736"/>
        <path id="패스_4225" data-name="패스 4225" d="M73.7,181.5H17.3a.9.9,0,1,1,0-1.8H73.8a.9.9,0,0,1,.9.9A1.063,1.063,0,0,1,73.7,181.5Z" fill="#3d3736"/>
        <path id="패스_4226" data-name="패스 4226" d="M33.6,190.8H17.3a.9.9,0,1,1,0-1.8H33.6a.9.9,0,0,1,.9.9A.967.967,0,0,1,33.6,190.8Z" fill="#3d3736"/>
        <g id="그룹_4541" data-name="그룹 4541">
          <g id="그룹_4523" data-name="그룹 4523">
            <path id="패스_4227" data-name="패스 4227" d="M104,112.5a31.11,31.11,0,0,1-3.4-5.9c-1.1-2.8-.1-4.7-7.4-5-4.2-.1-2.3,5-1.6,6.6s6,10.6,6,10.6" fill="#fff"/>
            <path id="패스_4228" data-name="패스 4228" d="M97.7,119.6a.67.67,0,0,1-.7-.4c-.2-.4-5.4-9.1-6.1-10.7-.9-2.1-1.6-4.9-.5-6.5a3.073,3.073,0,0,1,2.9-1.2c6.4.2,7.1,1.7,7.8,4.2a9.287,9.287,0,0,0,.4,1.3,28.4,28.4,0,0,0,3.2,5.7.86.86,0,0,1-1.4,1,28.4,28.4,0,0,1-3.5-6.1c-.2-.5-.3-1-.5-1.5-.5-1.8-.7-2.8-6.1-3-1.1,0-1.4.4-1.5.5-.5.8-.3,2.6.7,4.9.5,1.3,4.5,8,6,10.5a.954.954,0,0,1-.3,1.2A.6.6,0,0,1,97.7,119.6Z" fill="#3d3736"/>
          </g>
          <g id="그룹_4524" data-name="그룹 4524">
            <path id="패스_4229" data-name="패스 4229" d="M96.5,103.9a1.4,1.4,0,0,1,.2,1.9L92,111.4a1.4,1.4,0,0,1-1.9.2h0a1.4,1.4,0,0,1-.2-1.9l4.7-5.6a1.309,1.309,0,0,1,1.9-.2Z" fill="#ff7c21"/>
            <path id="패스_4230" data-name="패스 4230" d="M90.9,112.7a2.389,2.389,0,0,1-1.4-.5,2.751,2.751,0,0,1-.8-1.5,2.2,2.2,0,0,1,.5-1.6l4.7-5.6a2.136,2.136,0,0,1,1.7-.8,2.389,2.389,0,0,1,1.4.5,2.318,2.318,0,0,1,.3,3.1l-4.7,5.6A2.136,2.136,0,0,1,90.9,112.7Zm4.7-8.3a.758.758,0,0,0-.4.2l-4.7,5.6c-.1.1-.1.2-.1.4,0,.1.1.2.2.3a.367.367,0,0,0,.3.1.758.758,0,0,0,.4-.2l4.7-5.6a.494.494,0,0,0-.1-.7C95.8,104.5,95.7,104.4,95.6,104.4Z" fill="#3d3736"/>
          </g>
          <g id="그룹_4525" data-name="그룹 4525">
            <path id="패스_4231" data-name="패스 4231" d="M96.9,116.8s-2.1-1.1-3.2-4.6c0,0-4.3-3.4-3-4.8s2.1,2.3,5.9,1.6" fill="#fff"/>
            <path id="패스_4232" data-name="패스 4232" d="M96.9,117.6a.6.6,0,0,1-.4-.1c-.1,0-2.4-1.2-3.6-4.9-.9-.7-3.2-2.8-3.4-4.5a2.3,2.3,0,0,1,.4-1.4c1.1-1.3,2.3-.3,2.9.2a3.75,3.75,0,0,0,3.4,1.1.863.863,0,1,1,.3,1.7,5.308,5.308,0,0,1-4.9-1.5c-.2-.1-.4-.3-.6-.4v.1c.1.8,1.8,2.6,2.9,3.5.1.1.2.3.3.4.9,3.1,2.7,4.1,2.8,4.1a.926.926,0,0,1,.4,1.2C97.5,117.4,97.2,117.6,96.9,117.6Z" fill="#3d3736"/>
          </g>
          <g id="그룹_4526" data-name="그룹 4526">
            <path id="패스_4233" data-name="패스 4233" d="M136,118.7l-11.3,3.6-20.9-11.8s-7.5,2.3-7.7,8.4l18.6,15.4s9.1,10.2,21.3-2.7" fill="#7ebaff"/>
            <path id="패스_4234" data-name="패스 4234" d="M123.6,139h-.2a13.738,13.738,0,0,1-9.3-4.1L95.6,119.6a.908.908,0,0,1-.3-.7c.2-6.6,8-9.1,8.3-9.2a.878.878,0,0,1,.7.1l20.6,11.6,10.9-3.5a.886.886,0,1,1,.5,1.7L125,123.2a.878.878,0,0,1-.7-.1l-20.6-11.6c-1.4.5-6.3,2.7-6.7,7.1l18.3,15.1.1.1a11.886,11.886,0,0,0,8.1,3.5h.1c3.9,0,7.9-2.1,11.8-6.2a.849.849,0,0,1,1.2,1.2C132.4,136.7,128,139,123.6,139Z" fill="#3d3736"/>
          </g>
          <g id="그룹_4527" data-name="그룹 4527">
            <path id="패스_4235" data-name="패스 4235" d="M134.9,262.4l.3,3.8h3.5l1.1-4.8" fill="#fff"/>
            <path id="패스_4236" data-name="패스 4236" d="M138.7,267h-3.5a.875.875,0,0,1-.9-.8l-.3-3.8a.851.851,0,0,1,1.7-.1l.2,3h2l.9-4.1a.825.825,0,1,1,1.6.4l-1.1,4.7C139.4,266.8,139.1,267,138.7,267Z" fill="#3d3736"/>
          </g>
          <g id="그룹_4528" data-name="그룹 4528">
            <path id="패스_4237" data-name="패스 4237" d="M183.2,258.3l2,3.2,3.1-1.6-1.3-4.7" fill="#fff"/>
            <path id="패스_4238" data-name="패스 4238" d="M185.2,262.4a.67.67,0,0,1-.7-.4l-2-3.2a.875.875,0,0,1,1.5-.9l1.6,2.5,1.8-.9-1.1-4a.886.886,0,0,1,1.7-.5l1.3,4.7a.951.951,0,0,1-.4,1l-3.1,1.7Z" fill="#3d3736"/>
          </g>
          <g id="그룹_4529" data-name="그룹 4529">
            <path id="패스_4239" data-name="패스 4239" d="M153.2,208a36.749,36.749,0,0,0,4.3,13.9c3.8,6.7,13.4,25.2,15.3,30.8a15.01,15.01,0,0,1-1.1,5.1c-1.1,2.7-7.5,4.8-6.7,8.3h12.3s3.5-7.2,9.7-10.7a7.706,7.706,0,0,0-3.8-8s-3.8-8-6.2-15-5.1-16.9-8.3-18.5l-1.9-7" fill="#fff"/>
            <path id="패스_4240" data-name="패스 4240" d="M177.3,267H165a.849.849,0,0,1-.8-.7c-.6-2.6,1.8-4.5,3.9-6.1,1.2-.9,2.5-1.9,2.8-2.7a12.738,12.738,0,0,0,1-4.6c-2-5.8-11.6-24.2-15.2-30.6a37.938,37.938,0,0,1-4.4-14.3.851.851,0,0,1,1.7-.1,37.7,37.7,0,0,0,4.2,13.6c3.6,6.4,13.4,25.3,15.4,31v.3a16.065,16.065,0,0,1-1.1,5.4c-.5,1.3-1.9,2.4-3.4,3.5-1.5,1.2-3.1,2.4-3.3,3.7h11c.9-1.7,4.1-7.3,9.4-10.4a6.974,6.974,0,0,0-3.4-6.8c-.1-.1-.3-.2-.3-.4,0-.1-3.8-8.2-6.2-15.1-.4-1.2-.9-2.6-1.3-3.9-1.9-5.8-4.2-12.9-6.6-14.1a.664.664,0,0,1-.4-.5l-1.9-7a.886.886,0,0,1,1.7-.5l1.8,6.6c2.8,1.8,5,8.5,7.1,14.9.4,1.3.9,2.7,1.3,3.9,2.1,6.2,5.4,13.3,6,14.7a8.885,8.885,0,0,1,3.9,8.8c-.1.2-.2.5-.4.6-5.9,3.3-9.3,10.3-9.3,10.4A1.8,1.8,0,0,1,177.3,267Z" fill="#3d3736"/>
          </g>
          <g id="그룹_4530" data-name="그룹 4530">
            <path id="패스_4241" data-name="패스 4241" d="M133.9,205.6a43.772,43.772,0,0,0-1.3,11.3s-.8,35.4-5.4,39.4-8,6.4-8,6.4-4.6,3.5.5,3.5h8.9s4.8-5.4,11.3-4.3c0,0,2.1-2.7.3-8,0,0,8-22.3,5.1-35.4l4-12.1" fill="#fff"/>
            <path id="패스_4242" data-name="패스 4242" d="M128.5,267h-8.9c-.7,0-2.7,0-3.2-1.4-.5-1.5,1.3-3,2.1-3.7a96.2,96.2,0,0,0,8-6.4c1.7-1.5,4.5-13.1,5.1-38.8a41.054,41.054,0,0,1,1.4-11.5.825.825,0,0,1,1.6.4,42.808,42.808,0,0,0-1.3,11v.1c-.1,3.7-.9,35.9-5.7,40a96.269,96.269,0,0,1-8.1,6.5,4.431,4.431,0,0,0-1.5,1.7c.1.1.5.2,1.5.2H128c1.1-1.1,5.5-5,11.2-4.4.4-.9,1.2-3.1-.1-6.8a.637.637,0,0,1,0-.6c.1-.2,7.9-22.2,5.1-34.9v-.5l4-12.1a.854.854,0,1,1,1.6.6l-3.9,11.8q1.8,8.4-1.5,22.8a127.238,127.238,0,0,1-3.6,12.6c1.8,5.6-.4,8.5-.5,8.6a.829.829,0,0,1-.8.3c-5.9-1-10.4,4-10.5,4A.467.467,0,0,1,128.5,267Z" fill="#3d3736"/>
          </g>
          <g id="그룹_4531" data-name="그룹 4531">
            <path id="패스_4243" data-name="패스 4243" d="M136.2,158.9l-5.8,49.9H169s-1.3-10.5-.3-18.5c1.1-8,1.3-22.3-7.8-33" fill="#fff"/>
            <path id="패스_4244" data-name="패스 4244" d="M169,209.6H130.4a.713.713,0,0,1-.6-.3.844.844,0,0,1-.2-.7l5.8-49.9a.906.906,0,0,1,1.8.2l-5.7,48.9H168c-.3-2.8-1.1-11-.2-17.8,2.2-16.7-2.9-26.8-7.6-32.3a.851.851,0,0,1,1.3-1.1c9.4,11,9,25.8,8,33.7-1,7.8.3,18.2.3,18.3a.952.952,0,0,1-.2.7A.713.713,0,0,1,169,209.6Z" fill="#3d3736"/>
          </g>
          <g id="그룹_4532" data-name="그룹 4532">
            <path id="패스_4245" data-name="패스 4245" d="M109.4,121.5s-2.3,3.8-1.3,7a18.553,18.553,0,0,0,4.1,6.1l8.6-5.7" fill="#fff"/>
            <path id="패스_4246" data-name="패스 4246" d="M112.2,135.4a1.421,1.421,0,0,1-.6-.2,17.83,17.83,0,0,1-4.3-6.4c-1.2-3.6,1.2-7.5,1.3-7.7a.875.875,0,1,1,1.5.9c0,.1-2.1,3.5-1.2,6.2a14.606,14.606,0,0,0,3.4,5.2l8-5.3a.86.86,0,1,1,1,1.4l-8.6,5.7C112.6,135.4,112.4,135.4,112.2,135.4Z" fill="#3d3736"/>
          </g>
          <g id="그룹_4533" data-name="그룹 4533">
            <path id="패스_4247" data-name="패스 4247" d="M112.6,127.6l-9.7-13.1s5.7-8,15-6.1l16.4,21.1-11.1,11.6" fill="#fff"/>
            <path id="패스_4248" data-name="패스 4248" d="M123.3,142.1a1.421,1.421,0,0,1-.6-.2.817.817,0,0,1,0-1.2l10.6-11.1-15.8-20.3c-7.3-1.4-12.1,3.7-13.5,5.3l9.3,12.5a.86.86,0,1,1-1.4,1L102.2,115a.908.908,0,0,1,0-1c.2-.3,6.2-8.5,15.9-6.4a.85.85,0,0,1,.5.3L135,129a.792.792,0,0,1-.1,1.1l-11.1,11.6C123.8,142,123.5,142.1,123.3,142.1Z" fill="#3d3736"/>
          </g>
          <path id="패스_4249" data-name="패스 4249" d="M114.6,123.5a.764.764,0,0,1-.5-.2.817.817,0,0,1-.1-1.2,10.192,10.192,0,0,1,9-3.4.863.863,0,0,1-.3,1.7,8.8,8.8,0,0,0-7.5,2.8A.864.864,0,0,1,114.6,123.5Z" fill="#3d3736"/>
          <g id="그룹_4534" data-name="그룹 4534">
            <path id="패스_4250" data-name="패스 4250" d="M117.2,131.9a8.048,8.048,0,0,0-1.3-5.5s-.2-5.5-2.3-5-1.3,4.5-1.3,4.5-.4,2.1-1.4,2.1" fill="#fff"/>
            <path id="패스_4251" data-name="패스 4251" d="M117.2,132.8H117a.824.824,0,0,1-.7-1,7.634,7.634,0,0,0-1.1-4.9.764.764,0,0,1-.2-.5c0-1.4-.4-3.7-1.1-4.2-.1,0-.1-.1-.2,0-1.1.3-.8,2.8-.6,3.4v.3c-.1.5-.6,2.9-2.3,2.9a.9.9,0,1,1,0-1.8,5.392,5.392,0,0,0,.6-1.3c-.4-1.8-.3-4.7,1.9-5.3a2.129,2.129,0,0,1,1.6.3c1.4,1.1,1.7,4.1,1.7,5.2a9.291,9.291,0,0,1,1.3,6A.707.707,0,0,1,117.2,132.8Z" fill="#3d3736"/>
          </g>
          <g id="그룹_4535" data-name="그룹 4535">
            <path id="패스_4252" data-name="패스 4252" d="M153,100.6s-.3,4.5,2.3,7.5c0,0,2.5,2.1,1.4,4.1s-16.8,5.4-16.1,5.2,2.5-7-1.8-10.5c-4.3-3.6,3.2-8.4,3.2-8.4" fill="#fff"/>
            <path id="패스_4253" data-name="패스 4253" d="M140.5,118.3h0a.761.761,0,0,1-.7-.8.842.842,0,0,1,.4-.7c.5-.8,1.8-6.2-1.9-9.2a3.947,3.947,0,0,1-1.6-3.4c.2-3.3,4.4-6.1,4.9-6.4a.875.875,0,1,1,.9,1.5c-1.1.7-4,3-4.1,5a2.6,2.6,0,0,0,1,2c3.1,2.6,3.5,6.9,2.8,9.8,0,.1,0,.1-.1.2,4.1-.9,13-3.3,13.8-4.4.7-1.3-1.2-3-1.2-3l-.1-.1c-2.9-3.3-2.6-8-2.6-8.2a.851.851,0,1,1,1.7.1h0s-.3,4.1,2.1,6.9c.4.4,2.9,2.7,1.6,5.1-.3.5-.8,1.5-9,3.7-.1,0-5.6,1.5-7.5,1.8-.1,0-.1,0-.2.1h-.2Z" fill="#3d3736"/>
          </g>
          <g id="그룹_4536" data-name="그룹 4536">
            <path id="패스_4254" data-name="패스 4254" d="M130.1,85.2s.4-2.7,6.6-5.3,12.8-5.5,16.3.9,4.2,12.6.4,19.7c0,0-3.5,2-10.2-.9C143.1,99.7,132.1,96.8,130.1,85.2Z" fill="#fff"/>
            <path id="패스_4255" data-name="패스 4255" d="M149.9,102.1a19.982,19.982,0,0,1-7.1-1.6c-1-.3-11.5-3.7-13.5-15.1v-.3c0-.3.6-3.3,7.1-6l.5-.2c3.3-1.4,6.8-2.8,9.9-2.8a7.517,7.517,0,0,1,7,4.3c3.9,7.2,4,13.8.4,20.6-.1.1-.2.3-.3.3A9.475,9.475,0,0,1,149.9,102.1ZM131,85.3c2,10.7,12.2,13.5,12.3,13.6h.1a16.41,16.41,0,0,0,6.4,1.5,6.468,6.468,0,0,0,2.8-.5c3.3-6.2,3.1-12-.5-18.7a5.869,5.869,0,0,0-5.5-3.4c-2.8,0-6.1,1.4-9.2,2.7l-.5.2C132.2,82.7,131.2,84.8,131,85.3Z" fill="#3d3736"/>
          </g>
          <g id="그룹_4537" data-name="그룹 4537">
            <path id="패스_4256" data-name="패스 4256" d="M130.1,85.1s-3.8,4.6-.7,11.3a16.577,16.577,0,0,1-.4,4.8s-.2,1.6,1.8,1.6l1.3,3.6s1.7,5.2,5.9,2.4,4.2-8,4.2-8,3.4-2.9,1.8-6.3-4.1-1.8-4,1C140,95.5,132.1,92.9,130.1,85.1Z" fill="#fff"/>
            <path id="패스_4257" data-name="패스 4257" d="M135.7,110.4c-3.1,0-4.4-3.7-4.4-3.8l-1.1-3a2.088,2.088,0,0,1-1.4-.8,2.39,2.39,0,0,1-.6-1.8v-.1a15.2,15.2,0,0,0,.3-4.4c-3.1-6.9.7-11.8.9-12a.759.759,0,0,1,.9-.3c.3.1.6.3.6.6,1.4,5.7,6.2,8.5,8.3,9.4a5.076,5.076,0,0,1,.9-1.8,2.465,2.465,0,0,1,1.7-.8c.7,0,1.9.3,2.9,2.4,1.4,2.9-.4,5.7-1.7,7a11.088,11.088,0,0,1-4.6,8.3A3.942,3.942,0,0,1,135.7,110.4Zm-5.8-9.1a.6.6,0,0,0,.1.4,1.077,1.077,0,0,0,.8.2.76.76,0,0,1,.8.6l1.3,3.6s.9,2.7,2.8,2.7a3.2,3.2,0,0,0,1.9-.7c3.8-2.5,3.9-7.2,3.9-7.2a.908.908,0,0,1,.3-.7c.1-.1,2.9-2.5,1.6-5.2-.5-1.1-1-1.4-1.4-1.4a.764.764,0,0,0-.5.2,2.068,2.068,0,0,0-.5,1.8.908.908,0,0,1-.3.7.755.755,0,0,1-.8.1c-.3-.1-7.2-2.4-9.9-9.2a10.378,10.378,0,0,0,.3,8.8c0,.1.1.2.1.3A43.8,43.8,0,0,1,129.9,101.3Z" fill="#3d3736"/>
          </g>
          <path id="패스_4258" data-name="패스 4258" d="M132.2,96.7c.2.8.1,1.5-.2,1.5-.3.1-.8-.5-1-1.2-.2-.8-.1-1.5.2-1.5C131.6,95.4,132,95.9,132.2,96.7Z" fill="#3d3736"/>
          <g id="그룹_4538" data-name="그룹 4538">
            <path id="패스_4259" data-name="패스 4259" d="M155,76.3a5.7,5.7,0,1,0-5.7,5.7A5.7,5.7,0,0,0,155,76.3Z" fill="#fff"/>
            <path id="패스_4260" data-name="패스 4260" d="M149.2,82.9a6.6,6.6,0,1,1,6.6-6.6A6.659,6.659,0,0,1,149.2,82.9Zm0-11.5a4.9,4.9,0,1,0,4.9,4.9A4.908,4.908,0,0,0,149.2,71.4Z" fill="#3d3736"/>
          </g>
          <path id="패스_4261" data-name="패스 4261" d="M138.7,89.4a4.536,4.536,0,0,1-1-.1.863.863,0,1,1,.3-1.7c.3,0,6.8.9,8.5-5.6a.886.886,0,0,1,1.7.5C146.4,88.7,141,89.4,138.7,89.4Z" fill="#3d3736"/>
          <path id="패스_4262" data-name="패스 4262" d="M148,96.1a.764.764,0,0,1-.5-.2.817.817,0,0,1-.1-1.2c5.1-6.2,2.2-11.5,2.1-11.7a.875.875,0,0,1,1.5-.9c.2.3,3.6,6.5-2.2,13.7A1.6,1.6,0,0,1,148,96.1Z" fill="#3d3736"/>
          <path id="패스_4263" data-name="패스 4263" d="M145.8,81.1a.961.961,0,0,1-.9-.8,7.85,7.85,0,0,1,1.9-5.5A.849.849,0,0,1,148,76a6.264,6.264,0,0,0-1.4,4.2.724.724,0,0,1-.8.9Z" fill="#3d3736"/>
          <path id="패스_4264" data-name="패스 4264" d="M150,79.3a1.02,1.02,0,0,1-.8-.5,1,1,0,0,1,.4-1.2c.1-.1,3.3-1.7,2.6-5.1a.863.863,0,1,1,1.7-.3,6.4,6.4,0,0,1-3.5,7A.756.756,0,0,1,150,79.3Z" fill="#3d3736"/>
          <g id="그룹_4539" data-name="그룹 4539">
            <path id="패스_4265" data-name="패스 4265" d="M155.5,107.4s-13.6,3.6-16.8,7.5a266.093,266.093,0,0,0-15.4,22.3s-4.5-7.5-9.3-5.9-4.6,5.4-3.4,10c1.3,4.6,7,18.3,13.9,14.5,8.2-4.5,11.4-8.9,11.4-8.9s.7,8.9-.4,12c0,0,16.4,5,25.7-1.6a60.619,60.619,0,0,1-1.4-18.6C160.9,128.9,162.8,117.4,155.5,107.4Z" fill="#7ebaff"/>
            <path id="패스_4266" data-name="패스 4266" d="M148.4,161.6h0a48.2,48.2,0,0,1-13-1.9,1,1,0,0,1-.5-.4.854.854,0,0,1,0-.7c.7-1.8.6-6.5.4-9.6a47.956,47.956,0,0,1-10.3,7.6,5.963,5.963,0,0,1-2.8.8c-6.7,0-11.5-12.4-12.3-15.8-1.2-4.6-1.6-9.2,4-11.1a4.671,4.671,0,0,1,1.7-.3c3.5,0,6.5,3.5,7.9,5.4,5.4-8.5,11.5-17.4,14.7-21.3,3.4-4.1,16.7-7.6,17.3-7.8a.806.806,0,0,1,.9.3c6.9,9.4,5.8,19.9,4.9,29.2l-.3,2.7a59.411,59.411,0,0,0,1.4,18.3.806.806,0,0,1-.3.9C158.6,160.4,154,161.6,148.4,161.6Zm-11.7-3.3a46.678,46.678,0,0,0,11.7,1.6h0c5,0,9-1,12-2.9a60.61,60.61,0,0,1-1.3-18.3l.3-2.7c.9-8.8,1.9-18.8-4.2-27.5-4.1,1.1-13.4,4.2-15.8,7.1-3.3,4.1-9.8,13.5-15.3,22.3a.866.866,0,0,1-.7.4.842.842,0,0,1-.7-.4c0-.1-3.5-5.7-7.2-5.7a3.6,3.6,0,0,0-1.1.2c-3.6,1.2-4.3,3.5-2.8,9,1,3.9,5.5,14.5,10.7,14.5a4.919,4.919,0,0,0,2-.5c7.9-4.3,11.1-8.6,11.2-8.7a.806.806,0,0,1,.9-.3.871.871,0,0,1,.6.8C136.9,147.2,137.5,154.6,136.7,158.3Z" fill="#3d3736"/>
          </g>
          <g id="그룹_4540" data-name="그룹 4540">
            <path id="패스_4267" data-name="패스 4267" d="M134,149.1s12.9-13.2,13.8-20.9" fill="#00d9ac"/>
            <path id="패스_4268" data-name="패스 4268" d="M134,149.9a1.422,1.422,0,0,1-.6-.2.912.912,0,0,1,0-1.2c.1-.1,12.7-13.1,13.5-20.4a.906.906,0,1,1,1.8.2c-.9,7.9-13.5,20.9-14,21.4A1.445,1.445,0,0,1,134,149.9Z" fill="#3d3736"/>
          </g>
          <path id="패스_4269" data-name="패스 4269" d="M120.5,144h-.3a.863.863,0,0,1-.6-1.1,26.892,26.892,0,0,1,3-6.1.875.875,0,1,1,1.5.9,31.325,31.325,0,0,0-2.8,5.7A.838.838,0,0,1,120.5,144Z" fill="#3d3736"/>
          <path id="패스_4270" data-name="패스 4270" d="M108.8,116.6a.764.764,0,0,1-.5-.2.817.817,0,0,1-.1-1.2,10.555,10.555,0,0,1,9.2-3.4.863.863,0,0,1-.3,1.7,9.03,9.03,0,0,0-7.6,2.8A.908.908,0,0,1,108.8,116.6Z" fill="#3d3736"/>
          <path id="패스_4271" data-name="패스 4271" d="M111.5,120a.764.764,0,0,1-.5-.2.817.817,0,0,1-.1-1.2,10.555,10.555,0,0,1,9.2-3.4.863.863,0,1,1-.3,1.7,9.03,9.03,0,0,0-7.6,2.8A.908.908,0,0,1,111.5,120Z" fill="#3d3736"/>
          <path id="패스_4272" data-name="패스 4272" d="M126.8,260.5a6.224,6.224,0,0,1-2.9-.5.854.854,0,0,1,.6-1.6,8.349,8.349,0,0,0,5.5-.3,80.013,80.013,0,0,1,9.8-2.7.863.863,0,0,1,.3,1.7,78.47,78.47,0,0,0-9.5,2.6A9.607,9.607,0,0,1,126.8,260.5Z" fill="#3d3736"/>
          <path id="패스_4273" data-name="패스 4273" d="M172.8,261.3a3.587,3.587,0,0,1-2.1-.6.86.86,0,0,1,1-1.4c.1.1,1.9,1.1,4.6-1.5,3.2-3.2,8.5-8.8,8.6-8.8a.849.849,0,0,1,1.2,1.2c-.1.1-5.4,5.7-8.6,8.9A7.2,7.2,0,0,1,172.8,261.3Z" fill="#3d3736"/>
        </g>
        <g id="그룹_4551" data-name="그룹 4551">
          <g id="그룹_4542" data-name="그룹 4542">
            <path id="패스_4274" data-name="패스 4274" d="M185,118a5.01,5.01,0,0,1,6.2,3.4l2,6.9a5.01,5.01,0,0,1-3.4,6.2l-6.1,1.7a5.01,5.01,0,0,1-6.2-3.4l-2-6.9a5.01,5.01,0,0,1,3.4-6.2Z" fill="#7ebaff"/>
            <path id="패스_4275" data-name="패스 4275" d="M182.3,137.3a5.765,5.765,0,0,1-5.6-4.3l-2-6.9a5.9,5.9,0,0,1,.5-4.5,5.725,5.725,0,0,1,3.5-2.8l6.1-1.7a4.4,4.4,0,0,1,1.6-.2,5.765,5.765,0,0,1,5.6,4.3l2,6.9a5.9,5.9,0,0,1-.5,4.5,5.725,5.725,0,0,1-3.5,2.8l-6.1,1.7A8.753,8.753,0,0,1,182.3,137.3Zm4.1-18.6a3.6,3.6,0,0,0-1.1.2l-6.1,1.7a3.881,3.881,0,0,0-2.5,2,4.451,4.451,0,0,0-.4,3.2l2,6.9a4.17,4.17,0,0,0,4,3,3.6,3.6,0,0,0,1.1-.2l6.1-1.7a3.881,3.881,0,0,0,2.5-2,4.451,4.451,0,0,0,.4-3.2l-2-6.9A4.17,4.17,0,0,0,186.4,118.7Z" fill="#3d3736"/>
          </g>
          <g id="그룹_4550" data-name="그룹 4550">
            <g id="그룹_4548" data-name="그룹 4548">
              <g id="그룹_4546" data-name="그룹 4546">
                <g id="그룹_4545" data-name="그룹 4545">
                  <g id="그룹_4543" data-name="그룹 4543">
                    <path id="패스_4276" data-name="패스 4276" d="M211.7,252.5l12.6,13.7,3.4-18.3L194.6,132.7l-16,4.6Z" fill="#fff"/>
                    <path id="패스_4277" data-name="패스 4277" d="M224.3,267a.713.713,0,0,1-.6-.3L211.1,253c-.1-.1-.2-.2-.2-.3L177.8,137.5a.878.878,0,0,1,.1-.7,1,1,0,0,1,.5-.4l16-4.6a.906.906,0,0,1,1.1.6l33.1,115.2v.4l-3.4,18.3a1.057,1.057,0,0,1-.6.7Zm-11.8-14.9,11.3,12.3,3-16.4L194,133.8l-14.3,4.1Z" fill="#3d3736"/>
                  </g>
                  <path id="패스_4278" data-name="패스 4278" d="M224.3,266.2l1.7-9.3-8.1,2.4Z" fill="#3d3736"/>
                  <g id="그룹_4544" data-name="그룹 4544">
                    <path id="패스_4279" data-name="패스 4279" d="M211.7,252.5,178.6,137.3l16-4.6,33.1,115.2-12,3.4" fill="#ff7657"/>
                    <path id="패스_4280" data-name="패스 4280" d="M211.7,253.4a.76.76,0,0,1-.8-.6L177.8,137.6a.878.878,0,0,1,.1-.7,1,1,0,0,1,.5-.4l16-4.6a.906.906,0,0,1,1.1.6l33.1,115.2a.878.878,0,0,1-.1.7,1,1,0,0,1-.5.4l-11.9,3.4a.886.886,0,0,1-.5-1.7l11.1-3.2L194,133.8l-14.3,4.1,32.8,114.3a.906.906,0,0,1-.6,1.1A.349.349,0,0,1,211.7,253.4Z" fill="#3d3736"/>
                  </g>
                </g>
                <path id="패스_4281" data-name="패스 4281" d="M219.5,250.5a.76.76,0,0,1-.8-.6L186.2,136.6a.886.886,0,1,1,1.7-.5l32.5,113.3a.906.906,0,0,1-.6,1.1Z" fill="#3d3736"/>
              </g>
              <g id="그룹_4547" data-name="그룹 4547">
                <rect id="사각형_795" data-name="사각형 795" width="19.7" height="11.4" transform="translate(174.89 129.829) rotate(-16.023)" fill="#fff"/>
                <path id="패스_4282" data-name="패스 4282" d="M178,141.7a.6.6,0,0,1-.4-.1,1,1,0,0,1-.4-.5l-3.2-11a.906.906,0,0,1,.6-1.1l18.9-5.4a.878.878,0,0,1,.7.1,1,1,0,0,1,.4.5l3.2,11a.906.906,0,0,1-.6,1.1l-18.9,5.4Zm-2.1-11.3,2.7,9.3,17.3-5-2.7-9.3Z" fill="#3d3736"/>
              </g>
            </g>
            <g id="그룹_4549" data-name="그룹 4549">
              <path id="패스_4283" data-name="패스 4283" d="M180.7,136.8a.76.76,0,0,1-.8-.6.906.906,0,0,1,.6-1.1l11.3-3.3a.886.886,0,1,1,.5,1.7L181,136.8Z" fill="#eee"/>
              <path id="패스_4284" data-name="패스 4284" d="M179.7,133.2a.76.76,0,0,1-.8-.6.906.906,0,0,1,.6-1.1l11.3-3.3a.886.886,0,1,1,.5,1.7L180,133.2Z" fill="#eee"/>
            </g>
          </g>
        </g>
        <g id="그룹_4558" data-name="그룹 4558">
          <g id="그룹_4554" data-name="그룹 4554">
            <g id="그룹_4552" data-name="그룹 4552">
              <path id="패스_4285" data-name="패스 4285" d="M219,266.2h-4.3l9.3-39.7h4.3Z" fill="#fff"/>
              <path id="패스_4286" data-name="패스 4286" d="M219,267h-4.3a.908.908,0,0,1-.7-.3.952.952,0,0,1-.2-.7l9.3-39.7a.849.849,0,0,1,.8-.7h4.3a.908.908,0,0,1,.7.3.952.952,0,0,1,.2.7l-9.3,39.7A.761.761,0,0,1,219,267Zm-3.2-1.7h2.5l8.9-38h-2.5Z" fill="#3d3736"/>
            </g>
            <g id="그룹_4553" data-name="그룹 4553">
              <path id="패스_4287" data-name="패스 4287" d="M255.4,266.2h4.3l-9.3-39.7h-4.3Z" fill="#fff"/>
              <path id="패스_4288" data-name="패스 4288" d="M259.7,267h-4.3a.849.849,0,0,1-.8-.7l-9.3-39.7a.618.618,0,0,1,.2-.7.908.908,0,0,1,.7-.3h4.3a.849.849,0,0,1,.8.7l9.3,39.7a.618.618,0,0,1-.2.7A.908.908,0,0,1,259.7,267Zm-3.6-1.7h2.5l-8.9-38h-2.5Z" fill="#3d3736"/>
            </g>
          </g>
          <g id="그룹_4557" data-name="그룹 4557">
            <g id="그룹_4555" data-name="그룹 4555">
              <rect id="사각형_796" data-name="사각형 796" width="72.2" height="6.1" transform="translate(218.4 221.2)" fill="#fff"/>
              <path id="패스_4289" data-name="패스 4289" d="M290.7,228.1H218.5a.9.9,0,0,1-.9-.9v-6.1a.9.9,0,0,1,.9-.9h72.2a.9.9,0,0,1,.9.9v6.1A1.055,1.055,0,0,1,290.7,228.1Zm-71.4-1.7h70.5V222H219.3v4.4Z" fill="#3d3736"/>
            </g>
            <g id="그룹_4556" data-name="그룹 4556">
              <path id="패스_4290" data-name="패스 4290" d="M256.7,221.2h34v6.1h-34" fill="#7ebaff"/>
              <path id="패스_4291" data-name="패스 4291" d="M290.7,228.1h-34a.9.9,0,1,1,0-1.8h33.1V222H256.7a.9.9,0,1,1,0-1.8h34a.9.9,0,0,1,.9.9v6.1A1.055,1.055,0,0,1,290.7,228.1Z" fill="#3d3736"/>
            </g>
          </g>
        </g>
        <path id="패스_4292" data-name="패스 4292" d="M299.6,180.8a17.9,17.9,0,1,0-17.9,17.9A17.882,17.882,0,0,0,299.6,180.8Z" fill="#e8ebed"/>
        <g id="그룹_4559" data-name="그룹 4559">
          <path id="패스_4293" data-name="패스 4293" d="M280.7,184s-3.9-.5-2.9-3.8c0,0-2.5-3.4.2-4.5s6.4-2,8,4.6" fill="#fff"/>
          <path id="패스_4294" data-name="패스 4294" d="M280.7,184.8h-.1a4.926,4.926,0,0,1-3.3-1.9,3.221,3.221,0,0,1-.3-2.5c-.4-.7-1.3-2.3-.9-3.7a2.571,2.571,0,0,1,1.7-1.7c1.6-.7,3.8-1.3,5.7-.3,1.6.8,2.8,2.7,3.5,5.5a.825.825,0,1,1-1.6.4c-.6-2.3-1.4-3.8-2.6-4.4-1.3-.7-2.9-.2-4.3.4a1.077,1.077,0,0,0-.7.6,3.656,3.656,0,0,0,.9,2.5.755.755,0,0,1,.1.8,1.558,1.558,0,0,0,.1,1.5,2.9,2.9,0,0,0,2.1,1.1.824.824,0,0,1,.7,1A1.2,1.2,0,0,1,280.7,184.8Z" fill="#3d3736"/>
        </g>
        <g id="그룹_4560" data-name="그룹 4560">
          <path id="패스_4295" data-name="패스 4295" d="M306.2,231.7s.9,7.3-5.5,7.3H285.9s-4.6,1.1-5.5,3.8l-8.2-7s3.9-7.5,12.5-8.8" fill="#fff"/>
          <path id="패스_4296" data-name="패스 4296" d="M280.3,243.7a1.421,1.421,0,0,1-.6-.2l-8.2-7a.913.913,0,0,1-.2-1.1c.2-.3,4.2-7.9,13.2-9.2a.863.863,0,1,1,.3,1.7,17.115,17.115,0,0,0-11.5,7.7l6.9,5.8c1.6-2.3,5.4-3.2,5.6-3.2h15a4.237,4.237,0,0,0,3.4-1.3c1.6-1.8,1.3-5,1.3-5a.863.863,0,0,1,1.7-.3c0,.2.5,4-1.7,6.4a5.83,5.83,0,0,1-4.7,1.9H286.1c-1.2.3-4.2,1.4-4.8,3.2a.9.9,0,0,1-.6.6Z" fill="#3d3736"/>
        </g>
        <g id="그룹_4567" data-name="그룹 4567">
          <g id="그룹_4564" data-name="그룹 4564">
            <g id="그룹_4561" data-name="그룹 4561">
              <path id="패스_4297" data-name="패스 4297" d="M280.1,184c2.5-2.9,11.6-7.1,18.2-2,8.8,6.8,10.7,18.2-2,24.9C296.4,206.9,267.4,198.5,280.1,184Z" fill="#fff"/>
              <path id="패스_4298" data-name="패스 4298" d="M296.4,207.7h-.2c-.7-.2-17.1-5.1-19.8-14-1-3.3.1-6.8,3.1-10.2a17.192,17.192,0,0,1,11.6-4.7,12.422,12.422,0,0,1,7.8,2.6c5.1,3.9,7.8,9.3,7.3,14.3-.3,3.4-2.2,8.2-9.4,12Zm-5.3-27.2c-4.6,0-8.9,2.4-10.3,4.1-2.6,3-3.5,5.9-2.7,8.6,2.2,7.4,16,12.1,18.3,12.8,5-2.7,7.8-6.3,8.2-10.5.4-4.4-2.1-9.2-6.7-12.8A10.864,10.864,0,0,0,291.1,180.5Z" fill="#3d3736"/>
            </g>
            <g id="그룹_4562" data-name="그룹 4562">
              <path id="패스_4299" data-name="패스 4299" d="M282.8,185.1s-4.1,1.3-5,7.3l-2.1,1.3s-.9.7.7,2.1c0,0-2.5,7.2,4.5,10.5,0,0,3.6,1.3,4.5,2.9l11.1-2.3s-4.1-1.4-6.3-4.1c0,0,4.6.7,5.2-3,.5-3.8-3-3.9-4.5-3,0,0-4.6-3.9-5.5-8.4,0,0-1.8,1.8-1.6,3.8C283.7,192,280.5,188.6,282.8,185.1Z" fill="#fff"/>
              <path id="패스_4300" data-name="패스 4300" d="M285.3,210.1a1.234,1.234,0,0,1-.8-.4c-.5-1-2.7-2-4-2.5h-.1c-6.4-3.1-5.5-9.2-5.1-11.1a2.8,2.8,0,0,1-.9-1.9,1.407,1.407,0,0,1,.6-1.2l.1-.1,1.8-1c1.1-6.2,5.4-7.6,5.5-7.6a.806.806,0,0,1,.9.3.908.908,0,0,1,0,1,4.471,4.471,0,0,0-.3,4.3,7.346,7.346,0,0,1,1.4-2.1.959.959,0,0,1,.9-.2.877.877,0,0,1,.6.7c.7,3.4,3.7,6.5,4.8,7.5a4.146,4.146,0,0,1,1.6-.3,3.356,3.356,0,0,1,2.8,1.2,4.118,4.118,0,0,1,.8,3.3,4.193,4.193,0,0,1-4,3.7,16.333,16.333,0,0,0,4.5,2.5.875.875,0,0,1,.6.9.849.849,0,0,1-.7.8l-11.1,2.3C285.4,210,285.4,210.1,285.3,210.1Zm-4.1-4.6a12.708,12.708,0,0,1,4.5,2.7l8-1.7a12.75,12.75,0,0,1-4.2-3.3.92.92,0,0,1-.1-1,.807.807,0,0,1,.9-.4h.7c1.4,0,3.2-.4,3.5-2.4a2.19,2.19,0,0,0-.4-1.9,1.948,1.948,0,0,0-1.5-.6,2.5,2.5,0,0,0-1.3.3.769.769,0,0,1-1-.1A19.309,19.309,0,0,1,285,190a2.689,2.689,0,0,0-.4,1.8,1.05,1.05,0,0,1-.5.9.955.955,0,0,1-1-.2,7.3,7.3,0,0,1-1.9-5.5,9.058,9.058,0,0,0-2.5,5.4.675.675,0,0,1-.4.6l-2,1.1c0,.1.1.4.7.9a.651.651,0,0,1,.2.9C277.1,196.3,275,202.5,281.2,205.5Z" fill="#3d3736"/>
            </g>
            <g id="그룹_4563" data-name="그룹 4563">
              <path id="패스_4301" data-name="패스 4301" d="M300.1,200.3a8.175,8.175,0,0,1,7.5,6.4l-2.9-.4a7.173,7.173,0,0,1,.5,5.4C305.3,211.7,299.3,209.2,300.1,200.3Z" fill="#fff"/>
              <path id="패스_4302" data-name="패스 4302" d="M305.3,212.6a.367.367,0,0,1-.3-.1c-.3-.1-6.7-2.9-5.7-12.3a.962.962,0,0,1,.9-.8c.1,0,6.8.3,8.3,7.1a.778.778,0,0,1-.2.8,1.08,1.08,0,0,1-.7.3l-1.4-.2a7.878,7.878,0,0,1,0,4.6.822.822,0,0,1-.5.5C305.6,212.5,305.5,212.6,305.3,212.6Zm-4.4-11.4c-.3,5.5,2.3,8.1,3.8,9.1a6.38,6.38,0,0,0-.7-3.6.75.75,0,0,1,0-.9.909.909,0,0,1,.8-.4l1.5.2A6.921,6.921,0,0,0,300.9,201.2Z" fill="#3d3736"/>
            </g>
            <path id="패스_4303" data-name="패스 4303" d="M300.1,201.1a.764.764,0,0,1-.5-.2c-.2-.2-5.1-4.2-6.4-10.1a.863.863,0,0,1,1.7-.3,17.321,17.321,0,0,0,4.5,7.9c.2-8.6-3.4-12.9-3.5-12.9a.851.851,0,0,1,1.3-1.1c.2.2,4.7,5.4,3.8,16a.752.752,0,0,1-.5.7Z" fill="#3d3736"/>
          </g>
          <g id="그룹_4566" data-name="그룹 4566">
            <path id="패스_4304" data-name="패스 4304" d="M281,193.3c-.3.7-.8,1.2-1.1,1.1s-.2-.8.1-1.5.8-1.2,1.1-1.1C281.3,191.9,281.3,192.6,281,193.3Z" fill="#3d3736"/>
            <g id="그룹_4565" data-name="그룹 4565">
              <path id="패스_4305" data-name="패스 4305" d="M276,198.8a3.664,3.664,0,0,0,4.3-.4" fill="#fff"/>
              <path id="패스_4306" data-name="패스 4306" d="M277.9,200.2a4.881,4.881,0,0,1-2.4-.7.86.86,0,1,1,1-1.4,2.841,2.841,0,0,0,3.3-.3.851.851,0,1,1,1.1,1.3A4.85,4.85,0,0,1,277.9,200.2Z" fill="#3d3736"/>
            </g>
          </g>
        </g>
        <g id="그룹_4568" data-name="그룹 4568">
          <path id="패스_4307" data-name="패스 4307" d="M282.6,219.9s1.3,4.6.4,8.2c0,0,13.8,7.9,23.2,3.6,0,0,1.8-12.7-2-21.6,0,0-.2-5.2-10.2-3.2" fill="#ff7657"/>
          <path id="패스_4308" data-name="패스 4308" d="M299.7,233.9a30.15,30.15,0,0,1-8.9-1.5,36.676,36.676,0,0,1-8.2-3.5.951.951,0,0,1-.4-1,17.622,17.622,0,0,0-.4-7.8.886.886,0,0,1,1.7-.5,19.349,19.349,0,0,1,.5,8c2.6,1.3,13.6,6.6,21.5,3.4.3-2.4,1.2-13.1-2-20.7,0-.1-.1-.2-.1-.3a2.9,2.9,0,0,0-1.1-1.8c-1.1-.8-3.3-1.6-8.1-.6a.863.863,0,1,1-.3-1.7c4.4-.9,7.6-.5,9.5,1a5.122,5.122,0,0,1,1.7,2.8c3.7,9,2.1,21.4,2,22,0,.3-.2.5-.5.7A15.23,15.23,0,0,1,299.7,233.9Z" fill="#3d3736"/>
        </g>
        <g id="그룹_4569" data-name="그룹 4569">
          <path id="패스_4309" data-name="패스 4309" d="M273.5,215.6l-12.2,5.6h14.9" fill="#fff"/>
          <path id="패스_4310" data-name="패스 4310" d="M276.2,222H261.4a.773.773,0,0,1-.8-.7.876.876,0,0,1,.5-1l12.2-5.5a.828.828,0,1,1,.7,1.5l-8.6,3.9h10.9a.9.9,0,0,1,.9.9C277,221.7,276.7,222,276.2,222Z" fill="#3d3736"/>
        </g>
        <g id="그룹_4570" data-name="그룹 4570">
          <path id="패스_4311" data-name="패스 4311" d="M298.7,207.6s-8-2.6-14.5,2.4l-10.7,4.8v6.4h19.1" fill="#ff7657"/>
          <path id="패스_4312" data-name="패스 4312" d="M292.6,222H273.5a.9.9,0,0,1-.9-.9v-6.4a1.02,1.02,0,0,1,.5-.8l10.6-4.7c6.7-5.1,14.8-2.6,15.2-2.5a.886.886,0,0,1-.5,1.7h0c-.1,0-7.7-2.4-13.7,2.2-.1,0-.1.1-.2.1l-10.2,4.5v5h18.3a.9.9,0,0,1,.9.9A.839.839,0,0,1,292.6,222Z" fill="#3d3736"/>
        </g>
        <g id="그룹_4573" data-name="그룹 4573">
          <g id="그룹_4571" data-name="그룹 4571">
            <path id="패스_4313" data-name="패스 4313" d="M301.6,266.2h-4.7l7.4-22.8h4.6Z" fill="#fff"/>
            <path id="패스_4314" data-name="패스 4314" d="M301.6,267H297a.9.9,0,0,1-.8-1.2l7.3-22.8a.76.76,0,0,1,.8-.6h4.6a.9.9,0,0,1,.8,1.2l-7.3,22.8A.838.838,0,0,1,301.6,267Zm-3.5-1.7h2.8l6.8-21.1h-2.8Z" fill="#3d3736"/>
          </g>
          <g id="그룹_4572" data-name="그룹 4572">
            <path id="패스_4315" data-name="패스 4315" d="M319.3,266.2h4.6l-7.3-22.8h-4.7Z" fill="#fff"/>
            <path id="패스_4316" data-name="패스 4316" d="M323.9,267h-4.6a.76.76,0,0,1-.8-.6l-7.3-22.8a1.128,1.128,0,0,1,.1-.8,1.012,1.012,0,0,1,.7-.4h4.6a.76.76,0,0,1,.8.6l7.3,22.8a1.128,1.128,0,0,1-.1.8A.67.67,0,0,1,323.9,267Zm-4-1.7h2.8l-6.8-21.1h-2.8Z" fill="#3d3736"/>
          </g>
        </g>
        <g id="그룹_4576" data-name="그룹 4576">
          <g id="그룹_4574" data-name="그룹 4574">
            <path id="패스_4317" data-name="패스 4317" d="M286.6,266.2h-4.7l7.3-22.8h4.7Z" fill="#fff"/>
            <path id="패스_4318" data-name="패스 4318" d="M286.6,267H282a.9.9,0,0,1-.8-1.2l7.3-22.8a.76.76,0,0,1,.8-.6h4.6a.9.9,0,0,1,.8,1.2l-7.3,22.8A.838.838,0,0,1,286.6,267Zm-3.5-1.7h2.8l6.8-21.1h-2.8Z" fill="#3d3736"/>
          </g>
          <g id="그룹_4575" data-name="그룹 4575">
            <path id="패스_4319" data-name="패스 4319" d="M304.3,266.2h4.6l-7.3-22.8h-4.7Z" fill="#fff"/>
            <path id="패스_4320" data-name="패스 4320" d="M308.9,267h-4.6a.76.76,0,0,1-.8-.6l-7.3-22.8a1.128,1.128,0,0,1,.1-.8,1.012,1.012,0,0,1,.7-.4h4.6a.76.76,0,0,1,.8.6l7.3,22.8a1.128,1.128,0,0,1-.1.8A.755.755,0,0,1,308.9,267Zm-4-1.7h2.8l-6.8-21.1h-2.8Z" fill="#3d3736"/>
          </g>
        </g>
        <g id="그룹_4577" data-name="그룹 4577">
          <path id="패스_4321" data-name="패스 4321" d="M305.5,241.4a2.9,2.9,0,0,1-2.9,2.9H285.8a2.9,2.9,0,0,1-2.9-2.9h0a2.9,2.9,0,0,1,2.9-2.9h16.8a2.9,2.9,0,0,1,2.9,2.9Z" fill="#fff"/>
          <path id="패스_4322" data-name="패스 4322" d="M302.6,245.1H285.8a3.691,3.691,0,0,1-3.7-3.7,3.757,3.757,0,0,1,3.7-3.7h16.8a3.7,3.7,0,1,1,0,7.4Zm-16.8-5.7a2,2,0,0,0,0,4h16.8a2,2,0,0,0,0-4Z" fill="#3d3736"/>
        </g>
        <g id="그룹_4578" data-name="그룹 4578">
          <path id="패스_4323" data-name="패스 4323" d="M310.2,208.1a10.5,10.5,0,0,0-10.5,10.5v25.7h20.9V218.6A10.351,10.351,0,0,0,310.2,208.1Z" fill="#fff"/>
          <path id="패스_4324" data-name="패스 4324" d="M320.7,245.1H299.8a.9.9,0,0,1-.9-.9V218.5a11.3,11.3,0,1,1,22.6,0v25.7A.765.765,0,0,1,320.7,245.1Zm-20.1-1.7h19.2V218.6a9.6,9.6,0,1,0-19.2,0Z" fill="#3d3736"/>
        </g>
        <path id="패스_4325" data-name="패스 4325" d="M275.5,173.2a.755.755,0,0,1-.7-.4l-1.3-1.8a.86.86,0,0,1,1.4-1l1.3,1.8a.83.83,0,0,1-.2,1.2A.646.646,0,0,1,275.5,173.2Z" fill="#3d3736"/>
        <path id="패스_4326" data-name="패스 4326" d="M273.3,177.7h-.2l-2-.4a.863.863,0,1,1,.3-1.7l2,.4a.824.824,0,0,1,.7,1A.773.773,0,0,1,273.3,177.7Z" fill="#3d3736"/>
        <path id="패스_4327" data-name="패스 4327" d="M282.4,172.7h-.2a.863.863,0,0,1-.6-1.1l.5-1.8a.886.886,0,1,1,1.7.5l-.5,1.8A.875.875,0,0,1,282.4,172.7Z" fill="#3d3736"/>
        <path id="패스_4328" data-name="패스 4328" d="M272.3,183.8a.76.76,0,0,1-.8-.6.948.948,0,0,1,.5-1.1l1.6-.5a.854.854,0,1,1,.6,1.6l-1.6.5A.774.774,0,0,1,272.3,183.8Z" fill="#3d3736"/>
        <path id="패스_4329" data-name="패스 4329" d="M288.2,176.8a.67.67,0,0,1-.7-.4.83.83,0,0,1,.2-1.2l1.6-1.1a.86.86,0,1,1,1,1.4l-1.6,1.1A.646.646,0,0,1,288.2,176.8Z" fill="#3d3736"/>
        <g id="그룹_4579" data-name="그룹 4579">
          <path id="패스_4330" data-name="패스 4330" d="M311.1,183.6a1.234,1.234,0,0,1-.8-.4.954.954,0,0,1,.3-1.2,2.768,2.768,0,0,0,.7-.4.875.875,0,0,1,.9,1.5,4.559,4.559,0,0,1-.8.4C311.4,183.6,311.3,183.6,311.1,183.6Z" fill="#3d3736"/>
          <path id="패스_4331" data-name="패스 4331" d="M315.3,180.9a.755.755,0,0,1-.7-.4.83.83,0,0,1,.2-1.2c.4-.3.9-.6,1.4-1a.86.86,0,1,1,1,1.4,13.03,13.03,0,0,1-1.5,1C315.7,180.9,315.5,180.9,315.3,180.9Zm4.8-3.4a.851.851,0,0,1-.6-1.5c.4-.3.9-.7,1.4-1.1a.851.851,0,1,1,1.1,1.3,13.445,13.445,0,0,1-1.4,1.1A1.69,1.69,0,0,1,320.1,177.5Zm4.5-3.8a.713.713,0,0,1-.6-.3.817.817,0,0,1,.1-1.2c.4-.4.9-.8,1.3-1.2a.851.851,0,1,1,1.1,1.3c-.4.4-.9.8-1.3,1.2A.735.735,0,0,1,324.6,173.7Zm4.3-3.9a.864.864,0,0,1-.6-.3.913.913,0,0,1,0-1.2l1.2-1.2a.849.849,0,1,1,1.2,1.2l-1.3,1.3A.764.764,0,0,1,328.9,169.8Zm4-4.3a1.421,1.421,0,0,1-.6-.2.823.823,0,0,1-.1-1.2c.4-.4.8-.9,1.2-1.3a.851.851,0,0,1,1.3,1.1c-.4.4-.8.9-1.2,1.3A.6.6,0,0,1,332.9,165.5Zm3.8-4.4a.764.764,0,0,1-.5-.2.817.817,0,0,1-.1-1.2,17.1,17.1,0,0,0,1.1-1.4.86.86,0,0,1,1.4,1c-.4.5-.7.9-1.1,1.4A1.033,1.033,0,0,1,336.7,161.1Zm3.6-4.7c-.2,0-.3-.1-.5-.2a.83.83,0,0,1-.2-1.2c.3-.5.7-.9,1-1.4a.86.86,0,0,1,1.4,1c-.3.5-.7,1-1,1.5A1.08,1.08,0,0,1,340.3,156.4Zm3.2-4.9a.9.9,0,0,1-.5-.1.926.926,0,0,1-.3-1.2l.9-1.5a.875.875,0,1,1,1.5.9l-.9,1.5A.67.67,0,0,1,343.5,151.5Zm2.9-5a.6.6,0,0,1-.4-.1.926.926,0,0,1-.4-1.2c.3-.5.5-1,.8-1.5a.894.894,0,0,1,1.6.8c-.3.5-.5,1.1-.8,1.6A1.235,1.235,0,0,1,346.4,146.5Zm2.6-5.3a.367.367,0,0,1-.3-.1.841.841,0,0,1-.4-1.1c.2-.5.5-1.1.7-1.6a.854.854,0,1,1,1.6.6c-.2.5-.5,1.1-.7,1.6A1.209,1.209,0,0,1,349,141.2Zm2.1-5.4a.367.367,0,0,1-.3-.1.891.891,0,0,1-.5-1.1c.2-.5.4-1.1.6-1.6a.854.854,0,0,1,1.6.6c-.2.6-.4,1.1-.6,1.7A.954.954,0,0,1,351.1,135.8Zm1.8-5.6h-.2a.863.863,0,0,1-.6-1.1c.2-.6.3-1.1.5-1.7a.825.825,0,0,1,1.6.4,10.926,10.926,0,0,1-.5,1.7A.773.773,0,0,1,352.9,130.2Zm1.4-5.7h-.2a.824.824,0,0,1-.7-1c.1-.6.2-1.1.3-1.7a.863.863,0,0,1,1.7.3c-.1.6-.2,1.2-.3,1.7A.773.773,0,0,1,354.3,124.5Z" fill="#3d3736"/>
          <path id="패스_4332" data-name="패스 4332" d="M355.3,118.7h-.1a.824.824,0,0,1-.7-1c0-.3.1-.6.1-.8a.906.906,0,1,1,1.8.2c0,.3-.1.6-.1.9A1.2,1.2,0,0,1,355.3,118.7Z" fill="#3d3736"/>
        </g>
        <path id="패스_4333" data-name="패스 4333" d="M311.4,128.6a5.7,5.7,0,1,0-5.7,5.7A5.763,5.763,0,0,0,311.4,128.6Z" fill="#fff"/>
        <path id="패스_4334" data-name="패스 4334" d="M352.5,99.7a.773.773,0,0,1-.8-.7,14.5,14.5,0,0,0-.4-1.6.886.886,0,0,1,1.7-.5,12.271,12.271,0,0,1,.4,1.8.824.824,0,0,1-.7,1Zm-1.6-5.5a.838.838,0,0,1-.8-.6c-.2-.5-.4-1-.6-1.6a.854.854,0,0,1,1.6-.6,16.589,16.589,0,0,1,.6,1.6.891.891,0,0,1-.5,1.1A.367.367,0,0,1,350.9,94.2ZM348.6,89a1.02,1.02,0,0,1-.8-.5A10.932,10.932,0,0,0,347,87a.875.875,0,1,1,1.5-.9,10.929,10.929,0,0,1,.8,1.5,1,1,0,0,1-.4,1.2C348.8,89,348.7,89,348.6,89Zm-2.9-5a.67.67,0,0,1-.7-.4c-.3-.5-.6-.9-.9-1.4a.86.86,0,0,1,1.4-1l.9,1.5a.856.856,0,0,1-.3,1.2C346.1,84,345.9,84,345.7,84Zm-3.2-4.7a.908.908,0,0,1-.7-.3c-.3-.4-.7-.9-1-1.3a.851.851,0,0,1,1.3-1.1c.4.5.7.9,1.1,1.4a.83.83,0,0,1-.2,1.2C342.8,79.2,342.7,79.3,342.5,79.3Zm-3.7-4.4a.713.713,0,0,1-.6-.3L337,73.4a.849.849,0,0,1,1.2-1.2c.4.4.8.9,1.2,1.3a.817.817,0,0,1-.1,1.2A.764.764,0,0,1,338.8,74.9Zm-4-4.1a1.421,1.421,0,0,1-.6-.2,6.885,6.885,0,0,0-1.3-1.1.851.851,0,1,1,1.1-1.3c.4.4.9.8,1.3,1.2a.817.817,0,0,1,0,1.2C335.3,70.7,335,70.8,334.8,70.8ZM96,68.8H94.3a.9.9,0,0,1,0-1.8H96a.9.9,0,0,1,.9.9C96.8,68.4,96.5,68.8,96,68.8Zm4-.1a.851.851,0,0,1-.1-1.7h1.7a.851.851,0,0,1,.1,1.7Zm-9.7,0H88.6a.817.817,0,0,1-.8-.9.765.765,0,0,1,.9-.8h1.7a.765.765,0,0,1,.8.9A1.063,1.063,0,0,1,90.3,68.7Zm15.4-.1a.961.961,0,0,1-.9-.8.882.882,0,0,1,.8-.9,9.7,9.7,0,0,0,1.7-.1.851.851,0,0,1,.1,1.7,9.15,9.15,0,0,1-1.7.1Zm-21.2-.1h0c-.6,0-1.2-.1-1.8-.1a.851.851,0,0,1,.1-1.7c.6,0,1.1.1,1.7.1a.817.817,0,0,1,.8.9C85.4,68.1,85,68.5,84.5,68.5Zm26.9-.2a.961.961,0,0,1-.9-.8.817.817,0,0,1,.8-.9c.6,0,1.1-.1,1.7-.1a.851.851,0,1,1,.1,1.7,8.622,8.622,0,0,1-1.7.1Zm5.8-.3a.948.948,0,0,1-.9-.8.817.817,0,0,1,.8-.9c.6,0,1.1-.1,1.7-.1a.851.851,0,0,1,.1,1.7,10.284,10.284,0,0,0-1.7.1Zm5.7-.5a.948.948,0,0,1-.9-.8.817.817,0,0,1,.8-.9c.6-.1,1.1-.1,1.7-.2a.851.851,0,1,1,.1,1.7,8.807,8.807,0,0,1-1.7.2ZM330.5,67a.764.764,0,0,1-.5-.2,11.319,11.319,0,0,0-1.3-1,.86.86,0,1,1,1-1.4c.5.4.9.7,1.4,1.1a.817.817,0,0,1,.1,1.2A1.08,1.08,0,0,1,330.5,67ZM128.6,67a.948.948,0,0,1-.9-.8.817.817,0,0,1,.8-.9c.6-.1,1.1-.1,1.7-.2a.851.851,0,0,1,.1,1.7c-.5.1-1.1.1-1.7.2Zm5.7-.7a.948.948,0,0,1-.9-.8.9.9,0,0,1,.8-1c.6-.1,1.1-.1,1.7-.2a.863.863,0,0,1,.3,1.7c-.6.1-1.1.1-1.7.2Zm5.6-.7a.961.961,0,0,1-.9-.7.9.9,0,0,1,.7-1l1.7-.2a.863.863,0,0,1,.3,1.7l-1.7.2Zm5.7-.7a.961.961,0,0,1-.9-.7.9.9,0,0,1,.7-1l1.7-.2a.863.863,0,0,1,.3,1.7l-1.7.2Zm5.7-.9a.773.773,0,0,1-.8-.7.824.824,0,0,1,.7-1l1.7-.3a.863.863,0,0,1,.3,1.7l-1.7.3Zm174.6-.4a.551.551,0,0,1-.5-.2c-.5-.3-.9-.6-1.4-.9a.86.86,0,1,1,1-1.4,7.1,7.1,0,0,1,1.4,1,.83.83,0,0,1,.2,1.2A.908.908,0,0,1,325.9,63.6Zm-169-.5a.773.773,0,0,1-.8-.7.824.824,0,0,1,.7-1l1.7-.3a.863.863,0,0,1,.3,1.7l-1.7.3Zm5.7-.9a.773.773,0,0,1-.8-.7.824.824,0,0,1,.7-1l1.7-.3a.863.863,0,0,1,.3,1.7l-1.7.3Zm5.6-1a.773.773,0,0,1-.8-.7.824.824,0,0,1,.7-1l1.7-.3a.863.863,0,0,1,.3,1.7l-1.7.3ZM321,60.5a.6.6,0,0,1-.4-.1,10.93,10.93,0,0,0-1.5-.8.875.875,0,0,1,.9-1.5l1.5.9a.926.926,0,0,1,.3,1.2A1.136,1.136,0,0,1,321,60.5Zm-147.2-.3a.773.773,0,0,1-.8-.7.824.824,0,0,1,.7-1l1.7-.3a.863.863,0,0,1,.3,1.7l-1.7.3Zm5.7-1.1a.773.773,0,0,1-.8-.7.824.824,0,0,1,.7-1l1.7-.3a.863.863,0,0,1,.3,1.7l-1.7.3Zm5.6-1a.773.773,0,0,1-.8-.7.824.824,0,0,1,.7-1l1.7-.3a.863.863,0,0,1,.3,1.7l-1.7.3ZM316,57.8a.6.6,0,0,1-.4-.1c-.5-.3-1-.5-1.5-.8a.828.828,0,0,1,.7-1.5c.5.3,1,.5,1.6.8a.926.926,0,0,1,.4,1.2A1.235,1.235,0,0,1,316,57.8ZM190.7,57a.773.773,0,0,1-.8-.7.824.824,0,0,1,.7-1l1.7-.3a.863.863,0,0,1,.3,1.7l-1.7.3Zm5.6-1.1a.773.773,0,0,1-.8-.7.824.824,0,0,1,.7-1l1.7-.3a.863.863,0,0,1,.3,1.7l-1.7.3Zm114.5-.5a.367.367,0,0,1-.3-.1c-.5-.2-1-.4-1.6-.7a1,1,0,0,1-.5-1.1.891.891,0,0,1,1.1-.5,11.111,11.111,0,0,1,1.6.7,1,1,0,0,1,.5,1.1A.76.76,0,0,1,310.8,55.4ZM202,54.8a.773.773,0,0,1-.8-.7.824.824,0,0,1,.7-1l1.7-.3a.863.863,0,0,1,.3,1.7l-1.7.3Zm5.6-1a.773.773,0,0,1-.8-.7.824.824,0,0,1,.7-1l1.7-.3a.863.863,0,0,1,.3,1.7l-1.7.3Zm97.9-.5a.367.367,0,0,1-.3-.1c-.5-.2-1.1-.4-1.6-.6a.854.854,0,1,1,.6-1.6c.6.2,1.1.4,1.6.6a.891.891,0,0,1,.5,1.1A.838.838,0,0,1,305.5,53.3Zm-92.2-.6a.773.773,0,0,1-.8-.7.824.824,0,0,1,.7-1l1.7-.3a.863.863,0,0,1,.3,1.7l-1.7.3Zm5.6-1a.773.773,0,0,1-.8-.7.824.824,0,0,1,.7-1l1.7-.3a.863.863,0,0,1,.3,1.7l-1.7.3Zm81.2-.2h-.3c-.5-.2-1.1-.3-1.6-.5a.886.886,0,1,1,.5-1.7c.6.2,1.1.3,1.7.5a.863.863,0,0,1,.6,1.1A1.332,1.332,0,0,1,300.1,51.5Zm-75.5-.7a.773.773,0,0,1-.8-.7.824.824,0,0,1,.7-1l1.7-.3a.863.863,0,0,1,.3,1.7l-1.7.3Zm69.9-.9h-.2c-.5-.1-1.1-.3-1.7-.4a.825.825,0,1,1,.4-1.6c.6.1,1.1.3,1.7.4a.8.8,0,0,1,.6,1C295.3,49.7,294.9,49.9,294.5,49.9Zm-64.3,0a.773.773,0,0,1-.8-.7.9.9,0,0,1,.7-1c.6-.1,1.1-.2,1.7-.3a.863.863,0,0,1,.3,1.7c-.6.1-1.1.2-1.7.3Zm5.7-.8a.961.961,0,0,1-.9-.7.9.9,0,0,1,.7-1,9.853,9.853,0,0,1,1.7-.2.863.863,0,0,1,.3,1.7,9.853,9.853,0,0,1-1.7.2Zm53.1-.5h-.2c-.6-.1-1.1-.2-1.7-.3a.863.863,0,1,1,.3-1.7c.6.1,1.1.2,1.7.3a.824.824,0,0,1,.7,1A.761.761,0,0,1,289,48.6Zm-47.4-.3a.948.948,0,0,1-.9-.8.9.9,0,0,1,.8-1c.6-.1,1.1-.1,1.7-.2a.906.906,0,1,1,.2,1.8c-.6.1-1.1.1-1.7.2Zm5.7-.6a.948.948,0,0,1-.9-.8.817.817,0,0,1,.8-.9c.6-.1,1.1-.1,1.7-.2a.851.851,0,0,1,.1,1.7,8.807,8.807,0,0,1-1.7.2Zm36,0h-.1c-.6-.1-1.1-.1-1.7-.2a.906.906,0,0,1,.2-1.8c.6.1,1.1.1,1.7.2a.824.824,0,0,1,.7,1A.789.789,0,0,1,283.3,47.7ZM253,47.2a.948.948,0,0,1-.9-.8.817.817,0,0,1,.8-.9c.6,0,1.2-.1,1.7-.1a.851.851,0,0,1,.1,1.7c-.5,0-1.1.1-1.7.1Zm24.6-.1h0c-.6,0-1.2-.1-1.8-.1a.851.851,0,0,1,.1-1.7c.6,0,1.2.1,1.7.1a.876.876,0,0,1,.8.9A.736.736,0,0,1,277.6,47.1Zm-18.9-.2a.961.961,0,0,1-.9-.8.817.817,0,0,1,.8-.9c.6,0,1.2-.1,1.7-.1a.851.851,0,0,1,.1,1.7,10.283,10.283,0,0,0-1.7.1Zm13.2-.1h0a9.15,9.15,0,0,1-1.7-.1.765.765,0,0,1-.8-.9.817.817,0,0,1,.9-.8h0a9.15,9.15,0,0,1,1.7.1.817.817,0,0,1,.8.9A1.063,1.063,0,0,1,271.9,46.8Zm-7.5-.1a.851.851,0,0,1-.1-1.7H266a.9.9,0,0,1,0,1.8,7.588,7.588,0,0,0-1.6-.1Z" fill="#3d3736"/>
        <g id="그룹_4583" data-name="그룹 4583">
          <g id="그룹_4580" data-name="그룹 4580">
            <path id="패스_4335" data-name="패스 4335" d="M72.7,52.2,77,66.9,32,50.1Z" fill="#7ebaff"/>
            <path id="패스_4336" data-name="패스 4336" d="M77,67.7a.367.367,0,0,1-.3-.1l-45-16.7a.825.825,0,0,1-.5-1,.961.961,0,0,1,.9-.7l40.8,2.1a.871.871,0,0,1,.8.6L78,66.4c.1.1.1.2.1.4a1.273,1.273,0,0,1-1.1.9ZM37.5,51.2,75.7,65.4,72.1,53Z" fill="#3d3736"/>
          </g>
          <g id="그룹_4581" data-name="그룹 4581">
            <path id="패스_4337" data-name="패스 4337" d="M32,50.1,79.5,35.4,72.7,52.2,32,50.1,68.8,59,62.7,78.3Z" fill="#fff"/>
            <path id="패스_4338" data-name="패스 4338" d="M62.7,79.2a1.421,1.421,0,0,1-.6-.2L31.4,50.7h0l-.1-.1h0a.367.367,0,0,1-.1-.3v-.1h0a.9.9,0,0,1,.1-.5h0c0-.1.1-.1.2-.2s.2-.1.3-.2h0L79.4,34.6a.859.859,0,0,1,1.1,1.1L73.7,52.5a.749.749,0,0,1-.8.5L41.4,51.3,69,58.2a1,1,0,0,1,.5.4,1.7,1.7,0,0,1,.1.7L63.5,78.6a.9.9,0,0,1-.6.6ZM35,51.7,62.3,76.8l5.4-17.1Zm1.8-2.2,35.3,1.9L78,36.8Z" fill="#3d3736"/>
          </g>
          <g id="그룹_4582" data-name="그룹 4582">
            <line id="선_52" data-name="선 52" x2="8.2" y2="7.9" transform="translate(68.8 59)" fill="#00d9ac"/>
            <path id="패스_4339" data-name="패스 4339" d="M77,67.7a1.421,1.421,0,0,1-.6-.2l-8.2-7.9a.849.849,0,0,1,1.2-1.2l8.2,7.9a.817.817,0,0,1,0,1.2A1.072,1.072,0,0,1,77,67.7Z" fill="#3d3736"/>
          </g>
        </g>
        <g id="그룹_4587" data-name="그룹 4587">
          <g id="그룹_4584" data-name="그룹 4584">
            <path id="패스_4340" data-name="패스 4340" d="M132.5,44.3l3.9,8.2-28-5.6Z" fill="#ff7657"/>
            <path id="패스_4341" data-name="패스 4341" d="M136.4,53.4h-.2l-28-5.6a.961.961,0,0,1-.7-.9.789.789,0,0,1,.8-.8l24.1-2.6a1.05,1.05,0,0,1,.9.5l3.8,8.1a.764.764,0,0,1,.2.5.882.882,0,0,1-.9.8ZM114,47.1l20.8,4.2-2.9-6.1Z" fill="#3d3736"/>
          </g>
          <g id="그룹_4585" data-name="그룹 4585">
            <path id="패스_4342" data-name="패스 4342" d="M108.4,46.9l26.5-13.1-2.4,10.5-24.1,2.6,22.4,1.8-1.7,11.9Z" fill="#fff"/>
            <path id="패스_4343" data-name="패스 4343" d="M129.1,61.4a.9.9,0,0,1-.5-.1L107.9,47.6h0a.1.1,0,0,1-.1-.1c-.1-.1-.1-.2-.2-.3h0v-.5h0a.349.349,0,0,1,.1-.2c.1-.1.2-.2.3-.2h0L134.5,33a.94.94,0,0,1,.9.1.759.759,0,0,1,.3.9l-2.4,10.5a.988.988,0,0,1-.7.7l-14.9,1.6,13.2,1.1a.713.713,0,0,1,.6.3,1.445,1.445,0,0,1,.2.7l-1.8,11.9c0,.3-.2.5-.5.7A.367.367,0,0,0,129.1,61.4ZM111.6,48l16.8,11.1,1.4-9.6Zm22.1-12.6L113.1,45.5l18.7-2Z" fill="#3d3736"/>
          </g>
          <g id="그룹_4586" data-name="그룹 4586">
            <line id="선_53" data-name="선 53" x2="5.6" y2="3.8" transform="translate(130.8 48.7)" fill="#00d9ac"/>
            <path id="패스_4344" data-name="패스 4344" d="M136.4,53.4a.551.551,0,0,1-.5-.2l-5.6-3.8a.86.86,0,0,1,1-1.4l5.6,3.8a.83.83,0,0,1,.2,1.2A1.012,1.012,0,0,1,136.4,53.4Z" fill="#3d3736"/>
          </g>
        </g>
      </g>
    </g>
  </g>
</svg>
