<svg xmlns="http://www.w3.org/2000/svg" xmlns:xlink="http://www.w3.org/1999/xlink" width="120" height="120" viewBox="0 0 120 120">
  <defs>
    <clipPath id="clip-path">
      <rect id="사각형_691" data-name="사각형 691" width="120" height="120" transform="translate(630 3131)" fill="#c9cdd2"/>
    </clipPath>
  </defs>
  <g id="ico_등교수업" transform="translate(-630 -3131)" clip-path="url(#clip-path)">
    <g id="Layer_3" transform="translate(631.377 3132.446)">
      <g id="그룹_479" data-name="그룹 479" transform="translate(0 0)">
        <path id="패스_802" data-name="패스 802" d="M129.248,67.413a6.062,6.062,0,0,0,.138-1.17,5.671,5.671,0,0,0-5.645-5.645,4.754,4.754,0,0,0-1.721.275A11.613,11.613,0,0,0,101.3,66.931a8.808,8.808,0,0,0,2.41,17.281h21.824a8.81,8.81,0,0,0,3.718-16.8Z" transform="translate(-25.703 -33.471)" fill="none" stroke="#9ea4aa" stroke-miterlimit="10" stroke-width="2.295"/>
        <g id="그룹_478" data-name="그룹 478" transform="translate(0.069)">
          <line id="선_16" data-name="선 16" x2="117.04" transform="translate(0 108.778)" fill="#fff" stroke="#3d3736" stroke-linecap="round" stroke-linejoin="round" stroke-miterlimit="10" stroke-width="2.295"/>
          <g id="그룹_477" data-name="그룹 477" transform="translate(4.957)">
            <g id="그룹_476" data-name="그룹 476" transform="translate(0 16.73)">
              <g id="그룹_472" data-name="그룹 472">
                <g id="그룹_471" data-name="그룹 471">
                  <g id="그룹_470" data-name="그룹 470">
                    <g id="그룹_469" data-name="그룹 469">
                      <g id="그룹_467" data-name="그룹 467" transform="translate(0 32.014)">
                        <rect id="사각형_700" data-name="사각형 700" width="107.057" height="10.258" fill="#ff7657" stroke="#3d3736" stroke-linecap="round" stroke-linejoin="round" stroke-miterlimit="10" stroke-width="2.295"/>
                        <rect id="사각형_701" data-name="사각형 701" width="107.057" height="49.776" transform="translate(0 10.258)" fill="#fff" stroke="#3d3736" stroke-linecap="round" stroke-linejoin="round" stroke-miterlimit="10" stroke-width="2.295"/>
                        <path id="패스_803" data-name="패스 803" d="M148.549,93V86.46H41.423V93" transform="translate(-41.423 -76.202)" fill="#dcdddd" stroke="#3d3736" stroke-linecap="round" stroke-linejoin="round" stroke-miterlimit="10" stroke-width="2.295"/>
                      </g>
                      <g id="그룹_468" data-name="그룹 468" transform="translate(30.155)">
                        <path id="패스_804" data-name="패스 804" d="M113.368,66.793,89.96,51.234,66.552,66.793v65.886h46.816Z" transform="translate(-66.552 -51.234)" fill="#ff7657" stroke="#3d3736" stroke-linecap="round" stroke-linejoin="round" stroke-miterlimit="10" stroke-width="2.295"/>
                        <path id="패스_805" data-name="패스 805" d="M113.368,75.559,89.96,60.069,66.552,75.559v65.955h46.816Z" transform="translate(-66.552 -49.466)" fill="#fff" stroke="#3d3736" stroke-linecap="round" stroke-linejoin="round" stroke-miterlimit="10" stroke-width="2.295"/>
                      </g>
                    </g>
                    <path id="패스_806" data-name="패스 806" d="M93.207,78.933A6.127,6.127,0,1,0,87.08,85.06,6.141,6.141,0,0,0,93.207,78.933Z" transform="translate(-33.517 -46.919)" fill="#dcdddd" stroke="#3d3736" stroke-linecap="round" stroke-linejoin="round" stroke-miterlimit="10" stroke-width="2.295"/>
                  </g>
                  <path id="패스_807" data-name="패스 807" d="M74.641,126.931V112.61a13.692,13.692,0,0,1,13.7-13.7h0a13.692,13.692,0,0,1,13.7,13.7v14.32" transform="translate(-34.779 -41.698)" fill="#7ebaff" stroke="#3d3736" stroke-linecap="round" stroke-linejoin="round" stroke-miterlimit="10" stroke-width="2.295"/>
                  <line id="선_17" data-name="선 17" y2="26.644" transform="translate(53.563 58.589)" fill="none" stroke="#3d3736" stroke-linecap="round" stroke-linejoin="round" stroke-miterlimit="10" stroke-width="2.295"/>
                </g>
                <rect id="사각형_702" data-name="사각형 702" width="51.153" height="9.57" transform="translate(28.021 85.232)" fill="#fff" stroke="#3d3736" stroke-linecap="round" stroke-linejoin="round" stroke-miterlimit="10" stroke-width="2.295"/>
                <rect id="사각형_703" data-name="사각형 703" width="60.034" height="7.78" transform="translate(23.546 92.599)" fill="#fff" stroke="#3d3736" stroke-linecap="round" stroke-linejoin="round" stroke-miterlimit="10" stroke-width="2.295"/>
              </g>
              <g id="그룹_475" data-name="그룹 475" transform="translate(10.602 54.871)">
                <g id="그룹_473" data-name="그룹 473">
                  <rect id="사각형_704" data-name="사각형 704" width="7.849" height="7.849" fill="#7ebaff" stroke="#3d3736" stroke-linecap="round" stroke-linejoin="round" stroke-miterlimit="10" stroke-width="2.295"/>
                  <rect id="사각형_705" data-name="사각형 705" width="7.849" height="7.849" transform="translate(0 16.661)" fill="#7ebaff" stroke="#3d3736" stroke-linecap="round" stroke-linejoin="round" stroke-miterlimit="10" stroke-width="2.295"/>
                </g>
                <g id="그룹_474" data-name="그룹 474" transform="translate(77.728)">
                  <rect id="사각형_706" data-name="사각형 706" width="7.849" height="7.849" fill="#7ebaff" stroke="#3d3736" stroke-linecap="round" stroke-linejoin="round" stroke-miterlimit="10" stroke-width="2.295"/>
                  <rect id="사각형_707" data-name="사각형 707" width="7.849" height="7.849" transform="translate(0 16.661)" fill="#7ebaff" stroke="#3d3736" stroke-linecap="round" stroke-linejoin="round" stroke-miterlimit="10" stroke-width="2.295"/>
                </g>
              </g>
            </g>
            <line id="선_18" data-name="선 18" y1="15.628" transform="translate(53.563)" fill="none" stroke="#3d3736" stroke-linecap="round" stroke-linejoin="round" stroke-miterlimit="10" stroke-width="2.295"/>
            <rect id="사각형_708" data-name="사각형 708" width="15.353" height="10.602" transform="translate(53.563 1.997)" fill="#ff7657" stroke="#3d3736" stroke-linecap="round" stroke-linejoin="round" stroke-miterlimit="10" stroke-width="2.295"/>
          </g>
        </g>
        <path id="패스_808" data-name="패스 808" d="M62.57,45.347a3.352,3.352,0,0,0,.069-.826,4.143,4.143,0,0,0-4.131-4.131A4.323,4.323,0,0,0,57.2,40.6,8.567,8.567,0,0,0,41.916,45a6.459,6.459,0,0,0,1.79,12.668H59.748A6.464,6.464,0,0,0,66.219,51.2,6.32,6.32,0,0,0,62.57,45.347Z" transform="translate(-37.235 -37.292)" fill="none" stroke="#9ea4aa" stroke-miterlimit="10" stroke-width="2.295"/>
        <path id="패스_809" data-name="패스 809" d="M135.812,44.452a2.824,2.824,0,0,0,.069-.757,3.673,3.673,0,0,0-3.649-3.649,2.854,2.854,0,0,0-1.1.207,7.584,7.584,0,0,0-13.563,3.924,5.752,5.752,0,0,0,1.583,11.291h14.32a5.774,5.774,0,0,0,5.783-5.783A6.181,6.181,0,0,0,135.812,44.452Z" transform="translate(-22.008 -37.292)" fill="none" stroke="#9ea4aa" stroke-miterlimit="10" stroke-width="2.295"/>
      </g>
    </g>
  </g>
</svg>
