<svg xmlns="http://www.w3.org/2000/svg" xmlns:xlink="http://www.w3.org/1999/xlink" width="600" height="300" viewBox="0 0 600 300">
  <defs>
    <clipPath id="clip-path">
      <rect id="bg_" width="600" height="300" transform="translate(660 3529)" fill="#c9cdd2"/>
    </clipPath>
  </defs>
  <g id="마스크_그룹_9" data-name="마스크 그룹 9" transform="translate(-660 -3529)" clip-path="url(#clip-path)">
    <g id="Layer_5" transform="translate(659.889 3453.883)">
      <g id="그룹_4931" data-name="그룹 4931">
        <g id="그룹_4844" data-name="그룹 4844">
          <g id="그룹_4843" data-name="그룹 4843">
            <g id="그룹_4841" data-name="그룹 4841">
              <path id="패스_4729" data-name="패스 4729" d="M424.729,301.856a17.853,17.853,0,1,1,0-35.707h96.018v35.557H424.729Z" fill="#fff"/>
              <path id="패스_4730" data-name="패스 4730" d="M520.6,302.906H424.578a18.9,18.9,0,1,1,0-37.807H520.6a1.026,1.026,0,0,1,1.05,1.05v35.557C521.8,302.456,521.346,302.906,520.6,302.906Zm-95.868-35.557a16.653,16.653,0,1,0,0,33.306h94.818V267.2H424.729Z" fill="#c9cdd2"/>
            </g>
            <g id="그룹_4842" data-name="그룹 4842">
              <path id="패스_4731" data-name="패스 4731" d="M425.029,294.654a10.652,10.652,0,0,1,0-21.3H520.6V294.8H425.029Z" fill="#fff"/>
              <path id="패스_4732" data-name="패스 4732" d="M520.6,295.855H425.029a11.852,11.852,0,0,1,0-23.7H520.6a1.026,1.026,0,0,1,1.05,1.05v21.454A.99.99,0,0,1,520.6,295.855ZM425.029,274.4a9.6,9.6,0,1,0,0,19.2h94.517V274.4H425.029Z" fill="#c9cdd2"/>
            </g>
          </g>
          <path id="패스_4733" data-name="패스 4733" d="M512.795,281.9H427.729a1.05,1.05,0,1,1,0-2.1h85.066a1.026,1.026,0,0,1,1.05,1.05C514,281.452,513.545,281.9,512.795,281.9Z" fill="#c9cdd2"/>
          <path id="패스_4734" data-name="패스 4734" d="M512.795,288.653H427.729a1.05,1.05,0,1,1,0-2.1h85.066a1.026,1.026,0,0,1,1.05,1.05C514,288.053,513.545,288.653,512.795,288.653Z" fill="#c9cdd2"/>
        </g>
        <g id="그룹_4848" data-name="그룹 4848">
          <g id="그룹_4847" data-name="그룹 4847">
            <g id="그룹_4845" data-name="그룹 4845">
              <path id="패스_4735" data-name="패스 4735" d="M507.694,334.562a13.352,13.352,0,0,1,0,26.7H421.278v-26.7Z" fill="#fff"/>
              <path id="패스_4736" data-name="패스 4736" d="M507.694,362.317H421.278a1.025,1.025,0,0,1-1.05-1.05v-26.7a1.026,1.026,0,0,1,1.05-1.05h86.416a14.4,14.4,0,1,1,0,28.805Zm-85.216-2.25h85.216a12.152,12.152,0,0,0,0-24.3H422.478Z" fill="#3d3736"/>
            </g>
            <g id="그룹_4846" data-name="그룹 4846">
              <path id="패스_4737" data-name="패스 4737" d="M507.394,339.963a7.951,7.951,0,0,1,0,15.9H421.278V339.813h86.116Z" fill="#fff"/>
              <path id="패스_4738" data-name="패스 4738" d="M507.394,357.066H421.278a1.025,1.025,0,0,1-1.05-1.05V339.963a1.025,1.025,0,0,1,1.05-1.05h86.116a9.077,9.077,0,1,1,0,18.153Zm-84.916-2.25h84.916a6.9,6.9,0,0,0,0-13.8H422.478Z" fill="#3d3736"/>
            </g>
          </g>
          <path id="패스_4739" data-name="패스 4739" d="M502.443,348.965H431.93a1.05,1.05,0,1,1,0-2.1h70.513a1.05,1.05,0,1,1,0,2.1Z" fill="#c9cdd2"/>
        </g>
        <g id="그룹_4852" data-name="그룹 4852">
          <g id="그룹_4851" data-name="그룹 4851">
            <g id="그룹_4849" data-name="그룹 4849">
              <path id="패스_4740" data-name="패스 4740" d="M536.5,302.006a16.2,16.2,0,1,1,0,32.406H442.882V301.856H536.5Z" fill="#fff"/>
              <path id="패스_4741" data-name="패스 4741" d="M536.5,335.762H442.882a1.026,1.026,0,0,1-1.05-1.05V302.156a1.026,1.026,0,0,1,1.05-1.05H536.5a17.328,17.328,0,1,1,0,34.656Zm-92.567-2.25H536.5a15.153,15.153,0,1,0,0-30.306H443.932Z" fill="#3d3736"/>
            </g>
            <g id="그룹_4850" data-name="그룹 4850">
              <path id="패스_4742" data-name="패스 4742" d="M536.049,308.607a9.752,9.752,0,1,1,0,19.5H442.732v-19.5Z" fill="#fff"/>
              <path id="패스_4743" data-name="패스 4743" d="M536.049,329.161H442.732a1.026,1.026,0,0,1-1.05-1.05v-19.5a1.026,1.026,0,0,1,1.05-1.05h93.317A11.013,11.013,0,0,1,547,318.509,10.856,10.856,0,0,1,536.049,329.161Zm-92.117-2.25h92.117a8.7,8.7,0,0,0,0-17.4H443.932Z" fill="#3d3736"/>
            </g>
          </g>
          <path id="패스_4744" data-name="패스 4744" d="M533.5,322.41H449.933a1.05,1.05,0,1,1,0-2.1H533.5a1.05,1.05,0,1,1,0,2.1Z" fill="#c9cdd2"/>
          <path id="패스_4745" data-name="패스 4745" d="M533.5,316.258H449.933a1.05,1.05,0,1,1,0-2.1H533.5a1.026,1.026,0,0,1,1.05,1.05A1.127,1.127,0,0,1,533.5,316.258Z" fill="#c9cdd2"/>
        </g>
        <path id="패스_4746" data-name="패스 4746" d="M260.148,180.783a.551.551,0,0,1-.45-.15,26.366,26.366,0,0,1-14.553-14.4,26.708,26.708,0,0,1-.15-20.4,26.366,26.366,0,0,1,14.4-14.553A26.694,26.694,0,0,1,294.5,165.931a1.143,1.143,0,1,1-2.1-.9,24.507,24.507,0,0,0-32.256-31.806,25,25,0,0,0-13.2,13.352,24.609,24.609,0,0,0,.15,18.753,25,25,0,0,0,13.352,13.2,1.1,1.1,0,0,1,.6,1.5C260.9,180.633,260.6,180.783,260.148,180.783Z" fill="#e8ebed"/>
        <g id="그룹_4853" data-name="그룹 4853">
          <path id="패스_4747" data-name="패스 4747" d="M298.705,187.085a9.6,9.6,0,1,0-9.6,9.6A9.669,9.669,0,0,0,298.705,187.085Z" fill="#fff"/>
          <path id="패스_4748" data-name="패스 4748" d="M288.953,197.737a10.8,10.8,0,1,1,10.8-10.8A10.757,10.757,0,0,1,288.953,197.737Zm0-19.2a8.552,8.552,0,1,0,8.552,8.552A8.454,8.454,0,0,0,288.953,178.533Z" fill="#3d3736"/>
        </g>
        <path id="패스_4749" data-name="패스 4749" d="M342.213,223.241a.9.9,0,0,1-.6-.15L296.9,193.536a1.082,1.082,0,1,1,1.2-1.8l44.708,29.555a1.163,1.163,0,0,1,.3,1.5A1.069,1.069,0,0,1,342.213,223.241Z" fill="#3d3736"/>
        <path id="패스_4750" data-name="패스 4750" d="M591.409,277.551a1.3,1.3,0,0,1-.9-.45l-27.155-36.007a1.066,1.066,0,1,1,1.65-1.35l27.155,36.007a1.137,1.137,0,0,1-.15,1.5A.6.6,0,0,1,591.409,277.551Z" fill="#3d3736"/>
        <path id="패스_4751" data-name="패스 4751" d="M468.087,248a1.026,1.026,0,0,1-1.05-1.05V214.39a1.05,1.05,0,0,1,2.1,0v32.556C469.287,247.546,468.687,248,468.087,248Z" fill="#3d3736"/>
        <g id="그룹_4854" data-name="그룹 4854">
          <line id="선_59" data-name="선 59" x2="514.595" transform="translate(34.356 361.267)" fill="#fff"/>
          <path id="패스_4752" data-name="패스 4752" d="M548.951,362.317H34.356a1.05,1.05,0,1,1,0-2.1h514.6a1.05,1.05,0,1,1,0,2.1Z" fill="#3d3736"/>
        </g>
        <g id="그룹_4890" data-name="그룹 4890">
          <g id="그룹_4855" data-name="그룹 4855">
            <path id="패스_4753" data-name="패스 4753" d="M385.271,323.76s0-6.6,6.3-5.851,17.253-2.4,20.4,2.25-10.952,12.3-10.952,12.3" fill="#fff"/>
            <path id="패스_4754" data-name="패스 4754" d="M401.024,333.512a.823.823,0,0,1-.9-.6,1.04,1.04,0,0,1,.45-1.5c2.7-1.5,9.9-6.151,10.8-9.452a2.118,2.118,0,0,0-.15-1.35c-1.8-2.55-7.051-2.25-12-1.8a42.542,42.542,0,0,1-7.5.15,4.157,4.157,0,0,0-3.451.9,5.907,5.907,0,0,0-1.5,3.9,1.025,1.025,0,0,1-1.05,1.05h0a1.025,1.025,0,0,1-1.05-1.05,8.179,8.179,0,0,1,2.25-5.551,6.27,6.27,0,0,1,5.251-1.35,37.849,37.849,0,0,0,7.051-.15c5.7-.45,11.552-.75,14.1,2.851a4.467,4.467,0,0,1,.6,3.151c-1.2,4.8-10.652,10.2-11.852,10.8Z" fill="#3d3736"/>
          </g>
          <g id="그룹_4856" data-name="그룹 4856">
            <path id="패스_4755" data-name="패스 4755" d="M406.425,344.314s5.1-3.151,8.7.9,13.352,12.3,11.7,16.053H408.375" fill="#fff"/>
            <path id="패스_4756" data-name="패스 4756" d="M426.829,362.317H408.376a1.05,1.05,0,1,1,0-2.1h17.553c-.15-2.55-5.4-7.8-8.4-10.8-1.2-1.2-2.4-2.4-3.151-3.3-3-3.3-7.2-.9-7.351-.75a1.082,1.082,0,1,1-1.2-1.8c2.1-1.2,6.751-2.7,10.2,1.2.75.9,1.95,2.1,3.151,3.3,5.851,5.851,10.2,10.652,8.7,13.953C427.579,362.017,427.129,362.317,426.829,362.317Z" fill="#3d3736"/>
          </g>
          <g id="그룹_4857" data-name="그룹 4857">
            <path id="패스_4757" data-name="패스 4757" d="M378.37,328.861l4.8-7.351,20.4,11.7-2.55,7.5-16.2,1.5" fill="#fff"/>
            <path id="패스_4758" data-name="패스 4758" d="M384.821,343.263a1.026,1.026,0,0,1-1.05-1.05,1.159,1.159,0,0,1,1.05-1.2l15.453-1.35,1.95-6-18.6-10.652-4.2,6.451a1.082,1.082,0,0,1-1.8-1.2l4.8-7.2a1.127,1.127,0,0,1,1.5-.3l20.4,11.7a1.139,1.139,0,0,1,.45,1.35l-2.4,7.5a.951.951,0,0,1-.9.75l-16.653,1.2Z" fill="#3d3736"/>
          </g>
          <g id="그룹_4858" data-name="그룹 4858">
            <path id="패스_4759" data-name="패스 4759" d="M367.718,328.261a21.58,21.58,0,0,1,20.854,8.552s12.3-1.2,17.853,1.5l4.351,22.954H349.265l-7.2-9" fill="#fff"/>
            <path id="패스_4760" data-name="패스 4760" d="M410.776,362.317H349.265a1.3,1.3,0,0,1-.9-.45l-7.2-9a1.066,1.066,0,1,1,1.65-1.35l6.9,8.552h59.711l-4.051-21.154c-5.4-2.25-16.653-1.2-16.8-1.2a1.362,1.362,0,0,1-1.05-.45,20.631,20.631,0,0,0-19.654-8.1,1.147,1.147,0,1,1-.45-2.25,22.728,22.728,0,0,1,21.6,8.4c2.551-.15,12.752-.9,17.853,1.65a1,1,0,0,1,.6.75l4.351,22.954a1.1,1.1,0,0,1-.3.9C411.376,362.167,411.076,362.317,410.776,362.317Z" fill="#3d3736"/>
          </g>
          <g id="그룹_4859" data-name="그룹 4859">
            <path id="패스_4761" data-name="패스 4761" d="M319.709,336.062s14.553,16.353,29.105,24c0,0,18.6-17.4,23.254-34.206l-35.557-21.454" fill="#7ebaff"/>
            <path id="패스_4762" data-name="패스 4762" d="M348.814,361.117a.551.551,0,0,1-.45-.15c-14.553-7.651-28.805-23.554-29.405-24.154a1.066,1.066,0,0,1,1.65-1.35c.15.15,14.1,15.753,28.055,23.4,3.151-3,17.7-18,22.2-32.256l-34.806-21a1.216,1.216,0,0,1-.45-1.5,1.071,1.071,0,0,1,1.5-.45l35.557,21.454a1,1,0,0,1,.45,1.2c-1.95,7.051-6.6,15-13.653,23.7-5.251,6.451-9.9,10.8-9.9,10.952A1.631,1.631,0,0,1,348.814,361.117Z" fill="#3d3736"/>
          </g>
          <g id="그룹_4860" data-name="그룹 4860">
            <path id="패스_4763" data-name="패스 4763" d="M279.2,306.057a12.819,12.819,0,0,1,6.3,7.5l-6.6,3.6A13.7,13.7,0,0,1,279.2,306.057Z" fill="#fff"/>
            <path id="패스_4764" data-name="패스 4764" d="M279.052,318.359a.823.823,0,0,1-.9-.6c-.15-.15-2.851-5.1.15-12.152a1.171,1.171,0,0,1,.6-.6.956.956,0,0,1,.9,0c.15.15,5.4,2.4,6.9,8.252a1.02,1.02,0,0,1-.6,1.2l-6.6,3.6C279.352,318.209,279.2,318.359,279.052,318.359Zm.75-10.652a12.041,12.041,0,0,0-.3,7.951l4.651-2.55A11.151,11.151,0,0,0,279.8,307.707Z" fill="#3d3736"/>
          </g>
          <g id="그룹_4864" data-name="그룹 4864">
            <g id="그룹_4863" data-name="그룹 4863">
              <g id="그룹_4861" data-name="그룹 4861">
                <path id="패스_4765" data-name="패스 4765" d="M98.568,222.341a10.894,10.894,0,1,1,5.851-14.253A10.929,10.929,0,0,1,98.568,222.341Z" fill="#fff"/>
                <path id="패스_4766" data-name="패스 4766" d="M94.367,224.291a11.706,11.706,0,0,1-11.1-7.5,11.963,11.963,0,0,1,11.1-16.653,11.706,11.706,0,0,1,11.1,7.5,12.15,12.15,0,0,1-6.451,15.753A12.8,12.8,0,0,1,94.367,224.291Zm0-21.9a10.446,10.446,0,0,0-3.751.75,9.878,9.878,0,0,0-5.251,12.9,9.653,9.653,0,0,0,9.152,6,10.446,10.446,0,0,0,3.751-.75,9.878,9.878,0,0,0,5.251-12.9A10.2,10.2,0,0,0,94.367,202.387Z" fill="#3d3736"/>
              </g>
              <g id="그룹_4862" data-name="그룹 4862">
                <path id="패스_4767" data-name="패스 4767" d="M128.124,190.085a39.55,39.55,0,0,0-11.7-11.7l2.25-8.552-11.7-4.8-4.351,7.651a38.268,38.268,0,0,0-16.5,0l-4.5-7.651-11.7,4.8,2.25,8.552a39.551,39.551,0,0,0-11.7,11.7l-8.552-2.25-4.8,11.7,7.651,4.351a38.268,38.268,0,0,0,0,16.5l-7.651,4.5,4.8,11.7,8.552-2.25a39.551,39.551,0,0,0,11.7,11.7l-2.25,8.552,11.7,4.8,4.5-7.651a38.268,38.268,0,0,0,16.5,0l4.5,7.651,11.7-4.8-2.25-8.552a39.551,39.551,0,0,0,11.7-11.7l8.552,2.25,4.8-11.7-7.651-4.5a38.268,38.268,0,0,0,0-16.5l7.651-4.351-4.8-11.7Zm-23.4,47.259a27.207,27.207,0,1,1,14.7-35.557A27.274,27.274,0,0,1,104.719,237.344Z" fill="#fff"/>
                <path id="패스_4768" data-name="패스 4768" d="M81.615,260.448a.551.551,0,0,1-.45-.15l-11.7-4.8a1.127,1.127,0,0,1-.6-1.35l2.1-7.8a42.234,42.234,0,0,1-10.952-10.952l-7.8,2.1a1.211,1.211,0,0,1-1.35-.6l-4.8-11.7a1.21,1.21,0,0,1,.45-1.35l7.051-4.051a38.29,38.29,0,0,1,0-15.453l-7.051-4.051a1.03,1.03,0,0,1-.45-1.35l4.8-11.7a1.127,1.127,0,0,1,1.35-.6l7.8,2.1a42.234,42.234,0,0,1,10.952-10.952l-2.1-7.8a1.211,1.211,0,0,1,.6-1.35l11.7-4.8a1.21,1.21,0,0,1,1.35.45l4.051,7.051a44.55,44.55,0,0,1,15.453,0l4.051-7.051a1.03,1.03,0,0,1,1.35-.45l11.7,4.8a1.127,1.127,0,0,1,.6,1.35l-2.1,7.8a40.049,40.049,0,0,1,10.952,10.952l7.8-2.1a1.211,1.211,0,0,1,1.35.6l4.8,11.7a1.21,1.21,0,0,1-.45,1.35l-7.051,4.051a38.29,38.29,0,0,1,0,15.453l7.051,4.051a1.03,1.03,0,0,1,.45,1.35l-4.8,11.7a1.127,1.127,0,0,1-1.35.6l-7.8-2.1a42.234,42.234,0,0,1-10.952,10.952l2.1,7.8a1.211,1.211,0,0,1-.6,1.35l-11.7,4.8a1.21,1.21,0,0,1-1.35-.45l-4.051-7.051a44.549,44.549,0,0,1-15.453,0l-4.051,7.051A1.013,1.013,0,0,1,81.615,260.448Zm-10.2-6.6,9.9,4.051,3.9-6.9a1.364,1.364,0,0,1,1.2-.6,41.291,41.291,0,0,0,16.053,0,1.1,1.1,0,0,1,1.2.6l3.9,6.9,9.9-4.051-2.1-7.651a1,1,0,0,1,.45-1.2,39.322,39.322,0,0,0,11.4-11.4,1,1,0,0,1,1.2-.45l7.651,2.1,4.051-9.9-6.9-3.9a1.364,1.364,0,0,1-.6-1.2,36.233,36.233,0,0,0,0-16.053,1.1,1.1,0,0,1,.6-1.2l6.9-3.9-4.051-9.9-7.651,2.1a1,1,0,0,1-1.2-.45,39.322,39.322,0,0,0-11.4-11.4,1,1,0,0,1-.45-1.2l2.1-7.651-9.9-4.051-3.9,6.9a1.364,1.364,0,0,1-1.2.6,41.291,41.291,0,0,0-16.053,0,1.1,1.1,0,0,1-1.2-.6l-3.9-6.9-9.9,4.051,2.1,7.651a1,1,0,0,1-.45,1.2,39.322,39.322,0,0,0-11.4,11.4,1,1,0,0,1-1.2.45l-7.651-2.1-4.051,9.9,6.9,3.9a1.364,1.364,0,0,1,.6,1.2,41.289,41.289,0,0,0,0,16.053,1.1,1.1,0,0,1-.6,1.2l-6.9,3.9,4.051,9.9,7.651-2.1a1,1,0,0,1,1.2.45,39.322,39.322,0,0,0,11.4,11.4,1,1,0,0,1,.45,1.2Zm22.954-13.2a28.4,28.4,0,0,1-10.952-54.61,26.67,26.67,0,0,1,10.8-2.1,28.4,28.4,0,0,1,10.952,54.61A29.452,29.452,0,0,1,94.367,240.644Zm0-54.61a26.223,26.223,0,1,0,24.154,16.2A26.061,26.061,0,0,0,94.367,186.034Z" fill="#3d3736"/>
              </g>
            </g>
            <path id="패스_4769" data-name="패스 4769" d="M94.367,245.9a33.712,33.712,0,0,1-12.9-64.812,34.111,34.111,0,0,1,12.9-2.55,33.7,33.7,0,0,1,12.9,64.812A35.291,35.291,0,0,1,94.367,245.9Zm0-65.112a30.091,30.091,0,0,0-12,2.4,31.435,31.435,0,0,0,12.152,60.461,30.091,30.091,0,0,0,12-2.4,30.822,30.822,0,0,0,16.953-16.953,31.663,31.663,0,0,0,0-24A31.27,31.27,0,0,0,94.367,180.783Z" fill="#e8ebed"/>
          </g>
          <g id="그룹_4868" data-name="그룹 4868">
            <g id="그룹_4867" data-name="그룹 4867">
              <g id="그룹_4865" data-name="그룹 4865">
                <path id="패스_4770" data-name="패스 4770" d="M92.717,136.225a8.7,8.7,0,1,1,8.7-8.7A8.708,8.708,0,0,1,92.717,136.225Z" fill="#fff"/>
                <path id="패스_4771" data-name="패스 4771" d="M92.717,137.275a9.9,9.9,0,1,1,9.9-9.9A9.892,9.892,0,0,1,92.717,137.275Zm0-17.4a7.651,7.651,0,1,0,7.651,7.651A7.684,7.684,0,0,0,92.717,119.872Z" fill="#3d3736"/>
              </g>
              <g id="그룹_4866" data-name="그룹 4866">
                <path id="패스_4772" data-name="패스 4772" d="M124.223,121.522a31.308,31.308,0,0,0-5.1-12.152l4.351-5.551-7.051-7.051-5.551,4.351a34.906,34.906,0,0,0-12.152-5.1l-.9-7.051H87.766l-.9,7.051a31.307,31.307,0,0,0-12.152,5.1l-5.7-4.5-7.051,7.051,4.351,5.551a34.906,34.906,0,0,0-5.1,12.152l-7.051.9v10.052l7.051.9a31.308,31.308,0,0,0,5.1,12.152l-4.351,5.551,7.051,7.051,5.551-4.351a34.906,34.906,0,0,0,12.152,5.1l.9,7.051H97.668l.9-7.051a31.308,31.308,0,0,0,12.152-5.1l5.551,4.351,7.051-7.051-4.051-5.4a33.752,33.752,0,0,0,5.1-12.152l7.051-.9V122.423ZM92.717,144.777a17.4,17.4,0,1,1,17.4-17.4A17.416,17.416,0,0,1,92.717,144.777Z" fill="#fff"/>
                <path id="패스_4773" data-name="패스 4773" d="M97.668,167.131H87.616a1,1,0,0,1-1.05-.9l-.75-6.3a32.969,32.969,0,0,1-11.1-4.651l-4.951,3.9a1.154,1.154,0,0,1-1.5-.15l-7.051-7.051a1.154,1.154,0,0,1-.15-1.5l3.9-4.951a34.293,34.293,0,0,1-4.651-11.1l-6.3-.9a.992.992,0,0,1-.9-1.05V122.423a1,1,0,0,1,.9-1.05l6.3-.75a31.742,31.742,0,0,1,4.651-11.1l-3.9-4.951a1.154,1.154,0,0,1,.15-1.5l7.051-7.051a1.154,1.154,0,0,1,1.5-.15l4.951,3.9a34.293,34.293,0,0,1,11.1-4.651l.75-6.3a.992.992,0,0,1,1.05-.9H97.668a1,1,0,0,1,1.05.9l.75,6.3a32.97,32.97,0,0,1,11.1,4.651l4.951-3.9a1.154,1.154,0,0,1,1.5.15l7.051,7.051a1.154,1.154,0,0,1,.15,1.5l-3.9,4.951a34.292,34.292,0,0,1,4.651,11.1l6.3.75a.992.992,0,0,1,.9,1.05v10.052a1,1,0,0,1-.9,1.05l-6.3.75a32.969,32.969,0,0,1-4.651,11.1l3.9,4.951a1.154,1.154,0,0,1-.15,1.5l-7.051,7.051a1.154,1.154,0,0,1-1.5.15l-4.951-3.9a34.293,34.293,0,0,1-11.1,4.651l-.75,6.3A1.025,1.025,0,0,1,97.668,167.131Zm-9-2.25h8.1l.75-6a.968.968,0,0,1,.9-.9,29.778,29.778,0,0,0,11.7-4.8,1.125,1.125,0,0,1,1.35,0l4.8,3.751,5.7-5.7-3.751-4.8a1.125,1.125,0,0,1,0-1.35,30.723,30.723,0,0,0,4.8-11.7c.15-.45.45-.9.9-.9l6-.75v-8.1l-6-.75a.968.968,0,0,1-.9-.9,29.778,29.778,0,0,0-4.8-11.7,1.125,1.125,0,0,1,0-1.35l3.751-4.8-5.7-5.7-4.8,3.751a1.125,1.125,0,0,1-1.35,0,30.723,30.723,0,0,0-11.7-4.8c-.45-.15-.9-.45-.9-.9l-.75-6h-8.1l-.75,6a.968.968,0,0,1-.9.9,29.778,29.778,0,0,0-11.7,4.8,1.125,1.125,0,0,1-1.35,0l-4.951-4.051-5.7,5.7,3.751,4.8a1.125,1.125,0,0,1,0,1.35,30.723,30.723,0,0,0-4.8,11.7c-.15.45-.45.9-.9.9l-6,.75v8.1l6,.75a.968.968,0,0,1,.9.9,29.778,29.778,0,0,0,4.8,11.7,1.125,1.125,0,0,1,0,1.35l-3.751,4.8,5.7,5.7,4.8-3.751a1.125,1.125,0,0,1,1.35,0,30.723,30.723,0,0,0,11.7,4.8c.45.15.9.45.9.9Zm4.051-18.9a18.453,18.453,0,1,1,18.453-18.453A18.44,18.44,0,0,1,92.717,145.977Zm0-34.806a16.2,16.2,0,1,0,16.2,16.2A16.231,16.231,0,0,0,92.717,111.171Z" fill="#3d3736"/>
              </g>
            </g>
            <path id="패스_4774" data-name="패스 4774" d="M92.717,151.228a23.854,23.854,0,1,1,23.854-23.854A23.915,23.915,0,0,1,92.717,151.228Zm0-45.308a21.6,21.6,0,1,0,21.6,21.6A21.609,21.609,0,0,0,92.717,105.92Z" fill="#e8ebed"/>
          </g>
          <g id="그룹_4872" data-name="그룹 4872">
            <g id="그룹_4871" data-name="그룹 4871">
              <g id="그룹_4869" data-name="그룹 4869">
                <path id="패스_4775" data-name="패스 4775" d="M28.655,164.73a6.785,6.785,0,1,1,8.552-4.351A6.724,6.724,0,0,1,28.655,164.73Z" fill="#fff"/>
                <path id="패스_4776" data-name="패스 4776" d="M30.756,166.231a6.8,6.8,0,0,1-2.4-.45,8.479,8.479,0,0,1-4.651-3.9,7.6,7.6,0,0,1-.45-6,7.744,7.744,0,0,1,7.5-5.4,6.8,6.8,0,0,1,2.4.45,7.831,7.831,0,0,1-2.4,15.3Zm0-13.5a5.626,5.626,0,0,0-5.4,3.9,6.19,6.19,0,0,0,.3,4.351,5.631,5.631,0,0,0,3.3,2.851,7.53,7.53,0,0,0,1.8.3,5.626,5.626,0,0,0,5.4-3.9,5.548,5.548,0,0,0-3.6-7.051A2.706,2.706,0,0,0,30.756,152.728Z" fill="#3d3736"/>
              </g>
              <g id="그룹_4870" data-name="그룹 4870">
                <path id="패스_4777" data-name="패스 4777" d="M55.36,161.43a25.947,25.947,0,0,0-.75-10.2l4.5-3.151-3.6-6.751-5.1,1.8a23.8,23.8,0,0,0-7.8-6.6l1.05-5.4-7.351-2.4-2.4,4.951a25.947,25.947,0,0,0-10.2.75l-3.151-4.5-6.9,3.6,1.8,5.1a23.8,23.8,0,0,0-6.6,7.8l-5.4-1.05-2.4,7.351L6,155.129a25.947,25.947,0,0,0,.75,10.2l-4.5,3.151,3.6,6.9,5.1-1.8a23.8,23.8,0,0,0,7.8,6.6l-1.05,5.4,7.351,2.4,2.4-4.951a25.947,25.947,0,0,0,10.2-.75l3.151,4.5,6.9-3.6-1.8-5.1a23.8,23.8,0,0,0,6.6-7.8l5.4,1.05,2.4-7.351Zm-28.805,9.752a13.475,13.475,0,1,1,16.953-8.7A13.526,13.526,0,0,1,26.555,171.182Z" fill="#fff"/>
                <path id="패스_4778" data-name="패스 4778" d="M25.2,189.035h-.3l-7.351-2.4a.986.986,0,0,1-.75-1.2l.9-4.651a23.509,23.509,0,0,1-6.9-5.851l-4.351,1.65a1.11,1.11,0,0,1-1.35-.6l-3.6-6.9a.977.977,0,0,1,.3-1.35l3.9-2.7a26.182,26.182,0,0,1-.75-9l-4.2-1.95a1.211,1.211,0,0,1-.6-1.35l2.4-7.351a.986.986,0,0,1,1.2-.75l4.651.9a23.508,23.508,0,0,1,5.851-6.9l-1.65-4.351a1.11,1.11,0,0,1,.6-1.35l6.9-3.6a.977.977,0,0,1,1.35.3l2.7,3.9a26.182,26.182,0,0,1,9-.75l1.95-4.2a1.211,1.211,0,0,1,1.35-.6l7.351,2.4a.986.986,0,0,1,.75,1.2l-.9,4.651a23.508,23.508,0,0,1,6.9,5.851l4.351-1.65a1.11,1.11,0,0,1,1.35.6l3.6,6.9a.977.977,0,0,1-.3,1.35l-3.9,2.7a26.182,26.182,0,0,1,.75,9l4.2,1.95a1.211,1.211,0,0,1,.6,1.35l-2.4,7.351a.985.985,0,0,1-1.2.75l-4.651-.9a23.508,23.508,0,0,1-5.851,6.9l1.65,4.351a1.11,1.11,0,0,1-.6,1.35l-6.9,3.6a.977.977,0,0,1-1.35-.3l-2.7-3.9a26.182,26.182,0,0,1-9,.75l-1.95,4.2A1.263,1.263,0,0,1,25.2,189.035Zm-6.151-4.2,5.551,1.8,1.95-4.051a.948.948,0,0,1,1.2-.6,23.739,23.739,0,0,0,9.752-.75,1,1,0,0,1,1.2.45l2.55,3.751,5.251-2.7-1.5-4.2a1.167,1.167,0,0,1,.3-1.2,22.852,22.852,0,0,0,6.3-7.351,1.364,1.364,0,0,1,1.2-.6l4.5.75,1.8-5.551-4.051-1.95a.948.948,0,0,1-.6-1.2,23.739,23.739,0,0,0-.75-9.752,1,1,0,0,1,.45-1.2l3.751-2.55-2.7-5.251-4.2,1.5a1.167,1.167,0,0,1-1.2-.3,22.851,22.851,0,0,0-7.351-6.3,1.364,1.364,0,0,1-.6-1.2l.75-4.5-5.551-1.8-1.95,4.051a.948.948,0,0,1-1.2.6,23.739,23.739,0,0,0-9.752.75,1,1,0,0,1-1.2-.45l-2.55-3.751-5.4,2.7,1.5,4.2a1.167,1.167,0,0,1-.3,1.2,22.852,22.852,0,0,0-6.3,7.351,1.364,1.364,0,0,1-1.2.6l-4.5-.75-1.8,5.551,4.051,1.95a.948.948,0,0,1,.6,1.2,23.739,23.739,0,0,0,.75,9.752,1,1,0,0,1-.45,1.2L3.6,168.781l2.7,5.251,4.2-1.5a1.167,1.167,0,0,1,1.2.3,22.851,22.851,0,0,0,7.351,6.3,1.364,1.364,0,0,1,.6,1.2Zm11.7-12a15.713,15.713,0,0,1-4.5-.75,14.55,14.55,0,0,1-8.552-7.2,14.282,14.282,0,0,1-.9-11.1,14.5,14.5,0,0,1,13.8-10.052,15.713,15.713,0,0,1,4.5.75,14.4,14.4,0,0,1,9.3,18.3A14.179,14.179,0,0,1,30.756,172.832Zm0-26.855A12.381,12.381,0,0,0,27,170.131a10.9,10.9,0,0,0,3.751.6,12.247,12.247,0,0,0,11.7-8.552,12.453,12.453,0,0,0-7.951-15.6A10.9,10.9,0,0,0,30.756,145.977Z" fill="#3d3736"/>
              </g>
            </g>
          </g>
          <g id="그룹_4878" data-name="그룹 4878">
            <g id="그룹_4877" data-name="그룹 4877">
              <g id="그룹_4873" data-name="그룹 4873">
                <path id="패스_4779" data-name="패스 4779" d="M240.194,206.738H106.22a17.1,17.1,0,0,0-17.1,17.1V336.662H257.148V223.841A16.874,16.874,0,0,0,240.194,206.738Z" fill="#fff"/>
                <path id="패스_4780" data-name="패스 4780" d="M257.3,337.712H89.267a1.026,1.026,0,0,1-1.05-1.05V223.841a18.12,18.12,0,0,1,18.153-18.153H240.344A18.12,18.12,0,0,1,258.5,223.841V336.662A1.454,1.454,0,0,1,257.3,337.712Zm-166.981-2.25H256.247V223.691a15.911,15.911,0,0,0-15.9-15.9H106.22a15.911,15.911,0,0,0-15.9,15.9Z" fill="#3d3736"/>
              </g>
              <g id="그룹_4874" data-name="그룹 4874">
                <path id="패스_4781" data-name="패스 4781" d="M89.267,322.56v13.953H257.3V322.56" fill="#e8ebed"/>
                <path id="패스_4782" data-name="패스 4782" d="M257.3,337.712H89.267a1.026,1.026,0,0,1-1.05-1.05v-14.1a1.05,1.05,0,0,1,2.1,0v12.9H256.247v-12.9a1.05,1.05,0,0,1,2.1,0v13.953A1.159,1.159,0,0,1,257.3,337.712Z" fill="#3d3736"/>
              </g>
              <path id="패스_4783" data-name="패스 4783" d="M243.8,337.862H102.619a1.025,1.025,0,0,1-1.05-1.05V229.692a1.025,1.025,0,0,1,1.05-1.05H243.8a1.025,1.025,0,0,1,1.05,1.05v107.12C245,337.412,244.4,337.862,243.8,337.862Zm-139.976-2.25H242.745V230.743H103.819Z" fill="#c9cdd2"/>
              <g id="그룹_4875" data-name="그룹 4875">
                <path id="패스_4784" data-name="패스 4784" d="M252.047,337.562l-13.8-42.158s9.452-15.3,34.206-15.3L285.5,328.861s-16.053,4.351-20.4,8.7Z" fill="#ffe571"/>
                <path id="패스_4785" data-name="패스 4785" d="M265.249,338.613h-13.2a1.128,1.128,0,0,1-1.05-.75l-13.8-42.158a.992.992,0,0,1,.15-.9c.45-.6,10.052-15.753,35.106-15.753a1.128,1.128,0,0,1,1.05.75l13.052,48.759a1.073,1.073,0,0,1-.75,1.35c-.15,0-15.753,4.351-19.8,8.4C265.7,338.463,265.549,338.613,265.249,338.613Zm-12.3-2.25H264.8c4.2-3.751,15.753-7.351,19.5-8.4l-12.6-46.809c-12,.15-20.1,4.051-24.755,7.351a33.31,33.31,0,0,0-7.351,6.9Z" fill="#3d3736"/>
              </g>
              <g id="그룹_4876" data-name="그룹 4876">
                <path id="패스_4786" data-name="패스 4786" d="M77.114,335.912v8.252a17.1,17.1,0,0,0,17.1,17.1H252.347a17.1,17.1,0,0,0,17.1-17.1v-8.252Z" fill="#fff"/>
                <path id="패스_4787" data-name="패스 4787" d="M252.347,362.317H94.217a18.12,18.12,0,0,1-18.153-18.153v-8.252a1.026,1.026,0,0,1,1.05-1.05H269.3a1.025,1.025,0,0,1,1.05,1.05v8.252A17.9,17.9,0,0,1,252.347,362.317Zm-174.032-25.2v7.051a15.911,15.911,0,0,0,15.9,15.9H252.347a15.911,15.911,0,0,0,15.9-15.9v-7.051Z" fill="#3d3736"/>
              </g>
            </g>
            <path id="패스_4788" data-name="패스 4788" d="M176.433,218.74a3.151,3.151,0,1,0-3.151,3.151A3.077,3.077,0,0,0,176.433,218.74Z" fill="#3d3736"/>
          </g>
          <g id="그룹_4881" data-name="그룹 4881">
            <g id="그룹_4879" data-name="그룹 4879">
              <path id="패스_4789" data-name="패스 4789" d="M303.206,266s-12.6,5.4-11.552,19.8c0,0-5.1,1.65-1.35,5.851,0,0-2.7,16.353,14.253,19.354a30.976,30.976,0,0,0,29.255-9.152C333.962,301.856,325.41,267.049,303.206,266Z" fill="#fff"/>
              <path id="패스_4790" data-name="패스 4790" d="M311.008,312.808h0a23.4,23.4,0,0,1-6.6-.75c-16.053-2.851-15.453-17.253-15.3-20.1a4.385,4.385,0,0,1-1.2-4.051,4.864,4.864,0,0,1,2.55-2.851c-.6-14.4,12.152-19.954,12.3-20.1.15,0,.3-.15.45-.15,9.452.45,18,6.9,24.6,18.9a81.5,81.5,0,0,1,7.2,17.853.994.994,0,0,1-.3,1.05A32.393,32.393,0,0,1,311.008,312.808Zm-7.5-45.608c-1.65.75-11.552,6.151-10.652,18.6a1.53,1.53,0,0,1-.75,1.2,3.34,3.34,0,0,0-1.95,1.65,3.436,3.436,0,0,0,1.05,2.4,1.1,1.1,0,0,1,.3.9c-.15.6-2.25,15.3,13.352,18.153h.15a27.89,27.89,0,0,0,6.151.6,29.7,29.7,0,0,0,21.6-9.152C331.411,297.055,322.71,268.4,303.506,267.2Z" fill="#3d3736"/>
            </g>
            <g id="그룹_4880" data-name="그룹 4880">
              <path id="패스_4791" data-name="패스 4791" d="M323.31,291.954s3.451-3.451,6.751,1.05c3.451,4.5-.3,10.952-6.451,9.152,0,0,6.151.3,10.2,2.7,0,0,4.5-7.5,7.8-10.5,3.451-3,9.152-13.653,2.1-21.154,0,0-4.8-14.7-22.5-16.653-17.7-2.1-27.905,8.252-26.855,15.6a16.8,16.8,0,0,0,13.352,1.35s-.3,3-3,3.451c0,0,5.4,4.5,13.653,1.65C318.209,278.6,316.859,287.153,323.31,291.954Z" fill="#fff"/>
              <path id="패스_4792" data-name="패스 4792" d="M333.962,306.057a.9.9,0,0,1-.6-.15,20.658,20.658,0,0,0-7.351-2.25h-.3a11.581,11.581,0,0,1-2.25-.3.986.986,0,0,1-.75-1.2,1.141,1.141,0,0,1,1.2-.9,13.6,13.6,0,0,1,2.4.3,4.485,4.485,0,0,0,3.751-2.7,4.93,4.93,0,0,0-.6-4.951,3.86,3.86,0,0,0-3-1.8,3.976,3.976,0,0,0-2.25.9,1.154,1.154,0,0,1-1.5.15c-5.251-3.9-5.7-9.752-5.7-12.6a18.623,18.623,0,0,1-4.051.45,14.463,14.463,0,0,1-9-2.85,1.167,1.167,0,0,1-.3-1.2.951.951,0,0,1,.9-.75,1.576,1.576,0,0,0,1.35-.75,22.378,22.378,0,0,1-3.151.3,16.9,16.9,0,0,1-8.852-2.4.825.825,0,0,1-.45-.75c-.45-3,.75-6.451,3.3-9.3,5.1-5.851,14.4-8.852,24.755-7.651a28.309,28.309,0,0,1,18.6,9.452,31.091,31.091,0,0,1,4.8,7.651,12.855,12.855,0,0,1,3.6,9.6c-.15,5.7-3.751,10.952-5.851,12.9-3.3,2.85-7.651,10.2-7.651,10.352A3.177,3.177,0,0,1,333.962,306.057Zm-4.051-3.9a17.591,17.591,0,0,1,3.6,1.35c1.35-2.1,4.651-7.351,7.5-9.9a17.971,17.971,0,0,0,5.1-11.252,10.624,10.624,0,0,0-3.151-8.252c-.15-.15-.15-.3-.3-.45-.15-.6-4.8-13.953-21.6-15.9-9.6-1.05-18.153,1.5-22.954,6.9a10.212,10.212,0,0,0-2.851,7.051,15.247,15.247,0,0,0,7.2,1.8,17.78,17.78,0,0,0,4.8-.75,1.317,1.317,0,0,1,1.05.15,1.362,1.362,0,0,1,.45,1.05,5.943,5.943,0,0,1-1.8,3.451,14.782,14.782,0,0,0,6,1.35,14.4,14.4,0,0,0,4.951-.9,1.317,1.317,0,0,1,1.05.15,1.362,1.362,0,0,1,.45,1.05s-1.05,7.351,4.051,11.7a5.084,5.084,0,0,1,3-.9,5.717,5.717,0,0,1,4.651,2.7,6.971,6.971,0,0,1,.9,7.2A10.5,10.5,0,0,1,329.911,302.156Z" fill="#3d3736"/>
            </g>
            <path id="패스_4793" data-name="패스 4793" d="M299.305,287.9c-.15,1.65-.75,2.851-1.5,2.851s-1.2-1.35-1.05-3,.75-2.85,1.5-2.85S299.455,286.253,299.305,287.9Z" fill="#3d3736"/>
            <path id="패스_4794" data-name="패스 4794" d="M301.856,282.352a.823.823,0,0,1-.9-.6,2.984,2.984,0,0,0-3-1.8,1.147,1.147,0,1,1-.45-2.25,5.128,5.128,0,0,1,5.251,2.851,1.04,1.04,0,0,1-.45,1.5C302.306,282.352,302.006,282.352,301.856,282.352Z" fill="#3d3736"/>
            <path id="패스_4795" data-name="패스 4795" d="M296.755,301.256a3.2,3.2,0,0,1-1.8-.45,1.108,1.108,0,1,1,1.05-1.95c.3.15,1.5.6,2.7-1.05a1.082,1.082,0,0,1,1.8,1.2A4.33,4.33,0,0,1,296.755,301.256Z" fill="#3d3736"/>
            <path id="패스_4796" data-name="패스 4796" d="M343.714,274.251a1.3,1.3,0,0,1-.9-.45c-6.451-7.651-17.553-5.251-17.7-5.251a1.147,1.147,0,1,1-.45-2.25c.45-.15,12.6-2.85,19.8,6a1,1,0,0,1-.15,1.5C344.314,274.251,344.014,274.251,343.714,274.251Z" fill="#3d3736"/>
          </g>
          <g id="그룹_4882" data-name="그룹 4882">
            <path id="패스_4797" data-name="패스 4797" d="M305.456,319.859a14.846,14.846,0,0,1-10.952,0c-5.551-2.4-7.2-5.851-11.7-7.8-4.351-1.95-7.8-3.451-8.552-1.5s3.9,4.351,3.9,4.351-5.1-2.7-6-.75,1.5,3.6,3.6,4.651c0,0-4.8-2.7-6-.9-1.2,1.65,4.351,5.1,4.351,5.1s-4.051-2.851-4.651-1.5c-.45,1.5.3,3.451,4.351,6.3s15.453,19.2,40.658,9.752" fill="#fff"/>
            <path id="패스_4798" data-name="패스 4798" d="M299.755,341.613c-12.6,0-20.254-7.051-24.3-10.952-.9-.75-1.65-1.5-2.1-1.95-2.55-1.8-5.851-4.5-4.8-7.5a1.536,1.536,0,0,1,.75-.9,2.7,2.7,0,0,1-.6-1.35,2.083,2.083,0,0,1,.3-1.65,2.524,2.524,0,0,1,2.25-1.05h0a2.715,2.715,0,0,1,.15-2.4,2.647,2.647,0,0,1,1.35-1.2,2.225,2.225,0,0,1,1.05-.15,3,3,0,0,1-.3-2.25,2.387,2.387,0,0,1,1.35-1.35c1.8-.75,4.5.3,8.7,2.25a17.108,17.108,0,0,1,5.251,3.6,20.916,20.916,0,0,0,6.3,4.2,13.474,13.474,0,0,0,10.052,0,1.143,1.143,0,0,1,.9,2.1,15.735,15.735,0,0,1-11.852,0,26.138,26.138,0,0,1-6.9-4.5,22.6,22.6,0,0,0-4.8-3.3c-2.55-1.05-5.851-2.55-6.9-2.25a.147.147,0,0,0-.15.15c-.15.45,1.35,1.95,3.3,3a1.108,1.108,0,0,1-1.05,1.95c-2.1-1.05-4.2-1.5-4.5-1.2a.681.681,0,0,0,0,.75c.15.6.9,1.2,2.1,1.8a8.846,8.846,0,0,0,1.2.6,1.166,1.166,0,0,1,.45,1.5,1.04,1.04,0,0,1-1.5.45,4.492,4.492,0,0,1-1.2-.6c-1.65-.75-3.151-1.05-3.451-.75.15.6,1.35,1.8,2.85,2.851.45.3.75.45,1.2.75a1.082,1.082,0,1,1-1.2,1.8c-.3-.15-.6-.45-1.05-.75a10.313,10.313,0,0,0-1.95-.9c0,1.5,2.1,3.3,4.051,4.651.6.45,1.35,1.2,2.4,2.1,5.251,4.951,16.353,15.3,37.357,7.5a1.143,1.143,0,1,1,.9,2.1A51.557,51.557,0,0,1,299.755,341.613Z" fill="#3d3736"/>
          </g>
          <g id="그룹_4883" data-name="그룹 4883">
            <path id="패스_4799" data-name="패스 4799" d="M338.163,305.607a11.29,11.29,0,0,0-14.7.75c-7.8,6.6-18.153,11.1-18.153,11.1l10.952,22.5s13.352-3.151,19.2-9" fill="#7ebaff"/>
            <path id="패스_4800" data-name="패스 4800" d="M316.108,341.013a1.519,1.519,0,0,1-1.05-.6l-10.952-22.5a.956.956,0,0,1,0-.9,1.171,1.171,0,0,1,.6-.6,84.9,84.9,0,0,0,17.853-10.952c4.351-3.751,8.552-3.751,11.252-3a16.792,16.792,0,0,1,4.951,2.25,1.066,1.066,0,1,1-1.35,1.65,10.389,10.389,0,0,0-13.352.75,87.674,87.674,0,0,1-17.4,10.8l10.052,20.7c3-.75,13.052-3.751,17.7-8.4a1.061,1.061,0,0,1,1.5,1.5c-6,6-19.054,9.152-19.654,9.3Z" fill="#3d3736"/>
          </g>
          <g id="그룹_4889" data-name="그룹 4889">
            <g id="그룹_4884" data-name="그룹 4884">
              <path id="패스_4801" data-name="패스 4801" d="M237.494,157.529c-25.955,0-47.109,16.5-47.109,36.757,0,13.352,9.152,25.055,22.8,31.506a15.516,15.516,0,0,1-8.852,10.952s14.7,3.151,24-6.3a61.069,61.069,0,0,0,9.152.75c25.955,0,47.109-16.5,47.109-36.757C284.6,174.032,263.6,157.529,237.494,157.529Z" fill="#ffa248"/>
              <path id="패스_4802" data-name="패스 4802" d="M210.189,238.394c-3.6,0-6-.45-6-.6a1.118,1.118,0,0,1-.3-2.1,14.463,14.463,0,0,0,7.951-9.3c-14.1-7.051-22.5-18.9-22.5-32.106,0-20.854,21.6-37.807,48.159-37.807s48.159,16.953,48.159,37.807-21.6,37.807-48.159,37.807a56.565,56.565,0,0,1-8.7-.6C223.091,237.194,215.44,238.394,210.189,238.394Zm-2.55-2.4c.75,0,1.65.15,2.55.15,5.1,0,12.152-1.2,17.4-6.451a1.1,1.1,0,0,1,.9-.3,60.72,60.72,0,0,0,9,.75c25.355,0,46.059-16.053,46.059-35.707s-20.7-35.707-46.059-35.707-46.059,16.053-46.059,35.707c0,12.6,8.252,23.854,22.054,30.456a1.02,1.02,0,0,1,.6,1.2A15.688,15.688,0,0,1,207.638,235.994Z" fill="#3d3736"/>
            </g>
            <g id="그룹_4888" data-name="그룹 4888">
              <g id="그룹_4885" data-name="그룹 4885">
                <path id="패스_4803" data-name="패스 4803" d="M221.591,194.286a3.3,3.3,0,1,0-3.3,3.3A3.33,3.33,0,0,0,221.591,194.286Z" fill="#fff"/>
                <path id="패스_4804" data-name="패스 4804" d="M218.29,198.637a4.351,4.351,0,1,1,4.351-4.351A4.354,4.354,0,0,1,218.29,198.637Zm0-6.451a2.1,2.1,0,1,0,2.1,2.1A2.051,2.051,0,0,0,218.29,192.186Z" fill="#3d3736"/>
              </g>
              <g id="그룹_4886" data-name="그룹 4886">
                <path id="패스_4805" data-name="패스 4805" d="M240.795,194.286a3.3,3.3,0,1,0-3.3,3.3A3.33,3.33,0,0,0,240.795,194.286Z" fill="#fff"/>
                <path id="패스_4806" data-name="패스 4806" d="M237.494,198.637a4.351,4.351,0,1,1,4.351-4.351A4.354,4.354,0,0,1,237.494,198.637Zm0-6.451a2.1,2.1,0,1,0,2.1,2.1A1.968,1.968,0,0,0,237.494,192.186Z" fill="#3d3736"/>
              </g>
              <g id="그룹_4887" data-name="그룹 4887">
                <path id="패스_4807" data-name="패스 4807" d="M260,194.286a3.3,3.3,0,1,0-3.3,3.3A3.235,3.235,0,0,0,260,194.286Z" fill="#fff"/>
                <path id="패스_4808" data-name="패스 4808" d="M256.847,198.637a4.351,4.351,0,1,1,4.351-4.351A4.354,4.354,0,0,1,256.847,198.637Zm0-6.451a2.1,2.1,0,1,0,2.1,2.1A2.051,2.051,0,0,0,256.847,192.186Z" fill="#3d3736"/>
              </g>
            </g>
          </g>
        </g>
        <g id="그룹_4903" data-name="그룹 4903">
          <g id="그룹_4891" data-name="그룹 4891">
            <rect id="사각형_837" data-name="사각형 837" width="84.316" height="75.464" transform="translate(90.317 253.397)" fill="#3d3736"/>
            <path id="패스_4809" data-name="패스 4809" d="M174.632,329.911H90.317a1.025,1.025,0,0,1-1.05-1.05V253.4a1.026,1.026,0,0,1,1.05-1.05h84.316a1.025,1.025,0,0,1,1.05,1.05v75.464A1.127,1.127,0,0,1,174.632,329.911Zm-83.115-2.25h82.065V254.447H91.517Z" fill="#3d3736"/>
          </g>
          <g id="그룹_4894" data-name="그룹 4894">
            <g id="그룹_4892" data-name="그룹 4892">
              <rect id="사각형_838" data-name="사각형 838" width="113.271" height="82.965" transform="translate(56.861 241.545)" fill="#fff"/>
              <path id="패스_4810" data-name="패스 4810" d="M170.131,325.56H56.861a1.025,1.025,0,0,1-1.05-1.05V241.545a1.025,1.025,0,0,1,1.05-1.05H170.131a1.026,1.026,0,0,1,1.05,1.05V324.51C171.332,324.96,170.732,325.56,170.131,325.56ZM58.061,323.31H169.081V242.595H58.061V323.31Z" fill="#3d3736"/>
            </g>
            <g id="그룹_4893" data-name="그룹 4893">
              <path id="패스_4811" data-name="패스 4811" d="M56.861,252.5V241.545H170.131V252.5" fill="#ffe571"/>
              <path id="패스_4812" data-name="패스 4812" d="M170.131,253.7a1.025,1.025,0,0,1-1.05-1.05v-9.9H58.061v9.9a1.05,1.05,0,0,1-2.1,0v-11.1a1.025,1.025,0,0,1,1.05-1.05H170.281a1.026,1.026,0,0,1,1.05,1.05v11.1A1.159,1.159,0,0,1,170.131,253.7Z" fill="#3d3736"/>
            </g>
            <path id="패스_4813" data-name="패스 4813" d="M64.212,247.546a1.5,1.5,0,1,0-1.5,1.5A1.417,1.417,0,0,0,64.212,247.546Z" fill="#3d3736"/>
            <path id="패스_4814" data-name="패스 4814" d="M70.213,247.546a1.5,1.5,0,0,0-1.5-1.5,1.613,1.613,0,0,0-1.5,1.5,1.5,1.5,0,0,0,3,0Z" fill="#3d3736"/>
            <path id="패스_4815" data-name="패스 4815" d="M76.364,247.546a1.5,1.5,0,0,0-1.5-1.5,1.613,1.613,0,0,0-1.5,1.5,1.5,1.5,0,0,0,3,0Z" fill="#3d3736"/>
          </g>
          <g id="그룹_4900" data-name="그룹 4900">
            <g id="그룹_4897" data-name="그룹 4897">
              <g id="그룹_4895" data-name="그룹 4895">
                <path id="패스_4816" data-name="패스 4816" d="M104.119,263.9H67.512V324.51h46.059V273.351A9.412,9.412,0,0,0,104.119,263.9Z" fill="#fff"/>
                <path id="패스_4817" data-name="패스 4817" d="M113.571,325.56H67.512a1.025,1.025,0,0,1-1.05-1.05V263.9a1.025,1.025,0,0,1,1.05-1.05h36.607a10.437,10.437,0,0,1,10.5,10.5V324.51A1.127,1.127,0,0,1,113.571,325.56Zm-44.858-2.25h43.808V273.2a8.325,8.325,0,0,0-8.252-8.252H68.713Z" fill="#3d3736"/>
              </g>
              <g id="그룹_4896" data-name="그룹 4896">
                <path id="패스_4818" data-name="패스 4818" d="M122.873,263.9h36.607V324.51H113.571V273.351A9.381,9.381,0,0,1,122.873,263.9Z" fill="#fff"/>
                <path id="패스_4819" data-name="패스 4819" d="M159.63,325.56H113.571a1.025,1.025,0,0,1-1.05-1.05V273.351a10.437,10.437,0,0,1,10.5-10.5H159.63a1.025,1.025,0,0,1,1.05,1.05V324.51A1.127,1.127,0,0,1,159.63,325.56Zm-45.008-2.25h43.808V264.949H122.873a8.325,8.325,0,0,0-8.252,8.252Z" fill="#3d3736"/>
              </g>
            </g>
            <g id="그룹_4899" data-name="그룹 4899">
              <g id="그룹_4898" data-name="그룹 4898">
                <path id="패스_4820" data-name="패스 4820" d="M103.069,324.36h10.5V273.2a9.412,9.412,0,0,0-9.452-9.452h-1.2" fill="#eee"/>
                <path id="패스_4821" data-name="패스 4821" d="M113.571,325.56h-10.5a1.05,1.05,0,1,1,0-2.1h9.452V273.351a8.325,8.325,0,0,0-8.252-8.252h-1.2a1.05,1.05,0,1,1,0-2.1h1.2a10.437,10.437,0,0,1,10.5,10.5V324.66A1.556,1.556,0,0,1,113.571,325.56Z" fill="#3d3736"/>
              </g>
            </g>
          </g>
          <path id="패스_4822" data-name="패스 4822" d="M88.666,275.451H76.814a1.05,1.05,0,1,1,0-2.1H88.666a1.026,1.026,0,0,1,1.05,1.05A1.127,1.127,0,0,1,88.666,275.451Z" fill="#3d3736"/>
          <g id="그룹_4901" data-name="그룹 4901">
            <path id="패스_4823" data-name="패스 4823" d="M102.919,288.953h-26.1a1.05,1.05,0,1,1,0-2.1h26.1a1.05,1.05,0,1,1,0,2.1Z" fill="#3d3736"/>
            <path id="패스_4824" data-name="패스 4824" d="M102.919,297.055h-26.1a1.05,1.05,0,1,1,0-2.1h26.1a1.05,1.05,0,1,1,0,2.1Z" fill="#3d3736"/>
            <path id="패스_4825" data-name="패스 4825" d="M102.919,305.156h-26.1a1.05,1.05,0,1,1,0-2.1h26.1a1.05,1.05,0,1,1,0,2.1Z" fill="#3d3736"/>
            <path id="패스_4826" data-name="패스 4826" d="M102.919,313.408h-26.1a1.05,1.05,0,1,1,0-2.1h26.1a1.026,1.026,0,0,1,1.05,1.05A1.127,1.127,0,0,1,102.919,313.408Z" fill="#3d3736"/>
          </g>
          <g id="그룹_4902" data-name="그룹 4902">
            <path id="패스_4827" data-name="패스 4827" d="M147.477,289.4h-21a1.026,1.026,0,0,1-1.05-1.05v-14.1a1.025,1.025,0,0,1,1.05-1.05h21a1.025,1.025,0,0,1,1.05,1.05v14.1A1.025,1.025,0,0,1,147.477,289.4Zm-19.954-2.25h18.753V275.3H127.524Z" fill="#3d3736"/>
            <path id="패스_4828" data-name="패스 4828" d="M150.028,297.055h-26.1a1.05,1.05,0,1,1,0-2.1h26.1a1.05,1.05,0,1,1,0,2.1Z" fill="#3d3736"/>
            <path id="패스_4829" data-name="패스 4829" d="M150.028,305.156h-26.1a1.05,1.05,0,1,1,0-2.1h26.1a1.05,1.05,0,1,1,0,2.1Z" fill="#3d3736"/>
            <path id="패스_4830" data-name="패스 4830" d="M150.028,313.408h-26.1a1.05,1.05,0,1,1,0-2.1h26.1a1.026,1.026,0,0,1,1.05,1.05A1.127,1.127,0,0,1,150.028,313.408Z" fill="#3d3736"/>
          </g>
        </g>
        <g id="그룹_4904" data-name="그룹 4904">
          <path id="패스_4831" data-name="패스 4831" d="M353.465,225.492a6,6,0,1,0-6,6A6.019,6.019,0,0,0,353.465,225.492Z" fill="#ffa248"/>
          <path id="패스_4832" data-name="패스 4832" d="M347.464,232.543a7.051,7.051,0,1,1,7.051-7.051A7.043,7.043,0,0,1,347.464,232.543Zm0-11.852a4.8,4.8,0,1,0,4.8,4.8A4.739,4.739,0,0,0,347.464,220.691Z" fill="#3d3736"/>
        </g>
        <g id="그룹_4905" data-name="그룹 4905">
          <path id="패스_4833" data-name="패스 4833" d="M524.2,207.038a6,6,0,1,0-6,6A6.118,6.118,0,0,0,524.2,207.038Z" fill="#fff"/>
          <path id="패스_4834" data-name="패스 4834" d="M518.2,214.09a7.051,7.051,0,1,1,7.051-7.051A7.043,7.043,0,0,1,518.2,214.09Zm0-11.852a4.8,4.8,0,1,0,4.8,4.8A4.739,4.739,0,0,0,518.2,202.237Z" fill="#3d3736"/>
        </g>
        <g id="그룹_4906" data-name="그룹 4906">
          <path id="패스_4835" data-name="패스 4835" d="M575.056,238.694A11.852,11.852,0,1,0,563.2,250.546,11.782,11.782,0,0,0,575.056,238.694Z" fill="#fff"/>
          <path id="패스_4836" data-name="패스 4836" d="M563.354,251.747a12.9,12.9,0,1,1,12.9-12.9A12.9,12.9,0,0,1,563.354,251.747Zm0-23.7a10.652,10.652,0,1,0,10.652,10.652A10.693,10.693,0,0,0,563.354,228.042Z" fill="#3d3736"/>
        </g>
        <g id="그룹_4907" data-name="그룹 4907">
          <path id="패스_4837" data-name="패스 4837" d="M413.176,212.889a5.1,5.1,0,1,0-5.1,5.1A4.968,4.968,0,0,0,413.176,212.889Z" fill="#fff"/>
          <path id="패스_4838" data-name="패스 4838" d="M408.075,219.191a6.3,6.3,0,1,1,6.3-6.3A6.339,6.339,0,0,1,408.075,219.191Zm0-10.352a4.051,4.051,0,1,0,4.051,4.051A4.132,4.132,0,0,0,408.075,208.839Z" fill="#3d3736"/>
        </g>
        <g id="그룹_4908" data-name="그룹 4908">
          <path id="패스_4839" data-name="패스 4839" d="M538.15,287.6a5.1,5.1,0,1,0-5.1,5.1A5.059,5.059,0,0,0,538.15,287.6Z" fill="#fff"/>
          <path id="패스_4840" data-name="패스 4840" d="M533.049,293.9a6.3,6.3,0,1,1,6.3-6.3A6.44,6.44,0,0,1,533.049,293.9Zm0-10.352A4.051,4.051,0,1,0,537.1,287.6,4.238,4.238,0,0,0,533.049,283.552Z" fill="#3d3736"/>
        </g>
        <g id="그룹_4909" data-name="그룹 4909">
          <path id="패스_4841" data-name="패스 4841" d="M411.226,286.1a8.4,8.4,0,1,0-8.4,8.4A8.388,8.388,0,0,0,411.226,286.1Z" fill="#ffa248"/>
          <path id="패스_4842" data-name="패스 4842" d="M402.824,295.555a9.452,9.452,0,1,1,9.452-9.452A9.412,9.412,0,0,1,402.824,295.555Zm0-16.653a7.2,7.2,0,1,0,7.2,7.2A7.108,7.108,0,0,0,402.824,278.9Z" fill="#3d3736"/>
        </g>
        <g id="그룹_4910" data-name="그룹 4910">
          <path id="패스_4843" data-name="패스 4843" d="M599.061,276.351a8.4,8.4,0,1,0-8.4,8.4A8.585,8.585,0,0,0,599.061,276.351Z" fill="#fff"/>
          <path id="패스_4844" data-name="패스 4844" d="M590.659,285.8a9.452,9.452,0,1,1,9.452-9.452A9.509,9.509,0,0,1,590.659,285.8Zm0-16.8a7.2,7.2,0,1,0,7.2,7.2A7.2,7.2,0,0,0,590.659,269Z" fill="#3d3736"/>
        </g>
        <g id="그룹_4911" data-name="그룹 4911">
          <path id="패스_4845" data-name="패스 4845" d="M481.439,260.3a13.352,13.352,0,1,0-13.352,13.352A13.382,13.382,0,0,0,481.439,260.3Z" fill="#ffa248"/>
          <path id="패스_4846" data-name="패스 4846" d="M468.087,274.7a14.4,14.4,0,1,1,14.4-14.4A14.406,14.406,0,0,1,468.087,274.7Zm0-26.7a12.3,12.3,0,1,0,12.3,12.3A12.358,12.358,0,0,0,468.087,248Z" fill="#3d3736"/>
        </g>
        <g id="그룹_4924" data-name="그룹 4924">
          <g id="그룹_4920" data-name="그룹 4920">
            <g id="그룹_4912" data-name="그룹 4912">
              <path id="패스_4847" data-name="패스 4847" d="M481.139,205.538a7.684,7.684,0,0,1-7.651,7.651H462.836a7.684,7.684,0,0,1-7.651-7.651h0a7.684,7.684,0,0,1,7.651-7.651h10.652a7.684,7.684,0,0,1,7.651,7.651Z" fill="#7ebaff"/>
              <path id="패스_4848" data-name="패스 4848" d="M473.488,214.24H462.836a8.7,8.7,0,0,1,0-17.4h10.652a8.7,8.7,0,0,1,0,17.4Zm-10.652-15.3a6.6,6.6,0,0,0,0,13.2h10.652a6.6,6.6,0,1,0,0-13.2Z" fill="#3d3736"/>
            </g>
            <g id="그룹_4919" data-name="그룹 4919">
              <g id="그룹_4914" data-name="그룹 4914">
                <g id="그룹_4913" data-name="그룹 4913">
                  <path id="패스_4849" data-name="패스 4849" d="M496.142,158.429a27.905,27.905,0,1,0-41.708,24.3v14.4h27.755v-14.4A28.056,28.056,0,0,0,496.142,158.429Z" fill="#ffe571"/>
                  <path id="패스_4850" data-name="패스 4850" d="M481.889,198.337H454.134a1.026,1.026,0,0,1-1.05-1.05v-13.8a29.105,29.105,0,1,1,30.006,0v13.8A1.162,1.162,0,0,1,481.889,198.337Zm-26.555-2.25h25.5V182.734a.823.823,0,0,1,.6-.9,26.893,26.893,0,1,0-40.207-23.4,27.282,27.282,0,0,0,13.5,23.4,1.234,1.234,0,0,1,.6.9Z" fill="#3d3736"/>
                </g>
                <path id="패스_4851" data-name="패스 4851" d="M486.99,158.429a18.9,18.9,0,1,0-18.9,18.9A18.825,18.825,0,0,0,486.99,158.429Z" fill="#fff"/>
              </g>
              <g id="그룹_4916" data-name="그룹 4916">
                <g id="그룹_4915" data-name="그룹 4915">
                  <path id="패스_4852" data-name="패스 4852" d="M465.986,169.681h-5.1a6.151,6.151,0,1,1,6.151-6.151v5.1C467.186,169.231,466.586,169.681,465.986,169.681Zm-5.1-10.2a4.051,4.051,0,1,0,0,8.1h4.051V163.53A4.034,4.034,0,0,0,460.885,159.479Z" fill="#3d3736"/>
                  <path id="패스_4853" data-name="패스 4853" d="M475.288,169.681h-5.1a1.026,1.026,0,0,1-1.05-1.05v-5.1a6.179,6.179,0,0,1,6.151-6.151,6.279,6.279,0,0,1,6.151,6.151A6.179,6.179,0,0,1,475.288,169.681Zm-4.051-2.25h4.051a4.051,4.051,0,1,0-4.051-4.051Z" fill="#3d3736"/>
                  <path id="패스_4854" data-name="패스 4854" d="M465.986,189.935a1.026,1.026,0,0,1-1.05-1.05v-21.9a1.05,1.05,0,0,1,2.1,0v21.9C467.186,189.485,466.586,189.935,465.986,189.935Z" fill="#3d3736"/>
                  <path id="패스_4855" data-name="패스 4855" d="M470.187,189.935a1.026,1.026,0,0,1-1.05-1.05v-21.9a1.05,1.05,0,0,1,2.1,0v21.9A1.026,1.026,0,0,1,470.187,189.935Z" fill="#3d3736"/>
                </g>
                <path id="패스_4856" data-name="패스 4856" d="M471.087,169.681h-6a1.05,1.05,0,1,1,0-2.1h6a1.05,1.05,0,1,1,0,2.1Z" fill="#3d3736"/>
              </g>
              <g id="그룹_4917" data-name="그룹 4917">
                <path id="패스_4857" data-name="패스 4857" d="M486.99,192.336a4.193,4.193,0,0,1-4.2,4.2H453.684a4.193,4.193,0,0,1-4.2-4.2h0a4.193,4.193,0,0,1,4.2-4.2h29.105a4.293,4.293,0,0,1,4.2,4.2Z" fill="#fff"/>
                <path id="패스_4858" data-name="패스 4858" d="M482.639,197.737H453.534a5.4,5.4,0,0,1,0-10.8h29.105a5.4,5.4,0,0,1,0,10.8Zm-29.105-8.552a3.151,3.151,0,1,0,0,6.3h29.105a3.151,3.151,0,0,0,0-6.3Z" fill="#3d3736"/>
              </g>
              <g id="그룹_4918" data-name="그룹 4918">
                <path id="패스_4859" data-name="패스 4859" d="M486.99,200.737a4.193,4.193,0,0,1-4.2,4.2H453.684a4.193,4.193,0,0,1-4.2-4.2h0a4.193,4.193,0,0,1,4.2-4.2h29.105a4.293,4.293,0,0,1,4.2,4.2Z" fill="#fff"/>
                <path id="패스_4860" data-name="패스 4860" d="M482.639,206.138H453.534a5.4,5.4,0,0,1,0-10.8h29.105a5.4,5.4,0,0,1,0,10.8Zm-29.105-8.552a3.151,3.151,0,1,0,0,6.3h29.105a3.151,3.151,0,0,0,0-6.3Z" fill="#3d3736"/>
              </g>
            </g>
          </g>
          <g id="그룹_4921" data-name="그룹 4921">
            <path id="패스_4861" data-name="패스 4861" d="M432.68,159.78h-12.3a1.05,1.05,0,1,1,0-2.1h12.3a1.05,1.05,0,1,1,0,2.1Z" fill="#3d3736"/>
            <path id="패스_4862" data-name="패스 4862" d="M515.945,159.78h-12.3a1.05,1.05,0,1,1,0-2.1h12.3a1.05,1.05,0,1,1,0,2.1Z" fill="#3d3736"/>
          </g>
          <g id="그룹_4922" data-name="그룹 4922">
            <path id="패스_4863" data-name="패스 4863" d="M424.729,180.033a1.519,1.519,0,0,1-1.05-.6,1.1,1.1,0,0,1,.6-1.5l11.1-5.251a1.143,1.143,0,0,1,.9,2.1l-11.1,5.251Z" fill="#3d3736"/>
            <path id="패스_4864" data-name="패스 4864" d="M500.342,144.777a1.519,1.519,0,0,1-1.05-.6,1.1,1.1,0,0,1,.6-1.5l11.1-5.251a1.143,1.143,0,1,1,.9,2.1l-11.1,5.251Z" fill="#3d3736"/>
          </g>
          <g id="그룹_4923" data-name="그룹 4923">
            <path id="패스_4865" data-name="패스 4865" d="M511.445,180.033a.551.551,0,0,1-.45-.15l-11.1-5.251a1.143,1.143,0,0,1,.9-2.1l11.1,5.251a1.229,1.229,0,0,1,.6,1.5C512.195,179.733,511.895,180.033,511.445,180.033Z" fill="#3d3736"/>
            <path id="패스_4866" data-name="패스 4866" d="M435.981,144.777a.551.551,0,0,1-.45-.15l-11.1-5.251a1.143,1.143,0,1,1,.9-2.1l11.1,5.251a1.229,1.229,0,0,1,.6,1.5C436.731,144.627,436.431,144.777,435.981,144.777Z" fill="#3d3736"/>
          </g>
        </g>
        <path id="패스_4867" data-name="패스 4867" d="M328.861,259.1a1.134,1.134,0,0,1-.6-.15,1.04,1.04,0,0,1-.45-1.5l14.853-26.555a1.108,1.108,0,1,1,1.95,1.05L329.761,258.5A.823.823,0,0,1,328.861,259.1Z" fill="#3d3736"/>
        <path id="패스_4868" data-name="패스 4868" d="M396.223,281a2.132,2.132,0,0,1-.9-.3l-44.258-49.659a1.066,1.066,0,1,1,1.65-1.35L397.123,279.2a1,1,0,0,1-.15,1.5C396.673,280.852,396.523,281,396.223,281Z" fill="#3d3736"/>
        <path id="패스_4869" data-name="패스 4869" d="M411.376,284.3a1.128,1.128,0,0,1-1.05-.75,1.1,1.1,0,0,1,.6-1.5l43.658-17.7a1.143,1.143,0,0,1,.9,2.1l-43.658,17.7A.551.551,0,0,1,411.376,284.3Z" fill="#3d3736"/>
        <path id="패스_4870" data-name="패스 4870" d="M456.384,254.447c-.3,0-.45-.15-.75-.3L411.226,217.69a1.066,1.066,0,0,1,1.35-1.65L456.984,252.5a1.013,1.013,0,0,1,.15,1.5A.825.825,0,0,1,456.384,254.447Z" fill="#3d3736"/>
        <path id="패스_4871" data-name="패스 4871" d="M480.989,258.348a1.1,1.1,0,0,1-1.05-.9,1.168,1.168,0,0,1,.9-1.35L550.3,240.344a1.147,1.147,0,1,1,.45,2.25l-69.463,15.753Z" fill="#3d3736"/>
        <path id="패스_4872" data-name="패스 4872" d="M553,232.243a.9.9,0,0,1-.6-.15l-28.655-20.254a1.082,1.082,0,1,1,1.2-1.8L553.6,230.293a1.163,1.163,0,0,1,.3,1.5A1.3,1.3,0,0,1,553,232.243Z" fill="#3d3736"/>
        <path id="패스_4873" data-name="패스 4873" d="M535.749,283.1a.9.9,0,0,1-.6-.15,1.164,1.164,0,0,1-.3-1.5L556,248.9a1.082,1.082,0,0,1,1.8,1.2l-21.154,32.556C536.349,282.8,536.049,283.1,535.749,283.1Z" fill="#3d3736"/>
        <g id="그룹_4927" data-name="그룹 4927">
          <g id="그룹_4925" data-name="그룹 4925">
            <path id="패스_4874" data-name="패스 4874" d="M237.644,222.341H280.4a17.7,17.7,0,1,1,0,35.407h-4.051a10.714,10.714,0,0,0,3.6,9s-8.852,1.05-14.853-9H237.494a17.7,17.7,0,1,1,.15-35.407Z" fill="#7ebaff"/>
            <path id="패스_4875" data-name="패스 4875" d="M279.352,267.8c-2.1,0-9.452-.6-14.7-9h-27a18.753,18.753,0,1,1,0-37.507H280.4a18.753,18.753,0,1,1,0,37.507h-2.85a9.522,9.522,0,0,0,3.3,7.051,1.167,1.167,0,0,1,.3,1.2.951.951,0,0,1-.9.75Zm-41.708-44.408a16.5,16.5,0,1,0,0,33.006h27.605a.823.823,0,0,1,.9.6c3.6,6.151,8.552,7.951,11.252,8.4a12.243,12.243,0,0,1-2.1-7.951,1.127,1.127,0,0,1,1.05-1.05H280.4a16.5,16.5,0,1,0,0-33.006Z" fill="#3d3736"/>
          </g>
          <g id="그룹_4926" data-name="그룹 4926">
            <path id="패스_4876" data-name="패스 4876" d="M277.851,236.144H240.194a1.05,1.05,0,1,1,0-2.1h37.657a1.025,1.025,0,0,1,1.05,1.05C279.052,235.694,278.452,236.144,277.851,236.144Z" fill="#3d3736"/>
            <path id="패스_4877" data-name="패스 4877" d="M277.851,246.946H240.194a1.05,1.05,0,0,1,0-2.1h37.657a1.025,1.025,0,0,1,1.05,1.05C279.052,246.5,278.452,246.946,277.851,246.946Z" fill="#3d3736"/>
          </g>
        </g>
        <g id="그룹_4930" data-name="그룹 4930">
          <g id="그룹_4928" data-name="그룹 4928">
            <circle id="타원_51" data-name="타원 51" cx="18.303" cy="18.303" r="18.303" transform="translate(251.447 137.725)" fill="#fff"/>
            <path id="패스_4878" data-name="패스 4878" d="M269.75,175.382A19.354,19.354,0,1,1,289.1,156.029,19.4,19.4,0,0,1,269.75,175.382Zm0-36.457a17.1,17.1,0,1,0,17.1,17.1A17.1,17.1,0,0,0,269.75,138.926Z" fill="#3d3736"/>
          </g>
          <g id="그룹_4929" data-name="그룹 4929">
            <path id="패스_4879" data-name="패스 4879" d="M272.3,157.229a2.37,2.37,0,0,1-2.4,2.4h0a2.37,2.37,0,0,1-2.4-2.4V146.877a2.37,2.37,0,0,1,2.4-2.4h0a2.37,2.37,0,0,1,2.4,2.4Z" fill="#3d3736"/>
            <circle id="타원_52" data-name="타원 52" cx="2.851" cy="2.851" r="2.851" transform="translate(266.899 162.03)" fill="#3d3736"/>
          </g>
        </g>
      </g>
    </g>
  </g>
</svg>
