<svg xmlns="http://www.w3.org/2000/svg" xmlns:xlink="http://www.w3.org/1999/xlink" width="430" height="300" viewBox="0 0 430 300">
  <defs>
    <clipPath id="clip-path">
      <rect id="사각형_797" data-name="사각형 797" width="430" height="300" transform="translate(370 871)" fill="#9ea4aa"/>
    </clipPath>
  </defs>
  <g id="img_" transform="translate(-370 -871)" clip-path="url(#clip-path)">
    <g id="Layer_3" transform="translate(368.92 858.994)">
      <g id="그룹_4660" data-name="그룹 4660">
        <path id="패스_4345" data-name="패스 4345" d="M34.033,195.877a.4.4,0,0,1-.324-.108c-.54-.216-12.965-5.186-16.962-15.774h-.108a15.558,15.558,0,1,1,0-31.116H49.266a15.558,15.558,0,1,1,0,31.116H30.251c-.108,3.673.324,11.02,4.214,14.261a.888.888,0,0,1,.432.648c-.108.54-.432.972-.864.972ZM16.638,150.608a13.829,13.829,0,0,0,0,27.658h.648a.812.812,0,0,1,.756.54c2.377,6.915,8.967,11.452,12.965,13.721-2.377-4.214-2.485-9.94-2.377-13.505a.835.835,0,0,1,.864-.756H49.266a13.829,13.829,0,0,0,0-27.658Z" fill="#c9cdd2"/>
        <g id="그룹_4589" data-name="그룹 4589">
          <line id="선_54" data-name="선 54" x2="398.884" transform="translate(31.332 254.651)" fill="#fff"/>
          <path id="패스_4346" data-name="패스 4346" d="M430.216,255.515H31.332a.864.864,0,0,1,0-1.729H430.216a.864.864,0,0,1,0,1.729Z" fill="#3d3736"/>
        </g>
        <path id="패스_4347" data-name="패스 4347" d="M258.324,126.947H181.832a.852.852,0,0,1-.864-.864V78.761a.852.852,0,0,1,.864-.864h76.492a.852.852,0,0,1,.864.864v47.322A.852.852,0,0,1,258.324,126.947ZM182.7,125.327H257.46v-45.7H182.7Z" fill="#c9cdd2"/>
        <path id="패스_4348" data-name="패스 4348" d="M267.616,117.656a.852.852,0,0,1-.864-.864V70.226h-70.01a.852.852,0,0,1-.864-.864.8.8,0,0,1,.864-.864h70.874a.852.852,0,0,1,.864.864v47.322A.952.952,0,0,1,267.616,117.656Z" fill="#c9cdd2"/>
        <g id="그룹_4593" data-name="그룹 4593">
          <g id="그룹_4592" data-name="그룹 4592">
            <g id="그룹_4590" data-name="그룹 4590">
              <path id="패스_4349" data-name="패스 4349" d="M162.709,140.992H61.8a12.819,12.819,0,0,0-12.857,12.857v84.92H175.457v-84.92A12.66,12.66,0,0,0,162.709,140.992Z" fill="#fff"/>
              <path id="패스_4350" data-name="패스 4350" d="M175.565,239.633H49.05a.852.852,0,0,1-.864-.864v-84.92A13.625,13.625,0,0,1,61.8,140.236h100.91a13.625,13.625,0,0,1,13.613,13.613v84.92A.835.835,0,0,1,175.565,239.633ZM49.807,238.013H174.7V153.849a12.035,12.035,0,0,0-11.992-11.992H61.8a12.035,12.035,0,0,0-11.992,11.992Z" fill="#3d3736"/>
            </g>
            <g id="그룹_4591" data-name="그룹 4591">
              <path id="패스_4351" data-name="패스 4351" d="M49.05,228.181v10.588H175.565V228.181" fill="#e8ebed"/>
              <path id="패스_4352" data-name="패스 4352" d="M175.565,239.633H49.05a.852.852,0,0,1-.864-.864V228.181a.852.852,0,0,1,.864-.864.8.8,0,0,1,.864.864V237.9H174.809v-9.724a.864.864,0,1,1,1.729,0v10.588C176.322,239.2,176,239.633,175.565,239.633Z" fill="#3d3736"/>
            </g>
            <path id="패스_4353" data-name="패스 4353" d="M168.867,241.686H55.641a.852.852,0,0,1-.864-.864V156.334a.852.852,0,0,1,.864-.864H168.867a.852.852,0,0,1,.864.864v84.487A.852.852,0,0,1,168.867,241.686ZM56.505,240.065H168.111V157.2H56.505Z" fill="#e8ebed"/>
          </g>
          <path id="패스_4354" data-name="패스 4354" d="M114.739,150.068a2.377,2.377,0,1,0-2.377,2.377A2.4,2.4,0,0,0,114.739,150.068Z" fill="#3d3736"/>
        </g>
        <g id="그룹_4602" data-name="그룹 4602">
          <g id="그룹_4594" data-name="그룹 4594">
            <rect id="사각형_799" data-name="사각형 799" width="225.048" height="129.864" transform="translate(187.558 124.786)" fill="#e8ebed"/>
            <path id="패스_4355" data-name="패스 4355" d="M412.606,255.515H187.558a.852.852,0,0,1-.864-.864V124.786a.852.852,0,0,1,.864-.864H412.606a.852.852,0,0,1,.864.864V254.651A.852.852,0,0,1,412.606,255.515Zm-224.183-1.621H411.849V125.651H188.422Z" fill="#3d3736"/>
          </g>
          <g id="그룹_4601" data-name="그룹 4601">
            <g id="그룹_4600" data-name="그룹 4600">
              <g id="그룹_4597" data-name="그룹 4597">
                <g id="그룹_4595" data-name="그룹 4595">
                  <path id="패스_4356" data-name="패스 4356" d="M278.2,109.121H196.309v145.53H300.136V130.945A21.856,21.856,0,0,0,278.2,109.121Z" fill="#fff"/>
                  <path id="패스_4357" data-name="패스 4357" d="M300.136,255.515H196.309a.852.852,0,0,1-.864-.864V109.121a.852.852,0,0,1,.864-.864H278.2a22.686,22.686,0,0,1,22.688,22.688V254.651A.835.835,0,0,1,300.136,255.515Zm-103.07-1.621H299.271V130.945A21.026,21.026,0,0,0,278.2,109.877H197.065Z" fill="#3d3736"/>
                </g>
                <g id="그룹_4596" data-name="그룹 4596">
                  <path id="패스_4358" data-name="패스 4358" d="M321.96,109.121h81.894v145.53H300.028V130.945A22,22,0,0,1,321.96,109.121Z" fill="#fff"/>
                  <path id="패스_4359" data-name="패스 4359" d="M403.962,255.515H300.136a.852.852,0,0,1-.864-.864V130.945a22.686,22.686,0,0,1,22.688-22.688h81.894a.852.852,0,0,1,.864.864v145.53A.835.835,0,0,1,403.962,255.515Zm-103.07-1.621H403.1V109.877H321.96a21.026,21.026,0,0,0-21.068,21.068Z" fill="#3d3736"/>
                </g>
              </g>
              <g id="그룹_4599" data-name="그룹 4599">
                <g id="그룹_4598" data-name="그룹 4598">
                  <path id="패스_4360" data-name="패스 4360" d="M278.744,254.651h21.392V130.945a21.814,21.814,0,0,0-21.392-21.824" fill="#e8ebed"/>
                  <path id="패스_4361" data-name="패스 4361" d="M300.136,255.515H278.744a.864.864,0,0,1,0-1.729h20.528V130.945a21.222,21.222,0,0,0-20.636-21.068.835.835,0,0,1-.756-.864.719.719,0,0,1,.864-.756A22.884,22.884,0,0,1,301,130.945V254.651C300.892,255.083,300.568,255.515,300.136,255.515Z" fill="#3d3736"/>
                </g>
              </g>
            </g>
          </g>
        </g>
        <g id="그룹_4603" data-name="그룹 4603">
          <rect id="사각형_800" data-name="사각형 800" width="56.721" height="29.063" transform="translate(196.633 109.445)" fill="#3d3736"/>
          <path id="패스_4362" data-name="패스 4362" d="M253.354,139.372H196.633a.852.852,0,0,1-.864-.864V109.445a.852.852,0,0,1,.864-.864h56.721a.852.852,0,0,1,.864.864v29.063A.929.929,0,0,1,253.354,139.372ZM197.5,137.643h55.1V110.2H197.5Z" fill="#3d3736"/>
        </g>
        <g id="그룹_4611" data-name="그룹 4611">
          <g id="그룹_4604" data-name="그룹 4604">
            <rect id="사각형_801" data-name="사각형 801" width="76.492" height="47.322" transform="translate(174.161 87.405)" fill="#fff"/>
            <path id="패스_4363" data-name="패스 4363" d="M250.653,135.59H174.161a.852.852,0,0,1-.864-.864V87.4a.852.852,0,0,1,.864-.864h76.492a.852.852,0,0,1,.864.864v47.322A.852.852,0,0,1,250.653,135.59Zm-75.628-1.621h74.764v-45.7H175.025Z" fill="#3d3736"/>
          </g>
          <g id="그룹_4610" data-name="그룹 4610">
            <g id="그룹_4608" data-name="그룹 4608">
              <path id="패스_4364" data-name="패스 4364" d="M213.92,111.065a14.369,14.369,0,1,0-14.369,14.369A14.363,14.363,0,0,0,213.92,111.065Z" fill="#ff7657"/>
              <g id="그룹_4607" data-name="그룹 4607">
                <g id="그룹_4605" data-name="그룹 4605">
                  <path id="패스_4365" data-name="패스 4365" d="M192.636,118.52a.4.4,0,0,1-.324-.108.789.789,0,0,1-.432-1.08l5.294-13.181a.8.8,0,0,1,1.513,0l5.294,13.181a.823.823,0,1,1-1.513.648l-4.538-11.344-4.538,11.344A.812.812,0,0,1,192.636,118.52Z" fill="#3d3736"/>
                  <path id="패스_4366" data-name="패스 4366" d="M201.171,113.55H194.8a.864.864,0,1,1,0-1.729h6.374a.852.852,0,0,1,.864.864C201.927,113.226,201.6,113.55,201.171,113.55Z" fill="#3d3736"/>
                </g>
                <g id="그룹_4606" data-name="그룹 4606">
                  <path id="패스_4367" data-name="패스 4367" d="M207.545,106.744h-4.97a.852.852,0,0,1-.864-.864.8.8,0,0,1,.864-.864h4.97a.864.864,0,1,1,0,1.729Z" fill="#3d3736"/>
                  <path id="패스_4368" data-name="패스 4368" d="M205.06,109.229a.852.852,0,0,1-.864-.864v-4.97a.852.852,0,0,1,.864-.864.8.8,0,0,1,.864.864v4.97A.8.8,0,0,1,205.06,109.229Z" fill="#3d3736"/>
                </g>
              </g>
            </g>
            <g id="그룹_4609" data-name="그룹 4609">
              <path id="패스_4369" data-name="패스 4369" d="M239.633,102.1H221.374a.852.852,0,0,1-.864-.864.8.8,0,0,1,.864-.864h18.259a.864.864,0,1,1,0,1.729Z" fill="#3d3736"/>
              <path id="패스_4370" data-name="패스 4370" d="M239.633,108.688H221.374a.852.852,0,0,1-.864-.864.8.8,0,0,1,.864-.864h18.259a.864.864,0,1,1,0,1.729Z" fill="#3d3736"/>
              <path id="패스_4371" data-name="패스 4371" d="M232.394,115.171H221.482a.864.864,0,0,1,0-1.729h10.912a.852.852,0,0,1,.864.864C233.151,114.847,232.827,115.171,232.394,115.171Z" fill="#3d3736"/>
              <path id="패스_4372" data-name="패스 4372" d="M239.633,121.761H221.374a.852.852,0,0,1-.864-.864.8.8,0,0,1,.864-.864h18.259a.864.864,0,1,1,0,1.729Z" fill="#3d3736"/>
            </g>
          </g>
        </g>
        <g id="그룹_4612" data-name="그룹 4612">
          <path id="패스_4373" data-name="패스 4373" d="M49.05,238.337V241.9a12.818,12.818,0,0,0,12.857,12.857H192.96A12.819,12.819,0,0,0,205.817,241.9v-3.565Z" fill="#fff"/>
          <path id="패스_4374" data-name="패스 4374" d="M192.96,255.515H61.8A13.625,13.625,0,0,1,48.186,241.9v-3.565a.852.852,0,0,1,.864-.864H205.817a.852.852,0,0,1,.864.864V241.9A13.86,13.86,0,0,1,192.96,255.515ZM49.807,239.093v2.7A12.035,12.035,0,0,0,61.8,253.786H192.852a12.035,12.035,0,0,0,11.992-11.992v-2.7Z" fill="#3d3736"/>
        </g>
        <g id="그룹_4613" data-name="그룹 4613">
          <path id="패스_4375" data-name="패스 4375" d="M49.05,238.337V241.9a12.818,12.818,0,0,0,12.857,12.857h8.319A12.819,12.819,0,0,0,83.083,241.9v-3.565Z" fill="#7ebaff"/>
          <path id="패스_4376" data-name="패스 4376" d="M70.226,255.515H61.8A13.625,13.625,0,0,1,48.186,241.9v-3.565a.852.852,0,0,1,.864-.864H83.191a.852.852,0,0,1,.864.864V241.9A13.883,13.883,0,0,1,70.226,255.515Zm-20.42-16.422v2.7A12.035,12.035,0,0,0,61.8,253.786h8.427a12.035,12.035,0,0,0,11.992-11.992v-2.7Z" fill="#3d3736"/>
        </g>
        <g id="그룹_4632" data-name="그룹 4632">
          <g id="그룹_4631" data-name="그룹 4631">
            <g id="그룹_4629" data-name="그룹 4629">
              <g id="그룹_4625" data-name="그룹 4625">
                <g id="그룹_4614" data-name="그룹 4614">
                  <circle id="타원_46" data-name="타원 46" cx="26.578" cy="26.578" r="26.578" transform="translate(66.445 166.058)" fill="#fff"/>
                  <path id="패스_4377" data-name="패스 4377" d="M93.023,220.078a27.334,27.334,0,1,1,27.334-27.334A27.366,27.366,0,0,1,93.023,220.078Zm0-53.156a25.714,25.714,0,1,0,25.714,25.714A25.775,25.775,0,0,0,93.023,166.922Z" fill="#3d3736"/>
                </g>
                <g id="그룹_4615" data-name="그룹 4615">
                  <ellipse id="타원_47" data-name="타원 47" cx="10.264" cy="9.075" rx="10.264" ry="9.075" transform="translate(82.543 189.719)" fill="#fff"/>
                  <path id="패스_4378" data-name="패스 4378" d="M92.807,208.626c-6.158,0-11.128-4.43-11.128-9.94s4.97-9.94,11.128-9.94,11.128,4.43,11.128,9.94S98.965,208.626,92.807,208.626Zm0-18.151c-5.186,0-9.508,3.673-9.508,8.319,0,4.538,4.214,8.319,9.508,8.319,5.186,0,9.508-3.673,9.508-8.319C102.314,194.256,97.992,190.475,92.807,190.475Z" fill="#3d3736"/>
                </g>
                <g id="그룹_4616" data-name="그룹 4616">
                  <path id="패스_4379" data-name="패스 4379" d="M93.023,219.214a26.6,26.6,0,0,0,19.771-8.751,12.687,12.687,0,0,0-11.128-6.59H84.379a12.818,12.818,0,0,0-11.128,6.59A26.427,26.427,0,0,0,93.023,219.214Z" fill="#fff"/>
                  <path id="패스_4380" data-name="패스 4380" d="M93.023,220.078A27.424,27.424,0,0,1,72.711,211a.8.8,0,0,1-.108-.972,13.507,13.507,0,0,1,11.776-7.023h17.286a13.379,13.379,0,0,1,11.776,7.023.823.823,0,0,1-.108.972A27.6,27.6,0,0,1,93.023,220.078Zm-18.691-9.724a25.608,25.608,0,0,0,37.382,0,11.88,11.88,0,0,0-10.048-5.618H84.379A11.286,11.286,0,0,0,74.332,210.354Z" fill="#3d3736"/>
                </g>
                <g id="그룹_4617" data-name="그룹 4617">
                  <path id="패스_4381" data-name="패스 4381" d="M97.56,205.06a4.565,4.565,0,0,1-4.538,4.538h0a4.565,4.565,0,0,1-4.538-4.538v-6.374a4.565,4.565,0,0,1,4.538-4.538h0a4.565,4.565,0,0,1,4.538,4.538Z" fill="#fff"/>
                  <path id="패스_4382" data-name="패스 4382" d="M93.023,210.462a5.35,5.35,0,0,1-5.4-5.4v-6.374a5.4,5.4,0,0,1,10.8,0v6.374A5.418,5.418,0,0,1,93.023,210.462Zm0-15.558a3.828,3.828,0,0,0-3.781,3.781v6.374a3.781,3.781,0,0,0,7.563,0v-6.374A3.828,3.828,0,0,0,93.023,194.9Z" fill="#3d3736"/>
                </g>
                <g id="그룹_4624" data-name="그룹 4624">
                  <g id="그룹_4622" data-name="그룹 4622">
                    <g id="그룹_4620" data-name="그룹 4620">
                      <g id="그룹_4618" data-name="그룹 4618">
                        <path id="패스_4383" data-name="패스 4383" d="M84.271,188.854a3.673,3.673,0,1,0-3.673,3.673A3.643,3.643,0,0,0,84.271,188.854Z" fill="#fff"/>
                        <path id="패스_4384" data-name="패스 4384" d="M80.6,193.392a4.43,4.43,0,0,1,0-8.859,4.522,4.522,0,0,1,4.43,4.43A4.38,4.38,0,0,1,80.6,193.392Zm0-7.347a2.809,2.809,0,0,0,0,5.618,2.86,2.86,0,0,0,2.809-2.809A2.724,2.724,0,0,0,80.6,186.045Z" fill="#3d3736"/>
                      </g>
                      <g id="그룹_4619" data-name="그룹 4619">
                        <path id="패스_4385" data-name="패스 4385" d="M109.013,188.854a3.673,3.673,0,1,0-3.673,3.673A3.643,3.643,0,0,0,109.013,188.854Z" fill="#fff"/>
                        <path id="패스_4386" data-name="패스 4386" d="M105.339,193.392a4.43,4.43,0,1,1,4.43-4.43A4.449,4.449,0,0,1,105.339,193.392Zm0-7.347a2.809,2.809,0,1,0,2.809,2.809A2.789,2.789,0,0,0,105.339,186.045Z" fill="#3d3736"/>
                      </g>
                    </g>
                    <g id="그룹_4621" data-name="그룹 4621">
                      <path id="패스_4387" data-name="패스 4387" d="M105.771,188.1c0,7.671-5.726,14.693-12.749,14.693S80.274,195.769,80.274,188.1,86,174.593,93.023,174.593C100.045,174.485,105.771,180.319,105.771,188.1Z" fill="#fff"/>
                      <path id="패스_4388" data-name="패스 4388" d="M93.023,203.548c-7.347,0-13.613-7.131-13.613-15.558,0-7.995,5.942-14.369,13.613-14.369,7.563,0,13.613,6.266,13.613,14.369C106.528,196.525,100.369,203.548,93.023,203.548Zm0-28.2c-6.7,0-11.884,5.618-11.884,12.749,0,7.347,5.618,13.937,11.884,13.937,6.374,0,11.884-6.482,11.884-13.937C104.907,180.967,99.721,175.349,93.023,175.349Z" fill="#3d3736"/>
                    </g>
                  </g>
                  <path id="패스_4389" data-name="패스 4389" d="M92.05,191.987a.825.825,0,0,1-.54-.216.848.848,0,0,1,0-1.188,2.217,2.217,0,0,1,3.133,0,.84.84,0,1,1-1.188,1.188.522.522,0,0,0-.756,0A1.535,1.535,0,0,1,92.05,191.987Z" fill="#3d3736"/>
                  <g id="그룹_4623" data-name="그룹 4623">
                    <path id="패스_4390" data-name="패스 4390" d="M89.565,189.719a1.205,1.205,0,1,1-1.188-1.4C89.025,188.206,89.565,188.854,89.565,189.719Z" fill="#3d3736"/>
                    <path id="패스_4391" data-name="패스 4391" d="M98.857,189.719a1.205,1.205,0,1,1-1.188-1.4C98.317,188.206,98.857,188.854,98.857,189.719Z" fill="#3d3736"/>
                  </g>
                </g>
                <path id="패스_4392" data-name="패스 4392" d="M93.023,199.658a5.448,5.448,0,0,1-5.618-5.294.852.852,0,0,1,.864-.864h9.508a.852.852,0,0,1,.864.864A5.518,5.518,0,0,1,93.023,199.658Zm-3.889-4.43a3.9,3.9,0,0,0,3.889,2.809,3.99,3.99,0,0,0,3.889-2.809Z" fill="#3d3736"/>
              </g>
              <g id="그룹_4628" data-name="그룹 4628">
                <g id="그룹_4626" data-name="그룹 4626">
                  <path id="패스_4393" data-name="패스 4393" d="M87.945,179.779s-2.377,5.942-5.834,8.751c0,0-2.485,8.427.54,10.8,0,0-3.565-1.08-3.673-9.4s2.809-14.693,8.319-15.882" fill="#fff"/>
                  <path id="패스_4394" data-name="패스 4394" d="M82.651,200.2h-.216c-.216,0-4.214-1.3-4.322-10.156-.108-9.183,3.241-15.45,8.967-16.638a.826.826,0,0,1,.324,1.621c-4.862.972-7.779,6.807-7.671,15.018a13.966,13.966,0,0,0,.648,4.754,29.049,29.049,0,0,1,.972-6.482c0-.216.108-.324.324-.432,3.241-2.593,5.618-8.319,5.618-8.319a.823.823,0,0,1,1.513.648c-.108.216-2.377,5.942-5.834,8.859-.648,2.377-1.729,8.1.324,9.724a.7.7,0,0,1,.216.972A1.334,1.334,0,0,1,82.651,200.2Z" fill="#3d3736"/>
                </g>
                <g id="그룹_4627" data-name="그룹 4627">
                  <path id="패스_4395" data-name="패스 4395" d="M97.992,178.915s2.377,5.942,5.834,8.751c0,0,2.485,8.427-.54,10.8,0,0,3.565-1.08,3.673-9.4s-2.809-14.693-8.319-15.882" fill="#fff"/>
                  <path id="패스_4396" data-name="패스 4396" d="M103.286,199.226a.816.816,0,0,1-.756-.432.7.7,0,0,1,.216-.972c2.053-1.621.972-7.347.324-9.724-3.565-2.917-5.834-8.643-5.834-8.859a.823.823,0,0,1,1.513-.648c0,.108,2.269,5.726,5.618,8.319a1.492,1.492,0,0,1,.324.432,29.049,29.049,0,0,1,.972,6.482,22.866,22.866,0,0,0,.648-4.754c.108-8.211-2.809-14.045-7.671-15.018a.826.826,0,1,1,.324-1.621c5.726,1.188,9.075,7.455,8.967,16.638-.108,8.751-4.106,10.048-4.322,10.156Z" fill="#3d3736"/>
                </g>
              </g>
            </g>
            <g id="그룹_4630" data-name="그룹 4630">
              <path id="패스_4397" data-name="패스 4397" d="M99.829,179.563a6.628,6.628,0,0,0,1.729,3.565,9.887,9.887,0,0,1-8.967-.216,14.423,14.423,0,0,0,.54,1.837c-6.482-.432-6.374-5.726-6.374-5.726s-1.188-5.726,2.593-6.59c3.673-.864,8.859-1.08,10.048,1.837" fill="#fff"/>
              <path id="패스_4398" data-name="패스 4398" d="M93.131,185.613h0c-6.7-.432-7.131-5.618-7.239-6.482-.108-.756-1.08-6.482,3.133-7.455,2.161-.54,9.183-1.729,11.02,2.269a.823.823,0,0,1-1.513.648c-.972-2.161-5.294-2.269-9.183-1.3-2.917.648-1.945,5.618-1.945,5.618v.216c0,.216,0,3.889,4.43,4.754-.108-.216-.108-.54-.216-.648a.841.841,0,0,1,.324-.756c.216-.108.648-.216.864,0a9.36,9.36,0,0,0,7.239.54,6.374,6.374,0,0,1-1.188-3.241.812.812,0,0,1,1.621-.108,6.462,6.462,0,0,0,1.513,3.133.794.794,0,0,1,.216.648.718.718,0,0,1-.432.54,10.569,10.569,0,0,1-7.995.54v.108a.949.949,0,0,1-.108.756C93.671,185.505,93.347,185.613,93.131,185.613Z" fill="#3d3736"/>
            </g>
          </g>
          <path id="패스_4399" data-name="패스 4399" d="M140.992,176.214h-16.1a.864.864,0,1,1,0-1.729h16.1a.852.852,0,0,1,.864.864C141.749,175.889,141.425,176.214,140.992,176.214Z" fill="#3d3736"/>
          <path id="패스_4400" data-name="패스 4400" d="M156.442,185.505H124.894a.864.864,0,1,1,0-1.729h31.548a.852.852,0,0,1,.864.864A.8.8,0,0,1,156.442,185.505Z" fill="#3d3736"/>
          <path id="패스_4401" data-name="패스 4401" d="M156.442,192.852H124.894a.864.864,0,1,1,0-1.729h31.548a.852.852,0,0,1,.864.864A.8.8,0,0,1,156.442,192.852Z" fill="#3d3736"/>
          <path id="패스_4402" data-name="패스 4402" d="M156.442,200.2H124.894a.864.864,0,1,1,0-1.729h31.548a.852.852,0,0,1,.864.864A.8.8,0,0,1,156.442,200.2Z" fill="#3d3736"/>
          <path id="패스_4403" data-name="패스 4403" d="M136.347,207.545H124.894a.864.864,0,1,1,0-1.729h11.452a.864.864,0,1,1,0,1.729Z" fill="#3d3736"/>
        </g>
        <g id="그룹_4633" data-name="그룹 4633">
          <path id="패스_4404" data-name="패스 4404" d="M81.138,141.857a22.455,22.455,0,0,0-22.472-22.472H40.515a22.472,22.472,0,0,0,0,44.945h9.832c4.322,8.967,15.018,10.048,15.018,10.048a13.942,13.942,0,0,1-5.51-10.048A22.592,22.592,0,0,0,81.138,141.857Z" fill="#fff"/>
          <path id="패스_4405" data-name="패스 4405" d="M65.364,175.133h0c-.54,0-10.912-1.188-15.558-10.048h-9.4a23.337,23.337,0,0,1,0-46.673H58.558a23.333,23.333,0,0,1,2.161,46.565,12.358,12.358,0,0,0,5.078,8.643.871.871,0,0,1,.324.972A.812.812,0,0,1,65.364,175.133ZM40.515,120.141a21.608,21.608,0,1,0,0,43.216h9.832a.91.91,0,0,1,.756.432c2.7,5.618,8.1,7.995,11.452,8.967a14.649,14.649,0,0,1-3.457-8.643.794.794,0,0,1,.216-.648c.108-.216.324-.216.54-.324a21.625,21.625,0,0,0-1.188-43.216H40.515Z" fill="#3d3736"/>
        </g>
        <path id="패스_4406" data-name="패스 4406" d="M63.852,134.618H35.329a.852.852,0,0,1-.864-.864.8.8,0,0,1,.864-.864H63.852a.852.852,0,0,1,.864.864A.8.8,0,0,1,63.852,134.618Z" fill="#3d3736"/>
        <path id="패스_4407" data-name="패스 4407" d="M66.661,143.045H32.52a.852.852,0,0,1-.864-.864.8.8,0,0,1,.864-.864H66.661a.864.864,0,0,1,0,1.729Z" fill="#3d3736"/>
        <path id="패스_4408" data-name="패스 4408" d="M63.852,151.472H35.329a.864.864,0,0,1,0-1.729H63.852a.852.852,0,0,1,.864.864A.8.8,0,0,1,63.852,151.472Z" fill="#3d3736"/>
        <g id="그룹_4642" data-name="그룹 4642">
          <g id="그룹_4640" data-name="그룹 4640">
            <g id="그룹_4634" data-name="그룹 4634">
              <path id="패스_4409" data-name="패스 4409" d="M202.575,183.128s6.807-5.078,15.234-4.538c8.319.54,17.286,6.482,12.317,26.146,0,0,3.673.54,3.133,4.862,0,0,2.593,0,1.945,3.781,0,0,3.457,1.4,1.08,4.754-2.377,3.241-7.995-2.917-7.995-2.917l-19.015-1.945C209.274,213.379,198.146,194.9,202.575,183.128Z" fill="#fff"/>
              <path id="패스_4410" data-name="패스 4410" d="M234.447,219.97c-2.593,0-5.618-2.917-6.59-3.889l-18.8-1.945c-.216,0-.432-.216-.648-.432a76.738,76.738,0,0,1-5.078-10.8c-3.025-8.211-3.565-15.018-1.621-20.1.108-.108.108-.324.324-.324a26.431,26.431,0,0,1,14.369-4.646h1.3a15.085,15.085,0,0,1,11.452,5.726c3.349,4.646,4,11.56,1.837,20.636a4.822,4.822,0,0,1,3.025,4.862,2.5,2.5,0,0,1,1.188.864,4.31,4.31,0,0,1,.864,3.241,4.044,4.044,0,0,1,1.729,2.161,3.945,3.945,0,0,1-.864,3.457A2.93,2.93,0,0,1,234.447,219.97Zm-24.633-7.347,18.691,1.945a.825.825,0,0,1,.54.216c.864.972,3.673,3.565,5.51,3.565a1.356,1.356,0,0,0,1.188-.648,2.846,2.846,0,0,0,.648-2.053c-.216-.972-1.4-1.4-1.4-1.4a.962.962,0,0,1-.54-.864,4.211,4.211,0,0,0-.324-2.485,1.167,1.167,0,0,0-.864-.432.934.934,0,0,1-.648-.324,1.536,1.536,0,0,1-.216-.648c.432-3.565-2.269-4-2.377-4a.919.919,0,0,1-.54-.324.714.714,0,0,1-.108-.648c2.269-8.967,1.729-15.666-1.4-19.987-2.809-3.889-7.131-4.862-10.156-5.078h-1.188a25.682,25.682,0,0,0-13.289,4.214C199.55,194.04,208.3,210.03,209.814,212.623Z" fill="#3d3736"/>
            </g>
            <g id="그룹_4639" data-name="그룹 4639">
              <g id="그룹_4638" data-name="그룹 4638">
                <g id="그룹_4635" data-name="그룹 4635">
                  <path id="패스_4411" data-name="패스 4411" d="M202.575,183.128s-7.023,4.754-5.078,14.693a3.044,3.044,0,0,0-.324,4s-2.053,9.508,7.239,11.02l8.427-2.161s-1.729-3.025-1.621-4.106c0,0,5.834-1.729,3.349-6.266s-5.618.324-5.618.324S199.766,195.013,202.575,183.128Z" fill="#fff"/>
                  <path id="패스_4412" data-name="패스 4412" d="M204.52,213.7h-.108a9.07,9.07,0,0,1-6.482-3.781,11.309,11.309,0,0,1-1.513-7.887,3.818,3.818,0,0,1,.216-4.43,15.422,15.422,0,0,1,1.945-11.236,13.89,13.89,0,0,1,3.565-3.889.81.81,0,0,1,.972,0,.724.724,0,0,1,.324.864,15.177,15.177,0,0,0,5.51,16.1A4.778,4.778,0,0,1,212.3,197.5c1.188,0,2.269.756,3.133,2.377a4.852,4.852,0,0,1,.432,4,6.484,6.484,0,0,1-3.673,3.241,17.823,17.823,0,0,0,1.4,3.133.923.923,0,0,1,0,.756.718.718,0,0,1-.54.432l-8.427,2.161C204.628,213.7,204.628,213.7,204.52,213.7ZM201.387,185.4a13.545,13.545,0,0,0-3.025,12.317.716.716,0,0,1-.216.756,2.138,2.138,0,0,0-.216,2.809.714.714,0,0,1,.108.648s-.864,4.106,1.188,7.023a7.44,7.44,0,0,0,5.186,3.025l7.239-1.837c-.54-1.08-1.3-2.7-1.188-3.673a.685.685,0,0,1,.54-.648s2.593-.756,3.241-2.485a2.875,2.875,0,0,0-.324-2.593c-.54-.972-1.08-1.513-1.729-1.513-.972,0-2.161,1.4-2.485,1.837a.838.838,0,0,1-1.08.216A16.673,16.673,0,0,1,201.387,185.4Z" fill="#3d3736"/>
                </g>
                <g id="그룹_4636" data-name="그룹 4636">
                  <path id="패스_4413" data-name="패스 4413" d="M204.52,233.259a18.7,18.7,0,0,0,3.241,4.862h32.088s-.54-20.1-9.291-26.146c-8.751-5.942-20.636-2.161-20.636-2.161" fill="#ff7657"/>
                  <path id="패스_4414" data-name="패스 4414" d="M239.957,238.985H207.869a.825.825,0,0,1-.54-.216,21.6,21.6,0,0,1-3.457-5.186.823.823,0,0,1,1.513-.648,19.063,19.063,0,0,0,2.917,4.43h30.9c-.216-3.781-1.621-19.663-8.859-24.633-8.319-5.726-19.879-2.161-19.987-2.053a.787.787,0,1,1-.432-1.513c.54-.108,12.425-3.889,21.392,2.269,3.781,2.593,6.59,7.887,8.211,15.774a76,76,0,0,1,1.4,10.912.825.825,0,0,1-.216.54A1.436,1.436,0,0,1,239.957,238.985Z" fill="#3d3736"/>
                </g>
                <g id="그룹_4637" data-name="그룹 4637">
                  <path id="패스_4415" data-name="패스 4415" d="M212.407,209.49s-11.56,1.4-16.854,10.7c0,0-8.859,8.751-6.915,13.4,1.945,4.754,6.915,4.862,13.289,2.7,0,0,7.455-2.593,9.4-10.156" fill="#ff7657"/>
                  <path id="패스_4416" data-name="패스 4416" d="M195.121,238.553c-3.565,0-5.942-1.513-7.239-4.538-2.053-4.97,5.726-12.965,7.023-14.261,5.4-9.4,16.962-10.912,17.394-11.02a.766.766,0,0,1,.864.756.713.713,0,0,1-.756.864c-.108,0-11.236,1.513-16.314,10.264,0,.108-.108.108-.108.216-2.377,2.269-8.211,9.075-6.7,12.533,1.621,3.889,5.51,4.538,12.209,2.269.108,0,7.023-2.485,8.859-9.616a.787.787,0,0,1,1.513.432c-2.053,7.995-9.616,10.588-9.94,10.7A19.139,19.139,0,0,1,195.121,238.553Z" fill="#3d3736"/>
                </g>
              </g>
              <path id="패스_4417" data-name="패스 4417" d="M200.739,198.362c0,.864-.324,1.513-.648,1.513s-.648-.648-.648-1.513.324-1.513.648-1.513S200.739,197.5,200.739,198.362Z" fill="#3d3736"/>
            </g>
          </g>
          <g id="그룹_4641" data-name="그룹 4641">
            <path id="패스_4418" data-name="패스 4418" d="M227.641,198.686s1.08,6.7-3.241,10.912c0,0,.864,3.781-1.4,5.4,0,0,.324,2.7-1.08,3.781,0,0,.324,4.214-1.621,4s-2.593-1.621-1.4-4.322a3.422,3.422,0,0,1-1.08-4.214s-4-3.673-3.457-6.7" fill="#fff"/>
            <path id="패스_4419" data-name="패스 4419" d="M220.294,223.643h-.216a3.1,3.1,0,0,1-2.377-1.3c-.54-.864-.54-2.053,0-3.673a4.285,4.285,0,0,1-1.08-4.214c-1.08-1.08-3.781-4.214-3.349-7.131a.826.826,0,1,1,1.621.324c-.432,2.161,2.161,5.078,3.241,5.942a.84.84,0,0,1,.216.864,2.771,2.771,0,0,0,.756,3.241.871.871,0,0,1,.324.972c-.648,1.729-.54,2.485-.324,2.7.216.324.54.432,1.08.54.108,0,.216,0,.216-.108.432-.432.54-2.053.432-3.025a.981.981,0,0,1,.324-.756c.864-.648.864-2.377.756-3.025a.841.841,0,0,1,.324-.756c1.837-1.3,1.08-4.538,1.08-4.538a.668.668,0,0,1,.216-.756c4-3.781,3.025-10.156,3.025-10.156a.826.826,0,1,1,1.621-.324c0,.324,1.08,6.915-3.241,11.236.216,1.08.432,3.889-1.513,5.51,0,.864,0,2.7-1.08,3.781,0,.972,0,2.917-.972,3.889A.969.969,0,0,1,220.294,223.643Z" fill="#3d3736"/>
          </g>
          <path id="패스_4420" data-name="패스 4420" d="M222.347,206.141h0c-.54-.108-.864-.432-.864-.864,1.729-14.045-4.43-22.04-4.538-22.04a.844.844,0,0,1,1.3-1.08c.324.324,6.7,8.643,4.862,23.337C223.1,205.925,222.779,206.141,222.347,206.141Z" fill="#3d3736"/>
          <path id="패스_4421" data-name="패스 4421" d="M216.945,199.874a.77.77,0,0,1-.648-.324c-4.754-6.807-5.726-19.447-5.726-19.987a.812.812,0,0,1,1.621-.108c0,.108.972,12.749,5.51,19.231a.879.879,0,0,1-.216,1.188C217.269,199.766,217.053,199.874,216.945,199.874Z" fill="#3d3736"/>
        </g>
        <g id="그룹_4643" data-name="그룹 4643">
          <path id="패스_4422" data-name="패스 4422" d="M207.329,238.013l-7.779,5.294s-5.294,5.942-3.133,11.344H244.6s.216-11.776-4.538-16.638Z" fill="#7ebaff"/>
          <path id="패스_4423" data-name="패스 4423" d="M244.495,255.515H196.309a.812.812,0,0,1-.756-.54c-2.269-5.942,3.133-11.992,3.349-12.209l.108-.108,7.779-5.294a.65.65,0,0,1,.432-.108h32.628a.825.825,0,0,1,.54.216c4.862,5.078,4.754,16.746,4.754,17.178A.692.692,0,0,1,244.495,255.515Zm-47.646-1.621h46.781c-.108-2.593-.54-11.02-4.106-15.018H207.437l-7.455,5.078C199.442,244.495,195.553,249.357,196.849,253.894Z" fill="#3d3736"/>
        </g>
        <g id="그룹_4646" data-name="그룹 4646">
          <g id="그룹_4644" data-name="그룹 4644">
            <path id="패스_4424" data-name="패스 4424" d="M250.329,162.709c-10.264,0-18.475,4.43-18.475,9.94,0,3.565,3.565,6.807,8.859,8.535-.648,2.053-1.837,4.754-4.538,6.158,0,0,7.563-.324,11.452-4.862a22.581,22.581,0,0,0,2.7.108c10.264,0,18.475-4.43,18.475-9.94C268.912,167.246,260.593,162.709,250.329,162.709Z" fill="#7ebaff"/>
            <path id="패스_4425" data-name="패스 4425" d="M236.176,188.206a.789.789,0,0,1-.756-.648.94.94,0,0,1,.432-.972,8.967,8.967,0,0,0,3.889-4.97c-5.4-1.945-8.643-5.294-8.643-9.075,0-6.05,8.535-10.8,19.339-10.8s19.339,4.754,19.339,10.8-8.535,10.8-19.339,10.8a17.5,17.5,0,0,1-2.377-.108c-4.106,4.646-11.452,4.97-11.884,4.97Zm14.153-24.633c-9.616,0-17.719,4.214-17.719,9.183,0,3.133,3.241,6.05,8.319,7.779a.773.773,0,0,1,.54.972,13.468,13.468,0,0,1-2.485,4.754c2.485-.54,5.834-1.621,7.995-4.106a.934.934,0,0,1,.648-.324,22.581,22.581,0,0,0,2.7.108c9.616,0,17.719-4.214,17.719-9.183S259.945,163.573,250.329,163.573Z" fill="#3d3736"/>
          </g>
          <g id="그룹_4645" data-name="그룹 4645">
            <circle id="타원_48" data-name="타원 48" cx="1.296" cy="1.296" r="1.296" transform="translate(243.09 171.568)" fill="#3d3736"/>
            <circle id="타원_49" data-name="타원 49" cx="1.296" cy="1.296" r="1.296" transform="translate(249.033 171.568)" fill="#3d3736"/>
            <circle id="타원_50" data-name="타원 50" cx="1.296" cy="1.296" r="1.296" transform="translate(255.083 171.568)" fill="#3d3736"/>
          </g>
        </g>
        <path id="패스_4426" data-name="패스 4426" d="M386.568,137.211H348.862a.852.852,0,0,1-.864-.864v-10.48a.852.852,0,0,1,.864-.864h37.706a.852.852,0,0,1,.864.864v10.48C387.324,136.887,387,137.211,386.568,137.211Zm-36.95-1.621H385.7v-8.859H349.618Z" fill="#c9cdd2"/>
        <path id="패스_4427" data-name="패스 4427" d="M386.568,150.284H324.121a.864.864,0,0,1,0-1.729h62.447a.852.852,0,0,1,.864.864C387.324,149.96,387,150.284,386.568,150.284Z" fill="#3d3736"/>
        <path id="패스_4428" data-name="패스 4428" d="M386.568,159.035H324.121a.864.864,0,0,1,0-1.729h62.447a.852.852,0,0,1,.864.864C387.324,158.6,387,159.035,386.568,159.035Z" fill="#3d3736"/>
        <path id="패스_4429" data-name="패스 4429" d="M386.568,167.678H324.121a.852.852,0,0,1-.864-.864.8.8,0,0,1,.864-.864h62.447a.864.864,0,0,1,0,1.729Z" fill="#3d3736"/>
        <path id="패스_4430" data-name="패스 4430" d="M386.568,176.43H365.5a.864.864,0,0,1,0-1.729h21.068a.852.852,0,0,1,.864.864C387.324,176.106,387,176.43,386.568,176.43Z" fill="#3d3736"/>
        <path id="패스_4431" data-name="패스 4431" d="M386.568,185.181H363.015a.864.864,0,1,1,0-1.729h23.553a.852.852,0,0,1,.864.864C387.324,184.749,387,185.181,386.568,185.181Z" fill="#3d3736"/>
        <g id="그룹_4659" data-name="그룹 4659">
          <g id="그룹_4647" data-name="그룹 4647">
            <path id="패스_4432" data-name="패스 4432" d="M321.744,146.07s4.97,1.621,7.995,8.967c0,0,4.214.216,3.025,3.565,0,0,7.131,6.7.216,14.91a17.929,17.929,0,0,1-16.638,5.942S311.156,153.741,321.744,146.07Z" fill="#fff"/>
            <path id="패스_4433" data-name="패스 4433" d="M319.151,180.427a15.974,15.974,0,0,1-3.241-.324.974.974,0,0,1-.648-.648,76.968,76.968,0,0,1-1.188-13.937c.108-10.048,2.485-16.854,7.023-20.2a.888.888,0,0,1,.756-.108c.216.108,5.186,1.729,8.211,8.967a4.481,4.481,0,0,1,2.917,1.621,2.944,2.944,0,0,1,.324,2.485c2.593,2.7,5.51,9.075-.108,15.666A17.541,17.541,0,0,1,319.151,180.427Zm-2.269-1.729a13.867,13.867,0,0,0,2.377.108,16.891,16.891,0,0,0,13.073-5.942c6.374-7.455.108-13.505-.108-13.721a.84.84,0,0,1-.216-.864,1.8,1.8,0,0,0,0-1.513,2.883,2.883,0,0,0-2.269-.972.812.812,0,0,1-.756-.54c-2.269-5.726-5.942-7.779-7.023-8.319C313.1,153.957,316.234,175.025,316.882,178.7Z" fill="#3d3736"/>
          </g>
          <g id="그룹_4657" data-name="그룹 4657">
            <g id="그룹_4648" data-name="그룹 4648">
              <path id="패스_4434" data-name="패스 4434" d="M310.291,220.078c0,4.862,3.565,23.445,3.565,23.445l12.749.54,8.967-31.332-34.789-3.025a39.093,39.093,0,0,0,1.08,17.178l4.322,15.774,6.482.864" fill="#fff"/>
              <path id="패스_4435" data-name="패스 4435" d="M326.606,244.819h0l-12.857-.54c-.216,0-.324-.108-.54-.216a1.535,1.535,0,0,1-.648.216l-6.482-.864a.7.7,0,0,1-.648-.54L301.108,227.1c-2.7-9.832-1.188-17.178-1.08-17.5a.822.822,0,0,1,.864-.648l34.789,3.025a.934.934,0,0,1,.648.324.714.714,0,0,1,.108.648l-8.967,31.332A1.1,1.1,0,0,1,326.606,244.819Zm-12.1-2.161,11.452.54,8.535-29.711-33.06-2.809a39.513,39.513,0,0,0,1.188,16.1l4.214,15.234,5.942.756h0c-.756-3.889-3.349-18.259-3.349-22.58a.864.864,0,0,1,1.729,0C311.048,224.291,313.857,239.417,314.505,242.658Z" fill="#3d3736"/>
            </g>
            <g id="그룹_4649" data-name="그룹 4649">
              <path id="패스_4436" data-name="패스 4436" d="M324.121,178.158s-12.749-1.621-16.53,2.485-8.211,30.467-8.211,30.467,14.693,5.186,37.814,1.945l1.3-23.661" fill="#ff7657"/>
              <path id="패스_4437" data-name="패스 4437" d="M321.96,214.892c-14.045,0-22.472-2.917-22.9-3.025a.809.809,0,0,1-.54-.864c.216-1.08,4.646-26.686,8.427-30.9,4-4.322,16.746-2.809,17.286-2.7a.812.812,0,1,1-.108,1.621c-3.457-.432-12.965-.864-15.774,2.161-2.809,3.133-6.59,21.608-7.887,29.387a57.884,57.884,0,0,0,9.508,1.945,99.672,99.672,0,0,0,26.686-.216l1.3-23.013a.812.812,0,0,1,1.621.108l-1.3,23.661a.722.722,0,0,1-.648.756A124.463,124.463,0,0,1,321.96,214.892Z" fill="#3d3736"/>
            </g>
            <g id="그룹_4654" data-name="그룹 4654">
              <g id="그룹_4652" data-name="그룹 4652">
                <g id="그룹_4650" data-name="그룹 4650">
                  <path id="패스_4438" data-name="패스 4438" d="M338.922,170.6l4-9.4s-2.161-2.917,0-4.538c0,0,0-4.538,3.673-4s7.779,2.917,6.374,9.832c0,0,0,13.613-5.078,18.907" fill="#fff"/>
                  <path id="패스_4439" data-name="패스 4439" d="M347.781,182.048a.825.825,0,0,1-.54-.216.848.848,0,0,1,0-1.188c4.754-4.97,4.862-18.151,4.862-18.259v-.216c.54-2.593.324-4.646-.756-6.158a7.026,7.026,0,0,0-4.97-2.7,1.848,1.848,0,0,0-1.621.324,4.215,4.215,0,0,0-1.08,2.809.77.77,0,0,1-.324.648,1.589,1.589,0,0,0-.54,1.945,5.7,5.7,0,0,0,.648,1.4.665.665,0,0,1,.108.756l-4,9.4a.823.823,0,1,1-1.513-.648l3.781-9.075a3.966,3.966,0,0,1-.648-1.513,3.273,3.273,0,0,1,.756-3.457,5.686,5.686,0,0,1,1.621-3.673,3.6,3.6,0,0,1,3.025-.756,9.111,9.111,0,0,1,6.05,3.349c1.3,1.837,1.621,4.322.972,7.347,0,1.3-.216,14.045-5.294,19.339C348.214,181.94,348,182.048,347.781,182.048Z" fill="#3d3736"/>
                </g>
                <g id="그룹_4651" data-name="그룹 4651">
                  <path id="패스_4440" data-name="패스 4440" d="M322.608,179.023a17.034,17.034,0,0,1,8.535-5.294l6.158-4.862s8.751,5.942,11.452,14.693a102.6,102.6,0,0,1-11.02,9.4" fill="#ff7657"/>
                  <path id="패스_4441" data-name="패스 4441" d="M337.626,193.824a.77.77,0,0,1-.648-.324.879.879,0,0,1,.216-1.188,106.386,106.386,0,0,0,10.588-8.967c-2.377-6.915-8.643-12.1-10.48-13.4l-5.726,4.538a.4.4,0,0,1-.324.108,16.3,16.3,0,0,0-8.1,4.97.844.844,0,0,1-1.3-1.08,16.93,16.93,0,0,1,8.751-5.51l6.05-4.754a.81.81,0,0,1,.972,0c.324.216,8.967,6.266,11.776,15.126a.84.84,0,0,1-.216.864,104.084,104.084,0,0,1-11.128,9.508C337.95,193.824,337.842,193.824,337.626,193.824Z" fill="#3d3736"/>
                </g>
              </g>
              <g id="그룹_4653" data-name="그룹 4653">
                <path id="패스_4442" data-name="패스 4442" d="M345.188,156.55a1.154,1.154,0,0,1-1.621.648l-3.349-1.3a1.154,1.154,0,0,1-.648-1.621h0a1.154,1.154,0,0,1,1.621-.648l3.349,1.3a1.337,1.337,0,0,1,.648,1.621Z" fill="#7ebaff"/>
                <path id="패스_4443" data-name="패스 4443" d="M344,158.171a1.839,1.839,0,0,1-.756-.108l-3.349-1.3a1.784,1.784,0,0,1-1.08-1.08,1.841,1.841,0,0,1,0-1.513,2.134,2.134,0,0,1,1.945-1.3,1.839,1.839,0,0,1,.756.108l3.349,1.3a1.784,1.784,0,0,1,1.08,1.08,1.841,1.841,0,0,1,0,1.513A2.134,2.134,0,0,1,344,158.171Zm-3.241-3.781a.819.819,0,0,0-.432.216v.324a.232.232,0,0,0,.216.216l3.349,1.3a.4.4,0,0,0,.54-.216V155.9a.232.232,0,0,0-.216-.216l-3.349-1.3Z" fill="#3d3736"/>
              </g>
            </g>
            <g id="그룹_4655" data-name="그룹 4655">
              <path id="패스_4444" data-name="패스 4444" d="M314.829,243.847s1.4,3.457,2.593,4.538,3.133,4.214,1.621,5.4-10.372.756-10.372.756-4.862-6.158-3.673-10.912A5.107,5.107,0,0,1,314.829,243.847Z" fill="#fff"/>
              <path id="패스_4445" data-name="패스 4445" d="M312.668,255.515c-2.161,0-4-.108-4.105-.108a.594.594,0,0,1-.54-.324c-.216-.216-5.186-6.59-3.781-11.56a5.631,5.631,0,0,1,5.726-4.214,5.875,5.875,0,0,1,5.726,4.43c.432.972,1.513,3.457,2.377,4.214.972.972,2.485,3.133,2.377,4.862a2.35,2.35,0,0,1-.756,1.729C318.935,254.867,317.746,255.515,312.668,255.515Zm-3.673-1.729c.648,0,2.053.108,3.673.108,4.862,0,5.618-.54,5.726-.648a.635.635,0,0,0,.216-.54,6.459,6.459,0,0,0-1.945-3.673,18.945,18.945,0,0,1-2.7-4.754v-.108a4.258,4.258,0,0,0-8.211-.216C304.781,247.628,308.131,252.49,308.995,253.786Z" fill="#3d3736"/>
            </g>
            <g id="그룹_4656" data-name="그룹 4656">
              <path id="패스_4446" data-name="패스 4446" d="M325.633,243.307s.216,4,1.3,5.078,3.133,4.214,1.621,5.4c-1.4,1.3-10.372.756-10.372.756s-4.862-6.158-3.673-10.912C315.91,238.985,324.229,238.013,325.633,243.307Z" fill="#fff"/>
              <path id="패스_4447" data-name="패스 4447" d="M322.284,255.515c-2.161,0-4-.108-4.105-.108a.594.594,0,0,1-.54-.324c-.216-.216-5.186-6.59-3.781-11.56.864-3.133,4.106-4.538,6.7-4.538A5.884,5.884,0,0,1,326.5,243.2v.216c.108,1.513.432,4,1.08,4.538.972.972,2.485,3.133,2.377,4.862a2.35,2.35,0,0,1-.756,1.729C328.55,254.867,327.362,255.515,322.284,255.515Zm-3.673-1.729c.648,0,2.053.108,3.673.108,4.862,0,5.618-.54,5.726-.648a.635.635,0,0,0,.216-.54,6.459,6.459,0,0,0-1.945-3.673c-1.188-1.188-1.4-4.646-1.513-5.51-.756-2.7-3.457-2.917-4.322-2.917-2.053,0-4.538,1.188-5.186,3.349C314.4,247.628,317.746,252.49,318.611,253.786Z" fill="#3d3736"/>
            </g>
          </g>
          <g id="그룹_4658" data-name="그룹 4658">
            <path id="패스_4448" data-name="패스 4448" d="M321.852,144.45a7.665,7.665,0,0,1,3.781,9.291s.756,5.294-2.377,7.671c0,0-3.457.324-3.241,3.673.216,3.241,2.161,4.754,4.862,4,0,0-2.593,6.482-8.535,9.291s-8.751,2.485-8.751,2.485-11.02-3.349-12.425-14.477c-1.4-11.02,2.7-17.935,9.94-20.528C305.214,145.638,312.02,139.48,321.852,144.45Z" fill="#fff"/>
            <path id="패스_4449" data-name="패스 4449" d="M307.807,181.4h-.54c-.108,0-11.452-3.673-12.965-15.126-1.4-10.7,2.377-18.475,10.372-21.284a15.859,15.859,0,0,1,9.508-3.241,17.7,17.7,0,0,1,7.887,1.945,8.472,8.472,0,0,1,4.322,10.048c.108.972.432,5.834-2.7,8.211-.108.108-.216.108-.432.216a2.528,2.528,0,0,0-2.485,2.809c.108,1.3.54,3.349,2.809,3.349a3.675,3.675,0,0,0,1.08-.108.84.84,0,0,1,.864.216.816.816,0,0,1,.108.864c-.108.324-2.7,6.915-8.967,9.724C311.7,181.183,308.887,181.4,307.807,181.4Zm0-1.621h0c.756,0,3.457-.216,8.319-2.377a16.434,16.434,0,0,0,7.455-7.563c-2.485,0-4.214-1.945-4.322-4.97a4.147,4.147,0,0,1,3.781-4.43c2.485-2.161,1.945-6.7,1.837-6.7v-.324c1.621-5.942-3.133-8.211-3.349-8.319a16.341,16.341,0,0,0-7.239-1.837,14.824,14.824,0,0,0-8.643,2.917.4.4,0,0,1-.324.108c-7.455,2.593-10.8,9.508-9.4,19.663C297.327,175.889,306.726,179.455,307.807,179.779Z" fill="#3d3736"/>
          </g>
          <path id="패스_4450" data-name="패스 4450" d="M329.09,158.279c.324.648.216,1.4-.216,1.621s-.972-.216-1.3-.972c-.324-.648-.216-1.4.216-1.621S328.874,157.523,329.09,158.279Z" fill="#3d3736"/>
        </g>
        <path id="패스_4451" data-name="패스 4451" d="M311.912,170.271c-.216,0-.324-.108-.54-.216-6.482-5.294-6.807-15.45-6.807-15.882a.812.812,0,1,1,1.621-.108c0,.108.324,9.724,6.266,14.585a.847.847,0,0,1,.108,1.188A.781.781,0,0,1,311.912,170.271Z" fill="#3d3736"/>
        <path id="패스_4452" data-name="패스 4452" d="M307.59,181.4a.934.934,0,0,1-.648-.324c-10.156-12.749-5.618-23.229-5.4-23.769a.823.823,0,0,1,1.513.648,18.375,18.375,0,0,0-1.08,6.482c.108,3.673,1.188,9.291,6.158,15.558a.856.856,0,0,1-.108,1.188C308.023,181.4,307.807,181.4,307.59,181.4Z" fill="#3d3736"/>
      </g>
    </g>
  </g>
</svg>
