<svg xmlns="http://www.w3.org/2000/svg" xmlns:xlink="http://www.w3.org/1999/xlink" width="400" height="300" viewBox="0 0 400 300">
  <defs>
    <clipPath id="clip-path">
      <rect id="사각형_798" data-name="사각형 798" width="400" height="300" transform="translate(370 1571)" fill="#9ea4aa"/>
    </clipPath>
  </defs>
  <g id="마스크_그룹_8" data-name="마스크 그룹 8" transform="translate(-370 -1571)" clip-path="url(#clip-path)">
    <g id="Layer_4" transform="translate(370 1570.954)">
      <g id="그룹_4768" data-name="그룹 4768">
        <g id="그룹_4661" data-name="그룹 4661">
          <path id="패스_4453" data-name="패스 4453" d="M368.3,230s-4.4,1.2-4.5,5.4a27.59,27.59,0,0,0,1.6,9.1s-1.7,3,.5,3.8c2.3.9,7.7-5.6,7.7-5.6l1.2-6.5" fill="#7ebaff"/>
          <path id="패스_4454" data-name="패스 4454" d="M366.3,249.2a1.483,1.483,0,0,1-.7-.1,2.249,2.249,0,0,1-1.5-1.5,4.685,4.685,0,0,1,.4-3.2,27.019,27.019,0,0,1-1.5-9.1,7.089,7.089,0,0,1,5.1-6.2.825.825,0,1,1,.4,1.6,5.374,5.374,0,0,0-4,4.7c-.2,4,1.5,8.7,1.5,8.8a.616.616,0,0,1-.1.7,3.457,3.457,0,0,0-.5,2.1.79.79,0,0,0,.6.5c1,.4,4.2-2.3,6.6-5.2l1.2-6.3a.863.863,0,0,1,1.7.3l-1.2,6.5a.758.758,0,0,1-.2.4C372.9,244.7,369,249.2,366.3,249.2Z" fill="#3d3736"/>
        </g>
        <path id="패스_4455" data-name="패스 4455" d="M238.8,107.8a.752.752,0,0,1-.7-.5.841.841,0,0,1,.4-1.1l.5-.2a.828.828,0,0,1,.7,1.5l-.5.2A.756.756,0,0,1,238.8,107.8Zm64.8-1.5h-.2a1.213,1.213,0,0,0-.5-.1.825.825,0,1,1,.4-1.6,2.805,2.805,0,0,0,.5.1.887.887,0,0,1,.6,1A.838.838,0,0,1,303.6,106.3Zm-60.8-.2a1.02,1.02,0,0,1-.8-.5.891.891,0,0,1,.5-1.1c.2-.1.3-.1.5-.2a.791.791,0,0,1,.5,1.5c-.2.1-.3.1-.5.2C243,106.1,242.9,106.1,242.8,106.1Zm56.5-.8h-.2l-.5-.1a.825.825,0,1,1,.4-1.6l.5.1a.832.832,0,0,1,.6,1A.871.871,0,0,1,299.3,105.3Zm-52.3-.6a.76.76,0,0,1-.8-.6.8.8,0,0,1,.6-1l.5-.2a.825.825,0,1,1,.4,1.6l-.5.1A.31.31,0,0,1,247,104.7Zm48.1-.3h-.2l-.5-.1a.863.863,0,1,1,.3-1.7l.5.1a.832.832,0,0,1,.6,1A.751.751,0,0,1,295.1,104.4Zm-43.9-.7a.871.871,0,0,1-.8-.6.887.887,0,0,1,.6-1l.5-.1a.825.825,0,1,1,.4,1.6l-.5.1Zm39.6-.1h-.1l-.5-.1c-.4-.1-.8-.5-.7-.9a.961.961,0,0,1,.9-.7l.5.1a.961.961,0,0,1,.7.9A.761.761,0,0,1,290.8,103.6Zm-4.4-.6h-.1l-.5-.1c-.4-.1-.8-.5-.7-.9s.5-.8.9-.7l.5.1c.4.1.8.5.7.9A.713.713,0,0,1,286.4,103Zm-30.9-.1a.849.849,0,0,1-.8-.7.737.737,0,0,1,.7-.9l.5-.1a.7.7,0,0,1,.9.7.737.737,0,0,1-.7.9l-.5.1Zm26.6-.4h0l-.6-.1a.806.806,0,1,1,.2-1.6l.5.1a.748.748,0,0,1,.7.9A.773.773,0,0,1,282.1,102.5Zm-22.3-.2a.773.773,0,0,1-.8-.7.96.96,0,0,1,.7-.9l.5-.1a.806.806,0,1,1,.2,1.6l-.6.1Zm18-.2h-.6a.851.851,0,0,1,.1-1.7h.5a.817.817,0,0,1,.8.9A.789.789,0,0,1,277.8,102.1Zm-13.6-.1a.789.789,0,0,1-.8-.8.876.876,0,0,1,.8-.9h.5a.948.948,0,0,1,.9.8.876.876,0,0,1-.8.9Zm9.2-.1h-.6a.789.789,0,0,1-.8-.8.86.86,0,0,1,.8-.8h.6a.789.789,0,0,1,.8.8A.736.736,0,0,1,273.4,101.9Zm-4.9,0a.86.86,0,0,1-.8-.8.789.789,0,0,1,.8-.8h.5a.86.86,0,0,1,.8.8.789.789,0,0,1-.8.8Z" fill="#3d3736"/>
        <g id="그룹_4676" data-name="그룹 4676">
          <g id="그룹_4665" data-name="그룹 4665">
            <g id="그룹_4662" data-name="그룹 4662">
              <path id="패스_4456" data-name="패스 4456" d="M254.3,238.8a11.7,11.7,0,0,0,0,23.4h62.2V238.9H254.3Z" fill="#fff"/>
              <path id="패스_4457" data-name="패스 4457" d="M316.5,262.9H254.3a12.5,12.5,0,0,1,0-25h62.2a.789.789,0,0,1,.8.8V262A.765.765,0,0,1,316.5,262.9Zm-62.2-23.3a10.8,10.8,0,0,0,0,21.6h61.4V239.5H254.3Z" fill="#eee"/>
            </g>
            <g id="그룹_4663" data-name="그룹 4663">
              <path id="패스_4458" data-name="패스 4458" d="M292.7,238.8a11.7,11.7,0,1,0,0,23.4h62.2V238.9H292.7Z" fill="#fff"/>
              <path id="패스_4459" data-name="패스 4459" d="M354.9,262.9H292.7a12.5,12.5,0,0,1,0-25h62.2a.789.789,0,0,1,.8.8V262A.817.817,0,0,1,354.9,262.9Zm-62.2-23.3a10.8,10.8,0,0,0,0,21.6h61.4V239.5H292.7Z" fill="#c9cdd2"/>
            </g>
            <g id="그룹_4664" data-name="그룹 4664">
              <path id="패스_4460" data-name="패스 4460" d="M292.9,242.8a7.6,7.6,0,1,0,0,15.2h62V242.8Z" fill="#fff"/>
              <path id="패스_4461" data-name="패스 4461" d="M354.9,258.8h-62a8.4,8.4,0,1,1,0-16.8h62a.789.789,0,0,1,.8.8V258A.736.736,0,0,1,354.9,258.8Zm-62-15.2a6.8,6.8,0,0,0,0,13.6H354V243.6Z" fill="#c9cdd2"/>
            </g>
          </g>
          <g id="그룹_4670" data-name="그룹 4670">
            <g id="그룹_4666" data-name="그룹 4666">
              <path id="패스_4462" data-name="패스 4462" d="M352.8,221.7a11.7,11.7,0,1,0,0-23.4H290.6v23.3h62.2Z" fill="#fff"/>
              <path id="패스_4463" data-name="패스 4463" d="M352.8,222.5H290.6a.789.789,0,0,1-.8-.8V198.4a.789.789,0,0,1,.8-.8h62.2a12.45,12.45,0,1,1,0,24.9Zm-61.4-1.7h61.4a10.8,10.8,0,0,0,0-21.6H291.4Z" fill="#c9cdd2"/>
            </g>
            <g id="그룹_4669" data-name="그룹 4669">
              <g id="그룹_4667" data-name="그룹 4667">
                <path id="패스_4464" data-name="패스 4464" d="M324.1,221.7a11.7,11.7,0,1,0,0-23.4H252.2v23.3h71.9Z" fill="#fff"/>
                <path id="패스_4465" data-name="패스 4465" d="M324.1,222.5H252.2a.789.789,0,0,1-.8-.8V198.4a.789.789,0,0,1,.8-.8h71.9a12.45,12.45,0,1,1,0,24.9ZM253,220.8h71.1a10.8,10.8,0,0,0,0-21.6H253Z" fill="#c9cdd2"/>
              </g>
              <g id="그룹_4668" data-name="그룹 4668">
                <path id="패스_4466" data-name="패스 4466" d="M323.8,217.6a7.6,7.6,0,0,0,0-15.2H252.2v15.2h71.6Z" fill="#fff"/>
                <path id="패스_4467" data-name="패스 4467" d="M323.8,218.4H252.2a.789.789,0,0,1-.8-.8V202.4a.789.789,0,0,1,.8-.8h71.6a8.451,8.451,0,0,1,8.4,8.4A8.323,8.323,0,0,1,323.8,218.4ZM253,216.8h70.8a6.8,6.8,0,0,0,0-13.6H253Z" fill="#c9cdd2"/>
              </g>
            </g>
          </g>
          <g id="그룹_4675" data-name="그룹 4675">
            <g id="그룹_4671" data-name="그룹 4671">
              <path id="패스_4468" data-name="패스 4468" d="M233.7,221.7a8.6,8.6,0,0,0,0,17.2h94.7V221.7H233.7Z" fill="#fff"/>
              <path id="패스_4469" data-name="패스 4469" d="M328.4,239.8H233.7a9.4,9.4,0,1,1,0-18.8h94.7a.789.789,0,0,1,.8.8V239A.789.789,0,0,1,328.4,239.8Zm-94.7-17.3a7.8,7.8,0,0,0,0,15.6h93.9V222.5Z" fill="#c9cdd2"/>
            </g>
            <g id="그룹_4674" data-name="그룹 4674">
              <g id="그룹_4672" data-name="그룹 4672">
                <path id="패스_4470" data-name="패스 4470" d="M338.1,224.7H311a5.6,5.6,0,0,0,0,11.2h27.1a10.6,10.6,0,0,1,0-11.2Z" fill="#fff"/>
                <path id="패스_4471" data-name="패스 4471" d="M338.1,236.8H311a6.445,6.445,0,0,1-6.4-6.4A6.38,6.38,0,0,1,311,224h27.1a.842.842,0,0,1,.7.4,1.1,1.1,0,0,1,0,.8,9.08,9.08,0,0,0-1.5,5.2,9.309,9.309,0,0,0,1.5,5.2.6.6,0,0,1,0,.8A.842.842,0,0,1,338.1,236.8ZM311,225.5a4.8,4.8,0,0,0,0,9.6h25.7a10.869,10.869,0,0,1-1-4.8,12.469,12.469,0,0,1,1-4.8Z" fill="#c9cdd2"/>
              </g>
              <g id="그룹_4673" data-name="그룹 4673">
                <path id="패스_4472" data-name="패스 4472" d="M311,224.7h28.5v-3H310.7a8.6,8.6,0,1,0,0,17.2h28.8v-3H311a5.6,5.6,0,0,1,0-11.2Z" fill="#fff"/>
                <path id="패스_4473" data-name="패스 4473" d="M339.5,239.8H310.8a9.4,9.4,0,0,1,0-18.8h28.7a.789.789,0,0,1,.8.8v3a.789.789,0,0,1-.8.8H311a4.8,4.8,0,0,0,0,9.6h28.5a.789.789,0,0,1,.8.8v3A.789.789,0,0,1,339.5,239.8Zm-28.7-17.3a7.8,7.8,0,0,0,0,15.6h27.9v-1.4H311a6.445,6.445,0,0,1-6.4-6.4,6.38,6.38,0,0,1,6.4-6.4h27.7v-1.4H310.8Z" fill="#c9cdd2"/>
              </g>
            </g>
          </g>
        </g>
        <g id="그룹_4677" data-name="그룹 4677">
          <line id="선_55" data-name="선 55" x2="364.9" transform="translate(2.4 262.1)" fill="#fff"/>
          <path id="패스_4474" data-name="패스 4474" d="M367.3,262.9H2.4a.8.8,0,1,1,0-1.6H367.3a.8.8,0,1,1,0,1.6Z" fill="#3d3736"/>
        </g>
        <g id="그룹_4686" data-name="그룹 4686">
          <g id="그룹_4684" data-name="그룹 4684">
            <g id="그룹_4680" data-name="그룹 4680">
              <g id="그룹_4678" data-name="그룹 4678">
                <rect id="사각형_802" data-name="사각형 802" width="50.3" height="35.6" transform="translate(89.5 224.4)" fill="#fff"/>
                <path id="패스_4475" data-name="패스 4475" d="M139.8,260.8H89.5a.789.789,0,0,1-.8-.8V224.4a.789.789,0,0,1,.8-.8h50.3a.789.789,0,0,1,.8.8V260A.789.789,0,0,1,139.8,260.8Zm-49.4-1.6H139v-34H90.4Z" fill="#3d3736"/>
              </g>
              <g id="그룹_4679" data-name="그룹 4679">
                <path id="패스_4476" data-name="패스 4476" d="M89.5,235.3V224.4h50.3v10.9" fill="#7ebaff"/>
                <path id="패스_4477" data-name="패스 4477" d="M139.8,236.1a.789.789,0,0,1-.8-.8v-10H90.4v10a.8.8,0,0,1-1.6,0V224.5a.789.789,0,0,1,.8-.8h50.3a.789.789,0,0,1,.8.8v10.8A.961.961,0,0,1,139.8,236.1Z" fill="#3d3736"/>
              </g>
            </g>
            <g id="그룹_4683" data-name="그룹 4683">
              <g id="그룹_4681" data-name="그룹 4681">
                <rect id="사각형_803" data-name="사각형 803" width="168.1" height="143.6" transform="translate(30.6 85.5)" fill="#fff"/>
                <path id="패스_4478" data-name="패스 4478" d="M198.7,229.9H30.6a.789.789,0,0,1-.8-.8V85.5a.789.789,0,0,1,.8-.8H198.7a.789.789,0,0,1,.8.8V229.1C199.6,229.5,199.2,229.9,198.7,229.9ZM31.4,228.2H197.9V86.2H31.4Z" fill="#3d3736"/>
              </g>
              <g id="그룹_4682" data-name="그룹 4682">
                <path id="패스_4479" data-name="패스 4479" d="M52.2,200.3H30.6v28.8H198.7V200.3H64.7" fill="#e8ebed"/>
                <path id="패스_4480" data-name="패스 4480" d="M198.7,229.9H30.6a.789.789,0,0,1-.8-.8V200.3a.789.789,0,0,1,.8-.8H52.2a.8.8,0,0,1,0,1.6H31.4v27.1H197.9V201.1H64.7a.8.8,0,0,1,0-1.6H198.8a.789.789,0,0,1,.8.8v28.8A.882.882,0,0,1,198.7,229.9Z" fill="#3d3736"/>
              </g>
            </g>
          </g>
          <g id="그룹_4685" data-name="그룹 4685">
            <path id="패스_4481" data-name="패스 4481" d="M159.4,256.5a5.484,5.484,0,0,1-5.5,5.5H75.5a5.484,5.484,0,0,1-5.5-5.5h0a5.484,5.484,0,0,1,5.5-5.5h78.3a5.57,5.57,0,0,1,5.6,5.5Z" fill="#fff"/>
            <path id="패스_4482" data-name="패스 4482" d="M153.8,262.9H75.5a6.4,6.4,0,1,1,0-12.8h78.3a6.445,6.445,0,0,1,6.4,6.4A6.38,6.38,0,0,1,153.8,262.9ZM75.5,251.8a4.7,4.7,0,0,0,0,9.4h78.3a4.7,4.7,0,0,0,0-9.4Z" fill="#3d3736"/>
          </g>
        </g>
        <g id="그룹_4695" data-name="그룹 4695">
          <path id="패스_4483" data-name="패스 4483" d="M123.9,169.6a.755.755,0,0,1-.7-.4.885.885,0,0,1,.2-1.1c.3-.2,6.7-4.3,10.7-4.5,1.9-.1,3.3-1,3.4-1.7s-.9-1.2-1.3-1.4c-3.2-1.4-9.5.2-9.6.2a1.008,1.008,0,0,1-.9-.3.769.769,0,0,1,.1-1c0-.1,1-1.3.3-2.2-.8.1-3.2,2.6-5.3,5.4a.791.791,0,1,1-1.3-.9c1-1.4,4.5-5.9,6.5-6.1a1.594,1.594,0,0,1,1.2.4,2.668,2.668,0,0,1,.7,2.7c2.3-.4,6.4-.9,9,.2,2.4,1.1,2.3,2.6,2.2,3.2-.3,1.7-2.4,3-5,3.1-3.6.2-9.8,4.2-9.9,4.2C124.2,169.6,124,169.6,123.9,169.6Z" fill="#3d3736"/>
          <path id="패스_4484" data-name="패스 4484" d="M104.1,182.9a9.3,9.3,0,0,1-4.6-1.2,86.279,86.279,0,0,1-11.7-7.8.781.781,0,0,1,1-1.2,88.972,88.972,0,0,0,11.4,7.6c5.5,3,10.3-1.7,10.4-1.8a.349.349,0,0,1,.2-.1l12.6-7.7a46.8,46.8,0,0,0-4.4-9.2l-13.6,7.8a1.1,1.1,0,0,1-.8,0c-1.1-.5-4.1-7-6.5-12.3-4.8-10.7-10.3-10.4-10.4-10.4a.806.806,0,1,1-.2-1.6c.3,0,6.8-.4,12,11.3,3.4,7.6,5,10.3,5.6,11.2l13.7-7.9a.8.8,0,0,1,1.1.3c.2.3,4.1,6.5,5.2,10.9a.87.87,0,0,1-.4.9l-13,8A11.348,11.348,0,0,1,104.1,182.9Z" fill="#3d3736"/>
          <g id="그룹_4687" data-name="그룹 4687">
            <path id="패스_4485" data-name="패스 4485" d="M94.2,153.2s-1,2.1.3,6.8c1.4,4.7,4.4,10.3,1,16.3,0,0-1.9,17.7.3,23.9H71.4L67,157s.2-12.9,12.8-12.8" fill="#fff"/>
            <path id="패스_4486" data-name="패스 4486" d="M95.9,201.1H71.4a.773.773,0,0,1-.8-.7l-4.4-43.2v-.1a18.346,18.346,0,0,1,1.7-6.8c1.6-3.1,4.9-6.8,11.8-6.8a.8.8,0,1,1,0,1.6c-4.9-.1-8.4,1.9-10.4,5.9a16.266,16.266,0,0,0-1.6,6L72,199.4H94.6c-1.8-7.1-.1-22.5-.1-23.2a.367.367,0,0,1,.1-.3c2.6-4.6,1.1-9-.3-13.2a24.13,24.13,0,0,1-.8-2.5c-1.4-4.9-.4-7.2-.3-7.4a.828.828,0,0,1,1.5.7c0,.1-.9,2,.4,6.2a22.5,22.5,0,0,0,.8,2.4c1.5,4.3,3.1,9.1.3,14.4-.2,1.8-1.7,17.7.3,23.4a.592.592,0,0,1-.1.7A.472.472,0,0,1,95.9,201.1Z" fill="#3d3736"/>
          </g>
          <g id="그룹_4688" data-name="그룹 4688">
            <path id="패스_4487" data-name="패스 4487" d="M97.8,130.5s2.6-2.4,1.2-7.5-4.7-8.6-11-7.9-13.6-2.3-14.3,8.2,0,12.4,5.2,16.1" fill="#fff"/>
            <path id="패스_4488" data-name="패스 4488" d="M79,140.2a.9.9,0,0,1-.5-.1c-5.6-3.9-6.3-6.1-5.6-16.8.6-9,6.1-8.9,11-8.9,1.3,0,2.7,0,4-.1,6.1-.7,10.2,2.3,11.9,8.5,1.5,5.5-1.3,8.2-1.5,8.3a.849.849,0,0,1-1.2-1.2c.1-.1,2.2-2.2,1-6.7-1.5-5.4-4.9-7.8-10.1-7.3a29.463,29.463,0,0,1-4.2.1c-5-.1-8.9-.1-9.4,7.3-.7,10.6.1,12,4.9,15.4a.731.731,0,0,1,.2,1.1C79.5,140.1,79.2,140.2,79,140.2Z" fill="#3d3736"/>
          </g>
          <g id="그룹_4689" data-name="그룹 4689">
            <path id="패스_4489" data-name="패스 4489" d="M88.1,143.1s-1.6,4.4-.7,6.8,1.9,8.4,1.2,11.9c0,0-1.9-12.1-12.6-17l1.7-8.4" fill="#fff"/>
            <path id="패스_4490" data-name="패스 4490" d="M88.6,162.6h0a.849.849,0,0,1-.8-.7c0-.1-2-11.7-12.1-16.3a1.05,1.05,0,0,1-.5-.9l1.7-8.4a.825.825,0,1,1,1.6.4l-1.6,7.8a23.057,23.057,0,0,1,10.9,12.2,27.434,27.434,0,0,0-1.3-6.4c-1-2.7.6-7.2.7-7.4a.791.791,0,0,1,1.5.5c-.4,1.1-1.3,4.5-.7,6.3.9,2.4,2,8.6,1.3,12.3A.669.669,0,0,1,88.6,162.6Z" fill="#3d3736"/>
          </g>
          <g id="그룹_4690" data-name="그룹 4690">
            <path id="패스_4491" data-name="패스 4491" d="M91.9,119.4s6.9,2.6,6,11.1c-1,8.5-1,14.7-6.9,14.3a11.131,11.131,0,0,1-10.1-6.9s-3.2-.2-3.4-3.2.8-3.8,3.6-2.6c0,0,8.7-1.8,9.5-8.1a5.624,5.624,0,0,1,.4,5.2C90.9,129.1,97.6,124.7,91.9,119.4Z" fill="#fff"/>
            <path id="패스_4492" data-name="패스 4492" d="M91.4,145.6h-.6c-6.8-.5-9.6-4.8-10.6-7a4.257,4.257,0,0,1-3.6-3.9c-.1-1.6.1-2.7.7-3.3.8-.8,1.9-.9,3.7-.2,1.3-.3,8-2.2,8.6-7.4a.858.858,0,0,1,.6-.7.806.806,0,0,1,.9.3,5.826,5.826,0,0,1,1,3.4,4.807,4.807,0,0,0,1.2-2.7,5.528,5.528,0,0,0-2-4.2.769.769,0,0,1-.1-1,.777.777,0,0,1,1-.3c.1,0,7.5,2.9,6.5,12-.1.8-.2,1.7-.3,2.5-.8,7-1.4,12.5-7,12.5ZM79,132.4a2.034,2.034,0,0,0-.5.1,3.256,3.256,0,0,0-.3,2.1,2.624,2.624,0,0,0,2.6,2.4.752.752,0,0,1,.7.5c.7,1.8,3.1,6,9.4,6.4h.5c4,0,4.5-3.6,5.3-11.1.1-.8.2-1.6.3-2.5a9.884,9.884,0,0,0-2.2-7.9,5.462,5.462,0,0,1,.1,1.8c-.3,3.3-3.5,5.4-3.7,5.5a.769.769,0,0,1-1-.1.651.651,0,0,1-.2-.9,6.048,6.048,0,0,0,.4-2.2c-2.4,4.7-9.1,6.2-9.4,6.2h-.5A4.936,4.936,0,0,0,79,132.4Z" fill="#3d3736"/>
          </g>
          <g id="그룹_4691" data-name="그룹 4691">
            <path id="패스_4493" data-name="패스 4493" d="M79.1,116.2a5.6,5.6,0,1,0-5.6,5.6A5.591,5.591,0,0,0,79.1,116.2Z" fill="#fff"/>
            <path id="패스_4494" data-name="패스 4494" d="M73.5,122.6a6.4,6.4,0,1,1,6.4-6.4A6.318,6.318,0,0,1,73.5,122.6Zm0-11.2a4.8,4.8,0,1,0,4.8,4.8A4.739,4.739,0,0,0,73.5,111.4Z" fill="#3d3736"/>
          </g>
          <path id="패스_4495" data-name="패스 4495" d="M79.7,127.6a.6.6,0,0,1-.4-.1,6.355,6.355,0,0,1-3.2-6.3c-3.8-.9-5.3-5.1-5.4-5.3a.791.791,0,1,1,1.5-.5h0s1.5,4.1,4.9,4.3a.822.822,0,0,1,.6.4.878.878,0,0,1,.1.7,4.821,4.821,0,0,0,2.3,5.4.8.8,0,0,1,.3,1.1A1.08,1.08,0,0,1,79.7,127.6Z" fill="#3d3736"/>
          <path id="패스_4496" data-name="패스 4496" d="M95.7,137.6a.789.789,0,0,1-.8-.8.773.773,0,0,1,.7-.8,3.807,3.807,0,0,0,.5-.6,5.371,5.371,0,0,1-1.2-3.7.806.806,0,0,1,1.6.2,3.678,3.678,0,0,0,1.2,2.8.959.959,0,0,1,.2.9C97.6,136.2,96.9,137.6,95.7,137.6Z" fill="#3d3736"/>
          <path id="패스_4497" data-name="패스 4497" d="M92.3,133c0,.8-.4,1.4-.8,1.4s-.8-.6-.8-1.4.4-1.4.8-1.4C92,131.6,92.3,132.2,92.3,133Z" fill="#3d3736"/>
          <g id="그룹_4692" data-name="그룹 4692">
            <path id="패스_4498" data-name="패스 4498" d="M91.5,139.4s1.4,1.6,4.5.5" fill="#fff"/>
            <path id="패스_4499" data-name="패스 4499" d="M94.1,141.1a3.742,3.742,0,0,1-3.1-1.2.823.823,0,0,1,.1-1.2.713.713,0,0,1,1.1.1c.1.1,1.2,1.1,3.7.3a.791.791,0,0,1,.5,1.5A5.626,5.626,0,0,1,94.1,141.1Z" fill="#3d3736"/>
          </g>
          <g id="그룹_4693" data-name="그룹 4693">
            <path id="패스_4500" data-name="패스 4500" d="M94.3,184.7s2.8,1.4,5.6-1.7,3.8.9,5.2-1.9-2.1-6.5-5.9-5.9a12.445,12.445,0,0,0-5.8,2.1" fill="#fff"/>
            <path id="패스_4501" data-name="패스 4501" d="M95.9,185.8a6.2,6.2,0,0,1-2-.4.828.828,0,1,1,.7-1.5c.1.1,2.3,1,4.6-1.6,1.8-2.1,3.3-1.6,4.2-1.3.6.2.6.2,1-.5a2.5,2.5,0,0,0-.4-2.7,5.126,5.126,0,0,0-4.7-2,13.565,13.565,0,0,0-5.4,1.9.772.772,0,0,1-1.1-.1.784.784,0,0,1,.1-1.1,12.929,12.929,0,0,1,6.2-2.3,6.665,6.665,0,0,1,6.2,2.7,4.2,4.2,0,0,1,.5,4.4c-1,2-2.2,1.5-3,1.3-.7-.2-1.3-.4-2.4.8A5.379,5.379,0,0,1,95.9,185.8Z" fill="#3d3736"/>
          </g>
          <g id="그룹_4694" data-name="그룹 4694">
            <path id="패스_4502" data-name="패스 4502" d="M76,144.8s-8,1-11.5,4-4.7,6.3-4.2,14.9L62.7,177s1.7,10.1,8.6,10.7l23.2-1.4s1.9-7.3-1-10.8c0,0-12.4-1.7-17,.3,0,0-3.5-18.5-7.7-22.9" fill="#fff"/>
            <path id="패스_4503" data-name="패스 4503" d="M71.3,188.5h0c-7.4-.6-9.3-10.9-9.4-11.3l-2.4-13.3v-.1c-.5-8.4.6-12.2,4.5-15.5,3.6-3.1,11.6-4.2,12-4.2a.806.806,0,1,1,.2,1.6c-.1,0-7.8,1.1-11.1,3.8-3.1,2.6-4.4,5.4-3.9,14.1l2.4,13.2c0,.1,1.7,9.5,7.8,10L94,185.4c.3-1.7,1.1-6.6-.8-9.3-2-.3-12.3-1.5-16.2.3a.854.854,0,0,1-.7,0,.675.675,0,0,1-.4-.6c0-.2-3.5-18.3-7.5-22.5a.849.849,0,0,1,1.2-1.2c3.8,4,6.9,18.5,7.7,22.4,5.2-1.6,16-.1,16.5-.1a.55.55,0,0,1,.5.3c3.2,3.8,1.3,11.3,1.2,11.6a.858.858,0,0,1-.7.6l-23.5,1.6Z" fill="#3d3736"/>
          </g>
          <path id="패스_4504" data-name="패스 4504" d="M86.7,165.9a.842.842,0,0,1-.7-.4c-3.2-6.2-10.4-11.7-10.4-11.8a1.08,1.08,0,0,1-.3-.7c.3-2.8-2.3-6.6-2.3-6.6a.791.791,0,1,1,1.3-.9c.1.2,2.7,3.9,2.6,7.3,1.5,1.2,7.6,6.2,10.5,12.1A.841.841,0,0,1,87,166,.367.367,0,0,0,86.7,165.9Z" fill="#3d3736"/>
          <path id="패스_4505" data-name="패스 4505" d="M125.1,164.9a.908.908,0,0,1-.7-.3.71.71,0,0,1,.2-1.1c1.5-1.1,1.1-3.4,1.1-3.4a.863.863,0,1,1,1.7-.3c0,.1.6,3.3-1.7,5C125.4,164.8,125.3,164.9,125.1,164.9Z" fill="#3d3736"/>
        </g>
        <g id="그룹_4702" data-name="그룹 4702">
          <g id="그룹_4700" data-name="그룹 4700">
            <g id="그룹_4696" data-name="그룹 4696">
              <rect id="사각형_804" data-name="사각형 804" width="56.7" height="79.8" transform="translate(20.4 182.3)" fill="#e55838"/>
              <path id="패스_4506" data-name="패스 4506" d="M77.1,262.9H20.4a.789.789,0,0,1-.8-.8V182.3a.789.789,0,0,1,.8-.8H77.1a.789.789,0,0,1,.8.8v79.8A.86.86,0,0,1,77.1,262.9Zm-55.8-1.6h55V183.1h-55v78.2Z" fill="#3d3736"/>
            </g>
            <g id="그룹_4697" data-name="그룹 4697">
              <rect id="사각형_805" data-name="사각형 805" width="56.7" height="79.8" transform="translate(16.2 182.3)" fill="#fff"/>
              <path id="패스_4507" data-name="패스 4507" d="M72.8,262.9H16.2a.789.789,0,0,1-.8-.8V182.3a.789.789,0,0,1,.8-.8H72.9a.789.789,0,0,1,.8.8v79.8A.882.882,0,0,1,72.8,262.9ZM17,261.3H72V183.1H17Z" fill="#3d3736"/>
            </g>
            <g id="그룹_4698" data-name="그룹 4698">
              <rect id="사각형_806" data-name="사각형 806" width="56.7" height="79.8" transform="translate(0.8 182.3)" fill="#ff7657"/>
              <path id="패스_4508" data-name="패스 4508" d="M57.5,262.9H.8a.789.789,0,0,1-.8-.8V182.3a.789.789,0,0,1,.8-.8H57.5a.789.789,0,0,1,.8.8v79.8A.86.86,0,0,1,57.5,262.9ZM1.6,261.3h55V183.1H1.6v78.2Z" fill="#3d3736"/>
            </g>
            <g id="그룹_4699" data-name="그룹 4699">
              <path id="패스_4509" data-name="패스 4509" d="M56.4,182.3h4v79.8h-4" fill="#e55838"/>
              <path id="패스_4510" data-name="패스 4510" d="M60.4,262.9h-4a.8.8,0,1,1,0-1.6h3.2V183.1H56.4a.8.8,0,0,1,0-1.6h4a.789.789,0,0,1,.8.8v79.8A.789.789,0,0,1,60.4,262.9Z" fill="#3d3736"/>
            </g>
          </g>
          <g id="그룹_4701" data-name="그룹 4701">
            <path id="패스_4511" data-name="패스 4511" d="M64.9,255.5a.789.789,0,0,1-.8-.8V189.6a.789.789,0,0,1,.8-.8.86.86,0,0,1,.8.8v65.1C65.8,255.2,65.4,255.5,64.9,255.5Z" fill="#eee"/>
            <path id="패스_4512" data-name="패스 4512" d="M68.5,255.5a.789.789,0,0,1-.8-.8V189.6a.8.8,0,1,1,1.6,0v65.1C69.4,255.2,69,255.5,68.5,255.5Z" fill="#eee"/>
          </g>
          <path id="패스_4513" data-name="패스 4513" d="M50.9,257H6.7a.789.789,0,0,1-.8-.8v-68a.789.789,0,0,1,.8-.8H50.8a.789.789,0,0,1,.8.8v68A.709.709,0,0,1,50.9,257ZM7.5,255.4H50V189H7.5Z" fill="#fff"/>
          <path id="패스_4514" data-name="패스 4514" d="M39.2,216.4H18.4a.8.8,0,0,1,0-1.6H39.2a.8.8,0,0,1,0,1.6Z" fill="#fff"/>
          <path id="패스_4515" data-name="패스 4515" d="M39.2,222.6H18.4a.8.8,0,0,1,0-1.6H39.2a.8.8,0,0,1,0,1.6Z" fill="#fff"/>
          <path id="패스_4516" data-name="패스 4516" d="M43.7,246.4H13.9a.8.8,0,0,1,0-1.6H43.7a.8.8,0,0,1,0,1.6Z" fill="#fff"/>
        </g>
        <g id="그룹_4705" data-name="그룹 4705">
          <g id="그룹_4704" data-name="그룹 4704">
            <g id="그룹_4703" data-name="그룹 4703">
              <rect id="사각형_807" data-name="사각형 807" width="14.9" height="98.3" transform="translate(198.8 163.8)" fill="#7ebaff"/>
              <path id="패스_4517" data-name="패스 4517" d="M213.8,262.9H198.9a.789.789,0,0,1-.8-.8V163.8a.789.789,0,0,1,.8-.8h14.9a.789.789,0,0,1,.8.8v98.3A.86.86,0,0,1,213.8,262.9Zm-14.1-1.6H213V164.6H199.7Z" fill="#3d3736"/>
            </g>
            <path id="패스_4518" data-name="패스 4518" d="M209.9,173.7h-7.1a.8.8,0,0,1,0-1.6h7.1a.789.789,0,0,1,.8.8A.86.86,0,0,1,209.9,173.7Z" fill="#3d3736"/>
            <path id="패스_4519" data-name="패스 4519" d="M209.9,246.3h-7.1a.789.789,0,0,1-.8-.8.86.86,0,0,1,.8-.8h7.1a.789.789,0,0,1,.8.8A.86.86,0,0,1,209.9,246.3Z" fill="#3d3736"/>
            <path id="패스_4520" data-name="패스 4520" d="M209.9,251.6h-7.1a.8.8,0,0,1,0-1.6h7.1a.789.789,0,0,1,.8.8A.86.86,0,0,1,209.9,251.6Z" fill="#3d3736"/>
          </g>
          <path id="패스_4521" data-name="패스 4521" d="M209.1,233.2h-5.5a.789.789,0,0,1-.8-.8V181a.789.789,0,0,1,.8-.8h5.5a.789.789,0,0,1,.8.8v51.4A.789.789,0,0,1,209.1,233.2Zm-4.7-1.6h3.9V181.8h-3.9Z" fill="#fff"/>
        </g>
        <g id="그룹_4708" data-name="그룹 4708">
          <g id="그룹_4707" data-name="그룹 4707">
            <g id="그룹_4706" data-name="그룹 4706">
              <rect id="사각형_808" data-name="사각형 808" width="18.1" height="98.3" transform="translate(214.08 165.298) rotate(-10.259)" fill="#ff7657"/>
              <path id="패스_4522" data-name="패스 4522" d="M231.6,262.9a.849.849,0,0,1-.8-.7l-17.5-96.7a1.268,1.268,0,0,1,.1-.6.55.55,0,0,1,.5-.3l17.8-3.2a.737.737,0,0,1,.9.7l17.5,96.7a1.268,1.268,0,0,1-.1.6.55.55,0,0,1-.5.3l-17.8,3.2ZM215,166l17.2,95.1,16.2-2.9-17.2-95.1Z" fill="#3d3736"/>
            </g>
            <path id="패스_4523" data-name="패스 4523" d="M219.6,174.4a.849.849,0,0,1-.8-.7.737.737,0,0,1,.7-.9l10.1-1.8a.806.806,0,0,1,.2,1.6l-10.1,1.8Z" fill="#3d3736"/>
            <path id="패스_4524" data-name="패스 4524" d="M232.5,245.9a.849.849,0,0,1-.8-.7.737.737,0,0,1,.7-.9l10.1-1.8a.806.806,0,1,1,.2,1.6l-10.1,1.8Z" fill="#3d3736"/>
            <path id="패스_4525" data-name="패스 4525" d="M233.5,251.1a.849.849,0,0,1-.8-.7.737.737,0,0,1,.7-.9l10.1-1.8a.806.806,0,0,1,.2,1.6l-10.1,1.8Z" fill="#3d3736"/>
          </g>
          <path id="패스_4526" data-name="패스 4526" d="M231,232.9c-.2,0-.3-.1-.5-.1a.55.55,0,0,1-.3-.5L221,181.7a.737.737,0,0,1,.7-.9l8.5-1.5a1.268,1.268,0,0,1,.6.1.55.55,0,0,1,.3.5l9.2,50.6a.737.737,0,0,1-.7.9l-8.5,1.5Zm-8.2-50.8,8.9,49,6.9-1.3-8.9-49Z" fill="#fff"/>
        </g>
        <g id="그룹_4709" data-name="그룹 4709">
          <path id="패스_4527" data-name="패스 4527" d="M166.6,106.4H41.5a.789.789,0,0,1-.8-.8V96.2a.789.789,0,0,1,.8-.8H166.6a.789.789,0,0,1,.8.8v9.4A.86.86,0,0,1,166.6,106.4ZM42.4,104.7H165.8V96.9H42.4Z" fill="#c9cdd2"/>
          <path id="패스_4528" data-name="패스 4528" d="M187.8,106.4H174.4a.789.789,0,0,1-.8-.8V96.2a.789.789,0,0,1,.8-.8h13.4a.789.789,0,0,1,.8.8v9.4C188.7,106,188.3,106.4,187.8,106.4Zm-12.5-1.7H187V96.9H175.3Z" fill="#c9cdd2"/>
        </g>
        <path id="패스_4529" data-name="패스 4529" d="M66.7,141.8a.756.756,0,0,1-.4-.1l-.5-.2a.828.828,0,1,1,.7-1.5l.5.2a.841.841,0,0,1,.4,1.1C67.2,141.7,67,141.8,66.7,141.8Zm-3.9-2a.6.6,0,0,1-.4-.1l-.5-.3a.806.806,0,0,1,.8-1.4l.5.3a.8.8,0,0,1,.3,1.1A.755.755,0,0,1,62.8,139.8ZM59,137.6a.6.6,0,0,1-.4-.1l-.5-.3a.806.806,0,0,1,.8-1.4l.5.3a.8.8,0,0,1,.3,1.1A.755.755,0,0,1,59,137.6Zm-3.6-2.4c-.2,0-.3-.1-.5-.2l-.4-.3a.791.791,0,1,1,.9-1.3l.4.3a.814.814,0,0,1,.2,1.1A.622.622,0,0,1,55.4,135.2ZM52,132.5a.764.764,0,0,1-.5-.2c-.1-.1-.3-.2-.4-.4a.851.851,0,0,1,1.1-1.3c.1.1.3.2.4.4a.91.91,0,0,1,.1,1.2A1.329,1.329,0,0,1,52,132.5Zm-3.2-3a.864.864,0,0,1-.6-.3l-.4-.4a.849.849,0,0,1,1.2-1.2c.1.1.2.3.4.4a.91.91,0,0,1,0,1.2A.6.6,0,0,1,48.8,129.5ZM46,126.2a1.08,1.08,0,0,1-.7-.3c-.1-.1-.2-.3-.3-.4a.791.791,0,0,1,1.3-.9c.1.1.2.3.3.4a.71.71,0,0,1-.2,1.1A.6.6,0,0,1,46,126.2Zm-2.4-3.6a.842.842,0,0,1-.7-.4c-.1-.2-.2-.3-.3-.5a.806.806,0,1,1,1.4-.8c.1.2.2.3.3.5a.8.8,0,0,1-.3,1.1A.756.756,0,0,1,43.6,122.6Zm-1.9-3.9a1.02,1.02,0,0,1-.8-.5c-.1-.2-.1-.4-.2-.5a.791.791,0,1,1,1.5-.5c.1.2.1.3.2.5a.891.891,0,0,1-.5,1.1C41.9,118.6,41.8,118.7,41.7,118.7Zm-1.1-4.2a.849.849,0,0,1-.8-.7c0-.2-.1-.4-.1-.6a.806.806,0,0,1,1.6-.2c0,.2.1.3.1.5a.887.887,0,0,1-.6,1Zm-.5-4.4h0a.789.789,0,0,1-.8-.8v-.6a.851.851,0,1,1,1.7.1v.5A.817.817,0,0,1,40.1,110.1Zm.6-4.3h-.2a.832.832,0,0,1-.6-1,4.331,4.331,0,0,1,.1-.5.825.825,0,1,1,1.6.4c0,.2-.1.3-.1.5A.76.76,0,0,1,40.7,105.8Zm1.4-4a.367.367,0,0,1-.3-.1.841.841,0,0,1-.4-1.1c.1-.2.2-.3.2-.5a.828.828,0,0,1,1.5.7c-.1.2-.2.3-.2.5A1.02,1.02,0,0,1,42.1,101.8ZM44.3,98a.9.9,0,0,1-.5-.1.731.731,0,0,1-.2-1.1c.1-.2.2-.3.3-.5a.791.791,0,0,1,1.3.9c-.1.1-.2.3-.3.4A.548.548,0,0,1,44.3,98ZM47,94.6a.764.764,0,0,1-.5-.2.91.91,0,0,1-.1-1.2c.1-.1.2-.3.4-.4A.849.849,0,0,1,48,94c-.1.1-.2.3-.4.4A1.072,1.072,0,0,1,47,94.6Zm3.1-3.1a.864.864,0,0,1-.6-.3.823.823,0,0,1,.1-1.2c.1-.1.3-.2.4-.4a.851.851,0,1,1,1.1,1.3c-.1.1-.3.2-.4.4A1.421,1.421,0,0,1,50.1,91.5Zm3.4-2.8a.713.713,0,0,1-.6-.3.772.772,0,0,1,.1-1.1l.4-.3a.791.791,0,1,1,.9,1.3l-.3.3A1.087,1.087,0,0,1,53.5,88.7ZM57,86.2a.755.755,0,0,1-.7-.4.71.71,0,0,1,.2-1.1l.5-.3a.791.791,0,1,1,.9,1.3l-.5.3A.758.758,0,0,1,57,86.2Zm3.7-2.4a.755.755,0,0,1-.7-.4.8.8,0,0,1,.3-1.1l.5-.3a.806.806,0,0,1,.8,1.4l-.5.3A.6.6,0,0,1,60.7,83.8Zm3.8-2.2a.842.842,0,0,1-.7-.4.8.8,0,0,1,.3-1.1l.5-.3a.806.806,0,1,1,.8,1.4l-.5.3A.756.756,0,0,1,64.5,81.6Zm3.8-2a.752.752,0,0,1-.7-.5A.841.841,0,0,1,68,78l.5-.2a.828.828,0,0,1,.7,1.5l-.5.2A.6.6,0,0,1,68.3,79.6Zm4-1.9a.752.752,0,0,1-.7-.5.841.841,0,0,1,.4-1.1l.5-.2a.828.828,0,0,1,.7,1.5l-.5.2A.756.756,0,0,1,72.3,77.7Zm4-1.7a1.02,1.02,0,0,1-.8-.5.841.841,0,0,1,.4-1.1l.5-.2a.828.828,0,0,1,.7,1.5l-.5.2C76.5,75.9,76.4,76,76.3,76Zm4-1.7a1.02,1.02,0,0,1-.8-.5.809.809,0,0,1,.5-1.1l.5-.2a.854.854,0,1,1,.6,1.6l-.5.2Zm4.1-1.6a1.02,1.02,0,0,1-.8-.5.891.891,0,0,1,.5-1.1l.5-.2a.854.854,0,0,1,.6,1.6l-.5.2Zm4.1-1.4a.891.891,0,0,1-.8-.5.825.825,0,0,1,.5-1l.5-.2a.791.791,0,0,1,.5,1.5l-.5.2C88.7,71.2,88.6,71.3,88.5,71.3Zm4.1-1.5a.838.838,0,0,1-.8-.6.825.825,0,0,1,.5-1l.5-.2a.791.791,0,0,1,.5,1.5l-.5.2C92.8,69.8,92.7,69.8,92.6,69.8Zm4.2-1.3a.838.838,0,0,1-.8-.6.825.825,0,0,1,.5-1l.5-.2a.791.791,0,0,1,.5,1.5l-.5.3Zm4.2-1.2a.76.76,0,0,1-.8-.6.8.8,0,0,1,.6-1l.5-.2a.825.825,0,1,1,.4,1.6l-.5.2A.138.138,0,0,0,101,67.3Zm4.2-1.2a.76.76,0,0,1-.8-.6.8.8,0,0,1,.6-1l.5-.1a.825.825,0,1,1,.4,1.6l-.5.1Zm4.2-1.2a.76.76,0,0,1-.8-.6.887.887,0,0,1,.6-1l.5-.1a.825.825,0,1,1,.4,1.6l-.5.1Zm4.2-1a.871.871,0,0,1-.8-.6.887.887,0,0,1,.6-1l.5-.1a.825.825,0,1,1,.4,1.6l-.5.1Zm4.3-1a.871.871,0,0,1-.8-.6.887.887,0,0,1,.6-1,2.8,2.8,0,0,1,.6-.1.825.825,0,0,1,.4,1.6,1.75,1.75,0,0,0-.5.1Z" fill="#3d3736"/>
        <g id="그룹_4710" data-name="그룹 4710">
          <path id="패스_4530" data-name="패스 4530" d="M278.1,245.7s-1.4,3.1.5,4.2c1.9,1,7.3-4.5,7.3-4.5" fill="#fff"/>
          <path id="패스_4531" data-name="패스 4531" d="M279.2,250.8a2.92,2.92,0,0,1-.9-.2c-2-1.1-1.5-3.8-.9-5.2a.828.828,0,0,1,1.5.7h0s-1,2.5.2,3.1c.7.4,3.8-1.7,6.4-4.4a.849.849,0,0,1,1.2,1.2C285.4,247.2,281.6,250.8,279.2,250.8Z" fill="#3d3736"/>
        </g>
        <g id="그룹_4728" data-name="그룹 4728">
          <g id="그룹_4717" data-name="그룹 4717">
            <g id="그룹_4713" data-name="그룹 4713">
              <g id="그룹_4711" data-name="그룹 4711">
                <path id="패스_4532" data-name="패스 4532" d="M231.8,262.1h-5l9.4-34.6h5Z" fill="#fff"/>
                <path id="패스_4533" data-name="패스 4533" d="M231.8,262.9h-5a.6.6,0,0,1-.6-.3.616.616,0,0,1-.1-.7l9.4-34.6a.76.76,0,0,1,.8-.6h5a.6.6,0,0,1,.6.3.616.616,0,0,1,.1.7l-9.4,34.6A.871.871,0,0,1,231.8,262.9Zm-3.9-1.6h3.4l8.9-33h-3.4Z" fill="#3d3736"/>
              </g>
              <g id="그룹_4712" data-name="그룹 4712">
                <path id="패스_4534" data-name="패스 4534" d="M260.6,262.1h5.1l-9.4-34.6h-5Z" fill="#fff"/>
                <path id="패스_4535" data-name="패스 4535" d="M265.7,262.9h-5a.76.76,0,0,1-.8-.6l-9.4-34.6a.878.878,0,0,1,.1-.7.864.864,0,0,1,.6-.3h5a.76.76,0,0,1,.8.6l9.4,34.6a.878.878,0,0,1-.1.7A.713.713,0,0,1,265.7,262.9Zm-4.4-1.6h3.4l-8.9-33h-3.4Z" fill="#3d3736"/>
              </g>
            </g>
            <g id="그룹_4716" data-name="그룹 4716">
              <g id="그룹_4714" data-name="그룹 4714">
                <rect id="사각형_809" data-name="사각형 809" width="66.1" height="6.6" transform="translate(228.2 220.9)" fill="#fff"/>
                <path id="패스_4536" data-name="패스 4536" d="M294.3,228.3H228.2a.789.789,0,0,1-.8-.8v-6.6a.789.789,0,0,1,.8-.8h66.1a.789.789,0,0,1,.8.8v6.6A.789.789,0,0,1,294.3,228.3ZM229,226.7h64.4v-5H229Z" fill="#3d3736"/>
              </g>
              <g id="그룹_4715" data-name="그룹 4715">
                <path id="패스_4537" data-name="패스 4537" d="M264.9,220.9h35.7v6.6H264.9" fill="#7ebaff"/>
                <path id="패스_4538" data-name="패스 4538" d="M300.6,228.3H264.9a.8.8,0,0,1,0-1.6h34.8v-5H264.9a.8.8,0,0,1,0-1.6h35.7a.789.789,0,0,1,.8.8v6.6A.789.789,0,0,1,300.6,228.3Z" fill="#3d3736"/>
              </g>
            </g>
          </g>
          <g id="그룹_4727" data-name="그룹 4727">
            <g id="그룹_4720" data-name="그룹 4720">
              <g id="그룹_4718" data-name="그룹 4718">
                <path id="패스_4539" data-name="패스 4539" d="M266.6,262.1h-5l9.4-34.6h5Z" fill="#fff"/>
                <path id="패스_4540" data-name="패스 4540" d="M266.6,262.9h-5a.6.6,0,0,1-.6-.3.616.616,0,0,1-.1-.7l9.4-34.6a.76.76,0,0,1,.8-.6h5a.6.6,0,0,1,.6.3.616.616,0,0,1,.1.7l-9.4,34.6A.871.871,0,0,1,266.6,262.9Zm-4-1.6H266l8.9-33h-3.4Z" fill="#3d3736"/>
              </g>
              <g id="그룹_4719" data-name="그룹 4719">
                <path id="패스_4541" data-name="패스 4541" d="M295.4,262.1h5.1l-9.4-34.6H286Z" fill="#fff"/>
                <path id="패스_4542" data-name="패스 4542" d="M300.5,262.9h-5a.76.76,0,0,1-.8-.6l-9.4-34.6a.878.878,0,0,1,.1-.7.864.864,0,0,1,.6-.3h5a.76.76,0,0,1,.8.6l9.4,34.6a.878.878,0,0,1-.1.7A.713.713,0,0,1,300.5,262.9Zm-4.5-1.6h3.4l-8.9-33h-3.4Z" fill="#3d3736"/>
              </g>
            </g>
            <g id="그룹_4721" data-name="그룹 4721">
              <path id="패스_4543" data-name="패스 4543" d="M282.8,228.6s-8.7,2.8-8,8.2a33.887,33.887,0,0,0,2.3,8.9l6.6-1.4,20.6-5.4s1-5.8-1.4-9.3" fill="#7ebaff"/>
              <path id="패스_4544" data-name="패스 4544" d="M277.1,246.5a.752.752,0,0,1-.7-.5,33.843,33.843,0,0,1-2.3-9.1c-.8-6,8.2-9,8.6-9.1a.791.791,0,0,1,.5,1.5c-.1,0-8.1,2.7-7.5,7.3a34,34,0,0,0,2,8.1l6-1.3,20.1-5.3c.2-1.4.5-5.5-1.3-8.1a.791.791,0,0,1,1.3-.9c2.6,3.7,1.6,9.6,1.5,9.9s-.3.6-.6.6L284.1,245l-6.7,1.4A.774.774,0,0,1,277.1,246.5Z" fill="#3d3736"/>
            </g>
            <g id="그룹_4726" data-name="그룹 4726">
              <g id="그룹_4724" data-name="그룹 4724">
                <g id="그룹_4722" data-name="그룹 4722">
                  <path id="패스_4545" data-name="패스 4545" d="M288.4,262.1h-4.9l3-17.5h5Z" fill="#fff"/>
                  <path id="패스_4546" data-name="패스 4546" d="M288.4,262.9h-4.9a.713.713,0,0,1-.6-.3.844.844,0,0,1-.2-.7l3-17.5a.849.849,0,0,1,.8-.7h4.9a.713.713,0,0,1,.6.3.844.844,0,0,1,.2.7l-3,17.5A.773.773,0,0,1,288.4,262.9Zm-3.9-1.6h3.3l2.8-15.8h-3.3Z" fill="#3d3736"/>
                </g>
                <g id="그룹_4723" data-name="그룹 4723">
                  <path id="패스_4547" data-name="패스 4547" d="M302.3,262.1h4.9l-3-17.5h-5Z" fill="#fff"/>
                  <path id="패스_4548" data-name="패스 4548" d="M307.2,262.9h-4.9a.849.849,0,0,1-.8-.7l-3-17.5a.952.952,0,0,1,.2-.7.864.864,0,0,1,.6-.3h4.9a.849.849,0,0,1,.8.7l3,17.5a.952.952,0,0,1-.2.7A.6.6,0,0,1,307.2,262.9Zm-4.2-1.6h3.3l-2.8-15.8h-3.3Z" fill="#3d3736"/>
                </g>
              </g>
              <g id="그룹_4725" data-name="그룹 4725">
                <path id="패스_4549" data-name="패스 4549" d="M311.1,241.7a4.012,4.012,0,0,1-4,4H283.7a4.012,4.012,0,0,1-4-4h0a4.012,4.012,0,0,1,4-4h23.4a4.012,4.012,0,0,1,4,4Z" fill="#fff"/>
                <path id="패스_4550" data-name="패스 4550" d="M307.1,246.5H283.7a4.8,4.8,0,0,1-4.8-4.8,4.867,4.867,0,0,1,4.8-4.8h23.4a4.8,4.8,0,0,1,4.8,4.8A4.867,4.867,0,0,1,307.1,246.5Zm-23.5-8a3.2,3.2,0,1,0,0,6.4H307a3.2,3.2,0,1,0,0-6.4Z" fill="#3d3736"/>
              </g>
            </g>
          </g>
        </g>
        <g id="그룹_4745" data-name="그룹 4745">
          <g id="그룹_4735" data-name="그룹 4735">
            <g id="그룹_4731" data-name="그룹 4731">
              <g id="그룹_4729" data-name="그룹 4729">
                <path id="패스_4551" data-name="패스 4551" d="M319.9,262.1h-5l9.4-34.6h5Z" fill="#fff"/>
                <path id="패스_4552" data-name="패스 4552" d="M319.9,262.9h-5a.6.6,0,0,1-.6-.3.616.616,0,0,1-.1-.7l9.4-34.6a.76.76,0,0,1,.8-.6h5a.6.6,0,0,1,.6.3.616.616,0,0,1,.1.7l-9.4,34.6A.871.871,0,0,1,319.9,262.9Zm-3.9-1.6h3.4l8.9-33h-3.4Z" fill="#3d3736"/>
              </g>
              <g id="그룹_4730" data-name="그룹 4730">
                <path id="패스_4553" data-name="패스 4553" d="M348.7,262.1h5.1l-9.4-34.6h-5Z" fill="#fff"/>
                <path id="패스_4554" data-name="패스 4554" d="M353.8,262.9h-5a.76.76,0,0,1-.8-.6l-9.4-34.6a.878.878,0,0,1,.1-.7.864.864,0,0,1,.6-.3h5a.76.76,0,0,1,.8.6l9.4,34.6a.878.878,0,0,1-.1.7A.713.713,0,0,1,353.8,262.9Zm-4.4-1.6h3.4l-8.9-33h-3.4Z" fill="#3d3736"/>
              </g>
            </g>
            <g id="그룹_4734" data-name="그룹 4734">
              <g id="그룹_4732" data-name="그룹 4732">
                <rect id="사각형_810" data-name="사각형 810" width="66.1" height="6.6" transform="translate(316.3 220.9)" fill="#fff"/>
                <path id="패스_4555" data-name="패스 4555" d="M382.4,228.3H316.3a.789.789,0,0,1-.8-.8v-6.6a.789.789,0,0,1,.8-.8h66.1a.789.789,0,0,1,.8.8v6.6A.789.789,0,0,1,382.4,228.3Zm-65.3-1.6h64.4v-5H317.1Z" fill="#3d3736"/>
              </g>
              <g id="그룹_4733" data-name="그룹 4733">
                <path id="패스_4556" data-name="패스 4556" d="M353,220.9h35.7v6.6H353" fill="#7ebaff"/>
                <path id="패스_4557" data-name="패스 4557" d="M388.7,228.3H353a.8.8,0,0,1,0-1.6h34.8v-5H353a.8.8,0,0,1,0-1.6h35.7a.789.789,0,0,1,.8.8v6.6A.789.789,0,0,1,388.7,228.3Z" fill="#3d3736"/>
              </g>
            </g>
          </g>
          <g id="그룹_4744" data-name="그룹 4744">
            <g id="그룹_4738" data-name="그룹 4738">
              <g id="그룹_4736" data-name="그룹 4736">
                <path id="패스_4558" data-name="패스 4558" d="M354.7,262.1h-5l9.3-34.6h5.1Z" fill="#fff"/>
                <path id="패스_4559" data-name="패스 4559" d="M354.7,262.9h-5a.6.6,0,0,1-.6-.3.616.616,0,0,1-.1-.7l9.4-34.6a.76.76,0,0,1,.8-.6h5a.6.6,0,0,1,.6.3.616.616,0,0,1,.1.7l-9.4,34.6A.871.871,0,0,1,354.7,262.9Zm-4-1.6h3.4l8.9-33h-3.4Z" fill="#3d3736"/>
              </g>
              <g id="그룹_4737" data-name="그룹 4737">
                <path id="패스_4560" data-name="패스 4560" d="M383.5,262.1h5.1l-9.4-34.6h-5.1Z" fill="#fff"/>
                <path id="패스_4561" data-name="패스 4561" d="M388.6,262.9h-5a.76.76,0,0,1-.8-.6l-9.4-34.6a.878.878,0,0,1,.1-.7.864.864,0,0,1,.6-.3h5a.76.76,0,0,1,.8.6l9.4,34.6a.878.878,0,0,1-.1.7A.713.713,0,0,1,388.6,262.9Zm-4.5-1.6h3.4l-8.9-33h-3.4Z" fill="#3d3736"/>
              </g>
            </g>
            <g id="그룹_4743" data-name="그룹 4743">
              <g id="그룹_4741" data-name="그룹 4741">
                <g id="그룹_4739" data-name="그룹 4739">
                  <path id="패스_4562" data-name="패스 4562" d="M376.5,262.1h-4.9l3-17.5h5Z" fill="#fff"/>
                  <path id="패스_4563" data-name="패스 4563" d="M376.5,262.9h-4.9a.713.713,0,0,1-.6-.3.844.844,0,0,1-.2-.7l3-17.5a.849.849,0,0,1,.8-.7h4.9a.713.713,0,0,1,.6.3.844.844,0,0,1,.2.7l-3,17.5A.773.773,0,0,1,376.5,262.9Zm-3.9-1.6h3.3l2.8-15.8h-3.3Z" fill="#3d3736"/>
                </g>
                <g id="그룹_4740" data-name="그룹 4740">
                  <path id="패스_4564" data-name="패스 4564" d="M390.4,262.1h4.9l-3-17.5h-5Z" fill="#fff"/>
                  <path id="패스_4565" data-name="패스 4565" d="M395.3,262.9h-4.9a.849.849,0,0,1-.8-.7l-3-17.5a.952.952,0,0,1,.2-.7.864.864,0,0,1,.6-.3h4.9a.849.849,0,0,1,.8.7l3,17.5a.952.952,0,0,1-.2.7A.713.713,0,0,1,395.3,262.9Zm-4.2-1.6h3.3l-2.8-15.8h-3.3Z" fill="#3d3736"/>
                </g>
              </g>
              <g id="그룹_4742" data-name="그룹 4742">
                <path id="패스_4566" data-name="패스 4566" d="M399.2,241.7a4.012,4.012,0,0,1-4,4H371.8a4.012,4.012,0,0,1-4-4h0a4.012,4.012,0,0,1,4-4h23.4a4.012,4.012,0,0,1,4,4Z" fill="#fff"/>
                <path id="패스_4567" data-name="패스 4567" d="M395.2,246.5H371.8a4.8,4.8,0,0,1-4.8-4.8,4.867,4.867,0,0,1,4.8-4.8h23.4a4.8,4.8,0,0,1,4.8,4.8A4.867,4.867,0,0,1,395.2,246.5Zm-23.5-8a3.2,3.2,0,1,0,0,6.4h23.4a3.2,3.2,0,1,0,0-6.4Z" fill="#3d3736"/>
              </g>
            </g>
          </g>
        </g>
        <g id="그룹_4748" data-name="그룹 4748">
          <g id="그룹_4746" data-name="그룹 4746">
            <path id="패스_4568" data-name="패스 4568" d="M147.3,137.9a14.8,14.8,0,1,0-14.8,14.8A14.767,14.767,0,0,0,147.3,137.9Z" fill="#ff7657"/>
            <path id="패스_4569" data-name="패스 4569" d="M132.5,153.5a15.6,15.6,0,1,1,15.6-15.6A15.62,15.62,0,0,1,132.5,153.5Zm0-29.5a14,14,0,1,0,14,14A14.041,14.041,0,0,0,132.5,124Z" fill="#3d3736"/>
          </g>
          <g id="그룹_4747" data-name="그룹 4747">
            <path id="패스_4570" data-name="패스 4570" d="M139.8,136.2l-9.7-5.5a2.118,2.118,0,0,0-1.9,0,1.936,1.936,0,0,0-1,1.7v11a2.062,2.062,0,0,0,1,1.7,1.689,1.689,0,0,0,1,.3,2.388,2.388,0,0,0,.9-.2l9.7-5.5a1.936,1.936,0,0,0,1-1.7A2.1,2.1,0,0,0,139.8,136.2Z" fill="#fff"/>
            <path id="패스_4571" data-name="패스 4571" d="M129.2,146.1a2.3,2.3,0,0,1-1.4-.4,2.906,2.906,0,0,1-1.4-2.4v-11a2.693,2.693,0,0,1,1.4-2.4,2.618,2.618,0,0,1,2.7,0l9.7,5.5a2.757,2.757,0,0,1,0,4.8l-9.7,5.5A2.2,2.2,0,0,1,129.2,146.1Zm0-14.8c-.2,0-.4.1-.6.1a1.193,1.193,0,0,0-.5.9v11a1.231,1.231,0,0,0,.5,1,1.083,1.083,0,0,0,1.1,0l9.7-5.5a1.326,1.326,0,0,0,.6-1,1.1,1.1,0,0,0-.6-1l-9.7-5.5C129.5,131.4,129.3,131.3,129.2,131.3Z" fill="#3d3736"/>
          </g>
        </g>
        <path id="패스_4572" data-name="패스 4572" d="M177.2,124.4H154.9a.8.8,0,0,1,0-1.6h22.3a.8.8,0,1,1,0,1.6Z" fill="#3d3736"/>
        <path id="패스_4573" data-name="패스 4573" d="M177.2,132H159.4a.8.8,0,1,1,0-1.6h17.8a.8.8,0,0,1,0,1.6Z" fill="#3d3736"/>
        <path id="패스_4574" data-name="패스 4574" d="M177.2,139.6H154.9a.789.789,0,0,1-.8-.8.86.86,0,0,1,.8-.8h22.3a.789.789,0,0,1,.8.8A.86.86,0,0,1,177.2,139.6Z" fill="#3d3736"/>
        <path id="패스_4575" data-name="패스 4575" d="M177.2,147.2H154.9a.789.789,0,0,1-.8-.8.86.86,0,0,1,.8-.8h22.3a.789.789,0,0,1,.8.8A.86.86,0,0,1,177.2,147.2Z" fill="#3d3736"/>
        <path id="패스_4576" data-name="패스 4576" d="M177.2,154.8h-8.9a.8.8,0,0,1,0-1.6h8.9a.8.8,0,0,1,0,1.6Z" fill="#3d3736"/>
        <path id="패스_4577" data-name="패스 4577" d="M177.2,162.4H159.6a.8.8,0,0,1,0-1.6h17.6a.8.8,0,0,1,0,1.6Z" fill="#3d3736"/>
        <path id="패스_4578" data-name="패스 4578" d="M177.2,170H154.9a.8.8,0,1,1,0-1.6h22.3a.8.8,0,0,1,0,1.6Z" fill="#3d3736"/>
        <g id="그룹_4752" data-name="그룹 4752">
          <g id="그룹_4749" data-name="그룹 4749">
            <path id="패스_4579" data-name="패스 4579" d="M316.6,99l-8.5,6.9,33.4,8.6Z" fill="#7ebaff"/>
            <path id="패스_4580" data-name="패스 4580" d="M341.5,115.3h-.2l-33.5-8.6a.9.9,0,0,1-.6-.6.67.67,0,0,1,.3-.8l8.5-6.9a.972.972,0,0,1,.9-.1l24.9,15.4a.777.777,0,0,1,.3,1C342.2,115.1,341.9,115.3,341.5,115.3Zm-31.6-9.8,26.7,6.8L316.7,100Z" fill="#3d3736"/>
          </g>
          <g id="그룹_4750" data-name="그룹 4750">
            <path id="패스_4581" data-name="패스 4581" d="M341.5,114.5l-22-28.2L316.6,99l24.9,15.5-25.4-9.9-4.3,13.9Z" fill="#fff"/>
            <path id="패스_4582" data-name="패스 4582" d="M311.8,119.3a.713.713,0,0,1-.6-.3,1.077,1.077,0,0,1-.2-.8l4.3-13.9a1,1,0,0,1,.4-.5.846.846,0,0,1,.7,0l17.2,6.7L316.2,99.7a.975.975,0,0,1-.4-.9l2.9-12.7a.9.9,0,0,1,.6-.6.67.67,0,0,1,.8.3l22,28.1a.713.713,0,0,1,.3.6.789.789,0,0,1-.8.8l-29.7,4Zm4.9-13.6L313,117.5l25.3-3.4Zm.8-7.1L338,111.3,319.9,88.1Z" fill="#3d3736"/>
          </g>
          <g id="그룹_4751" data-name="그룹 4751">
            <line id="선_56" data-name="선 56" x1="8" y2="1.3" transform="translate(308.1 104.6)" fill="#00d9ac"/>
            <path id="패스_4583" data-name="패스 4583" d="M308.1,106.7a.849.849,0,0,1-.8-.7.737.737,0,0,1,.7-.9l8.1-1.3a.806.806,0,1,1,.2,1.6l-8.1,1.3Z" fill="#3d3736"/>
          </g>
        </g>
        <g id="그룹_4756" data-name="그룹 4756">
          <g id="그룹_4753" data-name="그룹 4753">
            <path id="패스_4584" data-name="패스 4584" d="M128.9,50.5l-4.2,10.1,33.5-8.2Z" fill="#7ebaff"/>
            <path id="패스_4585" data-name="패스 4585" d="M124.7,61.4a.713.713,0,0,1-.6-.3.619.619,0,0,1-.1-.8l4.3-10.1a.891.891,0,0,1,.8-.5l29.3,1.9a.849.849,0,0,1,.8.7.875.875,0,0,1-.6.9L125,61.4Zm4.8-10.1-3.4,8.1,26.8-6.5Z" fill="#3d3736"/>
          </g>
          <g id="그룹_4754" data-name="그룹 4754">
            <path id="패스_4586" data-name="패스 4586" d="M158.2,52.4,125.5,37.9l3.4,12.6,29.3,1.9-27,3.3L133.9,70Z" fill="#fff"/>
            <path id="패스_4587" data-name="패스 4587" d="M133.9,70.8a.367.367,0,0,1-.3-.1c-.3-.1-.4-.3-.5-.6l-2.7-14.3c0-.2,0-.5.1-.6a.6.6,0,0,1,.6-.3l18.3-2.2-20.5-1.3a.858.858,0,0,1-.7-.6l-3.4-12.6a.67.67,0,0,1,.3-.8.744.744,0,0,1,.9-.1l32.6,14.4a.871.871,0,0,1,.6.8.842.842,0,0,1-.4.7L134.6,70.7A5.636,5.636,0,0,0,133.9,70.8Zm-1.8-14.4,2.3,12.2,20.7-14.9Zm-2.5-6.7,24.1,1.6L126.8,39.4Z" fill="#3d3736"/>
          </g>
          <g id="그룹_4755" data-name="그룹 4755">
            <line id="선_57" data-name="선 57" x1="6.5" y2="4.9" transform="translate(124.7 55.7)" fill="#0093ff"/>
            <path id="패스_4588" data-name="패스 4588" d="M124.7,61.4a1.08,1.08,0,0,1-.7-.3.71.71,0,0,1,.2-1.1l6.5-4.9a.791.791,0,0,1,.9,1.3l-6.5,4.9C125,61.3,124.8,61.4,124.7,61.4Z" fill="#3d3736"/>
          </g>
        </g>
        <g id="그룹_4757" data-name="그룹 4757">
          <path id="패스_4589" data-name="패스 4589" d="M270.4,216.3s-5.9.6-6.1,4.4h7.3" fill="#fff"/>
          <path id="패스_4590" data-name="패스 4590" d="M271.7,221.5h-7.3a.864.864,0,0,1-.6-.3.735.735,0,0,1-.2-.6c.2-4.5,6.6-5.1,6.9-5.1a.876.876,0,0,1,.9.7.96.96,0,0,1-.7.9s-4.2.4-5.2,2.7h6.3a.789.789,0,0,1,.8.8A1.055,1.055,0,0,1,271.7,221.5Z" fill="#3d3736"/>
        </g>
        <g id="그룹_4758" data-name="그룹 4758">
          <path id="패스_4591" data-name="패스 4591" d="M278.8,190.1s19.8-8.7,19.9,9.6l-.3,4.9s7.5,4.4.3,9.6-23.4-15.4-20-23.5" fill="#fff"/>
          <path id="패스_4592" data-name="패스 4592" d="M296.1,215.9c-2.1,0-4.5-1.1-7.2-3.1-6.9-5.5-13.3-16.6-10.9-22.4v-.1a.715.715,0,0,1,.5-.9c.4-.2,10.2-4.4,16.4-.5,3.1,2,4.7,5.6,4.7,10.8v.1l-.3,4.4c1,.7,3.3,2.5,3.4,5.1.1,2-1,3.8-3.4,5.6A5.285,5.285,0,0,1,296.1,215.9Zm-16.5-25.2a.367.367,0,0,1-.1.3c-1.7,4.1,2.7,14.4,10.4,20.4,2,1.6,5.8,4,8.3,2.1,1.9-1.4,2.8-2.8,2.8-4.2-.1-2.3-3-4.1-3-4.1a.91.91,0,0,1-.4-.8l.3-4.9c-.1-4.6-1.4-7.8-4-9.4C289.2,187.2,281.4,190,279.6,190.7Z" fill="#3d3736"/>
        </g>
        <g id="그룹_4759" data-name="그룹 4759">
          <path id="패스_4593" data-name="패스 4593" d="M278.7,190.7a11.071,11.071,0,0,0-4.2,9.4l-2.1,1.8,1,1.8s-2.4,7.9,4.7,8.7,9.2-3.7,9.2-3.7,3.9.3,4.7-2.4c.8-2.6-3.1-3.9-3.9-2.4C288.2,204.1,278,197.3,278.7,190.7Z" fill="#fff"/>
          <path id="패스_4594" data-name="패스 4594" d="M279.8,213.4a9.7,9.7,0,0,1-1.7-.1,6.1,6.1,0,0,1-4.8-2.6c-1.6-2.4-1-5.7-.8-6.7l-.9-1.5a.775.775,0,0,1,.2-1l1.8-1.6a11.723,11.723,0,0,1,4.6-9.7.75.75,0,0,1,.9,0,.91.91,0,0,1,.4.8c-.6,5.1,6.4,10.7,8.5,12.2a2.3,2.3,0,0,1,1.4-.4,3.646,3.646,0,0,1,2.9,1.5,2.719,2.719,0,0,1,.4,2.6c-.8,2.6-3.9,2.9-5,2.9C287.1,210.7,284.9,213.4,279.8,213.4Zm-6.3-11.2.7,1.3a1.268,1.268,0,0,1,.1.6s-1,3.5.5,5.7a4.582,4.582,0,0,0,3.6,1.9,7.568,7.568,0,0,0,1.5.1c5.2,0,6.8-3.3,6.8-3.3a.891.891,0,0,1,.8-.5h.2c.7,0,3.1-.1,3.6-1.8a1.322,1.322,0,0,0-.2-1.2,1.943,1.943,0,0,0-1.6-.8c-.1,0-.5,0-.6.2a.664.664,0,0,1-.5.4.878.878,0,0,1-.7-.1c-.4-.3-8.8-6-9.8-12.2a10.356,10.356,0,0,0-2.6,7.6.713.713,0,0,1-.3.6Z" fill="#3d3736"/>
        </g>
        <g id="그룹_4760" data-name="그룹 4760">
          <path id="패스_4595" data-name="패스 4595" d="M280.9,220.7l2.3,9.6s11.5,2.6,19.8-.7c0,0-2.3-21.8-9.1-21.3" fill="#ff7657"/>
          <path id="패스_4596" data-name="패스 4596" d="M292.7,232.1a45.436,45.436,0,0,1-9.7-1,.9.9,0,0,1-.6-.6l-2.3-9.6a.825.825,0,0,1,1.6-.4l2.2,9.1c2.2.4,11.3,2,18.2-.5-.9-8.2-3.9-20.3-8.1-20a.948.948,0,0,1-.9-.8.875.875,0,0,1,.8-.9c7.4-.6,9.7,19.7,10,22.1a.792.792,0,0,1-.5.8A29.012,29.012,0,0,1,292.7,232.1Z" fill="#3d3736"/>
        </g>
        <g id="그룹_4761" data-name="그룹 4761">
          <path id="패스_4597" data-name="패스 4597" d="M294.9,208.5c-4.2-1.6-11.4,2.4-13.8,3.5-2.4,1-11.2,3.3-11.2,3.3l.5,5.6s10.8,3.1,18.9-.2" fill="#ff7657"/>
          <path id="패스_4598" data-name="패스 4598" d="M280.5,223a39.957,39.957,0,0,1-10.3-1.4.858.858,0,0,1-.6-.7l-.5-5.6a.875.875,0,0,1,.6-.9c.1,0,8.7-2.3,11.1-3.3a9.751,9.751,0,0,1,1.4-.6c3.2-1.5,9.2-4.3,13.1-2.9a.854.854,0,0,1-.6,1.6c-3.2-1.2-8.8,1.4-11.8,2.8l-1.4.7c-2.1.9-8.5,2.6-10.6,3.2l.4,4.3c2.2.6,11.1,2.5,17.8-.3a.828.828,0,1,1,.7,1.5A23.7,23.7,0,0,1,280.5,223Z" fill="#3d3736"/>
        </g>
        <g id="그룹_4762" data-name="그룹 4762">
          <path id="패스_4599" data-name="패스 4599" d="M358,216.5s-7,.2-8.4,4.4h10.3" fill="#fff"/>
          <path id="패스_4600" data-name="패스 4600" d="M359.9,221.7H349.6a.908.908,0,0,1-.7-.3.616.616,0,0,1-.1-.7c1.6-4.7,8.8-4.9,9.1-4.9a.789.789,0,0,1,.8.8.736.736,0,0,1-.8.8c-.1,0-5.1.2-7.1,2.7h9a.789.789,0,0,1,.8.8A.659.659,0,0,1,359.9,221.7Z" fill="#3d3736"/>
        </g>
        <g id="그룹_4763" data-name="그룹 4763">
          <path id="패스_4601" data-name="패스 4601" d="M370.9,220.7s-.2,6.3-3,8.4c0,0,2.4,7.5,4.9,8.7h20.5s3.3.3,1.4-7-7.7-23.9-14.5-22.5" fill="#ff7657"/>
          <path id="패스_4602" data-name="패스 4602" d="M393.4,238.6H372.9a.6.6,0,0,1-.4-.1c-2.7-1.3-5-8.4-5.3-9.2a.806.806,0,0,1,.3-.9c2-1.5,2.6-6.1,2.6-7.8a.8.8,0,1,1,1.6,0c0,.3-.2,6.1-2.8,8.6.9,2.7,2.7,6.7,4.2,7.7h20.3a.929.929,0,0,0,.6-.3c.3-.4.9-1.7-.1-5.6-2.5-9.4-8.1-23.1-13.6-22a.825.825,0,0,1-.4-1.6c8.7-1.8,14.8,20.6,15.5,23.1.9,3.5.8,5.9-.3,7.1A1.752,1.752,0,0,1,393.4,238.6Z" fill="#3d3736"/>
        </g>
        <g id="그룹_4764" data-name="그룹 4764">
          <path id="패스_4603" data-name="패스 4603" d="M366.3,190.7a11.071,11.071,0,0,0-4.2,9.4L360,202l1,1.8s-2.4,7.9,4.7,8.7,9.2-3.7,9.2-3.7,3.9.3,4.7-2.4c.8-2.6-3.1-3.9-3.9-2.4C375.7,204.1,365.5,197.3,366.3,190.7Z" fill="#fff"/>
          <path id="패스_4604" data-name="패스 4604" d="M367.4,213.4a9.7,9.7,0,0,1-1.7-.1,6.1,6.1,0,0,1-4.8-2.6c-1.6-2.4-1-5.7-.8-6.7l-.9-1.5a.775.775,0,0,1,.2-1l1.8-1.6a11.723,11.723,0,0,1,4.6-9.7.75.75,0,0,1,.9,0,.91.91,0,0,1,.4.8c-.6,5.1,6.4,10.7,8.5,12.2a2.3,2.3,0,0,1,1.4-.4,3.646,3.646,0,0,1,2.9,1.5,2.719,2.719,0,0,1,.4,2.6c-.8,2.6-3.9,2.9-5,2.9C374.7,210.7,372.4,213.4,367.4,213.4Zm-6.3-11.2.7,1.3a1.268,1.268,0,0,1,.1.6s-1,3.5.5,5.7a4.582,4.582,0,0,0,3.6,1.9,7.568,7.568,0,0,0,1.5.1c5.1,0,6.7-3.2,6.8-3.3a.891.891,0,0,1,.8-.5h.2c.7,0,3.1-.1,3.6-1.8a1.322,1.322,0,0,0-.2-1.2,1.943,1.943,0,0,0-1.6-.8c-.1,0-.5,0-.6.2a.664.664,0,0,1-.5.4.878.878,0,0,1-.7-.1c-.4-.3-8.8-6-9.8-12.2a10.356,10.356,0,0,0-2.6,7.6.713.713,0,0,1-.3.6Z" fill="#3d3736"/>
        </g>
        <g id="그룹_4765" data-name="그룹 4765">
          <path id="패스_4605" data-name="패스 4605" d="M382.5,208.5c-4.2-1.6-11.4,2.4-13.8,3.5-2.4,1-11.2,3.3-11.2,3.3l.5,5.6s10.8,3.1,18.9-.2" fill="#ff7657"/>
          <path id="패스_4606" data-name="패스 4606" d="M368.1,223a39.957,39.957,0,0,1-10.3-1.4.858.858,0,0,1-.6-.7l-.5-5.6a.875.875,0,0,1,.6-.9c.1,0,8.7-2.3,11.1-3.3a9.751,9.751,0,0,1,1.4-.6c3.2-1.5,9.2-4.3,13.1-2.9a.854.854,0,0,1-.6,1.6c-3.2-1.2-8.8,1.4-11.8,2.8l-1.4.7c-2.1.9-8.5,2.6-10.6,3.2l.4,4.3c2.2.6,11.1,2.5,17.8-.3a.828.828,0,0,1,.7,1.5A23.7,23.7,0,0,1,368.1,223Z" fill="#3d3736"/>
        </g>
        <g id="그룹_4766" data-name="그룹 4766">
          <path id="패스_4607" data-name="패스 4607" d="M299.5,203.7s-2.4-6.8-4.4-4c-1.9,2.8,2.3,9.1,4,7.3,0,0,2.8,1.6,4.2-.9C304.7,203.7,304,197.6,299.5,203.7Z" fill="#ff7657"/>
          <path id="패스_4608" data-name="패스 4608" d="M301,208.4h0a4.359,4.359,0,0,1-1.8-.4,1.884,1.884,0,0,1-.8.2c-1.5,0-2.9-1.7-3.6-3.1-1.2-2.2-1.3-4.4-.3-5.8a2.087,2.087,0,0,1,1.7-1c1.6,0,2.9,2.3,3.6,3.9,1.1-1.2,2.1-1.9,3-1.9a1.781,1.781,0,0,1,1.6,1,6.179,6.179,0,0,1-.3,5.3A3.562,3.562,0,0,1,301,208.4Zm-1.9-2.2a.6.6,0,0,1,.4.1,3.4,3.4,0,0,0,1.5.4h0a1.715,1.715,0,0,0,1.6-1,4.854,4.854,0,0,0,.3-3.7c-.1-.2-.2-.2-.2-.2-.1,0-.9.1-2.5,2.3a.829.829,0,0,1-.8.3.634.634,0,0,1-.6-.5c-.8-2.1-2-4.2-2.6-4.2a.747.747,0,0,0-.3.3c-.6.9-.4,2.5.4,4.1s1.8,2.3,2.2,2.3a.1.1,0,0,0,.1-.1A4.327,4.327,0,0,1,299.1,206.2Z" fill="#3d3736"/>
        </g>
        <path id="패스_4609" data-name="패스 4609" d="M278.3,201.7c-.1.8-.4,1.4-.8,1.3-.4,0-.7-.7-.6-1.4.1-.8.4-1.4.8-1.3C278.1,200.3,278.3,200.9,278.3,201.7Z" fill="#3d3736"/>
        <path id="패스_4610" data-name="패스 4610" d="M365.5,201.7c-.1.8-.4,1.4-.8,1.3-.4,0-.7-.7-.6-1.4.1-.8.4-1.4.8-1.3C365.3,200.3,365.6,200.9,365.5,201.7Z" fill="#3d3736"/>
        <g id="그룹_4767" data-name="그룹 4767">
          <path id="패스_4611" data-name="패스 4611" d="M362,195.9a4.219,4.219,0,0,0,3.5-1.4s0,4.4,3.7,4.4c0,0,5.4,9.3,1.7,10.8,0,0,11.2,3.3,14.7-2.1s5.9-15.4-3.1-18C373.4,187,361.7,185.6,362,195.9Z" fill="#fff"/>
          <path id="패스_4612" data-name="패스 4612" d="M378,211.5h0a33.464,33.464,0,0,1-7.3-1,.858.858,0,0,1-.6-.7.891.891,0,0,1,.5-.8,1.576,1.576,0,0,0,.7-.7c.7-2-1.5-6.5-2.6-8.5a4.356,4.356,0,0,1-3.8-3.6,3.942,3.942,0,0,1-3,.6.849.849,0,0,1-.7-.8,8.3,8.3,0,0,1,2.1-6.4c3.2-3.3,9.9-3.5,19.4-.7a8.711,8.711,0,0,1,6.3,5.4c1.7,4.5-.4,10.3-2.7,13.9C384.8,210.3,382,211.5,378,211.5Zm-5.4-2.3a25.251,25.251,0,0,0,5.4.6h0c3.5,0,5.8-.9,7-2.7,2.3-3.5,3.9-8.7,2.5-12.4a7.356,7.356,0,0,0-5.2-4.4,42.305,42.305,0,0,0-10.9-1.9q-4.8,0-6.9,2.1a6.056,6.056,0,0,0-1.6,4.4,3.321,3.321,0,0,0,2.1-1.1.765.765,0,0,1,.9-.2.792.792,0,0,1,.5.8c0,.4.1,3.6,2.9,3.6a.842.842,0,0,1,.7.4c.4.7,4,7,2.9,10.3A2.186,2.186,0,0,1,372.6,209.2Z" fill="#3d3736"/>
        </g>
        <path id="패스_4613" data-name="패스 4613" d="M375,200.9h0a.765.765,0,0,1-.8-.9,18.609,18.609,0,0,0-2.8-11,.791.791,0,0,1,1.3-.9,19.6,19.6,0,0,1,3.1,12.1A.849.849,0,0,1,375,200.9Z" fill="#3d3736"/>
        <path id="패스_4614" data-name="패스 4614" d="M376.4,211a.871.871,0,0,1-.8-.6.887.887,0,0,1,.6-1c.1,0,3.9-1.3,5.3-10.7.1-.4.5-.8.9-.7s.8.5.7.9c-1.6,10.7-6.4,12-6.6,12A.1.1,0,0,1,376.4,211Z" fill="#3d3736"/>
      </g>
    </g>
  </g>
</svg>
