<svg xmlns="http://www.w3.org/2000/svg" xmlns:xlink="http://www.w3.org/1999/xlink" width="120" height="120" viewBox="0 0 120 120">
  <defs>
    <clipPath id="clip-path">
      <rect id="사각형_712" data-name="사각형 712" width="120" height="120" transform="translate(1190 2628)" fill="#c9cdd2"/>
    </clipPath>
  </defs>
  <g id="ico_자료확인_편집" data-name="ico_자료확인/편집" transform="translate(-1190 -2628)" clip-path="url(#clip-path)">
    <g id="Layer_4" transform="translate(1191.379 2630.759)">
      <g id="그룹_488" data-name="그룹 488">
        <rect id="사각형_715" data-name="사각형 715" width="78.828" height="87.793" transform="translate(33.379 15.931)" fill="none" stroke="#9ea4aa" stroke-linecap="round" stroke-linejoin="round" stroke-miterlimit="10" stroke-width="2.299"/>
        <g id="그룹_487" data-name="그룹 487">
          <g id="그룹_480" data-name="그룹 480" transform="translate(22.621 26.759)">
            <path id="패스_810" data-name="패스 810" d="M134.966,60.8H56.207v87.724h63.034l15.724-16.207Z" transform="translate(-56.207 -60.805)" fill="#fff" stroke="#3d3736" stroke-linecap="round" stroke-linejoin="round" stroke-miterlimit="10" stroke-width="2.299"/>
            <path id="패스_811" data-name="패스 811" d="M108.736,136.609,124.46,120.4H108.736Z" transform="translate(-45.701 -48.885)" fill="#7ebaff" stroke="#3d3736" stroke-linecap="round" stroke-linejoin="round" stroke-miterlimit="10" stroke-width="2.299"/>
          </g>
          <g id="그룹_483" data-name="그룹 483" transform="translate(48.759)">
            <path id="패스_812" data-name="패스 812" d="M77.989,38.506v72.483h68.483Zm16,39.1,15.862,16.759H93.989Z" transform="translate(-77.989 -38.506)" fill="#ffa248" stroke="#3d3736" stroke-linecap="round" stroke-linejoin="round" stroke-miterlimit="10" stroke-width="2.299"/>
            <g id="그룹_481" data-name="그룹 481" transform="translate(1.379 17.241)">
              <line id="선_19" data-name="선 19" x2="3.31" transform="translate(0 45.931)" fill="none" stroke="#3d3736" stroke-linecap="round" stroke-linejoin="round" stroke-miterlimit="10" stroke-width="2.299"/>
              <line id="선_20" data-name="선 20" x2="3.31" transform="translate(0 38.276)" fill="none" stroke="#3d3736" stroke-linecap="round" stroke-linejoin="round" stroke-miterlimit="10" stroke-width="2.299"/>
              <line id="선_21" data-name="선 21" x2="3.31" transform="translate(0 30.621)" fill="none" stroke="#3d3736" stroke-linecap="round" stroke-linejoin="round" stroke-miterlimit="10" stroke-width="2.299"/>
              <line id="선_22" data-name="선 22" x2="3.31" transform="translate(0 22.966)" fill="none" stroke="#3d3736" stroke-linecap="round" stroke-linejoin="round" stroke-miterlimit="10" stroke-width="2.299"/>
              <line id="선_23" data-name="선 23" x2="3.31" transform="translate(0 15.31)" fill="none" stroke="#3d3736" stroke-linecap="round" stroke-linejoin="round" stroke-miterlimit="10" stroke-width="2.299"/>
              <line id="선_24" data-name="선 24" x2="3.31" transform="translate(0 7.655)" fill="none" stroke="#3d3736" stroke-linecap="round" stroke-linejoin="round" stroke-miterlimit="10" stroke-width="2.299"/>
              <line id="선_25" data-name="선 25" x2="3.31" fill="none" stroke="#3d3736" stroke-linecap="round" stroke-linejoin="round" stroke-miterlimit="10" stroke-width="2.299"/>
            </g>
            <g id="그룹_482" data-name="그룹 482" transform="translate(9.31 67.793)">
              <line id="선_26" data-name="선 26" y1="3.31" transform="translate(45.931)" fill="none" stroke="#3d3736" stroke-linecap="round" stroke-linejoin="round" stroke-miterlimit="10" stroke-width="2.299"/>
              <line id="선_27" data-name="선 27" y1="3.31" transform="translate(38.276)" fill="none" stroke="#3d3736" stroke-linecap="round" stroke-linejoin="round" stroke-miterlimit="10" stroke-width="2.299"/>
              <line id="선_28" data-name="선 28" y1="3.31" transform="translate(30.621)" fill="none" stroke="#3d3736" stroke-linecap="round" stroke-linejoin="round" stroke-miterlimit="10" stroke-width="2.299"/>
              <line id="선_29" data-name="선 29" y1="3.31" transform="translate(22.966)" fill="none" stroke="#3d3736" stroke-linecap="round" stroke-linejoin="round" stroke-miterlimit="10" stroke-width="2.299"/>
              <line id="선_30" data-name="선 30" y1="3.31" transform="translate(15.31)" fill="none" stroke="#3d3736" stroke-linecap="round" stroke-linejoin="round" stroke-miterlimit="10" stroke-width="2.299"/>
              <line id="선_31" data-name="선 31" y1="3.31" transform="translate(7.655)" fill="none" stroke="#3d3736" stroke-linecap="round" stroke-linejoin="round" stroke-miterlimit="10" stroke-width="2.299"/>
              <line id="선_32" data-name="선 32" y1="3.31" fill="none" stroke="#3d3736" stroke-linecap="round" stroke-linejoin="round" stroke-miterlimit="10" stroke-width="2.299"/>
            </g>
          </g>
          <g id="그룹_485" data-name="그룹 485" transform="translate(0 86.552)">
            <g id="그룹_484" data-name="그룹 484">
              <path id="패스_813" data-name="패스 813" d="M37.356,117.943v6.069a6.622,6.622,0,0,0,6.621,6.621h57.241l16-9.655-16-9.655H43.977A6.622,6.622,0,0,0,37.356,117.943Z" transform="translate(-37.356 -110.494)" fill="#fff" stroke="#3d3736" stroke-linecap="round" stroke-linejoin="round" stroke-miterlimit="10" stroke-width="2.299"/>
              <path id="패스_814" data-name="패스 814" d="M100.391,116.851v13.724H43.977a6.622,6.622,0,0,1-6.621-6.621v-6.069a6.622,6.622,0,0,1,6.621-6.621h56.414v1.448" transform="translate(-37.356 -110.506)" fill="#ff7657" stroke="#3d3736" stroke-linecap="round" stroke-linejoin="round" stroke-miterlimit="10" stroke-width="2.299"/>
              <path id="패스_815" data-name="패스 815" d="M99.138,123.391l5.724-3.448-5.724-3.448Z" transform="translate(-25 -109.46)" fill="#3d3736"/>
              <rect id="사각형_716" data-name="사각형 716" width="6" height="20.897" transform="translate(8.414)" fill="#fff" stroke="#3d3736" stroke-linecap="round" stroke-linejoin="round" stroke-miterlimit="10" stroke-width="2.299"/>
            </g>
            <line id="선_33" data-name="선 33" x2="47.448" transform="translate(15.31 10.483)" fill="none" stroke="#3d3736" stroke-linecap="round" stroke-linejoin="round" stroke-miterlimit="10" stroke-width="2.299"/>
          </g>
          <g id="그룹_486" data-name="그룹 486" transform="translate(3.463 39.532)">
            <path id="패스_816" data-name="패스 816" d="M40.917,88.782a6.437,6.437,0,0,0,2.9,8.621l6.828,3.448a13.426,13.426,0,0,0,18-6l.276-.552L44.3,81.954Z" transform="translate(-40.243 -69.349)" fill="#fff" stroke="#3d3736" stroke-linecap="round" stroke-linejoin="round" stroke-miterlimit="10" stroke-width="2.299"/>
            <path id="패스_817" data-name="패스 817" d="M68.241,96.4l4.552-9.1a6.437,6.437,0,0,0-2.9-8.621l-13.1-6.552a6.437,6.437,0,0,0-8.621,2.9l-4.552,9.1Z" transform="translate(-39.567 -71.449)" fill="#7ebaff" stroke="#3d3736" stroke-linecap="round" stroke-linejoin="round" stroke-miterlimit="10" stroke-width="2.299"/>
          </g>
          <line id="선_34" data-name="선 34" x2="46.897" transform="translate(38.759 80.345)" fill="none" stroke="#3d3736" stroke-linecap="round" stroke-linejoin="round" stroke-miterlimit="10" stroke-width="2.299"/>
          <line id="선_35" data-name="선 35" x2="38.621" transform="translate(35.103 72.483)" fill="none" stroke="#3d3736" stroke-linecap="round" stroke-linejoin="round" stroke-miterlimit="10" stroke-width="2.299"/>
        </g>
      </g>
    </g>
  </g>
</svg>
