<svg xmlns="http://www.w3.org/2000/svg" xmlns:xlink="http://www.w3.org/1999/xlink" width="120" height="120" viewBox="0 0 120 120">
  <defs>
    <clipPath id="clip-path">
      <rect id="사각형_692" data-name="사각형 692" width="120" height="120" transform="translate(910 3131)" fill="#c9cdd2"/>
    </clipPath>
  </defs>
  <g id="ico_화상수업" transform="translate(-910 -3131)" clip-path="url(#clip-path)">
    <g id="Layer_2" transform="translate(911.584 3132.378)">
      <g id="그룹_466" data-name="그룹 466" transform="translate(0 0)">
        <g id="그룹_465" data-name="그룹 465">
          <g id="그룹_464" data-name="그룹 464">
            <g id="그룹_448" data-name="그룹 448" transform="translate(0 32.101)">
              <rect id="사각형_697" data-name="사각형 697" width="98.37" height="71.435" fill="#7ebaff" stroke="#3d3736" stroke-linecap="round" stroke-linejoin="round" stroke-miterlimit="10" stroke-width="2.296"/>
              <rect id="사각형_698" data-name="사각형 698" width="36.165" height="13.639" transform="translate(31.137 71.504)" fill="#dcdddd" stroke="#3d3736" stroke-linecap="round" stroke-linejoin="round" stroke-miterlimit="10" stroke-width="2.296"/>
              <line id="선_10" data-name="선 10" x2="59.724" transform="translate(19.357 85.075)" fill="#dcdddd" stroke="#3d3736" stroke-linecap="round" stroke-linejoin="round" stroke-miterlimit="10" stroke-width="2.296"/>
            </g>
            <g id="그룹_463" data-name="그룹 463" transform="translate(9.575)">
              <path id="패스_784" data-name="패스 784" d="M80.344,46.142a8.886,8.886,0,1,0-8.886,8.886A8.908,8.908,0,0,0,80.344,46.142Z" transform="translate(-41.975 -37.256)" fill="#806a54" stroke="#3d3736" stroke-linecap="round" stroke-linejoin="round" stroke-miterlimit="10" stroke-width="2.296"/>
              <g id="그룹_462" data-name="그룹 462" transform="translate(0 7.922)">
                <g id="그룹_460" data-name="그룹 460">
                  <path id="패스_785" data-name="패스 785" d="M86.6,85.017H63.249a17.845,17.845,0,0,0-17.842,17.842v15.017h59.036V102.859A17.845,17.845,0,0,0,86.6,85.017Z" transform="translate(-45.408 -35.626)" fill="#ffe571" stroke="#3d3736" stroke-linecap="round" stroke-linejoin="round" stroke-miterlimit="10" stroke-width="2.296"/>
                  <g id="그룹_458" data-name="그룹 458" transform="translate(4.202)">
                    <path id="패스_786" data-name="패스 786" d="M61.653,85.247l9.989,25.832L81.7,85.247Z" transform="translate(-46.361 -35.58)" fill="#fff" stroke="#3d3736" stroke-linecap="round" stroke-linejoin="round" stroke-miterlimit="10" stroke-width="2.296"/>
                    <g id="그룹_457" data-name="그룹 457">
                      <path id="패스_787" data-name="패스 787" d="M78.978,88.967l-7.715,7.44-7.715-7.44V74.087l7.715-7.44,7.715,7.44Z" transform="translate(-45.982 -39.3)" fill="#ffd6bc" stroke="#3d3736" stroke-linecap="round" stroke-linejoin="round" stroke-miterlimit="10" stroke-width="2.296"/>
                      <g id="그룹_456" data-name="그룹 456">
                        <g id="그룹_455" data-name="그룹 455" transform="translate(0 1.447)">
                          <g id="그룹_454" data-name="그룹 454">
                            <g id="그룹_452" data-name="그룹 452">
                              <g id="그룹_450" data-name="그룹 450">
                                <g id="그룹_449" data-name="그룹 449" transform="translate(0 19.701)">
                                  <path id="패스_788" data-name="패스 788" d="M59.724,66.923a5.453,5.453,0,0,0-5.442-5.442,5.408,5.408,0,1,0,5.442,5.442Z" transform="translate(-48.909 -61.481)" fill="#ffd6bc" stroke="#3d3736" stroke-linecap="round" stroke-linejoin="round" stroke-miterlimit="10" stroke-width="2.296"/>
                                  <path id="패스_789" data-name="패스 789" d="M92.9,66.923A5.408,5.408,0,1,0,87.532,72.3,5.38,5.38,0,0,0,92.9,66.923Z" transform="translate(-42.273 -61.481)" fill="#ffd6bc" stroke="#3d3736" stroke-linecap="round" stroke-linejoin="round" stroke-miterlimit="10" stroke-width="2.296"/>
                                </g>
                                <path id="패스_790" data-name="패스 790" d="M93.846,65.591c0,11.366-7.1,24.386-20.459,24.386-12.675,0-20.459-13.02-20.459-24.386a20.459,20.459,0,1,1,40.918,0Z" transform="translate(-48.106 -45.063)" fill="#ffeee2" stroke="#3d3736" stroke-linecap="round" stroke-linejoin="round" stroke-miterlimit="10" stroke-width="2.296"/>
                              </g>
                              <g id="그룹_451" data-name="그룹 451" transform="translate(9.093 23.42)">
                                <path id="패스_791" data-name="패스 791" d="M68.611,70.643a6.062,6.062,0,1,1-6.062-6.062A5.984,5.984,0,0,1,68.611,70.643Z" transform="translate(-56.487 -64.58)" fill="#ffd6d6"/>
                                <path id="패스_792" data-name="패스 792" d="M85.545,70.643a6.062,6.062,0,1,1-6.062-6.062A6.071,6.071,0,0,1,85.545,70.643Z" transform="translate(-53.1 -64.58)" fill="#ffd6d6"/>
                              </g>
                            </g>
                            <path id="패스_793" data-name="패스 793" d="M71.745,66.67a1.515,1.515,0,1,0-1.516,1.515A1.446,1.446,0,0,0,71.745,66.67Z" transform="translate(-44.948 -41.045)" fill="#ffd6bc"/>
                            <g id="그룹_453" data-name="그룹 453" transform="translate(16.326 21.975)">
                              <path id="패스_794" data-name="패스 794" d="M66.1,65.166a1.791,1.791,0,1,0-1.791,1.791A1.824,1.824,0,0,0,66.1,65.166Z" transform="translate(-62.514 -63.375)" fill="#3d3736"/>
                              <path id="패스_795" data-name="패스 795" d="M78.094,65.166A1.791,1.791,0,1,0,76.3,66.958,1.779,1.779,0,0,0,78.094,65.166Z" transform="translate(-60.115 -63.375)" fill="#3d3736"/>
                            </g>
                          </g>
                          <path id="패스_796" data-name="패스 796" d="M65.5,69.92a5.408,5.408,0,0,0,10.815,0Z" transform="translate(-45.591 -40.092)" fill="#ff7676" stroke="#3d3736" stroke-linecap="round" stroke-linejoin="round" stroke-miterlimit="10" stroke-width="2.296"/>
                        </g>
                        <path id="패스_797" data-name="패스 797" d="M94.177,60.6C91.422,45.166,80.262,43.858,73.649,43.858S55.877,45.1,53.121,60.6c-2.755,15.431-1.516,18.53,2,21.561,0,0-2.273-2.755-1.033-10.126s10.4-10.4,14.191-17.222c0,0,1.24,7.853-2.273,9.369,0,0,5.58.62,7.577-6.751,2,7.371,7.577,6.751,7.577,6.751-3.582-1.515-2.273-9.369-2.273-9.369,3.789,6.82,12.951,9.92,14.191,17.222,1.24,7.371-1.033,10.126-1.033,10.126C95.693,79.059,97,76.028,94.177,60.6Z" transform="translate(-48.368 -43.858)" fill="#806a54" stroke="#3d3736" stroke-linecap="round" stroke-linejoin="round" stroke-miterlimit="10" stroke-width="2.296"/>
                      </g>
                    </g>
                    <path id="패스_798" data-name="패스 798" d="M75.281,96.383l-4.547-4.822-4.546,4.822" transform="translate(-45.454 -34.317)" fill="none" stroke="#3d3736" stroke-linecap="round" stroke-linejoin="round" stroke-miterlimit="10" stroke-width="2.296"/>
                  </g>
                  <g id="그룹_459" data-name="그룹 459" transform="translate(14.191 50.425)">
                    <path id="패스_799" data-name="패스 799" d="M57.44,85.878l-.207,9.093,4.822,4.34-1.791,7.371L68.6,117.566" transform="translate(-57.233 -85.878)" fill="none" stroke="#3d3736" stroke-linecap="round" stroke-linejoin="round" stroke-miterlimit="10" stroke-width="2.296"/>
                    <path id="패스_800" data-name="패스 800" d="M84.409,85.878l.276,9.093-4.822,4.34,1.791,7.371-8.4,10.884" transform="translate(-54.03 -85.878)" fill="none" stroke="#3d3736" stroke-linecap="round" stroke-linejoin="round" stroke-miterlimit="10" stroke-width="2.296"/>
                  </g>
                </g>
                <g id="그룹_461" data-name="그룹 461" transform="translate(7.577 67.44)">
                  <line id="선_11" data-name="선 11" y2="13.433" transform="translate(0 0)" fill="none" stroke="#3d3736" stroke-linecap="round" stroke-linejoin="round" stroke-miterlimit="10" stroke-width="2.296"/>
                  <line id="선_12" data-name="선 12" y2="13.433" transform="translate(43.881 0)" fill="none" stroke="#3d3736" stroke-linecap="round" stroke-linejoin="round" stroke-miterlimit="10" stroke-width="2.296"/>
                </g>
              </g>
            </g>
            <rect id="사각형_699" data-name="사각형 699" width="98.37" height="14.191" transform="translate(0 89.414)" fill="#fff" stroke="#3d3736" stroke-linecap="round" stroke-linejoin="round" stroke-miterlimit="10" stroke-width="2.296"/>
          </g>
          <path id="패스_801" data-name="패스 801" d="M134.064,41.963H104.512a8.467,8.467,0,0,0-8.473,8.473V70.964a8.467,8.467,0,0,0,8.473,8.473h10.126v8.611l8.266-8.542h11.16a8.467,8.467,0,0,0,8.473-8.473V50.505A8.526,8.526,0,0,0,134.064,41.963Z" transform="translate(-25.706 -36.315)" fill="#fff" stroke="#3d3736" stroke-linecap="round" stroke-linejoin="round" stroke-miterlimit="10" stroke-width="2.296"/>
          <line id="선_13" data-name="선 13" x2="22.939" transform="translate(82.113 16.877)" fill="none" stroke="#9ea4aa" stroke-linecap="round" stroke-linejoin="round" stroke-miterlimit="10" stroke-width="2.296"/>
          <line id="선_14" data-name="선 14" x2="18.737" transform="translate(82.113 24.179)" fill="none" stroke="#9ea4aa" stroke-linecap="round" stroke-linejoin="round" stroke-miterlimit="10" stroke-width="2.296"/>
          <line id="선_15" data-name="선 15" x2="22.939" transform="translate(82.113 31.55)" fill="none" stroke="#9ea4aa" stroke-linecap="round" stroke-linejoin="round" stroke-miterlimit="10" stroke-width="2.296"/>
        </g>
      </g>
    </g>
  </g>
</svg>
