<svg id="그룹_377" data-name="그룹 377" xmlns="http://www.w3.org/2000/svg" width="60.657" height="34.61" viewBox="0 0 60.657 34.61">
  <path id="패스_444" data-name="패스 444" d="M146.1,645.495V634.93h6.139v16.021c0,.24-.363.346-.546.162Z" transform="translate(-146.104 -634.93)" fill="#fff"/>
  <path id="패스_445" data-name="패스 445" d="M179.5,663.825v-28.9H173.36v34.352c0,.239.364.347.547.163Z" transform="translate(-164.151 -634.93)" fill="#fff"/>
  <rect id="사각형_680" data-name="사각형 680" width="6.14" height="34.608" transform="translate(19.444 0)" fill="#fff"/>
  <path id="패스_446" data-name="패스 446" d="M231.46,635.026c-.185-.185-.548-.077-.548.162v15.747c0,.239.363.346.548.162l5.594-5.619v-4.835Z" transform="translate(-202.259 -634.932)" fill="#fff"/>
  <path id="패스_447" data-name="패스 447" d="M231.46,689.333c-.185-.185-.548-.077-.548.162v15.747c0,.239.363.347.548.164l5.594-5.619v-4.836Z" transform="translate(-202.259 -670.891)" fill="#fff"/>
  <path id="패스_448" data-name="패스 448" d="M265.141,640.643v28.9H259V635.187c0-.239.363-.347.546-.163Z" transform="translate(-220.859 -634.931)" fill="#fff"/>
  <path id="패스_449" data-name="패스 449" d="M289.375,640.643l.06,28.9-6.2,0V635.187c0-.239.363-.347.546-.163Z" transform="translate(-236.904 -634.931)" fill="#fff"/>
  <path id="패스_450" data-name="패스 450" d="M313.6,640.643v28.9h-6.14V635.187c0-.239.363-.347.547-.163Z" transform="translate(-252.947 -634.931)" fill="#fff"/>
</svg>
