<svg xmlns="http://www.w3.org/2000/svg" width="60" height="78.239" viewBox="0 0 60 78.239">
  <g id="img_StudentGirl" transform="translate(-776 -643.761)">
    <rect id="사각형_627" data-name="사각형 627" width="60" height="5" rx="2.5" transform="translate(776 717)" fill="#fff"/>
    <g id="그룹_452" data-name="그룹 452" transform="translate(349.251 529.576)">
      <path id="패스_1123" data-name="패스 1123" d="M463.876,279.852a8.427,8.427,0,0,1-3.983,4.668,17.482,17.482,0,0,1-4.193,1.669c-.948.259-2.516-.018-3.118.844-.319.456-.458,1.015-.746,1.491a1.337,1.337,0,0,1-1.365.745c-1.285-.343-1.366-3.44-1.328-4.476.033-.911-.171-4.167.29-4.657a1.021,1.021,0,0,1,.512-.233,8.844,8.844,0,0,0,5.081-3.575" transform="translate(-10.909 -101.795)" fill="#24221e"/>
      <path id="패스_1124" data-name="패스 1124" d="M462.012,278.491c-.045.147-.094.294-.148.438-.013.035-.069.174-.058.147.025-.059-.021.047-.021.047l-.059.129a7.1,7.1,0,0,1-.468.833c-.084.129-.173.254-.263.379a.663.663,0,0,1-.065.084c-.052.065-.1.13-.158.193a8.964,8.964,0,0,1-.665.7,9.2,9.2,0,0,1-.709.609c.066-.051-.095.069-.117.086-.058.042-.117.084-.176.125q-.206.144-.419.278a13,13,0,0,1-1.854.96,19.618,19.618,0,0,1-2.1.726c-.161.047-.322.1-.485.135q-.091.021-.183.037c-.027,0-.055.008-.082.013-.1.022.12-.009.016,0-.26.016-.521.045-.782.066a4.349,4.349,0,0,0-1.743.4,2.948,2.948,0,0,0-1.166,1.587,4.913,4.913,0,0,1-.226.465.9.9,0,0,1-.241.316c-.022.021-.153.118-.079.07a1.24,1.24,0,0,1-.18.1c.124-.054-.153.02-.061.011s-.033,0-.04,0c.075.007.038.007-.016,0-.147-.03.039,0,.03.022s-.1-.053-.112-.06c-.111-.055.044.047.022.023s-.067-.059-.1-.09-.12-.138-.048-.049-.014-.022-.029-.046a2.265,2.265,0,0,1-.149-.266c-.012-.023-.07-.161-.031-.064s-.026-.073-.034-.094c-.036-.1-.068-.2-.1-.307a6.578,6.578,0,0,1-.151-.688c-.009-.053-.017-.105-.025-.158-.011-.072-.019-.149,0-.025-.013-.122-.029-.245-.04-.367q-.031-.337-.045-.674c-.028-.686,0-1.375-.012-2.062-.008-.479-.014-.958-.008-1.436,0-.242.009-.483.022-.724q.008-.15.019-.3a1,1,0,0,1,.032-.319c0-.007-.025.158-.01.081,0-.02.006-.04.009-.061.007-.044.015-.088.024-.133.016-.077.036-.152.057-.228.009-.031.053-.136,0-.01s-.016.026,0,.005c.058-.068-.052.1-.054.065,0,.05-.085-.019,0,0,.036-.02.041-.022.013-.008s-.022.012.018,0a12.536,12.536,0,0,0,1.915-.69,9.37,9.37,0,0,0,3.12-2.413c.226-.269.438-.55.636-.84a.7.7,0,1,0-1.205-.7,6.062,6.062,0,0,1-.561.723,8.878,8.878,0,0,1-.719.725,7.83,7.83,0,0,1-1.554,1.088q-.208.113-.422.215c-.077.037-.154.072-.232.107s-.016.008,0,0c-.056.024-.112.046-.169.069a8.66,8.66,0,0,1-.936.307,1.614,1.614,0,0,0-1.024.6,1.668,1.668,0,0,0-.2.492,11.4,11.4,0,0,0-.171,2.885c.009.747,0,1.494.009,2.24a9.211,9.211,0,0,0,.423,2.91,2.8,2.8,0,0,0,.761,1.238,1.669,1.669,0,0,0,1.946.169,3.505,3.505,0,0,0,1.311-1.808,4.81,4.81,0,0,1,.259-.49c.082-.135-.046.025.037-.049.025-.023.051-.05.075-.074.057-.06.028-.013-.017.012.054-.029.106-.065.16-.1.023-.013.048-.024.073-.035-.025.012-.135.044-.014.009s.255-.078.387-.1c.069-.013.137-.023.206-.035s-.025,0-.035,0l.091-.01q.23-.023.461-.04c.31-.023.619-.049.927-.093a10.967,10.967,0,0,0,2.067-.6c2.681-.954,5.359-2.6,6.6-5.274a8.1,8.1,0,0,0,.4-1.029.705.705,0,0,0-.488-.859.712.712,0,0,0-.858.488" transform="translate(-9.718 -100.619)" fill="#24221e"/>
      <path id="패스_1125" data-name="패스 1125" d="M517.909,281.37c1.035,2.283,1.9,4.651,2.824,6.983.394.994.922,2.113,1.956,2.387.471.124.983.045,1.445.2s.844.743.539,1.123a1.029,1.029,0,0,1-.43.269,50.708,50.708,0,0,1-4.832,1.714c-1.169.349-3.328,1.406-4.408.588-1.062-.805-1.756-3.257-2.361-4.432l-2.71-5.263" transform="translate(-49.084 -104.96)" fill="#24221e"/>
      <path id="패스_1126" data-name="패스 1126" d="M516.142,280.554c.543,1.2,1.034,2.413,1.515,3.64s.934,2.486,1.457,3.7a3.862,3.862,0,0,0,2.044,2.287,3.306,3.306,0,0,0,.929.162c.135.01.272.013.407.029-.1-.013.15.029.134.025a1.585,1.585,0,0,1,.156.045c-.075-.035-.077-.033,0,0,.007-.005.128.093.007,0a.95.95,0,0,1,.129.128c-.1-.116.009.034.022.055-.067-.113-.027-.04-.011-.008,0-.026,0-.052-.007-.078,0,.08,0,.071.013-.028-.059.139.034-.045.034-.059,0-.031.027-.017-.037.016s-.089.043-.035.022l-.167.068q-1.874.766-3.805,1.38c-.488.155-.98.3-1.462.467-.437.155-.873.315-1.319.444-.229.066-.459.125-.693.169-.062.012-.124.022-.186.032.028,0,.137-.013,0,0s-.256.022-.386.021c-.048,0-.1,0-.143,0s-.214-.034-.035,0a2.139,2.139,0,0,1-.26-.062c-.044-.014-.172-.091-.027-.007-.044-.025-.09-.052-.135-.075s-.107-.083.02.022c-.049-.041-.1-.082-.143-.126s-.117-.12-.172-.184c-.019-.023-.128-.163-.024-.025-.033-.044-.065-.089-.1-.134a5.946,5.946,0,0,1-.338-.553c-.111-.2-.214-.411-.311-.621-.046-.1-.09-.2-.134-.295-.026-.059-.052-.119-.078-.179l-.051-.119c.024.057.027.063.008.018-.211-.505-.411-1.016-.629-1.518-.243-.559-.538-1.095-.817-1.636l-2.138-4.153a.7.7,0,1,0-1.205.7l1.99,3.865c.291.566.6,1.125.868,1.7.045.1.087.2.13.3.012.027.051.122,0-.01l.067.163c.094.229.187.459.281.688a10.336,10.336,0,0,0,1.462,2.751,2.335,2.335,0,0,0,1.209.8,3.761,3.761,0,0,0,1.586,0,24.256,24.256,0,0,0,2.763-.852q2.025-.611,3.995-1.385c.67-.263,1.545-.47,1.764-1.256a1.544,1.544,0,0,0-.794-1.641,2.534,2.534,0,0,0-1.07-.272,4.157,4.157,0,0,1-.825-.112c-.179-.049.1.065-.062-.026-.035-.02-.073-.038-.108-.059-.053-.031-.1-.065-.154-.1.123.087-.035-.033-.05-.046a3.231,3.231,0,0,1-.258-.272c-.132-.152.043.063-.028-.036-.044-.061-.087-.124-.127-.188a5.925,5.925,0,0,1-.4-.759q-.041-.091-.08-.182c.054.127-.045-.113-.054-.135-.074-.186-.147-.373-.221-.56-.284-.724-.563-1.449-.846-2.174-.586-1.5-1.186-3-1.852-4.476a.7.7,0,0,0-.955-.25.714.714,0,0,0-.25.955" transform="translate(-47.92 -103.792)" fill="#24221e"/>
      <path id="패스_1127" data-name="패스 1127" d="M458.559,262.771c-1.832,1.905-3.3,4.16-5.127,6.1.079.307.4.478.686.611,1.139.526,2.856.932,3.819,1.725.736.606.683,1.676,1.789,1.8a43.508,43.508,0,0,0,5.683.241,1.246,1.246,0,0,1,1,.27c.171.2.2.489.39.672a1.082,1.082,0,0,0,.849.186,39.139,39.139,0,0,0,6.534-1,1,1,0,0,0,.76,1.148,2.8,2.8,0,0,0,1.509-.127,17.648,17.648,0,0,0,8.7-4.787c-.585-2.539-1.935-5.338-2.1-7.892" transform="translate(-13.613 -92.62)" fill="#cecece"/>
      <path id="패스_1128" data-name="패스 1128" d="M456.884,261.1c-1.841,1.922-3.307,4.163-5.127,6.1a.7.7,0,0,0-.179.679c.257.814,1.115,1.1,1.838,1.374.333.128.669.247,1,.371.171.064.341.128.511.2s.2.078.395.169a6.583,6.583,0,0,1,.88.492c.111.073.034.022.01,0,.031.025.062.049.091.076.049.044.092.091.137.137.019.019.035.042.054.062-.094-.1-.033-.046-.011-.013.039.059.079.118.116.178a3.315,3.315,0,0,0,1.1,1.355,3.014,3.014,0,0,0,1.213.282q.685.069,1.372.115,1.375.093,2.752.1c.443,0,.886-.014,1.329-.013a2.064,2.064,0,0,1,.275.012c-.153-.021.143.027.054.017-.06-.007.019,0,.033.021-.08-.122.01.029.007.016,0,.007-.071-.151,0,.021.016.04.038.079.056.119a1.434,1.434,0,0,0,.936.87,3.78,3.78,0,0,0,1.285.012,40.651,40.651,0,0,0,6.177-.986l-.858-.859A1.706,1.706,0,0,0,473.514,274a4.258,4.258,0,0,0,2.526-.275,24.37,24.37,0,0,0,3.95-1.5,16.184,16.184,0,0,0,3.439-2.308q.394-.344.766-.712a1.452,1.452,0,0,0,.45-.582,1.7,1.7,0,0,0-.112-.826c-.2-.748-.435-1.484-.678-2.217-.283-.855-.573-1.708-.815-2.576-.119-.428-.226-.86-.312-1.3-.04-.206-.077-.412-.106-.62-.012-.083,0-.024,0-.007-.008-.064-.015-.127-.022-.191-.012-.114-.021-.229-.029-.343a.7.7,0,1,0-1.4,0c.193,2.81,1.491,5.365,2.124,8.077l.179-.679c-.3.307-.607.6-.927.889q-.218.194-.442.379c-.074.061-.148.121-.223.181l-.112.088c.087-.067-.085.064-.083.063a15.255,15.255,0,0,1-1.95,1.241q-.5.267-1.014.5-.141.064-.284.126l-.076.033c.069-.029-.063.026-.077.032q-.275.114-.553.219c-.774.294-1.563.546-2.359.774-.236.068-.471.138-.711.191a1.8,1.8,0,0,1-.6.049,1.026,1.026,0,0,1-.185-.049c.093.034,0,0-.038-.027-.015-.009-.122-.089-.062-.04s-.062-.066-.073-.078c.088.095,0-.007-.006-.012-.033-.064-.04-.074-.022-.028s.013.035-.01-.032c-.047-.01.032-.157-.006.005.035-.15-.039.111.006-.059a.705.705,0,0,0-.859-.858,38.126,38.126,0,0,1-5.083.87c-.421.042-.843.08-1.265.106-.082.005-.164.009-.246.009-.017,0-.163-.01-.082,0s-.038-.009-.043-.011c-.14-.05.015.041.03.042l.014.021a.729.729,0,0,1-.049-.084c-.02-.038-.039-.078-.057-.118a1.525,1.525,0,0,0-.884-.875,3.172,3.172,0,0,0-1.151-.107,43.345,43.345,0,0,1-5.271-.226c-.06-.006-.123-.009-.182-.019.012,0,.1.02.028,0s-.13-.034-.194-.057c.135.049.006-.025-.043-.036-.08-.018.078.08.022.02-.022-.023-.049-.044-.072-.066-.054-.053-.113-.133-.034-.025-.034-.047-.067-.094-.1-.143-.068-.107-.13-.218-.191-.33a3.511,3.511,0,0,0-1.27-1.358,11.917,11.917,0,0,0-2.175-.956c-.359-.131-.72-.261-1.074-.406-.075-.031.005,0,.017.008l-.144-.064c-.078-.036-.156-.072-.231-.113-.029-.016-.056-.033-.085-.049-.159-.082.03.041-.04-.022-.023-.02-.046-.042-.068-.065.086.091-.008-.08.031.042l-.18.679c1.82-1.94,3.287-4.181,5.127-6.1a.7.7,0,1,0-.987-.987" transform="translate(-12.432 -91.442)" fill="#24221e"/>
      <path id="패스_1129" data-name="패스 1129" d="M468.964,270.385a27.978,27.978,0,0,1-3.269,5.724.7.7,0,0,0,.251.955.714.714,0,0,0,.955-.25,27.992,27.992,0,0,0,3.269-5.724.722.722,0,0,0-.251-.955.7.7,0,0,0-.955.25" transform="translate(-21.248 -97.85)" fill="#24221e"/>
      <path id="패스_1130" data-name="패스 1130" d="M487.778,273.923c-.241,2.372-.6,4.719-1.068,7.062a.7.7,0,0,0,1.346.371q.739-3.687,1.118-7.433a.7.7,0,0,0-.7-.7.717.717,0,0,0-.7.7" transform="translate(-34.495 -99.846)" fill="#24221e"/>
      <path id="패스_1131" data-name="패스 1131" d="M509.146,268.521a38.8,38.8,0,0,1-.3,4.4c-.011.088-.022.175-.033.263-.006.05-.013.1-.019.15q.012-.091-.006.039-.041.3-.087.594c-.058.374-.122.747-.193,1.119a19.579,19.579,0,0,1-.494,2.037.7.7,0,0,0,.488.859.713.713,0,0,0,.858-.488,26.412,26.412,0,0,0,.873-4.5,38.81,38.81,0,0,0,.309-4.472.7.7,0,1,0-1.4,0" transform="translate(-47.864 -96.454)" fill="#24221e"/>
      <path id="패스_1132" data-name="패스 1132" d="M454.377,207.1c.13-.552-.62-.875-1.187-.859-2.3.065-4.282,1.833-5.281,3.91a19.024,19.024,0,0,0-1.4,6.729c-2.073.16-3.407,2.349-3.752,4.4a6.108,6.108,0,0,0,5.441,7.576,20.282,20.282,0,0,0,5.845-.1" transform="translate(-6.834 -57.795)" fill="#7a6a59"/>
      <path id="패스_1133" data-name="패스 1133" d="M453.873,206.125a1.336,1.336,0,0,0-.751-1.484,2.637,2.637,0,0,0-1.553-.224,6.127,6.127,0,0,0-2.983,1.219,9.643,9.643,0,0,0-3.41,5.838,33.727,33.727,0,0,0-.541,4.245l.7-.7c-3.193.28-4.623,3.88-4.572,6.685a6.487,6.487,0,0,0,1.793,4.526,8,8,0,0,0,4.005,2.08,19.648,19.648,0,0,0,6.309-.019.715.715,0,0,0,.7-.7c-.015-.343-.309-.742-.7-.7a23.072,23.072,0,0,1-5.132.2,8.63,8.63,0,0,1-2.037-.489c-.067-.025-.133-.051-.2-.078-.132-.052-.059-.025-.031-.013l-.1-.043c-.162-.074-.322-.152-.478-.237s-.288-.162-.427-.251c-.069-.044-.138-.09-.206-.136l-.086-.061c-.012-.009-.15-.11-.1-.071a6.181,6.181,0,0,1-.68-.626q-.083-.09-.161-.183c-.03-.036-.06-.071-.089-.108.009.012.05.067,0,0a4.976,4.976,0,0,1-.293-.438,4.015,4.015,0,0,1-.412-.9c-.057-.175-.106-.352-.146-.531-.02-.09-.039-.18-.055-.271s-.032-.187-.034-.206a7.839,7.839,0,0,1,.046-2.156,7.071,7.071,0,0,1,.207-.881q.067-.22.148-.435l.048-.123s.043-.1.015-.038.015-.033.017-.038c.023-.049.045-.1.068-.149a6.055,6.055,0,0,1,.521-.9l.056-.078c.117-.165-.046.054.026-.036.053-.066.107-.13.163-.193a4.4,4.4,0,0,1,.352-.354l.07-.061s.139-.113.072-.061.02-.015.027-.019c.042-.029.083-.059.125-.087a4.09,4.09,0,0,1,.421-.239c.027-.014.055-.026.082-.038-.128.056,0,0,.031-.009.077-.025.153-.052.232-.074s.159-.041.24-.056l.091-.016c-.154.03.044,0,.065,0a.721.721,0,0,0,.7-.7,18.644,18.644,0,0,1,1.216-6.188,8.193,8.193,0,0,1,.679-1.214c.066-.1.134-.191.2-.285.008-.011.08-.1.019-.026.036-.046.073-.091.11-.137q.223-.27.47-.518t.487-.447l.108-.087c.173-.14-.1.069.078-.059.094-.066.187-.133.283-.2a4.764,4.764,0,0,1,1.113-.556,4.923,4.923,0,0,1,.722-.184l.134-.022c-.14.02.078-.006.086-.007a3.1,3.1,0,0,1,.358-.016c.047,0,.095,0,.142.01-.171-.021.02.012.045.018a1.149,1.149,0,0,0,.14.043q.072.026-.033-.016c.026.012.051.025.075.038s.078.046.116.073c-.127-.088.016.071-.069-.073a.527.527,0,0,0,.049.083.262.262,0,0,1-.047-.169c0,.077,0,.067.011-.032a.7.7,0,1,0,1.346.371" transform="translate(-5.657 -56.631)" fill="#24221e"/>
      <path id="패스_1134" data-name="패스 1134" d="M450.859,152.268a12.646,12.646,0,0,0,7.574.468c2.107-.535,3.472-1.752,5.7-1.394,4.578.735,8.709.9,12.737-1.889a7.588,7.588,0,0,0,2.477-2.583,10.275,10.275,0,0,0,.769-4.986c-.117-8.685-1.246-17.876-9.245-22.956-10.292-6.536-27.178-1.541-29.822,11.041-.75,3.568-.218,6.514-3.049,9.319-1.105,1.1-2.885,1.711-3.785,2.984a3.609,3.609,0,0,0-.59,2.059,5.471,5.471,0,0,0,4.484,5.271,5.454,5.454,0,0,1,1.729.361,5,5,0,0,1,1.072.913,6.551,6.551,0,0,0,6.653,1.378,5.326,5.326,0,0,1,1.48-.454,4.4,4.4,0,0,1,1.818.469" transform="translate(-1.177 -1.172)" fill="#893825"/>
      <path id="패스_1135" data-name="패스 1135" d="M449.5,151.769a13.043,13.043,0,0,0,8.432.329,35.514,35.514,0,0,1,3.4-1.213c.08-.016.16-.03.24-.044.127-.021-.035,0,.094-.012.157-.014.314-.024.472-.025a5.063,5.063,0,0,1,.908.083c.7.109,1.4.207,2.1.284a17.27,17.27,0,0,0,7.67-.635,13.6,13.6,0,0,0,3.637-1.945,7.579,7.579,0,0,0,2.657-3.292,11.331,11.331,0,0,0,.532-4.18c-.01-1.168-.04-2.336-.1-3.5a46.009,46.009,0,0,0-.807-6.87,25.267,25.267,0,0,0-2.14-6.358,18.185,18.185,0,0,0-4.047-5.339,18.641,18.641,0,0,0-5.438-3.391,20.353,20.353,0,0,0-5.491-1.348,22.889,22.889,0,0,0-5.719.123,22.539,22.539,0,0,0-5.394,1.462,21.415,21.415,0,0,0-4.994,2.864,17.98,17.98,0,0,0-3.821,4.031,16.266,16.266,0,0,0-2.339,5.162,27.545,27.545,0,0,0-.583,3.5c-.035.286-.07.572-.107.858-.018.136.009-.061-.01.074l-.027.194c-.022.149-.045.3-.07.447a11.972,11.972,0,0,1-.367,1.585c-.038.122-.079.244-.122.364-.022.06-.044.121-.068.181l-.036.09c-.046.119.014-.029-.017.043a7.767,7.767,0,0,1-.372.741,8.129,8.129,0,0,1-.5.76.752.752,0,0,1-.07.09c-.047.058-.094.116-.143.173q-.163.192-.336.374c-.11.116-.222.23-.34.337-.049.045-.1.089-.15.132l-.077.064c-.009.007-.109.088-.061.051-.151.118-.469.335-.689.479-.5.324-1,.629-1.478.984a5.458,5.458,0,0,0-1.359,1.375,4.284,4.284,0,0,0-.612,2.082,5.805,5.805,0,0,0,.974,3.466,6.242,6.242,0,0,0,2.681,2.3,6.589,6.589,0,0,0,1.921.483c.095.011.189.02.283.033s.033.006.016,0l.12.02a2.515,2.515,0,0,1,.5.132c-.042-.017.1.051.122.065a1.824,1.824,0,0,1,.2.128c-.031-.024.1.091.13.115.068.062.134.126.2.19a7.648,7.648,0,0,0,3.234,1.995,7.3,7.3,0,0,0,3.8.092c.615-.153,1.178-.461,1.794-.6a1.587,1.587,0,0,1,.757.054,10.124,10.124,0,0,1,1.012.37.7.7,0,0,0,.859-.488.718.718,0,0,0-.488-.858,4.6,4.6,0,0,0-2.085-.487,10.728,10.728,0,0,0-1.984.6,4.865,4.865,0,0,1-1.612.223c-.14,0-.28-.006-.42-.016-.07,0-.14-.01-.21-.017l-.1-.012c-.118-.013.094.015-.023,0a6.8,6.8,0,0,1-.857-.184q-.2-.057-.4-.128c-.066-.023-.132-.048-.2-.073l-.1-.039c-.109-.045.08.036-.027-.012a6.747,6.747,0,0,1-.773-.409q-.179-.111-.349-.233c-.021-.015-.157-.118-.082-.059-.064-.051-.127-.1-.189-.156-.24-.206-.454-.437-.683-.655a3.266,3.266,0,0,0-.872-.631,4.023,4.023,0,0,0-1.165-.3,6.963,6.963,0,0,1-1.635-.349c-.121-.045.041.023-.075-.031-.069-.033-.139-.065-.207-.1q-.19-.1-.373-.208t-.329-.218c-.026-.019-.154-.116-.069-.049q-.09-.071-.178-.147a5.717,5.717,0,0,1-.585-.581c-.043-.05-.085-.1-.127-.151-.08-.1.021.034-.052-.068s-.165-.233-.242-.354a5.622,5.622,0,0,1-.385-.727c.045.1-.016-.044-.029-.076-.023-.061-.045-.123-.067-.186q-.068-.2-.119-.409c-.032-.127-.058-.256-.08-.386-.006-.032-.01-.065-.015-.1,0,.012.012.105,0,.023s-.015-.153-.02-.23c-.009-.135-.011-.272-.008-.408,0-.078.005-.156.011-.234,0-.039.007-.078.01-.116.012-.127-.014.08,0-.047a3.592,3.592,0,0,1,.1-.457,2.428,2.428,0,0,1,.134-.376,4.136,4.136,0,0,1,.235-.4c.068-.1-.029.026.051-.068.05-.059.1-.117.153-.173a5.16,5.16,0,0,1,.622-.562c-.08.061.055-.039.078-.055l.169-.12c.124-.086.249-.17.375-.252.485-.318.983-.616,1.449-.961a7.839,7.839,0,0,0,1.384-1.311,8.77,8.77,0,0,0,1.667-3.154,20.847,20.847,0,0,0,.572-3.313c.034-.283.069-.565.106-.847.017-.13-.006.041.012-.09.01-.07.019-.139.029-.208q.034-.229.07-.456c.087-.533.192-1.062.327-1.584q.172-.672.4-1.327.114-.323.243-.64c.02-.051.042-.1.062-.151-.046.114-.01.023.015-.034q.07-.162.144-.322a15.807,15.807,0,0,1,1.339-2.349q.189-.274.389-.54l.1-.127-.027.036.049-.063c.072-.09.143-.18.216-.269q.422-.513.883-.992t.957-.922q.248-.222.5-.435.123-.1.248-.2l.125-.1c.044-.035.16-.122.049-.038a20.847,20.847,0,0,1,2.235-1.48q.587-.334,1.2-.629.3-.148.614-.286l.3-.131.075-.032c-.005,0-.115.047-.041.017l.176-.072a22.226,22.226,0,0,1,2.584-.87,22.772,22.772,0,0,1,2.681-.553l.163-.023c-.124.018-.036,0,.032,0q.177-.023.354-.042.341-.038.682-.066.682-.055,1.367-.069a21.837,21.837,0,0,1,2.751.117l.324.037.162.02c.081.01-.047-.006-.051-.007l.108.015q.336.047.67.106.667.117,1.324.278a19.035,19.035,0,0,1,2.563.824l.149.061.075.031c-.005,0-.116-.05-.043-.018.107.047.214.093.32.14q.306.138.607.287.6.3,1.179.644.7.419,1.361.9.17.123.336.251c.063.048.008.006,0,0l.082.064.188.151q.331.269.647.553.619.556,1.182,1.171.276.3.537.616.125.15.245.3c.022.027.118.151.05.063l.137.181a18.3,18.3,0,0,1,1.678,2.723q.18.356.345.719.079.175.156.351c.015.035.075.175.03.068l.086.207q.3.744.552,1.507a28.19,28.19,0,0,1,.831,3.172q.163.806.288,1.619c.021.131.04.261.059.392l.028.2.013.1c.016.113-.013-.1,0,.012q.054.411.1.824a66.379,66.379,0,0,1,.362,6.7,10.537,10.537,0,0,1-.452,3.9,4.722,4.722,0,0,1-.4.793c-.08.13-.167.256-.257.38-.046.063-.017.025-.006.011-.023.03-.048.06-.072.089-.057.069-.114.138-.174.2a7.708,7.708,0,0,1-.682.677,7.822,7.822,0,0,1-.676.538A13.5,13.5,0,0,1,473.8,148.6a10.524,10.524,0,0,1-1.675.695,12.945,12.945,0,0,1-1.8.441q-.217.038-.435.068c.1-.014-.079.01-.106.013l-.256.028q-.458.047-.919.067a23.293,23.293,0,0,1-3.814-.182c-.346-.042-.515-.064-.867-.116s-.695-.111-1.043-.157a5.72,5.72,0,0,0-1.992.091c-1.159.253-2.208.845-3.335,1.2a11.051,11.051,0,0,1-3.921.473,11.921,11.921,0,0,1-3.77-.8.7.7,0,0,0-.859.487.718.718,0,0,0,.488.859" transform="translate(0 0)" fill="#24221e"/>
      <path id="패스_1136" data-name="패스 1136" d="M528.281,207.944c2.629.629,4.123,3.393,4.913,5.979a28.76,28.76,0,0,1,1.1,11.365,9.461,9.461,0,0,1-1.138,4,4.1,4.1,0,0,1-3.416,2.09.982.982,0,0,1-.7-.233c-.336-.348-.121-.918.085-1.357a17.32,17.32,0,0,0,.966-10.078c-.544-3.383-1.65-6.646-2.441-9.98" transform="translate(-60.208 -58.862)" fill="#7a6a59"/>
      <path id="패스_1137" data-name="패스 1137" d="M526.926,207.448c.158.039.314.084.468.138.071.025.141.051.21.08-.12-.049.09.044.124.06.143.07.281.147.416.23q.094.058.187.12l.1.073c.012.009.148.108.082.059s.041.032.054.044l.074.061q.1.082.192.169.178.163.343.339t.322.367l.082.1-.009-.011q.09.118.175.24a10.688,10.688,0,0,1,.989,1.76c.037.083.074.165.109.249-.046-.108.035.087.047.116q.1.251.193.505c.119.331.226.665.326,1a28.085,28.085,0,0,1,1.057,10.445,9.124,9.124,0,0,1-1.286,4.463c-.007.011-.077.106-.018.028-.021.028-.044.055-.066.082q-.09.109-.185.213a4.717,4.717,0,0,1-.38.369c-.022.019-.206.164-.133.111q-.1.072-.2.14a4.021,4.021,0,0,1-.485.272c-.031.015-.062.03-.094.043.1-.042-.009,0-.025.007-.076.026-.151.054-.229.077s-.176.049-.266.068l-.1.02c-.211.04.07,0-.053.008a2.5,2.5,0,0,1-.519.007c.143.016-.129-.041-.065-.019l.021.009q-.1-.057-.039-.022c0-.029.081.18.019,0,.03.088.027.16.029.023,0-.032,0-.064.005-.1-.014.126,0,.01.01-.012.03-.087.053-.178.083-.265,0,0,.044-.108.017-.045s.042-.089.048-.1c.185-.4.358-.81.508-1.226a13.863,13.863,0,0,0,.62-2.408,19.779,19.779,0,0,0,.149-5.117,68.187,68.187,0,0,0-2.358-10.542q-.168-.649-.324-1.3a.7.7,0,0,0-1.346.371c.442,1.857.978,3.688,1.462,5.533.242.922.471,1.847.667,2.779.183.87.351,1.809.446,2.626a22.542,22.542,0,0,1,.158,2.641,17.236,17.236,0,0,1-.181,2.518,13.923,13.923,0,0,1-.64,2.529c-.143.4-.281.687-.45,1.079a2.278,2.278,0,0,0-.235,1.382c.234,1.084,1.451,1.156,2.338,1a4.568,4.568,0,0,0,2.124-1.074,7.27,7.27,0,0,0,2.179-4.532,28.7,28.7,0,0,0-.591-11.265,17.213,17.213,0,0,0-1.662-4.416,7.3,7.3,0,0,0-3.047-3.053,5.773,5.773,0,0,0-1.079-.392.7.7,0,1,0-.371,1.346" transform="translate(-59.038 -57.693)" fill="#24221e"/>
      <path id="패스_1138" data-name="패스 1138" d="M470.025,209.039a46.855,46.855,0,0,0-5.393,17.837c-.087.938-.924,2.622-.55,3.514.445,1.063,2.783,1.483,3.857,1.813a32.434,32.434,0,0,0,9.712,1.428,3.551,3.551,0,0,0,1.688-.305c1-.543,1.346-1.886,2.332-2.457a20.337,20.337,0,0,0,1.252,2.7c.279.5,4.125-1.193,4.553-1.364,2.559-1.029,2.916-2.856,2.877-5.6a55.418,55.418,0,0,0-3.016-17.227" transform="translate(-20.239 -59.55)" fill="#597582"/>
      <path id="패스_1139" data-name="패스 1139" d="M468.243,207.516a47.409,47.409,0,0,0-4.767,13.232q-.24,1.205-.417,2.422c-.122.839-.251,1.689-.3,2.536-.008.121.03-.146-.006.034-.01.053-.02.106-.032.158-.029.134-.064.266-.1.4-.077.281-.163.559-.242.839a4.816,4.816,0,0,0-.255,1.749c.132,1.257,1.271,1.831,2.345,2.21.491.173.994.307,1.5.441.6.162,1.2.352,1.806.512a33.788,33.788,0,0,0,4.8.9q1.191.137,2.389.186a14.7,14.7,0,0,0,2.3-.015,3.1,3.1,0,0,0,1.995-.955,7.489,7.489,0,0,0,.6-.767c.081-.114.161-.229.243-.342.037-.052.076-.1.114-.155.066-.089-.061.075.008-.01l.081-.1a3.364,3.364,0,0,1,.28-.3c.046-.042.093-.084.142-.122-.106.082.092-.053.117-.068l-1.025-.417a22.508,22.508,0,0,0,.914,2.1c.225.45.419,1.038.96,1.177a2.2,2.2,0,0,0,1.006-.058,9.553,9.553,0,0,0,.992-.29c.717-.243,1.421-.525,2.119-.815a10.679,10.679,0,0,0,1.889-.9,4.562,4.562,0,0,0,1.769-2.24,8.489,8.489,0,0,0,.406-2.884,52.285,52.285,0,0,0-.7-8.536,55.608,55.608,0,0,0-2.344-9.408.715.715,0,0,0-.859-.488.7.7,0,0,0-.487.859,54.793,54.793,0,0,1,2.968,16.071c.019.586.034,1.173.021,1.759,0,.226-.015.451-.031.676-.008.117-.019.234-.032.35,0,.029-.028.222,0,.041-.007.055-.016.11-.025.166a6,6,0,0,1-.135.631c-.023.083-.048.166-.075.248-.016.048-.033.1-.051.144s-.108.243-.025.067a4.491,4.491,0,0,1-.257.483c-.045.07-.093.138-.141.206-.1.14.1-.111-.015.017-.045.051-.088.1-.134.153a3.9,3.9,0,0,1-.427.392c.134-.107-.014.008-.036.023-.046.033-.093.065-.141.1-.1.065-.2.125-.3.183s-.221.117-.334.17c-.059.028-.118.055-.178.081.1-.045,0,0-.02.008l-.21.088c-.566.238-1.133.473-1.706.692-.392.149-.786.293-1.186.419-.176.056-.354.108-.533.154-.084.021-.168.041-.253.057l-.1.018c-.1.02-.048-.047.063-.007a.7.7,0,0,0-.184.012c-.179.01.166.043.044.009-.068-.019-.081-.058.108.048-.1-.057.288.193.193.2-.043,0-.22-.405-.25-.463a19.077,19.077,0,0,1-.933-2.074.708.708,0,0,0-1.025-.417,4.487,4.487,0,0,0-1.3,1.331c-.081.114-.161.229-.242.342l-.113.155c-.047.064,0,0,.012-.014-.026.033-.052.066-.08.1a3.548,3.548,0,0,1-.276.3q-.067.064-.14.124c-.061.051.009-.007.019-.014-.043.029-.086.059-.131.086a.971.971,0,0,1-.312.14c-.075.023-.151.041-.227.057a.979.979,0,0,1-.2.032c-.356.034-.715.03-1.073.028q-1.154-.007-2.306-.1a30.849,30.849,0,0,1-4.506-.689c-1.193-.271-2.366-.625-3.544-.955-.257-.072-.514-.148-.767-.234-.112-.038-.224-.079-.335-.121-.025-.01-.178-.071-.106-.041s-.012,0-.023-.01l-.129-.059c-.1-.047-.2-.1-.293-.151-.053-.03-.106-.062-.158-.095-.025-.016-.171-.116-.094-.061s-.041-.035-.06-.052c-.035-.031-.069-.063-.1-.1-.058-.06-.088-.123-.019-.012l-.08-.126c-.011-.018-.017-.039-.029-.056.006.009.038.132.029.061a1.063,1.063,0,0,0-.044-.167c.037.106.006.067,0-.022,0-.064,0-.129,0-.193s.007-.115.012-.173c0-.022.019-.147.006-.056s0-.017.006-.029c.025-.136.052-.271.084-.406.13-.546.32-1.077.444-1.625.156-.693.173-1.424.262-2.128.093-.735.214-1.5.349-2.244q.413-2.278,1.048-4.508a45.465,45.465,0,0,1,3.216-8.211q.252-.495.516-.983a.7.7,0,1,0-1.205-.7" transform="translate(-19.059 -58.379)" fill="#24221e"/>
      <path id="패스_1140" data-name="패스 1140" d="M491.87,218.93a17.076,17.076,0,0,1,1.388,3.021,19.828,19.828,0,0,0,4.351,6.467,1.224,1.224,0,0,0,.857.463c.389-.021.659-.384.865-.716a34.512,34.512,0,0,0,4.738-12.6" transform="translate(-37.745 -63.649)" fill="#fff"/>
      <path id="패스_1141" data-name="패스 1141" d="M490.086,218.118a12.732,12.732,0,0,1,1.146,2.429,22.316,22.316,0,0,0,1.169,2.519,20.593,20.593,0,0,0,3.2,4.342,3.546,3.546,0,0,0,1.076.877,1.418,1.418,0,0,0,1.5-.233,3.884,3.884,0,0,0,.788-1.053q.366-.6.706-1.223a35.709,35.709,0,0,0,2.308-5.122,34.614,34.614,0,0,0,1.577-6.063.715.715,0,0,0-.487-.858.706.706,0,0,0-.859.487,34.071,34.071,0,0,1-3.238,9.9q-.595,1.166-1.277,2.284c-.1.158-.189.32-.3.469.064-.086-.086.09-.107.111-.043.045-.033.073-.009.011l-.054.032c.064-.022.072-.025.024-.01-.068.03.013.007.03,0-.1.024-.076,0-.022,0-.12-.013-.064-.028-.028-.008a1.179,1.179,0,0,1-.123-.076c.068.048-.122-.111-.139-.127-.075-.071-.147-.145-.22-.219a18.692,18.692,0,0,1-2.972-3.919q-.344-.6-.647-1.227c-.212-.44-.375-.814-.541-1.232a15.194,15.194,0,0,0-1.3-2.8.714.714,0,0,0-.955-.25.7.7,0,0,0-.25.955" transform="translate(-36.563 -62.485)" fill="#24221e"/>
      <path id="패스_1142" data-name="패스 1142" d="M504.953,221.272c.311-1.224.977-2.537.252-3.7-1.023-1.64-2.526-.389-3.8.406a.513.513,0,0,0-.253.264c-.265.942,1.4,2.887,1.855,3.675a1.447,1.447,0,0,1,.239.618,1.371,1.371,0,0,1-.107.528,13.238,13.238,0,0,1-1.256,2.606c-.617.987,1.195,2.212,1.816,2.876.064.069.148.144.24.121a.269.269,0,0,0,.131-.106c.593-.741,1.19-1.479,1.778-2.224.033-.042,1.172-1.724.4-1.724l-1.188-2.246a1.139,1.139,0,0,1-.109-1.059c0-.012.006-.023.009-.035" transform="translate(-43.552 -64.403)" fill="#24221e"/>
      <path id="패스_1143" data-name="패스 1143" d="M504.427,220.289c.311-1.2.894-2.47.433-3.71a2.67,2.67,0,0,0-1.172-1.443,2.148,2.148,0,0,0-1.563-.146,5.214,5.214,0,0,0-1.4.657c-.2.127-.405.259-.608.39a2.007,2.007,0,0,0-.75.629c-.453.817.161,1.887.588,2.58s.963,1.306,1.336,2.02c.01.02.079.161.035.071l.02.071c0-.066,0-.054,0,.037.02-.119-.036.125-.034.118-.015.05-.032.1-.049.148-.107.309-.216.581-.342.862s-.267.565-.415.84-.332.541-.475.821c-.5.973.189,1.926.861,2.6.3.3.623.569.929.86a1.6,1.6,0,0,0,.662.481c.521.134.82-.215,1.107-.573.479-.6.959-1.193,1.435-1.793a5.8,5.8,0,0,0,.533-.786,3.164,3.164,0,0,0,.444-1.2.956.956,0,0,0-.96-1.069l.6.345-.849-1.6c-.131-.248-.271-.493-.393-.745-.02-.043-.023-.047-.009-.01l-.024-.073c.017.074-.005-.061,0-.087,0-.049,0-.053,0-.013.006-.026.011-.052.016-.079.015-.064.03-.127.046-.191a.7.7,0,0,0-1.346-.371,2.213,2.213,0,0,0-.064,1.074,4.4,4.4,0,0,0,.448.959l.976,1.845a.7.7,0,0,0,.6.346c.131,0-.173-.038-.065-.007a.52.52,0,0,1-.306-.234c-.006-.01-.069-.193-.04-.088.019.07-.024-.215-.017-.075.006.124-.009-.064.012-.074a.905.905,0,0,0-.024.1c-.019.07-.049.136-.07.2s.068-.144.013-.032c-.019.038-.036.078-.054.116-.037.076-.077.151-.118.225-.064.118-.133.233-.2.347-.039.061-.079.122-.12.182,0,0,.133-.168-.011.011l-.143.18-.315.395q-.315.395-.632.789l-.345.43-.172.215-.057.072c-.053.06-.05.06.01,0l.352-.1c.363,0,.3.156.226.055a.568.568,0,0,0-.058-.059c-.037-.037-.075-.073-.113-.109-.1-.093-.2-.183-.3-.274-.222-.2-.444-.4-.653-.612-.1-.1-.188-.2-.277-.3-.025-.029-.048-.059-.073-.087.091.1.026.036.008.009-.046-.066-.092-.131-.133-.2-.03-.051-.055-.1-.084-.156.071.129.007.012-.015-.056a.426.426,0,0,0-.016-.067c-.039-.073-.008.134.006.053a.223.223,0,0,0,0-.066c-.03-.105-.037.118-.005.012a.281.281,0,0,0,.018-.064c0-.067-.073.079-.017.039s.09-.152.125-.208q.177-.291.339-.592c.217-.4.409-.815.586-1.236a4.59,4.59,0,0,0,.437-1.359,2.013,2.013,0,0,0-.372-1.2c-.269-.44-.587-.85-.875-1.279-.172-.255-.339-.515-.492-.782-.07-.124-.137-.249-.2-.376-.015-.032-.087-.194-.053-.112s0-.013-.013-.036c-.014-.039-.029-.077-.042-.116-.023-.07-.1-.237-.079-.31-.016.058.008.148.01.061,0-.025,0-.054,0-.079a.6.6,0,0,0,0-.076c.032.033-.062.172,0,.06.04-.079-.081.161-.076.138-.012.047-.058.038.013,0s.143-.09.214-.136l.439-.284a8.716,8.716,0,0,1,.84-.49c.027-.013.252-.111.113-.056.064-.025.129-.05.195-.071s.128-.039.192-.054l.109-.022c-.087.019-.084.006,0,0a2.32,2.32,0,0,1,.239,0c-.155-.01,0,.013.073.03.117.029.01,0-.016-.009l.123.069c.025.015.049.032.073.049-.12-.087.035.041.047.053s.159.188.116.128a2.158,2.158,0,0,1,.186.309,1.59,1.59,0,0,1,.081.234c.01.039.048.271.04.187a2.635,2.635,0,0,1,.008.339c0,.038,0,.076-.006.114,0,0-.019.179-.013.136-.019.14-.082.41-.132.6-.123.461-.28.912-.4,1.373a.7.7,0,1,0,1.346.371" transform="translate(-42.354 -63.234)" fill="#24221e"/>
      <path id="패스_1144" data-name="패스 1144" d="M488,209.468a3.685,3.685,0,0,0,2.205,4.724,4.867,4.867,0,0,0,2.223-.035,4.626,4.626,0,0,0,1.26-.41,3.267,3.267,0,0,0,1.64-2.895,3.384,3.384,0,0,0,2.658,3.241,3.274,3.274,0,0,0,3.475-2.174,3.91,3.91,0,0,0-1.154-4.185" transform="translate(-35.172 -58.731)" fill="#fff"/>
      <path id="패스_1145" data-name="패스 1145" d="M486.146,208.117a4.465,4.465,0,0,0,1.279,4.813,3.891,3.891,0,0,0,2.794.9,5.514,5.514,0,0,0,3.276-1.094,4.024,4.024,0,0,0,1.35-3.052h-1.4a3.993,3.993,0,0,0,4.056,3.964,4.111,4.111,0,0,0,3.661-4.415,4.581,4.581,0,0,0-1.547-3.16.718.718,0,0,0-.987,0,.7.7,0,0,0,0,.987,3.542,3.542,0,0,1,.421.411c-.008-.01.126.157.07.083s.034.049.043.062q.1.15.194.309c.044.077.085.157.123.237-.006-.012.082.188.046.1s.043.117.038.1a4.076,4.076,0,0,1,.169.617c.01.055.02.111.028.166,0-.031-.012-.125,0,.015.008.089.015.179.017.269q.005.168,0,.336c0,.045-.007.089-.01.134-.017.213.028-.13-.01.08a3.631,3.631,0,0,1-.151.582c-.015.042-.031.085-.048.127.043-.1,0,0-.012.018-.057.109-.112.217-.177.322-.053.084-.109.167-.169.246.068-.088,0,0-.015.014-.037.04-.072.083-.11.123q-.1.108-.211.207c-.033.029-.066.057-.1.086-.118.1.053-.029-.066.05a4.93,4.93,0,0,1-.5.3c-.119.061-.039.02-.01.008-.049.02-.1.039-.15.056a3.05,3.05,0,0,1-.338.1c-.047.01-.27.044-.128.028a2.918,2.918,0,0,1-.318.018c-.085,0-.17,0-.255-.012-.139-.011-.035,0-.006,0-.063-.012-.125-.023-.187-.038-.1-.025-.2-.06-.3-.092-.023-.007-.122-.052-.01,0q-.059-.026-.116-.055a3,3,0,0,1-.28-.158c-.036-.023-.072-.047-.108-.071-.008-.006-.169-.132-.066-.047a4.317,4.317,0,0,1-.466-.46c-.138-.155.039.059-.033-.041-.039-.054-.077-.108-.113-.163a3.6,3.6,0,0,1-.184-.316c-.021-.039-.039-.08-.059-.12-.092-.186.036.117-.033-.079-.037-.105-.073-.21-.1-.318s-.052-.217-.07-.327c.022.13,0-.015,0-.048-.007-.079-.01-.157-.011-.236a.7.7,0,0,0-1.4,0c0,.105,0,.21-.01.315,0,.017-.018.16-.007.081s-.012.063-.015.08a3.394,3.394,0,0,1-.173.6c-.042.108.039-.08-.011.024-.025.052-.05.1-.076.154-.042.081-.089.16-.138.238-.025.038-.051.076-.076.114-.009.014-.077.107-.013.023a2.769,2.769,0,0,1-.224.253c-.063.064-.13.123-.2.183-.1.09-.041.034-.016.015-.036.026-.072.052-.109.076a2.287,2.287,0,0,1-.519.265,6.556,6.556,0,0,1-1.343.3,3.462,3.462,0,0,1-1.367-.073c-.074-.021-.145-.048-.217-.074.138.049-.046-.022-.094-.047a2.849,2.849,0,0,1-.437-.275c.118.09-.049-.047-.081-.076-.065-.059-.128-.121-.188-.184s-.105-.117-.156-.176c-.013-.015-.089-.115-.037-.046s-.056-.081-.067-.1a4.007,4.007,0,0,1-.258-.439c-.036-.072-.071-.145-.1-.218.011.026.045.123,0,0-.019-.057-.041-.114-.06-.171a4.469,4.469,0,0,1-.14-.556c0-.022-.022-.149-.01-.057s-.006-.068-.008-.087c-.009-.1-.013-.2-.014-.3s0-.2.012-.3c0-.04.008-.079.012-.119-.017.167.007-.028.012-.051a3.274,3.274,0,0,1,.169-.574.7.7,0,0,0-.487-.859.719.719,0,0,0-.859.488" transform="translate(-33.99 -57.566)" fill="#24221e"/>
      <path id="패스_1146" data-name="패스 1146" d="M487.732,148.24a4.034,4.034,0,0,0-1.579.32,16.213,16.213,0,0,0-.52-1.542,13.657,13.657,0,0,1-7.922-4.872c.347,1.293-.735,2.6-1.991,3.069a11.878,11.878,0,0,1-3.978.36,8.648,8.648,0,0,1-3.3-.272,2.246,2.246,0,0,1-1.513-2.608,25.1,25.1,0,0,1-11.971,4.409c-.185.482-.351.972-.491,1.475a4.047,4.047,0,1,0-.31,7.532,16.453,16.453,0,0,0,32.312.016,4.045,4.045,0,1,0,1.266-7.888" transform="translate(-10.704 -17.554)" fill="#ffe3d4"/>
      <path id="패스_1147" data-name="패스 1147" d="M469.135,168.981a17.164,17.164,0,0,1-16.689-13.193,4.7,4.7,0,0,1-.777.065,4.744,4.744,0,1,1,1.162-9.344c.09-.275.19-.553.3-.832a.7.7,0,0,1,.6-.446,24.2,24.2,0,0,0,11.633-4.3.7.7,0,0,1,1.041.82c-.233.645.394,1.44,1.111,1.72a6.4,6.4,0,0,0,2.5.237c.182-.005.364-.01.544-.013.271,0,.544,0,.817,0a8.28,8.28,0,0,0,2.929-.316c.948-.352,1.8-1.334,1.559-2.235a.7.7,0,0,1,1.223-.611,13.016,13.016,0,0,0,7.514,4.619.7.7,0,0,1,.509.43q.179.459.329.912a4.744,4.744,0,1,1,1.12,9.355,4.654,4.654,0,0,1-.733-.058,17.167,17.167,0,0,1-16.687,13.185m-16.158-14.744a.7.7,0,0,1,.686.567,15.755,15.755,0,0,0,30.941.015.7.7,0,0,1,.9-.531,3.347,3.347,0,1,0-.258-6.263.7.7,0,0,1-.945-.454c-.1-.367-.226-.746-.367-1.13a14.546,14.546,0,0,1-6.878-3.831,4.045,4.045,0,0,1-2.273,2.083,9.431,9.431,0,0,1-3.423.4c-.263,0-.526,0-.787,0-.174,0-.349.008-.525.013a7.523,7.523,0,0,1-3.045-.333,3.348,3.348,0,0,1-1.929-2,25.154,25.154,0,0,1-10.8,3.815c-.121.34-.228.676-.319,1a.7.7,0,0,1-.952.452,3.35,3.35,0,1,0-.257,6.233.69.69,0,0,1,.226-.038" transform="translate(-9.527 -16.377)" fill="#24221e"/>
      <path id="패스_1148" data-name="패스 1148" d="M497.61,162.86a1.079,1.079,0,1,1-1.079-1.079,1.079,1.079,0,0,1,1.079,1.079" transform="translate(-39.993 -29.881)" fill="#24221e"/>
      <path id="패스_1149" data-name="패스 1149" d="M525.15,162.86a1.079,1.079,0,1,1-1.079-1.079,1.079,1.079,0,0,1,1.079,1.079" transform="translate(-57.283 -29.881)" fill="#24221e"/>
      <path id="패스_1150" data-name="패스 1150" d="M508.543,165.433l.074-.031-.167.07a2.991,2.991,0,0,1,.7-.2l-.185.025a2.147,2.147,0,0,1,.557,0l-.185-.025a2.106,2.106,0,0,1,.5.14l-.166-.07q.11.047.216.1a.7.7,0,1,0,.7-1.205,2.823,2.823,0,0,0-1.329-.358,3.521,3.521,0,0,0-1.426.347.7.7,0,0,0-.32.417.713.713,0,0,0,.07.538.7.7,0,0,0,.417.32l.186.025a.693.693,0,0,0,.352-.1" transform="translate(-47.554 -31.199)" fill="#24221e"/>
      <path id="패스_1151" data-name="패스 1151" d="M499.273,171.357a9.638,9.638,0,0,0,9.135.117.7.7,0,1,0-.7-1.2,6.833,6.833,0,0,1-.884.4,8.687,8.687,0,0,1-1.024.307q-.26.061-.523.106c-.075.013-.151.025-.226.036.091-.013-.165.019-.192.022a9.012,9.012,0,0,1-1.027.044,8.1,8.1,0,0,1-3.85-1.031.7.7,0,0,0-.7,1.205" transform="translate(-42.177 -35.08)" fill="#24221e"/>
      <path id="패스_1152" data-name="패스 1152" d="M482.844,171.358a3.064,3.064,0,1,1-3.044-3.417,3.247,3.247,0,0,1,3.044,3.417" transform="translate(-28.256 -33.748)" fill="#ffb18f"/>
      <path id="패스_1153" data-name="패스 1153" d="M534.5,171.358a3.064,3.064,0,1,1-3.044-3.417,3.247,3.247,0,0,1,3.044,3.417" transform="translate(-60.685 -33.748)" fill="#ffb18f"/>
      <path id="패스_1154" data-name="패스 1154" d="M540.47,226.595c3.2-3.082.44-8.543-4-7.015a1.735,1.735,0,0,0-1.244,1.678,1.111,1.111,0,0,0,1.645.842,1.048,1.048,0,1,0,.462,2.045,1.159,1.159,0,0,0-.911,1.068.766.766,0,0,0,1.064.667,1.272,1.272,0,0,0,1.11,1.471,2.351,2.351,0,0,0,1.874-.756" transform="translate(-64.96 -66.002)" fill="#ffe3d4"/>
      <path id="패스_1155" data-name="패스 1155" d="M539.792,225.923a5.211,5.211,0,0,0,1.571-3.263,4.958,4.958,0,0,0-.79-3.14,4.55,4.55,0,0,0-2.656-1.93,4.846,4.846,0,0,0-1.891-.071,3.434,3.434,0,0,0-2.005.9,2.026,2.026,0,0,0-.362,2.535,1.767,1.767,0,0,0,2.394.58.7.7,0,0,0-.538-1.276,1.746,1.746,0,1,0,.833,3.391l-.371-1.346a1.812,1.812,0,0,0-1.384,2.042,1.465,1.465,0,0,0,2.074.969l-1.025-.788a1.964,1.964,0,0,0,1.406,2.288,2.925,2.925,0,0,0,2.744-.893.7.7,0,0,0-.987-.987,2.355,2.355,0,0,1-.642.45,2.085,2.085,0,0,1-.411.117c.116-.016-.093,0-.106,0-.03,0-.228-.028-.1,0a1.516,1.516,0,0,1-.189-.052c.12.042-.057-.034-.072-.042s-.164-.127-.073-.046a1.647,1.647,0,0,1-.14-.139c.086.1-.025-.046-.041-.069-.082-.113,0,.06-.032-.065a1.045,1.045,0,0,1-.03-.121c.009.072.011.082.009.03a.723.723,0,0,1,0-.094c-.012.081-.009.08.009,0a.706.706,0,0,0-1.025-.788c.049-.027.088-.022.011-.006.2-.044-.046-.015.061,0s-.062-.043.015.006-.053-.032-.07-.041c.074.042.022.05.006,0l-.04-.042c.041.058.049.066.021.025-.011-.017-.08-.106-.028-.047.016.039.018.04.007,0s-.011-.037,0,.042c.013-.059,0-.08-.009-.008a1,1,0,0,1,.034-.124c-.039.115.013-.009.028-.035.051-.09-.062.062.009-.015a1.225,1.225,0,0,1,.118-.116c-.057.047-.018.011.02-.009.014-.007.165-.088.094-.057s.1-.032.1-.031a.7.7,0,0,0-.371-1.346c-.173.036.117.014-.058,0-.076-.005-.056-.012,0,0a1.641,1.641,0,0,1-.177-.051c.093.038.023,0-.026-.025-.064-.037.057.069-.031-.02,0,0-.12-.131-.069-.065s-.038-.067-.047-.082c.066.114,0-.025-.015-.063.026.092,0,.045,0-.028s.026-.119,0-.026c0-.016.053-.175.021-.092s.039-.066.046-.082c.061-.126-.064.039.04-.054.013-.012.137-.116.068-.066s.085-.044.084-.043c-.107.054.016,0,.064-.01l-.537-1.276c-.028.02-.186.1-.1.073.108-.042-.153.018-.026.006.1-.009-.093-.007-.118-.009.144.009.014-.02-.052-.029s.025.01.039.019c-.032-.019-.066-.034-.1-.052-.053-.032-.121-.1-.042-.022-.045-.046-.092-.1-.139-.14s.018.018.024.029a1.028,1.028,0,0,0-.058-.1c-.028-.044-.02-.1,0,.014,0-.024-.025-.055-.024-.08.006-.074,0,.035,0,.048,0-.033,0-.065-.006-.1,0-.049.033-.229,0-.1.008-.031.014-.062.023-.094,0-.012.044-.135.018-.069s.024-.047.033-.064.031-.057.048-.085.114-.152.046-.072a2.2,2.2,0,0,1,.162-.169l.076-.067c-.055.047-.016.01.02-.013.066-.043.132-.085.2-.121l.09-.045c-.029.014-.109.036.019,0s.269-.087.406-.122c.121-.031.244-.057.367-.079.027,0,.193-.025.1-.017s0,0,.017,0l.135-.012a4.557,4.557,0,0,1,.706.011c.137.011-.12-.023.014,0,.057.01.114.019.171.032.112.023.222.051.332.085s.2.07.294.1c-.106-.037-.067-.029.008.005.057.026.114.055.169.084q.134.072.263.154l.116.078c.022.015.179.135.1.07s.057.049.074.063c.035.031.07.061.1.093q.12.111.229.231c.037.04.073.081.108.122.016.02.112.138.048.057s.038.052.057.079c.031.045.062.09.091.135a5.041,5.041,0,0,1,.3.555c.054.111-.045-.122.012.028.017.044.034.088.05.132q.056.156.1.316c.028.1.051.2.071.3.011.055.02.11.029.165.028.163-.007-.093,0,.028a5.032,5.032,0,0,1,.02.676c0,.057-.007.114-.012.17,0,.025,0,.049-.007.073-.013.163.021-.109,0-.015-.022.122-.041.244-.07.365s-.064.243-.1.362c-.021.065-.045.128-.069.192-.056.151.032-.061-.019.046a5.036,5.036,0,0,1-.4.713c-.037.052-.074.1-.113.155.091-.118-.034.039-.066.076-.1.117-.206.227-.316.334a.7.7,0,0,0,.987.987" transform="translate(-63.789 -64.836)" fill="#24221e"/>
      <path id="패스_1156" data-name="패스 1156" d="M470.472,217.415a9.363,9.363,0,0,1-1.206,4.96c-1.469,2.342-4.28,3.527-6.375,5.374a1.025,1.025,0,0,0-.292.352.791.791,0,0,0,.023.569,2.378,2.378,0,0,0,2.3,1.347,5.888,5.888,0,0,0,2.691-.879,14.46,14.46,0,0,0,5.132-4.41,14.65,14.65,0,0,0,2.067-5.289,14.414,14.414,0,0,0-.221-7.67,7.261,7.261,0,0,0-5.168-5.088,4.6,4.6,0,0,0-3.84,1.063,1.223,1.223,0,0,0-.435.608.549.549,0,0,0,.277.64.932.932,0,0,0,.363.035c4.04-.077,4.7,5.389,4.687,8.388" transform="translate(-19.341 -58.011)" fill="#7a6a59"/>
      <path id="패스_1157" data-name="패스 1157" d="M468.6,216.251a10.038,10.038,0,0,1-.611,3.639,6.332,6.332,0,0,1-.857,1.486c.079-.1-.064.076-.064.077l-.112.133q-.125.145-.256.283c-.208.22-.427.429-.655.629a13.352,13.352,0,0,1-1.2.942c-.469.336-.947.659-1.422.986-.5.347-1,.7-1.485,1.078-.526.409-1.2.848-1.25,1.574a2.141,2.141,0,0,0,.781,1.656,3.262,3.262,0,0,0,1.565.752,5.969,5.969,0,0,0,3.889-.983,14.7,14.7,0,0,0,5.512-5,17.527,17.527,0,0,0,2.255-7.685,12.523,12.523,0,0,0-1.517-7.4,7.414,7.414,0,0,0-5.019-3.63,5.23,5.23,0,0,0-3.643.845,2.32,2.32,0,0,0-1.25,1.611,1.27,1.27,0,0,0,.313.938,1.287,1.287,0,0,0,1.035.377c.108,0,.215,0,.323.006.056,0,.376.048.173.012a4.1,4.1,0,0,1,.569.134c.052.017.33.135.14.047.084.039.167.077.248.121s.132.074.2.115c.039.024.076.049.114.075s.2.155.042.026a4.314,4.314,0,0,1,.372.336q.1.1.187.2l.089.108q.07.088-.023-.031l.056.076a5.96,5.96,0,0,1,.58,1c.022.046.123.287.05.108.038.093.076.187.111.282q.107.288.2.583a12.136,12.136,0,0,1,.294,1.213q.058.306.1.615c.005.034.01.068.015.1.026.176-.019-.158,0,.018.015.118.029.236.042.354q.063.583.089,1.169.023.506.02,1.012a.7.7,0,0,0,1.4,0,17.272,17.272,0,0,0-.53-4.557,6.431,6.431,0,0,0-2.5-3.9,4.366,4.366,0,0,0-2.391-.625h-.037c-.087-.005-.1,0-.034.01.031.036.1.079.137.115.007.02.014.041.022.061-.019-.079-.022-.075-.008.012v-.03c0-.053,0-.039-.009.039.046-.15-.064.038.038-.083.136-.16-.1.066.064-.075.044-.038.084-.081.127-.119.018-.016.188-.151.107-.09a4.343,4.343,0,0,1,1.391-.716q.175-.053.355-.093c.071-.016.143-.028.215-.042.224-.042-.125,0,.1-.014a4.3,4.3,0,0,1,.786,0c-.14-.014.087.016.094.017.069.013.137.029.2.046.111.028.22.058.329.09.128.038.255.08.38.126l.124.046.121.048.013.006a7.214,7.214,0,0,1,1.248.728c.02.014.1.082.006,0q.073.057.143.116.118.1.231.2a6.933,6.933,0,0,1,.515.529c.082.093.16.189.237.285-.017-.022-.075-.1,0,.006l.111.151q.219.308.41.634.178.3.332.622.072.146.137.294c0,.01.09.208.034.074.026.061.05.122.074.183a10.879,10.879,0,0,1,.755,3.585,16.4,16.4,0,0,1-.289,3.731,18.428,18.428,0,0,1-1.006,3.546,11.717,11.717,0,0,1-4.273,5.124c-.478.33-.972.635-1.478.92a7.917,7.917,0,0,1-1.606.738,3.543,3.543,0,0,1-.772.153,3.045,3.045,0,0,1-.36,0c-.015,0-.23-.025-.077,0-.066-.009-.131-.022-.2-.036a1.747,1.747,0,0,1-.569-.2c-.056-.031-.111-.064-.165-.1-.014-.009-.171-.138-.063-.043a1.945,1.945,0,0,1-.263-.268c.092.119-.025-.048-.033-.062-.021-.035-.04-.072-.06-.109-.1-.181.057.142-.027-.076-.006-.024-.013-.048-.019-.071,0,.065,0,.054,0-.032-.087.144.011.041.073-.017.114-.107.236-.207.355-.306.38-.315.746-.583,1.206-.906.912-.641,1.844-1.25,2.721-1.939a9.65,9.65,0,0,0,2.261-2.417A8.806,8.806,0,0,0,469.881,218a14.344,14.344,0,0,0,.115-1.749.7.7,0,0,0-1.4,0" transform="translate(-18.168 -56.847)" fill="#24221e"/>
      <path id="패스_1158" data-name="패스 1158" d="M467.248,215.184a2.576,2.576,0,0,0-1.257-1.251,4.206,4.206,0,0,0-1.757-.378,1.957,1.957,0,0,0-.66.074,1.933,1.933,0,0,0-.582.347c-1.535,1.23-1.912,3.066-2.319,4.894a10.484,10.484,0,0,0,1.044,7.727c1.694,2.758,5.774,2.286,8.392.568a7.244,7.244,0,0,0,.887-.688,8.033,8.033,0,0,1-1.215-2.7,15.205,15.205,0,0,1-.294-3.5c0-.6,0-1.208.011-1.813-.152.141-.3.271-.429.38a1.473,1.473,0,0,1-.952.457c-.65-.047-.992-1-.97-1.794" transform="translate(-17.972 -62.384)" fill="#597582"/>
      <path id="패스_1159" data-name="패스 1159" d="M466.673,213.652a3.583,3.583,0,0,0-2.774-1.9,3.352,3.352,0,0,0-1.995.148,4.139,4.139,0,0,0-1.3,1.117,7.718,7.718,0,0,0-1.375,2.813,19.86,19.86,0,0,0-.655,3.233,10.73,10.73,0,0,0,1.306,6.6,4.679,4.679,0,0,0,1.932,1.827,5.948,5.948,0,0,0,2.611.582,8.99,8.99,0,0,0,5.894-2.287.7.7,0,0,0,.109-.846,7.573,7.573,0,0,1-1.308-3.426,33.268,33.268,0,0,1-.095-4.229.706.706,0,0,0-1.191-.493,4.39,4.39,0,0,1-.708.577,1.1,1.1,0,0,1-.1.055c.05-.023.036-.021-.044.006l.041,0q-.153-.007.012.009c-.117-.075.1.094-.018,0s.084.105-.022-.011c-.02-.022-.127-.151-.033-.02a1.7,1.7,0,0,1-.092-.144c-.009-.015-.093-.191-.033-.05a1.838,1.838,0,0,1-.063-.177,2.7,2.7,0,0,1-.087-.376c.024.149,0-.074-.006-.1,0-.074,0-.148,0-.223a.7.7,0,0,0-1.4,0,2.668,2.668,0,0,0,.947,2.256c.949.651,1.913-.176,2.6-.805l-1.191-.494a31.483,31.483,0,0,0,.117,4.4,8.987,8.987,0,0,0,1.477,3.956q.055-.423.109-.846a6.473,6.473,0,0,1-1.1.8q-.235.137-.477.259c-.09.045-.182.09-.274.132-.047.022-.3.13-.17.076a9.006,9.006,0,0,1-1.164.388q-.266.068-.537.119c-.1.018-.2.034-.3.05-.03,0-.137.015.006,0l-.179.02a6.677,6.677,0,0,1-1.18.016c-.086-.007-.172-.019-.259-.026-.115-.01.168.031-.013,0l-.112-.019a5.077,5.077,0,0,1-.549-.132c-.089-.027-.177-.057-.265-.089l-.1-.04c-.165-.063.081.049-.012-.006-.167-.1-.347-.171-.511-.275-.07-.044-.135-.1-.206-.14-.093-.052.121.1-.014-.01l-.086-.072a3.848,3.848,0,0,1-.4-.4c-.032-.036-.063-.074-.093-.112-.072-.089.09.134-.016-.023-.05-.075-.1-.148-.151-.225a7.88,7.88,0,0,1-.393-.709,7.451,7.451,0,0,1-.489-1.275,9.276,9.276,0,0,1-.38-2.878,12.709,12.709,0,0,1,.382-2.845c.105-.464.215-.928.352-1.384.061-.2.126-.4.2-.6.016-.044.033-.087.05-.13,0,0,.088-.214.035-.091.046-.106.095-.211.146-.315a5.666,5.666,0,0,1,.384-.66c.032-.048.066-.1.1-.143s.027-.038,0,0c.022-.028.044-.055.067-.083q.125-.152.262-.293a3.34,3.34,0,0,1,.54-.467c.043-.028.086-.053.13-.077.1-.057.005-.016.121-.044a1.681,1.681,0,0,1,.394-.026,3.357,3.357,0,0,1,1.529.347,3.093,3.093,0,0,1,.3.185c.18.125-.046-.043.051.041.053.046.1.092.154.142a1.61,1.61,0,0,1,.381.569.7.7,0,0,0,.955.25.714.714,0,0,0,.25-.955" transform="translate(-16.794 -61.205)" fill="#24221e"/>
      <path id="패스_1160" data-name="패스 1160" d="M489.375,227.079c.564-.316.433-1.563-.178-1.7a1.01,1.01,0,0,0,.351-1.125,2.7,2.7,0,0,0-.638-1.056,1.143,1.143,0,0,0-.37-1.607c-1.219-.61-2.641.88-3.672,1.835-.006.6-.012,1.209-.011,1.813a15.2,15.2,0,0,0,.294,3.5,8.035,8.035,0,0,0,1.216,2.7,5.874,5.874,0,0,0,.514-.52,25.473,25.473,0,0,1,1.88-2.221,3.294,3.294,0,0,0,.709-.668c.18-.293.18-.8-.094-.95" transform="translate(-33.341 -67.344)" fill="#ffe3d4"/>
      <path id="패스_1161" data-name="패스 1161" d="M488.548,226.522a1.715,1.715,0,0,0-.345-2.971l.167,1.276a1.607,1.607,0,0,0,.725-1.573,3.128,3.128,0,0,0-.871-1.7v.987a1.82,1.82,0,0,0-.566-2.729,2.8,2.8,0,0,0-2.867.575,14.44,14.44,0,0,0-1.211,1.034c-.2.191-.487.388-.564.668a2.227,2.227,0,0,0-.029.548q0,.272,0,.544a24.746,24.746,0,0,0,.168,3.812,8.727,8.727,0,0,0,1.434,3.64.71.71,0,0,0,1.1.141c.846-.774,1.421-1.785,2.234-2.59.4-.4.887-.666,1.1-1.226a1.362,1.362,0,0,0-.466-1.639.7.7,0,0,0-.7,1.205c-.061-.039-.081-.1-.126-.15s0-.006.008.042c.01.086.016-.152-.008.014-.012.083-.015.04,0-.01a1.144,1.144,0,0,0-.032.113c.033-.13.013-.022-.021.016-.08.089.058-.058-.024.025-.041.041-.082.082-.126.12a9.684,9.684,0,0,0-.957.9,25.621,25.621,0,0,1-1.867,2.195l1.1.141a7.576,7.576,0,0,1-1.308-3.426,33.234,33.234,0,0,1-.095-4.228l-.2.494c.37-.344.733-.7,1.121-1.02q.082-.069.166-.135c.177-.142-.1.067.083-.063.094-.066.187-.134.284-.2a3.947,3.947,0,0,1,.344-.2c.015-.007.169-.081.089-.045s.1-.036.119-.043a1.889,1.889,0,0,1,.316-.078c-.1.015-.061.005.014.007.021,0,.208,0,.106,0s.052.011.076.017a1.147,1.147,0,0,1,.166.054c-.1-.043-.017,0,.03.03-.076-.045-.06-.054,0,.01s.055.083.011.007c.029.049.057.1.085.147-.058-.1,0-.015.014.047.014.046.019.095.034.14.023.07.007-.115,0,.011,0,.06-.037.176.008.033-.017.053-.071.162.005.034-.023.039-.115.153-.009.031a.72.72,0,0,0,0,.987,2.009,2.009,0,0,1,.466.778q.015.075,0-.029c0,.042.006.086.006.128s0,.086-.006.128q.016-.12-.007,0a1.063,1.063,0,0,1-.037.117q.048-.113-.007-.009c.055-.065.057-.069,0-.013q.109-.077.01-.019a.705.705,0,0,0,.167,1.276c.091.024-.025-.019-.051-.03.035.014.1.083.031.014s-.011,0,.005.017q.051.059-.044-.055l.023.038s.039.075.042.081c-.037-.067-.036-.109-.012-.012.007.031.016.063.024.093.016.06-.006.137,0-.016,0,.064,0,.133,0,.2,0,.146.03-.089,0-.018a.848.848,0,0,0-.022.092c-.035.152,0-.022.014-.016s-.037.073-.043.077c.049-.033.1-.08.015-.024s.149-.1.022-.019a.7.7,0,0,0,.7,1.205" transform="translate(-32.162 -66.185)" fill="#24221e"/>
    </g>
  </g>
</svg>
