<svg xmlns="http://www.w3.org/2000/svg" xmlns:xlink="http://www.w3.org/1999/xlink" width="560" height="55" viewBox="0 0 560 55">
  <defs>
    <clipPath id="clip-path">
      <rect id="사각형_633" data-name="사각형 633" width="50" height="50" transform="translate(1022 663)" fill="#fff"/>
    </clipPath>
    <clipPath id="clip-path-2">
      <rect id="사각형_631" data-name="사각형 631" width="25" height="25" transform="translate(1043 725)" fill="#fff"/>
    </clipPath>
    <clipPath id="clip-path-3">
      <rect id="사각형_630" data-name="사각형 630" width="30" height="30" transform="translate(1043 725)" fill="#fff"/>
    </clipPath>
    <clipPath id="clip-path-4">
      <rect id="사각형_634" data-name="사각형 634" width="40" height="40" transform="translate(1037 663)" fill="#fff"/>
    </clipPath>
    <clipPath id="clip-path-5">
      <rect id="사각형_635" data-name="사각형 635" width="30" height="30" transform="translate(1037 663)" fill="#fff"/>
    </clipPath>
    <clipPath id="clip-path-6">
      <rect id="사각형_632" data-name="사각형 632" width="30" height="30" transform="translate(1005 670)" fill="#fff"/>
    </clipPath>
    <clipPath id="clip-path-7">
      <rect id="사각형_682" data-name="사각형 682" width="30" height="30" fill="#fff"/>
    </clipPath>
    <clipPath id="clip-path-8">
      <rect id="사각형_681" data-name="사각형 681" width="25" height="25" fill="#fff"/>
    </clipPath>
  </defs>
  <g id="그룹_1294" data-name="그룹 1294" transform="translate(-473.972 -622)">
    <g id="그룹_489" data-name="그룹 489" transform="translate(-242.028 -45)">
      <rect id="사각형_627" data-name="사각형 627" width="560" height="5" rx="2.5" transform="translate(716 717)" fill="#fff" opacity="0.5"/>
    </g>
    <g id="마스크_그룹_94" data-name="마스크 그룹 94" transform="translate(-118.028 -41)" opacity="0.5" clip-path="url(#clip-path)">
      <g id="school" transform="translate(1022 663)">
        <path id="패스_1345" data-name="패스 1345" d="M18.906,15.859a4.688,4.688,0,1,0,4.688,4.688A4.693,4.693,0,0,0,18.906,15.859Zm0,6.25a1.563,1.563,0,1,1,1.563-1.562A1.564,1.564,0,0,1,18.906,22.109Z" transform="translate(6.094 6.797)" fill="#fff"/>
        <path id="패스_1346" data-name="패스 1346" d="M48.438,46.875h-.781V32.813h.781a1.563,1.563,0,0,0,1.4-2.261l-6.25-12.5a1.562,1.562,0,0,0-1.4-.864H31.43l-4.868-4.581V9.375h6.25a1.563,1.563,0,0,0,1.563-1.563V1.563A1.563,1.563,0,0,0,32.812,0H25a1.563,1.563,0,0,0-1.562,1.563V12.606L18.57,17.188H7.812a1.562,1.562,0,0,0-1.4.864l-6.25,12.5a1.563,1.563,0,0,0,1.4,2.261h.781V46.875H1.562a1.563,1.563,0,1,0,0,3.125H48.437a1.563,1.563,0,1,0,0-3.125Zm-3.906,0H36.719V32.813h7.812ZM41.222,20.313l4.688,9.375H36.719V26.456l.492.463a1.562,1.562,0,1,0,2.142-2.276l-4.6-4.331ZM31.25,6.25H26.563V3.125H31.25ZM8.778,20.313H15.25l-4.6,4.331a1.562,1.562,0,0,0,2.142,2.276l.492-.463v3.231H4.091Zm-3.309,12.5h7.812V46.875H5.469ZM22.656,46.875v-6.25h4.688v6.25Zm7.813,0V39.063A1.563,1.563,0,0,0,28.906,37.5H21.094a1.563,1.563,0,0,0-1.562,1.563v7.812H16.406V23.515L25,15.427l8.594,8.088v23.36Z" transform="translate(0)" fill="#fff"/>
        <path id="패스_1347" data-name="패스 1347" d="M28.359,28.281h1.562a1.563,1.563,0,0,0,0-3.125H28.359a1.563,1.563,0,0,0,0,3.125Z" transform="translate(11.484 10.781)" fill="#fff"/>
        <path id="패스_1348" data-name="패스 1348" d="M29.922,28.984H28.359a1.563,1.563,0,1,0,0,3.125h1.562a1.563,1.563,0,0,0,0-3.125Z" transform="translate(11.484 12.422)" fill="#fff"/>
        <path id="패스_1349" data-name="패스 1349" d="M6.484,28.281H7.949a1.563,1.563,0,0,0,0-3.125H6.484a1.563,1.563,0,0,0,0,3.125Z" transform="translate(2.109 10.781)" fill="#fff"/>
        <path id="패스_1350" data-name="패스 1350" d="M7.949,28.984H6.484a1.563,1.563,0,0,0,0,3.125H7.949a1.563,1.563,0,0,0,0-3.125Z" transform="translate(2.109 12.422)" fill="#fff"/>
      </g>
    </g>
    <g id="마스크_그룹_92" data-name="마스크 그룹 92" transform="translate(-181.028 -78)" opacity="0.5" clip-path="url(#clip-path-2)">
      <g id="flower-pot" transform="translate(1047.707 725)">
        <path id="패스_1343" data-name="패스 1343" d="M6.612,3.766A3.086,3.086,0,1,0,9.7,6.851,3.089,3.089,0,0,0,6.612,3.766Zm0,4.707A1.621,1.621,0,1,1,8.233,6.852,1.623,1.623,0,0,1,6.612,8.473Zm0,0" transform="translate(1.181 0.941)" fill="#fff"/>
        <path id="패스_1344" data-name="패스 1344" d="M15.346,7.793a3.04,3.04,0,0,0-1.49-2.61A3.032,3.032,0,0,0,10.164,1.49a3.032,3.032,0,0,0-5.221,0A3.032,3.032,0,0,0,1.251,5.182a3.032,3.032,0,0,0,0,5.222A3.032,3.032,0,0,0,4.943,14.1a3.031,3.031,0,0,0,1.878,1.4V18.2a5.412,5.412,0,0,0-3.975-1.727H2.062a.733.733,0,0,0-.732.732,5.436,5.436,0,0,0,5.44,5.439h.052v1.621a.732.732,0,0,0,1.465,0V22.646h.052a5.436,5.436,0,0,0,5.44-5.439.732.732,0,0,0-.732-.732H12.26A5.406,5.406,0,0,0,8.286,18.2V15.5a3.03,3.03,0,0,0,1.878-1.4A3.032,3.032,0,0,0,13.856,10.4a3.042,3.042,0,0,0,1.49-2.611ZM2.861,17.94a4.005,4.005,0,0,1,3.893,3.242A3.988,3.988,0,0,1,2.861,17.94Zm9.384,0a3.987,3.987,0,0,1-3.893,3.242,3.987,3.987,0,0,1,3.893-3.242Zm.5-8.659a.732.732,0,0,0-.468,1.13,1.54,1.54,0,0,1-2.1,2.1.732.732,0,0,0-1.13.468,1.539,1.539,0,0,1-2.974,0,.732.732,0,0,0-1.13-.468,1.5,1.5,0,0,1-1.858-.245,1.494,1.494,0,0,1-.245-1.858.732.732,0,0,0-.468-1.13,1.54,1.54,0,0,1,0-2.974.732.732,0,0,0,.468-1.13,1.5,1.5,0,0,1,.245-1.858,1.5,1.5,0,0,1,1.858-.245.732.732,0,0,0,1.13-.468,1.539,1.539,0,0,1,2.974,0,.732.732,0,0,0,1.13.468,1.5,1.5,0,0,1,1.858.245,1.5,1.5,0,0,1,.245,1.858.732.732,0,0,0,.468,1.13,1.54,1.54,0,0,1,0,2.974Zm0,0" transform="translate(0.24 0)" fill="#fff"/>
      </g>
    </g>
    <g id="마스크_그룹_91" data-name="마스크 그룹 91" transform="translate(-211.028 -83)" opacity="0.5" clip-path="url(#clip-path-3)">
      <g id="flower-pot-2" data-name="flower-pot" transform="translate(1048.649 725)">
        <path id="패스_1341" data-name="패스 1341" d="M7.229,3.766a3.7,3.7,0,1,0,3.7,3.7,3.707,3.707,0,0,0-3.7-3.7Zm0,5.648A1.945,1.945,0,1,1,9.175,7.469,1.948,1.948,0,0,1,7.229,9.414Zm0,0" transform="translate(2.122 1.883)" fill="#fff"/>
        <path id="패스_1342" data-name="패스 1342" d="M18.463,9.352a3.648,3.648,0,0,0-1.788-3.133,3.638,3.638,0,0,0-4.43-4.43,3.638,3.638,0,0,0-6.265,0,3.638,3.638,0,0,0-4.43,4.431,3.638,3.638,0,0,0,0,6.266,3.638,3.638,0,0,0,4.431,4.43,3.637,3.637,0,0,0,2.254,1.679v3.248a6.5,6.5,0,0,0-4.77-2.072H2.522a.879.879,0,0,0-.879.879,6.523,6.523,0,0,0,6.528,6.527h.062v1.945a.879.879,0,0,0,1.758,0V27.176h.062a6.523,6.523,0,0,0,6.528-6.527.879.879,0,0,0-.879-.879h-.942a6.487,6.487,0,0,0-4.769,2.071V18.594a3.637,3.637,0,0,0,2.254-1.679,3.639,3.639,0,0,0,4.431-4.43,3.65,3.65,0,0,0,1.788-3.133ZM3.481,21.528a4.806,4.806,0,0,1,4.671,3.89,4.785,4.785,0,0,1-4.671-3.89Zm11.261,0a4.784,4.784,0,0,1-4.672,3.89,4.785,4.785,0,0,1,4.672-3.89Zm.594-10.391a.879.879,0,0,0-.561,1.356,1.847,1.847,0,0,1-2.523,2.523.879.879,0,0,0-1.356.561,1.847,1.847,0,0,1-3.568,0,.879.879,0,0,0-1.356-.561,1.794,1.794,0,0,1-2.229-.294,1.793,1.793,0,0,1-.294-2.229.879.879,0,0,0-.562-1.356,1.847,1.847,0,0,1,0-3.569.879.879,0,0,0,.562-1.356,1.794,1.794,0,0,1,.294-2.229,1.794,1.794,0,0,1,2.23-.294.879.879,0,0,0,1.356-.562,1.847,1.847,0,0,1,3.569,0,.879.879,0,0,0,1.356.561,1.794,1.794,0,0,1,2.229.294,1.8,1.8,0,0,1,.294,2.23.879.879,0,0,0,.561,1.356,1.848,1.848,0,0,1,0,3.569Zm0,0" transform="translate(0.24 0)" fill="#fff"/>
      </g>
    </g>
    <g id="마스크_그룹_95" data-name="마스크 그룹 95" transform="translate(-253.028 -31)" opacity="0.5" clip-path="url(#clip-path-4)">
      <g id="building" transform="translate(1037 663)">
        <path id="패스_1351" data-name="패스 1351" d="M37.678,37.656H34.587V1.172A1.172,1.172,0,0,0,33.415,0H6.585A1.172,1.172,0,0,0,5.413,1.172V37.656H2.322a1.172,1.172,0,1,0,0,2.344H37.679a1.172,1.172,0,1,0,0-2.344Zm-21.673,0V29.667h7.989v7.989Zm10.333,0V28.5a1.172,1.172,0,0,0-1.172-1.172H14.834A1.172,1.172,0,0,0,13.662,28.5v9.161h-5.9V2.344H32.243V37.656Z" fill="#fff"/>
        <path id="패스_1352" data-name="패스 1352" d="M17.48,5.18H11.737a1.172,1.172,0,0,0-1.172,1.172V12.1a1.172,1.172,0,0,0,1.172,1.172H17.48A1.172,1.172,0,0,0,18.652,12.1V6.352A1.172,1.172,0,0,0,17.48,5.18Zm-1.172,5.743h-3.4v-3.4h3.4Z" fill="#fff"/>
        <path id="패스_1353" data-name="패스 1353" d="M28.263,5.18H22.52a1.172,1.172,0,0,0-1.172,1.172V12.1a1.172,1.172,0,0,0,1.172,1.172h5.743A1.172,1.172,0,0,0,29.434,12.1V6.352A1.172,1.172,0,0,0,28.263,5.18Zm-1.172,5.743h-3.4v-3.4h3.4Z" fill="#fff"/>
        <path id="패스_1354" data-name="패스 1354" d="M17.48,16.09H11.737a1.172,1.172,0,0,0-1.172,1.172V23a1.172,1.172,0,0,0,1.172,1.172H17.48A1.172,1.172,0,0,0,18.652,23V17.262A1.172,1.172,0,0,0,17.48,16.09Zm-1.172,5.743h-3.4v-3.4h3.4Z" fill="#fff"/>
        <path id="패스_1355" data-name="패스 1355" d="M28.263,16.09H22.52a1.172,1.172,0,0,0-1.172,1.172V23a1.172,1.172,0,0,0,1.172,1.172h5.743A1.172,1.172,0,0,0,29.434,23V17.262A1.172,1.172,0,0,0,28.263,16.09Zm-1.172,5.743h-3.4v-3.4h3.4Z" fill="#fff"/>
      </g>
    </g>
    <g id="마스크_그룹_96" data-name="마스크 그룹 96" transform="translate(-283.028 -21)" opacity="0.5" clip-path="url(#clip-path-5)">
      <g id="building-2" data-name="building" transform="translate(1037.862 663)">
        <path id="패스_1356" data-name="패스 1356" d="M28.546,28.242H26.228V.879A.879.879,0,0,0,25.349,0H5.226a.879.879,0,0,0-.879.879V28.242H2.029a.879.879,0,1,0,0,1.758H28.546a.879.879,0,1,0,0-1.758Zm-16.255,0V22.25h5.992v5.992Zm7.75,0V21.371a.879.879,0,0,0-.879-.879h-7.75a.879.879,0,0,0-.879.879v6.871H6.105V1.758H24.47V28.242Z" transform="translate(-1.15)" fill="#fff"/>
        <path id="패스_1357" data-name="패스 1357" d="M15.752,5.18H11.445a.879.879,0,0,0-.879.879v4.307a.879.879,0,0,0,.879.879h4.307a.879.879,0,0,0,.879-.879V6.059A.879.879,0,0,0,15.752,5.18Zm-.879,4.307H12.323V6.938h2.549Z" transform="translate(-3.504 -1.295)" fill="#fff"/>
        <path id="패스_1358" data-name="패스 1358" d="M26.534,5.18H22.227a.879.879,0,0,0-.879.879v4.307a.879.879,0,0,0,.879.879h4.307a.879.879,0,0,0,.879-.879V6.059A.879.879,0,0,0,26.534,5.18Zm-.879,4.307H23.106V6.938h2.549Z" transform="translate(-6.199 -1.295)" fill="#fff"/>
        <path id="패스_1359" data-name="패스 1359" d="M15.752,16.09H11.445a.879.879,0,0,0-.879.879v4.307a.879.879,0,0,0,.879.879h4.307a.879.879,0,0,0,.879-.879V16.969A.879.879,0,0,0,15.752,16.09ZM14.873,20.4H12.323V17.848h2.549Z" transform="translate(-3.504 -4.023)" fill="#fff"/>
        <path id="패스_1360" data-name="패스 1360" d="M26.534,16.09H22.227a.879.879,0,0,0-.879.879v4.307a.879.879,0,0,0,.879.879h4.307a.879.879,0,0,0,.879-.879V16.969A.879.879,0,0,0,26.534,16.09ZM25.655,20.4H23.106V17.848h2.549Z" transform="translate(-6.199 -4.023)" fill="#fff"/>
      </g>
    </g>
    <g id="마스크_그룹_93" data-name="마스크 그룹 93" transform="translate(-301.028 -28)" opacity="0.5" clip-path="url(#clip-path-6)">
      <path id="tulip" d="M15.519,17.887H13.637a6.491,6.491,0,0,0-4.77,2.072V15.828a7.469,7.469,0,0,0,6.59-7.417V2.762a.879.879,0,0,0-1.428-.686l-2,1.6L8.61.257a.879.879,0,0,0-1.243,0L3.948,3.676l-2-1.6a.879.879,0,0,0-1.428.686V8.41a7.48,7.48,0,0,0,6.59,7.417v4.132A6.5,6.5,0,0,0,2.34,17.887H.457a.879.879,0,0,0-.879.879v1.883a6.524,6.524,0,0,0,6.527,6.527h1v1.945a.879.879,0,0,0,1.758,0V27.176h1A6.523,6.523,0,0,0,16.4,20.649V18.766a.879.879,0,0,0-.879-.879ZM13.7,8.411a5.712,5.712,0,0,1-4.832,5.643V11.2A5.683,5.683,0,0,1,11.01,6.742L13.7,4.59ZM7.988,2.122l2.659,2.659-.735.588a7.473,7.473,0,0,0-1.924,2.31,7.468,7.468,0,0,0-1.924-2.31l-.735-.588ZM2.277,8.41V4.59L4.966,6.742A5.683,5.683,0,0,1,7.109,11.2v2.853A5.72,5.72,0,0,1,2.277,8.41ZM1.336,20.648v-1h1a4.77,4.77,0,0,1,4.769,4.769v1h-1a4.766,4.766,0,0,1-4.77-4.77Zm13.3,0a4.767,4.767,0,0,1-4.77,4.77h-1v-1a4.767,4.767,0,0,1,4.77-4.769h1Zm0,0" transform="translate(1012.012 670)" fill="#fff"/>
    </g>
    <g id="마스크_그룹_100" data-name="마스크 그룹 100" transform="translate(646.972 642)" opacity="0.5" clip-path="url(#clip-path-7)">
      <g id="flower-pot-3" data-name="flower-pot" transform="translate(5.648)">
        <path id="패스_1399" data-name="패스 1399" d="M7.229,3.766a3.7,3.7,0,1,1-3.7,3.7,3.707,3.707,0,0,1,3.7-3.7Zm0,5.648A1.945,1.945,0,1,0,5.284,7.469,1.948,1.948,0,0,0,7.229,9.414Zm0,0" transform="translate(2.122 1.883)" fill="#fff"/>
        <path id="패스_1400" data-name="패스 1400" d="M-.24,9.352A3.648,3.648,0,0,1,1.549,6.219a3.638,3.638,0,0,1,4.43-4.43,3.638,3.638,0,0,1,6.265,0,3.638,3.638,0,0,1,4.43,4.431,3.638,3.638,0,0,1,0,6.266,3.638,3.638,0,0,1-4.431,4.43,3.637,3.637,0,0,1-2.254,1.679v3.248a6.5,6.5,0,0,1,4.77-2.072H15.7a.879.879,0,0,1,.879.879,6.523,6.523,0,0,1-6.528,6.527H9.991v1.945a.879.879,0,0,1-1.758,0V27.176H8.171a6.523,6.523,0,0,1-6.528-6.527.879.879,0,0,1,.879-.879h.942a6.487,6.487,0,0,1,4.769,2.071V18.594a3.637,3.637,0,0,1-2.254-1.679,3.639,3.639,0,0,1-4.431-4.43A3.65,3.65,0,0,1-.24,9.352ZM14.742,21.528a4.806,4.806,0,0,0-4.671,3.89,4.785,4.785,0,0,0,4.671-3.89Zm-11.261,0a4.784,4.784,0,0,0,4.672,3.89,4.785,4.785,0,0,0-4.672-3.89ZM2.887,11.136a.879.879,0,0,1,.561,1.356,1.794,1.794,0,0,0,.294,2.229,1.794,1.794,0,0,0,2.229.294.879.879,0,0,1,1.356.561,1.847,1.847,0,0,0,3.568,0,.879.879,0,0,1,1.356-.561,1.847,1.847,0,0,0,2.523-2.523.879.879,0,0,1,.562-1.356,1.847,1.847,0,0,0,0-3.569.879.879,0,0,1-.562-1.356,1.794,1.794,0,0,0-.294-2.229,1.794,1.794,0,0,0-2.23-.294A.879.879,0,0,1,10.9,3.127a1.847,1.847,0,0,0-3.569,0,.879.879,0,0,1-1.356.561,1.794,1.794,0,0,0-2.229.294,1.8,1.8,0,0,0-.294,2.23.879.879,0,0,1-.561,1.356,1.848,1.848,0,0,0,0,3.569Zm0,0" transform="translate(0.24 0)" fill="#fff"/>
      </g>
    </g>
    <g id="마스크_그룹_99" data-name="마스크 그룹 99" transform="translate(621.972 647)" opacity="0.5" clip-path="url(#clip-path-8)">
      <g id="flower-pot-4" data-name="flower-pot" transform="translate(4.707)">
        <path id="패스_1397" data-name="패스 1397" d="M6.612,3.766A3.086,3.086,0,1,1,3.526,6.851,3.089,3.089,0,0,1,6.612,3.766Zm0,4.707A1.621,1.621,0,1,0,4.991,6.852,1.623,1.623,0,0,0,6.612,8.473Zm0,0" transform="translate(1.181 0.941)" fill="#fff"/>
        <path id="패스_1398" data-name="패스 1398" d="M-.24,7.793a3.04,3.04,0,0,1,1.49-2.61A3.032,3.032,0,0,1,4.943,1.49a3.032,3.032,0,0,1,5.221,0,3.032,3.032,0,0,1,3.692,3.692,3.032,3.032,0,0,1,0,5.222A3.032,3.032,0,0,1,10.164,14.1a3.031,3.031,0,0,1-1.878,1.4V18.2a5.412,5.412,0,0,1,3.975-1.727h.784a.733.733,0,0,1,.732.732,5.436,5.436,0,0,1-5.44,5.439H8.286v1.621a.732.732,0,0,1-1.465,0V22.646H6.769a5.436,5.436,0,0,1-5.44-5.439.732.732,0,0,1,.732-.732h.785A5.406,5.406,0,0,1,6.821,18.2V15.5a3.03,3.03,0,0,1-1.878-1.4A3.032,3.032,0,0,1,1.251,10.4,3.042,3.042,0,0,1-.24,7.793ZM12.245,17.94a4.005,4.005,0,0,0-3.893,3.242,3.988,3.988,0,0,0,3.893-3.242Zm-9.384,0a3.987,3.987,0,0,0,3.893,3.242A3.987,3.987,0,0,0,2.861,17.94Zm-.5-8.659a.732.732,0,0,1,.468,1.13,1.5,1.5,0,0,0,.245,1.858,1.5,1.5,0,0,0,1.858.245.732.732,0,0,1,1.13.468,1.539,1.539,0,0,0,2.974,0,.732.732,0,0,1,1.13-.468,1.54,1.54,0,0,0,2.1-2.1.732.732,0,0,1,.468-1.13,1.54,1.54,0,0,0,0-2.974.732.732,0,0,1-.468-1.13,1.5,1.5,0,0,0-.245-1.858,1.5,1.5,0,0,0-1.858-.245.732.732,0,0,1-1.13-.468,1.539,1.539,0,0,0-2.974,0,.732.732,0,0,1-1.13.468,1.5,1.5,0,0,0-1.858.245,1.5,1.5,0,0,0-.245,1.858.732.732,0,0,1-.468,1.13,1.54,1.54,0,0,0,0,2.974Zm0,0" transform="translate(0.24 0)" fill="#fff"/>
      </g>
    </g>
    <g id="마스크_그룹_97" data-name="마스크 그룹 97" transform="translate(-473.028 -21)" opacity="0.5" clip-path="url(#clip-path-5)">
      <g id="building-3" data-name="building" transform="translate(1037.862 663)">
        <path id="패스_1362" data-name="패스 1362" d="M28.546,28.242H26.228V.879A.879.879,0,0,0,25.349,0H5.226a.879.879,0,0,0-.879.879V28.242H2.029a.879.879,0,1,0,0,1.758H28.546a.879.879,0,1,0,0-1.758Zm-16.255,0V22.25h5.992v5.992Zm7.75,0V21.371a.879.879,0,0,0-.879-.879h-7.75a.879.879,0,0,0-.879.879v6.871H6.105V1.758H24.47V28.242Z" transform="translate(-1.15)" fill="#fff"/>
        <path id="패스_1363" data-name="패스 1363" d="M15.752,5.18H11.445a.879.879,0,0,0-.879.879v4.307a.879.879,0,0,0,.879.879h4.307a.879.879,0,0,0,.879-.879V6.059A.879.879,0,0,0,15.752,5.18Zm-.879,4.307H12.323V6.938h2.549Z" transform="translate(-3.504 -1.295)" fill="#fff"/>
        <path id="패스_1364" data-name="패스 1364" d="M26.534,5.18H22.227a.879.879,0,0,0-.879.879v4.307a.879.879,0,0,0,.879.879h4.307a.879.879,0,0,0,.879-.879V6.059A.879.879,0,0,0,26.534,5.18Zm-.879,4.307H23.106V6.938h2.549Z" transform="translate(-6.199 -1.295)" fill="#fff"/>
        <path id="패스_1365" data-name="패스 1365" d="M15.752,16.09H11.445a.879.879,0,0,0-.879.879v4.307a.879.879,0,0,0,.879.879h4.307a.879.879,0,0,0,.879-.879V16.969A.879.879,0,0,0,15.752,16.09ZM14.873,20.4H12.323V17.848h2.549Z" transform="translate(-3.504 -4.023)" fill="#fff"/>
        <path id="패스_1366" data-name="패스 1366" d="M26.534,16.09H22.227a.879.879,0,0,0-.879.879v4.307a.879.879,0,0,0,.879.879h4.307a.879.879,0,0,0,.879-.879V16.969A.879.879,0,0,0,26.534,16.09ZM25.655,20.4H23.106V17.848h2.549Z" transform="translate(-6.199 -4.023)" fill="#fff"/>
      </g>
    </g>
    <g id="마스크_그룹_90" data-name="마스크 그룹 90" transform="translate(-549.028 -83)" opacity="0.5" clip-path="url(#clip-path-3)">
      <g id="flower-pot-5" data-name="flower-pot" transform="translate(1048.649 725)">
        <path id="패스_1339" data-name="패스 1339" d="M7.229,3.766a3.7,3.7,0,1,0,3.7,3.7,3.707,3.707,0,0,0-3.7-3.7Zm0,5.648A1.945,1.945,0,1,1,9.175,7.469,1.948,1.948,0,0,1,7.229,9.414Zm0,0" transform="translate(2.122 1.883)" fill="#fff"/>
        <path id="패스_1340" data-name="패스 1340" d="M18.463,9.352a3.648,3.648,0,0,0-1.788-3.133,3.638,3.638,0,0,0-4.43-4.43,3.638,3.638,0,0,0-6.265,0,3.638,3.638,0,0,0-4.43,4.431,3.638,3.638,0,0,0,0,6.266,3.638,3.638,0,0,0,4.431,4.43,3.637,3.637,0,0,0,2.254,1.679v3.248a6.5,6.5,0,0,0-4.77-2.072H2.522a.879.879,0,0,0-.879.879,6.523,6.523,0,0,0,6.528,6.527h.062v1.945a.879.879,0,0,0,1.758,0V27.176h.062a6.523,6.523,0,0,0,6.528-6.527.879.879,0,0,0-.879-.879h-.942a6.487,6.487,0,0,0-4.769,2.071V18.594a3.637,3.637,0,0,0,2.254-1.679,3.639,3.639,0,0,0,4.431-4.43,3.65,3.65,0,0,0,1.788-3.133ZM3.481,21.528a4.806,4.806,0,0,1,4.671,3.89,4.785,4.785,0,0,1-4.671-3.89Zm11.261,0a4.784,4.784,0,0,1-4.672,3.89,4.785,4.785,0,0,1,4.672-3.89Zm.594-10.391a.879.879,0,0,0-.561,1.356,1.847,1.847,0,0,1-2.523,2.523.879.879,0,0,0-1.356.561,1.847,1.847,0,0,1-3.568,0,.879.879,0,0,0-1.356-.561,1.794,1.794,0,0,1-2.229-.294,1.793,1.793,0,0,1-.294-2.229.879.879,0,0,0-.562-1.356,1.847,1.847,0,0,1,0-3.569.879.879,0,0,0,.562-1.356,1.794,1.794,0,0,1,.294-2.229,1.794,1.794,0,0,1,2.23-.294.879.879,0,0,0,1.356-.562,1.847,1.847,0,0,1,3.569,0,.879.879,0,0,0,1.356.561,1.794,1.794,0,0,1,2.229.294,1.8,1.8,0,0,1,.294,2.23.879.879,0,0,0,.561,1.356,1.848,1.848,0,0,1,0,3.569Zm0,0" transform="translate(0.24 0)" fill="#fff"/>
      </g>
    </g>
    <g id="마스크_그룹_111" data-name="마스크 그룹 111" transform="translate(-59.028 -83)" opacity="0.5" clip-path="url(#clip-path-3)">
      <g id="flower-pot-6" data-name="flower-pot" transform="translate(1048.649 725)">
        <path id="패스_2582" data-name="패스 2582" d="M7.229,3.766a3.7,3.7,0,1,0,3.7,3.7,3.707,3.707,0,0,0-3.7-3.7Zm0,5.648A1.945,1.945,0,1,1,9.175,7.469,1.948,1.948,0,0,1,7.229,9.414Zm0,0" transform="translate(2.122 1.883)" fill="#fff"/>
        <path id="패스_2583" data-name="패스 2583" d="M18.463,9.352a3.648,3.648,0,0,0-1.788-3.133,3.638,3.638,0,0,0-4.43-4.43,3.638,3.638,0,0,0-6.265,0,3.638,3.638,0,0,0-4.43,4.431,3.638,3.638,0,0,0,0,6.266,3.638,3.638,0,0,0,4.431,4.43,3.637,3.637,0,0,0,2.254,1.679v3.248a6.5,6.5,0,0,0-4.77-2.072H2.522a.879.879,0,0,0-.879.879,6.523,6.523,0,0,0,6.528,6.527h.062v1.945a.879.879,0,0,0,1.758,0V27.176h.062a6.523,6.523,0,0,0,6.528-6.527.879.879,0,0,0-.879-.879h-.942a6.487,6.487,0,0,0-4.769,2.071V18.594a3.637,3.637,0,0,0,2.254-1.679,3.639,3.639,0,0,0,4.431-4.43,3.65,3.65,0,0,0,1.788-3.133ZM3.481,21.528a4.806,4.806,0,0,1,4.671,3.89,4.785,4.785,0,0,1-4.671-3.89Zm11.261,0a4.784,4.784,0,0,1-4.672,3.89,4.785,4.785,0,0,1,4.672-3.89Zm.594-10.391a.879.879,0,0,0-.561,1.356,1.847,1.847,0,0,1-2.523,2.523.879.879,0,0,0-1.356.561,1.847,1.847,0,0,1-3.568,0,.879.879,0,0,0-1.356-.561,1.794,1.794,0,0,1-2.229-.294,1.793,1.793,0,0,1-.294-2.229.879.879,0,0,0-.562-1.356,1.847,1.847,0,0,1,0-3.569.879.879,0,0,0,.562-1.356,1.794,1.794,0,0,1,.294-2.229,1.794,1.794,0,0,1,2.23-.294.879.879,0,0,0,1.356-.562,1.847,1.847,0,0,1,3.569,0,.879.879,0,0,0,1.356.561,1.794,1.794,0,0,1,2.229.294,1.8,1.8,0,0,1,.294,2.23.879.879,0,0,0,.561,1.356,1.848,1.848,0,0,1,0,3.569Zm0,0" transform="translate(0.24 0)" fill="#fff"/>
      </g>
    </g>
  </g>
</svg>
