<svg xmlns="http://www.w3.org/2000/svg" xmlns:xlink="http://www.w3.org/1999/xlink" width="110" height="110" viewBox="0 0 110 110">
  <defs>
    <clipPath id="clip-path">
      <rect id="사각형_1001" data-name="사각형 1001" width="110" height="110" transform="translate(455 2408)" fill="#fff" stroke="#707070" stroke-width="1"/>
    </clipPath>
  </defs>
  <g id="마스크_그룹_13" data-name="마스크 그룹 13" transform="translate(-455 -2408)" clip-path="url(#clip-path)">
    <g id="class" transform="translate(455 2408)">
      <g id="그룹_5227" data-name="그룹 5227">
        <g id="그룹_5226" data-name="그룹 5226">
          <g id="그룹_5223" data-name="그룹 5223">
            <path id="패스_5523" data-name="패스 5523" d="M106.563,42.969h-33.3V37.6a18.262,18.262,0,0,1,36.523,0v2.148A3.223,3.223,0,0,1,106.563,42.969Z" fill="#ffe571"/>
            <path id="패스_5524" data-name="패스 5524" d="M109.785,37.6A18.262,18.262,0,0,0,91.523,19.336V42.969h15.039a3.223,3.223,0,0,0,3.223-3.223Z" fill="#feb31e"/>
          </g>
          <path id="패스_5525" data-name="패스 5525" d="M91.523,23.633A11.816,11.816,0,1,1,103.34,11.816,11.83,11.83,0,0,1,91.523,23.633Z" fill="#ffd6aa"/>
          <path id="패스_5526" data-name="패스 5526" d="M91.523,0V23.633A11.816,11.816,0,0,0,91.523,0Z" fill="#fac68f"/>
          <g id="그룹_5224" data-name="그룹 5224">
            <path id="패스_5527" data-name="패스 5527" d="M73.262,42.969H36.738V37.6a18.262,18.262,0,0,1,36.523,0Z" fill="#f2faff"/>
            <path id="패스_5528" data-name="패스 5528" d="M73.262,37.6A18.262,18.262,0,0,0,55,19.336V42.969H73.262Z" fill="#c8eafa"/>
          </g>
          <path id="패스_5529" data-name="패스 5529" d="M55,23.633A11.816,11.816,0,1,1,66.816,11.816,11.83,11.83,0,0,1,55,23.633Z" fill="#ffd6aa"/>
          <path id="패스_5530" data-name="패스 5530" d="M55,0V23.633A11.816,11.816,0,0,0,55,0Z" fill="#fac68f"/>
          <g id="그룹_5225" data-name="그룹 5225">
            <path id="패스_5531" data-name="패스 5531" d="M36.738,42.969H3.438A3.223,3.223,0,0,1,.215,39.746V37.6a18.262,18.262,0,0,1,36.523,0Z" fill="#87e694"/>
            <path id="패스_5532" data-name="패스 5532" d="M36.738,37.6A18.262,18.262,0,0,0,18.477,19.336V42.969H36.738Z" fill="#66cc70"/>
          </g>
          <path id="패스_5533" data-name="패스 5533" d="M18.477,23.633A11.816,11.816,0,1,1,30.293,11.816,11.83,11.83,0,0,1,18.477,23.633Z" fill="#ffd6aa"/>
          <path id="패스_5534" data-name="패스 5534" d="M18.477,0V23.633A11.816,11.816,0,0,0,18.477,0Z" fill="#fac68f"/>
        </g>
      </g>
      <g id="그룹_5228" data-name="그룹 5228">
        <path id="패스_5535" data-name="패스 5535" d="M106.563,64.453H3.438A3.223,3.223,0,0,1,.215,61.23V39.746h109.57V61.23A3.223,3.223,0,0,1,106.563,64.453Z" fill="#bc8173"/>
      </g>
      <g id="그룹_5229" data-name="그룹 5229">
        <path id="패스_5536" data-name="패스 5536" d="M109.785,61.23V39.746H55V64.453h51.563A3.223,3.223,0,0,0,109.785,61.23Z" fill="#9d5e4a"/>
      </g>
      <g id="그룹_5234" data-name="그룹 5234">
        <g id="그룹_5233" data-name="그룹 5233">
          <g id="그룹_5230" data-name="그룹 5230">
            <path id="패스_5537" data-name="패스 5537" d="M106.563,94.531h-33.3V89.16a18.262,18.262,0,0,1,36.523,0v2.148A3.223,3.223,0,0,1,106.563,94.531Z" fill="#f2faff"/>
            <path id="패스_5538" data-name="패스 5538" d="M109.785,89.16A18.262,18.262,0,0,0,91.523,70.9V94.531h15.039a3.223,3.223,0,0,0,3.223-3.223Z" fill="#c8eafa"/>
          </g>
          <path id="패스_5539" data-name="패스 5539" d="M91.523,75.2A11.816,11.816,0,1,1,103.34,63.379,11.83,11.83,0,0,1,91.523,75.2Z" fill="#ffd6aa"/>
          <path id="패스_5540" data-name="패스 5540" d="M91.523,51.563V75.2a11.816,11.816,0,0,0,0-23.633Z" fill="#fac68f"/>
          <g id="그룹_5231" data-name="그룹 5231">
            <path id="패스_5541" data-name="패스 5541" d="M73.262,94.531H36.738V89.16a18.262,18.262,0,0,1,36.523,0Z" fill="#87e694"/>
            <path id="패스_5542" data-name="패스 5542" d="M73.262,89.16A18.262,18.262,0,0,0,55,70.9V94.531H73.262Z" fill="#66cc70"/>
          </g>
          <path id="패스_5543" data-name="패스 5543" d="M55,75.2A11.816,11.816,0,1,1,66.816,63.379,11.83,11.83,0,0,1,55,75.2Z" fill="#ffd6aa"/>
          <path id="패스_5544" data-name="패스 5544" d="M55,51.563V75.2a11.816,11.816,0,0,0,0-23.633Z" fill="#fac68f"/>
          <g id="그룹_5232" data-name="그룹 5232">
            <path id="패스_5545" data-name="패스 5545" d="M36.738,94.531H3.438A3.223,3.223,0,0,1,.215,91.309V89.16a18.262,18.262,0,0,1,36.523,0Z" fill="#ffe571"/>
            <path id="패스_5546" data-name="패스 5546" d="M36.738,89.16A18.262,18.262,0,0,0,18.477,70.9V94.531H36.738Z" fill="#feb31e"/>
          </g>
          <path id="패스_5547" data-name="패스 5547" d="M18.477,75.2A11.816,11.816,0,1,1,30.293,63.379,11.83,11.83,0,0,1,18.477,75.2Z" fill="#ffd6aa"/>
          <path id="패스_5548" data-name="패스 5548" d="M18.477,51.563V75.2a11.816,11.816,0,0,0,0-23.633Z" fill="#fac68f"/>
        </g>
      </g>
      <path id="패스_5549" data-name="패스 5549" d="M.215,91.309v15.469A3.223,3.223,0,0,0,3.438,110H106.563a3.223,3.223,0,0,0,3.223-3.223V91.309Z" fill="#bc8173"/>
      <path id="패스_5550" data-name="패스 5550" d="M106.563,110a3.223,3.223,0,0,0,3.223-3.223V91.309H55V110Z" fill="#9d5e4a"/>
    </g>
  </g>
</svg>
