<svg xmlns="http://www.w3.org/2000/svg" width="80" height="80.5" viewBox="0 0 80 80.5">
  <g id="구성_요소_5_1" data-name="구성 요소 5 – 1" transform="translate(0 0.25)">
    <rect id="사각형_1042" data-name="사각형 1042" width="80" height="80" transform="translate(0 0)" fill="#fff" opacity="0"/>
    <g id="그룹_5438" data-name="그룹 5438" transform="translate(157.14 -405.237)">
      <g id="그룹_5436" data-name="그룹 5436">
        <g id="그룹_5427" data-name="그룹 5427">
          <g id="그룹_5420" data-name="그룹 5420">
            <rect id="사각형_1043" data-name="사각형 1043" width="22.24" height="13.941" transform="translate(-127.39 465.135)" fill="#c9caca" stroke="#3e3a39" stroke-width="0.5"/>
            <path id="패스_5739" data-name="패스 5739" d="M-105.151,479.927H-127.39a.85.85,0,0,1-.85-.85V465.135a.85.85,0,0,1,.85-.85h22.239a.85.85,0,0,1,.85.85v13.942A.85.85,0,0,1-105.151,479.927Zm-21.39-1.7H-106V465.985h-20.541Z" fill="#3e3a39" stroke="#3e3a39" stroke-width="0.5"/>
          </g>
          <g id="그룹_5421" data-name="그룹 5421">
            <path id="패스_5740" data-name="패스 5740" d="M-127.39,472.438V458.5h22.24v13.941" fill="#b5b5b6" stroke="#3e3a39" stroke-width="0.5"/>
            <path id="패스_5741" data-name="패스 5741" d="M-105.151,473.288a.85.85,0,0,1-.849-.85V459.346h-20.541v13.092a.85.85,0,0,1-.849.85.85.85,0,0,1-.85-.85V458.5a.85.85,0,0,1,.85-.85h22.239a.85.85,0,0,1,.85.85v13.942A.85.85,0,0,1-105.151,473.288Z" fill="#3e3a39" stroke="#3e3a39" stroke-width="0.5"/>
          </g>
          <g id="그룹_5422" data-name="그룹 5422">
            <rect id="사각형_1044" data-name="사각형 1044" width="70.039" height="51.783" rx="4.862" transform="translate(-151.29 416.672)" fill="#7ebaff" stroke="#3e3a39" stroke-width="0.5"/>
            <path id="패스_5742" data-name="패스 5742" d="M-86.113,469.3h-60.316a5.718,5.718,0,0,1-5.711-5.712V421.534a5.718,5.718,0,0,1,5.711-5.712h60.316a5.718,5.718,0,0,1,5.712,5.712v42.058A5.718,5.718,0,0,1-86.113,469.3Zm-60.316-51.782a4.016,4.016,0,0,0-4.011,4.012v42.058a4.017,4.017,0,0,0,4.011,4.012h60.316a4.017,4.017,0,0,0,4.012-4.012V421.534a4.016,4.016,0,0,0-4.012-4.012Z" fill="#3e3a39" stroke="#3e3a39" stroke-width="0.5"/>
          </g>
          <g id="그룹_5423" data-name="그룹 5423">
            <path id="패스_5743" data-name="패스 5743" d="M-100.337,484.387H-132.2a3.153,3.153,0,0,1-3.153-3.153h0a3.153,3.153,0,0,1,3.153-3.153h31.867a3.153,3.153,0,0,1,3.153,3.153h0A3.153,3.153,0,0,1-100.337,484.387Z" fill="#fff" stroke="#3e3a39" stroke-width="0.5"/>
            <path id="패스_5744" data-name="패스 5744" d="M-100.338,485.237H-132.2a4.007,4.007,0,0,1-4-4,4.008,4.008,0,0,1,4-4h31.866a4.008,4.008,0,0,1,4,4A4.007,4.007,0,0,1-100.338,485.237Zm-31.866-6.306a2.305,2.305,0,0,0-2.3,2.3,2.305,2.305,0,0,0,2.3,2.3h31.866a2.306,2.306,0,0,0,2.3-2.3,2.306,2.306,0,0,0-2.3-2.3Z" fill="#3e3a39" stroke="#3e3a39" stroke-width="0.5"/>
          </g>
          <g id="그룹_5424" data-name="그룹 5424">
            <rect id="사각형_1045" data-name="사각형 1045" width="42.82" height="51.413" transform="translate(-137.681 406.087)" fill="#fff" stroke="#3e3a39" stroke-width="0.5"/>
            <path id="패스_5745" data-name="패스 5745" d="M-94.86,458.35h-42.821a.85.85,0,0,1-.85-.85V406.087a.851.851,0,0,1,.85-.85H-94.86a.851.851,0,0,1,.85.85V457.5A.85.85,0,0,1-94.86,458.35Zm-41.971-1.7H-95.71V406.937h-41.121Z" fill="#3e3a39" stroke="#3e3a39" stroke-width="0.5"/>
          </g>
          <g id="그룹_5425" data-name="그룹 5425">
            <path id="패스_5746" data-name="패스 5746" d="M-94.86,451.745V457.5h-42.82v-5.756" fill="#dcdddd" stroke="#3e3a39" stroke-width="0.5"/>
            <path id="패스_5747" data-name="패스 5747" d="M-94.86,458.35h-42.821a.85.85,0,0,1-.85-.85v-5.755a.85.85,0,0,1,.85-.85.849.849,0,0,1,.85.85v4.9H-95.71v-4.9a.849.849,0,0,1,.85-.85.85.85,0,0,1,.85.85V457.5A.85.85,0,0,1-94.86,458.35Z" fill="#3e3a39" stroke="#3e3a39" stroke-width="0.5"/>
          </g>
          <g id="그룹_5426" data-name="그룹 5426">
            <path id="패스_5748" data-name="패스 5748" d="M-144.349,455.509h-6.941v8.084a4.861,4.861,0,0,0,4.862,4.861h60.315a4.861,4.861,0,0,0,4.862-4.861v-8.084H-139.88" fill="#fff" stroke="#3e3a39" stroke-width="0.5"/>
            <path id="패스_5749" data-name="패스 5749" d="M-86.113,469.3h-60.316a5.718,5.718,0,0,1-5.711-5.712v-8.083a.85.85,0,0,1,.85-.85h6.941a.85.85,0,0,1,.85.85.851.851,0,0,1-.85.85h-6.091v7.233a4.017,4.017,0,0,0,4.011,4.012h60.316a4.017,4.017,0,0,0,4.012-4.012v-7.233H-139.88a.851.851,0,0,1-.85-.85.85.85,0,0,1,.85-.85h58.629a.85.85,0,0,1,.85.85v8.083A5.718,5.718,0,0,1-86.113,469.3Z" fill="#3e3a39" stroke="#3e3a39" stroke-width="0.5"/>
          </g>
        </g>
        <g id="그룹_5429" data-name="그룹 5429">
          <g id="그룹_5428" data-name="그룹 5428">
            <path id="패스_5750" data-name="패스 5750" d="M-121.426,415.6h-11.456a.85.85,0,0,1-.85-.85.849.849,0,0,1,.85-.85h11.456a.85.85,0,0,1,.85.85A.851.851,0,0,1-121.426,415.6Z" fill="#3e3a39" stroke="#3e3a39" stroke-width="0.5"/>
            <path id="패스_5751" data-name="패스 5751" d="M-109.053,418.808h-23.829a.849.849,0,0,1-.85-.85.85.85,0,0,1,.85-.85h23.829a.851.851,0,0,1,.85.85A.85.85,0,0,1-109.053,418.808Z" fill="#3e3a39" stroke="#3e3a39" stroke-width="0.5"/>
          </g>
          <rect id="사각형_1046" data-name="사각형 1046" width="5.957" height="5.957" transform="translate(-105.616 413.376)" fill="#ffded3"/>
        </g>
        <g id="그룹_5431" data-name="그룹 5431">
          <g id="그룹_5430" data-name="그룹 5430">
            <path id="패스_5752" data-name="패스 5752" d="M-121.426,425.759h-11.456a.85.85,0,0,1-.85-.85.849.849,0,0,1,.85-.85h11.456a.85.85,0,0,1,.85.85A.851.851,0,0,1-121.426,425.759Z" fill="#3e3a39"/>
            <path id="패스_5753" data-name="패스 5753" d="M-109.053,428.966h-23.829a.849.849,0,0,1-.85-.85.85.85,0,0,1,.85-.85h23.829a.851.851,0,0,1,.85.85A.85.85,0,0,1-109.053,428.966Z" fill="#3e3a39"/>
          </g>
          <rect id="사각형_1047" data-name="사각형 1047" width="5.957" height="5.957" transform="translate(-105.616 423.534)" fill="#ffded3"/>
        </g>
        <g id="그룹_5433" data-name="그룹 5433">
          <g id="그룹_5432" data-name="그룹 5432">
            <path id="패스_5754" data-name="패스 5754" d="M-121.426,435.916h-11.456a.849.849,0,0,1-.85-.85.849.849,0,0,1,.85-.849h11.456a.85.85,0,0,1,.85.849A.85.85,0,0,1-121.426,435.916Z" fill="#3e3a39"/>
            <path id="패스_5755" data-name="패스 5755" d="M-109.053,439.124h-23.829a.849.849,0,0,1-.85-.85.85.85,0,0,1,.85-.85h23.829a.851.851,0,0,1,.85.85A.85.85,0,0,1-109.053,439.124Z" fill="#3e3a39"/>
          </g>
          <rect id="사각형_1048" data-name="사각형 1048" width="5.957" height="5.957" transform="translate(-105.616 433.692)" fill="#ffded3"/>
        </g>
        <g id="그룹_5435" data-name="그룹 5435">
          <g id="그룹_5434" data-name="그룹 5434">
            <path id="패스_5756" data-name="패스 5756" d="M-121.426,446.074h-11.456a.849.849,0,0,1-.85-.85.849.849,0,0,1,.85-.849h11.456a.85.85,0,0,1,.85.849A.85.85,0,0,1-121.426,446.074Z" fill="#3e3a39"/>
            <path id="패스_5757" data-name="패스 5757" d="M-109.053,449.282h-23.829a.849.849,0,0,1-.85-.85.85.85,0,0,1,.85-.85h23.829a.851.851,0,0,1,.85.85A.85.85,0,0,1-109.053,449.282Z" fill="#3e3a39"/>
          </g>
          <rect id="사각형_1049" data-name="사각형 1049" width="5.957" height="5.957" transform="translate(-105.616 443.85)" fill="#ffded3"/>
        </g>
      </g>
      <path id="패스_5758" data-name="패스 5758" d="M-102.479,429.348a.85.85,0,0,1-.6-.249l-2.979-2.979a.849.849,0,0,1,0-1.2.85.85,0,0,1,1.2,0l2.378,2.377,4.21-4.21a.85.85,0,0,1,1.2,0,.849.849,0,0,1,0,1.2l-4.811,4.812A.853.853,0,0,1-102.479,429.348Z" fill="#3e3a39"/>
      <path id="패스_5759" data-name="패스 5759" d="M-102.479,439.43a.85.85,0,0,1-.6-.249l-2.979-2.979a.85.85,0,0,1,0-1.2.85.85,0,0,1,1.2,0l2.378,2.378,4.21-4.211a.85.85,0,0,1,1.2,0,.85.85,0,0,1,0,1.2l-4.811,4.812A.853.853,0,0,1-102.479,439.43Z" fill="#3e3a39" stroke="#3e3a39" stroke-width="0.5"/>
      <g id="그룹_5437" data-name="그룹 5437">
        <path id="패스_5760" data-name="패스 5760" d="M-86.582,448.573l-3.209-3.209,2.528-2.528-10.871-3.461,3.461,10.871,2.528-2.529,3.209,3.209Z" fill="#ff8067" stroke="#3e3a39" stroke-width="0.5"/>
        <path id="패스_5761" data-name="패스 5761" d="M-88.935,451.776a.849.849,0,0,1-.6-.249l-2.608-2.607-1.928,1.927a.853.853,0,0,1-.8.225.851.851,0,0,1-.609-.568l-3.46-10.871a.848.848,0,0,1,.209-.859.85.85,0,0,1,.859-.209L-87,442.026a.849.849,0,0,1,.568.609.85.85,0,0,1-.225.8l-1.927,1.928,2.607,2.607a.85.85,0,0,1,0,1.2l-2.353,2.353A.85.85,0,0,1-88.935,451.776Zm-3.208-4.908a.848.848,0,0,1,.6.249l2.607,2.607,1.151-1.151-2.607-2.608a.845.845,0,0,1-.249-.6.846.846,0,0,1,.249-.6l1.541-1.542-7.974-2.538,2.539,7.974,1.541-1.541A.846.846,0,0,1-92.143,446.868Z" fill="#3e3a39" stroke="#3e3a39" stroke-width="0.5"/>
      </g>
    </g>
  </g>
</svg>
