<svg xmlns="http://www.w3.org/2000/svg" xmlns:xlink="http://www.w3.org/1999/xlink" width="80" height="80" viewBox="0 0 80 80">
  <defs>
    <clipPath id="clip-path">
      <rect id="사각형_1054" data-name="사각형 1054" width="80" height="80" fill="#fff" stroke="#707070" stroke-width="1"/>
    </clipPath>
  </defs>
  <g id="img" clip-path="url(#clip-path)">
    <g id="그룹_5471" data-name="그룹 5471" transform="translate(1.454)">
      <g id="그룹_5469" data-name="그룹 5469" transform="translate(0 2.505)">
        <g id="그룹_5466" data-name="그룹 5466">
          <g id="그룹_5448" data-name="그룹 5448" transform="translate(18.138 51.743)">
            <path id="패스_5765" data-name="패스 5765" d="M1690.473,218.993V195.357h38.869v23.637" transform="translate(-1689.411 -194.294)" fill="#ffe571"/>
            <path id="패스_5766" data-name="패스 5766" d="M1728.9,219.617a1.062,1.062,0,0,1-1.062-1.062V195.98H1691.1v22.575a1.062,1.062,0,1,1-2.124,0V194.918a1.062,1.062,0,0,1,1.062-1.062H1728.9a1.062,1.062,0,0,1,1.062,1.062v23.637A1.062,1.062,0,0,1,1728.9,219.617Z" transform="translate(-1688.973 -193.856)" fill="#393939"/>
          </g>
          <g id="그룹_5449" data-name="그룹 5449" transform="translate(11.375 38.612)">
            <path id="패스_5767" data-name="패스 5767" d="M1680.92,191.778c0-8.268,11.729-14.97,26.2-14.97s26.2,6.7,26.2,14.97" transform="translate(-1679.858 -175.746)" fill="#ffe571"/>
            <path id="패스_5768" data-name="패스 5768" d="M1732.877,192.4a1.062,1.062,0,0,1-1.062-1.062c0-7.669-11.276-13.908-25.135-13.908s-25.136,6.239-25.136,13.908a1.062,1.062,0,1,1-2.124,0c0-8.84,12.228-16.032,27.26-16.032s27.26,7.192,27.26,16.032A1.062,1.062,0,0,1,1732.877,192.4Z" transform="translate(-1679.42 -175.308)" fill="#393939"/>
          </g>
          <g id="그룹_5465" data-name="그룹 5465">
            <g id="그룹_5461" data-name="그룹 5461" transform="translate(19.976)">
              <g id="그룹_5450" data-name="그룹 5450" transform="translate(11.556 34.673)">
                <path id="패스_5769" data-name="패스 5769" d="M1715.432,181.486h0a6.04,6.04,0,0,1-6.04-6.04v-4.2h12.081v4.2A6.04,6.04,0,0,1,1715.432,181.486Z" transform="translate(-1708.33 -170.182)" fill="#ffe2ca"/>
                <path id="패스_5770" data-name="패스 5770" d="M1714.994,182.11a7.11,7.11,0,0,1-7.1-7.1v-4.2a1.062,1.062,0,0,1,1.062-1.062h12.081a1.062,1.062,0,0,1,1.062,1.062v4.2A7.11,7.11,0,0,1,1714.994,182.11Zm-4.978-10.242v3.14a4.978,4.978,0,0,0,9.957,0v-3.14Z" transform="translate(-1707.892 -169.744)" fill="#393939"/>
              </g>
              <g id="그룹_5460" data-name="그룹 5460">
                <g id="그룹_5459" data-name="그룹 5459">
                  <g id="그룹_5457" data-name="그룹 5457">
                    <g id="그룹_5455" data-name="그룹 5455">
                      <g id="그룹_5453" data-name="그룹 5453" transform="translate(0 17.208)">
                        <g id="그룹_5451" data-name="그룹 5451">
                          <circle id="타원_86" data-name="타원 86" cx="3.939" cy="3.939" r="3.939" transform="translate(0.43 1.818) rotate(-10.154)" fill="#ffe2ca"/>
                          <path id="패스_5771" data-name="패스 5771" d="M1696.571,155.078a5,5,0,1,1,5-5A5.007,5.007,0,0,1,1696.571,155.078Zm0-7.879a2.878,2.878,0,1,0,2.877,2.877A2.881,2.881,0,0,0,1696.571,147.2Z" transform="translate(-1691.569 -145.075)" fill="#393939"/>
                        </g>
                        <g id="그룹_5452" data-name="그룹 5452" transform="translate(27.313)">
                          <circle id="타원_87" data-name="타원 87" cx="3.939" cy="3.939" r="3.939" transform="translate(0.554 1.646) rotate(-7.968)" fill="#ffe2ca"/>
                          <path id="패스_5772" data-name="패스 5772" d="M1735.151,155.078a5,5,0,1,1,5-5A5.007,5.007,0,0,1,1735.151,155.078Zm0-7.879a2.878,2.878,0,1,0,2.877,2.877A2.881,2.881,0,0,0,1735.151,147.2Z" transform="translate(-1730.149 -145.075)" fill="#393939"/>
                        </g>
                      </g>
                      <g id="그룹_5454" data-name="그룹 5454" transform="translate(3.677)">
                        <path id="패스_5773" data-name="패스 5773" d="M1712.182,159.037h0a13.92,13.92,0,0,1-13.919-13.919v-8.93a13.92,13.92,0,0,1,13.919-13.919h0a13.919,13.919,0,0,1,13.919,13.919v8.93A13.919,13.919,0,0,1,1712.182,159.037Z" transform="translate(-1697.201 -121.207)" fill="#ffe2ca"/>
                        <path id="패스_5774" data-name="패스 5774" d="M1711.744,159.661a15,15,0,0,1-14.981-14.981v-8.93a14.981,14.981,0,1,1,29.962,0v8.93A15,15,0,0,1,1711.744,159.661Zm0-36.768a12.872,12.872,0,0,0-12.857,12.857v8.93a12.857,12.857,0,1,0,25.715,0v-8.93A12.872,12.872,0,0,0,1711.744,122.893Z" transform="translate(-1696.763 -120.769)" fill="#393939"/>
                      </g>
                    </g>
                    <g id="그룹_5456" data-name="그룹 5456" transform="translate(6.286 21.261)">
                      <circle id="타원_88" data-name="타원 88" cx="4.625" cy="4.625" r="4.625" fill="#ffcebd"/>
                      <circle id="타원_89" data-name="타원 89" cx="4.625" cy="4.625" r="4.625" transform="translate(15.495 0)" fill="#ffcebd"/>
                    </g>
                  </g>
                  <g id="그룹_5458" data-name="그룹 5458" transform="translate(11.83 18.663)">
                    <path id="패스_5775" data-name="패스 5775" d="M1710.906,148.97c0,1.015-.588,1.839-1.313,1.839s-1.313-.823-1.313-1.839.588-1.839,1.313-1.839S1710.906,147.954,1710.906,148.97Z" transform="translate(-1708.279 -147.131)" fill="#493b39"/>
                    <path id="패스_5776" data-name="패스 5776" d="M1726.486,148.97c0,1.015-.588,1.839-1.313,1.839s-1.313-.823-1.313-1.839.588-1.839,1.313-1.839S1726.486,147.954,1726.486,148.97Z" transform="translate(-1712.829 -147.131)" fill="#493b39"/>
                  </g>
                </g>
                <path id="패스_5777" data-name="패스 5777" d="M1715.418,162.074a8.1,8.1,0,0,1-5.765-2.388,1.062,1.062,0,1,1,1.5-1.5,6.03,6.03,0,0,0,8.527,0,1.062,1.062,0,1,1,1.5,1.5A8.1,8.1,0,0,1,1715.418,162.074Z" transform="translate(-1696.759 -131.605)" fill="#393939"/>
              </g>
            </g>
            <g id="그룹_5464" data-name="그룹 5464" transform="translate(0 30.377)">
              <g id="그룹_5462" data-name="그룹 5462">
                <path id="패스_5778" data-name="패스 5778" d="M1685.849,189.085l-3.461-18.6a5.116,5.116,0,0,0-4.422-4.144l-9.518-1.139a3.213,3.213,0,0,0-3.592,3.049h0a3.213,3.213,0,0,0,2.088,3.153l5.63,2.1-.689,14.855a16.931,16.931,0,0,0,3.235,10.766h0a5.872,5.872,0,0,0,4.993,2.407h0a5.873,5.873,0,0,0,5.432-4.364h0A18.388,18.388,0,0,0,1685.849,189.085Z" transform="translate(-1663.791 -164.114)" fill="#ffe2ca"/>
                <path id="패스_5779" data-name="패스 5779" d="M1679.426,202.155a6.924,6.924,0,0,1-5.6-2.848,18.065,18.065,0,0,1-3.439-11.441l.653-14.081-4.9-1.828a4.275,4.275,0,0,1,2-8.251l9.519,1.139a6.15,6.15,0,0,1,5.339,5l3.46,18.6a19.567,19.567,0,0,1-.321,8.543,6.905,6.905,0,0,1-6.414,5.153C1679.622,202.153,1679.523,202.155,1679.426,202.155Zm-11.8-36.356a2.154,2.154,0,0,0-2.142,2.057,2.146,2.146,0,0,0,1.4,2.11l5.63,2.1a1.061,1.061,0,0,1,.69,1.044l-.69,14.855a15.933,15.933,0,0,0,3.033,10.091,4.813,4.813,0,0,0,8.54-1.6,17.433,17.433,0,0,0,.286-7.611h0l-3.461-18.6a4.037,4.037,0,0,0-3.5-3.284l-9.518-1.139A2.34,2.34,0,0,0,1667.621,165.8Z" transform="translate(-1663.353 -163.676)" fill="#393939"/>
              </g>
              <g id="그룹_5463" data-name="그룹 5463" transform="translate(53.842)">
                <path id="패스_5780" data-name="패스 5780" d="M1741.211,189.085l3.461-18.6a5.116,5.116,0,0,1,4.422-4.144l9.518-1.139a3.212,3.212,0,0,1,3.592,3.049h0a3.213,3.213,0,0,1-2.087,3.153l-5.63,2.1.689,14.855a16.933,16.933,0,0,1-3.236,10.766h0a5.871,5.871,0,0,1-4.992,2.407h0a5.873,5.873,0,0,1-5.432-4.364h0A18.388,18.388,0,0,1,1741.211,189.085Z" transform="translate(-1739.842 -164.114)" fill="#ffe2ca"/>
                <path id="패스_5781" data-name="패스 5781" d="M1746.759,202.155q-.146,0-.293-.006a6.906,6.906,0,0,1-6.415-5.153,19.592,19.592,0,0,1-.321-8.542h0l3.46-18.6a6.15,6.15,0,0,1,5.34-5l9.518-1.139a4.275,4.275,0,0,1,2,8.25l-4.905,1.829.654,14.081a18.053,18.053,0,0,1-3.439,11.441A6.92,6.92,0,0,1,1746.759,202.155Zm-4.941-13.314a17.454,17.454,0,0,0,.287,7.611,4.812,4.812,0,0,0,8.539,1.6,15.919,15.919,0,0,0,3.033-10.091l-.689-14.855a1.063,1.063,0,0,1,.69-1.044l5.631-2.1a2.151,2.151,0,0,0-1.007-4.152l-9.519,1.139a4.038,4.038,0,0,0-3.5,3.284l-3.461,18.6Z" transform="translate(-1739.405 -163.676)" fill="#393939"/>
              </g>
            </g>
          </g>
        </g>
        <g id="그룹_5467" data-name="그룹 5467" transform="translate(0.001 12.868)">
          <path id="패스_5782" data-name="패스 5782" d="M1675.582,151.494l-1.808,1.808a1.923,1.923,0,0,1-2.72,0l-5.638-5.638a1.923,1.923,0,1,1,2.72-2.72l4.278,4.277,8.213-8.212a1.923,1.923,0,0,1,2.72,2.72l-4.893,4.893" transform="translate(-1663.792 -139.383)" fill="#86baff"/>
          <path id="패스_5783" data-name="패스 5783" d="M1671.977,154.488a2.967,2.967,0,0,1-2.111-.874l-5.637-5.638a2.986,2.986,0,0,1,2.11-5.1h0a2.965,2.965,0,0,1,2.112.876l3.526,3.526,7.463-7.461a2.985,2.985,0,0,1,4.222,4.222l-4.894,4.893a1.062,1.062,0,0,1-1.5-1.5l4.893-4.893a.861.861,0,0,0,0-1.218.882.882,0,0,0-1.218,0l-8.214,8.213a1.062,1.062,0,0,1-1.5,0l-4.277-4.278a.882.882,0,0,0-1.218,0,.862.862,0,0,0,0,1.219l5.638,5.638a.882.882,0,0,0,1.218,0l1.808-1.808a1.062,1.062,0,0,1,1.5,1.5l-1.807,1.808A2.966,2.966,0,0,1,1671.977,154.488Z" transform="translate(-1663.354 -138.945)" fill="#393939"/>
        </g>
        <g id="그룹_5468" data-name="그룹 5468" transform="translate(59.917 11.965)">
          <path id="패스_5784" data-name="패스 5784" d="M1764.09,150.761l-3.979-3.979,3.979-3.979a2.13,2.13,0,0,0,0-3.011h0a2.129,2.129,0,0,0-3.011,0l-3.979,3.979-3.979-3.979a2.129,2.129,0,0,0-3.011,3.011l3.979,3.979-3.979,3.979a2.13,2.13,0,0,0,0,3.011h0a2.129,2.129,0,0,0,3.011,0l3.979-3.979,3.979,3.979a2.129,2.129,0,0,0,3.011-3.011Z" transform="translate(-1748.424 -138.107)" fill="#ff7657"/>
          <path id="패스_5785" data-name="패스 5785" d="M1762.146,155.02a3.168,3.168,0,0,1-2.256-.935l-3.229-3.228-3.228,3.228a3.191,3.191,0,1,1-4.513-4.513l3.228-3.228-3.228-3.228a3.191,3.191,0,1,1,4.513-4.512l3.227,3.228,3.229-3.228a3.191,3.191,0,1,1,4.513,4.513l-3.228,3.228,3.228,3.228h0a3.191,3.191,0,0,1-2.258,5.447Zm-5.485-6.726a1.06,1.06,0,0,1,.751.311l3.979,3.979a1.092,1.092,0,0,0,1.51,0,1.069,1.069,0,0,0,0-1.509l-3.978-3.979a1.062,1.062,0,0,1,0-1.5l3.979-3.979a1.07,1.07,0,0,0,0-1.509,1.093,1.093,0,0,0-1.509,0l-3.98,3.979a1.061,1.061,0,0,1-1.5,0l-3.979-3.979a1.093,1.093,0,0,0-1.509,0,1.067,1.067,0,0,0,0,1.509l3.979,3.979a1.061,1.061,0,0,1,0,1.5l-3.979,3.979a1.066,1.066,0,0,0,0,1.509,1.092,1.092,0,0,0,1.509,0l3.979-3.979A1.057,1.057,0,0,1,1756.661,148.293Z" transform="translate(-1747.986 -137.669)" fill="#393939"/>
        </g>
      </g>
      <g id="그룹_5470" data-name="그룹 5470" transform="translate(22.575)">
        <path id="패스_5786" data-name="패스 5786" d="M1698.083,138.447a8.753,8.753,0,0,0,4.465-5.384,3.428,3.428,0,0,1,3.415-2.232s1.182-2.889,3.808-2.495,5.909,1.838,9.718,1.838c0,0,1.443,5.516,5.908,8.273,0,0,4.728-13-6.171-17.334s-14.839-2.1-16.546,1.707C1702.679,122.82,1693.356,125.841,1698.083,138.447Z" transform="translate(-1695.68 -117.672)" fill="#7a6a56"/>
        <path id="패스_5787" data-name="패스 5787" d="M1724.956,139.067a1.059,1.059,0,0,1-.558-.159,15.866,15.866,0,0,1-6.135-8.133,28.5,28.5,0,0,1-6.164-1.15,28.061,28.061,0,0,0-2.926-.682c-1.748-.261-2.634,1.766-2.67,1.852a1.076,1.076,0,0,1-1.093.649,2.379,2.379,0,0,0-2.306,1.543,9.766,9.766,0,0,1-5.075,6.006,1.062,1.062,0,0,1-1.382-.617c-1.761-4.7-1.87-8.7-.325-11.909a10.348,10.348,0,0,1,5.137-4.925c2.533-5.063,8.181-5.65,17.717-1.859,11.721,4.661,6.827,18.544,6.776,18.683a1.059,1.059,0,0,1-.649.641A1.071,1.071,0,0,1,1724.956,139.067Zm-15.975-19.721c-3.578,0-4.983,1.706-5.772,3.467a1.061,1.061,0,0,1-.642.576,8.247,8.247,0,0,0-4.346,4.035c-1.142,2.4-1.14,5.421,0,9.009a8.527,8.527,0,0,0,2.883-4.157,4.545,4.545,0,0,1,3.775-2.959,4.627,4.627,0,0,1,4.61-2.474,29.645,29.645,0,0,1,3.161.731,24.549,24.549,0,0,0,6.4,1.1,1.062,1.062,0,0,1,1.027.793,15.048,15.048,0,0,0,4.288,6.8c.819-3.281,1.951-11.46-5.969-14.61C1714.2,119.99,1711.179,119.346,1708.981,119.346Z" transform="translate(-1695.24 -117.23)" fill="#393939"/>
      </g>
      <path id="패스_5788" data-name="패스 5788" d="M1707.972,133.137a1.062,1.062,0,0,1-.983-.659l-3.283-8.011a1.062,1.062,0,1,1,1.965-.8l3.282,8.01a1.062,1.062,0,0,1-.981,1.465Z" transform="translate(-1675.115 -118.916)" fill="#393939"/>
    </g>
  </g>
</svg>
