<svg xmlns="http://www.w3.org/2000/svg" width="124.988" height="216.56" viewBox="0 0 124.988 216.56">
  <g id="그룹_599" data-name="그룹 599" transform="translate(-1838.451 -349.123)">
    <path id="패스_1452" data-name="패스 1452" d="M1879.6,494.556c-1.744,8.034-.629,16.977-.53,25.2q.174,14.484.347,28.967c.022,1.933-.005,4.038-1.126,5.549-.628.846-1.537,1.409-2.167,2.255s-.878,2.222-.118,2.932a2.494,2.494,0,0,0,1.961.41,156.638,156.638,0,0,0,20.644-2.989,4.752,4.752,0,0,0,3.056-1.536,5.59,5.59,0,0,0,.764-2.649q3.09-26.97,5.135-54.062" fill="#fff"/>
    <path id="패스_1453" data-name="패스 1453" d="M1877.822,494.068a61.966,61.966,0,0,0-.978,14.846c.151,5,.372,9.98.431,14.979q.1,7.973.191,15.944.047,3.956.1,7.911c.014,1.11.039,2.22-.052,3.328-.032.378-.017.179-.005.092-.018.127-.04.254-.066.379a6.742,6.742,0,0,1-.185.737c-.036.119-.075.239-.122.354.034-.084.132-.233-.041.074-.061.107-.125.216-.183.324-.033.053-.067.1-.1.157.081-.086.079-.083-.005.012-.724.909-1.715,1.537-2.361,2.526a4.522,4.522,0,0,0-.64,3.428,3.336,3.336,0,0,0,2.632,2.472,14.054,14.054,0,0,0,3.8-.123c5.26-.483,10.5-1.221,15.686-2.217,2.214-.425,4.981-.633,6.7-2.255a5.694,5.694,0,0,0,1.547-3.5c.173-1.281.305-2.569.449-3.855q.886-7.89,1.683-15.788,1.582-15.681,2.813-31.4.15-1.934.3-3.868a1.847,1.847,0,0,0-1.842-1.832,1.882,1.882,0,0,0-1.843,1.832q-1.141,15.113-2.608,30.2-.74,7.6-1.561,15.193-.405,3.735-.829,7.467c-.056.494-.125,1.213-.181,1.562,0,.005-.076.4-.113.551-.031.128-.069.256-.11.382-.169.514.064-.071-.09.187-.024.04-.259.349-.125.2s-.127.1-.157.132c-.159.141,0-.006.029-.023-.1.061-.2.114-.3.176-.268.171-.13.073-.036.033-.106.046-.222.082-.331.118-.224.074-.452.135-.682.191a121.056,121.056,0,0,1-14.462,2.435q-1.846.218-3.7.389a16.839,16.839,0,0,1-3.379.23c.347.04.041.005-.014-.027.083.048.145.086.226.139.019.012.245.327.013.01.013.017.117.287.052.085-.006-.025-.013-.049-.019-.075.022.206.031.239.025.1,0,0,.041-.423,0-.159-.035.217.021-.055.03-.08.024-.074.223-.48.053-.182l.12-.212c.134-.241-.168.186.031-.059a5.662,5.662,0,0,1,.471-.5c.4-.385.826-.739,1.2-1.15,1.6-1.761,1.963-4.048,1.982-6.343.022-2.482-.052-4.969-.081-7.452q-.091-7.606-.183-15.213c-.058-4.87-.132-9.73-.338-14.6a88.106,88.106,0,0,1,.186-14.18c.114-.956.3-2.054.531-3.117a1.842,1.842,0,0,0-3.553-.975" fill="#24221e"/>
    <path id="패스_1454" data-name="패스 1454" d="M1905.387,501.04l7.6,47.621c.606,3.8,1.155,7.989-.615,11.3a4.286,4.286,0,0,0-.772,2.061c.05,1.839,2.386,2.088,3.987,1.724q8.674-1.971,17.3-4.237c7.651-2.01,5.6-16.485,5.328-23.152-.649-15.739.285-32.748-3.254-47.957" fill="#fff"/>
    <path id="패스_1455" data-name="패스 1455" d="M1903.611,501.527q3.011,18.879,6.022,37.761.748,4.689,1.495,9.38c.235,1.465.407,2.5.52,3.946.049.625.078,1.253.075,1.88q0,.516-.034,1.03c-.009.137-.02.272-.033.408,0,0-.074.606-.031.318a10.592,10.592,0,0,1-.475,1.94,3.191,3.191,0,0,1-.237.574c-.164.334-.359.651-.526.983a3.987,3.987,0,0,0,.083,4.361c1.691,2.2,4.686,1.614,7.008,1.079q4.573-1.05,9.125-2.184,2.278-.567,4.551-1.154a21.482,21.482,0,0,0,3.624-1.1c3.2-1.467,4.658-5.08,5.224-8.324a49.562,49.562,0,0,0,.323-11.452q-.4-6.663-.51-13.327c-.2-11.9-.128-23.887-2.246-35.642q-.369-2.055-.841-4.092a1.842,1.842,0,0,0-3.553.976c2.544,11,2.712,22.428,2.879,33.772.076,5.1.083,10.219.4,15.312a93.547,93.547,0,0,1,.314,10.36c-.023.451-.052.9-.092,1.348-.018.209-.038.419-.061.629-.017.156-.1.813-.036.336a20.83,20.83,0,0,1-.49,2.475c-.1.384-.22.763-.355,1.138-.062.171-.135.338-.2.51.178-.5-.04.075-.107.21a8.818,8.818,0,0,1-.538.946,2.116,2.116,0,0,1-.289.41c.4-.349-.019.01-.132.135s-.251.261-.384.383c-.071.066-.473.388-.228.2s-.184.121-.257.166c-.155.1-.317.181-.478.269-.445.241.31-.085-.177.081-.166.055-.329.11-.5.157-.714.2-1.436.376-2.154.562q-4.428,1.145-8.875,2.212-2.223.534-4.448,1.049c-.691.159-1.385.308-2.074.47-.12.028-.431.035.007.005-.1.007-.19.018-.285.023-.242.013-.48,0-.721-.007-.425-.01.22.1,0,0a2.917,2.917,0,0,0-.334-.079c-.085-.024-.169-.054-.252-.085.413.15.137.062.037-.012-.214-.16.322.31.034.023-.1-.1-.122-.221.059.089-.161-.275.023.052.025.1-.014-.379-.1.324-.026-.056.121-.642-.077.157.04-.206.1-.322-.191.314.089-.215.144-.27.3-.533.437-.8a11.915,11.915,0,0,0,.823-2.007,19.218,19.218,0,0,0,.3-8.058c-.394-3.026-.928-6.035-1.408-9.048q-2.916-18.279-5.831-36.558-.364-2.285-.728-4.57a1.857,1.857,0,0,0-2.266-1.28,1.878,1.878,0,0,0-1.287,2.255" fill="#24221e"/>
    <path id="패스_1456" data-name="패스 1456" d="M1936.313,482.3a143.293,143.293,0,0,0-6.405-44.023c-1.642-5.3-1.717-10.74-3.655-15.909a112.113,112.113,0,0,0-17.351,3.994c-3.635,1.2-7.466,1.032-11.206,1.7a33.119,33.119,0,0,0-11.732,4.336c-3.468,2.159-6.443,5.059-9.987,7.09-3.51,2.012-9.584,4.386-13.629,2.815a24.012,24.012,0,0,1-6.906-4.46,45.7,45.7,0,0,1-10.674,19.965,49.7,49.7,0,0,0,13.119,10.7,35.249,35.249,0,0,0,22.859,3.375q-.7,11.631-1.623,23.282c16.986,2.036,34.128,2.394,51.2,2.474,7.773.036,5.921-9.424,5.991-15.34" fill="#7868d6"/>
    <path id="패스_1457" data-name="패스 1457" d="M1938.188,482.3a147.161,147.161,0,0,0-1.821-24.538q-.945-5.969-2.389-11.845-.693-2.812-1.5-5.6c-.553-1.908-1.166-3.79-1.587-5.734-.919-4.249-1.315-8.615-2.829-12.718a1.947,1.947,0,0,0-2.308-1.309,120.442,120.442,0,0,0-15.651,3.454c-1.275.39-2.526.834-3.834,1.1a32.425,32.425,0,0,1-3.623.491,54.543,54.543,0,0,0-7.933,1.174,35.435,35.435,0,0,0-7.383,2.705,39.335,39.335,0,0,0-6.307,4.137,53.437,53.437,0,0,1-6.129,4.324c-.847.48-1.722.9-2.609,1.3-.339.154-.14.063-.063.03-.117.049-.233.1-.349.143q-.352.143-.71.275c-.542.2-1.092.387-1.646.551-.586.173-1.179.323-1.778.445-.157.031-.313.061-.47.088-.041.007-.517.085-.31.054s-.17.02-.215.025c-.154.016-.307.031-.462.042a11.418,11.418,0,0,1-1.793,0c-.116-.01-.232-.021-.347-.036.276.036.058,0-.093-.027a7.347,7.347,0,0,1-.734-.182,7.723,7.723,0,0,1-1.5-.64c-.61-.31-1.2-.653-1.78-1.019a23.8,23.8,0,0,1-3.265-2.48,1.9,1.9,0,0,0-3.134.827,44.058,44.058,0,0,1-10.192,19.138,1.92,1.92,0,0,0,0,2.651,53.307,53.307,0,0,0,12.46,10.421,36.854,36.854,0,0,0,15.944,4.74,38.033,38.033,0,0,0,9.4-.6l-2.374-1.808q-.7,11.649-1.623,23.282c-.088,1.094.938,1.763,1.875,1.875,11.513,1.374,23.1,1.989,34.688,2.263q4.315.1,8.628.149c2.77.032,5.58.183,8.347.053a7.39,7.39,0,0,0,4.972-1.992,8.48,8.48,0,0,0,2.15-4.253c.773-3.612.245-7.309.28-10.961a1.875,1.875,0,0,0-3.75,0c-.03,3.068.321,6.131-.006,9.194-.037.34.008-.062.016-.109-.014.085-.026.17-.039.255-.031.189-.065.376-.1.563a10.344,10.344,0,0,1-.262,1.01c-.047.15-.107.3-.155.448-.121.378.156-.3.033-.073-.036.067-.063.139-.1.208a9.2,9.2,0,0,1-.483.818c-.172.277.093-.11.094-.117a.846.846,0,0,1-.142.167c-.113.12-.225.239-.347.349-.054.05-.116.093-.167.144-.161.166.324-.193.115-.091-.149.073-.285.19-.432.27-.187.1-.459.2-.083.062-.175.063-.347.129-.526.18s-.338.083-.508.121c-.067.015-.36.072-.089.022.294-.055-.112.01-.175.015-1.227.1-2.485.021-3.715.012q-2.1-.015-4.189-.037-4.191-.045-8.38-.134c-5.59-.124-11.177-.322-16.758-.644-6.32-.364-12.63-.891-18.917-1.642L1881,495.17q.933-11.633,1.623-23.282a1.9,1.9,0,0,0-2.373-1.808,34.185,34.185,0,0,1-7.531.514,33.234,33.234,0,0,1-3.515-.325,33.563,33.563,0,0,1-16.82-7.714,64.46,64.46,0,0,1-6.288-6.069v2.651a47.988,47.988,0,0,0,11.157-20.792l-3.134.828a26.109,26.109,0,0,0,6.549,4.443,11.576,11.576,0,0,0,3.563,1.013,13.6,13.6,0,0,0,3.478-.139,28.546,28.546,0,0,0,12.55-5.6c2.092-1.545,4.087-3.225,6.278-4.635a27.989,27.989,0,0,1,6.628-3.134,36.111,36.111,0,0,1,7.408-1.568,46.892,46.892,0,0,0,8.16-1.176c2.974-.847,5.894-1.787,8.914-2.469s6.058-1.228,9.107-1.731l-2.307-1.31c1.34,3.623,1.81,7.456,2.53,11.229.738,3.873,2.054,7.6,3.033,11.414a140.281,140.281,0,0,1,3.944,23.262q.563,6.748.486,13.529a1.875,1.875,0,0,0,3.75,0" fill="#24221e"/>
    <path id="패스_1458" data-name="패스 1458" d="M1917.809,454.393c-5.343,3.59-12.109,7.7-17.239,10.613a31.178,31.178,0,0,1-9.785,3.949l17.388,30.118a4.159,4.159,0,0,0,5.681,1.522l22.972-13.263Z" fill="#ff79ac"/>
    <path id="패스_1459" data-name="패스 1459" d="M1911.785,503.026a6.039,6.039,0,0,1-5.236-3.016l-17.388-30.117a1.875,1.875,0,0,1,1.3-2.785,29.548,29.548,0,0,0,9.179-3.732c4.484-2.547,11.335-6.653,17.12-10.539a1.876,1.876,0,0,1,2.67.619l19.017,32.939a1.875,1.875,0,0,1-.687,2.561l-22.972,13.263a6,6,0,0,1-3.007.807m-18.121-32.834,16.133,27.943a2.285,2.285,0,0,0,3.12.836l21.348-12.325-17.081-29.586c-5.477,3.6-11.57,7.237-15.688,9.576a38.648,38.648,0,0,1-7.832,3.556" fill="#24221e"/>
    <path id="패스_1460" data-name="패스 1460" d="M1917.809,454.393l-4.042-7L1890.8,460.657a4.159,4.159,0,0,0-1.523,5.681l1.512,2.617a31.178,31.178,0,0,0,9.785-3.949c5.13-2.914,11.9-7.023,17.239-10.613" fill="#fff"/>
    <path id="패스_1461" data-name="패스 1461" d="M1890.784,470.83a1.873,1.873,0,0,1-1.623-.938l-1.512-2.617a6.041,6.041,0,0,1,2.209-8.242l22.972-13.263a1.874,1.874,0,0,1,2.561.686l4.041,7a1.875,1.875,0,0,1-.578,2.494c-5.87,3.945-12.816,8.107-17.359,10.687A32.917,32.917,0,0,1,1891.1,470.8a1.929,1.929,0,0,1-.32.027m22.3-20.875-21.348,12.325a2.282,2.282,0,0,0-.836,3.12l.83,1.438a32.755,32.755,0,0,0,7.916-3.463c4.112-2.335,10.216-5.982,15.662-9.568Z" fill="#24221e"/>
    <path id="패스_1462" data-name="패스 1462" d="M1888.233,434.356c-.616,3.41-1.1,7.223.858,10.081,2.08,3.036,6.638,3.847,9.847,2.047a9.464,9.464,0,0,0,4.4-9.415c1.225,3.757,2.854,7.961,6.532,9.406,3.771,1.481,8.2-.835,10.356-4.268s2.528-7.664,2.6-11.715" fill="#fff"/>
    <path id="패스_1463" data-name="패스 1463" d="M1886.425,433.857a21.778,21.778,0,0,0-.323,8.208,8.886,8.886,0,0,0,4.22,5.97,10.051,10.051,0,0,0,7.09,1.019,9.883,9.883,0,0,0,5.908-4.176,11.5,11.5,0,0,0,1.892-7.81l-3.683.5c1.5,4.574,3.821,10.176,9.195,11.085a10.279,10.279,0,0,0,7.446-1.727,13.7,13.7,0,0,0,5.076-6.681,29.146,29.146,0,0,0,1.458-9.752,1.892,1.892,0,0,0-1.875-1.875,1.911,1.911,0,0,0-1.875,1.875,28.237,28.237,0,0,1-.836,7.248,16.746,16.746,0,0,1-.564,1.7c-.078.2-.133.315-.279.613s-.289.566-.449.84c-.147.252-.3.5-.467.738-.043.062-.27.376-.081.128-.073.1-.151.188-.228.28a10.671,10.671,0,0,1-1.147,1.162c-.091.08-.185.157-.278.234.221-.181-.013.012-.052.04-.221.159-.444.312-.676.455s-.465.276-.7.4c-.106.055-.215.105-.322.158-.351.173.193-.051-.208.089a10.394,10.394,0,0,1-1.352.391c-.114.023-.228.043-.343.061.367-.057-.011-.005-.1,0a7.133,7.133,0,0,1-.865.013c-.115-.005-.23-.014-.344-.023-.324-.028.426.105-.1-.018-.228-.053-.456-.1-.68-.166-.113-.033-.687-.261-.374-.119a7.108,7.108,0,0,1-.753-.4c-.1-.058-.191-.118-.284-.181.016.011-.428-.31-.218-.148.175.134-.1-.085-.135-.117-.085-.073-.168-.147-.25-.224q-.277-.26-.531-.54c-.076-.084-.15-.169-.223-.256-.019-.022-.347-.456-.129-.156a16.921,16.921,0,0,1-1.718-3.066c-.022-.049-.139-.331-.022-.049-.058-.138-.113-.277-.168-.417q-.165-.418-.318-.84c-.212-.583-.409-1.171-.6-1.761a1.889,1.889,0,0,0-2.058-1.343,1.845,1.845,0,0,0-1.625,1.841,10.266,10.266,0,0,1,.086,1.422c0,.239-.016.476-.036.714-.01.118-.022.237-.038.355.037-.276-.005-.013-.029.119a9.975,9.975,0,0,1-.334,1.3c-.021.063-.263.7-.128.384-.1.246-.223.485-.348.72-.112.209-.231.412-.357.612-.064.1-.129.2-.2.295-.025.037-.24.333-.114.166s-.1.12-.128.154c-.077.09-.154.178-.234.264q-.268.293-.562.558c-.087.079-.177.154-.266.23.059-.051.263-.182-.04.03-.193.136-.388.267-.592.388q-.257.152-.525.281c-.047.023-.368.161-.157.075s-.2.069-.244.083a8.033,8.033,0,0,1-1.3.314c.4-.064-.233.012-.334.017-.251.012-.5.012-.754,0-.195-.008-.389-.026-.584-.045.394.038-.2-.044-.325-.071-.216-.048-.431-.1-.644-.17-.1-.032-.211-.067-.315-.1-.042-.015-.456-.186-.237-.089s-.1-.053-.152-.078c-.1-.05-.195-.1-.291-.153-.193-.107-.377-.224-.56-.345-.043-.029-.319-.235-.141-.1.163.127-.049-.044-.066-.06-.2-.188-.4-.369-.589-.574-.074-.081-.146-.165-.215-.251.054.067.173.274,0-.021-.12-.2-.251-.387-.363-.59-.063-.114-.12-.23-.179-.347-.145-.288.076.21-.044-.087a7.35,7.35,0,0,1-.272-.829c-.077-.283-.135-.57-.188-.857-.061-.322.023.241-.017-.086-.02-.164-.035-.328-.047-.493a14.958,14.958,0,0,1-.013-1.809,23.827,23.827,0,0,1,.453-3.538,1.919,1.919,0,0,0-1.31-2.307,1.9,1.9,0,0,0-2.306,1.31" fill="#24221e"/>
    <path id="패스_1464" data-name="패스 1464" d="M1919.707,470.529c-4.122.845-8.914-.065-11.441,4.009a3.222,3.222,0,0,0-.611,2.429c.218.832,1.294,1.439,1.977.918a2.562,2.562,0,0,0,2.441,4.4c-1.005.555-.823,2.207.093,2.9a4.209,4.209,0,0,0,3.314.448c-.422,1.234,1.069,2.233,2.324,2.588a22.453,22.453,0,0,0,9.446.523,24.827,24.827,0,0,0-2.55-8.813,88.088,88.088,0,0,0-4.993-9.4" fill="#ffe3d4"/>
    <path id="패스_1465" data-name="패스 1465" d="M1919.208,468.72c-.218.043-.437.085-.656.121l-.331.05q.332-.042,0,0-.588.07-1.178.125c-.838.08-1.678.146-2.514.252a12.6,12.6,0,0,0-5.07,1.505,7.809,7.809,0,0,0-3.65,4.858,3.587,3.587,0,0,0,1.4,3.711,3.031,3.031,0,0,0,3.374.163q-1.135-1.475-2.272-2.945a4.433,4.433,0,0,0,4.265,7.529q-.723-1.711-1.445-3.427a3.622,3.622,0,0,0-.931,5.107c1.3,1.927,3.709,2.033,5.783,1.669q-1.154-1.153-2.307-2.307a3.489,3.489,0,0,0,1.27,3.663,8.6,8.6,0,0,0,3.834,1.589,25.834,25.834,0,0,0,8.973.166,1.873,1.873,0,0,0,1.377-1.807,28.08,28.08,0,0,0-2.955-10.083,89.2,89.2,0,0,0-4.844-9.076,1.875,1.875,0,1,0-3.239,1.891,89.275,89.275,0,0,1,4.646,8.648,24.67,24.67,0,0,1,2.642,8.62q.687-.906,1.376-1.809a22,22,0,0,1-6.065,0q-.8-.128-1.6-.317c-.264-.063-.529-.127-.789-.206-.067-.02-.568-.208-.413-.137s-.333-.2-.393-.228q-.272-.187-.034-.007a1.9,1.9,0,0,1-.181-.167q-.14-.148.036.081a1.76,1.76,0,0,1-.153-.258c.224.075.009.841.123.435a1.9,1.9,0,0,0-2.306-2.307c-.228.036-.253.044-.076.021-.129.016-.259.028-.388.036a4.545,4.545,0,0,1-.774-.008c.321.037-.344-.1-.421-.136q.246.09-.054-.062c.128.112.149.125.062.042s-.074-.063.06.1a1.938,1.938,0,0,1-.147-.25q.133.339.034.039c-.045-.211-.046-.188,0,.073a1.891,1.891,0,0,1,0-.282c-.041.269-.035.3.016.1a.662.662,0,0,1-.217.368c.146-.141.127-.129-.057.038a1.884,1.884,0,0,0-1.445-3.427,2.429,2.429,0,0,1-.324.079q.333-.051,0-.034c-.223-.016-.222-.014,0,0a2.761,2.761,0,0,1-.322-.093c.448.163-.384-.324-.035-.022a2.615,2.615,0,0,1-.237-.234c.121.161.122.151.005-.031.066.2.064.193-.006-.013q-.07-.327-.029.007c-.016-.132.083-.718-.017-.333a2.647,2.647,0,0,1,.091-.323q-.129.282.018-.009c.119-.18.118-.188,0-.025a2.2,2.2,0,0,1,.24-.234c1.566-1.422-.479-4.1-2.272-2.945-.209.117-.161.119.145.008a.537.537,0,0,1,.484-.028c-.329-.04.177.163-.1-.048.125.1.27.4.165.105l.078.166q.009.173.006-.024c0-.132,0-.14-.006-.025a2.542,2.542,0,0,1,.089-.31.821.821,0,0,1,.116-.25c.1-.18.2-.36.318-.534.01-.015.352-.472.134-.2a6.249,6.249,0,0,1,.7-.734c.034-.031.382-.3.189-.163-.176.132.225-.142.271-.172a8.539,8.539,0,0,1,.765-.412c.446-.221-.339.1.136-.052.151-.049.3-.106.452-.153a12.7,12.7,0,0,1,1.736-.391c.135-.022.495-.068.156-.027l.5-.059c.335-.037.67-.068,1.006-.1a39.839,39.839,0,0,0,4.175-.523,1.893,1.893,0,0,0,1.31-2.3,1.915,1.915,0,0,0-2.307-1.311" fill="#24221e"/>
    <path id="패스_1466" data-name="패스 1466" d="M1927.992,445.537c1.125,4.66,1.593,11.5-.2,15.941-1.4,3.471-3.955,7.108-7.758,7.986-.107.025-.218.043-.327.065a88.177,88.177,0,0,1,4.992,9.4,24.852,24.852,0,0,1,2.551,8.813,25.364,25.364,0,0,0,17.625-11.332c4.444-7.248,5.181-16.48,2.653-24.6s-8.87-16.128-16.948-19.723l-4.308,2.249Z" fill="#7868d6"/>
    <path id="패스_1467" data-name="패스 1467" d="M1926.682,447.843a23.674,23.674,0,0,1,.682,6.538,19.034,19.034,0,0,1-1.339,6.5c-.035.089-.071.177-.107.265q.113-.264-.021.042c-.1.218-.2.436-.3.651q-.32.656-.689,1.285c-.248.422-.514.834-.8,1.232-.071.1-.143.2-.217.3.107-.138.092-.12-.046.052s-.273.327-.415.485a7.054,7.054,0,0,1-4.22,2.536,1.889,1.889,0,0,0-1.12,2.754,89.364,89.364,0,0,1,4.645,8.648,24.637,24.637,0,0,1,2.642,8.618,1.912,1.912,0,0,0,2.373,1.809,28.021,28.021,0,0,0,13.189-5.9,26.239,26.239,0,0,0,8.277-12.157c3.309-9.742,1.429-20.736-4.184-29.244a44.646,44.646,0,0,0-11.64-11.776,1.89,1.89,0,0,0-2.564.672,1.915,1.915,0,0,0,.672,2.566c1.016.717,1.638,1.189,2.524,1.922s1.741,1.5,2.565,2.3q1.2,1.16,2.3,2.412c.787.895,1.369,1.621,1.964,2.44a31.706,31.706,0,0,1,5.563,12.14c1.921,8.718-.134,18.775-6.826,24.958a18.755,18.755,0,0,1-2.617,2.074,26.222,26.222,0,0,1-3.249,1.867,21.614,21.614,0,0,1-3.224,1.258,26.239,26.239,0,0,1-3.745.859l2.374,1.807a28.081,28.081,0,0,0-2.955-10.082,89.088,89.088,0,0,0-4.844-9.076q-.56,1.377-1.121,2.754c3.523-.684,6.238-3.4,7.984-6.4a22.571,22.571,0,0,0,2.937-11.106,29.077,29.077,0,0,0-.828-6.982,1.875,1.875,0,0,0-3.616,1" fill="#24221e"/>
    <g id="그룹_598" data-name="그룹 598">
      <path id="패스_1468" data-name="패스 1468" d="M1922.384,373.02c-3.443.363-6.953.724-10.344.026s-6.71-2.636-8.2-5.763c-4.448,5.379-10.907,8.649-17.32,11.4-4.505,1.935-9.18,3.713-14.074,4.012a19.034,19.034,0,0,1-9.62-1.847,43.768,43.768,0,0,1,83.314.991c-8.712,1.538-18.355-1.727-23.758-8.823" fill="#7f5f42"/>
      <path id="패스_1469" data-name="패스 1469" d="M1871.2,384.611a20.709,20.709,0,0,1-9.221-2.085,1.874,1.874,0,0,1-.934-2.271,45.643,45.643,0,0,1,86.883,1.034,1.877,1.877,0,0,1-1.466,2.4c-9.287,1.638-19.149-1.842-24.907-8.7a32.7,32.7,0,0,1-9.9-.109,14.244,14.244,0,0,1-8.055-4.548c-4.567,4.618-10.519,7.573-16.345,10.075-4.284,1.841-9.306,3.832-14.7,4.161q-.68.04-1.357.041m32.637-19.2a1.989,1.989,0,0,1,.231.014,1.874,1.874,0,0,1,1.462,1.056c1.095,2.3,3.667,4.07,6.882,4.731,3.139.645,6.511.29,9.77-.054a1.868,1.868,0,0,1,1.688.729c4.392,5.768,12.117,8.984,19.758,8.39a41.895,41.895,0,0,0-78.449-.443,17.793,17.793,0,0,0,7.15,1c4.791-.293,9.453-2.148,13.447-3.863,6.139-2.637,12.4-5.78,16.616-10.876a1.878,1.878,0,0,1,1.445-.68" fill="#24221e"/>
      <path id="패스_1470" data-name="패스 1470" d="M1857.975,382.1a10.724,10.724,0,0,1,4.2.851c.2-.708.42-1.4.652-2.1a19.034,19.034,0,0,0,9.62,1.847c4.894-.3,9.569-2.077,14.073-4.012,6.414-2.755,12.872-6.025,17.321-11.4,1.487,3.127,4.8,5.065,8.2,5.762s6.9.338,10.345-.026c5.4,7.1,15.046,10.361,23.758,8.824.118.384.24.768.348,1.157a10.77,10.77,0,1,1,.826,20.042,43.777,43.777,0,0,1-85.973.042,10.764,10.764,0,1,1-3.368-20.986" fill="#ffe3d4"/>
      <path id="패스_1471" data-name="패스 1471" d="M1904.326,440.434a45.7,45.7,0,0,1-44.414-35.08,12.639,12.639,0,1,1,1.032-24.779c.035-.106.07-.212.106-.318a1.873,1.873,0,0,1,2.621-1.079,17.206,17.206,0,0,0,8.663,1.65c4.791-.293,9.454-2.148,13.447-3.863,6.139-2.637,12.4-5.78,16.617-10.876a1.875,1.875,0,0,1,3.138.39c1.094,2.3,3.667,4.07,6.882,4.731,3.138.645,6.509.29,9.769-.054a1.879,1.879,0,0,1,1.689.729c4.811,6.319,13.627,9.579,21.94,8.112a1.888,1.888,0,0,1,1.764.644,12.643,12.643,0,1,1,1.164,24.693,45.684,45.684,0,0,1-44.418,35.1m42.99-39.266a1.858,1.858,0,0,1,.607.1,8.887,8.887,0,1,0-.681-16.55,1.874,1.874,0,0,1-2.384-.8c-8.8,1-17.871-2.469-23.3-8.931a32.693,32.693,0,0,1-9.9-.109,14.249,14.249,0,0,1-8.056-4.548c-4.566,4.618-10.519,7.573-16.344,10.075-4.284,1.841-9.307,3.832-14.7,4.161A21.675,21.675,0,0,1,1864,383.39c-.006.022-.013.044-.018.066a1.876,1.876,0,0,1-2.539,1.22,8.894,8.894,0,1,0-.687,16.629,1.874,1.874,0,0,1,2.428,1.426,41.9,41.9,0,0,0,82.29-.04,1.875,1.875,0,0,1,1.842-1.523" fill="#24221e"/>
      <path id="패스_1472" data-name="패스 1472" d="M1908.536,388.2a2.871,2.871,0,1,0,2.871-2.871,2.871,2.871,0,0,0-2.871,2.871" fill="#24221e"/>
      <path id="패스_1473" data-name="패스 1473" d="M1881.263,388.2a2.871,2.871,0,1,0,2.871-2.871,2.871,2.871,0,0,0-2.871,2.871" fill="#24221e"/>
      <path id="패스_1474" data-name="패스 1474" d="M1897.2,391.553a3.913,3.913,0,0,0-.837-.5l.448.189a2.377,2.377,0,0,0-.529-.148l.5.067a1.886,1.886,0,0,0-.469,0l.5-.067a1.957,1.957,0,0,0-.457.125l.448-.189a2.586,2.586,0,0,0-.528.315l.38-.293a3.433,3.433,0,0,0-.281.244,1.956,1.956,0,0,1-1.326.549,1.907,1.907,0,0,1-1.326-.549,1.886,1.886,0,0,1-.549-1.326,1.92,1.92,0,0,1,.549-1.326,4.15,4.15,0,0,1,2.781-1.248,4.41,4.41,0,0,1,.865.1,2.269,2.269,0,0,1,.419.125,5.234,5.234,0,0,1,1.308.7,2.1,2.1,0,0,1,.861,1.121,1.914,1.914,0,0,1-.189,1.445,1.892,1.892,0,0,1-1.12.861l-.5.067a1.86,1.86,0,0,1-.946-.256" fill="#24221e"/>
      <path id="패스_1475" data-name="패스 1475" d="M1917.921,400.52c0,5.021,3.643,9.091,8.138,9.091s8.137-4.07,8.137-9.091-3.643-9.091-8.137-9.091-8.138,4.07-8.138,9.091" fill="#ffb18f"/>
      <path id="패스_1476" data-name="패스 1476" d="M1866.526,400.52c0,5.021,3.645,9.091,8.138,9.091s8.138-4.07,8.138-9.091-3.643-9.091-8.138-9.091-8.138,4.07-8.138,9.091" fill="#ffb18f"/>
      <path id="패스_1477" data-name="패스 1477" d="M1905.854,396.626a19.073,19.073,0,0,1-15.863.719,1.937,1.937,0,0,1-1.309-2.306,1.885,1.885,0,0,1,2.306-1.309,16.933,16.933,0,0,0,3.4,1.032,9.755,9.755,0,0,0,1.477.19,17.371,17.371,0,0,0,1.782.037,15.28,15.28,0,0,0,6.309-1.6,1.919,1.919,0,0,1,2.565.673,1.892,1.892,0,0,1-.672,2.565" fill="#24221e"/>
    </g>
    <path id="패스_1478" data-name="패스 1478" d="M1860.151,461.688l.849-.241a4.561,4.561,0,0,0,3.139-5.635l-11.71-41.17a4.561,4.561,0,0,0-5.635-3.139l-.849.241a4.56,4.56,0,0,0-3.138,5.635l11.71,41.17a4.56,4.56,0,0,0,5.634,3.139" fill="#ffcb48"/>
    <path id="패스_1479" data-name="패스 1479" d="M1858.894,463.74a6.446,6.446,0,0,1-6.181-4.679L1841,417.891a6.434,6.434,0,0,1,4.429-7.951l.848-.241a6.438,6.438,0,0,1,7.952,4.429l11.709,41.171a6.436,6.436,0,0,1-4.43,7.951l-.848.241a6.47,6.47,0,0,1-1.77.249M1848.046,413.2a2.675,2.675,0,0,0-.739.1l-.848.241a2.685,2.685,0,0,0-1.849,3.318l11.71,41.171a2.686,2.686,0,0,0,3.318,1.848h0l.848-.242a2.684,2.684,0,0,0,1.848-3.317l-11.71-41.171a2.69,2.69,0,0,0-2.579-1.952" fill="#24221e"/>
    <path id="패스_1480" data-name="패스 1480" d="M1855.421,458.048a3.426,3.426,0,0,1-.055,1.338,3.049,3.049,0,0,1-2.034,1.844c-7.607,2.647-12.319-10.783-12.916-16.13-.623-5.589,2.087-10.817,8.178-10.761a6.862,6.862,0,0,1,3.8.98,3.522,3.522,0,0,1,1.629,3.39,2.4,2.4,0,0,1-2.938,1.9,3.374,3.374,0,0,1,3.651,1.848c.507,1.385-.825,3.209-2.238,2.787a3.274,3.274,0,0,1,2.9,2.363,2.135,2.135,0,0,1-2.241,2.534,6.777,6.777,0,0,1,2.813,1.4,2.322,2.322,0,0,1,.5,2.87c-.258.365-.653.617-.9.99-.5.759-.249,1.711-.145,2.648" fill="#ffe3d4"/>
    <path id="패스_1481" data-name="패스 1481" d="M1857.3,458.048a4.468,4.468,0,0,1-2.049,4.321,7.173,7.173,0,0,1-3.293,1.048,7.643,7.643,0,0,1-4.955-1.381c-3.2-2.205-5.1-5.833-6.494-9.356-1.252-3.167-2.292-6.777-2.006-10.215a11.845,11.845,0,0,1,2.123-6.161,9.224,9.224,0,0,1,5.667-3.622c3.179-.592,7.193-.065,8.948,3.008a4.691,4.691,0,0,1-.029,4.943,4.209,4.209,0,0,1-4.623,1.786,1.884,1.884,0,0,1-1.343-2.057,1.9,1.9,0,0,1,1.842-1.626c2.272-.257,5.073,1.11,5.54,3.527.522,2.7-1.789,5.482-4.625,4.791a1.9,1.9,0,0,1-1.31-2.307,1.924,1.924,0,0,1,2.306-1.309,4.941,4.941,0,0,1,4.307,4.416,4.248,4.248,0,0,1-1.223,3.06,3.788,3.788,0,0,1-3.421,1.037q.5-1.807,1-3.616c2.129.672,4.427,1.745,4.9,4.181a3.861,3.861,0,0,1-1.008,3.511c-.045.047-.532.521-.36.319-.151.179-.034.224-.039,0a13.717,13.717,0,0,0,.151,1.7,1.876,1.876,0,0,1-1.875,1.875,1.932,1.932,0,0,1-1.875-1.875q.034.207-.018-.15l-.067-.5c-.027-.212-.056-.425-.066-.639a4.344,4.344,0,0,1,.181-1.5,3.926,3.926,0,0,1,.906-1.487c.13-.14.276-.266.41-.4q.237-.25.048-.059c-.059.163-.07.18-.033.053s.031-.11-.006.077q-.014-.3.01-.1c.121.3-.176-.472-.06-.205s-.288-.411-.122-.2-.372-.332-.195-.188a5.334,5.334,0,0,0-1.876-.806,1.875,1.875,0,1,1,1-3.616,1.234,1.234,0,0,0-.359,0c.485-.048-.207.039.064-.015.2-.038-.142.14.008,0,.025-.024.264-.264.123-.122s.113-.25-.012.057c.042-.1.061-.213.095-.319-.058.178.018.191-.017,0,.053.279.011.082-.034-.081-.072-.259.128.206-.013-.02-.019-.029-.208-.31-.092-.161.127.164-.2-.191-.2-.189-.1-.1-.189-.121-.032-.025-.1-.061-.2-.12-.3-.179-.119-.071-.219-.091-.035-.026a4.3,4.3,0,0,0-.851-.2l1-3.616c.347.084-.152.014-.257.027.219-.026.08-.059-.037.036.32-.257-.13.295.1-.065.19-.293-.08.14.046-.046.1-.148.136-.294.053-.047.005-.015.111-.472.074-.209s-.009-.159-.016-.218c.053.446-.175-.145.022.194-.026-.045-.273-.387-.12-.206s-.145-.124-.18-.156c.332.305-.553-.265-.142-.095a3.258,3.258,0,0,0-.474-.15c-.052-.013-.492-.071-.242-.054s-.254,0-.249,0a4.288,4.288,0,0,0-.493.034l.5-3.683c.448.137-.03,0-.023.033s.289,0-.021.041a2.216,2.216,0,0,0,.311-.079c-.324.1-.081.016,0-.013.258-.1.122-.082.023,0a2.9,2.9,0,0,0,.237-.234c-.225.243-.04.025,0-.022q.131-.256.05-.074t.019-.087c0-.053.017-.332.01-.036a2.552,2.552,0,0,0-.01-.372c.05.409-.182-.45-.046-.13a1.988,1.988,0,0,0-.723-.929,4.831,4.831,0,0,0-2.605-.689,10.478,10.478,0,0,0-1.439.062c.4-.045-.22.046-.319.068q-.35.076-.692.183a4.354,4.354,0,0,1-.427.143c.2-.081-.318.156-.387.192q-.261.139-.508.3c-.111.071-.589.451-.267.175a8.446,8.446,0,0,0-.831.795c-.09.1-.394.515-.16.181-.14.2-.278.4-.4.6a9.192,9.192,0,0,0-.54,1.048c.167-.381-.043.135-.083.252-.076.217-.142.436-.2.657-.111.4-.17.813-.26,1.22-.061.277.022-.312,0-.026-.007.106-.023.212-.033.318q-.031.363-.044.727-.021.66.022,1.319c.014.223.034.447.058.669.007.058.015.117.021.175.036.357-.079-.5-.017-.132.1.573.2,1.144.324,1.711a32.782,32.782,0,0,0,1.206,4.051c.128.349.262.694.4,1.038.035.087.07.173.106.26.1.248-.136-.3-.024-.06.089.193.17.388.258.581.331.725.691,1.439,1.087,2.132a21.822,21.822,0,0,0,1.226,1.9c.273.381-.183-.213.11.147.109.135.219.269.333.4.235.273.481.537.739.787.147.143.3.283.454.417.061.052.126.1.185.156.248.228-.237-.155-.049-.035.3.19.572.4.881.57.15.083.305.153.457.231.292.151-.128-.047-.137-.056a1.29,1.29,0,0,0,.316.114c.158.052.319.1.482.136.072.017.146.03.218.046.325.076-.012.048-.112-.006a2.607,2.607,0,0,0,1.082.018c.075-.005.342-.035.043,0-.322.037.035-.008.106-.025.2-.047.4-.091.6-.152.082-.025.163-.053.245-.08.309-.1-.039.036.13-.061.1-.06.21-.119.314-.181.173-.106-.152.1.115-.091.213-.15.133-.134.05-.02.078-.107.173-.452.115-.182a2.612,2.612,0,0,0-.012-.839,1.884,1.884,0,0,1,1.875-1.875,1.926,1.926,0,0,1,1.875,1.875" fill="#24221e"/>
    <path id="패스_1482" data-name="패스 1482" d="M1842.951,395.736l-.838,20.142,10.287-2.334Z" fill="#fff" stroke="#24221e" stroke-linecap="round" stroke-linejoin="round" stroke-width="3"/>
    <path id="패스_1483" data-name="패스 1483" d="M1842.951,395.736l-.354,8.609,4.388-1Z" fill="#24221e"/>
  </g>
</svg>
