<svg xmlns="http://www.w3.org/2000/svg" width="65" height="65" viewBox="0 0 65 65">
  <g id="그룹_1287" data-name="그룹 1287" transform="translate(-398 -3499.502)">
    <rect id="bg_" width="65" height="65" rx="10" transform="translate(398 3499.502)" fill="#f0eefa"/>
    <g id="phone-call" transform="translate(412.461 3514.502)">
      <g id="그룹_1227" data-name="그룹 1227" transform="translate(0.539 0)">
        <path id="패스_2548" data-name="패스 2548" d="M34.621,25.686,29.727,20.8a3.258,3.258,0,0,0-5.419,1.221,3.332,3.332,0,0,1-3.846,2.093c-3.5-.872-8.216-5.408-9.09-9.071a3.16,3.16,0,0,1,2.1-3.838A3.246,3.246,0,0,0,14.693,5.8L9.8.916a3.5,3.5,0,0,0-4.72,0L1.757,4.23c-3.321,3.489.35,12.734,8.566,20.933S27.8,37.2,31.3,33.711L34.621,30.4A3.478,3.478,0,0,0,34.621,25.686Z" transform="translate(-0.539 0)" fill="#6f57cf"/>
      </g>
    </g>
  </g>
</svg>
