<svg xmlns="http://www.w3.org/2000/svg" xmlns:xlink="http://www.w3.org/1999/xlink" width="25" height="25" viewBox="0 0 25 25">
  <defs>
    <clipPath id="clip-path">
      <rect id="사각형_947" data-name="사각형 947" width="25" height="25" transform="translate(1785 497)" fill="#6f57cf"/>
    </clipPath>
  </defs>
  <g id="ico_good" transform="translate(-1785 -497)" clip-path="url(#clip-path)">
    <g id="like_4_" data-name="like (4)" transform="translate(1785 497)">
      <g id="그룹_825" data-name="그룹 825">
        <g id="그룹_824" data-name="그룹 824">
          <path id="패스_2246" data-name="패스 2246" d="M22.925,15.479a2.2,2.2,0,0,0-1.636-3.662H17.024a14.2,14.2,0,0,0,.6-3.711V7.373a2.933,2.933,0,0,0-2.93-2.93h-.732a.732.732,0,0,0-.71.555l-.4,1.6c-.559,2.235-2.334,4.7-4.171,5.15a2.2,2.2,0,0,0-2.044-1.393H2.246a.733.733,0,0,0-.732.732V24.268A.733.733,0,0,0,2.246,25H6.641a2.2,2.2,0,0,0,1.983-1.252l2.517.839A8.039,8.039,0,0,0,13.688,25h6.136a2.2,2.2,0,0,0,2.043-3.007,2.2,2.2,0,0,0,1.058-3.585,2.193,2.193,0,0,0,0-2.93ZM7.373,22.8a.733.733,0,0,1-.732.732H2.979V11.816H6.641a.733.733,0,0,1,.732.732Zm12.451-6.592h1.465a.732.732,0,0,1,0,1.465H19.824a.732.732,0,0,0,0,1.465h1.465a.732.732,0,0,1,0,1.465H19.824a.732.732,0,0,0,0,1.465.732.732,0,0,1,0,1.465H13.688A6.578,6.578,0,0,1,11.6,23.2l-2.766-.922V13.212a5.9,5.9,0,0,0,3.289-2.137,10.687,10.687,0,0,0,2.15-4.125l.26-1.042H14.7a1.467,1.467,0,0,1,1.465,1.465V8.1a11.59,11.59,0,0,1-.7,3.711h-1.5a.732.732,0,0,0,0,1.465h7.324a.732.732,0,0,1,0,1.465H19.824a.732.732,0,0,0,0,1.465Z" fill="#6f57cf"/>
        </g>
      </g>
      <g id="그룹_827" data-name="그룹 827">
        <g id="그룹_826" data-name="그룹 826">
          <circle id="타원_435" data-name="타원 435" cx="0.732" cy="0.732" r="0.732" transform="translate(4.443 20.605)" fill="#6f57cf"/>
        </g>
      </g>
      <g id="그룹_829" data-name="그룹 829">
        <g id="그룹_828" data-name="그룹 828">
          <path id="패스_2247" data-name="패스 2247" d="M15.43,0A.732.732,0,0,0,14.7.732V2.246a.732.732,0,0,0,1.465,0V.732A.732.732,0,0,0,15.43,0Z" fill="#6f57cf"/>
        </g>
      </g>
      <g id="그룹_831" data-name="그룹 831">
        <g id="그룹_830" data-name="그룹 830">
          <path id="패스_2248" data-name="패스 2248" d="M12.322,3.23,11.286,2.194A.732.732,0,0,0,10.251,3.23l1.036,1.036A.732.732,0,1,0,12.322,3.23Z" fill="#6f57cf"/>
        </g>
      </g>
      <g id="그룹_833" data-name="그룹 833">
        <g id="그룹_832" data-name="그룹 832">
          <path id="패스_2249" data-name="패스 2249" d="M20.609,2.194a.732.732,0,0,0-1.036,0L18.537,3.23a.732.732,0,0,0,1.036,1.036L20.609,3.23A.732.732,0,0,0,20.609,2.194Z" fill="#6f57cf"/>
        </g>
      </g>
    </g>
  </g>
</svg>
