<svg xmlns="http://www.w3.org/2000/svg" xmlns:xlink="http://www.w3.org/1999/xlink" width="169.001" height="160" viewBox="0 0 169.001 160">
  <defs>
    <clipPath id="clip-path">
      <rect id="SVGID" width="160" height="160" fill="none"/>
    </clipPath>
    <clipPath id="clip-path-2">
      <rect id="사각형_937" data-name="사각형 937" width="25" height="25" transform="translate(1682 439)" fill="#26282b"/>
    </clipPath>
    <clipPath id="clip-path-3">
      <rect id="사각형_938" data-name="사각형 938" width="25" height="25" transform="translate(1452 207)" fill="#26282b"/>
    </clipPath>
  </defs>
  <g id="그룹_912" data-name="그룹 912" transform="translate(-1394.999 -172)">
    <g id="img" transform="translate(1404 172)">
      <g id="그룹_818" data-name="그룹 818" clip-path="url(#clip-path)">
        <path id="패스_2141" data-name="패스 2141" d="M1613.768,993.693c6.261-2.087,11.2-1.944,17.495-2.23,8.141-.37,16.484-2.231,24.563-3.331a6.169,6.169,0,0,0,3.426-1.2c1.362-1.242,1.3-3.517.332-5.081a10.2,10.2,0,0,0-4.274-3.391c-18.426-9.322-39.249-4.507-57.113,3.478-14.2,6.347-26.96,16.646-34.369,30.323s-8.929,30.873-2.19,44.892c.593,1.234,1.385,2.555,2.706,2.91a5.11,5.11,0,0,0,2.987-.427l8.407-3.01a2.889,2.889,0,0,0,1.692-1.124c.468-.865-.048-1.909-.511-2.776-6.261-11.7-3.662-26.8,4.151-37.529s20.033-17.543,32.7-21.506" transform="translate(-1527.966 -845.346)" fill="#48b077"/>
        <path id="패스_2142" data-name="패스 2142" d="M1613.788,994.694a37.828,37.828,0,0,1,8.027-1.708c2.651-.264,5.317-.319,7.977-.425a145.193,145.193,0,0,0,17.9-2.158c2.917-.482,5.844-.9,8.763-1.359a6.246,6.246,0,0,0,3.528-1.563,4.916,4.916,0,0,0,1.354-3.45c.017-2.779-1.9-4.9-4.146-6.276a38.524,38.524,0,0,0-7.411-3.352c-10.239-3.6-21.36-3.386-31.86-1.092a108.838,108.838,0,0,0-29.182,11.4,73.638,73.638,0,0,0-22.018,19.5,56.638,56.638,0,0,0-10.913,28.286,49.826,49.826,0,0,0,.925,15.364,43.651,43.651,0,0,0,2.323,7.357c.922,2.212,1.983,5.142,4.562,5.844,1.6.436,3.179-.23,4.664-.762l4.3-1.538c1.382-.5,2.837-.906,4.165-1.537a3.183,3.183,0,0,0,1.811-3.672,19.817,19.817,0,0,0-1.638-3.62c-.222-.493-.371-.859-.589-1.446s-.409-1.158-.586-1.746a30.353,30.353,0,0,1-.818-3.425,26.657,26.657,0,0,1-.391-3.282,38.221,38.221,0,0,1,8.826-26.334c6.219-7.557,14.735-12.969,23.655-16.589q3.334-1.354,6.773-2.423a1.4,1.4,0,0,0-.743-2.695c-9.346,2.932-18.357,7.313-25.8,13.75a44.235,44.235,0,0,0-14.735,24.213,37.069,37.069,0,0,0-.25,14.254,31.19,31.19,0,0,0,2.154,6.922c.442,1,1.094,2.03,1.413,3,.088.268.054-.01.041.261.011-.226-.018.221.006.05-.016.11-.088.171-.021.046l-.1.094c.108-.075.092-.066-.045.026a11.57,11.57,0,0,1-1.628.65l-4.2,1.5c-1.371.491-2.737,1.052-4.135,1.46a2.554,2.554,0,0,1-1.513.1c-.325-.094.1.109-.169-.084.028.02-.344-.229-.2-.121a5.182,5.182,0,0,1-.552-.577c.126.164-.052-.083-.078-.122-.068-.1-.133-.2-.2-.305-.15-.248-.287-.5-.418-.763-.276-.553-.532-1.117-.778-1.684a43.446,43.446,0,0,1-3.339-14.009,51.749,51.749,0,0,1,6.409-28.458,59.285,59.285,0,0,1,8.179-11.373,68.914,68.914,0,0,1,5.011-4.96c1.752-1.568,3.517-3,5.337-4.333a93.414,93.414,0,0,1,26.29-13.082c9.728-3.19,20.181-5.029,30.3-3.565a45.557,45.557,0,0,1,14.654,4.645,10.062,10.062,0,0,1,2.8,1.967,4.191,4.191,0,0,1,.811,1.195c-.094-.2.024.069.042.121q.057.166.1.336a1.787,1.787,0,0,1,.111.734c0,.092,0,.184,0,.277,0,.026-.055.464-.006.173a3.6,3.6,0,0,1-.173.652c.1-.261-.329.513-.17.31a2.724,2.724,0,0,1-.283.3c-.16.151,0,.035-.2.146a4.514,4.514,0,0,1-1.38.492c-.653.137-1.319.211-1.979.3-5.666.8-11.286,1.924-16.969,2.614-2.887.351-5.777.544-8.682.652-2.579.1-5.162.172-7.726.474a40.136,40.136,0,0,0-7.928,1.717,1.428,1.428,0,0,0-.976,1.719,1.411,1.411,0,0,0,1.719.976" transform="translate(-1527.615 -844.999)" fill="#24221e"/>
        <path id="패스_2143" data-name="패스 2143" d="M1651.343,890.617l5.659,9.529c2.733,4.6,5.774,9.481,10.687,11.6,2.86,1.234,6.118,1.4,8.89,2.823s4.944,4.982,3.283,7.618c-1.032,1.639-3.1,2.238-5,2.608,2.435,4.141-1.067,10.33-5.871,10.375-1.817.018-3.752-.66-5.378.15a7.919,7.919,0,0,0-2.4,2.4c-6.008,7.544-16.841,8.88-26.485,8.813-11.076-.077-21.779-.22-32.743-2.515-3.908-.818-7.958-1.911-10.88-4.633-3.394-3.161-4.69-8.081-4.476-12.715s1.756-9.088,3.282-13.468" transform="translate(-1533.864 -828.675)" fill="#24221e"/>
        <path id="패스_2144" data-name="패스 2144" d="M1649.784,890.971c2.043,3.44,4.073,6.888,6.131,10.319a39.271,39.271,0,0,0,5.707,7.8,17.514,17.514,0,0,0,3.786,2.91,20.229,20.229,0,0,0,5.022,1.837,25,25,0,0,1,4.936,1.512,6.151,6.151,0,0,1,2.8,2.625c.045.08.088.161.129.244.019.037.148.312.057.1a4.834,4.834,0,0,1,.18.505,5.906,5.906,0,0,1,.138.577c.031.164,0-.026,0-.05.014.128.022.257.025.386a3.765,3.765,0,0,1-.022.51c.034-.287-.073.244-.091.319s-.041.124-.061.185c.085-.249-.06.12-.075.148a3.15,3.15,0,0,1-.3.473c.047-.06.121-.123-.053.046-.085.082-.163.169-.249.25-.052.048-.1.094-.158.14.149-.126-.081.059-.112.081a5.727,5.727,0,0,1-.551.332c-.085.045-.172.086-.258.13-.046.024-.2.094-.066.036a12.611,12.611,0,0,1-2.559.712,1.41,1.41,0,0,0-.835,2.053c.1.176.192.354.278.537-.12-.256.044.128.075.221a5.6,5.6,0,0,1,.156.57c.018.077.03.155.047.231.083.367-.013-.28.015.1a7.848,7.848,0,0,1,.02,1.062c-.006.107-.056.521-.011.219q-.048.326-.124.645a8.517,8.517,0,0,1-.324,1.031c-.084.22.143-.293-.024.056-.034.073-.067.146-.1.218-.089.182-.184.359-.287.533q-.138.235-.291.46c-.046.069-.354.466-.176.251a8.489,8.489,0,0,1-.823.872c-.118.106-.239.21-.364.308.231-.181-.235.155-.3.194-.132.085-.269.165-.407.24-.086.046-.176.088-.263.134-.053.026-.106.05-.16.074.135-.056.156-.065.062-.027a6.188,6.188,0,0,1-.961.285s-.386.066-.167.034-.171.014-.172.014a6.482,6.482,0,0,1-.705.011c-1.092-.035-2.173-.273-3.267-.243a5.343,5.343,0,0,0-3.119,1,12.593,12.593,0,0,0-2.124,2.313,18.425,18.425,0,0,1-1.809,1.929,14.389,14.389,0,0,1-1.861,1.494,21.676,21.676,0,0,1-2.29,1.378q-.567.295-1.146.559c-.173.078-.347.156-.521.23.2-.085-.08.032-.127.051-.132.054-.266.107-.4.159q-1.245.483-2.529.85a39.306,39.306,0,0,1-5.4,1.128c-.05.007-.362.049-.145.02l-.3.038q-.3.037-.593.07-.741.083-1.485.146c-.941.08-1.884.137-2.828.176-1.976.081-3.95.064-5.927.048-4.791-.041-9.584-.116-14.367-.406a113.952,113.952,0,0,1-14.121-1.662c-3.989-.747-8.178-1.536-11.429-4a12.9,12.9,0,0,1-1.917-1.892,13.261,13.261,0,0,1-1.414-2.292,16.982,16.982,0,0,1-1.413-5.091c-.461-4.41.655-8.745,2.017-12.9.363-1.105.744-2.2,1.127-3.3a1.4,1.4,0,1,0-2.7-.743c-1.611,4.624-3.228,9.357-3.348,14.3a18.341,18.341,0,0,0,3.56,11.764c2.713,3.466,6.933,5.093,11.09,6.078a102.145,102.145,0,0,0,14.616,2.244c4.953.435,9.927.589,14.9.658a117.036,117.036,0,0,0,12.748-.241c7.606-.726,15.483-3.027,20.363-9.3.288-.371.575-.745.9-1.087a2.709,2.709,0,0,1,.9-.716,6.47,6.47,0,0,1,3.146-.066,8.1,8.1,0,0,0,5.344-1.019,9.113,9.113,0,0,0,4.142-9.015,7.051,7.051,0,0,0-.857-2.342q-.417,1.027-.835,2.052a10.449,10.449,0,0,0,4.671-1.92,5.236,5.236,0,0,0,1.918-4.458,7.783,7.783,0,0,0-2.091-4.5,10.493,10.493,0,0,0-4.525-2.769c-1.75-.6-3.581-.919-5.353-1.45a13.622,13.622,0,0,1-4.312-2.168c-.119-.089-.132-.1-.307-.245-.155-.127-.307-.257-.457-.39-.3-.266-.594-.543-.878-.827a23.683,23.683,0,0,1-1.624-1.818,41.721,41.721,0,0,1-2.747-3.973c-2.4-3.856-4.657-7.8-6.976-11.706a1.4,1.4,0,1,0-2.413,1.411" transform="translate(-1533.511 -828.324)" fill="#24221e"/>
        <path id="패스_2145" data-name="패스 2145" d="M1604.2,966.743a25.979,25.979,0,0,0-1.644-14.335,6.376,6.376,0,0,0-3.219-3.685,5.2,5.2,0,0,0-4.111.394c-3.734,1.865-5.312,6.267-8.048,9.418-1.711,1.971-3.9,3.466-5.717,5.342-1.873,1.94-2.589,4.169-5.2,5.537-1.449.759-3.135,1.227-4.192,2.476-1.49,1.761-1.184,4.39-.585,6.617,1.387,5.162,4.5,10.51,9.69,11.8,5.1,1.273,10.3-1.857,13.959-5.63a33.756,33.756,0,0,0,9.069-17.939" transform="translate(-1530.717 -840.329)" fill="#fff"/>
        <path id="패스_2146" data-name="패스 2146" d="M1605.2,966.767a28.018,28.018,0,0,0-1.1-13.688,10.768,10.768,0,0,0-3.393-5.342,6.273,6.273,0,0,0-6.535-.173c-3.382,1.683-5.145,5.241-7.221,8.2a15.024,15.024,0,0,1-1.577,1.955,32.825,32.825,0,0,1-2.419,2.248,27.283,27.283,0,0,0-4.371,4.469c-.238.325-.469.655-.708.98l-.21.283c-.016.022-.161.207-.039.052-.145.185-.3.367-.452.543a6.376,6.376,0,0,1-2.039,1.606c-1.821.941-3.755,1.545-4.933,3.359-1.151,1.77-1.084,4.017-.709,6.01a23.917,23.917,0,0,0,1.742,5.308c1.464,3.268,3.834,6.454,7.159,7.991,3.918,1.812,8.215,1.113,11.893-.946a28.442,28.442,0,0,0,9.053-8.626,34.905,34.905,0,0,0,5.25-11.3q.374-1.448.607-2.927a1.44,1.44,0,0,0-.976-1.718,1.408,1.408,0,0,0-1.719.976,31.632,31.632,0,0,1-10.831,19.279,18.066,18.066,0,0,1-4.522,2.739,12.832,12.832,0,0,1-2.685.734c-.256.039.16-.016-.1.013-.1.012-.208.022-.313.03q-.352.03-.707.035c-.21,0-.421,0-.63-.01-.105,0-.211-.012-.315-.02-.037,0-.445-.045-.261-.021a8.525,8.525,0,0,1-1.223-.26c-.181-.05-.362-.107-.54-.168l-.264-.1s-.4-.171-.183-.072a10.508,10.508,0,0,1-2.021-1.2c.175.133-.059-.049-.1-.081-.072-.059-.143-.119-.212-.18-.141-.121-.28-.246-.415-.373-.308-.29-.6-.595-.88-.911a12.8,12.8,0,0,1-1.356-1.85,19.263,19.263,0,0,1-2.031-4.373,21.686,21.686,0,0,1-.684-2.494c-.041-.2-.077-.4-.111-.608,0-.018-.037-.272-.014-.089-.013-.1-.024-.2-.033-.307a8.437,8.437,0,0,1-.02-1.367,3.433,3.433,0,0,1,.685-1.894c-.116.148.09-.092.119-.122.069-.073.141-.144.215-.212a1.561,1.561,0,0,1,.308-.248,9.167,9.167,0,0,1,1.2-.674c.823-.4,1.686-.721,2.469-1.2a9.221,9.221,0,0,0,2.1-1.762,26.7,26.7,0,0,0,1.636-2.134c.261-.362.414-.573.612-.818a13.608,13.608,0,0,1,.945-1.044c1.416-1.417,3.026-2.622,4.457-4.023a25.583,25.583,0,0,0,3.385-4.29c.457-.693.9-1.392,1.375-2.075a15.554,15.554,0,0,1,1.4-1.82q.4-.447.836-.854c.136-.127.279-.247.421-.368.208-.179.1-.08.046-.042.111-.085.226-.167.342-.246a6,6,0,0,1,2.258-.993,2.9,2.9,0,0,1,2.136.386,3.984,3.984,0,0,1,.76.684,2.041,2.041,0,0,1,.24.3c.141.208.277.415.4.632a18.582,18.582,0,0,1,1.9,5.449,24.737,24.737,0,0,1,.474,6.135,26.423,26.423,0,0,1-.275,2.881,1.442,1.442,0,0,0,.977,1.719,1.408,1.408,0,0,0,1.718-.977" transform="translate(-1530.367 -839.981)" fill="#24221e"/>
        <path id="패스_2147" data-name="패스 2147" d="M1594.368,1007.328c-1.215,6.57-.1,13.809.182,20.488q.49,11.763.981,23.528c.066,1.57.093,3.28-.776,4.536-.486.7-1.208,1.182-1.7,1.884a1.905,1.905,0,0,0-.025,2.386,2.011,2.011,0,0,0,1.595.285,125.8,125.8,0,0,0,16.611-2.925,3.831,3.831,0,0,0,2.432-1.322,4.551,4.551,0,0,0,.553-2.171q1.843-21.988,2.841-44.049" transform="translate(-1535.076 -852.19)" fill="#f9bc50"/>
        <path id="패스_2148" data-name="패스 2148" d="M1592.67,1006.606a50.491,50.491,0,0,0-.438,12.074c.244,4.06.541,8.11.711,12.175q.268,6.43.537,12.86l.27,6.48a24.591,24.591,0,0,1,.035,2.776,3.914,3.914,0,0,1-.561,1.823,26.961,26.961,0,0,0-1.792,2.021,3.647,3.647,0,0,0-.443,2.785,2.658,2.658,0,0,0,2.448,1.9,13.9,13.9,0,0,0,2.864-.255c4.2-.521,8.374-1.233,12.5-2.162.958-.216,1.923-.422,2.869-.685a5.265,5.265,0,0,0,2.365-1.244,4.7,4.7,0,0,0,1.18-2.918c.117-1.012.177-2.033.26-3.049q.522-6.39.973-12.786.9-12.795,1.516-25.608.076-1.589.148-3.179a1.4,1.4,0,1,0-2.795,0q-.558,12.317-1.378,24.621-.411,6.149-.887,12.295-.239,3.072-.493,6.143c-.038.465-.069.933-.12,1.4a4.845,4.845,0,0,1-.205.853c-.143.279-.154.284-.45.455-.081.046-.166.089-.25.129.028-.013.158-.062.006,0-.2.078-.406.139-.612.2a99.077,99.077,0,0,1-11.639,2.334q-1.4.212-2.8.389a24.075,24.075,0,0,1-2.828.295c-.279,0,.041.06-.089,0-.156-.072.007,0,.046.042a.486.486,0,0,1,.08.152c-.091-.182-.036-.1-.024,0a2.024,2.024,0,0,1,0-.26c-.006.293.1-.338.065-.243-.025.063.121-.221.177-.3-.033.046-.129.15.077-.092.069-.08.143-.156.216-.232.294-.3.611-.585.89-.9a7.346,7.346,0,0,0,1.5-5.242c-.047-2.014-.163-4.028-.247-6.04q-.259-6.181-.516-12.362c-.164-3.925-.339-7.843-.622-11.762a72.521,72.521,0,0,1-.2-11.538c.079-.9.188-1.716.348-2.6a1.437,1.437,0,0,0-.976-1.719,1.409,1.409,0,0,0-1.719.976" transform="translate(-1534.725 -851.839)" fill="#24221e"/>
        <path id="패스_2149" data-name="패스 2149" d="M1620.023,1008.948c.946,5.818,2.138,11.672,4.694,16.984s6.626,10.089,12.026,12.453c5.657,2.476,11.11.941,16.9,1.85a12.93,12.93,0,0,1,5.819,2.26c1.269,1,1.2,3.125,3.24,3.2a1.636,1.636,0,0,0,1.472-.748,2.675,2.675,0,0,0,.256-1.234c.168-3.729,2.067-19.722-1.269-21.533a7.611,7.611,0,0,0-4.113-.493,22.764,22.764,0,0,1-7.189-.421,8.955,8.955,0,0,1-5.7-4.122,13.577,13.577,0,0,1-1.212-4.595q-.363-2.564-.725-5.13" transform="translate(-1540.597 -852.209)" fill="#f9bc50"/>
        <path id="패스_2150" data-name="패스 2150" d="M1618.328,1008.968c1.513,9.279,3.876,19.042,10.868,25.817a23.142,23.142,0,0,0,5.1,3.778,19.759,19.759,0,0,0,7.235,2.2c4.627.521,9.42-.382,13.909,1.064a9.594,9.594,0,0,1,2.714,1.339c.36.257-.089-.136.125.109.045.049.1.106.148.151.242.229-.105-.162.011.005.05.073.1.145.147.22.2.313.359.646.541.969a4.008,4.008,0,0,0,2.036,1.9,3.291,3.291,0,0,0,3.374-.6c1.107-1.043.938-2.78,1.045-4.189.091-1.2.188-2.4.272-3.606a89.433,89.433,0,0,0,.283-9.1,29.456,29.456,0,0,0-.4-4.262,7.814,7.814,0,0,0-1.068-3.018c-1.06-1.556-3.006-1.888-4.783-1.856-2.436.045-4.886.352-7.284-.145a9.617,9.617,0,0,1-2.78-.972,6.882,6.882,0,0,1-2.224-1.787c-1.3-1.547-1.517-4.207-1.818-6.335q-.278-1.973-.557-3.946a1.406,1.406,0,0,0-1.719-.976,1.435,1.435,0,0,0-.976,1.719q.279,1.973.557,3.945c.172,1.213.307,2.44.595,3.633a9.322,9.322,0,0,0,3.707,5.519,13.124,13.124,0,0,0,6.4,2.18,25.7,25.7,0,0,0,3.618.079,32.837,32.837,0,0,1,3.5-.093,3.808,3.808,0,0,1,1.13.291,1.575,1.575,0,0,1,.233.138c-.046.1-.307-.284-.151-.113.038.042.085.079.125.121s.086.131.137.157c-.219-.114-.189-.28-.09-.1.018.033.042.064.062.1.053.085.1.173.146.261.019.037.036.075.055.113.117.221-.023.006-.035-.1a4.594,4.594,0,0,0,.234.668c.076.251.139.506.195.763s.106.535.149.8c.022.135.041.271.06.406-.065-.452.019.184.03.287a55.028,55.028,0,0,1,.066,8.638c-.126,2.464-.344,4.922-.514,7.383q-.019.276-.035.55a5.818,5.818,0,0,1-.053.716c-.07.3-.019.14,0,.081.027-.1-.189.151-.024.026-.2.151-.134.066-.063.033-.309.143.046.023-.13.022-.082,0-.366-.05-.082.009-.076-.016-.151-.04-.227-.055-.3-.059.176.147-.058-.029-.083-.062-.26-.255-.041-.017-.044-.047-.1-.087-.141-.138-.012-.015-.215-.271-.081-.09s-.055-.093-.064-.108c-.038-.058-.073-.117-.107-.177-.188-.318-.347-.651-.536-.968a5.763,5.763,0,0,0-2.039-1.972c-4.052-2.491-9.07-2.223-13.632-2.248a23.827,23.827,0,0,1-6.777-.787,18.067,18.067,0,0,1-5.518-2.875c-.214-.157-.611-.482-.919-.748q-.644-.554-1.247-1.155a25.882,25.882,0,0,1-1.968-2.2,28.059,28.059,0,0,1-1.677-2.386c-.554-.879-1.062-1.787-1.526-2.716a51.4,51.4,0,0,1-4.142-13.522c-.221-1.179-.422-2.361-.616-3.545a1.409,1.409,0,0,0-1.719-.976,1.431,1.431,0,0,0-.976,1.719" transform="translate(-1540.25 -851.858)" fill="#24221e"/>
        <path id="패스_2151" data-name="패스 2151" d="M1600.5,948.705a181.519,181.519,0,0,0-5.743,26.809c-1.179,8.652-2.714,18.6-1.558,27.288,6.49,1.8,13.513-.485,20.165-.341q14.1.305,28.2.276c.682-8.333-1.339-16.623-3.343-24.737l-6.887-27.867" transform="translate(-1535.109 -840.379)" fill="#5b5b5b"/>
        <path id="패스_2152" data-name="패스 2152" d="M1598.8,947.98a182.2,182.2,0,0,0-4.963,21.649c-.589,3.554-1.06,7.127-1.534,10.7-.463,3.484-.877,6.977-1.1,10.485a60.362,60.362,0,0,0,.245,11.638,1.461,1.461,0,0,0,1.026,1.347c6.007,1.632,12.123.05,18.185-.252,3.221-.161,6.476.048,9.7.1q4.865.074,9.732.11,5.563.04,11.124.028a1.431,1.431,0,0,0,1.4-1.4c.554-6.993-.74-13.972-2.336-20.752-1.614-6.855-3.363-13.679-5.052-20.515q-1.445-5.854-2.893-11.708a1.4,1.4,0,1,0-2.695.743l5.069,20.513c1.663,6.727,3.552,13.454,4.6,20.313a49.493,49.493,0,0,1,.509,11.406l1.4-1.4q-9.833.02-19.665-.121c-3.2-.046-6.418-.2-9.622-.157-3,.044-5.983.494-8.969.786a27.037,27.037,0,0,1-9.742-.393l1.026,1.348c-.9-6.867-.208-13.854.666-20.686.894-6.981,1.942-14.048,3.475-20.972q1.346-6.086,3.11-12.067a1.4,1.4,0,0,0-2.695-.743" transform="translate(-1534.756 -840.027)" fill="#24221e"/>
        <path id="패스_2153" data-name="패스 2153" d="M1648.715,989.838a12.735,12.735,0,0,0,8.912-12.487,68.8,68.8,0,0,0-2.6-14.873c-1.223-4.2-3.083-8.577-6.819-10.854a5.237,5.237,0,0,0-4.7-.7,4.818,4.818,0,0,0-2.532,3.66,19.124,19.124,0,0,0,.021,4.621,29.978,29.978,0,0,1-1.83,13.216c-1.532,3.772-4.105,7.331-2.562,11.545,1.1,3,4.3,6.022,7.567,6.34a11.5,11.5,0,0,0,4.54-.469" transform="translate(-1543.842 -840.765)" fill="#fff"/>
        <path id="패스_2154" data-name="패스 2154" d="M1648.738,990.839a14.593,14.593,0,0,0,7.5-5.562,13.5,13.5,0,0,0,2.4-8.75,70.994,70.994,0,0,0-1.85-11.9,35.286,35.286,0,0,0-3.489-9.546c-1.644-2.8-4.339-5.64-7.709-6.12a5.23,5.23,0,0,0-5.082,2.053,8.188,8.188,0,0,0-1.421,5.043c.01,1.94.266,3.867.24,5.812a29.1,29.1,0,0,1-.541,5.413,24.847,24.847,0,0,1-1.563,4.99c-.712,1.6-1.523,3.16-2.112,4.812a10.922,10.922,0,0,0-.616,5.255,10.212,10.212,0,0,0,2.166,4.766,11.808,11.808,0,0,0,3.875,3.273,9.762,9.762,0,0,0,5.242,1,13.727,13.727,0,0,0,2.952-.541,1.4,1.4,0,1,0-.743-2.695,10.338,10.338,0,0,1-2.392.454,11.558,11.558,0,0,1-1.21.006c-.212-.01-.428-.022-.64-.049-.242-.03.176.034-.065-.014-.1-.02-.194-.037-.291-.06a7.669,7.669,0,0,1-3.474-1.94q-.409-.381-.778-.8a6.715,6.715,0,0,1-.6-.773c-.188-.274-.364-.557-.524-.848a6.164,6.164,0,0,1-.386-.8,6.729,6.729,0,0,1-.232-4.123,21.211,21.211,0,0,1,1.624-4.168,34.387,34.387,0,0,0,1.894-4.716,32.157,32.157,0,0,0,1.182-10.449,24.717,24.717,0,0,1-.123-5.252,7.728,7.728,0,0,1,.261-.988c.068-.213-.014-.009.082-.209.085-.175.175-.347.276-.513a2.461,2.461,0,0,1,1.114-1.044,2.74,2.74,0,0,1,1.709-.1,5.854,5.854,0,0,1,1.988.886q.22.143.432.3a1.994,1.994,0,0,1,.247.19c.264.223.522.45.768.693s.482.5.706.758q.169.2.33.4c.1.124.028.037.009.011q.111.149.219.3a17.115,17.115,0,0,1,1.142,1.857q.233.436.445.883c.151.319.307.667.384.857a38.725,38.725,0,0,1,1.425,4.255,66.418,66.418,0,0,1,2.074,10.52,25.756,25.756,0,0,1,.278,4.894c-.006.069-.045.451-.035.374s-.046.284-.062.371c-.063.346-.143.688-.236,1.027q-.133.474-.3.938a5.548,5.548,0,0,1-.327.769,11.636,11.636,0,0,1-5.25,5.428,8.394,8.394,0,0,1-1.659.679,1.427,1.427,0,0,0-.976,1.719,1.413,1.413,0,0,0,1.719.976" transform="translate(-1543.494 -840.418)" fill="#24221e"/>
        <path id="패스_2155" data-name="패스 2155" d="M1660.2,964.359l-1.219-12.693c-25.377,8.345-57.932.706-73.773-20.8-15.433-20.956-14.263-52.007-5.889-76.648a123.665,123.665,0,0,1,9.433-20.889c-5.853-3.169-11.611-6.5-17.143-10.146-8.583,14.843-15.138,30.6-18,46.838-6.087,34.523,4.978,73.716,33.873,93.568a74.6,74.6,0,0,0,69.115,7.461,6.5,6.5,0,0,0,2.874-1.857c1.005-1.332.892-3.169.732-4.829" transform="translate(-1526.889 -815.088)" fill="#bdcc42"/>
        <path id="패스_2156" data-name="패스 2156" d="M1661.243,964.006l-1.219-12.693a1.415,1.415,0,0,0-1.769-1.347,69.352,69.352,0,0,1-32.577,2.328c-10.742-1.759-21.313-5.861-29.922-12.615a51.532,51.532,0,0,1-11.094-11.869,58.078,58.078,0,0,1-7.327-15.878c-3.446-11.686-3.74-24.2-2.108-36.213a116.155,116.155,0,0,1,11.792-37.233q1.245-2.431,2.586-4.809a1.416,1.416,0,0,0-.5-1.912c-5.84-3.165-11.594-6.492-17.143-10.146a1.414,1.414,0,0,0-1.912.5,170.522,170.522,0,0,0-11.963,24.988,121.282,121.282,0,0,0-6.671,25.236,109.905,109.905,0,0,0-1.012,21.887,107.681,107.681,0,0,0,3.387,21.658,96.366,96.366,0,0,0,7.76,20.086,82.552,82.552,0,0,0,12.233,17.489,73.1,73.1,0,0,0,17.034,13.755,74.558,74.558,0,0,0,22.447,8.52,77.067,77.067,0,0,0,24.02,1.138,74.879,74.879,0,0,0,11.84-2.276q2.9-.812,5.728-1.872c1.83-.688,3.979-1.329,5.253-2.905,1.341-1.658,1.331-3.8,1.142-5.818a1.435,1.435,0,0,0-1.4-1.4,1.407,1.407,0,0,0-1.4,1.4c.156,1.656.4,3.676-1.238,4.674a26.515,26.515,0,0,1-5.333,2.148,71.509,71.509,0,0,1-11.223,2.786,73.339,73.339,0,0,1-23.042.08,71.482,71.482,0,0,1-39.39-19.644c-9.776-9.681-16.629-22.006-20.655-35.107a105.664,105.664,0,0,1-3.975-41.667c1.724-16.876,7.726-33.092,15.668-47.986q1.55-2.907,3.2-5.759l-1.912.5c5.55,3.654,11.3,6.981,17.144,10.146q-.251-.956-.5-1.912a121.691,121.691,0,0,0-14.037,38.71c-2.16,12.428-2.418,25.353.436,37.7,2.689,11.631,8.393,22.54,17.327,30.577a66.2,66.2,0,0,0,30.119,14.995,73.74,73.74,0,0,0,34.066-.439q1.965-.51,3.9-1.143l-1.769-1.348,1.219,12.693a1.436,1.436,0,0,0,1.4,1.4,1.408,1.408,0,0,0,1.4-1.4" transform="translate(-1526.537 -814.735)" fill="#24221e"/>
        <path id="패스_2157" data-name="패스 2157" d="M1632.417,951.689a21.82,21.82,0,0,1-1.284,7.683,9.009,9.009,0,0,1-5.095,4.961,5.445,5.445,0,0,1-5.8-1.165c-1.721-1.814-2.028-4.826-3.358-7.038a6.042,6.042,0,0,1-1.761,5.095,8.034,8.034,0,0,1-4.56,2.1c-2.663.4-5.642-.266-7.263-2.682-1.572-2.342-1.466-5.689-.815-8.608a27.072,27.072,0,0,1,2.02-5.838" transform="translate(-1536.972 -839.875)" fill="#fff"/>
        <path id="패스_2158" data-name="패스 2158" d="M1630.67,951.339a24.758,24.758,0,0,1-.758,5.991,8.676,8.676,0,0,1-2.727,4.231c-.013.011-.2.166-.062.057-.077.059-.157.117-.236.172q-.238.168-.486.317-.278.168-.567.311c-.085.042-.171.083-.258.121s-.086.039.006,0l-.132.05a5.131,5.131,0,0,1-2.343.335c-.036,0-.272-.037-.057,0-.1-.014-.189-.033-.283-.053a5.262,5.262,0,0,1-.552-.153c-.089-.03-.183-.061-.269-.1.181.079-.038-.026-.06-.037a5.752,5.752,0,0,1-.62-.377c.141.1-.051-.045-.065-.057-.074-.068-.148-.134-.219-.2-.086-.085-.169-.174-.248-.266-.018-.02-.2-.246-.113-.133a8.567,8.567,0,0,1-.606-1.014c-.081-.161-.239-.5-.267-.569s-.146-.367-.207-.527c-.179-.473-.344-.952-.515-1.427a17.269,17.269,0,0,0-1.289-2.93,1.4,1.4,0,0,0-1.745-.572,1.428,1.428,0,0,0-.81,1.648c-.034-.229.015.274.014.252,0,.1,0,.208,0,.312s-.01.208-.016.313c-.029.439.061-.182-.036.249a5.535,5.535,0,0,1-.423,1.289,4.837,4.837,0,0,1-1.675,1.924,6.982,6.982,0,0,1-2.749,1.064c-.1.019-.205.035-.307.054-.485.087.254-.013-.2.026-.186.017-.372.034-.559.043a9.2,9.2,0,0,1-1.476-.046c-.262-.03.321.065-.115-.019-.092-.018-.184-.034-.276-.053q-.343-.072-.677-.173c-.089-.027-.177-.056-.264-.086.033.011-.393-.15-.223-.08s-.243-.116-.213-.1q-.187-.093-.368-.2a4.324,4.324,0,0,1-1.671-1.653,6.2,6.2,0,0,1-.312-.6c.093.207-.094-.251-.087-.229-.033-.1-.066-.192-.1-.29-.077-.246-.141-.5-.2-.747-.022-.1-.042-.2-.061-.307,0,.01-.064-.43-.042-.252a13.3,13.3,0,0,1,.038-3.235,23.03,23.03,0,0,1,.768-3.411,24.982,24.982,0,0,1,1.395-3.643,1.436,1.436,0,0,0-.5-1.912,1.41,1.41,0,0,0-1.912.5,26.947,26.947,0,0,0-2.452,7.768,12.239,12.239,0,0,0,.935,7.572c2.4,4.453,8.72,5,12.758,2.59a7.614,7.614,0,0,0,3.691-7.667l-2.554,1.077c.952,1.617,1.346,3.576,2.245,5.387a6.619,6.619,0,0,0,4.739,3.743c4.423.756,8.3-2.478,9.892-6.383a23.618,23.618,0,0,0,1.266-7.893,1.4,1.4,0,0,0-2.795,0" transform="translate(-1536.622 -839.525)" fill="#24221e"/>
        <path id="패스_2159" data-name="패스 2159" d="M1595.242,874.184a7.788,7.788,0,0,0,13.752-1.314c1.995,2.315,4.4,4.451,7.362,5.219s6.534-.2,8.016-2.871a20.036,20.036,0,0,0,16.273,10.628,19.7,19.7,0,0,0,9.856-2.039,39.817,39.817,0,0,0-77.252,7.185,57.452,57.452,0,0,0,21.994-16.808" transform="translate(-1531.172 -821.805)" fill="#24221e"/>
        <path id="패스_2160" data-name="패스 2160" d="M1593.689,874.539a9.183,9.183,0,0,0,16.306-1.648l-2.335.616a17.942,17.942,0,0,0,6.839,5.206,9.6,9.6,0,0,0,7.585-.236,7.178,7.178,0,0,0,3.147-2.905h-2.413a21.312,21.312,0,0,0,20.155,11.29,22.123,22.123,0,0,0,7.885-2.2,1.4,1.4,0,0,0,.642-1.578,41.217,41.217,0,0,0-79.509,4.584c-.175.862-.319,1.73-.438,2.6a1.436,1.436,0,0,0,.5,1.469,1.454,1.454,0,0,0,1.552.109,58.942,58.942,0,0,0,18.151-12.4,56.573,56.573,0,0,0,4.125-4.629,1.441,1.441,0,0,0,0-1.976,1.409,1.409,0,0,0-1.977,0,56.131,56.131,0,0,1-16.237,13.858,58.343,58.343,0,0,1-5.474,2.732l2.053,1.578a40.411,40.411,0,0,1,2.666-9.9c.165-.4-.059.135.042-.1l.134-.31c.073-.164.145-.328.22-.492q.278-.612.577-1.215.566-1.14,1.206-2.243a39.979,39.979,0,0,1,2.733-4.109c.16-.211.315-.41.6-.764s.565-.684.856-1.018q.829-.954,1.716-1.853a40.029,40.029,0,0,1,3.66-3.283l.262-.205c.2-.156-.255.19.087-.066.142-.105.283-.213.426-.319q.535-.4,1.085-.774,1.044-.72,2.134-1.371a39.792,39.792,0,0,1,4.408-2.277l.31-.134c.236-.1-.3.122.1-.043q.249-.1.5-.2.627-.252,1.266-.48,1.216-.438,2.459-.8a39.686,39.686,0,0,1,4.978-1.09l.344-.051c.06-.009.359-.049.113-.016.208-.028.416-.053.625-.077q.664-.075,1.329-.13,1.344-.109,2.693-.128a40.3,40.3,0,0,1,5.455.292l.357.045c-.062-.009-.231-.034.057.009.213.031.426.062.639.1q.672.107,1.338.236,1.323.258,2.627.6a39.569,39.569,0,0,1,4.976,1.688c.243.1-.295-.129.115.049l.256.11q.286.126.57.255.6.274,1.19.568,1.176.586,2.311,1.248t2.217,1.393q.513.346,1.015.708.223.16.444.325l.275.206c.043.033.317.243.24.183a41.3,41.3,0,0,1,3.76,3.344q.917.925,1.773,1.908.406.466.8.944c.116.142.231.284.344.428.072.089.142.18.212.269s.057.073-.008-.011c.042.055.084.109.125.164a39.878,39.878,0,0,1,2.848,4.3q.654,1.141,1.231,2.324.273.562.529,1.132c.077.169.151.339.224.509-.014-.033.165.387.094.218-.038-.091.095.232.116.283q.486,1.2.894,2.428l.643-1.578a18.686,18.686,0,0,1-5.943,1.766,17.493,17.493,0,0,1-5.7-.268,17.841,17.841,0,0,1-4.854-1.8,18.1,18.1,0,0,1-4.193-3.053q-.559-.54-1.075-1.123c-.164-.185-.323-.373-.48-.563-.063-.077-.125-.153-.186-.231-.3-.371.139.2-.144-.186a20.173,20.173,0,0,1-1.648-2.635,1.408,1.408,0,0,0-2.413,0c-.089.156-.185.3-.283.454q-.145.2-.02.034c-.055.069-.113.135-.171.2a5.549,5.549,0,0,1-.666.632c.2-.163-.209.139-.251.165q-.167.108-.34.2c-.155.086-.315.164-.474.24s-.162.073-.035.016c-.083.033-.167.064-.251.094a7.948,7.948,0,0,1-.91.257c-.177.038-.355.073-.535.1.28-.039-.155.011-.171.012a8.178,8.178,0,0,1-1.093.017c-.136-.007-.272-.019-.408-.031q-.254-.029-.033,0c-.089-.014-.179-.029-.268-.046-2.982-.557-5.285-2.681-7.274-4.977a1.382,1.382,0,0,0-1.359-.358,1.475,1.475,0,0,0-.977.976c.072-.171-.142.282-.167.328-.069.129-.14.257-.216.382s-.155.248-.237.368c-.055.081-.113.16-.17.238.055-.071.053-.07-.006,0a8.079,8.079,0,0,1-.644.7q-.158.152-.325.3c-.073.064-.149.126-.224.188q.135-.1-.067.046c-.24.168-.484.328-.74.474-.148.084-.3.163-.453.237-.065.032-.132.063-.2.093l-.071.028a8.207,8.207,0,0,1-.833.268c-.189.049-.38.085-.571.125-.28.058.1,0-.208.03a7.178,7.178,0,0,1-1.7-.045,7.724,7.724,0,0,1-1.643-.5,9.913,9.913,0,0,1-.912-.5,4.95,4.95,0,0,1-.556-.4,7.205,7.205,0,0,1-1.257-1.379,1.429,1.429,0,0,0-1.912-.5,1.412,1.412,0,0,0-.5,1.912" transform="translate(-1530.826 -821.455)" fill="#24221e"/>
        <path id="패스_2161" data-name="패스 2161" d="M1654.775,888.934a9.769,9.769,0,0,0-3.821.774c-.168-.6-.352-1.188-.546-1.774a19.7,19.7,0,0,1-9.856,2.039,20.036,20.036,0,0,1-16.273-10.628c-1.481,2.672-5.058,3.639-8.016,2.871s-5.367-2.9-7.362-5.218a7.788,7.788,0,0,1-13.752,1.314,57.454,57.454,0,0,1-21.994,16.809,39.82,39.82,0,0,0,78.556,12.9,9.791,9.791,0,1,0,3.063-19.09" transform="translate(-1531.08 -825.931)" fill="#ffe3d4"/>
        <path id="패스_2162" data-name="패스 2162" d="M1654.422,887.184a11.238,11.238,0,0,0-4.192.824l1.719.976c-.169-.6-.353-1.186-.546-1.774a1.422,1.422,0,0,0-2.053-.835,18.7,18.7,0,0,1-5.942,1.766,17.512,17.512,0,0,1-5.7-.268,17.838,17.838,0,0,1-4.854-1.8,18.072,18.072,0,0,1-4.193-3.052q-.559-.541-1.075-1.123-.246-.278-.481-.564l-.186-.23c-.3-.372.14.2-.143-.186a20.166,20.166,0,0,1-1.647-2.636,1.409,1.409,0,0,0-2.413,0c-.089.156-.186.3-.282.454-.1.132-.1.143-.02.034-.055.068-.112.135-.171.2a5.464,5.464,0,0,1-.666.631c.2-.162-.21.14-.251.166q-.168.108-.341.2c-.154.087-.314.164-.473.241s-.163.073-.035.016q-.125.049-.251.093a7.674,7.674,0,0,1-.91.257c-.177.039-.355.073-.535.1.281-.04-.155.01-.171.012a8.3,8.3,0,0,1-1.093.017c-.136-.007-.272-.02-.408-.031-.169-.019-.18-.02-.033,0l-.267-.046c-2.982-.557-5.285-2.682-7.274-4.977a1.385,1.385,0,0,0-1.36-.359,1.478,1.478,0,0,0-.976.976c.072-.171-.142.283-.167.329-.069.129-.141.256-.216.382s-.156.247-.238.368c-.054.08-.112.159-.169.237.055-.07.053-.069-.006,0a7.993,7.993,0,0,1-.644.7c-.105.1-.214.2-.325.3-.073.063-.148.126-.224.187.09-.069.068-.053-.067.047-.24.167-.484.328-.74.473-.147.084-.3.163-.452.238-.066.032-.132.063-.2.093l-.07.028a8.437,8.437,0,0,1-.833.269c-.189.049-.38.085-.571.125-.28.058.1,0-.208.03a7.2,7.2,0,0,1-1.7-.045,7.749,7.749,0,0,1-1.644-.5,9.9,9.9,0,0,1-.911-.5,4.823,4.823,0,0,1-.556-.4,7.234,7.234,0,0,1-1.257-1.379,1.41,1.41,0,0,0-2.194-.283,56.075,56.075,0,0,1-12.646,11.644,57.98,57.98,0,0,1-7.632,4.3c-.837.391-1.907.632-2.1,1.667a24.3,24.3,0,0,0-.276,2.55,39.31,39.31,0,0,0-.088,4.528,40.938,40.938,0,0,0,3.073,14.146,41.808,41.808,0,0,0,7.62,12.039,41.179,41.179,0,0,0,11.015,8.6,40.747,40.747,0,0,0,13.573,4.456,42.027,42.027,0,0,0,15.2-.62,40.812,40.812,0,0,0,13.363-5.729,42,42,0,0,0,10.544-10.021,40.889,40.889,0,0,0,6.41-12.985c.334-1.156.612-2.326.841-3.507l-1.719.976a11.187,11.187,0,1,0,3.435-21.835,1.4,1.4,0,0,0,0,2.795c.281,0,.559.012.838.035.018,0,.471.05.177.013.09.011.181.026.27.042a9.719,9.719,0,0,1,1.566.4c.126.044.251.092.375.139.4.152-.229-.121.154.067.2.1.4.191.591.3q.346.189.677.4c.073.048.146.1.218.147.04.027.449.336.243.172a9.765,9.765,0,0,1,1.057.976c.149.159.289.326.43.492.275.321-.141-.213.1.131.1.143.2.285.3.431a11.991,11.991,0,0,1,.7,1.268c.018.036.108.244.018.031.051.122.1.247.144.372q.148.41.26.831c.064.24.118.482.164.726.025.134.049.27.066.4-.031-.238,0,0,0,.038a12.26,12.26,0,0,1,.023,1.675,6.323,6.323,0,0,1-.2,1.25q-.1.392-.223.774c-.028.085-.057.169-.088.252-.017.046-.216.527-.107.283a10.164,10.164,0,0,1-.684,1.278c-.118.185-.244.363-.37.542-.244.344.172-.19-.1.131-.113.133-.224.267-.342.4a11.612,11.612,0,0,1-1.043.989c-.205.176-.074.061-.026.024-.1.08-.211.156-.319.231q-.351.243-.723.455c-.249.142-.505.266-.763.392-.383.188.246-.085-.154.068-.125.047-.249.1-.375.139a10.215,10.215,0,0,1-1.7.425c-.434.072.268-.01-.173.019-.139.01-.277.025-.415.033a9.913,9.913,0,0,1-1.124,0,8.58,8.58,0,0,1-2.129-.43,1.408,1.408,0,0,0-1.719.977,37.946,37.946,0,0,1-3.9,10.992,39.845,39.845,0,0,1-3.114,4.886l-.243.323c-.165.22-.064.084-.027.037-.151.2-.3.388-.459.58q-.485.6-.992,1.183-.949,1.088-1.974,2.1t-2.121,1.957q-.535.46-1.086.9l-.263.208a1.152,1.152,0,0,1-.142.111c-.215.162-.429.324-.647.483a39.915,39.915,0,0,1-4.912,3.075q-1.32.7-2.69,1.3l-.25.108c.254-.109-.158.066-.169.07q-.315.129-.633.254-.7.274-1.412.522a39.483,39.483,0,0,1-5.812,1.538q-.724.134-1.452.241c.031,0-.426.06-.233.034s-.265.034-.233.029q-.422.053-.843.1-1.563.162-3.136.2a40.376,40.376,0,0,1-6.007-.3c-.019,0-.467-.063-.172-.022l-.272-.038c-.248-.036-.495-.075-.742-.116q-.773-.128-1.539-.286-1.388-.286-2.753-.672-1.417-.4-2.8-.9-.624-.229-1.242-.477l-.369-.151c-.394-.161.14.062-.094-.039-.263-.114-.526-.229-.787-.348a39.737,39.737,0,0,1-4.972-2.705q-1.187-.76-2.318-1.6l-.262-.2c-.014-.011-.356-.275-.132-.1q-.259-.2-.513-.406-.561-.452-1.1-.922a40,40,0,0,1-3.977-3.964,34.668,34.668,0,0,1-3.312-4.427,39.883,39.883,0,0,1-2.706-4.972c-.091-.2-.181-.4-.269-.605-.007-.017-.179-.418-.067-.154l-.1-.244q-.29-.708-.554-1.426-.495-1.35-.89-2.733-.408-1.427-.709-2.883-.137-.666-.252-1.337-.057-.337-.109-.674c-.021-.135-.04-.271-.06-.407-.024-.168-.026-.18-.006-.036l-.026-.2a39.631,39.631,0,0,1-.295-6.419c.048-1.337.168-2.669.344-3.993q-.345.6-.692,1.206a58.93,58.93,0,0,0,18.152-12.4,56.574,56.574,0,0,0,4.125-4.628l-2.194-.283a9.184,9.184,0,0,0,16.306-1.648l-2.335.617a17.943,17.943,0,0,0,6.84,5.206,9.6,9.6,0,0,0,7.585-.237,7.178,7.178,0,0,0,3.147-2.9h-2.413a21.312,21.312,0,0,0,20.156,11.289,22.12,22.12,0,0,0,7.885-2.2l-2.053-.835c.193.588.378,1.179.546,1.774a1.405,1.405,0,0,0,1.719.976,9.065,9.065,0,0,1,3.449-.724,1.4,1.4,0,1,0,0-2.795" transform="translate(-1530.727 -825.579)" fill="#24221e"/>
        <path id="패스_2163" data-name="패스 2163" d="M1602.353,902.423a2.612,2.612,0,1,1-2.613-2.612,2.613,2.613,0,0,1,2.613,2.612" transform="translate(-1535.984 -830.528)" fill="#24221e"/>
        <path id="패스_2164" data-name="패스 2164" d="M1633.42,902.423a2.612,2.612,0,1,1-2.611-2.612,2.612,2.612,0,0,1,2.611,2.612" transform="translate(-1542.244 -830.528)" fill="#24221e"/>
        <path id="패스_2165" data-name="패스 2165" d="M1613.179,905.758c.31-.135-.289.109.021-.006l.175-.066c.156-.058.314-.109.474-.156a6.417,6.417,0,0,1,.874-.19l-.371.05a5.191,5.191,0,0,1,1.349-.006l-.371-.05a4.978,4.978,0,0,1,.84.2c.064.021.126.043.188.066.21.079.03-.008-.071-.034a2.167,2.167,0,0,1,.448.221,1.4,1.4,0,0,0,1.41-2.413,6.511,6.511,0,0,0-3.069-.826,8.178,8.178,0,0,0-3.306.8,1.4,1.4,0,0,0-.642.835,1.428,1.428,0,0,0,.141,1.076,1.413,1.413,0,0,0,.835.643,1.63,1.63,0,0,0,1.076-.141" transform="translate(-1538.794 -831.079)" fill="#24221e"/>
        <path id="패스_2166" data-name="패스 2166" d="M1593.882,910.845a8.269,8.269,0,1,1-8.27-8.27,8.27,8.27,0,0,1,8.27,8.27" transform="translate(-1531.997 -831.085)" fill="#ffb18f"/>
        <path id="패스_2167" data-name="패스 2167" d="M1654.128,910.845a8.269,8.269,0,1,1-8.27-8.27,8.27,8.27,0,0,1,8.27,8.27" transform="translate(-1544.136 -831.085)" fill="#ffb18f"/>
        <path id="패스_2168" data-name="패스 2168" d="M1621.383,917.723A1.98,1.98,0,0,1,1621,916.7a8.49,8.49,0,0,1-.065-3.8,4.531,4.531,0,0,1,5.854-2.739,4.789,4.789,0,0,1,2.423,6.086" transform="translate(-1540.742 -832.552)" fill="#fff"/>
        <path id="패스_2169" data-name="패스 2169" d="M1622.018,916.388c.014.018.176.178.121.2,0,0-.05-.165-.053-.177-.037-.14-.062-.283-.086-.425q-.053-.3-.1-.61c-.012-.077-.024-.153-.034-.23-.014-.1-.014-.1,0-.012-.006-.052-.011-.1-.018-.154a9.9,9.9,0,0,1-.055-1.074c0-.1.009-.2.013-.3,0,.007.02-.242.006-.117-.015.143.029-.164.034-.19.026-.125.055-.248.091-.37.017-.057.151-.406.075-.233s.08-.152.114-.212a3.141,3.141,0,0,0,.2-.312c.069-.168-.157.164-.029.031.061-.062.113-.135.172-.2.084-.09.171-.177.262-.26.065-.058.357-.267.085-.084a6.419,6.419,0,0,1,.68-.418c.125-.062.361-.133.105-.054.136-.042.268-.1.4-.136.12-.035.241-.064.363-.089l.157-.03c.324-.062-.188-.006,0,0a4.694,4.694,0,0,0,.742,0c.187-.025-.241-.06-.057-.011.05.013.105.018.157.028.156.032.307.078.461.123.051.015.1.038.151.053-.265-.077-.11-.053-.037-.013.111.059.224.114.332.18s.208.138.312.208c-.27-.18.059.061.128.125q.156.147.3.309c.035.04.066.086.1.124.131.136-.1-.2-.024-.026.11.237.287.463.41.7s.01.01-.008-.037c.034.084.066.168.1.254.047.137.089.275.125.415s.049.287.088.424c.052.188,0-.244-.008-.049-.006.086.015.184.018.27.005.144,0,.288,0,.431,0,.071-.015.145-.016.215,0-.1.041-.225.006-.051a5.021,5.021,0,0,1-.274.931,1.4,1.4,0,0,0,.976,1.719,1.441,1.441,0,0,0,1.719-.976,6.166,6.166,0,0,0-3.065-7.665,5.947,5.947,0,0,0-7.8,3.272,6.81,6.81,0,0,0-.293,3.1,6.256,6.256,0,0,0,.992,3.387,1.4,1.4,0,0,0,1.976,0,1.439,1.439,0,0,0,0-1.976" transform="translate(-1540.389 -832.205)" fill="#24221e"/>
        <path id="패스_2170" data-name="패스 2170" d="M1605.072,913.851a22.763,22.763,0,0,0,21.245,4.94,1.4,1.4,0,0,0-.743-2.7,19.665,19.665,0,0,1-7.768.589l-.232-.027c.035,0,.15.021-.014,0s-.308-.046-.462-.072q-.5-.083-1-.19c-.66-.142-1.314-.315-1.958-.518a18.151,18.151,0,0,1-3.468-1.472,19.163,19.163,0,0,1-3.628-2.527,1.431,1.431,0,0,0-1.976,0,1.412,1.412,0,0,0,0,1.976" transform="translate(-1537.503 -832.879)" fill="#24221e"/>
        <path id="패스_2171" data-name="패스 2171" d="M1570.921,971.515c1.861.849,4.017.383,3.579,3.186-.118.758-3.023,3.442-3.767,3.794-4.612,2.186-8.328-2.622-10.081-6.462a33.091,33.091,0,0,1-2.552-8.4c-.737-4.513,1.925-7.523,6.58-7.6,1.868-.03,3.925.775,4.645,2.5s-.782,4.144-2.6,3.722c1.681-.256,3.689-.4,4.782.907,1.282,1.528-.261,4.335-2.238,4.072,1.523-.71,3.661-.189,4.292,1.368s-1.111,3.608-2.639,2.91" transform="translate(-1528.096 -841.856)" fill="#ffe3d4"/>
        <path id="패스_2172" data-name="패스 2172" d="M1569.862,972.367a18.638,18.638,0,0,0,2.329.763c.137.041.27.093.407.134.286.086-.237-.169-.006,0a.857.857,0,0,0,.149.085c.237.089-.126-.159-.048-.045a.834.834,0,0,0,.145.146c-.178-.137-.142-.195-.072-.077.128.219-.076-.3.014.046.025.093.034.306.014-.01.005.08.011.158.012.237a3.545,3.545,0,0,0-.019.4c-.023-.18.032-.049,0-.034-.141.077.212-.307.065-.146a1.179,1.179,0,0,0-.062.11c-.033.049-.069.1-.1.152-.168.284.18-.2-.01.019a21.248,21.248,0,0,1-1.51,1.578c-.255.237-.514.47-.78.694-.111.093-.224.182-.335.274.33-.273-.068.047-.156.1a1.878,1.878,0,0,1-.706.311c-.2.061-.4.105-.6.147-.243.05.324-.014-.084.014-.129.009-.255.018-.384.021a4.859,4.859,0,0,1-.627-.033c.3.036-.27-.066-.359-.09-.181-.048-.357-.109-.532-.172-.224-.082.286.148-.07-.03-.113-.056-.227-.109-.339-.17-.187-.1-.37-.211-.548-.329-.09-.059-.178-.122-.267-.184-.049-.034-.269-.211-.083-.059a10.7,10.7,0,0,1-.985-.91c-.158-.165-.311-.335-.46-.508q-.111-.131-.22-.265c-.033-.041-.216-.272-.081-.1-.295-.383-.568-.785-.826-1.195a19.687,19.687,0,0,1-1.265-2.358,31.545,31.545,0,0,1-2.177-6.9q-.089-.449-.165-.9c-.018-.106-.036-.212-.051-.319.037.25,0-.041-.009-.1a8.182,8.182,0,0,1-.025-1.349c.005-.081.015-.163.021-.244.028-.394-.065.278.014-.1.04-.19.074-.38.125-.568.044-.164.1-.323.152-.485.025-.076.13-.31,0-.027.046-.1.092-.2.142-.3a5.42,5.42,0,0,1,.272-.47c.039-.06.081-.117.12-.178.193-.3-.193.2.044-.058a6.982,6.982,0,0,1,.774-.755c-.264.214.18-.115.259-.165.161-.1.326-.192.494-.277.069-.034.139-.066.208-.1.342-.168-.266.082.1-.041.192-.064.38-.134.575-.189q.364-.1.737-.173c.085-.016.171-.03.256-.043-.3.049.239-.025.293-.03a7.476,7.476,0,0,1,1.524.006c-.231-.028,0,0,.042.011.16.035.319.065.477.107.113.029.224.062.333.1.006,0,.412.154.182.057a6.1,6.1,0,0,1,.715.391c.032.018.214.155.042.019.123.1.228.209.342.315.042.039.23.257.081.07a2.8,2.8,0,0,1,.219.334c-.007-.014.175.375.1.191-.048-.122.063.255.074.3-.015-.065,0-.27-.008-.012,0,.121,0,.242-.006.364.017-.326-.016.048-.031.109a3.378,3.378,0,0,1-.109.351c.089-.241.022-.049-.008,0-.073.121-.137.245-.218.363-.12.175.222-.2-.042.042-.087.078-.164.166-.255.24.25-.2-.052.008-.1.037-.232.15.208-.046-.081.027-.252.064-.013.014.041.01-.09.006-.53-.056-.208.009v2.7c.031,0,.382-.053.241-.035-.126.016.259-.028.25-.027.22-.022.44-.039.661-.049s.439-.011.658,0c.12,0,.24.014.359.026.236.023-.18-.038.049.009.113.024.226.046.338.077.03.008.361.116.22.061-.117-.045.115.057.139.069a2.377,2.377,0,0,1,.287.175c-.155-.114.026.034.08.089.026.027.2.245.1.1-.106-.157.051.109.069.141-.089-.149-.053-.137,0,.021.01.034.07.273.03.079s0,.091,0,.14c0,.072-.012.147-.008.219-.016-.279.021-.1-.009.012-.026.1-.187.526-.057.252a3.915,3.915,0,0,1-.281.49c.065-.1.113-.122.01-.018-.065.065-.129.133-.2.2-.108.108-.174.119-.018.024-.061.037-.128.074-.185.115-.251.18.145-.034-.013.015-.083.026-.181.042-.26.074.1-.039.224,0,.045-.01-.114,0-.223,0-.338-.016l.706,2.6c-.231.1.176-.048.262-.068s.165-.037.248-.052c-.14.025-.12.006.009.006.191,0,.381-.006.572.009.216.017-.2-.047.006.006.081.02.164.035.245.057s.16.049.24.075c.2.063-.174-.094.01,0l.217.117c.023.013.236.153.111.062s.07.063.092.085c.058.057.114.114.169.174.133.145-.094-.167,0,.009a3.075,3.075,0,0,1,.149.269c-.109-.255-.009.324-.011,0,0,.08,0,.159,0,.239,0-.129.043-.161,0-.016-.024.077-.044.156-.066.232.037-.125.066-.116,0,0-.046.08-.283.418-.118.224-.06.069-.367.354-.153.19-.077.06-.166.1-.247.156-.172.116.2-.1.02,0-.025.014-.279.084-.087.041s-.072.031-.093,0q-.121-.006.017.01c.091.016.1.015.016,0a1.829,1.829,0,0,0-.281-.1,1.4,1.4,0,0,0-1.719.976,1.434,1.434,0,0,0,.976,1.719c2.6,1.07,5.147-2.087,4.4-4.514a4.1,4.1,0,0,0-2.709-2.587,5.079,5.079,0,0,0-3.677.27,1.4,1.4,0,0,0-.642,1.578,1.458,1.458,0,0,0,1.347,1.025c2.578.268,4.583-2.638,4-5.008a3.928,3.928,0,0,0-2.805-2.7,9.6,9.6,0,0,0-4.108-.017c-1.365.2-1.3,2.436,0,2.7,2.584.514,4.762-1.9,4.536-4.428-.25-2.782-3-4.281-5.519-4.512a8.9,8.9,0,0,0-6.2,1.777,7.164,7.164,0,0,0-2.572,5.231,13.543,13.543,0,0,0,.387,3.595,33.029,33.029,0,0,0,1.162,4.242,24.115,24.115,0,0,0,3.268,6.585,10.351,10.351,0,0,0,5.34,4.12,6.474,6.474,0,0,0,3.47-.038,6.4,6.4,0,0,0,2.382-1.331,19.165,19.165,0,0,0,2.087-2,3.914,3.914,0,0,0,1.26-2.85,3.1,3.1,0,0,0-1.677-2.834,7.354,7.354,0,0,0-1.429-.5c-.24-.063-.481-.125-.72-.2-.1-.032-.21-.065-.315-.1-.062-.021-.508-.206-.188-.065a1.442,1.442,0,0,0-1.912.5,1.408,1.408,0,0,0,.5,1.912" transform="translate(-1527.743 -841.502)" fill="#24221e"/>
        <path id="패스_2173" data-name="패스 2173" d="M1643.739,986.864c1.176,1.674,1.112,3.878,3.787,2.935.722-.255,2.83-3.6,3.041-4.4,1.306-4.934-4.1-7.707-8.2-8.728a33.055,33.055,0,0,0-8.722-.973c-4.572.1-7.043,3.269-6.265,7.859.311,1.841,1.48,3.716,3.305,4.109s3.932-1.527,3.184-3.239c.056,1.7.286,3.7,1.766,4.536,1.738.981,4.215-1.049,3.595-2.945-.419,1.627.483,3.634,2.13,3.97s3.343-1.752,2.378-3.127" transform="translate(-1542.051 -845.816)" fill="#ffe3d4"/>
        <path id="패스_2174" data-name="패스 2174" d="M1642.179,987.216c.486.71.749,1.534,1.2,2.259a3.126,3.126,0,0,0,2.644,1.595,3.544,3.544,0,0,0,2.68-1.083,15.47,15.47,0,0,0,1.639-2.221,10.566,10.566,0,0,0,1.17-2.208,6.566,6.566,0,0,0,.167-3.227,7.992,7.992,0,0,0-3.56-4.877,17.234,17.234,0,0,0-5.511-2.424,33.908,33.908,0,0,0-9.126-1.083,8.417,8.417,0,0,0-5.887,2.178,7.655,7.655,0,0,0-2.107,5.592c.04,2.776,1.242,5.863,4.073,6.834,2.743.941,6.514-1.8,5.3-4.845a1.415,1.415,0,0,0-1.533-1,1.392,1.392,0,0,0-1.212,1.373c.092,2.525.783,5.828,3.829,6.164a4.084,4.084,0,0,0,4.277-4.945,1.409,1.409,0,0,0-2.7,0c-.587,2.485.839,5.509,3.6,5.759,2.6.235,4.97-2.924,3.463-5.25a1.429,1.429,0,0,0-1.912-.5,1.413,1.413,0,0,0-.5,1.912,2.255,2.255,0,0,1,.123.206c-.054-.106-.065-.153-.024-.01-.038-.129.024-.189-.009-.038s0,.077.024-.034c-.015.075-.039.149-.053.223-.059.315.071-.109-.013.045-.038.069-.081.137-.119.207-.1.174.136-.143,0,.007-.054.061-.11.119-.167.177-.019.02-.211.181-.09.089s-.366.2-.211.129-.4.086-.222.065-.079,0-.112-.007c-.192-.021.289.113-.052-.013-.077-.029-.159-.045-.235-.074.131.05.1.058,0-.013-.066-.046-.138-.084-.205-.129.112.075.085.082,0-.01-.06-.064-.331-.381-.185-.177-.1-.137-.174-.283-.258-.426-.058-.1-.062-.145-.012-.013-.03-.079-.058-.16-.082-.24-.031-.1-.055-.205-.079-.309-.007-.029-.042-.287-.026-.129s0-.1,0-.132c0-.085,0-.169,0-.255,0-.029.025-.291,0-.129-.024.179.045-.188.045-.186h-2.7c.011.04.078.362.051.163-.024-.177,0,.069,0,.1-.006.166-.045.206.005.028-.021.073-.042.149-.059.223-.076.324.073-.119-.017.042-.048.086-.1.169-.148.253-.067.115-.084.1,0,0-.067.074-.137.145-.206.217-.041.043-.258.212-.039.051-.064.047-.131.092-.2.133-.085.052-.174.1-.262.143-.179.092.2-.057.006-.007-.094.024-.188.052-.282.078-.165.046-.085-.013.027,0a1.634,1.634,0,0,0-.287,0c-.192.024.316.036-.026-.018-.131-.021-.118-.044,0,.016a2.968,2.968,0,0,1-.275-.162c-.179-.113.125.125-.023-.02-.076-.075-.152-.149-.224-.228.094.1.046.073-.012-.021s-.109-.184-.164-.276c-.024-.04-.147-.307-.051-.081-.034-.081-.063-.166-.091-.25a6.092,6.092,0,0,1-.176-.657c-.019-.09-.034-.181-.052-.271-.05-.251,0,.04-.02-.112-.054-.434-.077-.871-.093-1.308l-2.745.371a2.859,2.859,0,0,1,.116.36c-.029-.115.041-.2-.01-.01-.105.379.122-.276-.007.1-.026.076-.043.153-.071.23.124-.341-.279.382-.078.13a2.368,2.368,0,0,1-.172.19c-.06.062-.123.12-.187.177q.145-.1.025-.02a2.945,2.945,0,0,1-.276.174c.014-.007-.366.165-.188.1s-.221.059-.2.055a2.083,2.083,0,0,1-.254.053c.344-.043-.49-.1-.157-.019-.136-.032-.267-.068-.4-.113.216.073-.12-.057-.164-.081-.08-.044-.154-.094-.233-.139-.333-.186.131.149-.152-.109a5.668,5.668,0,0,1-.437-.439c-.169-.19.166.259-.082-.1-.067-.1-.132-.195-.193-.3a5.252,5.252,0,0,1-.363-.693c.084.2-.025-.085-.042-.133-.039-.113-.075-.225-.108-.34a6.536,6.536,0,0,1-.157-.689c-.016-.093-.031-.186-.043-.279.037.288-.012-.159-.014-.176-.019-.22-.031-.442-.033-.663s0-.425.014-.637c.007-.124.021-.247.032-.371-.006.054-.05.279,0,.011a9.458,9.458,0,0,1,.322-1.232c.019-.06.1-.248-.015.023.037-.085.076-.168.116-.251.082-.163.169-.322.267-.477.054-.087.323-.452.123-.2a5.58,5.58,0,0,1,.431-.481c.128-.127.265-.245.4-.36-.257.214.177-.115.255-.164.143-.09.29-.173.439-.25.086-.044.172-.083.258-.125.288-.138-.185.053.1-.037a9.863,9.863,0,0,1,1.179-.323c.085-.016.169-.03.253-.043-.313.051.118-.013.151-.015.26-.025.518-.036.779-.042a31.319,31.319,0,0,1,7.51.748,21.789,21.789,0,0,1,2.574.728q.293.1.582.218c.03.012.414.17.131.05l.231.1c.4.18.8.375,1.184.589.345.191.683.4,1.009.62.071.05.524.388.308.216.188.15.371.306.547.469q.217.2.417.417c.053.057.1.115.156.174,0,0,.241.292.111.127s.1.134.1.135c.055.078.107.157.157.237.112.177.2.362.3.544.173.315-.062-.179.017.028.034.088.067.176.1.266a5.062,5.062,0,0,1,.147.55c.015.076.028.152.041.228-.058-.349,0,.037,0,.1a5.215,5.215,0,0,1,0,.607c0,.04-.049.45,0,.133-.012.086-.028.173-.045.259-.032.163-.078.322-.119.483-.074.293.16-.316-.009.019-.078.154-.156.309-.238.461a20.281,20.281,0,0,1-1.3,2.067c-.065.089-.131.177-.195.267-.211.291.185-.216-.036.046-.117.139-.231.282-.356.415-.057.061-.377.371-.167.181.175-.159.07-.049.01-.018.512-.257.115-.054-.034-.011-.11.031-.221.056-.333.08s-.084.018.07-.006c-.073.006-.147.01-.22.009-.12.014-.188-.076.075.023-.048-.018-.387-.147-.172-.036s-.026-.034-.056-.053c.3.191.1.089.026,0-.021-.026-.2-.249-.059-.06s-.072-.129-.093-.164c-.422-.708-.687-1.493-1.156-2.178a1.434,1.434,0,0,0-1.912-.5,1.411,1.411,0,0,0-.5,1.912" transform="translate(-1541.698 -845.464)" fill="#24221e"/>
        <path id="패스_2175" data-name="패스 2175" d="M1568.732,836.237l4.568,4.1a1.4,1.4,0,1,0,1.976-1.976l-4.568-4.1a1.4,1.4,0,0,0-1.976,1.976" transform="translate(-1530.182 -817.24)" fill="#24221e"/>
        <path id="패스_2176" data-name="패스 2176" d="M1562.883,852.2a12.762,12.762,0,0,1,1.379.482l-.334-.141a12.408,12.408,0,0,1,2.72,1.581l-.283-.219c.142.11.281.223.419.339a1.493,1.493,0,0,0,.988.409,1.4,1.4,0,0,0,.988-2.385,13.923,13.923,0,0,0-5.134-2.76,1.4,1.4,0,0,0-.743,2.7" transform="translate(-1528.88 -820.383)" fill="#24221e"/>
        <path id="패스_2177" data-name="패스 2177" d="M1557.219,868.325l4.523,1.342a1.411,1.411,0,0,0,1.718-.976,1.426,1.426,0,0,0-.976-1.719l-4.523-1.342a1.412,1.412,0,0,0-1.719.976,1.426,1.426,0,0,0,.977,1.719" transform="translate(-1527.738 -823.631)" fill="#24221e"/>
        <path id="패스_2178" data-name="패스 2178" d="M1553.767,888.229l4.163,1.386a1.408,1.408,0,0,0,1.719-.976,1.431,1.431,0,0,0-.976-1.719l-4.163-1.386a1.408,1.408,0,0,0-1.719.976,1.431,1.431,0,0,0,.977,1.719" transform="translate(-1527.042 -827.64)" fill="#24221e"/>
        <path id="패스_2179" data-name="패스 2179" d="M1553.271,907.8l4.5.417a1.4,1.4,0,0,0,.988-.41,1.4,1.4,0,0,0,0-1.976,1.576,1.576,0,0,0-.988-.41l-4.5-.417a1.4,1.4,0,0,0-.988.41,1.4,1.4,0,0,0,0,1.976,1.579,1.579,0,0,0,.988.41" transform="translate(-1526.866 -831.574)" fill="#24221e"/>
        <path id="패스_2180" data-name="패스 2180" d="M1553.737,926.5a9.545,9.545,0,0,0,2.705.088,10.428,10.428,0,0,0,1.48-.272,10.843,10.843,0,0,0,1.4-.516,1.394,1.394,0,0,0,.642-.835,1.425,1.425,0,0,0-.141-1.077,1.408,1.408,0,0,0-.835-.642,1.635,1.635,0,0,0-1.076.141l-.074.032.334-.141a8.316,8.316,0,0,1-2.019.555l.371-.05a8.364,8.364,0,0,1-2.174.008l.371.05-.24-.036a1.523,1.523,0,0,0-1.076.141,1.4,1.4,0,0,0-.5,1.912,1.352,1.352,0,0,0,.835.642" transform="translate(-1527.036 -835.242)" fill="#24221e"/>
        <path id="패스_2181" data-name="패스 2181" d="M1558.432,943.166l5.184-1.128a1.407,1.407,0,0,0,.977-1.719,1.43,1.43,0,0,0-1.719-.977l-5.184,1.127a1.407,1.407,0,0,0-.976,1.719,1.429,1.429,0,0,0,1.719.976" transform="translate(-1527.83 -838.485)" fill="#24221e"/>
        <path id="패스_2182" data-name="패스 2182" d="M1585.033,980.258a15.544,15.544,0,0,0-2.322,1.619,11.735,11.735,0,0,0-1.845,1.727,1.509,1.509,0,0,0-.41.988,1.42,1.42,0,0,0,.41.989,1.4,1.4,0,0,0,.988.409,1.356,1.356,0,0,0,.988-.409,12.514,12.514,0,0,1,2.115-1.938l-.283.218a12.886,12.886,0,0,1,1.77-1.19,1.409,1.409,0,0,0,.5-1.912,1.428,1.428,0,0,0-1.912-.5" transform="translate(-1532.625 -846.7)" fill="#24221e"/>
        <path id="패스_2183" data-name="패스 2183" d="M1599.454,994.368l-1.828,3.771a1.5,1.5,0,0,0-.141,1.076,1.4,1.4,0,0,0,2.554.334q.914-1.884,1.827-3.77a1.491,1.491,0,0,0,.141-1.077,1.4,1.4,0,0,0-2.554-.334" transform="translate(-1536.047 -849.443)" fill="#24221e"/>
        <path id="패스_2184" data-name="패스 2184" d="M1635.671,1006.338q-.22,2.076-.441,4.152a1.4,1.4,0,0,0,.41.988,1.4,1.4,0,0,0,1.976,0,1.6,1.6,0,0,0,.409-.988q.221-2.076.441-4.152a1.4,1.4,0,0,0-.41-.989,1.4,1.4,0,0,0-1.976,0,1.6,1.6,0,0,0-.409.989" transform="translate(-1543.66 -851.709)" fill="#24221e"/>
        <path id="패스_2185" data-name="패스 2185" d="M1618.082,1001.2l-1.385,4.857a1.4,1.4,0,0,0,2.7.743q.693-2.429,1.385-4.857a1.4,1.4,0,1,0-2.695-.743" transform="translate(-1539.917 -850.75)" fill="#24221e"/>
        <path id="패스_2186" data-name="패스 2186" d="M1654.6,1006.661a22.373,22.373,0,0,1,.433,2.28c-.017-.123-.034-.248-.051-.371q.1.781.153,1.566a1.484,1.484,0,0,0,.408.988,1.4,1.4,0,0,0,2.387-.988,24.049,24.049,0,0,0-.635-4.218,1.4,1.4,0,1,0-2.695.744" transform="translate(-1547.554 -851.698)" fill="#24221e"/>
        <path id="패스_2187" data-name="패스 2187" d="M1673.69,1004.053l1.222,4.211a1.4,1.4,0,1,0,2.7-.743l-1.222-4.211a1.4,1.4,0,0,0-2.7.743" transform="translate(-1551.399 -851.173)" fill="#24221e"/>
        <path id="패스_2188" data-name="패스 2188" d="M1580.6,1019.831l3.113,3.13a1.439,1.439,0,0,0,.989.41,1.42,1.42,0,0,0,.989-.41,1.4,1.4,0,0,0,.409-.988,1.46,1.46,0,0,0-.409-.988l-3.113-3.131a1.443,1.443,0,0,0-.989-.409,1.4,1.4,0,0,0-1.4,1.4,1.459,1.459,0,0,0,.41.988" transform="translate(-1532.571 -854.229)" fill="#24221e"/>
        <path id="패스_2189" data-name="패스 2189" d="M1574.313,1034.427l3.363,2.368a1.412,1.412,0,0,0,1.077.141,1.427,1.427,0,0,0,.835-.642,1.409,1.409,0,0,0,.141-1.077,1.576,1.576,0,0,0-.642-.835l-3.363-2.368a1.412,1.412,0,0,0-1.076-.141,1.429,1.429,0,0,0-.835.642,1.409,1.409,0,0,0-.14,1.077,1.577,1.577,0,0,0,.642.835" transform="translate(-1531.247 -857.126)" fill="#24221e"/>
        <path id="패스_2190" data-name="패스 2190" d="M1571.083,1050.308a10.049,10.049,0,0,1,2.507.014l-.372-.05q.448.061.888.161a1.473,1.473,0,0,0,1.076-.141,1.4,1.4,0,0,0-.334-2.554,11.1,11.1,0,0,0-3.765-.224,1.527,1.527,0,0,0-.988.41,1.4,1.4,0,0,0,0,1.975,1.341,1.341,0,0,0,.988.41" transform="translate(-1530.454 -860.272)" fill="#24221e"/>
        <path id="패스_2191" data-name="패스 2191" d="M1571.1,1066.821l4.195-1.187a1.4,1.4,0,0,0-.743-2.7l-4.194,1.187a1.4,1.4,0,1,0,.743,2.7" transform="translate(-1530.383 -863.384)" fill="#24221e"/>
      </g>
    </g>
    <g id="마스크_그룹_113" data-name="마스크 그룹 113" transform="translate(-342.848 221.896) rotate(-16)" clip-path="url(#clip-path-2)">
      <path id="free-icon-musical-note-727218" d="M20.524,15.9a10.384,10.384,0,0,0,1.392-4.572,6.382,6.382,0,0,0-.673-3.171,8.964,8.964,0,0,0-3.46-3.408,9.782,9.782,0,0,1-2.558-2.16l-.117-.158a4.257,4.257,0,0,1-.892-1.6A.972.972,0,0,0,13.2,0,.959.959,0,0,0,12.3.959V18.1a5.563,5.563,0,0,0-2.885-.789c-2.65,0-4.808,1.725-4.808,3.846S6.767,25,9.418,25s4.808-1.725,4.808-3.846V9.945a6.922,6.922,0,0,1,4.458,5.241,5.424,5.424,0,0,1-.371.525.961.961,0,0,0,1.442,1.269,7.149,7.149,0,0,0,.706-.992A.605.605,0,0,0,20.524,15.9Z" transform="translate(1681.232 439)"/>
    </g>
    <g id="마스크_그룹_111" data-name="마스크 그룹 111" transform="matrix(0.966, 0.259, -0.259, 0.966, 182.521, -383.752)" clip-path="url(#clip-path-3)">
      <path id="free-icon-musical-note-727218-2" data-name="free-icon-musical-note-727218" d="M20.524,15.9a10.384,10.384,0,0,0,1.392-4.572,6.382,6.382,0,0,0-.673-3.171,8.964,8.964,0,0,0-3.46-3.408,9.782,9.782,0,0,1-2.558-2.16l-.117-.158a4.257,4.257,0,0,1-.892-1.6A.972.972,0,0,0,13.2,0,.959.959,0,0,0,12.3.959V18.1a5.563,5.563,0,0,0-2.885-.789c-2.65,0-4.808,1.725-4.808,3.846S6.767,25,9.418,25s4.808-1.725,4.808-3.846V9.945a6.922,6.922,0,0,1,4.458,5.241,5.424,5.424,0,0,1-.371.525.961.961,0,0,0,1.442,1.269,7.149,7.149,0,0,0,.706-.992A.605.605,0,0,0,20.524,15.9Z" transform="translate(1451.232 207)"/>
    </g>
  </g>
</svg>
