<svg xmlns="http://www.w3.org/2000/svg" width="15.334" height="23" viewBox="0 0 15.334 23">
  <g id="_" data-name="????" transform="translate(-362.801 -287.66)">
    <g id="패스_2184" data-name="패스 2184" transform="translate(0 0)" fill="#f03a17" fill-rule="evenodd">
      <path d="M 371.3715209960938 303.5971069335938 L 368.4017028808594 303.5971069335938 C 368.4677124023438 302.1842041015625 368.6307373046875 300.8646545410156 369.3126220703125 299.9113159179688 C 369.7333984375 299.3243408203125 370.3907775878906 298.8297729492188 371.0867919921875 298.3061828613281 C 371.652587890625 297.8805541992188 372.2376098632812 297.4403991699219 372.7055969238281 296.93115234375 C 373.96044921875 295.5587768554688 374.3926696777344 294.2823791503906 373.9563598632812 293.2391052246094 C 373.5096130371094 292.1823425292969 372.2887573242188 291.5773010253906 370.6061401367188 291.5773010253906 C 370.3541564941406 291.5773010253906 370.09375 291.59130859375 369.8321228027344 291.6189880371094 C 368.1848754882812 291.7941589355469 367.0738220214844 292.9032592773438 366.8441772460938 294.55615234375 L 363.3343505859375 294.55615234375 C 363.4978942871094 292.6474609375 364.0796813964844 291.1512145996094 365.0669860839844 290.1035461425781 C 366.1463317871094 288.9581604003906 367.7481079101562 288.3124084472656 369.8278503417969 288.1842346191406 C 370.0843811035156 288.1680908203125 370.3415222167969 288.1599426269531 370.5927124023438 288.1599426269531 C 373.0756530761719 288.1599426269531 375.1236267089844 288.9201049804688 376.3594055175781 290.3004455566406 C 377.3721618652344 291.4316711425781 377.7852783203125 292.9109191894531 377.5872497558594 294.6971130371094 C 377.4189758300781 296.1932678222656 376.3917541503906 297.1934509277344 375.442138671875 298.0133972167969 C 375.0693969726562 298.3335571289062 374.6542358398438 298.6181640625 374.2527770996094 298.8934020996094 C 373.4968872070312 299.41162109375 372.7152404785156 299.9474792480469 372.1091613769531 300.7739562988281 C 371.5804138183594 301.4967041015625 371.439208984375 302.4770202636719 371.3715209960938 303.5971069335938 Z" stroke="none"/>
      <path d="M 370.591796875 288.6599426269531 C 370.3516235351562 288.6599426269531 370.1053771972656 288.6677551269531 369.8586120605469 288.6832885742188 C 367.9098815917969 288.8034057617188 366.4201965332031 289.3966064453125 365.4308776855469 290.4464416503906 C 364.616455078125 291.3106689453125 364.1007995605469 292.5218505859375 363.8923034667969 294.05615234375 L 366.4270629882812 294.05615234375 C 366.8093872070312 292.4030456542969 368.0311889648438 291.3076782226562 369.779541015625 291.1217651367188 C 370.0585327148438 291.0922546386719 370.3366394042969 291.0773010253906 370.6061401367188 291.0773010253906 C 372.4994201660156 291.0773010253906 373.8881225585938 291.7936096191406 374.4176635742188 293.0461730957031 C 374.7781066894531 293.9081115722656 374.8378295898438 295.3401489257812 373.0737609863281 297.2694396972656 C 372.5747985839844 297.8124389648438 371.9711303710938 298.2665710449219 371.3873596191406 298.7057495117188 C 370.7228393554688 299.2056579589844 370.0951538085938 299.6778869628906 369.7192993164062 300.2021789550781 C 369.2248229980469 300.8935241699219 369.0251159667969 301.818115234375 368.9330139160156 303.0971069335938 L 370.9065246582031 303.0971069335938 C 370.9942321777344 302.0888061523438 371.1810302734375 301.19580078125 371.7059631347656 300.478271484375 C 372.3623352050781 299.5831909179688 373.1796569824219 299.0228881835938 373.9700317382812 298.4810180664062 C 374.3784484863281 298.2010192871094 374.7642211914062 297.9365539550781 375.1153564453125 297.6349487304688 C 376.0335083007812 296.8421630859375 376.9422912597656 295.9579467773438 377.0903015136719 294.6420288085938 C 377.27197265625 293.0032958984375 376.9007568359375 291.6548461914062 375.9869689941406 290.6341247558594 C 374.8638916015625 289.3796081542969 372.8977355957031 288.6600341796875 370.5921325683594 288.6599426269531 L 370.591796875 288.6599426269531 M 370.5927124023438 287.6599426269531 C 375.0043640136719 287.6601257324219 378.6070556640625 290.0358581542969 378.084228515625 294.752197265625 C 377.8968505859375 296.4179077148438 376.8057250976562 297.49658203125 375.7688903808594 298.391845703125 C 374.6779174804688 299.3289184570312 373.3827514648438 299.8827514648438 372.5123596191406 301.0696411132812 C 371.9793090820312 301.7982788085938 371.9001770019531 302.9227294921875 371.8460693359375 304.0971069335938 L 367.8815307617188 304.0971069335938 C 367.9440002441406 302.2605590820312 368.08984375 300.7614135742188 368.9059448242188 299.6204223632812 C 369.7388610839844 298.45849609375 371.3463439941406 297.67138671875 372.3374328613281 296.5928344726562 C 372.8704528808594 296.0098876953125 373.9949340820312 294.6272583007812 373.4950866699219 293.4320068359375 C 373.028564453125 292.3285827636719 371.5003356933594 291.9452514648438 369.8847045898438 292.1162109375 C 368.2396240234375 292.2911376953125 367.3568115234375 293.4736938476562 367.3027038574219 295.05615234375 L 362.801025390625 295.05615234375 C 363.0050964355469 290.48779296875 365.3371276855469 287.9600830078125 369.7970886230469 287.6851806640625 C 370.0648803710938 287.6683349609375 370.3299560546875 287.659912109375 370.5927124023438 287.6599426269531 Z" stroke="none" fill="#000"/>
    </g>
    <g id="패스_2185" data-name="패스 2185" transform="translate(3.49 13.73)" fill="#f03a17" fill-rule="evenodd">
      <path d="M 366.4069519042969 296.4297485351562 C 365.3025512695312 296.4297485351562 364.4040832519531 295.5481262207031 364.4040832519531 294.4644470214844 C 364.4040832519531 293.3807373046875 365.3025512695312 292.4990539550781 366.4069519042969 292.4990539550781 C 367.5135192871094 292.4990539550781 368.4137878417969 293.3807373046875 368.4137878417969 294.4644470214844 C 368.4137878417969 295.5481262207031 367.5135192871094 296.4297485351562 366.4069519042969 296.4297485351562 Z" stroke="none"/>
      <path d="M 366.4069519042969 292.9990539550781 C 365.5782775878906 292.9990539550781 364.9040832519531 293.6564331054688 364.9040832519531 294.4644470214844 C 364.9040832519531 295.2724304199219 365.5782775878906 295.9297485351562 366.4069519042969 295.9297485351562 C 367.2378234863281 295.9297485351562 367.9137878417969 295.2724304199219 367.9137878417969 294.4644470214844 C 367.9137878417969 293.6564331054688 367.2378234863281 292.9990539550781 366.4069519042969 292.9990539550781 M 366.4069519042969 291.9990539550781 C 367.7894592285156 291.9990539550781 368.9137878417969 293.1027221679688 368.9137878417969 294.4644470214844 C 368.9137878417969 295.8262023925781 367.7894592285156 296.9297485351562 366.4069519042969 296.9297485351562 C 365.0242919921875 296.9297485351562 363.9040832519531 295.8262023925781 363.9040832519531 294.4644470214844 C 363.9040832519531 293.1027221679688 365.0242919921875 291.9990539550781 366.4069519042969 291.9990539550781 Z" stroke="none" fill="#000"/>
    </g>
  </g>
</svg>
