<svg xmlns="http://www.w3.org/2000/svg" xmlns:xlink="http://www.w3.org/1999/xlink" width="30" height="30" viewBox="0 0 30 30">
  <defs>
    <clipPath id="clip-path">
      <rect id="사각형_1006" data-name="사각형 1006" width="30" height="30" transform="translate(449 1230)" fill="#fff"/>
    </clipPath>
  </defs>
  <g id="btn_download" transform="translate(-456 -1153)">
    <g id="ico_download" transform="translate(7 -77)" clip-path="url(#clip-path)">
      <g id="download_1_" data-name="download (1)" transform="translate(449 1230)">
        <g id="그룹_861" data-name="그룹 861" transform="translate(10)">
          <g id="그룹_860" data-name="그룹 860">
            <path id="패스_1670" data-name="패스 1670" d="M19.869,14.441a1.251,1.251,0,0,0-1.119-.691h-2.5V1.25a1.25,1.25,0,0,0-2.5,0v12.5h-2.5a1.25,1.25,0,0,0-1,2l3.75,5c.016.021.041.029.059.049a1.22,1.22,0,0,0,.289.241,1.286,1.286,0,0,0,.129.086,1.173,1.173,0,0,0,1.049,0,1.269,1.269,0,0,0,.128-.086,1.22,1.22,0,0,0,.289-.241c.016-.02.042-.027.059-.049l3.75-5A1.249,1.249,0,0,0,19.869,14.441Z" transform="translate(-10 0)" fill="#fff"/>
          </g>
        </g>
        <g id="그룹_863" data-name="그룹 863" transform="translate(0 18.75)">
          <g id="그룹_862" data-name="그룹 862">
            <path id="패스_1671" data-name="패스 1671" d="M28.75,18.75A1.25,1.25,0,0,0,27.5,20v3.75a3.755,3.755,0,0,1-3.75,3.75H6.25A3.755,3.755,0,0,1,2.5,23.75V20A1.25,1.25,0,0,0,0,20v3.75A6.257,6.257,0,0,0,6.25,30h17.5A6.257,6.257,0,0,0,30,23.75V20A1.25,1.25,0,0,0,28.75,18.75Z" transform="translate(0 -18.75)" fill="#fff"/>
          </g>
        </g>
      </g>
    </g>
  </g>
</svg>
