<svg xmlns="http://www.w3.org/2000/svg" xmlns:xlink="http://www.w3.org/1999/xlink" width="25" height="25" viewBox="0 0 25 25">
  <defs>
    <clipPath id="clip-path">
      <rect id="사각형_1328" data-name="사각형 1328" width="25" height="25" transform="translate(644 411)" fill="#fff" stroke="#707070" stroke-width="1"/>
    </clipPath>
  </defs>
  <g id="마스크_그룹_163" data-name="마스크 그룹 163" transform="translate(-644 -411)" clip-path="url(#clip-path)">
    <g id="타원_495" data-name="타원 495" transform="translate(648 414)" fill="#fff" stroke="#6f57cf" stroke-width="2">
      <circle cx="4.5" cy="4.5" r="4.5" stroke="none"/>
      <circle cx="4.5" cy="4.5" r="3.5" fill="none"/>
    </g>
    <g id="타원_496" data-name="타원 496" transform="translate(659 415)" fill="#fff" stroke="#6f57cf" stroke-width="2">
      <circle cx="3.5" cy="3.5" r="3.5" stroke="none"/>
      <circle cx="3.5" cy="3.5" r="2.5" fill="none"/>
    </g>
    <g id="사각형_1327" data-name="사각형 1327" transform="translate(656 423)" fill="#fff" stroke="#6f57cf" stroke-width="2">
      <path d="M6,0H7a6,6,0,0,1,6,6V6a0,0,0,0,1,0,0H0A0,0,0,0,1,0,6V6A6,6,0,0,1,6,0Z" stroke="none"/>
      <path d="M4.92,1H8.08A3.92,3.92,0,0,1,12,4.92v0a.08.08,0,0,1-.08.08H1.08A.08.08,0,0,1,1,4.92v0A3.92,3.92,0,0,1,4.92,1Z" fill="none"/>
    </g>
    <g id="사각형_1326" data-name="사각형 1326" transform="translate(644 424)" fill="#fff" stroke="#6f57cf" stroke-width="2">
      <path d="M8,0H9a8,8,0,0,1,8,8V8a0,0,0,0,1,0,0H0A0,0,0,0,1,0,8V8A8,8,0,0,1,8,0Z" stroke="none"/>
      <path d="M6.88,1h3.24A5.88,5.88,0,0,1,16,6.88v0a.12.12,0,0,1-.12.12H1.12A.12.12,0,0,1,1,6.88v0A5.88,5.88,0,0,1,6.88,1Z" fill="none"/>
    </g>
  </g>
</svg>
