<svg xmlns="http://www.w3.org/2000/svg" xmlns:xlink="http://www.w3.org/1999/xlink" width="65" height="65" viewBox="0 0 65 65">
  <defs>
    <clipPath id="clip-path">
      <rect id="사각형_117" data-name="사각형 117" width="35" height="35" rx="10" fill="#6f57cf"/>
    </clipPath>
  </defs>
  <g id="그룹_1289" data-name="그룹 1289" transform="translate(-1550 -688.998)">
    <rect id="bg" width="65" height="65" rx="10" transform="translate(1550 688.998)" fill="#f0eefa"/>
    <g id="icon_쉬는시간_알림" data-name="icon_쉬는시간 알림" transform="translate(1565 703.998)" clip-path="url(#clip-path)">
      <g id="bell_2_" data-name="bell (2)" transform="translate(1.458)">
        <path id="패스_81" data-name="패스 81" d="M34.559,15.91a1.094,1.094,0,0,1-1.094-1.094A15.578,15.578,0,0,0,28.874,3.73a1.094,1.094,0,0,1,1.547-1.547,17.754,17.754,0,0,1,5.231,12.633,1.094,1.094,0,0,1-1.094,1.094Zm0,0" transform="translate(-3.569 -0.233)" fill="#6f57cf"/>
        <path id="패스_82" data-name="패스 82" d="M1.094,15.91A1.094,1.094,0,0,1,0,14.816,17.745,17.745,0,0,1,5.232,2.184,1.094,1.094,0,0,1,6.78,3.732,15.567,15.567,0,0,0,2.188,14.816,1.094,1.094,0,0,1,1.094,15.91Zm0,0" transform="translate(0 -0.233)" fill="#6f57cf"/>
        <path id="패스_83" data-name="패스 83" d="M17.552,39.062a5.475,5.475,0,0,1-5.469-5.469,1.094,1.094,0,0,1,2.188,0,3.281,3.281,0,1,0,6.562,0,1.094,1.094,0,0,1,2.188,0A5.475,5.475,0,0,1,17.552,39.062Zm0,0" transform="translate(-1.51 -4.062)" fill="#6f57cf"/>
        <path id="패스_84" data-name="패스 84" d="M28.281,31.25H4.219a2.553,2.553,0,0,1-1.66-4.492,9.774,9.774,0,0,0,3.482-7.484V15.208a10.208,10.208,0,0,1,20.417,0v4.066a9.771,9.771,0,0,0,3.468,7.474,2.551,2.551,0,0,1-1.645,4.5ZM16.25,7.188a8.029,8.029,0,0,0-8.021,8.021v4.066a11.952,11.952,0,0,1-4.244,9.144.364.364,0,0,0-.131.28.369.369,0,0,0,.365.364H28.281a.369.369,0,0,0,.364-.364.359.359,0,0,0-.128-.277,11.956,11.956,0,0,1-4.247-9.147V15.208A8.029,8.029,0,0,0,16.25,7.188Zm0,0" transform="translate(-0.208 -0.625)" fill="#6f57cf"/>
        <path id="패스_85" data-name="패스 85" d="M18.177,6.563a1.094,1.094,0,0,1-1.094-1.094V1.094a1.094,1.094,0,0,1,2.188,0V5.469A1.094,1.094,0,0,1,18.177,6.563Zm0,0" transform="translate(-2.135)" fill="#6f57cf"/>
      </g>
    </g>
  </g>
</svg>
