<svg xmlns="http://www.w3.org/2000/svg" xmlns:xlink="http://www.w3.org/1999/xlink" width="20" height="20" viewBox="0 0 20 20">
  <defs>
    <clipPath id="clip-path">
      <rect id="사각형_1347" data-name="사각형 1347" width="20" height="20" transform="translate(1111 641)" fill="#fff" stroke="#707070" stroke-width="1"/>
    </clipPath>
  </defs>
  <g id="icon_x" transform="translate(-1111 -641)" clip-path="url(#clip-path)">
    <g id="패스_2557" data-name="패스 2557" transform="translate(1110.809 643.696) rotate(-45)" fill="#fff">
      <path d="M 2.040357828140259 24.14366722106934 C 1.814787864685059 24.14366722106934 1.631267786026001 23.96014595031738 1.631267786026001 23.73457717895508 L 1.631267786026001 1.007296442985535 C 1.631267786026001 0.7817264199256897 1.814787864685059 0.5982064008712769 2.040357828140259 0.5982064008712769 C 2.265927791595459 0.5982064008712769 2.449447870254517 0.7817264199256897 2.449447870254517 1.007296442985535 L 2.449447870254517 23.73457717895508 C 2.449447870254517 23.96014595031738 2.265927791595459 24.14366722106934 2.040357828140259 24.14366722106934 Z" stroke="none"/>
      <path d="M 2.040358066558838 0.09820556640625 C 2.54243803024292 0.09820556640625 2.949448108673096 0.5052261352539062 2.949448108673096 1.007295608520508 L 2.949448108673096 23.73456573486328 C 2.949448108673096 24.23664665222168 2.54243803024292 24.64365577697754 2.040358066558838 24.64366722106934 C 1.538278102874756 24.64365577697754 1.13126802444458 24.23664665222168 1.13126802444458 23.73457717895508 L 1.13126802444458 1.007295608520508 C 1.13126802444458 0.5052261352539062 1.538278102874756 0.09820556640625 2.040358066558838 0.09820556640625 Z" stroke="none" fill="#707070"/>
    </g>
    <g id="패스_2558" data-name="패스 2558" transform="translate(1129.036 641.737) rotate(45)" fill="#fff">
      <path d="M 0.8687700033187866 24.00513648986816 C 0.6431999802589417 24.00513648986816 0.4596799910068512 23.82161521911621 0.4596799910068512 23.59604644775391 L 0.4596799910068512 0.868765652179718 C 0.4596799910068512 0.6431956887245178 0.6431999802589417 0.459675669670105 0.8687700033187866 0.459675669670105 C 1.094339966773987 0.459675669670105 1.277860045433044 0.6431956887245178 1.277860045433044 0.868765652179718 L 1.277860045433044 23.59604644775391 C 1.277860045433044 23.82161521911621 1.094339966773987 24.00513648986816 0.8687700033187866 24.00513648986816 Z" stroke="none"/>
      <path d="M 0.8687700033187866 -0.04032516479492188 C 1.370849967002869 -0.04032516479492188 1.777860045433044 0.3666954040527344 1.777860045433044 0.8687648773193359 L 1.777860045433044 23.59604644775391 C 1.777860045433044 24.09811592102051 1.370849967002869 24.50512504577637 0.8687700033187866 24.50512504577637 C 0.3666900396347046 24.50513648986816 -0.04032003879547119 24.09811592102051 -0.04032003879547119 23.59604644775391 L -0.04032003879547119 0.8687648773193359 C -0.04032003879547119 0.3666954040527344 0.3666900396347046 -0.04032516479492188 0.8687700033187866 -0.04032516479492188 Z" stroke="none" fill="#707070"/>
    </g>
  </g>
</svg>
