<svg xmlns="http://www.w3.org/2000/svg" xmlns:xlink="http://www.w3.org/1999/xlink" width="15" height="15" viewBox="0 0 15 15">
  <defs>
    <clipPath id="clip-path">
      <rect id="사각형_534" data-name="사각형 534" width="15" height="15" fill="#454c53" stroke="#707070" stroke-width="1"/>
    </clipPath>
  </defs>
  <g id="ico_search" clip-path="url(#clip-path)">
    <g id="loupe_2_" data-name="loupe (2)">
      <g id="그룹_176" data-name="그룹 176">
        <g id="그룹_175" data-name="그룹 175">
          <path id="패스_779" data-name="패스 779" d="M6.606,0a6.606,6.606,0,1,0,6.606,6.606A6.613,6.613,0,0,0,6.606,0Zm0,11.992a5.386,5.386,0,1,1,5.386-5.386A5.392,5.392,0,0,1,6.606,11.992Z" fill="#454c53"/>
        </g>
      </g>
      <g id="그룹_178" data-name="그룹 178" transform="translate(10.285 10.285)">
        <g id="그룹_177" data-name="그룹 177">
          <path id="패스_780" data-name="패스 780" d="M25.106,24.244l-3.5-3.5a.61.61,0,0,0-.862.862l3.5,3.5a.61.61,0,0,0,.862-.862Z" transform="translate(-20.569 -20.569)" fill="#454c53"/>
        </g>
      </g>
    </g>
  </g>
</svg>
