<svg xmlns="http://www.w3.org/2000/svg" xmlns:xlink="http://www.w3.org/1999/xlink" width="38" height="38" viewBox="0 0 38 38">
  <defs>
    <clipPath id="clip-path">
      <rect id="사각형_702" data-name="사각형 702" width="38" height="38" transform="translate(572.999 898)" fill="#fff"/>
    </clipPath>
  </defs>
  <g id="마스크_그룹_102" data-name="마스크 그룹 102" transform="translate(-572.999 -898)" clip-path="url(#clip-path)">
    <g id="stamp" transform="translate(575.3 898)">
      <g id="그룹_558" data-name="그룹 558">
        <path id="패스_1402" data-name="패스 1402" d="M30.254,24.566H24.688V23.452a3.345,3.345,0,0,0-2.068-3.088A24,24,0,0,1,25.9,11.647a7.8,7.8,0,1,0-13.184.579,20.035,20.035,0,0,1,2.911,8.139,3.345,3.345,0,0,0-2.068,3.088v1.113H7.988a5.573,5.573,0,0,0-5.567,5.567v2.3a1.113,1.113,0,0,0,1.113,1.113H4.648V34.66A3.344,3.344,0,0,0,7.988,38H30.254a3.344,3.344,0,0,0,3.34-3.34V33.547h1.113a1.113,1.113,0,0,0,1.113-1.113v-2.3A5.573,5.573,0,0,0,30.254,24.566ZM14.542,10.957a5.566,5.566,0,1,1,9.419-.414A26.186,26.186,0,0,0,20.4,20.112H17.837A22.259,22.259,0,0,0,14.542,10.957Zm7.919,12.495v1.113h-6.68V23.452a1.115,1.115,0,0,1,1.113-1.113h4.453A1.115,1.115,0,0,1,22.461,23.452ZM31.368,34.66a1.115,1.115,0,0,1-1.113,1.113H7.988A1.115,1.115,0,0,1,6.874,34.66V33.547H31.368Zm2.227-3.34H4.648V30.132a3.344,3.344,0,0,1,3.34-3.34H30.254a3.344,3.344,0,0,1,3.34,3.34Z" transform="translate(-2.421 0)" fill="#fff" stroke="#fff" stroke-width="1"/>
      </g>
    </g>
  </g>
</svg>
