<svg xmlns="http://www.w3.org/2000/svg" xmlns:xlink="http://www.w3.org/1999/xlink" width="30" height="30" viewBox="0 0 30 30">
  <defs>
    <clipPath id="clip-path">
      <rect id="사각형_165" data-name="사각형 165" width="30" height="30" fill="#fff" stroke="#707070" stroke-width="1"/>
    </clipPath>
  </defs>
  <g id="icon_chat" clip-path="url(#clip-path)">
    <g id="chat" transform="translate(0 0.987)">
      <path id="패스_127" data-name="패스 127" d="M19.35,6.523A10.2,10.2,0,0,0,0,10.993a10.054,10.054,0,0,0,.972,4.343L.017,20.113A.872.872,0,0,0,1.04,21.139l4.836-.956a10.02,10.02,0,0,0,2.017.706A11.918,11.918,0,0,1,19.35,6.523Z" transform="translate(0 -0.83)" fill="#fff"/>
      <path id="패스_128" data-name="패스 128" d="M27.268,21.586a10.133,10.133,0,0,0,.436-1.075h-.032a10.174,10.174,0,0,0-9.15-13.419h0A10.162,10.162,0,1,0,18.034,27.4a10.052,10.052,0,0,0,4.33-.973c5.3,1.047,4.884.973,5.005.973a.871.871,0,0,0,.854-1.042Z" transform="translate(1.493 0.354)" fill="#fc5d5d"/>
    </g>
  </g>
</svg>
