<svg xmlns="http://www.w3.org/2000/svg" width="36.372" height="25" viewBox="0 0 36.372 25">
  <g id="그룹_1356" data-name="그룹 1356" transform="translate(-445.178 -450.262)">
    <g id="그룹_1341" data-name="그룹 1341" transform="translate(446.857 450.262)">
      <g id="그룹_1339" data-name="그룹 1339" transform="translate(0)">
        <path id="사각형_1343" data-name="사각형 1343" d="M5.688,0H26.5a5.686,5.686,0,0,1,5.686,5.686v12.8A5.685,5.685,0,0,1,26.5,24.171H5.688A5.688,5.688,0,0,1,0,18.483V5.688A5.688,5.688,0,0,1,5.688,0Z" transform="translate(0.415 0.415)" fill="#fff"/>
        <path id="패스_2593" data-name="패스 2593" d="M480.952,475.262H452.54a2.3,2.3,0,0,1-2.3-2.3v-20.4a2.3,2.3,0,0,1,2.3-2.3h28.412a2.3,2.3,0,0,1,2.3,2.3v20.4A2.3,2.3,0,0,1,480.952,475.262ZM452.54,451.091a1.473,1.473,0,0,0-1.471,1.472v20.4a1.473,1.473,0,0,0,1.471,1.472h28.412a1.474,1.474,0,0,0,1.472-1.472v-20.4a1.474,1.474,0,0,0-1.472-1.472Z" transform="translate(-450.239 -450.262)" fill="#333"/>
      </g>
      <g id="그룹_1340" data-name="그룹 1340" transform="translate(3.1 2.983)">
        <rect id="사각형_1344" data-name="사각형 1344" width="26.813" height="19.033" fill="#686868"/>
      </g>
    </g>
    <g id="그룹_1345" data-name="그룹 1345" transform="translate(455.778 458.305)">
      <g id="그룹_1342" data-name="그룹 1342" transform="translate(0 0.012)">
        <path id="패스_2594" data-name="패스 2594" d="M478.507,474.97a.627.627,0,0,1,.627-.426.648.648,0,0,1,.65.443l1.346,3.5a.58.58,0,0,1,.023.19c0,.282-.327.46-.638.46a.5.5,0,0,1-.518-.351l-.2-.633h-1.381l-.2.621a.521.521,0,0,1-.517.368.533.533,0,0,1-.57-.477.575.575,0,0,1,.035-.184Zm.2,2.261h.788l-.391-1.237Z" transform="translate(-477.132 -474.544)" fill="#fff"/>
      </g>
      <g id="그룹_1343" data-name="그룹 1343" transform="translate(5.966 0.063)">
        <path id="패스_2595" data-name="패스 2595" d="M495.116,475.43c0-.558.236-.73.8-.73h.966c.926,0,1.415.42,1.415,1.122a.927.927,0,0,1-.6.954,1.044,1.044,0,0,1,.845,1.076,1.271,1.271,0,0,1-1.444,1.305h-1.225c-.569,0-.753-.178-.753-.765Zm1.064,1.012h.61a.416.416,0,0,0,.465-.42c0-.282-.149-.426-.471-.426h-.4c-.178,0-.207.069-.207.2Zm.69,1.806c.334,0,.541-.15.541-.472a.463.463,0,0,0-.523-.5h-.707v.753c0,.2.034.219.218.219Z" transform="translate(-495.116 -474.7)" fill="#fff"/>
      </g>
      <g id="그룹_1344" data-name="그룹 1344" transform="translate(11.356 0)">
        <path id="패스_2596" data-name="패스 2596" d="M514.656,474.8a.469.469,0,0,1-.495.794,1.465,1.465,0,0,0-.581-.15c-.61,0-1.11.328-1.11,1.266,0,.978.489,1.4,1.162,1.4a1.48,1.48,0,0,0,.673-.172.483.483,0,0,1,.46.846,2.231,2.231,0,0,1-1.167.322,2.105,2.105,0,0,1-2.232-2.393,2,2,0,0,1,2.139-2.2A2.32,2.32,0,0,1,514.656,474.8Z" transform="translate(-511.366 -474.509)" fill="#fff"/>
      </g>
    </g>
    <g id="그룹_1348" data-name="그룹 1348" transform="translate(445.178 470.618)">
      <g id="그룹_1346" data-name="그룹 1346" transform="translate(0.249 0.249)">
        <rect id="사각형_1345" data-name="사각형 1345" width="35.543" height="3.815" rx="1.907" transform="translate(0.166 0.166)" fill="#fff"/>
        <path id="패스_2597" data-name="패스 2597" d="M480.641,516.522H447.089a1.162,1.162,0,0,1-1.161-1.161v-1.825a1.162,1.162,0,0,1,1.161-1.161h33.552a1.162,1.162,0,0,1,1.161,1.161v1.825A1.162,1.162,0,0,1,480.641,516.522Zm-33.552-3.815a.83.83,0,0,0-.829.829v1.825a.83.83,0,0,0,.829.829h33.552a.83.83,0,0,0,.829-.829v-1.825a.83.83,0,0,0-.829-.829Z" transform="translate(-445.928 -512.375)" fill="#333"/>
      </g>
      <g id="그룹_1347" data-name="그룹 1347">
        <rect id="사각형_1346" data-name="사각형 1346" width="35.543" height="3.815" rx="1.907" transform="translate(0.415 0.415)" fill="#fff"/>
        <path id="패스_2598" data-name="패스 2598" d="M480.14,516.269H446.588a1.411,1.411,0,0,1-1.41-1.41v-1.825a1.411,1.411,0,0,1,1.41-1.41H480.14a1.411,1.411,0,0,1,1.41,1.41v1.825A1.411,1.411,0,0,1,480.14,516.269Zm-33.552-3.815a.581.581,0,0,0-.581.581v1.825a.581.581,0,0,0,.581.581H480.14a.581.581,0,0,0,.581-.581v-1.825a.581.581,0,0,0-.581-.581Z" transform="translate(-445.178 -511.625)" fill="#333"/>
      </g>
    </g>
    <g id="그룹_1354" data-name="그룹 1354" transform="translate(469.659 466.842)">
      <g id="그룹_1349" data-name="그룹 1349" transform="translate(0 0.357)">
        <path id="패스_2599" data-name="패스 2599" d="M528.338,504.278a1.71,1.71,0,0,1-1.709,1.709h-4.694a1.71,1.71,0,0,1-1.709-1.709h0a1.709,1.709,0,0,1,1.709-1.71h4.694a1.71,1.71,0,0,1,1.709,1.71Z" transform="translate(-519.81 -502.153)" fill="#fff"/>
        <path id="패스_2600" data-name="패스 2600" d="M525.793,505.566H521.1a2.124,2.124,0,0,1,0-4.248h4.694a2.124,2.124,0,0,1,0,4.248Zm-4.694-3.419a1.295,1.295,0,0,0,0,2.59h4.694a1.295,1.295,0,0,0,0-2.59Z" transform="translate(-518.975 -501.318)" fill="#333"/>
      </g>
      <g id="그룹_1350" data-name="그룹 1350">
        <rect id="사각형_1347" data-name="사각형 1347" width="8.113" height="2.067" transform="translate(0.415 0.415)" fill="#ccc"/>
        <path id="패스_2601" data-name="패스 2601" d="M527.5,503.138H519.39a.415.415,0,0,1-.415-.415v-2.067a.415.415,0,0,1,.415-.415H527.5a.415.415,0,0,1,.415.415v2.067A.415.415,0,0,1,527.5,503.138Zm-7.7-.829h7.284v-1.238H519.8Z" transform="translate(-518.975 -500.242)" fill="#333"/>
      </g>
      <g id="그룹_1353" data-name="그룹 1353" transform="translate(2.649 2.482)">
        <g id="그룹_1351" data-name="그룹 1351">
          <line id="선_407" data-name="선 407" y2="1.709" transform="translate(0.415)" fill="#f7d959"/>
          <rect id="사각형_1348" data-name="사각형 1348" width="0.829" height="1.709" fill="#333"/>
        </g>
        <g id="그룹_1352" data-name="그룹 1352" transform="translate(2.816)">
          <line id="선_408" data-name="선 408" y2="1.709" transform="translate(0.415)" fill="#f7d959"/>
          <rect id="사각형_1349" data-name="사각형 1349" width="0.829" height="1.709" fill="#333"/>
        </g>
      </g>
    </g>
    <g id="그룹_1355" data-name="그룹 1355" transform="translate(459.384 468.37)">
      <rect id="사각형_1350" data-name="사각형 1350" width="8.543" height="2.248" transform="translate(0.415 0.415)" fill="#fff"/>
      <path id="패스_2602" data-name="패스 2602" d="M496.959,507.925h-8.543a.415.415,0,0,1-.415-.415v-2.248a.414.414,0,0,1,.415-.415h8.543a.415.415,0,0,1,.415.415v2.248A.415.415,0,0,1,496.959,507.925Zm-8.128-.829h7.714v-1.419H488.83Z" transform="translate(-488.001 -504.848)" fill="#333"/>
    </g>
  </g>
</svg>
