<svg xmlns="http://www.w3.org/2000/svg" width="28.924" height="35" viewBox="0 0 28.924 35">
  <g id="ico_book" transform="translate(-183.9 -193.75)">
    <path id="패스_2292" data-name="패스 2292" d="M211.5,193.75H185.221a1.321,1.321,0,0,0-1.321,1.321v32.358a1.321,1.321,0,0,0,1.321,1.321H211.5a1.321,1.321,0,0,0,1.321-1.321V195.071A1.321,1.321,0,0,0,211.5,193.75Zm-24.962,2.642h1.717v29.717h-1.717Zm23.642,29.717H191.032V196.392h19.151Z" fill="#fff"/>
    <path id="패스_2293" data-name="패스 2293" d="M192.192,207.547h12.949a1.393,1.393,0,0,0,1.392-1.392v-5.013a1.393,1.393,0,0,0-1.392-1.392H192.192a1.393,1.393,0,0,0-1.392,1.392v5.013A1.393,1.393,0,0,0,192.192,207.547Zm1.392-5.012h10.164v2.228H193.585Z" transform="translate(1.687 1.809)" fill="#fff"/>
  </g>
</svg>
