<svg xmlns="http://www.w3.org/2000/svg" xmlns:xlink="http://www.w3.org/1999/xlink" width="200.162" height="184.99" viewBox="0 0 200.162 184.99">
  <defs>
    <clipPath id="clip-path">
      <rect id="사각형_936" data-name="사각형 936" width="170" height="148" transform="translate(-0.436 0.226)" fill="none"/>
    </clipPath>
    <clipPath id="clip-path-2">
      <rect id="사각형_939" data-name="사각형 939" width="25" height="25" transform="translate(1573 236)" fill="#26282b"/>
    </clipPath>
  </defs>
  <g id="그룹_913" data-name="그룹 913" transform="translate(-343.955 -147.01)">
    <g id="그룹_911" data-name="그룹 911">
      <g id="img" transform="translate(364.438 189.773)">
        <g id="그룹_821" data-name="그룹 821" transform="translate(0 -6)" clip-path="url(#clip-path)">
          <path id="패스_2195" data-name="패스 2195" d="M1878.625,897.7a104.872,104.872,0,0,1-7.491,12.139,21.97,21.97,0,0,1-5.453,5.541c-3.524,2.33-7.9,3-12.12,3.053-12.217.147-41.059-7.427-28.53-24.9a23.45,23.45,0,0,1,8.275-6.819,36.966,36.966,0,0,1,33.54-.181" transform="translate(-1735.526 -781.662)" fill="#fff"/>
          <path id="패스_2196" data-name="패스 2196" d="M1879.671,898.068q-2.117,3.976-4.531,7.785a55.212,55.212,0,0,1-5.1,7.093,18.614,18.614,0,0,1-6.885,4.994,25.413,25.413,0,0,1-8.291,1.661,52.189,52.189,0,0,1-19.775-3.242,33.909,33.909,0,0,1-9.04-4.661,14.592,14.592,0,0,1-5.368-6.965,12.514,12.514,0,0,1,1.1-9.5c2.42-4.717,6.5-8.044,11.16-10.413a38.529,38.529,0,0,1,30.791-1.431,35.386,35.386,0,0,1,3.445,1.536,1.485,1.485,0,0,1-1.269,2.686,35.569,35.569,0,0,0-28.319-1.589c-4.591,1.709-9.024,4.339-11.884,8.427a15.632,15.632,0,0,0-1.32,2.215c-.172.346-.333.7-.481,1.056-.076.188-.15.378-.22.569-.031.085-.059.171-.09.255q-.078.234.02-.062c-.021.068-.041.135-.062.2a12.268,12.268,0,0,0-.4,2.054c-.009.094-.013.189-.024.283-.037.322,0-.283,0-.07,0,.169-.008.339,0,.507a9.276,9.276,0,0,0,.07.993c.018.146.04.294.065.44.015.087.035.174.049.261.051.306-.079-.288-.02-.087.095.323.175.649.288.967q.149.414.333.813c.034.073.26.526.145.3s.017.03.037.064c.051.09.1.181.155.27a12.294,12.294,0,0,0,1.137,1.587c.109.131.227.255.337.387.134.161-.26-.266-.034-.037.066.068.131.137.2.205.248.252.5.495.766.731a20.057,20.057,0,0,0,1.717,1.37c.28.2.566.391.854.583s-.276-.167.034.02c.06.036.119.075.179.111.2.121.393.239.591.355a34.849,34.849,0,0,0,4.31,2.107q1.162.477,2.347.888l.544.186c.073.025.658.214.289.1.4.127.806.252,1.211.371,1.6.471,3.221.868,4.855,1.2q2.259.456,4.547.736,1.076.13,2.159.214c.325.025.649.046.975.064a1.256,1.256,0,0,0,.226.012c-.393.056-.181-.008-.042,0,.175.006.349.012.523.016,4.7.117,9.656-.495,13.439-3.411a25.64,25.64,0,0,0,5.067-5.74c1.63-2.321,3.13-4.73,4.546-7.186q1.012-1.755,1.961-3.543a1.519,1.519,0,0,1,1.978-.708,1.5,1.5,0,0,1,.707,1.978" transform="translate(-1735.229 -781.398)" fill="#24221e"/>
          <path id="패스_2197" data-name="패스 2197" d="M1832.346,779.315l120.182,117.741a3.7,3.7,0,0,1-3.023,6.326l-146.041-17.119a3.7,3.7,0,0,1-3.157-4.6l25.858-100.622a3.7,3.7,0,0,1,6.181-1.725m-3.493,55.117a25.746,25.746,0,1,0,36.409-.373,25.748,25.748,0,0,0-36.409.373" transform="translate(-1792.097 -765.844)" fill="#ff8464"/>
          <path id="패스_2198" data-name="패스 2198" d="M1950.157,904.608a5.194,5.194,0,0,0,3.141-8.878L1833.116,777.989h0a5.19,5.19,0,0,0-8.658,2.416L1798.6,881.027a5.189,5.189,0,0,0,4.423,6.446l146.04,17.119a5.439,5.439,0,0,0,1.094.017m-119.119-124.5L1951.22,897.851a2.22,2.22,0,0,1-1.812,3.791l-146.04-17.119a2.219,2.219,0,0,1-1.892-2.757l25.857-100.621a2.221,2.221,0,0,1,3.705-1.034m18.358,99.2a27.265,27.265,0,1,0-2.141.105c.718-.008,1.433-.043,2.141-.105m-4.578-51.293q.947-.083,1.908-.093a24.187,24.187,0,1,1-1.908.093" transform="translate(-1791.828 -765.578)" fill="#24221e"/>
          <path id="패스_2199" data-name="패스 2199" d="M1829.558,900.613a1.477,1.477,0,0,0,.93-.44l5.6-5.714a1.485,1.485,0,0,0-2.121-2.078l-5.6,5.714a1.485,1.485,0,0,0,1.19,2.518" transform="translate(-1698.501 -783.079)" fill="#24221e"/>
          <path id="패스_2200" data-name="패스 2200" d="M1840.923,889.478a1.477,1.477,0,0,0,.93-.44l5.6-5.714a1.485,1.485,0,0,0-2.121-2.078l-5.6,5.714a1.485,1.485,0,0,0,1.191,2.517" transform="translate(-1719.508 -781.391)" fill="#24221e"/>
          <path id="패스_2201" data-name="패스 2201" d="M1852.289,878.344a1.474,1.474,0,0,0,.93-.44l5.6-5.713a1.485,1.485,0,1,0-2.121-2.078l-5.6,5.713a1.485,1.485,0,0,0,1.191,2.518" transform="translate(-1740.515 -779.703)" fill="#24221e"/>
          <path id="패스_2202" data-name="패스 2202" d="M1863.653,867.21a1.473,1.473,0,0,0,.93-.44l5.6-5.714a1.485,1.485,0,0,0-2.122-2.078l-5.6,5.714a1.485,1.485,0,0,0,1.191,2.518" transform="translate(-1761.522 -778.015)" fill="#24221e"/>
          <path id="패스_2203" data-name="패스 2203" d="M1875.018,856.076a1.474,1.474,0,0,0,.93-.44l5.6-5.713a1.485,1.485,0,1,0-2.122-2.078l-5.6,5.713a1.485,1.485,0,0,0,1.191,2.518" transform="translate(-1782.529 -776.326)" fill="#24221e"/>
          <path id="패스_2204" data-name="패스 2204" d="M1886.384,844.942a1.47,1.47,0,0,0,.929-.44l5.6-5.714a1.485,1.485,0,0,0-2.122-2.078l-5.6,5.714a1.485,1.485,0,0,0,1.191,2.518" transform="translate(-1803.536 -774.638)" fill="#24221e"/>
          <path id="패스_2205" data-name="패스 2205" d="M1897.748,833.807a1.471,1.471,0,0,0,.93-.439l5.6-5.714a1.485,1.485,0,0,0-2.122-2.078l-5.6,5.714a1.484,1.484,0,0,0,1.19,2.517" transform="translate(-1824.544 -772.95)" fill="#24221e"/>
          <path id="패스_2206" data-name="패스 2206" d="M1909.113,822.673a1.474,1.474,0,0,0,.93-.439l5.6-5.714a1.484,1.484,0,1,0-2.121-2.078l-5.6,5.714a1.484,1.484,0,0,0,1.19,2.517" transform="translate(-1845.551 -771.262)" fill="#24221e"/>
          <path id="패스_2207" data-name="패스 2207" d="M1920.479,811.539a1.472,1.472,0,0,0,.93-.44l5.6-5.713a1.485,1.485,0,1,0-2.121-2.078l-5.6,5.713a1.485,1.485,0,0,0,1.19,2.518" transform="translate(-1866.558 -769.574)" fill="#24221e"/>
          <path id="패스_2208" data-name="패스 2208" d="M1931.844,800.405a1.471,1.471,0,0,0,.93-.44l5.6-5.714a1.485,1.485,0,0,0-2.121-2.078l-5.6,5.714a1.485,1.485,0,0,0,1.19,2.518" transform="translate(-1887.565 -767.886)" fill="#24221e"/>
          <path id="패스_2209" data-name="패스 2209" d="M1926.2,941.855l-5.646,14.488c-1.983,5.09-4,10.24-7.177,14.684s-7.7,8.174-13.052,9.264c-4.786.974-9.715-.219-14.452-1.4-3.957-.991-11.185-5.407-14.883-5.013-2.161.231-3.762,3.068-6.186,1.964a1.975,1.975,0,0,1-1.184-1.6,3.224,3.224,0,0,1,.39-1.468,166.114,166.114,0,0,1,11.222-20.945,37.419,37.419,0,0,0,7.126,3.683,15.618,15.618,0,0,0,4.591,1.156c4.1.264,8.011-2.1,10.645-5.245s4.212-7.026,5.75-10.833" transform="translate(-1818.453 -790.454)" fill="#5b5b5b"/>
          <path id="패스_2210" data-name="패스 2210" d="M1927.291,942.226q-2.44,6.265-4.882,12.531c-1.5,3.842-2.939,7.724-4.806,11.4-3.382,6.664-8.709,13.18-16.273,15.088-4.287,1.082-8.682.535-12.937-.431a40.248,40.248,0,0,1-5.089-1.391c-1.425-.529-2.81-1.157-4.2-1.769-1.443-.635-2.89-1.27-4.377-1.8-.152-.054-.305-.108-.459-.159-.037-.013-.31-.1-.141-.049s-.1-.031-.137-.042c-.347-.105-.7-.2-1.051-.289-.289-.068-.579-.129-.872-.175-.146-.023-.294-.042-.44-.059-.054-.005-.108-.008-.161-.014-.355-.043.33-.013-.016,0a6.135,6.135,0,0,0-.769.052c-.223.035.228-.077.017,0-.079.031-.162.053-.241.084-.1.039-.555.263-.309.128-.631.347-1.206.787-1.832,1.143-1.647.936-3.66,1.242-5.222-.087a3.355,3.355,0,0,1-1.172-3.024,11.246,11.246,0,0,1,1.149-2.941q1.322-2.882,2.753-5.713,2.861-5.66,6.148-11.09.821-1.356,1.668-2.7a1.522,1.522,0,0,1,2.3-.5,36.146,36.146,0,0,0,6.45,3.338,17.463,17.463,0,0,0,3.264,1.009,8.754,8.754,0,0,0,4.525-.305,13.817,13.817,0,0,0,1.571-.645c.157-.075.325-.166.564-.307.2-.115.393-.237.584-.361a16.026,16.026,0,0,0,1.458-1.078,18.768,18.768,0,0,0,4.027-5.021,59.959,59.959,0,0,0,3.369-7.365,1.485,1.485,0,1,1,2.685,1.269c-1.927,4.772-3.995,9.639-7.907,13.143a14.849,14.849,0,0,1-6.455,3.464,13.717,13.717,0,0,1-7.887-.712,38.355,38.355,0,0,1-8.159-4.155l2.3-.5q-3.278,5.2-6.173,10.622-1.444,2.711-2.788,5.474-.65,1.338-1.276,2.686a23.414,23.414,0,0,0-1.181,2.617c.036-.116-.047.209-.05.227-.036.249-.025-.129,0,.1.019.176,0,0-.009-.028.03.2.049.159.015.058.007.021.17.227.027.067a1.42,1.42,0,0,0,.228.2c-.2-.143.4.151.121.061.1.032.583.088.268.08a3.255,3.255,0,0,0,.445-.033c.223-.025-.229.077-.019,0,.059-.021.121-.037.182-.059.081-.028.16-.059.239-.093.032-.014.35-.163.182-.079-.12.06.23-.133.292-.171.154-.093.306-.191.457-.289.3-.2.6-.4.913-.584a6.181,6.181,0,0,1,2.348-.9,9.142,9.142,0,0,1,3.664.451,39.112,39.112,0,0,1,4.369,1.606c1.406.6,2.794,1.232,4.2,1.827.63.268,1.265.528,1.909.762.132.049.266.1.4.143l.223.075c-.045-.014-.3-.091-.042-.014.334.1.669.187,1.008.271,3.9.974,7.936,1.964,11.986,1.543a15.4,15.4,0,0,0,5.026-1.4,19.964,19.964,0,0,0,4.2-2.694,28.626,28.626,0,0,0,6.5-8.078,84.166,84.166,0,0,0,4.765-10.663q2.336-5.989,4.668-11.98.592-1.517,1.183-3.036a1.5,1.5,0,0,1,1.978-.708,1.516,1.516,0,0,1,.708,1.978" transform="translate(-1818.204 -790.19)" fill="#24221e"/>
          <path id="패스_2211" data-name="패스 2211" d="M1870.827,934.556c5.634,4.789,9.834,11.734,14.324,17.63l15.819,20.77c1.056,1.386,2.241,2.868,3.837,3.35.893.271,1.822.19,2.715.458s1.825,1.118,1.705,2.023a2.063,2.063,0,0,1-1.1,1.325,128.3,128.3,0,0,1-15.627,8.77,4.016,4.016,0,0,1-2.92.521,5.225,5.225,0,0,1-1.985-1.48q-9.613-9.9-19.021-19.992c-5.962-6.4-13.253-11.625-17.624-19.318a20.427,20.427,0,0,1-2.971-11.247,12.385,12.385,0,0,1,5.606-9.858" transform="translate(-1788.201 -788.472)" fill="#5b5b5b"/>
          <path id="패스_2212" data-name="패스 2212" d="M1871.487,933.156c4.015,3.433,7.2,7.712,10.266,11.979,3.291,4.581,6.7,9.064,10.12,13.552l5.549,7.287c1.751,2.3,3.432,4.683,5.285,6.9a7.433,7.433,0,0,0,1,1.021,3.425,3.425,0,0,0,1.254.736,15.13,15.13,0,0,0,1.815.255,4.95,4.95,0,0,1,2.138.824,3.076,3.076,0,0,1,1.151,3.993c-.689,1.2-2.167,1.883-3.294,2.6q-3.661,2.314-7.474,4.376-1.923,1.04-3.878,2.023a24.2,24.2,0,0,1-3.923,1.8,4.514,4.514,0,0,1-4.417-.994c-1.036-.905-1.955-1.973-2.912-2.962q-3.2-3.308-6.371-6.636-3.1-3.253-6.181-6.527c-1.951-2.073-3.86-4.194-5.864-6.218-3.62-3.657-7.53-7.015-11-10.823-3.5-3.847-6.656-8.347-7.94-13.46-1.261-5.022-.632-10.642,2.947-14.614a12.015,12.015,0,0,1,2.677-2.236,1.523,1.523,0,0,1,2.071.353,1.5,1.5,0,0,1-.354,2.07,9.741,9.741,0,0,0-3.948,4.551,12.906,12.906,0,0,0-1.019,6.24c.387,4.949,3.059,9.465,6.168,13.274a118.245,118.245,0,0,0,10.054,10.16c3.921,3.76,7.539,7.83,11.273,11.773,3.927,4.146,7.823,8.345,11.875,12.371a3.523,3.523,0,0,0,1.141.887,1.985,1.985,0,0,0,1.3-.178c1.28-.5,2.514-1.177,3.74-1.8q3.565-1.8,7-3.836,1.8-1.063,3.564-2.182c.56-.356,1.121-.711,1.67-1.08.1-.069.208-.138.308-.212.045-.034.307-.2.118-.083.1-.067.146-.141.054-.031.077-.158.083-.176.019-.055a.272.272,0,0,0,.007.2c.009-.032-.127-.248-.031-.07-.142-.26.047,0-.178-.2,0,0-.216-.168-.087-.081a1.765,1.765,0,0,0-.44-.21,15.362,15.362,0,0,0-1.687-.223,6.41,6.41,0,0,1-3.38-1.606,19.407,19.407,0,0,1-2.468-2.848l-2.615-3.434q-2.647-3.477-5.294-6.952c-3.375-4.431-6.822-8.816-10.076-13.338a102.66,102.66,0,0,0-9.083-11.653q-1.224-1.264-2.562-2.41a1.486,1.486,0,0,1,1.909-2.275" transform="translate(-1787.907 -788.21)" fill="#24221e"/>
          <path id="패스_2213" data-name="패스 2213" d="M1908.056,885.916c2.354,5.322,3.506,13.022,3.719,18.845.329,9,.6,18,.905,27a53.686,53.686,0,0,1-47.356-5.263,5.12,5.12,0,0,1-2.021-1.951,5.68,5.68,0,0,1-.277-2.925,119.842,119.842,0,0,1,4.509-23.872c1.975-6.659,5.045-11.148,9.035-16.6,2.744-3.746,6.927-9.292,11.487-5.2" transform="translate(-1804.385 -780.437)" fill="#5b5b5b"/>
          <path id="패스_2214" data-name="패스 2214" d="M1909.171,885.137a40.97,40.97,0,0,1,2.4,7.885,65.891,65.891,0,0,1,1.2,8.133c.257,2.96.3,5.94.4,8.909q.174,5.064.337,10.125.182,5.591.366,11.18a1.531,1.531,0,0,1-.96,1.522,54.286,54.286,0,0,1-22.324,3.22,55.409,55.409,0,0,1-21.526-5.866,53.853,53.853,0,0,1-5.117-2.963,6.22,6.22,0,0,1-2.061-1.986,6.132,6.132,0,0,1-.651-3.549A99.535,99.535,0,0,1,1863,908.724a106.426,106.426,0,0,1,3.193-12.757,43.375,43.375,0,0,1,4.724-9.906c1.044-1.641,2.151-3.238,3.29-4.815,1.01-1.4,2.016-2.812,3.135-4.127,2.224-2.612,5.384-5.263,9.033-4.008a7.214,7.214,0,0,1,2.364,1.44,1.484,1.484,0,0,1-1.908,2.274,5.333,5.333,0,0,0-.847-.64,5.14,5.14,0,0,0-.473-.237c-.089-.038-.179-.075-.27-.106.239.084-.051-.01-.1-.02-.177-.036-.35-.066-.529-.09s.046,0,.069,0c-.087,0-.175,0-.261,0-.175.008-.344.035-.516.053-.065.008-.282.069.005-.007-.085.022-.169.046-.253.072-.17.053-.338.115-.5.183-.083.035-.165.075-.248.111-.012.005-.214.107-.076.034.155-.08-.1.059-.133.079-.08.048-.162.1-.241.148-.182.115-.36.239-.534.367-.278.208-.546.43-.806.661-.225.2-.106.1-.059.053-.074.071-.148.143-.221.215-.148.146-.293.294-.434.445a38.594,38.594,0,0,0-3.023,3.771c-1.062,1.451-2.116,2.91-3.116,4.4-.886,1.321-1.733,2.7-2.537,4.2a40.135,40.135,0,0,0-2.171,4.765A80.491,80.491,0,0,0,1866.4,906.9a120.434,120.434,0,0,0-1.956,12.325c-.1.974-.236,2.014-.271,2.959a6.141,6.141,0,0,0,.059,1.073,2.869,2.869,0,0,0,.181.495c-.062-.111.122.168.134.184s.213.252.126.16a8.731,8.731,0,0,0,1.97,1.4q1.145.7,2.325,1.343a52.687,52.687,0,0,0,19.965,6.171,51.273,51.273,0,0,0,10.377.01,48.307,48.307,0,0,0,10.081-2.05q1.26-.4,2.5-.86l-.961,1.52q-.332-9.913-.654-19.828c-.2-5.8-.305-11.584-1.406-17.3a39.362,39.362,0,0,0-2.477-8.323,1.485,1.485,0,0,1,2.784-1.036" transform="translate(-1804.108 -780.176)" fill="#24221e"/>
          <path id="패스_2215" data-name="패스 2215" d="M1889.373,885.524a4.775,4.775,0,0,1,2.487,3.292c.642,2.32.174,5.161-1.7,6.49-2.021,1.435-4.919.559-6.668-1.278s-2.627-4.39-3.449-6.853a7.665,7.665,0,0,1-2.211,7.8,6.587,6.587,0,0,1-7.642.535c-2.268-1.424-3.59-4.119-4.269-6.825a13.07,13.07,0,0,1,.5-8.857" transform="translate(-1785.897 -781.243)" fill="#fff"/>
          <path id="패스_2216" data-name="패스 2216" d="M1889.734,883.916c2.073.892,3.13,3.119,3.493,5.229a7.957,7.957,0,0,1-1.149,5.749,5.556,5.556,0,0,1-5.306,2.294,8.094,8.094,0,0,1-5.274-3.152,20.987,20.987,0,0,1-3.118-6.607q1.392-.521,2.784-1.038a9.323,9.323,0,0,1-.847,7.272,8.066,8.066,0,0,1-6.28,4.016,8.288,8.288,0,0,1-6.913-2.918,14.878,14.878,0,0,1-3.114-6.9,14,14,0,0,1,.8-8.925,1.485,1.485,0,1,1,2.685,1.269,10.478,10.478,0,0,0-.756,6.069,14.108,14.108,0,0,0,1.921,5.61,5.66,5.66,0,0,0,4.241,2.843c-.048-.005.468.03.278.025s.329-.008.28-.008q.318-.012.635-.052c.132-.017.263-.038.394-.065.283-.054-.32.109.155-.039.255-.08.508-.159.754-.26a4.726,4.726,0,0,0,1.966-1.553,6.363,6.363,0,0,0,1.091-2.47,5.367,5.367,0,0,0,.134-1.4,7.575,7.575,0,0,0-.065-.785c-.018-.13-.039-.259-.063-.388-.021-.105-.02-.1,0,0-.026-.1-.053-.2-.083-.3a1.523,1.523,0,0,1,.874-1.911,1.5,1.5,0,0,1,1.91.873,24.959,24.959,0,0,0,1.924,4.719,8.194,8.194,0,0,0,1.419,1.842,5.148,5.148,0,0,0,1.783,1.094c.027.012.268.09.066.029.072.021.145.041.218.059.17.042.341.078.513.1.073.011.59.036.336.04a5.1,5.1,0,0,0,.58-.036c.1-.013.192-.026.285-.048-.031.008-.2.053-.038,0s.319-.11.476-.176c.274-.116.109-.059.053-.026.086-.051.171-.106.251-.165s.42-.372.25-.193c.112-.118.216-.242.319-.367.022-.027.193-.26.1-.124s.042-.069.047-.078c.091-.166.178-.331.254-.5.031-.071.2-.539.127-.31a6.368,6.368,0,0,0,.21-1.008c.007-.062.046-.59.038-.345q.009-.3-.008-.6t-.055-.6c-.012-.1-.028-.2-.045-.3-.005-.033-.085-.406-.046-.243s-.026-.086-.028-.093c-.04-.129-.076-.259-.119-.388-.078-.232-.172-.457-.27-.682a1.721,1.721,0,0,0-.206-.37,4.392,4.392,0,0,0-.374-.511c.121.14-.045-.045-.062-.061-.1-.085-.191-.169-.293-.247-.131-.1-.026-.027,0-.008a3.054,3.054,0,0,0-.41-.2,1.485,1.485,0,1,1,1.269-2.685" transform="translate(-1785.623 -780.979)" fill="#24221e"/>
          <path id="패스_2217" data-name="패스 2217" d="M1851.36,821.2a54.624,54.624,0,0,1-15.084,1.772,26.777,26.777,0,0,1-7.35-1.425,42.3,42.3,0,0,1,81.822.021,63.138,63.138,0,0,1-35.871-11.807c-5.914,6.6-14.876,9.473-23.517,11.44" transform="translate(-1773.573 -767.626)" fill="#24221e"/>
          <path id="패스_2218" data-name="패스 2218" d="M1851.664,822.326a67.9,67.9,0,0,1-11.877,1.87,31.121,31.121,0,0,1-11.709-1.573,1.483,1.483,0,0,1-.826-1.611,43.792,43.792,0,0,1,83.9-2.842q.43,1.293.776,2.614c.219.834-.209,2.013-1.263,2a64.161,64.161,0,0,1-36.953-12.148l2.091-.183c-4.823,5.344-11.508,8.4-18.31,10.384-1.926.562-3.872,1.046-5.828,1.492a1.535,1.535,0,0,1-1.909-.873,1.494,1.494,0,0,1,.873-1.911,80.742,80.742,0,0,0,9.921-2.832,36.427,36.427,0,0,0,8.853-4.516,24.426,24.426,0,0,0,4.125-3.655,1.524,1.524,0,0,1,2.09-.183,61.493,61.493,0,0,0,26.7,10.787,60.591,60.591,0,0,0,8.089.679l-1.262,2a42.67,42.67,0,0,0-1.71-5.151q-.49-1.21-1.055-2.388-.281-.586-.58-1.163c-.044-.086-.088-.171-.134-.255.111.209,0-.007-.023-.041-.115-.21-.229-.422-.347-.63a42.164,42.164,0,0,0-2.881-4.443q-.764-1.031-1.588-2.012-.411-.491-.837-.97c-.126-.14-.254-.281-.382-.421.158.172-.006-.006-.032-.034-.1-.1-.194-.207-.293-.31a42.533,42.533,0,0,0-3.852-3.567q-.989-.808-2.025-1.557-.519-.373-1.048-.732-.235-.159-.472-.316l-.238-.155c.225.145-.115-.073-.159-.1a42.017,42.017,0,0,0-9.422-4.418l-.045-.014q-.173-.052-.344-.107c-.208-.063-.415-.125-.623-.184q-.66-.191-1.327-.359-1.27-.321-2.556-.562a41.873,41.873,0,0,0-5.333-.65l-.3-.017c.26.014-.061,0-.124,0q-.336-.013-.672-.02-.676-.015-1.351-.008-1.4.013-2.8.119a42.905,42.905,0,0,0-5.625.8c-.442.094-.555.12-1.109.259q-.668.165-1.329.354-1.349.384-2.671.857a41.786,41.786,0,0,0-5.016,2.174c-.089.046-.177.091-.265.137-.424.221.128-.07-.12.064-.2.106-.391.212-.586.322q-.583.324-1.154.669-1.172.7-2.3,1.484a42.281,42.281,0,0,0-4.206,3.331l-.218.2c-.348.316.106-.1-.1.091-.16.151-.32.3-.478.455q-.475.458-.935.931-.947.971-1.828,2a42.44,42.44,0,0,0-3.217,4.271c-.054.081-.107.163-.161.245-.257.395.076-.123-.072.113-.117.186-.234.373-.349.561q-.345.565-.672,1.139-.672,1.182-1.269,2.408a42.368,42.368,0,0,0-2.046,4.993c-.145.432-.175.525-.332,1.053q-.191.644-.363,1.293l-.825-1.61c6.88,2.387,14.365,1.174,21.28-.4a1.537,1.537,0,0,1,1.91.874,1.5,1.5,0,0,1-.875,1.91" transform="translate(-1773.36 -767.362)" fill="#24221e"/>
          <path id="패스_2219" data-name="패스 2219" d="M1836.774,827.559a10.363,10.363,0,0,1,4.116.465c.187-1,.416-1.978.671-2.95a26.783,26.783,0,0,0,7.35,1.425,54.648,54.648,0,0,0,15.083-1.771c8.643-1.967,17.6-4.84,23.518-11.44a63.142,63.142,0,0,0,35.871,11.807,42.308,42.308,0,0,1-81.6,22.385,10.4,10.4,0,1,1-5.013-19.921" transform="translate(-1786.209 -771.155)" fill="#ffe3d4"/>
          <path id="패스_2220" data-name="패스 2220" d="M1836.39,825.817a11.94,11.94,0,0,1,4.514.484l-1.728,1.192c.189-.992.417-1.973.672-2.95a1.516,1.516,0,0,1,2.1-1.074c6.516,2.259,13.58,1.277,20.16-.147,2.895-.626,5.776-1.345,8.6-2.245,1.393-.444,2.771-.934,4.125-1.486q1.027-.42,2.034-.887.461-.216.918-.444c.3-.148.6-.3.788-.4a32.426,32.426,0,0,0,4.109-2.628,23.617,23.617,0,0,0,3.448-3.157,1.525,1.525,0,0,1,2.091-.183,61.487,61.487,0,0,0,26.7,10.786,60.616,60.616,0,0,0,8.09.679,1.523,1.523,0,0,1,1.52.961,43.791,43.791,0,0,1-83.371,26.506q-.564-1.523-1.009-3.086l1.91.875a11.887,11.887,0,1,1-5.661-22.793,1.485,1.485,0,1,1,.26,2.958c-.3.028-.591.065-.883.115-.02,0-.494.1-.186.031-.094.02-.189.044-.282.069a10.386,10.386,0,0,0-1.62.572c-.13.059-.256.12-.384.182-.409.2.231-.149-.156.086-.2.121-.4.238-.6.367q-.349.233-.68.492c-.073.057-.144.116-.216.176-.039.032-.445.4-.241.2a10.461,10.461,0,0,0-1.028,1.131c-.143.183-.276.372-.411.561-.26.365.13-.239-.1.148-.093.161-.188.321-.277.484a12.63,12.63,0,0,0-.624,1.407c-.016.039-.092.268-.016.034-.044.135-.081.271-.118.407-.081.3-.146.6-.2.9q-.067.389-.106.783c-.014.144-.026.29-.032.435.011-.255,0,0,0,.04a13.086,13.086,0,0,0,.131,1.776,6.753,6.753,0,0,0,.33,1.3c.091.271.193.536.308.8.037.086.076.173.116.259.022.048.278.538.139.289a10.7,10.7,0,0,0,.843,1.289c.141.185.291.362.441.54.29.342-.2-.185.12.129.132.13.262.261.4.388a12.261,12.261,0,0,0,1.2.949c.233.167.083.058.029.024.119.074.238.145.36.214.263.15.531.288.807.415s.56.234.844.344c.422.164-.269-.067.169.057.136.039.271.078.41.113a10.889,10.889,0,0,0,1.839.292c.467.036-.284.014.186.005.148,0,.3,0,.443-.005a10.356,10.356,0,0,0,1.189-.105,9.15,9.15,0,0,0,2.213-.651,1.493,1.493,0,0,1,1.91.873,40.256,40.256,0,0,0,5.182,11.333,42.4,42.4,0,0,0,3.806,4.928c.1.107.19.213.288.318-.042-.047-.167-.177.032.036.18.191.36.382.541.569q.573.588,1.165,1.156,1.134,1.084,2.347,2.082,1.156.953,2.377,1.821.64.456,1.3.887c-.027-.018.365.238.2.131s.23.145.2.128q.363.228.73.449a42.253,42.253,0,0,0,5.628,2.836,36.127,36.127,0,0,0,5.681,1.861,41.854,41.854,0,0,0,6.381,1.053,39.725,39.725,0,0,0,6.233.036q1.645-.115,3.278-.355.8-.117,1.6-.266c.239-.044.479-.092.719-.14l.358-.075c.056-.012.538-.12.252-.055a42.463,42.463,0,0,0,5.979-1.849,39.352,39.352,0,0,0,5.324-2.552,42.269,42.269,0,0,0,5.084-3.459,36,36,0,0,0,4.228-3.875,42.72,42.72,0,0,0,3.862-4.727c.266-.38.526-.762.781-1.15.011-.016.259-.4.1-.148l.185-.294q.241-.384.472-.772.749-1.256,1.411-2.563a42.024,42.024,0,0,0,2.375-5.682c-.008.025.136-.413.073-.217s.077-.246.069-.22q.106-.338.2-.676.241-.814.446-1.639.371-1.485.635-2.993a39.643,39.643,0,0,0,.119-13.264,40.457,40.457,0,0,0-.824-4l1.521.961a64.129,64.129,0,0,1-36.954-12.149l2.091-.183c-4.168,4.619-9.764,7.557-15.6,9.532a87.957,87.957,0,0,1-8.844,2.414,68.478,68.478,0,0,1-11.063,1.774,31.4,31.4,0,0,1-12.222-1.547l2.1-1.073c-.255.976-.482,1.958-.671,2.95a1.493,1.493,0,0,1-1.729,1.192,9.651,9.651,0,0,0-3.719-.446,1.485,1.485,0,0,1-.26-2.958" transform="translate(-1785.955 -770.893)" fill="#24221e"/>
          <path id="패스_2221" data-name="패스 2221" d="M1850.059,834.225a2.775,2.775,0,1,0,2.522-3.007,2.776,2.776,0,0,0-2.522,3.007" transform="translate(-1736.343 -773.872)" fill="#24221e"/>
          <path id="패스_2222" data-name="패스 2222" d="M1879.278,836.786a2.775,2.775,0,1,0,2.522-3.007,2.775,2.775,0,0,0-2.522,3.007" transform="translate(-1790.351 -774.26)" fill="#24221e"/>
          <path id="패스_2223" data-name="패스 2223" d="M1866.187,838.211c-.34-.115.317.087-.022-.005l-.192-.054c-.17-.046-.342-.086-.514-.12a6.966,6.966,0,0,0-.943-.12l.4.019a5.522,5.522,0,0,0-1.428.12l.388-.087a5.343,5.343,0,0,0-.871.286c-.064.028-.13.058-.193.088-.215.1-.031-.006.072-.042a2.334,2.334,0,0,0-.454.276,1.485,1.485,0,0,1-1.716-2.423,6.93,6.93,0,0,1,3.173-1.16,8.686,8.686,0,0,1,3.573.54,1.48,1.48,0,0,1,.757.825,1.514,1.514,0,0,1-.049,1.152,1.5,1.5,0,0,1-.824.758,1.74,1.74,0,0,1-1.154-.049" transform="translate(-1757.576 -774.441)" fill="#24221e"/>
          <path id="패스_2224" data-name="패스 2224" d="M1831.432,842.548a8.786,8.786,0,1,0,7.986-9.519,8.787,8.787,0,0,0-7.986,9.519" transform="translate(-1713.893 -774.143)" fill="#ffb18f"/>
          <path id="패스_2225" data-name="패스 2225" d="M1891.448,847.808a8.786,8.786,0,1,0,7.985-9.519,8.787,8.787,0,0,0-7.985,9.519" transform="translate(-1824.826 -774.94)" fill="#ffb18f"/>
          <path id="패스_2226" data-name="패스 2226" d="M1848.891,892.1c2.281-1.368,5.112-2.338,7.692-1.6a3.312,3.312,0,0,1,2.2,1.625,1.684,1.684,0,0,1-.929,2.256,2.564,2.564,0,0,1,2.753,1.682,2.364,2.364,0,0,1-1.53,2.723,2.546,2.546,0,0,1,3.047.973,2.163,2.163,0,0,1-.889,2.863c1.206-.52,2.307,1.2,1.7,2.286s-1.991,1.56-3.2,2.073a28.686,28.686,0,0,0-6.093,3.747,121.854,121.854,0,0,0-9.823-15.223c1.736-1.066,3.322-2.355,5.076-3.406" transform="translate(-1738.561 -782.823)" fill="#ffe3d4"/>
          <path id="패스_2227" data-name="패스 2227" d="M1847.774,890.624c2.617-1.55,5.848-2.721,8.9-1.824a4.5,4.5,0,0,1,3.373,2.982,3.173,3.173,0,0,1-1.932,3.728q-.323-1.436-.647-2.871a4.058,4.058,0,0,1,4.291,2.711,3.871,3.871,0,0,1-2.42,4.566q-.518-1.392-1.037-2.784a4.051,4.051,0,0,1,4.778,1.506,3.654,3.654,0,0,1-1.244,4.933q-.687-1.3-1.376-2.6a2.893,2.893,0,0,1,3.7,1.93,3.468,3.468,0,0,1-1.662,4.009c-1.25.814-2.751,1.235-4.035,1.939a34.617,34.617,0,0,0-4.219,2.83,1.506,1.506,0,0,1-2.249-.693,120.482,120.482,0,0,0-9.642-14.883,1.5,1.5,0,0,1,.352-2.07c1.733-1.073,3.332-2.349,5.076-3.406a1.522,1.522,0,0,1,2.069.354,1.5,1.5,0,0,1-.352,2.07c-1.745,1.056-3.343,2.332-5.076,3.406q.177-1.035.353-2.07a125.27,125.27,0,0,1,10,15.564l-2.251-.693a31.357,31.357,0,0,1,6.874-4.111c.249-.1.5-.205.743-.317a3.365,3.365,0,0,0,.5-.258c.129-.085.255-.171.382-.257l.119-.094c-.075.076-.076.078-.006.005.086-.088.154-.192.238-.281-.1.109-.013-.1-.013.042,0,.205.008-.1.017-.15-.056.322-.02.065-.04-.06.033.206.058.146-.031,0s.156.21-.015-.014c-.224-.294.226.19-.044-.052-.133-.121-.045-.023.049.025-.2-.1.149.013.252.012-.3,0,.269-.113-.057.009a1.487,1.487,0,0,1-1.376-2.6,2.449,2.449,0,0,0,.3-.2c.1-.082-.042.155.068-.092.04-.088.091-.171.022-.031.017-.033.146-.364.095-.2s.03-.219.03-.216c-.019.149-.032.124-.011-.007,0-.045-.01-.09-.015-.134.038.145.04.165.007.06a1.016,1.016,0,0,0-.048-.127c-.042-.1-.035-.083.021.042,0-.059-.133-.179.005-.029a1.725,1.725,0,0,0-.258-.219c-.182-.132.278.132-.093-.041-.093-.044-.175-.08-.025-.03a2.382,2.382,0,0,0-.345-.076c-.073-.011-.355,0-.1-.014-.093.006-.187.014-.281.024.276-.031-.094.036-.155.059a1.485,1.485,0,0,1-1.037-2.784l.139-.056c-.1.058-.1.059-.014.006a2.266,2.266,0,0,0,.237-.172c.08-.064.075-.062-.016.009.032-.036.064-.073.095-.109.05-.076.113-.17.036-.035,0,.006.165-.352.111-.2s.046-.219.045-.221c.038-.177.059-.094,0-.014l-.012-.138c.04.14.044.156.011.051-.007-.027-.113-.277-.047-.148s-.137-.181-.138-.183c.155.189-.31-.223-.236-.18a1.07,1.07,0,0,0-.292-.116c-.1-.02-.2-.039-.294-.05.256.029-.171.02-.2.023a1.492,1.492,0,0,1-.647-2.871c.175-.066.108.018.021,0,.12-.092.139-.105.059-.04-.06.056-.062.052-.007-.011.125-.182-.14.161,0-.008.042-.1.04-.077-.007.063.01-.042.019-.084.029-.127,0,0,0-.243.012.011a1.825,1.825,0,0,0-.026-.257c.066.321-.07,0-.006.058s-.091-.12-.112-.147q-.093-.118,0,0l-.115-.1c-.082-.063-.16-.133-.247-.19.125.081-.055-.025-.089-.042-.121-.059-.242-.119-.367-.17a2.039,2.039,0,0,0-.514-.157,6.646,6.646,0,0,0-.786-.128,9.62,9.62,0,0,0-5.434,1.567,1.525,1.525,0,0,1-2.071-.353,1.5,1.5,0,0,1,.354-2.071" transform="translate(-1738.303 -782.556)" fill="#24221e"/>
          <path id="패스_2228" data-name="패스 2228" d="M1855.023,894.1c.375-4.992,3.859-13.921,11.078-10.551a12.493,12.493,0,0,1,2.935,2.128c3.349,2.968,5.878,7.534,10.061,9.437a16.562,16.562,0,0,0,13.691.157,17.381,17.381,0,0,0,1.617-.891,121.918,121.918,0,0,1,9.823,15.224c-2.871,2.182-5.607,4.572-8.927,6.086a26.653,26.653,0,0,1-8.789,2.108c-8.014.686-16.4-1.1-22.615-5.709-5.785-4.285-9.392-11.085-8.873-17.988" transform="translate(-1789.152 -781.695)" fill="#fff"/>
          <path id="패스_2229" data-name="패스 2229" d="M1853.25,893.572c.419-5.333,3.6-12.818,9.974-12.482,3.966.21,6.951,3.456,9.393,6.252a50.076,50.076,0,0,0,3.587,3.919,12.038,12.038,0,0,0,4.488,2.767,14.64,14.64,0,0,0,12.542-1.122,1.518,1.518,0,0,1,2.069.353,125.036,125.036,0,0,1,10,15.564,1.494,1.494,0,0,1-.533,1.731c-3.745,2.852-7.338,5.878-11.93,7.261a36.378,36.378,0,0,1-13.964,1.14c-8.493-.836-17.048-4.674-21.925-11.921a21.389,21.389,0,0,1-3.7-13.464,1.5,1.5,0,0,1,1.728-1.193,1.522,1.522,0,0,1,1.194,1.729,17.812,17.812,0,0,0,.05,2.629,17.292,17.292,0,0,0,.442,2.578,19.868,19.868,0,0,0,.924,2.711,16.951,16.951,0,0,0,1.209,2.381,22.271,22.271,0,0,0,8.127,7.833,30.509,30.509,0,0,0,11.181,3.643,34.582,34.582,0,0,0,12.275-.466,21.055,21.055,0,0,0,6.773-2.881c2.062-1.34,3.953-2.917,5.9-4.406q-.267.865-.534,1.731a120,120,0,0,0-9.642-14.883l2.07.353a17.135,17.135,0,0,1-6.079,2.334,18.019,18.019,0,0,1-6.23-.066,16.666,16.666,0,0,1-5.647-2.017,20.551,20.551,0,0,1-4.393-3.779c-.609-.663-1.2-1.345-1.785-2.025-.276-.319-.551-.639-.831-.955q-.233-.266-.471-.528c-.165-.185-.125-.142-.323-.351a13.92,13.92,0,0,0-4.383-3.466c-.2-.083-.4-.163-.6-.228.27.087-.227-.054-.284-.068a6.424,6.424,0,0,0-1.114-.165c.338.019-.077.009-.19.015-.151.006-.3.02-.454.04-.132.017-.495.1-.159.014-.177.044-.352.094-.524.154-.137.048-.272.1-.4.16s-.431.232-.146.062a7.77,7.77,0,0,0-.819.546c-.064.05-.422.352-.285.231s-.186.182-.225.223a9.556,9.556,0,0,0-.675.782c-.108.139-.211.281-.312.424-.046.065-.088.131-.134.2-.193.279.107-.189-.051.081-.2.347-.4.694-.584,1.055a18.886,18.886,0,0,0-.881,2.133c-.021.06-.086.271.007-.024-.037.114-.072.228-.106.343-.05.17-.1.341-.144.512q-.141.531-.252,1.066a16.925,16.925,0,0,0-.3,2.079,1.5,1.5,0,0,1-1.73,1.193,1.519,1.519,0,0,1-1.192-1.729" transform="translate(-1788.84 -781.433)" fill="#24221e"/>
          <path id="패스_2230" data-name="패스 2230" d="M1831.576,889.285a12.52,12.52,0,0,0-8.868-8.245c-2.854-.8-7.574-1.21-7.059,3.121a2.72,2.72,0,0,0,2.6,2.377,5.779,5.779,0,0,0-1.421,2.633,1.987,1.987,0,0,0,1.441,2.307c.551.071,1.217-.146,1.6.26a2.23,2.23,0,0,0,2.276,3.831,4.381,4.381,0,0,0,4.577,3.275,5.82,5.82,0,0,0,4.676-3.534,8.791,8.791,0,0,0,.179-6.026" transform="translate(-1683.548 -781.349)" fill="#ffe3d4"/>
          <path id="패스_2231" data-name="패스 2231" d="M1829.976,889.536a10.053,10.053,0,0,0-1.02-2.331,11.42,11.42,0,0,0-.733-1.054c-.139-.179-.284-.351-.432-.522-.018-.022-.188-.206-.046-.055-.1-.109-.21-.216-.317-.322a11.547,11.547,0,0,0-4.322-2.727c-.1-.037-.191-.072-.288-.107-.048-.017-.356-.122-.143-.054-.178-.057-.358-.108-.538-.158-.3-.081-.6-.155-.905-.218q-.48-.1-.967-.167c-.147-.02-.293-.037-.441-.052-.113-.01-.68-.024-.261-.025-.307,0-.61-.006-.914.019-.157.013-.31.036-.465.055-.066.008-.133.031-.2.036.371-.029.127-.036,0,.006s-.245.076-.364.125c-.058.023-.115.053-.172.075-.284.105.19-.154.054-.029a1.607,1.607,0,0,1-.3.208c-.156.072.223-.271.047-.045-.047.058-.1.116-.148.171-.082.088-.133.265.021-.053-.035.071-.076.14-.109.212s-.063.152-.094.228c.065-.163.052-.212.02-.014-.016.091-.036.182-.048.273-.006.043-.026.372-.019.157.009-.245.009.181.009.182.005.115.014.228.026.343a1.4,1.4,0,0,0,.384.773c-.131-.131.23.179.2.156-.156-.116.047.029.119.064s.346.116.112.057c.063.016.463.053.185.048a1.506,1.506,0,0,1,1.267,2.434,6.5,6.5,0,0,0-.992,1.514c-.091.207-.042.029-.079.267-.005.041-.035.422-.036.231,0-.266.068.4.016.138-.033-.171.077.206.1.253.043.1.034.082-.028-.047.024.037.048.072.071.109q.16.2,0,.008l.1.082c-.13-.075-.148-.089-.053-.041s.074.04-.068-.012c.148.019.171.025.071.021s-.077,0,.088,0a3,3,0,0,1,2.252.587,1.5,1.5,0,0,1-.1,2.349c-.01.007-.28.238-.176.129.119-.126-.107.15-.125.178.114-.177.009.006-.023.1-.074.205.025-.3-.025.088-.011.091-.033.179-.041.27.025-.288.013.01.024.078.016.109.007.091-.025-.055l.039.129c.017.043.032.085.047.127-.07-.117-.076-.13-.02-.039.026.057.227.267.045.087a2.043,2.043,0,0,0,.206.174c-.22-.167.454.139.173.078.036.008.4.07.206.049s.2-.012.208-.013c.142,0,.151-.042.009.006a2.816,2.816,0,0,0,.376-.158,1.4,1.4,0,0,1,1.313.151,1.558,1.558,0,0,1,.685,1.111c-.057-.266.08.2.1.252s.055.137.087.2c-.056-.1-.058-.106-.005-.017.089.149.193.284.293.424.161.223-.082-.042.143.157a3,3,0,0,0,1.337.8c-.222-.072.235.047.288.057a4.432,4.432,0,0,0,.446.064c.108.009.1.008-.023,0,.1,0,.2,0,.3-.012a4.534,4.534,0,0,0,.468-.059c-.24.042.209-.058.218-.061.149-.046.3-.1.44-.16.005,0,.425-.2.221-.093a4.656,4.656,0,0,0,.466-.292,4.761,4.761,0,0,0,1.911-2.764,7.9,7.9,0,0,0-.131-4.133,1.521,1.521,0,0,1,.874-1.909,1.5,1.5,0,0,1,1.91.873c1.107,3.784.458,8.466-3.245,10.609a6.305,6.305,0,0,1-5.553.515,5.7,5.7,0,0,1-3.5-4.191l2,1.262a3.709,3.709,0,0,1-3.653-6.434q-.047,1.173-.1,2.349a1.256,1.256,0,0,0,.225.091c-.173-.02-.179-.021-.019,0-.194,0-.387.011-.581.008a3.122,3.122,0,0,1-1.387-.305,3.373,3.373,0,0,1-1.633-1.983c-.625-1.925.44-3.64,1.594-5.1q.635,1.217,1.267,2.432a4.178,4.178,0,0,1-3.5-1.828,4.95,4.95,0,0,1-.69-3.5,4.309,4.309,0,0,1,3.741-3.523,11.128,11.128,0,0,1,4.756.337,15.769,15.769,0,0,1,5.96,2.943,13.2,13.2,0,0,1,4.32,6.321,1.521,1.521,0,0,1-.873,1.911,1.5,1.5,0,0,1-1.911-.875" transform="translate(-1683.34 -781.082)" fill="#24221e"/>
          <path id="패스_2232" data-name="패스 2232" d="M1870.565,844.6a14,14,0,0,1-14.284.917,1.516,1.516,0,0,1-.708-1.978,1.5,1.5,0,0,1,1.977-.707,10.952,10.952,0,0,0,11.3-.656,1.485,1.485,0,0,1,1.717,2.423" transform="translate(-1756.497 -775.495)" fill="#24221e"/>
        </g>
      </g>
      <g id="마스크_그룹_112" data-name="마스크 그룹 112" transform="translate(-959.838 -436.789) rotate(13)" clip-path="url(#clip-path-2)">
        <path id="XMLID_1006_" d="M9.39,2.338V15.89A4.165,4.165,0,0,0,7.8,15.584a5.491,5.491,0,0,0-3.816,1.671c-1.98,1.979-2.227,4.953-.552,6.628A3.931,3.931,0,0,0,6.247,25a5.491,5.491,0,0,0,3.816-1.671,5.593,5.593,0,0,0,1.642-3.3,4.624,4.624,0,0,0,.028-.511h0V6.635l9.373-1.558v8.476a4.165,4.165,0,0,0-1.586-.306A5.491,5.491,0,0,0,15.7,14.916c-1.98,1.979-2.227,4.953-.552,6.628a3.931,3.931,0,0,0,2.811,1.118,5.491,5.491,0,0,0,3.816-1.671,5.593,5.593,0,0,0,1.642-3.3,4.624,4.624,0,0,0,.028-.511h0V0Z" transform="translate(1572.612 236)"/>
      </g>
    </g>
    <path id="패스_2237" data-name="패스 2237" d="M-17672.834-19488.732s-6.664,7.693-2.562,19.488" transform="translate(23189.273 13366.822) rotate(-18)" fill="none" stroke="#000" stroke-linecap="round" stroke-width="2.5"/>
    <path id="패스_2238" data-name="패스 2238" d="M-17672.834-19488.732s-6.664,7.693-2.562,19.488" transform="translate(21687.947 15676.544) rotate(-12)" fill="none" stroke="#000" stroke-linecap="round" stroke-width="2.5"/>
  </g>
</svg>
