<svg xmlns="http://www.w3.org/2000/svg" xmlns:xlink="http://www.w3.org/1999/xlink" width="80" height="80" viewBox="0 0 80 80">
  <defs>
    <clipPath id="clip-path">
      <rect id="사각형_118" data-name="사각형 118" width="52" height="52" fill="#6f57cf"/>
    </clipPath>
  </defs>
  <g id="그룹_1294" data-name="그룹 1294" transform="translate(-507 -664)">
    <rect id="bg" width="80" height="80" rx="10" transform="translate(507 664)" fill="#f0eefa"/>
    <g id="icon_과제제출" transform="translate(521 678)" clip-path="url(#clip-path)">
      <g id="book_1_" data-name="book (1)" transform="translate(0 3.482)">
        <path id="패스_86" data-name="패스 86" d="M50.656,8.691H48.441L45.853,3.514A1.529,1.529,0,0,0,44.4,2.671,70.245,70.245,0,0,0,26.092,6.239,67.3,67.3,0,0,0,7.781,2.671a1.53,1.53,0,0,0-1.449.843L3.744,8.691H1.529A1.529,1.529,0,0,0,0,10.22V40.8a1.529,1.529,0,0,0,1.529,1.529H4.192A57.944,57.944,0,0,1,21.81,45.064a4.658,4.658,0,0,0,8.565,0,57.944,57.944,0,0,1,17.617-2.738h2.663A1.529,1.529,0,0,0,52.185,40.8V10.22a1.529,1.529,0,0,0-1.529-1.529ZM8.615,5.785A64.727,64.727,0,0,1,25.609,9.3a1.529,1.529,0,0,0,.967,0A64.991,64.991,0,0,1,43.57,5.785l1.488,2.976A60.987,60.987,0,0,0,28.7,11.816h0a1.519,1.519,0,0,0-1.046,1.16,1.589,1.589,0,0,1-3.117,0,1.522,1.522,0,0,0-1.047-1.161h0A60.988,60.988,0,0,0,7.127,8.762ZM3.058,39.268V11.749H4.192A57.94,57.94,0,0,1,21.506,14.39V41.771a60.988,60.988,0,0,0-17.313-2.5Zm23.035,5.564a1.518,1.518,0,0,1-1.529-1.157V17.07a4.933,4.933,0,0,0,3.058,0V43.676A1.518,1.518,0,0,1,26.092,44.832Zm23.035-5.564H47.992a60.987,60.987,0,0,0-17.313,2.5V14.39a57.937,57.937,0,0,1,17.313-2.642h1.135Z" transform="translate(0 -2.669)" fill="#6f57cf"/>
      </g>
    </g>
  </g>
</svg>
