<svg xmlns="http://www.w3.org/2000/svg" width="22.997" height="22.997" viewBox="0 0 22.997 22.997">
  <g id="그룹_1056" data-name="그룹 1056" transform="translate(-166.655 -39.238)">
    <g id="그룹_1053" data-name="그룹 1053" transform="translate(166.655 39.238)">
      <g id="그룹_1052" data-name="그룹 1052">
        <circle id="타원_458" data-name="타원 458" cx="11.499" cy="11.499" r="11.499" fill="#fdc42d"/>
        <g id="그룹_1051" data-name="그룹 1051" transform="translate(2.071 3.527)">
          <path id="패스_2398" data-name="패스 2398" d="M186.209,42.39a11.49,11.49,0,0,1-17.7,14.544,11.492,11.492,0,1,0,17.7-14.544Z" transform="translate(-168.506 -42.39)" fill="#fdb431"/>
        </g>
        <path id="패스_2399" data-name="패스 2399" d="M169.076,45.093a8.626,8.626,0,0,1,4.1-3.965" transform="translate(-166.367 -39.013)" fill="none" stroke="#fff" stroke-linecap="round" stroke-linejoin="round" stroke-width="0.5"/>
      </g>
    </g>
    <g id="그룹_1054" data-name="그룹 1054" transform="translate(173.628 54.095)">
      <path id="패스_2400" data-name="패스 2400" d="M172.887,53.211c.384,1.456,1.474,3.9,4.492,3.9h.066c3.02,0,4.11-2.444,4.492-3.9h0a15.08,15.08,0,0,0-8.969-.025Z" transform="translate(-172.887 -52.516)" fill="#403d3c"/>
      <path id="패스_2401" data-name="패스 2401" d="M174.1,55.166a6.53,6.53,0,0,1,6.376,0,3.714,3.714,0,0,1-3.2,1.453S174.956,56.553,174.1,55.166Z" transform="translate(-172.743 -52.301)" fill="#ee3555"/>
    </g>
    <g id="그룹_1055" data-name="그룹 1055" transform="translate(169.61 46.289)">
      <path id="패스_2402" data-name="패스 2402" d="M174.034,45.607a1.9,1.9,0,0,0-1.375,1.518,1.906,1.906,0,0,0-3.3,1.73c.81,2.976,4.774,3.706,4.774,3.706s3.05-2.637,2.24-5.613A1.908,1.908,0,0,0,174.034,45.607Zm-.962,3.11c0-.013.008-.026.01-.039.008.01.018.019.027.029l-.017.009Z" transform="translate(-169.296 -45.539)" fill="#ee3555"/>
      <path id="패스_2403" data-name="패스 2403" d="M178.253,46.948c-.809,2.976,2.24,5.613,2.24,5.613s3.965-.73,4.774-3.706a1.9,1.9,0,0,0-3.3-1.73,1.906,1.906,0,0,0-3.719-.178Zm3.286,1.769-.018-.009.028-.029c0,.013.007.026.009.039Z" transform="translate(-168.247 -45.539)" fill="#ee3555"/>
    </g>
  </g>
</svg>
