<svg xmlns="http://www.w3.org/2000/svg" width="65" height="65" viewBox="0 0 65 65">
  <g id="그룹_1288" data-name="그룹 1288" transform="translate(-398 -3589.502)">
    <rect id="bg_" width="65" height="65" rx="10" transform="translate(398 3589.502)" fill="#f0eefa"/>
    <g id="ico_" transform="translate(413 3604.502)">
      <rect id="bg_2" data-name="bg_" width="35" height="35" fill="#c9cdd2" opacity="0"/>
      <g id="그룹_1267" data-name="그룹 1267" transform="translate(-1087.75 -523.389)">
        <path id="패스_2565" data-name="패스 2565" d="M1119.506,553.528h-5.725a.973.973,0,0,1-.554-.173l-3.335-2.314-3.335,2.314a.972.972,0,0,1-.554.173h-15.009a3.248,3.248,0,0,1-3.244-3.244v-18.79a3.248,3.248,0,0,1,3.244-3.244H1106a.972.972,0,0,1,.519.15l3.37,2.127,3.37-2.127a.972.972,0,0,1,.519-.15h5.725a3.248,3.248,0,0,1,3.244,3.244v18.79A3.248,3.248,0,0,1,1119.506,553.528Zm-5.421-1.944h5.421a1.3,1.3,0,0,0,1.3-1.3v-18.79a1.3,1.3,0,0,0-1.3-1.3h-5.444l-3.651,2.3a.972.972,0,0,1-1.038,0l-3.651-2.3h-14.728a1.3,1.3,0,0,0-1.3,1.3v18.79a1.3,1.3,0,0,0,1.3,1.3H1105.7l3.639-2.525a.973.973,0,0,1,1.108,0Z" fill="#6f57cf"/>
        <circle id="타원_532" data-name="타원 532" cx="1.142" cy="1.142" r="1.142" transform="translate(1108.75 534.326)" fill="#6f57cf"/>
        <circle id="타원_533" data-name="타원 533" cx="1.142" cy="1.142" r="1.142" transform="translate(1108.75 539.917)" fill="#6f57cf"/>
        <circle id="타원_534" data-name="타원 534" cx="1.142" cy="1.142" r="1.142" transform="translate(1108.75 545.507)" fill="#6f57cf"/>
      </g>
    </g>
  </g>
</svg>
