<svg xmlns="http://www.w3.org/2000/svg" width="36.372" height="25" viewBox="0 0 36.372 25">
  <g id="그룹_1338" data-name="그룹 1338" transform="translate(-268.122 -267.192)">
    <g id="그룹_1305" data-name="그룹 1305" transform="translate(274.004 270.565)">
      <g id="그룹_1303" data-name="그룹 1303" transform="translate(0 2.097)">
        <path id="패스_2580" data-name="패스 2580" d="M306.154,292.559V290.4l-7.46-5.395a.328.328,0,0,0-.358,0l-7.46,5.395v2.156h-4.665V304.1h24.608V292.559Z" transform="translate(-286.211 -284.956)" fill="#fff"/>
      </g>
      <g id="그룹_1304" data-name="그룹 1304" transform="translate(4.665 0)">
        <path id="패스_2581" data-name="패스 2581" d="M308.376,280.3l7.46,5.395v-2.6l-7.639-4.944-7.639,4.944v2.6l7.46-5.395A.328.328,0,0,1,308.376,280.3Z" transform="translate(-300.558 -278.146)" fill="#e6e6e6"/>
      </g>
    </g>
    <g id="그룹_1306" data-name="그룹 1306" transform="translate(283.389 287.909)">
      <rect id="사각형_1328" data-name="사각형 1328" width="5.838" height="3.897" transform="translate(0)" fill="#ccc"/>
    </g>
    <g id="그룹_1307" data-name="그룹 1307" transform="translate(273.598 270.18)">
      <path id="패스_2582" data-name="패스 2582" d="M309.976,298.908H285.367a.4.4,0,0,1-.406-.385V286.982a.4.4,0,0,1,.406-.385h4.259v-4.371a.38.38,0,0,1,.177-.318l7.639-4.944a.426.426,0,0,1,.459,0l7.639,4.944a.38.38,0,0,1,.177.318V286.6h4.259a.4.4,0,0,1,.406.385v11.541A.4.4,0,0,1,309.976,298.908Zm-24.2-.77h23.8V287.367h-4.259a.4.4,0,0,1-.406-.385v-4.553l-7.232-4.681-7.232,4.681v4.553a.4.4,0,0,1-.406.385h-4.259Z" transform="translate(-284.961 -276.897)" fill="#333"/>
    </g>
    <g id="그룹_1310" data-name="그룹 1310" transform="translate(275.131 267.192)">
      <g id="그룹_1308" data-name="그룹 1308" transform="translate(0.406 0.381)">
        <path id="패스_2583" data-name="패스 2583" d="M312.408,276.279a.175.175,0,0,0-.02-.279l-10.507-7.518a.331.331,0,0,0-.36,0L291.007,276a.175.175,0,0,0-.021.279l1.6,1.511a.276.276,0,0,0,.338.021l8.6-6.217a.327.327,0,0,1,.358,0l8.6,6.217a.276.276,0,0,0,.338-.021Z" transform="translate(-290.926 -268.428)" fill="#686868"/>
      </g>
      <g id="그룹_1309" data-name="그룹 1309" transform="translate(0 0)">
        <path id="패스_2584" data-name="패스 2584" d="M309.786,277.388h0a.691.691,0,0,1-.4-.127l-8.53-6.168-8.531,6.168a.723.723,0,0,1-.872-.055l-1.6-1.511a.554.554,0,0,1-.178-.443.564.564,0,0,1,.24-.416l10.514-7.519a.776.776,0,0,1,.849,0l10.508,7.519a.563.563,0,0,1,.241.416.554.554,0,0,1-.178.443l-1.6,1.51A.689.689,0,0,1,309.786,277.388ZM290.6,275.313l1.332,1.261,8.494-6.143a.771.771,0,0,1,.851,0l8.495,6.143,1.333-1.262-10.249-7.333Z" transform="translate(-289.677 -267.192)" fill="#333"/>
      </g>
    </g>
    <g id="그룹_1313" data-name="그룹 1313" transform="translate(283.411 274.875)">
      <g id="그룹_1311" data-name="그룹 1311" transform="translate(0 0)">
        <path id="패스_2585" data-name="패스 2585" d="M320.935,294.885a2.9,2.9,0,1,1-2.9-2.743A2.823,2.823,0,0,1,320.935,294.885Z" transform="translate(-315.141 -292.142)" fill="#ccc"/>
      </g>
      <g id="그룹_1312" data-name="그룹 1312" transform="translate(1.533 0.871)">
        <path id="패스_2586" data-name="패스 2586" d="M321.22,297.228h-.957a.386.386,0,1,1,0-.77h.551v-1.1a.407.407,0,0,1,.813,0v1.487A.4.4,0,0,1,321.22,297.228Z" transform="translate(-319.856 -294.971)" fill="#333"/>
      </g>
    </g>
    <g id="그룹_1330" data-name="그룹 1330" transform="translate(278.279 282.652)">
      <g id="그룹_1314" data-name="그룹 1314" transform="translate(0 0)">
        <rect id="사각형_1329" data-name="사각형 1329" width="1.182" height="1.12" fill="#ccc"/>
      </g>
      <g id="그룹_1315" data-name="그룹 1315" transform="translate(2.48 0)">
        <rect id="사각형_1330" data-name="사각형 1330" width="1.182" height="1.12" fill="#ccc"/>
      </g>
      <g id="그룹_1316" data-name="그룹 1316" transform="translate(4.959 0)">
        <rect id="사각형_1331" data-name="사각형 1331" width="1.182" height="1.12" fill="#ccc"/>
      </g>
      <g id="그룹_1317" data-name="그룹 1317" transform="translate(7.438 0)">
        <rect id="사각형_1332" data-name="사각형 1332" width="1.182" height="1.12" fill="#ccc"/>
      </g>
      <g id="그룹_1318" data-name="그룹 1318" transform="translate(9.918 0)">
        <rect id="사각형_1333" data-name="사각형 1333" width="1.182" height="1.12" fill="#ccc"/>
      </g>
      <g id="그룹_1319" data-name="그룹 1319" transform="translate(12.398 0)">
        <rect id="사각형_1334" data-name="사각형 1334" width="1.181" height="1.12" fill="#ccc"/>
      </g>
      <g id="그룹_1321" data-name="그룹 1321" transform="translate(14.877 0)">
        <g id="그룹_1320" data-name="그룹 1320">
          <rect id="사각형_1335" data-name="사각형 1335" width="1.182" height="1.12" fill="#ccc"/>
        </g>
      </g>
      <g id="그룹_1322" data-name="그룹 1322" transform="translate(0 2.214)">
        <rect id="사각형_1336" data-name="사각형 1336" width="1.182" height="1.119" fill="#ccc"/>
      </g>
      <g id="그룹_1323" data-name="그룹 1323" transform="translate(2.48 2.214)">
        <rect id="사각형_1337" data-name="사각형 1337" width="1.182" height="1.119" fill="#ccc"/>
      </g>
      <g id="그룹_1324" data-name="그룹 1324" transform="translate(4.959 2.214)">
        <rect id="사각형_1338" data-name="사각형 1338" width="1.182" height="1.119" fill="#ccc"/>
      </g>
      <g id="그룹_1325" data-name="그룹 1325" transform="translate(7.438 2.214)">
        <rect id="사각형_1339" data-name="사각형 1339" width="1.182" height="1.119" fill="#ccc"/>
      </g>
      <g id="그룹_1326" data-name="그룹 1326" transform="translate(9.918 2.214)">
        <rect id="사각형_1340" data-name="사각형 1340" width="1.182" height="1.119" fill="#ccc"/>
      </g>
      <g id="그룹_1327" data-name="그룹 1327" transform="translate(12.398 2.214)">
        <rect id="사각형_1341" data-name="사각형 1341" width="1.181" height="1.119" fill="#ccc"/>
      </g>
      <g id="그룹_1329" data-name="그룹 1329" transform="translate(14.877 2.214)">
        <g id="그룹_1328" data-name="그룹 1328">
          <rect id="사각형_1342" data-name="사각형 1342" width="1.182" height="1.119" fill="#ccc"/>
        </g>
      </g>
    </g>
    <g id="그룹_1337" data-name="그룹 1337" transform="translate(268.122 282.858)">
      <g id="그룹_1333" data-name="그룹 1333" transform="translate(31.254 0)">
        <g id="그룹_1331" data-name="그룹 1331">
          <path id="패스_2587" data-name="패스 2587" d="M369.792,322.232c0,1.612-.963,2.918-2.153,2.918s-2.153-1.307-2.153-2.918.964-2.919,2.153-2.919S369.792,320.62,369.792,322.232Z" transform="translate(-365.08 -318.928)" fill="#686868"/>
          <path id="패스_2588" data-name="패스 2588" d="M366.8,324.67c-1.411,0-2.559-1.482-2.559-3.3s1.148-3.3,2.559-3.3,2.559,1.482,2.559,3.3S368.207,324.67,366.8,324.67Zm0-5.837c-.947,0-1.747,1.16-1.747,2.534s.8,2.533,1.747,2.533,1.746-1.16,1.746-2.533S367.742,318.833,366.8,318.833Z" transform="translate(-364.236 -318.063)" fill="#333"/>
        </g>
        <g id="그룹_1332" data-name="그룹 1332" transform="translate(2.153 2.919)">
          <line id="선_405" data-name="선 405" y2="5.645" transform="translate(0.406 0.385)" fill="#87b570"/>
          <path id="패스_2589" data-name="패스 2589" d="M371.263,333.956a.4.4,0,0,1-.406-.385v-5.645a.407.407,0,0,1,.813,0v5.645A.4.4,0,0,1,371.263,333.956Z" transform="translate(-370.857 -327.542)" fill="#333"/>
        </g>
      </g>
      <g id="그룹_1336" data-name="그룹 1336" transform="translate(0 0)">
        <g id="그룹_1334" data-name="그룹 1334">
          <path id="패스_2590" data-name="패스 2590" d="M273.678,322.232c0,1.612-.964,2.918-2.153,2.918s-2.153-1.307-2.153-2.918.964-2.919,2.153-2.919S273.678,320.62,273.678,322.232Z" transform="translate(-268.966 -318.928)" fill="#686868"/>
          <path id="패스_2591" data-name="패스 2591" d="M270.681,324.67c-1.411,0-2.559-1.482-2.559-3.3s1.148-3.3,2.559-3.3,2.559,1.482,2.559,3.3S272.092,324.67,270.681,324.67Zm0-5.837c-.947,0-1.746,1.16-1.746,2.534s.8,2.533,1.746,2.533,1.746-1.16,1.746-2.533S271.628,318.833,270.681,318.833Z" transform="translate(-268.122 -318.063)" fill="#333"/>
        </g>
        <g id="그룹_1335" data-name="그룹 1335" transform="translate(2.153 2.919)">
          <line id="선_406" data-name="선 406" y2="5.645" transform="translate(0.406 0.385)" fill="#87b570"/>
          <path id="패스_2592" data-name="패스 2592" d="M275.149,333.956a.4.4,0,0,1-.406-.385v-5.645a.407.407,0,0,1,.813,0v5.645A.4.4,0,0,1,275.149,333.956Z" transform="translate(-274.743 -327.542)" fill="#333"/>
        </g>
      </g>
    </g>
  </g>
</svg>
