<svg width="22" height="27" viewBox="0 0 22 27" fill="none" xmlns="http://www.w3.org/2000/svg">
<path fill-rule="evenodd" clip-rule="evenodd" d="M9.77779 3.52819C9.77779 2.85318 10.325 2.30597 11 2.30597C11.675 2.30597 12.2222 2.85318 12.2222 3.52819V4.7504H18.7778C19.8823 4.7504 20.7778 5.64583 20.7778 6.7504V19.6171C20.7778 20.7216 19.8823 21.6171 18.7778 21.6171H3.22222C2.11765 21.6171 1.22221 20.7216 1.22221 19.6171V14.8979C1.22055 15.234 0.947589 15.506 0.611111 15.506C0.273604 15.506 0 15.2324 0 14.8949V10.006C0 9.66846 0.273604 9.39486 0.611111 9.39486C0.947589 9.39486 1.22055 9.6668 1.22221 10.0029V6.7504C1.22221 5.64583 2.11765 4.7504 3.22221 4.7504H9.77779V3.52819ZM20.7778 10.006C20.7778 9.66846 21.0514 9.39486 21.3889 9.39486C21.7264 9.39486 22 9.66846 22 10.006V14.8949C22 15.2324 21.7264 15.506 21.3889 15.506C21.0514 15.506 20.7778 15.2324 20.7778 14.8949V10.006ZM6.11111 25.0852V21.6171H11L6.43549 25.2418C6.30442 25.3459 6.11111 25.2526 6.11111 25.0852Z" fill="url(#paint0_linear_81_71)"/>
<path fill-rule="evenodd" clip-rule="evenodd" d="M9.77779 3.52819C9.77779 2.85318 10.325 2.30597 11 2.30597C11.675 2.30597 12.2222 2.85318 12.2222 3.52819V4.7504H18.7778C19.8823 4.7504 20.7778 5.64583 20.7778 6.7504V19.6171C20.7778 20.7216 19.8823 21.6171 18.7778 21.6171H3.22222C2.11765 21.6171 1.22221 20.7216 1.22221 19.6171V14.8979C1.22055 15.234 0.947589 15.506 0.611111 15.506C0.273604 15.506 0 15.2324 0 14.8949V10.006C0 9.66846 0.273604 9.39486 0.611111 9.39486C0.947589 9.39486 1.22055 9.6668 1.22221 10.0029V6.7504C1.22221 5.64583 2.11765 4.7504 3.22221 4.7504H9.77779V3.52819ZM20.7778 10.006C20.7778 9.66846 21.0514 9.39486 21.3889 9.39486C21.7264 9.39486 22 9.66846 22 10.006V14.8949C22 15.2324 21.7264 15.506 21.3889 15.506C21.0514 15.506 20.7778 15.2324 20.7778 14.8949V10.006ZM6.11111 25.0852V21.6171H11L6.43549 25.2418C6.30442 25.3459 6.11111 25.2526 6.11111 25.0852Z" fill="white"/>
<path d="M9.52757 10.2881L7.38925 16.9932H5.41016L8.47547 8.71283H9.72662L9.52757 10.2881ZM11.3019 16.9932L9.15792 10.2881L8.93612 8.71283H10.2043L13.281 16.9932H11.3019ZM11.2109 13.9108V15.3439H6.89447V13.9108H11.2109Z" fill="white"/>
<path d="M9.52757 10.2881L7.38925 16.9932H5.41016L8.47547 8.71283H9.72662L9.52757 10.2881ZM11.3019 16.9932L9.15792 10.2881L8.93612 8.71283H10.2043L13.281 16.9932H11.3019ZM11.2109 13.9108V15.3439H6.89447V13.9108H11.2109Z" fill="url(#paint1_linear_81_71)"/>
<path d="M16.5896 8.71283V12.853V16.9932H14.7413V8.71283H16.5896Z" fill="white"/>
<path d="M16.5896 8.71283V12.853V16.9932H14.7413V8.71283H16.5896Z" fill="url(#paint2_linear_81_71)"/>
<defs>
<linearGradient id="paint0_linear_81_71" x1="9.72641e-07" y1="0.842618" x2="21.943" y2="26.2937" gradientUnits="userSpaceOnUse">
<stop stop-color="#4089F8"/>
<stop offset="1" stop-color="#A73BE9"/>
</linearGradient>
<linearGradient id="paint1_linear_81_71" x1="5.41016" y1="8.71283" x2="20.0158" y2="8.83842" gradientUnits="userSpaceOnUse">
<stop offset="0.0001" stop-color="#FF00A1"/>
<stop offset="0.53125" stop-color="#9C00FF"/>
<stop offset="1" stop-color="#0258FF"/>
</linearGradient>
<linearGradient id="paint2_linear_81_71" x1="5.41016" y1="8.71283" x2="20.0158" y2="8.83842" gradientUnits="userSpaceOnUse">
<stop offset="0.0001" stop-color="#FF00A1"/>
<stop offset="0.53125" stop-color="#9C00FF"/>
<stop offset="1" stop-color="#0258FF"/>
</linearGradient>
</defs>
</svg>
