<svg xmlns="http://www.w3.org/2000/svg" xmlns:xlink="http://www.w3.org/1999/xlink" width="65" height="65" viewBox="0 0 65 65">
  <defs>
    <clipPath id="clip-path">
      <rect id="bg_" width="35" height="35" transform="translate(722 144)" fill="#6f57cf"/>
    </clipPath>
  </defs>
  <g id="그룹_1286" data-name="그룹 1286" transform="translate(-398 -3409.502)">
    <rect id="bg_2" data-name="bg_" width="65" height="65" rx="10" transform="translate(398 3409.502)" fill="#f0eefa"/>
    <g id="마스크_그룹_109" data-name="마스크 그룹 109" transform="translate(-309 3280.502)" clip-path="url(#clip-path)">
      <g id="free-icon-writing-1001371" transform="translate(722 144)">
        <g id="그룹_1269" data-name="그룹 1269">
          <g id="그룹_1268" data-name="그룹 1268">
            <path id="패스_2566" data-name="패스 2566" d="M24.094,15.039a1.367,1.367,0,0,0-1.367-1.367H8.645a1.367,1.367,0,0,0,0,2.734H22.727A1.367,1.367,0,0,0,24.094,15.039Z" fill="#6f57cf"/>
            <path id="패스_2567" data-name="패스 2567" d="M8.645,19.141a1.367,1.367,0,0,0,0,2.734H17.2a1.367,1.367,0,0,0,0-2.734Z" fill="#6f57cf"/>
            <path id="패스_2568" data-name="패스 2568" d="M11.858,32.266H7.285a2.737,2.737,0,0,1-2.734-2.734V5.469A2.737,2.737,0,0,1,7.285,2.734H24.094a2.737,2.737,0,0,1,2.734,2.734v8.408a1.367,1.367,0,0,0,2.734,0V5.469A5.475,5.475,0,0,0,24.094,0H7.285A5.475,5.475,0,0,0,1.816,5.469V29.531A5.475,5.475,0,0,0,7.285,35h4.572a1.367,1.367,0,1,0,0-2.734Z" fill="#6f57cf"/>
            <path id="패스_2569" data-name="패스 2569" d="M31.984,19.795a4.106,4.106,0,0,0-5.8,0l-7.506,7.489a1.368,1.368,0,0,0-.342.57L16.7,33.235a1.367,1.367,0,0,0,1.673,1.715l5.518-1.529a1.367,1.367,0,0,0,.6-.35l7.49-7.476A4.106,4.106,0,0,0,31.984,19.795ZM22.817,30.883l-2.776.769.812-2.675,5.065-5.053,1.934,1.934Zm7.235-7.221-.265.264-1.934-1.934.264-.263a1.367,1.367,0,0,1,1.934,1.933Z" fill="#6f57cf"/>
            <path id="패스_2570" data-name="패스 2570" d="M22.727,8.2H8.645a1.367,1.367,0,0,0,0,2.734H22.727a1.367,1.367,0,0,0,0-2.734Z" fill="#6f57cf"/>
          </g>
        </g>
      </g>
    </g>
  </g>
</svg>
