<svg xmlns="http://www.w3.org/2000/svg" xmlns:xlink="http://www.w3.org/1999/xlink" width="45" height="45" viewBox="0 0 45 45">
  <defs>
    <clipPath id="clip-path">
      <rect id="사각형_118" data-name="사각형 118" width="45" height="45" fill="#6f57cf"/>
    </clipPath>
  </defs>
  <g id="icon_과제제출" clip-path="url(#clip-path)">
    <g id="book_1_" data-name="book (1)" transform="translate(0 3.002)">
      <path id="패스_86" data-name="패스 86" d="M43.682,7.862h-1.91L39.54,3.4a1.319,1.319,0,0,0-1.249-.727A60.574,60.574,0,0,0,22.5,5.747,58.033,58.033,0,0,0,6.71,2.671,1.319,1.319,0,0,0,5.46,3.4L3.228,7.862H1.318A1.318,1.318,0,0,0,0,9.18V35.547a1.318,1.318,0,0,0,1.318,1.318h2.3a49.966,49.966,0,0,1,15.192,2.361,4.016,4.016,0,0,0,7.386,0,49.967,49.967,0,0,1,15.192-2.361h2.3A1.318,1.318,0,0,0,45,35.547V9.18a1.318,1.318,0,0,0-1.318-1.318ZM7.429,5.356A55.816,55.816,0,0,1,22.083,8.388a1.318,1.318,0,0,0,.834,0A56.043,56.043,0,0,1,37.571,5.356l1.283,2.567a52.59,52.59,0,0,0-14.105,2.634h0a1.31,1.31,0,0,0-.9,1,1.371,1.371,0,0,1-2.688,0,1.312,1.312,0,0,0-.9-1h0A52.592,52.592,0,0,0,6.145,7.923ZM2.637,34.229V10.5h.978a49.963,49.963,0,0,1,14.93,2.278V36.388a52.591,52.591,0,0,0-14.93-2.159Zm19.863,4.8a1.309,1.309,0,0,1-1.318-1V15.088a4.254,4.254,0,0,0,2.637,0V38.03A1.309,1.309,0,0,1,22.5,39.027Zm19.863-4.8h-.978a52.591,52.591,0,0,0-14.93,2.159V12.777A49.96,49.96,0,0,1,41.385,10.5h.978Z" transform="translate(0 -2.669)" fill="#6f57cf"/>
    </g>
  </g>
</svg>
