<svg width="39" height="22" viewBox="0 0 39 22" fill="none" xmlns="http://www.w3.org/2000/svg">
<g clip-path="url(#clip0_1_54)">
<path d="M-0.0039978 6.77002V0H3.931V10.27C3.931 10.424 3.698 10.492 3.581 10.37L-0.0039978 6.77002Z" fill="#E8473F"/>
<path d="M9.807 18.37V0H5.867V21.836C5.867 21.988 6.1 22.057 6.218 21.936L9.807 18.37Z" fill="#E8473F"/>
<path d="M16.324 0H12.388V21.999H16.324V0Z" fill="#E8473F"/>
<path d="M18.607 0.060992C18.489 -0.058008 18.256 0.0120286 18.256 0.161029V10.258C18.256 10.411 18.489 10.48 18.607 10.358L22.193 6.75801V3.65804L18.607 0.060992Z" fill="#E8473F"/>
<path d="M18.607 11.637C18.489 11.519 18.256 11.5881 18.256 11.7371V21.837C18.256 21.99 18.489 22.059 18.607 21.937L22.193 18.337V15.2371L18.607 11.637Z" fill="#E8473F"/>
<path d="M28.237 3.62999V21.998H24.3V0.161968C24.3 0.00996839 24.533 -0.0580072 24.65 0.0619928L28.237 3.62999Z" fill="#004EA1"/>
<path d="M33.422 3.62999L33.461 21.999H29.486V0.161968C29.486 0.00996839 29.719 -0.0580072 29.836 0.0619928L33.422 3.62999Z" fill="#004EA1"/>
<path d="M38.67 3.62999V21.998H34.734V0.161968C34.734 0.00996839 34.967 -0.0580072 35.084 0.0619928L38.67 3.62999Z" fill="#004EA1"/>
</g>
<defs>
<clipPath id="clip0_1_54">
<rect width="39" height="22" fill="white"/>
</clipPath>
</defs>
</svg>
