<svg id="그룹_1296" data-name="그룹 1296" xmlns="http://www.w3.org/2000/svg" width="132" height="42" viewBox="0 0 132 42">
  <path id="패스_2584" data-name="패스 2584" d="M111,0H21A21,21,0,0,0,0,21H0A21,21,0,0,0,21,42h90a21,21,0,0,0,21-21h0A21,21,0,0,0,111,0ZM100.1,12.366h14.483v2.4H102.841v5.8h11.922v2.4H100.1ZM16.781,20.988c4.2-.98,6.481-3.461,6.481-7.462V12.267H26v1.259c0,4,2.3,6.482,6.5,7.462v2.4a11.886,11.886,0,0,1-7.861-4.481,11.888,11.888,0,0,1-7.862,4.481ZM32.824,29.61H16.5V27.229H32.824Zm13.9-.8a10.6,10.6,0,0,1-3.221.38H36.281V12.366h9.042v2.381H39v4.741h5.461v2.38H39V26.81h4.641a12.638,12.638,0,0,0,3.081-.26Zm4.34,1.6h-2.74V21.589H45.2v-2.4h3.12V12.047h2.74Zm19.2,0H67.523V28.29c-.6.6-1.96.9-3.681.9H55.48V12.366h9.042v2.381H58.2V26.81h6.161a5.057,5.057,0,0,0,3.161-.741V12.047h2.741Zm26.04-.8H79.98V27.229h6.842v-3.62H80.9V12.366h2.742v3.4h9v-3.4h2.741V23.609H89.542v3.62H96.3Zm19.2,0H99.18V27.229H115.5Z" fill="#fff"/>
  <rect id="사각형_1337" data-name="사각형 1337" width="9.001" height="3.04" transform="translate(83.642 18.168)" fill="#fff"/>
</svg>
