<svg xmlns="http://www.w3.org/2000/svg" width="1514.171" height="355.004" viewBox="0 0 1514.171 355.004">
  <g id="그룹_1291" data-name="그룹 1291" transform="translate(-199.067 -1801)">
    <g id="img_캐릭터" transform="translate(-279.541 1808.717)">
      <path id="패스_2013" data-name="패스 2013" d="M1244.1,230.258s30.418,8.941,26.584,51.032c0,0-11.537,3.761-18.218-.711Z" transform="translate(16.732 18.319)" fill="#597582" stroke="#24221e" stroke-miterlimit="10" stroke-width="4"/>
      <path id="패스_2014" data-name="패스 2014" d="M1201.24,226.414a152.411,152.411,0,0,0-17.541,58.019c-.285,3.051-3,8.529-1.791,11.428,1.448,3.458,9.052,4.824,12.546,5.9a105.5,105.5,0,0,0,31.59,4.644,11.547,11.547,0,0,0,5.489-.993c3.258-1.766,4.379-6.133,7.586-7.99a66.15,66.15,0,0,0,4.074,8.8c.908,1.633,13.417-3.88,14.808-4.438,8.323-3.346,9.487-9.289,9.357-18.205a180.247,180.247,0,0,0-9.81-56.034" transform="translate(3.568 17.51)" fill="#597582"/>
      <path id="패스_2015" data-name="패스 2015" d="M1199.677,225.66a154.21,154.21,0,0,0-15.507,43.04q-.781,3.921-1.354,7.879c-.4,2.729-.817,5.494-.991,8.248-.025.393.1-.476-.019.109-.033.172-.064.344-.1.513-.1.435-.21.866-.327,1.294-.252.913-.53,1.818-.786,2.73a15.665,15.665,0,0,0-.828,5.689c.43,4.088,4.135,5.954,7.627,7.189,1.6.564,3.235,1,4.87,1.433,1.967.525,3.905,1.144,5.874,1.666a109.948,109.948,0,0,0,15.628,2.926q3.873.447,7.771.605a47.667,47.667,0,0,0,7.484-.05,10.091,10.091,0,0,0,6.489-3.107,24.422,24.422,0,0,0,1.953-2.5c.264-.372.525-.743.789-1.114.122-.17.246-.337.37-.5.214-.288-.2.245.025-.034.087-.108.176-.214.264-.321a10.872,10.872,0,0,1,.91-.965c.149-.138.3-.274.463-.4-.345.268.3-.172.38-.22l-3.334-1.357a73.489,73.489,0,0,0,2.972,6.815c.732,1.462,1.364,3.376,3.123,3.828a7.152,7.152,0,0,0,3.272-.189,31.167,31.167,0,0,0,3.228-.944c2.332-.791,4.621-1.707,6.895-2.652a34.707,34.707,0,0,0,6.141-2.914,14.844,14.844,0,0,0,5.753-7.286,27.567,27.567,0,0,0,1.321-9.38,170.148,170.148,0,0,0-2.272-27.766,181.008,181.008,0,0,0-7.626-30.6,2.329,2.329,0,0,0-2.793-1.586,2.292,2.292,0,0,0-1.583,2.794,178.258,178.258,0,0,1,9.654,52.274c.063,1.9.111,3.815.069,5.723-.016.734-.047,1.467-.1,2.2-.028.381-.063.76-.1,1.139-.011.1-.092.722-.011.133-.024.179-.051.358-.08.539a19.364,19.364,0,0,1-.441,2.052q-.111.4-.244.806c-.053.157-.108.314-.166.469-.045.121-.352.792-.08.218a14.794,14.794,0,0,1-.835,1.571c-.146.229-.3.448-.459.669-.318.454.323-.361-.047.056-.146.165-.286.335-.437.5a12.681,12.681,0,0,1-1.387,1.275c.436-.347-.046.025-.119.076-.15.108-.3.211-.458.312-.322.211-.652.408-.987.594-.356.2-.719.381-1.085.554-.194.092-.386.179-.58.264.338-.148-.006,0-.065.024q-.343.142-.684.287c-1.839.775-3.684,1.539-5.55,2.251-1.274.485-2.557.953-3.858,1.362-.571.182-1.15.352-1.734.5-.272.068-.547.132-.823.186-.107.021-.215.039-.322.058-.341.067-.155-.151.2-.022a2.26,2.26,0,0,0-.6.038c-.584.034.542.139.143.029-.22-.061-.263-.189.35.154-.327-.183.937.628.628.64-.14.006-.714-1.318-.812-1.507a61.889,61.889,0,0,1-3.034-6.747,2.3,2.3,0,0,0-3.334-1.355,14.576,14.576,0,0,0-4.225,4.328c-.263.37-.523.743-.788,1.113-.122.171-.246.338-.369.506-.154.208.013-.015.039-.046-.083.108-.171.215-.259.322a11.627,11.627,0,0,1-.9.976c-.147.139-.3.272-.454.4-.2.166.03-.024.062-.045-.142.1-.281.191-.426.28a3.15,3.15,0,0,1-1.015.454c-.243.075-.49.136-.738.186a3.284,3.284,0,0,1-.665.105c-1.158.109-2.328.1-3.491.091q-3.753-.024-7.5-.315a100.348,100.348,0,0,1-14.658-2.24c-3.879-.883-7.7-2.033-11.526-3.108-.835-.235-1.671-.483-2.5-.764-.364-.124-.73-.255-1.09-.392-.082-.031-.58-.231-.347-.134.251.1-.039-.016-.075-.033-.139-.064-.281-.126-.42-.191-.323-.154-.643-.316-.953-.493-.172-.1-.345-.2-.513-.309-.082-.053-.557-.379-.306-.2s-.134-.114-.2-.169c-.114-.1-.223-.2-.327-.314-.187-.2-.284-.4-.063-.039-.085-.137-.174-.274-.258-.41-.036-.058-.058-.126-.094-.183.02.029.124.429.094.2a3.614,3.614,0,0,0-.143-.542c.12.346.019.217,0-.073-.011-.208-.011-.418,0-.627.006-.189.022-.375.037-.563.007-.071.06-.477.018-.183-.04.276.012-.057.018-.093.081-.443.169-.883.274-1.322.424-1.776,1.043-3.5,1.445-5.284.506-2.254.562-4.632.852-6.922.3-2.392.7-4.876,1.135-7.3q1.344-7.409,3.408-14.664a147.86,147.86,0,0,1,10.46-26.709q.82-1.609,1.678-3.2a2.318,2.318,0,0,0-.815-3.106,2.3,2.3,0,0,0-3.1.814" transform="translate(3.172 17.117)" fill="#24221e"/>
      <path id="패스_2016" data-name="패스 2016" d="M1209.481,243.874c2.007,3,3.13,6.49,4.516,9.825a64.486,64.486,0,0,0,14.151,21.036,3.98,3.98,0,0,0,2.787,1.5c1.266-.069,2.144-1.251,2.813-2.328a112.255,112.255,0,0,0,15.411-40.969" transform="translate(9.441 18.885)" fill="#fff"/>
      <path id="패스_2017" data-name="패스 2017" d="M1207.917,245.411a41.423,41.423,0,0,1,3.728,7.9,72.525,72.525,0,0,0,3.8,8.195,66.969,66.969,0,0,0,10.405,14.124,11.532,11.532,0,0,0,3.5,2.851,4.613,4.613,0,0,0,4.893-.759,12.63,12.63,0,0,0,2.564-3.424q1.189-1.967,2.3-3.978a116.094,116.094,0,0,0,7.506-16.661,112.58,112.58,0,0,0,5.129-19.722,2.327,2.327,0,0,0-1.585-2.792,2.3,2.3,0,0,0-2.793,1.585,110.831,110.831,0,0,1-10.532,32.194q-1.934,3.792-4.154,7.428c-.314.513-.616,1.042-.976,1.525.208-.28-.281.292-.349.362-.14.146-.109.236-.028.036l-.174.105c.208-.07.234-.081.079-.031-.22.1.042.024.1.011-.333.079-.248-.01-.073.01-.39-.042-.209-.09-.091-.025a3.841,3.841,0,0,1-.4-.247c.223.157-.4-.36-.452-.413-.243-.232-.479-.472-.714-.712a60.808,60.808,0,0,1-9.668-12.748q-1.12-1.958-2.1-3.99c-.691-1.43-1.219-2.649-1.759-4.006a49.412,49.412,0,0,0-4.235-9.11,2.321,2.321,0,0,0-3.106-.814,2.292,2.292,0,0,0-.814,3.105" transform="translate(9.045 18.494)" fill="#24221e"/>
      <path id="패스_2018" data-name="패스 2018" d="M1231.2,248.788c1.012-3.981,3.178-8.253.821-12.031-3.327-5.334-8.217-1.264-12.369,1.32a1.679,1.679,0,0,0-.824.86c-.861,3.063,4.557,9.39,6.036,11.953a4.708,4.708,0,0,1,.777,2.01,4.456,4.456,0,0,1-.349,1.718,43.069,43.069,0,0,1-4.084,8.476c-2.006,3.209,3.886,7.2,5.906,9.353.21.224.483.468.781.393a.874.874,0,0,0,.426-.345c1.929-2.412,3.87-4.812,5.784-7.235.109-.137,3.813-5.609,1.287-5.609l-3.866-7.3a3.7,3.7,0,0,1-.355-3.444c.008-.038.018-.075.028-.113" transform="translate(11.389 19.138)" fill="#24221e"/>
      <path id="패스_2019" data-name="패스 2019" d="M1233.787,249.784c1.012-3.893,2.909-8.033,1.408-12.068a8.686,8.686,0,0,0-3.811-4.694,6.987,6.987,0,0,0-5.085-.475,16.966,16.966,0,0,0-4.542,2.138c-.665.412-1.318.843-1.977,1.268a6.532,6.532,0,0,0-2.438,2.045c-1.472,2.657.524,6.138,1.912,8.391,1.369,2.228,3.133,4.249,4.345,6.569.034.064.256.523.112.232l.065.23c-.01-.214-.012-.174,0,.121.067-.387-.116.408-.109.383-.048.162-.105.322-.161.481-.349,1.006-.7,1.891-1.113,2.8s-.868,1.839-1.35,2.734-1.079,1.759-1.544,2.671c-1.613,3.163.615,6.264,2.8,8.449.972.972,2.026,1.852,3.023,2.8a5.194,5.194,0,0,0,2.154,1.563c1.694.436,2.667-.7,3.6-1.864,1.557-1.942,3.12-3.88,4.667-5.832a18.835,18.835,0,0,0,1.734-2.558,10.292,10.292,0,0,0,1.443-3.919,3.109,3.109,0,0,0-3.123-3.476l1.96,1.123-2.761-5.217c-.426-.806-.88-1.6-1.278-2.424-.065-.14-.075-.151-.028-.034-.026-.079-.051-.159-.078-.237.055.241-.017-.2-.013-.283.01-.159.008-.172-.007-.041.018-.086.035-.171.052-.257.05-.207.1-.414.149-.62a2.271,2.271,0,0,0-4.378-1.207,7.2,7.2,0,0,0-.209,3.493,14.336,14.336,0,0,0,1.456,3.119q1.587,3,3.176,6a2.284,2.284,0,0,0,1.96,1.125c.427.013-.563-.124-.212-.023a1.691,1.691,0,0,1-1-.763c-.019-.033-.224-.628-.131-.287.062.228-.079-.7-.054-.245.021.4-.03-.209.039-.242a3.04,3.04,0,0,0-.079.337c-.062.226-.16.441-.226.663-.079.261.22-.467.042-.1-.06.125-.116.253-.177.378-.121.247-.249.492-.383.732-.209.383-.432.758-.663,1.127-.126.2-.256.4-.388.593,0,0,.432-.546-.036.035l-.464.585q-.512.643-1.025,1.284-1.024,1.284-2.056,2.565-.561.7-1.122,1.4c-.187.232-.372.467-.559.7l-.187.234c-.173.2-.163.194.033-.008l1.145-.31c1.18-.011.976.508.736.179a1.88,1.88,0,0,0-.188-.191c-.121-.12-.245-.237-.368-.353-.321-.3-.65-.6-.978-.892-.722-.649-1.444-1.3-2.125-1.989-.31-.316-.613-.639-.9-.977-.08-.093-.155-.191-.236-.283.3.338.086.116.026.028-.149-.214-.3-.426-.432-.651-.1-.165-.179-.339-.272-.508.231.419.023.04-.047-.183a1.386,1.386,0,0,0-.053-.218c-.127-.237-.025.436.019.172a.752.752,0,0,0-.008-.214c-.1-.343-.121.383-.017.038a.914.914,0,0,0,.058-.209c-.007-.219-.237.258-.056.127s.294-.493.406-.677q.576-.948,1.1-1.925c.7-1.309,1.33-2.652,1.907-4.022a14.929,14.929,0,0,0,1.422-4.42,6.545,6.545,0,0,0-1.211-3.9c-.877-1.431-1.908-2.766-2.845-4.159-.561-.831-1.1-1.674-1.6-2.545-.228-.4-.446-.809-.647-1.224-.05-.1-.283-.63-.172-.363.122.289-.016-.044-.042-.116-.046-.126-.093-.252-.137-.379-.075-.228-.324-.771-.257-1.008-.053.188.027.482.034.2,0-.08,0-.174-.01-.257a1.883,1.883,0,0,0,.011-.248c.1.108-.2.561-.013.195.13-.257-.264.523-.246.449-.039.153-.189.124.042-.008s.466-.294.7-.443c.477-.306.952-.617,1.429-.922a28.379,28.379,0,0,1,2.734-1.594c.09-.044.82-.361.368-.182.209-.082.419-.161.633-.23s.415-.127.626-.177c.119-.027.237-.046.356-.073-.284.063-.272.018.011.008a7.538,7.538,0,0,1,.776.015c-.5-.031.007.041.237.1.381.1.031.016-.052-.03.135.074.266.148.4.224.081.048.16.1.236.159-.39-.284.114.132.154.172.084.084.518.611.377.416a7.059,7.059,0,0,1,.606,1,5.2,5.2,0,0,1,.263.763c.034.128.155.883.13.608a8.629,8.629,0,0,1,.025,1.1c0,.124-.011.247-.019.37,0,0-.062.581-.042.443-.063.456-.266,1.334-.43,1.947-.4,1.5-.911,2.965-1.3,4.466a2.271,2.271,0,1,0,4.378,1.207" transform="translate(10.988 18.746)" fill="#24221e"/>
      <path id="패스_2020" data-name="패스 2020" d="M1206.129,230.747c-2.4,5.936,1.265,13.784,7.173,15.365a15.834,15.834,0,0,0,7.231-.113,15.036,15.036,0,0,0,4.1-1.334,10.626,10.626,0,0,0,5.334-9.416c.047,5.06,3.956,9.764,8.645,10.542s9.622-2.357,11.3-7.071a12.719,12.719,0,0,0-3.754-13.612" transform="translate(8.578 17.234)" fill="#fff"/>
      <path id="패스_2021" data-name="패스 2021" d="M1204.336,230.535c-2.074,5.287-.137,12.019,4.161,15.655a12.654,12.654,0,0,0,9.089,2.933c3.743-.207,7.737-1.088,10.656-3.557a13.088,13.088,0,0,0,4.39-9.926h-4.54c.137,6.812,6.03,13.546,13.193,12.893a13.371,13.371,0,0,0,11.909-14.36,14.9,14.9,0,0,0-5.034-10.278,2.334,2.334,0,0,0-3.211,0,2.288,2.288,0,0,0,0,3.211,11.525,11.525,0,0,1,1.37,1.337c-.027-.031.41.512.226.271-.152-.2.11.159.142.2q.34.488.632,1.006c.143.252.276.51.4.771-.019-.039.268.611.15.327s.139.381.124.339a13.27,13.27,0,0,1,.55,2.006c.034.18.065.361.092.541-.015-.1-.037-.407,0,.05.024.291.047.582.056.874q.016.547-.015,1.092c-.008.145-.022.289-.033.436-.055.691.091-.423-.033.259a11.8,11.8,0,0,1-.49,1.892c-.05.138-.1.277-.156.413.14-.337-.008,0-.038.059-.187.355-.363.707-.576,1.048-.172.274-.354.545-.551.8.221-.287-.008,0-.05.046-.121.131-.235.269-.357.4q-.331.35-.688.674c-.107.1-.215.185-.323.28-.384.335.173-.094-.214.163a16.056,16.056,0,0,1-1.635.964c-.387.2-.126.064-.033.025-.161.067-.324.126-.489.183a9.933,9.933,0,0,1-1.1.316c-.151.034-.877.143-.418.092a9.535,9.535,0,0,1-1.035.058c-.277,0-.553-.016-.829-.038-.452-.036-.113-.016-.018,0-.2-.038-.407-.076-.608-.123-.337-.082-.659-.195-.988-.3-.074-.024-.4-.168-.033,0-.127-.057-.253-.116-.376-.178a9.684,9.684,0,0,1-.909-.513c-.119-.074-.235-.153-.35-.231-.025-.018-.548-.429-.215-.153a14.022,14.022,0,0,1-1.514-1.5c-.45-.5.128.191-.109-.132-.127-.174-.251-.351-.368-.531a11.764,11.764,0,0,1-.6-1.027c-.067-.128-.127-.259-.191-.39-.3-.6.117.38-.108-.255-.121-.341-.239-.683-.333-1.034a10.871,10.871,0,0,1-.229-1.063c.07.421,0-.048-.012-.155-.022-.255-.031-.511-.036-.768a2.27,2.27,0,1,0-4.54,0c0,.343-.006.684-.034,1.025,0,.054-.059.522-.023.263s-.04.2-.05.259a11.023,11.023,0,0,1-.564,1.95c-.137.352.127-.261-.036.079-.08.169-.161.338-.248.5-.138.264-.288.522-.448.774-.08.125-.165.246-.246.369-.03.045-.252.347-.042.075a9.051,9.051,0,0,1-.727.824c-.206.208-.424.4-.642.594-.328.292-.134.11-.052.05-.116.086-.235.168-.355.248a7.446,7.446,0,0,1-1.689.861,21.337,21.337,0,0,1-4.369.987,11.255,11.255,0,0,1-4.445-.236c-.24-.069-.472-.155-.706-.24.448.161-.151-.073-.306-.153a9.266,9.266,0,0,1-1.421-.9c.382.293-.161-.153-.265-.247-.212-.191-.415-.392-.61-.6-.176-.186-.343-.379-.507-.574-.042-.05-.289-.373-.121-.149s-.182-.264-.218-.318a13.068,13.068,0,0,1-.839-1.427c-.118-.234-.23-.471-.332-.711.036.085.145.4.007,0-.062-.186-.134-.369-.2-.556a14.583,14.583,0,0,1-.454-1.81c-.012-.07-.073-.483-.033-.184.044.317-.021-.222-.025-.283-.028-.324-.044-.65-.045-.976s.012-.65.039-.975c.01-.13.025-.258.039-.387-.056.544.023-.09.038-.166a10.665,10.665,0,0,1,.548-1.868,2.279,2.279,0,0,0-1.585-2.793,2.338,2.338,0,0,0-2.793,1.586" transform="translate(8.182 16.844)" fill="#24221e"/>
    </g>
    <g id="그룹_1290" data-name="그룹 1290">
      <g id="img_캐릭터-2" data-name="img_캐릭터" transform="translate(-279.541 1808.717)">
        <g id="그룹_712" data-name="그룹 712" transform="translate(1180.189 239.542)">
          <path id="패스_2022" data-name="패스 2022" d="M1205.25,224.8s-28.167,7.15-25.6,30.672c3.329,30.47,19.521,34.708,19.521,34.708l14.236-13.105s-13.025-11.108-12.269-23.516" transform="translate(-1177.066 -222.373)" fill="#597582"/>
          <path id="패스_2023" data-name="패스 2023" d="M1199.6,293.018a2.4,2.4,0,0,1-.613-.079c-.726-.19-17.845-5.024-21.316-36.787-2.766-25.322,27.106-33.205,27.407-33.283a2.422,2.422,0,0,1,1.195,4.694h0c-1.067.272-26.1,6.939-23.789,28.064,2.593,23.728,13.068,30.539,16.577,32.174l11.221-10.33c-3.829-3.855-11.771-13.174-11.133-23.642a2.421,2.421,0,1,1,4.833.3c-.673,11.035,11.3,21.424,11.425,21.527a2.422,2.422,0,0,1,.067,3.622l-14.236,13.105A2.421,2.421,0,0,1,1199.6,293.018Z" transform="translate(-1177.488 -222.794)" fill="#24221e"/>
        </g>
        <path id="패스_2024" data-name="패스 2024" d="M1193.477,277.939c4.516-13.724,24.411-13.35,26.2,1.82.286,2.426-.863,5.178-3.161,6.012s-5.321-1.247-4.788-3.632a3.41,3.41,0,1,1-6.644,1.531,3.77,3.77,0,0,1-1.845,4.177c-1.5.665-3.623-.54-3.456-2.176-1.685,1.518-4.623.714-5.878-1.176s-1.141-4.4-.431-6.557" transform="translate(5.959 26.269)" fill="#ffe3d4"/>
        <path id="패스_2025" data-name="패스 2025" d="M1191.725,277.585a16.956,16.956,0,0,1,7.343-9.21,16.128,16.128,0,0,1,10.317-2.116,14.8,14.8,0,0,1,9.405,5.059,15.75,15.75,0,0,1,2.878,5.443,11.182,11.182,0,0,1,.189,7.15c-1.031,2.813-3.774,5.169-6.92,4.639-2.853-.482-5.663-3.074-5.077-6.2a2.274,2.274,0,0,1,4.5-.225,5.679,5.679,0,1,1-11.112,2.345l4.467-.812c.489,2.869-.945,6.28-4.03,6.937a4.765,4.765,0,0,1-5.767-4.711l3.758,1.891c-2.6,2.178-6.47,1.518-8.689-.89-2.3-2.494-2.22-6.269-1.258-9.3a2.27,2.27,0,0,1,4.286,1.5,7.642,7.642,0,0,0-.413,2.516,6.763,6.763,0,0,0,.237,1.368c-.115-.362.132.274.15.312.042.087.4.63.145.293a4.966,4.966,0,0,0,.421.479c-.293-.293.178.119.225.151s.6.3.237.148a5.271,5.271,0,0,0,.605.212c-.4-.114.171.008.261.023.447.082-.173.09.235,0a3.171,3.171,0,0,0,.4-.081c-.224.076-.257.083-.1.018a2.528,2.528,0,0,0,.274-.138c-.22.148-.22.139,0-.031a2.3,2.3,0,0,1,3.756,1.892c.01-.182-.058-.289,0-.041-.151-.644.11.113-.074-.185s.214.123-.039-.034c-.271-.168.167.11.219.146-.229-.156-.177.007-.008-.017l.181.058c-.229-.039-.263-.048-.1-.028.067.006.425.084.177.017-.138.007-.143,0-.016-.018q.25-.054-.13.05c.155-.121.228-.128.036.016a3.221,3.221,0,0,0,.316-.275c-.283.278.007-.048.064-.131.191-.277-.1.269.031-.048a3.922,3.922,0,0,0,.173-.508c-.059.232-.007.069,0-.073,0-.051.025-.609.033-.357,0,.229-.056-.352-.056-.349a2.27,2.27,0,1,1,4.467-.812c.137.557-.206-.324.075.172.122.214.114.148-.019,0a5.349,5.349,0,0,0,.4.447c-.241-.219-.039-.063.111.04.2.134-.281-.07.1.062,0,0,.553.166.288.11s.251.016.306.021c-.426-.033.078-.024.2-.046-.307.053-.134.058.078-.046s.311-.243.077-.035c.041-.038.437-.4.239-.193s.139-.206.176-.251c.282-.357-.025.242.1-.195.016-.054.146-.567.1-.292s.007-.31.007-.307c-.009.389-.028-.042-.062-.2q2.246-.113,4.5-.225c-.021.11-.045.691-.067.409-.028-.378.165.473.022.085-.117-.309.152.263.19.333-.229-.408.039-.068.159.111s-.064-.058-.11-.088c.1.067.194.146.293.213.168.111.472.211.122.092.2.067.411.134.605.211.229.09-.079-.028-.12-.028a3.027,3.027,0,0,1,.362.034c.167.022.321-.083-.045.011a1.3,1.3,0,0,0,.269-.044c.208-.122-.1.051-.14.067.1-.036.2-.079.3-.123.146-.067.622-.42.3-.15.08-.068.162-.131.241-.2.031-.025.334-.318.176-.15-.181.192.105-.137.14-.186.062-.085.124-.172.18-.261s.284-.547.146-.236a7.1,7.1,0,0,0,.268-.712c.031-.1.062-.209.09-.316-.061.23-.007.061.01-.075.031-.253.061-.506.07-.763,0-.108.006-.217,0-.327,0,.105.048.372-.013-.059-.065-.456-.126-.91-.217-1.362q-.122-.6-.288-1.188c-.024-.086-.2-.6-.094-.32s0,0-.023-.051c-.053-.138-.1-.276-.157-.414a14.829,14.829,0,0,0-1.029-2.052c-.226-.385.236.321-.024-.039-.111-.153-.218-.308-.334-.456-.225-.294-.465-.58-.717-.852-.23-.249-.482-.475-.72-.715.256.258.18.155-.027-.016-.159-.131-.321-.255-.485-.378q-.4-.292-.823-.555c-.128-.079-.26-.157-.392-.232-.075-.042-.648-.332-.345-.188s-.224-.1-.289-.127c-.138-.059-.278-.119-.419-.173q-.492-.194-1-.346c-.17-.051-.34-.1-.511-.142-.081-.021-.561-.133-.232-.061s-.207-.036-.311-.054c-.176-.028-.35-.055-.526-.075a16.42,16.42,0,0,0-2.056-.1c-.4,0,.42-.041-.1,0-.153.013-.307.024-.459.041-.358.038-.713.09-1.068.155q-.494.089-.982.217c-.176.045-.349.1-.523.146-.518.149.282-.111-.087.029a16.272,16.272,0,0,0-2.009.895c-.162.09-.323.18-.482.275l-.2.125c-.459.27.292-.214.04-.031-.327.237-.656.465-.971.719s-.622.529-.914.812c-.16.155-.311.315-.465.472-.364.379.132-.18-.11.121a16.433,16.433,0,0,0-1.517,2.192q-.153.272-.294.55c.219-.431-.066.155-.127.3-.2.458-.375.925-.534,1.4a2.27,2.27,0,0,1-4.286-1.5" transform="translate(5.566 25.873)" fill="#24221e"/>
        <path id="패스_2026" data-name="패스 2026" d="M1273.574,274.339c-4.516-13.724-24.411-13.35-26.2,1.818-.286,2.426.862,5.178,3.16,6.012s5.321-1.246,4.788-3.632a3.411,3.411,0,1,0,6.645,1.533,3.771,3.771,0,0,0,1.844,4.177c1.5.665,3.624-.54,3.456-2.176,1.685,1.517,4.623.714,5.879-1.176s1.139-4.4.43-6.557" transform="translate(17.412 25.51)" fill="#ffe3d4"/>
        <path id="패스_2027" data-name="패스 2027" d="M1276.109,273.985a16.947,16.947,0,0,0-7.342-9.21,16.128,16.128,0,0,0-10.317-2.117,14.8,14.8,0,0,0-9.406,5.059,15.768,15.768,0,0,0-2.878,5.443,11.171,11.171,0,0,0-.188,7.15c1.031,2.814,3.772,5.171,6.919,4.639,2.854-.481,5.663-3.073,5.077-6.2a2.273,2.273,0,0,0-4.5-.224,5.679,5.679,0,1,0,11.112,2.344l-4.469-.812c-.489,2.87.946,6.281,4.03,6.937a4.764,4.764,0,0,0,5.768-4.711q-1.88.946-3.758,1.891c2.6,2.179,6.471,1.519,8.69-.89,2.3-2.494,2.219-6.267,1.257-9.3a2.27,2.27,0,0,0-4.286,1.5,7.654,7.654,0,0,1,.413,2.517,6.776,6.776,0,0,1-.237,1.368c.115-.363-.132.274-.15.311-.042.087-.4.631-.145.293a4.808,4.808,0,0,1-.42.481c.293-.293-.178.119-.226.15s-.6.3-.237.148a5.541,5.541,0,0,1-.605.213c.4-.115-.171.007-.262.023-.446.081.173.088-.235,0a3.408,3.408,0,0,1-.4-.082q.334.116.1.018a2.5,2.5,0,0,1-.274-.137c.22.148.222.138,0-.033a2.3,2.3,0,0,0-3.757,1.892c-.008-.182.058-.288,0-.041.151-.643-.109.113.074-.184s-.213.122.04-.034c.27-.169-.168.11-.22.145.229-.156.177.007.008-.016l-.18.058c.229-.039.263-.05.1-.029-.067.007-.425.085-.177.017.138.007.143,0,.016-.018q-.251-.053.13.05c-.155-.12-.228-.127-.036.016a3.086,3.086,0,0,1-.315-.274c.283.277-.007-.05-.064-.132-.192-.276.094.269-.033-.047a4.03,4.03,0,0,1-.172-.51c.058.232.006.069,0-.071,0-.051-.025-.609-.033-.357-.006.229.056-.352.056-.35a2.271,2.271,0,0,0-4.469-.812c-.137.558.206-.324-.075.172-.121.214-.114.148.019,0a5.312,5.312,0,0,1-.4.445c.241-.219.04-.063-.11.04-.2.134.28-.069-.1.062,0,0-.553.167-.288.11s-.25.017-.305.021c.425-.033-.079-.024-.2-.046.309.053.135.058-.076-.046s-.312-.243-.079-.035c-.041-.038-.437-.4-.239-.191s-.138-.207-.174-.251c-.282-.358.024.241-.1-.195-.015-.055-.147-.567-.1-.292s-.008-.31-.008-.308c.01.389.028-.044.063-.2l-4.5-.226c.021.111.045.693.067.409.029-.377-.165.473-.021.086.116-.31-.154.262-.191.333.229-.409-.039-.069-.159.11s.064-.058.11-.088c-.1.068-.193.146-.293.214-.167.111-.472.211-.122.092-.2.067-.41.133-.605.211-.228.088.079-.029.12-.029a3.335,3.335,0,0,0-.362.034c-.167.022-.321-.084.045.011a1.213,1.213,0,0,1-.268-.042c-.209-.122.1.051.141.065-.1-.036-.2-.077-.3-.122-.146-.067-.622-.421-.3-.15-.081-.069-.163-.131-.242-.2-.03-.025-.334-.317-.176-.15.18.194-.1-.136-.14-.185-.062-.085-.123-.173-.179-.261s-.285-.548-.148-.236a7.18,7.18,0,0,1-.267-.712c-.03-.105-.061-.209-.09-.316.06.229.007.059-.009-.076-.033-.253-.062-.5-.071-.761,0-.109-.006-.217,0-.327,0,.1-.048.37.015-.061.065-.456.125-.909.217-1.362.08-.4.176-.8.288-1.188.024-.086.2-.6.093-.32s0,0,.023-.051c.053-.137.1-.276.157-.413a14.779,14.779,0,0,1,1.029-2.052c.226-.386-.236.32.024-.04.111-.153.218-.307.334-.456q.338-.441.717-.851c.23-.249.482-.476.722-.717-.258.258-.182.155.025-.015.159-.131.321-.255.487-.378.265-.2.54-.38.822-.556.13-.079.26-.156.392-.231.076-.042.648-.333.345-.189s.225-.1.289-.127c.139-.059.279-.117.419-.172q.492-.194,1-.346c.169-.052.34-.1.511-.143.081-.019.562-.133.232-.059s.208-.037.311-.054q.263-.044.527-.076a16.394,16.394,0,0,1,2.054-.1c.4,0-.42-.041.1,0,.152.013.307.024.459.041.358.039.714.09,1.068.156.33.059.656.132.982.215.176.046.35.1.523.148.518.149-.282-.113.088.029a16.082,16.082,0,0,1,2.007.895c.163.088.323.179.482.275.069.04.137.082.2.125.459.269-.292-.215-.04-.031.327.236.656.465.971.718s.622.53.915.814c.159.155.311.314.464.472.364.379-.132-.18.11.12a16.408,16.408,0,0,1,1.517,2.192c.1.182.2.366.294.551-.219-.432.065.155.128.3.2.459.375.926.533,1.4a2.27,2.27,0,1,0,4.286-1.5" transform="translate(17.021 25.114)" fill="#24221e"/>
        <g id="그룹_713" data-name="그룹 713" transform="translate(1164.666 143.283)">
          <path id="패스_2028" data-name="패스 2028" d="M1210.724,171.818c4.168.439,8.417.877,12.523.031s8.124-3.191,9.925-6.977c5.385,6.512,13.2,10.471,20.968,13.806,5.454,2.343,11.114,4.5,17.038,4.857a23.043,23.043,0,0,0,11.646-2.236,52.987,52.987,0,0,0-100.862,1.2c10.547,1.862,22.221-2.091,28.762-10.681" transform="translate(-1161.022 -142.888)" fill="#893825"/>
          <path id="패스_2029" data-name="패스 2029" d="M1273.077,186.246q-.819,0-1.643-.05c-6.529-.4-12.609-2.809-17.8-5.037-7.053-3.029-14.259-6.606-19.788-12.2a17.243,17.243,0,0,1-9.751,5.506,39.588,39.588,0,0,1-11.984.132c-6.971,8.3-18.91,12.514-30.153,10.531a2.273,2.273,0,0,1-1.775-2.907,55.257,55.257,0,0,1,105.183-1.252,2.269,2.269,0,0,1-1.131,2.749,25.072,25.072,0,0,1-11.163,2.524M1233.565,163a2.274,2.274,0,0,1,1.75.823c5.1,6.169,12.684,9.974,20.116,13.167,4.835,2.076,10.479,4.322,16.279,4.677a21.54,21.54,0,0,0,8.656-1.206,50.719,50.719,0,0,0-94.973.536c9.25.719,18.6-3.174,23.92-10.157a2.261,2.261,0,0,1,2.043-.883c3.946.416,8.028.846,11.828.065,3.892-.8,7.006-2.942,8.332-5.727a2.268,2.268,0,0,1,1.77-1.278,2.4,2.4,0,0,1,.28-.017" transform="translate(-1161.417 -143.283)" fill="#24221e"/>
          <path id="패스_2030" data-name="패스 2030" d="M1291.948,179.378a12.982,12.982,0,0,0-5.086,1.03c-.24-.857-.508-1.7-.789-2.54a23.043,23.043,0,0,1-11.646,2.236c-5.925-.362-11.584-2.514-17.037-4.857-7.765-3.335-15.583-7.294-20.969-13.8-1.8,3.786-5.817,6.132-9.924,6.976s-8.354.409-12.524-.031c-6.541,8.592-18.215,12.543-28.762,10.683-.143.465-.291.93-.421,1.4a13.038,13.038,0,1,0-1,24.263,53,53,0,0,0,104.081.051,13.031,13.031,0,1,0,4.077-25.406" transform="translate(-1164.27 -139.458)" fill="#ffe3d4"/>
          <path id="패스_2031" data-name="패스 2031" d="M1236.229,250.4a55.307,55.307,0,0,1-53.774-42.493,15.3,15.3,0,1,1,1.409-29.894,2.286,2.286,0,0,1,2.135-.78c10.064,1.776,20.737-2.171,26.561-9.821a2.275,2.275,0,0,1,2.045-.883c3.947.416,8.028.846,11.827.065,3.892-.8,7.007-2.942,8.332-5.727a2.269,2.269,0,0,1,3.8-.472c5.1,6.169,12.685,9.974,20.117,13.167,4.834,2.076,10.479,4.322,16.279,4.677a20.83,20.83,0,0,0,10.488-2,2.268,2.268,0,0,1,3.173,1.306c.044.128.086.257.128.385a15.306,15.306,0,1,1,1.249,30,55.321,55.321,0,0,1-53.769,42.469m-52.045-47.537a2.27,2.27,0,0,1,2.23,1.844,50.728,50.728,0,0,0,99.623.048,2.269,2.269,0,0,1,2.939-1.726,10.76,10.76,0,1,0-.832-20.132,2.271,2.271,0,0,1-3.074-1.477c-.006-.027-.014-.053-.022-.08a26.24,26.24,0,0,1-10.365,1.43c-6.529-.4-12.61-2.809-17.8-5.037-7.052-3.029-14.259-6.606-19.786-12.2a17.25,17.25,0,0,1-9.753,5.506,39.58,39.58,0,0,1-11.983.132c-6.57,7.823-17.554,12.02-28.205,10.812a2.269,2.269,0,0,1-2.886.964,10.768,10.768,0,1,0-.825,20.036,2.25,2.25,0,0,1,.735-.122" transform="translate(-1164.665 -139.853)" fill="#24221e"/>
          <path id="패스_2032" data-name="패스 2032" d="M1220.777,182.963a3.476,3.476,0,1,1-3.476-3.476,3.475,3.475,0,0,1,3.476,3.476" transform="translate(-1154.31 -135.657)" fill="#24221e"/>
          <path id="패스_2033" data-name="패스 2033" d="M1248.05,182.963a3.476,3.476,0,1,1-3.476-3.476,3.475,3.475,0,0,1,3.476,3.476" transform="translate(-1148.566 -135.657)" fill="#24221e"/>
          <path id="패스_2034" data-name="패스 2034" d="M1231.5,186.589a4.741,4.741,0,0,1,1.013-.61l-.542.229a2.876,2.876,0,0,1,.641-.179l-.6.081a2.286,2.286,0,0,1,.568,0l-.6-.081a2.371,2.371,0,0,1,.553.151l-.542-.229a3.132,3.132,0,0,1,.639.381c-.154-.119-.306-.237-.46-.355a4.142,4.142,0,0,1,.34.3,2.368,2.368,0,0,0,1.605.665,2.308,2.308,0,0,0,1.605-.665,2.283,2.283,0,0,0,.665-1.605,2.324,2.324,0,0,0-.665-1.605,5.024,5.024,0,0,0-3.367-1.511,5.34,5.34,0,0,0-1.047.119,2.747,2.747,0,0,0-.507.151,6.338,6.338,0,0,0-1.583.85,2.547,2.547,0,0,0-1.042,1.357,2.317,2.317,0,0,0,.229,1.749,2.29,2.29,0,0,0,1.356,1.042l.6.081a2.252,2.252,0,0,0,1.145-.31" transform="translate(-1151.306 -135.223)" fill="#24221e"/>
          <path id="패스_2035" data-name="패스 2035" d="M1213.611,196.594c0,6.079-4.41,11.006-9.852,11.006s-9.851-4.927-9.851-11.006,4.41-11.006,9.851-11.006,9.852,4.927,9.852,11.006" transform="translate(-1158.506 -134.372)" fill="#ffb18f"/>
          <path id="패스_2036" data-name="패스 2036" d="M1265.005,196.594c0,6.079-4.412,11.006-9.852,11.006s-9.851-4.927-9.851-11.006,4.41-11.006,9.851-11.006,9.852,4.927,9.852,11.006" transform="translate(-1147.681 -134.372)" fill="#ffb18f"/>
          <path id="패스_2037" data-name="패스 2037" d="M1222.443,191.516a23.091,23.091,0,0,0,19.2.87,2.345,2.345,0,0,0,1.585-2.792,2.282,2.282,0,0,0-2.792-1.585,20.5,20.5,0,0,1-4.122,1.249,11.81,11.81,0,0,1-1.788.23,21.017,21.017,0,0,1-2.157.045,18.5,18.5,0,0,1-7.638-1.938,2.323,2.323,0,0,0-3.105.815,2.291,2.291,0,0,0,.813,3.105" transform="translate(-1152.729 -134.009)" fill="#24221e"/>
        </g>
      </g>
      <g id="img_노트북" transform="translate(948.26 2075.738)">
        <path id="패스_2001" data-name="패스 2001" d="M1258.272,299.36l-36.935,2.028.458,8.344,26.005,8.444,14.7-4.67Z" transform="translate(-1215.971 -244.343)" fill="#afafaf" stroke="#24221e" stroke-miterlimit="10" stroke-width="4"/>
        <path id="패스_2002" data-name="패스 2002" d="M1339.6,314.37l10.915-47.731s3.167-12.742-14.2-12.03l-17.362.711s-43.7.95-49.4,2.713-20.032.527-23.936,61.5l-20.706-7.324s-8.417-3.646-7.928,5.269c.239,4.338,28.639,15.348,28.639,15.348l90.125-4.949S1347.468,325.54,1339.6,314.37Z" transform="translate(-1216.969 -254.58)" fill="#98bde2" stroke="#24221e" stroke-miterlimit="10" stroke-width="4"/>
        <line id="선_55" data-name="선 55" x1="71.027" y2="3.9" transform="translate(43.83 60.153)" fill="#9986ea" stroke="#24221e" stroke-linecap="round" stroke-linejoin="round" stroke-width="4"/>
      </g>
      <g id="다각형_3" data-name="다각형 3" transform="matrix(0.616, 0.788, -0.788, 0.616, 1656.533, 1905.561)" fill="#fff">
        <path d="M 85.78034210205078 93.12146759033203 L 6.323565483093262 93.12146759033203 L 46.05195236206055 9.336111068725586 L 85.78034210205078 93.12146759033203 Z" stroke="none"/>
        <path d="M 46.05195617675781 18.67221069335938 L 12.64712524414062 89.12147521972656 L 79.45677185058594 89.12147521972656 L 46.05195617675781 18.67221069335938 M 46.05195236206055 0 L 92.10388946533203 97.12147521972656 L -7.62939453125e-06 97.12147521972656 L 46.05195236206055 0 Z" stroke="none" fill="#1b1d1f"/>
      </g>
      <g id="타원_367" data-name="타원 367" transform="translate(1428 1801)" fill="#fff" stroke="#1b1d1f" stroke-width="8">
        <circle cx="52.5" cy="52.5" r="52.5" stroke="none"/>
        <circle cx="52.5" cy="52.5" r="48.5" fill="none"/>
      </g>
      <g id="다각형_2" data-name="다각형 2" transform="translate(249.067 1842) rotate(30)" fill="#fff">
        <path d="M 82.03936004638672 96 L 22.96063995361328 96 L 4.700652122497559 39.7232780456543 L 52.5 4.946658134460449 L 100.2993469238281 39.7232780456543 L 82.03936004638672 96 Z" stroke="none"/>
        <path d="M 52.5 9.893302917480469 L 9.401290893554688 41.24995422363281 L 25.86806488037109 92 L 79.1319580078125 92 L 95.59870910644531 41.24995422363281 L 52.5 9.893302917480469 M 52.5 0 L 105 38.19660568237305 L 84.94679260253906 100 L 20.05323028564453 100 L 0 38.19660568237305 L 52.5 0 Z" stroke="none" fill="#1b1d1f"/>
      </g>
    </g>
  </g>
</svg>
