<svg xmlns="http://www.w3.org/2000/svg" xmlns:xlink="http://www.w3.org/1999/xlink" width="85" height="113" viewBox="0 0 85 113">
  <defs>
    <clipPath id="clip-path">
      <rect id="사각형_1328" data-name="사각형 1328" width="85" height="113" transform="translate(1800 786)" fill="#fff" stroke="#707070" stroke-width="1"/>
    </clipPath>
  </defs>
  <g id="마스크_그룹_112" data-name="마스크 그룹 112" transform="translate(-1800 -786)" clip-path="url(#clip-path)">
    <g id="img_" transform="translate(-960.723 487.781)">
      <path id="패스_1950" data-name="패스 1950" d="M2833.479,418.544a38.159,38.159,0,0,0-7.755-.8c-3.074,0-5.869.723-8.834,1.141-3.451.486-7.1.651-10.58.836l-7.614.4c-.492.026-3.182-.2-3.524.187-4.47,5.075-4.67,12.183-4.662,18.719l.026,20.561a4.346,4.346,0,0,0,.6,2.694,5.072,5.072,0,0,0,3.3,1.469,78.448,78.448,0,0,0,25.267.139,11.373,11.373,0,0,0,3.467-.96c2.8-1.451,3.775-4.7,4.182-7.646a44.175,44.175,0,0,0-1.885-19.842c.89-.135,1.8-.25,2.76-.365a9.274,9.274,0,0,1,3.042-.027,3.867,3.867,0,0,1,1.094.415,36.28,36.28,0,0,1,18.573-6.339,26.376,26.376,0,0,0-5.366-5.529,17.1,17.1,0,0,0-4.91-2.8,37.788,37.788,0,0,0-7.186-2.26" transform="translate(-9.882 -39.454)" fill="#597582"/>
      <path id="패스_1951" data-name="패스 1951" d="M2833.19,416.714a39.845,39.845,0,0,0-8.088-.845,47.824,47.824,0,0,0-7.774.969,139.479,139.479,0,0,1-15.447,1.209c-1.29.069-2.587.185-3.878.2-.63.01-1.26-.045-1.89-.045a4.123,4.123,0,0,0-2.173.378,5.481,5.481,0,0,0-1.228,1.4,15.465,15.465,0,0,0-.94,1.41c-2.228,3.776-2.877,8.228-3.066,12.54-.1,2.325-.072,4.653-.069,6.98q0,4.012.009,8.024l.01,8.191a17.65,17.65,0,0,0,.17,3.778,3.983,3.983,0,0,0,2.284,2.756,12.584,12.584,0,0,0,3.331.833q2,.313,4.015.531a78.644,78.644,0,0,0,15.822.1c1.344-.128,2.686-.292,4.023-.484a20.076,20.076,0,0,0,3.624-.725,8.012,8.012,0,0,0,4.7-4.244,19.242,19.242,0,0,0,1.516-6.261,44.957,44.957,0,0,0-1.047-15.289c-.3-1.227-.644-2.44-1.036-3.64l-.876,1.543c1.013-.152,1.993-.282,3.069-.393a5.03,5.03,0,0,1,2.862.291,1.249,1.249,0,0,0,1.265,0,35.1,35.1,0,0,1,13.811-5.689,32.4,32.4,0,0,1,4.13-.48,1.266,1.266,0,0,0,1.083-1.887,27.431,27.431,0,0,0-5.886-6.049,24.944,24.944,0,0,0-7.334-3.714,38.462,38.462,0,0,0-4.992-1.4,1.254,1.254,0,1,0-.667,2.418,39.453,39.453,0,0,1,7.979,2.609,16.37,16.37,0,0,1,3.02,1.692l.157.116c-.124-.094.054.043.063.051q.164.131.325.266.41.344.816.693c.506.432,1.006.869,1.492,1.322a18.67,18.67,0,0,1,2.862,3.26l1.082-1.887a38.019,38.019,0,0,0-15.356,4.194,35.9,35.9,0,0,0-3.85,2.317h1.265a6.8,6.8,0,0,0-3.967-.649c-1.3.122-2.6.3-3.9.5a1.262,1.262,0,0,0-.876,1.543,43.671,43.671,0,0,1,2.233,14.352,31.9,31.9,0,0,1-.654,6.54c-.1.421-.205.839-.336,1.251-.059.187-.122.372-.19.555q-.061.165-.127.327c.094-.235-.087.193-.107.233a8.577,8.577,0,0,1-.619,1.1c-.064.095-.13.188-.2.28.154-.212-.07.086-.085.1q-.222.262-.468.5c-.083.08-.168.157-.254.231-.017.014-.315.244-.109.094a6.382,6.382,0,0,1-.595.385,5.727,5.727,0,0,1-1.448.565,28.075,28.075,0,0,1-3.529.62c-2.4.323-4.93.532-7.393.623a77.021,77.021,0,0,1-14.813-.867c-.537-.086-1.077-.168-1.608-.286-.229-.051-.456-.108-.679-.178-.12-.038-.239-.078-.356-.123.2.075-.216-.106-.258-.129-.07-.039-.136-.084-.206-.123-.284-.16.106.138-.123-.091a2.6,2.6,0,0,1-.246-.254c.136.179-.095-.183-.093-.181-.15-.275,0,.115-.071-.19-.024-.108-.058-.213-.079-.322-.01-.045-.046-.322-.024-.13-.02-.179-.028-.36-.033-.54-.083-2.57-.013-5.154-.016-7.725-.005-5.024-.055-10.049-.011-15.072.036-4.156.208-8.027,1.738-11.917a11.706,11.706,0,0,1,.5-1.11q.345-.693.756-1.353a14.157,14.157,0,0,1,.817-1.184c-.127.165.144-.175.133-.162.083-.1.184-.2.258-.306.225-.326-.208.1-.078.03-.37.2-.225.076-.11.06.013,0,.186-.04.186-.037,0,.032-.348.026-.035.011.174-.008.347-.021.522-.024.375-.008.75,0,1.124.011.71.022,1.4.013,2.11-.024,5.1-.271,10.226-.4,15.3-.952,2.452-.266,4.861-.756,7.3-1.114a30.32,30.32,0,0,1,7.333-.061,35.568,35.568,0,0,1,3.524.554,1.254,1.254,0,1,0,.667-2.418" transform="translate(-9.26 -38.833)" fill="#24221e"/>
      <path id="패스_1952" data-name="패스 1952" d="M2853.164,441.07c1.3,1,2.2,1.669,2.529,3.353s-.039,4.681,2.355,4.516c1.647-.114,3.46-.938,3.878-2.535a1.636,1.636,0,0,0,2.006,1.4,3.425,3.425,0,0,0,2.08-1.762,1.807,1.807,0,0,0,3.328-1.207.988.988,0,0,0,1.285.637,2.363,2.363,0,0,0,1.172-1.083,8.955,8.955,0,0,0-.1-9.652c-.24-.239-2.111.176-2.473.221q-1.233.153-2.453.391a36.5,36.5,0,0,0-4.8,1.279c-2.959,1.009-6.414,2.385-8.805,4.446" transform="translate(-30.634 -45.057)" fill="#ffe3d4"/>
      <path id="패스_1953" data-name="패스 1953" d="M2851.91,441.533c.2.154.083.064.039.029l.187.146c.1.082.208.165.312.249a7.714,7.714,0,0,1,.631.573c.084.086.16.176.239.266.154.173.017.025-.009-.013.037.057.078.112.114.169.075.118.137.242.2.365.008.015.079.179.025.05-.061-.15.047.139.056.168a5.653,5.653,0,0,1,.186.789c.054.311-.02-.208,0,.026.013.128.028.255.04.383.052.543.1,1.085.183,1.625a3.854,3.854,0,0,0,1.467,2.748,4.241,4.241,0,0,0,3.636.133,4.815,4.815,0,0,0,3.29-3.123l-2.462-.334a2.857,2.857,0,0,0,2.9,2.682,4.346,4.346,0,0,0,3.525-2.415h-2.165a3.156,3.156,0,0,0,3.52,1.347,3.119,3.119,0,0,0,2.146-3.187l-2.463.334c.389,1.664,2.471,1.992,3.691,1.061a7.092,7.092,0,0,0,2.1-3.439,10.335,10.335,0,0,0-.522-7.575,3.043,3.043,0,0,0-1.276-1.658,2.555,2.555,0,0,0-1.3-.112c-.486.055-.969.134-1.451.221-.136.024-.275.043-.41.072s.1-.013.1-.014c-.108.013-.214.028-.321.043-.234.031-.47.063-.7.1a39.649,39.649,0,0,0-8.023,2.129,25.3,25.3,0,0,0-7.74,4.193,1.267,1.267,0,0,0,0,1.774,1.28,1.28,0,0,0,1.773,0,16.148,16.148,0,0,1,2.515-1.694q.668-.37,1.358-.7.378-.181.76-.35l.384-.167c.2-.086,0,0,.212-.089a43.322,43.322,0,0,1,6.568-2.137c1.228-.284,2.537-.481,3.706-.658.231-.035.462-.08.691-.12.181-.032.363-.06.545-.09.067-.011.245-.024-.056.006.116-.011.232-.027.348-.035.171-.012.574.071.137-.039.265.067-.683-.768-.463-.29.036.078.1.158.137.231a6.05,6.05,0,0,1,.624,1.4,7.015,7.015,0,0,1,.381,2.775,8.165,8.165,0,0,1-.722,2.929,8.448,8.448,0,0,1-.46.823,3.174,3.174,0,0,1-.214.314c.125-.152-.137.128-.135.128l-.093.083q.133-.109-.052.012c.1-.039.1-.041-.028,0,.164-.019.172-.027.026-.025l.129.011c-.137-.043-.132-.039.017.012a.441.441,0,0,1,.165.186c.05.158.057.167.021.027a1.249,1.249,0,0,0-1.375-.9,1.237,1.237,0,0,0-1.087,1.231c.008.079.012.156.016.234.007.111-.017.142.01.015-.017.077-.037.152-.061.226.039-.124.011-.064-.016.022-.022.069-.089.15,0,.037a1.767,1.767,0,0,1-.16.171c-.064.064-.105.115-.023.018l-.1.059c.1-.036.115-.041.033-.013-.025.008-.253.066-.106.038s-.079,0-.111,0-.247-.039-.112,0-.081-.034-.106-.04c-.174-.047.148.087-.01,0-.02-.011-.219-.125-.109-.051s-.066-.062-.087-.081c-.136-.124.135.223-.048-.051a1.269,1.269,0,0,0-2.165,0c-.055.092-.111.183-.171.272-.029.043-.166.24-.07.113a4.489,4.489,0,0,1-.438.472c-.04.039-.148.122-.041.043a2.384,2.384,0,0,1-.266.167c-.062.034-.259.1-.1.051-.038.012-.371.086-.181.058s-.144-.006-.146-.006c.1-.012.17.043.021,0,0,0-.307-.094-.151-.033s-.1-.06-.131-.076c-.2-.1.06.069-.029-.023-.065-.067-.134-.215-.027-.014-.076-.142-.009-.047,0,.034-.026-.334-.008.288-.016-.062a1.26,1.26,0,0,0-2.463-.333c-.021.072-.043.142-.065.213.005-.018.084-.177.021-.047s-.123.219-.186.33c-.11.189.087-.066-.069.087-.1.1-.2.2-.313.3-.176.159-.05.035-.007.007-.048.031-.092.064-.14.094-.111.071-.223.138-.341.2-.05.026-.1.051-.153.076-.03.014-.25.106-.112.052s-.053.017-.064.021c-.074.023-.146.051-.22.074a6.574,6.574,0,0,1-.787.187c-.05.009-.245.022-.007,0l-.169.016c-.131.009-.271-.01-.4,0s.091.011.111.018c-.018-.006-.164-.031-.163-.037s-.225-.058,0,.011c.16.049.05.029.009,0a.982.982,0,0,1-.129-.076c.008-.023.192.191.108.086-.039-.048-.251-.274-.127-.113s-.036-.072-.066-.124a.785.785,0,0,0-.053-.1c-.084-.108.054.128.048.12a1.591,1.591,0,0,1-.182-.6c-.023-.1-.042-.2-.061-.3-.008-.049-.065-.383-.031-.186s-.017-.15-.021-.191c-.011-.1-.022-.209-.032-.314a9.243,9.243,0,0,0-.656-3.113,8.049,8.049,0,0,0-2.663-2.783,1.262,1.262,0,0,0-1.717.45,1.287,1.287,0,0,0,.45,1.715" transform="translate(-30.013 -44.437)" fill="#24221e"/>
      <path id="패스_1954" data-name="패스 1954" d="M2805.571,433.369c.362,1.256,1.486,2.118,2.224,3.2,1.513,2.209,1.313,5.128.986,7.785q-.322,2.608-.731,5.2a4.087,4.087,0,0,0,0,1.9,3.89,3.89,0,0,0,1.8,1.857,50.311,50.311,0,0,0,5.827,3.182q1.075-3.985,2.151-7.969a2.228,2.228,0,0,0,.108-1.056,2.5,2.5,0,0,0-.781-1.1,20.66,20.66,0,0,1-3.8-6.372c-.877-1.979-1.764-4.223-.977-6.24.42-1.075,1.3-2.186.842-3.244a2.622,2.622,0,0,0-.885-.974,14.318,14.318,0,0,0-3.433-1.921" transform="translate(-14.871 -42.725)" fill="#24221e"/>
      <path id="패스_1955" data-name="패스 1955" d="M2803.739,433.073a7.033,7.033,0,0,0,1.5,2.462,8.073,8.073,0,0,1,1.32,1.849,2.982,2.982,0,0,1,.172.439c.071.21.132.424.184.639.047.2.086.393.12.591.007.044.046.325.022.134q.024.2.04.406a16.521,16.521,0,0,1-.039,2.69c-.17,1.991-.47,3.929-.777,5.9a5.79,5.79,0,0,0,.1,3.392,5.109,5.109,0,0,0,1.989,2.052,47.074,47.074,0,0,0,6.039,3.319,1.274,1.274,0,0,0,1.843-.75q.989-3.666,1.979-7.331a6.072,6.072,0,0,0,.348-1.877,2.967,2.967,0,0,0-.907-1.869c-.344-.365-.693-.717-1.01-1.107a13.451,13.451,0,0,1-.809-1.178,26.089,26.089,0,0,1-1.469-2.814,30.234,30.234,0,0,1-1.239-2.943,9.4,9.4,0,0,1-.409-1.586c.029.189-.027-.278-.025-.244-.007-.1-.012-.192-.015-.288,0-.143,0-.287.006-.429,0-.1.013-.191.023-.286-.01.1,0,.068.023-.09a5.045,5.045,0,0,1,.484-1.271,6.934,6.934,0,0,0,.648-1.617,3.034,3.034,0,0,0-.269-2.137,4.981,4.981,0,0,0-1.512-1.479,15.865,15.865,0,0,0-3.5-1.874,1.258,1.258,0,0,0-1.542.876,1.291,1.291,0,0,0,.876,1.542,12.552,12.552,0,0,1,1.291.611,14.444,14.444,0,0,1,1.369.841q.151.1.3.213c.03.022.266.211.132.1.1.086.2.177.3.27.173.166.1.1.054.053l.068.113q-.05-.148.016.064c-.041-.212,0,.037,0,.1,0,.2.086-.249-.013.1-.042.148-.083.294-.137.439-.088.231.128-.253-.062.14-.061.126-.12.251-.182.377-.1.207-.206.414-.3.625a6.3,6.3,0,0,0-.531,1.859,8.07,8.07,0,0,0,.4,3.355,28.727,28.727,0,0,0,1.235,3.056c.423.946.856,1.89,1.358,2.8a16.715,16.715,0,0,0,1.8,2.637c.3.363.64.692.962,1.037.254.271-.038-.089.068.093l.032.052c-.038-.116-.035-.1.008.041.008-.044.029-.217-.031.09-.031.155-.079.307-.12.459q-1.05,3.905-2.108,7.809l1.842-.75a51.163,51.163,0,0,1-5.291-2.846c-.36-.222-.717-.448-1.064-.689-.332-.23.08.075-.1-.076-.08-.068-.159-.137-.235-.21-.06-.058-.116-.119-.173-.18-.168-.179,0,.062-.1-.14.01.021-.152-.331-.1-.182s-.06-.283-.055-.25c.01.072,0,.114,0-.1,0-.1,0-.2.006-.3.021-.4.115-.873.191-1.364.308-2.022.619-4.056.8-6.094a12.577,12.577,0,0,0-.455-5.322,8.633,8.633,0,0,0-1.592-2.685c-.151-.18-.306-.356-.46-.534-.069-.081-.138-.162-.207-.244-.024-.029-.24-.3-.119-.143a5.273,5.273,0,0,1-.348-.519c-.052-.09-.1-.181-.146-.274s-.036-.074,0,.014c-.03-.078-.056-.157-.08-.238a1.254,1.254,0,1,0-2.418.667" transform="translate(-14.248 -42.095)" fill="#24221e"/>
      <path id="패스_1956" data-name="패스 1956" d="M2797.182,425.39a7.31,7.31,0,0,0-.34,4.324,4.339,4.339,0,0,0,1.177,2.244c1.571,1.459,4.28.826,5.734-.75s1.974-3.771,2.442-5.863a8.165,8.165,0,0,0,6.272,4.939,6.848,6.848,0,0,0,6.929-3.626,9.641,9.641,0,0,0,.75-2.741,22.054,22.054,0,0,0,.225-3.939" transform="translate(-11.92 -40.194)" fill="#fff"/>
      <path id="패스_1957" data-name="패스 1957" d="M2795.352,424.434c-1.144,2.937-.687,7.4,2.632,8.691a5.429,5.429,0,0,0,4.1-.282,6.746,6.746,0,0,0,3.088-2.969,17.792,17.792,0,0,0,1.608-4.819l-2.292.3a9.343,9.343,0,0,0,7.652,5.592,8.04,8.04,0,0,0,7.964-4.852,12.81,12.81,0,0,0,.74-3.29,22.747,22.747,0,0,0,.158-3.45,1.254,1.254,0,1,0-2.508,0,17.462,17.462,0,0,1-.494,5.152,5.448,5.448,0,0,1-.855,1.812c-.142.2-.054.067-.02.027-.052.06-.1.121-.154.18-.1.118-.212.232-.325.342s-.234.212-.351.318c-.177.16-.069.06-.024.025-.094.072-.191.14-.29.207a7,7,0,0,1-.823.478c-.072.035-.432.187-.247.115-.167.064-.336.125-.507.178a8.488,8.488,0,0,1-.87.211c-.247.048-.078.015-.022.008-.079.011-.158.018-.238.025-.2.017-.4.027-.6.027-.158,0-.318-.005-.477-.017-.08-.005-.158-.013-.238-.021.055.005.227.039-.028,0a7.443,7.443,0,0,1-1.009-.243c-.155-.049-.308-.1-.46-.164-.192-.074.149.07-.038-.015-.074-.034-.148-.068-.221-.1a8.047,8.047,0,0,1-.9-.516c-.068-.045-.135-.092-.2-.139,0,0-.308-.234-.139-.1q-.215-.172-.42-.36a10.02,10.02,0,0,1-.808-.846c-.018-.021-.149-.183-.034-.035-.063-.081-.123-.165-.182-.249-.106-.151-.208-.3-.305-.463a8.762,8.762,0,0,1-.562-1.093,1.261,1.261,0,0,0-2.291.3,21.76,21.76,0,0,1-.986,3.473c-.066.156-.243.518-.37.746a7.034,7.034,0,0,1-.5.779c-.085.114-.024.032-.006.009-.055.069-.114.136-.172.2-.079.09-.161.177-.247.262s-.194.181-.3.266.01-.007.028-.02q-.115.084-.237.163a5.749,5.749,0,0,1-.656.36c.185-.088-.06.022-.127.046q-.215.076-.437.132c-.128.033-.259.054-.388.08-.146.029.036-.007.056-.008-.073,0-.148.013-.222.017-.11,0-.221.006-.331,0a1.5,1.5,0,0,0-.164-.009c-.14.012.187.049-.044,0-.1-.024-.211-.044-.314-.074-.048-.013-.366-.137-.253-.085s-.173-.1-.234-.138-.092-.06-.135-.092c-.145-.1.173.191-.048-.048a3.115,3.115,0,0,1-.73-1.232,6.072,6.072,0,0,1,.215-4.116,1.258,1.258,0,0,0-.875-1.543,1.29,1.29,0,0,0-1.542.876" transform="translate(-11.299 -39.572)" fill="#24221e"/>
      <path id="패스_1958" data-name="패스 1958" d="M2821.719,366.882a6.762,6.762,0,0,0-2.643.535,27.539,27.539,0,1,0,.524,12.665,6.77,6.77,0,1,0,2.119-13.2" transform="translate(-1.442 -16.128)" fill="#ffe3d4"/>
      <path id="패스_1959" data-name="패스 1959" d="M2791.943,403.028a28.792,28.792,0,1,1,27.341-37.816,8.027,8.027,0,1,1,.652,15.76,28.816,28.816,0,0,1-27.993,22.056m0-55.077a26.284,26.284,0,1,0,25.805,31.272,1.255,1.255,0,0,1,1.624-.954,5.515,5.515,0,1,0-.427-10.32,1.253,1.253,0,0,1-1.7-.816,26.364,26.364,0,0,0-25.306-19.182" transform="translate(-0.821 -15.507)" fill="#24221e"/>
      <path id="패스_1960" data-name="패스 1960" d="M2784.724,381.414a1.806,1.806,0,1,1-1.806-1.806,1.806,1.806,0,0,1,1.806,1.806" transform="translate(-6.77 -26.823)" fill="#24221e"/>
      <path id="패스_1961" data-name="패스 1961" d="M2810.375,381.414a1.805,1.805,0,1,1-1.805-1.806,1.805,1.805,0,0,1,1.805,1.806" transform="translate(-15.266 -26.823)" fill="#24221e"/>
      <path id="패스_1962" data-name="패스 1962" d="M2791.988,382.053l.124-.053-.3.126a5,5,0,0,1,1.175-.334l-.334.045a3.6,3.6,0,0,1,.933,0l-.333-.045a3.537,3.537,0,0,1,.841.234l-.3-.126c.124.052.243.11.362.175a1.254,1.254,0,1,0,1.266-2.166,4.822,4.822,0,0,0-2.269-.611,6,6,0,0,0-2.431.593,1.253,1.253,0,0,0-.576.749,1.279,1.279,0,0,0,.126.966,1.264,1.264,0,0,0,.75.577l.333.045a1.247,1.247,0,0,0,.632-.171" transform="translate(-9.748 -26.719)" fill="#24221e"/>
      <path id="패스_1963" data-name="패스 1963" d="M2779.557,391.064c0,3.158-1.994,5.718-4.453,5.718s-4.452-2.56-4.452-5.718,1.993-5.718,4.452-5.718,4.453,2.56,4.453,5.718" transform="translate(-3.305 -28.723)" fill="#ffb18f"/>
      <path id="패스_1964" data-name="패스 1964" d="M2821.6,391.064c0,3.158-1.993,5.718-4.452,5.718s-4.452-2.56-4.452-5.718,1.993-5.718,4.452-5.718,4.452,2.56,4.452,5.718" transform="translate(-17.232 -28.723)" fill="#ffb18f"/>
      <path id="패스_1965" data-name="패스 1965" d="M2784.282,389.9c1.622-1.541,3.734-2.709,5.926-1.266a1.8,1.8,0,0,1,.753.844,1.751,1.751,0,0,1-.446,1.637c-.378.455-.867.813-1.227,1.283a.839.839,0,0,0-.215.516c.009.3.279.516.5.723a3.918,3.918,0,0,1,.845,3.892A8.569,8.569,0,0,1,2788.15,401a7.126,7.126,0,0,1-3.866,2.346c-2.405.35-4.713-1.517-5.585-3.785-1.461-3.805,3.145-7.344,5.583-9.661" transform="translate(-5.878 -29.594)" fill="#aaa"/>
      <path id="패스_1966" data-name="패스 1966" d="M2784.555,390.167c.133-.125.268-.249.407-.368.07-.06.139-.118.211-.177.2-.165.115-.09.069-.056a6.77,6.77,0,0,1,1.025-.639c.058-.029.118-.058.178-.085.2-.088-.141.048.062-.022a4.847,4.847,0,0,1,.492-.148c.083-.02.166-.037.25-.052.21-.033-.167.007.047,0a3.731,3.731,0,0,1,.579.009c-.187-.023.031.011.058.018.088.023.176.042.263.069a1.281,1.281,0,0,1,.365.145,3.7,3.7,0,0,1,.508.308c-.131-.1.03.036.043.052.243.26-.023,0,.028-.029-.029.016.114.258.022.032,0,.008.02.272,0,.036,0,.016-.069.235,0,.06a1.453,1.453,0,0,1-.09.172c-.012.021-.156.243-.082.14s-.1.111-.114.13c-.138.151-.288.292-.436.434-.732.7-1.485,1.546-1.144,2.641a2.636,2.636,0,0,0,.769,1.065c.059.058.114.116.17.177,0,0,.125.158.054.062s.06.1.074.122c.052.086.1.176.146.265.116.221.035.087.016.035.027.077.053.154.077.232a3.785,3.785,0,0,1,.109.479c-.032-.2.008.2.009.284a4.139,4.139,0,0,1-.031.622c.032-.232-.058.231-.07.276-.045.175-.1.346-.164.516a1.882,1.882,0,0,1-.155.334c-.083.165-.174.327-.271.484a10.419,10.419,0,0,1-2.954,3.048q-.227.146-.465.273c-.043.023-.395.19-.247.128a4.1,4.1,0,0,1-.506.171c-.087.023-.174.042-.261.063-.373.09.177.007-.172.03-.159.011-.317.017-.477.013-.086,0-.482-.058-.253-.015-.155-.029-.309-.062-.461-.1q-.113-.032-.225-.07c-.027-.009-.314-.12-.182-.065s-.094-.046-.122-.06c-.071-.035-.143-.072-.212-.111q-.211-.116-.411-.251c-.046-.03-.343-.257-.186-.128-.158-.13-.31-.266-.455-.409-.117-.115-.229-.236-.336-.36-.053-.062-.107-.125-.158-.189.035.045.109.16-.028-.042a7.613,7.613,0,0,1-.535-.9c-.012-.026-.12-.255-.063-.128s-.038-.1-.05-.128c-.051-.138-.095-.278-.132-.421a2.761,2.761,0,0,0-.068-.3c.021.156,0-.017,0-.042-.005-.1-.013-.207-.014-.311,0-.138.011-.274.018-.412,0-.066.047-.231-.007.027.013-.067.023-.136.037-.2a6.418,6.418,0,0,1,.252-.853c.064-.179-.082.177,0,0,.037-.082.075-.163.115-.244q.121-.247.26-.484a9.968,9.968,0,0,1,.558-.849c.044-.062.092-.124.137-.185-.107.142,0,0,.054-.066.11-.136.223-.272.337-.4.244-.283.5-.557.758-.825.951-.983,1.987-1.876,2.979-2.816a1.254,1.254,0,0,0-1.773-1.773c-2.065,1.956-4.5,3.846-5.654,6.529a5.775,5.775,0,0,0-.183,4.522,7.578,7.578,0,0,0,3.339,3.837,5.8,5.8,0,0,0,5.3.142,11.648,11.648,0,0,0,4.1-3.623,6.687,6.687,0,0,0,1.452-5.194,4.617,4.617,0,0,0-1.205-2.392c-.068-.071-.143-.136-.213-.2l-.043-.04c-.1-.109-.108-.11-.029,0-.032.163.591.421.029.561-.073.019.023-.031.062-.074.3-.339.66-.628.963-.969a3,3,0,0,0,.682-3.377,4.249,4.249,0,0,0-2.782-1.879c-2.233-.49-4.243.686-5.818,2.165a1.254,1.254,0,0,0,1.773,1.773" transform="translate(-5.264 -28.979)" fill="#24221e"/>
      <path id="패스_1967" data-name="패스 1967" d="M2787.068,396.256a1.529,1.529,0,0,0-.381-.682,1.3,1.3,0,0,0-.389-.295,1.338,1.338,0,0,0-.54-.168,1.949,1.949,0,0,0-.694.05,2.72,2.72,0,0,0-.376.162,2.476,2.476,0,0,0-.441.33,4.213,4.213,0,0,0-.426.488l-.476.579a1.274,1.274,0,0,0,0,1.752,1.531,1.531,0,0,0,.216.165,1.815,1.815,0,0,0,.614.354.55.55,0,0,0,.087.028c.064.013.142.019.2.027a1.71,1.71,0,0,0,.221.025,2.127,2.127,0,0,0,1.006-.278,1.608,1.608,0,0,0,.2-.127,4.846,4.846,0,0,0,.427-.339,2.888,2.888,0,0,0,.477-.589,3.066,3.066,0,0,0,.213-.463.992.992,0,0,0,.061-.206,1.8,1.8,0,0,0,0-.815" transform="translate(-7.389 -31.952)" fill="#24221e"/>
      <path id="패스_1968" data-name="패스 1968" d="M2784.493,422.417a10.828,10.828,0,0,1-3.772-1.467,5.089,5.089,0,0,1-1.523-1.714,21.514,21.514,0,0,1-8.413-3.243,26.751,26.751,0,0,1-7.229-7.117,24.113,24.113,0,0,0,1.814,18.238c3.324,6.131,10.147,11.581,16.994,12.91" transform="translate(-0.62 -36.517)" fill="#597582"/>
      <path id="패스_1969" data-name="패스 1969" d="M2784.207,420.6c-1.54-.385-2.969-.717-4.012-1.842a4.852,4.852,0,0,1-.534-.763c-.386-.589-.99-.6-1.613-.727a20.709,20.709,0,0,1-2.406-.629,21.727,21.727,0,0,1-8.134-4.953,27.555,27.555,0,0,1-3.489-4.051,1.272,1.272,0,0,0-2.292.3,25.4,25.4,0,0,0,.812,16.8,27.673,27.673,0,0,0,10.592,12.411,23.88,23.88,0,0,0,8.281,3.479,1.254,1.254,0,0,0,.667-2.418,20.541,20.541,0,0,1-6.761-2.653,26.217,26.217,0,0,1-5.884-4.742,23.029,23.029,0,0,1-4.175-6.075,17.124,17.124,0,0,1-.687-1.657q-.35-.963-.614-1.954a21.955,21.955,0,0,1-.681-3.769,22.692,22.692,0,0,1,.868-8.756l-2.292.3a26.658,26.658,0,0,0,12.086,9.789,21.094,21.094,0,0,0,4.306,1.148l-.749-.577a6.593,6.593,0,0,0,2.626,2.569,14.579,14.579,0,0,0,3.419,1.188,1.254,1.254,0,1,0,.667-2.418" transform="translate(0 -35.911)" fill="#24221e"/>
      <path id="패스_1970" data-name="패스 1970" d="M2771.285,411.015a21.515,21.515,0,0,0,8.413,3.243,6.647,6.647,0,0,1-.074-5.562,3.515,3.515,0,0,0,.151-2.7,1.617,1.617,0,0,0-2.288-.78,4.411,4.411,0,0,0,.2-3c-.4-.943-1.867-1.423-2.461-.587a4.288,4.288,0,0,0,.06-3.4,2.322,2.322,0,0,0-1.6.148,2.4,2.4,0,0,0-.061-3.43c-4.27-4.058-7.783,4.256-8.886,6.973-.263.649-.488,1.312-.69,1.982a26.758,26.758,0,0,0,7.229,7.117" transform="translate(-1.121 -31.539)" fill="#ffe3d4"/>
      <path id="패스_1971" data-name="패스 1971" d="M2770.037,411.492a22.626,22.626,0,0,0,8.713,3.369,1.261,1.261,0,0,0,1.416-1.842,4.178,4.178,0,0,1-.441-1.38c.031.2-.019-.211-.019-.214-.008-.115-.013-.231-.014-.346,0-.258.01-.512.03-.769a.739.739,0,0,1,.03-.228c.025-.14.051-.28.083-.42q.1-.42.234-.83a9.816,9.816,0,0,0,.469-1.558,3.579,3.579,0,0,0-.992-3.4,2.749,2.749,0,0,0-3.307-.35l1.842,1.417c.48-1.554.809-3.463-.481-4.732-1-.978-2.92-1.3-3.873-.077l1.969,1.519a5.767,5.767,0,0,0,.382-3.77,3.482,3.482,0,0,0-.323-.9,1.615,1.615,0,0,0-1.35-.676,3.755,3.755,0,0,0-1.963.374q.759.985,1.52,1.97a3.506,3.506,0,0,0,.846-3.755,4.482,4.482,0,0,0-7.623-1.264,16.316,16.316,0,0,0-3.077,4.623c-.364.753-.695,1.521-1.014,2.293-.2.49-.4.982-.569,1.484a3.326,3.326,0,0,0-.317,1.422,2.661,2.661,0,0,0,.649,1.157,28.328,28.328,0,0,0,7.178,6.876,1.254,1.254,0,0,0,1.267-2.166,25.959,25.959,0,0,1-6.78-6.668c.042.322.084.644.126.966.243-.8.523-1.579.841-2.349a1.277,1.277,0,0,1,.122-.294c-.007.008-.13.3-.047.112l.07-.163c.1-.244.213-.488.323-.73a24.393,24.393,0,0,1,1.62-3.04c.164-.255.333-.507.512-.752l.106-.144c.174-.239-.129.148-.006.007.1-.12.2-.249.306-.371.176-.2.359-.4.553-.579.089-.084.181-.162.272-.243.058-.052.283-.207-.008,0,.064-.045.124-.092.188-.135.187-.128.384-.223.579-.334.223-.126-.281.08-.035.017.045-.012.089-.032.134-.046.122-.039.251-.055.373-.091.155-.046-.335.007-.092.013.045,0,.093-.006.139-.007s.322-.027.352.014-.313-.073-.12-.013c.069.022.145.031.216.052.139.038.412.176.137.033.15.079.3.15.444.241.05.032.1.068.148.1.231.144-.148-.137.048.032a5.269,5.269,0,0,1,.452.425c-.149-.163-.031-.048,0,0,.053.094.109.185.157.282-.125-.249.014.059.027.106a2.507,2.507,0,0,1,.07.316c-.04-.261-.01-.066-.014-.012,0,.038-.027.425,0,.257.03-.2-.039.138-.04.143-.022.079-.162.314-.025.088-.035.059-.069.12-.1.179.138-.229-.093.083-.155.137a1.247,1.247,0,0,0-.1,1.647,1.28,1.28,0,0,0,1.618.323c-.115.051.054-.008.084-.017l.132-.032c-.085.005-.085.005,0,0a1.853,1.853,0,0,1,.273,0c.225.015-.251-.063.138.029l-.876-.875a4.516,4.516,0,0,1,.228.734,2.1,2.1,0,0,1,.05.57,2.144,2.144,0,0,1-.037.5c-.03.137-.06.272-.1.407-.01.031-.132.36-.072.223a1.275,1.275,0,0,0,.323,1.618,1.239,1.239,0,0,0,1.647-.1c.095-.122.2-.144.006-.057.213-.094-.158.071-.023,0,.16-.087.119.014-.028,0a1.047,1.047,0,0,1,.137,0c.095.007.061,0-.1-.013a1.349,1.349,0,0,0,.229.066c.118.025-.162-.115.009.017.1.073.2.2.063.034.021.027.212.228.1.088s.053.1.061.115c-.088-.17.009.055.029.13.011.045.041.309.031.16a3.707,3.707,0,0,1,0,.433.624.624,0,0,1-.022.177c-.022.122-.049.243-.078.364-.07.289-.156.574-.244.858a1.267,1.267,0,0,0,1.842,1.416c.014-.009.241-.2.121-.087-.088.035-.074.035.041,0l-.132.019c.035,0,.293.041.14,0-.178-.048.1.044.138.056-.253-.1.042.043.082.07-.1-.064-.076-.08,0,.007a1.335,1.335,0,0,1,.112.118q.088.1-.033-.039c.022,0,.1.167.029.016a1.537,1.537,0,0,1,.08.963,14.332,14.332,0,0,1-.455,1.418,7.791,7.791,0,0,0,.371,6.053l1.416-1.842a20.528,20.528,0,0,1-8.113-3.116,1.254,1.254,0,0,0-1.267,2.166" transform="translate(-0.506 -30.933)" fill="#24221e"/>
      <path id="패스_1972" data-name="패스 1972" d="M2799.91,382.517c-2.084.732-2.857,3.5-2.7,5.49a13.326,13.326,0,0,0,2.51,6.088,1.281,1.281,0,0,0,1.716.45,1.267,1.267,0,0,0,.45-1.715,12.273,12.273,0,0,1-2.152-4.645c.023.136,0,.023-.005-.049-.01-.107-.019-.214-.024-.322-.01-.193-.012-.387,0-.58,0-.086.011-.171.017-.257.027-.4-.026.113.01-.112a5.387,5.387,0,0,1,.122-.56c.028-.1.06-.2.094-.3.011-.033.115-.284.036-.11a4.205,4.205,0,0,1,.268-.5c.044-.071.091-.141.14-.209s.048-.068,0,0l.084-.1c.057-.058.112-.119.169-.177.168-.168.022-.014-.063.015a1.285,1.285,0,0,0,.876-1.542,1.265,1.265,0,0,0-1.542-.876" transform="translate(-12.096 -27.768)" fill="#24221e"/>
      <path id="패스_1973" data-name="패스 1973" d="M2825.819,344.178a3.374,3.374,0,0,1-1.114-1.712,12.531,12.531,0,0,1,.307-9.878,8.732,8.732,0,0,1,8.25-4.857c3.373.328,6.374,3.493,6.059,6.868,2.844-1.765,6.955-1.613,9.221.851s1.7,7.131-1.349,8.5c2.186.623,4.581,1.5,5.584,3.543,1.248,2.539-.333,5.642-2.509,7.449a13.029,13.029,0,0,1-14.115,1.431" transform="translate(-20.923 -9.63)" fill="#24221e"/>
      <path id="패스_1974" data-name="패스 1974" d="M2825.831,342.486c.17.125-.126-.144-.128-.145.14.16-.1-.162-.1-.164-.068-.113-.125-.229-.183-.347-.179-.36.059.193-.076-.185a16.611,16.611,0,0,1-.5-1.612,11.329,11.329,0,0,1-.364-3.038,9.346,9.346,0,0,1,1.785-5.649c-.139.186.11-.136.112-.138.053-.064.107-.127.162-.189q.247-.282.514-.543t.556-.5c.064-.053.128-.106.194-.157-.158.121.213-.148.247-.172a6.675,6.675,0,0,1,2.434-1.12c.217-.055.437-.1.658-.136.384-.066-.238.006.152-.017.123-.007.243-.019.367-.025q.307-.013.615,0c.123.005.246.017.37.026q.226.025.018,0c.078.012.155.025.233.041q.29.056.573.14.17.05.337.108c.018.007.381.146.14.047a6.714,6.714,0,0,1,1.239.692c.012.009.322.243.127.088.123.1.243.2.359.307.176.159.342.327.5.5.079.088.155.177.23.268.092.114.1.122.02.024.046.064.092.127.135.191a6.666,6.666,0,0,1,.365.6c.056.1.1.208.157.311q.09.2.014.019c.029.072.056.144.083.216a5.837,5.837,0,0,1,.2.663c.026.113.046.226.069.34.023.148.025.152,0,.011.009.076.016.154.02.231a5.8,5.8,0,0,1-.012.819,1.262,1.262,0,0,0,1.886,1.083,8.792,8.792,0,0,1,.878-.467c.183-.085-.163.063.024-.011.073-.029.146-.057.219-.084.166-.06.334-.116.5-.165a8.26,8.26,0,0,1,.975-.221c.035-.005.278-.037.125-.019s.09-.007.125-.01q.263-.024.527-.032a8.05,8.05,0,0,1,.992.035c.035,0,.278.034.122.012s.085.015.121.021q.256.045.509.107c.148.037.3.08.443.126.091.029.181.06.271.093.031.011.255.1.117.041s.081.037.112.051c.068.032.137.066.205.1.152.078.3.161.447.251.065.04.13.081.193.124-.014-.009.291.206.152.1-.116-.086.073.06.1.08.058.049.116.1.173.151q.171.156.331.325c.055.059.326.4.159.17a5.317,5.317,0,0,1,.442.712c.023.046.178.395.123.253-.062-.156.013.042.027.081.026.078.054.155.079.234.085.271.125.546.192.821.044.179-.014-.221,0-.038,0,.066.013.132.018.2q.02.248.02.5,0,.2-.013.4c0,.049-.047.444-.022.277s-.044.223-.053.27c-.034.16-.074.318-.122.475-.041.14-.093.276-.142.414-.078.217,0,.007.014-.031-.042.087-.082.175-.127.261-.073.142-.153.28-.24.415-.035.053-.073.1-.107.158-.126.2.095-.094-.006.012a7.864,7.864,0,0,1-.639.638c.035-.029.212-.142.023-.023-.082.051-.16.108-.243.158a4.671,4.671,0,0,1-.435.227,1.242,1.242,0,0,0-.6,1.249,1.257,1.257,0,0,0,.9,1.042c.428.123.855.252,1.277.4a8.484,8.484,0,0,1,1.177.468,5.1,5.1,0,0,1,2,1.473c-.142-.17.017.024.049.07.056.081.108.163.159.246.061.1.113.208.17.313.172.32-.045-.2.062.147a5.372,5.372,0,0,1,.16.571c.008.033.049.409.025.131.01.117.019.234.021.351a4.681,4.681,0,0,1-.036.706c.037-.277-.028.112-.033.137-.016.078-.035.157-.054.235-.06.237-.14.465-.22.7s-.035.1-.013.043c-.064.152-.139.3-.215.449a8.423,8.423,0,0,1-3.724,3.591q-.33.178-.67.336c-.114.052-.227.1-.343.153.052-.022.186-.071-.047.016-.47.174-.94.338-1.425.468a13.662,13.662,0,0,1-1.347.285c-.013,0-.421.053-.164.024l-.249.027q-.437.044-.875.06a13.4,13.4,0,0,1-1.5-.031c-.124-.01-.25-.021-.373-.035-.083-.008-.166-.018-.249-.029q.19.026-.038-.007c-.247-.042-.493-.084-.737-.136a12.482,12.482,0,0,1-1.561-.444c-.1-.035-.2-.072-.293-.109l-.175-.069-.045-.02c-.268-.12-.529-.247-.788-.384a1.28,1.28,0,0,0-1.715.45,1.267,1.267,0,0,0,.45,1.715,14.432,14.432,0,0,0,12.968.122,11.353,11.353,0,0,0,4.918-4.443,6.55,6.55,0,0,0,.283-6.586c-1.3-2.189-3.836-3.14-6.164-3.807q.149,1.146.3,2.291c2.761-1.279,3.789-4.67,3.165-7.478-.723-3.257-3.768-5.184-6.958-5.379a9.315,9.315,0,0,0-5.344,1.34l1.887,1.083a7.475,7.475,0,0,0-2.6-6.044,8.192,8.192,0,0,0-6.639-2.008,9.914,9.914,0,0,0-5.952,3.307,11.668,11.668,0,0,0-2.769,7.045,14.751,14.751,0,0,0,.429,4.409,6.563,6.563,0,0,0,2.143,3.952,1.263,1.263,0,0,0,1.716-.45,1.284,1.284,0,0,0-.45-1.715" transform="translate(-20.302 -9.02)" fill="#24221e"/>
      <path id="패스_1975" data-name="패스 1975" d="M2803.247,363.729a41.1,41.1,0,0,0,12.882-1.2,26.639,26.639,0,0,0-48.609,2.2c-.065.165-.121.335-.183.5a34.428,34.428,0,0,0,17.781-8.715,31.165,31.165,0,0,0,18.129,7.208" transform="translate(-2.207 -16.298)" fill="#24221e"/>
      <path id="패스_1976" data-name="패스 1976" d="M2766.715,365.87a1.254,1.254,0,0,1-1.175-1.691l.065-.182c.041-.115.082-.231.127-.344a27.892,27.892,0,0,1,50.9-2.3,1.254,1.254,0,0,1-.818,1.78,42.371,42.371,0,0,1-13.276,1.229,32.711,32.711,0,0,1-18.006-6.8,35.863,35.863,0,0,1-17.61,8.293,1.235,1.235,0,0,1-.2.017m24.977-17.4c-.316,0-.63.006-.947.017a25.4,25.4,0,0,0-21.962,14.438,33.318,33.318,0,0,0,14.858-7.938,1.254,1.254,0,0,1,1.678-.029,29.9,29.9,0,0,0,17.4,6.9,39.1,39.1,0,0,0,10.9-.8,25.466,25.466,0,0,0-21.926-12.593" transform="translate(-1.586 -15.678)" fill="#24221e"/>
      <path id="패스_1977" data-name="패스 1977" d="M2808.677,341.16h-17.8l1.312-11.016a5.8,5.8,0,0,1,5.757-5.112h3.659a5.8,5.8,0,0,1,5.757,5.112Z" transform="translate(-10.005 -8.747)" fill="#fc5d5d"/>
      <path id="패스_1978" data-name="패스 1978" d="M2808.055,341.793h-17.8a1.255,1.255,0,0,1-1.246-1.4l1.312-11.016a7.056,7.056,0,0,1,7-6.218h3.659a7.055,7.055,0,0,1,7,6.218l1.312,11.016a1.254,1.254,0,0,1-1.245,1.4m-16.384-2.508h14.972l-1.145-9.614a4.545,4.545,0,0,0-4.511-4.006h-3.659a4.545,4.545,0,0,0-4.511,4.006Z" transform="translate(-9.384 -8.126)" fill="#24221e"/>
      <path id="패스_1979" data-name="패스 1979" d="M2806.15,339.188h-7.787l.574-5.68a2.726,2.726,0,0,1,2.519-2.636h1.6a2.726,2.726,0,0,1,2.519,2.636Z" transform="translate(-12.484 -10.681)" fill="#fc5d5d"/>
      <path id="패스_1980" data-name="패스 1980" d="M2805.529,339.821h-7.786a1.254,1.254,0,0,1-1.248-1.38l.574-5.68a3.97,3.97,0,0,1,3.767-3.764h1.6a3.97,3.97,0,0,1,3.766,3.763l.574,5.681a1.255,1.255,0,0,1-1.248,1.38m-6.4-2.508h5.012l-.434-4.3c-.086-.845-.644-1.508-1.272-1.508h-1.6c-.628,0-1.186.663-1.272,1.508Z" transform="translate(-11.863 -10.06)" fill="#24221e"/>
      <path id="패스_1981" data-name="패스 1981" d="M2807.923,348.538h-17.805a1.525,1.525,0,0,1-1.525-1.526v-1.538a1.525,1.525,0,0,1,1.525-1.525h17.805a1.525,1.525,0,0,1,1.525,1.525v1.538a1.525,1.525,0,0,1-1.525,1.526" transform="translate(-9.248 -15.013)" fill="#24221e"/>
      <path id="패스_1982" data-name="패스 1982" d="M2807.3,349.17H2789.5a2.782,2.782,0,0,1-2.779-2.779v-1.538a2.782,2.782,0,0,1,2.779-2.779H2807.3a2.782,2.782,0,0,1,2.779,2.779v1.538a2.782,2.782,0,0,1-2.779,2.779m-17.805-4.588a.271.271,0,0,0-.271.271v1.538a.271.271,0,0,0,.271.271H2807.3a.271.271,0,0,0,.271-.271v-1.538a.271.271,0,0,0-.271-.271Z" transform="translate(-8.627 -14.391)" fill="#24221e"/>
      <path id="패스_1983" data-name="패스 1983" d="M2790.721,315.879a1.254,1.254,0,0,1-1.085-.623l-3.684-6.326a1.254,1.254,0,1,1,2.167-1.262l3.684,6.326a1.254,1.254,0,0,1-1.082,1.885" transform="translate(-8.316 -2.789)" fill="#24221e"/>
      <path id="패스_1984" data-name="패스 1984" d="M2802.006,309.614a1.254,1.254,0,0,1-1.25-1.162l-.626-8.481a1.254,1.254,0,0,1,2.5-.185l.625,8.481a1.254,1.254,0,0,1-1.159,1.343c-.031,0-.063,0-.093,0" transform="translate(-13.068 0)" fill="#24221e"/>
      <path id="패스_1985" data-name="패스 1985" d="M2813.957,313.94a1.254,1.254,0,0,1-1.043-1.95l4.589-6.882a1.254,1.254,0,0,1,2.087,1.392L2815,313.382a1.252,1.252,0,0,1-1.044.558" transform="translate(-17.233 -1.963)" fill="#24221e"/>
    </g>
  </g>
</svg>
