<svg xmlns="http://www.w3.org/2000/svg" xmlns:xlink="http://www.w3.org/1999/xlink" width="70.882" height="55.857" viewBox="0 0 70.882 55.857">
  <defs>
    <clipPath id="clip-path">
      <rect id="사각형_1078" data-name="사각형 1078" width="60.466" height="52" fill="#fff" stroke="#707070" stroke-width="1"/>
    </clipPath>
  </defs>
  <g id="img" transform="translate(7.646 -4.085)">
    <g id="마스크_그룹_118" data-name="마스크 그룹 118" transform="translate(-3.001 7.942)" clip-path="url(#clip-path)">
      <g id="그룹_1307" data-name="그룹 1307" transform="translate(3.645 7.393)">
        <path id="패스_2536" data-name="패스 2536" d="M851.339,506.539a4.048,4.048,0,0,1,2.487-2.214c.3-.093.684-.129.878.114a1.033,1.033,0,0,1,.094.718c-.013.247.065.553.312.609a2.6,2.6,0,0,0,.359,0c.413.036.51.579.485.983a.421.421,0,0,0,.051.289c.1.128.3.108.459.127a.779.779,0,0,1,.428,1.285,1.12,1.12,0,0,1,.886,1.161,2.426,2.426,0,0,1-.655,1.422A4.821,4.821,0,0,1,854,512.839a3.089,3.089,0,0,1-3.093-1.578" transform="translate(-805.015 -499.494)" fill="#ffd8c7"/>
        <path id="패스_2537" data-name="패스 2537" d="M850.648,505.654a3.636,3.636,0,0,1,2.081-1.972,2.54,2.54,0,0,1,.373-.1c.032,0,.065,0,.1,0,.116,0-.036-.023.072.008.006,0,.078.024.023.006.079.025.029.029.015.008a.9.9,0,0,1,.011.385,1.393,1.393,0,0,0,.053.525.829.829,0,0,0,.978.574c-.02.005,0,0,.025,0-.075-.007.031.026-.026-.021a.4.4,0,0,1,.052.052c-.049-.061,0,0,0,.009.026.117-.018-.072.021.048.009.027.017.053.023.081s.013.056.018.084c.009.051.01.057,0,.019,0,.022,0,.043,0,.065a2.767,2.767,0,0,0,.015.495.669.669,0,0,0,.448.5,1.194,1.194,0,0,0,.287.052c.047,0,.094,0,.14.01-.07-.009.028.009.046.013-.09-.023.109.077.041.019a.861.861,0,0,1,.067.065c.02.022.017.019-.007-.011.015.02.029.041.042.063s.025.044.036.067c-.036-.075.008.033.011.043s.025.118.016.056,0,.063,0,.076-.014.1,0,.019a.82.82,0,0,1-.029.107c.025-.071.008-.013,0,0-.027.039-.026.042,0,.007a.534.534,0,0,1-.054.055.414.414,0,0,0,.188.693.6.6,0,0,1,.505.4,1.016,1.016,0,0,1-.01.748,3.8,3.8,0,0,1-1.234,1.524,4.155,4.155,0,0,1-1.691.847,2.978,2.978,0,0,1-1.713-.107,2.378,2.378,0,0,1-1.364-1.2.434.434,0,0,0-.581-.149.419.419,0,0,0-.153.568,3.573,3.573,0,0,0,3.875,1.726,4.981,4.981,0,0,0,2.185-1.058,4.434,4.434,0,0,0,1.513-1.978,1.6,1.6,0,0,0-1.107-2.113l.188.693a1.2,1.2,0,0,0-.263-1.851,1.223,1.223,0,0,0-.557-.149l-.082-.006h.011q-.076-.02-.019,0c.128.242.1.027.1-.07a1.507,1.507,0,0,0-.321-1.041.828.828,0,0,0-.479-.259c-.011,0-.344-.039-.354,0-.006.021.041.018.035.036.016.028.016.029,0,0s-.015-.024-.006,0a1.043,1.043,0,0,1-.021-.461,1.182,1.182,0,0,0-.136-.668c-.485-.82-1.7-.3-2.315.058a4.419,4.419,0,0,0-1.815,2,.423.423,0,0,0,.153.568.434.434,0,0,0,.582-.149" transform="translate(-803.957 -498.4)" fill="#161616"/>
        <path id="패스_2538" data-name="패스 2538" d="M847.045,515.155a3.008,3.008,0,0,1,.185-2.886,2.031,2.031,0,0,1,2.1-.99,2.877,2.877,0,0,1,1.418,1.214,1.544,1.544,0,0,1,.226.373.823.823,0,0,1-.973,1" transform="translate(-802.045 -504.539)" fill="#ffd8c7"/>
        <path id="패스_2539" data-name="패스 2539" d="M846.342,513.89a2.523,2.523,0,0,1,.572-2.9,1.367,1.367,0,0,1,1.312-.339,2.561,2.561,0,0,1,1.087,1,2.007,2.007,0,0,1,.159.233c.015.028.051.151.045.1a.313.313,0,0,1-.07.242.317.317,0,0,1-.077.087.41.41,0,0,1-.114.077.527.527,0,0,1-.128.038c.065-.009-.008,0-.018,0-.087-.007.031.012-.064-.012a.416.416,0,0,0-.226.8,1.272,1.272,0,0,0,1.548-1.185,1.784,1.784,0,0,0-.514-1.05,4.076,4.076,0,0,0-.819-.832,2.06,2.06,0,0,0-2.15-.134,2.974,2.974,0,0,0-1.445,1.737,3.448,3.448,0,0,0,.167,2.564.434.434,0,0,0,.581.149.419.419,0,0,0,.152-.567" transform="translate(-800.975 -503.483)" fill="#161616"/>
        <path id="패스_2540" data-name="패스 2540" d="M723.608,498.828a14.657,14.657,0,0,1,2.318-5.129,12.569,12.569,0,0,1,9.923-5.138c7.069.027,12.046,3,14.857,9.266,1.389,3.1,2.308,6.436,3.5,9.641a12.981,12.981,0,0,0,2.62,4.806,31.2,31.2,0,0,0,3.3,2.471,4.917,4.917,0,0,1,2.165,3.331,2.381,2.381,0,0,1-2.476,2.575,3.191,3.191,0,0,1-.536,3.688,3.394,3.394,0,0,1-3.763.633,4.839,4.839,0,0,1-3.886,2.616,12.038,12.038,0,0,1-4.866-.61c-12.377-3.561-27.471-13.679-23.15-28.151" transform="translate(-713.249 -488.139)" fill="#514741"/>
        <path id="패스_2541" data-name="패스 2541" d="M722.973,497.836a21.45,21.45,0,0,1,1.118-3.139,11.186,11.186,0,0,1,1.879-2.74,12.713,12.713,0,0,1,4.973-3.4,11.138,11.138,0,0,1,2.919-.646,17.5,17.5,0,0,1,2.95.057,16.7,16.7,0,0,1,5.044,1.226,13.259,13.259,0,0,1,4.052,2.717,15.807,15.807,0,0,1,3.036,4.281,52.236,52.236,0,0,1,2.569,6.723c.4,1.191.8,2.383,1.235,3.562a22.3,22.3,0,0,0,1.332,3.09,8.465,8.465,0,0,0,2.193,2.6c.911.711,1.935,1.279,2.817,2.024a4.662,4.662,0,0,1,1.673,2.42,2.2,2.2,0,0,1-.825,2.241,1.45,1.45,0,0,1-1.059.3.424.424,0,0,0-.48.609,2.735,2.735,0,0,1-2.2,3.992,2.9,2.9,0,0,1-1.513-.239.436.436,0,0,0-.582.149,4.686,4.686,0,0,1-4.349,2.473,12.179,12.179,0,0,1-3.41-.514c-.776-.21-1.545-.446-2.307-.7a46.328,46.328,0,0,1-8.594-3.852,34.552,34.552,0,0,1-7.512-5.723,20.658,20.658,0,0,1-4.782-7.384,15.96,15.96,0,0,1-.486-8.933q.138-.6.315-1.193c.153-.513-.667-.733-.82-.221a17.132,17.132,0,0,0-.138,9.6,20.428,20.428,0,0,0,4.581,7.939,33.673,33.673,0,0,0,7.545,6.116A46.978,46.978,0,0,0,743,525.443a26.013,26.013,0,0,0,5.469,1.451,6.514,6.514,0,0,0,5.619-1.683,4.086,4.086,0,0,0,.748-1.131l-.582.149a3.888,3.888,0,0,0,3.464-.095,3.57,3.57,0,0,0,1.416-4.794l-.48.609a2.569,2.569,0,0,0,2.573-1.3,3.174,3.174,0,0,0,.085-3.04c-1-2.188-3.456-3.026-5.11-4.615a8.923,8.923,0,0,1-1.869-2.823c-.491-1.087-.882-2.222-1.273-3.346-.852-2.452-1.607-4.939-2.607-7.34a19.609,19.609,0,0,0-3.009-5.158,14.057,14.057,0,0,0-4.029-3.307,16,16,0,0,0-5.1-1.7,16.382,16.382,0,0,0-6.2.018,13,13,0,0,0-5.623,2.927,14.1,14.1,0,0,0-2.258,2.494,12.79,12.79,0,0,0-1.566,3.209c-.187.543-.352,1.092-.517,1.642-.153.514.667.733.82.221" transform="translate(-712.203 -487.037)" fill="#161616"/>
        <path id="패스_2542" data-name="패스 2542" d="M803.642,759.792a9.439,9.439,0,0,0,5.04-1.6,1.4,1.4,0,0,0,.523-.525,1.424,1.424,0,0,0,.011-.884c-.376-1.811-.662-4.563-2.735-5.28a2.937,2.937,0,0,0-2.532.5,2.75,2.75,0,0,0-1.273,1.778c-.143.99.256,1.849-.106,2.86a11.687,11.687,0,0,0-.589,1.533,1.34,1.34,0,0,0,.51,1.452,1.746,1.746,0,0,0,.848.167q.151,0,.3,0" transform="translate(-769.929 -678.297)" fill="#fff"/>
        <path id="패스_2543" data-name="패스 2543" d="M802.566,759.144a9.949,9.949,0,0,0,3.041-.551,10.092,10.092,0,0,0,1.435-.631,4.611,4.611,0,0,0,1.24-.843,1.606,1.606,0,0,0,.268-1.506c-.066-.325-.127-.651-.191-.977a12.721,12.721,0,0,0-.548-2.094,4.646,4.646,0,0,0-1.144-1.82,2.955,2.955,0,0,0-2.454-.769,4.013,4.013,0,0,0-2.439,1.423,2.683,2.683,0,0,0-.6,1.342,7.288,7.288,0,0,0,.033,1.48,4,4,0,0,1,0,.765,2.891,2.891,0,0,1-.236.788,4.929,4.929,0,0,0-.523,1.595,1.751,1.751,0,0,0,.479,1.372,2.2,2.2,0,0,0,1.638.425.415.415,0,0,0,0-.83,3.74,3.74,0,0,1-.655-.017.711.711,0,0,1-.414-.2,1.046,1.046,0,0,1-.194-.8,4.657,4.657,0,0,1,.422-1.171,3.753,3.753,0,0,0,.349-1.4c.025-.8-.279-1.7.106-2.445a3.08,3.08,0,0,1,1.805-1.425,2.122,2.122,0,0,1,1.14-.062,2.336,2.336,0,0,1,.786.384,2.872,2.872,0,0,1,.3.273c.056.059.11.119.161.182s.02.026.01.012q.05.065.1.132a4.289,4.289,0,0,1,.239.389c.034.061.066.124.1.187q.028.057.055.115c0,.005.053.118.026.057a9.809,9.809,0,0,1,.552,1.874c.066.313.125.628.186.942a3.069,3.069,0,0,1,.144.982.632.632,0,0,1-.3.391,6.394,6.394,0,0,1-.6.384,8.709,8.709,0,0,1-1.325.634,9.189,9.189,0,0,1-2.987.584.415.415,0,0,0,0,.83" transform="translate(-768.853 -677.234)" fill="#161616"/>
        <path id="패스_2544" data-name="패스 2544" d="M716.767,730.365a3.182,3.182,0,0,1-.51,2.557,9.592,9.592,0,0,0-1.246,2.382,1.354,1.354,0,0,0,.342,1.437c.554.4,1.336.052,1.915-.317a39.566,39.566,0,0,0,4.531-3.367c.6-.512,1.225-1.162,1.145-1.933a2.413,2.413,0,0,0-.448-1.025,30.186,30.186,0,0,0-2.272-3.066" transform="translate(-707.583 -660.675)" fill="#fff"/>
        <path id="패스_2545" data-name="패스 2545" d="M715.272,729.393a2.6,2.6,0,0,1-.335,2c-.348.656-.809,1.25-1.125,1.923a2.649,2.649,0,0,0-.261,2.054,1.457,1.457,0,0,0,1.831.807,7.145,7.145,0,0,0,2-1.128q1.023-.7,2-1.454c.626-.483,1.253-.977,1.835-1.511a2.84,2.84,0,0,0,1.066-1.83,2.2,2.2,0,0,0-.382-1.243c-.234-.386-.493-.76-.753-1.13-.537-.765-1.11-1.506-1.714-2.223a.436.436,0,0,0-.6,0,.417.417,0,0,0,0,.587q.72.854,1.371,1.76.336.467.654.947a4.268,4.268,0,0,1,.5.859,1.41,1.41,0,0,1-.524,1.472,17.426,17.426,0,0,1-1.645,1.4q-.858.681-1.756,1.311a16.553,16.553,0,0,1-1.839,1.2,1.654,1.654,0,0,1-.809.228.507.507,0,0,1-.449-.33c.008.02-.025-.088-.033-.12a.469.469,0,0,1-.021-.125,1.774,1.774,0,0,1,0-.218.952.952,0,0,1,.015-.155,3.261,3.261,0,0,1,.32-.9c.352-.69.84-1.306,1.169-2.008a3.261,3.261,0,0,0,.3-2.394.436.436,0,0,0-.523-.29.418.418,0,0,0-.3.51" transform="translate(-706.499 -659.592)" fill="#161616"/>
        <path id="패스_2546" data-name="패스 2546" d="M717.736,638.35c-1.659,1.373-3.324,2.5-4.872,3.991-2.163,2.086-4.815,3.59-6.789,5.882a10.367,10.367,0,0,0-2.757,6.506,15.3,15.3,0,0,0,.977,4.724l1.452,4.539a4.894,4.894,0,0,0,1.077,2.1c1.311,1.277,3.537.786,5.183-.043a4.162,4.162,0,0,0,1.711-1.336c.583-.907.448-2.065.582-3.128.4-3.172,3.175-5.457,5.559-7.647s4.722-5.193,3.9-8.286" transform="translate(-699.25 -596.512)" fill="#ffd97b"/>
        <path id="패스_2547" data-name="패스 2547" d="M716.365,636.981c-.927.766-1.892,1.484-2.834,2.231-.469.372-.931.753-1.378,1.15s-.841.792-1.273,1.176c-1.632,1.448-3.471,2.658-5.058,4.154a13.028,13.028,0,0,0-3.582,5.416,8.563,8.563,0,0,0-.39,3.262,16.249,16.249,0,0,0,.787,3.555c.376,1.2.764,2.393,1.147,3.59.187.586.371,1.173.562,1.757a6.258,6.258,0,0,0,.649,1.476,3.259,3.259,0,0,0,2.481,1.447,6.184,6.184,0,0,0,2.824-.482,4.231,4.231,0,0,0,3.321-4.855,8.371,8.371,0,0,1,2.516-4.887c1.4-1.5,3.045-2.752,4.409-4.28a9.272,9.272,0,0,0,2.733-5.684,5.522,5.522,0,0,0-.183-1.537.425.425,0,0,0-.819.221c.509,1.954-.366,3.87-1.53,5.436a36.609,36.609,0,0,1-4.254,4.289,12.6,12.6,0,0,0-3.338,4.608,6.763,6.763,0,0,0-.335,1.383c-.071.517-.077,1.038-.121,1.557a3.267,3.267,0,0,1-.358,1.371,2.787,2.787,0,0,1-.995.943,7.744,7.744,0,0,1-2.579,1.022,3.291,3.291,0,0,1-2.36-.293,4.069,4.069,0,0,1-1.384-2.4l-1.126-3.52c-.679-2.121-1.513-4.332-1.126-6.588a10.844,10.844,0,0,1,2.812-5.375,42.41,42.41,0,0,1,4.849-4.12c.41-.331.813-.669,1.2-1.022.426-.385.833-.789,1.266-1.168.874-.763,1.8-1.465,2.717-2.177.453-.352.9-.708,1.347-1.073a.411.411,0,0,0,0-.587.442.442,0,0,0-.6,0" transform="translate(-698.179 -595.436)" fill="#161616"/>
        <path id="패스_2548" data-name="패스 2548" d="M762.108,662.37c1.732,3.361,3.85,6.279,5.223,9.878l2.945,7.724c.449,1.176,1.005,2.469,2.182,2.976a3.481,3.481,0,0,1,.84.388c.251.2.4.521.7.651a1.3,1.3,0,0,0,.728.022,21.658,21.658,0,0,0,4-1.072,1.769,1.769,0,0,0,.847-.528,2.409,2.409,0,0,0,.264-1.219c.105-1.013.812-1.727.947-2.717a13.407,13.407,0,0,0-.408-4.282,58.265,58.265,0,0,0-2.737-8.5,46.12,46.12,0,0,0-6.467-11.991" transform="translate(-741.38 -607.621)" fill="#ffd97b"/>
        <path id="패스_2549" data-name="패스 2549" d="M760.678,661.5c.941,1.822,2.026,3.568,3.033,5.354.494.876.969,1.763,1.4,2.672.459.972.833,1.973,1.215,2.975l2.43,6.373a8.7,8.7,0,0,0,1.169,2.33,3.5,3.5,0,0,0,.99.888c.377.218.867.275,1.169.6a3.453,3.453,0,0,0,.468.471,1.249,1.249,0,0,0,.8.222,9.68,9.68,0,0,0,1.6-.286,17.352,17.352,0,0,0,3.17-.982,1.592,1.592,0,0,0,.966-1.069c.111-.451.064-.915.2-1.361a10.963,10.963,0,0,1,.509-1.163,4.253,4.253,0,0,0,.368-1.366,11.437,11.437,0,0,0-.25-3.144c-.195-1.053-.428-2.1-.721-3.13-.6-2.1-1.385-4.144-2.148-6.191a48.35,48.35,0,0,0-5.689-11.065q-.433-.613-.889-1.21a.445.445,0,0,0-.582-.149.412.412,0,0,0-.152.567,44.877,44.877,0,0,1,5.885,10.5c.392.974.751,1.96,1.117,2.943s.736,1.989,1.071,2.995c.342,1.025.652,2.061.9,3.112a26.09,26.09,0,0,1,.556,2.922,5.426,5.426,0,0,1-.2,2.8c-.164.381-.375.762-.524,1.157a5.235,5.235,0,0,0-.236,1.348.942.942,0,0,1-.168.509,1.206,1.206,0,0,1-.442.279,14.341,14.341,0,0,1-1.481.507q-.768.231-1.553.406-.392.087-.788.16a1.973,1.973,0,0,1-.71.079c-.155-.034-.247-.172-.352-.293a1.974,1.974,0,0,0-.561-.484,7.569,7.569,0,0,1-1.16-.558,4.512,4.512,0,0,1-1.231-1.824c-.406-.962-.754-1.951-1.126-2.926l-1.178-3.09c-.392-1.029-.764-2.067-1.191-3.083-.391-.93-.831-1.838-1.306-2.729-.932-1.749-1.983-3.433-2.946-5.166q-.363-.653-.707-1.316a.435.435,0,0,0-.582-.149.417.417,0,0,0-.152.567" transform="translate(-740.317 -606.538)" fill="#161616"/>
        <path id="패스_2550" data-name="패스 2550" d="M737.8,524.438c-.977-.805-2.147-2.209-3.557-1.879-1.281.3-2.058,1.88-2.939,2.738a48.083,48.083,0,0,1-4.012,3.305c-1.338,1.047-2.544,2.319-3.8,3.462l-1.85,1.685c-.281.256-1.332,1.532-1.682,1.532a2.647,2.647,0,0,0-.363.38,17.164,17.164,0,0,0-2.642-.62,54.7,54.7,0,0,0-6.96-.184,15.192,15.192,0,0,0-6.633,1.471c-2.781,1.264-5.461,2.555-8.255,3.771a7.6,7.6,0,0,0-4.411,4.908c-1.066,3.854,1.036,7.118,4.824,8.3a11.755,11.755,0,0,0,5.347.3c-.114,2.213-.195,4.427-.467,6.644a1.442,1.442,0,0,0,.044.763c.187.422.712.573,1.173.669,5.878,1.232,12.508,2.274,18.53,1.643,5.525-.578,3.418-5.852,3.608-9.72q.05-1.015.078-2.031a9.548,9.548,0,0,0,1.743-1.407c1.312-1.3,2.615-2.611,3.834-3.994a45.542,45.542,0,0,0,7.668-12.122c.785-1.827,2.243-4.423,2.569-6.314.247-1.434-.822-2.455-1.849-3.3" transform="translate(-690.006 -512.701)" fill="#f2827c"/>
        <path id="패스_2551" data-name="패스 2551" d="M737.051,523.067c-1.1-.917-2.274-2.321-3.9-2-1.47.289-2.172,1.81-3.112,2.777a51.966,51.966,0,0,1-4.437,3.664c-1.507,1.24-2.868,2.651-4.308,3.964-.574.522-1.123,1.044-1.655,1.606a6,6,0,0,1-.677.651l-.113.071c-.03.018-.041.044.022-.007-.068.055.146-.048-.01.005a1.506,1.506,0,0,0-.673.578l.48-.191a17.753,17.753,0,0,0-5.312-.836c-.931-.014-1.861.016-2.791.027-.885.011-1.773-.048-2.657,0a16.044,16.044,0,0,0-5.208,1.256c-1.758.728-3.466,1.584-5.193,2.381q-1.3.6-2.6,1.184a16.968,16.968,0,0,0-2.221,1.082,8.031,8.031,0,0,0-2.885,3.116,7.094,7.094,0,0,0,.525,7.54c1.911,2.446,5.2,3.354,8.247,3.153.458-.03.914-.086,1.367-.158l-.538-.4c-.091,1.763-.161,3.527-.323,5.286-.042.453-.092.906-.145,1.358a1.591,1.591,0,0,0,.164,1.086c.4.612,1.212.716,1.878.853a86.369,86.369,0,0,0,10.179,1.559,47.5,47.5,0,0,0,5.12.171c.843-.02,1.686-.068,2.525-.147a7.73,7.73,0,0,0,1.847-.35,3.793,3.793,0,0,0,2.135-1.727,5.857,5.857,0,0,0,.594-2.65,27.8,27.8,0,0,0-.15-2.939,26.727,26.727,0,0,1-.054-3.238q.026-.646.044-1.293l-.211.358a14.949,14.949,0,0,0,2.712-2.353c.88-.883,1.749-1.777,2.583-2.7a46.338,46.338,0,0,0,4.2-5.411,45.6,45.6,0,0,0,3.313-5.9c.432-.924.828-1.863,1.266-2.785.456-.959.918-1.917,1.311-2.9a5.668,5.668,0,0,0,.605-3.158,5.006,5.006,0,0,0-1.942-2.583.444.444,0,0,0-.6,0,.411.411,0,0,0,0,.586c.789.652,1.744,1.466,1.76,2.561a4.81,4.81,0,0,1-.335,1.537c-.184.553-.406,1.1-.642,1.63-.477,1.077-1.016,2.127-1.491,3.206-.515,1.168-1.047,2.326-1.644,3.457a45.625,45.625,0,0,1-4.314,6.684,61.386,61.386,0,0,1-5.615,6.128,11.93,11.93,0,0,1-1.6,1.285c-.308.213-.22.677-.231,1q-.019.555-.044,1.108a20.673,20.673,0,0,0,.055,2.537,14.641,14.641,0,0,1-.009,4.611,2.965,2.965,0,0,1-.972,1.619,4.345,4.345,0,0,1-2.27.814,42.307,42.307,0,0,1-8.361-.029,81.772,81.772,0,0,1-8.419-1.267c-.634-.125-1.281-.229-1.9-.4a1.089,1.089,0,0,1-.577-.287c-.165-.21-.078-.536-.049-.777.175-1.461.271-2.93.348-4.4.038-.717.071-1.434.108-2.151a.429.429,0,0,0-.538-.4c-2.867.457-6.177-.034-8.258-2.169a5.821,5.821,0,0,1-1.557-2.989,6.709,6.709,0,0,1,.418-3.679,6.978,6.978,0,0,1,2.418-3.041,10.378,10.378,0,0,1,1.9-1.028q1.247-.547,2.484-1.116c1.677-.768,3.346-1.554,5.024-2.321a17.282,17.282,0,0,1,4.833-1.493,16.782,16.782,0,0,1,2.512-.089c.878.011,1.756-.016,2.634-.028a21.039,21.039,0,0,1,5.036.447c.435.1.864.218,1.287.358a.441.441,0,0,0,.48-.191,2.569,2.569,0,0,1,.3-.3l-.3.121c.509-.034.922-.535,1.246-.873.406-.424.8-.838,1.234-1.234.712-.648,1.428-1.291,2.126-1.954.666-.633,1.322-1.277,2.009-1.888,1.368-1.217,2.9-2.245,4.271-3.457a12.47,12.47,0,0,0,1.575-1.66,6.164,6.164,0,0,1,1.31-1.389c1.449-.968,2.752.649,3.764,1.491.414.344,1.018-.24.6-.586" transform="translate(-688.958 -511.624)" fill="#161616"/>
        <path id="패스_2552" data-name="패스 2552" d="M729.653,530.725a3.306,3.306,0,0,1-1.28.09,3.169,3.169,0,0,1-2.8-3.526,3.217,3.217,0,0,1,3.613-2.729,3.257,3.257,0,0,1,1.722.757" transform="translate(-715.181 -514.167)" fill="#ffd8c7"/>
        <path id="패스_2553" data-name="패스 2553" d="M728.465,529.257a2.893,2.893,0,0,1-1.394.03,2.723,2.723,0,0,1-.043-5.324,2.8,2.8,0,0,1,1.205-.033,2.869,2.869,0,0,1,1.3.614.443.443,0,0,0,.6,0,.411.411,0,0,0,0-.586,3.789,3.789,0,0,0-2.986-.86,3.636,3.636,0,0,0-2.3,1.3,3.513,3.513,0,0,0-.783,2.59,3.556,3.556,0,0,0,1.262,2.349,3.781,3.781,0,0,0,3.358.725.416.416,0,0,0-.226-.8" transform="translate(-714.106 -513.1)" fill="#161616"/>
        <path id="패스_2554" data-name="패스 2554" d="M767.118,562.674c-.5,1.7-.6,3.585-2.025,4.849a4.878,4.878,0,0,1-3.81,1.156,3.165,3.165,0,0,1-1.193-.379c-2.112-1.242-1.46-3.75-1.407-5.7" transform="translate(-738.828 -541.71)" fill="#ffd8c7"/>
        <path id="패스_2555" data-name="패스 2555" d="M765.658,561.517a28.788,28.788,0,0,1-.882,3.2,4.083,4.083,0,0,1-2.224,2.208,3.876,3.876,0,0,1-3.385-.078,2.431,2.431,0,0,1-.892-.966,1.42,1.42,0,0,1-.1-.229,3.536,3.536,0,0,1-.109-.344c-.025-.1-.047-.194-.065-.292a2.438,2.438,0,0,1-.042-.3,24.454,24.454,0,0,1,.1-3.156c.016-.534-.835-.534-.85,0-.057,1.934-.615,4.353,1.179,5.751a4.43,4.43,0,0,0,3.912.574,4.948,4.948,0,0,0,3-2.317,17.95,17.95,0,0,0,1.18-3.829c.149-.514-.671-.734-.82-.22" transform="translate(-737.778 -540.663)" fill="#161616"/>
        <path id="패스_2556" data-name="패스 2556" d="M807.287,542.077a3.278,3.278,0,0,0,1.215.4,3.216,3.216,0,0,0,3.614-2.729,3.169,3.169,0,0,0-2.8-3.526,3.283,3.283,0,0,0-1.862.311" transform="translate(-773.757 -522.605)" fill="#ffd8c7"/>
        <path id="패스_2557" data-name="패스 2557" d="M806.005,541.372a3.776,3.776,0,0,0,3.013.294,3.674,3.674,0,0,0,2.05-1.695,3.529,3.529,0,0,0,.281-2.7,3.628,3.628,0,0,0-1.657-2.063,3.8,3.8,0,0,0-3.516-.1.414.414,0,0,0-.153.568.44.44,0,0,0,.582.149,2.928,2.928,0,0,1,2.45-.014,2.8,2.8,0,0,1,1.4,1.46,2.679,2.679,0,0,1-.023,2.081,2.833,2.833,0,0,1-.581.845,2.743,2.743,0,0,1-.856.586,2.882,2.882,0,0,1-2.559-.132c-.476-.265-.9.452-.429.716" transform="translate(-772.69 -521.542)" fill="#161616"/>
        <path id="패스_2558" data-name="패스 2558" d="M757.363,515.822a29.956,29.956,0,0,1-5.044-2.936c-1.647-1.108-3.392-2.339-4.073-4.233a40.264,40.264,0,0,1-12.11,4.3,10.837,10.837,0,0,0-.266,1.344,11.077,11.077,0,0,0,9.776,12.325,11.243,11.243,0,0,0,12.632-9.539,10.808,10.808,0,0,0,.086-1.078,2.04,2.04,0,0,1-1-.185" transform="translate(-722.512 -502.676)" fill="#ffd8c7"/>
        <path id="패스_2559" data-name="패스 2559" d="M756.527,514.381a26.409,26.409,0,0,1-4.342-2.465,19.155,19.155,0,0,1-3.377-2.588,5.49,5.49,0,0,1-1.2-1.868.435.435,0,0,0-.624-.248,40,40,0,0,1-9.257,3.657q-1.364.35-2.752.6a.413.413,0,0,0-.3.29,11.287,11.287,0,0,0,.726,7.679,11.594,11.594,0,0,0,4.927,5.166,12.1,12.1,0,0,0,7.513,1.3,11.843,11.843,0,0,0,6.483-3.224,11.326,11.326,0,0,0,3.3-6.473,12.133,12.133,0,0,0,.114-1.286.422.422,0,0,0-.425-.415,1.847,1.847,0,0,1-.888-.17.429.429,0,0,0-.523.289.424.424,0,0,0,.3.51,2.416,2.416,0,0,0,1.114.2l-.425-.415a10.542,10.542,0,0,1-2.607,6.586,10.979,10.979,0,0,1-5.773,3.428,11.232,11.232,0,0,1-6.984-.669,10.834,10.834,0,0,1-4.982-4.473,10.326,10.326,0,0,1-1.194-3.173,9.611,9.611,0,0,1-.19-1.668,10.4,10.4,0,0,1,.094-1.792,11.037,11.037,0,0,1,.243-1.18l-.3.289a40.751,40.751,0,0,0,9.651-3.057q1.3-.6,2.56-1.287l-.624-.248a7.734,7.734,0,0,0,2.718,3.38c.589.452,1.2.867,1.82,1.281.72.484,1.443.964,2.186,1.413A20.163,20.163,0,0,0,756.1,515.1a.445.445,0,0,0,.581-.149.412.412,0,0,0-.153-.567" transform="translate(-721.461 -501.594)" fill="#161616"/>
        <path id="패스_2560" data-name="패스 2560" d="M789.083,539.909a2.313,2.313,0,0,0,2.042,2.574,2.348,2.348,0,0,0,2.638-1.992,2.313,2.313,0,0,0-2.041-2.574,2.348,2.348,0,0,0-2.638,1.992" transform="translate(-760.697 -523.835)" fill="#ffb9a1"/>
        <path id="패스_2561" data-name="패스 2561" d="M742.221,533.938a2.313,2.313,0,0,0,2.042,2.574,2.348,2.348,0,0,0,2.638-1.992,2.313,2.313,0,0,0-2.041-2.574,2.348,2.348,0,0,0-2.638,1.992" transform="translate(-727.115 -519.515)" fill="#ffb9a1"/>
        <path id="패스_2562" data-name="패스 2562" d="M785.777,532.411a.869.869,0,0,0,.767.967.881.881,0,0,0,.991-.748.869.869,0,0,0-.767-.967.882.882,0,0,0-.991.748" transform="translate(-758.337 -519.319)" fill="#161616"/>
        <path id="패스_2563" data-name="패스 2563" d="M758.751,528.659a.869.869,0,0,0,.767.967.881.881,0,0,0,.991-.748.869.869,0,0,0-.767-.967.882.882,0,0,0-.991.748" transform="translate(-738.969 -516.604)" fill="#161616"/>
        <path id="패스_2564" data-name="패스 2564" d="M773.068,530.816a.711.711,0,0,0-.442-.173.729.729,0,0,0-.383.1,1.06,1.06,0,0,0-.42.579,1.731,1.731,0,0,0,.012,1.181.449.449,0,0,0,.2.248.443.443,0,0,0,.328.042.418.418,0,0,0,.3-.51,1.439,1.439,0,0,1-.08-.305c.005.037.01.073.015.11a1.464,1.464,0,0,1,0-.382l-.015.11a1.422,1.422,0,0,1,.1-.347l-.043.1a.833.833,0,0,1,.091-.16l-.067.084a.5.5,0,0,1,.087-.086l-.086.065a.383.383,0,0,1,.067-.037l-.1.042a.427.427,0,0,1,.072-.019l-.113.015a.346.346,0,0,1,.074,0l-.113-.015a.391.391,0,0,1,.053.013l-.1-.041a.272.272,0,0,1,.048.025l-.086-.065.014.011a.464.464,0,0,0,.3.122.439.439,0,0,0,.3-.122.412.412,0,0,0,.124-.293.4.4,0,0,0-.124-.293" transform="translate(-748.273 -518.586)" fill="#161616"/>
        <path id="패스_2565" data-name="패스 2565" d="M764.906,544.375a2.74,2.74,0,0,1-.164-2.445c.3-.407,1.283-.2,1.714-.164a10.482,10.482,0,0,1,2.443.507,1.273,1.273,0,0,1,.638.378,1.017,1.017,0,0,1,0,1.027,2.79,2.79,0,0,1-2.308,1.948,2.438,2.438,0,0,1-2.326-1.25" transform="translate(-743.102 -526.572)" fill="#fff"/>
        <path id="패스_2566" data-name="패스 2566" d="M764.2,543.076q-.026-.049-.051-.1c-.011-.024-.023-.048-.033-.072,0,.008.021.049,0,0q-.058-.144-.1-.293t-.08-.3c-.022-.1-.043-.211-.05-.273-.011-.1-.018-.193-.02-.289,0-.055,0-.11,0-.165,0-.02.011-.143.005-.094a1.44,1.44,0,0,1,.067-.274c.015-.045,0-.007,0,0,.008-.019.018-.037.027-.055s.028-.046.04-.07c.03-.056-.018.046,0,0,0-.011.027-.027.035-.035-.012.01-.038.046-.018.016.006-.01.035-.02.045-.025-.071.036-.023.007,0,0,.037-.011.073-.022.11-.03l.059-.011c.069-.011-.1,0,.03,0a4.627,4.627,0,0,1,.568.016c.43.041.865.084,1.291.156a9.887,9.887,0,0,1,1.671.426.556.556,0,0,1,.375.286.811.811,0,0,1-.075.5,5.008,5.008,0,0,1-.295.559,3.478,3.478,0,0,1-.34.482,1.849,1.849,0,0,1-.925.621,2.066,2.066,0,0,1-2.33-.987.423.423,0,0,0-.734.419,2.919,2.919,0,0,0,2.853,1.444,3.16,3.16,0,0,0,2.42-1.945,1.513,1.513,0,0,0-.008-1.767,1.947,1.947,0,0,0-.854-.464q-.484-.16-.982-.271c-.6-.134-1.208-.192-1.818-.266a2.579,2.579,0,0,0-1.41.1,1.531,1.531,0,0,0-.649,1.505,3.962,3.962,0,0,0,.449,1.668.436.436,0,0,0,.581.149.416.416,0,0,0,.152-.567" transform="translate(-742.028 -525.482)" fill="#161616"/>
        <path id="패스_2567" data-name="패스 2567" d="M750.763,570.667a4.694,4.694,0,0,0,.142,3.745,4.8,4.8,0,0,0,2.424,2.3,8.488,8.488,0,0,0,3.979.428,7.671,7.671,0,0,0,3.683-1.105,4.326,4.326,0,0,0,2.018-3.18.424.424,0,0,0-.425-.415.429.429,0,0,0-.425.415,3.417,3.417,0,0,1-1.4,2.326,6.148,6.148,0,0,1-3.045,1.091,14.106,14.106,0,0,1-1.831.084,6.493,6.493,0,0,1-1.78-.242,4.044,4.044,0,0,1-2.262-1.749,3.9,3.9,0,0,1-.256-3.474.416.416,0,0,0-.3-.51.437.437,0,0,0-.523.29" transform="translate(-733.018 -547.323)" fill="#161616"/>
        <path id="패스_2568" data-name="패스 2568" d="M720.584,745.405l1.329.028a.424.424,0,0,0,.425-.415.428.428,0,0,0-.425-.415l-1.329-.028a.424.424,0,0,0-.425.415.428.428,0,0,0,.425.415" transform="translate(-711.318 -673.367)" fill="#161616"/>
        <path id="패스_2569" data-name="패스 2569" d="M717.325,751.391l1.331.21a.472.472,0,0,0,.328-.042.423.423,0,0,0,.2-.247.414.414,0,0,0-.3-.51l-1.332-.21a.473.473,0,0,0-.328.042.423.423,0,0,0-.2.248.414.414,0,0,0,.3.51" transform="translate(-709.064 -677.711)" fill="#161616"/>
        <path id="패스_2570" data-name="패스 2570" d="M809.421,766.815a2.088,2.088,0,0,1,.2-.115c.034-.017.069-.033.1-.049l-.023.009.053-.02a1.9,1.9,0,0,1,.415-.1c-.066.008-.075.01-.028,0l.057-.005c.038,0,.076,0,.114-.005.067,0,.134,0,.2,0l.057.005c.047,0,.038,0-.028,0,0,0,.1.018.112.019a2.012,2.012,0,0,1,.221.058.43.43,0,0,0,.523-.29.423.423,0,0,0-.3-.51,2.527,2.527,0,0,0-2.1.285.417.417,0,0,0-.153.568.437.437,0,0,0,.582.149" transform="translate(-774.827 -688.652)" fill="#161616"/>
        <path id="패스_2571" data-name="패스 2571" d="M808.678,772.2q.462-.1.93-.167l.072-.01.091-.011.221-.025q.24-.024.48-.04a.415.415,0,1,0,0-.83,13.768,13.768,0,0,0-2.02.282.417.417,0,0,0-.3.51.436.436,0,0,0,.523.29" transform="translate(-774.367 -692.566)" fill="#161616"/>
        <path id="패스_2572" data-name="패스 2572" d="M699.754,599.532c-.922-1.266-1.536-2.947-.805-4.416a5.916,5.916,0,0,1,1.755-2.485,2.326,2.326,0,0,1,1.331-.46,1.3,1.3,0,0,1,1.165.685.883.883,0,0,1-.447,1.171,1.271,1.271,0,0,1,.925.92,1.239,1.239,0,0,1-.425,1.22.829.829,0,0,1,1,.58.808.808,0,0,1-.658.931,1.418,1.418,0,0,1,.631,1.962c-1,1.841-3.421,1.327-4.466-.108" transform="translate(-695.887 -563.102)" fill="#ffd8c7"/>
        <path id="패스_2573" data-name="패스 2573" d="M699.047,598.262c-.834-1.154-1.453-2.681-.781-4.047a8.049,8.049,0,0,1,1.043-1.793,2.186,2.186,0,0,1,1.795-.884.8.8,0,0,1,.656.492.457.457,0,0,1-.027.341c.026-.065-.032.058-.032.058s-.079.1-.037.054a.641.641,0,0,1-.062.06c.064-.052-.113.054-.038.024a.435.435,0,0,0-.312.4.424.424,0,0,0,.312.4.817.817,0,0,1,.312,1.446c-.335.283.025.789.414.693.116-.029-.051-.009.068-.012.012,0,.115.01.08,0a.354.354,0,0,1,.143.057.348.348,0,0,1,.175.219c.017.073,0-.084.006.05,0,.06,0,.017,0,.051a.336.336,0,0,1-.076.179c.016-.024-.1.1-.079.084a.358.358,0,0,1-.2.078.42.42,0,0,0-.312.4.437.437,0,0,0,.312.4c-.044-.017.067.038.092.053.067.04.035.021.018.008a.759.759,0,0,1,.064.054.65.65,0,0,1,.18.229c.014.025.027.05.04.075.031.064-.018-.048.008.018a1.418,1.418,0,0,1,.052.164.78.78,0,0,1,.034.3c0,.018-.011.164,0,.106a1.241,1.241,0,0,1-.037.169c-.008.028-.017.055-.026.082,0,.007-.028.074-.006.021a1.524,1.524,0,0,1-.1.181,1.8,1.8,0,0,1-.427.5c-.021.018-.042.035-.064.052.015-.011.055-.039-.012.007-.044.03-.089.059-.135.086s-.093.051-.141.074l-.071.033c.055-.023,0,0-.026.009a2.431,2.431,0,0,1-.282.08q-.077.016-.154.027c.084-.012-.091.006-.122.007a2.621,2.621,0,0,1-.317-.005c-.022,0-.137-.015-.1-.01.052.007-.031-.005-.043-.007l-.1-.019a2.9,2.9,0,0,1-.314-.082c-.052-.016-.1-.035-.155-.054-.079-.029-.03-.011-.013,0-.038-.015-.076-.033-.113-.05a3.45,3.45,0,0,1-.327-.175c-.053-.032-.1-.066-.156-.1l-.068-.048c-.034-.025.026.021-.029-.023a3.275,3.275,0,0,1-.277-.248q-.073-.073-.14-.151l-.053-.063c.043.053-.028-.038-.034-.046a.443.443,0,0,0-.581-.149.413.413,0,0,0-.152.568,3.6,3.6,0,0,0,2.972,1.5,2.513,2.513,0,0,0,2.452-2.219,1.772,1.772,0,0,0-1.11-1.741v.8a1.223,1.223,0,0,0,.949-1.463,1.266,1.266,0,0,0-1.513-.847l.414.693a1.655,1.655,0,0,0,.535-1.623,1.7,1.7,0,0,0-1.222-1.21v.8a1.312,1.312,0,0,0,.421-2.168,2.18,2.18,0,0,0-2.7-.052,4.984,4.984,0,0,0-1.69,2.058,7.573,7.573,0,0,0-.552,1.225,3.622,3.622,0,0,0-.129,1.384,5.964,5.964,0,0,0,1.169,2.868.443.443,0,0,0,.581.149.413.413,0,0,0,.152-.568" transform="translate(-694.812 -562.041)" fill="#161616"/>
        <path id="패스_2574" data-name="패스 2574" d="M729.508,586.787q-.3,4.255-.259,8.523.011,1.2.049,2.407c.016.532.867.535.85,0q-.133-4.263.069-8.527.057-1.2.142-2.4a.425.425,0,0,0-.85,0" transform="translate(-717.829 -558.906)" fill="#161616"/>
      </g>
    </g>
    <path id="패스_2242" data-name="패스 2242" d="M1.115,0A4.77,4.77,0,0,0,.382,4.979" transform="translate(-2.646 48.104) rotate(-9)" fill="none" stroke="#000" stroke-linecap="round" stroke-width="1"/>
    <path id="패스_2244" data-name="패스 2244" d="M1.115,4.979A4.77,4.77,0,0,1,.382,0" transform="translate(56.29 43.695) rotate(-155)" fill="none" stroke="#000" stroke-linecap="round" stroke-width="1"/>
    <path id="패스_2241" data-name="패스 2241" d="M1.453,0A7.568,7.568,0,0,0,.5,7.265" transform="matrix(0.951, -0.309, 0.309, 0.951, -6.385, 48.028)" fill="none" stroke="#000" stroke-linecap="round" stroke-width="1"/>
    <path id="패스_2243" data-name="패스 2243" d="M1.453,7.265A7.568,7.568,0,0,1,.5,0" transform="translate(58.291 46.296) rotate(-146)" fill="none" stroke="#000" stroke-linecap="round" stroke-width="1"/>
    <g id="그룹_1305" data-name="그룹 1305" transform="translate(44.502 4.851)">
      <path id="패스_2532" data-name="패스 2532" d="M780.349,211.294h4.337a4.375,4.375,0,0,1,0,8.749H782.16l-2.716,2.407a.655.655,0,0,1-1.017-.789l.9-1.744a4.372,4.372,0,0,1,1.026-8.623" transform="translate(-775.56 -210.88)" fill="#efbdbb"/>
      <path id="패스_2533" data-name="패스 2533" d="M777.924,221.946a1.065,1.065,0,0,0,.708-.273l2.6-2.3H783.6a4.788,4.788,0,1,0,0-9.577h-4.337a4.786,4.786,0,0,0-1.621,9.291l-.668,1.3a1.074,1.074,0,0,0,.951,1.561m5.675-11.325a3.961,3.961,0,0,1,0,7.922h-2.526a.413.413,0,0,0-.274.1l-2.716,2.407a.241.241,0,0,1-.374-.291l.9-1.744a.414.414,0,0,0-.271-.591,3.959,3.959,0,0,1,.929-7.807Z" transform="translate(-774.474 -209.794)" fill="#161616"/>
    </g>
    <g id="그룹_1306" data-name="그룹 1306" transform="translate(-7.646 4.085)">
      <path id="패스_2534" data-name="패스 2534" d="M851.433,243.764h-8.216a6.118,6.118,0,1,0,0,12.236h5.217l2.215,3.577a.875.875,0,0,0,1.6-.62l-.551-2.97a6.114,6.114,0,0,0-.269-12.223" transform="translate(-836.611 -243.276)" fill="#a1bce2"/>
      <path id="패스_2535" data-name="패스 2535" d="M850.371,259.47a1.346,1.346,0,0,1-1.149-.648l-2.072-3.346h-4.945a6.606,6.606,0,1,1,0-13.212h8.216a6.6,6.6,0,0,1,.847,13.151l.452,2.441a1.347,1.347,0,0,1-.848,1.52,1.4,1.4,0,0,1-.5.094m-8.166-16.23a5.63,5.63,0,1,0,0,11.26h5.217a.488.488,0,0,1,.415.231l2.215,3.577a.387.387,0,0,0,.709-.274l-.551-2.97a.488.488,0,0,1,.458-.577,5.626,5.626,0,0,0-.248-11.247Z" transform="translate(-835.599 -242.264)" fill="#161616"/>
    </g>
  </g>
</svg>
