<svg xmlns="http://www.w3.org/2000/svg" xmlns:xlink="http://www.w3.org/1999/xlink" width="70.863" height="59" viewBox="0 0 70.863 59">
  <defs>
    <clipPath id="clip-path">
      <rect id="사각형_1076" data-name="사각형 1076" width="65.849" height="59" fill="#fff" stroke="#707070" stroke-width="1"/>
    </clipPath>
  </defs>
  <g id="img" transform="translate(9.001 -2.942)">
    <g id="마스크_그룹_116" data-name="마스크 그룹 116" transform="translate(-9.001 2.942)" clip-path="url(#clip-path)">
      <g id="그룹_1300" data-name="그룹 1300" transform="translate(-11.267 0.318)">
        <path id="패스_2395" data-name="패스 2395" d="M893.149,73.25c3.208.527,5.806,3.054,7.305,5.956s2.085,6.179,2.707,9.389,1.33,6.481,3.028,9.271c1.3,2.132,3.151,3.939,4.073,6.261s.469,5.531-1.814,6.518a4.463,4.463,0,0,0-.655.3,3.242,3.242,0,0,0-.956,1.346,8.357,8.357,0,0,1-8.284,4.342,2.639,2.639,0,0,0-1.457.04,3.112,3.112,0,0,0-.854.763c-1.531,1.6-4.018,1.75-6.213,1.5a24.227,24.227,0,0,1-12.636-5.3,22.332,22.332,0,0,1-7.4-11.537,33.953,33.953,0,0,1-.743-9.991,32.547,32.547,0,0,1,1-7.3,20.27,20.27,0,0,1,5.048-8.721" transform="translate(-844.002 -58.584)" fill="#896959"/>
        <path id="패스_2396" data-name="패스 2396" d="M892,72.716c3.658.617,6.274,3.741,7.623,7.036,1.63,3.983,1.9,8.343,3.076,12.456a19.442,19.442,0,0,0,2.6,5.735,34.181,34.181,0,0,1,3.351,5.007,5.857,5.857,0,0,1,.248,4.409,3.344,3.344,0,0,1-1.124,1.541c-.367.258-.789.364-1.173.584a2.619,2.619,0,0,0-.956,1.09,9.408,9.408,0,0,1-1.425,2.137,8.061,8.061,0,0,1-1.982,1.524,7.936,7.936,0,0,1-4.936.88,2.363,2.363,0,0,0-1.591.206,7.077,7.077,0,0,0-1.017.96,4.775,4.775,0,0,1-2.255,1.091,13.426,13.426,0,0,1-5.458-.244,23.536,23.536,0,0,1-10.657-5.161,21.969,21.969,0,0,1-6.4-9.377c-1.456-4.222-1.437-8.809-1.11-13.215a25.987,25.987,0,0,1,1.217-6.525,19.943,19.943,0,0,1,2.748-5.259,19.376,19.376,0,0,1,1.838-2.159c.434-.443-.244-1.127-.68-.683a21.084,21.084,0,0,0-5.665,11.134,45.276,45.276,0,0,0-.578,7.023,33.691,33.691,0,0,0,.529,7.048,22.608,22.608,0,0,0,5.434,10.75A23.961,23.961,0,0,0,883.87,117.3a23.307,23.307,0,0,0,6.025,1.2,7.528,7.528,0,0,0,5.3-1.376,10.878,10.878,0,0,1,1-.963c.4-.253.968-.086,1.406-.034a8.2,8.2,0,0,0,2.673-.136,8.988,8.988,0,0,0,4.671-2.641,10.153,10.153,0,0,0,1.514-2.254,2.688,2.688,0,0,1,.345-.541,1.42,1.42,0,0,1,.569-.365,4.321,4.321,0,0,0,1.158-.659,5.243,5.243,0,0,0,1.635-4.3,9.659,9.659,0,0,0-2.088-5.108c-.6-.844-1.246-1.654-1.84-2.5a16.8,16.8,0,0,1-1.579-2.762c-1.789-3.99-2.045-8.452-3.194-12.632-1.049-3.817-3.029-7.686-6.673-9.573a8.662,8.662,0,0,0-2.534-.862.5.5,0,0,0-.591.338.488.488,0,0,0,.336.594" transform="translate(-842.983 -57.584)" fill="#161616"/>
        <path id="패스_2397" data-name="패스 2397" d="M821.345,268.063q-3.884,8.16-7.05,16.64a.9.9,0,0,0-.064.671.881.881,0,0,0,.553.385q2.689.952,5.455,1.662a.776.776,0,0,0,.519.011.786.786,0,0,0,.316-.37l9.221-17.072" transform="translate(-806.615 -190.65)" fill="#ffd8c7"/>
        <path id="패스_2398" data-name="패스 2398" d="M819.924,266.81q-1.959,4.116-3.737,8.314c-1.183,2.8-2.345,5.615-3.374,8.474a1.2,1.2,0,0,0,.056,1.107,1.655,1.655,0,0,0,.891.549q1.088.383,2.188.726,1.082.337,2.174.637c.358.1.717.205,1.08.284a1.039,1.039,0,0,0,1.056-.272,5.141,5.141,0,0,0,.567-.968l.552-1.023,1.105-2.046,2.229-4.127,4.439-8.219.553-1.023c.3-.547-.534-1.035-.829-.488l-4.267,7.9-4.267,7.9-.534.988c-.078.143-.156.286-.236.427.015-.027-.05.037-.012.026.015,0-.057,0-.066,0-.348-.06-.7-.178-1.037-.271s-.7-.195-1.053-.3q-1.051-.305-2.09-.646-.52-.171-1.036-.35c-.158-.055-.325-.1-.479-.17l-.1-.053c-.033-.018-.044-.048-.035-.017-.03-.1.056-.262.088-.35.062-.171.127-.34.192-.511q.193-.511.387-1.02.389-1.019.79-2.034.8-2.03,1.644-4.042,1.677-4,3.524-7.931.232-.494.466-.986a.5.5,0,0,0-.172-.661.483.483,0,0,0-.657.173" transform="translate(-805.608 -189.64)" fill="#161616"/>
        <path id="패스_2399" data-name="패스 2399" d="M854.716,68.956c-.018-.182.176-.307.349-.362a2.157,2.157,0,0,1,2.38.877,2.442,2.442,0,0,1-.009,2.587,2.733,2.733,0,0,1-2.306,1.22" transform="translate(-834.167 -55.367)" fill="#ffd8c7"/>
        <path id="패스_2400" data-name="패스 2400" d="M854.178,67.951c0,.024-.052.1-.043.123,0-.012.085-.034.094-.036.054-.015.109-.029.165-.039a.556.556,0,0,1,.123-.013,1.516,1.516,0,0,1,.622.081,1.679,1.679,0,0,1,.938.748,1.979,1.979,0,0,1-.517,2.481,2.332,2.332,0,0,1-1.449.494.484.484,0,0,0,0,.966,3.133,3.133,0,0,0,3.1-2.408,2.894,2.894,0,0,0-.351-2.1,2.683,2.683,0,0,0-1.6-1.151c-.681-.169-2.026-.115-2.04.854a.48.48,0,0,0,.96,0" transform="translate(-833.15 -54.363)" fill="#161616"/>
        <path id="패스_2401" data-name="패스 2401" d="M805.5,320.517a2.2,2.2,0,0,0-.054-2.02,3.169,3.169,0,0,0-1.693-.908A3.921,3.921,0,0,1,802,316.78a6.325,6.325,0,0,1-.926-1.579,1.692,1.692,0,0,0-1.4-1.031,1.669,1.669,0,0,0-1.075.6c-.42.444-.75.972-1.2,1.383-1.069.974-2.886.6-4.185,1.1-.639.246-1.241.729-1.173,1.352.087.807,1.166,1.283,2.078,1.558a65.206,65.206,0,0,0,7.626,1.8c1.074.186,2.322.306,3.047-.322a2.853,2.853,0,0,0,.712-1.131" transform="translate(-791.551 -221.905)" fill="#fff"/>
        <path id="패스_2402" data-name="패스 2402" d="M804.946,319.635a3.128,3.128,0,0,0,.153-1.859,2.136,2.136,0,0,0-1.191-1.285,14.868,14.868,0,0,0-1.714-.578A2.035,2.035,0,0,1,801,315a11.506,11.506,0,0,0-.873-1.554,1.83,1.83,0,0,0-1.6-.756,2.546,2.546,0,0,0-1.568,1.049,5.262,5.262,0,0,1-1.2,1.263,3.815,3.815,0,0,1-1.332.382c-.549.071-1.1.1-1.649.2-1.059.194-2.484.925-2.208,2.232.234,1.109,1.61,1.566,2.547,1.846q2.046.611,4.13,1.087a41.031,41.031,0,0,0,4.1.784,5.015,5.015,0,0,0,1.744-.043,2.332,2.332,0,0,0,1.4-.959,3.986,3.986,0,0,0,.454-.9.481.481,0,1,0-.926-.257,1.916,1.916,0,0,1-.8,1.054,2.676,2.676,0,0,1-1.333.187,12.429,12.429,0,0,1-1.6-.227q-.973-.178-1.94-.386-1.917-.412-3.807-.938c-.573-.159-1.154-.311-1.715-.513a3.044,3.044,0,0,1-1.117-.633,1.172,1.172,0,0,1-.1-.111c.039.052-.024-.044-.033-.06a.485.485,0,0,1-.068-.171.5.5,0,0,1,.015-.2.7.7,0,0,1,.093-.18,2.011,2.011,0,0,1,1.129-.622c.914-.226,1.913-.158,2.848-.46a3.13,3.13,0,0,0,1.335-.835c.4-.421.712-.923,1.137-1.321a.776.776,0,0,1,1.083-.159,2.989,2.989,0,0,1,.773,1.168,3.492,3.492,0,0,0,.97,1.335,4.473,4.473,0,0,0,1.545.68,4.278,4.278,0,0,1,1.364.544,1.051,1.051,0,0,1,.417,1.094,3.144,3.144,0,0,1-.187.747.481.481,0,1,0,.926.257" transform="translate(-790.536 -220.895)" fill="#161616"/>
        <path id="패스_2403" data-name="패스 2403" d="M802.96,316.356a2.816,2.816,0,0,0-.49-1.608,1.924,1.924,0,0,0-1.191-.918,1.277,1.277,0,0,0-1.4.585,1.507,1.507,0,0,0,.009,1.348c.457,1,1.671,1.088,2.615,1.2l.842.1a3.236,3.236,0,0,1,.711.121.491.491,0,0,1,.295.218.43.43,0,0,1-.01.346.374.374,0,0,1-.342.177.864.864,0,0,1-.49-.155,2.528,2.528,0,0,1-.727-1.225.493.493,0,0,0-.591-.338.488.488,0,0,0-.336.594c.351.957.855,1.961,1.98,2.08a1.328,1.328,0,0,0,1.335-1.982,1.672,1.672,0,0,0-1.284-.737c-.561-.081-1.126-.132-1.689-.2a2.647,2.647,0,0,1-1.2-.334.476.476,0,0,1-.09-.071s-.107-.116-.058-.055a.912.912,0,0,1-.057-.085s-.074-.143-.042-.069a.925.925,0,0,1-.067-.246c.012.093,0-.068,0-.07q.007-.09,0-.016a.776.776,0,0,1,.022-.093c0-.014.036-.082.005-.016q.047-.07,0-.02a.721.721,0,0,1,.067-.07,1.142,1.142,0,0,1,.131-.047.626.626,0,0,1,.506.2,1.931,1.931,0,0,1,.579,1.39.48.48,0,1,0,.96,0" transform="translate(-796.786 -221.657)" fill="#161616"/>
        <path id="패스_2404" data-name="패스 2404" d="M898.177,286.107q-.647,9.024-2.074,17.968a.893.893,0,0,1-.275.615.876.876,0,0,1-.67.058q-2.8-.514-5.556-1.276a.782.782,0,0,1-.456-.25.792.792,0,0,1-.092-.479q.2-9.713.4-19.425" transform="translate(-857.511 -200.991)" fill="#ffd8c7"/>
        <path id="패스_2405" data-name="패스 2405" d="M896.664,285.125q-.317,4.412-.82,8.809t-1.194,8.755c-.024.149-.042.3-.076.449a.93.93,0,0,1-.049.163c.013-.022-.035.044-.029.042l0-.023a.891.891,0,0,1-.247-.02c-.193-.032-.384-.071-.576-.109q-1.055-.2-2.1-.442-1.066-.243-2.124-.522l-.491-.131a2.308,2.308,0,0,1-.429-.125c-.029-.016-.041-.041-.035-.028s0-.075,0-.089c0-.178.006-.358.01-.536q.093-4.475.185-8.95.092-4.456.184-8.91.011-.562.023-1.124a.48.48,0,0,0-.96,0q-.1,4.655-.193,9.311t-.192,9.311a7.2,7.2,0,0,0,0,1.118,1.007,1.007,0,0,0,.712.826c.335.123.694.2,1.039.287q.548.144,1.1.278,1.1.268,2.21.5.555.114,1.111.219a2.166,2.166,0,0,0,1.086.049c.76-.256.753-1.217.855-1.876q.178-1.142.342-2.286.33-2.293.611-4.592.56-4.589.916-9.2.045-.576.086-1.152a.486.486,0,0,0-.48-.483.491.491,0,0,0-.48.483" transform="translate(-856.479 -200.009)" fill="#161616"/>
        <path id="패스_2406" data-name="패스 2406" d="M886.959,344.517A2.187,2.187,0,0,1,888,342.79a3.152,3.152,0,0,1,1.917.055,3.916,3.916,0,0,0,1.922.172,6.264,6.264,0,0,0,1.582-.91,1.382,1.382,0,0,1,2.362.863c.147.595.173,1.218.363,1.8.449,1.379,2.211,1.961,3.092,3.042.434.533.719,1.252.353,1.759-.474.658-1.645.533-2.572.317a65.1,65.1,0,0,1-7.512-2.236c-1.025-.373-2.168-.891-2.488-1.8a2.878,2.878,0,0,1-.061-1.337" transform="translate(-856.055 -240.599)" fill="#fff"/>
        <path id="패스_2407" data-name="패스 2407" d="M886.411,343.632a2.342,2.342,0,0,1,.534-1.255.9.9,0,0,1,.507-.231,2.345,2.345,0,0,1,.777.029,17.516,17.516,0,0,0,1.863.37,2.835,2.835,0,0,0,1.741-.482,5.477,5.477,0,0,1,1.351-.8.751.751,0,0,1,.993.414,6.766,6.766,0,0,1,.354,1.634,3.278,3.278,0,0,0,.574,1.4,5.336,5.336,0,0,0,1.043,1c.179.138.363.269.546.4.154.111.381.275.486.358a3.409,3.409,0,0,1,.907.974,1.255,1.255,0,0,1,.181.589.455.455,0,0,1-.174.346c.021-.016-.067.041-.087.053s-.042.023-.063.033c.009,0,.056-.022,0,0a1.608,1.608,0,0,1-.317.084c.057-.01-.066.008-.084.009-.055,0-.11.007-.165.008-.124,0-.247,0-.371-.01a9.6,9.6,0,0,1-1.51-.3q-1.868-.456-3.707-1.02c-1.188-.365-2.38-.745-3.536-1.2a5.3,5.3,0,0,1-1.239-.656,1.431,1.431,0,0,1-.62-.952,2.7,2.7,0,0,1,.012-.795.5.5,0,0,0-.335-.594.484.484,0,0,0-.591.338,2.608,2.608,0,0,0,1.388,3.06,9.254,9.254,0,0,0,1.57.7q.993.36,2,.689,1.992.651,4.023,1.173c.628.161,1.26.337,1.9.445a4.05,4.05,0,0,0,1.676.009,1.523,1.523,0,0,0,1.153-1.093,2.183,2.183,0,0,0-.488-1.723,13.592,13.592,0,0,0-2.284-1.933,4.252,4.252,0,0,1-.5-.494,2.017,2.017,0,0,1-.147-.209c-.031-.05-.06-.1-.087-.153l-.034-.068c-.005-.01-.044-.106-.022-.048a15.412,15.412,0,0,1-.4-1.9,2,2,0,0,0-1.081-1.457,2.192,2.192,0,0,0-1.878.242,9.234,9.234,0,0,1-1.453.888,3.422,3.422,0,0,1-1.893-.16,3.576,3.576,0,0,0-2.006-.054,2.088,2.088,0,0,0-1.2,1.242,3.9,3.9,0,0,0-.246.847.5.5,0,0,0,.336.594.484.484,0,0,0,.591-.338" transform="translate(-855.044 -239.585)" fill="#161616"/>
        <path id="패스_2408" data-name="패스 2408" d="M908.958,349.32a1.927,1.927,0,0,1,.942-.837,1.042,1.042,0,0,1,.516-.111.526.526,0,0,1,.347.183.258.258,0,0,1,.013.22.621.621,0,0,1-.324.334,1.751,1.751,0,0,1-1.306-.171c-.482-.2-.956-.413-1.434-.618a1.979,1.979,0,0,0-1.706-.16,1.37,1.37,0,0,0-.724,1.166,1.353,1.353,0,0,0,.651,1.16,1.822,1.822,0,0,0,1.444.195,4.053,4.053,0,0,0,1.489-.916.482.482,0,0,0-.679-.683,3.1,3.1,0,0,1-1.129.684.772.772,0,0,1-.768-.234c.05.066-.034-.069-.033-.068.01.023.018.063-.006-.026-.034-.127-.012.048-.01-.083,0-.1,0-.054,0-.031a.4.4,0,0,1,.25-.327,1.079,1.079,0,0,1,.508.072c.259.088.508.209.759.318.955.413,2.144,1.117,3.18.559a1.542,1.542,0,0,0,.81-1.174,1.236,1.236,0,0,0-.706-1.2,1.853,1.853,0,0,0-1.686.111,2.786,2.786,0,0,0-1.227,1.153.5.5,0,0,0,.172.661.484.484,0,0,0,.657-.173" transform="translate(-868.545 -244.441)" fill="#161616"/>
        <path id="패스_2409" data-name="패스 2409" d="M999.586,134.061a1.489,1.489,0,0,1,.453-.965.885.885,0,0,1,1.221.294,2.686,2.686,0,0,1,.308,1.374q.827-.4,1.66-.786c.418-.192.926-.376,1.279-.123a.9.9,0,0,1,.207,1.036,3,3,0,0,1-.679.956,8.263,8.263,0,0,0,1.035-.144.909.909,0,0,1,.906.335c.259.444-.125,1.026-.483,1.441a.889.889,0,0,1,1.466.479,1.508,1.508,0,0,1-1.04,1.53c.41-.159.784.339.695.774a1.97,1.97,0,0,1-.805,1.043,6.485,6.485,0,0,1-3.24,1.56c-2.98.291-5.717-3.606-4.023-6.471a5.629,5.629,0,0,0,1.041-2.333" transform="translate(-931.595 -99.058)" fill="#ffd8c7"/>
        <path id="패스_2410" data-name="패스 2410" d="M999.036,133.175a3.5,3.5,0,0,1,.093-.4.844.844,0,0,1,.113-.239.245.245,0,0,1,.208-.12c-.091.012.123.016.071.008s.15.049.077.019a.5.5,0,0,1,.245.185c-.027-.034.054.1.054.1a.966.966,0,0,1,.07.177,3.465,3.465,0,0,1,.108.845.487.487,0,0,0,.723.417q.637-.309,1.278-.608a2.4,2.4,0,0,1,1.042-.357c-.034,0,.12.039.081.019-.021-.011.05.05.028.02s.041.066.046.079c-.012-.027.018.093.018.09a.532.532,0,0,1-.007.177,2.043,2.043,0,0,1-.6.9.489.489,0,0,0,.339.825,6.54,6.54,0,0,0,.977-.135,1.269,1.269,0,0,1,.335-.012c-.068-.008.092.023.088.022.074.022.011-.01.079.033s.028,0,.061.055c-.029-.052,0,.016,0,.032,0-.052,0,.1,0,.1.005-.04-.026.089-.031.1a2,2,0,0,1-.394.613.5.5,0,0,0,0,.683.484.484,0,0,0,.679,0c.092-.094.06-.065.174-.1-.1.026.061,0,.09,0,.057,0,.058,0,0,0,.029.006.058.013.086.021s.057.018.084.029c-.047-.019-.044-.015.006.009.026.014.051.03.076.047q-.056-.047.008.008c.022.02.043.041.062.063l.006.008a.88.88,0,0,1,.044.078c-.015-.04-.017-.044-.006-.011a.577.577,0,0,1,.021.238.824.824,0,0,1-.142.352,1.2,1.2,0,0,1-.556.455.5.5,0,0,0-.335.595.485.485,0,0,0,.59.337c.105-.034.035-.02.018-.013s-.082-.046.01,0c-.01-.005-.054-.03-.009,0,.063.041-.039-.042.015.015.037.038.009.009,0,0a1,1,0,0,1,.051.089c-.029-.068.018.136.011.059a.522.522,0,0,1-.092.273,1.549,1.549,0,0,1-.279.324,7.872,7.872,0,0,1-1.657,1.161,4.084,4.084,0,0,1-1.744.532,3.383,3.383,0,0,1-.361-.006c-.056,0-.111-.009-.167-.016.083.011-.083-.015-.109-.02a4.052,4.052,0,0,1-.675-.2,4.282,4.282,0,0,1-2.027-1.886q-.086-.154-.161-.314a2.407,2.407,0,0,1-.124-.3,4.546,4.546,0,0,1-.195-.726,3.718,3.718,0,0,1,.033-1.362,2.946,2.946,0,0,1,.279-.758c.156-.3.344-.577.517-.865a5.215,5.215,0,0,0,.664-1.748.5.5,0,0,0-.336-.594.485.485,0,0,0-.591.338,4.244,4.244,0,0,1-.621,1.607,6.145,6.145,0,0,0-.838,1.764,4.872,4.872,0,0,0,.593,3.539,5.2,5.2,0,0,0,2.7,2.3,4.685,4.685,0,0,0,4.012-.649,11.793,11.793,0,0,0,1.128-.8,2.882,2.882,0,0,0,.835-.9,1.305,1.305,0,0,0,0-1.3.987.987,0,0,0-1.136-.468l.255.932a1.913,1.913,0,0,0,1.3-2.356,1.373,1.373,0,0,0-2.193-.46l.679.683c.5-.589,1.057-1.5.423-2.21a1.368,1.368,0,0,0-.991-.4c-.416-.012-.814.152-1.229.151l.34.825a2.906,2.906,0,0,0,.859-1.386,1.289,1.289,0,0,0-.585-1.423,1.921,1.921,0,0,0-1.664.182c-.557.253-1.11.518-1.66.785l.723.417c-.041-.89-.2-1.907-1.167-2.227a1.249,1.249,0,0,0-1.225.253,1.968,1.968,0,0,0-.533,1.142.5.5,0,0,0,.336.594.484.484,0,0,0,.591-.338" transform="translate(-930.582 -98.044)" fill="#161616"/>
        <path id="패스_2411" data-name="패스 2411" d="M887.473,108.088a20.328,20.328,0,0,0-4.184-3.746,2.25,2.25,0,0,0-1.784-.64,2.519,2.519,0,0,0-1.168.933,5.472,5.472,0,0,1-.711.685c-2.51,2.014-7,3.5-10.109,2.049a18.519,18.519,0,0,1-1.823-1.111A10.316,10.316,0,0,0,865,105.1l0-.028c-.034,0-.069,0-.1,0a10.486,10.486,0,0,0-3.265-.326,21.69,21.69,0,0,1-2.269-.642,52.172,52.172,0,0,0-7.286-1.89,23.033,23.033,0,0,1-7.521-3.069c-2.319-1.345-3.39-4.3-4.01-6.758a38.242,38.242,0,0,1-1.095-7.139,2.045,2.045,0,0,0-.41-1.368,1.871,1.871,0,0,0-.737-.394,24.306,24.306,0,0,0-4.548-1.105c-3.931-.562-4.407,8.487-4.4,11.125a24.022,24.022,0,0,0,3.9,13.145c1.364,2.052,3.046,3.89,4.252,6.04.945,1.686,1.822,4,1.351,5.97-.178.741-2.017,7.268-1.99,7.278a83.555,83.555,0,0,0,21.9,5.407,1.96,1.96,0,0,0,1.222-.136,1.993,1.993,0,0,0,.71-1.053q1.789-4.562,3.2-9.263c4.543-.3,8.763-.184,13.056-1.946a26.511,26.511,0,0,0,10.106-7.368c1.077-1.271,1.4-2.2.4-3.493" transform="translate(-816.933 -64.758)" fill="#fff"/>
        <path id="패스_2412" data-name="패스 2412" d="M886.761,106.486a20.406,20.406,0,0,0-4.039-3.64c-.715-.537-1.582-1.167-2.522-.83-.836.3-1.3,1.164-1.965,1.7a11.787,11.787,0,0,1-4.061,2.05,7.119,7.119,0,0,1-7.073-1.052,11.062,11.062,0,0,0-3.022-1.344l.352.466,0-.028a.486.486,0,0,0-.48-.483,5.806,5.806,0,0,1-.943-.186c-.331-.054-.665-.1-1-.123s-.658-.036-.987-.031a3.339,3.339,0,0,1-.955-.121c-1.3-.336-2.557-.811-3.845-1.183s-2.568-.689-3.87-.96a30.178,30.178,0,0,1-3.66-.881,22.909,22.909,0,0,1-3.254-1.435,11.132,11.132,0,0,1-2.758-1.764c-1.4-1.388-2.108-1.281-2.61-3.15-.336-1.25-.6,2.655-.8,1.376-.207-1.31-.287-2.622-.409-3.94a2.074,2.074,0,0,0-.647-1.505,4.874,4.874,0,0,0-1.66-.689,22.79,22.79,0,0,0-3.847-.851c-2.828-.356-3.871,3.315-4.3,5.441a13.633,13.633,0,0,0-.09,3.713,13.252,13.252,0,0,0,1.568,5.079,22.61,22.61,0,0,0,1.712,3.22c.664,1.036,1.417,2.01,2.16,2.99a17.946,17.946,0,0,1,3.482,6.256,5.7,5.7,0,0,1,.078,2.806c-.111.433-.232.864-.351,1.3-.371,1.352-.749,2.7-1.122,4.054-.136.491-.272.981-.4,1.473-.028.1-.06.21-.082.317-.114.575.527.7.943.857a83.608,83.608,0,0,0,15.021,4.254q1.936.357,3.885.623.985.135,1.971.247a3.532,3.532,0,0,0,1.836-.06,2.13,2.13,0,0,0,1.037-1.262c.25-.609.479-1.228.71-1.845q.711-1.9,1.358-3.822.628-1.869,1.195-3.758l-.463.355c4.205-.278,8.506-.231,12.519-1.705a26.521,26.521,0,0,0,9.749-6.393q.573-.588,1.108-1.21a6.472,6.472,0,0,0,.981-1.377,2.63,2.63,0,0,0-.377-2.848.493.493,0,0,0-.657-.173.487.487,0,0,0-.172.661,2.3,2.3,0,0,1,.527,1.094,1.651,1.651,0,0,1-.252.972,11.087,11.087,0,0,1-1.77,2.129,26.075,26.075,0,0,1-4.221,3.535,24.969,24.969,0,0,1-4.865,2.563,22.971,22.971,0,0,1-5.795,1.344c-2.251.247-4.518.293-6.776.442a.5.5,0,0,0-.463.355q-1.005,3.346-2.2,6.629-.29.794-.591,1.583a11.321,11.321,0,0,1-.591,1.454c-.247.448-.614.487-1.091.449-.554-.045-1.108-.12-1.659-.189a82.817,82.817,0,0,1-13.128-2.744q-3.645-1.074-7.183-2.476l.336.338c.017.05-.023.294.009.211a1.016,1.016,0,0,0,.028-.111c.03-.115.061-.23.092-.345q.157-.579.317-1.157.435-1.572.871-3.143c.216-.779.437-1.557.639-2.34a7.619,7.619,0,0,0-.5-4.656c-1.393-3.528-4.251-6.139-6.063-9.423-1.78-3.227-2.145-3.836-2.568-6.768a12.237,12.237,0,0,1,0-2.555,15.748,15.748,0,0,1,.936-3.177,6.6,6.6,0,0,1,.634-1.208,2.839,2.839,0,0,1,.364-.444c.067-.068.137-.132.208-.195s.02-.018.037-.031q.068-.051.139-.1a1.639,1.639,0,0,1,.921-.287,5.281,5.281,0,0,1,.933.118q.752.13,1.495.307.716.171,1.42.384a5.513,5.513,0,0,1,1.335.479,1.087,1.087,0,0,1,.379.9c.039.5.065,1.009.111,1.513.188,2.051.533-1.084,1.044.911.383,1.493.883.918,1.676,2.244a8.05,8.05,0,0,0,1.44,1.811,10.366,10.366,0,0,0,2.064,1.362,24.434,24.434,0,0,0,5.057,2.187c.938.269,1.9.422,2.851.621q1.491.312,2.962.71t2.916.882c.5.168,1,.329,1.513.469.232.063.465.123.7.177a3.048,3.048,0,0,0,.781.05,10.09,10.09,0,0,1,1.469.081c.233.03.464.071.694.119a3.56,3.56,0,0,0,.766.141l-.48-.483,0,.028a.486.486,0,0,0,.353.466,10.019,10.019,0,0,1,2.577,1.111,14.1,14.1,0,0,0,2.311,1.318,8.549,8.549,0,0,0,4.642.23,13.24,13.24,0,0,0,4.392-1.733,8.2,8.2,0,0,0,1.846-1.475,2.826,2.826,0,0,1,.857-.8,1.25,1.25,0,0,1,1.135.26A23.788,23.788,0,0,1,883.936,105a14.043,14.043,0,0,1,2.146,2.173.481.481,0,0,0,.679,0,.5.5,0,0,0,0-.683" transform="translate(-815.882 -63.497)" fill="#161616"/>
        <path id="패스_2413" data-name="패스 2413" d="M856.438,187.069q.533.055,1.067.1c.269.024,2.615-20.509,2.81-22.548.384-4-.329-7.894-.081-11.855a33.111,33.111,0,0,1,.72-5.111c.531-2.4,1.326-4.73,1.842-7.131a.522.522,0,0,0-.53-.762l-1.129-.156a1.355,1.355,0,0,0-.579,0c-.474.146-.634.726-.73,1.216a36.532,36.532,0,0,1-1.8,6.218,9.489,9.489,0,0,1-.979,1.987c-.574.832-.83,1.02-1.785.879-.983-.145-1.963-.3-2.938-.486q-2.763-.532-5.465-1.333c-.838-.249-1.791-.588-1.649-1.626q.648-4.726,1.308-9.451c.066-.473.094-1.044-.286-1.329a1.338,1.338,0,0,0-.5-.195c-.707-.17-1.288-.646-1.637.1a10.578,10.578,0,0,0-.4,2.352c-.284,1.569-.6,3.133-1.019,4.673-.617,2.288-1.426,5.163-2.964,7.023a30.714,30.714,0,0,0-3.88,4.946c-1.249,2.418-1.746,5.547-2.6,8.14q-2.835,8.593-6.19,17c-.032.081,7.577,2.7,8.45,2.909l3.265.771a1.847,1.847,0,0,0,1.32-.02,1.878,1.878,0,0,0,.647-.791q.934-1.7,1.964-3.337c.085-.136.214-.291.369-.254.122.029.186.162.226.282a24.227,24.227,0,0,1,.573,5.079.883.883,0,0,0,.144.474.867.867,0,0,0,.5.242,97.347,97.347,0,0,0,11.934,1.989" transform="translate(-815.355 -100.571)" fill="#7fddac"/>
        <path id="패스_2414" data-name="패스 2414" d="M855.436,186.545l.679.068a1.042,1.042,0,0,0,.633-.03.556.556,0,0,0,.239-.318,2.056,2.056,0,0,0,.067-.268c.084-.419.144-.844.206-1.266.234-1.6.435-3.2.636-4.807q.385-3.085.747-6.173.345-2.927.679-5.857c.145-1.278.291-2.557.426-3.837a69.055,69.055,0,0,0-.072-9.233,32.79,32.79,0,0,1,.321-5.8,47.589,47.589,0,0,1,1.316-5.715c.258-.927.517-1.854.743-2.79a3.938,3.938,0,0,0,.236-1.457.953.953,0,0,0-.867-.767c-.456-.072-.916-.135-1.375-.189a1.33,1.33,0,0,0-1.158.363,2.131,2.131,0,0,0-.479.985c-.108.444-.184.9-.285,1.343a35.3,35.3,0,0,1-1.7,5.457,5.9,5.9,0,0,1-1.194,2.027.566.566,0,0,1-.185.135.761.761,0,0,1-.255.046,6.8,6.8,0,0,1-1.19-.143,57.961,57.961,0,0,1-5.73-1.176,18.352,18.352,0,0,1-2.5-.732,1.387,1.387,0,0,1-.592-.4,1.187,1.187,0,0,1-.049-.827q.412-3,.828-6,.2-1.474.41-2.947c.111-.8.131-1.751-.752-2.109-.325-.132-.681-.216-1.016-.327a1.322,1.322,0,0,0-1.019,0c-.685.345-.767,1.342-.839,2.012a36.8,36.8,0,0,1-1.053,5.376,32.688,32.688,0,0,1-1.446,4.542,11.907,11.907,0,0,1-1.128,2.1,20.148,20.148,0,0,1-1.564,1.861,17.28,17.28,0,0,0-2.991,4.168,30.624,30.624,0,0,0-1.609,4.973c-.963,3.658-2.274,7.226-3.56,10.779q-1.015,2.8-2.086,5.587-.526,1.368-1.066,2.73c-.133.335-.453.816-.133,1.134a.745.745,0,0,0,.257.149c.584.248,1.189.45,1.786.662q1.445.512,2.9,1.006c.887.3,1.775.6,2.667.892s1.777.492,2.682.705l1.435.339a3.724,3.724,0,0,0,1.317.159c.978-.125,1.346-1.077,1.777-1.839q.722-1.275,1.5-2.517c.009-.014.139-.189.136-.2s-.342-.015-.34-.019.033.1.04.123c.064.2.117.413.161.623a10.373,10.373,0,0,1,.176,1.28c.071.862.08,1.727.149,2.589a1.659,1.659,0,0,0,.418,1.248,2.9,2.9,0,0,0,1.246.417q2.856.641,5.747,1.109,2.829.458,5.681.753a.485.485,0,0,0,.48-.483.492.492,0,0,0-.48-.483,96.548,96.548,0,0,1-10.341-1.644q-.636-.137-1.27-.282a1.245,1.245,0,0,1-.42-.108c-.086-.069-.075-.247-.086-.355-.07-.767-.083-1.538-.131-2.307a12,12,0,0,0-.332-2.367,1.309,1.309,0,0,0-.558-.938.8.8,0,0,0-1.006.4c-.491.716-.917,1.489-1.351,2.241q-.322.559-.633,1.125c-.14.253-.288.581-.59.662a2.215,2.215,0,0,1-1.032-.12l-1.286-.3c-.633-.15-1.275-.279-1.9-.452-1.422-.393-2.818-.912-4.213-1.391q-1.258-.432-2.511-.877c-.31-.11-.62-.222-.928-.336-.115-.043-.231-.086-.345-.13l-.117-.046c-.077-.03-.128-.063,0,0-.173-.089.024.032.077.124q.033.122.065.244c0,.13.1-.164.1-.154l.112-.282c.062-.157.124-.313.186-.47q.223-.564.443-1.129.4-1.036.8-2.075.792-2.077,1.553-4.167,1.54-4.226,2.951-8.5c.81-2.456,1.211-5.064,2.26-7.438a13.228,13.228,0,0,1,2.116-3.22c.82-.962,1.734-1.864,2.463-2.9a20.951,20.951,0,0,0,2.665-6.744c.381-1.428.682-2.878.949-4.332.107-.583.135-1.172.222-1.758a2.831,2.831,0,0,1,.173-.716c.022-.051.052-.092.077-.14.013-.024.073-.062.036-.034s.006,0,.027,0c-.051.01.039.009.062.014a6.1,6.1,0,0,1,.688.225c.186.059.48.063.6.234a1.068,1.068,0,0,1,.065.665c-.031.336-.09.67-.136,1q-.319,2.286-.634,4.573-.155,1.118-.308,2.236l-.154,1.118a5.4,5.4,0,0,0-.112,1.022c.07,1.226,1.32,1.607,2.3,1.892q2.123.617,4.289,1.07,1.1.229,2.207.413a19.921,19.921,0,0,0,2.1.307,1.664,1.664,0,0,0,1.242-.406,4.952,4.952,0,0,0,.988-1.382,22.826,22.826,0,0,0,1.543-4.068q.313-1.034.565-2.085c.154-.643.241-1.313.431-1.945.048-.161.12-.4.29-.466a1.808,1.808,0,0,1,.8.059l.565.078c.091.013.3.007.368.072-.081-.079-.067.036-.08.108-.039.212-.093.422-.142.631-.675,2.876-1.642,5.671-2.094,8.6a32.482,32.482,0,0,0-.393,4.448c-.022,1.47.057,2.939.132,4.406a42.039,42.039,0,0,1-.041,6.544c-.233,2.221-.493,4.439-.749,6.657q-.541,4.674-1.119,9.344-.127,1.008-.257,2.017c-.02.154-.04.307-.06.461q-.013.1-.027.2c-.005.04-.01.08-.016.12-.018.139,0-.014-.009.068q-.054.4-.11.806c-.1.707-.18,1.424-.332,2.122a.814.814,0,0,0-.047.18c0,.057.067-.14.037-.089.021-.035.316-.356.4-.225a2.282,2.282,0,0,0-.485-.046l-.582-.058a.485.485,0,0,0-.48.483.493.493,0,0,0,.48.483" transform="translate(-814.353 -99.564)" fill="#161616"/>
        <path id="패스_2415" data-name="패스 2415" d="M904.823,141.707,903.2,145.2a4.321,4.321,0,0,1-1.168,1.716,3.392,3.392,0,0,1-2.282.513,8.084,8.084,0,0,1-3.576-1.107,2.343,2.343,0,0,1-1.2-1.34,2.725,2.725,0,0,1,.052-1.127q.346-1.852.693-3.7" transform="translate(-861.508 -103.937)" fill="#ffd8c7"/>
        <path id="패스_2416" data-name="패스 2416" d="M903.4,140.451q-.831,1.79-1.663,3.58a4.648,4.648,0,0,1-.771,1.28,2.137,2.137,0,0,1-1.311.61,6.746,6.746,0,0,1-3.209-.514,6.122,6.122,0,0,1-1.4-.753,1.329,1.329,0,0,1-.639-1.133,6.347,6.347,0,0,1,.148-.944l.207-1.1.413-2.207a.5.5,0,0,0-.335-.594.485.485,0,0,0-.591.337l-.4,2.128c-.132.7-.294,1.408-.381,2.118a2.157,2.157,0,0,0,.572,1.788,4.932,4.932,0,0,0,1.514,1.018,8.252,8.252,0,0,0,3.743.848,3.688,3.688,0,0,0,1.758-.448,3.376,3.376,0,0,0,1.2-1.314c.356-.641.639-1.327.948-1.992l1.031-2.219a.5.5,0,0,0-.172-.661.483.483,0,0,0-.657.173" transform="translate(-860.499 -102.924)" fill="#161616"/>
        <path id="패스_2417" data-name="패스 2417" d="M946.75,125.893a3.531,3.531,0,0,0,5.636-1.749,3.563,3.563,0,0,0-2.395-4.42,3.5,3.5,0,0,0-2.068.021" transform="translate(-896.736 -89.991)" fill="#ffd8c7"/>
        <path id="패스_2418" data-name="패스 2418" d="M945.394,125.232a4.093,4.093,0,0,0,3.216.893,3.97,3.97,0,0,0,2.494-1.456,4.035,4.035,0,0,0-4.325-6.393c-.589.182-.338,1.115.255.932a3.039,3.039,0,0,1,3.525,1.283,2.975,2.975,0,0,1,.423,1.076,3.128,3.128,0,0,1-.444,2.249,3.069,3.069,0,0,1-1.789,1.3,3.033,3.033,0,0,1-1.259.063,3.12,3.12,0,0,1-1.417-.627.482.482,0,1,0-.679.683" transform="translate(-895.719 -88.988)" fill="#161616"/>
        <path id="패스_2419" data-name="패스 2419" d="M875.117,105.611a3.507,3.507,0,0,1-1.4-.123,3.558,3.558,0,0,1,2-6.829,3.523,3.523,0,0,1,1.727,1.145" transform="translate(-845.36 -75.71)" fill="#ffd8c7"/>
        <path id="패스_2420" data-name="패스 2420" d="M874.1,104.111a3.08,3.08,0,1,1,1.987-4.981.482.482,0,0,0,.679,0,.5.5,0,0,0,0-.683,4,4,0,0,0-5.772-.377,4.057,4.057,0,0,0-.334,5.629,4.011,4.011,0,0,0,3.44,1.379.5.5,0,0,0,.48-.483.485.485,0,0,0-.48-.483" transform="translate(-844.339 -74.693)" fill="#161616"/>
        <path id="패스_2421" data-name="패스 2421" d="M881.22,84.674a12.375,12.375,0,1,0,15.359-8.42,12.455,12.455,0,0,0-15.359,8.42" transform="translate(-851.842 -60.274)" fill="#ffd8c7"/>
        <path id="패스_2422" data-name="패스 2422" d="M879.749,83.528A12.969,12.969,0,0,0,884.476,97.6a12.771,12.771,0,0,0,14.783.294,12.932,12.932,0,0,0-6.116-23.6,12.838,12.838,0,0,0-12.677,7.344,13.666,13.666,0,0,0-.718,1.894.481.481,0,0,0,.926.257,11.889,11.889,0,1,1,13.006,15.245l-.033,0-.107.014-.241.027q-.229.023-.459.037-.476.029-.953.022t-.934-.051c-.326-.03-.543-.059-.865-.116a11.967,11.967,0,0,1-9.727-9.726,11.557,11.557,0,0,1-.175-1.791,11.682,11.682,0,0,1,.487-3.665.481.481,0,0,0-.926-.257" transform="translate(-850.833 -59.257)" fill="#161616"/>
        <path id="패스_2423" data-name="패스 2423" d="M930.333,123.123a2.584,2.584,0,1,0,3.207-1.758,2.6,2.6,0,0,0-3.207,1.758" transform="translate(-885.503 -91.129)" fill="#ffb9a1"/>
        <path id="패스_2424" data-name="패스 2424" d="M886.413,110.187a2.584,2.584,0,1,0,3.207-1.758,2.6,2.6,0,0,0-3.207,1.758" transform="translate(-855.645 -82.36)" fill="#ffb9a1"/>
        <path id="패스_2425" data-name="패스 2425" d="M916.976,111.112a.774.774,0,0,0-.916-.134,1.166,1.166,0,0,0-.492.538,2.134,2.134,0,0,0-.187,1.41.482.482,0,0,0,.59.337.5.5,0,0,0,.336-.595c-.008-.038-.014-.076-.019-.115.005.043.012.085.017.128a1.684,1.684,0,0,1,0-.421c-.005.043-.011.086-.017.129a1.674,1.674,0,0,1,.112-.406l-.048.115a1.431,1.431,0,0,1,.17-.3l-.075.1a.706.706,0,0,1,.1-.108l-.1.076a.52.52,0,0,1,.091-.056l-.115.049a.412.412,0,0,1,.093-.026l-.128.017a.445.445,0,0,1,.078,0l-.128-.017a.321.321,0,0,1,.074.019l-.115-.049a.338.338,0,0,1,.049.027l-.1-.076a.347.347,0,0,1,.041.039.481.481,0,0,0,.679,0,.5.5,0,0,0,0-.683" transform="translate(-875.379 -84.099)" fill="#161616"/>
        <path id="패스_2426" data-name="패스 2426" d="M903.947,106.812q.129.086.251.181l-.1-.076a4.083,4.083,0,0,1,.55.514q.106-.4.212-.807l-1.012.392a.521.521,0,0,0-.287.222.5.5,0,0,0-.049.372.49.49,0,0,0,.221.289.467.467,0,0,0,.37.048l1.013-.392a.483.483,0,0,0,.335-.338.5.5,0,0,0-.124-.47,4.662,4.662,0,0,0-.9-.77.482.482,0,0,0-.706.546.534.534,0,0,0,.221.289" transform="translate(-867.332 -80.726)" fill="#161616"/>
        <path id="패스_2427" data-name="패스 2427" d="M929.229,114.8a4.7,4.7,0,0,0-1.181.122.488.488,0,0,0-.287.71l.605.906a.509.509,0,0,0,.286.222.483.483,0,0,0,.543-.71l-.6-.906-.287.71q.182-.043.367-.068l-.128.017a4.32,4.32,0,0,1,.686-.037.483.483,0,0,0,0-.966" transform="translate(-883.781 -86.752)" fill="#161616"/>
        <path id="패스_2428" data-name="패스 2428" d="M909.945,124.687c-2.612.6-2.2-3.113-2.033-4.529a1.336,1.336,0,0,1,.112-.459c1.25.478,2.6.783,3.877,1.228a.719.719,0,0,1,.48.344.711.711,0,0,1-.032.459,6.356,6.356,0,0,1-.81,1.828,2.661,2.661,0,0,1-1.594,1.129" transform="translate(-870.244 -90.072)" fill="#fff"/>
        <path id="패스_2429" data-name="패스 2429" d="M908.8,123.2c-.06.014-.119.024-.18.035-.095.018-.02,0,0,0l-.082.008a2.275,2.275,0,0,1-.325,0c-.069,0,.089.018.023,0l-.067-.014c-.043-.01-.085-.022-.128-.035s-.1-.049-.019,0c-.045-.025-.092-.046-.136-.074s-.125-.1-.027-.014c-.031-.027-.062-.053-.092-.081s-.049-.052-.074-.079-.026-.032-.04-.048c-.037-.042.052.085.009.01s-.092-.145-.131-.222c-.02-.04-.038-.08-.057-.121.049.107-.006-.02-.019-.06a3.589,3.589,0,0,1-.145-.579c-.009-.049-.016-.1-.023-.149.016.112,0-.024-.006-.062q-.016-.155-.024-.31a9.932,9.932,0,0,1,.018-1.263c.014-.2.033-.405.055-.607a2.141,2.141,0,0,1,.091-.608l-.542.222c.727.276,1.473.493,2.219.711.363.106.726.213,1.087.327q.252.079.5.165l.167.061c.022.011.143.052.074.036-.015-.088-.021-.088-.017,0a.087.087,0,0,0-.022.071c-.021.091-.055.182-.083.271-.051.16-.105.319-.164.476a4.711,4.711,0,0,1-.453.912A2.253,2.253,0,0,1,908.8,123.2a.483.483,0,0,0,.255.932,3.844,3.844,0,0,0,2.549-2.714,3.4,3.4,0,0,0,.266-.974.939.939,0,0,0-.533-.871,6.184,6.184,0,0,0-.969-.346c-.325-.1-.652-.2-.978-.294-.758-.222-1.516-.442-2.255-.721a.479.479,0,0,0-.542.222,4.721,4.721,0,0,0-.265,1.543,10.6,10.6,0,0,0-.033,1.365,3.175,3.175,0,0,0,1.056,2.573,2.154,2.154,0,0,0,1.706.217.483.483,0,0,0-.255-.932" transform="translate(-869.224 -89.048)" fill="#161616"/>
        <path id="패스_2430" data-name="패스 2430" d="M906.565,77.693c-.411-5.9-6.275-10.28-11.436-11.945a15.228,15.228,0,0,0-8.1-.135,13.151,13.151,0,0,0-6.959,3.539c-1.678,1.832-4.07,5.55-1.948,7.843,2.269,2.452,7.463-2.33,8.9-4.124.1.822-.609,1.7-.194,2.419a1.772,1.772,0,0,0,1.047.66l5.945,1.978a7.811,7.811,0,0,0,2.738.558,2.662,2.662,0,0,0,2.324-1.332,11.446,11.446,0,0,0,1.513,4.613c.586.9,1.953,2.4,3.162,2.3s1.9-2.022,2.363-2.948a6.639,6.639,0,0,0,.643-3.426" transform="translate(-849.511 -53.08)" fill="#896959"/>
        <path id="패스_2431" data-name="패스 2431" d="M906.023,76.679c-.279-3.842-2.718-7.016-5.693-9.256a21,21,0,0,0-4.815-2.691,14.044,14.044,0,0,0-6.694-1.047,19.775,19.775,0,0,0-6.608,1.647,12,12,0,0,0-5.914,6.139,5.772,5.772,0,0,0-.507,2.588,3.592,3.592,0,0,0,1.1,2.4,2.68,2.68,0,0,0,1.766.694,4.741,4.741,0,0,0,1.924-.422,11.082,11.082,0,0,0,2.04-1.141,19.6,19.6,0,0,0,3.24-2.831c.166-.181.327-.365.481-.556l-.82-.341a4.2,4.2,0,0,1-.249,1.322,1.749,1.749,0,0,0,.183,1.437,2.434,2.434,0,0,0,1.308.8l1.769.588,3.5,1.164a10.019,10.019,0,0,0,3.505.788,3.16,3.16,0,0,0,2.739-1.571l-.878-.116a13.509,13.509,0,0,0,1.085,3.879,7.447,7.447,0,0,0,2.154,2.673,2.361,2.361,0,0,0,2.854.363,5.853,5.853,0,0,0,1.6-2.375,10.34,10.34,0,0,0,.719-1.794,7.54,7.54,0,0,0,.207-2.335.493.493,0,0,0-.48-.483.486.486,0,0,0-.48.483,6.169,6.169,0,0,1-.66,3.353c-.177.37-.342.746-.532,1.11-.1.194-.208.385-.326.568a2.466,2.466,0,0,1-.335.441,2.615,2.615,0,0,1-.213.2c-.067.058.031-.017-.042.031-.047.032-.095.063-.145.09-.028.015-.114.056-.036.024a1.115,1.115,0,0,1-.118.041c-.016,0-.151.035-.1.027s-.087.005-.116.006a1.48,1.48,0,0,1-.169-.008h.007c-.024,0-.049-.009-.073-.014a2.253,2.253,0,0,1-.341-.106c-.051-.021-.017-.008-.007,0l-.073-.035q-.073-.036-.144-.076a3.794,3.794,0,0,1-.333-.21,6.14,6.14,0,0,1-1.853-2.184,12.193,12.193,0,0,1-1.13-3.927.484.484,0,0,0-.878-.116,2.161,2.161,0,0,1-1.795,1.086,8.077,8.077,0,0,1-3.1-.659l-3.236-1.076-1.58-.526a6.168,6.168,0,0,1-1.306-.488.516.516,0,0,1-.266-.367,1.352,1.352,0,0,1,.056-.516,4.406,4.406,0,0,0,.263-1.493.491.491,0,0,0-.3-.442.472.472,0,0,0-.525.1,17.3,17.3,0,0,1-2.627,2.562,15.079,15.079,0,0,1-1.737,1.214,9.45,9.45,0,0,1-.926.484l-.12.053c.1-.041-.035.013-.045.017-.079.032-.158.062-.238.09-.154.055-.311.1-.469.144-.139.035-.278.062-.419.085.129-.021-.068.006-.1.009-.085.007-.17.011-.255.011-.06,0-.119,0-.178-.005-.035,0-.07-.007-.105-.009-.118-.006.105.024-.01,0a4.039,4.039,0,0,1-.4-.1c-.025-.008-.128-.058-.012,0-.021-.01-.042-.018-.062-.029-.061-.032-.122-.063-.181-.1-.031-.019-.2-.146-.1-.067-.056-.046-.111-.094-.164-.145a2.269,2.269,0,0,1-.311-.37,3.032,3.032,0,0,1-.163-.271,2.214,2.214,0,0,1-.1-.212,3.436,3.436,0,0,1-.035-2.219,8.419,8.419,0,0,1,1.068-2.318,12.366,12.366,0,0,1,1.412-1.85,9.351,9.351,0,0,1,2.274-1.785A17.139,17.139,0,0,1,887.5,64.8a14.079,14.079,0,0,1,6.75.486,20.021,20.021,0,0,1,4.555,2.237c2.824,1.854,5.354,4.557,6.082,7.941a8.132,8.132,0,0,1,.173,1.21.493.493,0,0,0,.48.483.486.486,0,0,0,.48-.483" transform="translate(-848.49 -52.067)" fill="#161616"/>
        <path id="패스_2432" data-name="패스 2432" d="M993.024,161.088a18.572,18.572,0,0,0-1.864-2.213,17.628,17.628,0,0,0-2.273-1.783.484.484,0,0,0-.657.173.5.5,0,0,0,.172.661,15.488,15.488,0,0,1,2.079,1.632,17.007,17.007,0,0,1,1.714,2.018.494.494,0,0,0,.657.173.488.488,0,0,0,.172-.661" transform="translate(-924.891 -115.375)" fill="#161616"/>
        <path id="패스_2433" data-name="패스 2433" d="M875.334,188.971a14.922,14.922,0,0,1,.806-2.9l-.463.355a29.075,29.075,0,0,1,6.974,1.1c1.152.28,2.3.57,3.463.81.245.051.493.089.734.153.054.014.107.03.16.047-.012,0,.151.062.088.033a.975.975,0,0,1,.139.078c.02.014.068.064.049.034,0,0,.063.134.043.068a.343.343,0,0,1,.014.157,3.1,3.1,0,0,1-.058.37c-.056.3-.12.6-.2.9a6.141,6.141,0,0,1-1.455,2.862,3.736,3.736,0,0,1-1.129.8,3.121,3.121,0,0,1-.626.2c-.1.02-.2.035-.3.051l-.139.02-.013,0-.1.012a13.979,13.979,0,0,1-2.561.086,9.414,9.414,0,0,1-1.248-.148,8.535,8.535,0,0,1-1.268-.334,5.47,5.47,0,0,1-1.209-.592,4.139,4.139,0,0,1-.98-.878,4.232,4.232,0,0,1-.42-.657,3.533,3.533,0,0,1-.3-.871,4.771,4.771,0,0,1,0-1.754.5.5,0,0,0-.336-.594.484.484,0,0,0-.591.338,5.19,5.19,0,0,0,.61,3.725,5.278,5.278,0,0,0,2.108,1.849,10.746,10.746,0,0,0,5.642.855,11.91,11.91,0,0,0,1.364-.178,3.987,3.987,0,0,0,1.529-.691,6.08,6.08,0,0,0,2.075-2.929,11.621,11.621,0,0,0,.473-1.814,2.113,2.113,0,0,0,.035-1.066,1.272,1.272,0,0,0-.569-.683,5.4,5.4,0,0,0-1.643-.452c-.61-.131-1.218-.275-1.824-.422a42.309,42.309,0,0,0-7.611-1.428q-.46-.025-.92-.022a.5.5,0,0,0-.463.355,14.977,14.977,0,0,0-.806,2.9.5.5,0,0,0,.335.594.484.484,0,0,0,.591-.338" transform="translate(-847.489 -134.652)" fill="#161616"/>
        <g id="그룹_1299" data-name="그룹 1299" transform="translate(14.883)">
          <path id="패스_2434" data-name="패스 2434" d="M857.019,9.854l-1.508-6.768a1.983,1.983,0,0,0-3.795-.275L849.26,9.292a.687.687,0,0,0-.535.623l-.266,3.706,8.734.633.265-3.706a.689.689,0,0,0-.441-.694" transform="translate(-844.404 -1.103)" fill="#7fa1db"/>
          <path id="패스_2435" data-name="패스 2435" d="M847.071,12.828l-.009-.011a.424.424,0,0,1-.1-.306l.265-3.706a1.119,1.119,0,0,1,.63-.924l2.388-6.3a2.4,2.4,0,0,1,4.595.333L856.3,8.494A1.12,1.12,0,0,1,856.8,9.5L856.53,13.2a.42.42,0,0,1-.144.288.415.415,0,0,1-.3.1l-8.734-.633a.417.417,0,0,1-.277-.134M853.646,1.36A1.579,1.579,0,0,0,852.6.871a1.523,1.523,0,0,0-1.578,1.011l-2.456,6.481a.417.417,0,0,1-.3.261.269.269,0,0,0-.208.242l-.235,3.286,7.9.573.235-3.286a.268.268,0,0,0-.171-.269.423.423,0,0,1-.26-.3L854.021,2.1a1.577,1.577,0,0,0-.375-.74" transform="translate(-843.322 -0.024)" fill="#161616"/>
          <path id="패스_2450" data-name="패스 2450" d="M0,0H1.713l0,8.757H0Z" transform="translate(0.831 57.55) rotate(-85.879)" fill="#7fa1db"/>
          <path id="패스_2436" data-name="패스 2436" d="M835.518,199.8a.422.422,0,0,1-.11-.316l.122-1.709a.423.423,0,0,1,.144-.288.418.418,0,0,1,.3-.1l8.734.633a.42.42,0,0,1,.387.45l-.122,1.708a.424.424,0,0,1-.144.288.417.417,0,0,1-.3.1l-8.734-.633a.418.418,0,0,1-.277-.134m.817-1.545-.062.869,7.9.573.062-.869Z" transform="translate(-834.994 -141.961)" fill="#161616"/>
          <path id="패스_2451" data-name="패스 2451" d="M0,0H3.181l0,8.757H0Z" transform="translate(0.604 60.723) rotate(-85.879)" fill="#f4f0ed"/>
          <path id="패스_2437" data-name="패스 2437" d="M834.7,207.346l-.01-.011a.424.424,0,0,1-.1-.306l.227-3.173a.42.42,0,0,1,.448-.39L844,204.1a.4.4,0,0,1,.286.145.423.423,0,0,1,.1.306l-.227,3.173a.42.42,0,0,1-.448.389l-8.734-.633a.418.418,0,0,1-.277-.134m.922-3.009-.167,2.333,7.9.573.167-2.333Z" transform="translate(-834.407 -146.337)" fill="#161616"/>
          <path id="패스_2438" data-name="패스 2438" d="M835.43,218.823a.738.738,0,0,0,.68.79l7.27.527a.736.736,0,0,0,.785-.684l.183-2.559-8.734-.633Z" transform="translate(-835.01 -155.542)" fill="#7fa1db"/>
          <path id="패스_2439" data-name="패스 2439" d="M834.237,218.585a1.162,1.162,0,0,1-.305-.871h0l.183-2.558a.42.42,0,0,1,.448-.39l8.734.633a.42.42,0,0,1,.388.45l-.183,2.558a1.157,1.157,0,0,1-1.233,1.074l-7.27-.527a1.146,1.146,0,0,1-.762-.369m.53-.811a.317.317,0,0,0,.292.34l7.27.527a.316.316,0,0,0,.337-.294l.153-2.138-7.9-.573Z" transform="translate(-833.929 -154.463)" fill="#161616"/>
          <path id="패스_2452" data-name="패스 2452" d="M0,0,3.874,0l0,8.757L0,8.757Z" transform="matrix(0.072, -0.997, 0.997, 0.072, 3.907, 14.592)" fill="#f4f0ed"/>
          <path id="패스_2440" data-name="패스 2440" d="M846.539,41.3a.421.421,0,0,1-.111-.317l.277-3.865a.422.422,0,0,1,.144-.288.417.417,0,0,1,.3-.1l8.734.633a.408.408,0,0,1,.287.145.424.424,0,0,1,.1.306L856,41.676a.419.419,0,0,1-.448.39l-8.734-.633a.417.417,0,0,1-.277-.134m.971-3.7-.217,3.025,7.9.572.217-3.024Z" transform="translate(-842.939 -26.42)" fill="#161616"/>
          <path id="패스_2453" data-name="패스 2453" d="M0,0,39.641-.017l0,8.757L0,8.757Z" transform="translate(0.953 55.841) rotate(-85.879)" fill="#f4f0ed"/>
          <path id="패스_2441" data-name="패스 2441" d="M835.956,96.821l-.009-.011a.422.422,0,0,1-.1-.306l2.832-39.54a.42.42,0,0,1,.448-.39l8.734.633a.4.4,0,0,1,.286.144.422.422,0,0,1,.1.306L845.415,97.2a.42.42,0,0,1-.448.39l-8.734-.633a.42.42,0,0,1-.277-.134m3.526-39.376-2.771,38.7,7.9.573,2.771-38.7Z" transform="translate(-835.31 -40.693)" fill="#161616"/>
          <path id="패스_2454" data-name="패스 2454" d="M0,0H1.713l0,8.757H0Z" transform="translate(3.785 16.301) rotate(-85.88)" fill="#7fa1db"/>
          <path id="패스_2442" data-name="패스 2442" d="M846.1,52.905l-.01-.011a.425.425,0,0,1-.1-.306l.122-1.708a.42.42,0,0,1,.448-.39l8.734.633a.42.42,0,0,1,.387.45l-.122,1.709a.422.422,0,0,1-.143.288.417.417,0,0,1-.3.1l-8.734-.633a.416.416,0,0,1-.277-.134m.817-1.544-.062.868,7.9.573.062-.868Z" transform="translate(-842.622 -36.318)" fill="#161616"/>
          <path id="패스_2443" data-name="패스 2443" d="M853.434,28.929a.421.421,0,0,1,.337-.706l5.8.42a.421.421,0,0,1-.06.84l-5.8-.42a.415.415,0,0,1-.277-.133" transform="translate(-847.909 -20.304)" fill="#161616"/>
        </g>
        <path id="패스_2444" data-name="패스 2444" d="M844.723,71.6c-2.584,2.306-5.97-.1-6.23-3.156-.223-2.625,3.864-8.188,6.3-4.579a1.491,1.491,0,0,1-.238,1.94,1.169,1.169,0,0,1,.095,1.863.89.89,0,0,1,.46,1.373c-.1.117-.242.241-.206.391a.477.477,0,0,0,.148.2,1.446,1.446,0,0,1-.326,1.969" transform="translate(-823.133 -43.139)" fill="#ffd8c7"/>
        <path id="패스_2445" data-name="패스 2445" d="M843.389,70.252a3.231,3.231,0,0,1-.457.342,3.664,3.664,0,0,1-.455.237,3.17,3.17,0,0,1-.505.15l-.12.023c-.152.028.089,0-.065.008-.1.008-.191.015-.288.016-.079,0-.159,0-.238-.007l-.118-.01c-.09-.009.112.021-.037,0a3.592,3.592,0,0,1-.509-.122,2.205,2.205,0,0,1-.418-.171,4.05,4.05,0,0,1-.461-.274,4.1,4.1,0,0,1-1.74-3.384c0-.056.008-.113.014-.169,0-.026.022-.144,0-.011,0-.024.007-.047.011-.071.025-.141.053-.28.089-.418a6.467,6.467,0,0,1,.276-.819c-.042.1.012-.027.017-.04l.043-.1q.049-.107.1-.213.106-.215.224-.424a8.319,8.319,0,0,1,.525-.817l.052-.071c.005-.007.094-.122.032-.043.045-.057.091-.114.137-.171q.152-.183.315-.357t.331-.326q.076-.069.155-.136l.078-.065c.093-.077-.028.018.045-.036a4.627,4.627,0,0,1,.719-.437l.067-.03c-.115.05,0,0,.019-.005.056-.02.112-.04.168-.057s.111-.032.168-.044.244-.035.108-.024a2.749,2.749,0,0,1,.419-.005c.034,0,.109.022-.011,0,.039.008.078.014.116.023.072.016.143.04.214.062.022.007.043.016.065.024-.124-.045.022.012.047.024a2.116,2.116,0,0,1,.191.11l.063.043.063.045q-.067-.054,0,0c.063.054.125.108.184.167a1.616,1.616,0,0,1,.538.87c.03.154,0-.072.009.085,0,.054,0,.108,0,.162a.716.716,0,0,1-.043.24.819.819,0,0,1-.3.438.489.489,0,0,0,.1.759s.1.07.066.041.046.047.053.055c.058.059,0-.013.024.028s.04.064.059.1.028.058.009.01a1.013,1.013,0,0,1,.036.11c.01.037.019.075.026.114-.013-.07,0,0,0,.034a1.213,1.213,0,0,1-.006.21c.013-.089-.007.015-.012.032-.011.037-.02.074-.033.11.023-.063,0,0-.017.032s-.037.066-.059.1c.053-.077-.122.11-.052.057a.493.493,0,0,0-.229.481.482.482,0,0,0,.344.4s.117.04.073.02.053.034.063.041c-.074-.053.1.128.049.055a.838.838,0,0,1,.068.121c-.028-.062,0,.009.008.037a.808.808,0,0,1,.026.113c-.009-.071,0,0-.005.033s-.015.1,0,.031c0,.011-.036.124-.016.072s-.03.054-.037.064c.042-.066-.028.031-.039.044a.864.864,0,0,0-.27.794c.058.23.269.37.351.525a.482.482,0,0,1,.05.174c-.011-.069,0,.039,0,.052,0,.044,0,.088,0,.132.006-.066-.016.084-.016.084-.008.036-.018.071-.028.106a.849.849,0,0,1-.091.219,1.364,1.364,0,0,1-.317.405.482.482,0,0,0,.679.683,2.274,2.274,0,0,0,.707-1.29,1.714,1.714,0,0,0-.043-.8,1.439,1.439,0,0,0-.163-.344,1.606,1.606,0,0,0-.14-.181l-.036-.04q-.122-.151-.021.164c.035.006-.123.135.041-.026a1.382,1.382,0,0,0,.143-.178,1.219,1.219,0,0,0,.153-.318,1.406,1.406,0,0,0,.02-.711,1.339,1.339,0,0,0-.949-1.017l.114.883a1.649,1.649,0,0,0-.1-2.7q.049.38.1.759a1.991,1.991,0,0,0,.214-2.667,2.908,2.908,0,0,0-1.712-1.227,3.855,3.855,0,0,0-3.441,1.595,7.742,7.742,0,0,0-1.884,3.7,4.915,4.915,0,0,0,1.668,4.347,4.269,4.269,0,0,0,2.564,1.1,3.9,3.9,0,0,0,2.761-1.055.482.482,0,0,0-.679-.683" transform="translate(-822.139 -42.134)" fill="#161616"/>
      </g>
    </g>
    <path id="패스_2244" data-name="패스 2244" d="M1.115,4.979A4.77,4.77,0,0,1,.382,0" transform="translate(57.991 35.432) rotate(129)" fill="none" stroke="#000" stroke-linecap="round" stroke-width="1"/>
    <path id="패스_2243" data-name="패스 2243" d="M1.453,7.265A7.568,7.568,0,0,1,.5,0" transform="translate(60.999 34.028) rotate(138)" fill="none" stroke="#000" stroke-linecap="round" stroke-width="1"/>
    <g id="그룹_1301" data-name="그룹 1301" transform="translate(35.793 13.705)">
      <path id="패스_2446" data-name="패스 2446" d="M345.711,72.687l1.705,6.364a.814.814,0,0,0,1.363.365l4.658-4.659a.815.815,0,0,0-.365-1.363l-6.364-1.7a.814.814,0,0,0-1,1" transform="translate(-345.232 -71.211)" fill="#ffd97b"/>
      <path id="패스_2447" data-name="패스 2447" d="M347.158,79.055a1.288,1.288,0,0,1-.333-.044,1.251,1.251,0,0,1-.894-.894l-1.705-6.363a1.265,1.265,0,0,1,1.548-1.549l6.364,1.705a1.264,1.264,0,0,1,.567,2.116l-4.658,4.658a1.249,1.249,0,0,1-.888.371m-1.715-7.995a.362.362,0,0,0-.254.108.358.358,0,0,0-.094.352l1.705,6.364a.365.365,0,0,0,.61.164l4.658-4.658a.365.365,0,0,0-.163-.61l-6.363-1.7a.386.386,0,0,0-.1-.013" transform="translate(-344.182 -70.16)" fill="#161616"/>
    </g>
    <g id="그룹_1302" data-name="그룹 1302" transform="translate(48.781 6.964)">
      <path id="패스_2448" data-name="패스 2448" d="M200.533,83.749l-2.215-.9a2.518,2.518,0,0,1-1.382-3.282l.9-2.215a2.518,2.518,0,0,1,3.282-1.382l2.215.9a2.518,2.518,0,0,1,1.382,3.282l-.9,2.215a2.518,2.518,0,0,1-3.282,1.382" transform="translate(-196.222 -75.254)" fill="#f2827c"/>
      <path id="패스_2449" data-name="패스 2449" d="M200.508,83.488a3.04,3.04,0,0,1-1.148-.226l-2.215-.9a3.045,3.045,0,0,1-1.672-3.968l.9-2.215a3.045,3.045,0,0,1,3.968-1.671l2.215.9a3.045,3.045,0,0,1,1.672,3.968l-.9,2.215a3.051,3.051,0,0,1-2.819,1.9m-1.313-8.155a2,2,0,0,0-1.844,1.241l-.9,2.215a1.99,1.99,0,0,0,1.093,2.595l2.215.9a1.991,1.991,0,0,0,2.595-1.093l.9-2.215a1.991,1.991,0,0,0-1.093-2.6l-2.215-.9a1.987,1.987,0,0,0-.751-.149" transform="translate(-195.246 -74.278)" fill="#161616"/>
    </g>
  </g>
</svg>
