<svg xmlns="http://www.w3.org/2000/svg" xmlns:xlink="http://www.w3.org/1999/xlink" width="70.692" height="59.999" viewBox="0 0 70.692 59.999">
  <defs>
    <clipPath id="clip-path">
      <rect id="SVGID" width="60.625" height="59.999" transform="translate(0)" fill="none"/>
    </clipPath>
    <clipPath id="clip-path-2">
      <rect id="사각형_937" data-name="사각형 937" width="9.321" height="9.321" fill="#26282b"/>
    </clipPath>
  </defs>
  <g id="img" transform="translate(9.001 0.057)">
    <g id="그룹_818" data-name="그룹 818" transform="translate(-1.843 -0.057)" clip-path="url(#clip-path)">
      <path id="패스_2141" data-name="패스 2141" d="M1578.591,980.928a22.172,22.172,0,0,1,6.589-.83c3.066-.138,6.208-.831,9.251-1.24a2.341,2.341,0,0,0,1.29-.445,1.518,1.518,0,0,0,.125-1.892,3.833,3.833,0,0,0-1.61-1.263c-6.94-3.471-14.783-1.678-21.511,1.295a27.007,27.007,0,0,0-12.945,11.291c-2.79,5.092-3.363,11.5-.825,16.715a1.819,1.819,0,0,0,1.019,1.083,1.945,1.945,0,0,0,1.125-.159l3.166-1.121a1.09,1.09,0,0,0,.637-.419c.176-.322-.018-.711-.193-1.034-2.358-4.357-1.379-9.979,1.563-13.974s7.545-6.532,12.316-8.008" transform="translate(-1546.5 -925.268)" fill="#48b077"/>
      <path id="패스_2142" data-name="패스 2142" d="M1577.509,980.22a14.383,14.383,0,0,1,3.023-.636c1-.1,2-.119,3-.158a55.283,55.283,0,0,0,6.744-.8c1.1-.18,2.2-.333,3.3-.506a2.366,2.366,0,0,0,1.329-.582,1.822,1.822,0,0,0,.51-1.285,2.827,2.827,0,0,0-1.562-2.337,14.588,14.588,0,0,0-2.791-1.248,22.29,22.29,0,0,0-12-.407,41.264,41.264,0,0,0-10.991,4.245,27.638,27.638,0,0,0-8.293,7.262,20.947,20.947,0,0,0-4.11,10.532,18.347,18.347,0,0,0,.348,5.721,16.118,16.118,0,0,0,.875,2.739c.347.823.747,1.915,1.718,2.176a2.977,2.977,0,0,0,1.757-.284l1.618-.573c.521-.184,1.069-.337,1.569-.572a1.182,1.182,0,0,0,.682-1.367,7.327,7.327,0,0,0-.617-1.348c-.083-.184-.14-.32-.222-.538s-.154-.431-.221-.65a11.139,11.139,0,0,1-.308-1.275,9.76,9.76,0,0,1-.147-1.222,14.129,14.129,0,0,1,3.324-9.805,22.29,22.29,0,0,1,8.909-6.177q1.255-.5,2.551-.9a.521.521,0,1,0-.28-1,27.3,27.3,0,0,0-9.718,5.12,16.441,16.441,0,0,0-5.55,9.015,13.65,13.65,0,0,0-.094,5.307,11.524,11.524,0,0,0,.812,2.577c.166.374.412.756.532,1.118.033.1.021,0,.015.1,0-.084-.007.082,0,.018-.006.041-.033.064-.008.017l-.037.035c.041-.028.035-.025-.017.01a4.416,4.416,0,0,1-.613.242l-1.583.56c-.516.183-1.03.392-1.557.544a.971.971,0,0,1-.57.037c-.122-.035.038.041-.064-.031.011.008-.129-.085-.075-.045a1.925,1.925,0,0,1-.208-.215c.048.061-.019-.031-.029-.045-.026-.037-.05-.075-.074-.114-.056-.092-.108-.187-.157-.284-.1-.206-.2-.416-.293-.627a16.024,16.024,0,0,1-1.257-5.216,19.088,19.088,0,0,1,2.414-10.6,22.088,22.088,0,0,1,3.081-4.234,25.7,25.7,0,0,1,1.887-1.847c.66-.584,1.325-1.117,2.01-1.613a35.347,35.347,0,0,1,9.9-4.871,25.634,25.634,0,0,1,11.411-1.327,17.306,17.306,0,0,1,5.519,1.729,3.786,3.786,0,0,1,1.055.732,1.56,1.56,0,0,1,.306.445c-.035-.075.009.026.016.045q.021.062.039.125a.658.658,0,0,1,.042.273c0,.034,0,.069,0,.1,0,.009-.021.173,0,.065a1.351,1.351,0,0,1-.065.242c.036-.1-.124.191-.064.115a1.029,1.029,0,0,1-.106.11c-.06.056,0,.013-.076.054a1.711,1.711,0,0,1-.52.183c-.246.051-.5.078-.746.113-2.134.3-4.251.716-6.391.973-1.087.131-2.176.2-3.27.243-.972.035-1.944.064-2.91.177a15.252,15.252,0,0,0-2.986.639.521.521,0,1,0,.28,1" transform="translate(-1545.278 -924.057)" fill="#24221e"/>
      <path id="패스_2143" data-name="패스 2143" d="M1610.99,890.617l2.132,3.548c1.029,1.713,2.175,3.53,4.025,4.319,1.077.459,2.3.522,3.348,1.051s1.862,1.855,1.237,2.836a2.734,2.734,0,0,1-1.885.971,2.7,2.7,0,0,1-2.211,3.863c-.684.007-1.413-.246-2.026.056a2.965,2.965,0,0,0-.9.892c-2.263,2.809-6.343,3.307-9.975,3.281a61.809,61.809,0,0,1-12.332-.936,8.415,8.415,0,0,1-4.1-1.725,6.025,6.025,0,0,1-1.686-4.734,17.8,17.8,0,0,1,1.236-5.015" transform="translate(-1566.968 -867.129)" fill="#24221e"/>
      <path id="패스_2144" data-name="패스 2144" d="M1609.313,889.655c.769,1.281,1.534,2.565,2.309,3.842a14.629,14.629,0,0,0,2.149,2.9,6.6,6.6,0,0,0,1.426,1.083,7.672,7.672,0,0,0,1.891.684,9.492,9.492,0,0,1,1.859.563,2.305,2.305,0,0,1,1.054.977c.017.03.033.06.048.091.007.014.056.116.022.038a1.775,1.775,0,0,1,.068.188,2.151,2.151,0,0,1,.052.215c.012.061,0-.01,0-.019.005.048.009.1.009.144a1.35,1.35,0,0,1-.008.19c.013-.107-.027.091-.034.119s-.015.046-.023.069c.032-.093-.023.045-.028.055a1.162,1.162,0,0,1-.113.176c.018-.022.046-.046-.02.017-.032.031-.061.063-.094.093l-.059.052c.056-.047-.03.022-.042.03a2.147,2.147,0,0,1-.208.124l-.1.049c-.018.009-.076.035-.025.013a4.8,4.8,0,0,1-.964.265.523.523,0,0,0-.314.764c.038.065.073.132.1.2-.045-.1.017.048.028.082a2.071,2.071,0,0,1,.059.212c.007.029.011.058.018.086.031.137,0-.1.006.035a2.89,2.89,0,0,1,.007.4c0,.04-.021.194,0,.081-.012.081-.027.161-.047.24a3.02,3.02,0,0,1-.122.384c-.031.082.054-.109-.009.021-.013.027-.025.055-.039.081-.034.068-.069.134-.108.2s-.071.115-.109.171c-.017.026-.134.174-.066.093a3.211,3.211,0,0,1-.31.325c-.045.039-.09.078-.137.115.087-.068-.088.058-.111.072-.05.031-.1.061-.153.089l-.1.05-.06.028c.05-.021.058-.024.023-.01a2.353,2.353,0,0,1-.362.106s-.145.025-.063.013-.064.005-.065.005a2.44,2.44,0,0,1-.266,0c-.411-.013-.818-.1-1.231-.09a2.026,2.026,0,0,0-1.175.373,4.705,4.705,0,0,0-.8.861,6.865,6.865,0,0,1-.681.718,5.428,5.428,0,0,1-.7.556,8.136,8.136,0,0,1-.863.513q-.213.11-.431.208l-.2.086c.075-.032-.03.012-.048.019l-.15.059c-.312.12-.631.225-.953.317a14.98,14.98,0,0,1-2.035.42l-.054.007-.112.014-.223.026q-.279.031-.559.054c-.354.03-.71.051-1.065.065-.744.03-1.488.024-2.232.018-1.8-.015-3.61-.043-5.411-.151a43.4,43.4,0,0,1-5.318-.619,10.086,10.086,0,0,1-4.3-1.489,4.852,4.852,0,0,1-.722-.7,4.92,4.92,0,0,1-.532-.853,6.259,6.259,0,0,1-.532-1.9,11.515,11.515,0,0,1,.76-4.8c.136-.411.28-.82.424-1.229a.525.525,0,0,0-.367-.64.538.538,0,0,0-.648.364,17.5,17.5,0,0,0-1.261,5.326,6.774,6.774,0,0,0,1.341,4.38,7.223,7.223,0,0,0,4.177,2.263,38.883,38.883,0,0,0,5.505.835c1.866.162,3.739.219,5.611.245a44.644,44.644,0,0,0,4.8-.09c2.864-.27,5.832-1.127,7.669-3.463.109-.138.216-.277.338-.4a1.018,1.018,0,0,1,.339-.267,2.465,2.465,0,0,1,1.185-.025,3.078,3.078,0,0,0,2.013-.38,3.379,3.379,0,0,0,1.56-3.357,2.6,2.6,0,0,0-.323-.872q-.157.382-.314.764a3.957,3.957,0,0,0,1.759-.715,1.939,1.939,0,0,0,.723-1.66,2.886,2.886,0,0,0-.787-1.677,3.964,3.964,0,0,0-1.7-1.031c-.659-.224-1.349-.342-2.016-.54a5.159,5.159,0,0,1-1.624-.807c-.045-.033-.05-.038-.116-.091s-.115-.1-.172-.145c-.114-.1-.224-.2-.331-.308a8.8,8.8,0,0,1-.612-.677,15.548,15.548,0,0,1-1.035-1.479c-.9-1.436-1.754-2.905-2.628-4.359a.539.539,0,0,0-.72-.187.524.524,0,0,0-.188.712" transform="translate(-1565.745 -865.904)" fill="#24221e"/>
      <path id="패스_2145" data-name="패스 2145" d="M1583.5,955.266a9.569,9.569,0,0,0-.619-5.338,2.383,2.383,0,0,0-1.212-1.372,1.978,1.978,0,0,0-1.548.147c-1.406.694-2,2.333-3.031,3.507-.645.734-1.47,1.29-2.153,1.989-.706.722-.975,1.552-1.959,2.062a4.838,4.838,0,0,0-1.579.922,2.7,2.7,0,0,0-.221,2.464c.523,1.922,1.7,3.913,3.65,4.4,1.922.474,3.878-.691,5.257-2.1a12.518,12.518,0,0,0,3.416-6.679" transform="translate(-1556.046 -907.772)" fill="#fff"/>
      <path id="패스_2146" data-name="패스 2146" d="M1582.788,954.191a10.316,10.316,0,0,0-.414-5.1,4,4,0,0,0-1.278-1.989,2.385,2.385,0,0,0-2.461-.064c-1.274.627-1.938,1.951-2.72,3.052a5.615,5.615,0,0,1-.594.728,12.311,12.311,0,0,1-.911.837,10.218,10.218,0,0,0-1.646,1.664c-.09.121-.177.244-.266.365l-.079.105c-.006.008-.061.077-.015.019-.055.069-.111.137-.17.2a2.4,2.4,0,0,1-.768.6,4.208,4.208,0,0,0-1.858,1.25,3.025,3.025,0,0,0-.267,2.238,8.834,8.834,0,0,0,.656,1.976,5.82,5.82,0,0,0,2.7,2.975,4.931,4.931,0,0,0,4.48-.352,10.662,10.662,0,0,0,3.41-3.212,12.933,12.933,0,0,0,1.977-4.206q.141-.539.229-1.09a.526.526,0,0,0-1.015-.276,11.745,11.745,0,0,1-4.079,7.178,6.82,6.82,0,0,1-1.7,1.02,4.873,4.873,0,0,1-1.011.273c-.1.014.06-.006-.037,0l-.118.011q-.133.011-.266.013c-.079,0-.158,0-.237,0l-.119-.007c-.014,0-.168-.017-.1-.008a3.255,3.255,0,0,1-.46-.1q-.1-.028-.2-.063l-.1-.036s-.152-.064-.069-.027a3.978,3.978,0,0,1-.761-.445c.066.049-.022-.018-.038-.03l-.08-.067c-.053-.045-.105-.092-.156-.139-.116-.108-.226-.221-.332-.339a4.8,4.8,0,0,1-.511-.689,7.155,7.155,0,0,1-.765-1.629,7.989,7.989,0,0,1-.258-.928c-.015-.075-.029-.151-.042-.227,0-.007-.014-.1-.005-.033-.005-.038-.009-.076-.012-.114a3.1,3.1,0,0,1-.008-.509,1.272,1.272,0,0,1,.258-.705c-.043.055.034-.034.045-.046.026-.027.053-.054.081-.079a.581.581,0,0,1,.116-.092,3.459,3.459,0,0,1,.451-.251c.31-.148.635-.268.93-.446a3.466,3.466,0,0,0,.792-.656,9.943,9.943,0,0,0,.616-.795c.1-.135.156-.214.23-.3a5.118,5.118,0,0,1,.356-.389c.533-.528,1.14-.977,1.679-1.5a9.563,9.563,0,0,0,1.275-1.6c.172-.258.34-.518.518-.773a5.768,5.768,0,0,1,.527-.678c.1-.111.2-.217.315-.318.052-.047.1-.092.158-.137.078-.066.036-.03.017-.015.042-.032.085-.062.129-.091a2.272,2.272,0,0,1,.85-.37,1.1,1.1,0,0,1,.8.144,1.488,1.488,0,0,1,.286.255.78.78,0,0,1,.091.111c.053.077.1.155.151.235a6.868,6.868,0,0,1,.716,2.029,9.125,9.125,0,0,1,.179,2.284,9.756,9.756,0,0,1-.1,1.073.526.526,0,0,0,1.015.276" transform="translate(-1554.83 -906.559)" fill="#24221e"/>
      <path id="패스_2147" data-name="패스 2147" d="M1593.281,1007.328c-.458,2.446-.037,5.142.069,7.628q.184,4.38.37,8.76a2.738,2.738,0,0,1-.292,1.689c-.183.262-.455.44-.639.7a.7.7,0,0,0-.009.888.764.764,0,0,0,.6.106,47.944,47.944,0,0,0,6.257-1.089,1.449,1.449,0,0,0,.916-.492,1.679,1.679,0,0,0,.208-.808q.694-8.187,1.07-16.4" transform="translate(-1571.175 -949.139)" fill="#f9bc50"/>
      <path id="패스_2148" data-name="패스 2148" d="M1591.554,1005.965a18.583,18.583,0,0,0-.165,4.5c.092,1.512.2,3.02.268,4.533l.2,4.788.1,2.413a9.021,9.021,0,0,1,.013,1.034,1.446,1.446,0,0,1-.211.679c-.205.269-.494.46-.675.752a1.346,1.346,0,0,0-.167,1.037,1,1,0,0,0,.922.708,5.307,5.307,0,0,0,1.078-.1c1.582-.194,3.154-.459,4.709-.8.361-.08.724-.157,1.081-.255a1.992,1.992,0,0,0,.891-.463,1.737,1.737,0,0,0,.445-1.086c.044-.377.067-.757.1-1.135q.2-2.379.366-4.761.339-4.764.571-9.535.029-.592.056-1.184a.526.526,0,0,0-1.053,0q-.21,4.586-.519,9.167-.155,2.29-.334,4.578-.09,1.144-.186,2.287c-.015.173-.026.348-.045.521a1.8,1.8,0,0,1-.077.318c-.054.1-.058.106-.169.17-.031.017-.063.033-.094.048.01,0,.059-.023,0,0a2.4,2.4,0,0,1-.231.073,37.678,37.678,0,0,1-4.384.869q-.526.079-1.054.145a9.166,9.166,0,0,1-1.065.11c-.1,0,.016.022-.034,0s0,0,.017.015a.187.187,0,0,1,.03.057c-.035-.068-.014-.039-.009,0a.712.712,0,0,1,0-.1c0,.109.038-.126.024-.09s.046-.083.066-.111c-.012.017-.049.056.029-.034.026-.03.054-.058.081-.086.111-.113.23-.218.335-.336a2.713,2.713,0,0,0,.566-1.952c-.018-.75-.061-1.5-.093-2.249q-.1-2.3-.194-4.6c-.062-1.461-.128-2.92-.234-4.379a26.716,26.716,0,0,1-.075-4.3c.03-.334.071-.639.131-.967a.526.526,0,0,0-1.015-.277" transform="translate(-1569.955 -947.915)" fill="#24221e"/>
      <path id="패스_2149" data-name="패스 2149" d="M1620.023,1007.99a22.754,22.754,0,0,0,1.768,6.324,9.425,9.425,0,0,0,4.529,4.637c2.131.922,4.185.35,6.364.689a4.907,4.907,0,0,1,2.192.842c.478.373.451,1.164,1.22,1.192a.618.618,0,0,0,.555-.279.989.989,0,0,0,.1-.459c.063-1.388.779-7.343-.478-8.018a2.9,2.9,0,0,0-1.549-.183,8.673,8.673,0,0,1-2.708-.157,3.371,3.371,0,0,1-2.146-1.535,5,5,0,0,1-.456-1.711q-.137-.955-.273-1.91" transform="translate(-1590.333 -949.205)" fill="#f9bc50"/>
      <path id="패스_2150" data-name="패스 2150" d="M1618.313,1006.9c.57,3.455,1.46,7.09,4.093,9.613a8.717,8.717,0,0,0,1.922,1.407,7.509,7.509,0,0,0,2.725.818c1.743.194,3.548-.142,5.238.4a3.627,3.627,0,0,1,1.022.5c.135.1-.034-.051.047.041.017.018.038.039.056.056.091.085-.04-.06,0,0,.019.027.038.054.055.082.074.117.135.241.2.361a1.5,1.5,0,0,0,.767.709,1.25,1.25,0,0,0,1.271-.225c.417-.388.354-1.035.394-1.56.034-.448.071-.9.1-1.343a32.91,32.91,0,0,0,.106-3.389,10.848,10.848,0,0,0-.153-1.587,2.884,2.884,0,0,0-.4-1.123,2.033,2.033,0,0,0-1.8-.691,12.436,12.436,0,0,1-2.744-.054,3.649,3.649,0,0,1-1.047-.362,2.583,2.583,0,0,1-.838-.665,4.826,4.826,0,0,1-.685-2.359q-.1-.734-.21-1.469a.526.526,0,0,0-1.015.277q.105.734.21,1.469c.065.452.116.909.224,1.353a3.469,3.469,0,0,0,1.4,2.055,4.979,4.979,0,0,0,2.408.812,9.793,9.793,0,0,0,1.363.03,12.481,12.481,0,0,1,1.319-.035,1.453,1.453,0,0,1,.426.109.576.576,0,0,1,.088.052c-.017.039-.115-.106-.057-.042.015.016.032.029.047.045s.032.049.052.059c-.082-.043-.071-.1-.033-.039.007.012.016.024.023.036.02.032.038.064.055.1l.021.042c.044.082-.009,0-.013-.036a1.649,1.649,0,0,0,.088.249c.029.094.052.189.073.284s.04.2.056.3c.008.05.016.1.023.151-.024-.168.007.068.011.107a20.234,20.234,0,0,1,.025,3.216c-.047.918-.13,1.833-.194,2.749,0,.068-.009.136-.013.2a2.1,2.1,0,0,1-.02.267c-.026.112-.007.052,0,.03.01-.039-.071.056-.009.01-.075.056-.05.025-.024.012-.116.053.018.009-.049.009-.031,0-.137-.019-.031,0-.029-.006-.057-.015-.085-.021-.114-.022.066.055-.022-.011-.031-.023-.1-.095-.016-.007-.017-.018-.038-.032-.053-.051s-.081-.1-.03-.034-.021-.035-.024-.04c-.014-.022-.027-.044-.04-.066-.071-.118-.131-.243-.2-.36a2.16,2.16,0,0,0-.768-.734c-1.526-.928-3.416-.828-5.135-.837a9.062,9.062,0,0,1-2.552-.293,6.832,6.832,0,0,1-2.078-1.07c-.081-.059-.23-.179-.346-.278q-.243-.206-.47-.43a9.725,9.725,0,0,1-.741-.818,10.532,10.532,0,0,1-.632-.888c-.208-.327-.4-.665-.575-1.011a18.99,18.99,0,0,1-1.56-5.035c-.083-.439-.159-.879-.232-1.32a.526.526,0,0,0-1.015.277" transform="translate(-1589.13 -947.981)" fill="#24221e"/>
      <path id="패스_2151" data-name="패스 2151" d="M1595.689,948.7a66.945,66.945,0,0,0-2.163,9.982c-.444,3.222-1.022,6.925-.587,10.16,2.445.67,5.089-.18,7.595-.127q5.31.114,10.623.1a28.6,28.6,0,0,0-1.259-9.211l-2.594-10.376" transform="translate(-1571.287 -907.946)" fill="#5b5b5b"/>
      <path id="패스_2152" data-name="패스 2152" d="M1593.958,947.337a67.18,67.18,0,0,0-1.869,8.061c-.222,1.323-.4,2.654-.578,3.983-.174,1.3-.33,2.6-.414,3.9a22.243,22.243,0,0,0,.093,4.333.545.545,0,0,0,.386.5c2.263.608,4.566.019,6.849-.094,1.213-.06,2.439.018,3.653.037s2.444.032,3.666.041q2.1.015,4.19.01a.536.536,0,0,0,.526-.52,24.935,24.935,0,0,0-.88-7.727c-.608-2.552-1.266-5.093-1.9-7.638l-1.089-4.359a.535.535,0,0,0-.648-.364.528.528,0,0,0-.367.64l1.909,7.638c.626,2.5,1.338,5.01,1.734,7.563a18.23,18.23,0,0,1,.192,4.247l.526-.52q-3.7.008-7.407-.045c-1.207-.017-2.417-.076-3.624-.059-1.132.016-2.253.184-3.378.293a10.3,10.3,0,0,1-3.669-.146l.386.5a29.746,29.746,0,0,1,.251-7.7c.337-2.6.731-5.231,1.309-7.809q.507-2.266,1.171-4.493a.527.527,0,0,0-.368-.64.535.535,0,0,0-.647.363" transform="translate(-1570.063 -906.717)" fill="#24221e"/>
      <path id="패스_2153" data-name="패스 2153" d="M1640.871,965.223a4.746,4.746,0,0,0,3.357-4.65,25.345,25.345,0,0,0-.979-5.538,6.68,6.68,0,0,0-2.568-4.041,1.992,1.992,0,0,0-1.769-.26,1.794,1.794,0,0,0-.954,1.363,7.057,7.057,0,0,0,.008,1.721,11.048,11.048,0,0,1-.689,4.921c-.578,1.4-1.546,2.73-.965,4.3a3.781,3.781,0,0,0,2.85,2.361,4.379,4.379,0,0,0,1.71-.175" transform="translate(-1601.597 -909.293)" fill="#fff"/>
      <path id="패스_2154" data-name="패스 2154" d="M1639.8,964.515a5.493,5.493,0,0,0,2.826-2.071,4.985,4.985,0,0,0,.905-3.258,26.2,26.2,0,0,0-.7-4.431,13.037,13.037,0,0,0-1.314-3.554,4.4,4.4,0,0,0-2.9-2.279,1.98,1.98,0,0,0-1.914.764,3.024,3.024,0,0,0-.535,1.878c0,.723.1,1.44.091,2.164a10.716,10.716,0,0,1-.2,2.016,9.164,9.164,0,0,1-.589,1.858c-.268.6-.573,1.177-.8,1.792a4.026,4.026,0,0,0-.232,1.957,3.783,3.783,0,0,0,.816,1.775,4.428,4.428,0,0,0,1.46,1.219,3.712,3.712,0,0,0,1.974.373,5.225,5.225,0,0,0,1.112-.2.521.521,0,1,0-.28-1,3.934,3.934,0,0,1-.9.169,4.416,4.416,0,0,1-.456,0c-.08,0-.161-.008-.241-.018s.066.013-.025-.005l-.11-.022a2.9,2.9,0,0,1-1.308-.722q-.154-.142-.293-.3a2.534,2.534,0,0,1-.227-.288,3.69,3.69,0,0,1-.2-.316,2.307,2.307,0,0,1-.146-.3,2.48,2.48,0,0,1-.087-1.535,7.84,7.84,0,0,1,.612-1.552,12.7,12.7,0,0,0,.713-1.756,11.844,11.844,0,0,0,.445-3.89,9.1,9.1,0,0,1-.046-1.956,2.859,2.859,0,0,1,.1-.368c.026-.079-.005,0,.031-.078s.066-.129.1-.191a.923.923,0,0,1,.419-.388,1.043,1.043,0,0,1,.644-.036,2.218,2.218,0,0,1,.749.33q.083.053.163.11a.742.742,0,0,1,.093.071c.1.083.2.168.289.258s.181.185.266.282q.064.073.124.149l0,0q.042.055.082.112a6.361,6.361,0,0,1,.43.692c.059.108.114.218.168.329s.115.248.144.319a14.272,14.272,0,0,1,.537,1.584,24.449,24.449,0,0,1,.781,3.917,9.453,9.453,0,0,1,.1,1.822c0,.026-.017.168-.013.139s-.017.106-.023.138c-.024.129-.054.256-.089.382s-.071.234-.114.349a2.06,2.06,0,0,1-.124.286,4.356,4.356,0,0,1-1.977,2.021,3.189,3.189,0,0,1-.625.253.521.521,0,1,0,.28,1" transform="translate(-1600.389 -908.083)" fill="#24221e"/>
      <path id="패스_2155" data-name="패스 2155" d="M1592.744,875.745q-.229-2.363-.459-4.726c-9.558,3.107-21.819.263-27.786-7.746-5.813-7.8-5.372-19.364-2.218-28.539a45.806,45.806,0,0,1,3.553-7.778c-2.2-1.18-4.373-2.419-6.457-3.778a53.526,53.526,0,0,0-6.78,17.44c-2.293,12.854,1.875,27.448,12.758,34.839a28.373,28.373,0,0,0,26.031,2.778,2.45,2.45,0,0,0,1.082-.691,2.522,2.522,0,0,0,.276-1.8" transform="translate(-1542.76 -819.741)" fill="#bdcc42"/>
      <path id="패스_2156" data-name="패스 2156" d="M1592.049,874.513l-.459-4.726a.532.532,0,0,0-.666-.5,26.411,26.411,0,0,1-12.27.867,24.911,24.911,0,0,1-11.27-4.7,19.28,19.28,0,0,1-4.179-4.419,21.5,21.5,0,0,1-2.76-5.912,32.1,32.1,0,0,1-.794-13.483,42.9,42.9,0,0,1,4.441-13.863q.469-.905.974-1.791a.524.524,0,0,0-.189-.712c-2.2-1.179-4.367-2.417-6.457-3.778a.536.536,0,0,0-.72.186,63.221,63.221,0,0,0-4.505,9.3,44.747,44.747,0,0,0-2.513,9.4,40.475,40.475,0,0,0-.381,8.149,39.7,39.7,0,0,0,1.276,8.064,35.637,35.637,0,0,0,2.923,7.479,30.744,30.744,0,0,0,4.608,6.512,27.479,27.479,0,0,0,6.416,5.122,28.282,28.282,0,0,0,8.455,3.172,29.354,29.354,0,0,0,9.047.424,28.461,28.461,0,0,0,4.459-.847q1.093-.3,2.157-.7a4.407,4.407,0,0,0,1.978-1.082,2.862,2.862,0,0,0,.43-2.166.538.538,0,0,0-.526-.52.527.527,0,0,0-.527.52c.058.617.151,1.368-.466,1.74a10.06,10.06,0,0,1-2.009.8,27.2,27.2,0,0,1-4.227,1.037,27.937,27.937,0,0,1-8.678.03,27.04,27.04,0,0,1-14.836-7.314,31.17,31.17,0,0,1-7.78-13.072,38.917,38.917,0,0,1-1.5-15.514,48.533,48.533,0,0,1,5.9-17.867q.584-1.082,1.206-2.144l-.72.187c2.09,1.361,4.258,2.6,6.457,3.778l-.189-.712a44.984,44.984,0,0,0-5.287,14.413,35.135,35.135,0,0,0,.164,14.035,21.722,21.722,0,0,0,6.526,11.385,25.046,25.046,0,0,0,11.344,5.583,28.086,28.086,0,0,0,12.831-.164q.74-.19,1.467-.426l-.666-.5q.23,2.363.459,4.726a.538.538,0,0,0,.527.52.527.527,0,0,0,.526-.52" transform="translate(-1541.538 -818.509)" fill="#24221e"/>
      <path id="패스_2157" data-name="패스 2157" d="M1613.477,948.244a8.037,8.037,0,0,1-.484,2.861,3.376,3.376,0,0,1-1.919,1.847,2.068,2.068,0,0,1-2.184-.434c-.648-.675-.764-1.8-1.265-2.621a2.235,2.235,0,0,1-.663,1.9,3.042,3.042,0,0,1-1.717.784,2.738,2.738,0,0,1-2.736-1,4.2,4.2,0,0,1-.307-3.205,10.013,10.013,0,0,1,.761-2.174" transform="translate(-1577.754 -906.187)" fill="#fff"/>
      <path id="패스_2158" data-name="패스 2158" d="M1611.737,947.024a9.113,9.113,0,0,1-.285,2.231,3.228,3.228,0,0,1-1.027,1.575s-.076.062-.023.021c-.029.022-.059.044-.089.064q-.09.062-.183.118c-.07.042-.141.08-.214.116l-.1.045q-.05.022,0,0l-.05.019a1.954,1.954,0,0,1-.882.125c-.013,0-.1-.014-.021,0-.036-.005-.071-.013-.106-.02a2,2,0,0,1-.208-.057c-.034-.011-.069-.023-.1-.037.068.029-.014-.009-.022-.014a2.124,2.124,0,0,1-.234-.14c.053.039-.019-.017-.024-.021-.028-.025-.056-.05-.083-.076s-.064-.065-.094-.1c-.007-.007-.075-.091-.043-.049a3.238,3.238,0,0,1-.229-.378c-.03-.06-.09-.187-.1-.212s-.055-.137-.078-.2c-.067-.176-.13-.354-.194-.531a6.383,6.383,0,0,0-.485-1.091.527.527,0,0,0-.963.4c-.013-.085.006.1.006.094,0,.039,0,.078,0,.116s0,.078-.006.117c-.011.163.023-.068-.013.093a2.04,2.04,0,0,1-.159.48,1.81,1.81,0,0,1-.631.717,2.647,2.647,0,0,1-1.036.4l-.116.02c-.183.033.1,0-.075.01-.07.006-.14.013-.21.016a3.483,3.483,0,0,1-.556-.017c-.1-.011.121.024-.043-.007l-.1-.02c-.086-.018-.171-.039-.255-.064l-.1-.032c.012,0-.148-.056-.084-.03s-.092-.043-.08-.037c-.047-.023-.093-.048-.139-.073a1.622,1.622,0,0,1-.629-.615,2.228,2.228,0,0,1-.117-.225c.034.077-.036-.093-.033-.085-.012-.036-.025-.072-.036-.108q-.043-.137-.074-.278c-.008-.038-.016-.076-.023-.114,0,0-.024-.16-.016-.094a4.892,4.892,0,0,1,.014-1.2,8.481,8.481,0,0,1,.289-1.27,9.269,9.269,0,0,1,.525-1.357.525.525,0,0,0-.909-.525,9.955,9.955,0,0,0-.924,2.892,4.511,4.511,0,0,0,.352,2.819c.9,1.658,3.284,1.862,4.805.964a2.825,2.825,0,0,0,1.39-2.855l-.962.4c.359.6.507,1.331.846,2.006a2.487,2.487,0,0,0,1.785,1.394,3.579,3.579,0,0,0,3.726-2.376,8.7,8.7,0,0,0,.477-2.939.526.526,0,0,0-1.053,0" transform="translate(-1576.541 -904.966)" fill="#24221e"/>
      <path id="패스_2159" data-name="패스 2159" d="M1581.532,863.1a2.949,2.949,0,0,0,5.18-.489,5.75,5.75,0,0,0,2.772,1.943,2.714,2.714,0,0,0,3.019-1.069,7.394,7.394,0,0,0,9.841,3.2,15.035,15.035,0,0,0-29.1,2.675,21.613,21.613,0,0,0,8.284-6.258" transform="translate(-1557.626 -843.168)" fill="#24221e"/>
      <path id="패스_2160" data-name="패스 2160" d="M1579.876,862.136a3.476,3.476,0,0,0,6.141-.614l-.879.229a6.749,6.749,0,0,0,2.576,1.939,3.655,3.655,0,0,0,2.857-.088,2.692,2.692,0,0,0,1.185-1.082h-.909a8.046,8.046,0,0,0,7.591,4.2,8.409,8.409,0,0,0,2.97-.819.52.52,0,0,0,.242-.587,15.487,15.487,0,0,0-11.724-10.252,15.8,15.8,0,0,0-8.238.6,15.607,15.607,0,0,0-6.474,4.367,15.308,15.308,0,0,0-3.51,6.993c-.066.321-.12.644-.165.969a.531.531,0,0,0,.189.547.553.553,0,0,0,.585.041,22.213,22.213,0,0,0,6.836-4.616,21.2,21.2,0,0,0,1.554-1.724.523.523,0,0,0-.745-.736,21.077,21.077,0,0,1-6.115,5.16,22.106,22.106,0,0,1-2.062,1.018l.773.587a14.9,14.9,0,0,1,1-3.685c.062-.149-.022.05.016-.038l.051-.115q.041-.092.083-.183.105-.228.218-.452.213-.424.454-.835a14.93,14.93,0,0,1,1.029-1.53c.061-.078.119-.153.227-.285s.213-.255.323-.379q.312-.355.646-.69a14.991,14.991,0,0,1,1.379-1.222l.1-.076c.076-.058-.1.071.033-.025l.161-.119q.2-.147.409-.288.394-.268.8-.51a15.084,15.084,0,0,1,1.66-.848l.117-.05c.089-.038-.112.046.038-.016l.189-.076c.157-.063.317-.122.477-.179q.458-.163.926-.3a15.11,15.11,0,0,1,1.875-.406l.13-.019.042-.006.235-.029c.167-.019.333-.035.5-.049q.506-.04,1.015-.047a15.34,15.34,0,0,1,2.054.109l.135.017.021,0,.241.036q.253.04.5.088.5.1.99.225a14.988,14.988,0,0,1,1.874.629c.092.038-.111-.048.043.018l.1.041.215.1q.226.1.448.211.443.218.87.465t.835.519q.193.129.382.264l.167.121.1.077.091.068a15.46,15.46,0,0,1,1.416,1.245q.346.344.668.711.153.173.3.352l.13.159.08.1c.023.029.021.027,0,0l.047.061a14.855,14.855,0,0,1,1.073,1.6q.247.425.464.865.1.209.2.421.043.094.085.189l.035.081.044.106q.183.446.337.9l.242-.587a7.1,7.1,0,0,1-2.238.657,6.659,6.659,0,0,1-2.145-.1,7.143,7.143,0,0,1-3.407-1.8q-.211-.2-.405-.418-.092-.1-.181-.21l-.07-.086c-.113-.138.052.074-.054-.069a7.5,7.5,0,0,1-.621-.981.533.533,0,0,0-.909,0c-.033.058-.07.113-.107.169s-.039.054-.007.013c-.021.026-.042.05-.064.075a2.066,2.066,0,0,1-.251.235c.077-.061-.079.052-.094.061q-.063.04-.128.076c-.058.032-.118.061-.179.09l-.013.006-.094.035a3.052,3.052,0,0,1-.343.1c-.066.014-.134.027-.2.036.106-.015-.058,0-.064,0a3.11,3.11,0,0,1-.412.006c-.051,0-.1-.007-.154-.012s-.068-.007-.012,0l-.1-.017a5.027,5.027,0,0,1-2.74-1.853.524.524,0,0,0-.512-.133.551.551,0,0,0-.368.363c.027-.064-.054.1-.063.122-.026.048-.053.1-.081.142s-.058.092-.089.137-.043.059-.064.089c.021-.026.02-.026,0,0a3.058,3.058,0,0,1-.242.26q-.06.057-.123.11c-.027.024-.056.047-.084.07q.051-.038-.025.017c-.09.063-.182.122-.278.176-.056.031-.113.06-.171.088l-.075.035-.027.011a3.114,3.114,0,0,1-.314.1c-.071.018-.143.032-.215.046-.105.022.039,0-.078.011a2.732,2.732,0,0,1-.641-.017,2.923,2.923,0,0,1-.619-.185,3.738,3.738,0,0,1-.344-.187,1.854,1.854,0,0,1-.209-.148,2.69,2.69,0,0,1-.473-.514.542.542,0,0,0-.72-.186.522.522,0,0,0-.189.712" transform="translate(-1556.424 -841.946)" fill="#24221e"/>
      <path id="패스_2161" data-name="패스 2161" d="M1603.668,881.442a3.716,3.716,0,0,0-1.439.288c-.063-.222-.133-.442-.206-.66a7.394,7.394,0,0,1-9.841-3.2,2.714,2.714,0,0,1-3.019,1.069A5.752,5.752,0,0,1,1586.39,877a2.948,2.948,0,0,1-5.18.489,21.611,21.611,0,0,1-8.284,6.259,14.8,14.8,0,0,0,14.861,16.82,14.958,14.958,0,0,0,14.726-12.015,3.719,3.719,0,0,0,1.154.185,3.647,3.647,0,1,0,0-7.293" transform="translate(-1557.304 -857.558)" fill="#ffe3d4"/>
      <path id="패스_2162" data-name="패스 2162" d="M1602.444,879.693a4.276,4.276,0,0,0-1.579.307l.647.363c-.063-.222-.133-.442-.206-.661a.538.538,0,0,0-.773-.311,7.1,7.1,0,0,1-2.238.658,6.67,6.67,0,0,1-2.145-.1,7.148,7.148,0,0,1-3.407-1.805q-.21-.2-.405-.418c-.062-.069-.122-.139-.181-.21l-.07-.085c-.112-.139.052.073-.054-.069a7.475,7.475,0,0,1-.62-.981.534.534,0,0,0-.909,0c-.033.058-.07.113-.106.169s-.039.053-.008.013c-.021.025-.042.05-.064.075a2.075,2.075,0,0,1-.251.235c.077-.06-.079.052-.095.062-.042.027-.085.052-.128.076s-.118.061-.178.09-.062.027-.013.006l-.095.035a2.9,2.9,0,0,1-.343.1c-.067.015-.134.027-.2.037.105-.015-.058,0-.064,0a3.15,3.15,0,0,1-.411.006c-.051,0-.1-.007-.154-.012s-.068-.008-.013,0l-.1-.017a5.029,5.029,0,0,1-2.74-1.853.525.525,0,0,0-.512-.134.553.553,0,0,0-.367.363c.027-.063-.054.105-.063.122-.026.048-.053.1-.081.142s-.059.092-.09.137c-.02.03-.042.059-.064.088.021-.026.02-.026,0,0a2.994,2.994,0,0,1-.242.26c-.04.038-.081.075-.122.11s-.056.047-.085.07c.034-.026.026-.02-.025.017-.091.062-.183.122-.279.176-.055.031-.113.061-.17.089l-.075.034-.027.01a3.148,3.148,0,0,1-.313.1c-.072.018-.143.032-.215.046-.105.022.039,0-.079.011a2.744,2.744,0,0,1-.64-.017,2.945,2.945,0,0,1-.619-.186,3.75,3.75,0,0,1-.343-.188,1.83,1.83,0,0,1-.209-.148,2.7,2.7,0,0,1-.473-.513.535.535,0,0,0-.826-.105,21.038,21.038,0,0,1-4.763,4.336,21.914,21.914,0,0,1-2.874,1.6c-.315.146-.718.235-.791.62a8.867,8.867,0,0,0-.1.949,14.583,14.583,0,0,0-.033,1.686,15.1,15.1,0,0,0,1.158,5.267,15.491,15.491,0,0,0,12.131,9.346,16,16,0,0,0,5.725-.231,15.465,15.465,0,0,0,5.033-2.133,15.74,15.74,0,0,0,3.971-3.731,15.153,15.153,0,0,0,2.414-4.835c.126-.43.23-.866.317-1.306l-.648.363a4.273,4.273,0,0,0,5-1.982,4.174,4.174,0,0,0-.834-5.029,4.3,4.3,0,0,0-2.874-1.12.52.52,0,1,0,0,1.041c.106,0,.211,0,.315.013.007,0,.177.019.067,0l.1.016a3.718,3.718,0,0,1,.59.15c.047.016.094.034.141.052.151.056-.086-.045.058.025.075.037.15.071.223.11s.172.1.255.151l.082.055c.015.01.169.125.091.064a3.66,3.66,0,0,1,.4.363c.056.059.109.121.162.183.1.119-.053-.079.039.049.038.053.076.106.113.161a4.426,4.426,0,0,1,.264.472c.007.013.041.091.007.012.019.045.037.092.054.138.037.1.07.205.1.31.024.089.044.18.062.27.009.05.018.1.025.151-.012-.089,0,0,0,.014a4.545,4.545,0,0,1,.009.624,2.33,2.33,0,0,1-.076.465q-.036.146-.084.288-.016.047-.033.094c-.006.017-.082.2-.04.105a3.75,3.75,0,0,1-.258.476c-.044.069-.092.135-.139.2-.092.128.064-.071-.039.049-.043.049-.084.1-.129.147a4.369,4.369,0,0,1-.392.368c-.078.065-.028.022-.01.009-.039.03-.079.058-.12.086-.089.06-.179.117-.272.169s-.19.1-.287.146c-.144.07.093-.032-.058.025-.047.018-.094.035-.141.052a3.881,3.881,0,0,1-.641.158c-.163.027.1,0-.066.007-.052,0-.1.009-.156.012a3.708,3.708,0,0,1-.423,0,3.265,3.265,0,0,1-.8-.16.531.531,0,0,0-.648.364,14.012,14.012,0,0,1-1.467,4.093,14.806,14.806,0,0,1-1.173,1.819l-.092.12c-.062.082-.024.031-.01.014-.057.073-.115.144-.173.216q-.183.224-.374.441-.357.405-.743.784t-.8.729q-.2.171-.409.335l-.1.077a.424.424,0,0,1-.054.041c-.081.06-.162.121-.243.18a15.064,15.064,0,0,1-1.85,1.145q-.5.26-1.013.482l-.094.04c.1-.041-.059.025-.064.026l-.238.095q-.264.1-.532.194a15,15,0,0,1-2.189.573q-.272.05-.547.09c.012,0-.16.022-.088.013l-.088.011q-.159.02-.317.036-.589.06-1.181.075a15.4,15.4,0,0,1-2.263-.111l-.065-.008-.1-.014c-.094-.013-.187-.028-.28-.043q-.291-.048-.58-.106-.522-.107-1.037-.25-.533-.149-1.055-.337-.235-.085-.468-.178l-.139-.056c-.148-.06.052.023-.036-.014s-.2-.085-.3-.13a15.008,15.008,0,0,1-1.872-1.007q-.447-.283-.873-.6l-.1-.073c-.005,0-.134-.1-.05-.037l-.193-.151q-.211-.168-.416-.343a14.989,14.989,0,0,1-1.5-1.476,12.924,12.924,0,0,1-1.248-1.648,14.81,14.81,0,0,1-1.019-1.852q-.051-.112-.1-.225c0-.006-.067-.156-.025-.058l-.038-.091q-.109-.264-.209-.531-.186-.5-.335-1.018-.154-.531-.267-1.073c-.034-.166-.066-.331-.095-.5-.015-.084-.028-.167-.041-.251-.008-.05-.015-.1-.022-.151s-.01-.067,0-.014l-.01-.076a14.561,14.561,0,0,1-.111-2.39c.018-.5.063-.994.129-1.487l-.261.449a22.2,22.2,0,0,0,6.837-4.616,21.082,21.082,0,0,0,1.554-1.723l-.826-.105a3.476,3.476,0,0,0,6.141-.614l-.879.229a6.745,6.745,0,0,0,2.576,1.939,3.656,3.656,0,0,0,2.857-.088,2.7,2.7,0,0,0,1.185-1.081h-.909a8.046,8.046,0,0,0,7.591,4.2,8.4,8.4,0,0,0,2.97-.819l-.773-.311c.073.219.142.439.206.661a.53.53,0,0,0,.648.363,3.445,3.445,0,0,1,1.3-.27.52.52,0,1,0,0-1.041" transform="translate(-1556.081 -856.33)" fill="#24221e"/>
      <path id="패스_2163" data-name="패스 2163" d="M1599.1,900.783a.984.984,0,1,1-.984-.973.979.979,0,0,1,.984.973" transform="translate(-1574.325 -873.589)" fill="#24221e"/>
      <path id="패스_2164" data-name="패스 2164" d="M1630.164,900.783a.984.984,0,1,1-.983-.973.978.978,0,0,1,.983.973" transform="translate(-1596.049 -873.589)" fill="#24221e"/>
      <path id="패스_2165" data-name="패스 2165" d="M1611.87,903.742c.116-.05-.109.04.008,0l.066-.025q.088-.032.178-.058a2.468,2.468,0,0,1,.329-.071l-.14.019a1.977,1.977,0,0,1,.508,0l-.14-.019a1.9,1.9,0,0,1,.316.073l.071.025c.079.029.011,0-.027-.013a.817.817,0,0,1,.169.082.539.539,0,0,0,.72-.187.525.525,0,0,0-.189-.712,2.473,2.473,0,0,0-1.156-.308,3.105,3.105,0,0,0-1.245.3.517.517,0,0,0-.188.712.531.531,0,0,0,.315.239.62.62,0,0,0,.406-.053" transform="translate(-1584.079 -875.511)" fill="#24221e"/>
      <path id="패스_2166" data-name="패스 2166" d="M1583.572,905.654a3.115,3.115,0,1,1-3.114-3.079,3.1,3.1,0,0,1,3.114,3.079" transform="translate(-1560.489 -875.532)" fill="#ffb18f"/>
      <path id="패스_2167" data-name="패스 2167" d="M1643.818,905.654a3.115,3.115,0,1,1-3.115-3.079,3.1,3.1,0,0,1,3.115,3.079" transform="translate(-1602.616 -875.532)" fill="#ffb18f"/>
      <path id="패스_2168" data-name="패스 2168" d="M1620.985,912.787a.73.73,0,0,1-.143-.381,3.126,3.126,0,0,1-.024-1.417,1.712,1.712,0,0,1,2.2-1.02,1.775,1.775,0,0,1,.913,2.266" transform="translate(-1590.837 -880.65)" fill="#fff"/>
      <path id="패스_2169" data-name="패스 2169" d="M1620.134,911.208c.005.006.066.066.045.073,0,0-.019-.062-.02-.066-.014-.052-.023-.105-.033-.158q-.019-.113-.038-.227c0-.029-.009-.057-.013-.086s-.005-.038,0,0c0-.019,0-.038-.007-.057a3.678,3.678,0,0,1-.021-.4c0-.038,0-.076,0-.114,0,0,.008-.09,0-.043s.011-.061.013-.071c.01-.046.021-.092.034-.138.006-.021.057-.151.028-.087s.03-.057.043-.079a1.2,1.2,0,0,0,.074-.116c.026-.063-.059.061-.011.012.023-.023.043-.05.065-.074s.065-.066.1-.1.135-.1.032-.031a2.381,2.381,0,0,1,.256-.156c.047-.023.136-.049.04-.02.051-.015.1-.036.152-.05s.091-.024.137-.033l.059-.011c.122-.023-.071,0,0,0a1.78,1.78,0,0,0,.28,0c.07-.009-.091-.022-.021,0,.019,0,.04.006.059.01.059.012.116.029.174.046.019.006.038.014.057.02-.1-.029-.041-.02-.014,0s.085.043.125.067.078.051.118.077c-.1-.067.022.023.048.047s.076.075.112.115c.013.015.025.032.039.046.049.05-.039-.073-.009-.01.042.088.108.172.155.26s0,0,0-.014q.019.047.036.095c.018.051.033.1.047.155s.019.107.033.158c.019.07,0-.091,0-.018,0,.032.006.069.007.1,0,.054,0,.107,0,.161,0,.026-.006.054-.006.08,0-.037.015-.084,0-.019a1.871,1.871,0,0,1-.1.347.521.521,0,0,0,.368.64.543.543,0,0,0,.647-.363,2.285,2.285,0,0,0-1.154-2.854,2.249,2.249,0,0,0-2.939,1.218,2.508,2.508,0,0,0-.11,1.155,2.309,2.309,0,0,0,.373,1.261.523.523,0,0,0,.745-.736" transform="translate(-1589.614 -879.439)" fill="#24221e"/>
      <path id="패스_2170" data-name="패스 2170" d="M1604.82,912.362a8.654,8.654,0,0,0,8,1.839.521.521,0,0,0-.28-1,7.489,7.489,0,0,1-2.926.219l-.088-.01c.013,0,.057.008-.005,0l-.174-.027q-.188-.031-.375-.071-.373-.079-.737-.193a6.9,6.9,0,0,1-1.306-.548,7.221,7.221,0,0,1-1.366-.941.543.543,0,0,0-.745,0,.521.521,0,0,0,0,.736" transform="translate(-1579.596 -881.788)" fill="#24221e"/>
      <path id="패스_2171" data-name="패스 2171" d="M1562.853,961.8c.7.316,1.513.143,1.348,1.186a4.937,4.937,0,0,1-1.419,1.413c-1.737.814-3.137-.976-3.8-2.406a12.217,12.217,0,0,1-.961-3.127,2.292,2.292,0,0,1,2.478-2.829,1.824,1.824,0,0,1,1.749.93c.271.642-.295,1.543-.98,1.386a1.944,1.944,0,0,1,1.8.338.98.98,0,0,1-.843,1.516,1.226,1.226,0,0,1,1.616.509c.238.58-.418,1.343-.994,1.083" transform="translate(-1546.949 -913.098)" fill="#ffe3d4"/>
      <path id="패스_2172" data-name="패스 2172" d="M1561.363,961.012a7.085,7.085,0,0,0,.877.284c.051.015.1.034.153.05.108.032-.089-.063,0,0a.31.31,0,0,0,.056.032c.089.033-.048-.059-.018-.017a.307.307,0,0,0,.055.055c-.067-.051-.053-.073-.027-.029.048.081-.029-.11.005.017.009.035.013.114.005,0,0,.03,0,.059,0,.088a1.4,1.4,0,0,0-.007.149c-.009-.067.012-.018,0-.013-.053.029.079-.114.024-.054a.464.464,0,0,0-.023.041c-.013.018-.026.037-.037.056-.063.106.068-.073,0,.007a7.92,7.92,0,0,1-.569.587q-.144.133-.294.258l-.126.1c.124-.1-.025.018-.059.039a.711.711,0,0,1-.266.116c-.074.023-.149.039-.225.055-.091.018.122-.005-.031.005-.049,0-.1.007-.145.008a1.833,1.833,0,0,1-.236-.012c.114.013-.1-.025-.135-.034-.068-.018-.135-.04-.2-.064-.085-.03.107.055-.026-.011-.043-.021-.086-.041-.128-.063q-.106-.056-.207-.123c-.034-.022-.067-.045-.1-.069s-.1-.078-.031-.022a4.058,4.058,0,0,1-.371-.339q-.089-.092-.173-.189l-.083-.1c-.012-.015-.081-.1-.031-.036-.111-.143-.214-.292-.311-.445a7.28,7.28,0,0,1-.476-.878,11.65,11.65,0,0,1-.82-2.568c-.022-.112-.043-.224-.062-.336-.007-.039-.014-.079-.019-.119.014.093,0-.015,0-.038a3.042,3.042,0,0,1-.009-.5c0-.03.006-.061.008-.091.011-.147-.024.1.005-.038.015-.071.028-.142.047-.211s.038-.12.057-.181c.009-.028.049-.115,0-.01.017-.037.035-.074.054-.111q.047-.09.1-.175c.015-.022.031-.044.046-.066.073-.111-.073.076.017-.022a2.584,2.584,0,0,1,.291-.281c-.1.08.068-.043.1-.062.061-.037.123-.072.186-.1l.078-.037c.129-.062-.1.031.038-.015.072-.024.143-.05.217-.07q.137-.039.278-.065l.1-.016c-.112.018.09-.009.11-.011a2.851,2.851,0,0,1,.574,0c-.087-.01,0,0,.016,0,.06.013.12.024.18.04.042.011.084.023.125.036,0,0,.155.058.068.021a2.3,2.3,0,0,1,.269.146c.012.007.081.058.016.007.046.036.086.078.129.117.016.015.087.1.031.026a1.007,1.007,0,0,1,.082.124c0-.005.066.139.039.071-.018-.045.024.095.028.112-.005-.024,0-.1,0,0,0,.045,0,.09,0,.136.006-.121-.006.018-.012.041a1.225,1.225,0,0,1-.041.13c.033-.09.008-.018,0,0-.027.045-.052.091-.082.135-.045.065.083-.073-.016.016-.033.029-.062.062-.1.09.094-.076-.019,0-.036.014-.088.056.078-.017-.031.01s0,.005.016,0c-.034,0-.2-.021-.078,0v1l.091-.013.094-.01q.124-.012.249-.018c.083,0,.165,0,.248,0q.068,0,.135.01c.089.009-.068-.014.018,0,.042.009.085.017.127.029.011,0,.136.043.083.023s.043.021.052.026a.925.925,0,0,1,.108.065c-.058-.042.01.013.03.033s.073.091.038.039.019.041.026.052c-.034-.056-.02-.051,0,.008,0,.013.026.1.011.029s0,.034,0,.052,0,.055,0,.082c-.006-.1.008-.037,0,0s-.07.2-.022.094a1.488,1.488,0,0,1-.106.182c.024-.037.042-.046,0-.007l-.074.074c-.041.04-.065.044-.007.009-.023.014-.048.028-.07.043-.095.067.055-.012-.005.006-.031.01-.068.016-.1.028.037-.015.084,0,.017,0-.043,0-.084,0-.127-.006l.266.97c-.087.038.066-.018.1-.025s.062-.014.093-.019c-.053.009-.045,0,0,0,.072,0,.143,0,.216,0s-.077-.018,0,0c.031.008.062.013.092.021s.06.019.09.028c.076.023-.066-.035,0,0l.082.043c.009,0,.089.057.042.023s.026.024.034.032.043.043.063.065c.05.054-.036-.062,0,0a1.1,1.1,0,0,1,.056.1c-.041-.095,0,.121,0,0,0,.03,0,.059,0,.089,0-.048.016-.06,0-.006-.009.029-.016.058-.025.087.014-.046.025-.043,0,0s-.107.156-.045.083c-.022.026-.138.132-.058.071-.029.022-.062.038-.093.058-.065.043.074-.038.008,0-.009.005-.1.031-.033.015s-.027.012-.035,0c-.03,0-.028,0,.006,0s.036.006.006,0a.709.709,0,0,0-.106-.036.521.521,0,1,0-.28,1c.979.4,1.938-.777,1.657-1.681a1.537,1.537,0,0,0-1.021-.963,1.932,1.932,0,0,0-1.385.1.52.52,0,0,0-.242.587.548.548,0,0,0,.507.382,1.53,1.53,0,0,0,1.506-1.864,1.473,1.473,0,0,0-1.057-1.005,3.66,3.66,0,0,0-1.547-.006c-.514.076-.49.907,0,1a1.5,1.5,0,0,0,1.708-1.649,2.1,2.1,0,0,0-2.079-1.68,3.379,3.379,0,0,0-2.335.661,2.656,2.656,0,0,0-.969,1.948,4.993,4.993,0,0,0,.146,1.339,12.224,12.224,0,0,0,.438,1.58,8.935,8.935,0,0,0,1.231,2.452,3.892,3.892,0,0,0,2.011,1.534,2.466,2.466,0,0,0,1.307-.014,2.416,2.416,0,0,0,.9-.5,7.178,7.178,0,0,0,.786-.743,1.448,1.448,0,0,0,.475-1.061,1.151,1.151,0,0,0-.631-1.055,2.8,2.8,0,0,0-.538-.186c-.091-.024-.182-.047-.271-.073l-.118-.037c-.023-.008-.191-.077-.071-.024a.547.547,0,0,0-.72.187.521.521,0,0,0,.189.712" transform="translate(-1545.725 -911.861)" fill="#24221e"/>
      <path id="패스_2173" data-name="패스 2173" d="M1633.455,979.852c.443.623.419,1.444,1.426,1.093a4.924,4.924,0,0,0,1.145-1.637c.492-1.837-1.545-2.87-3.088-3.25a12.594,12.594,0,0,0-3.285-.362,2.29,2.29,0,0,0-2.36,2.926,1.8,1.8,0,0,0,1.245,1.53c.688.146,1.481-.569,1.2-1.206.021.633.108,1.378.665,1.689a.988.988,0,0,0,1.354-1.1,1.2,1.2,0,0,0,.8,1.478c.62.125,1.259-.652.9-1.164" transform="translate(-1595.38 -926.91)" fill="#ffe3d4"/>
      <path id="패스_2174" data-name="패스 2174" d="M1631.776,978.884c.183.264.282.571.453.841a1.18,1.18,0,0,0,1,.594,1.343,1.343,0,0,0,1.01-.4,5.751,5.751,0,0,0,.617-.827,3.907,3.907,0,0,0,.44-.822,2.416,2.416,0,0,0,.063-1.2,2.979,2.979,0,0,0-1.341-1.816,6.531,6.531,0,0,0-2.075-.9,12.917,12.917,0,0,0-3.438-.4,3.19,3.19,0,0,0-2.217.811,2.83,2.83,0,0,0-.794,2.082,2.593,2.593,0,0,0,1.534,2.545c1.033.35,2.454-.669,2-1.8a.533.533,0,0,0-.578-.372.52.52,0,0,0-.456.511c.035.94.295,2.17,1.442,2.295a1.527,1.527,0,0,0,1.611-1.841.533.533,0,0,0-1.015,0,1.7,1.7,0,0,0,1.355,2.144,1.354,1.354,0,0,0,1.3-1.955.542.542,0,0,0-.72-.187.523.523,0,0,0-.189.712.814.814,0,0,1,.046.077c-.02-.04-.024-.057-.009,0-.014-.048.009-.07,0-.014s0,.029.009-.013c-.006.028-.015.055-.02.083-.022.117.027-.04,0,.017-.015.026-.031.051-.045.077-.036.065.051-.053,0,0-.02.022-.042.044-.063.066s-.079.067-.034.033-.138.074-.079.048-.152.032-.084.024-.03,0-.042,0c-.072-.008.109.042-.02,0-.029-.011-.06-.017-.089-.028.049.018.039.022,0,0s-.052-.031-.077-.048c.042.028.032.03,0,0s-.125-.142-.07-.066c-.037-.051-.065-.105-.1-.159-.022-.037-.023-.054,0,0-.011-.03-.022-.06-.031-.09s-.021-.076-.03-.115c0-.011-.016-.107-.01-.048s0-.039,0-.049c0-.031,0-.063,0-.095,0-.011.009-.108,0-.048s.017-.07.017-.069h-1.015c0,.015.029.135.019.061s0,.026,0,.039c0,.062-.017.077,0,.01-.008.027-.016.055-.022.083-.029.121.027-.044-.006.016l-.056.094c-.025.043-.032.037,0,0-.025.028-.052.054-.078.081s-.1.079-.015.019c-.024.018-.049.034-.075.05s-.065.036-.1.053c-.067.034.075-.021,0,0l-.106.029c-.062.017-.032,0,.01,0a.623.623,0,0,0-.108,0c-.072.009.119.013-.01-.007-.049-.008-.045-.016,0,.006a1.189,1.189,0,0,1-.1-.06c-.067-.042.047.046-.009-.007-.029-.028-.057-.055-.084-.085.035.039.017.027,0-.008s-.041-.068-.062-.1c-.009-.015-.055-.114-.019-.03-.013-.03-.024-.062-.034-.093a2.182,2.182,0,0,1-.066-.245c-.007-.034-.013-.068-.02-.1-.019-.093,0,.015-.008-.041-.02-.161-.029-.325-.035-.487l-1.034.138a1.131,1.131,0,0,1,.044.134c-.011-.043.015-.073,0,0-.04.141.046-.1,0,.038-.01.028-.016.057-.027.086.047-.127-.1.142-.029.048a.926.926,0,0,1-.065.071c-.022.023-.046.045-.07.066q.055-.039.009-.007a1.072,1.072,0,0,1-.1.065c.005,0-.138.062-.071.036s-.083.022-.076.021a.805.805,0,0,1-.1.02c.129-.016-.185-.036-.059-.007-.051-.012-.1-.025-.15-.042.081.027-.045-.021-.062-.03s-.058-.035-.088-.052c-.126-.069.049.055-.057-.041a2.059,2.059,0,0,1-.165-.163c-.064-.071.062.1-.031-.038-.025-.036-.05-.073-.073-.11a1.956,1.956,0,0,1-.137-.258c.032.074-.009-.031-.016-.049-.015-.042-.028-.084-.04-.127a2.352,2.352,0,0,1-.059-.257c-.006-.034-.012-.069-.016-.1.014.107,0-.059-.005-.066-.007-.082-.011-.164-.013-.247s0-.158.006-.237c0-.046.007-.092.012-.138,0,.02-.019.1,0,0a3.515,3.515,0,0,1,.121-.459c.007-.022.039-.092-.006.009.014-.032.029-.062.044-.093.031-.061.064-.12.1-.177.02-.032.121-.168.046-.075a2.157,2.157,0,0,1,.162-.179c.049-.047.1-.091.152-.134-.1.08.066-.043.1-.061.054-.034.109-.064.165-.093l.1-.046c.108-.051-.07.02.037-.014a3.8,3.8,0,0,1,.444-.12l.1-.016c-.118.019.045,0,.057-.006.1-.009.2-.013.294-.015a11.932,11.932,0,0,1,2.828.279,8.294,8.294,0,0,1,.97.271q.11.039.219.081c.011,0,.156.063.049.019l.087.037c.151.067.3.14.446.219.13.071.257.148.38.231.027.018.2.144.116.081.071.056.14.114.206.175s.107.1.157.155l.058.065s.091.109.042.047.036.05.036.05c.021.029.04.059.059.088.042.066.076.135.114.2.065.117-.023-.067.006.01.013.033.025.066.036.1a1.783,1.783,0,0,1,.055.2c.006.028.01.057.015.085-.022-.13,0,.014,0,.035a1.885,1.885,0,0,1,0,.226c0,.015-.018.167,0,.049,0,.032-.011.065-.017.1-.012.061-.03.12-.045.18-.028.109.06-.118,0,.007-.029.057-.059.115-.09.172a7.6,7.6,0,0,1-.491.77l-.073.1c-.079.108.07-.081-.014.017-.044.052-.087.1-.134.155-.021.023-.142.138-.063.067s.026-.018,0-.007c.193-.1.043-.02-.013,0-.041.012-.083.021-.125.03s-.031.007.027,0c-.028,0-.055,0-.083,0-.045.005-.071-.028.029.009-.018-.006-.146-.055-.065-.013s-.01-.013-.021-.02c.114.071.038.033.01,0-.008-.01-.074-.093-.022-.022s-.027-.048-.035-.061c-.159-.264-.259-.556-.435-.811a.543.543,0,0,0-.72-.187.522.522,0,0,0-.189.712" transform="translate(-1594.156 -925.679)" fill="#24221e"/>
      <path id="패스_2175" data-name="패스 2175" d="M1568.481,834.746l1.72,1.526a.541.541,0,0,0,.745,0,.523.523,0,0,0,0-.736l-1.721-1.526a.54.54,0,0,0-.744,0,.523.523,0,0,0,0,.736" transform="translate(-1554.187 -827.248)" fill="#24221e"/>
      <path id="패스_2176" data-name="패스 2176" d="M1562.251,850.478a4.859,4.859,0,0,1,.519.18l-.126-.053a4.682,4.682,0,0,1,1.025.589l-.106-.082q.08.062.158.126a.568.568,0,0,0,.373.152.538.538,0,0,0,.372-.152.522.522,0,0,0,0-.736,5.263,5.263,0,0,0-1.933-1.028.521.521,0,1,0-.28,1" transform="translate(-1549.669 -838.206)" fill="#24221e"/>
      <path id="패스_2177" data-name="패스 2177" d="M1556.586,866.6l1.7.5a.521.521,0,1,0,.28-1l-1.7-.5a.521.521,0,1,0-.279,1" transform="translate(-1545.708 -849.536)" fill="#24221e"/>
      <path id="패스_2178" data-name="패스 2178" d="M1553.133,886.5l1.568.516a.521.521,0,1,0,.28-1l-1.568-.516a.521.521,0,1,0-.28,1" transform="translate(-1543.293 -863.517)" fill="#24221e"/>
      <path id="패스_2179" data-name="패스 2179" d="M1552.4,906.046l1.7.155a.523.523,0,0,0,.526-.52.521.521,0,0,0-.154-.368.6.6,0,0,0-.372-.153l-1.7-.155a.53.53,0,0,0-.372.153.516.516,0,0,0,0,.735.6.6,0,0,0,.372.153" transform="translate(-1542.679 -877.238)" fill="#24221e"/>
      <path id="패스_2180" data-name="패스 2180" d="M1553.1,924.432a3.642,3.642,0,0,0,1.019.033,3.988,3.988,0,0,0,.557-.1,4.115,4.115,0,0,0,.527-.192.518.518,0,0,0,.189-.712.53.53,0,0,0-.315-.239.622.622,0,0,0-.405.052l-.028.012.126-.052a3.159,3.159,0,0,1-.761.207l.14-.019a3.181,3.181,0,0,1-.819,0l.14.019-.09-.013a.579.579,0,0,0-.405.053.533.533,0,0,0-.242.311.523.523,0,0,0,.053.4.508.508,0,0,0,.314.239" transform="translate(-1543.269 -890.028)" fill="#24221e"/>
      <path id="패스_2181" data-name="패스 2181" d="M1557.326,940.743l1.952-.42a.523.523,0,0,0,.368-.64.539.539,0,0,0-.647-.364l-1.953.42a.524.524,0,0,0-.367.64.539.539,0,0,0,.647.363" transform="translate(-1546.025 -901.341)" fill="#24221e"/>
      <path id="패스_2182" data-name="패스 2182" d="M1582.18,980.145a5.866,5.866,0,0,0-.874.6,4.4,4.4,0,0,0-.695.643.559.559,0,0,0-.154.368.526.526,0,0,0,.154.368.532.532,0,0,0,.372.152.514.514,0,0,0,.372-.152,4.688,4.688,0,0,1,.8-.722l-.106.081a4.858,4.858,0,0,1,.667-.443.521.521,0,0,0,.189-.712.541.541,0,0,0-.72-.187" transform="translate(-1562.666 -929.991)" fill="#24221e"/>
      <path id="패스_2183" data-name="패스 2183" d="M1598.2,993.944l-.689,1.4a.552.552,0,0,0-.053.4.53.53,0,0,0,.242.311.536.536,0,0,0,.72-.187l.688-1.4a.549.549,0,0,0,.053-.4.53.53,0,0,0-.242-.311.537.537,0,0,0-.72.187" transform="translate(-1574.541 -939.558)" fill="#24221e"/>
      <path id="패스_2184" data-name="패스 2184" d="M1635.394,1005.461l-.166,1.546a.517.517,0,0,0,.154.368.531.531,0,0,0,.744,0,.591.591,0,0,0,.154-.368q.083-.773.166-1.546a.517.517,0,0,0-.154-.368.531.531,0,0,0-.744,0,.589.589,0,0,0-.154.368" transform="translate(-1600.964 -947.461)" fill="#24221e"/>
      <path id="패스_2185" data-name="패스 2185" d="M1617.189,1000.559q-.261.9-.522,1.808a.526.526,0,0,0,.368.64.537.537,0,0,0,.647-.363q.261-.9.522-1.809a.526.526,0,0,0-.368-.64.538.538,0,0,0-.647.364" transform="translate(-1587.974 -944.117)" fill="#24221e"/>
      <path id="패스_2186" data-name="패스 2186" d="M1654.572,1005.547a8.276,8.276,0,0,1,.163.849l-.019-.138c.026.194.045.388.057.583a.549.549,0,0,0,.154.368.541.541,0,0,0,.373.153.53.53,0,0,0,.526-.52,8.839,8.839,0,0,0-.239-1.571.526.526,0,0,0-1.015.277" transform="translate(-1614.48 -947.423)" fill="#24221e"/>
      <path id="패스_2187" data-name="패스 2187" d="M1673.657,1002.938l.46,1.568a.535.535,0,0,0,.647.364.528.528,0,0,0,.367-.64l-.46-1.568a.534.534,0,0,0-.647-.363.529.529,0,0,0-.368.64" transform="translate(-1627.822 -945.59)" fill="#24221e"/>
      <path id="패스_2188" data-name="패스 2188" d="M1580.347,1018.334l1.172,1.165a.544.544,0,0,0,.372.153.538.538,0,0,0,.373-.153.522.522,0,0,0,.154-.368.541.541,0,0,0-.154-.368l-1.173-1.166a.546.546,0,0,0-.372-.152.538.538,0,0,0-.372.152.522.522,0,0,0-.155.368.541.541,0,0,0,.155.368" transform="translate(-1562.481 -956.249)" fill="#24221e"/>
      <path id="패스_2189" data-name="패스 2189" d="M1573.88,1032.794l1.266.882a.53.53,0,0,0,.72-.187.518.518,0,0,0,.053-.4.586.586,0,0,0-.242-.311l-1.266-.882a.53.53,0,0,0-.72.187.52.52,0,0,0-.053.4.587.587,0,0,0,.242.311" transform="translate(-1557.884 -966.353)" fill="#24221e"/>
      <path id="패스_2190" data-name="패스 2190" d="M1570.211,1048.509a3.841,3.841,0,0,1,.944.005l-.14-.019c.113.015.224.035.334.06a.56.56,0,0,0,.406-.053.527.527,0,0,0,.242-.31.519.519,0,0,0-.053-.4.53.53,0,0,0-.315-.239,4.224,4.224,0,0,0-1.418-.083.577.577,0,0,0-.372.152.515.515,0,0,0,0,.735.508.508,0,0,0,.372.153" transform="translate(-1555.134 -977.326)" fill="#24221e"/>
      <path id="패스_2191" data-name="패스 2191" d="M1570,1064.352l1.58-.442a.527.527,0,0,0,.367-.64.536.536,0,0,0-.647-.363l-1.58.442a.527.527,0,0,0-.368.64.536.536,0,0,0,.648.364" transform="translate(-1554.885 -988.18)" fill="#24221e"/>
    </g>
    <g id="마스크_그룹_113" data-name="마스크 그룹 113" transform="translate(-9.001 3.511) rotate(-16)" clip-path="url(#clip-path-2)">
      <path id="free-icon-musical-note-727218" d="M5.934,5.928a3.872,3.872,0,0,0,.519-1.7A2.38,2.38,0,0,0,6.2,3.041,3.342,3.342,0,0,0,4.912,1.77,3.647,3.647,0,0,1,3.958.965L3.915.906a1.587,1.587,0,0,1-.333-.6A.363.363,0,0,0,3.2,0a.358.358,0,0,0-.333.357V6.747a2.074,2.074,0,0,0-1.076-.294A1.646,1.646,0,0,0,0,7.887,1.646,1.646,0,0,0,1.793,9.321,1.646,1.646,0,0,0,3.585,7.887V3.708A2.581,2.581,0,0,1,5.248,5.662a2.022,2.022,0,0,1-.138.2.358.358,0,1,0,.538.473,2.666,2.666,0,0,0,.263-.37A.226.226,0,0,0,5.934,5.928Z" transform="translate(1.432 0)"/>
    </g>
    <g id="마스크_그룹_111" data-name="마스크 그룹 111" transform="matrix(0.966, 0.259, -0.259, 0.966, 44.744, 7.275)" clip-path="url(#clip-path-2)">
      <path id="free-icon-musical-note-727218-2" data-name="free-icon-musical-note-727218" d="M5.934,5.928a3.872,3.872,0,0,0,.519-1.7A2.38,2.38,0,0,0,6.2,3.041,3.342,3.342,0,0,0,4.912,1.77,3.647,3.647,0,0,1,3.958.965L3.915.906a1.587,1.587,0,0,1-.333-.6A.363.363,0,0,0,3.2,0a.358.358,0,0,0-.333.357V6.747a2.074,2.074,0,0,0-1.076-.294A1.646,1.646,0,0,0,0,7.887,1.646,1.646,0,0,0,1.793,9.321,1.646,1.646,0,0,0,3.585,7.887V3.708A2.581,2.581,0,0,1,5.248,5.662a2.022,2.022,0,0,1-.138.2.358.358,0,1,0,.538.473,2.666,2.666,0,0,0,.263-.37A.226.226,0,0,0,5.934,5.928Z" transform="translate(1.432 0)"/>
    </g>
    <path id="패스_2242" data-name="패스 2242" d="M1.115,0A4.77,4.77,0,0,0,.382,4.979" transform="translate(-3.646 31.104) rotate(-9)" fill="none" stroke="#000" stroke-linecap="round" stroke-width="1"/>
    <path id="패스_2244" data-name="패스 2244" d="M1.115,4.979A4.77,4.77,0,0,1,.382,0" transform="translate(56.95 53.332) rotate(180)" fill="none" stroke="#000" stroke-linecap="round" stroke-width="1"/>
    <path id="패스_2241" data-name="패스 2241" d="M1.453,0A7.568,7.568,0,0,0,.5,7.265" transform="matrix(0.951, -0.309, 0.309, 0.951, -7.385, 31.028)" fill="none" stroke="#000" stroke-linecap="round" stroke-width="1"/>
    <path id="패스_2243" data-name="패스 2243" d="M1.453,7.265A7.568,7.568,0,0,1,.5,0" transform="matrix(-0.988, -0.156, 0.156, -0.988, 59.863, 54.844)" fill="none" stroke="#000" stroke-linecap="round" stroke-width="1"/>
  </g>
</svg>
