<svg xmlns="http://www.w3.org/2000/svg" xmlns:xlink="http://www.w3.org/1999/xlink" width="70" height="56" viewBox="0 0 70 56">
  <defs>
    <clipPath id="clip-path">
      <rect id="사각형_1077" data-name="사각형 1077" width="49" height="51.142" fill="#fff" stroke="#707070" stroke-width="1"/>
    </clipPath>
  </defs>
  <g id="img" transform="translate(3.646 -4.085)">
    <g id="마스크_그룹_117" data-name="마스크 그룹 117" transform="translate(0.999 8.942)" clip-path="url(#clip-path)">
      <g id="그룹_1304" data-name="그룹 1304" transform="translate(0.604 2.527)">
        <path id="패스_2491" data-name="패스 2491" d="M477,516.137c.13-.8,1.108-1.128,1.6-1.778a3.337,3.337,0,0,0,.5-1.72,3.054,3.054,0,0,0-.476-2.477c-.258-.264-.609-.428-.843-.714s-.317-.627-.513-.917a1.561,1.561,0,0,0-1.733-.59,1.077,1.077,0,0,1-.39.1,1.973,1.973,0,0,1-.389-.119c-.563-.154-1.04.434-1.284.965a.812.812,0,0,1-.241.352,1.148,1.148,0,0,1-.534.107,1.2,1.2,0,0,0-1.027,1.1c-.006.113-.005.246-.1.311a.412.412,0,0,1-.254.031c-.665-.019-1,.813-1,1.48a4.354,4.354,0,0,0,6.341,3.84" transform="translate(-469.881 -494.597)" fill="#ffd8c7"/>
        <path id="패스_2492" data-name="패스 2492" d="M476.328,515.191a1.275,1.275,0,0,1,.029-.13c.008-.027.017-.055.028-.082,0,.009-.022.048,0,0s.04-.075.062-.111c.011-.018.023-.036.035-.053.076-.109-.024.026.026-.032a3.244,3.244,0,0,1,.446-.412,4.713,4.713,0,0,0,.946-.883,3.293,3.293,0,0,0,.5-1.561,7.834,7.834,0,0,0,.078-1.495,2.636,2.636,0,0,0-.454-1.412,2.816,2.816,0,0,0-.614-.576,1.647,1.647,0,0,1-.465-.444c-.137-.225-.224-.477-.365-.7a1.98,1.98,0,0,0-2-.893c-.19.03-.4.171-.576.113a1.344,1.344,0,0,0-.8-.085,1.912,1.912,0,0,0-1.11,1.006c-.054.1-.1.209-.152.308-.041.071-.046.074-.113.083a2.42,2.42,0,0,0-.766.168,1.629,1.629,0,0,0-.884,1.159c-.012.07-.02.141-.025.212,0,.025.007.113-.007.083l.189-.165-.054,0a.648.648,0,0,0-.075,0,1.364,1.364,0,0,0-.221.023,1.194,1.194,0,0,0-.6.316,2.066,2.066,0,0,0-.563,1.274,4.5,4.5,0,0,0,.734,2.813,4.778,4.778,0,0,0,2.334,1.917,4.862,4.862,0,0,0,3.131.091,5.006,5.006,0,0,0,.766-.314.428.428,0,0,0-.431-.74,3.975,3.975,0,0,1-2.634.318,3.867,3.867,0,0,1-2.179-1.353,4.02,4.02,0,0,1-.88-2.273,1.6,1.6,0,0,1,.218-1c.07-.112-.048.046.036-.051a.914.914,0,0,1,.088-.089c.09-.08-.06.028.044-.029.011-.006.123-.049.044-.024.009,0,.136-.027.048-.017a1.111,1.111,0,0,1,.14,0,.694.694,0,0,0,.5-.159.659.659,0,0,0,.2-.351,1.524,1.524,0,0,0,.025-.214c0,.009.017-.148.005-.082a.734.734,0,0,1,.211-.41.716.716,0,0,1,.4-.224,1.959,1.959,0,0,0,.733-.166,1.341,1.341,0,0,0,.439-.6,1.849,1.849,0,0,1,.355-.51.65.65,0,0,1,.188-.139.284.284,0,0,1,.138-.037.575.575,0,0,1,.186.047,1.2,1.2,0,0,0,.449.1,4.948,4.948,0,0,0,.627-.158,1.086,1.086,0,0,1,.578.07,1.173,1.173,0,0,1,.4.263,2.186,2.186,0,0,1,.339.573,2.335,2.335,0,0,0,.407.62,4.789,4.789,0,0,0,.56.448,1.447,1.447,0,0,1,.569.957,5.352,5.352,0,0,1-.014,1.458,2.8,2.8,0,0,1-.4,1.4,5.457,5.457,0,0,1-.937.82,1.948,1.948,0,0,0-.738,1.106.441.441,0,0,0,.3.528.431.431,0,0,0,.526-.3" transform="translate(-468.799 -493.538)" fill="#161616"/>
        <path id="패스_2493" data-name="패스 2493" d="M609.531,685.214a3.654,3.654,0,0,1,2.627,1.309,10.912,10.912,0,0,0,2.223,2.039,1.547,1.547,0,0,0,1.659.067c.6-.467.447-1.4.215-2.129a43.723,43.723,0,0,0-2.333-5.822c-.383-.786-.9-1.65-1.764-1.8a2.744,2.744,0,0,0-1.243.168,33.863,33.863,0,0,0-3.991,1.494" transform="translate(-567.559 -616.72)" fill="#c08adb"/>
        <path id="패스_2494" data-name="패스 2494" d="M608.467,684.59c1.646-.066,2.652,1.668,3.738,2.634a3.175,3.175,0,0,0,2.2.992,1.48,1.48,0,0,0,1.11-.587,1.761,1.761,0,0,0,.312-1.044,7.144,7.144,0,0,0-.584-2.34q-.456-1.307-.994-2.583c-.358-.852-.726-1.709-1.157-2.528a3.313,3.313,0,0,0-1.45-1.58,2.314,2.314,0,0,0-1.514-.08c-.5.121-.995.3-1.483.462-1.017.348-2.017.745-3,1.183a.433.433,0,0,0-.154.587.438.438,0,0,0,.585.154q1.185-.529,2.411-.964.606-.215,1.22-.407a3.365,3.365,0,0,1,1.224-.251,1.8,1.8,0,0,1,1.27,1.056,20.5,20.5,0,0,1,1.052,2.2q.5,1.156.936,2.341.226.618.434,1.243a8.132,8.132,0,0,1,.308,1.067,1.741,1.741,0,0,1-.012.791.588.588,0,0,1-.154.256.614.614,0,0,1-.347.163,1.505,1.505,0,0,1-.837-.194,4.134,4.134,0,0,1-.857-.626c-.627-.577-1.147-1.263-1.8-1.81a3.676,3.676,0,0,0-2.452-1,.437.437,0,0,0-.427.429.432.432,0,0,0,.427.429" transform="translate(-566.494 -615.668)" fill="#161616"/>
        <path id="패스_2495" data-name="패스 2495" d="M624.773,699.407c-.041-.138-.076-.277-.1-.417-.015-.076-.028-.152-.04-.228-.018-.111.01.095,0-.017,0-.039-.009-.077-.013-.115a4.687,4.687,0,0,1,0-.876.43.43,0,0,0-.427-.429.439.439,0,0,0-.427.429,5.006,5.006,0,0,0,.19,1.882.428.428,0,1,0,.824-.228" transform="translate(-579.582 -629.908)" fill="#161616"/>
        <path id="패스_2496" data-name="패스 2496" d="M542.349,749.248a3.362,3.362,0,0,1-.52,2.642,10.025,10.025,0,0,0-1.26,2.459,1.425,1.425,0,0,0,.34,1.485c.556.42,1.343.058,1.927-.322a39.862,39.862,0,0,0,4.566-3.468,2.592,2.592,0,0,0,1.157-2,2.53,2.53,0,0,0-.448-1.061,31.165,31.165,0,0,0-2.277-3.175" transform="translate(-520.069 -664.539)" fill="#c08adb"/>
        <path id="패스_2497" data-name="패스 2497" d="M540.854,748.293a2.745,2.745,0,0,1-.343,2.066c-.351.677-.817,1.29-1.137,1.985a2.8,2.8,0,0,0-.268,2.123,1.378,1.378,0,0,0,.687.777,1.646,1.646,0,0,0,1.153.06,7.144,7.144,0,0,0,2.018-1.161q1.031-.717,2.016-1.5c.631-.5,1.263-1.007,1.85-1.557a2.951,2.951,0,0,0,1.077-1.889,2.311,2.311,0,0,0-.382-1.286c-.234-.4-.494-.786-.754-1.17q-.807-1.188-1.718-2.3a.43.43,0,0,0-.6,0,.44.44,0,0,0,0,.607q.721.885,1.374,1.823.337.483.655.981a4.4,4.4,0,0,1,.5.889,1.481,1.481,0,0,1-.532,1.52,17.679,17.679,0,0,1-1.658,1.445q-.864.7-1.77,1.35a16.581,16.581,0,0,1-1.852,1.234,1.626,1.626,0,0,1-.814.234.512.512,0,0,1-.45-.344c.008.021-.025-.092-.032-.125a.493.493,0,0,1-.02-.129,1.976,1.976,0,0,1,0-.226,1.007,1.007,0,0,1,.016-.161,3.447,3.447,0,0,1,.324-.929c.355-.712.848-1.348,1.181-2.072a3.454,3.454,0,0,0,.3-2.474c-.164-.525-.99-.3-.825.228" transform="translate(-518.987 -663.47)" fill="#161616"/>
        <path id="패스_2498" data-name="패스 2498" d="M514.749,631.308c-.817,4.63-1.556,8.753-1.147,13.595a75.275,75.275,0,0,0,2.478,13.3c.742,2.74,1.572,7.655,4.094,9.407a3.609,3.609,0,0,0,3,.355,10.7,10.7,0,0,0,2.779-1.405,3.362,3.362,0,0,0,1.125-.979,3.314,3.314,0,0,0,.376-1.308,94.238,94.238,0,0,0,.9-13.556c-.021-3.651.659-7.108.476-10.739" transform="translate(-500.75 -582.758)" fill="#fff"/>
        <path id="패스_2499" data-name="패스 2499" d="M513.3,630.128c-.431,2.443-.868,4.89-1.1,7.362a37.7,37.7,0,0,0,.054,7.548,70.531,70.531,0,0,0,1.269,7.7c.463,2.11,1.039,4.19,1.557,6.286a26.02,26.02,0,0,0,1.686,5.153,8.016,8.016,0,0,0,1.412,2.1,4.251,4.251,0,0,0,.994.784,3.708,3.708,0,0,0,1.648.426,6.315,6.315,0,0,0,3.314-1.013,16.674,16.674,0,0,0,1.462-.923,2.712,2.712,0,0,0,1.064-1.378,10.574,10.574,0,0,0,.308-1.867q.126-.969.231-1.939.215-1.978.346-3.963.13-1.967.178-3.938c.032-1.322,0-2.646.041-3.968.077-2.562.433-5.108.486-7.672.013-.64.007-1.281-.024-1.92a.437.437,0,0,0-.427-.429.432.432,0,0,0-.428.429,62.557,62.557,0,0,1-.351,7.538c-.184,2.558-.1,5.123-.206,7.684s-.32,5.127-.636,7.675c-.075.6-.131,1.216-.256,1.81a1.847,1.847,0,0,1-.734,1.181,15.109,15.109,0,0,1-1.429.907,7.8,7.8,0,0,1-1.514.713,3.29,3.29,0,0,1-2.892-.247l-.1-.071c-.068-.049-.025-.019-.011-.007l-.048-.038c-.075-.061-.148-.124-.219-.189a5.154,5.154,0,0,1-.382-.393,4.254,4.254,0,0,1-.325-.41q-.177-.249-.333-.511a18.051,18.051,0,0,1-1.8-4.837c-.2-.771-.381-1.547-.579-2.319-.286-1.109-.586-2.214-.852-3.328a74.344,74.344,0,0,1-1.4-7.408,40.353,40.353,0,0,1-.374-7.467,60.325,60.325,0,0,1,.887-7.06q.153-.887.311-1.774a.441.441,0,0,0-.3-.527.431.431,0,0,0-.526.3" transform="translate(-499.71 -581.692)" fill="#161616"/>
        <path id="패스_2500" data-name="패스 2500" d="M535.789,644.253c3.623,5.924,6.608,13.148,14.777,12.986a18.774,18.774,0,0,0,3.487-.459c3.568-.752,5.764-1.151,5.544-5.172-.093-1.705-.413-3.753-1.98-4.422-1.344-.574-3,.2-4.315-.426a4.183,4.183,0,0,1-1.752-2.18c-1.74-3.762-2.851-7.128-5.328-10.542" transform="translate(-516.697 -584.708)" fill="#fff"/>
        <path id="패스_2501" data-name="패스 2501" d="M534.329,643.4c.921,1.507,1.777,3.052,2.695,4.561a30.385,30.385,0,0,0,3.041,4.285,13.311,13.311,0,0,0,3.9,3.142,11.533,11.533,0,0,0,5.324,1.213,19.481,19.481,0,0,0,3.881-.5c.81-.171,1.626-.332,2.419-.573a5.872,5.872,0,0,0,1.857-.867,3.553,3.553,0,0,0,1.213-1.646,6.379,6.379,0,0,0,.272-2.527,9.244,9.244,0,0,0-.491-2.777,3.332,3.332,0,0,0-1.906-2.054c-1.061-.395-2.2-.069-3.3-.148a2.172,2.172,0,0,1-1.3-.509,4.087,4.087,0,0,1-.865-1.2c-.546-1.048-.989-2.156-1.457-3.24a47.453,47.453,0,0,0-3.109-6.308q-.48-.772-1.012-1.508a.439.439,0,0,0-.585-.154.433.433,0,0,0-.154.586,33.478,33.478,0,0,1,3.377,6.106c.472,1.064.924,2.138,1.394,3.2a10.448,10.448,0,0,0,1.581,2.893,2.929,2.929,0,0,0,1.378.865,5.137,5.137,0,0,0,1.635.116,9.155,9.155,0,0,1,1.612-.02,2.5,2.5,0,0,1,.636.168,2.231,2.231,0,0,1,.28.153c.044.028.087.057.13.088,0,0,.056.044.027.021s.036.031.042.036a2.648,2.648,0,0,1,.7.975,4.6,4.6,0,0,1,.2.56c.064.218.115.439.158.662a10.238,10.238,0,0,1,.162,2.649c-.008.1-.018.2-.031.3.01-.074-.008.048-.011.069-.009.052-.018.1-.028.157a4.2,4.2,0,0,1-.132.507c-.024.072-.051.143-.078.214.031-.08,0,.008-.017.038s-.038.08-.058.12a3.564,3.564,0,0,1-.234.384c-.055.081.029-.032-.019.026-.02.024-.039.048-.06.072-.05.059-.1.116-.158.171s-.1.1-.159.148c-.023.021-.048.04-.072.06-.078.066.044-.029-.038.03a4.726,4.726,0,0,1-.811.464c-.031.014-.095.041-.025.012l-.115.047q-.126.05-.253.1c-.166.059-.334.112-.5.162-.369.109-.743.2-1.118.285-1.034.235-2.077.467-3.129.6a11.6,11.6,0,0,1-5.727-.572c-.219-.084-.3-.118-.507-.212q-.277-.127-.546-.27a10.981,10.981,0,0,1-1.032-.623,10.084,10.084,0,0,1-.9-.687q-.471-.4-.905-.835a22.565,22.565,0,0,1-3.031-3.918c-.932-1.458-1.778-2.969-2.657-4.46q-.319-.541-.646-1.077c-.287-.469-1.027-.039-.738.433" transform="translate(-515.607 -583.64)" fill="#161616"/>
        <path id="패스_2502" data-name="패스 2502" d="M545.029,765.337c.113-.071.23-.137.35-.2.064-.032.129-.061.194-.091s-.087.035,0,0l.1-.039a4.219,4.219,0,0,1,.773-.211.429.429,0,0,0,.255-.2.429.429,0,0,0-.483-.63,4.562,4.562,0,0,0-1.617.624.428.428,0,0,0,.432.74" transform="translate(-522.844 -677.503)" fill="#161616"/>
        <path id="패스_2503" data-name="패스 2503" d="M482.6,533.806a4.978,4.978,0,0,0-.866-1.859,1.93,1.93,0,0,0-1.632-.117c-2.169.489-5.6.727-5.488,3.48a30.723,30.723,0,0,0,1.858,8.862,10.036,10.036,0,0,0,1.888,3.509,9.4,9.4,0,0,0,2.757,1.93c2.7,1.358,6.6,2.76,9.778,1.16,3.1-1.559,7.056-2.9,8.152-6.59a5.071,5.071,0,0,0-1.99-5.725c-2.086-1.3-4.92-.9-7.525-.638a7.844,7.844,0,0,1-2.237,0,5.329,5.329,0,0,1-2.124-1,9.119,9.119,0,0,1-2.343-2.538,2.842,2.842,0,0,1-.228-.477" transform="translate(-472.951 -511.625)" fill="#7fa1db"/>
        <path id="패스_2504" data-name="패스 2504" d="M481.926,532.625a8.647,8.647,0,0,0-.678-1.693,1.636,1.636,0,0,0-1.629-.7c-.5.05-.984.182-1.473.277-.432.085-.865.167-1.294.265a7.02,7.02,0,0,0-2.477.956,2.85,2.85,0,0,0-1.273,2.237,12.514,12.514,0,0,0,.138,2.035q.132,1.135.352,2.258a34.436,34.436,0,0,0,1.137,4.248,13.919,13.919,0,0,0,1.686,3.718,8.551,8.551,0,0,0,3.1,2.54,15.5,15.5,0,0,0,7.225,2.085,8.006,8.006,0,0,0,1.945-.259,9.475,9.475,0,0,0,1.708-.7c.943-.462,1.9-.892,2.833-1.376a10.274,10.274,0,0,0,4.665-4.1,6.073,6.073,0,0,0,.692-3.344,5.561,5.561,0,0,0-1.36-3.185c-1.756-1.965-4.626-1.954-7.039-1.741-.672.059-1.342.138-2.014.2a6.121,6.121,0,0,1-2.12-.075,6.609,6.609,0,0,1-3.117-2.159,5.439,5.439,0,0,1-1.008-1.491.44.44,0,0,0-.526-.3.432.432,0,0,0-.3.528,6.351,6.351,0,0,0,1.074,1.686,8.947,8.947,0,0,0,1.343,1.318,7.24,7.24,0,0,0,1.7,1.037,5.1,5.1,0,0,0,2.027.367c.68-.007,1.358-.1,2.034-.166.642-.066,1.285-.128,1.93-.161a9.462,9.462,0,0,1,3.545.352,4.265,4.265,0,0,1,2.354,1.891,4.846,4.846,0,0,1,.61,3.022,5.658,5.658,0,0,1-1.153,2.722.211.211,0,0,1-.018.023l-.058.073-.1.125q-.127.15-.263.294c-.165.175-.338.342-.517.5a9.55,9.55,0,0,1-1.149.874,22.829,22.829,0,0,1-2.657,1.46c-.451.218-.9.43-1.355.646s-.92.479-1.4.657c-2.3.852-4.846.269-7.051-.608a17.224,17.224,0,0,1-3.17-1.606,6.651,6.651,0,0,1-1.386-1.208,7.328,7.328,0,0,1-.986-1.564,23.457,23.457,0,0,1-1.345-3.744,31.256,31.256,0,0,1-.925-4.189c-.1-.688-.17-1.382-.209-2.076a4.722,4.722,0,0,1,0-.8c-.009.08.007-.036.011-.061q.014-.075.033-.149a2.332,2.332,0,0,1,.091-.279c.024-.06-.029.061,0,0,.011-.021.02-.043.031-.064q.027-.055.058-.109t.073-.119l.039-.057c.007-.009.065-.086.029-.04s.04-.047.055-.063c.03-.035.062-.069.095-.1.066-.067.136-.129.207-.19l.056-.045c-.066.051-.015.012,0,0,.04-.027.078-.056.118-.083.082-.055.166-.105.251-.153s.166-.089.251-.13c.046-.022.093-.043.139-.064l.053-.023c-.082.036.035-.014.042-.017a13.56,13.56,0,0,1,2.479-.648c.414-.081.825-.171,1.238-.254a2.334,2.334,0,0,1,.744-.053.631.631,0,0,1,.29.108.666.666,0,0,1,.157.175,7.657,7.657,0,0,1,.592,1.488.44.44,0,0,0,.526.3.432.432,0,0,0,.3-.528" transform="translate(-471.87 -510.557)" fill="#161616"/>
        <path id="패스_2505" data-name="패스 2505" d="M581.356,564.893c2.847,1.634,5.553,3.1,7.817,5.535l1.871,2.009c3.177,3.411,4.56,7.791.787,11.549a6.452,6.452,0,0,1-4.991,1.835,10.576,10.576,0,0,1-3.757-1.2,30.893,30.893,0,0,1-4.972-3.05" transform="translate(-546.958 -535.324)" fill="#7fa1db"/>
        <path id="패스_2506" data-name="패스 2506" d="M580.068,564.188a37.677,37.677,0,0,1,6.624,4.382c.525.472,1.009.982,1.491,1.5.521.56,1.047,1.117,1.565,1.681a12.623,12.623,0,0,1,2.033,2.9,7.546,7.546,0,0,1,.824,3.073,5.952,5.952,0,0,1-.759,3.086,7.141,7.141,0,0,1-2.568,2.708,6.046,6.046,0,0,1-3.509.807,10.814,10.814,0,0,1-3.953-1.345,30.922,30.922,0,0,1-3.711-2.227q-.43-.3-.85-.617a.43.43,0,0,0-.585.154.44.44,0,0,0,.153.586A31.1,31.1,0,0,0,580.6,583.3a15.831,15.831,0,0,0,4.126,1.72,6.891,6.891,0,0,0,4.062-.323,7.6,7.6,0,0,0,3.2-2.554,7.2,7.2,0,0,0,1.418-3.418,7.369,7.369,0,0,0-.418-3.412,11.79,11.79,0,0,0-1.851-3.244c-.426-.545-.9-1.047-1.369-1.552-.541-.581-1.073-1.172-1.627-1.74a29.748,29.748,0,0,0-6.73-4.806l-.914-.523a.429.429,0,0,0-.432.74" transform="translate(-545.885 -534.249)" fill="#161616"/>
        <path id="패스_2507" data-name="패스 2507" d="M536.773,563.927q-.234,3.774-.468,7.548c-.1,1.625-.2,3.253-.438,4.865a7.03,7.03,0,0,1-1.163,3.334c-1.188,1.541-3.189,1.261-4.914,1.176l-16.268-.8a1.385,1.385,0,0,1-.831-.222,1.406,1.406,0,0,1-.309-1.215A154.163,154.163,0,0,1,514.87,559.5c.822-4.231,2.276-9.336,7.347-10.15a9.53,9.53,0,0,1,3.022.108c2.989.482,6.4.8,8.938,2.622,3.494,2.509,2.868,7.461,2.635,11.216q-.019.313-.039.627" transform="translate(-499.954 -524.168)" fill="#7fa1db"/>
        <path id="패스_2508" data-name="패스 2508" d="M535.266,562.862l-.353,5.7c-.116,1.87-.2,3.746-.41,5.609a16.322,16.322,0,0,1-.418,2.462,4.389,4.389,0,0,1-1.007,1.956,2.819,2.819,0,0,1-1.607.775,6.158,6.158,0,0,1-.918.07c-.335,0-.67-.01-1-.027-3.665-.2-7.332-.365-11-.544l-5.683-.278c-.215-.011-.433-.011-.647-.035a.713.713,0,0,1-.345-.115.509.509,0,0,1-.144-.326c.008.044,0-.038,0-.038-.005-.052-.007-.1-.008-.155,0-.086,0-.173,0-.259.046-.92.129-1.841.207-2.759q.47-5.57,1.345-11.094.431-2.717.959-5.417a29.838,29.838,0,0,1,.86-3.443,12.627,12.627,0,0,1,1.451-3.143,7.34,7.34,0,0,1,1.037-1.276,5.988,5.988,0,0,1,1.31-1.006q.191-.111.39-.209c.118-.058.283-.133.351-.16a6.916,6.916,0,0,1,3.29-.479c.807.065,1.608.218,2.408.34.766.117,1.532.236,2.294.383a14.824,14.824,0,0,1,4.335,1.419,6.107,6.107,0,0,1,2.67,2.676,7.656,7.656,0,0,1,.579,1.688,10.98,10.98,0,0,1,.253,1.824,29.524,29.524,0,0,1-.067,3.866c-.044.666-.089,1.331-.13,2a.427.427,0,1,0,.855,0c.166-2.676.524-5.459-.13-8.1a7.24,7.24,0,0,0-1.844-3.415,9.829,9.829,0,0,0-4.084-2.245,32.168,32.168,0,0,0-4.674-.948c-.865-.131-1.73-.3-2.6-.355a7.778,7.778,0,0,0-2.536.238,7.34,7.34,0,0,0-3.271,1.878,10,10,0,0,0-2.008,2.985,33.405,33.405,0,0,0-2.091,8.112q-1,5.686-1.578,11.436-.145,1.448-.263,2.9-.059.717-.11,1.434a8.051,8.051,0,0,0-.056,1.286,1.415,1.415,0,0,0,.523,1.07,2.225,2.225,0,0,0,1.26.291l2.913.143,11.721.573c.82.04,1.64.088,2.46.127a8.4,8.4,0,0,0,2.092-.111,3.6,3.6,0,0,0,1.842-.968,5.134,5.134,0,0,0,1.178-2.161,15.747,15.747,0,0,0,.469-2.62c.114-.959.189-1.922.253-2.885.129-1.938.242-3.876.362-5.815q.089-1.424.177-2.848a.427.427,0,1,0-.855,0" transform="translate(-498.874 -523.103)" fill="#161616"/>
        <path id="패스_2509" data-name="패스 2509" d="M595.691,605.118a4.876,4.876,0,0,0-1.228-3.82c-.942-.911-2.531-2.014-3.912-1.713a2.842,2.842,0,0,0-2.162,2.774.332.332,0,0,0,.07.23.349.349,0,0,0,.21.077l.835.111a1.315,1.315,0,0,0-.68.713.956.956,0,0,0,.588,1.03,2.774,2.774,0,0,0,1.264.157.64.64,0,0,0-.46.854.953.953,0,0,0,.9.548,1.973,1.973,0,0,0,1.04-.371.714.714,0,0,0,.263.807,1.9,1.9,0,0,0,.847.312,2.342,2.342,0,0,0,1.56-.1,2.038,2.038,0,0,0,.864-1.6" transform="translate(-554.306 -560.065)" fill="#ffd8c7"/>
        <path id="패스_2510" data-name="패스 2510" d="M595.047,604.044a5.587,5.587,0,0,0-.486-2.86,5.427,5.427,0,0,0-1.926-2.139,4.573,4.573,0,0,0-2.849-1.007,3.248,3.248,0,0,0-2.9,3.095.76.76,0,0,0,.481.85,3.112,3.112,0,0,0,.5.075l.557.074-.216-.8a1.918,1.918,0,0,0-.788.744,1.2,1.2,0,0,0,.062,1.159,2.19,2.19,0,0,0,2.113.8q-.056-.421-.114-.842a1.011,1.011,0,0,0-.767.729,1.117,1.117,0,0,0,.271,1.083,1.8,1.8,0,0,0,2.305,0l-.628-.484a1.2,1.2,0,0,0,.7,1.436,3.129,3.129,0,0,0,.824.232,4.061,4.061,0,0,0,.858.073,1.9,1.9,0,0,0,1.481-.755,2.99,2.99,0,0,0,.51-1.461.43.43,0,0,0-.428-.429.439.439,0,0,0-.427.429c-.074.611-.358,1.293-1.077,1.355a3.344,3.344,0,0,1-1.171-.141.77.77,0,0,1-.406-.227.372.372,0,0,1-.062-.123c-.019-.065-.017-.015-.009-.083-.007.059.03-.081.029-.078.136-.352-.329-.674-.628-.484a1.814,1.814,0,0,1-.7.306.641.641,0,0,1-.509-.116.54.54,0,0,1-.116-.146c-.014-.027-.014-.029,0,0-.011-.051-.014-.055-.008-.013,0-.005,0-.135-.007-.058,0-.024.038-.131.03-.113-.023.049.081-.115.025-.041.053-.069-.033.005.041-.038q.067-.036.011-.006a.493.493,0,0,1,.083-.016.429.429,0,0,0-.114-.842c-.438.013-1.039.056-1.333-.31a.471.471,0,0,1-.107-.215.222.222,0,0,1,.014-.163,1.065,1.065,0,0,1,.47-.412.439.439,0,0,0,.2-.484.45.45,0,0,0-.412-.315,7.459,7.459,0,0,0-.767-.1l-.045-.009a.173.173,0,0,1,.118.135c0,.013.007.025.01.037,0-.034,0-.067,0-.1,0-.086.009-.251.014-.29a2.364,2.364,0,0,1,.4-1.021,2.255,2.255,0,0,1,1.786-1.035,4.078,4.078,0,0,1,2.263.9,4.576,4.576,0,0,1,1.552,1.689,4.716,4.716,0,0,1,.436,2.57.431.431,0,0,0,.427.429.438.438,0,0,0,.428-.429" transform="translate(-553.234 -558.991)" fill="#161616"/>
        <path id="패스_2511" data-name="패스 2511" d="M562.138,542.744l-1.1,3.352a3.954,3.954,0,0,1-.879,1.688,3.129,3.129,0,0,1-2.026.716,7.445,7.445,0,0,1-3.381-.615,2.144,2.144,0,0,1-1.241-1.087,2.487,2.487,0,0,1-.076-1.03q.115-1.722.231-3.443" transform="translate(-529.301 -519.206)" fill="#ffd8c7"/>
        <path id="패스_2512" data-name="패스 2512" d="M560.654,541.559q-.559,1.7-1.119,3.407a4.187,4.187,0,0,1-.562,1.236,1.94,1.94,0,0,1-1.074.671,6.032,6.032,0,0,1-3.058-.1,5.4,5.4,0,0,1-1.424-.571,1.16,1.16,0,0,1-.642-.945,7.8,7.8,0,0,1,.04-.942q.034-.51.068-1.019.068-1.018.136-2.037a.427.427,0,1,0-.855,0l-.132,1.967c-.042.63-.12,1.269-.117,1.9a1.951,1.951,0,0,0,.678,1.532,4.692,4.692,0,0,0,1.519.788,7.555,7.555,0,0,0,3.568.35,3.243,3.243,0,0,0,1.536-.63,3.176,3.176,0,0,0,.92-1.351c.253-.622.437-1.275.646-1.913l.694-2.112a.428.428,0,1,0-.825-.228" transform="translate(-528.229 -518.136)" fill="#161616"/>
        <path id="패스_2513" data-name="패스 2513" d="M531.745,545.279c-.494-.851-1.088-1.645-1.52-2.53a4.344,4.344,0,0,1-.466-2.858,2.327,2.327,0,0,1,2.029-1.847,1.775,1.775,0,0,1,1.627-1.511,2.638,2.638,0,0,1,2.125.948,5.4,5.4,0,0,1,1.069,2.145c.565,1.983,1.636,5.049,4.283,3.98,1.648-.666,2.931-2,4.472-2.852,1.507-.836,3.2-1.7,4.873-1.282a2.416,2.416,0,0,1,1.654,1.263,1.53,1.53,0,0,1-.512,1.9,1.834,1.834,0,0,1,1.585,1.859,2.8,2.8,0,0,1-1.347,2.214,6.13,6.13,0,0,1-2.544.82,15.9,15.9,0,0,1-3.86.055" transform="translate(-512.325 -515.063)" fill="#7fa1db"/>
        <path id="패스_2514" data-name="패스 2514" d="M531.036,544.01a18.8,18.8,0,0,1-1.758-3.1,2.921,2.921,0,0,1,.245-2.838,1.687,1.687,0,0,1,1.187-.655.441.441,0,0,0,.427-.429.782.782,0,0,0,.015-.083,1.369,1.369,0,0,1,.049-.166,1.616,1.616,0,0,1,.137-.248,1.482,1.482,0,0,1,1.548-.552,3.005,3.005,0,0,1,1.961,1.94c.3.737.463,1.525.75,2.268a6.979,6.979,0,0,0,1.113,2.01,2.792,2.792,0,0,0,1.833,1.028,4.3,4.3,0,0,0,2.564-.81c.9-.539,1.7-1.21,2.57-1.8a15.155,15.155,0,0,1,1.391-.82,11.5,11.5,0,0,1,1.524-.7,3.835,3.835,0,0,1,2.969-.044,1.766,1.766,0,0,1,.883.879,1.245,1.245,0,0,1-.046.975.809.809,0,0,1-.313.341.433.433,0,0,0,.216.8,1.167,1.167,0,0,1,.66.3,1.572,1.572,0,0,1,.427.673,1.509,1.509,0,0,1,.027.818,2.224,2.224,0,0,1-.416.859c-.9,1.17-2.594,1.381-3.966,1.484a16.092,16.092,0,0,1-2.9-.047.431.431,0,0,0-.428.429.438.438,0,0,0,.428.429,16.087,16.087,0,0,0,2.9.047,10.33,10.33,0,0,0,2.689-.483,4.179,4.179,0,0,0,2.047-1.47,2.665,2.665,0,0,0,.442-2.294,2.211,2.211,0,0,0-1.911-1.605l.216.8a1.986,1.986,0,0,0,.57-2.675,3.256,3.256,0,0,0-2.888-1.4,7.867,7.867,0,0,0-3.476,1.095,15.455,15.455,0,0,0-1.5.882c-.457.31-.9.644-1.346.969a15.12,15.12,0,0,1-1.377.914,4.684,4.684,0,0,1-1.331.563c-.049.01-.1.02-.147.027s0,0,.011,0l-.081.007a2.21,2.21,0,0,1-.274,0c-.044,0-.088-.006-.132-.011s.016,0,.022,0l-.072-.013a2.066,2.066,0,0,1-.245-.065.738.738,0,0,0-.082-.029c.04.016-.058-.027-.079-.037a2.3,2.3,0,0,1-.217-.124c-.035-.023-.07-.047-.1-.071-.078-.054.012.015-.042-.032s-.13-.112-.191-.173-.123-.126-.18-.192c-.029-.034-.058-.068-.086-.1l-.036-.045c.038.048,0,0-.015-.022a5.406,5.406,0,0,1-.3-.468c-.1-.166-.183-.336-.265-.509-.039-.081-.075-.163-.111-.246,0-.01-.032-.075-.006-.012l-.024-.058q-.032-.077-.062-.154c-.31-.789-.482-1.627-.807-2.41a3.933,3.933,0,0,0-2.363-2.412,2.359,2.359,0,0,0-2.765,1.05,2.045,2.045,0,0,0-.227.782l.427-.429a2.754,2.754,0,0,0-2.423,2.089,5.161,5.161,0,0,0,.8,3.84c.382.664.825,1.29,1.211,1.952a.428.428,0,0,0,.738-.433" transform="translate(-511.248 -514.011)" fill="#161616"/>
        <path id="패스_2515" data-name="패스 2515" d="M604.495,522.428a3.258,3.258,0,1,0,.4-5.717" transform="translate(-565.823 -500.704)" fill="#ffd8c7"/>
        <path id="패스_2516" data-name="패스 2516" d="M603.234,521.753a3.685,3.685,0,1,0,.4-6.457.432.432,0,0,0-.154.586.437.437,0,0,0,.585.154,2.832,2.832,0,1,1,2.192,5.221,2.744,2.744,0,0,1-1.208.2,2.915,2.915,0,0,1-1.387-.448c-.468-.293-.9.448-.432.74" transform="translate(-564.777 -499.659)" fill="#161616"/>
        <path id="패스_2517" data-name="패스 2517" d="M527.363,510.035a3.26,3.26,0,1,1,1.492-5.532" transform="translate(-507.814 -491.551)" fill="#ffd8c7"/>
        <path id="패스_2518" data-name="패스 2518" d="M526.175,508.549a2.835,2.835,0,0,1-2.38-.53,2.9,2.9,0,0,1-1.048-1.8,3.019,3.019,0,0,1,.041-1.052,2.778,2.778,0,0,1,.446-1.007,2.845,2.845,0,0,1,1.742-1.14,2.893,2.893,0,0,1,1.223.022,2.845,2.845,0,0,1,1.28.694c.4.377,1.007-.228.6-.606a3.682,3.682,0,1,0-1.681,6.249.429.429,0,0,0-.227-.827" transform="translate(-506.74 -490.478)" fill="#161616"/>
        <path id="패스_2519" data-name="패스 2519" d="M533.685,485.025a11.36,11.36,0,1,0,13.093-9.334,11.388,11.388,0,0,0-13.093,9.334" transform="translate(-515.078 -471.5)" fill="#ffd8c7"/>
        <path id="패스_2520" data-name="패스 2520" d="M532.226,483.839a11.974,11.974,0,0,0,1.011,7.176,11.792,11.792,0,0,0,21.572-9.487,11.98,11.98,0,0,0-4.38-5.481,11.788,11.788,0,0,0-17.763,6.036,11.639,11.639,0,0,0-.439,1.755.441.441,0,0,0,.3.527.431.431,0,0,0,.526-.3,10.961,10.961,0,0,1,8.815-9,10.159,10.159,0,0,1,1.625-.173,11.323,11.323,0,0,1,1.764.086,11.18,11.18,0,0,1,3.259.959,10.973,10.973,0,0,1-1.858,20.51,10.619,10.619,0,0,1-3.357.355,10.971,10.971,0,0,1-10.247-12.734.442.442,0,0,0-.3-.527.431.431,0,0,0-.526.3" transform="translate(-514.031 -470.428)" fill="#161616"/>
        <path id="패스_2521" data-name="패스 2521" d="M586.335,522.04a2.372,2.372,0,1,0,2.734-1.949,2.378,2.378,0,0,0-2.734,1.949" transform="translate(-552.814 -503.302)" fill="#ffb9a1"/>
        <path id="패스_2522" data-name="패스 2522" d="M539.755,514.17a2.372,2.372,0,1,0,2.734-1.949,2.378,2.378,0,0,0-2.734,1.949" transform="translate(-519.509 -497.681)" fill="#ffb9a1"/>
        <path id="패스_2523" data-name="패스 2523" d="M583.492,514.224a.891.891,0,1,0,1.027-.732.893.893,0,0,0-1.027.732" transform="translate(-550.796 -498.604)" fill="#161616"/>
        <path id="패스_2524" data-name="패스 2524" d="M556.64,509.376a.891.891,0,1,0,1.027-.732.893.893,0,0,0-1.027.732" transform="translate(-531.597 -495.141)" fill="#161616"/>
        <path id="패스_2525" data-name="패스 2525" d="M570.813,512.09a.7.7,0,0,0-.829-.085,1.124,1.124,0,0,0-.44.6,1.837,1.837,0,0,0-.024,1.211.428.428,0,1,0,.825-.228,1.5,1.5,0,0,1-.062-.266l.015.114a1.532,1.532,0,0,1,0-.387l-.015.114a1.527,1.527,0,0,1,.1-.373l-.043.1a.984.984,0,0,1,.1-.187l-.067.087a.548.548,0,0,1,.087-.089l-.087.067a.4.4,0,0,1,.068-.041l-.1.043a.411.411,0,0,1,.072-.021l-.113.015a.4.4,0,0,1,.074,0l-.114-.015a.3.3,0,0,1,.071.018l-.1-.043a.258.258,0,0,1,.047.028l-.087-.067.014.012a.453.453,0,0,0,.3.126.429.429,0,0,0,.3-.732" transform="translate(-540.75 -497.481)" fill="#161616"/>
        <path id="패스_2526" data-name="패스 2526" d="M562.014,525.7a3.447,3.447,0,0,1-.021-2.776c.323-.453,1.3-.192,1.735-.138a9.392,9.392,0,0,1,2.43.644,1.221,1.221,0,0,1,.621.446,1.283,1.283,0,0,1-.057,1.164c-.509,1.081-1.232,2.124-2.439,2.142a2.34,2.34,0,0,1-2.269-1.483" transform="translate(-535.228 -505.162)" fill="#fff"/>
        <path id="패스_2527" data-name="패스 2527" d="M561.354,524.508a4.092,4.092,0,0,1-.278-1.151,3.515,3.515,0,0,1,0-.712c.006-.051,0-.013,0,0,0-.023.007-.046.012-.069.01-.052.021-.1.035-.155s.029-.1.046-.146,0-.005,0,0c.013-.032.029-.063.046-.093s.075-.13.03-.062c.019-.027.079-.068.019-.028.02-.014.041-.024.062-.037-.005,0-.065.023-.017.006a1.09,1.09,0,0,1,.15-.04c.049-.01,0,0-.013,0,.028,0,.056-.005.084-.007.043,0,.087,0,.13,0,.111,0,.222.011.332.023l.066.008c-.068-.009,0,0,.015,0l.143.023.252.041c.288.043.574.082.859.143a8.011,8.011,0,0,1,1.686.531c.193.091.338.169.378.373a1.122,1.122,0,0,1-.11.589,5.085,5.085,0,0,1-.708,1.183,3.313,3.313,0,0,1-.234.251,1.881,1.881,0,0,1-.228.192,1.588,1.588,0,0,1-.541.256,1.9,1.9,0,0,1-.7.031,2.518,2.518,0,0,1-.6-.183,2.027,2.027,0,0,1-.954-1.071.429.429,0,0,0-.585-.154.44.44,0,0,0-.153.586,2.8,2.8,0,0,0,2.768,1.689,3.348,3.348,0,0,0,2.564-2.114,1.831,1.831,0,0,0,.126-1.9,1.8,1.8,0,0,0-.831-.578,9.4,9.4,0,0,0-2.07-.592q-.114-.019-.229-.035l-.179-.024-.011,0-.328-.053a2.258,2.258,0,0,0-1.535.109,1.935,1.935,0,0,0-.642,1.666,4.594,4.594,0,0,0,.324,1.727.442.442,0,0,0,.526.3.432.432,0,0,0,.3-.527" transform="translate(-534.155 -504.085)" fill="#161616"/>
        <path id="패스_2528" data-name="패스 2528" d="M535.417,474.164a12.208,12.208,0,0,0,4.6-2.068,3.647,3.647,0,0,0,2.939,2.355,5.619,5.619,0,0,0,3.771-.914,3.128,3.128,0,0,0,1.522,2.521,3.361,3.361,0,0,0,2.918.117c.35,1.308.949,3.036,2.511,3.194,1.763.178,1.948-2.188,2.05-3.516a10.878,10.878,0,0,0-.847-5.077,27.057,27.057,0,0,0-2.876-3.836,2.13,2.13,0,0,0-3.546-2.284,4.366,4.366,0,0,0-2.22-1.693c-.927-.2-2.081.511-1.937,1.45-4.036-1.3-9.076-.248-11.684,3.284a16.3,16.3,0,0,1-1.37,1.864,12.444,12.444,0,0,0-.929.905c-.807,1.009-.8,3.222.419,3.952s3.436.013,4.676-.255" transform="translate(-512.388 -462.5)" fill="#896959"/>
        <path id="패스_2529" data-name="패스 2529" d="M534.426,473.506a12.63,12.63,0,0,0,4.705-2.111l-.628-.256a3.892,3.892,0,0,0,2.028,2.266,4.932,4.932,0,0,0,3.392.27,6.98,6.98,0,0,0,1.918-.839l-.644-.37a3.6,3.6,0,0,0,1.552,2.776,3.767,3.767,0,0,0,3.429.275l-.526-.3c.382,1.419,1.053,3.227,2.715,3.482a1.886,1.886,0,0,0,1.9-.759,4.2,4.2,0,0,0,.648-1.842,12.109,12.109,0,0,0-.38-5.6,6.148,6.148,0,0,0-.426-1.093c-.08-.143-.173-.279-.264-.414-.305-.456-.625-.9-.948-1.347-.388-.533-.781-1.063-1.2-1.576a4.677,4.677,0,0,0-.378-.435c-.225-.217-.592-.314-.787.016l.738.433a2.658,2.658,0,0,0-.3-2.661,2.577,2.577,0,0,0-3.921-.142h.6c-.719-.858-1.646-1.861-2.86-1.853-1,.006-2.174.8-2.026,1.913l.541-.414a12.048,12.048,0,0,0-5.3-.425,10.738,10.738,0,0,0-4.853,1.91,9.383,9.383,0,0,0-1.95,1.915c-.323.427-.6.888-.912,1.322a9.3,9.3,0,0,1-1.11,1.146,3.486,3.486,0,0,0-.3,4.466,2.781,2.781,0,0,0,2.3.827,13.258,13.258,0,0,0,2.7-.46c.178-.043.356-.085.534-.125a.429.429,0,0,0-.227-.827c-.765.167-1.565.393-2.312.5a5.4,5.4,0,0,1-1.266.04,1.823,1.823,0,0,1-.9-.326c.071.053-.03-.028-.035-.033-.029-.026-.058-.054-.085-.082s-.053-.058-.079-.087c-.084-.1.044.066-.03-.038a2.25,2.25,0,0,1-.128-.2c-.019-.035-.038-.071-.056-.108s-.023-.049-.034-.074c.016.04.015.036,0-.012a2.908,2.908,0,0,1-.129-.443,2.262,2.262,0,0,1-.053-.485,3.7,3.7,0,0,1,.024-.519c-.01.087.008-.051.009-.056.007-.042.015-.083.023-.125q.029-.144.071-.284a1.669,1.669,0,0,1,.151-.381,2.2,2.2,0,0,1,.115-.2c.02-.031.042-.061.064-.091-.059.081.083-.1.1-.112.35-.383.77-.687,1.1-1.091s.626-.873.929-1.318a8.524,8.524,0,0,1,1.673-1.806,9.793,9.793,0,0,1,4.352-1.925,11.161,11.161,0,0,1,5.393.337.43.43,0,0,0,.541-.413,1.224,1.224,0,0,1-.012-.154c0-.019.016-.157,0-.077.008-.042.019-.081.03-.122.025-.09-.018.025.019-.053a.872.872,0,0,1,.313-.376c-.042.032.083-.053.1-.062.039-.024.079-.046.119-.066,0,0,.119-.054.065-.032.043-.017.086-.032.13-.046a1.181,1.181,0,0,1,.543-.062q.046,0,0,0c.03,0,.059.01.089.017.054.011.108.025.161.041a1.808,1.808,0,0,1,.28.106,2.835,2.835,0,0,1,.557.356,8.15,8.15,0,0,1,1.034,1.08.429.429,0,0,0,.6,0,1.763,1.763,0,0,1,2.241-.331,1.722,1.722,0,0,1,.667.921,1.624,1.624,0,0,1,.084.6,1.677,1.677,0,0,1-.118.575.443.443,0,0,0,.153.586.433.433,0,0,0,.585-.154.385.385,0,0,1-.556.153l.017.011c.022.013-.1-.094-.043-.031.04.044.084.084.124.128.122.135.237.277.35.419q.1.131.207.263l.013.017.061.08.125.164q.252.334.5.672c.31.424.616.852.913,1.286a4.438,4.438,0,0,1,.507.872,10.553,10.553,0,0,1,.688,2.814,12.458,12.458,0,0,1-.029,2.439q-.011.113-.024.226c0,.022-.026.207-.014.117-.021.157-.046.313-.077.468a5.158,5.158,0,0,1-.243.86c-.044.115.038-.075-.015.035-.016.033-.031.066-.047.1-.027.053-.055.106-.086.157s-.074.118-.116.174c.01-.014.056-.061,0-.007-.031.033-.059.068-.091.1s-.048.046-.072.069c0,0-.087.069-.033.029s-.035.022-.037.024c-.028.017-.056.035-.085.051s-.059.031-.089.045c.086-.04.016-.007-.008,0a2.048,2.048,0,0,1-.222.055c.1-.018-.018,0-.035,0-.039,0-.078,0-.117,0a1.515,1.515,0,0,1-.237-.021,1.745,1.745,0,0,1-.46-.153,1.464,1.464,0,0,1-.38-.268,2.7,2.7,0,0,1-.329-.373,6.222,6.222,0,0,1-.856-2.074.431.431,0,0,0-.526-.3,2.987,2.987,0,0,1-2.726-.159,2.709,2.709,0,0,1-1.173-2.066.432.432,0,0,0-.643-.37,5.5,5.5,0,0,1-2.941.906,3.538,3.538,0,0,1-2.394-.938,2.784,2.784,0,0,1-.746-1.152.431.431,0,0,0-.628-.256,12.015,12.015,0,0,1-4.5,2.025.429.429,0,0,0,.227.827" transform="translate(-511.283 -461.429)" fill="#161616"/>
        <path id="패스_2530" data-name="패스 2530" d="M487.514,514.484a1.324,1.324,0,0,0-1.1-.271,1.428,1.428,0,0,0-.9.589,1.856,1.856,0,0,0,.249,2.231,2.843,2.843,0,0,0,1.035.726.439.439,0,0,0,.585-.154.434.434,0,0,0-.153-.587,3.081,3.081,0,0,1-.505-.271c-.034-.023-.067-.047-.1-.071.062.047-.038-.033-.041-.035a2.056,2.056,0,0,1-.2-.2s-.082-.1-.035-.039c-.028-.038-.055-.078-.079-.118s-.046-.081-.069-.123c-.058-.107.02.071-.021-.044a2.221,2.221,0,0,1-.073-.271c.019.086,0-.032,0-.045,0-.046,0-.093,0-.139,0-.021.021-.154,0-.063.007-.039.015-.077.026-.115s.023-.075.037-.112c-.032.082.034-.058.044-.073s.086-.108.018-.032c.022-.025.044-.05.069-.073s.033-.03.05-.044q-.064.048-.006.007c.029-.016.057-.036.086-.052s.089-.036.02-.013a1.285,1.285,0,0,1,.128-.04c.026-.006.126-.016.018-.008.033,0,.066-.005.1-.005.015,0,.138.015.074,0s.059.017.07.02c.094.021-.066-.042.019.005.019.011.136.089.052.023a.428.428,0,0,0,.6-.606" transform="translate(-480.558 -499.11)" fill="#161616"/>
        <path id="패스_2531" data-name="패스 2531" d="M479.061,524.22a.237.237,0,0,1-.01.118.558.558,0,0,1-.078.1.289.289,0,0,1-.294.01,2.32,2.32,0,0,1-.219-.158.657.657,0,0,0-.909.172c-.038.046-.073.094-.108.142-.006.008-.064.082-.027.039a.315.315,0,0,1-.143.112,1.137,1.137,0,0,1-.375.063c-.445.017-.892,0-1.337,0a.429.429,0,0,0,0,.857c.485,0,.982.038,1.466,0a1.418,1.418,0,0,0,1.167-.648l-.011.016c.038-.036.04-.042.006-.019-.032-.007-.256.158-.182,0-.013.028.252.18.288.2a1.219,1.219,0,0,0,.769.1,1.084,1.084,0,0,0,.852-1.095.437.437,0,0,0-.428-.429.432.432,0,0,0-.427.429" transform="translate(-473.339 -505.969)" fill="#161616"/>
      </g>
    </g>
    <path id="패스_2244" data-name="패스 2244" d="M1.115,4.979A4.77,4.77,0,0,1,.382,0" transform="translate(54.59 57.475) rotate(180)" fill="none" stroke="#000" stroke-linecap="round" stroke-width="1"/>
    <path id="패스_2243" data-name="패스 2243" d="M1.453,7.265A7.568,7.568,0,0,1,.5,0" transform="matrix(-0.988, -0.156, 0.156, -0.988, 57.503, 58.986)" fill="none" stroke="#000" stroke-linecap="round" stroke-width="1"/>
    <g id="그룹_1305" data-name="그룹 1305" transform="translate(-3.646 7.852)">
      <path id="패스_2532" data-name="패스 2532" d="M784.686,211.294h-4.337a4.375,4.375,0,0,0,0,8.75h2.526l2.716,2.407a.655.655,0,0,0,1.017-.789l-.9-1.744a4.373,4.373,0,0,0-1.026-8.623" transform="translate(-775.56 -210.88)" fill="#efbdbb"/>
      <path id="패스_2533" data-name="패스 2533" d="M784.938,221.947a1.065,1.065,0,0,1-.708-.273l-2.6-2.3h-2.369a4.788,4.788,0,0,1,0-9.577H783.6a4.787,4.787,0,0,1,1.621,9.291l.668,1.3a1.074,1.074,0,0,1-.951,1.561m-5.675-11.325a3.961,3.961,0,0,0,0,7.922h2.526a.413.413,0,0,1,.274.1l2.716,2.407a.241.241,0,0,0,.374-.291l-.9-1.744a.414.414,0,0,1,.271-.591,3.959,3.959,0,0,0-.929-7.808Z" transform="translate(-774.474 -209.794)" fill="#161616"/>
    </g>
    <g id="그룹_1306" data-name="그룹 1306" transform="translate(44.925 4.085)">
      <path id="패스_2534" data-name="패스 2534" d="M843.217,243.764h8.216a6.118,6.118,0,1,1,0,12.236h-5.217L844,259.577a.875.875,0,0,1-1.6-.62l.551-2.97a6.114,6.114,0,0,1,.269-12.223" transform="translate(-836.611 -243.276)" fill="#a1bce2"/>
      <path id="패스_2535" data-name="패스 2535" d="M842.255,259.47a1.346,1.346,0,0,0,1.149-.648l2.072-3.346h4.945a6.606,6.606,0,1,0,0-13.213h-8.216a6.6,6.6,0,0,0-.847,13.151l-.452,2.441a1.347,1.347,0,0,0,.848,1.52,1.4,1.4,0,0,0,.5.094m8.166-16.23a5.63,5.63,0,1,1,0,11.26H845.2a.488.488,0,0,0-.415.231l-2.215,3.577a.387.387,0,0,1-.709-.274l.551-2.97a.488.488,0,0,0-.458-.577,5.626,5.626,0,0,1,.248-11.247Z" transform="translate(-835.599 -242.264)" fill="#161616"/>
    </g>
  </g>
</svg>
