<svg xmlns="http://www.w3.org/2000/svg" xmlns:xlink="http://www.w3.org/1999/xlink" width="70.692" height="59" viewBox="0 0 70.692 59">
  <defs>
    <clipPath id="clip-path">
      <rect id="사각형_1070" data-name="사각형 1070" width="59" height="53" transform="translate(354 334.344)" fill="#fff" stroke="#707070" stroke-width="1"/>
    </clipPath>
    <clipPath id="clip-path-2">
      <rect id="사각형_937" data-name="사각형 937" width="9.321" height="9.321" fill="#26282b"/>
    </clipPath>
    <clipPath id="clip-path-3">
      <rect id="사각형_938" data-name="사각형 938" width="14.321" height="16.321" transform="translate(-2 -6)" fill="#26282b"/>
    </clipPath>
  </defs>
  <g id="img" transform="translate(9.001 -0.942)">
    <g id="마스크_그룹_115" data-name="마스크 그룹 115" transform="translate(-355.001 -327.401)" clip-path="url(#clip-path)">
      <g id="그룹_1297" data-name="그룹 1297" transform="translate(-257.388 -165.866)">
        <path id="패스_2343" data-name="패스 2343" d="M696.037,539.6l1.688,3.982a5.39,5.39,0,0,1,.6,3.748c-.566,1.647-2.522,2.316-4.249,2.54a20.793,20.793,0,0,1-16.6-5.329" transform="translate(-42.24 -24.943)" fill="#3f9cb2"/>
        <path id="패스_2344" data-name="패스 2344" d="M694.584,538.845l1.438,3.393a8.116,8.116,0,0,1,.937,3.176,2.325,2.325,0,0,1-.366,1.25,2.89,2.89,0,0,1-.746.758,5.879,5.879,0,0,1-2.273.873,15.886,15.886,0,0,1-2.792.25,19.959,19.959,0,0,1-2.969-.177,20.525,20.525,0,0,1-5.53-1.565,20.011,20.011,0,0,1-5.5-3.605c-.458-.425-1.146.26-.687.687a21.25,21.25,0,0,0,11.14,5.373,20.092,20.092,0,0,0,6.263.033c1.755-.284,3.768-1.1,4.3-2.971a6.092,6.092,0,0,0-.69-3.983q-.843-1.992-1.688-3.982a.488.488,0,0,0-.664-.174.5.5,0,0,0-.174.665" transform="translate(-41.207 -23.937)" fill="#161616"/>
        <path id="패스_2345" data-name="패스 2345" d="M697.627,551.059a4.287,4.287,0,0,0-.156,4.154c1.138,2.189,5.882,1.8,4.913,4.953a1.661,1.661,0,0,1-2.234,1.045,3.637,3.637,0,0,1-4.348,2.81,3.276,3.276,0,0,1-4.92.536,11,11,0,0,1-2.47,1.217,7.058,7.058,0,0,1-3.264.027c-1.793-.411-4.264-1.972-4.205-4.085" transform="translate(-44.586 -32.687)" fill="#38322f"/>
        <path id="패스_2346" data-name="패스 2346" d="M696.194,549.82a4.781,4.781,0,0,0-.368,4.176,3.222,3.222,0,0,0,.786,1.209,4.874,4.874,0,0,0,1.017.707c.723.388,1.5.654,2.227,1.042a4.915,4.915,0,0,1,.468.282l.11.079c.054.039-.07-.057-.019-.015l.039.031c.069.06.138.12.2.186.029.03.057.062.085.093s.063.088.012.011a2.315,2.315,0,0,1,.14.222c.017.032.031.065.047.1-.06-.123,0-.006.007.03s.025.082.035.123c.006.025.034.169.022.1s.006.079.007.106c0,.048,0,.1,0,.144s-.007.113-.011.169c0,.072.014-.084,0-.011-.005.034-.011.067-.017.1a2.809,2.809,0,0,1-.1.394,2.265,2.265,0,0,1-.16.294,1.219,1.219,0,0,1-.642.438,1.348,1.348,0,0,1-.2.044c.071-.009-.016,0-.025,0-.043,0-.086,0-.13,0a1.012,1.012,0,0,1-.345-.073c-.253-.112-.66-.051-.714.29a2.924,2.924,0,0,1-1.353,2.017,3.121,3.121,0,0,1-2.4.454.5.5,0,0,0-.549.223c-.035.056-.071.112-.111.166-.055.076.021-.02-.045.058a2.919,2.919,0,0,1-.238.248,2.107,2.107,0,0,1-.456.327,2.969,2.969,0,0,1-.286.143h0l-.093.035c-.046.017-.093.033-.141.048a3.446,3.446,0,0,1-.336.088c-.049.01-.1.019-.147.028s-.066.01-.019,0l-.074.008a2.85,2.85,0,0,1-1.219-.11,1.925,1.925,0,0,1-.512-.225,1.865,1.865,0,0,1-.483-.38.486.486,0,0,0-.763.588.4.4,0,0,1,.06-.538.3.3,0,0,1-.029.027c.138-.124.032-.027-.013,0-.108.068-.221.128-.335.187-.281.145-.568.279-.857.408q-.2.09-.4.177c-.034.014-.244.1-.115.05l-.2.083a3.764,3.764,0,0,1-.8.215,6.366,6.366,0,0,1-3.091-.251,6.459,6.459,0,0,1-2.087-1.2,3.748,3.748,0,0,1-.856-1.033,2.365,2.365,0,0,1-.308-1.216.486.486,0,0,0-.971,0c-.038,2.108,1.923,3.594,3.7,4.286a7.263,7.263,0,0,0,3.582.389,4.406,4.406,0,0,0,1.075-.253c.323-.13.643-.269.961-.412.351-.159.7-.319,1.042-.507a1.931,1.931,0,0,0,.364-.246.525.525,0,0,0,.116-.662l-.763.588a3.768,3.768,0,0,0,5.683-.634l-.548.223a4.129,4.129,0,0,0,4.946-3.149l-.714.29a2.114,2.114,0,0,0,1.946-.083,2.271,2.271,0,0,0,1.07-1.512,2.345,2.345,0,0,0-.717-2.357,8.361,8.361,0,0,0-2.2-1.2,10.151,10.151,0,0,1-1.137-.566c-.079-.048-.158-.1-.234-.149l-.119-.084c-.013-.009-.076-.057-.023-.016s-.025-.019-.036-.029a3.089,3.089,0,0,1-.419-.421c.067.083,0-.006-.026-.041s-.063-.1-.091-.147a2.824,2.824,0,0,1-.193-.42,3.824,3.824,0,0,1,.316-3.306.486.486,0,0,0-.839-.491" transform="translate(-43.573 -31.694)" fill="#161616"/>
        <path id="패스_2347" data-name="패스 2347" d="M712.076,740.982c-.735,1.618-1.458,3.514-.515,5.041a6.073,6.073,0,0,0,1.37,1.4l1.562,1.289c1.474,1.216,3.162,2.508,5.154,2.461a2.2,2.2,0,0,0,2.388-2.676,18.86,18.86,0,0,0-.819-4.063l-1.3-4.664" transform="translate(-64.985 -160.288)" fill="#3f9cb2"/>
        <path id="패스_2348" data-name="패스 2348" d="M710.647,739.753c-.75,1.656-1.549,3.674-.584,5.415a8.1,8.1,0,0,0,2.115,2.111c.745.614,1.481,1.244,2.261,1.813,1.451,1.057,3.321,1.951,5.154,1.449a2.466,2.466,0,0,0,1.841-1.866,7.616,7.616,0,0,0-.164-2.992c-.233-1.165-.58-2.306-.9-3.45l-1-3.576a.486.486,0,0,0-.936.258c.539,1.933,1.108,3.86,1.613,5.8a13.62,13.62,0,0,1,.495,2.857,1.858,1.858,0,0,1-.688,1.812,3.081,3.081,0,0,1-2.21.221,6.665,6.665,0,0,1-2.192-.992,23.032,23.032,0,0,1-1.987-1.528,22.306,22.306,0,0,1-2.124-1.82,2.834,2.834,0,0,1-.724-2.387,9.242,9.242,0,0,1,.868-2.638.5.5,0,0,0-.174-.665.489.489,0,0,0-.664.174" transform="translate(-63.976 -159.303)" fill="#161616"/>
        <path id="패스_2349" data-name="패스 2349" d="M654.4,744.465q-.248,1.874-.5,3.749c-.2,1.5-.358,3.167.529,4.394a3.54,3.54,0,0,0,3.757,1.185,5,5,0,0,0,3.037-2.707,8.668,8.668,0,0,0,.721-4.089,13.853,13.853,0,0,0-.937-4.509" transform="translate(-26.197 -162.125)" fill="#3f9cb2"/>
        <path id="패스_2350" data-name="패스 2350" d="M652.9,743.45q-.2,1.516-.4,3.031a19.073,19.073,0,0,0-.25,2.658,4.9,4.9,0,0,0,.592,2.457,3.643,3.643,0,0,0,1.832,1.519,4.442,4.442,0,0,0,4.437-.836,6.831,6.831,0,0,0,2.247-4.559,13.484,13.484,0,0,0-.891-6.376.5.5,0,0,0-.6-.339.489.489,0,0,0-.339.6,13.337,13.337,0,0,1,.923,5.213,6.548,6.548,0,0,1-1.522,4.3,4.146,4.146,0,0,1-1.653,1.125,3.265,3.265,0,0,1-1.911.084,2.813,2.813,0,0,1-1.495-.927,3.451,3.451,0,0,1-.645-2.026,15.894,15.894,0,0,1,.222-2.728q.211-1.6.422-3.191a.488.488,0,0,0-.486-.486.5.5,0,0,0-.486.486" transform="translate(-25.183 -161.111)" fill="#161616"/>
        <path id="패스_2351" data-name="패스 2351" d="M679.222,671.869c2.468-.27,5.2-.476,7.2.989a51.113,51.113,0,0,1,4.8,3.82,12.064,12.064,0,0,1,3.381,7.7,27.614,27.614,0,0,1-1.029,11.254,2.472,2.472,0,0,1-.736,1.294,4.4,4.4,0,0,1-2.111.674c-2.687.386-6.007.595-7.615-1.1a4.732,4.732,0,0,1-1.047-2.551q-.492-2.617-.983-5.234c-.357-1.9-.785-3.924-2.463-5.353-1.464-1.247-3.641-1.831-5.432-2.8a6.479,6.479,0,0,1-2.945-3.148,9.191,9.191,0,0,1-.36-5.392" transform="translate(-36.939 -114.245)" fill="#fff"/>
        <path id="패스_2352" data-name="패스 2352" d="M678.2,671.34c2.2-.24,4.729-.515,6.69.741.526.336,1.02.733,1.52,1.106.519.387,1.034.78,1.54,1.184a17.473,17.473,0,0,1,2.772,2.577,12.213,12.213,0,0,1,2.327,6.08,26.73,26.73,0,0,1-.17,8.11q-.179,1.027-.435,2.039a10.941,10.941,0,0,1-.536,1.8,1.613,1.613,0,0,1-1.131.9,10.953,10.953,0,0,1-1.635.292,18.87,18.87,0,0,1-3.266.179,6.155,6.155,0,0,1-2.751-.668,2.685,2.685,0,0,1-.992-.925,4.667,4.667,0,0,1-.553-1.578c-.283-1.389-.526-2.787-.787-4.181-.428-2.281-.729-4.765-2.38-6.539-1.666-1.791-4.183-2.251-6.224-3.45a6.1,6.1,0,0,1-2.33-2.361,6.786,6.786,0,0,1-.578-1.74,8.739,8.739,0,0,1,.044-3.767.5.5,0,0,0-.339-.6.491.491,0,0,0-.6.339c-.6,2.566-.239,5.631,1.618,7.616a9.222,9.222,0,0,0,3.078,2.039,29.58,29.58,0,0,1,3.342,1.573,5.737,5.737,0,0,1,2.258,2.481,13.006,13.006,0,0,1,.893,3.18q.413,2.19.822,4.38a6.943,6.943,0,0,0,1.319,3.652,4.891,4.891,0,0,0,2.694,1.352,12.868,12.868,0,0,0,3.422.125c.589-.046,1.177-.117,1.762-.2a7.674,7.674,0,0,0,1.741-.368,2.461,2.461,0,0,0,1.41-1.249,11.209,11.209,0,0,0,.614-1.958,28.121,28.121,0,0,0,.84-8.544,16.821,16.821,0,0,0-1.731-7.127c-1.269-2.331-3.486-3.937-5.571-5.493-.516-.385-1.027-.8-1.573-1.14a6.329,6.329,0,0,0-1.678-.72,11.433,11.433,0,0,0-3.68-.279c-.591.035-1.18.095-1.768.159a.5.5,0,0,0-.486.486.489.489,0,0,0,.486.486" transform="translate(-35.917 -113.23)" fill="#161616"/>
        <path id="패스_2353" data-name="패스 2353" d="M658.475,677.643a5.258,5.258,0,0,0-.364-.506,7.768,7.768,0,0,0-3.876-2.419,8.993,8.993,0,0,0-6.551.429c-3.575,1.809-3.645,5-3.443,8.494a53.94,53.94,0,0,0,2.666,15.039,1.811,1.811,0,0,0,.7,1.036,3.068,3.068,0,0,0,1.21.346,19.552,19.552,0,0,0,5.153,0,4.271,4.271,0,0,0,1.757-.527,2.491,2.491,0,0,0,.818-2.414,33.653,33.653,0,0,1,.681-7.915c.439-2.161,1.313-4.245,1.687-6.417.32-1.861.573-3.541-.438-5.147" transform="translate(-19.727 -116.019)" fill="#fff"/>
        <path id="패스_2354" data-name="패스 2354" d="M657.882,676.4a8.38,8.38,0,0,0-5.748-3.43,8.933,8.933,0,0,0-6.719,1.372,6.184,6.184,0,0,0-1.836,2.047,7.247,7.247,0,0,0-.769,2.441,15.949,15.949,0,0,0-.115,2.78c.039,1.156.123,2.312.219,3.463A59.868,59.868,0,0,0,644,692.721q.411,1.91.991,3.779a14.832,14.832,0,0,0,.624,1.789,2.022,2.022,0,0,0,1.289,1.092,8.944,8.944,0,0,0,1.876.274,19.777,19.777,0,0,0,2,.062,19.19,19.19,0,0,0,1.943-.137,6.637,6.637,0,0,0,1.865-.427,2.24,2.24,0,0,0,1.157-1.089,3.5,3.5,0,0,0,.279-1.455c0-.6-.032-1.192-.029-1.789q.005-1.005.073-2.009a33.693,33.693,0,0,1,.5-3.892,35.81,35.81,0,0,1,.97-3.749,29.167,29.167,0,0,0,.907-3.705,9.332,9.332,0,0,0,.09-3.462,5.077,5.077,0,0,0-.654-1.6c-.329-.531-1.169-.043-.839.49a4.847,4.847,0,0,1,.633,2.986,18.326,18.326,0,0,1-.589,3.346c-.31,1.184-.7,2.344-1.022,3.525a28.867,28.867,0,0,0-.715,3.664,34.375,34.375,0,0,0-.315,3.9c-.014.624-.006,1.247.015,1.87a4.065,4.065,0,0,1-.08,1.212,1.3,1.3,0,0,1-.719.857,4.661,4.661,0,0,1-1.522.362,19.427,19.427,0,0,1-3.75.09,8.505,8.505,0,0,1-1.782-.244,1.158,1.158,0,0,1-.8-.8,36.493,36.493,0,0,1-1.075-3.547,51.25,51.25,0,0,1-1.26-7.146c-.134-1.234-.234-2.471-.313-3.71-.059-.936-.116-1.873-.1-2.811a9.185,9.185,0,0,1,.294-2.359q.077-.285.178-.562a3.6,3.6,0,0,1,.2-.467,5.568,5.568,0,0,1,.6-.943,7.026,7.026,0,0,1,5.279-2.321,8.737,8.737,0,0,1,5.83,1.943,5.467,5.467,0,0,1,1.009,1.157.486.486,0,0,0,.839-.49" transform="translate(-18.715 -115.021)" fill="#161616"/>
        <path id="패스_2355" data-name="패스 2355" d="M633.878,521.772a2.21,2.21,0,0,1-1.961.264c-1.647-.535-4.5-1.347-4.149-3.557a17.886,17.886,0,0,1,2.487-6.283,2.661,2.661,0,0,1,.791-.925.979.979,0,0,1,1.144.015c.484.432.2,1.222-.119,1.789a1.223,1.223,0,0,1,1.554-.424,1.2,1.2,0,0,1,.5,1.523.784.784,0,0,1,1.249-.068,1.586,1.586,0,0,1,.222,1.412.981.981,0,0,1,1.255.748,2.547,2.547,0,0,1-.311,1.615c-.569,1.246-1.423,3.1-2.665,3.893" transform="translate(-8.612 -5.664)" fill="#ffd8c7"/>
        <path id="패스_2356" data-name="패스 2356" d="M632.637,520.361a1.868,1.868,0,0,1-1.68.184c-.428-.138-.856-.274-1.277-.432q-.155-.058-.31-.12l-.088-.036c.009,0,.057.025.006,0s-.131-.057-.2-.087a6.773,6.773,0,0,1-.63-.326q-.149-.087-.292-.185c-.044-.03-.086-.06-.129-.092-.012-.009-.073-.057-.008-.006l-.069-.056a3.249,3.249,0,0,1-.24-.221c-.035-.036-.069-.072-.1-.11-.019-.021-.037-.043-.055-.064-.059-.069.017.027-.014-.018a2.822,2.822,0,0,1-.155-.247c-.023-.042-.044-.086-.064-.13.043.093-.025-.073-.033-.1-.015-.047-.027-.095-.039-.142,0-.022-.032-.19-.019-.084a2.018,2.018,0,0,1-.012-.34,1.8,1.8,0,0,1,.045-.35q.051-.286.114-.569.12-.534.282-1.057a19.1,19.1,0,0,1,1.8-3.986,4.8,4.8,0,0,1,.6-.9,1.149,1.149,0,0,1,.316-.246.6.6,0,0,1,.347-.048.261.261,0,0,1,.2.149c-.023-.051.028.093.032.123-.011-.07,0,.016,0,.026,0,.045,0,.089,0,.134a2.448,2.448,0,0,1-.306.809.486.486,0,0,0,.839.49.716.716,0,0,1,.434-.287.566.566,0,0,1,.242-.02.726.726,0,0,1,.214.057.516.516,0,0,1,.211.173c.022.025.023.027.006.008.02.029.039.06.056.091,0,0,.059.13.04.079a1.024,1.024,0,0,1,.049.181c.006.034.007.035,0,0,0,.036,0,.071,0,.107a.554.554,0,0,1-.038.218.5.5,0,0,0,.174.665.491.491,0,0,0,.665-.174c.014-.028.039-.123.023-.049.037-.033.042-.039.016-.019s-.019.016.022-.011c.085-.018-.028,0,.026-.009.037-.009.1-.017.026-.011a.982.982,0,0,1,.139,0c-.095-.006.041.012.055.015.081.02-.006-.01.037.01.017.009.118.073.088.049a.753.753,0,0,1,.191.414,1.7,1.7,0,0,1-.041.58.492.492,0,0,0,.713.548c-.033.017-.022.016.033,0-.045,0-.037,0,.023,0s.068,0,.023,0a.834.834,0,0,1,.1.027c-.044-.016.1.054.12.07-.019-.014.088.08.108.1a.6.6,0,0,1,.135.263,1.1,1.1,0,0,1,.017.384,3.361,3.361,0,0,1-.341.994c-.118.257-.237.514-.361.767a6.9,6.9,0,0,1-2.067,2.814.5.5,0,0,0-.174.664.491.491,0,0,0,.664.174,6.958,6.958,0,0,0,2.19-2.716c.254-.485.49-.983.71-1.485a2.569,2.569,0,0,0,.176-2.177,1.59,1.59,0,0,0-.706-.7,1.289,1.289,0,0,0-1.14-.013l.714.548a1.9,1.9,0,0,0-.6-2.095,1.248,1.248,0,0,0-1.755.377l.839.49a1.7,1.7,0,0,0-.678-2.187,1.722,1.722,0,0,0-2.218.6l.839.49a2.174,2.174,0,0,0,.255-2.117,1.45,1.45,0,0,0-2.175-.181,3.5,3.5,0,0,0-.736.93q-.32.527-.612,1.069a21.259,21.259,0,0,0-1.091,2.346,14.845,14.845,0,0,0-.73,2.415,3.329,3.329,0,0,0,.006,1.926,4.189,4.189,0,0,0,2.451,2.111c.568.242,1.152.436,1.739.626a3.119,3.119,0,0,0,1.2.192,2.91,2.91,0,0,0,1.321-.444c.529-.33.042-1.171-.49-.839" transform="translate(-7.616 -4.673)" fill="#161616"/>
        <path id="패스_2357" data-name="패스 2357" d="M648.551,550.7c-6.937-3.048-14.736-5.3-20.539-10.1-1.677-1.39-1.846-2.464-1.194-4.617a8.553,8.553,0,0,1,.332-.915,2.477,2.477,0,0,0,.323-1.434c-.132-.63-.757-1.014-1.328-1.311-3.206-1.665-6.534-3.965-8.179.709a25.8,25.8,0,0,0,8.174,28.7,7.61,7.61,0,0,0,.869.611,118.226,118.226,0,0,0-.026,12.264,3.943,3.943,0,0,0,.313,1.672c.669,1.3,2.43,1.463,3.892,1.455l16.7-.092a5.464,5.464,0,0,0,2.4-.375c1.478-.724,2-2.4,2.09-4.134a10.784,10.784,0,0,0,3.764-.826,9.79,9.79,0,0,0,6.679-7.067c1.76-8.381-6.871-11.084-12.686-13.818q-.784-.369-1.587-.721" transform="translate(-1.015 -18.623)" fill="#ffd97b"/>
        <path id="패스_2358" data-name="패스 2358" d="M647.781,549.265c-2.464-1.082-4.977-2.046-7.473-3.051a78.037,78.037,0,0,1-7.288-3.277,37.9,37.9,0,0,1-3.405-2.014c-.55-.368-1.09-.751-1.613-1.156a10.629,10.629,0,0,1-1.338-1.162,2.568,2.568,0,0,1-.695-2.252,8.859,8.859,0,0,1,.5-1.843,3.223,3.223,0,0,0,.425-2.149,2.537,2.537,0,0,0-1.26-1.338c-.444-.252-.9-.481-1.355-.722a18.019,18.019,0,0,0-2.685-1.242,4.283,4.283,0,0,0-2.53-.179,3.6,3.6,0,0,0-2.079,1.845,10.932,10.932,0,0,0-.752,1.907q-.327,1.03-.566,2.086a26.9,26.9,0,0,0-.618,4.367,26.363,26.363,0,0,0,9.087,21.438,12.147,12.147,0,0,0,1.613,1.223l-.241-.419c-.207,3.1-.2,6.214-.122,9.32q.03,1.145.072,2.289a7.749,7.749,0,0,0,.222,2.134,3.135,3.135,0,0,0,2.568,1.984,20.539,20.539,0,0,0,3.923.138l4.721-.026,9.487-.052a12.21,12.21,0,0,0,2.17-.122,3.654,3.654,0,0,0,1.755-.856,4.983,4.983,0,0,0,1.451-3.066c.046-.317.078-.634.1-.954l-.486.486a7.379,7.379,0,0,0,2.525-.4c.718-.219,1.446-.443,2.141-.729a11.1,11.1,0,0,0,3.473-2.241,9.858,9.858,0,0,0,3.023-7.189,8.6,8.6,0,0,0-2.341-5.795,18.1,18.1,0,0,0-5.219-3.679c-1.96-1-4-1.848-5.992-2.771q-.595-.274-1.194-.537a.5.5,0,0,0-.665.174.489.489,0,0,0,.174.664c1.139.5,2.262,1.037,3.4,1.543.961.429,1.923.856,2.872,1.312s1.9.948,2.806,1.5a15.3,15.3,0,0,1,2.41,1.763,10.812,10.812,0,0,1,1.013,1.048,6.137,6.137,0,0,1,.4.518q.2.288.38.591a7.141,7.141,0,0,1,.924,2.677,8.856,8.856,0,0,1-1.939,6.7,9.918,9.918,0,0,1-2.974,2.4,11.156,11.156,0,0,1-1.762.726,18.261,18.261,0,0,1-2.305.671,4.766,4.766,0,0,1-1.148.078.5.5,0,0,0-.486.486,5.264,5.264,0,0,1-.88,2.93,2.6,2.6,0,0,1-1.216.883,6.055,6.055,0,0,1-1.906.209q-4.539.028-9.078.05l-4.54.025-2.178.012c-.611,0-1.225.021-1.835-.02a3.124,3.124,0,0,1-2.426-.985,3.216,3.216,0,0,1-.37-1.717q-.041-1.1-.074-2.194c-.1-3.327-.119-6.66.1-9.983a.484.484,0,0,0-.241-.42,15.656,15.656,0,0,1-2.91-2.464,25.143,25.143,0,0,1-2.386-2.784,25.7,25.7,0,0,1-3.505-6.56,25.109,25.109,0,0,1-1.458-7.936,25.641,25.641,0,0,1,1.228-8.392,8.583,8.583,0,0,1,.693-1.693,3.715,3.715,0,0,1,.383-.553c.067-.077.137-.151.211-.222.036-.033.072-.066.108-.1.018-.015.127-.1.068-.057A2.507,2.507,0,0,1,618.9,530c.044-.026.09-.05.136-.073.026-.013.145-.064.063-.031a2.558,2.558,0,0,1,.538-.147c-.086.015.007,0,.042,0l.13-.009c.1,0,.191,0,.287,0a2.264,2.264,0,0,1,.508.063,9.272,9.272,0,0,1,2.45.958c.435.223.866.456,1.3.686a6.112,6.112,0,0,1,1.314.779.915.915,0,0,1,.331.557,1.981,1.981,0,0,1-.246.95,10.9,10.9,0,0,0-.636,1.946,3.9,3.9,0,0,0,.291,2.861,8.807,8.807,0,0,0,2.527,2.389,33.384,33.384,0,0,0,3.241,2.107,62.105,62.105,0,0,0,7.1,3.394c2.432,1.013,4.9,1.947,7.329,2.958q.85.354,1.693.723a.5.5,0,0,0,.665-.174.49.49,0,0,0-.174-.665" transform="translate(0 -17.609)" fill="#161616"/>
        <path id="패스_2359" data-name="패스 2359" d="M625.966,540.726a21.321,21.321,0,0,1,6.323,2.37.486.486,0,0,0,.49-.839,22.17,22.17,0,0,0-6.555-2.469.5.5,0,0,0-.6.339.49.49,0,0,0,.339.6" transform="translate(-7.173 -25.059)" fill="#161616"/>
        <path id="패스_2360" data-name="패스 2360" d="M685.276,584.046l-1,3.643a4.229,4.229,0,0,1-.852,1.852,3.363,3.363,0,0,1-2.133.874,8,8,0,0,1-3.657-.476,2.3,2.3,0,0,1-1.389-1.094,2.658,2.658,0,0,1-.136-1.1l.063-3.693" transform="translate(-41.316 -54.992)" fill="#ffd8c7"/>
        <path id="패스_2361" data-name="패스 2361" d="M683.778,582.93c-.342,1.245-.681,2.492-1.026,3.736a4.157,4.157,0,0,1-.574,1.4,2.094,2.094,0,0,1-1.1.715,6.584,6.584,0,0,1-3.276.028c-.825-.187-2.112-.49-2.226-1.485a7.5,7.5,0,0,1,0-.961q.01-.561.019-1.124.018-1.083.037-2.167a.486.486,0,0,0-.971,0q-.017,1.043-.035,2.087c-.011.683-.061,1.378-.024,2.061a2.115,2.115,0,0,0,.774,1.607,4.848,4.848,0,0,0,1.668.789,8.194,8.194,0,0,0,3.891.2,3.655,3.655,0,0,0,1.6-.726,3.319,3.319,0,0,0,.96-1.513c.237-.673.4-1.376.587-2.063l.639-2.326a.486.486,0,0,0-.937-.258" transform="translate(-40.286 -54.005)" fill="#161616"/>
        <path id="패스_2362" data-name="패스 2362" d="M720.1,561.862a3.488,3.488,0,1,0,.126-6.133" transform="translate(-71.06 -35.583)" fill="#ffd8c7"/>
        <path id="패스_2363" data-name="패스 2363" d="M718.839,561.286a3.974,3.974,0,1,0,.126-6.972.486.486,0,0,0,.49.839,3.022,3.022,0,0,1,1.466-.32,3.179,3.179,0,0,1,1.163.28,2.912,2.912,0,0,1,.928.682,3.2,3.2,0,0,1,.578.9,3,3,0,0,1-4.261,3.748c-.547-.3-1.038.535-.491.839" transform="translate(-70.049 -34.588)" fill="#161616"/>
        <path id="패스_2364" data-name="패스 2364" d="M646.944,553.681a3.488,3.488,0,1,1,1.3-5.994" transform="translate(-18.582 -29.837)" fill="#ffd8c7"/>
        <path id="패스_2365" data-name="패스 2365" d="M645.837,552.216a3,3,0,1,1-1.621-5.781,2.421,2.421,0,0,1,.625-.1,3,3,0,0,1,.7.045,3.045,3.045,0,0,1,1.387.654.5.5,0,0,0,.687,0,.489.489,0,0,0,0-.687,4.06,4.06,0,0,0-3.256-.932,3.935,3.935,0,0,0-2.479,1.461,3.973,3.973,0,0,0,4.219,6.277.486.486,0,0,0-.258-.937" transform="translate(-17.604 -28.84)" fill="#161616"/>
        <path id="패스_2366" data-name="패스 2366" d="M652.14,529.264a12.192,12.192,0,1,0,13.535-10.682,12.193,12.193,0,0,0-13.535,10.682" transform="translate(-25.054 -10.67)" fill="#ffd8c7"/>
        <path id="패스_2367" data-name="패스 2367" d="M650.646,528.249A12.673,12.673,0,0,0,657.531,541a12.844,12.844,0,0,0,7.791,1.184,12.675,12.675,0,1,0-14.3-15.894,13.327,13.327,0,0,0-.376,1.962.488.488,0,0,0,.486.486.5.5,0,0,0,.486-.486,12.109,12.109,0,0,1,.986-3.474,11.719,11.719,0,0,1,15.178-5.9,11.811,11.811,0,0,1,5.306,4.466,11.718,11.718,0,0,1-.6,13.521,11.815,11.815,0,0,1-5.7,3.971,11.379,11.379,0,0,1-3.578.546,11.706,11.706,0,0,1-6.845-2.232,12.16,12.16,0,0,1-2.464-2.421,11.742,11.742,0,0,1-2.354-6.615,12.479,12.479,0,0,1,.077-1.866.488.488,0,0,0-.486-.486.5.5,0,0,0-.486.486" transform="translate(-24.046 -9.655)" fill="#161616"/>
        <path id="패스_2368" data-name="패스 2368" d="M702.511,561.781a2.546,2.546,0,1,0,2.826-2.231,2.546,2.546,0,0,0-2.826,2.231" transform="translate(-59.158 -38.417)" fill="#ffb9a1"/>
        <path id="패스_2369" data-name="패스 2369" d="M658.2,556.563a2.546,2.546,0,1,0,2.826-2.231,2.546,2.546,0,0,0-2.826,2.231" transform="translate(-29.195 -34.888)" fill="#ffb9a1"/>
        <path id="패스_2370" data-name="패스 2370" d="M699.287,554.558a.956.956,0,1,0,1.062-.838.956.956,0,0,0-1.062.838" transform="translate(-56.986 -34.482)" fill="#161616"/>
        <path id="패스_2371" data-name="패스 2371" d="M673.726,551.256a.956.956,0,1,0,1.062-.838.956.956,0,0,0-1.062.838" transform="translate(-39.702 -32.249)" fill="#161616"/>
        <path id="패스_2372" data-name="패스 2372" d="M687.423,553a.819.819,0,0,0-.281-.165.788.788,0,0,0-.216-.033.8.8,0,0,0-.426.12,1.2,1.2,0,0,0-.461.659,1.98,1.98,0,0,0,.024,1.321.529.529,0,0,0,.223.29.5.5,0,0,0,.375.049.492.492,0,0,0,.29-.223.473.473,0,0,0,.049-.374,1.635,1.635,0,0,1-.093-.361c.006.043.012.086.018.129a1.651,1.651,0,0,1,0-.4l-.017.129a1.578,1.578,0,0,1,.11-.406l-.049.116a.859.859,0,0,1,.1-.176l-.076.1a.579.579,0,0,1,.079-.078l-.1.076a.456.456,0,0,1,.072-.042l-.116.049a.43.43,0,0,1,.078-.022l-.129.017a.406.406,0,0,1,.079,0l-.129-.017a.382.382,0,0,1,.057.014l-.116-.049a.36.36,0,0,1,.052.028l-.1-.076.016.012a.528.528,0,0,0,.343.143.5.5,0,0,0,.344-.143.487.487,0,0,0,.142-.343.47.47,0,0,0-.142-.344" transform="translate(-47.963 -33.865)" fill="#161616"/>
        <path id="패스_2373" data-name="패스 2373" d="M653.772,520.365a13.12,13.12,0,0,0,4.823-2.458,3.911,3.911,0,0,0,3.276,2.359,6.038,6.038,0,0,0,3.993-1.18,3.346,3.346,0,0,0,1.766,2.613,3.618,3.618,0,0,0,3.134-.032c.446,1.379,1.179,3.195,2.863,3.279,1.9.1,1.971-2.443,2.009-3.869a11.618,11.618,0,0,0-1.18-5.381c-3.97-8.1-18.891-9.815-24.029-2.094a17.431,17.431,0,0,1-1.369,2.065,13.305,13.305,0,0,0-.947,1.018c-.811,1.122-.689,3.487.661,4.2s3.685-.17,5-.524" transform="translate(-22.045 -3.999)" fill="#38322f"/>
        <path id="패스_2374" data-name="패스 2374" d="M652.888,519.82a13.833,13.833,0,0,0,5.037-2.583l-.812-.214a4.227,4.227,0,0,0,2.354,2.366,5.279,5.279,0,0,0,3.643.091,7.53,7.53,0,0,0,1.987-.987l-.731-.42a3.888,3.888,0,0,0,1.748,2.883,4.049,4.049,0,0,0,3.768.166l-.6-.339a7,7,0,0,0,1.426,2.747,2.607,2.607,0,0,0,2.9.7,2.781,2.781,0,0,0,1.327-2.123,12.472,12.472,0,0,0,.161-2.952,11.734,11.734,0,0,0-2.451-6.618,12.972,12.972,0,0,0-3.977-3.277,17.271,17.271,0,0,0-5.127-1.8,18.055,18.055,0,0,0-5.461-.2,14.665,14.665,0,0,0-5.112,1.54,10.9,10.9,0,0,0-3.875,3.4c-.377.544-.679,1.137-1.056,1.682-.387.561-.936.973-1.339,1.52a3.8,3.8,0,0,0-.517,2.874A2.724,2.724,0,0,0,648,520.493a6.435,6.435,0,0,0,3.45-.261c.482-.131.958-.282,1.44-.412a.486.486,0,0,0-.258-.937,21.335,21.335,0,0,1-2.95.736,5.184,5.184,0,0,1-.8.037,2.05,2.05,0,0,1-.625-.1,1.4,1.4,0,0,1-.812-.637,1.717,1.717,0,0,1-.227-.5c-.033-.107-.061-.217-.083-.328-.01-.048-.017-.1-.026-.144-.014-.082.007.066,0-.017,0-.032-.007-.065-.011-.1a3.884,3.884,0,0,1,0-.687c0-.023.014-.136.01-.1s.016-.1.021-.125q.03-.162.075-.321a2.932,2.932,0,0,1,.1-.3c-.031.074.011-.021.023-.045q.038-.078.081-.152a3.009,3.009,0,0,1,.5-.6,8.468,8.468,0,0,0,1.246-1.541c.3-.492.584-1,.926-1.463l.078-.106c.015-.02.1-.125.044-.058.063-.08.127-.159.192-.237q.195-.233.4-.454a10.191,10.191,0,0,1,.865-.811c.077-.064.156-.127.234-.189.043-.035-.007,0-.013.01l.051-.039.138-.1q.244-.179.5-.344a11.48,11.48,0,0,1,1.033-.6q.272-.14.551-.266l.14-.062.083-.036.023-.01.081-.033.164-.065A14.186,14.186,0,0,1,657,508.4c.208-.042.416-.079.625-.113l.293-.044.049-.007.026,0,.181-.022q.629-.073,1.261-.1a17.784,17.784,0,0,1,2.573.085l.3.034.162.021.1.015q.311.045.621.1.641.116,1.272.277t1.22.36q.306.1.607.216l.278.108.149.06.095.039a15.19,15.19,0,0,1,2.2,1.151q.262.167.517.346.118.083.234.167l.124.092c.021.016.147.112.076.057q.474.369.91.782a11.334,11.334,0,0,1,.818.86c.065.076.129.153.192.231l.08.1.053.067c-.029-.038-.022-.029,0,0,.119.161.236.322.348.488a10.391,10.391,0,0,1,1.3,2.768,11.585,11.585,0,0,1,.474,3.743c-.012.391-.03.783-.075,1.172,0,.024-.022.169-.008.072-.006.045-.013.089-.02.133q-.026.166-.061.33a4.3,4.3,0,0,1-.16.563c-.009.026-.055.14-.037.1s-.036.076-.043.091a2.281,2.281,0,0,1-.138.242c-.011.017-.089.122-.052.076s-.036.04-.048.053c-.03.033-.061.063-.093.094-.013.013-.028.025-.042.037-.049.045.094-.058,0,0a2.448,2.448,0,0,1-.213.123c-.049.025.022-.009.027-.011-.025.009-.049.019-.074.026-.046.013-.091.025-.137.036-.115.029.028.006-.06.012-.053,0-.105.007-.158.008s-.1,0-.145,0-.072,0-.108-.009c-.088-.01.057.01-.028-.006a1.8,1.8,0,0,1-1.04-.57,4.12,4.12,0,0,1-.736-1.133c-.022-.047-.044-.095-.065-.142l-.041-.1c0,.011.02.048,0,0-.043-.1-.083-.206-.122-.311-.081-.215-.155-.433-.226-.652a.489.489,0,0,0-.6-.339,3.194,3.194,0,0,1-2.968-.037,2.883,2.883,0,0,1-1.318-2.076c-.034-.332-.4-.649-.731-.419a6.586,6.586,0,0,1-1.955.949,4.611,4.611,0,0,1-1.957.141,3.425,3.425,0,0,1-2.644-1.979.494.494,0,0,0-.812-.214,12.67,12.67,0,0,1-4.609,2.333.486.486,0,0,0,.258.937" transform="translate(-21.032 -2.985)" fill="#161616"/>
        <path id="패스_2375" data-name="패스 2375" d="M678.388,518.371a1.256,1.256,0,0,0,.4-.656c.475-1.495-.36-3.731-.962-5.075a12.947,12.947,0,0,0-5.682-6.385,16.433,16.433,0,0,0-12.542-1.424c-3.789,1.015-7.506,3.3-8.479,7.338a1.118,1.118,0,0,0-.022.618c.178.523.9.537,1.45.457a26.052,26.052,0,0,1,10.628.2c3.227.886,6.438,1.352,9.581,2.675q1.534.646,3.037,1.365c.869.417,1.93,1.37,2.586.885" transform="translate(-24.387 -1.001)" fill="#3f9cb2"/>
        <path id="패스_2376" data-name="패스 2376" d="M677.73,517.713a2.2,2.2,0,0,0,.653-1.475,5.522,5.522,0,0,0-.066-1.6,13.069,13.069,0,0,0-.985-3.058,14.289,14.289,0,0,0-3.569-5.074,15.48,15.48,0,0,0-6.233-3.245,17.275,17.275,0,0,0-7.471-.255,16.794,16.794,0,0,0-6,2.232,9.974,9.974,0,0,0-3.955,4.452,7.065,7.065,0,0,0-.486,1.518,1.313,1.313,0,0,0,.135.966,1.252,1.252,0,0,0,.644.485,3.192,3.192,0,0,0,1.544.012q.949-.135,1.9-.229a23.11,23.11,0,0,1,7.8.365c1.287.318,2.568.652,3.859.954s2.57.608,3.831,1a32.674,32.674,0,0,1,3.743,1.46c.586.263,1.189.515,1.749.829a13.864,13.864,0,0,0,1.384.767,1.466,1.466,0,0,0,1.416-.027.5.5,0,0,0,.174-.664.49.49,0,0,0-.664-.174.687.687,0,0,1-.116.069c.1-.041-.035,0-.049,0,.11-.021-.03-.006-.047,0-.125.007.071.026-.056-.005a2.121,2.121,0,0,1-.586-.234c-.444-.239-.859-.529-1.315-.747-1.2-.577-2.42-1.133-3.662-1.615a57.852,57.852,0,0,0-7.364-2.02c-1.212-.294-2.4-.655-3.641-.841a23.126,23.126,0,0,0-3.838-.242,35.61,35.61,0,0,0-3.791.289q-.478.06-.954.127l-.224.032c-.236.034.079,0-.094.012a3.388,3.388,0,0,1-.362.017c-.051,0-.1,0-.155-.008-.157-.015.08.023-.069-.013a1.357,1.357,0,0,1-.139-.038c.088.031-.041-.021-.051-.027-.106-.06.039.058-.041-.032s.013.064-.028-.046c.028.075-.005-.014-.006-.045a.874.874,0,0,1,.024-.217,8.3,8.3,0,0,1,2.943-4.552,13.85,13.85,0,0,1,4.993-2.454,17.055,17.055,0,0,1,6.884-.538,15.4,15.4,0,0,1,6.454,2.434,12.27,12.27,0,0,1,3.827,4.178,16.459,16.459,0,0,1,1.211,2.644,7.267,7.267,0,0,1,.545,2.941,1.508,1.508,0,0,1-.392,1.01.488.488,0,0,0,0,.687.5.5,0,0,0,.687,0" transform="translate(-23.385 0)" fill="#161616"/>
        <path id="패스_2377" data-name="패스 2377" d="M720.675,613.03a7.293,7.293,0,0,0-8.487,3.535,11.212,11.212,0,0,0-1.143,7.193,5.3,5.3,0,0,0,2.554,3.762,7.144,7.144,0,0,0,3.221.628,8.1,8.1,0,0,0,5.171-1.323" transform="translate(-64.82 -74.359)" fill="#ffd97b"/>
        <path id="패스_2378" data-name="패스 2378" d="M721.138,611.607a7.329,7.329,0,0,0-5.645.5,8.05,8.05,0,0,0-2.254,1.677,8.532,8.532,0,0,0-1.628,2.648,11.2,11.2,0,0,0-.623,6.853,6.288,6.288,0,0,0,1.416,2.705,5.078,5.078,0,0,0,2.925,1.538,12.9,12.9,0,0,0,3.816.049,7.094,7.094,0,0,0,3.524-1.362.488.488,0,0,0,0-.687c-.2-.2-.459-.132-.687,0a8.037,8.037,0,0,1-2.7,1.055,12.892,12.892,0,0,1-3.047.085,4.736,4.736,0,0,1-2.754-.989,4.913,4.913,0,0,1-1.418-2.19,9.809,9.809,0,0,1,.24-6.144,8.518,8.518,0,0,1,1.261-2.454,7,7,0,0,1,1.927-1.676,6.428,6.428,0,0,1,5.391-.67.486.486,0,1,0,.258-.937" transform="translate(-64.711 -73.388)" fill="#161616"/>
        <path id="패스_2379" data-name="패스 2379" d="M700.68,611.063l-.556,1.577c-.166.471.279.784.7.494l1.39-.957,5.686-7.229-1.533-1.114Z" transform="translate(-57.532 -68.372)" fill="#ffd97b"/>
        <path id="패스_2380" data-name="패스 2380" d="M699.479,612.718a.886.886,0,0,1-.545-.183.929.929,0,0,1-.281-1.07l.556-1.577a.493.493,0,0,1,.076-.139l5.686-7.229a.487.487,0,0,1,.667-.093l1.534,1.115a.487.487,0,0,1,.1.693l-5.686,7.229a.483.483,0,0,1-.106.1l-1.39.956a1.073,1.073,0,0,1-.608.2m.083-.9h0Zm.537-1.536-.486,1.381,1.252-.861,5.328-6.775-.747-.543Z" transform="translate(-56.52 -67.358)" fill="#161616"/>
        <path id="패스_2381" data-name="패스 2381" d="M713.791,618.923a5.212,5.212,0,0,0-1.156-4.137c-.973-1.015-2.63-2.26-4.124-2a3.043,3.043,0,0,0-2.435,2.876.353.353,0,0,0,.065.249.376.376,0,0,0,.222.091l.89.154a1.408,1.408,0,0,0-.759.734,1.022,1.022,0,0,0,.587,1.126,2.985,2.985,0,0,0,1.349.221.685.685,0,0,0-.529.894,1.023,1.023,0,0,0,.942.624,2.117,2.117,0,0,0,1.131-.353.762.762,0,0,0,.248.874,2.038,2.038,0,0,0,.9.37,2.52,2.52,0,0,0,1.678-.046,2.179,2.179,0,0,0,.994-1.679" transform="translate(-61.58 -74.403)" fill="#ffd8c7"/>
        <path id="패스_2382" data-name="패스 2382" d="M713.249,618.038a5.991,5.991,0,0,0-.353-3.117,4.8,4.8,0,0,0-.833-1.388,8.208,8.208,0,0,0-1.176-1.066,4.987,4.987,0,0,0-3.035-1.213,3.506,3.506,0,0,0-3.266,3.224.848.848,0,0,0,.4.9,1.978,1.978,0,0,0,.571.135l.557.1-.116-.888a2.02,2.02,0,0,0-.89.8,1.322,1.322,0,0,0,.046,1.251,2.4,2.4,0,0,0,2.266.938v-.972a1.185,1.185,0,0,0-.736,1.968,1.965,1.965,0,0,0,2.525.1l-.664-.665a1.3,1.3,0,0,0,.581,1.651,2.848,2.848,0,0,0,.853.306,4.95,4.95,0,0,0,.986.138,2.051,2.051,0,0,0,1.626-.68,3.111,3.111,0,0,0,.658-1.522.5.5,0,0,0-.339-.6.489.489,0,0,0-.6.339c-.11.68-.374,1.416-1.142,1.484a3.431,3.431,0,0,1-1.251-.178.9.9,0,0,1-.446-.245.631.631,0,0,1-.063-.111c0-.014-.034-.121-.017-.066-.009-.029.014-.081-.01-.027a.508.508,0,0,0-.076-.589.5.5,0,0,0-.588-.076c-.395.229-.877.42-1.238.162.041.029-.081-.078-.074-.07.037.043-.06-.095-.053-.085.028.04-.022-.1-.009,0,0-.019.005-.154-.006-.071,0-.016.044-.144.014-.074a.718.718,0,0,1,.041-.076.125.125,0,0,1,.021-.024c.03-.017.027-.018-.009-.005q.085-.02.014-.013a.5.5,0,0,0,.486-.486.493.493,0,0,0-.486-.486c-.456,0-1.085,0-1.366-.359a.493.493,0,0,1-.114-.244.276.276,0,0,1,.034-.175,1.236,1.236,0,0,1,.514-.4.491.491,0,0,0-.116-.888c-.272-.047-.544-.093-.816-.141l-.074-.013q-.185-.057.068.158c.012-.006-.027.143,0-.029.009-.055,0-.117.007-.172,0,.012.019-.165.009-.1a2.492,2.492,0,0,1,.444-1.094,2.42,2.42,0,0,1,1.9-1.062,4.209,4.209,0,0,1,2.384,1,4.451,4.451,0,0,1,2.011,3.238,5.424,5.424,0,0,1,.005,1.313.5.5,0,0,0,.339.6.489.489,0,0,0,.6-.339" transform="translate(-60.57 -73.389)" fill="#161616"/>
        <path id="패스_2383" data-name="패스 2383" d="M651.318,588.632q-.617,4.975-.881,9.984a.486.486,0,1,0,.971,0q.263-5.006.881-9.984a.488.488,0,0,0-.486-.486.5.5,0,0,0-.486.486" transform="translate(-23.959 -57.764)" fill="#161616"/>
        <path id="패스_2384" data-name="패스 2384" d="M690.275,520.3a.763.763,0,0,0,.372.061c.289-.052.408-.4.429-.692a3.864,3.864,0,0,0-2.57-3.638c-2.606-1.017-6.13-.785-7.287,2.2,1.142.264,2.2.53,3.352.7a32.676,32.676,0,0,1,5.7,1.371" transform="translate(-44.774 -8.634)" fill="#38322f"/>
        <path id="패스_2385" data-name="패스 2385" d="M689.119,519.74a.981.981,0,0,0,1.073-.2,1.449,1.449,0,0,0,.34-.878,3.555,3.555,0,0,0-.327-1.738,4.687,4.687,0,0,0-2.569-2.383,7.143,7.143,0,0,0-5.69.022,4.628,4.628,0,0,0-2.222,2.5.489.489,0,0,0,.339.6c.757.175,1.513.36,2.276.512s1.533.25,2.3.392a32.879,32.879,0,0,1,4.484,1.167.486.486,0,1,0,.258-.937,32.852,32.852,0,0,0-4.483-1.168c-.764-.142-1.534-.24-2.3-.391s-1.518-.337-2.276-.512l.339.6a4.071,4.071,0,0,1,.266-.537c.052-.088.107-.175.165-.258.029-.041.058-.082.088-.122s.007-.009,0,0l.063-.077a3.951,3.951,0,0,1,.424-.431c.036-.031.073-.062.11-.092s0,0,0,0l.057-.043c.083-.06.168-.118.255-.172a4.431,4.431,0,0,1,.523-.276c.051-.023,0,0-.007,0l.066-.027.133-.051c.1-.036.2-.068.3-.1a5.362,5.362,0,0,1,.588-.136l.144-.023c.057-.009,0,0-.008,0l.073-.009c.106-.012.212-.022.318-.029a6.735,6.735,0,0,1,2.415.27,4.312,4.312,0,0,1,2.247,1.374,3.106,3.106,0,0,1,.648,1.331,1.777,1.777,0,0,1,.045.328,2.388,2.388,0,0,1,0,.405c-.007.057,0,.013,0,0-.006.036-.016.071-.025.106s-.043.042-.045.1-.023,0,0,0c0,0,.051-.029.051-.023s-.153-.045-.163-.048a.486.486,0,0,0-.258.937" transform="translate(-43.746 -7.605)" fill="#161616"/>
        <path id="패스_2386" data-name="패스 2386" d="M677.686,567.989a3.9,3.9,0,0,1-.024-3.145c.368-.513,1.481-.217,1.972-.156a10.7,10.7,0,0,1,2.761.73,1.387,1.387,0,0,1,.705.505,1.45,1.45,0,0,1-.065,1.319c-.579,1.225-1.4,2.406-2.771,2.427a2.659,2.659,0,0,1-2.578-1.681" transform="translate(-42.147 -41.808)" fill="#fff"/>
        <path id="패스_2387" data-name="패스 2387" d="M677.139,566.841a4.627,4.627,0,0,1-.316-1.3,3.969,3.969,0,0,1,0-.806c.007-.058,0-.015,0,0,0-.026.008-.052.014-.078.012-.059.024-.118.039-.175s.033-.111.052-.166,0-.006,0,0a1.162,1.162,0,0,1,.052-.105c.011-.02.086-.147.034-.071.021-.031.09-.077.021-.031.023-.016.047-.028.07-.042-.006,0-.073.027-.02.007a1.258,1.258,0,0,1,.171-.046c.055-.011-.005,0-.015,0,.032,0,.064-.006.1-.008.049,0,.1,0,.147,0,.126,0,.252.013.377.026l.075.009c-.077-.01,0,0,.017,0l.163.026c.1.016.19.032.286.047.327.049.653.093.976.162a9.113,9.113,0,0,1,1.916.6c.219.1.384.191.429.423a1.266,1.266,0,0,1-.125.667,5.759,5.759,0,0,1-.8,1.341,3.751,3.751,0,0,1-.267.284,2.133,2.133,0,0,1-.259.217,1.806,1.806,0,0,1-.615.291,2.163,2.163,0,0,1-.8.036,2.865,2.865,0,0,1-.683-.207,2.3,2.3,0,0,1-1.084-1.214.489.489,0,0,0-.665-.174.5.5,0,0,0-.174.664,3.184,3.184,0,0,0,3.145,1.915,3.8,3.8,0,0,0,2.914-2.4,2.07,2.07,0,0,0,.143-2.149,2.042,2.042,0,0,0-.944-.655,10.7,10.7,0,0,0-2.352-.671q-.13-.021-.26-.04l-.2-.028c-.16-.021-.046-.006-.013,0-.124-.019-.248-.04-.373-.061a2.572,2.572,0,0,0-1.744.124,2.189,2.189,0,0,0-.73,1.888,5.19,5.19,0,0,0,.368,1.957.5.5,0,0,0,.6.339.489.489,0,0,0,.339-.6" transform="translate(-41.132 -40.788)" fill="#161616"/>
      </g>
    </g>
    <g id="마스크_그룹_113" data-name="마스크 그룹 113" transform="translate(-9.001 3.511) rotate(-16)" clip-path="url(#clip-path-2)">
      <path id="free-icon-musical-note-727218" d="M5.934,5.928a3.872,3.872,0,0,0,.519-1.7A2.38,2.38,0,0,0,6.2,3.041,3.342,3.342,0,0,0,4.912,1.77,3.647,3.647,0,0,1,3.958.965L3.915.906a1.587,1.587,0,0,1-.333-.6A.363.363,0,0,0,3.2,0a.358.358,0,0,0-.333.357V6.747a2.074,2.074,0,0,0-1.076-.294A1.646,1.646,0,0,0,0,7.887,1.646,1.646,0,0,0,1.793,9.321,1.646,1.646,0,0,0,3.585,7.887V3.708A2.581,2.581,0,0,1,5.248,5.662a2.022,2.022,0,0,1-.138.2.358.358,0,1,0,.538.473,2.666,2.666,0,0,0,.263-.37A.226.226,0,0,0,5.934,5.928Z" transform="translate(1.432 0)"/>
    </g>
    <g id="마스크_그룹_111" data-name="마스크 그룹 111" transform="matrix(0.966, 0.259, -0.259, 0.966, 44.744, 7.275)" clip-path="url(#clip-path-3)">
      <g id="그룹_1298" data-name="그룹 1298" transform="translate(-227.533 -55.561) rotate(5)">
        <path id="패스_2388" data-name="패스 2388" d="M241.728,58.318v2.315c0,.18.68.325,1.519.325s1.519-.146,1.519-.325V58.246Z" transform="translate(-6.521 -17.61)" fill="#fff"/>
        <path id="패스_2389" data-name="패스 2389" d="M244.544,65.572l.024.448a.473.473,0,0,0,.9,0l.024-.448Z" transform="translate(-8.294 -22.224)" fill="#0054c6"/>
        <path id="패스_2390" data-name="패스 2390" d="M241.728,58.318v2.315c0,.18.68.325,1.519.325s1.519-.146,1.519-.325V58.246" transform="translate(-6.521 -17.61)" fill="none" stroke="#000" stroke-linecap="round" stroke-linejoin="round" stroke-width="0.44"/>
        <circle id="타원_441" data-name="타원 441" cx="5.353" cy="5.353" r="5.353" transform="translate(231.373 30.283)" fill="#f3b200" stroke="#161616" stroke-width="1"/>
        <ellipse id="타원_442" data-name="타원 442" cx="0.434" cy="1.465" rx="0.434" ry="1.465" transform="translate(235.286 40.497) rotate(-89.867)" fill="none" stroke="#fff" stroke-linecap="round" stroke-linejoin="round" stroke-width="0.44"/>
        <path id="패스_2391" data-name="패스 2391" d="M241.051,45.932a7.633,7.633,0,0,1-1.652-4.758,1.664,1.664,0,0,1,.2-.757.728.728,0,0,1,.65-.374.911.911,0,0,1,.549.317,2.432,2.432,0,0,1,.644,1.977.278.278,0,0,1-.068.171.2.2,0,0,1-.25-.015.5.5,0,0,1-.132-.236,2.51,2.51,0,0,1,.368-2.273c.386-.452.96-.046,1.151.369.234.509.538,1.917-.059,2.3a.242.242,0,0,1-.272,0,.369.369,0,0,1-.091-.32c.036-.644.5-2.5,1.468-2.275.993.229.6,2.06.428,2.686a10.832,10.832,0,0,1-1.468,3.2" transform="translate(-5.047 -5.984)" fill="none" stroke="#000" stroke-linecap="round" stroke-linejoin="round" stroke-width="0.44"/>
        <path id="패스_2392" data-name="패스 2392" d="M241.728,63.155c0,.18.68.325,1.519.325s1.519-.146,1.519-.325" transform="translate(-6.521 -20.702)" fill="none" stroke="#000" stroke-linecap="round" stroke-linejoin="round" stroke-width="0.44"/>
        <path id="패스_2393" data-name="패스 2393" d="M241.728,61.347c0,.18.68.326,1.519.326s1.519-.146,1.519-.326" transform="translate(-6.521 -19.563)" fill="none" stroke="#000" stroke-linecap="round" stroke-linejoin="round" stroke-width="0.44"/>
        <path id="패스_2394" data-name="패스 2394" d="M241.728,59.54c0,.18.68.325,1.519.325s1.519-.146,1.519-.325" transform="translate(-6.521 -18.425)" fill="none" stroke="#000" stroke-linecap="round" stroke-linejoin="round" stroke-width="0.44"/>
        <ellipse id="타원_443" data-name="타원 443" cx="0.678" cy="0.949" rx="0.678" ry="0.949" transform="translate(237.744 32.146) rotate(-49.161)" fill="#fff"/>
      </g>
    </g>
    <path id="패스_2242" data-name="패스 2242" d="M1.115,0A4.77,4.77,0,0,0,.382,4.979" transform="translate(-3.646 31.104) rotate(-9)" fill="none" stroke="#000" stroke-linecap="round" stroke-width="1"/>
    <path id="패스_2244" data-name="패스 2244" d="M1.115,4.979A4.77,4.77,0,0,1,.382,0" transform="translate(56.95 53.332) rotate(180)" fill="none" stroke="#000" stroke-linecap="round" stroke-width="1"/>
    <path id="패스_2241" data-name="패스 2241" d="M1.453,0A7.568,7.568,0,0,0,.5,7.265" transform="matrix(0.951, -0.309, 0.309, 0.951, -7.385, 31.028)" fill="none" stroke="#000" stroke-linecap="round" stroke-width="1"/>
    <path id="패스_2243" data-name="패스 2243" d="M1.453,7.265A7.568,7.568,0,0,1,.5,0" transform="matrix(-0.988, -0.156, 0.156, -0.988, 59.863, 54.844)" fill="none" stroke="#000" stroke-linecap="round" stroke-width="1"/>
  </g>
</svg>
