<svg xmlns="http://www.w3.org/2000/svg" width="180" height="260" viewBox="0 0 180 260">
  <g id="그룹_855" data-name="그룹 855" transform="translate(0 -11)">
    <rect id="img_" width="180" height="260" transform="translate(0 11)" fill="#c9cdd2"/>
    <g id="그룹_686" data-name="그룹 686" transform="translate(-1056.332 -845.833)">
      <g id="image" transform="translate(1115.333 961.833)">
        <path id="패스_986" data-name="패스 986" d="M57.621,49.7H9.487A6.994,6.994,0,0,1,2.5,42.714V7A6.994,6.994,0,0,1,9.487.014H57.621A6.994,6.994,0,0,1,64.608,7V42.714A6.994,6.994,0,0,1,57.621,49.7ZM9.487,4.673A2.33,2.33,0,0,0,7.158,7V42.714a2.33,2.33,0,0,0,2.329,2.329H57.621a2.33,2.33,0,0,0,2.329-2.329V7a2.33,2.33,0,0,0-2.329-2.329Zm0,0" transform="translate(-2.5 -0.014)" fill="#fff"/>
        <path id="패스_987" data-name="패스 987" d="M10.586,14.312A6.211,6.211,0,1,1,16.8,8.1,6.217,6.217,0,0,1,10.586,14.312Zm0-7.764A1.553,1.553,0,1,0,12.138,8.1,1.553,1.553,0,0,0,10.586,6.548Zm0,0" transform="translate(4.942 7.427)" fill="#fff"/>
        <path id="패스_988" data-name="패스 988" d="M4.84,33.4a2.33,2.33,0,0,1-1.646-3.978L17.231,15.382a5.45,5.45,0,0,1,7.7,0l3.755,3.755L40.22,5.292A5.434,5.434,0,0,1,44.37,3.333a4.994,4.994,0,0,1,4.164,1.91L63.993,23.279a2.33,2.33,0,0,1-3.537,3.034L44.991,8.271a.932.932,0,0,0-.6-.277.78.78,0,0,0-.6.283L30.631,24.083a2.325,2.325,0,0,1-1.683.835,2.283,2.283,0,0,1-1.752-.68L21.638,18.68a.673.673,0,0,0-1.115,0L6.486,32.713A2.313,2.313,0,0,1,4.84,33.4Zm0,0" transform="translate(-2.449 13.123)" fill="#fff"/>
      </g>
    </g>
  </g>
</svg>
